<?xml version="1.0" encoding="utf-8"?>
<!-- Generator: Adobe Illustrator 26.0.3, SVG Export Plug-In . SVG Version: 6.00 Build 0)  -->
<svg version="1.1" id="Layer_1" xmlns="http://www.w3.org/2000/svg" xmlns:xlink="http://www.w3.org/1999/xlink" x="0px" y="0px"
	 viewBox="0 0 1133.86 1133.86" style="enable-background:new 0 0 1133.86 1133.86;" xml:space="preserve">
<style type="text/css">
	.st0{fill:#1568B3;}
	.st1{fill:#CD202C;}
	.st2{opacity:0.7;fill:#EFEFF0;}
	.st3{fill:#EFEFF0;}
	.st4{fill:#494E53;}
	.st5{opacity:0.5;}
	.st6{fill:#A6A7AA;}
	.st7{fill:#2A4360;}
	.st8{fill:#436389;}
	.st9{opacity:0.5;fill:#FFFFFF;}
	.st10{fill:#ABB4B4;}
	.st11{fill:#CDD7D6;}
	.st12{fill:#E8E1D8;}
	.st13{fill:#96938F;}
	.st14{fill:#DADBDC;}
	.st15{fill:#BCBEBF;}
	.st16{opacity:0.6;fill:#FFFFFF;}
	.st17{fill:#043D70;}
	.st18{fill:#327FC2;}
</style>
<g>
	<g>
		<g>
			<path class="st0" d="M1010.24,366.66l-26.99-11.13c-0.05-0.01-0.12-0.01-0.18-0.01c-6.46-0.6-12.38-2.36-18.27,2.02
				c-4.24,3.16-6.91,7.96-10.36,11.76c-25.62,32.85-46.35,59.21-62.84,80.07c-3.95,4.97-83.02,44.98-86.5,49.36
				c-28.81,36.34,33.27,24.12,31.84,26.68c-4.67,8.29,126.32,2.02,154.82,8.18l23.33-150.94
				C1014.5,376.96,1013.12,371.57,1010.24,366.66z"/>
			<g>
				<path class="st1" d="M987.16,359.61c0.06,0,0.12,0,0.18,0.01l24.42,10.07c-0.46-1.03-0.94-2.04-1.52-3.03l-26.99-11.13
					c-0.05-0.01-0.12-0.01-0.18-0.01c-0.85-0.08-1.7-0.18-2.54-0.28C982.78,357.52,985.03,359.41,987.16,359.61z"/>
				<path class="st2" d="M809.2,502.82c3.48-4.38,82.55-44.36,86.5-49.36c16.48-20.85,37.22-47.22,62.84-80.07
					c1.8-1.98,2.97-8.15,4.29-14.05c-3.15,3.02-5.52,6.82-8.38,9.96c-25.62,32.85-46.35,59.21-62.84,80.07
					c-3.95,4.97-83.02,44.98-86.5,49.36c-10.46,13.2-8.91,19.98-2.8,23.4C800.45,518.13,801.88,512.04,809.2,502.82z"/>
			</g>
			<path class="st0" d="M1010.24,366.66l-26.99-11.13c-0.05-0.01-0.12-0.01-0.18-0.01c-5.58-0.53-10.76-1.89-15.85,0.58
				c1.67,0.12,3.36,0.33,5.13,0.76c11.21,2.63,32.48,7.32,30.61,22.8c-3.32,27.3-11.42,54.69-17.34,81.55
				c-5.12,23.33-9.53,46.89-14.58,70.25c8.89,0.45,16.15,1.12,20.73,2.12l23.33-150.94C1014.5,376.96,1013.12,371.57,1010.24,366.66
				z"/>
		</g>
		<path class="st3" d="M89.01,573.7c103.46-91.28,128.51-85.34,217.05-83.01c88.54,2.31,340.94,14.73,434.26,17.72
			c93.39,2.97,191.07,9.61,200.05,10.51c0,0,31.97,5.52,73.81,18.55c0,0,18.19,4.92,26.23,9.04c7.58,3.86,3.32,24.78-8.56,33.96
			c-2.78,2.14-34.44,21.67-34.44,21.67s-15.88,11.91-52.89,23.94c-31.83,10.37-372.83,74.54-728.24,64.3
			c-101.35-2.91-173.83-50.93-173.76-75.16C42.61,592,89.01,573.7,89.01,573.7z"/>
		<path class="st0" d="M216.28,690.37c38.26,1.11,76.35,1.34,113.9,0.88c30.69-4.49,60.87-11.99,90.08-22.73
			c42.77-15.74,84.2-34.95,127.25-49.98c49.87-17.39,102.07-28.17,153.89-37.94c51.75-9.75,103.93-17.27,156.3-22.77
			c52.66-5.55,106.98-9.38,159.66-2.33c8.74,1.17,17.66,2.14,26.53,3.34c0.31-2.17,0.39-4.22,0.14-6.02
			c-0.83-0.31-1.65-0.64-2.49-0.93c-96.18-33.72-201.79-31.45-302.08-23.12c-107.19,8.89-213.74,28.62-318.25,53.77
			c-93.58,22.53-188.64,51.06-285.78,50.44c-20.86-0.14-73-1-92.65-20.46c-0.14,0.88-0.23,1.79-0.24,2.69
			C42.44,639.44,114.93,687.46,216.28,690.37z"/>
		<g>
			<g>
				<path class="st4" d="M240.76,562.11c4.81-8.6,8.12-17.77,11.11-27.09c0.68-4.62-0.05-8.94-4.29-11.29
					c-8.44-0.58-17.8-1.1-28.08-1.51c-2.92-0.14-5.82-0.24-8.42-0.32l-40.13,52.11c13.82,1.72,27.79,2.81,40.69,2.81
					C225.33,576.7,233.54,575.01,240.76,562.11z"/>
				<path class="st4" d="M99.31,566.17c0,0,37.55-35.06,49.53-40.18c2.87-1.29,12.99-5.09,57.07-4.7l-38.84,51.87
					C148.12,571.36,121.04,569.29,99.31,566.17z"/>
			</g>
		</g>
		<g class="st5">
			<g>
				<path class="st4" d="M247.13,548.46c1.75-4.41,3.28-8.91,4.74-13.44c0.68-4.62-0.05-8.94-4.29-11.29
					c-8.44-0.58-17.8-1.1-28.08-1.51c-2.92-0.14-5.82-0.24-8.42-0.32l-17.22,22.36C211.66,545.05,229.4,546.62,247.13,548.46z"/>
				<path class="st4" d="M131.31,548.06c13.69-4.18,27.92-4.43,42.16-4.35c5.14,0.02,10.27,0.16,15.39,0.34l17.05-22.77
					c-44.09-0.39-54.2,3.41-57.07,4.7c-8.65,3.69-30.58,22.96-42.13,33.4C114.64,554.96,122.7,550.68,131.31,548.06z"/>
			</g>
		</g>
		<path class="st6" d="M354.62,624.65c-1.72,0-2.88-0.22-2.93-0.22l-29.85-1c-13.51-4.91-12.22-21.62-12.21-21.78
			c0.04-1.97,1.17-49.51,3.15-61.51c1.67-10.05,9.9-11.14,13.35-11.14c1.05,0,1.7,0.1,1.7,0.1l17.78,0.91l18.09,0.71l0.2-0.02
			c1.93,0,3.6,0.74,4.95,2.17c4.84,5.17,4.09,17.91,4.05,18.46c-0.02,1.85-0.43,46.7-3.18,60.9
			C367.57,623.44,358.45,624.65,354.62,624.65z M322.28,621.81l29.6,0.96c0.13,0.01,1.21,0.22,2.74,0.22
			c4.23,0,11.61-1.45,13.47-11.08c2.73-14.06,3.16-60.19,3.16-60.65c0-0.18,0.74-12.63-3.61-17.26c-1.03-1.1-2.25-1.64-3.73-1.64
			l-0.25,0l-18.1-0.7l-17.87-0.91c-0.1-0.01-0.67-0.08-1.54-0.08c-3.77,0-10.31,1.27-11.71,9.74c-1.97,11.89-3.12,60.83-3.14,61.33
			C311.28,601.94,310.12,617.29,322.28,621.81z"/>
		<g>
			<g>
				<path class="st6" d="M424.23,568.05c-0.45,0-0.73-0.05-0.73-0.05l-7.91,0.03l-0.15-0.05c-3.37-1.1-4.06-4.71-3.98-6.48
					c0-0.47-0.13-13.15,0.31-16.41c0.37-2.77,2.5-3.76,4.38-3.76c0.25,0,0.41,0.02,0.41,0.02l9.45,0.1c0,0,0.02,0,0.02,0
					c0.81,0,1.45,0.28,1.96,0.8c1.51,1.55,1.45,5.02,1.43,5.42c0.02,0.45,0.3,12.43-0.32,16.3
					C428.68,566.51,426.87,568.05,424.23,568.05z"/>
				<path class="st7" d="M423.77,566.52c-0.39,0-0.65-0.05-0.65-0.05l-6.94,0.02l-0.13-0.04c-2.95-0.98-3.58-4.15-3.49-5.7
					c-0.01-0.41-0.12-11.54,0.26-14.4c0.32-2.44,2.19-3.31,3.85-3.31c0.21,0,0.35,0.01,0.35,0.01l8.3,0.09c0,0,0.01,0,0.01,0
					c0.73,0,1.28,0.25,1.73,0.71c1.34,1.36,1.28,4.41,1.26,4.75c0.01,0.4,0.25,10.91-0.28,14.31
					C427.67,565.17,426.08,566.52,423.77,566.52z"/>
				<path class="st8" d="M414.7,552.29h11.01c-0.01-1.09-0.03-1.83-0.03-1.92c0.01-0.35,0.04-3.37-0.9-4.71
					c-0.31-0.45-0.71-0.7-1.21-0.7h-0.01l-5.88-0.09c0,0-0.09-0.03-0.25-0.03c-1.17,0-2.5,0.87-2.73,3.29
					c-0.08,0.84-0.13,2.42-0.15,4.2C414.6,552.33,414.63,552.29,414.7,552.29z"/>
			</g>
			<g>
				<path class="st6" d="M451.77,568.05c-0.45,0-0.73-0.05-0.73-0.05l-7.9,0.03l-0.16-0.05c-3.36-1.1-4.06-4.71-3.96-6.48
					c-0.01-0.47-0.14-13.15,0.3-16.41c0.37-2.77,2.51-3.76,4.38-3.76c0.25,0,0.4,0.02,0.4,0.02l9.45,0.1c0.01,0,0.02,0,0.02,0
					c0.81,0,1.45,0.28,1.96,0.8c1.51,1.55,1.45,5.02,1.44,5.42c0.01,0.45,0.3,12.43-0.33,16.3
					C456.23,566.51,454.41,568.05,451.77,568.05z"/>
				<path class="st7" d="M451.32,566.52c-0.39,0-0.64-0.05-0.64-0.05l-6.94,0.02l-0.13-0.04c-2.95-0.98-3.58-4.15-3.49-5.7
					c0-0.41-0.11-11.54,0.26-14.4c0.33-2.44,2.21-3.31,3.85-3.31c0.22,0,0.35,0.01,0.35,0.01l8.29,0.09c0,0,0.01,0,0.01,0
					c0.73,0,1.29,0.25,1.73,0.71c1.34,1.36,1.27,4.41,1.26,4.75c0.01,0.4,0.25,10.91-0.28,14.31
					C455.22,565.17,453.63,566.52,451.32,566.52z"/>
				<path class="st8" d="M442.25,552.29h11.01c-0.01-1.09-0.02-1.83-0.02-1.92c0.01-0.35,0.04-3.37-0.9-4.71
					c-0.32-0.45-0.72-0.7-1.21-0.7h-0.02l-5.88-0.09c0,0-0.1-0.03-0.24-0.03c-1.17,0-2.5,0.87-2.72,3.29
					c-0.08,0.84-0.14,2.42-0.16,4.2C442.15,552.33,442.18,552.29,442.25,552.29z"/>
			</g>
			<g>
				<path class="st6" d="M479.32,568.05c-0.43,0-0.73-0.05-0.73-0.05l-7.9,0.03l-0.16-0.05c-3.36-1.1-4.06-4.71-3.97-6.48
					c0-0.47-0.13-13.15,0.31-16.41c0.35-2.77,2.49-3.76,4.37-3.76c0.25,0,0.4,0.02,0.4,0.02l9.46,0.1h0.01
					c0.82,0,1.45,0.28,1.96,0.8c1.51,1.55,1.45,5.02,1.44,5.42c0.01,0.45,0.29,12.43-0.33,16.3
					C483.78,566.51,481.96,568.05,479.32,568.05z"/>
				<path class="st7" d="M478.87,566.52c-0.4,0-0.64-0.05-0.64-0.05l-6.94,0.02l-0.13-0.04c-2.95-0.98-3.58-4.15-3.5-5.7
					c0-0.41-0.1-11.54,0.28-14.4c0.32-2.44,2.2-3.31,3.84-3.31c0.23,0,0.35,0.01,0.35,0.01l8.3,0.09h0.02
					c0.71,0,1.27,0.25,1.72,0.71c1.33,1.36,1.28,4.41,1.26,4.75c0.02,0.4,0.25,10.91-0.28,14.31
					C482.78,565.17,481.18,566.52,478.87,566.52z"/>
				<path class="st8" d="M469.79,552.29h11.01c0-1.09-0.02-1.83-0.02-1.92c0.01-0.35,0.05-3.37-0.9-4.71
					c-0.31-0.45-0.7-0.7-1.21-0.7c0,0,0,0-0.02,0l-5.87-0.09c0,0-0.1-0.03-0.25-0.03c-1.17,0-2.5,0.87-2.73,3.29
					c-0.08,0.84-0.13,2.42-0.15,4.2C469.7,552.33,469.74,552.29,469.79,552.29z"/>
			</g>
			<g>
				<path class="st6" d="M506.88,568.05c-0.45,0-0.74-0.05-0.74-0.05l-7.9,0.03l-0.16-0.05c-3.35-1.1-4.06-4.71-3.98-6.48
					c0-0.47-0.12-13.15,0.31-16.41c0.35-2.77,2.5-3.76,4.38-3.76c0.25,0,0.4,0.02,0.4,0.02l9.45,0.1c0.01,0,0.01,0,0.01,0
					c0.82,0,1.46,0.28,1.96,0.8c1.52,1.55,1.45,5.02,1.44,5.42c0.01,0.45,0.3,12.43-0.33,16.3
					C511.33,566.51,509.51,568.05,506.88,568.05z"/>
				<path class="st7" d="M506.41,566.52c-0.39,0-0.64-0.05-0.64-0.05l-6.94,0.02l-0.13-0.04c-2.95-0.98-3.58-4.15-3.49-5.7
					c0-0.41-0.11-11.54,0.27-14.4c0.32-2.44,2.19-3.31,3.85-3.31c0.22,0,0.35,0.01,0.35,0.01l8.3,0.09c0,0,0.02,0,0.02,0
					c0.72,0,1.28,0.25,1.72,0.71c1.34,1.36,1.28,4.41,1.27,4.75c0,0.4,0.25,10.91-0.28,14.31
					C510.32,565.17,508.72,566.52,506.41,566.52z"/>
				<path class="st8" d="M497.34,552.29h11.01c-0.01-1.09-0.02-1.83-0.02-1.92c0-0.35,0.05-3.37-0.89-4.71
					c-0.33-0.45-0.71-0.7-1.22-0.7h-0.01l-5.89-0.09c0,0-0.09-0.03-0.24-0.03c-1.17,0-2.51,0.87-2.74,3.29
					c-0.08,0.84-0.12,2.42-0.15,4.2C497.24,552.33,497.29,552.29,497.34,552.29z"/>
			</g>
			<g>
				<path class="st6" d="M534.42,568.05c-0.44,0-0.73-0.05-0.73-0.05l-7.9,0.03l-0.15-0.05c-3.36-1.1-4.07-4.71-3.98-6.48
					c0-0.47-0.13-13.15,0.31-16.41c0.35-2.77,2.49-3.76,4.37-3.76c0.25,0,0.4,0.02,0.4,0.02l9.45,0.1h0.01
					c0.82,0,1.46,0.28,1.96,0.8c1.51,1.55,1.45,5.02,1.44,5.42c0.01,0.45,0.29,12.43-0.33,16.3
					C538.88,566.51,537.06,568.05,534.42,568.05z"/>
				<path class="st7" d="M533.97,566.52c-0.4,0-0.64-0.05-0.64-0.05l-6.95,0.02l-0.13-0.04c-2.97-0.98-3.59-4.15-3.5-5.7
					c0-0.41-0.11-11.54,0.27-14.4c0.32-2.44,2.19-3.31,3.85-3.31c0.23,0,0.35,0.01,0.35,0.01l8.31,0.09h0.01
					c0.71,0,1.28,0.25,1.72,0.71c1.33,1.36,1.28,4.41,1.26,4.75c0.02,0.4,0.26,10.91-0.28,14.31
					C537.88,565.17,536.28,566.52,533.97,566.52z"/>
				<path class="st8" d="M524.9,552.29h11.01c-0.01-1.09-0.03-1.83-0.03-1.92c0.01-0.35,0.06-3.37-0.89-4.71
					c-0.31-0.45-0.71-0.7-1.22-0.7c0,0,0,0-0.01,0l-5.87-0.09c0,0-0.1-0.03-0.25-0.03c-1.17,0-2.5,0.87-2.72,3.29
					c-0.08,0.84-0.13,2.42-0.16,4.2C524.79,552.33,524.83,552.29,524.9,552.29z"/>
			</g>
			<g>
				<path class="st6" d="M561.98,568.05c-0.45,0-0.73-0.05-0.73-0.05l-7.91,0.03l-0.15-0.05c-3.37-1.1-4.08-4.71-3.98-6.48
					c0-0.47-0.13-13.15,0.32-16.41c0.36-2.77,2.49-3.76,4.37-3.76c0.25,0,0.41,0.02,0.41,0.02l9.45,0.1h0.01
					c0.82,0,1.46,0.28,1.97,0.8c1.5,1.55,1.44,5.02,1.43,5.42c0.01,0.45,0.29,12.43-0.33,16.3
					C566.42,566.51,564.6,568.05,561.98,568.05z"/>
				<path class="st7" d="M561.51,566.52c-0.39,0-0.64-0.05-0.64-0.05l-6.94,0.02l-0.13-0.04c-2.95-0.98-3.58-4.15-3.49-5.7
					c0-0.41-0.12-11.54,0.27-14.4c0.31-2.44,2.19-3.31,3.84-3.31c0.23,0,0.35,0.01,0.35,0.01l8.31,0.09h0.01
					c0.72,0,1.27,0.25,1.72,0.71c1.33,1.36,1.28,4.41,1.26,4.75c0.01,0.4,0.26,10.91-0.29,14.31
					C565.42,565.17,563.83,566.52,561.51,566.52z"/>
				<path class="st8" d="M552.45,552.29h11.01c-0.01-1.09-0.04-1.83-0.04-1.92c0.02-0.35,0.06-3.37-0.89-4.71
					c-0.31-0.45-0.71-0.7-1.21-0.7c0,0-0.01,0-0.02,0l-5.88-0.09c0,0-0.09-0.03-0.24-0.03c-1.17,0-2.5,0.87-2.73,3.29
					c-0.07,0.84-0.12,2.42-0.15,4.2C552.35,552.33,552.38,552.29,552.45,552.29z"/>
			</g>
			<g>
				<path class="st6" d="M589.53,568.05c-0.45,0-0.74-0.05-0.74-0.05l-7.9,0.03l-0.15-0.05c-3.37-1.1-4.07-4.71-3.98-6.48
					c0-0.47-0.13-13.15,0.31-16.41c0.36-2.77,2.49-3.76,4.37-3.76c0.25,0,0.4,0.02,0.4,0.02l9.45,0.1c0.01,0,0.01,0,0.01,0
					c0.83,0,1.46,0.28,1.97,0.8c1.51,1.55,1.45,5.02,1.44,5.42c0.02,0.45,0.3,12.43-0.33,16.3
					C593.98,566.51,592.16,568.05,589.53,568.05z"/>
				<path class="st7" d="M589.06,566.52c-0.39,0-0.63-0.05-0.63-0.05l-6.95,0.02l-0.13-0.04c-2.95-0.98-3.59-4.15-3.5-5.7
					c-0.01-0.41-0.12-11.54,0.27-14.4c0.33-2.44,2.2-3.31,3.85-3.31c0.22,0,0.35,0.01,0.35,0.01l8.3,0.09h0.01
					c0.72,0,1.28,0.25,1.73,0.71c1.33,1.36,1.26,4.41,1.26,4.75c0,0.4,0.25,10.91-0.28,14.31
					C592.97,565.17,591.38,566.52,589.06,566.52z"/>
				<path class="st8" d="M580,552.29h11.01c-0.02-1.09-0.03-1.83-0.03-1.92c0.02-0.35,0.06-3.37-0.89-4.71
					c-0.32-0.45-0.72-0.7-1.22-0.7h-0.02l-5.87-0.09c0,0-0.09-0.03-0.25-0.03c-1.17,0-2.49,0.87-2.72,3.29
					c-0.08,0.84-0.13,2.42-0.16,4.2C579.89,552.33,579.93,552.29,580,552.29z"/>
			</g>
			<g>
				<path class="st6" d="M617.08,568.05c-0.45,0-0.74-0.05-0.74-0.05l-7.89,0.03l-0.16-0.05c-3.36-1.1-4.07-4.71-3.98-6.48
					c0-0.47-0.13-13.15,0.31-16.41c0.37-2.77,2.51-3.76,4.37-3.76c0.26,0,0.4,0.02,0.4,0.02l9.45,0.1c0.01,0,0.02,0,0.02,0
					c0.82,0,1.46,0.28,1.97,0.8c1.5,1.55,1.45,5.02,1.43,5.42c0.03,0.45,0.3,12.43-0.33,16.3
					C621.52,566.51,619.7,568.05,617.08,568.05z"/>
				<path class="st7" d="M616.61,566.52c-0.38,0-0.63-0.05-0.63-0.05l-6.94,0.02l-0.13-0.04c-2.95-0.98-3.58-4.15-3.5-5.7
					c0-0.41-0.1-11.54,0.27-14.4c0.33-2.44,2.2-3.31,3.85-3.31c0.22,0,0.34,0.01,0.34,0.01l8.3,0.09h0.01
					c0.73,0,1.29,0.25,1.72,0.71c1.34,1.36,1.29,4.41,1.27,4.75c0.02,0.4,0.25,10.91-0.29,14.31
					C620.51,565.17,618.92,566.52,616.61,566.52z"/>
				<path class="st8" d="M607.55,552.29h11.01c-0.01-1.09-0.03-1.83-0.03-1.92c0.01-0.35,0.05-3.37-0.9-4.71
					c-0.31-0.45-0.72-0.7-1.21-0.7h-0.01l-5.89-0.09c0,0-0.09-0.03-0.24-0.03c-1.18,0-2.5,0.87-2.73,3.29
					c-0.08,0.84-0.13,2.42-0.15,4.2C607.44,552.33,607.47,552.29,607.55,552.29z"/>
			</g>
			<g>
				<path class="st6" d="M644.62,568.05c-0.44,0-0.73-0.05-0.73-0.05l-7.91,0.03l-0.15-0.05c-3.36-1.1-4.07-4.71-3.98-6.48
					c0-0.47-0.13-13.15,0.31-16.41c0.36-2.77,2.5-3.76,4.38-3.76c0.25,0,0.39,0.02,0.39,0.02l9.45,0.1h0.03
					c0.81,0,1.44,0.28,1.95,0.8c1.51,1.55,1.45,5.02,1.44,5.42c0.02,0.45,0.3,12.43-0.32,16.3
					C649.08,566.51,647.26,568.05,644.62,568.05z"/>
				<path class="st7" d="M644.17,566.52c-0.4,0-0.65-0.05-0.65-0.05l-6.94,0.02l-0.13-0.04c-2.96-0.98-3.58-4.15-3.5-5.7
					c0-0.41-0.11-11.54,0.28-14.4c0.32-2.44,2.19-3.31,3.84-3.31c0.22,0,0.35,0.01,0.35,0.01l8.3,0.09h0.01
					c0.72,0,1.28,0.25,1.72,0.71c1.33,1.36,1.28,4.41,1.27,4.75c0.01,0.4,0.26,10.91-0.28,14.31
					C648.07,565.17,646.48,566.52,644.17,566.52z"/>
				<path class="st8" d="M635.09,552.29h11.01c0-1.09-0.02-1.83-0.02-1.92c0.01-0.35,0.04-3.37-0.9-4.71
					c-0.31-0.45-0.72-0.7-1.22-0.7h-0.01l-5.87-0.09c0,0-0.1-0.03-0.25-0.03c-1.17,0-2.49,0.87-2.73,3.29
					c-0.08,0.84-0.13,2.42-0.17,4.2C634.99,552.33,635.02,552.29,635.09,552.29z"/>
			</g>
			<g>
				<path class="st6" d="M672.17,568.05c-0.45,0-0.73-0.05-0.73-0.05l-7.9,0.03l-0.16-0.05c-3.35-1.1-4.07-4.71-3.98-6.48
					c0-0.47-0.13-13.15,0.31-16.41c0.36-2.77,2.5-3.76,4.38-3.76c0.24,0,0.41,0.02,0.41,0.02l9.45,0.1h0.02
					c0.81,0,1.45,0.28,1.96,0.8c1.5,1.55,1.45,5.02,1.44,5.42c0.01,0.45,0.28,12.43-0.33,16.3
					C676.62,566.51,674.8,568.05,672.17,568.05z"/>
				<path class="st7" d="M671.71,566.52c-0.4,0-0.64-0.05-0.64-0.05l-6.95,0.02l-0.13-0.04c-2.95-0.98-3.59-4.15-3.5-5.7
					c0-0.41-0.12-11.54,0.28-14.4c0.32-2.44,2.19-3.31,3.84-3.31c0.23,0,0.35,0.01,0.35,0.01l8.3,0.09h0.01
					c0.72,0,1.28,0.25,1.73,0.71c1.33,1.36,1.28,4.41,1.27,4.75c0.01,0.4,0.25,10.91-0.29,14.31
					C675.62,565.17,674.02,566.52,671.71,566.52z"/>
				<path class="st8" d="M662.64,552.29h11.01c-0.02-1.09-0.03-1.83-0.03-1.92c0.01-0.35,0.05-3.37-0.9-4.71
					c-0.31-0.45-0.7-0.7-1.21-0.7c0,0-0.01,0-0.03,0l-5.87-0.09c0,0-0.11-0.03-0.25-0.03c-1.17,0-2.49,0.87-2.73,3.29
					c-0.08,0.84-0.12,2.42-0.15,4.2C662.54,552.33,662.58,552.29,662.64,552.29z"/>
			</g>
			<g>
				<path class="st6" d="M699.72,568.05c-0.45,0-0.73-0.05-0.73-0.05l-7.9,0.03l-0.15-0.05c-3.36-1.1-4.07-4.71-3.97-6.48
					c-0.02-0.47-0.13-13.15,0.29-16.41c0.37-2.77,2.51-3.76,4.38-3.76c0.25,0,0.41,0.02,0.41,0.02l9.45,0.1c0.02,0,0.02,0,0.02,0
					c0.82,0,1.45,0.28,1.96,0.8c1.52,1.55,1.45,5.02,1.44,5.42c0.02,0.45,0.3,12.43-0.32,16.3
					C704.17,566.51,702.34,568.05,699.72,568.05z"/>
				<path class="st7" d="M699.26,566.52c-0.39,0-0.65-0.05-0.65-0.05l-6.93,0.02l-0.14-0.04c-2.95-0.98-3.57-4.15-3.49-5.7
					c-0.01-0.41-0.11-11.54,0.26-14.4c0.33-2.44,2.2-3.31,3.86-3.31c0.22,0,0.35,0.01,0.35,0.01l8.29,0.09c0.01,0,0.03,0,0.03,0
					c0.72,0,1.27,0.25,1.72,0.71c1.32,1.36,1.27,4.41,1.26,4.75c0.01,0.4,0.25,10.91-0.28,14.31
					C703.16,565.17,701.56,566.52,699.26,566.52z"/>
				<path class="st8" d="M690.19,552.29h11.01c-0.02-1.09-0.03-1.83-0.03-1.92c0.01-0.35,0.04-3.37-0.9-4.71
					c-0.32-0.45-0.72-0.7-1.21-0.7h-0.01l-5.89-0.09c0,0-0.09-0.03-0.24-0.03c-1.18,0-2.49,0.87-2.73,3.29
					c-0.08,0.84-0.13,2.42-0.16,4.2C690.1,552.33,690.13,552.29,690.19,552.29z"/>
			</g>
			<g>
				<path class="st6" d="M727.27,568.05c-0.45,0-0.73-0.05-0.73-0.05l-7.91,0.03l-0.14-0.05c-3.37-1.1-4.08-4.71-3.98-6.48
					c-0.02-0.47-0.13-13.15,0.31-16.41c0.36-2.77,2.5-3.76,4.36-3.76c0.26,0,0.4,0.02,0.4,0.02l9.46,0.1h0.02
					c0.81,0,1.45,0.28,1.95,0.8c1.52,1.55,1.45,5.02,1.43,5.42c0.02,0.45,0.3,12.43-0.32,16.3
					C731.72,566.51,729.9,568.05,727.27,568.05z"/>
				<path class="st7" d="M726.8,566.52c-0.38,0-0.64-0.05-0.64-0.05l-6.93,0.02l-0.14-0.04c-2.95-0.98-3.56-4.15-3.48-5.7
					c-0.02-0.41-0.12-11.54,0.27-14.4c0.32-2.44,2.19-3.31,3.84-3.31c0.22,0,0.36,0.01,0.36,0.01l8.29,0.09c0.01,0,0.01,0,0.01,0
					c0.73,0,1.28,0.25,1.73,0.71c1.32,1.36,1.27,4.41,1.27,4.75c0,0.4,0.25,10.91-0.29,14.31
					C730.71,565.17,729.12,566.52,726.8,566.52z"/>
				<path class="st8" d="M717.73,552.29h11.01c-0.01-1.09-0.03-1.83-0.03-1.92c0.01-0.35,0.04-3.37-0.9-4.71
					c-0.32-0.45-0.71-0.7-1.21-0.7h-0.01l-5.89-0.09c0,0-0.08-0.03-0.24-0.03c-1.18,0-2.49,0.87-2.73,3.29
					c-0.08,0.84-0.13,2.42-0.15,4.2C717.64,552.33,717.67,552.29,717.73,552.29z"/>
			</g>
			<g>
				<path class="st6" d="M754.81,568.05c-0.43,0-0.72-0.05-0.72-0.05l-7.91,0.03l-0.16-0.05c-3.36-1.1-4.07-4.71-3.97-6.48
					c0-0.47-0.13-13.15,0.31-16.41c0.36-2.77,2.49-3.76,4.37-3.76c0.25,0,0.4,0.02,0.4,0.02l9.45,0.1h0.02
					c0.82,0,1.46,0.28,1.96,0.8c1.51,1.55,1.45,5.02,1.44,5.42c0.01,0.45,0.29,12.43-0.33,16.3
					C759.26,566.51,757.46,568.05,754.81,568.05z"/>
				<path class="st7" d="M754.35,566.52c-0.39,0-0.63-0.05-0.63-0.05l-6.95,0.02l-0.13-0.04c-2.95-0.98-3.57-4.15-3.49-5.7
					c0-0.41-0.12-11.54,0.28-14.4c0.31-2.44,2.19-3.31,3.84-3.31c0.22,0,0.35,0.01,0.35,0.01l8.3,0.09h0.02
					c0.71,0,1.26,0.25,1.72,0.71c1.33,1.36,1.27,4.41,1.26,4.75c0.01,0.4,0.26,10.91-0.29,14.31
					C758.26,565.17,756.67,566.52,754.35,566.52z"/>
				<path class="st8" d="M745.28,552.29h11.01c-0.01-1.09-0.03-1.83-0.03-1.92c0.02-0.35,0.06-3.37-0.89-4.71
					c-0.33-0.45-0.72-0.7-1.23-0.7h-0.01l-5.87-0.09c0,0-0.1-0.03-0.25-0.03c-1.17,0-2.5,0.87-2.73,3.29
					c-0.08,0.84-0.13,2.42-0.16,4.2C745.19,552.33,745.23,552.29,745.28,552.29z"/>
			</g>
			<g>
				<path class="st6" d="M782.36,568.05c-0.44,0-0.72-0.05-0.72-0.05l-7.91,0.03l-0.16-0.05c-3.36-1.1-4.06-4.71-3.97-6.48
					c0-0.47-0.13-13.15,0.31-16.41c0.36-2.77,2.49-3.76,4.37-3.76c0.26,0,0.41,0.02,0.41,0.02l9.45,0.1h0.01
					c0.83,0,1.46,0.28,1.98,0.8c1.49,1.55,1.44,5.02,1.43,5.42c0.01,0.45,0.29,12.43-0.33,16.3
					C786.8,566.51,785,568.05,782.36,568.05z"/>
				<path class="st7" d="M781.91,566.52c-0.4,0-0.64-0.05-0.64-0.05l-6.95,0.02l-0.13-0.04c-2.95-0.98-3.57-4.15-3.49-5.7
					c0-0.41-0.11-11.54,0.28-14.4c0.32-2.44,2.19-3.31,3.84-3.31c0.22,0,0.36,0.01,0.36,0.01l8.29,0.09h0.02
					c0.71,0,1.27,0.25,1.72,0.71c1.33,1.36,1.28,4.41,1.26,4.75c0.02,0.4,0.26,10.91-0.28,14.31
					C785.8,565.17,784.22,566.52,781.91,566.52z"/>
				<path class="st8" d="M772.83,552.29h11.01c-0.01-1.09-0.02-1.83-0.02-1.92c0.02-0.35,0.05-3.37-0.9-4.71
					c-0.3-0.45-0.71-0.7-1.22-0.7c0,0,0,0-0.01,0l-5.87-0.09c0,0-0.1-0.03-0.25-0.03c-1.17,0-2.49,0.87-2.73,3.29
					c-0.08,0.84-0.13,2.42-0.16,4.2C772.74,552.33,772.77,552.29,772.83,552.29z"/>
			</g>
			<g>
				<path class="st6" d="M809.91,568.05c-0.45,0-0.73-0.05-0.73-0.05l-7.89,0.03l-0.15-0.05c-3.38-1.1-4.08-4.71-3.98-6.48
					c-0.01-0.47-0.13-13.15,0.3-16.41c0.37-2.77,2.5-3.76,4.37-3.76c0.26,0,0.41,0.02,0.41,0.02l9.45,0.1h0.02
					c0.82,0,1.46,0.28,1.96,0.8c1.51,1.55,1.45,5.02,1.44,5.42c0.01,0.45,0.29,12.43-0.33,16.3
					C814.37,566.51,812.55,568.05,809.91,568.05z"/>
				<path class="st7" d="M809.45,566.52c-0.38,0-0.64-0.05-0.64-0.05l-6.93,0.02l-0.14-0.04c-2.95-0.98-3.57-4.15-3.49-5.7
					c-0.01-0.41-0.1-11.54,0.27-14.4c0.32-2.44,2.2-3.31,3.85-3.31c0.22,0,0.36,0.01,0.36,0.01l8.29,0.09c0.01,0,0.01,0,0.01,0
					c0.73,0,1.29,0.25,1.73,0.71c1.34,1.36,1.28,4.41,1.27,4.75c0.01,0.4,0.25,10.91-0.28,14.31
					C813.36,565.17,811.77,566.52,809.45,566.52z"/>
				<path class="st8" d="M800.38,552.29h11.01c-0.01-1.09-0.03-1.83-0.03-1.92c0-0.35,0.05-3.37-0.89-4.71
					c-0.33-0.45-0.71-0.7-1.22-0.7h-0.02l-5.88-0.09c0,0-0.09-0.03-0.24-0.03c-1.17,0-2.5,0.87-2.72,3.29
					c-0.08,0.84-0.14,2.42-0.17,4.2C800.29,552.33,800.31,552.29,800.38,552.29z"/>
			</g>
			<g>
				<path class="st6" d="M837.46,568.05c-0.46,0-0.74-0.05-0.74-0.05l-7.89,0.03l-0.16-0.05c-3.36-1.1-4.07-4.71-3.97-6.48
					c-0.01-0.47-0.13-13.15,0.3-16.41c0.37-2.77,2.5-3.76,4.38-3.76c0.25,0,0.4,0.02,0.4,0.02l9.45,0.1c0.02,0,0.02,0,0.02,0
					c0.82,0,1.46,0.28,1.96,0.8c1.52,1.55,1.45,5.02,1.44,5.42c0.01,0.45,0.29,12.43-0.33,16.3
					C841.92,566.51,840.1,568.05,837.46,568.05z"/>
				<path class="st7" d="M836.99,566.52c-0.39,0-0.63-0.05-0.63-0.05l-6.94,0.02l-0.13-0.04c-2.95-0.98-3.58-4.15-3.49-5.7
					c-0.01-0.41-0.11-11.54,0.27-14.4c0.31-2.44,2.19-3.31,3.84-3.31c0.22,0,0.36,0.01,0.36,0.01l8.29,0.09h0.01
					c0.72,0,1.29,0.25,1.72,0.71c1.34,1.36,1.28,4.41,1.28,4.75c0,0.4,0.25,10.91-0.28,14.31
					C840.91,565.17,839.31,566.52,836.99,566.52z"/>
				<path class="st8" d="M827.94,552.29h11c-0.01-1.09-0.02-1.83-0.02-1.92c0.01-0.35,0.05-3.37-0.89-4.71
					c-0.33-0.45-0.71-0.7-1.22-0.7h-0.02l-5.88-0.09c0,0-0.09-0.03-0.24-0.03c-1.17,0-2.49,0.87-2.72,3.29
					c-0.08,0.84-0.13,2.42-0.16,4.2C827.83,552.33,827.87,552.29,827.94,552.29z"/>
			</g>
		</g>
		<g>
			<path class="st0" d="M1014.79,577.06c-23.49,11.18-47.78,20.76-72.17,29.8c-50.22,18.64-102.35,28.38-155.06,37.19
				c-53.44,8.93-106.61,19.38-160.07,28.11c-10.37,1.7-20.74,3.31-31.12,4.94c188.51-17.23,328.3-44.56,348.14-51.02
				c37.01-12.04,52.89-23.94,52.89-23.94s31.67-19.53,34.44-21.67c6.53-5.04,10.69-13.58,11.91-20.92
				C1035.05,566.68,1024.9,572.26,1014.79,577.06z"/>
		</g>
		<path class="st3" d="M169.26,517.68c0,0,32.28-20.66,78.74-23.67c46.47-3.01,411.3,14.63,411.3,14.63l-406.99-5.59
			c0,0-18.94-2.15-27.98,13.34L169.26,517.68z"/>
		<path class="st9" d="M110.12,648.26c2.75-6.49,4.42-13.3,5.21-20.23c-0.59-21.85-5.69-45.48-24.36-49.7
			c0,0-37.44,10.76-45.61,35.71c0,0-4.55,17.85,54.83,47.48C104.2,657.87,107.78,653.79,110.12,648.26z"/>
		<path class="st3" d="M952.87,568.83c-17.94,2.45-37.21,2.93-53.95,10.57c-15.5,7.08-25.58,21.1-41,28
			c-15.27,6.83-33.57,8.12-49.97,10.46c-22.28,3.17-44.55,6.31-66.82,9.44c-24.27,3.43-48.5,6.68-72.56,11.3
			c-19.89,3.83-40.99,7.5-60.55,0.17c-10.19-3.81-19.35-10.12-29.66-13.58c-11.66-3.91-24.5-4.65-36.72-5.3
			c-25.3-1.36-50.65-0.3-75.87,1.94c-11.87,1.06-23.99,1.75-35.77,3.6c-10.61,1.68-23.2,4.81-28.82,15.02
			c-5.87,10.68-0.5,22.11-14.81,26.22c-42.01,12.06-85.94,5.63-128.66,1.59c-45.24-4.27-90.68-9.78-134.98-20.09
			c-22.87-5.33-47.48-11.36-67.6-23.98c-4.57-2.88-9.05-6.38-12.5-10.44c-0.05,0.49-0.09,0.98-0.1,1.48
			c-0.08,24.24,72.41,72.25,173.76,75.16c355.41,10.24,696.41-53.93,728.24-64.3c37.01-12.04,52.89-23.94,52.89-23.94
			s31.67-19.53,34.44-21.67c8.49-6.57,13.07-19.13,12.22-27.17C1013.75,558.9,983.47,564.66,952.87,568.83z"/>
		<g>
			<g>
				<path class="st10" d="M546.4,656.31c0,0-63.57-9.26-101.97-7.53l2.26,96.48l-0.1,0.33l-2.15,10.33c0,0,45.83,0.42,101.97-12.48
					c5.35,0,11.93-18.11,11.93-42.18C558.33,677.2,551.75,656.31,546.4,656.31z"/>
				<path class="st11" d="M464.62,705.67c14.13,0.43,28.19,0.13,42.3,1.4c17.01,1.54,34.04,2.89,50.9,5.48
					c0.31-3.58,0.51-7.35,0.51-11.3c0-24.06-6.58-44.95-11.93-44.95c0,0-63.57-9.26-101.97-7.53l1.31,55.76
					C451.97,704.7,458.2,705.49,464.62,705.67z"/>
				<path class="st11" d="M499.77,744.39c-10.73,1.21-21.48,2.42-32.22,3.67c-7.22,0.85-14.44,0.48-21.64,0.71l-1.49,7.15
					c0,0,45.83,0.42,101.97-12.48c1.91,0,3.97-2.39,5.84-6.46C534.75,739.29,517.28,742.4,499.77,744.39z"/>
				<path class="st12" d="M455.28,702.34c0,29.59-4.91,53.58-10.96,53.58c-6.05,0-10.97-23.99-10.97-53.58
					c0-29.58,4.92-53.56,10.97-53.56C450.37,648.78,455.28,672.75,455.28,702.34z"/>
				<g>
					<path class="st13" d="M445.04,666.91c-0.63-1.49-1.31-2.34-2.01-2.34c-3.21,0-5.82,16.58-5.82,37.03
						c0,20.45,2.6,37.01,5.82,37.01c0.83,0,1.62-1.13,2.34-3.15c-2.22-5.24-3.8-18.76-3.8-34.67
						C441.57,685.64,443,672.64,445.04,666.91z"/>
					<path class="st13" d="M445.04,666.91c-2.04,5.74-3.47,18.74-3.47,33.88c0,15.92,1.58,29.44,3.8,34.67
						c2.04-5.74,3.46-18.73,3.46-33.87C448.83,685.67,447.26,672.14,445.04,666.91z"/>
				</g>
			</g>
			<g>
				<path class="st10" d="M583.22,695.04c0,0-53.71-7.83-86.17-6.37l1.92,81.52l-0.09,0.28l-1.83,8.72c0,0,38.73,0.37,86.17-10.53
					c4.52,0,10.09-15.32,10.09-35.65C593.31,712.69,587.75,695.04,583.22,695.04z"/>
				<path class="st11" d="M514.13,736.76c11.94,0.35,23.82,0.1,35.74,1.18c14.38,1.3,28.76,2.45,43.02,4.63
					c0.27-3.02,0.43-6.2,0.43-9.54c0-20.33-5.57-37.98-10.09-37.98c0,0-53.71-7.83-86.17-6.37l1.11,47.13
					C503.45,735.93,508.71,736.6,514.13,736.76z"/>
				<path class="st11" d="M543.83,769.46c-9.08,1.03-18.15,2.04-27.22,3.1c-6.09,0.71-12.19,0.42-18.29,0.61l-1.26,6.02
					c0,0,38.73,0.37,86.17-10.53c1.62,0,3.36-2.02,4.94-5.46C573.38,765.16,558.62,767.79,543.83,769.46z"/>
				<path class="st12" d="M506.24,733.93c0,25.01-4.15,45.26-9.27,45.26c-5.11,0-9.27-20.25-9.27-45.26
					c0-24.99,4.16-45.26,9.27-45.26C502.09,688.68,506.24,708.94,506.24,733.93z"/>
				<g>
					<path class="st13" d="M497.58,703.99c-0.53-1.26-1.1-1.97-1.71-1.97c-2.71,0-4.9,14-4.9,31.28c0,17.27,2.19,31.28,4.9,31.28
						c0.71,0,1.38-0.96,1.99-2.65c-1.87-4.43-3.21-15.85-3.21-29.3C494.66,719.82,495.86,708.84,497.58,703.99z"/>
					<path class="st13" d="M497.58,703.99c-1.72,4.85-2.93,15.83-2.93,28.63c0,13.46,1.34,24.88,3.21,29.3
						c1.72-4.84,2.92-15.84,2.92-28.62C500.78,719.84,499.45,708.41,497.58,703.99z"/>
				</g>
			</g>
			<g>
				<path class="st11" d="M564.58,621.35H431.5c0,0-34.4,2.77-18.12,19.45c16.3,16.66,174.72,100.02,174.72,100.02
					s15.4,8.32,37.12,9.02c0,0,98.66,6.94,76.04-12.51c-22.62-19.45-102.3-101.42-102.3-101.42S580.86,620.65,564.58,621.35z"/>
				<path class="st14" d="M564.58,621.35H431.5c0,0-34.4,2.77-18.12,19.45c16.3,16.66,174.72,100.02,174.72,100.02
					s15.4,8.32,37.12,9.02c0,0,98.66,6.94,76.04-12.51c-22.62-19.45-102.3-101.42-102.3-101.42S580.86,620.65,564.58,621.35z"/>
				<path class="st15" d="M701.27,737.34c-22.62-19.45-102.3-101.42-102.3-101.42s-18.11-15.28-34.39-14.57h-15.66
					c17.1,6.23,30.99,17.22,45.42,29.94c20.81,18.36,41,37.44,62.03,55.56c8.53,7.36,17.18,14.51,24.88,22.77
					c4.32,4.6,9.3,9.44,8.84,16.17c-0.1,1.39-0.49,2.65-1.1,3.8C701.89,747.87,709.37,744.31,701.27,737.34z"/>
				<path class="st16" d="M451.89,625.22c0,0-40.45-1.3-26.24,11.61c14.19,12.91,146.28,88.63,146.28,88.63s29.26,20.22,53.35,18.07
					c0,0-29.25-9.04-44.31-21.52c-15.06-12.47-123.92-80.02-123.92-80.02S435.55,630.37,451.89,625.22z"/>
			</g>
		</g>
		<g>
			<g>
				<path class="st17" d="M990.75,572.76l-85.39,9.43c0,0-9.74,1.67-14.81,8.39c-3.4,4.51-5.26,13.61,1.47,17.41
					c12.11,6.88,125.01,31.75,125.01,31.75s23.24,3.87,39.7-2.26c0,0,47.37-7.82,31.26-16.02c-16.14-8.2-74.03-44.34-74.03-44.34
					S1001.11,570.73,990.75,572.76z"/>
				<path class="st18" d="M990.75,572.76l-85.39,9.43c0,0-26.25,6.88-9.49,16.39c12.11,6.87,120.13,36.24,120.13,36.24
					s10.55,2.94,24.48,1.1c0,0,63.62-6.25,47.5-14.45c-16.14-8.2-74.03-44.34-74.03-44.34S1001.11,570.73,990.75,572.76z"/>
			</g>
			<path class="st2" d="M963.8,578.11l-49.69,6.14c0,0-18.07,2.9-13.88,10l111.97,35.49l-92.94-35.81c0,0-7.74-2.58,0.33-5.81
				C927.66,584.88,963.8,578.11,963.8,578.11z"/>
		</g>
	</g>
	<path class="st3" d="M394.65,579.18c0,0,358.32-8.87,474.8-17.74C869.45,561.43,617.63,602.48,394.65,579.18z"/>
</g>
</svg>
