<?xml version="1.0" encoding="utf-8"?>
<!-- Generator: Adobe Illustrator 26.0.3, SVG Export Plug-In . SVG Version: 6.00 Build 0)  -->
<svg version="1.1" id="Layer_1" xmlns="http://www.w3.org/2000/svg" xmlns:xlink="http://www.w3.org/1999/xlink" x="0px" y="0px"
	 viewBox="0 0 1133.86 1133.86" style="enable-background:new 0 0 1133.86 1133.86;" xml:space="preserve">
<style type="text/css">
	.st0{fill:#C6EEFA;}
	.st1{fill:#57C4BF;}
	.st2{fill:#69D6D3;}
	.st3{fill:#FDC5A4;}
	.st4{fill:#410705;}
	.st5{fill:#ED9C81;}
	.st6{fill:#CCCCCC;}
	.st7{fill:#FFFFFF;}
	.st8{fill:#EF8E0B;}
	.st9{fill:#F8C037;}
	.st10{fill:none;}
	.st11{fill:#FDBB41;}
	.st12{fill:#DD992A;}
	.st13{fill:#FFE96E;}
</style>
<g>
	<rect x="0" y="0" class="st0" width="1133.86" height="1133.86"/>
</g>
<g>
	<g>
		<g>
			<g>
				<path class="st1" d="M435.51,500.32c-1.58-0.54-159.52-55.34-258.18-156.24c-10.23-10.47-25.14-12.7-37.98-5.7
					c-12.76,6.97-18.92,20.64-15.67,34.82c7.93,34.67,17.97,60.03,29.94,75.7c-8.17-1.28-16.67,0.74-23.8,6.05
					c-11.16,8.31-15.52,22.16-11.09,35.31c14.95,44.43,35.55,74.82,61.34,90.56c-8.29,1.64-15.6,6.61-20.36,14.2
					c-7,11.15-6.58,24.77,1.09,35.53c30.35,42.59,88.18,93.35,191.34,93.35c0.95,0,1.84-0.44,2.42-1.2
					c0.72-0.94,71.85-95.68,82.99-219.25C437.68,502.07,436.84,500.78,435.51,500.32z"/>
			</g>
		</g>
		<g>
			<g>
				<path class="st2" d="M256.23,656.3c-5.13-2.76-10.08-5.78-14.87-9.05c-16.74-11.45-24.44-32.85-18.06-52.11
					c2.08-6.27,2.84-13.15,1.97-20.32c-1.69-13.9-10.32-25.78-22.14-33.29c-0.9-0.57-1.8-1.19-2.69-1.84
					c-20.56-15.08-23.61-44.04-9.22-65.08c0.54-0.79,1.06-1.6,1.55-2.43c9.51-15.98,8.34-36.14-2.94-50.92
					c-1.47-1.93,96.99,61.89,141.21,83.72c34.73,17.15,51.25,57.81,37.55,94.05c-2.69,7.11-5.48,13.93-8.3,20.41
					C342.83,659.52,294.7,677.02,256.23,656.3z"/>
			</g>
		</g>
		<g>
			<g>
				<path class="st1" d="M1015.13,490.26c4.42-13.14,0.07-27-11.09-35.31c-7.13-5.31-15.63-7.34-23.8-6.05
					c11.97-15.67,22.01-41.03,29.94-75.7c3.25-14.19-2.9-27.85-15.67-34.82c-12.83-7-27.74-4.77-37.98,5.7
					c-98.67,100.89-256.6,155.69-258.18,156.24c-1.32,0.45-2.17,1.75-2.04,3.14c11.14,123.57,82.27,218.31,82.99,219.25
					c0.57,0.76,1.47,1.2,2.42,1.2c103.16,0,160.99-50.77,191.34-93.35c7.67-10.76,8.09-24.37,1.09-35.53
					c-4.76-7.59-12.07-12.56-20.36-14.2C979.58,565.09,1000.18,534.7,1015.13,490.26z"/>
			</g>
		</g>
		<g>
			<g>
				<path class="st2" d="M773.59,619.45c-2.82-6.49-5.61-13.3-8.3-20.42c-13.7-36.23,2.81-76.89,37.54-94.05
					c44.23-21.85,142.69-85.64,141.22-83.71c-11.29,14.79-12.45,34.96-2.93,50.94c0.49,0.82,1,1.62,1.53,2.4
					c14.38,21.05,11.36,50.01-9.2,65.09c-0.9,0.66-1.8,1.28-2.71,1.85c-11.82,7.5-20.44,19.38-22.13,33.27
					c-0.88,7.17-0.11,14.06,1.97,20.34c6.38,19.25-1.33,40.65-18.07,52.1c-4.79,3.27-9.74,6.29-14.87,9.05
					C839.16,677.02,791.02,659.52,773.59,619.45z"/>
			</g>
		</g>
		<g>
			<g>
				<g>
					<path class="st3" d="M564,1085.19V951.1l-72.91,14.17C492.11,982.63,500.74,1082.11,564,1085.19z"/>
				</g>
			</g>
			<g>
				<g>
					<path class="st4" d="M568.97,945.08c-0.7-0.58-1.62-0.82-2.51-0.64l-79.11,15.38c-1.46,0.28-2.5,1.58-2.46,3.06
						c0.14,5.24,4.36,128.46,82.14,128.46c1.68,0,3.04-1.36,3.04-3.04V947.42C570.08,946.51,569.67,945.65,568.97,945.08z
						 M564,1085.19c-63.27-3.09-71.9-102.56-72.91-119.92L564,951.1V1085.19z"/>
				</g>
			</g>
		</g>
		<g>
			<g>
				<g>
					<path class="st3" d="M621.86,527.73c-16.78,5.07-35.24,7.64-54.93,7.65c-19.69-0.01-38.14-2.58-54.92-7.64
						c1.56,13.45,9.98,53.04,54.82,53.17c0.05,0,0.09,0,0.14,0C611.96,580.7,620.32,541.16,621.86,527.73z"/>
				</g>
			</g>
			<g>
				<g>
					<path class="st5" d="M621.86,527.73c-16.78,5.07-35.24,7.64-54.93,7.65c-19.69-0.01-38.14-2.58-54.92-7.64
						c1.56,13.45,9.98,53.04,54.82,53.17c0.05,0,0.09,0,0.14,0C611.96,580.7,620.32,541.16,621.86,527.73z"/>
				</g>
			</g>
			<g>
				<g>
					<path class="st3" d="M606.53,527.51c-12.1,3.62-25.4,5.45-39.6,5.46c-14.19-0.01-27.5-1.84-39.6-5.46
						c1.13,9.61,7.19,37.88,39.52,37.97c0.03,0,0.07,0,0.1,0C599.39,565.34,605.42,537.1,606.53,527.51z"/>
				</g>
			</g>
			<g>
				<g>
					<path class="st4" d="M626.11,520.58c-0.6-0.19-1.25-0.18-1.85,0.02c-17.3,5.77-36.59,8.69-57.32,8.71
						c-20.74-0.01-40.03-2.94-57.33-8.71c-0.6-0.2-1.27-0.2-1.87-0.02c-1.3,0.4-2.18,1.62-2.14,2.98
						c0.02,0.63,2.43,63.23,61.31,63.41c0.02,0,0.04,0,0.05,0c0.05,0,0.1,0,0.16,0c58.74-0.21,61.15-62.77,61.16-63.4
						C628.31,522.21,627.41,520.98,626.11,520.58z M512.01,527.74c16.78,5.06,35.23,7.63,54.92,7.64
						c19.69-0.01,38.14-2.58,54.93-7.65c-1.54,13.43-9.9,52.97-54.89,53.17c-0.05,0-0.09,0-0.14,0
						C521.99,580.77,513.57,541.19,512.01,527.74z"/>
				</g>
			</g>
		</g>
		<g>
			<g>
				<g>
					<path class="st3" d="M569.86,951.1v134.1c63.3-3.09,71.9-102.56,72.91-119.92L569.86,951.1z"/>
				</g>
			</g>
			<g>
				<g>
					<path class="st4" d="M646.51,959.82l-79.11-15.38c-0.89-0.18-1.81,0.06-2.51,0.64c-0.7,0.58-1.1,1.43-1.1,2.34v140.89
						c0,1.68,1.36,3.04,3.04,3.04c77.78,0,82-123.22,82.14-128.46C649,961.39,647.96,960.1,646.51,959.82z M569.86,1085.19V951.1
						l72.91,14.17C641.76,982.63,633.16,1082.11,569.86,1085.19z"/>
				</g>
			</g>
		</g>
		<g>
			<g>
				<g>
					<path class="st4" d="M435.51,500.32c-1.58-0.54-159.52-55.34-258.18-156.24c-10.23-10.47-25.14-12.7-37.98-5.7
						c-12.76,6.97-18.92,20.64-15.67,34.82c7.93,34.67,17.97,60.03,29.94,75.7c-8.17-1.28-16.67,0.74-23.8,6.05
						c-11.16,8.31-15.52,22.16-11.09,35.31c14.95,44.43,35.55,74.82,61.34,90.56c-8.29,1.64-15.6,6.61-20.36,14.2
						c-7,11.15-6.58,24.77,1.09,35.53c30.35,42.59,88.18,93.35,191.34,93.35c0.95,0,1.84-0.44,2.42-1.2
						c0.72-0.94,71.85-95.68,82.99-219.25C437.68,502.07,436.84,500.78,435.51,500.32z M350.62,717.84
						c-99.62-0.5-155.5-49.59-184.87-90.8c-6.21-8.72-6.56-19.75-0.89-28.78c4.77-7.61,12.71-11.95,21.4-11.95
						c1.48,0,2.98,0.13,4.5,0.39l0.83,0.14c6.63,4.77,63.38,44.99,106.22,55.22c0.24,0.06,0.47,0.08,0.71,0.08
						c1.37,0,2.62-0.94,2.95-2.33c0.39-1.63-0.62-3.27-2.25-3.66c-5.02-1.2-10.26-2.86-15.62-4.83
						c-23.34-8.59-48.76-23.4-66.45-34.66c-13.39-8.52-22.34-14.99-22.58-15.16c-0.09-0.06-0.19-0.08-0.28-0.13
						c-0.11-0.07-0.2-0.16-0.33-0.22c-29.57-12.44-52.94-43.67-69.48-92.82c-4.33-12.87,1.79-23.16,8.96-28.5
						c9.01-6.7,20.7-6.91,29.91-0.6c3.51,4.85,32.21,43.38,84.25,83.12c0.55,0.42,1.2,0.62,1.84,0.62c0.91,0,1.82-0.41,2.41-1.19
						c1.02-1.33,0.76-3.24-0.57-4.25c-9.03-6.9-17.33-13.75-24.92-20.39l-40.55-40.06c-11.7-13.15-17.74-21.66-17.86-21.84
						c-0.04-0.06-0.11-0.09-0.15-0.15c-0.05-0.06-0.07-0.13-0.12-0.19c-0.09-0.1-0.2-0.2-0.31-0.28
						c-15.34-12.4-28.05-40.25-37.78-82.75c-3.19-13.93,4.83-23.87,12.66-28.14c7.89-4.31,20.66-5.68,30.73,4.61
						c93.2,95.3,238.47,149.79,258.3,156.93C420.35,618.44,358.77,706.61,350.62,717.84z"/>
				</g>
			</g>
			<g>
				<g>
					<path class="st4" d="M1015.13,490.26c4.42-13.14,0.07-27-11.09-35.31c-7.13-5.31-15.63-7.34-23.8-6.05
						c11.97-15.67,22.01-41.03,29.94-75.7c3.25-14.19-2.9-27.85-15.67-34.82c-12.83-7-27.74-4.77-37.98,5.7
						c-98.67,100.89-256.6,155.69-258.18,156.24c-1.32,0.45-2.17,1.75-2.04,3.14c11.14,123.57,82.27,218.31,82.99,219.25
						c0.57,0.76,1.47,1.2,2.42,1.2c103.16,0,160.99-50.77,191.34-93.35c7.67-10.76,8.09-24.37,1.09-35.53
						c-4.76-7.59-12.07-12.56-20.36-14.2C979.58,565.09,1000.18,534.7,1015.13,490.26z M939.89,581.15
						c-0.12,0.05-0.21,0.15-0.33,0.22c-0.09,0.05-0.19,0.07-0.28,0.13c-0.23,0.17-9.18,6.64-22.56,15.15
						c-17.69,11.26-43.12,26.07-66.48,34.67c-5.35,1.97-10.6,3.63-15.62,4.83c-1.63,0.39-2.64,2.03-2.25,3.66
						c0.33,1.39,1.58,2.33,2.95,2.33c0.23,0,0.47-0.03,0.71-0.08c42.85-10.22,99.61-50.46,106.22-55.22l0.83-0.14
						c10.39-1.75,20.31,2.66,25.9,11.57c5.66,9.03,5.32,20.06-0.89,28.78c-29.37,41.22-85.25,90.3-184.87,90.8
						c-8.15-11.22-69.73-99.33-80.67-212.57c19.83-7.14,165.1-61.63,258.3-156.93c10.06-10.29,22.84-8.92,30.73-4.61
						c7.83,4.27,15.85,14.21,12.66,28.14c-9.73,42.51-22.44,70.35-37.78,82.75c-0.14,0.11-0.26,0.23-0.38,0.36
						c-0.04,0.04-0.05,0.1-0.09,0.15c-0.03,0.04-0.08,0.06-0.12,0.11c-0.13,0.18-6.14,8.67-17.81,21.79l-40.61,40.13
						c-7.59,6.63-15.88,13.48-24.9,20.37c-1.33,1.02-1.59,2.92-0.57,4.25c0.6,0.78,1.5,1.19,2.42,1.19c0.64,0,1.29-0.2,1.84-0.62
						c52.04-39.74,80.74-78.27,84.25-83.12c9.2-6.31,20.89-6.1,29.91,0.6c7.17,5.34,13.29,15.63,8.96,28.5
						C992.84,537.48,969.46,568.71,939.89,581.15z"/>
				</g>
			</g>
		</g>
		<g>
			<g>
				<path class="st5" d="M496.67,964.19l-5.58,1.08c1.02,17.36,9.65,116.83,72.91,119.92v-40.47
					C522.33,1042.69,504.37,998.85,496.67,964.19z"/>
			</g>
		</g>
		<g>
			<g>
				<path class="st5" d="M569.86,1044.72v40.47c63.3-3.09,71.9-102.56,72.91-119.92l-5.57-1.08
					C629.51,998.85,611.55,1042.69,569.86,1044.72z"/>
			</g>
		</g>
		<g>
			<g>
				<path class="st6" d="M845.96,862.49c-0.07-1.11-0.74-2.09-1.75-2.56c-36.93-17.11-72.92-81.8-78.63-92.4
					c14-23.16,24.77-53.14,23.73-90.08c-3.04-108.4-103.78-191.15-104.8-191.97c-0.54-0.44-1.22-0.68-1.91-0.68H451.26
					c-0.7,0-1.37,0.24-1.91,0.68c-1.02,0.82-101.76,83.58-104.8,191.97c-1.04,36.94,9.73,66.92,23.73,90.08
					c-5.71,10.6-41.7,75.29-78.63,92.4c-1.01,0.47-1.68,1.45-1.75,2.56c-0.03,0.42-0.57,10.47,7.59,18.37
					c7.48,7.25,19.53,10.17,35.81,8.66c4.58,0.63,50.49,8.47,59.82,68.24c0.03,0.18,0.11,0.33,0.17,0.49
					c0.05,0.14,0.07,0.28,0.14,0.41c0.16,0.31,0.36,0.58,0.61,0.82c0.02,0.02,0.03,0.05,0.06,0.08c0,0,0.01,0,0.01,0.01
					c0.27,0.24,0.58,0.43,0.92,0.56c0.14,0.05,0.29,0.06,0.43,0.09c0.19,0.04,0.37,0.11,0.57,0.12
					c1.21,0.04,120.95,4.04,170.88,29.64c0.54,0.45,1.21,0.71,1.91,0.71c0.04,0,0.07-0.01,0.11-0.01c0.04,0,0.07,0.01,0.11,0.01
					c0.7,0,1.37-0.27,1.91-0.71c49.92-25.6,169.67-29.61,170.88-29.64c0.2-0.01,0.38-0.08,0.57-0.12c0.14-0.03,0.29-0.04,0.43-0.09
					c0.34-0.13,0.65-0.32,0.92-0.56c0,0,0.01,0,0.01-0.01c0.03-0.02,0.03-0.05,0.06-0.07c0.25-0.24,0.45-0.51,0.61-0.82
					c0.07-0.13,0.09-0.27,0.14-0.41c0.06-0.16,0.14-0.31,0.17-0.49c9.34-59.77,55.25-67.6,59.82-68.24
					c16.28,1.51,28.33-1.41,35.82-8.66C846.53,872.96,845.99,862.91,845.96,862.49z"/>
			</g>
		</g>
		<g>
			<g>
				<path class="st7" d="M545.05,927.35c-24.88-7.48-52.42-12.44-77.08-15.72c-20.97-2.79-39.97-14.16-51.69-31.78
					c-1.62-2.43-3.28-4.76-4.98-7c-17.67-23.3-20.68-54.47-7.01-80.32c3.79-7.17,6.95-13.55,9.41-18.69
					c8.65-18.11,8.17-40.03-1.27-57.64c-11.45-21.34-16.93-44.83-16.31-69.81c1.79-72.04,50.85-134.84,74.03-160.58h193.56
					c23.05,25.6,72.22,88.46,74.01,160.58c0.62,24.98-4.87,48.47-16.31,69.81c-9.44,17.6-9.92,39.52-1.27,57.63
					c2.46,5.15,5.62,11.54,9.42,18.72c13.66,25.84,10.65,57.01-7.01,80.31c-1.69,2.24-3.35,4.56-4.96,6.99
					c-11.72,17.62-30.71,28.99-51.69,31.78c-24.66,3.28-52.21,8.24-77.1,15.72C574.51,931.65,559.34,931.65,545.05,927.35z"/>
			</g>
		</g>
		<g>
			<g>
				<path class="st4" d="M845.96,862.49c-0.07-1.11-0.74-2.09-1.75-2.56c-36.93-17.11-72.92-81.8-78.63-92.4
					c14-23.16,24.77-53.14,23.73-90.08c-3.04-108.4-103.78-191.15-104.8-191.97c-0.54-0.44-1.22-0.68-1.91-0.68H451.26
					c-0.7,0-1.37,0.24-1.91,0.68c-1.02,0.82-101.76,83.58-104.8,191.97c-1.04,36.94,9.73,66.92,23.73,90.08
					c-5.71,10.6-41.7,75.29-78.63,92.4c-1.01,0.47-1.68,1.45-1.75,2.56c-0.03,0.42-0.57,10.47,7.59,18.37
					c7.48,7.25,19.53,10.17,35.81,8.66c4.58,0.63,50.49,8.47,59.82,68.24c0.03,0.18,0.11,0.33,0.17,0.49
					c0.05,0.14,0.07,0.28,0.14,0.41c0.16,0.31,0.36,0.58,0.61,0.82c0.02,0.02,0.03,0.05,0.06,0.08c0,0,0.01,0,0.01,0.01
					c0.27,0.24,0.58,0.43,0.92,0.56c0.14,0.05,0.29,0.06,0.43,0.09c0.19,0.04,0.37,0.11,0.57,0.12
					c1.21,0.04,120.95,4.04,170.88,29.64c0.54,0.45,1.21,0.71,1.91,0.71c0.04,0,0.07-0.01,0.11-0.01c0.04,0,0.07,0.01,0.11,0.01
					c0.7,0,1.37-0.27,1.91-0.71c49.92-25.6,169.67-29.61,170.88-29.64c0.2-0.01,0.38-0.08,0.57-0.12c0.14-0.03,0.29-0.04,0.43-0.09
					c0.34-0.13,0.65-0.32,0.92-0.56c0,0,0.01,0,0.01-0.01c0.03-0.02,0.03-0.05,0.06-0.07c0.25-0.24,0.45-0.51,0.61-0.82
					c0.07-0.13,0.09-0.27,0.14-0.41c0.06-0.16,0.14-0.31,0.17-0.49c9.34-59.77,55.25-67.6,59.82-68.24
					c16.28,1.51,28.33-1.41,35.82-8.66C846.53,872.96,845.99,862.91,845.96,862.49z M452.36,490.87H681.5
					c9.52,8.04,98.93,86.29,101.74,186.75c1.57,56.07-25.09,95.6-47.74,118.89c-28.58,29.4-62.95,45.71-84.46,47.75
					c6.74-19.62,31.02-99.18-1.98-142.26c-0.58-0.75-1.47-1.19-2.41-1.19c-41.11,0-47.98-46.06-48.42-73.52
					c-0.21-13.02-10.92-23.61-23.87-23.61c-2.89,0-5.52,1.17-7.43,3.06c-1.91-1.89-4.54-3.06-7.43-3.06
					c-12.95,0-23.66,10.59-23.87,23.61c-0.44,27.46-7.31,73.52-48.42,73.52c-0.94,0-1.83,0.44-2.41,1.19
					c-33,43.08-8.72,122.64-1.98,142.26c-21.5-2.04-55.87-18.35-84.46-47.75c-22.65-23.29-49.32-62.82-47.74-118.89
					C353.44,577.16,442.84,498.91,452.36,490.87z M645.65,841.14c-5.69-8.74-17.08-31.9-17.36-77.2
					c13.68,2.37,25.71,2.04,31.43,1.65C659.05,797.44,649.69,828.94,645.65,841.14z M570.01,613.08c0.52-1.92,2.27-3.33,4.35-3.33
					c9.66,0,17.65,7.91,17.8,17.64c0.47,29.36,8.01,78.38,52.96,79.47c10.47,14.41,14.31,33.35,14.61,52.62
					c-10.26,0.66-46.95,1.45-70-19.04c-12.2-10.85-18.84-26.13-19.77-45.45c0.07-1.58,0.11-3.18,0.11-4.8v-75.93
					C570.08,613.85,570.05,613.46,570.01,613.08z M488.21,841.14c-4.04-12.2-13.4-43.7-14.07-75.55c5.72,0.39,17.74,0.72,31.43-1.66
					C505.29,809.23,493.9,832.39,488.21,841.14z M474.13,759.48c0.31-19.27,4.14-38.22,14.62-52.62
					c44.94-1.09,52.49-50.12,52.96-79.47c0.16-9.73,8.14-17.64,17.8-17.64c2.08,0,3.83,1.41,4.35,3.33
					c-0.04,0.39-0.06,0.78-0.06,1.17v75.93c0,1.62,0.04,3.22,0.11,4.8c-0.93,19.33-7.57,34.61-19.77,45.45
					C521.08,760.93,484.39,760.15,474.13,759.48z M834.15,876.5c-6.05,5.86-16.27,8.19-30.32,7.01l-44.64-43.74
					c-1.2-1.17-3.12-1.15-4.29,0.04c-1.17,1.2-1.15,3.12,0.04,4.29l41.42,40.58c-13.83,3.7-48.37,17.68-58.47,65.99L693.3,901
					c-1.12-1.24-3.04-1.35-4.29-0.23c-1.25,1.12-1.35,3.04-0.23,4.29l44.38,49.45c-25.87,1.17-121,6.95-166.23,29.69
					c-45.24-22.74-140.36-28.52-166.23-29.69l44.38-49.45c1.12-1.25,1.02-3.17-0.23-4.29c-1.25-1.12-3.17-1.01-4.29,0.23
					l-44.58,49.68c-10.1-48.31-44.64-62.3-58.47-65.99l41.42-40.58c1.2-1.17,1.22-3.09,0.04-4.29c-1.17-1.19-3.09-1.22-4.29-0.04
					l-44.64,43.74c-14,1.16-24.19-1.13-30.25-6.94c-4.47-4.29-5.53-9.41-5.77-12.01c35.76-17.93,68.79-74.42,77.98-91.13
					c7.08,10.73,14.75,19.83,22.02,27.31c31.79,32.69,70.95,49.8,93.2,49.8c0.36,0,0.7-0.08,1.02-0.2c0.07-0.03,0.13-0.05,0.2-0.08
					c0.32-0.14,0.61-0.33,0.87-0.58c0.02-0.02,0.04-0.02,0.06-0.04c0.91-0.91,22.2-23.03,22.3-86.93
					c12.46-2.86,25.69-8.14,36.48-17.72c9.06-8.05,15.34-18.24,18.8-30.43c3.45,12.2,9.73,22.38,18.8,30.43
					c10.78,9.58,24.02,14.87,36.48,17.73c0.1,63.9,21.39,86.01,22.29,86.93c0.02,0.02,0.04,0.02,0.06,0.04
					c0.25,0.24,0.55,0.43,0.87,0.58c0.07,0.03,0.13,0.05,0.2,0.08c0.33,0.12,0.67,0.2,1.03,0.2c22.25,0,61.4-17.11,93.2-49.8
					c7.27-7.48,14.94-16.58,22.02-27.31c9.19,16.72,42.21,73.2,77.97,91.13C839.6,867.15,838.55,872.23,834.15,876.5z"/>
			</g>
		</g>
		<g>
			<g>
				<path class="st3" d="M569.97,694.98c0.93,19.33,7.57,34.61,19.77,45.45c23.05,20.5,59.73,19.71,70,19.04
					c-0.31-19.27-4.14-38.22-14.61-52.62c-44.94-1.09-52.49-50.12-52.96-79.47c-0.16-9.73-8.14-17.64-17.8-17.64
					c-2.08,0-3.83,1.41-4.35,3.33c0.04,0.39,0.07,0.78,0.07,1.17v75.93C570.08,691.8,570.04,693.4,569.97,694.98z"/>
			</g>
		</g>
		<g>
			<g>
				<path class="st3" d="M563.89,694.98c-0.07-1.58-0.11-3.18-0.11-4.8v-75.93c0-0.4,0.02-0.79,0.06-1.17
					c-0.52-1.92-2.27-3.33-4.35-3.33c-9.66,0-17.65,7.91-17.8,17.64c-0.47,29.36-8.01,78.38-52.96,79.47
					c-10.48,14.41-14.31,33.35-14.62,52.62c10.26,0.67,46.95,1.45,70-19.04C556.32,729.59,562.96,714.31,563.89,694.98z"/>
			</g>
		</g>
		<g>
			<g>
				<path class="st6" d="M659.72,765.58c-5.71,0.4-17.74,0.73-31.43-1.65c0.28,45.3,11.67,68.46,17.36,77.2
					C649.69,828.94,659.05,797.44,659.72,765.58z"/>
			</g>
		</g>
		<g>
			<g>
				<path class="st6" d="M488.21,841.14c5.69-8.74,17.08-31.9,17.36-77.21c-13.68,2.37-25.71,2.04-31.43,1.66
					C474.81,797.44,484.17,828.94,488.21,841.14z"/>
			</g>
		</g>
		<g>
			<g>
				<path class="st5" d="M598.84,717.67c-12.2-10.85-18.84-26.13-19.77-45.45c0.07-1.58,0.11-3.18,0.11-4.8v-56.97
					c-1.54-0.44-3.15-0.69-4.82-0.69c-2.08,0-3.83,1.41-4.35,3.33c0.04,0.39,0.07,0.78,0.07,1.17v75.93c0,1.62-0.04,3.22-0.11,4.8
					c0.93,19.33,7.57,34.61,19.77,45.45c23.05,20.5,59.73,19.71,70,19.04c-0.12-7.67-0.84-15.27-2.27-22.57
					C641.78,736.53,616.38,733.26,598.84,717.67z"/>
			</g>
		</g>
		<g>
			<g>
				<path class="st5" d="M563.79,690.18v-75.93c0-0.4,0.02-0.79,0.06-1.17c-0.52-1.92-2.27-3.33-4.35-3.33
					c-1.67,0-3.28,0.25-4.82,0.69v56.97c0,1.62,0.04,3.22,0.11,4.8c-0.93,19.33-7.57,34.61-19.77,45.45
					c-17.53,15.59-42.94,18.86-58.62,19.24c-1.43,7.3-2.15,14.9-2.27,22.57c10.26,0.67,46.95,1.45,70-19.04
					c12.2-10.85,18.84-26.13,19.77-45.45C563.82,693.4,563.79,691.8,563.79,690.18z"/>
			</g>
		</g>
		<g>
			<g>
				<g>
					<g>
						<g>
							<path class="st5" d="M682.12,484c57.37-60.14,56.68-161.44,56.39-173.44c-59.63-58.58-166.91-55.33-171.47-55.19
								c-4.78-0.14-112.06-3.39-171.69,55.19c-0.29,12-0.94,113.37,56.41,173.46c28.63,30.01,67.35,45.24,115.06,45.29
								c0.06,0,0.12,0,0.19,0.01C614.81,529.25,653.5,514,682.12,484z"/>
						</g>
					</g>
				</g>
				<g>
					<g>
						<g>
							<path class="st4" d="M744.54,309.12c-0.04-0.76-0.35-1.47-0.89-2.01c-61.3-61.3-172.14-57.98-176.61-57.8
								c-4.69-0.17-115.53-3.51-176.83,57.8c-0.54,0.53-0.85,1.25-0.89,2.01c-0.05,1.13-4.49,113.54,58.02,179.07
								c29.83,31.27,70.02,47.14,119.58,47.19c0.05,0,0.12,0,0.19-0.01c49.41-0.07,89.58-15.94,119.39-47.19
								C749.02,422.66,744.59,310.24,744.54,309.12z M451.76,484.02c-57.35-60.09-56.7-161.46-56.41-173.46
								c59.63-58.58,166.91-55.33,171.69-55.19c4.56-0.14,111.84-3.39,171.47,55.19c0.29,12,0.98,113.3-56.39,173.44
								c-28.62,30-67.31,45.25-115.11,45.31c-0.06,0-0.12-0.01-0.19-0.01C519.11,529.26,480.39,514.02,451.76,484.02z"/>
						</g>
					</g>
				</g>
				<g>
					<g>
						<g>
							<path class="st3" d="M658.22,460.28c45.46-53.88,44.92-144.65,44.69-155.4c-47.26-52.49-132.27-49.57-135.89-49.45
								c-3.79-0.12-88.81-3.04-136.06,49.45c-0.23,10.75-0.74,101.57,44.7,155.41c22.69,26.88,53.37,40.54,91.19,40.58
								c0.05,0,0.1,0,0.15,0.01C604.87,500.82,635.54,487.16,658.22,460.28z"/>
						</g>
					</g>
				</g>
			</g>
			<g>
				<g>
					<g>
						<path class="st4" d="M486.1,384.52c-8.87,0-15.67-2.3-15.82-2.35c-1.58-0.55-2.41-2.28-1.86-3.86
							c0.55-1.58,2.28-2.43,3.86-1.87c1.19,0.41,29.25,9.79,42.24-14.14c0.8-1.47,2.64-2.02,4.12-1.22c1.47,0.8,2.02,2.64,1.22,4.12
							C511.28,380.97,497.1,384.52,486.1,384.52z"/>
					</g>
				</g>
			</g>
			<g>
				<g>
					<g>
						<path class="st4" d="M647.76,384.52c-11.01,0-25.18-3.54-33.75-19.32c-0.8-1.47-0.25-3.32,1.22-4.12
							c1.47-0.8,3.32-0.25,4.12,1.22c13.04,24.02,41.05,14.56,42.24,14.14c1.58-0.55,3.31,0.28,3.87,1.86
							c0.55,1.58-0.28,3.31-1.86,3.87C663.44,382.22,656.63,384.52,647.76,384.52z"/>
					</g>
				</g>
			</g>
			<g>
				<g>
					<g>
						<g>
							<path class="st3" d="M389.99,336.57c-2.04-0.36-4.05-0.53-6-0.53c-7.72,0-14.66,2.76-19.75,7.97
								c-8.79,9-11.3,24.42-6.87,42.3c7.31,29.53,37.24,29.49,47.67,28.54C395.13,385.34,391.37,356.53,389.99,336.57z"/>
						</g>
					</g>
				</g>
				<g>
					<g>
						<g>
							<path class="st4" d="M395.89,333.89c-0.08-1.27-1.25-2.45-2.48-2.8c-0.16-0.05-0.33-0.09-0.5-0.13
								c-12.74-2.85-24.78,0.36-33.02,8.81c-10.45,10.69-13.44,27.74-8.42,48c7.21,29.12,33.74,33.29,48.35,33.29
								c5.77,0,9.67-0.65,9.81-0.68c0.95-0.17,1.77-0.79,2.19-1.65c0.37-0.74,0.42-1.59,0.15-2.37
								C400.98,385.14,397.16,354.28,395.89,333.89z M357.36,386.3c-4.43-17.88-1.92-33.3,6.87-42.3
								c5.09-5.21,12.03-7.97,19.75-7.97c1.95,0,3.96,0.17,6,0.53c1.38,19.96,5.14,48.77,15.04,78.28
								C394.6,415.79,364.67,415.83,357.36,386.3z"/>
						</g>
					</g>
				</g>
				<g>
					<g>
						<g>
							<path class="st3" d="M776.5,386.3c4.43-17.88,1.92-33.3-6.87-42.3c-6.4-6.55-15.71-9.22-25.75-7.45
								c-1.38,19.95-5.14,48.77-15.04,78.28C739.27,415.77,769.21,415.76,776.5,386.3z"/>
						</g>
					</g>
				</g>
				<g>
					<g>
						<g>
							<polygon class="st3" points="741.03,334.07 741.03,334.07 741.03,334.07 							"/>
						</g>
					</g>
				</g>
				<g>
					<g>
						<g>
							<path class="st4" d="M773.97,339.76c-8.24-8.44-20.28-11.66-33.03-8.81c-0.17,0.04-0.33,0.09-0.49,0.13l0.59,2.98v0v0
								l-0.72-2.95c-1.29,0.32-2.26,1.44-2.35,2.77c-1.27,20.39-5.09,51.25-16.08,82.48c-0.31,0.87-0.19,1.85,0.3,2.63
								c0.46,0.73,1.2,1.23,2.05,1.38c0.14,0.03,4.04,0.68,9.81,0.68c14.61,0,41.14-4.18,48.35-33.29
								C787.41,367.5,784.41,350.45,773.97,339.76z M743.87,336.56c10.04-1.78,19.35,0.9,25.75,7.45c8.79,9,11.3,24.42,6.87,42.3
								c-7.29,29.46-37.23,29.47-47.67,28.53C738.73,385.33,742.49,356.51,743.87,336.56z"/>
						</g>
					</g>
				</g>
			</g>
			<g>
				<g>
					<g>
						<path class="st4" d="M606.94,437.01c-1.53-0.69-3.33-0.02-4.02,1.5c-0.09,0.2-9.4,19.92-35.99,19.97
							c-26.4-0.06-35.59-19.13-35.99-19.98c-0.7-1.52-2.49-2.18-4.02-1.5c-1.53,0.7-2.2,2.5-1.5,4.02
							c0.44,0.96,11.03,23.37,41.33,23.52c0.02,0,0.04,0.01,0.07,0.01c0.04,0,0.07,0,0.11,0c0.04,0,0.07,0,0.11,0
							c0.02,0,0.04-0.01,0.07-0.01c30.3-0.15,40.9-22.56,41.33-23.52C609.13,439.51,608.46,437.71,606.94,437.01z"/>
					</g>
				</g>
			</g>
			<g>
				<g>
					<g>
						<path class="st5" d="M357.36,363.5c-0.37-1.5-0.62-2.95-0.9-4.41c-1.82,7.82-1.61,17.1,0.9,27.22
							c7.31,29.53,37.24,29.49,47.67,28.54c-2.55-7.61-4.69-15.17-6.49-22.55C385.42,392.2,363.48,388.2,357.36,363.5z"/>
					</g>
				</g>
			</g>
			<g>
				<g>
					<g>
						<path class="st5" d="M776.5,363.5c-6.1,24.65-28.05,28.68-41.17,28.79c-1.8,7.38-3.94,14.94-6.49,22.55
							c10.43,0.94,40.37,0.92,47.67-28.53c2.5-10.12,2.71-19.39,0.9-27.22C777.12,360.55,776.87,362,776.5,363.5z"/>
					</g>
				</g>
			</g>
			<g>
				<g>
					<g>
						<g>
							<g>
								<g>
									<g>
										<g>
											<path class="st8" d="M760.82,283.1c-4.36-4.65-9.87-7.82-16.21-9.46c-0.86-56-31.64-98.79-89.18-123.81
												c-43.71-19.01-88.03-21.15-88.47-21.17c-0.01,0-0.01,0-0.02,0c-0.01,0-0.01,0-0.02,0c-0.44,0.02-44.76,2.16-88.47,21.17
												c-57.54,25.02-88.32,67.81-89.18,123.81c-6.34,1.64-11.85,4.81-16.22,9.46c-8.1,8.63-11.83,21.95-10.78,38.49
												c0.99,15.66,13.04,29.84,30.68,36.12c6.25,2.23,12.65,3.32,19.06,3.32c17.48,0,34.93-8.12,49.11-23.4
												c17.76-19.15,23.09-42.56,23.47-62.86c11.38,23.06,37.87,51.97,99.24,51.97c27.23,0,46.99-7.72,58.76-22.95
												c3.42-4.43,5.99-9.27,7.88-14.32c2.39,16.34,8.7,33.5,22.3,48.15c14.18,15.29,31.63,23.4,49.11,23.4
												c6.4,0,12.81-1.09,19.06-3.32c17.64-6.28,29.69-20.46,30.68-36.12C772.65,305.04,768.92,291.73,760.82,283.1z
												 M760.82,283.1c-4.36-4.65-9.87-7.82-16.21-9.46c-0.86-56-31.64-98.79-89.18-123.81
												c-43.71-19.01-88.03-21.15-88.47-21.17c-0.01,0-0.01,0-0.02,0c-0.01,0-0.01,0-0.02,0c-0.44,0.02-44.76,2.16-88.47,21.17
												c-57.54,25.02-88.32,67.81-89.18,123.81c-6.34,1.64-11.85,4.81-16.22,9.46c-8.1,8.63-11.83,21.95-10.78,38.49
												c0.99,15.66,13.04,29.84,30.68,36.12c6.25,2.23,12.65,3.32,19.06,3.32c17.48,0,34.93-8.12,49.11-23.4
												c17.76-19.15,23.09-42.56,23.47-62.86c11.38,23.06,37.87,51.97,99.24,51.97c27.23,0,46.99-7.72,58.76-22.95
												c3.42-4.43,5.99-9.27,7.88-14.32c2.39,16.34,8.7,33.5,22.3,48.15c14.18,15.29,31.63,23.4,49.11,23.4
												c6.4,0,12.81-1.09,19.06-3.32c17.64-6.28,29.69-20.46,30.68-36.12C772.65,305.04,768.92,291.73,760.82,283.1z"/>
										</g>
									</g>
								</g>
							</g>
						</g>
					</g>
					<g>
						<g>
							<g>
								<g>
									<path class="st9" d="M721.86,342.82c-12.54,0-25.24-6.82-35.76-19.22c-9.46-11.15-15.39-25.27-17.63-41.98
										c-1.2-8.99-7.82-15.95-16.08-16.91c-0.65-0.08-1.3-0.11-1.95-0.11c-7.52,0-14.36,5.09-17.04,12.92
										c-1.35,3.94-3.11,7.46-5.24,10.46c-8.14,11.52-23.06,17.35-44.35,17.35c-41.32,0-69.21-15.38-82.91-45.71
										c-3.12-6.9-9.51-11.1-16.33-11.1c-1.32,0-2.65,0.16-3.97,0.48c-8.2,2-14.08,9.87-14.24,19.05
										c-0.4,22.77-6.66,41.46-18.62,55.55c-10.52,12.39-23.21,19.22-35.76,19.22c-4.38,0-8.73-0.83-12.95-2.47
										c-10.61-4.13-18.09-12.97-18.61-21.99c-0.71-12.28,1.38-21.94,5.88-27.19c1.96-2.28,4.41-3.82,7.5-4.69
										c7.93-2.25,13.52-10.01,13.64-18.97c0.75-53.58,27.07-93.07,78.23-117.39c36.96-17.56,75.12-21,81.23-21.45
										c6.07,0.44,44.25,3.88,81.23,21.45c51.16,24.32,77.48,63.81,78.23,117.39c0.13,8.96,5.71,16.72,13.64,18.97
										c3.09,0.87,5.54,2.41,7.5,4.69c4.51,5.25,6.6,14.91,5.88,27.19c-0.52,9.02-8.01,17.86-18.62,21.99
										C730.6,341.99,726.24,342.82,721.86,342.82z"/>
								</g>
							</g>
						</g>
					</g>
				</g>
				<g>
					<g>
						<g>
							<path class="st4" d="M760.82,283.1c-4.36-4.65-9.87-7.82-16.21-9.46c-0.86-56-31.64-98.79-89.18-123.81
								c-43.71-19.01-88.03-21.15-88.47-21.17c-0.01,0-0.01,0-0.02,0c-0.01,0-0.01,0-0.02,0c-0.44,0.02-44.76,2.16-88.47,21.17
								c-57.54,25.02-88.32,67.81-89.18,123.81c-6.34,1.64-11.85,4.81-16.22,9.46c-8.1,8.63-11.83,21.95-10.78,38.49
								c0.99,15.66,13.04,29.84,30.68,36.12c6.25,2.23,12.65,3.32,19.06,3.32c17.48,0,34.93-8.12,49.11-23.4
								c17.76-19.15,23.09-42.56,23.47-62.86c11.38,23.06,37.87,51.97,99.24,51.97c27.23,0,46.99-7.72,58.76-22.95
								c3.42-4.43,5.99-9.27,7.88-14.32c2.39,16.34,8.7,33.5,22.3,48.15c14.18,15.29,31.63,23.4,49.11,23.4
								c6.4,0,12.81-1.09,19.06-3.32c17.64-6.28,29.69-20.46,30.68-36.12C772.65,305.04,768.92,291.73,760.82,283.1z M765.54,321.2
								c-0.84,13.23-11.3,25.32-26.66,30.79c-20.95,7.47-44.01,0.55-61.67-18.5c-37.21-40.12-15.28-103.02-15.05-103.65
								c0.57-1.58-0.25-3.32-1.83-3.88c-1.58-0.56-3.31,0.26-3.88,1.83c-0.24,0.68-1.82,5.16-3.43,12.18
								c-0.8-4.54-1.74-8.69-2.67-12.24c-2.73-10.47-7.83-19.75-14.75-26.84c-5.95-6.1-17.97-12.66-30.3-12.66
								c-11.3,0-21.74,5.61-28.66,15.4c-8.77,12.42-10.44,29.05-4.56,45.64c4.29,12.1,12.17,14.97,16.49,15.61
								c7,1.03,14.64-2.27,19-8.2c3.91-5.32,4.54-11.71,1.73-17.51c-0.73-1.51-2.55-2.13-4.05-1.41c-1.51,0.73-2.14,2.55-1.41,4.05
								c2.46,5.08,0.33,9.24-1.16,11.27c-3.07,4.18-8.38,6.49-13.22,5.79c-5.2-0.77-9.23-4.79-11.65-11.63
								c-5.21-14.71-3.83-29.33,3.79-40.11c5.76-8.15,14.4-12.83,23.7-12.83c10.1,0,20.7,5.45,25.95,10.83
								c6.19,6.34,10.76,14.68,13.22,24.13c4.53,17.35,9.67,49.63-6.7,70.82c-10.56,13.66-28.71,20.59-53.96,20.59
								c-77.92,0-96.2-47.21-100.42-66.4c-0.36-2.77-0.78-5.4-1.23-7.84c0-0.01,0-0.03,0-0.03c0-0.01-0.01-0.03-0.01-0.04
								c-1.96-10.62-4.44-17.7-4.75-18.56c-0.57-1.58-2.3-2.4-3.88-1.83c-1.58,0.57-2.4,2.31-1.83,3.88
								c0.23,0.63,22.16,63.54-15.05,103.65c-17.67,19.04-40.73,25.96-61.67,18.5c-15.35-5.47-25.82-17.56-26.66-30.79
								c-0.94-14.83,2.22-26.57,9.15-33.95c5.44-5.79,13.12-8.86,22.22-8.86c8.25,0,16.09,6.36,19.07,15.46
								c3.28,10.02-0.17,19.96-9.23,26.61c-1.35,0.99-1.64,2.89-0.65,4.24c0.99,1.35,2.89,1.64,4.24,0.65
								c13.28-9.74,14.6-23.64,11.41-33.39c-3.85-11.75-13.83-19.65-24.84-19.65c-1.46,0-2.89,0.08-4.29,0.22
								c1.21-53.51,29.84-92.92,85.31-117.08c41.1-17.91,82.78-20.53,86.22-20.72c7.18,0.4,168.63,11.13,171.57,137.81
								c-1.42-0.14-2.86-0.22-4.33-0.22c-11.01,0-20.99,7.9-24.84,19.65c-3.19,9.75-1.87,23.65,11.41,33.39
								c1.35,0.99,3.25,0.7,4.24-0.65c0.99-1.35,0.7-3.25-0.65-4.24c-9.06-6.64-12.51-16.59-9.23-26.61
								c2.98-9.11,10.82-15.46,19.07-15.46c9.1,0,16.78,3.06,22.22,8.86C763.32,294.63,766.48,306.37,765.54,321.2z"/>
						</g>
					</g>
				</g>
			</g>
		</g>
		<g>
			<g>
				<g>
					<g>
						<path class="st10" d="M567.04,58.34c-53.2,0-81.04,9.8-81.04,15.05c0,5.25,27.83,15.05,81.04,15.05
							c53.2,0,81.04-9.8,81.04-15.05C648.08,68.14,620.24,58.34,567.04,58.34z"/>
					</g>
				</g>
				<g>
					<g>
						<path class="st11" d="M567.04,48.59c-63.37,0-107.54,16.53-107.54,31.36s44.17,31.36,107.54,31.36s107.54-16.53,107.54-31.36
							S630.41,48.59,567.04,48.59z M567.04,94.51c-30.13,0-87.11-4.41-87.11-21.12c0-16.7,56.98-21.12,87.11-21.12
							c30.13,0,87.11,4.41,87.11,21.12C654.15,90.1,597.17,94.51,567.04,94.51z"/>
					</g>
				</g>
				<g>
					<g>
						<path class="st4" d="M567.04,42.52c-55.85,0-113.61,14-113.61,37.43c0,23.43,57.76,37.43,113.61,37.43
							c55.85,0,113.61-14,113.61-37.43C680.65,56.52,622.89,42.52,567.04,42.52z M567.04,111.32c-63.37,0-107.54-16.53-107.54-31.36
							s44.17-31.36,107.54-31.36s107.54,16.53,107.54,31.36S630.41,111.32,567.04,111.32z"/>
					</g>
				</g>
				<g>
					<g>
						<path class="st4" d="M567.04,52.27c-30.13,0-87.11,4.41-87.11,21.12c0,16.71,56.98,21.12,87.11,21.12
							c30.13,0,87.11-4.41,87.11-21.12C654.15,56.69,597.17,52.27,567.04,52.27z M567.04,88.44c-53.2,0-81.04-9.8-81.04-15.05
							c0-5.25,27.83-15.05,81.04-15.05c53.2,0,81.04,9.8,81.04,15.05C648.08,78.64,620.24,88.44,567.04,88.44z"/>
					</g>
				</g>
			</g>
			<g>
				<g>
					<path class="st12" d="M567.04,50.5c-55.8,0-94.69,13.65-94.69,25.89c0,12.25,38.89,25.89,94.69,25.89
						c55.81,0,94.69-13.65,94.69-25.89C661.73,64.15,622.85,50.5,567.04,50.5z M567.04,94.51c-30.13,0-87.11-4.41-87.11-21.12
						c0-16.7,56.98-21.12,87.11-21.12c30.13,0,87.11,4.41,87.11,21.12C654.15,90.1,597.17,94.51,567.04,94.51z"/>
				</g>
			</g>
		</g>
	</g>
	<g>
		
			<ellipse transform="matrix(0.8578 -0.514 0.514 0.8578 -21.8166 277.496)" class="st13" cx="490.58" cy="178.18" rx="35.69" ry="16.69"/>
		
			<ellipse transform="matrix(0.894 -0.4481 0.4481 0.894 -44.062 222.2829)" class="st13" cx="447.67" cy="204.25" rx="11.12" ry="11.12"/>
	</g>
</g>
</svg>
