<?xml version="1.0" encoding="utf-8"?>
<!-- Generator: Adobe Illustrator 26.0.3, SVG Export Plug-In . SVG Version: 6.00 Build 0)  -->
<svg version="1.1" id="Layer_1" xmlns="http://www.w3.org/2000/svg" xmlns:xlink="http://www.w3.org/1999/xlink" x="0px" y="0px"
	 viewBox="0 0 1133.86 1133.86" style="enable-background:new 0 0 1133.86 1133.86;" xml:space="preserve">
<style type="text/css">
	.st0{fill-rule:evenodd;clip-rule:evenodd;fill:#D32F2F;}
	.st1{fill-rule:evenodd;clip-rule:evenodd;fill:#672020;}
	.st2{fill-rule:evenodd;clip-rule:evenodd;fill:#FFFFFE;}
</style>
<g>
	<path class="st0" d="M937.74,196.12c-94.9-94.9-226-153.6-370.81-153.6c-144.81,0-275.91,58.7-370.81,153.6
		c-94.9,94.9-153.6,226-153.6,370.81c0,144.81,58.7,275.91,153.6,370.81c94.9,94.9,226,153.6,370.81,153.6
		c144.81,0,275.91-58.7,370.81-153.6c94.9-94.9,153.6-226,153.6-370.81C1091.34,422.12,1032.64,291.02,937.74,196.12z"/>
	<path class="st1" d="M455.56,442.48c0-9.21-1.63-18.03-4.62-26.21c20.05,6.12,42.31,10.86,67.03,13.71
		c8.98,1.03,17.09-5.42,18.12-14.4c1.03-8.98-5.42-17.09-14.4-18.12C344.71,377.09,310.29,252.6,310.18,252.24
		c-2.51-8.66-11.57-13.65-20.23-11.14c-8.66,2.51-13.65,11.57-11.14,20.23c0.08,0.27,16.38,59.02,79.2,107.71
		c-12.6,3.62-23.87,10.4-32.89,19.42c-13.83,13.83-22.38,32.93-22.38,54.03c0,21.1,8.55,40.2,22.38,54.03
		c13.83,13.83,32.93,22.38,54.03,22.38c21.1,0,40.2-8.55,54.03-22.38S455.56,463.58,455.56,442.48z"/>
	<path class="st1" d="M682.91,416.27c-2.98,8.17-4.62,17-4.62,26.21c0,21.1,8.55,40.2,22.38,54.03
		c13.83,13.83,32.93,22.38,54.03,22.38c21.1,0,40.2-8.55,54.03-22.38c13.83-13.83,22.38-32.93,22.38-54.03
		c0-21.1-8.55-40.2-22.38-54.03c-9.02-9.02-20.29-15.8-32.89-19.42c62.83-48.69,79.12-107.44,79.2-107.71
		c2.51-8.66-2.48-17.72-11.14-20.23c-8.66-2.51-17.72,2.48-20.23,11.14c-0.11,0.36-34.53,124.85-211.51,145.22
		c-8.98,1.02-15.43,9.14-14.4,18.12c1.03,8.98,9.14,15.43,18.12,14.4C640.6,427.13,662.87,422.39,682.91,416.27z"/>
	<path class="st1" d="M782.01,797.08c-61.02-75.83-143.02-118.03-229.31-118.03c-86.28,0-168.29,42.2-229.31,118.03
		c-7.72,9.6-7.72,25.16,0,34.76c7.72,9.6,20.25,9.6,27.97,0c53.58-66.59,125.57-103.63,201.34-103.63
		c75.77,0,147.75,37.04,201.33,103.63c7.72,9.6,20.25,9.6,27.97,0C789.73,822.24,789.73,806.67,782.01,797.08z"/>
	<path class="st2" d="M378.76,477.41c19.03,0,34.54-15.52,34.54-34.54c0-19.03-15.52-34.54-34.54-34.54
		c-19.03,0-34.54,15.52-34.54,34.54C344.21,461.9,359.73,477.41,378.76,477.41z"/>
	<path class="st2" d="M755.11,477.41c19.03,0,34.54-15.52,34.54-34.54c0-19.03-15.52-34.54-34.54-34.54s-34.54,15.52-34.54,34.54
		C720.56,461.9,736.08,477.41,755.11,477.41z"/>
</g>
</svg>
