<?xml version="1.0" encoding="utf-8"?>
<!-- Generator: Adobe Illustrator 26.0.3, SVG Export Plug-In . SVG Version: 6.00 Build 0)  -->
<svg version="1.1" id="Layer_1" xmlns="http://www.w3.org/2000/svg" xmlns:xlink="http://www.w3.org/1999/xlink" x="0px" y="0px"
	 viewBox="0 0 1133.86 1133.86" style="enable-background:new 0 0 1133.86 1133.86;" xml:space="preserve">
<style type="text/css">
	.st0{fill:#8AC9CF;}
	.st1{fill:#E89451;}
	.st2{fill:#FFE266;}
	.st3{fill:#D7F4F3;}
	.st4{fill:#FCF8D0;}
	.st5{fill:#EFBB56;}
	.st6{fill:#59A9AD;}
	.st7{fill:#C96539;}
	.st8{fill:#331C14;}
</style>
<g>
	<path class="st0" d="M490.83,135.86c-49.79-25.3-96.11-30.38-96.27-30.41c-6.1-0.77-15.01-1.35-19.85-1.26
		c-8.52,0-9.01,0.19-22.76,6.1C177.03,185.64,72.32,336.57,56.08,507.37c-2.81,30.2-1.94,18.39,7.36,2.52
		c21.21-37.48,57.82-75.06,114.67-117.67c37.77-28.28,53.46-37.39,104.6-60.53c114.02-51.63,178.71-39.55,208.42-45.13
		c2.91-0.58,2.91-0.58,3.49-9c1.64-25.28,14.33-50.56,34.86-69.44c16.89-15.3,29.93-19.5,29.54-20.72
		C558.7,186.66,528.3,154.9,490.83,135.86z"/>
	<path class="st1" d="M563.95,185.25c2.83-0.93,51.55-25.79,112.93-9.97c14.14,3.6,13.47,1.39,22.37,4.84
		c3.58,1.35,6.58,2.32,6.68,2.23c0.42-0.83,5.03-20.53,24.5-40.19c24.22-24.48,37-29.35,37-31.38c0-1.23-117.07-49.54-245.51-40.58
		c-71.25,5.27-111.08,19.66-131.61,25.86c-0.15-0.03,42.7,0.81,95.78,27.89C531.52,147.1,548.78,171.31,563.95,185.25z"/>
	<path class="st2" d="M687.24,185.45c-4.18-2.97-24.98-6.15-31.28-6.78c-89.28-8.91-158.81,48.66-151.95,113.8
		c7.87,74.84,94.63,122.39,171.91,107.6c51.91-9.64,97.02-46.11,103.24-97.14c5.52-46.68-27.89-92.49-82.71-113.12
		C692.76,188.45,688.69,186.51,687.24,185.45z M440.56,670.66c1.5-3.98,25.58-71.37,35.06-90.55c13.9-27.56,29.89-54.14,40-73.6
		c33.08-63.21,68.56-103.67,68.66-103.82c-0.15-0.14-67.21-22.66-85.61-86.97c-3.78-13.22-4.57-25.87-5.33-25.37
		c-0.29,0.29-4.84,0.97-10.17,1.55c-94.39,10.78-132.17,18.33-220.14,59.95c-57.26,27.21-109.16,66.45-149.92,107.89
		c-47.51,48.15-52.25,75.07-59.56,89.39c2.28,9.9-7.99,160.07,107.22,308.17c47.37,60.64,108.52,110.53,174.9,143.73
		c12.88,6.39,13.37,6.59,13.75,4.45c0.61-2.44,3.91-28.63,6.49-38.93c3.13-11.47,6.54-33.61,12.88-54.91
		C374.93,891.02,406.94,760.76,440.56,670.66z M793.38,126.85c-10.25-4.97-19.56-9.3-20.63-9.59c-2.23-0.58-12.49,7.65-29.35,23.63
		c-19.47,18.16-25.57,30.41-34.57,43c3.25,1.89,21.83,9.22,41.35,27.6c49.48,46.36,33.4,86.06,41.45,87.07
		c1.35,0.19,13.37,2.42,26.63,5.03c42.23,8.33,75.64,19.56,111.38,37.39c30.7,15.4,45.81,25.66,85.23,58.2
		c22.86,18.88,27.6,23.24,40,36.42c4.36,4.74,7.94,8.33,7.94,8.13c0-0.29-2.04-6.78-4.46-14.43
		C1018.09,303.54,924.85,190.58,793.38,126.85z"/>
	<path class="st0" d="M980.01,382.15c-30.51-24.7-77-48.43-124.55-63.63c-22.02-7.05-44.49-11.74-64.98-16.27
		c-1.74-0.39-2.71,1.26-2.71,4.74c0,1.16-1.07,6.39-2.32,11.43c-13.16,51.93-60.48,74.6-62.47,76.32l8.43,11.52
		c9.52,12.89,42.67,66.99,48.62,77.48c23.73,41.35,37.67,75.16,55.3,133.94c24.92,83.56,36.85,163.04,29.93,250.55
		c-6.32,79.81-26.63,123.3-24.41,121.65c170.65-99.65,270.1-295,232.05-503.13c-1.35-7.75-3.19-15.3-3.87-16.85
		c-2.03-3.78-18.98-23.92-29.54-35.06C1030.76,425.73,998.22,396.87,980.01,382.15z"/>
	<path class="st1" d="M850.49,727.22c-10.45-80.25-42.34-182.33-87.61-258.98c-6.99-11.75-40.78-71.57-43.58-71.57
		c-4.22,0.82-54.16,28.19-118.25,11.04c-5.04-1.35-9.59-2.42-10.26-2.42c-0.68,0-6.49,7.26-12.88,16.17
		c-32.29,44.98-56.49,95.91-67.31,115.54c-22.95,40.97-35.83,69.83-53.56,120.48c-22.86,65.08-28.67,82.13-30.8,89.98
		c-6.9,24.83-68.47,236.73-68.47,261.68c0,3.96,0.36,3.06,19.47,10.94c46.58,19.18,96.85,31.86,149.05,37.67
		c22.47,2.42,85.81,2.42,107.02,0c115.23-13.48,191.68-58.84,192.92-60.43c2.1-2.41,15.5-18.9,24.46-71.38
		c0.07-0.39,7.91-50.78,11-83.51C862.79,830.64,857.65,782.19,850.49,727.22z"/>
	<path class="st3" d="M324.72,154.56c-36.28,18.14-62.8,52.64-52.67,61.88c6.59,6.2,17.63,1.35,41.16-18.01
		c26.63-21.79,34.28-26.34,58.11-34.48c20.82-7.07,30.02-13.37,30.02-20.53C401.34,125.02,342.64,145.59,324.72,154.56z"/>
	<path class="st4" d="M603.24,195.74c-31.19,6.52-64.08,46.26-56.79,55.67c4.66,6.07,11.39,1.52,27.2-16.95
		c6.39-7.46,36.23-21.74,39.69-22.3c11.58-2.21,29.58-2.96,34.78-7.14C659.58,195.84,620.7,192.09,603.24,195.74z"/>
	<path class="st5" d="M1074.61,464.16c0,0.19-34.97-36.24-56.8-56.3c-13.33-12.25-11.07-16.89-39.3-31.27
		c-11.47-48.06-70.2-119.13-83.2-137.8c-27.59-39.64-82.49-77.89-139.37-109.42c9.43-8.35,15.21-12.51,16.82-12.09
		c1.07,0.29,10.37,4.61,20.63,9.59c131.46,63.73,227.8,170.23,268.07,295.99C1063.87,430.5,1074.61,463.86,1074.61,464.16z"/>
	<path class="st6" d="M840.84,989.87c-1.98,1.47,13.93-32.91,21.89-96.9c29.81-29.96,87.19-125.32,102.15-169.86
		c68-202.46,18.01-327.51,15.14-340.96c18.21,14.72,50.75,43.58,59.46,52.68c10.56,11.14,27.51,31.28,29.54,35.06
		c0.68,1.55,2.52,9.11,3.87,16.85C1110.94,694.88,1011.49,890.22,840.84,989.87z"/>
	<path class="st7" d="M767.43,110.78c0,1.44-6.42,4.3-18.8,14.58c-35.35-19.18-71.04-35.7-101.05-48.26
		C710.23,87.46,767.43,109.61,767.43,110.78z"/>
	<path class="st7" d="M850.68,904.47c-5.47,37.05-20.35,88.15-24.46,92.86c-1.24,1.59-77.69,46.95-192.92,60.43
		c-21.21,2.42-84.55,2.42-107.02,0c-17.24-1.92-34.26-4.58-51.01-7.99C592.39,1024.62,749.41,996.29,850.68,904.47z"/>
	<path class="st8" d="M788.45,110.49c-26.77-13.06-8.36,0.26-37.39-12.11C685.19,70.14,600.6,56.77,528.21,60.51
		C272.41,73.72,64.28,260.91,43.87,515.99c-8.55,111.67,23.36,236.33,99.66,339.65c227.71,308.85,707.33,288.05,889.55-49.88
		C1161.27,567.75,1077.11,251.51,788.45,110.49z M772.76,117.27c1.07,0.29,10.37,4.61,20.63,9.59
		c131.46,63.73,224.71,176.69,264.97,302.46c2.42,7.65,4.46,14.14,4.46,14.43c0,1.13-60.54-65.76-129.38-100.84
		c-38.3-19.53-72.84-30.95-115.16-39.3c-13.27-2.61-25.28-4.84-26.63-5.03c-8.05-1.01,8.03-40.71-41.45-87.07
		c-19.53-18.38-38.1-25.71-41.35-27.6c13.08-18.31,14.99-26.07,47.1-54.54C765.37,121.01,771.15,116.85,772.76,117.27z
		 M779.15,302.92c-6.22,51.03-51.34,87.5-103.24,97.14C598.63,414.85,511.87,367.3,504,292.47c-6.86-65.14,62.67-122.7,151.95-113.8
		c6.3,0.63,27.1,3.81,31.28,6.78c1.45,1.07,5.52,3.01,9.2,4.36C751.26,210.44,784.67,256.24,779.15,302.92z M521.92,70.2
		c16.66-1.16,67.02-0.38,84.74,1.46c91.99,9.54,160.77,38.21,160.77,39.12c0,2.05-12.76,6.87-37,31.38
		c-19.4,19.61-24.11,39.41-24.5,40.19c-0.1,0.1-3.1-0.87-6.68-2.23c-8.9-3.45-8.23-1.25-22.37-4.84
		c-15.79-4.07-30.89-5.62-47.94-5.04c-38.78,1.4-58.55,12.9-64.99,15.01c-15.16-13.94-32.43-38.15-77.86-61.31
		c-53.08-27.08-95.93-27.92-95.78-27.89C410.84,89.85,450.67,75.47,521.92,70.2z M56.08,507.37
		c16.24-170.8,120.96-321.73,295.87-397.08c13.75-5.9,14.24-6.1,22.76-6.1c33.13-0.7,83.71,15.2,116.12,31.67
		c37.47,19.03,67.87,50.8,68.18,51.52c0.39,1.22-12.65,5.42-29.54,20.72c-20.53,18.88-33.22,44.16-34.86,69.44
		c-0.59,8.42-0.59,8.42-3.49,9c-29.43,5.52-94.43-6.48-208.42,45.13c-51.13,23.15-66.83,32.25-104.6,60.53
		c-56.85,42.61-93.46,80.19-114.67,117.67C54.14,525.77,53.27,537.57,56.08,507.37z M349.43,1005.46
		c-0.38,2.13-0.87,1.94-13.75-4.45c-66.38-33.2-127.54-83.08-174.9-143.73C45.56,709.18,55.83,559.01,53.56,549.11
		c7.32-14.34,12.04-41.23,59.56-89.39c40.48-41.14,92-80.37,149.92-107.89c87.96-41.62,125.74-49.17,220.14-59.95
		c5.32-0.58,9.88-1.26,10.17-1.55c0.75-0.49,1.66,12.55,5.33,25.37c18.41,64.32,85.46,86.83,85.61,86.97
		c-0.11,0.15-35.58,40.61-68.66,103.82c-10.11,19.46-26.09,46.05-40,73.6c-9.48,19.18-33.56,86.57-35.06,90.55
		c-24.46,65.54-27.34,83.14-34.86,107.99c-36.52,122.56-49.56,187.07-49.78,187.89C353.34,976.83,350.04,1003.02,349.43,1005.46z
		 M633.29,1057.76c-21.21,2.42-84.55,2.42-107.02,0c-53.92-6-104.08-19.16-149.05-37.67c-19.11-7.88-19.47-6.98-19.47-10.94
		c0-24.96,61.57-236.85,68.47-261.68c2.13-7.85,7.93-24.89,30.8-89.98c17.72-50.65,30.6-79.51,53.56-120.48
		c10.82-19.63,35.02-70.56,67.31-115.54c6.39-8.91,12.2-16.17,12.88-16.17c0.68,0,5.23,1.07,10.26,2.42
		c64.09,17.15,114.03-10.22,118.25-11.04c2.79,0,36.02,58.86,43.58,71.57c56.21,95.19,91.63,225.88,94.23,333.8
		c2.6,107.71-27.14,190.99-30.9,195.28C824.97,998.92,748.53,1044.28,633.29,1057.76z M840.84,989.87
		c-1.98,1.47,13.93-32.91,21.89-96.9c11.85-95.29-0.21-184.13-27.41-275.29c-17.63-58.79-31.57-92.59-55.3-133.94
		c-5.95-10.49-39.09-64.59-48.62-77.48l-8.43-11.52c1.98-1.71,49.31-24.39,62.47-76.32c1.26-5.03,2.32-10.27,2.32-11.43
		c0-3.49,0.97-5.13,2.71-4.74c51.52,11.37,91.8,21.19,145.29,50.7c16.73,9.23,31.82,19.13,44.25,29.2
		c18.21,14.72,50.75,43.58,59.46,52.68c10.56,11.14,27.51,31.28,29.54,35.06c0.68,1.55,2.52,9.11,3.87,16.85
		C1110.94,694.88,1011.49,890.22,840.84,989.87z"/>
</g>
</svg>
