<?xml version="1.0" encoding="utf-8"?>
<!-- Generator: Adobe Illustrator 26.0.3, SVG Export Plug-In . SVG Version: 6.00 Build 0)  -->
<svg version="1.1" id="Layer_1" xmlns="http://www.w3.org/2000/svg" xmlns:xlink="http://www.w3.org/1999/xlink" x="0px" y="0px"
	 viewBox="0 0 1133.86 1133.86" style="enable-background:new 0 0 1133.86 1133.86;" xml:space="preserve">
<style type="text/css">
	.st0{fill:url(#SVGID_1_);}
	.st1{fill:url(#SVGID_00000078751322764374868150000017205375565606753667_);}
	.st2{fill:#60CBF5;}
	.st3{fill:#231F20;}
	.st4{fill:#FFCB40;}
	.st5{fill:#FFFFFF;}
	.st6{fill:#754C28;}
	.st7{fill:#DF7B27;}
	.st8{fill:#FFCE01;}
	.st9{clip-path:url(#SVGID_00000108281349810307171150000011915642056039971987_);fill:#FFCE01;}
</style>
<g>
	
		<radialGradient id="SVGID_1_" cx="1229.8317" cy="-65.1186" r="284.5655" gradientTransform="matrix(0.943 -0.6755 0.4287 1.0312 -434.4092 1214.2549)" gradientUnits="userSpaceOnUse">
		<stop  offset="0" style="stop-color:#BBE5FA"/>
		<stop  offset="0" style="stop-color:#B4E3F9"/>
		<stop  offset="0" style="stop-color:#A5DEF8"/>
	</radialGradient>
	<path class="st0" d="M767.22,504.74c-36.13,70.65-106.53,131.74-147.06,116.56c-40.53-15.21-53.41-107.52-34.17-184.53
		c23.63-94.65,94.22-158.75,152.26-136.98C796.27,321.55,811.64,417.86,767.22,504.74z"/>
	
		<radialGradient id="SVGID_00000138555856765150231530000009622196676305806768_" cx="1570.6001" cy="259.2462" r="219.476" gradientTransform="matrix(1.0188 -1.0377 0.9569 0.5114 -993.1393 1931.0553)" gradientUnits="userSpaceOnUse">
		<stop  offset="0" style="stop-color:#BBE5FA"/>
		<stop  offset="0" style="stop-color:#B4E3F9"/>
		<stop  offset="0" style="stop-color:#A5DEF8"/>
	</radialGradient>
	<path style="fill:url(#SVGID_00000138555856765150231530000009622196676305806768_);" d="M768.63,589.04
		c-65.87,31.17-148.06,40.43-165.06,11.91c-16.98-28.52,30.3-96.4,89.07-139.46c72.24-52.95,152.9-69.09,177.23-28.24
		C894.21,474.09,849.58,550.73,768.63,589.04z"/>
	<path class="st2" d="M692.65,461.5c-58.78,43.06-106.05,110.93-89.07,139.46c7.67,12.87,28.63,18.05,55.37,16.99
		c37.8-15.71,82.05-61.93,108.27-113.2c15.58-30.46,23.79-62.09,25.41-91.25C761.85,420.13,726.34,436.81,692.65,461.5z"/>
	<path class="st3" d="M444.68,218.34c1.69-18.86,5.66-37.42,11.85-54.56c3.06-8.58,6.7-16.82,10.87-24.56
		c4.11-7.77,8.78-15.07,14.1-21.64c5.27-6.63,11.83-11.99,18.4-16.75c3.42-2.25,6.49-4.76,9.74-7.09c3.06-2.55,6.31-4.88,9.32-7.67
		c1.57-1.31,3.21-2.56,4.79-3.93l2.38-2.08l2.52-1.95c1.68-1.32,3.35-2.72,5.02-4.2c1.76-1.3,3.52-2.69,5.29-4.13
		c3.47-3.06,7.3-5.66,11.05-8.96c3.8-3.2,7.82-6.22,11.81-10.3l-0.79-3.98c-2.64-0.93-5.3-1.67-7.97-2.25
		c-2.67-0.55-5.38-1.18-8.05-1.34c-5.33-0.37-10.81-0.7-16.14-0.02c-2.68,0.28-5.38,0.59-8.06,1.03c-2.65,0.56-5.29,1.2-7.93,1.92
		c-1.32,0.35-2.63,0.73-3.95,1.11l-3.84,1.45c-2.55,1.01-5.12,2.03-7.62,3.2c-9.94,4.87-18.81,11.99-25.83,20.63
		c-6.92,8.76-12.34,18.37-17.45,27.75c-10.29,18.85-15.57,39.38-17.49,59.49c-1.73,20.18-0.82,40.09,3.95,59.29L444.68,218.34z"/>
	<path class="st3" d="M341.68,230.2c-7.89-17.21-17.84-33.37-29.39-47.45c-5.75-7.06-11.93-13.61-18.45-19.51
		c-6.47-5.95-13.31-11.27-20.51-15.69c-7.18-4.49-15.16-7.34-22.94-9.63c-3.98-0.97-7.7-2.32-11.54-3.43
		c-3.73-1.39-7.58-2.49-11.34-4.11c-1.92-0.71-3.88-1.34-5.83-2.1l-2.94-1.17l-3.02-1c-2.03-0.68-4.07-1.44-6.13-2.28
		c-2.1-0.63-4.22-1.35-6.37-2.12c-4.29-1.72-8.77-2.89-13.41-4.76c-4.65-1.74-9.44-3.25-14.57-5.76l-0.59-4.02
		c2.18-1.76,4.44-3.35,6.76-4.78c2.33-1.41,4.68-2.91,7.14-3.95c4.9-2.14,9.95-4.27,15.2-5.41c2.62-0.63,5.27-1.25,7.94-1.72
		c2.68-0.36,5.39-0.64,8.11-0.84c1.36-0.12,2.73-0.2,4.1-0.27l4.11,0.08c2.74,0.1,5.5,0.2,8.25,0.47
		c10.99,1.26,21.74,5.01,31.23,10.81c9.45,5.95,17.77,13.19,25.72,20.32c16,14.33,27.83,31.91,36.36,50.22
		c8.37,18.44,14.16,37.51,16.08,57.2L341.68,230.2z"/>
	<g>
		<path class="st3" d="M416.66,792.77c3.6,11.25-1.72,23.03-11.89,26.28c-10.18,3.26-21.33-3.25-24.93-14.5
			c-3.6-11.25,1.71-23.02,11.89-26.27C401.89,775.02,413.05,781.52,416.66,792.77z"/>
		<g>
			<g>
				<path class="st3" d="M498.27,641.34l-2.38,5.41l-2.38,5.35l-4.8,10.65c-3.22,7.09-6.48,14.16-9.78,21.2
					c-6.61,14.1-13.37,28.12-20.4,42.05c-7.04,13.92-14.3,27.76-22.23,41.36c-3.99,6.8-8.12,13.54-12.76,20.14
					c-2.34,3.3-4.78,6.56-7.65,9.76c-0.72,0.8-1.47,1.59-2.28,2.38c-0.81,0.79-1.65,1.57-2.62,2.34c-0.97,0.77-2.03,1.54-3.35,2.25
					c-0.32,0.18-0.7,0.35-1.06,0.52c-0.4,0.16-0.77,0.32-1.22,0.46c-0.85,0.29-1.88,0.5-3.01,0.55c-3.08,0.19-5.73-2.15-5.91-5.23
					c-0.19-3.08,2.15-5.73,5.23-5.91c-0.35-0.04-0.21-0.05,0.13-0.34c0.33-0.27,0.8-0.69,1.28-1.2c0.48-0.5,0.98-1.1,1.48-1.73
					c0.5-0.63,0.99-1.31,1.48-2.01c1.95-2.82,3.77-6.01,5.5-9.26c3.45-6.53,6.56-13.42,9.52-20.39
					c5.91-13.96,11.25-28.3,16.36-42.72c5.1-14.43,9.96-28.98,14.65-43.58c2.34-7.3,4.65-14.62,6.91-21.95l3.36-10.99l1.65-5.49
					l1.61-5.45l0.03-0.1c2.72-9.23,12.41-14.51,21.64-11.79c9.23,2.72,14.51,12.41,11.79,21.64
					C498.83,639.94,498.55,640.7,498.27,641.34z"/>
			</g>
		</g>
	</g>
	<polygon class="st3" points="813.02,619.76 959.5,517.36 830.56,685.21 	"/>
	<path class="st4" d="M596.15,590.2c0,0,21.71,12.48,84.99-13.11c63.29-25.59,181.25-3.46,185.93,115.68
		c5.4,137.59-278.8,282.28-357.81-12.05L596.15,590.2z"/>
	<g>
		<path class="st3" d="M541.09,760.69c8.41,14.73,17.59,27.45,27.38,38.32c39.32-26.19,67.74-54.66,88.21-82.6
			c21.95-29.96,34.79-59.31,42.25-84.64c6.71-22.8,9.64-44.03,10.54-62.32c-10.17,1.59-19.76,4.18-28.34,7.64
			c-7.19,2.91-13.83,5.32-19.98,7.31C654.75,634.22,628.27,703.35,541.09,760.69z"/>
		<path class="st3" d="M747.78,742.31c21.95-29.96,34.79-59.32,42.25-84.66c8.28-28.14,10.81-53.89,10.87-74.67
			c-14.92-7.51-31.15-12.08-47.36-14.12c3.52,50.61-8.21,166.71-169.91,245.13c14.83,12.99,30.7,22.35,47.08,28.58
			C685.43,811.82,722.59,776.67,747.78,742.31z"/>
		<path class="st3" d="M867.07,692.78c-1.32-33.66-11.69-59.57-27.3-78.85c2.29,52.4-13.51,162.36-167.61,237.92
			C770.16,859.7,870.29,774.98,867.07,692.78z"/>
	</g>
	<path class="st3" d="M599.23,570.59c23.69,30.83,8.3,65.41-25.52,91.42c-33.84,26-73.31,33.58-97,2.74
		c-23.7-30.83-15.47-76.9,18.35-102.9C528.89,535.85,575.52,539.75,599.23,570.59z"/>
	<path class="st4" d="M654.71,413.8c8.84,137.46-98.92,201.9-236.37,210.74c-137.45,8.84-234.52-42.43-243.36-179.89
		c-8.84-137.45,77.39-254.9,214.84-263.73C560.92,169.91,645.87,276.36,654.71,413.8z"/>
	<path class="st3" d="M393.28,560.31c-25.71,0-50.44-7.56-71.93-22.05l-52.6-35.48c-3.34-2.25-4.22-6.79-1.97-10.13
		s6.79-4.22,10.13-1.97l52.6,35.48c20.81,14.03,45.05,20.74,70.12,19.38c25.06-1.36,48.44-10.63,67.62-26.83l51.7-43.68
		c3.08-2.6,7.68-2.21,10.28,0.86c2.6,3.08,2.21,7.68-0.86,10.28l-51.7,43.68c-21.62,18.27-47.98,28.73-76.25,30.26
		C398.03,560.25,395.65,560.31,393.28,560.31z"/>
	<path class="st5" d="M347.93,374.8c0.93,53.92-26.23,96.51-60.59,98.72c-34.37,2.21-66.75-36.55-72.74-90.15
		c-6.47-58,20.01-110.72,59.66-113.27C313.91,267.56,346.93,316.45,347.93,374.8z"/>
	<g>
		<path class="st6" d="M337.13,358.94c2.48,38.53-15.57,71.04-40.3,72.63c-24.73,1.59-46.8-28.35-49.27-66.87
			c-2.48-38.53,15.57-71.05,40.3-72.64C312.59,290.46,334.65,320.41,337.13,358.94z"/>
		<path class="st6" d="M292.35,366.9l-32.21,25.87c0,0,11.74,47.31,53.51,27.69l-5-49.12L292.35,366.9z"/>
		<path class="st3" d="M322,359.91c1.32,20.56-8.32,37.94-21.52,38.79c-13.21,0.85-24.99-15.15-26.31-35.72
			c-1.32-20.57,8.31-37.93,21.52-38.78C308.89,323.35,320.68,339.34,322,359.91z"/>
		<path class="st5" d="M318.7,328.06c0.65,10.04-6.97,18.69-17,19.34c-10.03,0.64-18.69-6.96-19.34-17
			c-0.64-10.02,6.97-18.69,17-19.34C309.39,310.41,318.05,318.03,318.7,328.06z"/>
		<path class="st5" d="M325.14,351.53c-0.28-4.29-3.98-7.54-8.27-7.27c-4.3,0.28-7.55,3.98-7.28,8.27c0.28,4.3,3.98,7.55,8.28,7.28
			C322.16,359.53,325.41,355.82,325.14,351.53z"/>
	</g>
	<g>
		<g>
			<path class="st7" d="M683.72,833.47c-41.16-59.36-90.77-106.64-129.42-138.66c-36.43-30.18-86.78-37.21-130.13-18.27l-14.27,6.24
				c-6.7,2.93-14.51-0.01-17.62-6.63l-1.77-3.77c-4.13-13.7-11.47-24.27-22.11-30.41c-38.69-22.32-106.24,22.3-150.89,99.67
				c-44.65,77.37-49.48,158.19-10.8,180.51c15.01,8.66,34.36,7.24,55.03-2.25c3.11,2.14,5.32,5.57,5.77,9.61l1.74,15.48
				c5.29,47.01,36.57,87.09,80.93,103.53c47.06,17.44,112.81,36.74,184.81,42.68c9.75,0.8,19.48-1.83,27.48-7.45l0,0
				c73.53-51.72,120.55-133.2,128.54-222.75l0,0C691.89,851.25,689.3,841.51,683.72,833.47z"/>
			<path class="st8" d="M271.24,813.18c-16.05,9.28-33.25,16.31-51.03,21.55c-9.95,2.93-21.22,8.96-30.8,20.97
				c-23.32,29.25,26.33,49.68,43.95,51.76c17.62,2.09-8.45,39.2,8.53,80.62c16.98,41.42,53.82,65.96,75.68,47.41
				s0.32-42.49-20.67-65.52c-20.99-23.03-3.22-42.2,7.93-43.5c11.15-1.3,19.36,24.41,33.95,35.17
				c14.59,10.76,40.89-4.76,17.38-32.46c-23.52-27.7-7.41-39.42-12.27-61.17c-3.93-17.61-57.89-37.27-63.51-52.19
				c-1.28-3.39-5.31-4.82-8.46-3.03C271.7,812.92,271.47,813.05,271.24,813.18z"/>
			<g>
				<defs>
					
						<ellipse id="SVGID_00000122678524052062334580000002597279321847953074_" transform="matrix(0.4998 -0.8661 0.8661 0.4998 -533.5452 614.2616)" cx="265.07" cy="769.09" rx="110.27" ry="36.49"/>
				</defs>
				<use xlink:href="#SVGID_00000122678524052062334580000002597279321847953074_"  style="overflow:visible;fill:#5E3300;"/>
				<clipPath id="SVGID_00000180355195904330010130000014466988457202081454_">
					<use xlink:href="#SVGID_00000122678524052062334580000002597279321847953074_"  style="overflow:visible;"/>
				</clipPath>
				
					<ellipse transform="matrix(0.6193 -0.7851 0.7851 0.6193 -512.6266 530.6616)" style="clip-path:url(#SVGID_00000180355195904330010130000014466988457202081454_);fill:#FFCE01;" cx="290.95" cy="793.99" rx="202.39" ry="37.77"/>
			</g>
		</g>
	</g>
	<g>
		<path class="st3" d="M549.44,781.65c6.54,9.84,4.64,22.62-4.25,28.53c-8.9,5.91-21.41,2.71-27.95-7.13
			c-6.54-9.84-4.65-22.61,4.25-28.52C530.38,768.62,542.89,771.81,549.44,781.65z"/>
		<g>
			<g>
				<path class="st3" d="M586.52,613.67l-0.81,5.85l-0.83,5.79l-1.71,11.56c-1.16,7.7-2.36,15.39-3.61,23.07
					c-2.5,15.37-5.17,30.71-8.12,46.03c-2.97,15.32-6.17,30.61-10.07,45.86c-1.97,7.63-4.1,15.24-6.77,22.86
					c-1.35,3.81-2.8,7.62-4.69,11.48c-0.48,0.97-0.98,1.93-1.54,2.91c-0.56,0.98-1.16,1.96-1.88,2.97
					c-0.72,1.01-1.53,2.03-2.61,3.08c-0.26,0.26-0.58,0.53-0.88,0.79c-0.34,0.27-0.66,0.52-1.04,0.78c-0.74,0.51-1.67,1-2.74,1.36
					c-2.91,1.02-6.1-0.5-7.12-3.41c-1.02-2.91,0.5-6.1,3.41-7.12c-0.35,0.06-0.21,0.01,0.04-0.37c0.25-0.35,0.58-0.89,0.9-1.5
					c0.32-0.61,0.64-1.33,0.95-2.07c0.31-0.74,0.6-1.53,0.87-2.34c1.11-3.25,1.98-6.81,2.76-10.41c1.53-7.23,2.64-14.71,3.58-22.22
					c1.87-15.05,3.08-30.3,4.05-45.57c0.96-15.28,1.65-30.6,2.17-45.93c0.26-7.66,0.47-15.33,0.64-23l0.22-11.49l0.08-5.74
					l0.05-5.68l0-0.11c0.09-9.62,7.97-17.35,17.59-17.26c9.62,0.09,17.35,7.97,17.26,17.59
					C586.67,612.17,586.61,612.97,586.52,613.67z"/>
			</g>
		</g>
	</g>
	<g>
		<g>
			<path class="st3" d="M571.08,327.31c-12.57-4.47-25.66-6.89-38.59-7.03c-6.47-0.19-12.88,0.49-19.13,1.57l-4.66,0.97
				c-1.55,0.3-3.04,0.87-4.56,1.29c-3.07,0.77-5.96,2.03-8.89,3.17c-1.48,0.51-2.86,1.31-4.28,1.98c-1.41,0.71-2.83,1.37-4.22,2.11
				l-4.03,2.44c-0.67,0.41-1.35,0.8-2.01,1.23l-1.91,1.37c-5.23,3.47-9.84,7.77-14.21,12.24c-4.34,4.52-8.18,9.53-11.57,14.8
				c-1.7,2.64-3.23,5.38-4.69,8.14c-0.69,1.4-1.4,2.79-2.01,4.2c-0.63,1.37-1.24,2.91-1.66,4.08l-10.08-5.17
				c0.61-0.8,1.08-1.32,1.6-1.93c0.51-0.61,1.03-1.13,1.55-1.68c1.03-1.11,2.12-2.13,3.21-3.13c1.07-1.03,2.19-1.99,3.34-2.91
				c1.15-0.91,2.24-1.92,3.45-2.73c2.37-1.71,4.74-3.44,7.28-4.87c1.25-0.74,2.49-1.52,3.75-2.23l3.89-1.95
				c10.43-5.12,21.65-8.27,32.95-9.83l8.51-0.78c1.41-0.17,2.83-0.16,4.25-0.13l4.25,0.04c5.67-0.15,11.27,0.67,16.83,1.31
				c2.8,0.22,5.52,0.98,8.26,1.5c2.74,0.56,5.46,1.16,8.17,1.78c5.35,1.57,10.62,3.34,15.84,5.11c-5.52-0.66-10.95-1.5-16.36-2.22
				c-2.74-0.16-5.47-0.34-8.18-0.56c-2.72-0.16-5.41-0.55-8.13-0.4c-5.43,0.14-10.82-0.12-16.16,0.59l-4,0.35
				c-1.33,0.1-2.66,0.22-3.97,0.51l-7.86,1.37c-10.35,2.3-20.37,5.77-29.51,10.77l-3.42,1.87c-1.1,0.68-2.18,1.42-3.26,2.12
				c-2.22,1.36-4.24,2.97-6.31,4.51c-1.06,0.74-1.97,1.65-2.96,2.46c-0.99,0.82-1.94,1.67-2.83,2.58c-0.92,0.88-1.83,1.76-2.64,2.69
				c-0.42,0.46-0.87,0.91-1.24,1.36c-0.37,0.44-0.81,0.95-1.03,1.25l-0.08,0.11c-1.88,2.54-5.47,3.07-8,1.19
				c-2.06-1.52-2.79-4.17-2-6.47c0.68-1.97,1.3-3.52,2.04-5.18c0.7-1.65,1.49-3.22,2.26-4.81c1.6-3.14,3.37-6.18,5.29-9.13
				c3.82-5.89,8.19-11.45,13.2-16.4c4.99-4.95,10.4-9.53,16.4-13.23l2.21-1.44c0.76-0.44,1.55-0.84,2.32-1.26l4.65-2.48
				c1.59-0.75,3.22-1.41,4.82-2.11c1.61-0.68,3.2-1.42,4.9-1.9c3.35-1.07,6.66-2.23,10.11-2.86c1.72-0.33,3.4-0.81,5.14-1.01
				l5.18-0.65c6.92-0.58,13.87-0.61,20.67,0.36C546.48,316.07,559.64,320.3,571.08,327.31z"/>
		</g>
	</g>
</g>
</svg>
