<?xml version="1.0" encoding="utf-8"?>
<!-- Generator: Adobe Illustrator 26.0.3, SVG Export Plug-In . SVG Version: 6.00 Build 0)  -->
<svg version="1.1" id="Layer_1" xmlns="http://www.w3.org/2000/svg" xmlns:xlink="http://www.w3.org/1999/xlink" x="0px" y="0px"
	 viewBox="0 0 1133.86 1133.86" style="enable-background:new 0 0 1133.86 1133.86;" xml:space="preserve">
<style type="text/css">
	.st0{opacity:0.3;fill:#C7E3FF;}
	.st1{fill:#32A94D;}
	.st2{fill:#A67568;}
	.st3{opacity:0.7;}
	.st4{fill:#8D6056;}
	.st5{fill:#005650;}
	.st6{fill:#003E3A;}
	.st7{fill:#004B46;}
	.st8{fill:#00635B;}
	.st9{fill:#A8BDD4;}
	.st10{fill:#145284;}
	.st11{fill:#3A6DA7;}
	.st12{fill:#50B7E1;}
	.st13{fill:#697894;}
	.st14{opacity:0.5;clip-path:url(#SVGID_00000085222733434150025380000017504312487542515350_);}
	.st15{fill:none;stroke:#FFFFFF;stroke-width:1.2333;stroke-miterlimit:10;}
	.st16{fill:#B8D4E2;}
	.st17{clip-path:url(#SVGID_00000145756300678537877280000015298371496242740353_);}
	.st18{opacity:0.5;fill:#B8D4E2;}
	.st19{opacity:0.5;clip-path:url(#SVGID_00000103228125642455108550000003513390091671216282_);}
	.st20{clip-path:url(#SVGID_00000126283470895638192110000000995415131213848218_);}
	.st21{clip-path:url(#SVGID_00000012455216693958038910000008385604034247455655_);}
	.st22{opacity:0.5;fill:#A8BDD4;}
	.st23{fill:#D0E1EA;}
	.st24{clip-path:url(#SVGID_00000037694127842752138400000013273816727356152480_);}
	.st25{opacity:0.5;fill:#D0E1EA;}
	.st26{clip-path:url(#SVGID_00000054964130905408833300000013240671697158380447_);}
	.st27{clip-path:url(#SVGID_00000032641681259578432670000009794233948168370338_);}
	.st28{fill:#683D30;}
	.st29{clip-path:url(#SVGID_00000170992138664008649190000016258394406417770686_);}
	.st30{fill:#432923;}
	.st31{clip-path:url(#SVGID_00000170992138664008649190000016258394406417770686_);fill:#432923;}
	.st32{opacity:0.5;fill:#F7C3D3;}
	.st33{clip-path:url(#SVGID_00000053533266440712114770000013292995751369809076_);}
	.st34{clip-path:url(#SVGID_00000059302581209045903230000016371075070245178553_);}
	.st35{clip-path:url(#SVGID_00000007422715243085411940000003772373320837789587_);}
	.st36{clip-path:url(#SVGID_00000078040742630497337740000007671368928493337735_);}
</style>
<g>
	<g>
		<path class="st0" d="M375.19,483.35c-14.9-12.19-39.27-14.9-56.88-4.06c4.06-39.28-48.76-62.3-75.84-32.5
			c0-62.3-106.99-58.24-109.7,2.71c-27.09-12.19-35.22,18.96-39.28,35.21L375.19,483.35z"/>
		<path class="st0" d="M737.64,620.13c14.9-12.19,39.28-14.9,56.88-4.06c-4.06-39.28,48.76-62.3,75.84-32.5
			c0-62.3,106.99-58.24,109.7,2.71c27.09-12.19,35.21,18.96,39.28,35.21L737.64,620.13z"/>
		<path class="st0" d="M361.3,151.13c-9.05-7.4-23.85-9.05-34.54-2.47c2.47-23.86-29.61-37.84-46.07-19.74
			c0-37.84-64.99-35.37-66.63,1.65c-16.45-7.4-21.39,11.52-23.86,21.38L361.3,151.13z"/>
		<path class="st0" d="M771.06,283.2c6.16-6.93,15.39-10.01,24.63-7.7c-0.77-39.25,37.71-54.64,68.49-43.87
			c8.47-31.55,23.09-48.48,56.96-50.02c27.7-0.77,48.48,23.09,51.56,49.26c19.24-17.7,24.63,13.85,24.63,26.17
			c13.08-3.85,18.47,13.85,19.24,26.17H771.06z"/>
	</g>
	<g>
		<g>
			<path class="st1" d="M1045.26,892.24c0-42.35-217.55-76.68-485.91-76.68c-268.36,0-485.9,34.33-485.9,76.68
				c0,27.09,89.03,50.9,223.43,64.54c-36.93,8.25-58.63,18.32-58.63,29.2c0,17.31,55.02,32.59,138.95,41.73l120.2-148.33
				l124.72,2.29l103.3,147.68c92.93-8.88,155.04-24.98,155.04-43.38c0-10.87-21.7-20.94-58.63-29.2
				C956.24,943.14,1045.26,919.33,1045.26,892.24z"/>
		</g>
		<path class="st2" d="M497.41,879.37L377.2,1027.7c51.76,5.64,114.51,8.94,182.15,8.94c60.78,0,117.61-2.67,166.07-7.29
			l-103.3-147.68L497.41,879.37z"/>
		<g class="st3">
			<ellipse class="st4" cx="585.27" cy="899.52" rx="8.32" ry="3.08"/>
			<path class="st4" d="M612.3,915.92c0,3.61-7.91,6.53-17.67,6.53c-9.76,0-17.67-2.92-17.67-6.53c0-3.61,7.91-6.53,17.67-6.53
				C604.38,909.39,612.3,912.31,612.3,915.92z"/>
			<path class="st4" d="M576.95,924.19c0,2.38-5.74,4.32-12.81,4.32c-7.08,0-12.82-1.93-12.82-4.32c0-2.38,5.74-4.32,12.82-4.32
				C571.21,919.87,576.95,921.81,576.95,924.19z"/>
			<path class="st4" d="M568.32,909.39c0,0-2.76,0-6.17,0c-3.41,0-6.17,0-6.17,0s2.76,0,6.17,0
				C565.55,909.39,568.32,909.39,568.32,909.39z"/>
			<ellipse class="st4" cx="514.36" cy="940.84" rx="18.81" ry="7.4"/>
			<path class="st4" d="M618.26,962.38c0,2.41-5.52,4.36-12.33,4.36s-12.33-1.96-12.33-4.36c0-2.41,5.52-4.37,12.33-4.37
				S618.26,959.96,618.26,962.38z"/>
			<path class="st4" d="M652.63,977.53c0,2.9-5.07,5.24-11.32,5.24c-6.25,0-11.32-2.35-11.32-5.24s5.07-5.24,11.32-5.24
				C647.56,972.29,652.63,974.64,652.63,977.53z"/>
			<ellipse class="st4" cx="472.37" cy="978.76" rx="16.4" ry="4.01"/>
			<path class="st4" d="M500.32,996.96c0,2.38-3.97,4.32-8.87,4.32c-4.9,0-8.87-1.93-8.87-4.32c0-2.38,3.97-4.32,8.87-4.32
				C496.35,992.64,500.32,994.57,500.32,996.96z"/>
			<path class="st4" d="M536.87,964.56c0,1.2-2.21,2.18-4.93,2.18s-4.93-0.98-4.93-2.18c0-1.21,2.21-2.18,4.93-2.18
				S536.87,963.35,536.87,964.56z"/>
			<path class="st4" d="M518.98,890.29c0,0-1.66,0-3.7,0c-2.04,0-3.7,0-3.7,0s1.66,0,3.7,0
				C517.33,890.29,518.98,890.29,518.98,890.29z"/>
			<ellipse class="st4" cx="576.79" cy="993.26" rx="8.48" ry="3.7"/>
			<path class="st4" d="M623.2,1004.66c0,1.87-2.44,3.39-5.45,3.39c-3.01,0-5.45-1.52-5.45-3.39s2.44-3.39,5.45-3.39
				C620.76,1001.27,623.2,1002.79,623.2,1004.66z"/>
			<path class="st4" d="M527,892.13c0,1.02-2.62,1.85-5.86,1.85s-5.86-0.83-5.86-1.85c0-1.02,2.62-1.84,5.86-1.84
				S527,891.11,527,892.13z"/>
			<ellipse class="st4" cx="425.73" cy="1006.36" rx="11.24" ry="1.7"/>
			<path class="st4" d="M515.28,895.21c0,0.68-2.43,1.23-5.43,1.23c-3,0-5.43-0.55-5.43-1.23c0-0.68,2.43-1.23,5.43-1.23
				C512.85,893.97,515.28,894.53,515.28,895.21z"/>
			<ellipse class="st4" cx="557.05" cy="885.11" rx="5.1" ry="1.72"/>
			<ellipse class="st4" cx="670.37" cy="1006.21" rx="10.79" ry="4.93"/>
		</g>
	</g>
	<g>
		<g>
			<g>
				<g>
					<path class="st5" d="M962.27,795.44c-4.95,9.45-12.37,17.99-19.38,25.64c-12.37,13.49-24.33,28.34-39.17,37.78
						c10.72,5.4,30.1-10.8,38.76-16.19c-2.48,8.54-12.79,14.39-14.44,23.39c6.19-2.24,12.79-4.95,18.97-8.09
						c6.19-3.15,12.37-9,18.56-11.25c0,9.9-10.72,17.1-15.67,24.28c11.54,1.8,21.03-13.03,29.27-19.34
						c1.65,6.75,0.41,15.29,3.3,22.49c3.71-7.65,7.01-16.64,11.14-24.29c3.3,8.1,5.36,18.89,11.96,24.74
						c0.82-8.54,3.3-15.74,6.6-23.84c5.36,8.1,8.25,16.19,17.32,20.23c-3.3-4.94-2.06-12.59-2.06-18.43
						c9.07,6.74,16.08,13.94,26.8,18.43c-4.54-5.84-9.89-13.49-12.37-20.23c9.07,1.8,18.55,7.65,28.04,10.35
						c-2.48-4.5-10.31-9-14.85-12.15c11.13,6.3,23.92,6.75,36.29,8.1c-23.09-11.69-44.53-30.13-55.67-55.77
						c-4.13-9.89-7.84-20.69-11.96-30.13c-4.95-10.8-16.08-10.34-25.56-8.09c0,0,0,0-0.41,0L962.27,795.44z"/>
				</g>
				<g>
					<path class="st6" d="M975.47,756.31c-10.31,23.39-31.34,45.87-50.31,60.72c11.96,2.7,25.98-7.2,35.47-13.04
						c-4.95,8.99-10.31,19.34-17.73,27.43c18.97-5.4,27.21-21.13,38.35-36.88c0.41,8.99-5.78,17.09-7.84,25.64
						c7.84-7.65,14.02-13.05,19.8-22.94c0,8.99-0.41,17.09-2.47,26.09c10.72-4.95,13.19-26.99,16.49-37.78
						c-0.82,12.14,7.01,24.29,11.96,34.63c0.41-12.6,0-25.18,1.65-37.33c0-0.45,0-0.45,0,0c2.06,12.6,12.37,19.34,18.15,29.68
						c-1.24-7.64-1.24-16.19-3.3-23.39c9.49,8.54,20.62,14.84,29.69,22.94c-11.13-7.65-19.79-26.53-25.97-38.68
						c-5.78-10.79-8.66-22.93-14.43-33.28c-5.77-10.34-9.48-17.09-21.44-17.99c-10.72-0.91-16.91,2.25-21.86,12.59L975.47,756.31z"
						/>
				</g>
				<g>
					<path class="st5" d="M989.9,702.79c-4.95,8.55-9.07,18.44-14.02,26.99c-9.49,16.64-23.92,24.73-36.7,37.33
						c11.96-1.35,23.92-8.54,32.16-17.54c-5.77,10.79-11.13,20.24-19.38,28.78c18.97-4.49,33.4-24.28,43.29-40.93
						c-2.47,10.35-3.71,29.68,0.83,40.03c0.82-14.39,10.31-27.43,12.37-41.37c-0.41,9.89,7.42,27.43,13.19,35.53
						c-3.3-9.89-4.95-25.64-4.53-35.98c0-0.45,0-0.45,0-0.45c1.65,16.64,25.98,25.64,37.52,31.48
						c-16.08-12.15-29.28-36.43-34.22-56.67c-1.65-7.2-2.89-16.64-9.07-20.69c-4.54-3.15-12.78-4.05-16.5,0.45L989.9,702.79z"/>
				</g>
				<g>
					<path class="st6" d="M1005.16,642.52c-2.06,9.45-4.95,17.99-9.07,26.99c-7.01,16.19-14.02,26.09-25.98,38.23
						c4.54,0.9,12.37-4.05,15.67-7.64c-6.19,6.74-9.07,16.19-15.67,22.48c12.37-5.4,22.68-18.44,30.93-29.23
						c-1.65,8.09,0.82,21.13,4.12,28.78c1.65-8.55,4.12-17.1,5.78-25.18c7.42,9.44,16.9,13.94,25.56,21.13
						c-2.06-9.44-9.48-17.54-14.43-25.63c-3.71-6.3-6.18-13.49-9.07-20.24c-3.71-9.89-6.19-22.94-6.19-33.73L1005.16,642.52z"/>
				</g>
			</g>
			<g>
				<g>
					<path class="st7" d="M857.37,722.55c3.02,20.95-19.33,67.33-29,85.28c-3.62,7.48-25.98,38.9-22.96,46.38
						c4.83,11.97,49.54,5.99,59.2,7.48c33.23,5.98,66.46,5.24,99.68,5.98c11.48,0,20.54,5.24,31.42,6.74c8.46,1.5,16.92,0,25.37,1.5
						c-8.46-20.95-21.14-40.4-30.21-61.35c-9.06-21.7-16.91-43.39-26.58-64.34c-7.25-16.46-15.71-41.14-30.81-47.13
						c-15.71-5.98-27.79,6.73-42.29,3.74c0,0-0.61,0-1.21,0L857.37,722.55z"/>
				</g>
				<g>
					<path class="st8" d="M860.39,678.41c-1.21,11.22-5.44,22.44-9.67,32.92c-7.25,20.94-14.5,43.39-25.97,62.09
						c13.29-1.49,25.37-20.2,32.02-32.91c-3.02,14.96-8.46,31.42-14.5,44.89c16.32-11.22,24.77-29.93,33.84-48.63
						c0,14.96-1.21,31.42-4.23,45.64c10.27-9.73,15.71-29.92,19.34-44.89c0.6,14.97-0.61,31.43,1.81,46.39
						c6.64-13.47,8.46-30.68,10.27-46.39c-0.6,16.46,9.67,32.92,17.52,44.14c0-17.95-3.02-38.15-0.6-56.11
						c3.02,16.46,15.71,31.42,24.77,43.39c-1.81-16.46-3.02-34.41-3.02-48.63c6.04,15.71,22.35,24.69,27.19,38.9
						c-9.06-11.97-6.65-33.67-12.08-47.88c9.06,19.45,24.17,37.4,40.48,46.38c-21.14-19.45-73.7-204.24-109.35-151.12
						c-4.23,5.99-7.85,12.72-10.88,19.45L860.39,678.41z"/>
				</g>
				<g>
					<path class="st7" d="M874.89,614.82c-10.27,31.42-22.35,60.6-36.85,88.28c16.92-8.98,31.42-23.19,42.29-41.89
						c-3.03,15.71-11.48,35.16-19.94,47.88c13.29-7.48,28.4-24.69,33.23-41.14c0,15.71-9.06,37.4-4.83,52.36
						c10.87-11.22,18.12-41.15,18.12-58.35c1.21,12.72,3.02,26.18,6.65,38.9c3.63-16.46,2.42-33.67,3.63-50.87
						c7.25,22.44,12.08,38.9,25.37,57.6c-0.6-14.96-2.42-33.67-4.83-47.88c2.42,14.21,13.9,29.18,21.75,39.65
						c0-14.21-3.02-32.17-4.83-47.13c6.04,14.96,20.54,35.16,33.23,41.14c-18.13-27.68-33.83-58.35-50.15-87.53
						c-7.85-13.47-11.48-32.91-24.77-39.65c-10.27-5.24-24.17-2.24-28.4,12.72L874.89,614.82z"/>
				</g>
				<g>
					<path class="st8" d="M886.37,516.82c1.82,32.17-23.56,78.55-41.68,98.75c13.9-2.99,24.77-20.2,32.62-32.91
						c-6.04,18.7-13.29,37.4-22.96,53.11c19.33-11.22,33.23-32.92,39.87-57.6c0.6,17.2,1.21,34.41,4.23,50.12
						c6.04-15.71,3.63-33.67,7.86-50.12c-1.21,15.71,8.46,34.41,15.71,46.38c0.6-15.71-4.23-32.91-1.81-48.63
						c4.23,20.95,25.98,29.18,39.27,39.65c-6.04-12.72-15.71-23.93-19.94-38.15c6.05,5.99,13.29,9.73,19.33,14.96
						c-3.62-10.47-15.1-19.45-21.15-29.18c-7.25-10.47-10.87-23.19-15.71-35.91c-5.44-15.71-16.92-46.39-32.63-26.18L886.37,516.82z
						"/>
				</g>
				<g>
					<path class="st7" d="M904.61,438.85c-2.42,12.72-4.23,25.44-8.46,37.41c-7.25,20.95-19.94,32.91-30.21,50.87
						c7.25-2.24,16.92-5.99,21.75-13.47c-6.04,14.21-12.69,29.92-21.15,42.64c16.92-8.98,21.15-25.44,30.81-41.9
						c-0.6,14.22,0.6,26.18,1.21,40.4c7.25-5.24,8.46-25.43,9.66-35.16c1.82,8.98,6.65,21.7,12.09,28.43
						c0-12.72-1.81-25.43-2.42-38.16c6.65,15.71,20.54,19.45,31.42,27.68c-11.48-17.21-28.4-31.42-36.25-52.37
						c-4.83-12.72-6.65-27.68-6.65-41.9L904.61,438.85z"/>
				</g>
			</g>
		</g>
		<g>
			<g>
				<g>
					<path class="st5" d="M171.59,807.62c4.95,9.44,12.37,17.99,19.38,25.64c12.37,13.49,24.33,28.34,39.17,37.78
						c-10.72,5.4-30.1-10.8-38.76-16.19c2.48,8.54,12.79,6.99,14.44,15.99c-6.18-2.25-12.79,2.45-18.97-0.69
						c-6.19-3.15-12.37-9-18.56-11.25c0,9.9,10.72,4.76,15.67,11.95c-11.54,1.8-21.03-0.7-29.27-7c-1.65,6.75-0.41,2.96-3.3,10.16
						c-3.71-7.65-7.01-4.31-11.14-11.96c-3.3,8.1-5.36,6.56-11.96,12.4c-0.82-8.54-3.3-3.4-6.6-11.5
						c-5.36,8.1-8.25,16.19-17.32,20.23c3.3-4.94,2.06-12.59,2.06-18.43c-9.07,6.74-16.08,13.94-26.8,18.43
						c4.54-5.84,9.9-13.49,12.37-20.23c-9.07,1.8-18.55,7.65-28.04,10.35c2.48-4.5,10.31-9,14.85-12.15
						c-11.13,6.3-23.92,6.75-36.29,8.1c23.09-11.69,44.53-30.13,55.67-55.77c4.13-9.89,7.83-20.69,11.96-30.13
						c4.95-10.8,16.08-10.34,25.56-8.09c0,0,0,0,0.41,0L171.59,807.62z"/>
				</g>
				<g>
					<path class="st6" d="M158.39,768.49c10.31,23.39,31.34,45.87,50.31,60.72c-11.96,2.7-25.98-7.2-35.46-13.04
						c4.95,8.99,10.31,19.34,17.73,27.43c-18.97-5.4-27.22-21.13-38.35-36.88c-0.41,8.99,5.78,17.09,7.84,25.64
						c-7.84-7.65-14.02-13.05-19.8-22.93c0,8.99,0.41,17.09,2.47,26.09c-10.72-4.95-13.19-26.99-16.49-37.78
						c0.82,12.14-7.01,24.29-11.96,34.63c-0.41-12.6,0-25.18-1.65-37.33c0-0.45,0-0.45,0,0c-2.06,12.6-12.37,19.34-18.14,29.68
						c1.24-7.64,1.24-16.19,3.3-23.39c-9.48,8.54-20.62,14.84-29.69,22.94c11.13-7.65,19.79-26.53,25.97-38.68
						c5.78-10.79,8.66-22.93,14.43-33.28c5.78-10.34,9.49-17.09,21.44-17.99c10.72-0.91,16.91,2.25,21.86,12.59L158.39,768.49z"/>
				</g>
				<g>
					<path class="st5" d="M143.96,714.97c4.95,8.54,9.07,18.43,14.02,26.99c9.49,16.64,23.92,24.73,36.7,37.33
						c-11.96-1.35-23.92-8.54-32.16-17.54c5.77,10.79,11.13,20.24,19.38,28.78c-18.97-4.49-33.4-24.28-43.29-40.93
						c2.47,10.35,3.71,29.69-0.83,40.03c-0.82-14.39-10.31-27.43-12.37-41.37c0.41,9.89-7.42,27.43-13.19,35.53
						c3.3-9.89,4.95-25.64,4.54-35.98c0-0.45,0-0.45,0-0.45c-1.65,16.64-25.98,25.64-37.53,31.48
						c16.08-12.15,29.28-36.43,34.22-56.67c1.65-7.2,2.89-16.64,9.07-20.69c4.54-3.15,12.78-4.05,16.49,0.45L143.96,714.97z"/>
				</g>
				<g>
					<path class="st6" d="M128.7,654.7c2.06,9.45,4.95,17.99,9.07,26.99c7.01,16.19,14.02,26.09,25.98,38.23
						c-4.53,0.9-12.37-4.05-15.67-7.64c6.19,6.74,9.07,16.19,15.67,22.48c-12.37-5.4-22.68-18.44-30.93-29.23
						c1.65,8.09-0.82,21.14-4.12,28.78c-1.65-8.55-4.12-17.1-5.78-25.18c-7.42,9.44-16.9,13.94-25.56,21.13
						c2.06-9.44,9.48-17.54,14.43-25.63c3.71-6.3,6.19-13.49,9.07-20.24c3.71-9.89,6.19-22.94,6.19-33.73L128.7,654.7z"/>
				</g>
			</g>
			<g>
				<g>
					<path class="st7" d="M276.49,733.11c-3.02,18.54,19.33,59.6,29,75.49c3.62,6.62,25.98,34.44,22.96,41.06
						c-4.83,10.59-49.54,5.3-59.21,6.62c-33.23,5.3-66.46,4.64-99.69,5.3c-11.48,0-20.54,4.63-31.41,5.96
						c-8.46,1.32-16.92,0-25.38,1.32c8.46-18.54,21.14-35.76,30.21-54.3c9.06-19.2,16.92-38.41,26.58-56.95
						c7.25-14.57,15.71-36.42,30.81-41.72c15.71-5.3,27.79,5.96,42.29,3.31c0,0,0.61,0,1.21,0L276.49,733.11z"/>
				</g>
				<g>
					<path class="st8" d="M273.47,690.97c1.21,11.43,5.44,22.85,9.67,33.52c7.25,21.33,14.5,44.18,25.98,63.22
						c-13.29-1.52-25.37-20.57-32.02-33.51c3.02,15.24,8.46,31.99,14.5,45.7c-16.31-11.43-24.77-30.47-33.83-49.52
						c0,15.23,1.21,32,4.23,46.47c-10.27-9.9-15.71-30.47-19.33-45.71c-0.6,15.24,0.61,32-1.81,47.23
						c-6.64-13.71-8.46-31.23-10.27-47.23c0.6,16.76-9.67,33.52-17.52,44.95c0-18.28,3.02-38.85,0.6-57.13
						c-3.02,16.76-15.71,31.99-24.77,44.18c1.81-16.76,3.02-35.04,3.02-49.52c-6.04,16-22.35,25.14-27.19,39.61
						c9.06-12.19,6.65-34.28,12.08-48.75c-9.06,19.81-24.16,38.09-40.48,47.23c21.14-19.8,73.7-207.96,109.35-153.87
						c4.23,6.1,7.85,12.95,10.88,19.81L273.47,690.97z"/>
				</g>
				<g>
					<path class="st7" d="M258.97,626.22c10.27,31.99,22.35,61.7,36.85,89.88c-16.92-9.14-31.42-23.61-42.29-42.66
						c3.02,16,11.48,35.8,19.94,48.75c-13.29-7.62-28.4-25.14-33.23-41.89c0,16,9.06,38.09,4.83,53.32
						c-10.87-11.42-18.12-41.89-18.12-59.42c-1.21,12.95-3.02,26.66-6.64,39.61c-3.63-16.76-2.42-34.28-3.63-51.8
						c-7.25,22.85-12.08,39.61-25.37,58.65c0.6-15.23,2.42-34.28,4.83-48.75c-2.42,14.47-13.9,29.71-21.75,40.37
						c0-14.47,3.02-32.76,4.83-47.99c-6.04,15.24-20.54,35.8-33.23,41.9c18.13-28.18,33.83-59.42,50.15-89.12
						c7.85-13.71,11.48-33.51,24.77-40.37c10.27-5.33,24.17-2.29,28.4,12.95L258.97,626.22z"/>
				</g>
				<g>
					<path class="st8" d="M247.49,526.43c-1.81,32.76,23.56,79.98,41.69,100.55c-13.9-3.04-24.77-20.57-32.62-33.51
						c6.04,19.04,13.29,38.09,22.96,54.08c-19.33-11.43-33.23-33.52-39.88-58.65c-0.6,17.52-1.21,35.04-4.23,51.04
						c-6.04-15.99-3.63-34.28-7.85-51.04c1.21,16-8.46,35.04-15.71,47.22c-0.6-15.99,4.23-33.51,1.81-49.51
						c-4.23,21.33-25.98,29.71-39.27,40.37c6.04-12.95,15.71-24.37,19.94-38.85c-6.04,6.1-13.29,9.91-19.33,15.23
						c3.62-10.66,15.1-19.8,21.14-29.71c7.25-10.66,10.87-23.61,15.71-36.56c5.44-16,16.92-47.23,32.62-26.66L247.49,526.43z"/>
				</g>
				<g>
					<path class="st7" d="M229.25,447.04c2.42,12.95,4.23,25.9,8.46,38.09c7.25,21.33,19.94,33.51,30.21,51.8
						c-7.25-2.29-16.92-6.1-21.75-13.71c6.04,14.47,12.69,30.47,21.15,43.42c-16.92-9.14-21.15-25.9-30.81-42.66
						c0.6,14.47-0.6,26.66-1.21,41.14c-7.25-5.34-8.46-25.9-9.66-35.8c-1.81,9.14-6.65,22.09-12.09,28.95
						c0-12.95,1.81-25.9,2.42-38.85c-6.65,15.99-20.54,19.8-31.41,28.19c11.48-17.52,28.39-31.99,36.25-53.32
						c4.83-12.95,6.64-28.19,6.64-42.66L229.25,447.04z"/>
				</g>
			</g>
		</g>
	</g>
	<g>
		<g>
			<path class="st9" d="M633.5,402.98v8.26h-8.92v-8.26h-9.52v8.26h-8.92v-8.26h-9.52v8.26h-8.92v-8.26h-9.52v8.26h-8.91v-8.26
				h-2.07h-5.8h-2.08v8.26h-8.91v-8.26h-9.52v8.26h-8.91v-8.26h-9.52v8.26h-8.91v-8.26h-9.52v8.26h-8.91v-8.26h-8.4v132.94
				c0,0,8.43-79.61,77.58-81.82c69.16,2.2,77.59,81.82,77.59,81.82V402.98H633.5z"/>
			<g>
				<path class="st10" d="M507.97,349.28c-59.35-86.47-86.36-171.41-86.36-171.41c-0.14,0.37-0.28,0.75-0.42,1.13l0.35,186.93
					c1.64,0.02,3.25,0.05,4.93,0.05C472.5,365.98,496.85,360.17,507.97,349.28z"/>
				<path class="st11" d="M335.12,349.37c14.03,9.01,42.91,16.06,86.41,16.56L421.18,179C397.67,243.01,344.15,335.32,335.12,349.37
					z"/>
			</g>
			<g>
				<path class="st10" d="M793.56,349.28c-59.35-86.47-86.37-171.41-86.37-171.41c-0.13,0.37-0.28,0.75-0.42,1.13l0.35,186.93
					c1.64,0.02,3.25,0.05,4.93,0.05C758.1,365.98,782.44,360.17,793.56,349.28z"/>
				<path class="st11" d="M620.71,349.37c14.03,9.01,42.91,16.06,86.42,16.56L706.78,179C683.26,243.01,629.75,335.32,620.71,349.37
					z"/>
			</g>
			<g>
				<g>
					<g>
						<g>
							<path class="st12" d="M421.16,147.06c2.73-3.82,8.72-6,13.63-7.09c6-1.09,14.72-1.09,19.08,3.27
								c4.36,4.91,1.64,11.45,7.09,15.81c10.9,9.81,30.52-4.91,41.97-8.72c6.54-1.63,14.72-3.27,21.8-3.27
								c6,0.54,9.81,3.27,15.81,4.9l-15.26-19.16l21.26-17.21c-11.99,0-21.8-1.24-34.34,2.03c-6,1.64-11.99,3.82-17.44,6.54
								c-4.91,2.18-11.99,8.72-16.35,3.81c-1.79-2.01-0.82-5.82-1.94-8.13c-0.99-2.04-3.4-3.42-5.35-4.38
								c-7.11-3.48-16.76-4.34-24.6-4.46c-4.31-0.06-8.64,0.3-12.88,1.09c-1.27,0.24-11.88,2.3-11.91,3.54L421.16,147.06z"/>
						</g>
						<g>
							<rect x="420.12" y="107.49" class="st13" width="2.84" height="80.92"/>
							<path class="st13" d="M425.65,107.78c0,0.82-1.85,1.48-4.13,1.48c-2.28,0-4.13-0.66-4.13-1.48c0-0.82,1.85-1.49,4.13-1.49
								C423.8,106.29,425.65,106.95,425.65,107.78z"/>
							<path class="st13" d="M427.2,102.35c0,2.84-2.54,5.14-5.68,5.14c-3.14,0-5.68-2.3-5.68-5.14c0-2.84,2.54-5.14,5.68-5.14
								C424.66,97.22,427.2,99.52,427.2,102.35z"/>
						</g>
					</g>
					<g>
						<defs>
							<path id="SVGID_1_" d="M421.61,177.87c-0.14,0.37-0.28,0.75-0.42,1.13c-23.52,64.01-77.03,156.33-86.06,170.37
								c14.03,9.01,42.91,16.06,86.41,16.56c1.64,0.02,3.25,0.05,4.93,0.05c46.04,0,70.39-5.81,81.51-16.7
								C448.62,262.81,421.61,177.87,421.61,177.87z"/>
						</defs>
						<clipPath id="SVGID_00000081617024134138285900000011898134977423159204_">
							<use xlink:href="#SVGID_1_"  style="overflow:visible;"/>
						</clipPath>
						<g style="opacity:0.5;clip-path:url(#SVGID_00000081617024134138285900000011898134977423159204_);">
							<g>
								<line class="st15" x1="295.82" y1="199.39" x2="543.79" y2="199.39"/>
								<line class="st15" x1="295.82" y1="211.91" x2="543.79" y2="211.91"/>
								<line class="st15" x1="295.82" y1="236.94" x2="543.79" y2="236.94"/>
								<line class="st15" x1="295.82" y1="224.43" x2="543.79" y2="224.43"/>
								<line class="st15" x1="295.82" y1="249.46" x2="543.79" y2="249.46"/>
								<line class="st15" x1="295.82" y1="261.98" x2="543.79" y2="261.98"/>
								<line class="st15" x1="295.82" y1="274.5" x2="543.79" y2="274.5"/>
								<line class="st15" x1="295.82" y1="287.02" x2="543.79" y2="287.02"/>
								<line class="st15" x1="295.82" y1="299.54" x2="543.79" y2="299.54"/>
								<line class="st15" x1="295.82" y1="312.05" x2="543.79" y2="312.05"/>
								<line class="st15" x1="295.82" y1="324.57" x2="543.79" y2="324.57"/>
								<line class="st15" x1="295.82" y1="337.09" x2="543.79" y2="337.09"/>
							</g>
							<g>
								<line class="st15" x1="416.98" y1="199.39" x2="416.98" y2="211.91"/>
								<line class="st15" x1="416.98" y1="224.43" x2="416.98" y2="236.94"/>
								<line class="st15" x1="416.98" y1="249.46" x2="416.98" y2="261.98"/>
								<line class="st15" x1="416.98" y1="274.5" x2="416.98" y2="287.02"/>
								<line class="st15" x1="416.98" y1="299.54" x2="416.98" y2="312.05"/>
								<line class="st15" x1="369.02" y1="299.54" x2="369.02" y2="312.05"/>
								<line class="st15" x1="393" y1="211.91" x2="393" y2="224.43"/>
								<line class="st15" x1="393" y1="236.94" x2="393" y2="249.46"/>
								<line class="st15" x1="393" y1="261.98" x2="393" y2="274.5"/>
								<line class="st15" x1="393" y1="287.02" x2="393" y2="299.54"/>
								<line class="st15" x1="393" y1="312.05" x2="393" y2="324.57"/>
								<line class="st15" x1="416.98" y1="324.57" x2="416.98" y2="337.09"/>
							</g>
							<g>
								<line class="st15" x1="430.06" y1="211.91" x2="430.06" y2="224.43"/>
								<line class="st15" x1="430.06" y1="236.94" x2="430.06" y2="249.46"/>
								<line class="st15" x1="430.06" y1="261.98" x2="430.06" y2="274.5"/>
								<line class="st15" x1="430.06" y1="287.02" x2="430.06" y2="299.54"/>
								<line class="st15" x1="430.06" y1="312.05" x2="430.06" y2="324.57"/>
								<line class="st15" x1="478.03" y1="312.05" x2="478.03" y2="324.57"/>
								<line class="st15" x1="454.05" y1="249.46" x2="454.05" y2="261.98"/>
								<line class="st15" x1="454.05" y1="274.5" x2="454.05" y2="287.02"/>
								<line class="st15" x1="454.05" y1="299.54" x2="454.05" y2="312.05"/>
								<line class="st15" x1="454.05" y1="324.57" x2="454.05" y2="337.09"/>
								<line class="st15" x1="430.06" y1="337.09" x2="430.06" y2="349.61"/>
							</g>
						</g>
					</g>
				</g>
				<g>
					<path class="st16" d="M490.67,417.52c0.12-6.94,1.61-40.45,18.98-42.84l11.36-46.12c0,0-8.95-1.14-23.69-2.47l-2.17,22.52
						H483.8l2.71-23.44c-7.12-0.57-15.11-1.13-23.74-1.61l-2.41,25.05h-11.36l2.96-25.61c-8-0.37-16.43-0.66-25.13-0.82l0.17,26.43
						h-11.36l0.34-26.57c-8.17-0.05-16.52,0.02-24.93,0.25l3.04,26.32h-11.36l-2.49-25.95c-7.95,0.34-15.9,0.84-23.77,1.51
						l2.82,24.43H347.9l-2.25-23.38c-8.12,0.89-16.1,1.99-23.82,3.33l12.7,41.85c0,0,24.1,3.54,21.71,48.35
						c-3.55,67.24-19.67,399.73-30.69,444.61c0,0,73.69,43.53,191.72,2.22C517.29,865.59,489.65,666.34,490.67,417.52z"/>
					<g>
						<defs>
							<path id="SVGID_00000047039592080615699710000014562309426263827116_" d="M490.67,417.52c0.12-6.94,1.61-40.45,18.98-42.84
								l11.36-46.12c0,0-8.95-1.14-23.69-2.47l-2.17,22.52H483.8l2.71-23.44c-7.12-0.57-15.11-1.13-23.74-1.61l-2.41,25.05h-11.36
								l2.96-25.61c-8-0.37-16.43-0.66-25.13-0.82l0.17,26.43h-11.36l0.34-26.57c-8.17-0.05-16.52,0.02-24.93,0.25l3.04,26.32
								h-11.36l-2.49-25.95c-7.95,0.34-15.9,0.84-23.77,1.51l2.82,24.43H347.9l-2.25-23.38c-8.12,0.89-16.1,1.99-23.82,3.33
								l12.7,41.85c0,0,24.1,3.54,21.71,48.35c-3.55,67.24-19.67,399.73-30.69,444.61c0,0,73.69,43.53,191.72,2.22
								C517.29,865.59,489.65,666.34,490.67,417.52z"/>
						</defs>
						<clipPath id="SVGID_00000072268518334332052680000011056297535937938326_">
							<use xlink:href="#SVGID_00000047039592080615699710000014562309426263827116_"  style="overflow:visible;"/>
						</clipPath>
						<g style="clip-path:url(#SVGID_00000072268518334332052680000011056297535937938326_);">
							<g>
								<path class="st18" d="M424.98,490.79c0,2.04-1.65,3.69-3.7,3.69h-10.73c-2.04,0-3.69-1.66-3.69-3.69v-4.62
									c0-2.04,1.65-3.69,3.69-3.69h10.73c2.05,0,3.7,1.65,3.7,3.69V490.79z"/>
								<path class="st18" d="M444.41,489.72c0,2.05-1.65,3.7-3.69,3.7h-10.35c-2.04,0-3.69-1.65-3.69-3.7v-1.67
									c0-2.03,1.65-3.69,3.69-3.69h10.35c2.04,0,3.69,1.65,3.69,3.69V489.72z"/>
								<path class="st18" d="M435.55,500.27c0,2.04-1.65,3.69-3.69,3.69h-7.72c-2.04,0-3.69-1.65-3.69-3.69v-0.89
									c0-2.05,1.65-3.69,3.69-3.69h7.72c2.04,0,3.69,1.65,3.69,3.69V500.27z"/>
							</g>
							<g>
								<path class="st18" d="M455.88,658.31c0,1.79-1.45,3.24-3.23,3.24h-9.4c-1.79,0-3.23-1.45-3.23-3.24v-4.03
									c0-1.8,1.45-3.23,3.23-3.23h9.4c1.79,0,3.23,1.44,3.23,3.23V658.31z"/>
								<path class="st18" d="M472.91,657.39c0,1.79-1.45,3.24-3.23,3.24h-9.07c-1.79,0-3.23-1.45-3.23-3.24v-1.46
									c0-1.79,1.44-3.23,3.23-3.23h9.07c1.78,0,3.23,1.44,3.23,3.23V657.39z"/>
								<path class="st18" d="M465.14,666.62c0,1.79-1.45,3.24-3.23,3.24h-6.76c-1.78,0-3.23-1.45-3.23-3.24v-0.78
									c0-1.79,1.45-3.23,3.23-3.23h6.76c1.78,0,3.23,1.44,3.23,3.23V666.62z"/>
							</g>
							<g>
								<path class="st18" d="M397.68,432.36c0-2.39,1.93-4.32,4.31-4.32h12.54c2.38,0,4.31,1.93,4.31,4.32v5.39
									c0,2.38-1.93,4.31-4.31,4.31h-12.54c-2.38,0-4.31-1.93-4.31-4.31V432.36z"/>
								<path class="st18" d="M374.97,433.59c0-2.38,1.93-4.31,4.32-4.31h12.09c2.38,0,4.31,1.93,4.31,4.31v1.96
									c0,2.38-1.93,4.31-4.31,4.31h-12.09c-2.38,0-4.32-1.94-4.32-4.31V433.59z"/>
								<path class="st18" d="M385.33,421.28c0-2.39,1.93-4.32,4.32-4.32h9.01c2.38,0,4.31,1.93,4.31,4.32v1.03
									c0,2.39-1.93,4.32-4.31,4.32h-9.01c-2.39,0-4.32-1.93-4.32-4.32V421.28z"/>
							</g>
							<g>
								<path class="st18" d="M366.37,588.68c0-2.07,1.68-3.74,3.75-3.74H381c2.07,0,3.75,1.67,3.75,3.74v4.68
									c0,2.06-1.68,3.74-3.75,3.74h-10.88c-2.07,0-3.75-1.68-3.75-3.74V588.68z"/>
								<path class="st18" d="M346.65,589.75c0-2.07,1.68-3.75,3.75-3.75h10.51c2.07,0,3.74,1.68,3.74,3.75v1.7
									c0,2.06-1.67,3.74-3.74,3.74H350.4c-2.07,0-3.75-1.68-3.75-3.74V589.75z"/>
								<path class="st18" d="M355.65,579.06c0-2.07,1.68-3.74,3.75-3.74h7.83c2.07,0,3.74,1.68,3.74,3.74v0.9
									c0,2.08-1.68,3.75-3.74,3.75h-7.83c-2.07,0-3.75-1.67-3.75-3.75V579.06z"/>
							</g>
						</g>
					</g>
					<path class="st13" d="M428.87,436.07v-25.21c0,0,0-7.88-7.88-7.88c0,0-7.59-0.14-7.59,8.16v24.92H428.87z"/>
				</g>
			</g>
			<g>
				<g>
					<g>
						<g>
							<path class="st12" d="M706.75,147.06c2.72-3.82,8.72-6,13.63-7.09c6-1.09,14.72-1.09,19.07,3.27
								c4.36,4.91,1.64,11.45,7.09,15.81c10.9,9.81,30.52-4.91,41.97-8.72c6.54-1.63,14.72-3.27,21.8-3.27
								c6,0.54,9.81,3.27,15.81,4.9l-15.26-19.16l21.26-17.21c-11.99,0-21.8-1.24-34.34,2.03c-6,1.64-11.99,3.82-17.44,6.54
								c-4.9,2.18-11.99,8.72-16.35,3.81c-1.79-2.01-0.82-5.82-1.94-8.13c-0.98-2.04-3.39-3.42-5.35-4.38
								c-7.12-3.48-16.76-4.34-24.6-4.46c-4.31-0.06-8.64,0.3-12.88,1.09c-1.27,0.24-11.88,2.3-11.9,3.54L706.75,147.06z"/>
						</g>
						<g>
							<rect x="705.72" y="107.49" class="st13" width="2.84" height="80.92"/>
							<path class="st13" d="M711.24,107.78c0,0.82-1.85,1.48-4.13,1.48s-4.12-0.66-4.12-1.48c0-0.82,1.85-1.49,4.12-1.49
								S711.24,106.95,711.24,107.78z"/>
							<path class="st13" d="M712.79,102.35c0,2.84-2.54,5.14-5.68,5.14c-3.14,0-5.68-2.3-5.68-5.14c0-2.84,2.54-5.14,5.68-5.14
								C710.25,97.22,712.79,99.52,712.79,102.35z"/>
						</g>
					</g>
					<g>
						<defs>
							<path id="SVGID_00000093894309877363254510000007175495957921403806_" d="M707.2,177.87c-0.13,0.37-0.28,0.75-0.42,1.13
								c-23.52,64.01-77.03,156.33-86.06,170.37c14.03,9.01,42.91,16.06,86.42,16.56c1.64,0.02,3.25,0.05,4.93,0.05
								c46.04,0,70.39-5.81,81.51-16.7C734.21,262.81,707.2,177.87,707.2,177.87z"/>
						</defs>
						<clipPath id="SVGID_00000076572924558308962550000008384200765919703704_">
							<use xlink:href="#SVGID_00000093894309877363254510000007175495957921403806_"  style="overflow:visible;"/>
						</clipPath>
						<g style="opacity:0.5;clip-path:url(#SVGID_00000076572924558308962550000008384200765919703704_);">
							<g>
								<line class="st15" x1="581.41" y1="199.39" x2="829.39" y2="199.39"/>
								<line class="st15" x1="581.41" y1="211.91" x2="829.39" y2="211.91"/>
								<line class="st15" x1="581.41" y1="236.94" x2="829.39" y2="236.94"/>
								<line class="st15" x1="581.41" y1="224.43" x2="829.39" y2="224.43"/>
								<line class="st15" x1="581.41" y1="249.46" x2="829.39" y2="249.46"/>
								<line class="st15" x1="581.41" y1="261.98" x2="829.39" y2="261.98"/>
								<line class="st15" x1="581.41" y1="274.5" x2="829.39" y2="274.5"/>
								<line class="st15" x1="581.41" y1="287.02" x2="829.39" y2="287.02"/>
								<line class="st15" x1="581.41" y1="299.54" x2="829.39" y2="299.54"/>
								<line class="st15" x1="581.41" y1="312.05" x2="829.39" y2="312.05"/>
								<line class="st15" x1="581.41" y1="324.57" x2="829.39" y2="324.57"/>
								<line class="st15" x1="581.41" y1="337.09" x2="829.39" y2="337.09"/>
							</g>
							<g>
								<line class="st15" x1="702.58" y1="199.39" x2="702.58" y2="211.91"/>
								<line class="st15" x1="702.58" y1="224.43" x2="702.58" y2="236.94"/>
								<line class="st15" x1="702.58" y1="249.46" x2="702.58" y2="261.98"/>
								<line class="st15" x1="702.58" y1="274.5" x2="702.58" y2="287.02"/>
								<line class="st15" x1="702.58" y1="299.54" x2="702.58" y2="312.05"/>
								<line class="st15" x1="654.62" y1="299.54" x2="654.62" y2="312.05"/>
								<line class="st15" x1="678.6" y1="211.91" x2="678.6" y2="224.43"/>
								<line class="st15" x1="678.6" y1="236.94" x2="678.6" y2="249.46"/>
								<line class="st15" x1="678.6" y1="261.98" x2="678.6" y2="274.5"/>
								<line class="st15" x1="678.6" y1="287.02" x2="678.6" y2="299.54"/>
								<line class="st15" x1="678.6" y1="312.05" x2="678.6" y2="324.57"/>
								<line class="st15" x1="702.58" y1="324.57" x2="702.58" y2="337.09"/>
							</g>
							<g>
								<line class="st15" x1="715.66" y1="211.91" x2="715.66" y2="224.43"/>
								<line class="st15" x1="715.66" y1="236.94" x2="715.66" y2="249.46"/>
								<line class="st15" x1="715.66" y1="261.98" x2="715.66" y2="274.5"/>
								<line class="st15" x1="715.66" y1="287.02" x2="715.66" y2="299.54"/>
								<line class="st15" x1="715.66" y1="312.05" x2="715.66" y2="324.57"/>
								<line class="st15" x1="763.62" y1="312.05" x2="763.62" y2="324.57"/>
								<line class="st15" x1="739.64" y1="249.46" x2="739.64" y2="261.98"/>
								<line class="st15" x1="739.64" y1="274.5" x2="739.64" y2="287.02"/>
								<line class="st15" x1="739.64" y1="299.54" x2="739.64" y2="312.05"/>
								<line class="st15" x1="739.64" y1="324.57" x2="739.64" y2="337.09"/>
								<line class="st15" x1="715.66" y1="337.09" x2="715.66" y2="349.61"/>
							</g>
						</g>
					</g>
				</g>
				<g>
					<path class="st16" d="M637.78,417.52c-0.12-6.94-1.61-40.45-18.98-42.84l-11.36-46.12c0,0,8.96-1.14,23.69-2.47l2.17,22.52
						h11.36l-2.71-23.44c7.12-0.57,15.11-1.13,23.74-1.61l2.42,25.05h11.36L676.5,323c8-0.37,16.43-0.66,25.13-0.82l-0.17,26.43
						h11.36l-0.34-26.57c8.17-0.05,16.51,0.02,24.93,0.25l-3.04,26.32h11.36l2.49-25.95c7.95,0.34,15.9,0.84,23.77,1.51l-2.82,24.43
						h11.36l2.25-23.38c8.12,0.89,16.1,1.99,23.82,3.33l-12.7,41.85c0,0-24.1,3.54-21.71,48.35
						c3.55,67.24,19.67,399.73,30.69,444.61c0,0-73.68,43.53-191.72,2.22C611.16,865.59,638.8,666.34,637.78,417.52z"/>
					<g>
						<defs>
							<path id="SVGID_00000091703796799605862250000015259679457456263059_" d="M637.78,417.52c-0.12-6.94-1.61-40.45-18.98-42.84
								l-11.36-46.12c0,0,8.96-1.14,23.69-2.47l2.17,22.52h11.36l-2.71-23.44c7.12-0.57,15.11-1.13,23.74-1.61l2.42,25.05h11.36
								L676.5,323c8-0.37,16.43-0.66,25.13-0.82l-0.17,26.43h11.36l-0.34-26.57c8.17-0.05,16.51,0.02,24.93,0.25l-3.04,26.32h11.36
								l2.49-25.95c7.95,0.34,15.9,0.84,23.77,1.51l-2.82,24.43h11.36l2.25-23.38c8.12,0.89,16.1,1.99,23.82,3.33l-12.7,41.85
								c0,0-24.1,3.54-21.71,48.35c3.55,67.24,19.67,399.73,30.69,444.61c0,0-73.68,43.53-191.72,2.22
								C611.16,865.59,638.8,666.34,637.78,417.52z"/>
						</defs>
						<clipPath id="SVGID_00000147938605302322566370000002405235050236453537_">
							<use xlink:href="#SVGID_00000091703796799605862250000015259679457456263059_"  style="overflow:visible;"/>
						</clipPath>
						<g style="clip-path:url(#SVGID_00000147938605302322566370000002405235050236453537_);">
							<g>
								<path class="st18" d="M649.66,467.04c0,2.02,1.64,3.66,3.66,3.66h10.62c2.02,0,3.66-1.64,3.66-3.66v-4.57
									c0-2.02-1.63-3.66-3.66-3.66h-10.62c-2.02,0-3.66,1.64-3.66,3.66V467.04z"/>
								<path class="st18" d="M630.41,465.99c0,2.03,1.64,3.66,3.66,3.66h10.26c2.01,0,3.65-1.64,3.65-3.66v-1.65
									c0-2.01-1.64-3.65-3.65-3.65h-10.26c-2.02,0-3.66,1.64-3.66,3.65V465.99z"/>
								<path class="st18" d="M639.2,476.44c0,2.02,1.64,3.66,3.65,3.66h7.64c2.01,0,3.65-1.64,3.65-3.66v-0.88
									c0-2.02-1.64-3.66-3.65-3.66h-7.64c-2.02,0-3.65,1.63-3.65,3.66V476.44z"/>
							</g>
							<g>
								<path class="st18" d="M707.59,515.38c0,1.77,1.43,3.21,3.2,3.21h9.31c1.77,0,3.2-1.43,3.2-3.21v-4c0-1.77-1.44-3.2-3.2-3.2
									h-9.31c-1.77,0-3.2,1.43-3.2,3.2V515.38z"/>
								<path class="st18" d="M690.74,514.47c0,1.77,1.43,3.2,3.2,3.2h8.98c1.77,0,3.2-1.43,3.2-3.2v-1.45
									c0-1.77-1.43-3.21-3.2-3.21h-8.98c-1.76,0-3.2,1.44-3.2,3.21V514.47z"/>
								<path class="st18" d="M698.42,523.61c0,1.77,1.43,3.21,3.2,3.21h6.69c1.77,0,3.2-1.44,3.2-3.21v-0.77
									c0-1.77-1.43-3.21-3.2-3.21h-6.69c-1.77,0-3.2,1.43-3.2,3.21V523.61z"/>
							</g>
							<g>
								<path class="st18" d="M758.59,441.65c0-2.05-1.66-3.71-3.71-3.71H744.1c-2.05,0-3.71,1.65-3.71,3.71v4.63
									c0,2.05,1.66,3.7,3.71,3.7h10.78c2.05,0,3.71-1.66,3.71-3.7V441.65z"/>
								<path class="st18" d="M778.11,442.7c0-2.05-1.66-3.71-3.71-3.71H764c-2.05,0-3.71,1.66-3.71,3.71v1.68
									c0,2.05,1.66,3.7,3.71,3.7h10.4c2.05,0,3.71-1.66,3.71-3.7V442.7z"/>
								<path class="st18" d="M769.2,432.12c0-2.05-1.66-3.71-3.71-3.71h-7.75c-2.05,0-3.71,1.66-3.71,3.71v0.89
									c0,2.06,1.66,3.71,3.71,3.71h7.75c2.05,0,3.71-1.66,3.71-3.71V432.12z"/>
							</g>
						</g>
					</g>
					<path class="st13" d="M714.47,436.07v-25.21c0,0,0-7.88-7.88-7.88c0,0-7.59-0.14-7.59,8.16v24.92H714.47z"/>
				</g>
			</g>
		</g>
		<g>
			<path class="st9" d="M721.59,817.27l158.6-2.65c0-7.12-2.71-15.26-1.47-22.24c2.61-12.21-0.09-214.92-0.09-238.89
				c0-3.49-0.44-8.28,0.44-11.77c-4.78-1.75-12.45-3.02-21.97-3.92l1.16,14.93h-11.76v-15.74c-6.11-0.37-12.7-0.63-19.6-0.8
				l1.29,16.54h-11.76v-16.73c-6.42-0.08-13.01-0.1-19.62-0.06l1.32,16.78h-11.77v-16.69c-6.19,0.08-12.32,0.2-18.3,0.34v16.35
				h-11.76l1.25-16.07c-6.92,0.2-13.5,0.43-19.55,0.66v15.41h-11.76l1.17-14.98c-13.81,0.59-23.19,1.13-24.57,1.24
				c-0.26,2.31-0.52,7.17-0.77,13.74h-11.33v-15.74c-6.1-0.37-12.7-0.63-19.59-0.8l1.29,16.54h-11.76v-16.73
				c-6.42-0.08-13.01-0.1-19.62-0.06l1.31,16.78h-11.76v-16.69c-6.18,0.08-12.32,0.2-18.3,0.34v16.35h-11.76l1.25-16.07
				c-6.92,0.2-13.5,0.43-19.55,0.66v15.41h-11.77l1.17-14.98c-13.82,0.59-23.19,1.13-24.57,1.24c-0.26,2.31-0.52,7.17-0.77,13.74
				h-10.34v-15.41c-6.06-0.23-12.64-0.46-19.56-0.66l1.25,16.07h-11.76v-16.35c-5.98-0.14-12.12-0.26-18.3-0.34v16.69H475.8
				l1.31-16.78c-6.61-0.04-13.19-0.02-19.61,0.06v16.73h-11.76l1.29-16.54c-6.89,0.17-13.49,0.43-19.59,0.8v15.74H416.1
				c-0.26-6.58-0.52-11.43-0.77-13.74c-1.38-0.11-10.75-0.64-24.57-1.24l1.17,14.98h-11.77v-15.41c-6.06-0.23-12.64-0.46-19.55-0.66
				l1.25,16.07h-11.76v-16.35c-5.98-0.14-12.12-0.26-18.3-0.34v16.69h-11.76l1.31-16.78c-6.61-0.04-13.19-0.02-19.62,0.06v16.73
				h-11.76l1.29-16.54c-6.89,0.17-13.49,0.43-19.6,0.8v15.74h-11.77l1.17-14.93c-9.52,0.9-17.2,2.17-21.97,3.92
				c0.87,3.49,0.44,8.28,0.44,11.77c0,23.97-2.7,226.68-0.09,238.89c1.23,6.98-1.47,15.12-1.47,22.24l181,3.03c0,0,0-0.12,0-0.33
				l124.45,0.26c0,0.03,0,0.07,0,0.07l15.67-0.04l15.66,0.04c0,0,0-0.04,0-0.07l124.46-0.26c0,0.21,0,0.33,0,0.33L721.59,817.27
				L721.59,817.27L721.59,817.27z"/>
			<g>
				<defs>
					<path id="SVGID_00000093174497374282463590000017181927196978504868_" d="M415.32,582.59c-1.38-0.1-10.75-0.64-24.57-1.24
						l1.17,14.98h-11.77v-15.41c-6.06-0.24-12.64-0.46-19.55-0.66l1.25,16.07h-11.76v-16.34c-5.98-0.14-12.12-0.26-18.3-0.34v16.68
						h-11.76l1.31-16.78c-6.61-0.04-13.19-0.03-19.62,0.06v16.72h-11.76l1.29-16.53c-6.89,0.17-13.49,0.43-19.6,0.79v15.74h-11.77
						l1.17-14.92c-9.52,0.9-17.2,2.17-21.97,3.92c0.87,3.49,0.44,8.28,0.44,11.77c0,23.97-2.7,95.87-0.09,108.08
						c1.23,6.98-1.47,15.12-1.47,22.24l181,3.03C418.96,730.44,417.07,598.28,415.32,582.59z"/>
				</defs>
				<clipPath id="SVGID_00000056409964032529729430000008629593620293972889_">
					<use xlink:href="#SVGID_00000093174497374282463590000017181927196978504868_"  style="overflow:visible;"/>
				</clipPath>
			</g>
			<g>
				<defs>
					<path id="SVGID_00000082341277906625319270000003567242646702319750_" d="M880.19,727.41c0-7.12-2.71-15.26-1.47-22.24
						c2.61-12.21-0.09-127.71-0.09-151.68c0-3.49-0.44-8.28,0.44-11.77c-4.78-1.75-12.45-3.02-21.97-3.92l1.16,14.93h-11.76v-15.74
						c-6.11-0.37-12.7-0.63-19.6-0.8l1.29,16.54h-11.76v-16.73c-6.42-0.08-13.01-0.1-19.62-0.06l1.32,16.78h-11.77v-16.69
						c-6.19,0.08-12.32,0.2-18.3,0.34v16.35h-11.76l1.25-16.07c-6.92,0.2-13.5,0.43-19.55,0.66v15.41h-11.76l1.17-14.98
						c-13.81,0.59-23.19,1.13-24.57,1.24c-0.26,2.31-0.52,7.17-0.77,13.74h-11.33v-15.74c-6.1-0.37-12.7-0.63-19.59-0.8l1.29,16.54
						h-11.76v-16.73c-6.42-0.08-13.01-0.1-19.62-0.06l1.31,16.78h-11.76v-16.69c-6.18,0.08-12.32,0.2-18.3,0.34v16.35h-11.76
						l1.25-16.07c-6.92,0.2-13.5,0.43-19.55,0.66v15.41h-11.77l1.17-14.98c-13.82,0.59-23.19,1.13-24.57,1.24
						c-0.26,2.31-0.52,7.17-0.77,13.74h-10.34v-15.41c-6.06-0.23-12.64-0.46-19.56-0.66l1.25,16.07h-11.76v-16.35
						c-5.98-0.14-12.12-0.26-18.3-0.34v16.69H475.8l1.31-16.78c-6.61-0.04-13.19-0.02-19.61,0.06v16.73h-11.76l1.29-16.54
						c-6.89,0.17-13.49,0.43-19.59,0.8v15.74H416.1c-0.26-6.58-0.52-11.43-0.77-13.74c-1.38-0.11-10.75-0.64-24.57-1.24l1.17,14.98
						h-11.77v-15.41c-6.06-0.23-12.64-0.46-19.55-0.66l1.25,16.07h-11.76v-16.35c-5.98-0.14-12.12-0.26-18.3-0.34v16.69h-11.76
						l1.31-16.78c-6.61-0.04-13.19-0.02-19.62,0.06v16.73h-11.76l1.29-16.54c-6.89,0.17-13.49,0.43-19.6,0.8v15.74h-11.77
						l1.17-14.93c-9.52,0.9-17.2,2.17-21.97,3.92c0.87,3.49,0.44,8.28,0.44,11.77c0,23.97-2.7,139.47-0.09,151.68
						c1.23,6.98-1.47,15.12-1.47,22.24l181,3.03c0,0,0-0.12,0-0.33l124.45,0.26c0,0.03,0,0.07,0,0.07l15.67-0.03l15.66,0.03
						c0,0,0-0.04,0-0.07l124.46-0.26c0,0.21,0,0.33,0,0.33L880.19,727.41z"/>
				</defs>
				<clipPath id="SVGID_00000060022874182646677810000015045234273606220198_">
					<use xlink:href="#SVGID_00000082341277906625319270000003567242646702319750_"  style="overflow:visible;"/>
				</clipPath>
				<g style="clip-path:url(#SVGID_00000060022874182646677810000015045234273606220198_);">
					<g>
						<path class="st22" d="M385.6,588.86c0-1.45,1.17-2.62,2.61-2.62h7.6c1.44,0,2.62,1.17,2.62,2.62v3.27
							c0,1.45-1.17,2.61-2.62,2.61h-7.6c-1.44,0-2.61-1.17-2.61-2.61V588.86z"/>
						<path class="st22" d="M371.84,589.61c0-1.45,1.17-2.62,2.61-2.62h7.33c1.44,0,2.62,1.17,2.62,2.62v1.18
							c0,1.44-1.17,2.62-2.62,2.62h-7.33c-1.44,0-2.61-1.18-2.61-2.62V589.61z"/>
						<path class="st22" d="M378.12,582.15c0-1.44,1.17-2.62,2.61-2.62h5.46c1.44,0,2.62,1.17,2.62,2.62v0.63
							c0,1.45-1.17,2.62-2.62,2.62h-5.46c-1.44,0-2.61-1.17-2.61-2.62V582.15z"/>
					</g>
					<g>
						<path class="st22" d="M869.56,669.99c0-1.44,1.17-2.62,2.61-2.62h7.6c1.44,0,2.61,1.17,2.61,2.62v3.27
							c0,1.45-1.17,2.62-2.61,2.62h-7.6c-1.44,0-2.61-1.17-2.61-2.62V669.99z"/>
						<path class="st22" d="M855.79,670.74c0-1.44,1.18-2.62,2.62-2.62h7.33c1.44,0,2.62,1.17,2.62,2.62v1.19
							c0,1.44-1.17,2.62-2.62,2.62h-7.33c-1.44,0-2.62-1.17-2.62-2.62V670.74z"/>
						<path class="st22" d="M862.08,663.28c0-1.45,1.17-2.62,2.62-2.62h5.46c1.44,0,2.62,1.17,2.62,2.62v0.63
							c0,1.45-1.17,2.62-2.62,2.62h-5.46c-1.44,0-2.62-1.17-2.62-2.62V663.28z"/>
					</g>
					<g>
						<path class="st22" d="M622.02,682.68c0-1.45,1.17-2.62,2.61-2.62h7.6c1.44,0,2.61,1.17,2.61,2.62v3.27
							c0,1.45-1.18,2.62-2.61,2.62h-7.6c-1.44,0-2.61-1.17-2.61-2.62V682.68z"/>
						<path class="st22" d="M608.25,683.43c0-1.45,1.18-2.62,2.62-2.62h7.33c1.45,0,2.62,1.17,2.62,2.62v1.18
							c0,1.44-1.17,2.62-2.62,2.62h-7.33c-1.44,0-2.62-1.18-2.62-2.62V683.43z"/>
						<path class="st22" d="M614.53,675.96c0-1.44,1.18-2.62,2.62-2.62h5.46c1.44,0,2.62,1.17,2.62,2.62v0.63
							c0,1.44-1.18,2.62-2.62,2.62h-5.46c-1.44,0-2.62-1.17-2.62-2.62V675.96z"/>
					</g>
					<g>
						<path class="st22" d="M757.91,691.87c0-1.45,1.17-2.62,2.62-2.62h7.6c1.44,0,2.61,1.17,2.61,2.62v3.27
							c0,1.44-1.18,2.62-2.61,2.62h-7.6c-1.45,0-2.62-1.17-2.62-2.62V691.87z"/>
						<path class="st22" d="M744.14,692.63c0-1.45,1.17-2.62,2.62-2.62h7.33c1.44,0,2.61,1.17,2.61,2.62v1.18
							c0,1.44-1.17,2.62-2.61,2.62h-7.33c-1.44,0-2.62-1.18-2.62-2.62V692.63z"/>
						<path class="st22" d="M750.42,685.16c0-1.44,1.17-2.62,2.62-2.62h5.46c1.44,0,2.62,1.17,2.62,2.62v0.63
							c0,1.44-1.17,2.62-2.62,2.62h-5.46c-1.45,0-2.62-1.17-2.62-2.62V685.16z"/>
					</g>
					<g>
						<path class="st22" d="M371.37,656.67c0,1.45-1.17,2.62-2.61,2.62h-7.6c-1.44,0-2.61-1.17-2.61-2.62v-3.26
							c0-1.45,1.17-2.62,2.61-2.62h7.6c1.45,0,2.61,1.17,2.61,2.62V656.67z"/>
						<path class="st22" d="M385.13,655.93c0,1.45-1.17,2.62-2.61,2.62h-7.33c-1.44,0-2.62-1.17-2.62-2.62v-1.18
							c0-1.45,1.17-2.62,2.62-2.62h7.33c1.44,0,2.61,1.17,2.61,2.62V655.93z"/>
						<path class="st22" d="M378.85,663.39c0,1.45-1.18,2.62-2.62,2.62h-5.46c-1.44,0-2.61-1.17-2.61-2.62v-0.62
							c0-1.45,1.17-2.61,2.61-2.61h5.46c1.44,0,2.62,1.17,2.62,2.61V663.39z"/>
					</g>
					<g>
						<path class="st22" d="M547.2,723.57c0,1.45-1.17,2.62-2.61,2.62h-7.6c-1.44,0-2.62-1.17-2.62-2.62v-3.26
							c0-1.45,1.17-2.62,2.62-2.62h7.6c1.45,0,2.61,1.17,2.61,2.62V723.57z"/>
						<path class="st22" d="M560.96,722.83c0,1.45-1.18,2.62-2.62,2.62h-7.33c-1.44,0-2.62-1.17-2.62-2.62v-1.18
							c0-1.45,1.17-2.62,2.62-2.62h7.33c1.44,0,2.62,1.17,2.62,2.62V722.83z"/>
						<path class="st22" d="M554.68,730.29c0,1.44-1.17,2.61-2.61,2.61h-5.46c-1.44,0-2.61-1.17-2.61-2.61v-0.63
							c0-1.45,1.17-2.62,2.61-2.62h5.46c1.44,0,2.61,1.17,2.61,2.62V730.29z"/>
					</g>
					<g>
						<path class="st22" d="M520.79,623.19c0,1.44-1.17,2.62-2.61,2.62h-7.6c-1.45,0-2.61-1.18-2.61-2.62v-3.27
							c0-1.45,1.17-2.62,2.61-2.62h7.6c1.45,0,2.61,1.18,2.61,2.62V623.19z"/>
						<path class="st22" d="M534.56,622.45c0,1.45-1.17,2.61-2.61,2.61h-7.33c-1.44,0-2.61-1.17-2.61-2.61v-1.18
							c0-1.45,1.17-2.61,2.61-2.61h7.33c1.44,0,2.61,1.16,2.61,2.61V622.45z"/>
						<path class="st22" d="M528.28,629.91c0,1.45-1.17,2.62-2.61,2.62h-5.46c-1.44,0-2.61-1.17-2.61-2.62v-0.62
							c0-1.45,1.17-2.62,2.61-2.62h5.46c1.44,0,2.61,1.17,2.61,2.62V629.91z"/>
					</g>
					<g>
						<path class="st22" d="M733.37,592.93c0,1.44-1.17,2.62-2.61,2.62h-7.6c-1.45,0-2.62-1.17-2.62-2.62v-3.26
							c0-1.45,1.17-2.62,2.62-2.62h7.6c1.45,0,2.61,1.17,2.61,2.62V592.93z"/>
						<path class="st22" d="M747.14,592.18c0,1.44-1.17,2.62-2.61,2.62h-7.33c-1.44,0-2.62-1.17-2.62-2.62V591
							c0-1.45,1.18-2.61,2.62-2.61h7.33c1.44,0,2.61,1.17,2.61,2.61V592.18z"/>
						<path class="st22" d="M740.86,599.65c0,1.44-1.17,2.61-2.61,2.61h-5.47c-1.44,0-2.61-1.17-2.61-2.61v-0.63
							c0-1.45,1.17-2.62,2.61-2.62h5.47c1.44,0,2.61,1.17,2.61,2.62V599.65z"/>
					</g>
					<g>
						<path class="st22" d="M255.9,607.5c0,1.44-1.17,2.61-2.61,2.61h-7.6c-1.44,0-2.61-1.17-2.61-2.61v-3.27
							c0-1.44,1.17-2.61,2.61-2.61h7.6c1.44,0,2.61,1.17,2.61,2.61V607.5z"/>
						<path class="st22" d="M269.67,606.75c0,1.44-1.17,2.61-2.61,2.61h-7.33c-1.44,0-2.61-1.17-2.61-2.61v-1.19
							c0-1.44,1.17-2.62,2.61-2.62h7.33c1.45,0,2.61,1.17,2.61,2.62V606.75z"/>
						<path class="st22" d="M263.39,614.21c0,1.45-1.17,2.62-2.61,2.62h-5.46c-1.44,0-2.62-1.17-2.62-2.62v-0.63
							c0-1.44,1.17-2.61,2.62-2.61h5.46c1.44,0,2.61,1.17,2.61,2.61V614.21z"/>
					</g>
					<g>
						<path class="st22" d="M588.57,583.57c0-1.44,1.17-2.62,2.62-2.62h7.6c1.44,0,2.61,1.17,2.61,2.62v3.26
							c0,1.45-1.17,2.62-2.61,2.62h-7.6c-1.45,0-2.62-1.17-2.62-2.62V583.57z"/>
						<path class="st22" d="M574.81,584.31c0-1.44,1.17-2.61,2.62-2.61h7.33c1.44,0,2.62,1.17,2.62,2.61v1.19
							c0,1.44-1.18,2.62-2.62,2.62h-7.33c-1.45,0-2.62-1.17-2.62-2.62V584.31z"/>
						<path class="st22" d="M581.09,576.85c0-1.44,1.17-2.62,2.61-2.62h5.46c1.45,0,2.62,1.17,2.62,2.62v0.63
							c0,1.44-1.17,2.61-2.62,2.61h-5.46c-1.45,0-2.61-1.17-2.61-2.61V576.85z"/>
					</g>
					<g>
						<path class="st22" d="M849.38,618.55c0-1.44,1.17-2.62,2.61-2.62h7.6c1.44,0,2.61,1.18,2.61,2.62v3.26
							c0,1.45-1.18,2.62-2.61,2.62h-7.6c-1.44,0-2.61-1.17-2.61-2.62V618.55z"/>
						<path class="st22" d="M835.62,619.3c0-1.45,1.17-2.61,2.62-2.61h7.33c1.45,0,2.62,1.17,2.62,2.61v1.18
							c0,1.44-1.17,2.62-2.62,2.62h-7.33c-1.44,0-2.62-1.17-2.62-2.62V619.3z"/>
						<path class="st22" d="M841.9,611.84c0-1.45,1.17-2.62,2.62-2.62h5.46c1.45,0,2.62,1.17,2.62,2.62v0.63
							c0,1.44-1.17,2.61-2.62,2.61h-5.46c-1.44,0-2.62-1.17-2.62-2.61V611.84z"/>
					</g>
					<g>
						<path class="st22" d="M270.13,682.68c0-1.45,1.17-2.61,2.62-2.61h7.6c1.44,0,2.61,1.17,2.61,2.61v3.27
							c0,1.45-1.17,2.61-2.61,2.61h-7.6c-1.45,0-2.62-1.17-2.62-2.61V682.68z"/>
						<path class="st22" d="M256.37,683.43c0-1.45,1.17-2.62,2.61-2.62h7.33c1.44,0,2.61,1.17,2.61,2.62v1.18
							c0,1.44-1.17,2.62-2.61,2.62h-7.33c-1.44,0-2.61-1.17-2.61-2.62V683.43z"/>
						<path class="st22" d="M262.65,675.96c0-1.44,1.17-2.62,2.61-2.62h5.46c1.44,0,2.61,1.17,2.61,2.62v0.63
							c0,1.45-1.17,2.62-2.61,2.62h-5.46c-1.44,0-2.61-1.17-2.61-2.62V675.96z"/>
					</g>
				</g>
			</g>
			<g>
				<path class="st13" d="M300.98,617.16v-13.37c0,0,0-4.18-4.18-4.18c0,0-4.03-0.08-4.03,4.33v13.22H300.98z"/>
				<path class="st13" d="M404.75,617.16v-13.37c0,0,0-4.18-4.18-4.18c0,0-4.03-0.08-4.03,4.33v13.22H404.75z"/>
				<path class="st13" d="M508.52,617.16v-13.37c0,0,0-4.18-4.18-4.18c0,0-4.03-0.08-4.03,4.33v13.22H508.52z"/>
				<path class="st13" d="M612.3,617.16v-13.37c0,0,0-4.18-4.18-4.18c0,0-4.03-0.08-4.03,4.33v13.22H612.3z"/>
				<path class="st13" d="M716.07,617.16v-13.37c0,0,0-4.18-4.18-4.18c0,0-4.03-0.08-4.03,4.33v13.22H716.07z"/>
				<path class="st13" d="M819.84,617.16v-13.37c0,0,0-4.18-4.18-4.18c0,0-4.03-0.08-4.03,4.33v13.22H819.84z"/>
			</g>
		</g>
		<g>
			<g>
				<path class="st23" d="M396.34,704.4c-1.62-0.12-12.64-0.75-28.88-1.45l1.37,17.61H355v-18.12c-7.12-0.27-14.86-0.54-22.99-0.77
					l1.47,18.89h-13.83v-19.22c-7.03-0.17-14.25-0.3-21.52-0.4v19.62h-13.83l1.54-19.73c-7.77-0.05-15.51-0.03-23.06,0.07v19.66
					h-13.83l1.52-19.44c-8.1,0.2-15.86,0.51-23.03,0.94v18.5h-13.83l1.37-17.55c-11.2,1.06-20.22,2.55-25.83,4.61
					c1.03,4.1,0.51,9.74,0.51,13.83c0,28.18-3.17,112.71-0.1,127.05c1.45,8.21-1.73,17.78-1.73,26.15l197.53,3.56
					C389.46,870.02,398.39,722.85,396.34,704.4z"/>
				<g>
					<defs>
						<path id="SVGID_00000163752989490591919500000015324685847576244373_" d="M396.34,704.4c-1.62-0.12-12.64-0.75-28.88-1.45
							l1.37,17.61H355v-18.12c-7.12-0.27-14.86-0.54-22.99-0.77l1.47,18.89h-13.83v-19.22c-7.03-0.17-14.25-0.3-21.52-0.4v19.62
							h-13.83l1.54-19.73c-7.77-0.05-15.51-0.03-23.06,0.07v19.66h-13.83l1.52-19.44c-8.1,0.2-15.86,0.51-23.03,0.94v18.5h-13.83
							l1.37-17.55c-11.2,1.06-20.22,2.55-25.83,4.61c1.03,4.1,0.51,9.74,0.51,13.83c0,28.18-3.17,112.71-0.1,127.05
							c1.45,8.21-1.73,17.78-1.73,26.15l197.53,3.56C389.46,870.02,398.39,722.85,396.34,704.4z"/>
					</defs>
					<clipPath id="SVGID_00000034081956633317876350000002008029402659394193_">
						<use xlink:href="#SVGID_00000163752989490591919500000015324685847576244373_"  style="overflow:visible;"/>
					</clipPath>
					<g style="clip-path:url(#SVGID_00000034081956633317876350000002008029402659394193_);">
						<g>
							<path class="st25" d="M368.55,739.43c0,1.7-1.38,3.07-3.07,3.07h-8.93c-1.7,0-3.07-1.38-3.07-3.07v-3.84
								c0-1.7,1.38-3.07,3.07-3.07h8.93c1.7,0,3.07,1.38,3.07,3.07V739.43z"/>
							<path class="st25" d="M384.73,738.55c0,1.7-1.38,3.08-3.07,3.08h-8.62c-1.7,0-3.07-1.38-3.07-3.08v-1.39
								c0-1.69,1.38-3.07,3.07-3.07h8.62c1.7,0,3.07,1.38,3.07,3.07V738.55z"/>
							<path class="st25" d="M377.34,747.33c0,1.7-1.38,3.07-3.07,3.07h-6.42c-1.7,0-3.07-1.38-3.07-3.07v-0.74
								c0-1.7,1.38-3.08,3.07-3.08h6.42c1.7,0,3.07,1.38,3.07,3.08V747.33z"/>
						</g>
						<g>
							<path class="st25" d="M387.07,840.82c0,1.7-1.37,3.08-3.07,3.08h-8.93c-1.7,0-3.08-1.38-3.08-3.08v-3.84
								c0-1.7,1.38-3.07,3.08-3.07H384c1.7,0,3.07,1.38,3.07,3.07V840.82z"/>
							<path class="st25" d="M403.25,839.94c0,1.7-1.38,3.07-3.07,3.07h-8.62c-1.7,0-3.07-1.38-3.07-3.07v-1.39
								c0-1.7,1.38-3.07,3.07-3.07h8.62c1.69,0,3.07,1.37,3.07,3.07V839.94z"/>
							<path class="st25" d="M395.87,848.71c0,1.7-1.38,3.08-3.08,3.08h-6.42c-1.69,0-3.07-1.38-3.07-3.08v-0.74
								c0-1.7,1.38-3.07,3.07-3.07h6.42c1.7,0,3.08,1.37,3.08,3.07V848.71z"/>
						</g>
						<g>
							<path class="st25" d="M208.93,733.68c0,1.7-1.38,3.07-3.07,3.07h-8.93c-1.7,0-3.07-1.38-3.07-3.07v-3.84
								c0-1.7,1.38-3.07,3.07-3.07h8.93c1.7,0,3.07,1.37,3.07,3.07V733.68z"/>
							<path class="st25" d="M225.11,732.81c0,1.69-1.37,3.07-3.07,3.07h-8.62c-1.7,0-3.07-1.38-3.07-3.07v-1.39
								c0-1.7,1.38-3.07,3.07-3.07h8.62c1.7,0,3.07,1.38,3.07,3.07V732.81z"/>
							<path class="st25" d="M217.73,741.58c0,1.7-1.38,3.08-3.07,3.08h-6.42c-1.7,0-3.07-1.38-3.07-3.08v-0.74
								c0-1.7,1.38-3.07,3.07-3.07h6.42c1.69,0,3.07,1.38,3.07,3.07V741.58z"/>
						</g>
						<g>
							<path class="st25" d="M199.06,820.9c0,1.7-1.38,3.07-3.08,3.07h-8.93c-1.7,0-3.07-1.37-3.07-3.07v-3.84
								c0-1.7,1.38-3.07,3.07-3.07h8.93c1.7,0,3.08,1.37,3.08,3.07V820.9z"/>
							<path class="st25" d="M215.24,820.03c0,1.7-1.38,3.08-3.07,3.08h-8.62c-1.7,0-3.07-1.38-3.07-3.08v-1.39
								c0-1.7,1.38-3.07,3.07-3.07h8.62c1.7,0,3.07,1.37,3.07,3.07V820.03z"/>
							<path class="st25" d="M207.86,828.8c0,1.7-1.38,3.08-3.07,3.08h-6.42c-1.7,0-3.07-1.38-3.07-3.08v-0.73
								c0-1.7,1.38-3.08,3.07-3.08h6.42c1.7,0,3.07,1.38,3.07,3.08V828.8z"/>
						</g>
					</g>
				</g>
				<g>
					<path class="st13" d="M257.37,787.21v-13.37c0,0,0-4.18-4.18-4.18c0,0-4.03-0.08-4.03,4.33v13.21H257.37z"/>
					<path class="st13" d="M324.96,787.21v-13.37c0,0,0-4.18-4.18-4.18c0,0-4.03-0.08-4.03,4.33v13.21H324.96z"/>
				</g>
			</g>
			<g>
				<path class="st16" d="M193.86,674.43c0.05-3.11,0.72-18.14,8.51-19.22l5.1-20.68c0,0-4.02-0.51-10.62-1.11l-0.97,10.11h-5.1
					l1.21-10.52c-3.19-0.25-6.78-0.51-10.65-0.72l-1.08,11.24h-5.09l1.33-11.49c-3.59-0.16-7.37-0.29-11.27-0.37l0.08,11.86h-5.1
					l0.15-11.92c-3.66-0.02-7.41,0.01-11.18,0.11l1.36,11.81h-5.1l-1.12-11.64c-3.57,0.15-7.13,0.38-10.67,0.68l1.27,10.96h-5.1
					l-1.01-10.49c-3.64,0.4-7.22,0.89-10.68,1.49l5.7,18.77c0,0,10.81,1.59,9.74,21.69c-1.59,30.16-8.82,179.3-13.76,199.42
					c0,0,33.05,19.53,85.99,1C205.8,875.41,193.4,786.03,193.86,674.43z"/>
				<g>
					<defs>
						<path id="SVGID_00000076605919186486283570000000857420199512790683_" d="M193.86,674.43c0.05-3.11,0.72-18.14,8.51-19.22
							l5.1-20.68c0,0-4.02-0.51-10.62-1.11l-0.97,10.11h-5.1l1.21-10.52c-3.19-0.25-6.78-0.51-10.65-0.72l-1.08,11.24h-5.09
							l1.33-11.49c-3.59-0.16-7.37-0.29-11.27-0.37l0.08,11.86h-5.1l0.15-11.92c-3.66-0.02-7.41,0.01-11.18,0.11l1.36,11.81h-5.1
							l-1.12-11.64c-3.57,0.15-7.13,0.38-10.67,0.68l1.27,10.96h-5.1l-1.01-10.49c-3.64,0.4-7.22,0.89-10.68,1.49l5.7,18.77
							c0,0,10.81,1.59,9.74,21.69c-1.59,30.16-8.82,179.3-13.76,199.42c0,0,33.05,19.53,85.99,1
							C205.8,875.41,193.4,786.03,193.86,674.43z"/>
					</defs>
					<clipPath id="SVGID_00000150081803207399418740000004980681089712898983_">
						<use xlink:href="#SVGID_00000076605919186486283570000000857420199512790683_"  style="overflow:visible;"/>
					</clipPath>
					<g style="clip-path:url(#SVGID_00000150081803207399418740000004980681089712898983_);">
						<g>
							<path class="st18" d="M174.27,729.76c0,1.3-1.05,2.35-2.35,2.35h-6.83c-1.3,0-2.35-1.06-2.35-2.35v-2.94
								c0-1.3,1.05-2.35,2.35-2.35h6.83c1.3,0,2.35,1.05,2.35,2.35V729.76z"/>
							<path class="st18" d="M186.65,729.09c0,1.3-1.05,2.35-2.35,2.35h-6.59c-1.3,0-2.35-1.05-2.35-2.35v-1.06
								c0-1.29,1.05-2.35,2.35-2.35h6.59c1.3,0,2.35,1.05,2.35,2.35V729.09z"/>
							<path class="st18" d="M181,735.8c0,1.3-1.05,2.35-2.35,2.35h-4.91c-1.3,0-2.35-1.05-2.35-2.35v-0.57
								c0-1.31,1.05-2.36,2.35-2.36h4.91c1.3,0,2.35,1.05,2.35,2.36V735.8z"/>
						</g>
						<g>
							<path class="st18" d="M193.95,836.42c0,1.14-0.92,2.06-2.06,2.06h-5.98c-1.14,0-2.06-0.92-2.06-2.06v-2.57
								c0-1.14,0.92-2.06,2.06-2.06h5.98c1.14,0,2.06,0.92,2.06,2.06V836.42z"/>
							<path class="st18" d="M204.79,835.83c0,1.14-0.92,2.06-2.06,2.06h-5.77c-1.14,0-2.06-0.92-2.06-2.06v-0.93
								c0-1.14,0.92-2.06,2.06-2.06h5.77c1.13,0,2.06,0.92,2.06,2.06V835.83z"/>
							<path class="st18" d="M199.85,841.71c0,1.14-0.92,2.06-2.06,2.06h-4.3c-1.14,0-2.06-0.92-2.06-2.06v-0.49
								c0-1.14,0.92-2.06,2.06-2.06h4.3c1.14,0,2.06,0.92,2.06,2.06V841.71z"/>
						</g>
						<g>
							<path class="st18" d="M152.54,692.56c0-1.52,1.23-2.75,2.75-2.75h7.98c1.52,0,2.74,1.23,2.74,2.75v3.43
								c0,1.52-1.23,2.74-2.74,2.74h-7.98c-1.52,0-2.75-1.23-2.75-2.74V692.56z"/>
							<path class="st18" d="M138.08,693.35c0-1.52,1.23-2.74,2.75-2.74h7.7c1.52,0,2.74,1.23,2.74,2.74v1.25
								c0,1.51-1.23,2.74-2.74,2.74h-7.7c-1.52,0-2.75-1.23-2.75-2.74V693.35z"/>
							<path class="st18" d="M144.67,685.51c0-1.52,1.23-2.75,2.75-2.75h5.74c1.52,0,2.74,1.23,2.74,2.75v0.66
								c0,1.52-1.23,2.75-2.74,2.75h-5.74c-1.52,0-2.75-1.23-2.75-2.75V685.51z"/>
						</g>
						<g>
							<path class="st18" d="M136.96,792.09c0-1.32,1.07-2.38,2.39-2.38h6.93c1.32,0,2.38,1.06,2.38,2.38v2.98
								c0,1.32-1.07,2.38-2.38,2.38h-6.93c-1.32,0-2.39-1.06-2.39-2.38V792.09z"/>
							<path class="st18" d="M124.41,792.77c0-1.32,1.07-2.38,2.38-2.38h6.69c1.32,0,2.38,1.07,2.38,2.38v1.08
								c0,1.32-1.07,2.38-2.38,2.38h-6.69c-1.32,0-2.38-1.07-2.38-2.38V792.77z"/>
							<path class="st18" d="M130.14,785.96c0-1.31,1.07-2.38,2.38-2.38h4.98c1.32,0,2.38,1.07,2.38,2.38v0.57
								c0,1.32-1.07,2.39-2.38,2.39h-4.98c-1.32,0-2.38-1.07-2.38-2.39V785.96z"/>
						</g>
					</g>
				</g>
				<path class="st13" d="M168.35,715.95v-25.21c0,0,0-7.87-7.88-7.87c0,0-7.59-0.14-7.59,8.16v24.92H168.35z"/>
			</g>
			<g>
				<path class="st23" d="M674.68,695.34c-1.81-0.13-14.18-0.81-32.4-1.57l1.54,18.96H628.3v-19.51
					c-7.98-0.29-16.66-0.58-25.79-0.83l1.65,20.34h-15.52v-20.69c-7.89-0.18-15.98-0.33-24.14-0.43v21.12h-15.52l1.73-21.25
					c-8.72-0.05-17.4-0.03-25.87,0.07v21.18h-15.52l1.7-20.93c-9.09,0.21-17.79,0.54-25.84,1.01v19.92h-15.52l1.54-18.89
					c-12.56,1.14-22.68,2.74-28.98,4.97c1.15,4.41,0.58,10.48,0.58,14.89c0,30.34,8.05,121.36,11.49,136.81
					c1.62,8.84,5.8,19.15,5.79,28.15l202.26,3.84C666.96,873.68,676.98,715.2,674.68,695.34z"/>
				<g>
					<path class="st25" d="M464.43,726.87c0,1.83-1.54,3.31-3.45,3.31h-10.02c-1.9,0-3.45-1.48-3.45-3.31v-4.14
						c0-1.83,1.55-3.31,3.45-3.31h10.02c1.91,0,3.45,1.48,3.45,3.31V726.87z"/>
					<path class="st25" d="M482.58,725.93c0,1.83-1.55,3.31-3.45,3.31h-9.67c-1.9,0-3.45-1.48-3.45-3.31v-1.5
						c0-1.83,1.55-3.31,3.45-3.31h9.67c1.9,0,3.45,1.48,3.45,3.31V725.93z"/>
					<path class="st25" d="M474.3,735.37c0,1.83-1.55,3.31-3.45,3.31h-7.2c-1.9,0-3.45-1.48-3.45-3.31v-0.8
						c0-1.83,1.55-3.31,3.45-3.31h7.2c1.9,0,3.45,1.48,3.45,3.31V735.37z"/>
				</g>
				<g>
					<defs>
						<path id="SVGID_00000096756004233924904700000002871538962049325460_" d="M674.68,695.34c-1.81-0.13-14.18-0.81-32.4-1.57
							l1.54,18.96H628.3v-19.51c-7.98-0.29-16.66-0.58-25.79-0.83l1.65,20.34h-15.52v-20.69c-7.89-0.18-15.98-0.33-24.14-0.43v21.12
							h-15.52l1.73-21.25c-8.72-0.05-17.4-0.03-25.87,0.07v21.18h-15.52l1.7-20.93c-9.09,0.21-17.79,0.54-25.84,1.01v19.92h-15.52
							l1.54-18.89c-12.56,1.14-22.68,2.74-28.98,4.97c1.15,4.41,0.58,10.48,0.58,14.89c0,30.34,8.05,121.36,11.49,136.81
							c1.62,8.84,5.8,19.15,5.79,28.15l202.26,3.84C666.96,873.68,676.98,715.2,674.68,695.34z"/>
					</defs>
					<clipPath id="SVGID_00000181765444061221978990000009978455354453738116_">
						<use xlink:href="#SVGID_00000096756004233924904700000002871538962049325460_"  style="overflow:visible;"/>
					</clipPath>
					<g style="clip-path:url(#SVGID_00000181765444061221978990000009978455354453738116_);">
						<path class="st28" d="M622.13,792.31c0,0-0.31-43.78-62.07-44.05v-0.01c-0.1,0-0.19,0-0.29,0c-0.1,0-0.19,0-0.29,0v0.01
							c-61.77,0.27-62.07,44.05-62.07,44.05v87.06l62.07,1.18v0.01l0.29-0.01l0.29,0.01v-0.01l62.07,1.79V792.31z"/>
						<g>
							<defs>
								<path id="SVGID_00000119807410224570760430000008648582210168242836_" d="M622.13,792.31c0,0-0.31-43.78-62.07-44.05v-0.01
									c-0.1,0-0.19,0-0.29,0c-0.1,0-0.19,0-0.29,0v0.01c-61.77,0.27-62.07,44.05-62.07,44.05v87.06l62.07,1.18v0.01l0.29-0.01
									l0.29,0.01v-0.01l62.07,1.79V792.31z"/>
							</defs>
							<clipPath id="SVGID_00000063622924517127940960000004951595045400715169_">
								<use xlink:href="#SVGID_00000119807410224570760430000008648582210168242836_"  style="overflow:visible;"/>
							</clipPath>
							<g style="clip-path:url(#SVGID_00000063622924517127940960000004951595045400715169_);">
								<g>
									<path class="st30" d="M513.54,887.05c-1.69-47.55-1.7-95.16,0-142.72C515.24,791.89,515.23,839.5,513.54,887.05
										L513.54,887.05z"/>
								</g>
								<g>
									<path class="st30" d="M532.75,887.05c-1.69-47.55-1.7-95.16,0-142.72C534.45,791.89,534.44,839.5,532.75,887.05
										L532.75,887.05z"/>
								</g>
								<g>
									<path class="st30" d="M551.96,887.05c-1.69-47.55-1.7-95.16,0-142.72C553.66,791.89,553.64,839.5,551.96,887.05
										L551.96,887.05z"/>
								</g>
								<g>
									<path class="st30" d="M571.16,887.05c-1.69-47.55-1.7-95.16,0-142.72C572.86,791.89,572.85,839.5,571.16,887.05
										L571.16,887.05z"/>
								</g>
								<g>
									<path class="st30" d="M590.37,887.05c-1.69-47.55-1.7-95.16,0-142.72C592.07,791.89,592.06,839.5,590.37,887.05
										L590.37,887.05z"/>
								</g>
								<g>
									<path class="st30" d="M609.58,887.05c-1.69-47.55-1.7-95.16,0-142.72C611.28,791.89,611.27,839.5,609.58,887.05
										L609.58,887.05z"/>
								</g>
							</g>
							
								<rect x="495.02" y="862.58" style="clip-path:url(#SVGID_00000063622924517127940960000004951595045400715169_);fill:#432923;" width="49.21" height="6.03"/>
							
								<rect x="495.02" y="779.84" style="clip-path:url(#SVGID_00000063622924517127940960000004951595045400715169_);fill:#432923;" width="49.21" height="6.02"/>
							
								<rect x="577.79" y="862.58" style="clip-path:url(#SVGID_00000063622924517127940960000004951595045400715169_);fill:#432923;" width="49.21" height="6.03"/>
							
								<rect x="577.79" y="779.84" style="clip-path:url(#SVGID_00000063622924517127940960000004951595045400715169_);fill:#432923;" width="49.21" height="6.02"/>
						</g>
					</g>
					<g style="clip-path:url(#SVGID_00000181765444061221978990000009978455354453738116_);">
						<g>
							<path class="st25" d="M643.5,733.06c0,1.83-1.54,3.31-3.45,3.31h-10.02c-1.9,0-3.45-1.48-3.45-3.31v-4.14
								c0-1.83,1.54-3.31,3.45-3.31h10.02c1.91,0,3.45,1.48,3.45,3.31V733.06z"/>
							<path class="st25" d="M661.65,732.11c0,1.83-1.55,3.31-3.45,3.31h-9.67c-1.9,0-3.45-1.48-3.45-3.31v-1.5
								c0-1.83,1.54-3.31,3.45-3.31h9.67c1.9,0,3.45,1.48,3.45,3.31V732.11z"/>
							<path class="st25" d="M653.37,741.56c0,1.82-1.55,3.31-3.45,3.31h-7.2c-1.91,0-3.45-1.48-3.45-3.31v-0.8
								c0-1.83,1.54-3.31,3.45-3.31h7.2c1.9,0,3.45,1.49,3.45,3.31V741.56z"/>
						</g>
						<g>
							<path class="st25" d="M664.28,842.24c0,1.83-1.54,3.3-3.45,3.3h-10.02c-1.9,0-3.45-1.47-3.45-3.3v-4.14
								c0-1.83,1.55-3.31,3.45-3.31h10.02c1.91,0,3.45,1.48,3.45,3.31V842.24z"/>
							<path class="st32" d="M682.44,841.29c0,1.82-1.55,3.31-3.45,3.31h-9.67c-1.9,0-3.45-1.48-3.45-3.31v-1.5
								c0-1.83,1.55-3.31,3.45-3.31h9.67c1.9,0,3.45,1.49,3.45,3.31V841.29z"/>
							<path class="st32" d="M674.15,850.73c0,1.83-1.55,3.31-3.45,3.31h-7.2c-1.9,0-3.45-1.48-3.45-3.31v-0.79
								c0-1.83,1.54-3.31,3.45-3.31h7.2c1.9,0,3.45,1.48,3.45,3.31V850.73z"/>
						</g>
						<g>
							<path class="st32" d="M453.36,820.78c0,1.83-1.54,3.31-3.45,3.31h-10.02c-1.9,0-3.45-1.48-3.45-3.31v-4.13
								c0-1.83,1.55-3.31,3.45-3.31h10.02c1.91,0,3.45,1.48,3.45,3.31V820.78z"/>
							<path class="st25" d="M471.52,819.85c0,1.83-1.55,3.31-3.45,3.31h-9.67c-1.9,0-3.45-1.48-3.45-3.31v-1.5
								c0-1.83,1.55-3.31,3.45-3.31h9.67c1.9,0,3.45,1.48,3.45,3.31V819.85z"/>
							<path class="st25" d="M463.23,829.29c0,1.83-1.55,3.3-3.45,3.3h-7.2c-1.9,0-3.45-1.48-3.45-3.3v-0.79
								c0-1.83,1.55-3.31,3.45-3.31h7.2c1.9,0,3.45,1.48,3.45,3.31V829.29z"/>
						</g>
					</g>
				</g>
			</g>
			<g>
				<path class="st16" d="M452.48,677.88c0.05-3.11,0.72-18.15,8.51-19.22l5.1-20.68c0,0-4.02-0.51-10.62-1.12l-0.97,10.11h-5.09
					l1.21-10.51c-3.19-0.25-6.78-0.51-10.65-0.72l-1.08,11.24h-5.09l1.32-11.49c-3.59-0.16-7.37-0.29-11.27-0.37l0.08,11.85h-5.1
					l0.15-11.92c-3.66-0.02-7.41,0.01-11.18,0.11l1.36,11.81h-5.1l-1.12-11.64c-3.57,0.15-7.13,0.38-10.66,0.68l1.27,10.96h-5.1
					l-1.01-10.49c-3.64,0.4-7.22,0.89-10.68,1.49l5.69,18.77c0,0,10.81,1.59,9.74,21.69c-1.59,30.16-8.82,179.29-13.76,199.42
					c0,0,33.05,19.53,85.99,0.99C464.42,878.85,452.02,789.48,452.48,677.88z"/>
				<g>
					<defs>
						<path id="SVGID_00000109030446592627867680000001761285936759908781_" d="M452.48,677.88c0.05-3.11,0.72-18.15,8.51-19.22
							l5.1-20.68c0,0-4.02-0.51-10.62-1.12l-0.97,10.11h-5.09l1.21-10.51c-3.19-0.25-6.78-0.51-10.65-0.72l-1.08,11.24h-5.09
							l1.32-11.49c-3.59-0.16-7.37-0.29-11.27-0.37l0.08,11.85h-5.1l0.15-11.92c-3.66-0.02-7.41,0.01-11.18,0.11l1.36,11.81h-5.1
							l-1.12-11.64c-3.57,0.15-7.13,0.38-10.66,0.68l1.27,10.96h-5.1l-1.01-10.49c-3.64,0.4-7.22,0.89-10.68,1.49l5.69,18.77
							c0,0,10.81,1.59,9.74,21.69c-1.59,30.16-8.82,179.29-13.76,199.42c0,0,33.05,19.53,85.99,0.99
							C464.42,878.85,452.02,789.48,452.48,677.88z"/>
					</defs>
					<clipPath id="SVGID_00000039829325488658364280000006425166227821049252_">
						<use xlink:href="#SVGID_00000109030446592627867680000001761285936759908781_"  style="overflow:visible;"/>
					</clipPath>
					<g style="clip-path:url(#SVGID_00000039829325488658364280000006425166227821049252_);">
						<g>
							<path class="st18" d="M432.9,733.21c0,1.3-1.05,2.35-2.35,2.35h-6.83c-1.3,0-2.35-1.05-2.35-2.35v-2.94
								c0-1.3,1.05-2.35,2.35-2.35h6.83c1.3,0,2.35,1.05,2.35,2.35V733.21z"/>
							<path class="st18" d="M445.28,732.54c0,1.3-1.05,2.35-2.35,2.35h-6.6c-1.29,0-2.35-1.05-2.35-2.35v-1.06
								c0-1.29,1.05-2.35,2.35-2.35h6.6c1.3,0,2.35,1.05,2.35,2.35V732.54z"/>
							<path class="st18" d="M439.63,739.25c0,1.31-1.06,2.36-2.35,2.36h-4.91c-1.3,0-2.35-1.05-2.35-2.36v-0.56
								c0-1.31,1.05-2.36,2.35-2.36h4.91c1.3,0,2.35,1.05,2.35,2.36V739.25z"/>
						</g>
						<g>
							<path class="st18" d="M452.58,839.86c0,1.14-0.92,2.06-2.06,2.06h-5.98c-1.14,0-2.06-0.92-2.06-2.06v-2.57
								c0-1.14,0.92-2.06,2.06-2.06h5.98c1.14,0,2.06,0.92,2.06,2.06V839.86z"/>
							<path class="st18" d="M463.42,839.28c0,1.14-0.92,2.06-2.06,2.06h-5.77c-1.14,0-2.06-0.92-2.06-2.06v-0.93
								c0-1.14,0.92-2.06,2.06-2.06h5.77c1.14,0,2.06,0.92,2.06,2.06V839.28z"/>
							<path class="st18" d="M458.47,845.16c0,1.14-0.92,2.06-2.06,2.06h-4.3c-1.14,0-2.06-0.92-2.06-2.06v-0.49
								c0-1.14,0.92-2.06,2.06-2.06h4.3c1.14,0,2.06,0.92,2.06,2.06V845.16z"/>
						</g>
						<g>
							<path class="st18" d="M415.52,696.01c0-1.52,1.23-2.75,2.74-2.75h7.98c1.52,0,2.74,1.23,2.74,2.75v3.43
								c0,1.52-1.23,2.74-2.74,2.74h-7.98c-1.52,0-2.74-1.23-2.74-2.74V696.01z"/>
							<path class="st18" d="M401.07,696.79c0-1.52,1.23-2.75,2.75-2.75h7.7c1.52,0,2.74,1.23,2.74,2.75v1.25
								c0,1.52-1.23,2.75-2.74,2.75h-7.7c-1.52,0-2.75-1.23-2.75-2.75V696.79z"/>
							<path class="st18" d="M407.66,688.96c0-1.52,1.23-2.75,2.75-2.75h5.74c1.52,0,2.75,1.23,2.75,2.75v0.66
								c0,1.52-1.23,2.75-2.75,2.75h-5.74c-1.52,0-2.75-1.23-2.75-2.75V688.96z"/>
						</g>
						<g>
							<path class="st18" d="M395.59,795.54c0-1.32,1.07-2.38,2.38-2.38h6.93c1.32,0,2.38,1.06,2.38,2.38v2.98
								c0,1.32-1.07,2.38-2.38,2.38h-6.93c-1.32,0-2.38-1.06-2.38-2.38V795.54z"/>
							<path class="st18" d="M383.04,796.22c0-1.32,1.07-2.39,2.38-2.39h6.69c1.32,0,2.38,1.07,2.38,2.39v1.08
								c0,1.32-1.07,2.38-2.38,2.38h-6.69c-1.32,0-2.38-1.06-2.38-2.38V796.22z"/>
							<path class="st18" d="M388.76,789.41c0-1.31,1.07-2.38,2.38-2.38h4.98c1.31,0,2.38,1.07,2.38,2.38v0.57
								c0,1.32-1.07,2.39-2.38,2.39h-4.98c-1.32,0-2.38-1.06-2.38-2.39V789.41z"/>
						</g>
					</g>
				</g>
				<path class="st13" d="M429.96,715.95v-25.21c0,0,0-7.87-7.88-7.87c0,0-7.59-0.14-7.59,8.16v24.92H429.96z"/>
			</g>
			<g>
				<path class="st23" d="M722.38,707.85c1.62-0.12,12.64-0.76,28.88-1.45l-1.37,17.61h13.83v-18.12
					c7.12-0.27,14.86-0.54,22.99-0.78l-1.47,18.89h13.83v-19.22c7.03-0.17,14.25-0.3,21.52-0.4v19.62h13.83l-1.54-19.73
					c7.77-0.05,15.51-0.03,23.06,0.07v19.66h13.83l-1.52-19.44c8.1,0.2,15.86,0.51,23.04,0.94v18.5h13.83l-1.37-17.55
					c11.19,1.05,20.22,2.55,25.83,4.61c-1.03,4.1-0.52,9.74-0.52,13.83c0,28.18,3.18,112.7,0.1,127.05
					c-1.45,8.21,1.73,17.78,1.74,26.14l-197.53,3.56C729.26,873.47,720.33,726.29,722.38,707.85z"/>
				<g>
					<defs>
						<path id="SVGID_00000179618006747020324850000017833554140637762985_" d="M722.38,707.85c1.62-0.12,12.64-0.76,28.88-1.45
							l-1.37,17.61h13.83v-18.12c7.12-0.27,14.86-0.54,22.99-0.78l-1.47,18.89h13.83v-19.22c7.03-0.17,14.25-0.3,21.52-0.4v19.62
							h13.83l-1.54-19.73c7.77-0.05,15.51-0.03,23.06,0.07v19.66h13.83l-1.52-19.44c8.1,0.2,15.86,0.51,23.04,0.94v18.5h13.83
							l-1.37-17.55c11.19,1.05,20.22,2.55,25.83,4.61c-1.03,4.1-0.52,9.74-0.52,13.83c0,28.18,3.18,112.7,0.1,127.05
							c-1.45,8.21,1.73,17.78,1.74,26.14l-197.53,3.56C729.26,873.47,720.33,726.29,722.38,707.85z"/>
					</defs>
					<clipPath id="SVGID_00000078035470801232115990000005809097001699739012_">
						<use xlink:href="#SVGID_00000179618006747020324850000017833554140637762985_"  style="overflow:visible;"/>
					</clipPath>
					<g style="clip-path:url(#SVGID_00000078035470801232115990000005809097001699739012_);">
						<g>
							<path class="st25" d="M750.17,742.88c0,1.7,1.38,3.07,3.08,3.07h8.93c1.69,0,3.07-1.38,3.07-3.07v-3.84
								c0-1.7-1.38-3.07-3.07-3.07h-8.93c-1.7,0-3.08,1.38-3.08,3.07V742.88z"/>
							<path class="st25" d="M733.99,742c0,1.7,1.38,3.07,3.07,3.07h8.62c1.7,0,3.08-1.38,3.08-3.07v-1.39
								c0-1.69-1.38-3.07-3.08-3.07h-8.62c-1.7,0-3.07,1.38-3.07,3.07V742z"/>
							<path class="st25" d="M741.37,750.78c0,1.7,1.38,3.07,3.07,3.07h6.42c1.69,0,3.07-1.38,3.07-3.07v-0.74
								c0-1.7-1.38-3.08-3.07-3.08h-6.42c-1.7,0-3.07,1.38-3.07,3.08V750.78z"/>
						</g>
						<g>
							<path class="st25" d="M731.65,844.27c0,1.7,1.37,3.08,3.07,3.08h8.93c1.7,0,3.08-1.38,3.08-3.08v-3.84
								c0-1.7-1.38-3.07-3.08-3.07h-8.93c-1.7,0-3.07,1.38-3.07,3.07V844.27z"/>
							<path class="st25" d="M715.47,843.39c0,1.7,1.38,3.07,3.07,3.07h8.62c1.7,0,3.07-1.38,3.07-3.07V842
								c0-1.7-1.37-3.08-3.07-3.08h-8.62c-1.7,0-3.07,1.38-3.07,3.08V843.39z"/>
							<path class="st25" d="M722.85,852.16c0,1.7,1.38,3.07,3.07,3.07h6.42c1.7,0,3.07-1.37,3.07-3.07v-0.74
								c0-1.7-1.38-3.07-3.07-3.07h-6.42c-1.7,0-3.07,1.37-3.07,3.07V852.16z"/>
						</g>
						<g>
							<path class="st25" d="M909.79,737.13c0,1.7,1.38,3.07,3.07,3.07h8.93c1.7,0,3.07-1.38,3.07-3.07v-3.84
								c0-1.7-1.38-3.07-3.07-3.07h-8.93c-1.7,0-3.07,1.37-3.07,3.07V737.13z"/>
							<path class="st25" d="M893.61,736.26c0,1.69,1.38,3.07,3.07,3.07h8.62c1.7,0,3.07-1.38,3.07-3.07v-1.39
								c0-1.7-1.38-3.07-3.07-3.07h-8.62c-1.7,0-3.07,1.38-3.07,3.07V736.26z"/>
							<path class="st25" d="M900.99,745.03c0,1.7,1.38,3.07,3.07,3.07h6.42c1.7,0,3.08-1.37,3.08-3.07v-0.74
								c0-1.7-1.38-3.07-3.08-3.07h-6.42c-1.69,0-3.07,1.37-3.07,3.07V745.03z"/>
						</g>
						<g>
							<path class="st25" d="M919.65,824.35c0,1.7,1.38,3.07,3.08,3.07h8.93c1.7,0,3.07-1.38,3.07-3.07v-3.84
								c0-1.7-1.38-3.07-3.07-3.07h-8.93c-1.7,0-3.08,1.37-3.08,3.07V824.35z"/>
							<path class="st25" d="M903.47,823.48c0,1.7,1.38,3.07,3.07,3.07h8.62c1.7,0,3.07-1.38,3.07-3.07v-1.39
								c0-1.7-1.37-3.07-3.07-3.07h-8.62c-1.7,0-3.07,1.37-3.07,3.07V823.48z"/>
							<path class="st25" d="M910.86,832.25c0,1.7,1.38,3.07,3.07,3.07h6.42c1.7,0,3.07-1.38,3.07-3.07v-0.74
								c0-1.7-1.38-3.07-3.07-3.07h-6.42c-1.69,0-3.07,1.38-3.07,3.07V832.25z"/>
						</g>
					</g>
				</g>
				<g>
					<path class="st13" d="M859.24,787.21v-13.37c0,0,0-4.18,4.18-4.18c0,0,4.03-0.08,4.03,4.33v13.21H859.24z"/>
					<path class="st13" d="M791.66,787.21v-13.37c0,0,0-4.18,4.18-4.18c0,0,4.02-0.08,4.02,4.33v13.21H791.66z"/>
				</g>
			</g>
			<g>
				<path class="st16" d="M924.86,677.88c-0.06-3.11-0.72-18.15-8.51-19.22l-5.1-20.68c0,0,4.02-0.51,10.62-1.12l0.97,10.11h5.1
					l-1.21-10.51c3.19-0.25,6.78-0.51,10.65-0.72l1.08,11.24h5.1l-1.33-11.49c3.59-0.16,7.37-0.29,11.27-0.37l-0.08,11.85h5.1
					l-0.15-11.92c3.67-0.02,7.41,0.01,11.18,0.11l-1.36,11.81h5.09l1.12-11.64c3.57,0.15,7.14,0.38,10.66,0.68l-1.26,10.96h5.09
					l1.01-10.49c3.64,0.4,7.22,0.89,10.68,1.49l-5.69,18.77c0,0-10.81,1.59-9.74,21.69c1.59,30.16,8.82,179.29,13.77,199.42
					c0,0-33.05,19.53-86,0.99C912.92,878.85,925.32,789.48,924.86,677.88z"/>
				<g>
					<defs>
						<path id="SVGID_00000005250729946681451290000016286589042029072574_" d="M924.86,677.88c-0.06-3.11-0.72-18.15-8.51-19.22
							l-5.1-20.68c0,0,4.02-0.51,10.62-1.12l0.97,10.11h5.1l-1.21-10.51c3.19-0.25,6.78-0.51,10.65-0.72l1.08,11.24h5.1l-1.33-11.49
							c3.59-0.16,7.37-0.29,11.27-0.37l-0.08,11.85h5.1l-0.15-11.92c3.67-0.02,7.41,0.01,11.18,0.11l-1.36,11.81h5.09l1.12-11.64
							c3.57,0.15,7.14,0.38,10.66,0.68l-1.26,10.96h5.09l1.01-10.49c3.64,0.4,7.22,0.89,10.68,1.49l-5.69,18.77
							c0,0-10.81,1.59-9.74,21.69c1.59,30.16,8.82,179.29,13.77,199.42c0,0-33.05,19.53-86,0.99
							C912.92,878.85,925.32,789.48,924.86,677.88z"/>
					</defs>
					<clipPath id="SVGID_00000146479329132440225070000006213896418409444784_">
						<use xlink:href="#SVGID_00000005250729946681451290000016286589042029072574_"  style="overflow:visible;"/>
					</clipPath>
					<g style="clip-path:url(#SVGID_00000146479329132440225070000006213896418409444784_);">
						<g>
							<path class="st18" d="M944.44,733.21c0,1.3,1.05,2.35,2.35,2.35h6.83c1.3,0,2.35-1.05,2.35-2.35v-2.94
								c0-1.3-1.05-2.35-2.35-2.35h-6.83c-1.3,0-2.35,1.05-2.35,2.35V733.21z"/>
							<path class="st18" d="M932.07,732.54c0,1.3,1.05,2.35,2.35,2.35h6.59c1.3,0,2.35-1.05,2.35-2.35v-1.06
								c0-1.29-1.05-2.35-2.35-2.35h-6.59c-1.3,0-2.35,1.05-2.35,2.35V732.54z"/>
							<path class="st18" d="M937.71,739.25c0,1.31,1.05,2.36,2.35,2.36h4.91c1.3,0,2.35-1.05,2.35-2.36v-0.56
								c0-1.31-1.05-2.36-2.35-2.36h-4.91c-1.3,0-2.35,1.05-2.35,2.36V739.25z"/>
						</g>
						<g>
							<path class="st18" d="M924.76,839.86c0,1.14,0.92,2.06,2.06,2.06h5.98c1.13,0,2.05-0.92,2.05-2.06v-2.57
								c0-1.14-0.92-2.06-2.05-2.06h-5.98c-1.14,0-2.06,0.92-2.06,2.06V839.86z"/>
							<path class="st18" d="M913.93,839.28c0,1.14,0.92,2.06,2.06,2.06h5.77c1.14,0,2.06-0.92,2.06-2.06v-0.93
								c0-1.14-0.92-2.06-2.06-2.06h-5.77c-1.14,0-2.06,0.92-2.06,2.06V839.28z"/>
							<path class="st18" d="M918.87,845.16c0,1.14,0.92,2.06,2.05,2.06h4.3c1.13,0,2.06-0.92,2.06-2.06v-0.49
								c0-1.14-0.92-2.06-2.06-2.06h-4.3c-1.13,0-2.05,0.92-2.05,2.06V845.16z"/>
						</g>
						<g>
							<path class="st18" d="M961.82,696.01c0-1.52-1.23-2.75-2.75-2.75h-7.98c-1.51,0-2.74,1.23-2.74,2.75v3.43
								c0,1.52,1.23,2.74,2.74,2.74h7.98c1.52,0,2.75-1.23,2.75-2.74V696.01z"/>
							<path class="st18" d="M976.28,696.79c0-1.52-1.23-2.75-2.75-2.75h-7.7c-1.52,0-2.75,1.23-2.75,2.75v1.25
								c0,1.52,1.23,2.75,2.75,2.75h7.7c1.52,0,2.75-1.23,2.75-2.75V696.79z"/>
							<path class="st18" d="M969.68,688.96c0-1.52-1.23-2.75-2.75-2.75h-5.74c-1.51,0-2.74,1.23-2.74,2.75v0.66
								c0,1.52,1.23,2.75,2.74,2.75h5.74c1.52,0,2.75-1.23,2.75-2.75V688.96z"/>
						</g>
						<g>
							<path class="st18" d="M981.76,795.54c0-1.32-1.06-2.38-2.39-2.38h-6.93c-1.32,0-2.38,1.06-2.38,2.38v2.98
								c0,1.32,1.07,2.38,2.38,2.38h6.93c1.32,0,2.39-1.06,2.39-2.38V795.54z"/>
							<path class="st18" d="M994.31,796.22c0-1.32-1.07-2.39-2.38-2.39h-6.69c-1.32,0-2.38,1.07-2.38,2.39v1.08
								c0,1.32,1.06,2.38,2.38,2.38h6.69c1.32,0,2.38-1.06,2.38-2.38V796.22z"/>
							<path class="st18" d="M988.58,789.41c0-1.31-1.07-2.38-2.38-2.38h-4.98c-1.32,0-2.39,1.07-2.39,2.38v0.57
								c0,1.32,1.07,2.39,2.39,2.39h4.98c1.31,0,2.38-1.06,2.38-2.39V789.41z"/>
						</g>
					</g>
				</g>
				<path class="st13" d="M948.26,715.95v-25.21c0,0,0-7.87,7.88-7.87c0,0,7.59-0.14,7.59,8.16v24.92H948.26z"/>
			</g>
			<g>
				<path class="st16" d="M666.23,681.32c-0.05-3.1-0.72-18.14-8.51-19.22l-5.1-20.68c0,0,4.02-0.51,10.62-1.12l0.98,10.11h5.09
					l-1.21-10.51c3.19-0.25,6.78-0.51,10.65-0.72l1.08,11.24h5.09l-1.33-11.49c3.59-0.16,7.37-0.29,11.27-0.37l-0.08,11.85h5.1
					l-0.15-11.92c3.67-0.02,7.41,0.01,11.18,0.11l-1.36,11.81h5.09l1.12-11.64c3.57,0.15,7.13,0.38,10.66,0.68l-1.26,10.96h5.09
					l1.01-10.49c3.65,0.4,7.22,0.89,10.69,1.5l-5.7,18.77c0,0-10.81,1.59-9.74,21.69c1.59,30.16,8.82,179.3,13.77,199.43
					c0,0-33.05,19.52-86,0.99C654.29,882.3,666.69,792.93,666.23,681.32z"/>
				<g>
					<defs>
						<path id="SVGID_00000103263914692019638110000008277933112287837569_" d="M666.23,681.32c-0.05-3.1-0.72-18.14-8.51-19.22
							l-5.1-20.68c0,0,4.02-0.51,10.62-1.12l0.98,10.11h5.09l-1.21-10.51c3.19-0.25,6.78-0.51,10.65-0.72l1.08,11.24h5.09
							l-1.33-11.49c3.59-0.16,7.37-0.29,11.27-0.37l-0.08,11.85h5.1l-0.15-11.92c3.67-0.02,7.41,0.01,11.18,0.11l-1.36,11.81h5.09
							l1.12-11.64c3.57,0.15,7.13,0.38,10.66,0.68l-1.26,10.96h5.09l1.01-10.49c3.65,0.4,7.22,0.89,10.69,1.5l-5.7,18.77
							c0,0-10.81,1.59-9.74,21.69c1.59,30.16,8.82,179.3,13.77,199.43c0,0-33.05,19.52-86,0.99
							C654.29,882.3,666.69,792.93,666.23,681.32z"/>
					</defs>
					<clipPath id="SVGID_00000136412455700749897610000000884458277982155696_">
						<use xlink:href="#SVGID_00000103263914692019638110000008277933112287837569_"  style="overflow:visible;"/>
					</clipPath>
					<g style="clip-path:url(#SVGID_00000136412455700749897610000000884458277982155696_);">
						<g>
							<path class="st18" d="M685.81,736.66c0,1.3,1.05,2.35,2.35,2.35H695c1.3,0,2.35-1.05,2.35-2.35v-2.94
								c0-1.3-1.05-2.35-2.35-2.35h-6.83c-1.3,0-2.35,1.06-2.35,2.35V736.66z"/>
							<path class="st18" d="M673.44,735.98c0,1.3,1.05,2.35,2.35,2.35h6.6c1.3,0,2.35-1.05,2.35-2.35v-1.06
								c0-1.29-1.05-2.35-2.35-2.35h-6.6c-1.3,0-2.35,1.06-2.35,2.35V735.98z"/>
							<path class="st18" d="M679.08,742.7c0,1.3,1.05,2.36,2.35,2.36h4.91c1.3,0,2.35-1.05,2.35-2.36v-0.56
								c0-1.3-1.05-2.36-2.35-2.36h-4.91c-1.3,0-2.35,1.06-2.35,2.36V742.7z"/>
						</g>
						<g>
							<path class="st18" d="M666.14,843.31c0,1.14,0.92,2.06,2.06,2.06h5.98c1.14,0,2.06-0.92,2.06-2.06v-2.57
								c0-1.13-0.92-2.05-2.06-2.05h-5.98c-1.14,0-2.06,0.92-2.06,2.05V843.31z"/>
							<path class="st18" d="M655.3,842.73c0,1.14,0.92,2.06,2.06,2.06h5.77c1.14,0,2.06-0.92,2.06-2.06v-0.93
								c0-1.14-0.92-2.06-2.06-2.06h-5.77c-1.14,0-2.06,0.92-2.06,2.06V842.73z"/>
							<path class="st18" d="M660.24,848.6c0,1.14,0.92,2.06,2.06,2.06h4.3c1.13,0,2.06-0.92,2.06-2.06v-0.49
								c0-1.14-0.92-2.06-2.06-2.06h-4.3c-1.13,0-2.06,0.92-2.06,2.06V848.6z"/>
						</g>
						<g>
							<path class="st18" d="M703.19,699.46c0-1.52-1.23-2.75-2.75-2.75h-7.98c-1.52,0-2.75,1.23-2.75,2.75v3.43
								c0,1.52,1.23,2.74,2.75,2.74h7.98c1.52,0,2.75-1.23,2.75-2.74V699.46z"/>
							<path class="st18" d="M717.65,700.24c0-1.52-1.23-2.75-2.75-2.75h-7.7c-1.52,0-2.75,1.23-2.75,2.75v1.25
								c0,1.51,1.23,2.75,2.75,2.75h7.7c1.52,0,2.75-1.24,2.75-2.75V700.24z"/>
							<path class="st18" d="M711.05,692.41c0-1.52-1.23-2.75-2.75-2.75h-5.74c-1.52,0-2.75,1.24-2.75,2.75v0.66
								c0,1.52,1.23,2.75,2.75,2.75h5.74c1.52,0,2.75-1.23,2.75-2.75V692.41z"/>
						</g>
						<g>
							<path class="st18" d="M723.13,798.99c0-1.32-1.07-2.39-2.39-2.39h-6.93c-1.32,0-2.38,1.06-2.38,2.39v2.98
								c0,1.31,1.07,2.38,2.38,2.38h6.93c1.32,0,2.39-1.07,2.39-2.38V798.99z"/>
							<path class="st18" d="M735.68,799.67c0-1.32-1.06-2.39-2.38-2.39h-6.69c-1.32,0-2.38,1.07-2.38,2.39v1.08
								c0,1.32,1.07,2.38,2.38,2.38h6.69c1.32,0,2.38-1.06,2.38-2.38V799.67z"/>
							<path class="st18" d="M729.95,792.86c0-1.32-1.07-2.38-2.38-2.38h-4.98c-1.32,0-2.38,1.06-2.38,2.38v0.58
								c0,1.32,1.07,2.38,2.38,2.38h4.98c1.32,0,2.38-1.06,2.38-2.38V792.86z"/>
						</g>
					</g>
				</g>
				<path class="st13" d="M704.66,715.95v-25.21c0,0,0-7.87-7.88-7.87c0,0-7.59-0.14-7.59,8.16v24.92H704.66z"/>
			</g>
		</g>
	</g>
</g>
</svg>
