<?xml version="1.0" encoding="utf-8"?>
<!-- Generator: Adobe Illustrator 26.0.3, SVG Export Plug-In . SVG Version: 6.00 Build 0)  -->
<svg version="1.1" id="Layer_1" xmlns="http://www.w3.org/2000/svg" xmlns:xlink="http://www.w3.org/1999/xlink" x="0px" y="0px"
	 viewBox="0 0 1133.86 1133.86" style="enable-background:new 0 0 1133.86 1133.86;" xml:space="preserve">
<style type="text/css">
	.st0{fill:#E8A327;}
	.st1{fill:#BC7F1E;}
	.st2{fill:#CB0000;}
	.st3{fill:#E58E71;}
	.st4{fill:#F9EB37;}
	.st5{fill:#D7CA30;}
	.st6{fill:#A1C832;}
	.st7{fill:#CFE76A;}
	.st8{fill:#7FA928;}
	.st9{fill:#A70000;}
	.st10{fill:#FFFFFF;}
	.st11{fill:#E5929B;}
</style>
<g>
	<path d="M958.58,939.4c-18.49-0.29-32.28,2.46-45.6,5.5c-0.4-12.43-2.08-26.89-7.47-37.88c-1.01-2.07-20.27-1.15-24.61,2.77
		c4.1,18.76,8.17,49.83,7.74,64.71c4.74,0.43,70.13,0.51,84.25-0.37C976.48,963.36,977.07,939.69,958.58,939.4z"/>
	<path class="st0" d="M967.23,964.37c-7.44,1.21-58.42,2.8-71.72,1.22c-0.01-16.98-3.09-35.28-6.97-51.88
		c1.42-1.68,7.34-2.77,10.78-3.02c5.26,11.21,7.33,31.47,6.68,42.25c14.12-3.32,35.37-7.1,48.7-6.45
		C968.03,947.14,967.93,959.23,967.23,964.37z"/>
	<path class="st1" d="M903.35,923.33c-1.04-4.72-2.37-9.12-4.02-12.64c-3.43,0.25-9.36,1.34-10.78,3.02
		c0.76,3.27,1.48,6.61,2.17,9.98C894.96,923.7,899.18,923.65,903.35,923.33z"/>
	<path d="M978.42,710.32c-40.29,3.16-70.13,41.82-66.63,86.35c3.49,44.53,38.98,78.07,79.27,74.92
		c40.29-3.16,70.12-41.82,66.64-86.35C1054.2,740.71,1018.71,707.16,978.42,710.32z"/>
	<path class="st2" d="M982.82,741.82c11.1-3.53,17.84-10.72,20.52-20c-7.74-2.87-16.08-4.15-24.68-3.47
		c-14.3,1.12-27.07,7.44-36.93,17.16C953.46,743.27,969.4,746.08,982.82,741.82z"/>
	<path class="st3" d="M957.83,729.17c8.15-1.2,16.62-2.91,24.88-2.88c6.04,0.02,12,0.75,17.7,2.29c1.25-2.1,2.23-4.36,2.93-6.77
		c-7.74-2.87-16.08-4.15-24.68-3.47c-12.33,0.96-23.51,5.8-32.68,13.34C949.76,730.5,953.75,729.77,957.83,729.17z"/>
	<path class="st4" d="M1017.53,825.77c-19.02-13.64-63.56-9.04-76.08,12.68c12.58,12.95,29.76,20.34,48.1,18.9
		c16.19-1.27,30.42-9.19,40.7-21.18C1025.87,832.09,1021.4,828.54,1017.53,825.77z"/>
	<path class="st5" d="M989.55,857.35c2.28-0.18,4.52-0.5,6.72-0.94c1.82-12.72,1.94-25.57-0.81-37.97
		c-20.49-2.08-45.19,4.71-54.01,20.01C954.02,851.4,971.21,858.79,989.55,857.35z"/>
	<path class="st6" d="M1009.2,724.35c-3.21,10.52-10.74,19.11-22.76,22.93c-16.36,5.2-34.89,2.63-49.04-7.08
		c-11.41,13.67-17.76,32.42-16.18,52.58c1.23,15.72,7.09,29.84,15.97,40.86c1.86-2.72,3.94-5.26,6.3-7.57
		c0.12-0.2,0.26-0.4,0.43-0.59c18.93-21.13,53.71-21.7,76.06-5.68c4.4,3.15,9.31,7.04,14.09,11.47
		c9.33-13.18,14.34-30.19,12.92-48.34C1044.92,756.5,1029.77,734.57,1009.2,724.35z"/>
	<path class="st7" d="M1022.09,740.19c10.25,9.23,18.01,20.47,23.46,32.78c-4.62-21.92-18.42-39.72-36.34-48.62
		c-0.67,2.2-1.57,4.28-2.62,6.28C1012.18,732.86,1017.42,735.99,1022.09,740.19z"/>
	<path class="st8" d="M991.99,806.88c-9.37-24.21-33.87-54.07-61.79-56.16c-6.76,12.11-10.18,26.67-8.98,42.06
		c1.23,15.72,7.09,29.84,15.97,40.86c1.86-2.72,3.94-5.26,6.3-7.57c0.12-0.2,0.26-0.4,0.43-0.59c12.22-13.64,31.04-18.7,48.87-16.28
		C992.52,808.43,992.29,807.65,991.99,806.88z"/>
	<ellipse cx="898.92" cy="822.15" rx="86.73" ry="95.86"/>
	<path class="st2" d="M901.2,763.92c13.44-3.14,22.08-11.02,26.1-21.73c-8.88-4.11-18.62-6.38-28.85-6.38
		c-17,0-32.67,6.29-45.23,16.85C866.37,762.91,884.95,767.71,901.2,763.92z"/>
	<path class="st3" d="M921.7,751.83c2.37-2.87,4.26-6.08,5.6-9.64c-8.88-4.11-18.62-6.38-28.85-6.38
		c-16.54,0-31.81,5.96-44.19,16.01C875.74,746.29,900.32,745.11,921.7,751.83z"/>
	<path class="st4" d="M934.44,866.32c-21.22-17.88-74.26-16.56-91.08,7.94c13.67,16.46,33.28,26.79,55.09,26.79
		c19.25,0,36.79-8.05,50.05-21.26C943.7,874.56,938.76,869.95,934.44,866.32z"/>
	<path class="st5" d="M872.17,895.77c2.68-13.4,3.12-27.52,2.31-39.61c-13.11,2.84-24.72,8.79-31.11,18.1
		C851.23,883.73,861.08,891.16,872.17,895.77z"/>
	<path class="st6" d="M933.99,745.72c-4.77,12.13-14.46,21.59-29.02,24.99c-19.81,4.63-41.47-0.12-57.28-12.91
		c-14.75,15.09-23.99,36.66-23.99,60.63c0,18.68,5.62,35.91,15.08,49.76c2.45-3.04,5.14-5.86,8.15-8.36
		c0.15-0.23,0.34-0.45,0.56-0.66c24.32-23.21,65.47-20.67,90.39,0.33c4.9,4.13,10.34,9.18,15.58,14.86
		c12.25-14.72,19.74-34.35,19.74-55.92C973.21,787.01,957.35,759.69,933.99,745.72z"/>
	<path class="st7" d="M947.7,765.74c8.79,7.34,15.74,15.89,21.27,25.23c-6.2-19.44-18.78-35.56-34.98-45.25
		c-1.24,3.16-2.83,6.14-4.75,8.88C935.88,757.4,942.11,761.07,947.7,765.74z"/>
	<path class="st8" d="M855.44,802.78c-4.87-5.79-10.38-10.9-15.46-16.49c-2.18-2.4-4.19-5.75-6.69-8.33
		c-6.1,11.96-9.59,25.76-9.59,40.46c0,18.68,5.62,35.91,15.08,49.76c2.45-3.04,5.14-5.86,8.15-8.36c0.15-0.23,0.34-0.45,0.56-0.66
		c7.36-7.02,16.27-11.67,25.79-14.19C870.98,829.52,865.67,814.94,855.44,802.78z"/>
	<path d="M855.16,975.09c-21.07-2.09-45.89-1.1-59.36-0.83c0.02-8.14-2.74-31.12-5.55-36.62c51.56-21.17,72.96-58.67,74.23-103.15
		c0.66-22.84-5.08-46.57-16.01-66.59c-9.12-16.71-25.31-31.4-42.9-38.3c-22.39-8.76-66.56-10.19-81.56,12.31
		c-33.72-39-94.54-44.64-120.88-22.69c-8.86-26.56-41.2-50.45-59.33-52.2c0.58-37.31-14.73-76.33-47.41-93.52
		c10.47-6.57,20.11-14.43,28.4-23.61c9.95-11.03,17.21-23.69,22.06-37.14c7.1,10.21,42.19,37.25,83.3,36.95
		c-0.23,16.66,8.77,30.47,24.56,39.83c21.59,12.79,56.47,17.98,82.42,11.49c2.95-0.74,2.01-18.45,1.88-19.05
		c6.45,0,18.02,0.26,20.27-3.22c2.53-3.9,2.54-28.58,1.8-31.53c-0.74-2.95-7.77-3.68-10.33-3.67c-0.03-1.49-0.87-14.98-2.76-19.81
		c-1.68-4.27-46.74,0.91-53.24,1.01c3-5.66,22.48-6.26,31.32-21.74c1.51-2.64-14.19-23.77-18.79-19.16s-19.24,8.27-31,11.05
		c-9.95,2.36-21.77,10.84-25.01,21c-35.42,0.77-73.83-10.86-97.28-44.96c-0.77-23.52-7.78-51.25-20.84-71.02
		c59.85-18.77,100.61-68.58,98.25-137.66c-1.2-35.25-19.26-64.86-44.15-84.66c-7.63-22.06-9.33-45.25-6.43-55.07
		c22.83-0.92,40.96-18.33,40.93-35.42c-0.03-15.84-9.9-28-34.22-26.58c-23.73,1.38-34,16.9-35.45,32.21
		c-1.3,13.62,8.52,23.33,20.5,27.7c-6.72,13.11-3.69,40.83-0.22,47.95c-21.01-11.52-49.41-15.13-73.8-13.58
		c6.56-16.88,11.34-37.34,7.29-47.96c21.18-5.59,30.03-23.05,28.19-41.96c-1.36-13.97-18.9-26.97-44.07-20.75
		c-13.26,3.28-23.9,17.85-22.92,31.68c1.35,18.94,14.25,29.46,30.91,30.98c2.47,17.66-6.58,38.87-15.63,49.9
		c-90.79,23.74-120.58,85.57-117.83,145.73c1.08,23.65,10.33,46.09,23.03,61.41c-37.61,11.16-70.02,49.06-83.54,85.88
		c-15.36,14.15-63.73,44.56-101.69,42.16c-0.69-6.63-7.18-15.33-8.57-21.92c-1.76-8.38-2.45-16.56,1.38-25.58
		c0.56-1.31-21.08-12.68-27.5-2.36c-5.11,8.2-5.47,24.68-5.06,36.03c-2.23-0.51-61.46-11.76-63.34-9.75
		c-4.42,4.75-8.33,23.92-8.07,27.12c-3.39-0.69-10.3-2.07-12.61,1.15c-2.31,3.22-4.93,35.56,0.99,35.52
		c5.92-0.04,31.86-1.8,47.75-3.13c-11.47,7.36-26.76,14.42-38.61,21.52c-4.61,2.76,12.29,31.88,19.81,27.64
		c11.93-6.72,27.62-16.44,38.36-23.12c28.44,9.03,56.55-12.38,60.69-30.32c39.62,3.21,73.66-12.8,89.42-23.73
		c3.1,26.15,16.69,49.16,36.64,65.96c-45.85,23.17-61.84,80.38-57.13,119.11c4.97,40.88,27.97,74.3,60.9,95.69
		c-16.43,33.52-3.63,72.4,21.86,98.68c-22.45,14.76-27.78,60.71-15.5,87.56c-9.79-2.48-42.01-3.36-77.27-3.36
		s-42.02,39.79-38.7,50.1c32.39,2.58,167.17,3.42,191.47-1.37c-2.09-5.91-8.09-19.88-12.88-27.61c24.29,0,56.39-0.03,79.53-4.78
		c-13.62-22.46-21.36-51.91-16.46-62.64c16.26-1.25,32.36-5.13,47.62-11.46c3.15,8.42,9.54,15.41,17.12,21.13
		c12.1,52.23-15.88,107.82-29.87,136.16c19.76,10.53,139.39,28,158.28,27.23c4.69-19.47-3.28-42.16-27.99-46.78
		c-24.71-4.62-54.64-9.11-67.71-11.75c10.86-26.48,14.31-58.41,6.03-86.63c18.17,4.88,37.87,5.86,56.54,4.64
		c7.37,17.21,13.63,46.65,8.11,83.09c32.39,7.73,97.91,10.68,132.14,10.31c2.58-8.47,5.51-33.42-18.57-36.64
		c-24.08-3.23-60.97-2.9-71.47-3.12c6.48-19.5,3.91-44.53-4.67-63.64c10.56-4.33,20.39-9.99,29.27-16.82
		c11.64,14.07,31.96,18.76,51.78,18.6c7.77,14.76,12.56,51.94,10.27,62.75c30.52,6.45,75.55,7.59,104.63,5.75
		C875.31,1002.98,876.23,977.18,855.16,975.09z M433.19,952.18c-9.73,0.18-32.4,0.37-46.75-0.36c-4.74-7.53-11.78-38.65-2.8-54.61
		c12.73,10.07,36.28,17.53,49.18,20C428.16,928.32,427.54,941.56,433.19,952.18z"/>
	<path class="st0" d="M553.09,480.43c21.63,28.44,60.95,43.58,97.6,43.09c-0.39,4.83,2.84,15.42,3.76,10.82
		c1.43-7.13,1.98-28.62,28.11-34.1c9.32-1.95,20.05-4.14,27.29-9.76c3.72,1.92,8.46,7.96,9.53,11.2
		c-5.98,10.75-32.49,13.69-37.75,27.13c-4.15,10.6,0.65,13.51,1.77,11.34c1.73-3.37,2.98-6.49,4.55-9.35
		c13.49-0.15,48.28-1.51,52.19-1.07c3.92,0.44,3.23,10.13,3.23,14.74c-1.07,0.28-32.29,3.27-43.63,3.04
		c-1.81-0.04-1.69,2.57-0.15,2.98c16.47,4.33,49.87,1.29,52.11,1.09c2.25-0.2,0.91,17.71-1.3,19.91
		c-1.87,1.87-33.76,1.15-55.32-0.08c-3.81-0.22,13.65,6.4,33.76,8.73c0.89,3.2,0.89,14.09-1.32,14.26
		c-14.37,1.11-50.17-2.04-69.06-14.02c-16.36-10.38-19.69-24.38-18.83-40.65c-22.52,2.45-64.48-3.7-89.36-37.09
		C551.26,498.11,552.63,485.03,553.09,480.43z"/>
	<path class="st1" d="M556.59,484.68c-1.2-1.39-2.39-2.8-3.5-4.26c-0.46,4.6-1.83,17.69-2.8,22.2c2.73,3.66,5.67,6.97,8.76,10
		C557.86,503.35,556.98,494.05,556.59,484.68z"/>
	<path class="st0" d="M295.37,488.19c-16.73,18.84-67.85,30.88-93.32,25.7c-2.7,29.05-46.87,37.41-54.23,31.05
		c-8.46,3.5-32.92,19.8-37.99,22.1c-5.07,2.3-13.99-12.07-11.37-13.4c2.62-1.34,30.49-17.88,44.75-28.48
		c2.58-1.92-37.33-3.77-58.26-2.35c-0.9-7.32-0.79-13.42,1.38-20.27c21.65,1.38,43.31,5.07,65.27,7.37
		c2.98,0.31-3.21-5.48-14.03-7.51c-10.82-2.03-25.67-5.24-36.52-6.08c-0.22-5.9,1.64-16.59,3.71-20.95
		c18.83,1.34,51.98,6.4,70.5,11.17c2.14,0.55-2.36-4.45-6.9-6.64c-1.22-11.87,0.06-30.12,4.25-34.24c4.18-4.12,12.3-0.74,15.57,2.76
		c-5.09,22.34,7.81,37.54,8.27,48.6c20.36,5.42,73.43-8.89,105.23-37C298.3,469.71,295.73,483.91,295.37,488.19z"/>
	<path class="st1" d="M287.44,480.07c-3.88,6.93-8.34,14.05-11.5,21.46c8.14-3.84,15.01-8.34,19.44-13.33
		c0.34-4.04,2.64-16.86,5.74-26.44C295.37,466.76,291.21,473.34,287.44,480.07z"/>
	<path class="st2" d="M770.46,732.44c26.6,0,46.1,9.58,56.54,22.21c-2.64,29.21-42.47,16.37-50.86,11.83
		C763.02,759.39,758.06,745.2,770.46,732.44z"/>
	<path class="st3" d="M822.15,761.55c0.77,0.7,1.5,1.44,2.24,2.18c1.36-2.44,2.27-5.43,2.6-9.09
		c-10.44-12.63-29.94-22.21-56.54-22.21c-2.1,2.16-3.67,4.37-4.82,6.58C785.43,742.37,806.92,747.63,822.15,761.55z"/>
	<path class="st6" d="M761.7,732.33c-5.06,4.67-8.08,11.37-7.35,18.77c1.19,12.07,13.56,20.42,23.3,25.42
		c12.52,6.43,26.74,9.65,40.54,5.81c8.3-2.31,14.77-9.28,17.11-17.37c12.91,19.75,15.43,45.36,12.71,69
		c-1.81,15.73-7.29,31.6-15.77,45.52c-18.16-26.14-46.88-41.39-81.39-32.33c6.02-33.93-3.16-72.98-23.94-101.53
		C735.2,736.89,748.05,733.02,761.7,732.33z"/>
	<path class="st7" d="M848.63,807.62c-1.14-15.24-5.14-30.12-13.33-42.65c-0.76,2.63-1.99,5.11-3.54,7.38
		C839.37,782.66,845.03,795.11,848.63,807.62z"/>
	<path class="st7" d="M757.32,737.8c1.19-2.02,2.65-3.87,4.39-5.47c-8.74,0.44-17.12,2.21-24.22,5.69
		C743.9,736.82,750.93,737.07,757.32,737.8z"/>
	<path class="st8" d="M765.15,844.75c-0.77-23.39-7.33-48.3-21.24-66.93c8.23,22.36,10.91,46.96,6.94,69.34
		C755.74,845.87,760.51,845.09,765.15,844.75z"/>
	<path class="st2" d="M642.08,714.94c19.44-1.48,39.36,4.95,55.57,16.75c0.83,35.14-42.78,25.57-51.64,18.83
		C637.15,743.78,630.06,723.22,642.08,714.94z"/>
	<path class="st3" d="M654.51,725.17c14.87,2.73,29.13,8.33,41.96,16.29c0.83-2.79,1.27-6.01,1.19-9.77
		c-16.22-11.8-36.13-18.23-55.57-16.75c-2.91,2-4.67,4.73-5.59,7.79C642.74,723.22,648.87,724.13,654.51,725.17z"/>
	<path class="st2" d="M552.98,677.21c11.41,5.16,29.46,18.18,39.5,40.13C571.78,726.12,549.55,695.91,552.98,677.21z"/>
	<path class="st6" d="M543.35,675.91c1.47,48.32,39.47,60.27,51.44,50.5c11.47,64.28-14.63,105.97-41.23,132.43
		c-1.11-16.08-13.1-36.38-19.15-44.72c-11.56-15.93-30.01-33.96-50.36-39.83c21.81-15.11,39.45-36.49,50.88-63.27
		C539.49,700.32,542.31,688.32,543.35,675.91z"/>
	<path class="st8" d="M522.26,762.85c11.43-18.94,18.35-43.95,17.87-67.45c-1.36,5.43-3.08,10.67-5.2,15.63
		c-11.43,26.78-29.07,48.16-50.88,63.27c7.09,2.04,13.93,5.58,20.34,9.97C511.31,777.99,517.42,770.87,522.26,762.85z"/>
	<path class="st2" d="M495.92,581.91c13.67,10.73,25.7,29.34,29.81,45.6c-13.51,8.95-27.31,3.93-35.46-9.86
		C482.12,603.85,484.63,590.06,495.92,581.91z"/>
	<path class="st9" d="M488.93,599.7c5.61-3.08,10.55-6.54,15.1-10.29c-2.6-2.77-5.32-5.3-8.12-7.5
		c-6.78,4.89-10.36,11.82-10.4,19.56C486.67,600.9,487.81,600.32,488.93,599.7z"/>
	<path class="st2" d="M535.15,480.55c-3.81,0.66-29.79,1.52-30.44-26.85c-0.6-26.48,18.89-29.5,27.19-24.89
		C536.64,445.15,537.68,464.07,535.15,480.55z"/>
	<path class="st2" d="M561.27,87.92c0.91-11.31,13.6-21.39,25.86-21.67c26.96-0.64,29.1,18.43,23.57,27.36
		c-5.21,8.42-17.61,13.06-26.15,13.56C569.7,108.03,560.42,98.6,561.27,87.92z"/>
	<path class="st2" d="M481.74,85.97c-17.96-14.21-0.31-35.82,15.83-37.43c16.14-1.6,28.58,6.32,28.49,18.19
		c-0.09,12.51-9.07,19.2-19,21.91C498.88,90.88,488.53,91.34,481.74,85.97z"/>
	<path class="st3" d="M587.13,66.25c-10.82,0.25-21.97,8.13-25.06,17.76c11.65-12.47,36.65-14.19,45.48,2.52
		c1.35,2.56,2.16,5.27,2.52,8c0.21-0.3,0.43-0.6,0.63-0.91C616.23,84.67,614.09,65.61,587.13,66.25z"/>
	<path class="st3" d="M517.34,60.68c4.04,2.5,6.83,5.31,8.6,8.29c0.07-0.73,0.11-1.47,0.12-2.24c0.09-11.88-12.35-19.8-28.49-18.19
		c-13.18,1.31-27.34,15.94-22.35,29.01C478.37,60.46,501.94,51.17,517.34,60.68z"/>
	<path class="st6" d="M377.13,316.35c-8.77-36.73,1.55-74,24.84-102.91c20.3-25.21,51.42-43.64,78.51-48.8
		c27.09-5.15,51.84-4.78,78.04,4.47c38.29,13.52,59.5,53.42,63.73,91.54c6.96,62.71-46.29,119.24-108.49,131.67
		C454.44,404.17,390.99,374.34,377.13,316.35z"/>
	<path class="st7" d="M442.37,189.65c41.32-17.94,89.23-21.95,129.98,0.92c17.25,9.68,31.47,22.49,42.12,37.66
		c-9.96-26.33-28.59-49.46-55.95-59.13c-26.2-9.25-50.95-9.62-78.04-4.47c-27.09,5.16-58.21,23.59-78.51,48.8
		c-0.4,0.5-0.77,1.01-1.16,1.51C412.23,206.65,429.78,195.12,442.37,189.65z"/>
	<path class="st6" d="M391.63,370.87c27.2,26.97,69.98,38.58,110.85,35.12c5.93-0.5,11.76-1.41,17.49-2.63
		c3.3,5.49,6.05,11.2,8.35,17.03c-18.54-1.26-29.68,16.32-30.52,26.85c-3.22,40.54,26.68,47.82,33.97,48.1
		c-6.09,20.68-18.02,39.69-35.8,54.01c-7.67,6.18-20.52,13.58-29.53,17.5c15.68-27.59,20.07-60.19-10.03-112.24
		c-29.45-50.92-82.15-65.83-110.98-51.07C351.36,392.55,372.85,377.82,391.63,370.87z"/>
	<path class="st8" d="M470.66,419.96c15.54,2.33,42.08,1.47,56.73-1.86c-2.1-5.03-4.55-9.97-7.42-14.73
		c-5.73,1.21-11.56,2.12-17.49,2.63c-40.86,3.46-83.65-8.15-110.85-35.12c-2.03,0.75-4.09,1.61-6.16,2.53
		C403.4,401.31,438.4,415.13,470.66,419.96z"/>
	<path class="st4" d="M313.99,459.34c3.23-15.06,13.25-31.93,22.65-44.22c33.24-22.5,81.55,1.75,104.12,30.66
		c26.02,33.33,44.54,98.28,4.99,125.46c-22.68,4.01-50.08,4.05-71.33-2.81C328.2,553.49,303.94,506.26,313.99,459.34z"/>
	<path class="st6" d="M341.2,572.8c10.53,7.48,22.45,13.37,35.28,17.31c36.66,11.26,77.78,6.33,111.5-11.73
		c-12.76,12.31-10.8,29.5-7.55,38.31c3.87,10.47,12.09,19.17,22.22,23.73c7.15,3.21,17.74,3.1,25.31-0.94
		c2.53,20.24-0.76,41.88-8.26,60.75c-11.83,29.79-33.16,52.19-59.78,65.69c2.83-15.44-0.87-34.68-3.74-46.93
		c-7.47-31.9-25.64-61.39-49.75-83.36c-23.88-21.77-78.92-39.03-107.63-18.7C307.17,598.21,322.22,583.16,341.2,572.8z"/>
	<path class="st8" d="M372.72,598.72c17.88,7.89,37.57,12.67,57.16,13.13c16.09,0.38,32.95-1.4,48.19-7.18
		c-0.4-8.43,1.69-18.37,9.91-26.3c-33.72,18.07-74.84,23-111.5,11.73c-12.83-3.94-24.75-9.84-35.28-17.31
		c-1.59,0.87-3.14,1.78-4.67,2.71C346.31,585.8,360.38,593.27,372.72,598.72z"/>
	<path class="st4" d="M292.12,632.7c28.84-28.84,86.59-10.67,112.62,16.53c25.48,26.62,53.65,85.11,38.66,123.68
		c-11.01,3.81-22.67,6.28-34.76,7.26C352.75,784.72,267.64,735.78,292.12,632.7z"/>
	<path class="st0" d="M238.48,1004.38c-0.69-7.96,5.81-29.93,33.98-30.15c28.17-0.22,81.34,3.57,84.91,3.35
		c-10.67-28.35-15.46-76.57,10.78-92.41c2.52,2.3,5.13,4.43,7.77,6.49c-14.56,12.93-10.69,40.47-4.93,57.57
		c5.06,15.04,26.64,49.22,29.08,53.01C377.69,1005.59,275.6,1006.4,238.48,1004.38z"/>
	<path class="st0" d="M471.09,973c-22.47,2.57-46.24,2.49-68.82,2.37c-2.74-3.45-6.26-9.57-8.09-13.58
		c4.2,0.18,47.67-0.5,47.33-1.58c-5.38-17.23-4.27-32.69,1.25-42.38c5.01,0.53,10.04,0.83,15.06,0.84
		C454.4,932.16,459.71,958.07,471.09,973z"/>
	<path class="st1" d="M457.6,938.91c0.03,0,0.06,0,0.09,0c-1.19-7.71-1.21-14.94,0.14-20.24c-5.03-0.01-10.05-0.31-15.06-0.84
		c-2.85,5-4.51,11.55-4.72,19.07C444.61,938.35,451.46,938.85,457.6,938.91z"/>
	<path class="st4" d="M428.41,897.7c-31.28-7.22-57.1-22.98-75.47-49.32c-12.53-17.96-12.51-45.29-6.99-61.48
		c14.45,7.86,29.78,11.98,47.66,12.69c30.06,1.2,57.95-5.81,81.63-19.68c38.86,13.92,62.06,60.32,62.46,92.7
		C505.81,896.6,467.26,906.67,428.41,897.7z"/>
	<path class="st5" d="M458.76,810.71c13.03-4.61,25.84-11.08,37.13-19.47c-6.27-4.76-13.16-8.65-20.65-11.33
		c-23.68,13.87-51.57,20.87-81.63,19.68c-17.88-0.71-33.2-4.82-47.66-12.69c-0.56,1.66-1.05,3.45-1.5,5.32
		C376.21,816.94,419.07,824.74,458.76,810.71z"/>
	<path class="st0" d="M554.32,1039.78c9.91,2.66,49.92,8.84,70.77,12.71c20.86,3.87,26.07,18.62,23.78,26.13
		c-34.56-2.15-102.1-14.39-127.51-23c10.72-15.82,20.26-42.83,24.11-64.69c4.09-23.2,4.48-44.94,1.53-54.92
		c4.46,2.35,16.75,7.31,18.57,7.92C573.1,973.15,562.3,1020.93,554.32,1039.78z"/>
	<path class="st0" d="M744.64,1014.44c20,1.92,16.52,17.33,16.41,19.81c-31.31,0.29-92.16-3.49-110.56-6.86
		c1.62-15.33,1.87-30.47,0.58-42.34c-1.73-15.91-4.88-29.53-9.93-35.39c8.02-1.01,15.77-2.77,23.25-5.11
		c8.46,19.04,10.3,41.12,4.04,67.26C691.78,1012.97,724.64,1012.51,744.64,1014.44z"/>
	<path class="st4" d="M636.49,930.58c-18.8,2.77-38.59,1.34-57.1-2.38c-22.02-4.42-33.36-14.75-47.82-28.38
		c3.94-2.12,7.84-4.33,11.61-6.78c20.44-13.24,37.33-31.52,49.32-52.54c26.31-7.78,97.78-3.4,107.19,59.3
		C682.67,914.19,659.74,927.16,636.49,930.58z"/>
	<path class="st5" d="M560.06,909.83c15.97-13.72,31.29-29.54,40.03-48.96c3.37-7.48,5.88-15.16,7.67-22.96
		c-5.92,0.45-11.14,1.37-15.26,2.58c-11.99,21.03-28.88,39.3-49.32,52.54c-3.77,2.45-7.67,4.66-11.61,6.78
		c6.83,6.43,12.97,12.12,19.86,16.81C554.39,914.49,557.28,912.22,560.06,909.83z"/>
	<path class="st6" d="M671.22,840.22c-16.48-8.75-48.38-15.27-72.93-10.98c8.69-18.63,18.64-60.49,7.98-101.24
		c7.47-5.95,16.8-8.42,25.21-10.81c-7.68,16.91,2.77,36.94,12.76,42.19c41.84,21.98,63.3-5.9,63.52-19.16
		c29.54,22.27,36.87,75.45,24.96,111.42c-4.79,14.47-12.13,27.27-21.38,38.21C706.58,865.32,684.56,847.3,671.22,840.22z"/>
	<path class="st7" d="M707.03,748.77c12.22,9.52,20.91,21.24,26.96,34.25c-4.68-17.49-13.33-33.09-26.22-42.8
		c-0.04,2.24-0.7,4.9-1.95,7.67C706.22,748.19,706.63,748.47,707.03,748.77z"/>
	<path class="st7" d="M629.73,722.39c0.43-1.75,0.97-3.49,1.75-5.2c-5.84,1.66-12.11,3.38-17.91,6.26
		C618.8,722.55,624.26,722.27,629.73,722.39z"/>
	<path class="st8" d="M609.87,783.99c-2.08,19.16-7,35.43-11.58,45.25c3.64-0.64,7.46-1.01,11.35-1.2
		C611.83,813.52,611.69,798.69,609.87,783.99z"/>
	<path class="st4" d="M754.05,924.15c-14.86,0.21-25.42-2.73-36.81-11.68c14.65-14.93,25.54-33.64,31.27-54.94
		c32.94-8.09,66.98,7.16,76.2,34.1c-7.93,9.28-19.78,18.55-30.67,23.82C781.58,921.49,767.79,923.96,754.05,924.15z"/>
	<path class="st5" d="M764.84,860.16c0.12-1.57,0.19-3.17,0.26-4.76c-5.48,0.1-11.05,0.78-16.59,2.14
		c-5.74,21.3-16.62,40.01-31.27,54.94c7.06,5.55,13.81,8.78,21.46,10.39C753.37,905.17,763,883.48,764.84,860.16z"/>
	<path class="st0" d="M863.95,1001.56c-27.79,1.49-60.69-0.62-87.56-2.83c1.5-7.56,1.72-18.82-0.23-27.58
		c-2.12-9.53-5.62-19.34-9.07-28.55c3.98-0.44,9.63-1.83,13.31-2.56c0.64,4.73,2.65,9.48,3.86,14.02
		c2.58,9.67,4.24,20.45,4.64,28.52c10.21,0.29,43.18-2.02,62.14,0.4C866.61,984.99,865.05,996.77,863.95,1001.56z"/>
	<path class="st1" d="M369.61,900.22c1.54-3.25,3.6-6.15,6.3-8.55c-2.64-2.06-5.25-4.2-7.77-6.49c-3.63,2.19-6.65,5.02-9.16,8.32
		C362.33,895.96,365.89,898.19,369.61,900.22z"/>
	<path class="st1" d="M567.61,956.07c-0.41-4.28-1.07-8.37-2.04-12.14c-1.81-0.62-14.11-5.57-18.57-7.92c1,3.37,1.6,8.1,1.82,13.75
		C554.64,953.01,561.03,955.1,567.61,956.07z"/>
	<path class="st1" d="M668.93,957.39c-1.2-4.43-2.7-8.72-4.54-12.85c-7.48,2.34-15.24,4.1-23.25,5.11
		c2.34,2.72,4.27,7.11,5.84,12.62C654.28,962.1,661.8,960.26,668.93,957.39z"/>
	<path class="st1" d="M782.9,949.59c-1.01-3.14-2.07-6.35-2.5-9.55c-3.68,0.73-9.33,2.12-13.31,2.56c1.02,2.73,2.05,5.51,3.04,8.32
		C774.42,950.59,778.68,950.17,782.9,949.59z"/>
	<path d="M584.73,271.77c-2.57-12.78-14.71-19.73-27.05-18.84c-0.8,0.06-0.84,1.16-0.19,1.46c3.58,1.66,6.87,3.59,9.98,5.73
		c-45.78,19.84-137.61,26.69-165.12,2.44c-1.3-1.14,1.12,9.58,8.45,14.37c-4.79,13.52-2.03,39.98,9.58,60.02
		c11.2,19.33,31.52,29.42,53.55,31c60.67,4.38,95.89-47.18,97.97-104.52c3.7,2.96,7.16,6.23,10.55,9.78
		C583.52,274.33,584.98,273.01,584.73,271.77z"/>
	<path class="st10" d="M559.76,290.32c1.91-6.95,3.29-14.18,4.08-21.57c-57.68,24.11-116.4,19.06-142.41,11.62
		c-0.62,5.97-1.06,14.02-0.12,19.67C445.82,314.19,529.73,311.83,559.76,290.32z"/>
	<path class="st11" d="M470.68,331.33c21.88-0.5,43.73,1.12,65.54,3.37c3.04-3.33,5.83-6.96,8.41-10.79
		C518.89,301.93,481.65,314.66,470.68,331.33z"/>
	<path class="st10" d="M445.69,338.15c-0.69,3.76-1.34,7.58-1.64,11.41c4.87,3.57,10.41,6.28,16.64,7.69
		c29.19,6.63,53.24-1.34,70.84-17.8C502.97,336.63,474.36,335.09,445.69,338.15z"/>
	<path d="M455.09,194.68c-13.45,0-24.35,11.37-24.35,25.39c0,14.02,10.9,25.38,24.35,25.38c13.44,0,24.35-11.36,24.35-25.38
		C479.43,206.05,468.53,194.68,455.09,194.68z"/>
	<path class="st10" d="M454.81,200.58c-10.17,0-18.41,8.6-18.41,19.2c0,10.6,8.24,19.2,18.41,19.2c10.17,0,18.41-8.6,18.41-19.2
		C473.22,209.18,464.98,200.58,454.81,200.58z"/>
	<path d="M458.82,209.06c-7.74,0-14.02,6.28-14.02,14.02c0,7.74,6.28,14.02,14.02,14.02c7.74,0,14.02-6.27,14.02-14.02
		C472.85,215.34,466.57,209.06,458.82,209.06z"/>
	<path d="M529.98,193.92c-15.09,0-27.32,12.76-27.32,28.49c0,15.73,12.24,28.49,27.32,28.49c15.08,0,27.31-12.75,27.31-28.49
		C557.29,206.68,545.06,193.92,529.98,193.92z"/>
	<path class="st10" d="M529.49,199.89c-11.66,0-21.11,9.86-21.11,22.02c0,12.16,9.45,22.02,21.11,22.02
		c11.66,0,21.11-9.86,21.11-22.02C550.6,209.75,541.15,199.89,529.49,199.89z"/>
	<path d="M530.66,209.12c-8.47,0-15.34,6.87-15.34,15.34c0,8.48,6.87,15.34,15.34,15.34c8.47,0,15.34-6.87,15.34-15.34
		C546,215.99,539.13,209.12,530.66,209.12z"/>
	<path class="st10" d="M538.06,215.57c-2.52,0-4.57,2.05-4.57,4.57c0,2.52,2.05,4.57,4.57,4.57c2.52,0,4.57-2.05,4.57-4.57
		C542.63,217.61,540.58,215.57,538.06,215.57z"/>
	<path class="st10" d="M531.88,222.93c-1.14,0-2.08,0.93-2.08,2.07c0,1.15,0.93,2.08,2.08,2.08c1.15,0,2.08-0.93,2.08-2.08
		C533.96,223.85,533.03,222.93,531.88,222.93z"/>
	<path class="st10" d="M464.98,213.62c-2.47,0-4.46,2-4.46,4.46c0,2.47,2,4.46,4.46,4.46c2.46,0,4.46-1.99,4.46-4.46
		C469.43,215.62,467.44,213.62,464.98,213.62z"/>
	<path class="st10" d="M458.95,220.81c-1.12,0-2.02,0.91-2.02,2.02c0,1.12,0.91,2.02,2.02,2.02c1.12,0,2.03-0.91,2.03-2.02
		C460.97,221.72,460.07,220.81,458.95,220.81z"/>
	<path d="M558.59,180.16c-5.57-8.68-14.55-5.59-13.32-4.04c6.43,8.13,14.67,22.22,17.62,32.03
		C563.07,208.76,566.92,193.11,558.59,180.16z"/>
	<path d="M448.91,180.41c-11.81,4.32-16.24,18.07-15.66,17.5c8.09-7.84,20.75-13.28,31.32-15.16
		C465.84,182.51,458.91,176.75,448.91,180.41z"/>
</g>
</svg>
