<?xml version="1.0" encoding="utf-8"?>
<!-- Generator: Adobe Illustrator 26.0.3, SVG Export Plug-In . SVG Version: 6.00 Build 0)  -->
<svg version="1.1" id="Layer_1" xmlns="http://www.w3.org/2000/svg" xmlns:xlink="http://www.w3.org/1999/xlink" x="0px" y="0px"
	 viewBox="0 0 1133.86 1133.86" style="enable-background:new 0 0 1133.86 1133.86;" xml:space="preserve">
<style type="text/css">
	.st0{fill:#D62D2D;}
	.st1{fill:#E7E2E5;}
	.st2{fill:#EE6963;}
	.st3{fill:#F03A35;}
	.st4{fill:#DE312D;}
	.st5{fill:#D5C8C7;}
	.st6{fill:#FFFFFF;}
	.st7{fill:#DB6D23;}
	.st8{fill:#F8AC35;}
	.st9{fill:#F68634;}
	.st10{fill:#0097C6;}
	.st11{fill:#00AFE4;}
	.st12{fill:#00A1E0;}
	.st13{fill:#50BAE6;}
	.st14{fill:#408CAF;}
	.st15{fill:#FFD334;}
</style>
<g>
	<g>
		<g>
			<path class="st0" d="M577.06,1021.44c-4.55,9.5-11.43,17.64-13.62,28.3c-2.7,13.12,25.53,13.03,31.66,11.1
				c14.74-4.65,23.23-23.22,28.52-40.64c3.65-12.02,6.6-24.35,8.82-36.87c0.8-4.53,1.51-9.27,0.54-13.75
				c-1.66-7.71-7.77-12.68-13.77-15.83c-7.46-3.91-47.89-25.31-35.82,16.77C587.91,986.29,583.83,1007.29,577.06,1021.44z"/>
			<path class="st1" d="M565.07,1046.86c0.14,1.19-0.25,2.38-0.63,3.51c2-2.15,5.06-3.57,7.89-2.8c2.83,0.77,4.84,4.29,3.39,6.84
				c2.97-2.32,6.68-4.18,10.39-3.53c3.71,0.64,6.89,4.74,5.41,8.21c-0.76,1.77-2.47,2.95-4.2,3.79c-5.96,2.9-13.58,3.39-17.55,8.69
				c-0.49-3.93,0.45-8.02,2.6-11.35c-5.8,1.34-10.99,5.11-14.07,10.21c-1.38-1.79-1.61-4.27-1.12-6.48c0.49-2.21,1.6-4.23,2.71-6.21
				c-4.81,0.86-9.27,3.55-12.27,7.4c-0.48-3.43,0.8-6.92,2.78-9.76C551.92,1053.19,564.27,1039.84,565.07,1046.86z"/>
		</g>
		<g>
			<path class="st0" d="M735.98,999.8c-4.55,9.5-11.43,17.64-13.62,28.3c-2.7,13.12,25.53,13.03,31.66,11.1
				c14.74-4.65,23.23-23.22,28.52-40.64c3.65-12.02,6.6-24.35,8.82-36.87c0.8-4.53,1.51-9.27,0.54-13.75
				c-1.66-7.71-7.77-12.68-13.77-15.83c-7.46-3.91-15.51-6.16-23.63-6.61c-5.19-0.28-14.03,0.64-15.81,8.28
				c-1.18,5.06,2.65,10.34,3.62,15.1C745.59,964.96,742.75,985.65,735.98,999.8z"/>
			<path class="st1" d="M723.99,1025.22c0.14,1.19-0.25,2.38-0.63,3.51c2-2.15,5.06-3.57,7.89-2.8c2.83,0.77,4.84,4.29,3.38,6.84
				c2.97-2.32,6.68-4.18,10.39-3.53c3.71,0.64,6.89,4.74,5.41,8.21c-0.76,1.77-2.47,2.95-4.2,3.79c-5.96,2.9-13.58,3.39-17.55,8.69
				c-0.49-3.93,0.45-8.02,2.6-11.35c-5.8,1.34-10.99,5.11-14.07,10.21c-1.38-1.79-1.61-4.27-1.12-6.48c0.49-2.21,1.6-4.23,2.71-6.21
				c-4.81,0.86-9.27,3.55-12.27,7.4c-0.48-3.43,0.8-6.92,2.78-9.76C710.84,1031.55,723.18,1018.2,723.99,1025.22z"/>
		</g>
		<path class="st2" d="M574.34,954.46c10.23,11.38,23.98,19.03,38.15,24.81c48.11,19.62,104.09,19.08,151.81-1.48
			c18.55-7.99,36.12-19.09,49.08-34.58c12.96-15.49,20.97-35.72,19.18-55.84c-0.92-10.34-4.6-20.77-12.07-27.97
			c-6.6-6.36-15.52-9.66-24.29-12.32c-75.1-22.72-160.56-7.96-223.7,38.63C550.11,902.23,557.33,935.53,574.34,954.46z"/>
		<path class="st2" d="M895.18,734.27c-8.89-3.15-19.03-2.58-27.52,1.54c15.62,2.47,30.44,9.78,41.91,20.67
			c-7.88-1.78-16.04-2.29-24.08-1.5c13.68,6.16,30.96,7.86,45.14,23.51c-10.79-1.78-17.51-1.67-24.41,3.4
			c14.2,4.63,29.29,9.86,38.39,21.7c-7.34-1.64-14.98-1.89-22.41-0.74c14.07,4.16,26.24,9.82,36.97,19.37
			c-7.99-0.21-17.42,0.3-21.8,6.98c11.44,1.19,22.78,3.33,33.87,6.39c-5.39,1.1-10.14,4.97-12.31,10.03
			c10.34-0.79,20.67-1.57,31.01-2.36c-5,2.18-8.67,7.13-9.3,12.55c10.53-2.44,20.82-5.94,30.66-10.43
			c-2.03,3.68-4.06,7.35-6.09,11.03c11.18-7.49,21.2-11.46,33.55-15.41c-11.61,18.11-3.96,21.51-16.4,32.59
			c-11.22,9.99-36.1,8.71-50.98,6.61c-29.38-4.14-59.44-14.24-79.21-36.35c-10.51-11.75-17.47-26.18-24.29-40.39
			c-8.51-17.72-40.5-70.23-46.29-77.14C838.58,711.35,878.79,716.41,895.18,734.27z"/>
		<path class="st3" d="M641.19,961.58c5.29,1.58,9.93,3.58,12.89,6.42c2.18,2.09,3.33,5,4.43,7.81
			c6.58,16.94,12.91,34.58,14.3,52.84c0.66,8.66,0.22,17.47-2.24,25.84c-2.3,7.84-14.95,20.89-4.28,26.89
			c15.71,8.83,36.93,2.71,48.69-10.94s15.19-32.94,13.18-50.84c-2-17.9-8.85-34.86-15.63-51.55c28.92-1.13,57.4-11.76,79.98-29.86
			c9.06,13.7,18.28,27.74,22.35,43.66s2.12,34.35-9.1,46.35c-3.97,4.25-9.26,8.14-9.98,13.91c-0.85,6.78,5.33,12.61,11.83,14.74
			c12.75,4.17,27.2-1.57,36.41-11.32c9.22-9.75,14.04-22.83,17.31-35.84c3.84-15.31,5.85-31.34,3.22-46.9
			c-1.88-11.13-6.12-22.11-5.02-33.34c0.91-9.29,5.38-17.8,9.78-26.03c9.39-17.6,37.41-0.76,51.64,1.84
			c25.04,4.57,51.24,4.19,75.6-3.65c35.2-11.33,65.88-39.82,74.01-75.89c-15.49,17.07-35.28,30.95-57.77,35.99
			c-23.25,5.2-49.66-0.63-67.15-17.89c-20.1-19.83-56.66-95.4-117.54-117.48c-35.62-12.92-74.47-19.27-111.62-11.78
			c-35.72,7.2-68.38,26.9-93.53,53.27c-25.15,26.37-43.02,59.18-54.31,93.83c-7.67,23.55-14.6,50.09,4.68,68.9
			c10.19,9.94,23.08,17.88,36.67,23.34C617.72,956.99,630.74,958.46,641.19,961.58z"/>
		<g>
			<g>
				<path class="st2" d="M680.44,752.93c-1.37,0.24-7.55,3.01-7.24,5.63c0.46,3.8,12.56,4.69,14.83,4.91
					c4.86,0.47,9.76,0.59,14.66,0.34c1.91-0.1,4.4-0.92,4.68-3.48c0.2-1.79-0.92-3.24-2.05-4.11
					C699,751.3,687.73,751.69,680.44,752.93z"/>
				<path class="st2" d="M701.94,768.64c-1.26-0.04-7.52,1.53-8.1,4.35c-0.84,4.08,9.36,7.59,11.25,8.3
					c4.06,1.53,8.26,2.7,12.59,3.49c1.69,0.31,4.11-0.02,5.19-2.65c0.75-1.84,0.26-3.59-0.44-4.74
					C718.54,770.9,708.66,768.89,701.94,768.64z"/>
				<path class="st2" d="M721.16,792.01c-0.93,0.02-5.85,1.8-6.78,4.51c-1.35,3.91,5.59,6.78,6.87,7.37
					c2.74,1.27,5.65,2.19,8.72,2.74c1.2,0.21,3.05-0.21,4.32-2.75c0.88-1.78,0.83-3.42,0.52-4.49
					C733.08,793.39,726.1,791.94,721.16,792.01z"/>
			</g>
			<g>
				<path class="st2" d="M666.64,779.66c-1.26-0.04-7.52,1.53-8.1,4.35c-0.84,4.08,9.36,7.59,11.25,8.3
					c4.06,1.53,8.26,2.7,12.59,3.49c1.69,0.31,4.11-0.02,5.19-2.65c0.75-1.84,0.26-3.59-0.44-4.74
					C683.25,781.91,673.36,779.91,666.64,779.66z"/>
				<path class="st2" d="M685.87,803.03c-0.93,0.02-5.85,1.8-6.78,4.51c-1.35,3.91,5.59,6.78,6.87,7.37
					c2.74,1.27,5.65,2.19,8.72,2.74c1.2,0.21,3.05-0.21,4.32-2.75c0.88-1.78,0.83-3.42,0.52-4.49
					C697.78,804.41,690.81,802.96,685.87,803.03z"/>
			</g>
			<g>
				<path class="st2" d="M750.85,713.91c-1.85,0.03-10.32,1.87-10.03,4.55c0.42,3.88,16.67,6.6,19.71,7.16
					c6.52,1.21,13.1,2.07,19.72,2.56c2.58,0.19,5.97-0.25,6.48-2.79c0.36-1.77-1.07-3.39-2.54-4.43
					C775.91,715.08,760.73,713.76,750.85,713.91z"/>
				<path class="st2" d="M771.82,737.93c-1.38-0.07-8.03,1.26-8.3,3.9c-0.39,3.81,11.22,7.34,13.38,8.06
					c4.64,1.54,9.39,2.73,14.22,3.57c1.88,0.33,4.5,0.08,5.34-2.36c0.59-1.71-0.18-3.36-1.09-4.46
					C790.28,740.44,779.21,738.33,771.82,737.93z"/>
				<path class="st2" d="M788.22,761.56c-1.09-0.29-6.87-0.14-7.94,2.26c-1.54,3.47,6.67,8.65,8.18,9.67
					c3.24,2.18,6.68,4.07,10.3,5.64c1.41,0.61,3.59,0.81,5.06-1.32c1.02-1.49,0.94-3.15,0.56-4.32
					C802.28,766.9,794.04,763.13,788.22,761.56z"/>
				<path class="st2" d="M805.26,792.08c-0.81-0.17-5.47,0.44-6.82,2.66c-1.96,3.22,3.54,7.17,4.53,7.96
					c2.14,1.68,4.5,3.08,7.07,4.19c1,0.43,2.71,0.43,4.32-1.59c1.13-1.41,1.4-2.89,1.35-3.9
					C815.39,795.7,809.58,793.01,805.26,792.08z"/>
			</g>
			<g>
				<path class="st2" d="M812.95,726.52c-1.37-0.2-8.1,0.65-8.59,3.47c-0.7,4.07,10.58,8.91,12.68,9.88
					c4.5,2.07,9.13,3.77,13.89,5.11c1.85,0.52,4.47,0.48,5.51-2.08c0.72-1.79,0.09-3.64-0.72-4.91
					C831.15,730.86,820.28,727.6,812.95,726.52z"/>
				<path class="st2" d="M827.84,753.84c-1.07-0.41-6.84-0.76-8.1,1.73c-1.82,3.6,5.94,9.92,7.36,11.15
					c3.05,2.64,6.33,4.98,9.81,6.99c1.36,0.79,3.52,1.19,5.15-0.98c1.14-1.51,1.19-3.31,0.91-4.61
					C841.42,760.84,833.52,756.05,827.84,753.84z"/>
				<path class="st2" d="M839.28,786.61c-0.8-0.26-5.49-0.01-7.01,2.27c-2.21,3.3,2.94,8.05,3.87,8.98c1.99,2.01,4.23,3.72,6.7,5.15
					c0.96,0.55,2.66,0.7,4.44-1.33c1.24-1.42,1.63-2.99,1.66-4.09C849.09,791.41,843.52,787.99,839.28,786.61z"/>
			</g>
			<g>
				<path class="st2" d="M857.8,752.23c-1.1-0.34-6.73-0.53-7.5,1.71c-1.11,3.25,7.5,8.71,9.1,9.77c3.42,2.29,6.99,4.3,10.72,6.02
					c1.45,0.67,3.61,0.98,4.79-0.98c0.83-1.37,0.56-2.98,0.06-4.12C872.15,758.18,863.67,754.08,857.8,752.23z"/>
				<path class="st2" d="M866.42,776.6c-0.82-0.48-5.51-1.52-6.87,0.35c-1.97,2.72,3.56,8.92,4.57,10.12
					c2.15,2.57,4.53,4.92,7.12,7.03c1.01,0.82,2.73,1.44,4.35-0.12c1.14-1.09,1.41-2.56,1.36-3.66
					C876.62,784.14,870.78,779.16,866.42,776.6z"/>
				<path class="st2" d="M870.71,802.31c-0.62-0.32-4.5-0.73-6.05,0.93c-2.25,2.41,1.35,6.99,1.99,7.88
					c1.37,1.91,2.98,3.61,4.82,5.1c0.72,0.58,2.09,0.93,3.81-0.51c1.2-1,1.73-2.24,1.9-3.13C878.12,807.54,874.01,804,870.71,802.31
					z"/>
				<path class="st2" d="M891.48,783.35c-0.62-0.31-4.5-0.73-6.05,0.93c-2.25,2.41,1.35,6.99,1.99,7.88
					c1.37,1.91,2.98,3.61,4.82,5.1c0.72,0.58,2.09,0.93,3.81-0.51c1.2-1,1.73-2.24,1.9-3.13
					C898.88,788.58,894.77,785.05,891.48,783.35z"/>
				<path class="st2" d="M920.6,826.5c-0.62-0.31-4.5-0.73-6.05,0.93c-2.25,2.41,1.35,6.99,1.99,7.88c1.37,1.91,2.98,3.61,4.82,5.1
					c0.72,0.58,2.09,0.93,3.81-0.51c1.2-1,1.73-2.24,1.9-3.13C928.01,831.73,923.89,828.19,920.6,826.5z"/>
			</g>
			<g>
				<path class="st2" d="M704.08,721.26c-1.62,0.33-8.86,3.72-8.35,6.68c0.75,4.28,15.25,4.77,17.97,4.92
					c5.83,0.33,11.69,0.25,17.53-0.24c2.28-0.19,5.21-1.23,5.41-4.14c0.14-2.04-1.27-3.63-2.66-4.57
					C726.16,718.63,712.72,719.54,704.08,721.26z"/>
				<path class="st2" d="M726.81,738.61c-1.39,0.02-7.93,1.79-8.03,4.43c-0.14,3.83,11.67,6.6,13.88,7.17
					c4.73,1.23,9.55,2.11,14.43,2.64c1.9,0.21,4.49-0.22,5.17-2.71c0.47-1.74-0.4-3.34-1.38-4.38
					C745.4,739.91,734.21,738.53,726.81,738.61z"/>
				<path class="st2" d="M745.58,761.15c-1.24-0.24-7.67,0.34-8.68,3.03c-1.47,3.89,8.06,8.96,9.81,9.96
					c3.77,2.15,7.74,3.96,11.89,5.42c1.62,0.57,4.06,0.63,5.54-1.8c1.03-1.7,0.81-3.5,0.31-4.75
					C761.63,765.98,752.18,762.45,745.58,761.15z"/>
				<path class="st2" d="M762.58,789.65c-0.92-0.13-6.06,0.86-7.4,3.39c-1.94,3.65,4.46,7.57,5.63,8.36
					c2.5,1.68,5.23,3.04,8.18,4.07c1.15,0.4,3.05,0.27,4.7-2.04c1.15-1.62,1.35-3.25,1.22-4.35
					C774.13,792.88,767.47,790.36,762.58,789.65z"/>
				<path class="st2" d="M772.56,816.75c-0.72-0.14-5.44,0.58-7.58,2.78c-3.08,3.18,0.75,6.85,1.42,7.58
					c1.44,1.57,3.2,2.86,5.27,3.86c0.81,0.39,2.46,0.34,4.76-1.67c1.61-1.4,2.43-2.84,2.75-3.82
					C781,819.96,776.39,817.52,772.56,816.75z"/>
				<path class="st2" d="M727.54,829.62c-0.72-0.14-5.44,0.58-7.58,2.78c-3.08,3.18,0.75,6.85,1.42,7.58
					c1.44,1.57,3.2,2.86,5.27,3.86c0.81,0.39,2.46,0.34,4.76-1.67c1.61-1.4,2.43-2.84,2.75-3.82
					C735.98,832.84,731.38,830.4,727.54,829.62z"/>
				<path class="st2" d="M819.1,819.16c-0.72-0.14-5.44,0.58-7.58,2.78c-3.08,3.18,0.75,6.85,1.42,7.58
					c1.44,1.57,3.2,2.86,5.27,3.86c0.81,0.39,2.46,0.34,4.76-1.67c1.61-1.4,2.43-2.84,2.75-3.82
					C827.54,822.37,822.93,819.93,819.1,819.16z"/>
				<path class="st2" d="M908.68,807.67c-0.53-0.1-3.97,0.42-5.53,2.03c-2.25,2.32,0.55,5,1.04,5.53c1.05,1.15,2.33,2.09,3.85,2.82
					c0.59,0.28,1.79,0.25,3.48-1.22c1.18-1.02,1.77-2.07,2.01-2.79C914.84,810.02,911.48,808.23,908.68,807.67z"/>
				<path class="st2" d="M892.02,821.1c-0.53-0.1-3.97,0.42-5.53,2.03c-2.25,2.32,0.55,5,1.04,5.53c1.05,1.15,2.33,2.09,3.85,2.82
					c0.59,0.28,1.79,0.25,3.48-1.22c1.18-1.02,1.77-2.07,2.01-2.79C898.18,823.45,894.82,821.66,892.02,821.1z"/>
			</g>
		</g>
		<path class="st1" d="M666.33,1072.8c0.28,1.27,0,2.6-0.29,3.87c1.92-2.55,5.07-4.43,8.22-3.92c3.15,0.51,5.71,4.09,4.43,7.01
			c2.95-2.85,6.75-5.27,10.84-4.98c4.09,0.28,7.99,4.35,6.78,8.27c-0.62,2-2.34,3.46-4.12,4.57c-6.12,3.8-14.31,5.19-18,11.37
			c-0.97-4.2-0.42-8.73,1.53-12.57c-6.12,2.1-11.32,6.76-14.07,12.62c-1.7-1.78-2.22-4.44-1.94-6.89c0.28-2.45,1.26-4.75,2.23-7.02
			c-5.11,1.47-9.63,4.88-12.44,9.39c-0.9-3.66,0.09-7.58,1.91-10.87C652.81,1081.12,664.66,1065.3,666.33,1072.8z"/>
		<path class="st1" d="M800.65,1043.43c0.14,1.19-0.25,2.38-0.63,3.51c2-2.15,5.06-3.57,7.89-2.8c2.83,0.77,4.84,4.29,3.38,6.84
			c2.97-2.32,6.68-4.18,10.39-3.53c3.71,0.64,6.89,4.74,5.41,8.21c-0.76,1.77-2.47,2.95-4.2,3.79c-5.96,2.9-13.58,3.39-17.55,8.69
			c-0.49-3.93,0.45-8.02,2.6-11.35c-5.8,1.34-10.99,5.11-14.07,10.21c-1.38-1.79-1.61-4.27-1.12-6.48s1.6-4.23,2.71-6.21
			c-4.81,0.86-9.27,3.55-12.27,7.4c-0.48-3.43,0.8-6.92,2.78-9.76C787.5,1049.76,799.84,1036.4,800.65,1043.43z"/>
		<g>
			<path class="st1" d="M490.33,645.91c2.09,1.94,4.24,3.95,5.37,6.58c2.44,5.68-1.65,13.12-7.75,14.11
				c-7.48,1.21-13.92-6.32-15.05-13.81c-0.93-6.14-0.05-13.99,2.35-19.6C480.83,635.63,485.74,641.66,490.33,645.91z"/>
			<path class="st4" d="M610.35,863.36c8.36,1.87,16.48,6.55,22.69,12.17c9.34,8.45,18.14,23.18,31.25,25.92
				c6.93,1.45,14.57-1.24,19.06-6.71c9.33-11.37,0.85-20.76-3.04-32.01c-7.63-22.1,21.06-24.51,19.72-42.3
				c-0.46-6-6.03-10.71-11.3-12.67c-4.19-1.56-8.71-2.29-12.64-4.42c-15.73-8.52,2.27-27.35,9.88-35.14
				c5.23-5.35,12.72-9.88,14.15-17.83c2.89-16.14-17.34-22.54-28.48-27.18c-4.81-2.01-9.62-5.26-11.13-10.26
				c-2.8-9.26,5.85-18.45,6.09-27.62c0.24-9.52-8.1-17.55-17.27-20.15c-7.15-2.03-15.87-1.77-23.07-0.16
				c-4.41,0.99-8.95,2.13-13.4,1.33c-17-3.03-2.61-22.04-11.13-30.85c-10.65-11.02-37.47,14.3-45.72,19.97
				c-13.19,9.06-13.15-3.53-17.01-12.58c-2.8-6.57-23.36-10.13-32.05,1.73c-19.48,26.58-30.16,5.85-36.89,28.56
				c-10.96,37.02,2.79,52.44,4.4,74.53c1.53,20.94,6.48,43.86,23.38,56.32c9.74,7.18,22.13,9.79,32.42,16.14
				c13.58,8.39,22.39,22.53,30.71,36.18c3.7,6.09,7.2,24.88,17.98,18.23c2.38-1.47,4.17-3.71,6.24-5.58
				C592.09,862.77,601.54,861.39,610.35,863.36z"/>
			<path class="st2" d="M671.65,723.19c-4.81-2.01-9.62-5.26-11.13-10.26c-2.8-9.26,5.85-18.45,6.09-27.62
				c0.24-9.52-8.1-17.55-17.27-20.15c-7.15-2.03-15.87-1.77-23.07-0.16c-4.41,0.99-8.95,2.13-13.4,1.33
				c-17-3.03-2.61-22.04-11.13-30.85c-10.65-11.02-37.47,14.3-45.72,19.97c-13.19,9.06-13.15-3.53-17.01-12.58
				c-2.8-6.57-23.36-10.13-32.05,1.73c-19.48,26.58-30.16,5.85-36.89,28.56c-0.9,3.05-1.63,5.94-2.22,8.71
				c0.18-0.13,0.35-0.26,0.53-0.39c11.8-8.6,25.6-7.02,30.39,8.38c2.19,7.05,1.65,14.61,1.35,21.99
				c-0.99,24.48,0.98,49.08,5.84,73.09c5.72-7.41,5.86-17.55,5.75-26.91c-0.3-25.88-0.6-51.75-0.9-77.63
				c-0.04-3.55-0.01-7.35,1.98-10.29c2.62-3.86,7.96-5.03,12.55-4.18c9.2,1.7,16.09,9.98,18.75,18.95
				c2.66,8.97,1.84,18.56,0.64,27.84c-3.35,25.95-9.43,51.55-18.11,76.23c15.51-11.49,21.04-31.99,23.58-51.12
				c2.54-19.13,3.36-39.26,13.01-55.97c2.49-4.3,5.75-8.47,10.34-10.36c7.13-2.94,15.51,0.5,21.04,5.88
				c11.62,11.31,13.62,29.87,8.89,45.38c-4.72,15.51-15.05,28.63-25.59,40.96c-10.54,12.33-21.66,24.52-28.5,39.23
				c26.94-25.05,51.27-52.9,72.48-82.96c3.11-4.41,6.3-9.01,10.95-11.75c4.65-2.75,11.22-3.06,15,0.8c1.67,1.7,2.59,3.97,3.48,6.19
				c3.22,8.02,6.44,16.04,9.66,24.06c1.68,4.18,3.37,8.44,3.76,12.92c0.55,6.49-1.71,12.96-5.13,18.51
				c-10.82,17.54-31.63,25.88-51.35,31.88c-19.72,6-40.78,11.32-55.51,25.74c13.92,0.21,27.23-5.19,40.25-10.12
				c13.02-4.93,26.8-9.54,40.6-7.69c13.8,1.85,27.46,12.17,28.44,26.06c0.24,3.47-0.39,7.18-2.68,9.8c-1.62,1.85-3.9,2.98-6.19,3.86
				c-10.96,4.21-23.1,3.65-34.82,2.89s-23.78-1.62-34.93,2.07c-6.84,2.26-13.28,6.69-17.4,12.49c2.83,5.92,6.65,10.8,12.97,6.89
				c2.38-1.47,4.17-3.71,6.24-5.58c6.88-6.21,16.33-7.6,25.14-5.63c8.36,1.87,16.48,6.55,22.69,12.17
				c9.34,8.45,18.14,23.18,31.25,25.92c6.93,1.45,14.57-1.24,19.06-6.71c9.33-11.37,0.85-20.76-3.04-32.01
				c-7.63-22.1,21.06-24.51,19.72-42.3c-0.46-6-6.03-10.71-11.3-12.67c-4.19-1.56-8.71-2.29-12.64-4.42
				c-15.73-8.52,2.27-27.35,9.88-35.14c5.23-5.35,12.72-9.88,14.15-17.83C703.02,734.23,682.78,727.82,671.65,723.19z"/>
			<path class="st1" d="M511.16,754.66c-6.68-10.79-18.47-18.06-23.65-29.65c-4.54-10.16-3.21-21.9-1.06-32.81
				c5.2,15.3,15.1,28.96,28.01,38.67c10.86,8.16,24.48,14.4,29.89,26.86c2.78,6.4,2.92,13.67,1.93,20.58
				c-0.33,2.29-0.8,4.62-1.99,6.61c-2.86,4.75-9.3,6.32-14.72,5.12C510.72,785.85,519.49,768.12,511.16,754.66z"/>
			<path class="st5" d="M514.47,730.86c-11.3-8.49-20.29-20.01-25.84-33c0.32,2.99,1.02,6.06,1.59,8.08
				c2.58,9.13,8.41,17.21,15.28,23.62c5.78,5.4,12.37,9.95,17.74,15.76c5.37,5.82,9.55,13.37,8.98,21.26
				c-0.12,1.62-0.44,3.24-1.19,4.68c-1.77,3.36-5.67,5.15-9.46,5.41c-1.69,0.11-3.37-0.04-5.05-0.33
				c1.25,6.4,3.88,11.64,13.07,13.68c5.42,1.2,11.86-0.36,14.72-5.12c1.19-1.99,1.66-4.32,1.99-6.61
				c0.99-6.91,0.84-14.17-1.93-20.58C538.95,745.27,525.33,739.03,514.47,730.86z"/>
			<path class="st1" d="M446.03,777.28c-11-6.34-24.82-7.15-34.87-14.9c-8.81-6.79-13.2-17.76-16.49-28.39
				c11.83,11.01,27.02,18.34,43,20.77c13.43,2.04,28.38,1.08,39.05,9.49c5.48,4.32,9.05,10.65,11.46,17.2
				c0.8,2.18,1.49,4.45,1.38,6.76c-0.26,5.54-5.19,9.97-10.53,11.48C460.43,804.96,459.75,785.19,446.03,777.28z"/>
			<path class="st5" d="M476.72,764.25c-10.67-8.41-25.62-7.45-39.05-9.49c-13.01-1.98-25.5-7.21-36.08-15.03
				c4.45,5.43,11.22,9.79,16.76,12.71c8.75,4.6,18.37,7.3,27.99,9.58c6.74,1.6,13.95,3.07,19.79,7.02
				c4.69,3.18,6.75,10.08,5.88,15.54c-0.77,4.82-5.48,8.47-8.52,12.01c4.56,3.93,9.77,4.74,15.54,3.11
				c5.34-1.51,10.27-5.94,10.53-11.48c0.11-2.31-0.58-4.59-1.38-6.76C485.77,774.9,482.2,768.57,476.72,764.25z"/>
			<path class="st2" d="M465.06,800.57c-6.65,8.19-11.76,19.38-18.21,27.74c-5.71,7.4-13.99,12.39-22.5,16.27
				c-11.23,5.11-25.06,10.75-26.89,22.95c-1.78,11.85,3.89,20.18,19.01,28.21c1.47-6.37,8.87-9.2,15.32-10.27
				c6.45-1.07,13.75-1.8,17.82-6.92c-3.54,14.15-16.62,25.37-31.14,26.72c6.71,8.32,18.49,12.19,28.82,9.45
				c7.85-2.08,14.9-7.59,23.02-7.43c9.69,0.19,17.12,8.23,25.61,12.89c11.19,6.14,24.86,6.42,37.27,3.46
				c12.42-2.96,23.89-8.91,35.21-14.8c6.56-3.41,13.54-7.24,16.75-13.9c4.82-9.96-0.67-21.6-6.05-31.27
				c-9.95-17.87-1.93-64.3-25.71-86.39c-8.66-8.04-19.54,17.84-37.74-1.37C510.33,770.29,484.47,776.66,465.06,800.57z"/>
			<path class="st4" d="M497.88,869.91c14.81,16.72,41.7-16,44.89-29.82c2.46-10.68-2.26-22.2-10.29-29.67
				c-8.03-7.46-18.9-11.28-29.77-12.69c-13.83-1.79-16.83,21.43-17.52,31.98C484.24,844.1,488.21,858.99,497.88,869.91z"/>
			<path class="st6" d="M508.38,810.41c-14.98-1.51-23.78,32.28,0,34.83C532.17,847.79,540.19,813.62,508.38,810.41z"/>
			<ellipse transform="matrix(0.9086 -0.4177 0.4177 0.9086 -302.3114 286.719)" cx="503.91" cy="834.05" rx="7.19" ry="10.46"/>
			<path class="st4" d="M464.7,863.11c-7.91-10.69-23.49-17.16-35.14-20.99c-0.03-0.01-0.06-0.02-0.1-0.03
				c-1.68,0.88-3.39,1.72-5.11,2.5c-11.23,5.11-25.06,10.75-26.89,22.95c-1.78,11.85,3.14,24.52,18.27,32.55
				c1.47-6.37,11.42-10.64,17.86-11.7c6.45-1.07,10.45-1.89,16.02-9.82c-3.54,14.15-16.62,25.37-31.14,26.72
				c6.71,8.32,18.49,12.19,28.82,9.45c5.97-1.58,11.47-5.14,17.34-6.69c3.91-11.81,8.38-28.47,2.89-40.21
				C466.75,866.17,465.8,864.6,464.7,863.11z"/>
			<path class="st1" d="M536.55,638.91c-0.02,2.85-0.05,5.8-1.23,8.4c-2.54,5.63-10.79,7.64-15.64,3.81
				c-5.95-4.7-4.74-14.53,0.02-20.43c3.9-4.83,10.28-9.49,16.04-11.5C537.71,624.96,536.58,632.65,536.55,638.91z"/>
			<path class="st1" d="M600.9,638.91c-0.02,2.85-0.05,5.8-1.23,8.4c-2.54,5.63-10.79,7.64-15.64,3.81
				c-5.95-4.7-4.74-14.53,0.02-20.43c3.9-4.83,10.28-9.49,16.04-11.5C602.07,624.96,600.94,632.65,600.9,638.91z"/>
			<path class="st1" d="M661.44,678.83c-1.87,2.15-3.81,4.37-6.4,5.58c-5.6,2.62-13.17-1.23-14.35-7.29
				c-1.45-7.44,5.86-14.11,13.31-15.49c6.11-1.13,13.98-0.51,19.67,1.71C671.41,669,665.54,674.1,661.44,678.83z"/>
			<path class="st1" d="M699.29,753.6c-2.77,0.68-5.64,1.36-8.44,0.85c-6.08-1.1-10.03-8.62-7.49-14.25
				c3.12-6.91,12.94-8.12,19.82-4.94c5.63,2.61,11.7,7.67,15.05,12.77C713.12,751.34,705.37,752.11,699.29,753.6z"/>
			<path class="st1" d="M690.38,830.37c-2.77,0.68-5.64,1.36-8.44,0.85c-6.08-1.1-10.03-8.62-7.49-14.25
				c3.12-6.91,12.94-8.12,19.82-4.94c5.63,2.61,11.7,7.67,15.05,12.77C704.21,828.12,696.47,828.89,690.38,830.37z"/>
			<path class="st1" d="M687.29,885.56c-1.89-2.13-3.87-4.32-6.47-5.5c-5.63-2.55-13.15,1.39-14.26,7.47
				c-1.36,7.46,6.04,14.04,13.51,15.32c6.12,1.05,13.99,0.33,19.64-1.96C697.38,895.27,691.45,890.24,687.29,885.56z"/>
			<g>
				<path class="st1" d="M405.1,833.59c-4.25-7.37-7.64-15.16-10.3-23.23c-3.59,12.18-4.77,25.07-3.42,37.7
					c0.26,2.43,0.62,4.88,1.62,7.11c2.9,6.46,11.18,9.59,17.92,7.45c4.98-1.58,13.07-8.31,11.13-14.44
					C420.48,843.21,410.7,843.29,405.1,833.59z"/>
				<path class="st5" d="M422.05,848.17c-1.57-4.97-11.35-4.88-16.95-14.58c-4.17-7.23-7.5-14.86-10.14-22.77
					c-0.93,2.07-0.58,5.15-0.42,6.96c0.75,8.28,3.91,16.36,9.13,22.85c2.79,3.47,6.38,7.24,5.63,11.64
					c-0.79,4.65-6.44,7.12-11.07,6.21c-1.49-0.29-2.89-0.83-4.22-1.53c3.51,5.22,10.82,7.58,16.91,5.65
					C415.89,861.03,423.98,854.3,422.05,848.17z"/>
			</g>
		</g>
	</g>
	<g>
		<g>
			<g>
				<path class="st7" d="M322.21,1058.99c2.31,4.83,5.81,8.97,6.92,14.39c1.37,6.67-12.98,6.63-16.1,5.64
					c-7.49-2.36-11.81-11.81-14.5-20.66c-1.85-6.11-3.35-9.09-4.48-15.46c-0.41-2.3-0.77-4.71-0.28-6.99c0.84-3.92,3.95-6.45,7-8.05
					c3.79-1.99,24.35-12.87,18.21,8.52C316.69,1044.4,318.76,1051.79,322.21,1058.99z"/>
				<path class="st1" d="M328.3,1071.91c-0.07,0.61,0.13,1.21,0.32,1.79c-1.02-1.09-2.57-1.81-4.01-1.42
					c-1.44,0.39-2.46,2.18-1.72,3.48c-1.51-1.18-3.39-2.12-5.28-1.79c-1.89,0.33-3.5,2.41-2.75,4.17c0.38,0.9,1.25,1.5,2.13,1.93
					c3.03,1.47,6.9,1.72,8.92,4.42c0.25-2-0.23-4.08-1.32-5.77c2.95,0.68,5.59,2.6,7.15,5.19c0.7-0.91,0.82-2.17,0.57-3.3
					c-0.25-1.12-0.82-2.15-1.38-3.16c2.45,0.44,4.71,1.8,6.24,3.76c0.24-1.74-0.41-3.52-1.41-4.96
					C334.98,1075.13,328.71,1068.34,328.3,1071.91z"/>
			</g>
			<g>
				<path class="st7" d="M241.42,1047.99c2.31,4.83,5.81,8.97,6.92,14.39c1.37,6.67-12.98,6.63-16.1,5.64
					c-7.49-2.36-11.81-11.81-14.5-20.66c-1.85-6.11-3.35-9.09-4.48-15.46c-0.41-2.3-0.77-4.71-0.28-6.99c0.84-3.92,3.95-6.45,7-8.05
					c3.79-1.99,7.89-3.13,12.01-3.36c2.64-0.14,7.13,0.32,8.04,4.21c0.6,2.57-1.35,5.26-1.84,7.68
					C236.53,1033.56,237.97,1040.79,241.42,1047.99z"/>
				<path class="st1" d="M247.51,1060.91c-0.07,0.61,0.13,1.21,0.32,1.79c-1.02-1.09-2.57-1.81-4.01-1.42
					c-1.44,0.39-2.46,2.18-1.72,3.48c-1.51-1.18-3.39-2.12-5.28-1.79c-1.89,0.33-3.5,2.41-2.75,4.17c0.38,0.9,1.25,1.5,2.13,1.93
					c3.03,1.47,6.9,1.72,8.92,4.42c0.25-2-0.23-4.08-1.32-5.77c2.95,0.68,5.59,2.6,7.15,5.19c0.7-0.91,0.82-2.17,0.57-3.3
					s-0.82-2.15-1.38-3.16c2.45,0.44,4.71,1.8,6.24,3.76c0.24-1.74-0.41-3.52-1.41-4.96
					C254.2,1064.13,247.92,1057.34,247.51,1060.91z"/>
			</g>
			<path class="st8" d="M323.59,1028.22c-5.2,5.79-12.19,9.67-19.39,12.61c-24.46,9.97-52.92,9.7-77.18-0.75
				c-9.43-4.06-18.36-9.71-24.95-17.58c-6.59-7.88-10.66-18.16-9.75-28.39c0.47-5.25,2.34-10.56,6.14-14.22
				c3.36-3.23,7.89-4.91,12.35-6.26c38.18-11.55,81.63-4.05,113.72,19.64C335.91,1001.67,332.23,1018.6,323.59,1028.22z"/>
			<path class="st8" d="M160.48,916.28c4.52-1.6,9.68-1.31,13.99,0.78c-7.94,1.26-15.48,4.97-21.3,10.51
				c4-0.91,8.16-1.16,12.24-0.76c-6.96,3.13-15.74,4-22.95,11.95c5.48-0.9,8.9-0.85,12.41,1.73c-7.22,2.35-14.89,5.01-19.52,11.03
				c3.73-0.83,7.62-0.96,11.39-0.38c-7.15,2.12-13.34,4.99-18.8,9.85c4.06-0.11,8.86,0.15,11.08,3.55
				c-5.82,0.61-11.58,1.69-17.22,3.25c2.74,0.56,5.16,2.53,6.26,5.1c-5.25-0.4-10.51-0.8-15.76-1.2c2.54,1.11,4.41,3.63,4.73,6.38
				c-5.36-1.24-10.59-3.02-15.59-5.3c2.37,6.81,12.73,18.77,20.29,17.7c14.93-2.11,30.22-7.24,40.27-18.48
				c5.34-5.98,8.88-13.31,12.35-20.53c4.33-9.01,20.59-35.7,23.53-39.22C189.26,904.63,168.82,907.2,160.48,916.28z"/>
			<path class="st9" d="M289.6,1031.84c-2.69,0.8-5.05,1.82-6.55,3.26c-1.11,1.06-1.69,2.54-2.25,3.97
				c-3.35,8.61-6.56,14.3-7.27,23.58c-0.33,4.4-0.11,8.88,1.14,13.13c1.17,3.98,7.6,10.62,2.17,13.67
				c-7.98,4.49-18.77,1.38-24.75-5.56c-5.98-6.94-7.72-16.74-6.7-25.85s4.5-14.44,7.94-22.92c-14.7-0.58-29.18-5.98-40.66-15.18
				c-4.61,6.97-9.29,10.82-11.36,18.91c-2.07,8.09-1.08,17.46,4.62,23.56c2.02,2.16,4.71,4.14,5.08,7.07
				c0.43,3.45-2.71,6.41-6.01,7.49c-6.48,2.12-13.83-0.8-18.51-5.76c-4.68-4.96-7.14-11.6-8.8-18.22
				c-1.95-7.78-2.97-12.65-1.64-20.56c0.96-5.66,3.11-11.24,2.55-16.95c-0.46-4.72-2.74-9.05-4.97-13.23
				c-4.77-8.94-19.02-0.38-26.25,0.93c-12.73,2.32-36.43,1.7-46.69-22.14c11.82,2.65,25.25-0.32,34.14-9.09
				c10.22-10.08,28.8-48.5,59.75-59.72c18.11-6.57,37.86-9.8,56.74-5.99c18.16,3.66,34.76,13.67,47.55,27.08
				c12.79,13.41,21.87,30.09,27.61,47.7c3.9,11.97,7.42,25.46-2.38,35.03c-5.18,5.05-11.74,9.09-18.64,11.87
				C301.53,1029.51,294.92,1030.26,289.6,1031.84z"/>
			<g>
				<g>
					<path class="st8" d="M258.72,933.76c0.64-0.02,3.82,0.78,4.12,2.21c0.43,2.07-4.76,3.86-5.72,4.22
						c-2.06,0.78-4.2,1.37-6.4,1.77c-0.86,0.16-2.09-0.01-2.64-1.35c-0.38-0.93-0.13-1.82,0.22-2.41
						C250.28,934.91,255.3,933.89,258.72,933.76z"/>
				</g>
				<g>
					<path class="st8" d="M233.86,905.93c0.94,0.02,5.25,0.95,5.1,2.32c-0.21,1.97-8.47,3.35-10.02,3.64
						c-3.31,0.62-6.66,1.05-10.02,1.3c-1.31,0.1-3.04-0.13-3.29-1.42c-0.18-0.9,0.54-1.72,1.29-2.25
						C221.12,906.53,228.83,905.86,233.86,905.93z"/>
					<path class="st8" d="M223.19,918.15c0.7-0.04,4.08,0.64,4.22,1.98c0.2,1.94-5.7,3.73-6.8,4.1c-2.36,0.78-4.77,1.39-7.23,1.82
						c-0.96,0.17-2.29,0.04-2.71-1.2c-0.3-0.87,0.09-1.71,0.55-2.27C213.81,919.42,219.44,918.35,223.19,918.15z"/>
					<path class="st8" d="M214.86,930.16c0.56-0.15,3.49-0.07,4.04,1.15c0.79,1.76-3.39,4.4-4.16,4.91
						c-1.65,1.11-3.4,2.07-5.24,2.87c-0.72,0.31-1.83,0.41-2.57-0.67c-0.52-0.76-0.48-1.6-0.29-2.2
						C207.71,932.87,211.9,930.95,214.86,930.16z"/>
				</g>
				<g>
					<path class="st8" d="M202.28,912.34c0.7-0.1,4.12,0.33,4.37,1.76c0.36,2.07-5.38,4.53-6.45,5.02c-2.29,1.05-4.64,1.92-7.06,2.6
						c-0.94,0.26-2.27,0.24-2.8-1.06c-0.37-0.91-0.05-1.85,0.37-2.5C193.04,914.55,198.56,912.89,202.28,912.34z"/>
					<path class="st8" d="M194.71,926.23c0.54-0.21,3.48-0.39,4.12,0.88c0.93,1.83-3.02,5.04-3.74,5.67
						c-1.55,1.34-3.22,2.53-4.99,3.56c-0.69,0.4-1.79,0.6-2.62-0.5c-0.58-0.77-0.61-1.68-0.46-2.34
						C187.81,929.79,191.83,927.35,194.71,926.23z"/>
					<path class="st8" d="M188.9,942.89c0.41-0.13,2.79-0.01,3.57,1.15c1.12,1.68-1.49,4.09-1.97,4.57
						c-1.01,1.02-2.15,1.89-3.41,2.62c-0.49,0.28-1.35,0.36-2.25-0.68c-0.63-0.72-0.83-1.52-0.84-2.08
						C183.92,945.33,186.74,943.59,188.9,942.89z"/>
				</g>
				<g>
					<path class="st8" d="M179.48,925.41c0.56-0.17,3.42-0.27,3.81,0.87c0.57,1.65-3.81,4.43-4.63,4.97
						c-1.74,1.16-3.56,2.19-5.45,3.06c-0.74,0.34-1.83,0.5-2.44-0.5c-0.42-0.7-0.28-1.51-0.03-2.1
						C172.19,928.44,176.5,926.35,179.48,925.41z"/>
					<path class="st8" d="M175.11,937.8c0.42-0.24,2.8-0.77,3.49,0.18c1,1.38-1.81,4.53-2.32,5.14c-1.09,1.31-2.3,2.5-3.62,3.57
						c-0.51,0.42-1.39,0.73-2.21-0.06c-0.58-0.55-0.72-1.3-0.69-1.86C169.92,941.63,172.89,939.1,175.11,937.8z"/>
					<path class="st8" d="M162.37,941.24c0.32-0.16,2.29-0.37,3.08,0.48c1.14,1.23-0.69,3.55-1.01,4c-0.7,0.97-1.51,1.84-2.45,2.6
						c-0.36,0.3-1.06,0.47-1.94-0.26c-0.61-0.51-0.88-1.14-0.97-1.59C158.6,943.9,160.69,942.1,162.37,941.24z"/>
				</g>
				<g>
					<path class="st8" d="M246.07,918.49c0.7,0.01,4.03,0.91,4.08,2.25c0.07,1.94-5.93,3.35-7.06,3.65
						c-2.4,0.63-4.85,1.07-7.33,1.34c-0.97,0.1-2.28-0.11-2.63-1.38c-0.24-0.89,0.2-1.7,0.7-2.23
						C236.63,919.15,242.31,918.45,246.07,918.49z"/>
					<path class="st8" d="M236.53,929.95c0.63-0.12,3.9,0.17,4.41,1.54c0.75,1.98-4.1,4.55-4.99,5.07
						c-1.91,1.09-3.93,2.01-6.04,2.76c-0.82,0.29-2.07,0.32-2.82-0.92c-0.52-0.86-0.41-1.78-0.16-2.42
						C228.38,932.4,233.18,930.61,236.53,929.95z"/>
					<path class="st8" d="M227.89,944.44c0.47-0.07,3.08,0.44,3.76,1.72c0.99,1.86-2.27,3.85-2.86,4.25
						c-1.27,0.86-2.66,1.55-4.16,2.07c-0.58,0.2-1.55,0.14-2.39-1.04c-0.59-0.82-0.69-1.65-0.62-2.21
						C222.02,946.08,225.41,944.8,227.89,944.44z"/>
					<path class="st8" d="M153.62,953.6c0.27-0.05,2.02,0.22,2.81,1.03c1.14,1.18-0.28,2.54-0.53,2.81
						c-0.53,0.58-1.19,1.06-1.96,1.43c-0.3,0.14-0.91,0.12-1.77-0.62c-0.6-0.52-0.9-1.05-1.02-1.42
						C150.49,954.79,152.2,953.89,153.62,953.6z"/>
				</g>
			</g>
			<path class="st1" d="M276.82,1085.1c-0.14,0.65,0,1.32,0.15,1.97c-0.98-1.3-2.58-2.25-4.18-1.99c-1.6,0.26-2.9,2.08-2.25,3.57
				c-1.5-1.45-3.43-2.68-5.51-2.53c-2.08,0.14-4.06,2.21-3.44,4.2c0.31,1.02,1.19,1.76,2.09,2.32c3.11,1.93,7.27,2.64,9.15,5.78
				c0.49-2.13,0.21-4.44-0.78-6.39c3.11,1.07,5.75,3.44,7.15,6.42c0.86-0.91,1.13-2.26,0.99-3.5s-0.64-2.42-1.13-3.57
				c2.6,0.74,4.89,2.48,6.32,4.77c0.46-1.86-0.04-3.85-0.97-5.53C283.69,1089.33,277.67,1081.28,276.82,1085.1z"/>
			<path class="st1" d="M208.54,1070.17c-0.07,0.61,0.13,1.21,0.32,1.79c-1.02-1.09-2.57-1.81-4.01-1.42s-2.46,2.18-1.72,3.48
				c-1.51-1.18-3.39-2.12-5.28-1.79c-1.89,0.33-3.5,2.41-2.75,4.17c0.38,0.9,1.25,1.5,2.13,1.93c3.03,1.47,6.9,1.72,8.92,4.42
				c0.25-2-0.23-4.08-1.32-5.77c2.95,0.68,5.59,2.6,7.15,5.19c0.7-0.91,0.82-2.17,0.57-3.3c-0.25-1.12-0.82-2.15-1.38-3.16
				c2.45,0.44,4.71,1.8,6.24,3.76c0.24-1.74-0.41-3.52-1.41-4.96C215.22,1073.38,208.95,1066.6,208.54,1070.17z"/>
			<path class="st1" d="M342.8,867.81c0.01,1.45,0.03,2.95,0.62,4.27c1.29,2.86,5.49,3.88,7.95,1.94c3.02-2.39,2.41-7.39-0.01-10.39
				c-1.98-2.46-5.23-4.82-8.16-5.85C342.21,860.71,342.78,864.63,342.8,867.81z"/>
		</g>
		<g>
			<path class="st1" d="M361.97,855.39c-1.27,1.18-2.58,2.41-3.27,4.01c-1.48,3.46,1.01,7.99,4.72,8.6
				c4.56,0.74,8.48-3.85,9.17-8.42c0.57-3.74,0.03-8.53-1.43-11.94C367.77,849.13,364.77,852.8,361.97,855.39z"/>
			<path class="st7" d="M288.85,987.88c-5.1,1.14-10.04,3.99-13.82,7.41c-5.69,5.15-11.05,14.12-19.04,15.79
				c-4.22,0.88-8.88-0.75-11.61-4.09c-5.69-6.93-0.52-12.65,1.85-19.51c4.65-13.46-12.83-14.93-12.02-25.77
				c0.28-3.66,3.67-6.52,6.88-7.72c2.55-0.95,5.31-1.4,7.7-2.69c9.58-5.19-1.38-16.67-6.02-21.41c-3.19-3.26-7.75-6.02-8.62-10.86
				c-1.76-9.83,10.57-13.73,17.35-16.56c2.93-1.22,5.86-3.21,6.78-6.25c1.71-5.64-3.57-11.24-3.71-16.83
				c-0.15-5.8,4.94-10.69,10.52-12.28c4.36-1.24,9.67-1.08,14.05-0.1c2.69,0.6,5.45,1.3,8.16,0.81c10.36-1.85,1.59-13.43,6.78-18.8
				c6.49-6.72,22.83,8.71,27.86,12.17c8.03,5.52,8.01-2.15,10.37-7.67c1.71-4,14.23-6.17,19.53,1.05
				c11.87,16.19,18.38,3.57,22.47,17.4c6.68,22.55-1.7,31.95-2.68,45.41c-0.93,12.76-3.95,26.72-14.24,34.31
				c-5.93,4.37-13.48,5.96-19.76,9.84c-8.28,5.11-13.64,13.73-18.71,22.04c-2.25,3.71-4.39,15.16-10.95,11.11
				c-1.45-0.9-2.54-2.26-3.8-3.4C299.98,987.52,294.22,986.68,288.85,987.88z"/>
			<path class="st8" d="M251.5,902.47c2.93-1.22,5.86-3.21,6.78-6.25c1.71-5.64-3.57-11.24-3.71-16.83
				c-0.15-5.8,4.94-10.69,10.52-12.28c4.36-1.24,9.67-1.08,14.05-0.1c2.69,0.6,5.45,1.3,8.16,0.81c10.36-1.85,1.59-13.43,6.78-18.8
				c6.49-6.72,22.83,8.71,27.86,12.17c8.03,5.52,8.01-2.15,10.37-7.67c1.71-4,14.23-6.17,19.53,1.05
				c11.87,16.19,18.38,3.57,22.47,17.4c0.55,1.86,1,3.62,1.35,5.31c-0.11-0.08-0.21-0.16-0.32-0.24c-7.19-5.24-15.6-4.28-18.51,5.1
				c-1.33,4.3-1,8.9-0.82,13.4c0.6,14.91-0.6,29.9-3.56,44.53c-3.48-4.51-3.57-10.69-3.5-16.39c0.18-15.77,0.37-31.53,0.55-47.3
				c0.03-2.16,0.01-4.48-1.21-6.27c-1.6-2.35-4.85-3.06-7.64-2.55c-5.6,1.04-9.8,6.08-11.42,11.54c-1.62,5.46-1.12,11.31-0.39,16.96
				c2.04,15.81,5.74,31.41,11.03,46.45c-9.45-7-12.82-19.49-14.37-31.15c-1.55-11.65-2.05-23.92-7.93-34.1
				c-1.52-2.62-3.5-5.16-6.3-6.31c-4.35-1.79-9.45,0.3-12.82,3.58c-7.08,6.89-8.3,18.2-5.42,27.65c2.88,9.45,9.17,17.44,15.59,24.95
				c6.42,7.51,13.2,14.94,17.37,23.9c-16.41-15.26-31.24-32.23-44.16-50.55c-1.9-2.69-3.84-5.49-6.67-7.16
				c-2.83-1.67-6.84-1.86-9.14,0.49c-1.02,1.04-1.58,2.42-2.12,3.77c-1.96,4.89-3.92,9.77-5.88,14.66
				c-1.02,2.55-2.06,5.14-2.29,7.87c-0.34,3.95,1.04,7.9,3.13,11.28c6.59,10.69,19.27,15.77,31.29,19.42
				c12.02,3.65,24.84,6.9,33.82,15.68c-8.48,0.13-16.59-3.16-24.52-6.16c-7.93-3-16.33-5.82-24.74-4.69
				c-8.41,1.13-16.73,7.42-17.33,15.88c-0.15,2.11,0.24,4.38,1.63,5.97c0.99,1.13,2.37,1.81,3.77,2.35
				c6.68,2.56,14.07,2.22,21.21,1.76c7.14-0.46,14.49-0.98,21.28,1.26c4.17,1.38,8.09,4.08,10.6,7.61c-1.72,3.61-4.05,6.58-7.9,4.2
				c-1.45-0.9-2.54-2.26-3.8-3.4c-4.19-3.79-9.95-4.63-15.32-3.43c-5.1,1.14-10.04,3.99-13.82,7.41
				c-5.69,5.15-11.05,14.12-19.04,15.79c-4.22,0.88-8.88-0.75-11.61-4.09c-5.69-6.93-0.52-12.65,1.85-19.51
				c4.65-13.46-12.83-14.93-12.02-25.77c0.28-3.66,3.67-6.52,6.88-7.72c2.55-0.95,5.31-1.4,7.7-2.69
				c9.58-5.19-1.38-16.67-6.02-21.41c-3.19-3.26-7.75-6.02-8.62-10.86C232.39,909.2,244.72,905.3,251.5,902.47z"/>
			<path class="st1" d="M349.29,921.65c4.07-6.58,5.85-20.41-2.02-14.5c-6.62,4.97-14.92,8.77-18.21,16.37
				c-1.69,3.9-1.78,8.33-1.18,12.54c0.2,1.4,0.49,2.82,1.21,4.03c1.74,2.9,5.67,3.85,8.97,3.12
				C349.55,940.66,344.21,929.85,349.29,921.65z"/>
			<path class="st5" d="M338.75,943.03c0.11-0.03,0.22-0.06,0.32-0.09c0.07-0.02,0.13-0.04,0.19-0.06c0.09-0.03,0.19-0.06,0.28-0.09
				c0.07-0.02,0.13-0.05,0.2-0.07c0.08-0.03,0.17-0.06,0.25-0.09c0.07-0.02,0.13-0.05,0.2-0.08c0.08-0.03,0.16-0.06,0.23-0.09
				c0.07-0.03,0.13-0.06,0.19-0.08c0.07-0.03,0.14-0.06,0.22-0.09c0.06-0.03,0.12-0.06,0.19-0.09c0.07-0.03,0.14-0.07,0.2-0.1
				c0.06-0.03,0.12-0.06,0.18-0.1c0.06-0.03,0.13-0.07,0.19-0.1c0.06-0.03,0.12-0.07,0.17-0.1c0.06-0.04,0.12-0.07,0.17-0.11
				c0.06-0.04,0.11-0.07,0.17-0.11c0.05-0.04,0.11-0.07,0.16-0.11c0.05-0.04,0.11-0.08,0.16-0.11c0.05-0.04,0.1-0.08,0.15-0.11
				c0.05-0.04,0.1-0.08,0.15-0.12c0.05-0.04,0.1-0.08,0.14-0.12c0.05-0.04,0.1-0.08,0.15-0.13c0.04-0.04,0.09-0.08,0.13-0.12
				c0.05-0.04,0.09-0.09,0.14-0.13c0.04-0.04,0.08-0.08,0.12-0.12c0.04-0.05,0.09-0.09,0.13-0.14c0.04-0.04,0.08-0.08,0.11-0.12
				c0.04-0.05,0.08-0.1,0.12-0.14c0.04-0.04,0.07-0.08,0.11-0.13c0.04-0.05,0.08-0.1,0.12-0.15c0.03-0.04,0.07-0.09,0.1-0.13
				c0.04-0.05,0.08-0.1,0.11-0.16c0.03-0.04,0.06-0.09,0.09-0.13c0.04-0.05,0.07-0.11,0.11-0.16c0.03-0.04,0.06-0.09,0.08-0.13
				c0.03-0.06,0.07-0.11,0.1-0.17c0.03-0.04,0.05-0.09,0.08-0.13c0.03-0.06,0.06-0.12,0.1-0.17c0.02-0.04,0.05-0.09,0.07-0.13
				c0.03-0.06,0.06-0.12,0.09-0.18c0.02-0.04,0.04-0.09,0.06-0.13c0.03-0.06,0.06-0.13,0.09-0.19c0.02-0.04,0.04-0.09,0.06-0.13
				c0.03-0.06,0.05-0.13,0.08-0.2c0.02-0.04,0.03-0.09,0.05-0.13c0.03-0.07,0.05-0.14,0.08-0.2c0.02-0.04,0.03-0.08,0.04-0.12
				c0.03-0.07,0.05-0.14,0.07-0.21c0.01-0.04,0.03-0.08,0.04-0.12c0.02-0.07,0.05-0.15,0.07-0.23c0.01-0.04,0.02-0.07,0.03-0.11
				c0.02-0.08,0.05-0.16,0.07-0.24c0.01-0.03,0.02-0.07,0.03-0.1c0.02-0.08,0.05-0.17,0.07-0.25c0.01-0.03,0.01-0.06,0.02-0.09
				c0.02-0.09,0.04-0.18,0.07-0.27c0.01-0.02,0.01-0.04,0.02-0.07c0.02-0.1,0.04-0.2,0.07-0.3c0-0.01,0-0.02,0.01-0.04
				c0.02-0.11,0.05-0.22,0.07-0.33c-1.02,0.17-2.04,0.27-3.07,0.2c-2.31-0.15-4.69-1.25-5.77-3.29c-0.46-0.87-0.66-1.87-0.73-2.85
				c-0.34-4.81,2.2-9.41,5.47-12.96c3.11-3.37,6.89-6.04,10.28-9.12c-0.75-1.44-2.3-1.68-4.94,0.31c-0.41,0.31-0.83,0.62-1.26,0.92
				c-4.89,3.48-10.43,6.52-14.14,10.96c-0.32,0.39-0.63,0.78-0.93,1.19c-0.73,1.02-1.37,2.11-1.89,3.3
				c-0.74,1.71-1.17,3.51-1.38,5.36c-0.03,0.28-0.06,0.56-0.08,0.84c-0.13,1.84-0.05,3.71,0.17,5.55c0.03,0.26,0.07,0.53,0.1,0.79
				c0.02,0.17,0.05,0.35,0.08,0.52c0.01,0.09,0.03,0.17,0.04,0.26c0.06,0.35,0.13,0.7,0.22,1.04c0.04,0.17,0.09,0.34,0.14,0.51
				c0.05,0.17,0.11,0.34,0.17,0.5c0.03,0.08,0.06,0.16,0.1,0.25c0.13,0.33,0.29,0.64,0.47,0.94c0.33,0.54,0.73,1.02,1.19,1.43
				c0.15,0.14,0.31,0.26,0.48,0.39c1.91,1.39,4.58,1.82,6.98,1.37c0.1-0.02,0.21-0.04,0.31-0.06c0.18-0.04,0.35-0.08,0.52-0.12
				C338.64,943.06,338.69,943.05,338.75,943.03z"/>
			<g>
				<path class="st1" d="M386.45,935.65c6.07-3.49,13.42-13.75,4.61-12.42c-7.41,1.12-15.65,0.59-21.53,5.23
					c-3.02,2.38-4.99,5.87-6.32,9.48c-0.44,1.2-0.82,2.45-0.76,3.73c0.15,3.06,2.86,5.5,5.81,6.33
					C378.51,950.91,378.88,940.01,386.45,935.65z"/>
				<path class="st5" d="M376.27,946.73c0.18-0.15,0.35-0.3,0.53-0.46c-1.68-1.94-4.26-3.95-4.68-6.6
					c-0.48-3.01,0.66-6.82,3.24-8.57c3.22-2.18,7.19-2.99,10.91-3.87c2.97-0.7,5.94-1.48,8.83-2.47c-0.16-1.25-1.34-1.94-4.05-1.53
					c-0.46,0.07-0.93,0.13-1.4,0.19c-7.03,0.89-14.62,0.69-20.14,5.04c-0.76,0.6-1.45,1.26-2.08,1.98c-0.79,0.9-1.48,1.88-2.1,2.92
					c-0.86,1.45-1.56,3.01-2.14,4.59c-0.44,1.2-0.82,2.45-0.76,3.73c0,0.1,0.01,0.19,0.02,0.28c0.13,1.32,0.74,2.52,1.64,3.51
					c0.06,0.07,0.13,0.14,0.2,0.21c0.13,0.14,0.27,0.27,0.42,0.4c0.29,0.26,0.59,0.49,0.92,0.71c0.48,0.33,1,0.61,1.53,0.84
					c0.36,0.15,0.72,0.28,1.09,0.39c0.12,0.03,0.24,0.07,0.36,0.1C371.43,948.81,373.99,948.44,376.27,946.73z"/>
			</g>
			<path class="st8" d="M377.37,949.62c4.05,4.99,7.17,11.81,11.09,16.9c3.48,4.51,8.52,7.55,13.71,9.91
				c6.84,3.11,15.27,6.55,16.38,13.98c1.08,7.22-2.37,12.3-11.58,17.19c-0.89-3.88-5.4-5.61-9.33-6.25
				c-3.93-0.65-8.38-1.1-10.86-4.21c2.16,8.62,10.13,15.45,18.98,16.28c-4.09,5.07-11.26,7.42-17.56,5.76
				c-4.78-1.27-9.08-4.63-14.03-4.53c-5.9,0.12-10.43,5.01-15.6,7.85c-6.82,3.74-15.14,3.91-22.71,2.11
				c-7.57-1.81-14.55-5.43-21.45-9.02c-3.99-2.08-8.25-4.41-10.21-8.47c-2.93-6.07,0.41-13.16,3.69-19.05
				c6.06-10.89,1.17-39.18,15.67-52.64c5.27-4.9,11.9,10.87,23-0.84C349.79,931.17,365.55,935.05,377.37,949.62z"/>
			<path class="st9" d="M357.38,991.87c-9.03,10.19-25.41-9.75-27.35-18.17c-1.5-6.51,1.38-13.53,6.27-18.08
				c4.89-4.55,11.52-6.87,18.14-7.73c8.43-1.09,10.25,13.06,10.67,19.48C365.69,976.14,363.27,985.21,357.38,991.87z"/>
			<path class="st6" d="M350.98,955.62c9.12-0.92,14.49,19.67,0,21.22C336.48,978.39,331.6,957.57,350.98,955.62z"/>
			<path d="M357.97,962.4c0.79,3.43-0.48,6.65-2.84,7.2c-2.36,0.54-4.91-1.8-5.7-5.23c-0.79-3.43,0.48-6.65,2.84-7.2
				C354.63,956.63,357.18,958.97,357.97,962.4z"/>
			<path class="st9" d="M377.59,987.72c4.82-6.51,14.31-10.46,21.41-12.79c0.02-0.01,0.04-0.01,0.06-0.02
				c1.02,0.54,2.06,1.05,3.11,1.52c6.84,3.11,15.27,6.55,16.38,13.98c1.08,7.22-1.92,14.94-11.13,19.83
				c-0.89-3.88-6.96-6.48-10.88-7.13c-3.93-0.65-6.37-1.15-9.76-5.98c2.16,8.62,10.13,15.45,18.98,16.28
				c-4.09,5.07-11.26,7.42-17.56,5.76c-3.63-0.96-6.99-3.13-10.56-4.07c-2.38-7.2-5.1-17.35-1.76-24.5
				C376.34,989.59,376.92,988.63,377.59,987.72z"/>
			<path class="st1" d="M294.61,851.13c0.01,1.74,0.03,3.53,0.75,5.12c1.55,3.43,6.58,4.66,9.53,2.32
				c3.62-2.86,2.89-8.85-0.01-12.45c-2.38-2.94-6.27-5.78-9.77-7.01C293.89,842.62,294.58,847.31,294.61,851.13z"/>
			<path class="st1" d="M257.73,875.45c1.14,1.31,2.32,2.66,3.9,3.4c3.41,1.6,8.02-0.75,8.74-4.44c0.89-4.53-3.57-8.6-8.11-9.44
				c-3.72-0.69-8.52-0.31-11.98,1.04C251.65,869.46,255.23,872.57,257.73,875.45z"/>
			<path class="st1" d="M234.66,921c1.69,0.41,3.44,0.83,5.14,0.52c3.71-0.67,6.11-5.25,4.56-8.68c-1.9-4.21-7.89-4.95-12.08-3.01
				c-3.43,1.59-7.13,4.68-9.17,7.78C226.24,919.63,230.95,920.1,234.66,921z"/>
			<path class="st1" d="M240.09,967.78c1.69,0.41,3.44,0.83,5.14,0.52c3.71-0.67,6.11-5.25,4.56-8.68
				c-1.9-4.21-7.89-4.95-12.08-3.01c-3.43,1.59-7.13,4.68-9.17,7.78C231.67,966.41,236.38,966.88,240.09,967.78z"/>
			<path class="st1" d="M241.97,1001.41c1.15-1.3,2.36-2.63,3.94-3.35c3.43-1.55,8.01,0.85,8.69,4.55c0.83,4.54-3.68,8.55-8.23,9.34
				c-3.73,0.64-8.52,0.2-11.97-1.19C235.82,1007.32,239.44,1004.26,241.97,1001.41z"/>
			<g>
				<path class="st1" d="M413.91,969.74c2.59-4.49,9.18,1.12,8.36,8.81c-0.16,1.48-0.38,2.97-0.98,4.33
					c-1.77,3.94-6.81,5.84-10.92,4.54c-3.04-0.96-7.96-5.06-6.78-8.8C404.54,975.6,410.5,975.65,413.91,969.74z"/>
				<path class="st5" d="M410.86,987.56c0.08,0.02,0.16,0.04,0.25,0.06c0.05,0.01,0.11,0.02,0.16,0.03
					c0.07,0.01,0.15,0.03,0.22,0.04c0.06,0.01,0.12,0.02,0.17,0.03c0.07,0.01,0.13,0.02,0.2,0.03c0.06,0.01,0.13,0.02,0.19,0.02
					c0.06,0.01,0.12,0.01,0.19,0.02c0.07,0.01,0.14,0.01,0.2,0.02c0.06,0,0.11,0.01,0.17,0.01c0.07,0,0.15,0.01,0.22,0.01
					c0.05,0,0.09,0,0.14,0c0.09,0,0.17,0,0.26,0c0.02,0,0.05,0,0.07,0c2.9-0.08,5.78-1.48,7.37-3.84c-0.81,0.42-1.66,0.75-2.57,0.93
					c-2.82,0.55-6.26-0.95-6.75-3.79c-0.46-2.68,1.73-4.97,3.43-7.09c1.33-1.65,2.44-3.48,3.31-5.41c-1.55-0.85-3.17-0.64-4.18,1.12
					c-0.11,0.18-0.22,0.36-0.33,0.54c-3.45,5.38-9.07,5.42-10,8.35c-0.51,1.6,0.11,3.27,1.22,4.73c0.07,0.1,0.15,0.19,0.23,0.28
					c0.05,0.07,0.11,0.13,0.16,0.2c0.74,0.86,1.64,1.63,2.55,2.25c0.06,0.04,0.12,0.08,0.18,0.12c0.47,0.31,0.95,0.58,1.4,0.8
					c0.1,0.05,0.19,0.09,0.28,0.13c0.16,0.07,0.32,0.14,0.47,0.19c0.1,0.04,0.2,0.07,0.29,0.1c0.12,0.04,0.25,0.07,0.37,0.11
					C410.78,987.54,410.82,987.55,410.86,987.56z"/>
			</g>
		</g>
	</g>
</g>
<g>
	<g>
		<path class="st10" d="M589.68,247.94c-0.89,5.11,1.4,10.35,4.83,14.24c8.42,9.55,20.43,15.76,30.7,23.11
			c11.17,8.01,26.21-1.1,38.47-3.31c4.85-0.87,10.39-1.93,12.93-6.16c1.99-3.32,1.48-7.71,3.5-11.01c1.61-2.63,4.63-4.14,7.68-4.65
			c3.04-0.5,6.16-0.13,9.22,0.24c-2.22-4.98-7.33-8.54-12.77-8.92c2.59-3.44,6.51-5.85,10.74-6.63c-0.64-2.21-2.8-3.76-5.06-4.2
			c-2.26-0.44-4.61,0.07-6.78,0.87c-6.52,2.42-11.86,7.47-15.42,13.44c-2.37,3.98-4.44,8.76-8.78,10.38
			c-3.01,1.12-6.35,0.38-9.47-0.38c-16.87-4.08-17.43-11.65-24.72-25.17c-2.24-4.15-5.23-8.22-9.6-9.98
			C604.07,225.36,591.49,237.61,589.68,247.94z"/>
		<path class="st11" d="M269.67,263.84c-17.15,18.06-41.7,27.18-66.03,32.53c-62,13.66-129.15,5.87-184.66-24.95
			c25.89,39.04,66.72,60.39,86.84,66.72c39.24,12.34,79.98,19.87,121.04,22.37c16.19,0.99,33.12,2.72,48.4-2.75
			c80.35-28.76,31.48-123.16,20.6-119.54C285.3,241.72,276.94,256.18,269.67,263.84z"/>
		<path class="st12" d="M476.08,440.66c-0.2,11.8-16.44,19.23-15.2,30.97c0.56,5.32,4.66,9.45,7.44,14.01
			c10.52,19.75,6.75,44.44,4.08,65.85c-3.2,25.65,52.68,29.41,65.86,34.94c10.5,5.13,31.42,1.17,25.76-13.69
			c9.43,1.89,18.87,5.56,28.57,5.02c11.1,0.4,21.41-14.25,10.76-21.79c15.82-1.63,13.74-29.12-3.28-29.09
			c-33.87,0.06-59.83,15.61-75.27-26.09c-5.44-15.73-13.7-32.53-11.2-49.46c8.38-28.2,45.49-45.1,40.93-77.93
			c-5.62-19.94-13.18-39.86-10.79-61.06c2.01-8.6-4.86-14.29-13.38-12.76c-24.59,2.61-85.64,46.41-81.37,72.87
			C450.39,384.17,472.16,419.71,476.08,440.66z"/>
		<path class="st10" d="M490.63,450.55c-4.12,2.12-7.62,5.41-10,9.38c-0.48,0.8-0.93,1.72-0.74,2.64c0.38,1.84,2.8,2.22,4.67,2.19
			c5.66-0.07,11.32-0.15,16.98-0.23c1.52,7.39-9.09,11.36-11.66,18.46c-0.33,0.9-0.51,1.91-0.18,2.81
			c1.67,4.56,9.03-1.76,13.36,0.45c3.99,2.05,1.19,8.09-1.89,11.33c-3.08,3.25-5.67,9.45-1.58,11.28c1.05,0.47,2.26,0.4,3.41,0.27
			c3.18-0.37,6.32-1.16,9.3-2.34c1.07,3.15,2.73,6.81,6.02,7.28c1.76,0.25,3.49-0.54,5.1-1.31c1.83-0.88,3.66-1.76,5.49-2.64
			c-1.45-2.74-2.82-5.83-4.12-9.34c-5.44-15.73-13.7-32.53-11.2-49.46c8.38-28.2,45.49-45.1,40.93-77.93
			c-5.62-19.94-13.18-39.86-10.79-61.06c2.01-8.6-4.86-14.29-13.38-12.76c-24.59,2.61-85.64,46.41-81.37,72.87
			c0.84,6.96,8.85,22.31,16.04,38.01c11.46-14.09,27.78-24.18,45.64-27.76c6.52-1.31,15.69,0.11,16.25,6.74
			c0.2,2.38-0.94,4.69-2.43,6.56c-8.18,10.3-26.38,10.85-30.88,23.21c6.35,0.72,12.82,0.27,19.01-1.31
			c-1.78,5.21-5.5,9.74-10.28,12.49c5.48,0.08,6.55,8.7,2.78,12.66C501.34,447.02,495.5,448.04,490.63,450.55z"/>
		<path class="st5" d="M740.65,109.31c-6.19,12.13,53.4,79.42,80.98,88.65c27.57,9.23,91.79,6.95,98.37-6.06
			c6.58-13.02,16.7-65.96,9.99-75.57c-6.71-9.6-120.87-28.06-134.76-20.48C781.34,103.43,740.65,109.31,740.65,109.31z"/>
		<path class="st1" d="M769.98,122.39c2.62,8.04,3.16,16.75,1.58,25.06c6.12-2.32,10.99-7.71,12.67-14.03
			c1.4,8.75,1.17,17.75-0.69,26.42c9.37-1.67,17.79-7.95,22.07-16.45c0.78,9.05-0.23,18.26-2.96,26.93
			c8.93-2.9,17.03-14.61,20.22-23.33c0.93,11.28,0.84,22.64-0.28,33.91c10.42-5.9,17.39-17.47,17.73-29.44
			c3.58,12.82,5.15,26.21,4.63,39.51c12.54-14.48,20.71-32.68,23.21-51.66c5.11,18.81,5.01,39-0.28,57.76
			c9.15-7.56,15.45-18.11,19.62-29.23c4.16-11.11,6.34-22.86,8.42-34.54c2.08,21.03-2.48,42.09-7.01,62.74
			c6.67-1.4,11.45-7.22,14.95-13.07c9.59-16.03,13.65-34.66,17.58-52.92c2.5,7.12,0.12,54.28-3.15,68.1
			c10-15.96,13.44-41.06,15.75-57.16c0.52-3.64-7.33-18.14-12.75-21.61c-14.42-9.24-31.62-13.26-48.67-14.82
			c-17.05-1.56-34.23-0.8-51.34-1.27c-16.1-0.45-32.15-1.98-48.24-2.76c-17.09-0.83-23.06,23.91-14.26,36.02
			C760.54,130.44,764.05,125.15,769.98,122.39z"/>
		<path class="st13" d="M816.38,169.88c33.74,17.1,72.36,27.35,108.53,16.3c2.01,17.12-11.45,33.23-27.64,39.14
			c-16.19,5.91-34.22,3.62-50.89-0.77c-16.67-4.39-32.87-10.82-49.95-13.14c-27.37-3.72-56.27,3.19-82.26-6.17
			c-10.7-3.85-20.26-10.27-29.69-16.63c-4.73-3.19-9.62-6.54-12.46-11.49c-1.77-3.08-2.63-6.59-3.43-10.05
			c-2.04-8.87-3.83-18.04-2.39-27.03c2.21-13.76,11.9-25.45,23.61-33.01c8.13-5.24,31.74-18.23,41.73-15.28
			C738.56,93.82,727.43,124.8,816.38,169.88z"/>
		<path class="st13" d="M427.26,395.72c25.31,4.33,52.98-1.05,72.38-17.89c7.31-6.35,13.26-14.08,19.43-21.55
			c18.93-22.94,40.37-43.87,64.26-61.58c13.06-9.68,26.85-18.4,39.24-28.93c16.93-14.4,30.9-31.91,44.75-49.29
			c10.72-13.46,7.22-22,16.75-36.33c10.19-15.32,14.2-33.81,18-51.81c1.87-8.85,3.68-18.38,0.05-26.66
			c-4.52-10.33-31.38-20.01-42.21-16.83c-10.82,3.17-19.88,10.49-28.4,17.87C579.08,148.1,533.49,202.99,472.4,235.8
			c-39.01,20.96-83.85,32.61-116.83,62.16C304.68,343.56,388.15,389.02,427.26,395.72z"/>
		<path class="st11" d="M381,173.68c16.35-4.99,33.56-6.76,49.88-11.86c14.22-4.44,27.57-11.35,41.79-15.81
			c21.06-6.6,43.54-7.66,64.6-14.26c48.16-15.08,78.43-44.4,109.72-84c20.64-26.12,48.42-34.13,74.39-31.16
			c7.49,0.85,14.24,5.5,21.76,5.89c11.3,0.59,22.65-7.41,33.33-3.65c6.99,2.46,11.78,9.51,18.96,11.35
			c5.56,1.42,11.4-0.58,17.12-0.33c5.73,0.25,12.3,4.81,10.81,10.34c6.78-4.81,17.94,0.06,19.04,8.29
			c5.57-5.83,15.96-6.03,21.76-0.43c5.85-3.98,15.3,1.49,14.76,8.55c6.81-2.79,15.57,1.2,17.92,8.17
			c27.52,13.14,43.75,46.4,37.17,76.18c-9.7-6.68-22.88-5.05-33.98-1.12c-11.1,3.92-22.01,8.16-33.37,11.28
			c-56.58,15.51-91.56-18.45-109.68-28.41c-28.01-15.39-71.28-16.27-82.14-7.98c-10.86,8.29-18.52,22.11-25.68,33.74
			c-19.87,32.28-65.37,44.76-78.7,80.25c-7.79,20.74-3.72,47.54-20.65,61.83c-16.33,13.79-41.22,6.45-61.97,11.55
			c-17.89,4.39-32.09,18-49.26,24.66c-8.52,3.31-17.64,4.85-26.2,8.08c-20.21,7.63-36.94,24.5-58.36,27.28
			c-27.61,3.58-53.28-18.72-63.14-44.75c-6.49-17.15-7.71-35.66-7.2-53.83c0.49-17.43,0.57-25.28,13.66-36.53
			C322.63,205.29,348.54,183.59,381,173.68z"/>
		<path class="st13" d="M866.94,110.33c-7.66-6.18-4.57-15.91,3.63-20.57c8.2-4.66,21.71-0.53,25.15,20.97
			C896.95,118.41,889.79,128.77,866.94,110.33z"/>
		<path class="st14" d="M884.17,116.19c1.19,0.45,2.45,0.8,3.72,0.65c1.26-0.14,2.52-0.88,2.98-2.06c0.42-1.06,0.14-2.26-0.24-3.33
			c-2.11-6-7.44-10.75-13.63-12.16c-1.36-0.31-2.82-0.46-4.12,0.04C864.89,102.41,880.77,114.91,884.17,116.19z"/>
		<path class="st13" d="M742.05,48.84c-6.42,2.76-13.79,6.78-14.37,13.74c-0.32,3.81,1.61,7.42,3.55,10.72
			c4.62,7.83,9.69,15.4,15.17,22.66c2.24,2.97,4.72,6.01,8.17,7.41c3.07,1.24,6.55,1.01,9.76,0.2
			c19.24-4.84,29.29-27.61,48.09-33.94c2.91-0.98,6.65-2.35,6.66-5.42c0.01-1.84-1.52-3.37-3.22-4.09
			c-1.69-0.72-3.57-0.84-5.37-1.22c-5.41-1.14-10.02-4.6-14.21-8.22c-4.19-3.62-8.24-7.54-13.23-9.92
			C769.21,34.15,754.46,43.51,742.05,48.84z"/>
		<path class="st12" d="M521.53,259.89c-3.35,3.96-4.02,9.64-3.03,14.73c2.44,12.49,9.67,23.92,14.8,35.46
			c5.59,12.55,23.17,12.3,34.87,16.59c4.63,1.7,9.94,3.59,14.27,1.22c3.4-1.86,5.17-5.9,8.58-7.73c2.72-1.45,6.09-1.23,8.97-0.13
			c2.88,1.1,5.38,3,7.83,4.87c0.6-5.42-2-11.08-6.51-14.15c3.98-1.65,8.57-1.76,12.62-0.29c0.56-2.24-0.51-4.66-2.25-6.18
			c-1.73-1.52-4.02-2.27-6.29-2.67c-6.85-1.21-14.01,0.45-20.1,3.8c-4.06,2.23-8.26,5.32-12.82,4.52c-3.16-0.55-5.67-2.88-7.98-5.11
			c-12.5-12.05-9.15-18.86-8.61-34.21c0.17-4.71-0.36-9.73-3.24-13.46C545.36,247.67,528.31,251.88,521.53,259.89z"/>
		<path class="st6" d="M756.33,50.31c-3.97,2.37-7.39,6.02-8.44,10.52c-0.89,3.84,0.02,7.93,1.78,11.46
			c1.76,3.53,4.31,6.59,6.86,9.6c1.55,1.82,3.18,3.69,5.36,4.67c3.97,1.78,8.58,0.16,12.49-1.73c4.89-2.35,9.87-5.47,11.98-10.46
			c2.85-6.72-0.4-14.35-3.87-20.77C776.23,42.04,766.35,44.34,756.33,50.31z"/>
		<ellipse transform="matrix(0.7656 -0.6434 0.6434 0.7656 133.1729 514.5342)" cx="772.61" cy="74.53" rx="11.03" ry="8.78"/>
		<path class="st11" d="M941.07,92.12c0.68,1.57,0.78,3.33,0.69,5.03c-0.31,5.6-2.65,10.96-5.98,15.48
			c-1.52,2.07-3.31,4.04-5.6,5.21c-2.29,1.17-5.17,1.44-7.4,0.16c-1.09-0.62-1.97-1.57-2.71-2.58c-2.91-3.97-3.92-9.26-2.69-14.02
			c1.16-4.5,3.96-10.98,8.43-13.1C930.67,85.98,938.68,86.62,941.07,92.12z"/>
		<g>
			<path class="st5" d="M571.56,596.08c0,0-10.52-8.06-23.98-11.36c-13.58-3.32,0.55-23.04,13.04-16.41
				C575.66,576.31,571.56,596.08,571.56,596.08z"/>
			<path class="st5" d="M609.05,584.7c0,0-9.81-7.52-22.36-10.59c-12.66-3.1,0.52-21.49,12.16-15.3
				C612.87,566.26,609.05,584.7,609.05,584.7z"/>
			<path class="st5" d="M623.05,559.59c0,0-9.81-7.52-22.36-10.59c-12.66-3.1,0.52-21.49,12.16-15.3
				C626.87,541.15,623.05,559.59,623.05,559.59z"/>
		</g>
		<path class="st12" d="M290.79,287.34c3.54-5.33,4.71-11.86,5.31-18.23c0.93-9.81,0.23-20.45-3.01-29.71
			c-9.27,4.83-16.8,17.46-23.42,24.44c-17.15,18.06-41.7,27.18-66.03,32.53c-49.57,10.92-102.43,8.11-150.01-9.2
			c0.88,4.6,2.7,9.04,5.52,12.96c5.53,7.67,18.44,10.18,24.37,2.82c4.37-0.64,6.14,5.39,6.28,9.8c0.14,4.41,2.37,10.41,6.65,9.33
			c4.4-1.11,4.82-9.11,9.36-9.06c4.96,0.06,3.96,8.9,8.24,11.42c3.59,2.11,7.77-1.68,9.88-5.27c2.12-3.59,4.91-7.99,9.05-7.51
			c7.72,0.89,5.17,15.79,12.61,18.03c5.13,1.54,9.03-4.48,11.26-9.35c2.24-4.87,7.3-10.43,11.9-7.68c3.46,2.07,3.38,7.45,6.54,9.96
			c2.84,2.26,7.28,1.15,9.82-1.44c2.54-2.58,3.66-6.21,4.7-9.69c4.3-0.02,7.67,4.08,8.55,8.28c0.88,4.21-0.04,8.55-0.53,12.82
			c-0.21,1.79-0.28,3.8,0.89,5.17c2.29,2.69,6.95,0.37,8.45-2.83c1.5-3.2,1.47-7.03,3.36-10.03c2.84-1.32,5.63,2.28,5.88,5.41
			c0.25,3.13-0.55,6.57,1.15,9.2c2.62,4.06,9.49,2.7,12.11-1.36c2.62-4.05,2.18-9.31,1.35-14.07c-0.67-3.88-1.52-7.97-0.19-11.68
			c1.33-3.71,5.87-6.57,9.29-4.61c4.63,2.65,2.94,10.71,7.33,13.73c3.69,2.53,8.95-0.64,10.72-4.75c1.77-4.11,1.41-8.79,2.25-13.18
			c0.84-4.39,3.74-9.11,8.21-9.34c2.01-0.1,3.93,0.73,5.9,1.1C280.83,296.52,287.25,292.67,290.79,287.34z"/>
		<path class="st12" d="M647,47.76c-32.29,38.79-61.56,68.92-109.72,84c-21.06,6.59-43.54,7.66-64.6,14.26
			c-14.22,4.45-27.57,11.37-41.79,15.81c-16.32,5.1-33.53,6.86-49.88,11.86c-32.47,9.91-58.38,31.61-83.65,53.32
			c-13.09,11.25-13.17,19.1-13.66,36.53c-0.12,4.23-0.14,8.47-0.03,12.71c0.16-0.07,0.32-0.13,0.48-0.21
			c5.09-2.48,7.69-8.19,9.32-13.62c1.63-5.43,2.79-11.25,6.44-15.58c3.65-4.33,10.89-6.32,14.94-2.37c0.91,0.88,1.68,2.05,2.91,2.36
			c2.24,0.56,3.89-1.99,4.87-4.08c2.52-5.37,5.88-10.59,10.88-13.78c5-3.19,11.93-3.91,16.75-0.45c7.15,5.12,9.78,18.26,18.48,17.01
			c6.01-0.87,8.16-8.45,8.18-14.52c0.01-6.08-0.28-13.25,4.55-16.93c3.96-3.02,9.92-2.04,13.86,1.02c3.93,3.06,6.24,7.72,8.16,12.33
			c3.45,8.3,6.03,16.95,7.68,25.78c0.72,3.83,1.3,7.81,3.35,11.12c2.05,3.31,6.05,5.79,9.8,4.74c1.97-0.55,3.57-1.97,4.98-3.46
			c6.17-6.55,9.84-15.39,10.13-24.38c0.3-9.55-3.04-18.81-4.29-28.28c-1.24-9.47,0.26-20.4,7.86-26.19
			c1.73-1.32,3.81-2.33,5.98-2.27c2.52,0.07,4.81,1.57,6.55,3.4c6.62,6.97,6.42,17.7,7.89,27.2c1.47,9.5,7.48,20.43,17.09,19.92
			c9.82-0.52,14.61-12.82,13.34-22.57c-1.27-9.75-6.09-19.05-5.52-28.86c0.34-5.82,2.64-11.51,6.45-15.92
			c1.66-1.92,3.73-3.67,6.23-4.15c6.94-1.32,11.36,7,13.57,13.71c2.2,6.71,7.25,14.87,14.03,12.88c4.72-1.39,6.61-7.23,6.18-12.14
			c-0.43-4.9-2.41-9.64-2.31-14.56c0.15-7.47,5.66-14.52,12.87-16.47c3.7-1,8.37-0.34,10.2,3.02c0.99,1.83,0.91,4.03,0.84,6.11
			c-0.2,5.57-0.09,11.38,2.39,16.38c2.48,4.99,7.98,8.9,13.45,7.81c6.7-1.34,10.02-9.03,10.76-15.82
			c1.44-13.25-2.66-26.82,0.08-39.86c0.79-3.74,3.45-8.16,7.18-7.33c2.08,0.47,3.41,2.44,5.05,3.81c1.64,1.37,4.57,1.92,5.58,0.04
			c1.46-3.11-0.08-6.73-0.14-10.17c-0.06-3.44,3.47-7.5,6.22-5.44c2.24,1.68,1.04,5.39,2.38,7.86c2.13,3.94,8.81,1.49,10.22-2.77
			c1.4-4.26-0.21-8.84-0.61-13.3c-0.8-8.92,3.79-18.11,11.4-22.84c3.22,5.28,2.26,14.05,8.19,15.82c3.3,0.99,6.86-1.35,8.45-4.41
			c1.59-3.06,1.71-6.64,1.84-10.08c0.57-14.93-3.05-18.8,2.27-32.75C649.67,44.57,648.32,46.18,647,47.76z"/>
		<path class="st11" d="M225.24,405.1c-4.9,8.56-7.86,18.14-12.79,26.6c-5.09,8.73-13.26,15.2-18.63,23.75
			c-14.55,23.2,13.24,45.47,17.23,67.68c10.27,28.88-41.32,77.11-7.61,95.45c14.91,6.58,31.1-2.87,21.62-19.36
			c2.09-23.36,19.09,6.71,24.96,13.12c15.46,21.94,66.38,19.38,35.23-12.35c15.05-1.97,38.57,20.22,43.66-5.56
			c7.25-36.76-46.93-15.24-54.75-47.16c-6.07-13.04,3.4-23.81-4.19-41.42c-10-23.2-27.95-40.93,8.11-47.38
			c103.31,26.95,139.56-118.1,113.03-194.74c-44.16-114.57-149.14-20.95-126.92,71.69c2.55,10.64,6.46,21.29,6.59,32.36
			C271.05,392.42,236.06,386.2,225.24,405.1z"/>
		<path class="st12" d="M304.89,278.7c-5.26,4.46-10.16,12.57-5.41,17.57c3.44,3.62,9.36,2.5,14.16,1.09
			c7.48-2.19,14.95-4.37,22.43-6.56c0.06,4.04-3.36,7.33-7.01,9.07c-3.65,1.73-7.73,2.46-11.28,4.37c-1.48,0.8-2.98,2.03-3.07,3.7
			c-0.14,2.64,3.13,4,5.76,4.21c6.96,0.53,13.82-1.56,20.75-2.38c6.93-0.81,14.74-0.02,19.53,5.06c1.4,1.48,2.51,3.5,2.07,5.49
			c-0.54,2.47-3.15,3.82-5.51,4.74c-8.65,3.36-17.86,5.27-27.14,5.63c-6.9,0.27-13.91-0.29-20.61,1.36
			c-6.7,1.65-13.28,6.18-14.85,12.9c-0.38,1.63-0.44,3.39,0.22,4.92c1.94,4.47,8.17,4.43,13.02,3.91
			c7.03-0.76,14.12-1.01,21.18-0.75c4.85,0.18,11.09,1.98,11.24,6.83c0.16,5.52-7.46,7.1-12.98,6.79c-0.16,2.75,2.92,4.56,5.65,4.97
			c2.73,0.41,5.73,0.17,8,1.74c5.15,3.55,1.03,12.42-4.99,14.12c-6.02,1.7-12.35-0.63-18.59-1.06c-6.45-0.44-13.03,1.25-18.47,4.74
			c-3.17,2.03-6.15,5.04-6.41,8.79c-0.5,7.14,8.4,10.95,15.56,11.18c7.16,0.23,15.53-0.45,20.16,5.01c1.65,1.95,2.53,4.78,1.45,7.09
			c-0.69,1.48-2.07,2.53-3.47,3.37c-9.11,5.48-21,4.59-30.64,0.1c-4-1.86-7.94-4.35-12.35-4.41c-4.41-0.06-9.24,3.75-8.15,8.03
			c1.08,4.25,7.26,7.36,5.37,11.31c-1.24,2.6-4.94,2.53-7.74,1.84c-12.92-3.18-26.59-11-38.55-5.16c-1.59,0.78-3.17,1.9-3.73,3.58
			c-1.06,3.14,1.9,6.19,4.86,7.68c2.96,1.49,6.47,2.57,8.11,5.45c-5.09,3.88-10.18,7.76-15.28,11.64c-1.81,1.38-3.8,3.13-3.67,5.4
			c0.31,5.44,9.53,3.15,13.75,6.6c3.23,2.64,1.59,7.51,0.25,11.46c-9.26,27.49,28.85,11.58,29.61,11.73
			c-10.09-21.22-24.02-37.3,9.93-43.37c103.31,26.95,139.56-118.1,113.03-194.74c-0.35-0.9-0.7-1.78-1.05-2.66
			c-1.22-0.4-2.43-0.76-3.63-1.05C358.37,253.11,327,259.96,304.89,278.7z"/>
		<path class="st12" d="M260.33,567.57c5.83-4.23,12.15-7.75,18.8-10.52c-2.25-2.55-3.99-5.73-4.98-9.77
			c-4.08-8.77-1.14-16.51-1.08-25.99c-13.94-0.88-31.76,6.49-40.47,15.28c-0.74,0.75-1.48,1.59-1.71,2.62
			c-0.57,2.57,2.38,4.69,5.02,4.73c2.63,0.04,5.14-1.14,7.76-1.4c2.62-0.26,5.82,0.97,6.17,3.58c0.22,1.67-0.84,3.25-2.12,4.35
			c-2.15,1.85-4.94,2.74-7.56,3.82c-2.62,1.08-5.3,2.52-6.7,4.98c-1.41,2.46-0.94,6.17,1.62,7.41c4.44,2.15,10.67-4.28,14.03-0.67
			c0.85,0.91,1.14,2.24,1.98,3.17C253.39,571.7,257.54,569.59,260.33,567.57z"/>
		<g>
			<path class="st5" d="M233.19,628.65c0,0-11.42-5.58-24.25-10.84c-12.93-5.3,2.67-26.04,15.33-14.29
				C236.76,615.1,233.19,628.65,233.19,628.65z"/>
			<path class="st5" d="M297.12,633.79c0,0-9.81-7.52-22.36-10.59c-12.66-3.1,0.52-21.49,12.16-15.3
				C300.94,615.35,297.12,633.79,297.12,633.79z"/>
			<path class="st5" d="M335,608.68c0,0-9.81-7.52-22.36-10.59c-12.66-3.1,0.52-21.49,12.16-15.3
				C338.83,590.24,335,608.68,335,608.68z"/>
		</g>
		<g>
			<path class="st10" d="M601.53,552.71c-5.71-2.63-11.41-5.26-17.12-7.89c-5.67-2.61-13.22-4.9-17.43-0.29
				c4.83,8.04,16.87,5.63,25.89,8.18c6.11,1.73,10.89,5.9,14.94,10.91c-0.1-2.78-1.43-5.5-4.46-7.64c1.24-0.13,2.35-0.43,3.38-0.85
				C604.98,554.31,603.25,553.5,601.53,552.71z"/>
			<path class="st10" d="M561.47,558.35c-7.32-7.97-17-14.82-27.83-14.84c-2.85-0.01-5.88,0.55-7.96,2.5
				c-2.08,1.95-2.71,5.61-0.7,7.64c1.28,1.29,3.22,1.62,5.01,1.89c14.9,2.2,29.97,5.8,37.52,17.98c2.61,0.62,5.22,1.32,7.84,1.97
				C570.71,569.8,566.44,563.76,561.47,558.35z"/>
		</g>
		<g>
			<path class="st12" d="M258.57,620.29c-4.45-5.45-8.23-11.34-10.73-17.91c-2.55-6.68-3.82-14.1-8.39-19.6
				c-4.57-5.5-14.3-7.61-18.49-1.81c-3.49,4.83-0.87,11.84,3.3,16.09c0.3,0.3,0.61,0.58,0.92,0.87c2.6-20.94,19.07,8.1,24.82,14.4
				C252.24,615.51,255.22,618.16,258.57,620.29z"/>
			<path class="st12" d="M313.94,605.92c-12.62-6.76-24.22-15.42-34.28-25.6c-1.95-1.97-4.95-4.13-7.16-2.46
				c-0.55,0.41-0.93,1-1.22,1.62c-4.69,10,10.41,20.11,20.78,28.87c-1.58-2.52-3.81-5.3-6.82-8.36c9.11-1.19,21.32,6.46,30.67,6.98
				C315.25,606.62,314.59,606.27,313.94,605.92z"/>
		</g>
		<path class="st12" d="M896.86,64.79c-2.36-6.97-11.12-10.96-17.92-8.17c0.54-7.06-8.9-12.53-14.76-8.55
			c-5.8-5.6-16.19-5.4-21.76,0.43c-1.09-8.24-12.26-13.1-19.04-8.29c0.21-0.77,0.25-1.52,0.17-2.25
			c-10.32,6.25-20,13.47-12.35,14.51c0.85,0.12,1.72,0.11,2.57,0.04l16.9-1.52c-1.47,2.92-3.74,5.42-6.49,7.2
			c-2.13,1.38-1.57,4.72,0.9,5.33c3.6,0.89,8.39-0.37,11.93-2.24c5.44-2.89,12.73-6.09,17.07-1.72c-0.23,6.05-8.62,6.89-14.45,8.56
			c-8.65,2.47-14.98,11.38-14.47,20.36c0.06,1.09,0.3,2.31,1.23,2.88c0.81,0.49,1.86,0.29,2.74-0.05
			c4.72-1.83,7.28-6.76,10.21-10.89c2.92-4.13,7.75-8.08,12.56-6.5c-2.27,3.18-4.54,6.36-6.81,9.53c-1.82,2.54,0.25,6.11,3.35,5.68
			c5.81-0.79,12.79-11.69,18.1-15C887.17,61.27,897.7,65.2,896.86,64.79z"/>
	</g>
	<g>
		<path class="st1" d="M629.51,377.19c-0.15-4.73,1.84-6.38,1.84-6.38c1.02,6,4.36,11.75,7.81,12.91c0,0-0.95-5.96,1.19-9.04
			c1.88,4.58,8.47,12.23,8.47,12.23s-0.95-4.66,1.44-11.23c3.68,6.85,9.85,11.23,9.85,11.23s-0.32-4.24,3.59-7.65
			c1.56,5.08,7.95,8.91,7.95,8.91s-0.97-4.44,4.68-9.68c2.2,5.55,6.38,9.68,6.38,9.68s1.35-5.67,4.42-11.22
			c1.81,4.88,7.11,6.78,7.11,6.78s0.14-4.46,3.9-7.75c1.45,3.89,4.56,6.14,4.56,6.14s1.02-5.86,3.95-8.51
			c1.39,3.77,5.92,4.88,5.92,4.88l-5.4,16.72l-62.59,1.44C644.59,396.63,629.8,386.41,629.51,377.19z"/>
		<path class="st9" d="M755.86,439.25c-0.38,2.1-2.01,3.8-3.89,4.82c-4.61,2.5-10.14,3.2-15.15,4.59
			c-5.46,1.51-9.98-4.14-14.41-6.74c-1.75-1.03-3.75-2.22-4.13-4.22c-0.3-1.57,0.52-3.19,0.21-4.75c-0.25-1.25-1.2-2.26-2.31-2.89
			c-1.11-0.63-2.36-0.92-3.6-1.22c1.57-1.61,4.05-2.27,6.2-1.64c-0.52-1.7-1.69-3.19-3.21-4.09c0.56-0.77,1.62-1.06,2.55-0.91
			c0.94,0.15,1.77,0.68,2.5,1.3c2.18,1.86,3.53,4.57,4.06,7.39c0.35,1.88,0.47,4.02,1.92,5.26c1,0.86,2.4,1.05,3.72,1.2
			c7.1,0.82,8.39-2.03,13.13-6.23c1.45-1.29,3.19-2.44,5.13-2.5C753.5,428.47,756.63,434.99,755.86,439.25z"/>
		<path class="st8" d="M885.57,440.4c7.07,7.44,17.18,11.2,27.2,13.4c25.54,5.63,53.21,2.42,76.07-10.28
			c-10.66,16.08-27.49,24.88-35.77,27.49c-16.16,5.08-32.95,8.19-49.86,9.22c-6.67,0.41-13.65,1.12-19.94-1.13
			c-33.1-11.85-12.97-50.74-8.48-49.25C879.13,431.29,882.58,437.24,885.57,440.4z"/>
		<path class="st8" d="M800.54,513.24c0.08,4.86,6.77,7.92,6.26,12.76c-0.23,2.19-1.92,3.89-3.06,5.77
			c-4.33,8.14-2.78,18.31-1.68,27.13c1.32,10.57-21.7,12.12-27.13,14.39c-4.33,2.11-12.94,0.48-10.61-5.64
			c-3.88,0.78-7.77,2.29-11.77,2.07c-4.57,0.16-8.82-5.87-4.43-8.98c-6.52-0.67-5.66-12,1.35-11.98
			c13.95,0.02,24.65,6.43,31.01-10.75c2.24-6.48,5.64-13.4,4.62-20.38c-3.45-11.62-18.74-18.58-16.86-32.1
			c2.31-8.21,5.43-16.42,4.44-25.15c-0.83-3.54,2-5.89,5.51-5.26c10.13,1.07,35.28,19.12,33.52,30.02
			C811.12,489.97,802.15,504.61,800.54,513.24z"/>
		<path class="st9" d="M794.54,517.32c1.7,0.87,3.14,2.23,4.12,3.87c0.2,0.33,0.38,0.71,0.31,1.09c-0.16,0.76-1.15,0.91-1.93,0.9
			c-2.33-0.03-4.66-0.06-6.99-0.09c-0.63,3.05,3.75,4.68,4.8,7.61c0.13,0.37,0.21,0.79,0.07,1.16c-0.69,1.88-3.72-0.73-5.5,0.19
			c-1.64,0.84-0.49,3.33,0.78,4.67c1.27,1.34,2.34,3.89,0.65,4.65c-0.43,0.19-0.93,0.16-1.4,0.11c-1.31-0.15-2.6-0.48-3.83-0.97
			c-0.44,1.3-1.13,2.8-2.48,3c-0.73,0.1-1.44-0.22-2.1-0.54c-0.75-0.36-1.51-0.72-2.26-1.09c0.6-1.13,1.16-2.4,1.7-3.85
			c2.24-6.48,5.64-13.4,4.62-20.38c-3.45-11.62-18.74-18.58-16.86-32.1c2.31-8.21,5.43-16.42,4.44-25.15
			c-0.83-3.54,2-5.89,5.51-5.26c10.13,1.07,35.28,19.12,33.52,30.02c-0.35,2.87-3.65,9.19-6.61,15.66
			c-4.72-5.8-11.44-9.96-18.8-11.44c-2.69-0.54-6.46,0.05-6.7,2.78c-0.08,0.98,0.39,1.93,1,2.7c3.37,4.24,10.87,4.47,12.72,9.56
			c-2.61,0.3-5.28,0.11-7.83-0.54c0.73,2.15,2.27,4.01,4.23,5.15c-2.26,0.03-2.7,3.58-1.15,5.22
			C790.13,515.86,792.53,516.29,794.54,517.32z"/>
		<path class="st1" d="M707.53,367.12c-2.62,2.33-4.36,5.18-5.02,8.21c-2.54-1.67-3.95-4.2-3.68-6.57
			c-2.16,2.74-3.58,5.81-4.16,8.99c-4.2-1.93-7.17-5.27-7.77-8.76c-1.91,2.93-3,6.18-3.16,9.5c-3.78-2.28-5.67-7.41-5.71-10.81
			c-2.36,3.66-4.25,7.5-5.63,11.46c-3.98-3.51-5.35-8.42-3.48-12.5c-3.9,3.79-6.92,8.07-8.94,12.62c-3.54-6.7-4.36-14.03-2.32-20.78
			c-5.64,5.59-9.03,12.4-9.69,19.49c-3.1-3.88-4.32-8.35-4.42-12.7c-0.1-4.35,0.85-8.62,1.85-12.86
			c-4.57,6.78-5.97,14.53-7.31,22.14c-6.58-10.71-5.57-20.25-4.35-26.97c-2.4,2.03-4.23,12.07-5.33,23.23
			c-5.41-11.7-4.19-15.63-2.56-21.39c0.37-1.3,6.59-5.04,9.78-5.41c8.47-1,17.39,0.15,25.82,2.12c8.43,1.97,16.52,4.73,24.79,7.07
			c7.78,2.2,15.73,4.03,23.56,6.11c8.32,2.22,6.97,11.42,0.7,14.21C710.68,371.21,709.9,368.91,707.53,367.12z"/>
		<path class="st15" d="M678.53,384.03c-18.88,3.83-32.76,3.48-49.02-6.85c-3.3,8.13,1.13,17.87,8.28,22.96
			c7.15,5.09,16.31,6.41,25.09,6.51c8.78,0.1,15.48,0.05,24.18,1.22c13.94,1.88,22.85,8.43,36.88,7.35
			c5.78-0.44,11.34-2.3,16.83-4.15c2.75-0.93,5.61-1.91,7.67-3.95c1.29-1.27,2.18-2.88,3.04-4.47c2.2-4.08,4.32-8.34,4.83-12.95
			c0.78-7.05-2.4-14.11-7.12-19.4c-3.28-3.67-13.12-13.24-18.42-13.15C727.03,357.21,728.3,373.93,678.53,384.03z"/>
		<path class="st15" d="M820.65,494.73c-10.43,1.79-21.83-0.43-29.82-7.37c-3.01-2.62-5.46-5.8-8-8.88
			c-7.8-9.45-16.63-18.07-26.47-25.37c-5.38-3.99-12.01-6.67-16.16-11.92c-7.31-9.23-1.05-25.08-6.76-32.24
			c-4.42-5.55,18.76-51.12,23.22-49.81c4.46,1.31,20.23,56.19,45.4,69.71c16.07,8.63,34.54,13.44,48.13,25.61
			C871.15,473.24,836.76,491.97,820.65,494.73z"/>
		<path class="st8" d="M864.23,412.49c-13.54-11.26-62.4-18.64-73.18-21.8c-35.44-10.4-7.81-58.72-45.14-69.07
			c-3.7-1.03-7.73,0.77-11.48-0.05c-5.63-1.24-10.12-6.7-15.87-6.3c-3.77,0.26-11.47,2.53-15.24,2.46c-2.92-0.05-5.52-1.8-8.36-2.48
			c-7.61-1.82-11.13,1.77-12.78,5.67c-1.95-3.61-10.86-5.67-14.63,0.28c-5.33-5.95-12.2-2.75-14.31,0.35
			c-15.29,2.73-27.76,16.86-28.56,32.37c5.67-1.97,11.92,0.62,16.84,4.05c4.92,3.43,9.7,6.99,14.86,10.05
			c25.68,15.27,47.45,3.33,57.7,0.89c15.83-3.77,25.95-0.66,29.61,5.26c19.41,31.44,6.63,49.54,13.42,67.61
			c3.97,10.56,31.25,5.96,39.87,13.24c8.32,7.02,24.49,18.75,35.13,21.06C891.62,489.01,906.5,447.63,864.23,412.49z"/>
		<path class="st15" d="M661.77,347.95c4.6-2,4.4-7.19,1-10.59c-3.4-3.4-10.59-3.2-15.19,6.9
			C645.94,347.86,648.05,353.91,661.77,347.95z"/>
		<path class="st9" d="M652.52,348.5c-0.64,0.06-1.31,0.06-1.91-0.18c-0.6-0.24-1.12-0.77-1.19-1.41c-0.06-0.58,0.24-1.13,0.57-1.6
			c1.85-2.66,5.11-4.27,8.34-4.13c0.71,0.03,1.45,0.15,2.02,0.58C663.84,344.34,654.35,348.33,652.52,348.5z"/>
		<path class="st15" d="M739.59,344.51c-1.4,5.52-15.45,15.55-21.28,16.6c-19.23,3.47-16.14-20.75-24.1-25.76
			c-4.33-2.73-2.61-5.41,2.27-5.15c3.28,0.17,6.02-0.66,8.96-1.96c4.78-2.12,9.94-4.24,15.43-2.43
			C726.04,327.51,741.77,335.88,739.59,344.51z"/>
		<path class="st9" d="M779.3,433.86c-0.02,2.14-1.35,4.09-3.03,5.4c-4.13,3.23-9.46,4.84-14.17,7.05
			c-5.13,2.4-10.53-2.42-15.33-4.24c-1.9-0.72-4.06-1.56-4.77-3.47c-0.56-1.49-0.02-3.23-0.59-4.72c-0.46-1.19-1.56-2.03-2.76-2.46
			c-1.19-0.43-2.48-0.52-3.75-0.6c1.28-1.85,3.61-2.91,5.84-2.65c-0.79-1.59-2.19-2.86-3.85-3.49c0.43-0.85,1.42-1.31,2.37-1.32
			c0.95-0.01,1.86,0.38,2.68,0.86c2.46,1.47,4.24,3.92,5.23,6.61c0.66,1.79,1.14,3.88,2.77,4.86c1.13,0.68,2.54,0.63,3.86,0.56
			c7.14-0.38,7.94-3.41,11.91-8.33c1.22-1.51,2.74-2.93,4.64-3.32C775.17,423.63,779.35,429.54,779.3,433.86z"/>
		<g>
			<path class="st6" d="M730.35,326.96c8.92,8.59,1.84,20.26-8.38,24.66c-16.43,7.07-26.15-16.21-18.54-27.06
				C710.76,314.12,722.87,319.75,730.35,326.96z"/>
			<ellipse transform="matrix(0.5614 -0.8276 0.8276 0.5614 41.2069 733.5468)" cx="712.58" cy="327.9" rx="8.65" ry="7.45"/>
		</g>
		<path class="st8" d="M627.83,328.98c-0.55,0.68-0.83,1.53-1.02,2.38c-0.6,2.79-0.18,5.74,0.84,8.41c0.47,1.22,1.08,2.43,2.04,3.31
			c0.97,0.89,2.34,1.4,3.61,1.08c0.62-0.16,1.18-0.5,1.68-0.9c1.96-1.55,3.18-4.02,3.22-6.52c0.04-2.36-0.46-5.93-2.36-7.57
			C633.77,327.37,629.75,326.61,627.83,328.98z"/>
		<g>
			<path class="st5" d="M761.2,577.27c0,0,4.33-3.32,9.88-4.68c5.59-1.37-0.23-9.49-5.37-6.76
				C759.51,569.13,761.2,577.27,761.2,577.27z"/>
			<path class="st5" d="M745.76,572.58c0,0,4.04-3.1,9.21-4.36c5.22-1.28-0.21-8.85-5.01-6.3
				C744.18,564.99,745.76,572.58,745.76,572.58z"/>
			<path class="st5" d="M739.99,562.24c0,0,4.04-3.1,9.21-4.36c5.22-1.28-0.21-8.85-5.01-6.3
				C738.41,554.64,739.99,562.24,739.99,562.24z"/>
		</g>
		<path class="st9" d="M876.87,450.08c-1.46-2.19-1.94-4.89-2.19-7.51c-0.38-4.04-0.09-8.42,1.24-12.24
			c3.82,1.99,6.92,7.19,9.65,10.07c7.07,7.44,17.18,11.2,27.2,13.4c20.42,4.5,42.2,3.34,61.8-3.79c-0.36,1.89-1.11,3.73-2.28,5.34
			c-2.28,3.16-7.6,4.2-10.04,1.16c-1.8-0.26-2.53,2.22-2.59,4.04c-0.06,1.82-0.98,4.29-2.74,3.84c-1.81-0.46-1.99-3.75-3.86-3.73
			c-2.04,0.02-1.63,3.67-3.4,4.7c-1.48,0.87-3.2-0.69-4.07-2.17s-2.02-3.29-3.73-3.09c-3.18,0.37-2.13,6.51-5.19,7.43
			c-2.11,0.64-3.72-1.85-4.64-3.85c-0.92-2.01-3.01-4.3-4.9-3.16c-1.43,0.85-1.39,3.07-2.69,4.1c-1.17,0.93-3,0.47-4.05-0.59
			c-1.05-1.06-1.51-2.56-1.94-3.99c-1.77-0.01-3.16,1.68-3.52,3.41c-0.36,1.73,0.01,3.52,0.22,5.28c0.09,0.74,0.11,1.57-0.37,2.13
			c-0.95,1.11-2.86,0.15-3.48-1.17c-0.62-1.32-0.61-2.9-1.38-4.13c-1.17-0.54-2.32,0.94-2.42,2.23c-0.1,1.29,0.23,2.71-0.47,3.79
			c-1.08,1.67-3.91,1.11-4.99-0.56c-1.08-1.67-0.9-3.84-0.56-5.79c0.28-1.6,0.63-3.28,0.08-4.81c-0.55-1.53-2.42-2.71-3.83-1.9
			c-1.91,1.09-1.21,4.41-3.02,5.65c-1.52,1.04-3.69-0.27-4.42-1.96c-0.73-1.69-0.58-3.62-0.93-5.43c-0.35-1.81-1.54-3.75-3.38-3.85
			c-0.83-0.04-1.62,0.3-2.43,0.45C880.97,453.86,878.33,452.28,876.87,450.08z"/>
		<path class="st8" d="M903.87,498.59c2.02,3.53,3.24,7.47,5.27,10.96c2.1,3.6,5.46,6.26,7.67,9.79c5.99,9.56-5.45,18.73-7.1,27.88
			c-4.23,11.9,17.02,31.77,3.14,39.32c-6.14,2.71-12.81-1.18-8.91-7.98c-0.86-9.62-7.87,2.76-10.28,5.41
			c-6.37,9.04-27.35,7.99-14.52-5.09c-6.2-0.81-15.89,8.33-17.99-2.29c-2.99-15.15,19.33-6.28,22.56-19.43
			c2.5-5.37-1.4-9.81,1.73-17.06c4.12-9.56,11.51-16.86-3.34-19.52c-42.56,11.1-57.5-48.65-46.56-80.23
			c18.19-47.2,61.44-8.63,52.29,29.54c-1.05,4.39-2.66,8.77-2.72,13.33C885,493.37,899.42,490.81,903.87,498.59z"/>
		<path class="st9" d="M871.06,446.52c2.17,1.84,4.19,5.18,2.23,7.24c-1.42,1.49-3.86,1.03-5.83,0.45c-3.08-0.9-6.16-1.8-9.24-2.7
			c-0.03,1.66,1.38,3.02,2.89,3.73c1.5,0.71,3.18,1.01,4.65,1.8c0.61,0.33,1.23,0.84,1.26,1.53c0.06,1.09-1.29,1.65-2.37,1.73
			c-2.87,0.22-5.69-0.64-8.55-0.98c-2.86-0.34-6.07-0.01-8.05,2.08c-0.58,0.61-1.03,1.44-0.85,2.26c0.22,1.02,1.3,1.58,2.27,1.95
			c3.56,1.38,7.36,2.17,11.18,2.32c2.84,0.11,5.73-0.12,8.49,0.56c2.76,0.68,5.47,2.55,6.12,5.31c0.16,0.67,0.18,1.4-0.09,2.03
			c-0.8,1.84-3.37,1.83-5.36,1.61c-2.9-0.31-5.82-0.42-8.73-0.31c-2,0.08-4.57,0.82-4.63,2.81c-0.07,2.28,3.07,2.93,5.35,2.8
			c0.07,1.13-1.2,1.88-2.33,2.05s-2.36,0.07-3.3,0.72c-2.12,1.46-0.42,5.12,2.06,5.82c2.48,0.7,5.09-0.26,7.66-0.44
			c2.66-0.18,5.37,0.51,7.61,1.95c1.31,0.84,2.53,2.08,2.64,3.62c0.21,2.94-3.46,4.51-6.41,4.61c-2.95,0.09-6.4-0.19-8.3,2.06
			c-0.68,0.8-1.04,1.97-0.6,2.92c0.28,0.61,0.85,1.04,1.43,1.39c3.75,2.26,8.65,1.89,12.62,0.04c1.65-0.77,3.27-1.79,5.09-1.82
			c1.82-0.03,3.81,1.55,3.36,3.31c-0.44,1.75-2.99,3.03-2.21,4.66c0.51,1.07,2.04,1.04,3.19,0.76c5.32-1.31,10.96-4.53,15.88-2.13
			c0.66,0.32,1.3,0.78,1.54,1.47c0.43,1.29-0.78,2.55-2,3.16c-1.22,0.61-2.67,1.06-3.34,2.24c2.1,1.6,4.2,3.2,6.29,4.8
			c0.74,0.57,1.56,1.29,1.51,2.22c-0.13,2.24-3.93,1.3-5.67,2.72c-1.33,1.09-0.65,3.09-0.1,4.72c3.82,11.32-11.89,4.77-12.2,4.83
			c4.16-8.74,9.9-15.37-4.09-17.87c-42.56,11.1-57.5-48.65-46.56-80.23c0.14-0.37,0.29-0.74,0.43-1.09c0.5-0.16,1-0.31,1.5-0.43
			C849.03,435.98,861.95,438.8,871.06,446.52z"/>
		<path class="st9" d="M889.42,565.52c-2.4-1.74-5.01-3.19-7.74-4.34c0.93-1.05,1.64-2.36,2.05-4.02c1.68-3.61,0.47-6.8,0.45-10.71
			c5.74-0.36,13.08,2.67,16.67,6.3c0.31,0.31,0.61,0.65,0.71,1.08c0.23,1.06-0.98,1.93-2.07,1.95s-2.12-0.47-3.2-0.58
			c-1.08-0.11-2.4,0.4-2.54,1.48c-0.09,0.69,0.35,1.34,0.87,1.79c0.89,0.76,2.03,1.13,3.11,1.57c1.08,0.44,2.18,1.04,2.76,2.05
			c0.58,1.01,0.39,2.54-0.67,3.05c-1.83,0.89-4.4-1.76-5.78-0.28c-0.35,0.38-0.47,0.92-0.81,1.3
			C892.27,567.23,890.57,566.36,889.42,565.52z"/>
		<g>
			<path class="st5" d="M900.6,590.69c0,0,4.71-2.3,9.99-4.47c5.33-2.18-1.1-10.73-6.32-5.89
				C899.13,585.11,900.6,590.69,900.6,590.69z"/>
			<path class="st5" d="M874.26,592.81c0,0,4.04-3.1,9.21-4.36c5.22-1.28-0.21-8.85-5.01-6.3
				C872.69,585.21,874.26,592.81,874.26,592.81z"/>
			<path class="st5" d="M858.66,582.46c0,0,4.04-3.1,9.21-4.36c5.22-1.28-0.21-8.85-5.01-6.3
				C857.08,574.86,858.66,582.46,858.66,582.46z"/>
		</g>
		<g>
			<path class="st9" d="M748.86,559.4c2.35-1.08,4.7-2.17,7.05-3.25c2.34-1.08,5.45-2.02,7.18-0.12c-1.99,3.31-6.95,2.32-10.67,3.37
				c-2.52,0.71-4.49,2.43-6.15,4.5c0.04-1.15,0.59-2.27,1.84-3.15c-0.51-0.05-0.97-0.18-1.39-0.35
				C747.43,560.06,748.14,559.73,748.86,559.4z"/>
			<path class="st9" d="M765.36,561.73c3.01-3.29,7-6.1,11.46-6.12c1.17,0,2.42,0.23,3.28,1.03s1.12,2.31,0.29,3.15
				c-0.53,0.53-1.32,0.67-2.07,0.78c-6.14,0.91-12.34,2.39-15.46,7.41c-1.07,0.26-2.15,0.54-3.23,0.81
				C761.55,566.44,763.31,563.96,765.36,561.73z"/>
		</g>
		<g>
			<path class="st9" d="M890.14,587.25c1.83-2.24,3.39-4.67,4.42-7.38c1.05-2.75,1.57-5.81,3.46-8.07c1.88-2.26,5.89-3.13,7.62-0.75
				c1.44,1.99,0.36,4.88-1.36,6.63c-0.12,0.12-0.25,0.24-0.38,0.36c-1.07-8.62-7.85,3.34-10.22,5.93
				C892.75,585.28,891.52,586.37,890.14,587.25z"/>
			<path class="st9" d="M867.33,581.33c5.2-2.79,9.98-6.35,14.12-10.55c0.8-0.81,2.04-1.7,2.95-1.02c0.22,0.17,0.38,0.41,0.5,0.67
				c1.93,4.12-4.29,8.28-8.56,11.89c0.65-1.04,1.57-2.18,2.81-3.44c-3.75-0.49-8.78,2.66-12.63,2.88
				C866.79,581.61,867.06,581.47,867.33,581.33z"/>
		</g>
		<path class="st9" d="M864.23,412.49c-13.54-11.26-62.4-18.64-73.18-21.8c-28.7-8.42-16.04-41.71-30.01-59.57
			c0.39,2.1,0.78,4.05,0.96,5.65c1.36,11.77-8.34,28.9-1.68,39.22c2.26-2.25,3.79-5.21,4.32-8.36c5.66,7.43-3.24,20.3,3.48,26.79
			c1.5-1.62,2.41-3.77,2.54-5.97c3.1,2.09,3.11,6.55,3.08,10.29c-0.03,3.74,0.88,8.36,4.47,9.42c1.87-2.53,2.59-5.74,4.28-8.39
			c1.69-2.66,5.13-4.77,7.91-3.3c1.63,0.86,2.49,2.66,3.17,4.37c1.75,4.44,2.98,9.1,3.64,13.83c0.52,3.68,1.82,8.51,5.53,8.5
			c3.4-0.01,4.95-4.33,4.8-7.73c-0.15-3.4-0.9-7.26,1.32-9.84c2.34-2.73,7.51-1.89,8.88,1.43c1.63,3.97-0.81,10.51,3.36,11.57
			c5.47,1.39,6.96-11.56,12.18-9.41c3.97,1.63,0.74,9.12,4.39,11.38c2.85,1.77,6-1.68,7.81-4.51c1.81-2.83,5.92-5.64,8.02-3.02
			c1.92,2.04,1.47,5.24,1.44,8.05c-0.03,2.8,1.25,6.31,4.05,6.38C862.96,427.58,873.16,419.92,864.23,412.49z"/>
		<path class="st9" d="M694.95,315.25c-7.61-1.82-11.13,1.77-12.78,5.67c-1.95-3.61-10.86-5.67-14.63,0.28
			c-5.33-5.95-12.2-2.75-14.31,0.35c-1.83,0.33-3.63,0.82-5.36,1.46c4.79,0.88,11.15,1.08,14.06,2.79
			c6.43,3.77,11.03,10.25,13.35,17.33c0.98,2.98,2.1,6.61,5.15,7.35c2.49-2.89,1.68-7.36,0.03-10.8c-1.64-3.44-4.01-6.71-4.29-10.52
			c2.87-0.71,5.59,1.83,6.72,4.57c1.13,2.73,1.33,5.8,2.67,8.44c0.33,0.65,0.93,1.36,1.64,1.19c0.28-0.07,0.52-0.27,0.71-0.48
			c1.67-1.81,1.5-4.66,0.79-7.02c-0.7-2.36-1.84-4.68-1.76-7.15c0.08-2.47,2.06-5.12,4.5-4.76c1.21,0.18,2.19,1.03,3.29,1.54
			c4.26,1.97,9.58-2,10-6.68c0.03-0.38,0.04-0.76,0.03-1.13c-0.54,0.05-1.03,0.07-1.47,0.07
			C700.39,317.67,697.79,315.93,694.95,315.25z"/>
	</g>
</g>
</svg>
