<?xml version="1.0" encoding="utf-8"?>
<!-- Generator: Adobe Illustrator 26.0.3, SVG Export Plug-In . SVG Version: 6.00 Build 0)  -->
<svg version="1.1" id="Layer_1" xmlns="http://www.w3.org/2000/svg" xmlns:xlink="http://www.w3.org/1999/xlink" x="0px" y="0px"
	 viewBox="0 0 1133.86 1133.86" style="enable-background:new 0 0 1133.86 1133.86;" xml:space="preserve">
<style type="text/css">
	.st0{fill:#8C5638;}
	.st1{fill:#D68D60;}
	.st2{fill:#CF7C53;}
	.st3{fill:#BABEC7;}
	.st4{fill:#D3D6DF;}
</style>
<g>
	<rect x="292.36" y="42.52" class="st0" width="549.14" height="1048.82"/>
	<rect x="340.73" y="86.57" class="st1" width="452.42" height="1004.77"/>
	<path class="st2" d="M392.53,459.83c0.09,7.68,0.37,16.2,4.5,21.66c4.33,5.73,11.23,5.98,17.39,5.83
		c36.52-0.92,74.73,2.47,111.09-2.2c5.14-0.65,10.9-1.8,13.93-7.24c2.08-3.72,2.36-8.61,2.56-13.21
		c2.21-53.2,0.64-254.14-0.13-301.2c-0.04-2.62-0.12-5.42-1.27-7.59c-1.73-3.27-5.17-3.91-8.2-4.27
		c-27.54-3.16-54.51-1.74-82.43-0.9c-14.56,0.44-44.22-6.69-55.92,7.87c-4.08,5.06-5,13.03-5.27,20.36
		C387.25,220.6,391.9,409.93,392.53,459.83z"/>
	<path class="st2" d="M596.31,459.83c0.1,7.68,0.37,16.2,4.5,21.66c4.33,5.73,11.23,5.98,17.39,5.83
		c36.53-0.92,74.73,2.47,111.09-2.2c5.14-0.65,10.9-1.8,13.94-7.24c2.08-3.72,2.36-8.61,2.55-13.21
		c2.21-53.2,0.64-254.14-0.12-301.2c-0.05-2.62-0.13-5.42-1.28-7.59c-1.73-3.27-5.16-3.91-8.19-4.27
		c-27.55-3.16-54.52-1.74-82.44-0.9c-14.56,0.44-44.22-6.69-55.92,7.87c-4.08,5.06-5,13.03-5.27,20.36
		C591.02,220.6,595.68,409.93,596.31,459.83z"/>
	<path class="st3" d="M707.36,622.31c0.04,2.86,0.12,6.03,1.48,8.07c1.42,2.13,3.69,2.23,5.71,2.17
		c11.99-0.34,24.54,0.91,36.48-0.82c1.68-0.24,3.57-0.67,4.56-2.69c0.68-1.38,0.78-3.21,0.84-4.92
		c0.73-19.81,0.21-94.64-0.03-112.17c-0.02-0.98-0.05-2.02-0.42-2.82c-0.57-1.22-1.7-1.47-2.69-1.6
		c-9.05-1.17-17.89-0.65-27.07-0.33c-4.77,0.16-14.51-2.49-18.35,2.93c-1.34,1.89-1.64,4.85-1.73,7.57
		C705.62,533.23,707.16,603.74,707.36,622.31z"/>
	<path class="st2" d="M392.53,972.28c0.09,7.68,0.37,16.19,4.5,21.66c4.33,5.72,11.23,5.99,17.39,5.83
		c36.52-0.92,74.73,2.47,111.09-2.19c5.14-0.66,10.9-1.81,13.93-7.25c2.08-3.72,2.36-8.61,2.56-13.21
		c2.21-53.2,0.64-254.14-0.13-301.2c-0.04-2.63-0.12-5.43-1.27-7.59c-1.73-3.27-5.17-3.91-8.2-4.27
		c-27.54-3.15-54.51-1.74-82.43-0.89c-14.56,0.44-44.22-6.7-55.92,7.86c-4.08,5.06-5,13.04-5.27,20.36
		C387.25,733.05,391.9,922.38,392.53,972.28z"/>
	<path class="st2" d="M596.31,972.28c0.1,7.68,0.37,16.19,4.5,21.66c4.33,5.72,11.23,5.99,17.39,5.83
		c36.53-0.92,74.73,2.47,111.09-2.19c5.14-0.66,10.9-1.81,13.94-7.25c2.08-3.72,2.36-8.61,2.55-13.21
		c2.21-53.2,0.64-254.14-0.12-301.2c-0.05-2.63-0.13-5.43-1.28-7.59c-1.73-3.27-5.16-3.91-8.19-4.27
		c-27.55-3.15-54.52-1.74-82.44-0.89c-14.56,0.44-44.22-6.7-55.92,7.86c-4.08,5.06-5,13.04-5.27,20.36
		C591.02,733.05,595.68,922.38,596.31,972.28z"/>
	<path class="st4" d="M732.54,579.95h-85.29c-2.65,0-4.81-2.16-4.81-4.82v-10.89c0-2.66,2.16-4.82,4.81-4.82h85.29
		c2.66,0,4.81,2.16,4.81,4.82v10.89C737.35,577.8,735.2,579.95,732.54,579.95z"/>
</g>
</svg>
