<?xml version="1.0" encoding="utf-8"?>
<!-- Generator: Adobe Illustrator 26.0.3, SVG Export Plug-In . SVG Version: 6.00 Build 0)  -->
<svg version="1.1" id="Layer_1" xmlns="http://www.w3.org/2000/svg" xmlns:xlink="http://www.w3.org/1999/xlink" x="0px" y="0px"
	 viewBox="0 0 1133.86 1133.86" style="enable-background:new 0 0 1133.86 1133.86;" xml:space="preserve">
<style type="text/css">
	.st0{fill:#898989;}
	.st1{fill:#6F6F6F;}
	.st2{fill:#888888;}
	.st3{fill:#636363;}
	.st4{fill:#717171;}
	.st5{fill:#444444;}
	.st6{fill:#797979;}
	.st7{fill:#4D4D4D;}
	.st8{fill:#626262;}
	.st9{fill:#6B6B6B;}
	.st10{fill:#5B5B5B;}
	.st11{fill:#5D5D5D;}
	.st12{fill:#545454;}
	.st13{fill:#696969;}
	.st14{fill:#6D6D6D;}
	.st15{fill:#6A6A6A;}
	.st16{fill:#3A3A3A;}
	.st17{fill:#606060;}
	.st18{fill:#424242;}
	.st19{fill:#454545;}
	.st20{fill:#464646;}
	.st21{fill:#565656;}
	.st22{fill:#838383;}
	.st23{fill:#4B4B4B;}
	.st24{fill:#515151;}
	.st25{fill:#808080;}
	.st26{fill:#5E5E5E;}
	.st27{fill:#656565;}
	.st28{fill:#575757;}
	.st29{fill:#4E4E4E;}
	.st30{fill:#737373;}
	.st31{fill:#404040;}
	.st32{fill:#676767;}
	.st33{fill:#383838;}
	.st34{fill:#2A2A2A;}
	.st35{fill:#535353;}
	.st36{fill:#585858;}
	.st37{fill:#3C3C3C;}
	.st38{fill:#787878;}
	.st39{fill:#505050;}
	.st40{fill:#9C9C9C;}
	.st41{fill:#474747;}
	.st42{fill:#4F4F4F;}
	.st43{fill:#6C6C6C;}
	.st44{fill:#3F3F3F;}
	.st45{fill:#8A8A8A;}
	.st46{fill:#595959;}
	.st47{fill:#9D9D9D;}
	.st48{fill:#727272;}
	.st49{fill:#323232;}
	.st50{fill:#4C4C4C;}
	.st51{fill:#7F7F7F;}
	.st52{fill:#818181;}
	.st53{fill:#7E7E7E;}
	.st54{fill:#949494;}
	.st55{fill:#919191;}
	.st56{fill:#979797;}
	.st57{fill:#959595;}
	.st58{fill:#7A7A7A;}
	.st59{fill:#757575;}
	.st60{fill:#6E6E6E;}
	.st61{fill:#9B9B9B;}
	.st62{fill:#848484;}
	.st63{fill:#7D7D7D;}
	.st64{fill:#777777;}
	.st65{fill:#646464;}
	.st66{fill:#989898;}
	.st67{fill:#666666;}
	.st68{fill:#828282;}
	.st69{fill:#747474;}
	.st70{fill:#7B7B7B;}
	.st71{fill:#7C7C7C;}
	.st72{fill:#9E9E9E;}
	.st73{fill:#767676;}
	.st74{fill:#3D3D3D;}
	.st75{fill:#616161;}
	.st76{fill:#494949;}
	.st77{fill:#3B3B3B;}
	.st78{fill:#686868;}
	.st79{fill:#5C5C5C;}
	.st80{fill:#858585;}
	.st81{fill:#1B1B1B;}
	.st82{fill:#868686;}
	.st83{fill:#5A5A5A;}
</style>
<g>
	<path class="st0" d="M477,737.28c-5.96-13.44-11.76-26.95-18.03-40.25c-1.46-3.13-3.13-8.73-8.69-3.79
		c5.07-12.57-3.63-22.41-6.59-33.39c-0.4-2.73-1-5.46-1.17-8.21c-2.4-40.08-3.54-59.97,40.27-86.98
		c28.52-17.59,56.09-36.73,84.09-55.18c15.47-14.4,31.73-28.08,46.25-43.38c22.12-23.3,40.44-49.51,50.74-80.33
		c5.75-17.18,9.92-34.89,3.17-52.9c-6.32-16.88-5.29-18.45,12.8-16.97c2.06,0.17,4.13,0.52,6.17,0.92
		c23.51,4.4,46.86,4.56,70.08-2.04c38.88-11.05,76.17-5.15,112.73,10.26c37.69,15.88,67.62,41.69,94.65,71.64
		c16.8,18.61,21.03,41.52,25.01,67.52c-6.96-6.27-12.34-11.09-17.72-15.93c32.35,36.27,45.59,77.19,36.21,124.52
		c-1.33,0.94-2.67,1.88-4,2.83c-4.31-5.96-8.65-11.92-12.97-17.88c-1.06,0.71-2.15,1.42-3.21,2.13c3.69,9.38,11.82,18.13,5.48,28.93
		c-2.42-1.54-4.82-3.11-7.23-4.65c-0.71,0.67-1.42,1.33-2.11,2c4.48,5.75,8.96,11.51,13.47,17.26l0,0c-4.5,2.71-8.71,6.9-13.59,7.9
		c-20.95,4.34-42.13,7.46-63.12,11.61c-9.32,1.83-18.38,5.04-27.56,7.61c-2.71-3.98-5.42-7.94-8.13-11.92
		c-0.58,0.33-1.17,0.69-1.75,1.02c2.61,7.8,5.19,15.61,7.8,23.41c-1.38,0-2.75-0.02-4.15-0.02c-20.39-49.44-36-99.99-35.41-154.25
		c1.21-7.9,2.42-15.8,3.61-23.7c-1.1-0.23-2.21-0.46-3.29-0.69c-2.21,8.82-4.4,17.63-6.61,26.45c-2.06,16.65-5.11,33.27-5.82,49.99
		c-0.48,11.05,2.38,22.26,3.75,33.39c0,2.08-0.02,4.15-0.02,6.23c-0.08,17.66-2.92,20.84-20.41,23.26
		c-3.42,0.48-6.84,1.15-10.19,1.9c-25.93,5.88-51.86,11.88-77.81,17.72c-16.84,3.79-33.75,7.34-50.61,11.05
		c-5.98,1.31-11.57,3.13-11.92,10.73c-16.61-6.38-33.23-12.76-49.84-19.11c1.29,4.15,3.59,7.11,6.55,8.92
		c9.42,5.73,19.09,11.03,28.66,16.49c-9.03,0.69-18.07,1.4-27.1,2.08c-15.45-8.23-23.95-20.45-22.97-38.58
		c0.94-16.95,0.75-33.98,2.29-50.84c1.13-12.42-7.73-19.14-12.38-30.33c0.5,10.78,0.92,19.22,1.42,30.14
		c-6.9-4.48-10.63-6.9-15.4-9.98c0.27,7.82,16.8,13.61-0.69,19.57c1.35,2.46,2.63,4.79,3.9,7.11c4.44,15.05,4.38,30.06-2.13,44.4
		c-2.4,5.32-6.9,9.69-10.42,14.51c-4.15-5.04-8.3-10.11-12.42-15.15c1.73,0.48,3.44,0.94,7.32,2c-6.42-13.17-0.79-28.54-16.57-38.48
		c-1.17,11.63-2.21,21.99-3.25,32.35c-1.21-4.46-2.42-8.92-3.63-13.38c-0.88,0.08-1.75,0.15-2.63,0.23
		c0.38,5.54-0.31,11.44,1.38,16.55c2.94,8.84,7.38,17.18,11.19,25.72c-3.75,6.15-7,2.56-9.46-0.9c-3.94-5.54-7.3-11.49-10.92-17.28
		c-0.56,0.25-1.13,0.52-1.71,0.77c2.92,7.44,5.86,14.86,8.78,22.3c-1.17,0.69-2.33,1.38-3.5,2.04c-4.52-5.11-9.07-10.19-13.59-15.3
		c-0.46,0.31-0.92,0.6-1.38,0.92c2.98,5.84,5.98,11.65,8.96,17.49c-0.52,0.54-1.04,1.08-1.56,1.63c-3.52-2.02-7.02-4.02-11.05-6.32
		c2.79,11.74,1.42,13.32-10.65,15.63c-10.53,2.02-21.01,4.31-31.37,7.02c-5.57,1.46-11.17,4.46-8.69,11.61
		c4.65,13.36,10.07,26.45,15.17,39.67c1.69,5.98,3.38,11.96,5.04,17.95c-0.6,0.21-1.21,0.44-1.81,0.65
		c-2.54-5.07-5.11-10.13-8.63-17.16C477.48,734.01,477.23,735.65,477,737.28z M731.17,328c0.29,0.9,0.58,1.81,0.88,2.71
		c6.04-0.48,12.07-1,18.11-1.4c22.07-1.48,44.48-6.09,66.14-3.69c42.19,4.67,79.75,22.49,112.31,50.19c2.08,1.77,4.73,2.9,7.11,4.31
		c-3.96-6.86-8.69-12.59-14.65-16.43c-16.3-10.51-33.08-20.28-49.71-30.25c-23.01-13.76-47.75-20.57-74.64-17.7
		c-18.93,2.02-37.81,4.38-56.66,7.09C736.91,323.29,734.11,326.21,731.17,328z M866.25,469.49c-12.11,25.62-14.45,51.84-5.73,80.06
		C862.52,521.83,864.39,495.65,866.25,469.49z M666.66,572.59c-0.21,1.08-0.4,2.15-0.6,3.23c9.65,1.81,19.32,3.65,28.97,5.46
		c0.19-1.02,0.38-2.02,0.56-3.04C685.96,576.36,676.31,574.49,666.66,572.59z"/>
	<path class="st0" d="M82.99,394.64c8.63-16.51,15.84-34.12,33.43-43.82c1.77,0.81,4.02,2.77,5.25,2.25
		c13.15-5.44,25.6-3.52,37.81,2.83c2.88,1.48,5.94,2.61,10.71,4.67c-5.52-15.34-17.59-16.84-28.64-19.91
		c2.75-7.63,5.52-15.28,8.28-22.91c13.82-17.57,25.2-38.15,42.11-51.94c19.8-16.18,43-28.27,60.03-48.15
		c-9.8,20.09-27.54,31.58-46.15,41.88c-22.14,12.24-35.44,31.66-45.11,54.15c3.21-2.06,5.5-4.88,7.55-7.86
		c15.82-23.18,33.04-44.61,61.76-52.92c3.65-1.06,7.57-4.34,9.51-7.65c10.26-17.63,22.8-32.68,41.98-41.69
		c-5.63,1.27-11.26,2.54-16.86,3.81c10.84-4.06,21.7-8.11,34.08-12.76c-6.9,0-12.36,0-17.82,0c21.91-4.48,43.63-2.36,65.24,2.15
		c-2.25,0.23-4.48,0.44-6.73,0.67c8.28,4.27,16.72,7.07,25.2,9.69c21.66,6.73,40.9-3.29,60.37-9.61c17.3-5.61,33.85-6.36,50.57,0.79
		c8.25,3.52,16.34,7.38,24.51,11.09c19.8,11.96,39.35,24.41,59.51,35.77c14.7,8.28,28.04,17.51,38.17,31.41
		c10.36,14.24,22.1,27.45,32.73,41.5c9.17,12.13,12.65,26.24,10.3,41.21c-1.67,10.53-4.73,20.82-15.13,28.33
		c-6.88-6.11-13.49-12.01-18.59-16.55c12.67,24.95,14.95,35.96,8.3,51.61c-4.21-9.11-7.55-16.36-10.88-23.62
		c-2.06-26.79-16.4-32.39-49.67-29.62c5.65,1.27,11.36,2.08,17.07,3c13.74,2.17,22.72,10.82,25.72,24.01
		c1.96,8.61,4.54,17.09,6.86,25.62c4.63,15.99,1.25,24.45-12.47,31.25c-5.57-13.19-11.15-26.39-16.72-39.58
		c-4.23-8.98-9.88-15.93-21.55-15.74c6.17,12.99,11.78,24.78,17.38,36.58l0,0c-2.17-0.48-4.73-0.4-6.4-1.58
		c-3.67-2.61-6.88-5.86-10.3-8.84c-1.38,0.69-2.75,1.35-4.13,2.04c1.44,7.88,2.88,15.76,4.31,23.66c-6.32-4.4-9.98-9.67-14.03-14.63
		c-1.79-2.21-4.29-3.81-6.48-5.71c-1.67,2.75-4.15,5.29-4.88,8.28c-1.81,7.42-2.83,15.03-4.54,24.7c-3.61-5.75-5.98-9.55-8.15-13.01
		c-3.52,2.77-5.98,5.67-9.11,6.98c-7.86,3.31-16.26,5.4-23.93,9.05c-2.77,1.31-5.09,5.5-5.79,8.78c-1,4.65-0.33,9.65-0.38,14.49
		c-1.42,4.84-2.81,9.69-4.23,14.53c-0.98-1.54-2.9-3.21-2.75-4.63c0.52-4.73,1.77-9.38,2.75-14.07c-1.08-9.92,3.06-22.37-12.82-25.1
		c-1.65-0.29-2.88-4.94-3.69-7.73c-1.06-3.56-1.5-7.32-2.21-10.99c-1.21-8.63-2.4-17.24-3.61-25.87c1.02-0.29,2.04-0.56,3.06-0.85
		c3.04,8.34,6.09,16.65,9.13,24.99c0.75-0.1,1.52-0.21,2.27-0.33c-0.83-13.9-1.69-27.81-2.52-41.71c0-1.38,0-2.77,0-4.15
		c0.67-4.38,2.08-8.8,1.9-13.13c-1.15-27.51,6.46-51.84,25.2-72.37c2.11-1.38,4.21-2.73,6.32-4.11c6.86-0.73,13.74-2.11,20.59-2.02
		c7.52,0.08,9.78-2.9,7.17-9.92c6.4-0.56,11.88-1.06,17.36-1.54c0.44-1.29,0.88-2.56,1.31-3.86c-14.13-9.53-27.06-22.74-42.65-27.74
		c-28.06-9-57.89-10.42-87.15-3.71c-16.26,3.73-22.43,14.57-19.72,31.14c0.92,5.59,1.65,11.19,2.48,16.8
		c-0.88,0.38-1.75,0.75-2.63,1.13c-1.77-2.17-3.54-4.36-5.29-6.52c-1.33-1.92-2.67-3.84-5.17-7.42c0.58,8.94,0.79,15.4,1.46,21.85
		c1.08,10.48,2.46,20.93,3.71,31.37c3,24.05,1.35,46.98-15.78,66.29c-1.52,1.73-2.06,4.36-2.96,6.61
		c-10.94,27.37-32.6,43.23-58.78,53.78c-5.52,2.23-12.09,1.83-18.18,2.65c-0.71-1.46-1.4-2.94-2.11-4.4
		c3.4-2.73,6.8-5.44,10.19-8.17c7.65-4.38,6.11-11.86,6.32-18.74c2.83-5.65,5.67-11.32,8.53-16.97c-0.75-0.6-1.5-1.23-2.23-1.83
		c-6.09,3.59-11.92,7.8-18.34,10.61c-8.94,3.94-18.32,6.86-27.54,10.21c1.54-9.09,3.11-18.2,4.65-27.29
		c-1.19-0.19-2.36-0.38-3.54-0.56c-0.85,4.19-1.71,8.36-2.56,12.55c-2.23-2.88-2.21-5.71-3.21-8.11
		c-3.81-9.13-7.92-18.16-12.17-27.1c-0.19-0.38-2.69,0.33-4.11,0.54c-0.42,1.94-1.67,4.19-1.1,5.77
		c3.63,9.96,7.65,19.78,11.53,29.64c-1.38,2.79-2.75,5.59-4.13,8.38c-1.5,13.63-8.8,24.22-18.16,34c-0.48-3.86-0.96-7.71-1.54-12.46
		c-4.31,6.67-7.96,12.34-11.61,18.01c-13.03,9.61-16.03,8.9-24.58-4.88c-0.83-1.33-4.42-0.98-6.71-1.4
		c-11.82,1.44-23.64,2.86-35.44,4.29c-18.78-2.73-21.41-19.22-26.79-33.39c-0.83,0.4-1.69,0.79-2.52,1.19
		c2.48,10.01,4.94,20.01,7.42,30.02c-0.63,0.42-1.25,0.83-1.88,1.25c-2.54-2.44-5.07-4.86-7.61-7.3c-1.63-2.38-3.25-4.73-3.52-5.13
		c-2.69,9.9-4.34,20.14-8.36,29.31c-2.31,5.27-8.48,8.88-12.92,13.24c-8.82,1.29-17.68,2.46-26.47,3.9
		c-7.92,1.29-15.8,2.9-23.7,4.38c9.17-31.43,7.27-66.51,28.62-90.82c0.29-5.59-0.13-8.5,0.69-11.05
		C78.64,404.64,80.95,399.68,82.99,394.64z M270.89,330.33c0.67,1.38,1.33,2.75,2,4.13c-2.11,2.06-4.21,4.13-6.34,6.19
		c-2.42,1.46-4.84,2.92-9.67,5.84c0-7.27-0.46-11.96,0.13-16.51c0.56-4.31,0.31-6.92-4.96-5.84c0.19-2.06,0.75-4.19,0.48-6.19
		c-0.48-3.42-1.46-6.75-2.25-10.13c-2.9,2.63-5.79,5.25-8.67,7.86c-2.69,4.44-5.42,8.84-8.03,13.3c-6.46,11.01-9.4,22.3-2.33,34.21
		c0.46,0.77,1.5,1.19,2.46,1.92c1.35-2.79,2.56-5.29,2.46-5.09c6.61,5.29,13.34,10.69,20.05,16.09c9.84,10.84,23.95,11.8,31.29,2.13
		c8.57-2.56,15.09-7.13,17.74-18.55c-5.9,3.77-10.07,6.46-14.24,9.13c-0.33-0.54-0.67-1.06-1-1.61c2.15-2.86,4.31-5.71,6.23-8.25
		c-6.69,0.77-13.05,1.5-19.43,2.25c-0.1-0.85-0.21-1.73-0.29-2.58c12.24-2.42,12.09-2.54,22.85-13.4c2.21-2.23,5.92-3.02,8.92-4.46
		c0.71,0.67,1.42,1.35,2.15,2.02c4.86,4.84,9.71,9.69,15.28,15.24c1.71-14.57-2.61-26.35-10.21-29.52
		c1.19,5.54,2.36,11.01,3.52,16.49c-0.77,0.19-1.54,0.4-2.31,0.58c-1.35-2.31-2.73-4.63-4.09-6.94c-1.5-1.35-3-2.71-4.48-4.06
		c-9.05-12.59-21.34-8.38-33.21-6.44c7-3.46,14.01-6.92,20.89-10.32c-16.61-5.65-27.16-0.1-30,17.07
		C267.99,332.94,269.43,331.63,270.89,330.33z M563.5,258.69c-18.76-11.55-35.27-22.05-52.15-31.95
		c-13.69-8.05-27.26-16.84-41.96-22.53c-15.8-6.11-32.66-4.88-48.88,1.63c26.26-0.63,47.19,12.21,68.47,24.76
		c13.69,8.07,28.06,15.26,42.81,21.16C541.41,255.56,552.2,256.34,563.5,258.69z M329.52,452.27c25.01-8.75,42.15-48.44,31.43-70.35
		C363.02,410.08,349.53,431.58,329.52,452.27z M143.46,431.43c-1.25,0.21-2.48,0.42-3.73,0.63c0.25,8.63-2.58,17.84,7.77,24.55
		C146.15,448.23,144.8,439.83,143.46,431.43z M252.27,383.99c9.05,9.07,21.53,11.28,31.68,6
		C273.51,388.01,263.22,386.05,252.27,383.99z M103.96,365.25c-0.21,1.23-0.44,2.46-0.65,3.69c8.09,1.33,16.18,2.65,24.26,3.98
		c0.15-0.96,0.29-1.9,0.44-2.86C120.01,368.48,111.99,366.85,103.96,365.25z M619.7,346.65c-0.96,0.94-1.92,1.88-2.88,2.83
		c3.96,4.23,7.92,8.46,11.86,12.69c1.1-1.08,2.21-2.17,3.31-3.23C627.89,354.85,623.78,350.76,619.7,346.65z"/>
	<path class="st1" d="M604.44,399.04c3.34,7.25,6.69,14.51,10.88,23.62c6.65-15.65,4.36-26.66-8.3-51.61
		c5.11,4.54,11.71,10.42,18.59,16.55c10.4-7.5,13.49-17.8,15.13-28.33c2.36-14.97-1.1-29.08-10.3-41.21
		c-10.63-14.05-22.37-27.26-32.73-41.5c-10.11-13.9-23.45-23.14-38.17-31.41c-20.16-11.34-39.71-23.78-59.51-35.77
		c3.79,0.6,7.61,1.21,11.4,1.81c31.95,12.21,62.87,26.1,85.07,53.72c26.43,32.85,62.05,42.44,102.08,39.33
		c30.39-2.38,60.87-4.92,90.92-9.69c51.53-8.19,97.39,6.13,140.97,31.62c8.9,5.21,17.41,11.11,26.1,16.7
		c0.77,2.4,0.79,5.61,2.4,7.07c21.41,19.36,34.14,44.29,45.69,70.04c6.92,27.18,13.84,54.36,20.76,81.54
		c-0.69-0.77-1.38-1.54-3.67-4.06c2,50.42-14.24,98.89-0.1,147.7c-3.11-9.67-6.23-19.36-9.53-29.64
		c-7.59,1.88-11.34,6.5-11.49,14.01c-0.17,7.98-0.1,15.99-0.15,23.97c-0.69,0-1.38-0.02-2.06-0.02c-0.71-16.68-1.4-33.35-2.11-50.03
		l0,0c-1.38-4.88-2.75-9.73-4.11-14.61c6.34-10.8-1.79-19.55-5.48-28.93c1.06-0.71,2.15-1.42,3.21-2.13
		c4.31,5.96,8.65,11.92,12.97,17.88c1.33-0.94,2.67-1.88,4-2.83c9.36-47.34-3.88-88.26-36.21-124.53
		c5.38,4.84,10.73,9.65,17.72,15.93c-3.98-25.97-8.21-48.88-25.01-67.52c-27.04-29.95-56.97-55.76-94.65-71.64
		c-36.56-15.4-73.87-21.32-112.73-10.26c-23.22,6.61-46.57,6.44-70.08,2.04c-2.04-0.38-4.11-0.73-6.17-0.92
		c-18.11-1.48-19.14,0.08-12.8,16.97c6.75,18.01,2.56,35.73-3.17,52.9c-10.32,30.83-28.62,57.01-50.74,80.33
		c-14.53,15.3-30.77,28.97-46.25,43.38c0-1.31,0-2.65,0-3.96c2.11-5.59,4.19-11.17,6.29-16.76c14.32-0.4,14.26-0.42,15.51-14.78
		c0.17-1.96,0.85-4.17,2.06-5.67c4.36-5.44,2.67-10.21-1-14.99c0.73-0.02,1.48-0.04,2.21-0.06c13.72-6.8,17.09-15.26,12.47-31.25
		C604.42,414.36,604.42,406.69,604.44,399.04z"/>
	<path class="st2" d="M274.83,814.24c1.4-9.32,0.21-20.18,4.67-27.68c15.15-25.51,25.33-52.88,34.91-80.69
		c2.88-8.36,8.21-15.86,12.4-23.74c3.69,15.3,7.4,30.62,11.05,45.73c3.56-14.09,5.73-28.68-0.56-42.98
		c-1.23-2.81-5.42-4.34-8.25-6.44c3.36-8.48,6.71-16.97,10.07-25.45c0.44,6.13,0.88,12.24,1.46,20.72
		c3.59-7.73,6.5-14.01,9.42-20.28c0.21,4.15-0.13,8.4,0.73,12.42c7.98,38.25,16.15,76.48,24.26,114.71
		c-13.72,21.74-31.02,39.71-55.59,49.99c0.58,0.77,1.15,1.54,1.73,2.33c6.73-3.09,13.49-6.17,20.22-9.25
		c0.58,0.88,1.19,1.75,1.77,2.63c-5.96,6.36-11.92,12.69-18.97,20.22c6.57,0,10.8,0,17.32,0c-4.67,5.59-8,9.57-12.55,15.03
		c9.23-3.23,10.11,1.67,10.9,7.59c0.69,5.07,2.58,9.96,3.94,14.95c1.29,4.75,2.58,9.51,3.17,11.63c-9.82,2.61-18.05,4.96-26.37,6.9
		c-2.02,0.48-5.25,0.4-6.4-0.83c-7.61-8.13-15.8-9.63-26.28-5.36c-7.02,2.88-16.05-4.19-16.22-11.74
		c-0.21-8.46,5.96-9.9,12.72-10.11c1.73-0.06,3.46,0,5.19,0c0.46,3.19,0.94,6.36,1.52,10.36c2.42-0.1,6.11-0.27,9.82-0.44
		c0.33-3.31,0.6-5.86,0.77-7.42c10.48-1.4,20.14-2.69,27.58-3.69c-11.28-1.5-24.05-3.38-36.89-4.75c-2.92-0.31-6.02,1.1-9.05,1.73
		c0.1-2.02-0.29-4.21,0.38-6c6.44-17.51,0.27-33.62-5.44-49.73C278.1,814.05,276.01,814.3,274.83,814.24z M333.07,770.97
		c-15.53,3.79-30.37,7.4-44.63,10.88C298.98,790.14,321.98,785.29,333.07,770.97z M281.64,808.07c3.27,14.82,6.55,29.64,10.38,46.98
		C296.57,835.85,290.42,821.56,281.64,808.07z M346.49,731.4c-4,11.82-7,20.66-10.34,30.52C346.89,756.67,349.22,750,346.49,731.4z
		 M316.52,738.61c-4.77,9.71-9.55,19.45-14.32,29.16C311.05,759.77,319.27,751.5,316.52,738.61z"/>
	<path class="st1" d="M299.94,459.55c-3.4,2.73-6.8,5.44-10.19,8.17c0.71,1.46,1.4,2.94,2.11,4.4c6.09-0.81,12.65-0.42,18.18-2.65
		c26.18-10.55,47.82-26.41,58.78-53.78c0.9-2.25,1.44-4.88,2.96-6.61c17.13-19.32,18.78-42.23,15.78-66.29
		c0.06-1.71-0.56-4.31,0.29-4.98c11.21-8.53,3.29-18.09,1.79-27.31c-0.73-4.5-1.4-9-2.08-13.51c1.77,2.17,3.54,4.36,5.29,6.52
		c0.88-0.38,1.75-0.75,2.63-1.13c-0.81-5.61-1.56-11.21-2.48-16.8c-2.73-16.57,3.46-27.41,19.72-31.14
		c29.27-6.71,59.09-5.29,87.15,3.71c15.57,5,28.52,18.24,42.65,27.74c-0.44,1.29-0.88,2.56-1.31,3.86
		c-5.48,0.48-10.96,0.98-17.36,1.54c2.61,7.02,0.33,10.01-7.17,9.92c-6.86-0.08-13.74,1.29-20.59,2.02
		c5.09-2.96,10.17-5.88,15.24-8.86c6.27-3.67,6.21-7.98,0.73-12.15c-15.17-11.57-32.12-18.45-51.47-18.63
		c-13.84,0.69-27.66,1.69-41.52,1.94c-8.86,0.15-13.61,4.02-14.8,12.63l0,0c-8.32,7.73,1.65,10.09,4.31,14.59
		c-1.21,3.15-3.81,6.5-3.4,9.42c2.04,14.3,4.88,28.49,7.44,42.71c1.4,7.65,2.79,15.3,4.21,22.95c1.4,7.63,2.79,15.26,4.21,22.89
		c0.1,4.31,1.44,9.05,0.1,12.86c-3.65,10.51-8.42,20.62-12.74,30.89c-5.57,11.82-11.13,23.66-16.68,35.48
		c-8.25,0.9-16.53,1.79-27.47,2.98c6.59-9.73,11.36-16.8,16.13-23.87c-0.38-0.19-0.75-0.38-1.13-0.56
		c-5.75,6.21-11.49,12.44-17.24,18.66c-0.69-0.56-1.4-1.15-2.08-1.71c0.38-2.44,0.75-4.88,0.71-4.65
		c-8.3,3.29-17.09,6.61-25.74,10.3c-6.09,2.61-2.19,4.94,0.56,7.13c-3.65,0.94-7.63,1.25-10.9,2.94
		c-12.72,6.5-26.35,7.71-39.33,3.52c-13.17-4.23-24.28-1.56-35.64,4.31c-1.81,0.94-3.86,1.42-5.79,2.11
		c5.77-4.73,11.53-9.51,17.34-14.2c8.34-6.73,16.72-13.4,25.08-20.09c-0.77-1.02-1.54-2.06-2.31-3.08
		c-10.94,7.21-21.91,14.42-33.46,22.01c-0.98-3.29-1.56-5.27-2.33-7.86c-4.67,6.19-8.75,11.61-12.82,17.05
		c-4.84-2.92-9.65-5.84-14.49-8.73c3.65-5.67,7.32-11.34,11.61-18.01c0.58,4.75,1.06,8.61,1.54,12.46c9.34-9.8,16.65-20.39,18.16-34
		c1.44,3.98,2.88,7.94,3.86,10.69c3.52-1.48,7.13-3,10.73-4.52c9.19-3.36,18.59-6.27,27.54-10.21c6.42-2.83,12.26-7.02,18.34-10.61
		c0.75,0.6,1.5,1.23,2.23,1.83c-2.83,5.65-5.67,11.32-8.53,16.97c-6.94,6.73-13.88,13.47-22.26,21.62
		C290.94,461.17,295.44,460.36,299.94,459.55z"/>
	<path class="st3" d="M727.38,701.8c-18.07-4.19-36.14-8.38-54.24-12.57c-6.29-3.04-12.61-6.07-18.91-9.11c0-0.85,0-1.71,0-2.56
		c7.73-1.79,15.45-3.56,23.18-5.36c21.89,1.54,43.82,4.56,65.68,4.31c36.02-0.42,65.7-16.49,90.65-41.86
		c3.11-1.48,6.75-2.38,9.21-4.59c5.61-5.09,10.63-10.82,15.88-16.3c3.77,11.01,7.25,22.12,11.4,32.98
		c4.86,12.76,3.42,20.41-8.03,26.08c-29.89,14.82-60.41,28.08-94.95,26.45c-11.38-0.54-22.76-1.38-34.14-1.71
		C730.72,697.51,724.94,694.61,727.38,701.8z"/>
	<path class="st4" d="M274.83,814.24c1.19,0.06,3.29-0.19,3.44,0.25c5.73,16.13,11.88,32.23,5.44,49.73c-0.67,1.81-0.27,4-0.38,6
		c2.08,1.42,4.17,2.81,6.25,4.23c-1.73,0-3.46-0.04-5.19,0c-6.75,0.21-12.92,1.65-12.72,10.11c0.19,7.57,9.19,14.61,16.22,11.74
		c10.48-4.27,18.66-2.77,26.28,5.36c1.17,1.23,4.38,1.31,6.4,0.83c8.32-1.94,16.55-4.29,26.37-6.9c-0.58-2.13-1.88-6.88-3.17-11.63
		c-1.35-4.98-3.25-9.88-3.94-14.95c-0.79-5.92-1.67-10.82-10.9-7.59c4.54-5.44,7.88-9.42,12.55-15.03c-6.55,0-10.76,0-17.32,0
		c7.07-7.52,13.01-13.88,18.97-20.22c-0.58-0.88-1.19-1.75-1.77-2.63c-6.73,3.09-13.49,6.17-20.22,9.25
		c-0.58-0.77-1.15-1.54-1.73-2.33c24.58-10.28,41.86-28.24,55.59-49.99c0.71,0.02,1.4,0.02,2.11,0.04c0.46,5.25,2.27,8.67,8.44,6.32
		c-4.19,6.27-7.86,13.01-12.67,18.76c-14.88,17.72-18.84,36.44-7.44,57.51c4.27,7.9,8.4,15.97,11.61,24.35
		c5.29,13.88,1.21,22.55-12.97,26.01c-16.18,3.94-31.89,12.57-49.46,6.8c-0.71-2.77-1.42-5.54-1.5-5.84
		c-5.79,1.83-10.44,3.46-15.17,4.75c-2.83,0.77-5.79,1.04-8.71,1.54c-5.57-1.56-11.09-3.31-16.72-4.67
		c-8.86-2.13-13.44-7.86-11.92-16.57c1.33-7.71,3.21-15.99,7.32-22.43c11.03-17.3,13.55-35.19,7.92-54.63
		C275.06,819.85,275.12,816.99,274.83,814.24z"/>
	<path class="st5" d="M440.16,707.74c-4.34,5.52-8.67,11.05-12.99,16.59c-6.36,1.63-8.67-1.94-10.11-7.36
		c-1.96-7.34-4.36-14.55-6.59-21.82c0.83-23.91,0.46-47.8-7.38-70.73c-6.02-17.61-13.11-34.85-19.74-52.26
		c-4.23-22.32-8.34-44.67-22.99-63.24c-1.44-1.83-1.83-4.46-2.96-6.57c-3.17-5.94-0.06-7.34,5.13-7.36
		c3.48-1.06,7.59-1.33,10.32-3.4c4.04-3.04,7.11-7.38,10.59-11.17c3.84-2.13,7.69-4.23,14.07-7.75c2.42,11.76,4.59,22.26,6.75,32.77
		c-2.06,10.8-5.17,21.55-5.88,32.43c-0.63,9.57,3,18.8,12.36,23.51c9.19,4.63,18.09,2.96,26.08-3.67c2.11-1.75,4.69-2.92,7.05-4.34
		c2.08-0.69,4.17-1.38,6.27-2.06c4.86-0.71,9.71-1.42,14.55-2.15c6.73-2.46,12.21-11.36,20.87-4.13c-2.94,2.27-5.54,5.36-8.86,6.71
		c-19.16,7.73-38.48,15.05-57.74,22.49c-22.68,3.69-23.22-16.18-28.99-32.14c-6.46,13.44-5.42,21.74,4.09,28.68
		c8.15,5.94,10.8,13.53,12.65,22.64c7.34,35.96,15.09,71.81,22.7,107.7C430.66,707.1,432.29,712.48,440.16,707.74z"/>
	<path class="st6" d="M477,737.28c0.23-1.65,0.48-3.27,1.06-7.36c3.54,7.02,6.09,12.09,8.63,17.16c0.6-0.21,1.21-0.44,1.81-0.65
		c-1.69-5.98-3.38-11.96-5.04-17.95c2.75-3.23,4.92-8.23,8.38-9.38c9.98-3.36,20.49-5.23,30.81-7.55
		c12.15-2.73,24.35-5.21,36.48-8.03c6.48-1.5,10.28-5.5,9.86-12.59c0.69,5.57,1.38,11.13,2.06,16.7
		c-0.69,9.05-1.38,18.07-2.08,27.12c-4.59,14.49-18.03,14.36-29.35,18.41c-13.72,4.88-23.01-2.15-32.89-10.76
		c7.61,7.98,8.32,12.97-2.38,17.68c-3.25,1.44-4.25,8-6.27,12.21c0.69,2.08,1.35,4.17,2.04,6.25c-0.19,1.58-0.35,3.17-0.75,6.52
		c-2.88-4.56-4.82-7.65-7.78-12.32c-1.02,4.04-1.56,6.19-2.11,8.32C485.33,766.48,481.17,751.89,477,737.28z"/>
	<path class="st7" d="M727.38,701.8c-2.44-7.19,3.36-4.27,5.71-4.21c11.38,0.33,22.76,1.19,34.14,1.71
		c34.54,1.63,65.06-11.63,94.95-26.45c11.44-5.67,12.88-13.32,8.03-26.08c-4.13-10.86-7.63-21.97-11.4-32.98
		c-2.73-13.19-5.88-26.31-8.09-39.58c-2.11-12.59-3.23-25.35-4.77-38.04c1.23-0.19,2.48-0.38,3.71-0.58
		c6.23,39.48,17.55,77.4,34.16,113.69c0.67,3.36,1.04,6.82,2.04,10.07c2.56,8.25,9.84,18.93,7,24.01
		c-3.4,6.09-15.2,7.96-23.66,10.63c-26.62,8.42-53.07,18.22-81.98,11.88c-3.65-0.79-7.94,1.29-11.92,2.04
		C759.34,705.87,743.35,703.83,727.38,701.8z"/>
	<path class="st8" d="M510.16,899.41c0.79-7.52,1.58-15.05,2.38-22.6c4.23-13.26,7.92-26.7,12.9-39.67
		c2.36-6.15,1.79-9.92-2.79-14.53c-4.75-4.77-8.32-10.69-12.38-16.11c0.69-0.56,1.38-1.15,2.06-1.71c3.36,2.27,9.44,4.31,9.65,6.86
		c1.25,14.82,13.69,17.3,23.47,21.93c4.9,2.31,12.63,4.31,15.13-4.96c15.99,10.26,26.62,23.87,27.14,43.73
		c-6.46,3.29-13.82,10.36-19.22,9.09c-11.78-2.77-20.49,1.52-30.08,5.98C529.17,891.74,519.6,895.43,510.16,899.41z"/>
	<path class="st9" d="M802.5,763.94c-2.29-16.63-4.56-33.25-6.86-49.88c3.13,2.29,6.27,4.59,7.48,5.48
		c6.55-1.1,11.82-3.25,16.72-2.58c19.7,2.65,38.75,1.15,57.32-6.11c2.9-1.13,6.11-1.4,10.9-2.42c-1.75,7.4-3.02,12.67-4.27,17.97
		c-4.86,9.05-9.71,18.09-14.57,27.14c-15.2,2.17-30.45,4.04-45.57,6.69c-4.48,0.79-8.57,3.79-12.84,5.79
		c-1.92,1.35-3.84,2.69-5.67,4C804.38,768.28,803.44,766.11,802.5,763.94z"/>
	<path class="st10" d="M1000.57,878.61c-3.11-9.4-6.46-18.74-9.23-28.24c-1.63-5.57-2.33-11.38-3.46-17.09
		c0.77-5.73,1.52-11.46,2.29-17.2c3.42,11.19,6.82,22.39,10.23,33.6c0.6-0.19,1.23-0.35,1.83-0.54c-0.54-5.46-1.08-10.92-1.63-16.38
		c1.27-1.04,2.46-2.81,3.86-2.98c13.9-1.83,27.81-3.71,41.77-4.94c7.48-0.67,12.17-4.11,14.84-10.84
		c8.86,13.26,13.88,27.62,12.53,43.79l-0.02-0.02c-12.76,3.04-25.58,5.79-38.23,9.21C1023.52,870.14,1009.93,868.14,1000.57,878.61z
		"/>
	<path class="st11" d="M510.16,899.41c9.44-3.98,19.01-7.67,28.29-11.99c9.57-4.46,18.28-8.75,30.08-5.98
		c5.4,1.27,12.76-5.79,19.22-9.09c0.71,5.57,1.4,11.13,2.11,16.7c-1.98,5.4-3.98,10.82-6.15,16.7c1.5,1.08,3.06,2.36,4.77,3.44
		c7.46,4.75,7.84,10.07,0.27,14.57c-2.92,1.75-7.32,2.27-10.76,1.67c-8.38-1.46-16.57-3.88-24.85-5.92
		c-3.23,2.04-6.98,6.44-10.13,6.07c-12.74-1.56-25.31-4.61-37.94-7.13c-0.23-0.04-0.31-0.79-0.54-0.83
		c-3.13-0.6-6.25-1.13-9.38-1.67C500.15,910.44,505.16,904.91,510.16,899.41z"/>
	<path class="st12" d="M1000.57,878.61c9.36-10.46,22.95-8.46,34.75-11.65c12.65-3.42,25.49-6.17,38.23-9.21
		c2.29,14.57-3.84,25.89-15.51,35.06c0.9,0.9,1.79,1.81,2.69,2.71c6.82-3.63,13.63-7.23,20.34-10.8
		c-0.92,12.26-8.73,20.18-21.03,20.87c-9.34,0.52-18.7,0.65-28.06,0.94c-15.4,0.48-30.97,10.17-46.17-0.85
		C990.73,896.66,995.65,887.63,1000.57,878.61z"/>
	<path class="st13" d="M990.15,816.07c-0.77,5.73-1.52,11.46-2.29,17.2c-7.71-24.8-15.74-49.46-31.35-70.77
		c1.46-2.29,2.94-4.59,4.4-6.86c3.63,4.88,3.73,13.55,14.13,12.78c-3.56-8.32-6.75-15.76-9.94-23.2
		c-2.23-7.19-2.75-15.22,7.05-14.76c10.23,0.48,20.89,3.15,30.27,7.32c6.94,3.06,10.86,2.9,14.86-3.04
		c4.86,10.42,9.71,20.87,14.57,31.29c0.71,2.77,1.42,5.54,2.11,8.32c-0.79,7.32-4.46,7.63-11.3,6.92c-7.17-0.73-14.72,2.19-22.1,3.5
		c-3.04,0.44-6.09,0.83-9.13,1.33c-6.42,1.06-7.19,4.23-3.34,9.09l-0.06,0.06c-0.75,2.5-2.46,5.17-2.06,7.48
		C986.75,807.28,988.69,811.63,990.15,816.07z M980.33,766.57c5.92,9.13,14.05,8.25,24.12-2.92
		C994.9,764.8,988.17,765.61,980.33,766.57z M995.07,748.04c-0.23-1.19-0.46-2.38-0.69-3.56c-7.46,1.46-14.92,2.94-22.39,4.4
		c0.19,0.9,0.38,1.79,0.56,2.67C980.06,750.37,987.56,749.2,995.07,748.04z"/>
	<path class="st14" d="M560.58,828.62c-2.5,9.26-10.23,7.25-15.13,4.96c-9.78-4.63-22.22-7.11-23.47-21.93
		c-0.21-2.54-6.29-4.59-9.65-6.86c-0.69,0.56-1.38,1.15-2.06,1.71c4.09,5.42,7.65,11.36,12.38,16.11c4.59,4.61,5.15,8.38,2.79,14.53
		c-4.98,12.97-8.67,26.41-12.9,39.67c-1.58-4.5-3.77-8.88-4.63-13.51c-2.9-15.57-5.32-31.23-7.9-46.86
		c1.77-5.82,2.25-12.57,5.59-17.24c7.09-9.9,2.54-15.42-5.46-20.66c-0.69-2.08-1.35-4.17-2.04-6.25c2.81,2.38,6,4.46,8.4,7.21
		c9.61,10.99,21.07,16.11,35.85,12.97c7.4-1.58,14.97-2.38,22.45-3.52c0.69,9.05,1.38,18.09,2.06,27.14
		c-1.81,2.77-3.79,5.46-5.4,8.34C560.79,825.62,560.85,827.2,560.58,828.62z"/>
	<path class="st15" d="M677.4,672.2c-7.73,1.79-15.45,3.56-23.18,5.36c0,0.85,0,1.71,0,2.56c6.3,3.04,12.61,6.07,18.91,9.11
		c-24.43-7.57-48.86-15.17-73.33-22.62c-3.84-1.17-7.92-1.56-11.88-2.33c-0.1-0.81-0.21-1.63-0.31-2.44
		c0.75-3.48,1.48-6.98,2.23-10.46c5.04,4.77,10.09,9.57,15.15,14.34c0.77-0.65,1.54-1.29,2.31-1.96
		c-13.78-16.09-3.25-35.77-8.63-54.93c-0.48,10.03-0.88,18.24-1.27,26.47c-1.29-0.06-2.56-0.13-3.86-0.21
		c0.63-14.01,0.98-28.04,1.96-42.04c0.71-10.23-1.33-13.28-9.9-12.55c-1.27-2.33-2.54-4.67-3.9-7.11
		c17.49-5.96,0.96-11.76,0.69-19.57c4.77,3.11,8.5,5.5,15.4,9.98c-0.52-10.92-0.92-19.36-1.42-30.14
		c4.67,11.21,13.53,17.91,12.38,30.33c-1.54,16.88-1.35,33.91-2.29,50.84c-1,18.13,7.5,30.37,22.97,38.58
		c3.88,2.25,7.52,5.11,11.65,6.61C653.09,664.39,665.29,668.2,677.4,672.2z"/>
	<path class="st16" d="M440.16,707.74c-7.88,4.73-9.51-0.65-10.78-6.65c-7.61-35.89-15.36-71.75-22.7-107.7
		c-1.86-9.09-4.52-16.7-12.65-22.64c-9.51-6.92-10.55-15.24-4.09-28.68c5.77,15.97,6.34,35.85,28.99,32.14
		c3.92,29.79,11.26,58.59,24.74,85.63c2.94,10.99,11.65,20.82,6.59,33.39C446.92,698.07,443.54,702.91,440.16,707.74z"/>
	<path class="st17" d="M883.8,726.4c1.25-5.27,2.52-10.57,4.27-17.97c-4.79,1.04-8.03,1.29-10.9,2.42
		c-18.57,7.25-37.62,8.75-57.32,6.11c-4.9-0.67-10.15,1.48-16.72,2.58c-1.21-0.9-4.36-3.19-7.48-5.48
		c-4.42-9.8-13.32-4.86-20.32-6.17c4-0.75,8.28-2.86,11.92-2.04c28.89,6.34,55.34-3.46,81.98-11.88
		c8.48-2.69,20.26-4.54,23.66-10.63c2.86-5.09-4.44-15.74-7-24.01c-1-3.25-1.38-6.69-2.04-10.07c1.38,0.71,2.75,1.42,4.13,2.11
		c9.73,16.68,19.45,33.35,29.18,50.03c0.02,4.21,0.04,8.42,0.04,12.63c-4.09,6.4-8.17,12.8-12.26,19.2
		C900.37,723.27,892.09,724.77,883.8,726.4z"/>
	<path class="st18" d="M985.81,905.68c15.2,11.03,30.77,1.33,46.17,0.85c9.36-0.29,18.72-0.42,28.06-0.94
		c12.32-0.69,20.14-8.61,21.03-20.87c-6.69,3.54-13.53,7.17-20.34,10.8c-0.9-0.9-1.79-1.81-2.69-2.71
		c11.69-9.17,17.82-20.47,15.51-35.06l0.02,0.02c7.8-5.69,11.38-3.5,12.88,5.88c0.94,5.84,3.98,11.34,6.07,16.99
		c3.98,6.75,8.69,13.19,11.76,20.32c3.06,7.11,0.44,12.8-7.67,14.86c-8.96,2.29-17.95,4.52-26.91,6.77c-6,0.1-11.15,0.19-16.49-4.96
		c-3.44-3.31-11.96-3.79-17.01-2.08c-3.25,1.1-4.36,8.53-6.42,13.13c-4-2.04-7.96-4.15-12.01-6.07c-4.46-2.13-10.67-6.98-13.26-5.52
		c-9.09,5.09-15.55,0.19-22.78-3.09C983.1,911.21,984.46,908.43,985.81,905.68z"/>
	<path class="st4" d="M348.12,561.77c0.73-8.38,1.44-16.76,2.17-25.14c1.31,0.02,2.61,0.02,3.92,0.04c2.15,4.17,5.25,8.13,6.3,12.57
		c5.57,23.89,10.99,47.84,15.74,71.91c6.61,33.48,16.13,66.54,15.55,101.14c-0.73,4.15-1.44,8.3-2.17,12.47
		c-1.94-5.15-4.56-10.15-5.69-15.49c-8.86-42.63-17.28-85.36-26.24-127.96c-1.54-7.3-5.02-14.17-7.63-21.24
		C349.41,567.29,348.76,564.52,348.12,561.77z"/>
	<path class="st19" d="M779.93,914.06c1.31-2.77,2.63-5.54,3.92-8.32c2.29-0.06,4.75,0.35,6.88-0.29
		c9.13-2.77,18.01-6.52,27.26-8.69c10.71-2.5,21.85-3.23,32.54-5.79c3.52-0.83,6.11-5.19,9.44-7.5c1.25-0.88,3.38-0.52,5.09-0.71
		c1.4,5.57,2.77,11.13,4.17,16.7c0.33,2.04,1.19,4.17,0.9,6.13c-0.71,4.88-0.85,10.44-3.48,14.11c-1.15,1.58-7.88-1.4-12.05-1.29
		c-6.25,0.17-12.49,1.21-18.72,1.9c-5.65,1.13-11.59,3.92-16.9,3.02C805.8,921.15,792.92,917.27,779.93,914.06z"/>
	<path class="st20" d="M495.15,915.94c3.13,0.54,6.25,1.08,9.38,1.67c0.23,0.04,0.31,0.79,0.54,0.83
		c12.63,2.52,25.18,5.57,37.94,7.13c3.17,0.4,6.9-4.02,10.13-6.07c8.25,2.02,16.47,4.46,24.85,5.92c3.44,0.6,7.84,0.08,10.76-1.67
		c7.57-4.52,7.21-9.82-0.27-14.57c-1.71-1.08-3.27-2.36-4.77-3.44c2.17-5.9,4.17-11.3,6.15-16.7c1.4-3.59,2.77-7.15,4.17-10.73
		c0.96,0,1.9,0,2.86,0.02c1.13,4.79,2,9.67,3.44,14.36c1.98,6.46,4.36,12.8,6.57,19.18c1.17,4.27,2.73,8.48,3.42,12.84
		c0.98,6.32-1.54,10.88-8.23,12.13c-8.8,1.63-17.63,3.04-26.45,4.56c-2.44-1.71-4.71-3.77-7.36-5.07
		c-5.25-2.54-11.32-7.27-15.9-6.21c-4.46,1.04-7.5,8.21-11.17,12.69c-4.44-2-9.63-3.15-13.17-6.19
		c-6.32-5.44-11.46-12.32-21.16-6.34c-1.08,0.67-3.63-0.83-5.42-1.54c-3.42-1.35-6.77-2.86-10.15-4.27
		C492.55,921.61,493.86,918.77,495.15,915.94z"/>
	<path class="st21" d="M220.76,476.22c4.84,2.92,9.65,5.84,14.49,8.73c0.04,0.54,0.08,1.08,0.15,1.63
		c-1.38,0.21-2.92,0.08-4.09,0.69c-14.76,7.73-28.95,9.57-43.34-1.54c-5.98-4.63-12.51-2.69-19.2,1.5
		c-11.32,7.07-23.51,12.74-35.33,18.99c0.15-2.79,0.31-5.61,0.38-7.07c-5.04,0-9.09,0-13.13,0c0.63-6.44,1.4-12.88,1.81-19.34
		c0.29-4.59,0.13-9.21,0.17-13.82c2.54,2.44,5.07,4.86,7.61,7.3c0.63-0.42,1.25-0.83,1.88-1.25c-2.48-10.01-4.94-20.01-7.42-30.02
		c0.83-0.4,1.69-0.79,2.52-1.19c5.38,14.17,8.03,30.66,26.79,33.39c12.32,2.75,24.58,5.04,35.44-4.29c2.31,0.42,5.88,0.06,6.71,1.4
		C204.73,485.12,207.71,485.83,220.76,476.22z"/>
	<path class="st22" d="M1023.48,430.45c16.3,36.52,26.28,74.48,27.04,114.71c0.46,24.64,1.29,49.28,2.46,73.87
		c0.46,9.69,1.79,19.41,13.03,23.7c2.31,0.88,3.84,3.9,5.71,5.92c-0.83,7.11-1.67,14.22-2.5,21.32
		c-6.19-11.76-12.4-23.53-18.59-35.29c-2.79-29.97-4.98-60.01-8.59-89.9c-2.27-18.82-6.67-37.42-10.11-56.09
		c-2.79-11.11-5.59-22.2-8.38-33.31C1023.52,447.06,1023.5,438.75,1023.48,430.45z"/>
	<path class="st23" d="M865.06,882.75c-1.73,0.21-3.84-0.17-5.09,0.71c-3.31,2.31-5.92,6.67-9.44,7.5
		c-10.69,2.56-21.82,3.27-32.54,5.79c-9.25,2.17-18.13,5.9-27.26,8.69c-2.13,0.65-4.59,0.23-6.88,0.29
		c1.81-4.36,3.63-8.69,5.46-13.05c2.52-0.17,6.13,0.67,7.38-0.67c5.11-5.5,9.48-11.67,14.11-17.59c10.92-2.75,21.99-5,32.66-8.53
		c4.19-1.38,7.38-5.69,11.11-8.59c3.46-2.69,6.98-5.27,10.48-7.9c1.4,11.57,2.81,23.16,4.27,35.19
		C868.06,884.05,866.56,883.4,865.06,882.75z"/>
	<path class="st24" d="M606.88,911.87c-2.21-6.38-4.59-12.72-6.57-19.18c-1.44-4.71-2.31-9.57-3.44-14.36c-0.96,0-1.9,0-2.86-0.02
		c-1.4,3.59-2.77,7.15-4.17,10.73c-0.71-5.57-1.4-11.13-2.11-16.7c-0.54-19.86-11.15-33.46-27.14-43.73c0.27-1.42,0.21-3,0.88-4.19
		c1.63-2.88,3.59-5.57,5.4-8.34c0.31-15.15,3.29-17.22,18.01-12.38c1.63,0.52,3.17,1.27,4.73,1.92c1.52,6.94,3.02,13.88,4.54,20.82
		c2.73,14.47,5.92,28.85,8.09,43.4C604.34,883.78,605.38,897.87,606.88,911.87z"/>
	<path class="st25" d="M348.12,561.77c0.65,2.77,1.29,5.52,1.94,8.3c0,9.03-0.02,18.07-0.02,27.1c1.08,13.74,0.92,27.72,3.52,41.17
		c5.82,30.14,12.84,60.07,19.74,90.01c2.92,12.67,6.73,25.14,10.13,37.71c-2.11,4.84-4.21,9.69-6.32,14.53
		c-0.71-0.02-1.4-0.02-2.11-0.04c-8.13-38.23-16.3-76.46-24.26-114.71c-0.83-4.02-0.5-8.28-0.73-12.42c-1-14.72,3.34-29.95-4.31-44
		C346.51,593.52,347.3,577.65,348.12,561.77z"/>
	<path class="st26" d="M1031.79,680.54c6.38,18.76,12.76,37.54,19.14,56.3c-11.92-17.07-11.9-17.05-31.87-7.67
		c-1.23,0.58-2.54,0.96-3.81,1.44c-2.81-13.19-5.61-26.41-8.42-39.6C1010.72,677.56,1019.5,673.89,1031.79,680.54z"/>
	<path class="st27" d="M1031.79,680.54c-12.3-6.65-21.07-2.96-24.97,10.46c-0.69,0-1.38-0.02-2.06-0.02
		c-1.4-12.51-2.79-25.01-4.19-37.52c0.04-7.98-0.02-15.99,0.15-23.97c0.15-7.5,3.9-12.13,11.49-14.01
		c3.29,10.28,6.42,19.95,9.53,29.64C1025.06,656.93,1028.42,668.72,1031.79,680.54z"/>
	<path class="st28" d="M883.8,726.4c8.32-1.63,16.57-3.13,21.14,6.84c-2.38,10.42-4.52,20.91-7.25,31.23
		c-1.27,4.84-3.65,9.38-5.54,14.05c-0.56-6.84-4.56-8.57-10.8-7.67c-12.57,1.81-14.13,3.9-14.22,20.2c-0.69-0.69-1.4-1.4-2.08-2.08
		c1.4-11.8,2.79-23.62,4.19-35.41C874.08,744.49,878.94,735.45,883.8,726.4z"/>
	<path class="st29" d="M867.12,791.04c0.08-16.28,1.65-18.36,14.22-20.2c6.23-0.9,10.23,0.83,10.8,7.67
		c-6.17,23.37-9.25,46.96-5.57,71.1c0.52,3.4,0.9,6.8,1.33,10.21c-1.4-4.46-2.65-8.98-4.23-13.38c-1.42-3.94-2.27-9.71-5.09-11.05
		c-2.65-1.25-7.55,2.23-11.46,3.63c0-1.4-0.02-2.81-0.02-4.21c0-13.9,0-27.79,0-41.69C867.12,792.44,867.12,791.75,867.12,791.04z"
		/>
	<path class="st30" d="M251.98,217.65c-17.03,19.89-40.23,31.98-60.03,48.15c-16.9,13.8-28.29,34.37-42.11,51.94
		c-0.69-2.06-1.38-4.11-2.06-6.17c14.84-27.7,35.64-49.94,61.05-68.29c11.74-8.46,22.99-17.66,33.89-27.18
		c11.3-9.88,22.2-20.05,38.15-21.51c5.46,0,10.92,0,17.82,0c-12.38,4.63-23.22,8.69-34.08,12.76
		C260.4,210.77,256.19,214.21,251.98,217.65z"/>
	<path class="st31" d="M867.16,839.02c3.92-1.4,8.82-4.88,11.46-3.63c2.81,1.33,3.67,7.11,5.09,11.05c1.58,4.4,2.83,8.9,4.23,13.38
		c0.96,10.09,1.67,20.2,3,30.22c0.9,6.65,2.69,13.17,4.09,19.76c-2.33-3.67-4.34-7.63-7.11-10.94c-2.88-3.44-6.5-6.27-9.8-9.36
		c-2.96,3.31-5.92,6.63-8.88,9.96c-1.4-5.57-2.77-11.13-4.17-16.7c1.5,0.65,3,1.29,4.25,1.83c-1.46-12.03-2.86-23.6-4.27-35.19
		C865.75,845.96,866.46,842.5,867.16,839.02z"/>
	<path class="st32" d="M1023.48,430.45c0.02,8.32,0.04,16.63,0.06,24.93c-3.34-7.94-6.27-16.09-10.13-23.78
		c-2.13-4.27-5.75-7.8-8.69-11.65c-11.55-25.74-24.28-50.69-45.69-70.04c-1.61-1.46-1.63-4.67-2.4-7.07
		C992.29,361.83,1010.24,394.35,1023.48,430.45z"/>
	<path class="st33" d="M869.23,899.45c2.96-3.31,5.92-6.63,8.88-9.96c3.29,3.11,6.92,5.92,9.8,9.36c2.77,3.31,4.77,7.27,7.11,10.94
		c3.79,11.15,0.31,19.39-10.48,22.49c-6.17,1.77-12.82,1.92-19.24,2.79c-4.94-3.54-9.9-7.09-14.84-10.63
		c-4.86-1.38-9.73-2.77-14.59-4.15c6.23-0.67,12.47-1.73,18.72-1.9c4.17-0.1,10.9,2.88,12.05,1.29c2.63-3.67,2.77-9.26,3.48-14.11
		C870.42,903.64,869.56,901.51,869.23,899.45z"/>
	<path class="st10" d="M867.12,791.04c0,0.69,0,1.4,0,2.08c-1.48,3.36-4.27,6.73-4.21,10.05c0.17,7.98-3.69,11.44-10.65,14.05
		c-10.21,3.84-13.63-3.9-18.51-9.48c-4.71,0.1-9.59-0.5-14.11,0.52c-4.48,1.02-8.59,3.67-12.86,5.61c-1.96,0.77-3.92,1.52-5.9,2.29
		c-0.23-0.85-0.46-1.73-0.71-2.58c0.69-8.28,1.38-16.53,2.06-24.8c1.52,4.98,3.04,9.94,4.56,14.92c0.98-0.06,1.94-0.15,2.92-0.21
		c0.38-4.84,0.75-9.67,1.13-14.51c18.05,3.98,36.12,7.48,54.17-0.02C865.75,789.66,866.43,790.35,867.12,791.04z"/>
	<path class="st34" d="M70.34,659.72c0.19,1.21,0.38,2.42,0.56,3.65c-2.02,10.69,2,19.01,10.92,24.51c1.75,1.08,6.73-0.56,8.38-2.52
		c1.65-1.96,0.98-5.88,1.33-8.92c0.75,2.19,1.48,4.38,2.23,6.57c-2.33,7.84-3.46,16.32-7.27,23.35
		c-6.8,12.49-18.26,14.17-30.77,6.07c0.1-1.58,0.21-3.19,0.31-4.77c6.8-15.51,5.61-31.73,4.19-47.94
		C63.59,659.72,66.96,659.72,70.34,659.72z"/>
	<path class="st29" d="M1092.53,880.65c-2.08-5.65-5.13-11.15-6.07-16.99c-1.5-9.4-5.09-11.57-12.88-5.88
		c1.35-16.18-3.67-30.54-12.53-43.79c-1.4-2.77-2.79-5.54-4.19-8.32c5.19-13.67,9.61-14.63,18.91-4.15
		c1.35,1.52,3.11,2.67,4.69,3.98c2.46,10.96,5.5,21.85,7.23,32.93C1089.87,852.4,1090.97,866.56,1092.53,880.65z"/>
	<path class="st15" d="M383.45,480.43c-3.48,3.79-6.55,8.11-10.59,11.17c-2.73,2.06-6.84,2.33-10.32,3.4
		c-3.67-1.31-7.36-2.65-11.36-4.09c-1.08,11.38-2.04,21.26-3,31.14c-0.21-8.55-1.19-17.15-0.46-25.6
		c0.85-9.96-3.17-15.55-12.32-18.2c-2.75-2.19-6.63-4.52-0.56-7.13c8.65-3.69,17.45-7,25.74-10.3c0.04-0.23-0.33,2.21-0.71,4.65
		c0.69,0.56,1.4,1.15,2.08,1.71c5.75-6.21,11.49-12.44,17.24-18.66c0.38,0.19,0.75,0.38,1.13,0.56
		c-4.77,7.07-9.55,14.11-16.13,23.87c10.96-1.19,19.22-2.08,27.47-2.98C388.95,473.45,386.2,476.93,383.45,480.43z"/>
	<path class="st35" d="M1080.47,805.48c-1.56-1.31-3.34-2.46-4.69-3.98c-9.3-10.46-13.74-9.53-18.91,4.15
		c-7.63-10.44-15.28-20.87-22.91-31.31c-0.71-2.77-1.42-5.54-2.11-8.32c8.57-8.82,18.07-10.99,27.22-6.23
		C1066.21,775.03,1073.34,790.25,1080.47,805.48z"/>
	<path class="st36" d="M1059.06,759.79c-9.15-4.75-18.66-2.58-27.22,6.23c-4.86-10.42-9.71-20.87-14.57-31.29
		c-0.69-1.38-1.35-2.75-2.04-4.13c1.27-0.48,2.58-0.85,3.81-1.44c19.95-9.38,19.95-9.4,31.87,7.67
		C1053.62,744.49,1056.35,752.14,1059.06,759.79z"/>
	<path class="st37" d="M87.5,578.34c-1.63,8.78-2.88,17.66-5,26.31c-2.67,10.86-6,21.57-9.15,32.31c-0.65,2.19-1.73,4.23-2.61,6.34
		c0.31-5.75,0.33-11.53,1.02-17.24c0.77-6.38-1.33-8.42-7.38-5.96c-4.17-2.79-8.36-5.57-12.53-8.36c-0.67-0.06-1.33-0.1-2-0.13
		c-0.06-0.63-0.13-1.25-0.19-1.86c14.63-3.52,15.65-17.74,19.89-28.12c2.42-5.92,4.17-7.46,9.4-7.42
		C85.06,568.88,85.75,574.71,87.5,578.34z"/>
	<path class="st11" d="M49.87,611.63c0.67,0.02,1.33,0.06,2,0.13c0,5.15-0.21,10.32,0.02,15.45c0.58,13.63,1.35,27.24,2.04,40.88
		c0.02,2.77,0.02,5.54,0.04,8.3c-1.65,0.4-3.42,1.42-4.94,1.1c-9.13-1.83-11.59,1.86-9.07,10.26c0.6,1.98,0.75,4.09,1.1,6.13
		c-2.71-7.13-5.44-14.28-8.15-21.41c0.04-4.21,0.08-8.44,0.1-12.65c0.02-3.42,0.15-6.84,0.06-10.26
		c-0.19-8.44-0.92-16.84,11.3-17.95c1.96-0.19,4.34-4.77,5.02-7.69C50.33,619.97,49.79,615.72,49.87,611.63z"/>
	<path class="st14" d="M1031.92,488.69c3.44,18.7,7.82,37.27,10.11,56.09c3.61,29.87,5.79,59.93,8.59,89.9
		c-0.77,0.02-1.52,0.04-2.29,0.04c-0.65-0.02-1.27-0.02-1.92-0.02c-5.59-37.5-11.17-75.02-16.74-112.52
		C1030.42,511.01,1031.17,499.84,1031.92,488.69z"/>
	<path class="st38" d="M511.47,211.19c-3.79-0.6-7.61-1.21-11.4-1.81c-8.17-3.71-16.28-7.57-24.51-11.09
		c-16.72-7.15-33.27-6.4-50.57-0.79c-19.47,6.32-38.71,16.34-60.37,9.61c-8.48-2.65-16.93-5.42-25.2-9.69
		c2.25-0.23,4.48-0.44,6.73-0.67c7.84,1.4,15.76,4.36,23.47,3.88c17.47-1.06,35.79-1.04,52.03-6.57c23.51-8,44.65-7.25,65.95,4.71
		C495.4,203.14,503.49,207.04,511.47,211.19z"/>
	<path class="st39" d="M348.2,522.06c0.96-9.88,1.9-19.76,3-31.14c4,1.44,7.67,2.75,11.36,4.09c-5.19,0.02-8.3,1.42-5.13,7.36
		c1.13,2.13,1.52,4.73,2.96,6.57c14.65,18.57,18.76,40.92,22.99,63.24c-0.69,0-1.38,0-2.08,0c-4.88-10.34-9.36-20.91-14.8-30.93
		c-2.29-4.23-5.15-11.46-12.3-4.54c-1.31-0.02-2.61-0.02-3.92-0.02C349.6,531.77,348.89,526.92,348.2,522.06z"/>
	<path class="st40" d="M82.99,394.64c-2.04,5.04-4.36,10.01-6,15.17c-0.81,2.52-0.4,5.46-0.69,11.05
		c-21.34,24.3-19.45,59.41-28.62,90.82c-1.4,4.86-2.77,9.73-4.17,14.59c-2.81,5.57-5.63,11.13-8.44,16.68
		c12.32-46.38,14.36-95.82,41.04-137.91C78.37,401.54,80.7,398.1,82.99,394.64z"/>
	<path class="st12" d="M1031.92,488.69c-0.75,11.17-1.5,22.32-2.25,33.5c-1.4-6.9-2.79-13.8-4.19-20.7
		c-6.92-27.18-13.84-54.36-20.76-81.54c2.94,3.86,6.57,7.4,8.69,11.65c3.84,7.69,6.8,15.82,10.13,23.78
		C1026.33,466.49,1029.13,477.58,1031.92,488.69z"/>
	<path class="st4" d="M917.19,714.04c-0.02-4.21-0.04-8.42-0.04-12.63c3.48,2.77,6.96,5.57,10.44,8.34
		c8.34,9.73,16.68,19.49,24.99,29.22c2.77,5.57,5.54,11.11,8.32,16.68c-1.46,2.29-2.94,4.59-4.4,6.86
		c-10.23-13.36-20.37-26.81-30.75-40.04C923.32,719.33,920.09,716.83,917.19,714.04z"/>
	<path class="st41" d="M87.5,578.34c-1.75-3.63-2.44-9.48-8.55-4.13c-2.73-3.36-5.46-6.69-8.86-10.88c3.23,0,5.38,0,8.36,0
		c-1.38-3.75-2.52-6.86-3.65-9.96c13.94,1.19,18.41-10.21,24.97-18.8c4.92-2.19,8.8-1.81,10.44,4.17
		C102.67,551.95,95.08,565.15,87.5,578.34z"/>
	<path class="st27" d="M800.21,813.57c0.23,0.85,0.46,1.73,0.69,2.58c1.23,2.06,2.46,4.13,3.69,6.19c0,14.22,0,28.41,0,42.63
		c1.17,0.02,2.36,0.06,3.52,0.08c0.21-4.52,0.44-9.05,0.65-13.57c0.69,0.02,1.38,0.02,2.04,0.04c0,7.63-0.02,15.28-0.02,22.91
		c-4.65,5.92-9.03,12.09-14.11,17.59c-1.25,1.35-4.86,0.5-7.38,0.67c11.76-19.93,9.42-42.02,9.9-63.7
		C799.32,823.87,799.86,818.72,800.21,813.57z"/>
	<path class="st42" d="M110.24,538.76c-1.65-5.98-5.52-6.38-10.44-4.17c2.79-6.25,5.57-12.51,8.36-18.74
		c4.17-5.57,8.34-11.13,12.51-16.68c4.04,0,8.11,0,13.13,0c-0.08,1.46-0.23,4.27-0.38,7.07
		C125.7,517.08,117.97,527.92,110.24,538.76z"/>
	<path class="st43" d="M491.23,924.42c3.38,1.44,6.73,2.94,10.15,4.27c1.79,0.71,4.34,2.21,5.42,1.54
		c9.69-5.98,14.84,0.9,21.16,6.34c3.54,3.04,8.73,4.19,13.17,6.19c1.6,0.75,3.19,1.52,4.79,2.27c-15.32-1.33-30.7-2.23-45.96-4.11
		C487.59,939.43,486.19,936.1,491.23,924.42z"/>
	<path class="st29" d="M410.48,695.13c2.21,7.27,4.63,14.49,6.59,21.82c1.44,5.42,3.75,8.98,10.11,7.36
		c-3.21,4.23-6.42,8.46-9.61,12.69c-3.02,2-6.07,3.98-10.59,6.96c-2.52-7.15-4.71-13.42-6.92-19.68c2.11-6.94,4.19-13.88,6.3-20.8
		C407.73,700.72,409.11,697.93,410.48,695.13z"/>
	<path class="st44" d="M835.88,920.32c4.86,1.38,9.73,2.77,14.59,4.15c-7.38,1.67-15.15,2.36-21.99,5.27
		c-5.75,2.46-10.4,7.5-15.55,11.42l0.02,0.02c-4.73-5.27-9.94-15.24-14.11-14.82c-8.32,0.83-13.22-3.42-19.39-6.07
		c0.17-2.08,0.33-4.15,0.48-6.23c12.99,3.19,25.87,7.07,39.04,9.28C824.29,924.21,830.21,921.42,835.88,920.32z"/>
	<path class="st43" d="M981.75,913.98c7.21,3.27,13.69,8.19,22.78,3.09c2.58-1.44,8.78,3.42,13.26,5.52c4.04,1.92,8,4.04,12.01,6.07
		c0,0.58,0,1.17,0,1.75c-14.7,0-29.39,0.42-44.04-0.13C976.31,929.97,975.72,926.78,981.75,913.98z"/>
	<path class="st45" d="M35.09,542.97c2.81-5.57,5.63-11.13,8.44-16.68c0,2.08,0.02,4.17,0.02,6.27
		c-2.77,15.99-5.54,31.95-8.34,47.94c-0.71,10.42-1.42,20.87-2.15,31.29c-0.02,16.01-0.04,32.02-0.04,48.03
		c-0.04,4.21-0.08,8.44-0.1,12.65c-1.06-3.96-2.86-7.88-3.11-11.9C27.49,621.18,27.07,581.86,35.09,542.97z"/>
	<path class="st46" d="M400.06,724.32c2.19,6.25,4.4,12.53,6.92,19.68c4.52-2.98,7.55-4.98,10.59-6.96
		c-4.92,6.94-9.82,13.88-14.74,20.82c-4.4,0.02-9,15.7-13.17-0.19c-0.02-7.65-0.02-15.3-0.04-22.95c0.73-4.15,1.44-8.3,2.17-12.47
		C394.52,722.96,397.29,723.63,400.06,724.32z"/>
	<path class="st13" d="M812.93,941.16c5.15-3.9,9.8-8.94,15.55-11.42c6.84-2.92,14.61-3.63,21.99-5.27
		c4.94,3.54,9.9,7.09,14.84,10.63c-11.63,2.17-23.22,4.73-34.94,6.38C824.66,942.24,818.74,941.31,812.93,941.16z"/>
	<path class="st1" d="M141.57,340.65c11.05,3.06,23.1,4.59,28.64,19.91c-4.77-2.06-7.84-3.17-10.71-4.67
		c-12.21-6.34-24.66-8.25-37.81-2.83c-1.23,0.5-3.48-1.44-5.25-2.25c6.86-6.94,13.74-13.86,20.59-20.8
		C138.52,333.56,140.05,337.11,141.57,340.65z"/>
	<path class="st14" d="M779.43,920.3c6.17,2.65,11.09,6.9,19.39,6.07c4.17-0.42,9.38,9.55,14.11,14.82
		c-12.69,5.82-23.7,0.42-33.43-6.61C777.24,932.93,779.35,925.21,779.43,920.3z"/>
	<path class="st47" d="M1046.43,634.71c0.65,0,1.27,0.02,1.92,0.02c0.88,15.36,6.23,28.06,20.89,35.25
		c0.83-7.11,1.67-14.22,2.5-21.32c8.23,8.53,2.5,17.3-0.12,25.58c-1.67,5.25-5.54,9.82-9.13,15.86c-1.35-1.23-3.59-3.23-5.82-5.25
		c1.17-1.86,3.79-4.44,3.29-5.46c-4.61-9.32-9.76-18.34-14.76-27.47c-0.75,0.33-1.5,0.69-2.23,1.02c-0.29,1.65-0.58,3.31-0.9,4.96
		C1043.51,650.17,1044.97,642.44,1046.43,634.71z"/>
	<path class="st26" d="M235.37,486.58c-0.04-0.54-0.1-1.08-0.15-1.63c4.09-5.42,8.17-10.84,12.82-17.03
		c0.77,2.58,1.35,4.56,2.33,7.86c11.55-7.61,22.49-14.82,33.46-22.01c0.77,1.02,1.54,2.06,2.31,3.08
		c-8.36,6.69-16.74,13.36-25.08,20.09c-5.82,4.69-11.57,9.46-17.34,14.2c-2.23,1.13-4.44,2.25-7.67,3.9
		C235.76,491.46,235.58,489.02,235.37,486.58z"/>
	<path class="st48" d="M500.13,778.55c7.98,5.23,12.53,10.73,5.46,20.66c-3.36,4.69-3.81,11.44-5.59,17.24
		c-3.5-11.8-6.98-23.58-10.48-35.37c0.54-2.13,1.08-4.27,2.11-8.32c2.96,4.67,4.9,7.75,7.78,12.32
		C499.78,781.72,499.97,780.14,500.13,778.55z"/>
	<path class="st14" d="M1029.77,930.43c0-0.58,0-1.17,0-1.75c2.06-4.59,3.17-12.01,6.42-13.13c5.07-1.73,13.59-1.23,17.01,2.08
		c5.34,5.15,10.48,5.09,16.49,4.96C1056.39,925.21,1043.07,927.82,1029.77,930.43z"/>
	<path class="st40" d="M345.7,609.4c7.65,14.07,3.29,29.31,4.31,44c-2.92,6.27-5.84,12.55-9.42,20.28
		c-0.6-8.48-1.04-14.61-1.46-20.72C341.3,638.46,343.51,623.93,345.7,609.4z"/>
	<path class="st39" d="M41.08,693.84c-0.35-2.04-0.52-4.15-1.1-6.13c-2.52-8.38-0.08-12.09,9.07-10.26c1.5,0.31,3.27-0.71,4.94-1.1
		c0.35,6.69,2.75,14.2,0.48,19.82c-2.13,5.29-0.81,7.9,1.58,11.44c-0.1,1.58-0.21,3.19-0.31,4.77
		C50.83,706.22,45.95,700.03,41.08,693.84z"/>
	<path class="st9" d="M545.95,945.08c-1.61-0.75-3.19-1.52-4.79-2.27c3.67-4.48,6.69-11.65,11.17-12.69
		c4.59-1.06,10.65,3.67,15.9,6.21c2.65,1.29,4.92,3.36,7.36,5.07C565.71,942.62,555.83,943.85,545.95,945.08z"/>
	<path class="st49" d="M64.4,620.11c6.04-2.46,8.15-0.42,7.38,5.96c-0.69,5.71-0.71,11.49-1.02,17.24
		c-0.15,5.46-0.27,10.94-0.42,16.4c-3.38,0-6.75,0-10.13,0c0-5.57-0.02-11.13-0.02-16.7C61.59,635.37,63,627.74,64.4,620.11z"/>
	<path class="st50" d="M91.52,676.44c-0.35,3.06,0.31,6.96-1.33,8.92c-1.65,1.96-6.63,3.61-8.38,2.52
		c-8.92-5.5-12.94-13.82-10.92-24.51c6.17-0.35,12.34-0.69,18.51-1.04c-2.61,1.94-5.19,3.88-9.65,7.19
		C84.22,672.14,87.87,674.29,91.52,676.44z"/>
	<path class="st30" d="M329.04,678.44c2.83,2.13,7,3.63,8.25,6.44c6.3,14.28,4.11,28.87,0.56,42.98
		c-3.65-15.11-7.34-30.43-11.05-45.73C327.56,680.9,328.29,679.67,329.04,678.44z"/>
	<path class="st32" d="M389.64,757.67c4.17,15.88,8.78,0.21,13.17,0.19c-5.75,9.67-11.53,19.34-17.28,29.02
		c-6.15,2.38-7.98-1.06-8.44-6.32c2.11-4.84,4.21-9.69,6.32-14.53c1.38-2.77,2.77-5.57,4.15-8.34
		C388.26,757.69,388.95,757.69,389.64,757.67z"/>
	<path class="st3" d="M587.62,661.84c0.1,0.81,0.21,1.63,0.31,2.44c0.77,35.31,1.56,70.62,2.31,105.95
		c0.08,4.15-0.1,8.32-0.17,12.47c-0.77,0-1.54,0-2.33,0c-0.04-6.25-0.06-12.49-0.1-18.74c-1.13-15.86-3.19-31.73-3.15-47.59
		C584.55,698.2,586.49,680.02,587.62,661.84z"/>
	<path class="st48" d="M810.88,788.98c-0.38,4.84-0.75,9.67-1.13,14.51c-0.98,0.06-1.94,0.15-2.92,0.21
		c-1.52-4.98-3.04-9.94-4.56-14.92c0.08-8.28,0.15-16.55,0.23-24.83c0.94,2.17,1.9,4.34,2.65,6.09c1.86-1.29,3.77-2.65,5.67-4
		C810.84,773.68,810.86,781.33,810.88,788.98z"/>
	<path class="st1" d="M1042.05,657.9c0.29-1.65,0.58-3.31,0.9-4.96c0.75-0.33,1.5-0.69,2.23-1.02c5,9.13,10.15,18.16,14.76,27.47
		c0.5,1.02-2.13,3.61-3.29,5.46C1051.78,675.87,1046.91,666.89,1042.05,657.9z"/>
	<path class="st18" d="M91.52,676.44c-3.65-2.15-7.3-4.29-11.78-6.92c4.46-3.34,7.07-5.27,9.65-7.19c5.98,3.04,7.96,12.49,4.36,20.7
		C93.02,680.81,92.27,678.62,91.52,676.44z"/>
	<path class="st35" d="M289.21,920.75c2.9-0.5,5.88-0.77,8.71-1.54c4.73-1.29,9.38-2.92,15.17-4.75c0.08,0.31,0.79,3.08,1.5,5.84
		C306.11,920.44,297.67,920.61,289.21,920.75z"/>
	<path class="st51" d="M141.57,340.65c-1.52-3.54-3.04-7.09-4.56-10.63c3.59-6.15,7.19-12.3,10.78-18.45
		c0.69,2.06,1.38,4.11,2.06,6.17C147.09,325.37,144.34,333.02,141.57,340.65z"/>
	<path class="st26" d="M587.74,782.7c0.77,0,1.54,0,2.31,0c1.35,14.59,2.71,29.18,4.09,43.77c-1.52-6.94-3.02-13.88-4.54-20.82
		C588.99,797.98,588.37,790.35,587.74,782.7z"/>
	<path class="st51" d="M996.4,603.42c0.71,16.68,1.4,33.35,2.11,50.03c-7.52,3.44-14.76,8.15-22.68,10.05
		c-14.42,3.44-29.22,5.25-43.88,7.67c-6.52,1.08-11.15,3.81-10.57,11.42c-9.76-17.34-19.49-34.71-29.24-52.05
		c9.17-2.58,18.24-5.77,27.56-7.61c20.99-4.15,42.17-7.27,63.12-11.61C987.69,610.32,991.9,606.13,996.4,603.42z"/>
	<path class="st52" d="M671.16,645.09c0.33-7.61,5.92-9.44,11.9-10.73c16.86-3.69,33.77-7.25,50.61-11.05
		c25.95-5.84,51.86-11.84,77.81-17.72c3.38-0.77,6.77-1.44,10.19-1.9c17.49-2.42,20.32-5.61,20.41-23.26
		c0.02-2.08,0.02-4.15,0.02-6.23c3.65,19.72,3.52,38.9-8.32,56.34c-24.3,6.32-48.61,12.65-72.91,18.97c0.13,0.73,0.27,1.46,0.4,2.19
		c3.34,0,6.65,0,9.98,0c0.27,0.75,0.54,1.5,0.81,2.27c-3.09,1.23-6.17,2.44-9.25,3.67c-7.8-0.13-15.72,0.67-23.35-0.54
		C716.65,653.49,693.93,649.13,671.16,645.09z"/>
	<path class="st52" d="M568.98,690.94c0.42,7.09-3.36,11.09-9.86,12.59c-12.13,2.81-24.33,5.29-36.48,8.03
		c-10.32,2.31-20.82,4.19-30.81,7.55c-3.46,1.17-5.63,6.15-8.38,9.38c-5.11-13.19-10.55-26.28-15.17-39.67
		c-2.48-7.15,3.13-10.15,8.69-11.61c10.36-2.71,20.84-5,31.37-7.02c12.09-2.31,13.44-3.88,10.65-15.63
		c4.02,2.29,7.55,4.31,11.05,6.32c0.52-0.54,1.04-1.08,1.56-1.63c-2.98-5.84-5.98-11.65-8.96-17.49c0.46-0.31,0.92-0.6,1.38-0.92
		c4.52,5.11,9.07,10.19,13.59,15.3c1.17-0.69,2.33-1.38,3.5-2.04c-2.92-7.44-5.86-14.86-8.78-22.3c0.56-0.25,1.13-0.52,1.71-0.77
		c3.61,5.77,6.98,11.74,10.92,17.28c2.46,3.46,5.71,7.05,9.46,0.9C559.25,663.14,564.13,677.04,568.98,690.94z"/>
	<path class="st14" d="M443.71,659.86c-13.49-27.04-20.82-55.84-24.74-85.63c19.26-7.46,38.58-14.78,57.74-22.49
		c3.31-1.33,5.92-4.42,8.86-6.71c4.06-8.28,8.59-15.07,19.84-10.23c1.98,0.85,6.67-1.5,8.36-3.71c9.48-12.38,25.62-11.4,37.35-19.24
		c4.63-3.08,10.46-4.36,15.74-6.46l0.02,0.15c0,1.31,0,2.65,0,3.96c-27.99,18.45-55.55,37.58-84.09,55.18
		c-43.82,27.01-42.67,46.9-40.27,86.98C442.69,654.4,443.29,657.13,443.71,659.86z"/>
	<path class="st53" d="M762.84,657.61c3.09-1.23,6.17-2.44,9.26-3.67c-0.27-0.75-0.54-1.5-0.81-2.27c-3.34,0-6.65,0-9.98,0
		c-0.13-0.73-0.27-1.46-0.4-2.19c24.3-6.32,48.61-12.65,72.91-18.97c-0.02,1.38-0.06,2.75-0.08,4.13
		c-24.95,25.37-54.63,41.46-90.65,41.86c-21.87,0.25-43.79-2.77-65.68-4.31c-12.11-4-24.3-7.82-36.31-12.15
		c-4.15-1.5-7.8-4.36-11.65-6.61c9.03-0.69,18.07-1.4,27.1-2.08C691.4,662.97,726.8,665.85,762.84,657.61z"/>
	<path class="st3" d="M568.98,690.94c-4.86-13.9-9.73-27.81-14.59-41.73c-3.81-8.55-8.23-16.88-11.19-25.72
		c-1.71-5.11-1-11.01-1.38-16.55c0.88-0.08,1.75-0.15,2.63-0.23c1.21,4.46,2.42,8.92,3.63,13.38h-0.02
		c2.06,5.13,4.13,10.28,6.21,15.4c0.9-0.33,1.79-0.65,2.67-0.98c1.23-3.42,2.46-6.82,3.67-10.23l-0.02-0.06
		c4.15,5.04,8.3,10.11,12.42,15.15c3.54-4.82,8.03-9.17,10.42-14.51c6.5-14.36,6.57-29.35,2.13-44.4c8.57-0.73,10.61,2.31,9.9,12.55
		c-0.96,13.99-1.33,28.01-1.96,42.04c1.29,0.06,2.56,0.13,3.86,0.21c0.4-8.21,0.79-16.45,1.27-26.47
		c5.38,19.16-5.15,38.85,8.63,54.93c-0.77,0.65-1.54,1.29-2.31,1.96c-5.04-4.77-10.09-9.57-15.15-14.34
		c-0.33-2.58-0.69-5.17-1.17-8.92c-2.9,2.13-4.69,3.46-6.48,4.77c1.02,0.29,2.04,0.58,3.09,0.88c0,2.77,0.42,5.63-0.08,8.32
		c-1.79,9.82-3.44,19.7-6.02,29.31c-2.02,7.48-5.36,14.63-8.11,21.93C570.36,702.07,569.67,696.51,568.98,690.94z"/>
	<path class="st43" d="M833.73,634.66c0.02-1.38,0.06-2.75,0.08-4.13c11.82-17.45,11.94-36.6,8.32-56.34
		c-1.35-11.13-4.23-22.32-3.75-33.39c0.71-16.72,3.75-33.33,5.82-49.99c2.11-0.69,4.19-1.38,6.3-2.06
		C849.9,543.01,865.5,593.56,885.9,643c0.69,2.79,1.38,5.59,2.06,8.36c-1.38-0.71-2.75-1.42-4.13-2.11
		c-16.61-36.29-27.93-74.21-34.16-113.69c-1.23,0.19-2.48,0.38-3.71,0.58c1.54,12.69,2.67,25.45,4.77,38.04
		c2.21,13.28,5.36,26.39,8.09,39.58c-5.25,5.48-10.28,11.21-15.88,16.3C840.5,632.31,836.84,633.18,833.73,634.66z"/>
	<path class="st54" d="M731.17,328c2.96-1.77,5.75-4.71,8.9-5.15c18.84-2.69,37.73-5.07,56.66-7.09
		c26.89-2.86,51.65,3.94,74.64,17.7c16.65,9.96,33.41,19.72,49.71,30.25c5.96,3.84,10.69,9.57,14.65,16.43
		c-2.38-1.42-5.02-2.54-7.11-4.31c-32.56-27.7-70.12-45.52-112.31-50.19c-21.64-2.4-44.07,2.21-66.14,3.69
		c-6.04,0.4-12.07,0.94-18.11,1.4C731.76,329.79,731.47,328.9,731.17,328z"/>
	<path class="st55" d="M762.84,657.61c-36.04,8.23-71.43,5.38-106.31-6.25c-9.57-5.46-19.24-10.76-28.66-16.49
		c-2.98-1.81-5.25-4.75-6.55-8.92c16.61,6.38,33.23,12.76,49.84,19.11c22.76,4.04,45.5,8.4,68.35,11.99
		C747.12,658.26,755.04,657.49,762.84,657.61z"/>
	<path class="st56" d="M892.14,630.54c9.76,17.34,19.49,34.71,29.24,52.05c4.9,6.94,9.78,13.88,14.67,20.82
		c-2.79,1.4-5.57,2.81-8.34,4.21c-12.55-21.53-25.1-43.04-37.65-64.58c-2.61-7.8-5.19-15.61-7.8-23.41
		c0.58-0.33,1.17-0.69,1.75-1.02C886.72,622.59,889.43,626.55,892.14,630.54z"/>
	<path class="st57" d="M866.25,469.49c-1.88,26.18-3.75,52.34-5.73,80.06C851.82,521.33,854.16,495.11,866.25,469.49z"/>
	<path class="st57" d="M548.08,620.13c1.04-10.36,2.08-20.72,3.25-32.35c15.8,9.96,10.15,25.31,16.57,38.48
		c-3.88-1.06-5.59-1.52-7.32-2l0.02,0.06c-1.52-9.34-8.57-2.21-12.55-4.21C548.06,620.13,548.08,620.13,548.08,620.13z"/>
	<path class="st58" d="M890.05,643.04c12.55,21.53,25.1,43.04,37.65,64.58c-0.04,0.71-0.06,1.42-0.1,2.13
		c-3.48-2.77-6.96-5.57-10.44-8.34c-9.73-16.68-19.45-33.35-29.18-50.03c-0.69-2.79-1.38-5.59-2.06-8.36
		C887.28,643.02,888.68,643.04,890.05,643.04z"/>
	<path class="st59" d="M850.49,488.77c-2.11,0.69-4.19,1.38-6.3,2.06c2.21-8.82,4.4-17.63,6.61-26.45c1.1,0.23,2.21,0.46,3.29,0.69
		C852.91,472.97,851.7,480.87,850.49,488.77z"/>
	<path class="st58" d="M666.66,572.59c9.65,1.88,19.3,3.77,28.95,5.65c-0.19,1.02-0.38,2.02-0.56,3.04
		c-9.65-1.81-19.32-3.65-28.97-5.46C666.26,574.76,666.47,573.67,666.66,572.59z"/>
	<path class="st51" d="M992.29,588.81c1.38,4.88,2.75,9.73,4.11,14.61c-4.48-5.75-8.96-11.51-13.47-17.26
		c0.71-0.67,1.42-1.33,2.11-2C987.46,585.7,989.88,587.26,992.29,588.81z"/>
	<path class="st7" d="M460.55,263.61c19.34,0.19,36.29,7.07,51.46,18.63c5.46,4.17,5.54,8.48-0.73,12.15
		c-5.07,2.98-10.15,5.9-15.24,8.86c-2.11,1.38-4.21,2.73-6.32,4.11c-16.11,7.15-29.06,17.26-33.43,35.46
		c-3.08,6.04-5.75,12.36-9.38,18.07c-5.34,8.4-11.13,16.57-17.26,24.41c-1.98,2.52-5.71,3.67-8.63,5.44
		c-1.4-7.63-2.79-15.26-4.21-22.89c6.63,4.13,5.71-1.61,6.09-4.9c1.54-13.32,2.31-26.74,4.44-39.96
		c2.46-15.28,8.71-27.89,25.14-33.54c10.26-3.52,19.74-9.32,28.64-13.63C474.5,271.86,467.51,267.74,460.55,263.61z"/>
	<path class="st25" d="M477.25,488.75c0.04-4.86-0.63-9.86,0.38-14.49c0.71-3.27,3.02-7.46,5.79-8.78
		c7.67-3.67,16.07-5.75,23.93-9.05c3.13-1.31,5.59-4.21,9.11-6.98c2.17,3.46,4.54,7.23,8.15,13.01c1.71-9.67,2.73-17.28,4.54-24.7
		c0.73-2.98,3.19-5.52,4.88-8.28c2.19,1.88,4.69,3.5,6.48,5.71c4.04,4.98,7.73,10.23,14.03,14.63c-1.44-7.88-2.88-15.76-4.31-23.64
		c2.69,4.34,6.98,8.4,7.73,13.05c1.77,10.78,1.86,21.85,2.61,32.81c-8.5,1.21-5.52-6.88-8.32-10.28c-4.29-9.86-11.74-6.02-18.7-4.27
		c-1.4,1.15-3.9,2.21-3.98,3.44c-0.4,7.15,0.25,14.38-0.54,21.45c-0.27,2.33-3.84,4.27-5.9,6.4c0-2.08-0.02-4.15-0.02-6.23
		c-1.13-4.92-2.27-9.82-3.4-14.74c-0.94,0.13-1.86,0.25-2.79,0.35c-1.35,2.54-2.69,5.11-4.06,7.69c-2.42-1.48-4.25-2.58-7.88-4.82
		c0.58,7.84,1.02,13.84,1.46,19.82c0,0.69,0,1.4,0,2.08C497.11,488.56,488.25,481.14,477.25,488.75z"/>
	<path class="st60" d="M252.06,324.14c5.27-1.1,5.52,1.5,4.96,5.84c-0.58,4.54-0.13,9.23-0.13,16.51c4.84-2.92,7.25-4.38,9.67-5.84
		c0.02,1.42,0.04,2.81,0.06,4.23c-4.48,2.52-8.98,5.07-15.59,8.78c3.94,1.56,9.34,5.04,10.53,3.96c6-5.52,11.88-4.09,18.8-3.04
		c3.34,0.5,7.38-3.67,11.11-5.71c1.38-2.08,2.73-4.17,4.11-6.25c4.23-0.6,8.46-1.21,12.72-1.81c-3.02,1.46-6.71,2.23-8.92,4.46
		c-10.73,10.86-10.61,11.01-22.85,13.4c0.1,0.85,0.21,1.73,0.29,2.58c6.38-0.73,12.74-1.48,19.43-2.25
		c-1.92,2.54-4.09,5.4-6.23,8.25c0.33,0.54,0.67,1.06,1,1.61c4.17-2.67,8.34-5.36,14.24-9.13c-2.65,11.42-9.17,15.99-17.74,18.55
		c-10.42-0.71-20.87-1.42-31.29-2.13c-6.73-5.4-13.44-10.8-20.05-16.09c0.1-0.21-1.1,2.29-2.46,5.09c-0.96-0.73-2-1.17-2.46-1.92
		c-7.09-11.92-4.13-23.2,2.33-34.21c2.63-4.46,5.36-8.88,8.03-13.3c-0.35,3.69-0.81,7.36-1.06,11.07
		c-0.52,7.77-0.02,15.2,8.63,22.37C250.31,339.11,251.19,331.63,252.06,324.14z"/>
	<path class="st61" d="M563.5,258.69c-11.3-2.36-22.1-3.13-31.68-6.94c-14.74-5.88-29.12-13.09-42.81-21.16
		c-21.3-12.55-42.23-25.37-68.47-24.76c16.22-6.5,33.08-7.73,48.88-1.63c14.7,5.67,28.24,14.49,41.96,22.53
		C528.23,236.62,544.74,247.14,563.5,258.69z"/>
	<path class="st62" d="M454.3,440.79c0.71,3.67,1.17,7.42,2.21,10.99c0.83,2.79,2.04,7.44,3.69,7.73
		c15.88,2.73,11.74,15.17,12.82,25.1c-13.88-0.02-27.74-0.02-41.63-0.04c-0.02-19.45-0.04-38.92-0.06-58.36h0.02
		c16.53,2.65,14.63,19.43,22.95,31.41C454.3,450.38,454.3,445.58,454.3,440.79z"/>
	<path class="st28" d="M560.56,471.99c-0.77-10.94-0.83-22.01-2.61-32.81c-0.77-4.65-5.04-8.71-7.73-13.05
		c1.38-0.69,2.75-1.35,4.13-2.04c6.71,11.42,13.42,22.82,20.28,34.48c0.56-0.71,1.58-2.02,2.63-3.34c1.25-3.31,2.5-6.63,4.38-11.61
		c3.27,3.9,5.69,6.8,8.11,9.67c3.67,4.77,5.36,9.55,1,14.99c-1.21,1.5-1.9,3.71-2.06,5.67c-1.25,14.36-1.19,14.36-15.51,14.78
		C561.52,488.75,564.19,478.02,560.56,471.99z"/>
	<path class="st63" d="M431.41,484.56c13.88,0.02,27.74,0.02,41.63,0.04c-0.98,4.69-2.25,9.34-2.75,14.07
		c-0.15,1.42,1.77,3.08,2.75,4.63c-3.46,2.08-6.71,5.13-10.46,6.07c-8.17,2.04-16.63,3-24.97,4.4c-0.19-3.9-0.35-7.77-0.54-11.67
		c-0.71-0.06-1.42-0.13-2.15-0.19c-3.27,8.82-6.55,17.63-9.82,26.45c-1.4-4.17-2.77-8.34-4.17-12.51
		c2.79-9.71,5.59-19.45,8.36-29.16C429.99,485.98,430.7,485.27,431.41,484.56z"/>
	<path class="st64" d="M437.6,513.74c8.34-1.4,16.78-2.36,24.97-4.4c3.75-0.94,6.98-3.98,10.46-6.07c1.42-4.84,2.81-9.69,4.23-14.53
		c11.01-7.61,19.86-0.19,29.16,4.15c-1.61,4.27-3.23,8.57-5.38,14.3c-2.4-3.84-3.59-5.75-4.59-7.36c-4.15,1.4-7.75,2.58-12.28,4.11
		c0-5.29,0-8.69,0-12.11c-0.56-0.08-1.13-0.15-1.69-0.23c-1.06,3.21-2.11,6.4-3.17,9.61c-3.48,7.65-6.94,15.3-10.42,22.95
		c-13.19,2.08-26.41,4.17-39.6,6.25C432.04,524.88,434.81,519.31,437.6,513.74z"/>
	<path class="st65" d="M462.66,392.87c0,1.38,0,2.77,0,4.15c-10.42,9.73-20.87,19.45-31.29,29.18h-0.02
		c-6.96,5.57-13.92,11.11-20.89,16.68c0.02-1.38,0.04-2.77,0.04-4.15c6.94-11.8,13.17-24.1,21.05-35.23
		c5.75-8.13,14.03-14.42,20.41-22.18c3.08-3.75,4.4-8.94,6.52-13.49C459.86,376.17,461.26,384.51,462.66,392.87z"/>
	<path class="st52" d="M43.56,532.55c0-2.08-0.02-4.17-0.02-6.27c1.4-4.86,2.77-9.73,4.17-14.59c7.9-1.46,15.78-3.06,23.7-4.38
		c8.8-1.44,17.63-2.61,26.47-3.9c-4.92,6.92-9.82,13.86-14.74,20.78c-2.08,2.08-4.15,4.17-6.23,6.25
		c-8.82,0.29-17.63,0.52-26.45,0.94C48.12,531.48,45.85,532.13,43.56,532.55z"/>
	<path class="st66" d="M251.98,217.65c4.21-3.44,8.42-6.86,12.65-10.3c5.63-1.27,11.26-2.54,16.86-3.81
		c-19.16,9-31.7,24.05-41.98,41.69c-1.94,3.34-5.86,6.61-9.51,7.65c-28.72,8.32-45.94,29.75-61.76,52.92
		c-2.04,2.98-4.34,5.82-7.55,7.86c9.67-22.51,22.97-41.92,45.11-54.15C224.44,249.23,242.18,237.74,251.98,217.65z"/>
	<path class="st1" d="M431.35,426.2c10.42-9.73,20.87-19.45,31.29-29.18c0.83,13.9,1.69,27.81,2.52,41.71
		c-0.75,0.1-1.52,0.21-2.27,0.33c-3.04-8.34-6.09-16.65-9.13-24.99c-1.02,0.29-2.04,0.56-3.06,0.85c1.21,8.63,2.4,17.24,3.61,25.87
		c0,4.79,0,9.59,0,16.82C445.98,445.62,447.9,428.84,431.35,426.2z"/>
	<path class="st67" d="M83.12,524.19c4.92-6.92,9.82-13.86,14.74-20.78c4.44-4.36,10.59-7.94,12.92-13.24
		c4.02-9.17,5.69-19.41,8.36-29.31c0.27,0.4,1.9,2.77,3.52,5.13c-0.04,4.61,0.13,9.23-0.17,13.82c-0.42,6.46-1.19,12.9-1.81,19.34
		c-4.17,5.57-8.34,11.13-12.51,16.68C99.82,518.62,91.46,521.39,83.12,524.19z"/>
	<path class="st60" d="M462.66,392.87c-1.4-8.36-2.77-16.72-4.17-25.06c-0.73-8.34-1.46-16.65-2.19-24.99
		c4.38-18.2,17.34-28.31,33.43-35.46c-18.72,20.53-26.35,44.86-25.2,72.37C464.72,384.07,463.32,388.49,462.66,392.87z"/>
	<path class="st68" d="M266.65,442.83c-3.61,1.52-7.21,3.04-10.73,4.52c-0.98-2.73-2.42-6.71-3.86-10.69
		c1.38-2.79,2.75-5.59,4.13-8.38c0.27,0.17,0.54,0.44,0.83,0.46c0.25,0.02,0.73-0.21,0.77-0.4c2.71-14.09-3.56-25.16-12.03-35.48
		c1.42-0.21,3.92-0.92,4.11-0.54c4.23,8.94,8.34,17.97,12.17,27.1c1,2.4,0.96,5.23,3.21,8.11c0.85-4.19,1.71-8.36,2.56-12.55
		c1.19,0.19,2.36,0.38,3.54,0.56C269.76,424.66,268.22,433.74,266.65,442.83z"/>
	<path class="st51" d="M604.44,399.04c-0.02,7.67-0.02,15.34-0.04,22.99c-2.31-8.53-4.9-17.01-6.86-25.62
		c-3-13.19-11.96-21.85-25.72-24.01c-5.71-0.9-11.42-1.73-17.07-3C588.01,366.64,602.38,372.23,604.44,399.04z"/>
	<path class="st66" d="M329.52,452.27c20.01-20.7,33.5-42.17,31.43-70.35C371.67,403.81,354.54,443.5,329.52,452.27z"/>
	<path class="st22" d="M252.06,324.14c-0.88,7.48-1.73,14.97-2.9,24.97c-8.63-7.19-9.15-14.59-8.63-22.37
		c0.25-3.69,0.71-7.38,1.06-11.07c2.9-2.63,5.79-5.25,8.67-7.86c0.77,3.38,1.77,6.71,2.25,10.13
		C252.81,319.95,252.25,322.08,252.06,324.14z"/>
	<path class="st69" d="M589.72,453.34c-2.42-2.9-4.84-5.77-8.11-9.67c-1.88,4.98-3.13,8.3-4.38,11.61
		c-2.06-6.9-4.13-13.82-6.21-20.74l0,0c0.29-4.38,0.27-8.82,1-13.13c0.46-2.67,2.08-5.15,3.17-7.71
		c5.57,13.19,11.15,26.39,16.72,39.58C591.2,453.3,590.47,453.32,589.72,453.34z"/>
	<path class="st51" d="M575.22,413.69c-1.1,2.56-2.71,5.04-3.17,7.71c-0.73,4.31-0.71,8.75-1,13.13
		c-5.61-11.8-11.21-23.6-17.38-36.58C565.36,397.77,570.98,404.71,575.22,413.69z"/>
	<path class="st51" d="M387.55,297c0.69,4.5,1.35,9,2.08,13.51c1.5,9.21,9.42,18.8-1.79,27.31c-0.85,0.65-0.23,3.27-0.29,4.98
		c-1.25-10.46-2.63-20.91-3.71-31.37c-0.67-6.42-0.88-12.9-1.46-21.85C384.88,293.17,386.22,295.09,387.55,297z"/>
	<path class="st29" d="M266.59,344.88c-0.02-1.42-0.04-2.81-0.06-4.23c2.11-2.06,4.21-4.13,6.34-6.19
		c11.76,0.56,23.51-6.55,35.25,0.1c1.5,1.35,3,2.71,4.48,4.06c-0.73,1.4-1.46,2.77-2.21,4.17c-0.71-0.67-1.42-1.35-2.15-2.02
		c-4.23,0.6-8.46,1.21-12.72,1.81c-1.06-1.44-2.38-4.25-3.17-4.11c-6.65,1.13-13.22,2.79-19.8,4.29
		C270.59,343.49,268.59,344.17,266.59,344.88z"/>
	<path class="st70" d="M310.41,342.8c0.73-1.4,1.46-2.77,2.21-4.17c1.35,2.31,2.73,4.63,4.09,6.94c0.77-0.19,1.54-0.4,2.31-0.58
		c-1.17-5.48-2.33-10.94-3.52-16.49c7.61,3.17,11.9,14.95,10.21,29.52C320.12,352.49,315.26,347.66,310.41,342.8z"/>
	<path class="st66" d="M270.89,330.33c-1.46,1.31-2.9,2.61-5.04,4.54c2.81-17.15,13.38-22.7,30-17.07
		c-6.88,3.4-13.88,6.86-20.89,10.32C273.58,328.85,272.24,329.6,270.89,330.33z"/>
	<path class="st51" d="M571.05,434.54c2.06,6.92,4.13,13.82,6.21,20.74c-1.04,1.31-2.06,2.61-2.63,3.31
		c-6.86-11.65-13.57-23.05-20.28-34.48c3.4,2.98,6.63,6.23,10.3,8.84C566.32,434.14,568.88,434.06,571.05,434.54z"/>
	<path class="st3" d="M270.89,330.33c1.35-0.73,2.69-1.46,4.04-2.21c11.86-1.96,24.16-6.17,33.21,6.44
		c-11.74-6.63-23.51,0.46-35.25-0.1C272.22,333.09,271.55,331.71,270.89,330.33z"/>
	<path class="st25" d="M299.94,459.55c-4.5,0.81-9,1.63-15.95,2.88c8.4-8.15,15.32-14.88,22.26-21.62
		C306.05,447.69,307.59,455.17,299.94,459.55z"/>
	<path class="st54" d="M245.75,392.89c8.46,10.32,14.74,21.39,12.03,35.48c-0.04,0.19-0.5,0.42-0.77,0.4
		c-0.29-0.02-0.56-0.29-0.83-0.46c-3.9-9.86-7.92-19.68-11.53-29.64C244.08,397.08,245.33,394.83,245.75,392.89z"/>
	<path class="st66" d="M143.46,431.43c1.35,8.4,2.71,16.78,4.04,25.18c-10.36-6.71-7.55-15.95-7.77-24.55
		C140.96,431.85,142.21,431.64,143.46,431.43z"/>
	<path class="st14" d="M189.47,469.95c-10.86,9.32-23.12,7.02-35.44,4.29C165.83,472.81,177.65,471.37,189.47,469.95z"/>
	<path class="st57" d="M252.27,383.99c10.94,2.06,21.24,4.02,31.68,6C273.8,395.29,261.32,393.05,252.27,383.99z"/>
	<path class="st58" d="M256.21,376.15c10.42,0.71,20.87,1.42,31.29,2.13C280.16,387.95,266.05,386.99,256.21,376.15z"/>
	<path class="st71" d="M103.96,365.25c8.03,1.61,16.03,3.21,24.05,4.82c-0.15,0.96-0.29,1.9-0.44,2.86
		c-8.09-1.33-16.18-2.65-24.26-3.98C103.53,367.71,103.76,366.48,103.96,365.25z"/>
	<path class="st66" d="M619.7,346.65c4.11,4.09,8.21,8.19,12.32,12.28c-1.1,1.08-2.21,2.17-3.31,3.23
		c-3.96-4.23-7.92-8.46-11.86-12.69C617.78,348.55,618.74,347.61,619.7,346.65z"/>
	<path class="st64" d="M936.03,703.41c-4.9-6.94-9.78-13.88-14.67-20.8c-0.58-7.61,4.04-10.34,10.57-11.42
		c14.65-2.44,29.47-4.23,43.88-7.67c7.9-1.9,15.13-6.61,22.68-10.05c0.69,0,1.38,0.02,2.06,0.02c1.4,12.51,2.79,25.01,4.19,37.52
		c-3.17,3.04-5.86,7.78-9.59,8.82c-12.01,3.31-24.51,4.77-36.54,8.03c-3.86,1.04-6.82,5.38-10.19,8.21
		C944.31,711.83,940.18,707.62,936.03,703.41z"/>
	<path class="st26" d="M560.56,471.99c3.63,6.02,0.96,16.76,12.59,16.76c-2.11,5.59-4.19,11.17-6.29,16.76l-0.02-0.15
		c-3.02-5.36-6.4-10.55-8.96-16.11c-3.61-7.82-8.07-8.3-13.94-2.63c-0.69-1.42-1.38-2.83-2.06-4.27c1.94-4.44,3.75-8.94,5.86-13.3
		c1.25-2.58,2.98-4.94,4.5-7.38C555.04,465.11,552.06,473.2,560.56,471.99z"/>
	<path class="st30" d="M333.07,770.97c-11.09,14.32-34.08,19.18-44.63,10.88C302.72,778.39,317.54,774.76,333.07,770.97z"/>
	<path class="st51" d="M289.56,874.48c-2.08-1.42-4.17-2.81-6.25-4.23c3.02-0.63,6.13-2.04,9.05-1.73
		c12.82,1.38,25.6,3.25,36.89,4.75c-7.44,1-17.09,2.29-27.58,3.69c-0.17,1.56-0.42,4.13-0.77,7.42c-3.71,0.17-7.4,0.33-9.82,0.44
		C290.5,880.84,290.04,877.65,289.56,874.48z"/>
	<path class="st72" d="M281.64,808.07c8.78,13.49,14.92,27.79,10.38,46.98C288.19,837.71,284.91,822.89,281.64,808.07z"/>
	<path class="st59" d="M346.49,731.4c2.75,18.59,0.4,25.26-10.34,30.52C339.49,752.06,342.47,743.22,346.49,731.4z"/>
	<path class="st73" d="M316.52,738.61c2.75,12.88-5.46,21.14-14.32,29.16C306.97,758.06,311.74,748.35,316.52,738.61z"/>
	<path class="st20" d="M460.55,263.61c6.96,4.13,13.92,8.25,20.55,12.17c-8.9,4.34-18.38,10.11-28.64,13.63
		c-16.43,5.65-22.68,18.26-25.14,33.54c-2.13,13.22-2.9,26.64-4.44,39.96c-0.38,3.29,0.54,9.03-6.09,4.9
		c-1.4-7.65-2.79-15.3-4.21-22.95c0.92,2.58,1.81,5.17,2.73,7.78c1.83-1.25,3.67-2.52,5.5-3.77c-1.13-5.79-2.86-11.55-3.23-17.41
		c-0.6-9.76-2.54-20.28,0.29-29.14c2.42-7.55,9.9-14.36,16.76-19.26c5.29-3.77,13.03-4.29,19.76-5.86
		c3.46-0.79,7.13-0.73,10.69-1.04c0.08-1.31,0.15-2.63,0.23-3.96c-3.67-0.79-7.34-2.36-10.99-2.25
		c-10.36,0.27-20.78,0.65-31.02,2.13c-6.52,0.96-12.76,3.96-19.11,6.04c1.19-8.61,5.94-12.49,14.8-12.63
		C432.89,265.3,446.71,264.3,460.55,263.61z"/>
	<path class="st74" d="M404.23,278.18c6.36-2.08,12.59-5.09,19.11-6.04c10.23-1.48,20.66-1.86,31.02-2.13
		c3.65-0.1,7.32,1.46,10.99,2.25c-0.08,1.31-0.15,2.63-0.23,3.96c-3.56,0.31-7.23,0.25-10.69,1.04c-6.73,1.56-14.47,2.06-19.76,5.86
		c-6.86,4.9-14.34,11.74-16.76,19.26c-2.83,8.86-0.9,19.39-0.29,29.14c0.35,5.84,2.11,11.61,3.23,17.41
		c-1.83,1.25-3.67,2.52-5.5,3.77c-0.92-2.58-1.81-5.17-2.73-7.78c-2.56-14.24-5.4-28.41-7.44-42.71c-0.42-2.92,2.19-6.27,3.4-9.42
		c3.29-2.67,6.59-5.34,10.26-8.3C412.38,281.68,408.31,279.93,404.23,278.18C404.23,278.16,404.23,278.18,404.23,278.18z"/>
	<path class="st46" d="M456.3,342.82c0.73,8.34,1.46,16.65,2.19,24.99c-2.13,4.54-3.44,9.76-6.52,13.49
		c-6.38,7.75-14.65,14.05-20.41,22.18c-7.88,11.15-14.11,23.43-21.05,35.23c-0.71-1.42-1.42-2.81-2.13-4.23
		c4.31-10.28,9.09-20.39,12.74-30.89c1.33-3.81,0-8.55-0.1-12.86c2.94-1.77,6.67-2.92,8.63-5.44c6.15-7.84,11.92-16.01,17.26-24.41
		C450.55,355.18,453.19,348.86,456.3,342.82z"/>
	<path class="st39" d="M408.38,434.49c0.71,1.42,1.42,2.81,2.13,4.23c-0.02,1.38-0.04,2.77-0.04,4.15
		c-0.69,2.77-1.38,5.54-2.06,8.32c-0.69,4.71-1.9,9.42-1.98,14.15c-0.27,13.36-0.08,26.72-0.08,40.08c-0.69,0-1.38,0-2.06,0.02
		c-2.17-10.51-4.34-21.01-6.75-32.77c-6.38,3.52-10.23,5.65-14.07,7.75c2.75-3.48,5.5-6.96,8.25-10.46
		C397.25,458.15,402.81,446.31,408.38,434.49z"/>
	<path class="st20" d="M404.23,278.16c4.06,1.75,8.15,3.52,14.57,6.3c-3.67,2.96-6.96,5.63-10.26,8.3
		C405.88,288.25,395.91,285.91,404.23,278.16z"/>
	<path class="st39" d="M543.95,486.67c5.88-5.69,10.34-5.19,13.94,2.63c2.56,5.57,5.94,10.76,8.96,16.11
		c-5.27,2.11-11.11,3.38-15.74,6.46c-11.74,7.82-27.87,6.86-37.35,19.24c-1.69,2.21-6.4,4.54-8.36,3.71
		c-11.26-4.84-15.78,1.98-19.84,10.23c-8.67-7.21-14.13,1.69-20.87,4.13c4.21-8.34,8.4-16.7,12.61-25.03
		c2.08-1.35,4.15-2.73,6.23-4.09c1.46,3.52,2.94,7.02,5.77,13.86c5-9.36,8.98-16.82,12.94-24.26c9.05-4.88,18.09-9.76,27.14-14.63
		c0.71-2.08,1.4-4.17,2.11-6.25C535.63,488.06,539.8,487.36,543.95,486.67z"/>
	<path class="st10" d="M410.48,695.13c-1.38,2.79-2.75,5.59-4.13,8.38c-2.79-15.28-5.44-30.58-8.38-45.82
		c-5.48-28.54-11.11-57.03-16.68-85.52c0.69,0,1.38,0,2.08,0c6.63,17.41,13.72,34.64,19.74,52.26
		C410.94,647.34,411.32,671.22,410.48,695.13z"/>
	<path class="st48" d="M429.26,530.44c13.19-2.08,26.41-4.17,39.6-6.25c-6.25,9.05-12.51,18.07-18.74,27.12
		c-2.08,0.69-4.17,1.38-6.27,2.06c-29.1,0.1-31.83-3.04-27.08-31.29c1.38-2.08,2.77-4.17,4.15-6.23c1.4,4.17,2.77,8.34,4.17,12.51
		C426.49,529.04,427.87,529.75,429.26,530.44z"/>
	<path class="st28" d="M416.78,522.1c-4.75,28.22-2.02,31.39,27.08,31.29c-2.36,1.44-4.94,2.61-7.05,4.34
		c-7.98,6.63-16.88,8.3-26.08,3.67c-9.36-4.71-12.99-13.94-12.36-23.51c0.71-10.9,3.81-21.64,5.88-32.43c0.69,0,1.38,0,2.06-0.02
		C409.82,510.97,413.3,516.54,416.78,522.1z"/>
	<path class="st36" d="M450.13,551.31c6.25-9.05,12.51-18.07,18.74-27.12c3.48-7.65,6.94-15.3,10.42-22.95
		c-0.67,7.63-1.33,15.28-2.02,22.91c-4.19,8.34-8.4,16.7-12.61,25.03C459.84,549.89,454.99,550.6,450.13,551.31z"/>
	<path class="st48" d="M564.81,788.95c-7.48,1.15-15.05,1.94-22.45,3.52c-14.78,3.17-26.24-1.96-35.85-12.97
		c-2.4-2.75-5.59-4.84-8.4-7.21c2.02-4.21,3.02-10.8,6.27-12.21c10.69-4.71,9.98-9.67,2.38-17.68c9.88,8.61,19.18,15.63,32.89,10.76
		c11.32-4.04,24.76-3.92,29.35-18.41c0,6.94,0,13.9,0,20.84C567.59,766.73,566.19,777.84,564.81,788.95z"/>
	<path class="st26" d="M568.98,755.6c0-6.94,0-13.9,0-20.84c0.69-9.05,1.38-18.07,2.08-27.12c2.75-7.3,6.09-14.42,8.11-21.93
		c2.58-9.61,4.23-19.49,6.02-29.31c0.5-2.69,0.08-5.54,0.08-8.32c-1.02-0.29-2.04-0.58-3.09-0.88c1.79-1.33,3.61-2.65,6.48-4.77
		c0.5,3.75,0.83,6.34,1.17,8.92c-0.75,3.48-1.48,6.98-2.23,10.46c-1.13,18.18-3.04,36.35-3.11,54.53
		c-0.04,15.86,2.02,31.73,3.15,47.59C582.26,759.29,578.84,750.25,568.98,755.6z"/>
	<path class="st8" d="M810.88,788.98c-0.02-7.65-0.02-15.3-0.04-22.95c4.27-2,8.36-5,12.84-5.79c15.11-2.67,30.37-4.52,45.57-6.69
		c-1.4,11.82-2.79,23.62-4.19,35.41C846.99,796.46,828.94,792.96,810.88,788.98z"/>
	<path class="st8" d="M1033.96,774.34c7.63,10.44,15.28,20.87,22.91,31.31c1.4,2.77,2.79,5.54,4.19,8.32
		c-2.67,6.73-7.36,10.17-14.84,10.84c-13.97,1.23-27.87,3.11-41.77,4.94c-1.4,0.19-2.56,1.96-3.86,2.98
		c-4.19-12.51-8.38-24.99-12.55-37.5l0.1-0.06c7.02-2.52,14.05-5.04,21.07-7.57c-0.33-1.13-0.67-2.23-1-3.36
		c-2.54,0.17-5.09,0.33-7.61,0.52c7.38-1.31,14.92-4.23,22.1-3.5C1029.5,781.97,1033.17,781.66,1033.96,774.34z"/>
	<path class="st69" d="M988.02,795.25c4.19,12.51,8.38,24.99,12.55,37.5c0.54,5.46,1.08,10.92,1.63,16.38
		c-0.6,0.19-1.23,0.35-1.83,0.54c-3.42-11.19-6.82-22.39-10.23-33.6c-1.46-4.44-3.4-8.8-4.19-13.34
		C985.56,800.42,987.27,797.75,988.02,795.25z"/>
	<path class="st48" d="M948.44,716.04c3.38-2.83,6.34-7.17,10.19-8.21c12.03-3.25,24.53-4.71,36.54-8.03
		c3.73-1.02,6.42-5.77,9.59-8.82c0.69,0,1.38,0.02,2.06,0.02c2.81,13.19,5.61,26.41,8.42,39.6c0.69,1.38,1.35,2.75,2.04,4.13
		c-3.98,5.94-7.92,6.11-14.86,3.04c-9.38-4.15-20.03-6.82-30.27-7.32c-9.8-0.46-9.28,7.57-7.05,14.76
		c-2.77-4.19-5.54-8.36-8.3-12.55C954,727.13,951.21,721.58,948.44,716.04z"/>
	<path class="st62" d="M956.8,732.67c2.77,4.19,5.54,8.36,8.3,12.55c3.19,7.44,6.38,14.88,9.94,23.2
		c-10.4,0.77-10.51-7.92-14.13-12.78c-2.77-5.57-5.54-11.11-8.32-16.68C954,736.86,955.4,734.76,956.8,732.67z"/>
	<path class="st36" d="M980.33,766.57c7.82-0.94,14.57-1.75,24.12-2.92C994.38,774.82,986.25,775.7,980.33,766.57z"/>
	<path class="st12" d="M1000.57,784.76c2.54-0.17,5.09-0.33,7.61-0.52c0.33,1.13,0.67,2.23,1,3.36c-7.02,2.52-14.05,5.04-21.07,7.57
		c-3.88-4.86-3.11-8.03,3.34-9.09C994.48,785.6,997.53,785.2,1000.57,784.76z"/>
	<path class="st46" d="M995.07,748.04c-7.5,1.17-15.01,2.33-22.51,3.5c-0.19-0.9-0.38-1.79-0.56-2.67
		c7.46-1.46,14.92-2.94,22.39-4.4C994.61,745.66,994.84,746.85,995.07,748.04z"/>
	<path class="st21" d="M568.98,755.6c9.88-5.36,13.3,3.69,18.68,8.36c0.02,6.25,0.06,12.49,0.1,18.74
		c0.63,7.65,1.25,15.28,1.88,22.93c-1.58-0.65-3.13-1.4-4.73-1.92c-14.72-4.84-17.7-2.77-18.01,12.38
		c-0.69-9.05-1.38-18.09-2.06-27.12C566.19,777.84,567.59,766.73,568.98,755.6z"/>
	<path class="st65" d="M381.3,572.15c5.57,28.52,11.21,57.01,16.68,85.52c2.94,15.26,5.59,30.54,8.38,45.82
		c-2.11,6.94-4.19,13.88-6.3,20.8c-2.77-0.69-5.52-1.38-8.3-2.04c0.6-34.6-8.94-67.66-15.55-101.14
		c-4.75-24.08-10.17-48-15.74-71.91c-1.04-4.44-4.15-8.38-6.3-12.57c7.15-6.92,10.01,0.33,12.3,4.54
		C371.94,551.24,376.42,561.81,381.3,572.15z"/>
	<path class="st73" d="M389.64,757.67c-0.69,0-1.38,0.02-2.06,0.02c-2.56-8.98-5.69-17.86-7.61-26.97
		c-7.5-35.62-14.45-71.35-21.99-106.97c-1.92-9.03-5.25-17.74-7.94-26.6c0-9.03,0.02-18.07,0.02-27.1
		c2.58,7.07,6.09,13.94,7.63,21.24c8.96,42.61,17.38,85.34,26.24,127.96c1.1,5.32,3.75,10.34,5.69,15.49
		C389.62,742.39,389.62,750.02,389.64,757.67z"/>
	<path class="st75" d="M1069.21,669.97c-14.65-7.19-20.01-19.89-20.89-35.25c0.77-0.02,1.52-0.02,2.29-0.04
		C1056.83,646.44,1063.02,658.22,1069.21,669.97z"/>
	<path class="st24" d="M810.8,874.44c0-7.63,0.02-15.28,0.02-22.91c4.71-2.79,9.11-6.88,14.2-8.15c13.88-3.48,28.06-5.77,42.11-8.55
		c0,1.4,0.02,2.81,0.02,4.21c-0.71,3.46-1.4,6.92-2.11,10.38c-3.5,2.63-7.02,5.21-10.48,7.9c-3.71,2.9-6.92,7.19-11.11,8.59
		C832.79,869.43,821.72,871.67,810.8,874.44z"/>
	<path class="st58" d="M350.03,597.16c2.69,8.86,6.02,17.57,7.94,26.6c7.55,35.6,14.49,71.35,21.99,106.97
		c1.92,9.13,5.04,17.99,7.61,26.97c-1.38,2.77-2.77,5.57-4.15,8.34c-3.4-12.57-7.21-25.03-10.13-37.71
		c-6.9-29.93-13.92-59.87-19.74-90.01C350.95,624.87,351.12,610.9,350.03,597.16z"/>
	<path class="st28" d="M867.12,834.81c-14.05,2.77-28.22,5.07-42.11,8.55c-5.09,1.27-9.48,5.36-14.2,8.15
		c-0.69-0.02-1.38-0.02-2.04-0.04c-1.4-9.71-2.77-19.43-4.17-29.14c-1.23-2.06-2.46-4.13-3.69-6.19c1.96-0.77,3.94-1.52,5.9-2.29
		c4.82,0,9.84,0.79,14.42-0.23c4.4-0.98,8.38-3.86,12.53-5.9c4.9,5.61,8.3,13.34,18.51,9.48c6.94-2.61,10.82-6.07,10.65-14.05
		c-0.06-3.31,2.71-6.69,4.21-10.05C867.12,807.03,867.12,820.93,867.12,834.81z"/>
	<path class="st76" d="M833.75,807.74c-4.17,2.04-8.13,4.92-12.53,5.9c-4.61,1.02-9.61,0.23-14.42,0.23
		c4.27-1.94,8.38-4.59,12.86-5.61C824.16,807.23,829.04,807.84,833.75,807.74z"/>
	<path class="st77" d="M60.19,643.02c0,5.57,0.02,11.13,0.02,16.7c1.42,16.22,2.61,32.43-4.19,47.94c-2.4-3.56-3.71-6.15-1.58-11.44
		c2.27-5.63-0.13-13.13-0.48-19.82c-0.02-2.77-0.02-5.54-0.04-8.3C56.02,659.72,58.11,651.36,60.19,643.02z"/>
	<path class="st24" d="M74.82,553.39c1.13,3.11,2.27,6.19,3.65,9.96c-2.96,0-5.13,0-8.36,0c3.4,4.17,6.13,7.52,8.86,10.88
		c-5.21-0.04-6.98,1.48-9.4,7.42c-4.23,10.38-5.25,24.6-19.89,28.12c-1.75-0.54-3.5-1.08-4-1.25c2.27-4.17,4.23-7.77,6.19-11.36
		c2.06-9.05,4.13-18.09,6.19-27.14c1.42-3.46,2.81-6.94,4.23-10.4C66.46,557.54,70.63,555.48,74.82,553.39z"/>
	<path class="st78" d="M51.87,597.16c-1.96,3.59-3.92,7.17-6.19,11.36c0.48,0.15,2.25,0.69,4,1.25c0.06,0.63,0.13,1.25,0.19,1.88
		c-0.08,4.11,0.46,8.36-0.46,12.26c-0.69,2.92-3.06,7.5-5.02,7.69c-12.19,1.1-11.49,9.51-11.3,17.95c0.08,3.42-0.04,6.84-0.06,10.26
		c0.02-16.01,0.04-32.02,0.04-48.03C35.34,601.73,45.66,602.08,51.87,597.16z"/>
	<path class="st19" d="M60.19,643.02c-2.08,8.36-4.17,16.7-6.25,25.06c-0.69-13.61-1.46-27.24-2.04-40.88
		c-0.23-5.15-0.02-10.3-0.02-15.45c4.17,2.79,8.36,5.57,12.53,8.36C63,627.74,61.59,635.37,60.19,643.02z"/>
	<path class="st55" d="M956.8,732.67c-1.4,2.11-2.79,4.19-4.21,6.3c-8.34-9.73-16.68-19.49-24.99-29.22
		c0.04-0.71,0.06-1.42,0.1-2.13c2.79-1.4,5.57-2.81,8.34-4.21c4.13,4.21,8.25,8.42,12.38,12.63
		C951.21,721.58,954,727.13,956.8,732.67z"/>
	<path class="st79" d="M74.82,553.39c-4.17,2.08-8.36,4.17-12.53,6.23c4.86-9.73,9.73-19.47,14.59-29.18
		c2.08-2.08,4.15-4.17,6.23-6.25c8.34-2.77,16.7-5.57,25.03-8.34c-2.79,6.25-5.57,12.51-8.36,18.74
		C93.23,543.18,88.75,554.58,74.82,553.39z"/>
	<path class="st14" d="M804.59,822.35c1.4,9.71,2.77,19.43,4.17,29.14c-0.21,4.52-0.44,9.05-0.65,13.57
		c-1.17-0.02-2.36-0.06-3.52-0.08C804.59,850.76,804.59,836.56,804.59,822.35z"/>
	<path class="st6" d="M76.89,530.44c-4.86,9.73-9.73,19.47-14.59,29.18c-1.42,3.46-2.81,6.94-4.23,10.4
		c-3.38-0.4-7.09-0.04-10.07-1.33c-7.63-3.29-10.88-1.04-11.05,7.02c-0.04,1.61-1.13,3.19-1.71,4.77
		c2.77-15.99,5.54-31.95,8.34-47.94c2.29-0.4,4.56-1.06,6.88-1.17C59.23,530.96,68.07,530.73,76.89,530.44z"/>
	<path class="st60" d="M35.22,580.47c0.6-1.58,1.69-3.17,1.71-4.77c0.17-8.07,3.42-10.32,11.05-7.02c3,1.29,6.69,0.94,10.07,1.33
		c-2.06,9.05-4.13,18.09-6.19,27.14c-6.21,4.94-16.53,4.59-18.78,14.59C33.8,601.33,34.51,590.91,35.22,580.47z"/>
	<path class="st80" d="M548.06,620.13c3.98,1.98,11.03-5.13,12.55,4.21c-1.23,3.42-2.46,6.82-3.67,10.23
		c-0.9,0.33-1.79,0.65-2.67,0.98C552.18,630.39,550.12,625.26,548.06,620.13z"/>
	<path class="st60" d="M477.29,524.15c0.67-7.63,1.33-15.28,2.02-22.91c1.06-3.21,2.11-6.4,3.17-9.61c0.56,0.08,1.13,0.15,1.69,0.23
		c0,3.4,0,6.82,0,12.11c4.52-1.5,8.13-2.71,12.28-4.11c1,1.63,2.19,3.52,4.59,7.36c2.17-5.75,3.77-10.03,5.38-14.3
		c0-0.69,0-1.4,0-2.08c7.94-6,6.52,3.98,8.34,5.27c2.92-4.77,5.63-9.19,8.32-13.61c0,2.08,0.02,4.15,0.02,6.23
		c2.08,2.08,4.19,4.17,6.27,6.27c-9.05,4.88-18.09,9.76-27.14,14.63c-10.21-3.65-14.22,3.86-18.74,10.42
		C481.44,521.42,479.37,522.77,477.29,524.15z"/>
	<path class="st64" d="M523.08,482.5c-2.71,4.42-5.4,8.84-8.32,13.61c-1.83-1.29-0.4-11.28-8.34-5.27
		c-0.44-5.98-0.88-11.96-1.46-19.82c3.65,2.23,5.48,3.34,7.88,4.82c1.38-2.61,2.71-5.15,4.06-7.69c0.94-0.13,1.86-0.25,2.79-0.35
		C520.81,472.68,521.96,477.58,523.08,482.5z"/>
	<path class="st64" d="M552.25,461.72c-1.52,2.46-3.25,4.79-4.5,7.38c-2.11,4.36-3.92,8.86-5.86,13.3
		c-2.79-8.28-5.61-16.53-8.4-24.8l0.06-0.15C540.49,455.69,547.93,451.84,552.25,461.72z"/>
	<path class="st64" d="M529.38,495.01c-2.08-2.08-4.19-4.17-6.27-6.27c2.06-2.13,5.65-4.09,5.9-6.4c0.81-7.09,0.15-14.32,0.54-21.45
		c0.06-1.21,2.58-2.29,3.98-3.44l-0.06,0.15c-0.67,10.38-1.33,20.78-2,31.16C530.78,490.84,530.09,492.92,529.38,495.01z"/>
	<path class="st50" d="M266.59,344.88c2-0.71,4-1.4,5.98-2.11c4.44,7.75,11.07,8.71,18.86,6.09c-3.73,2.04-7.77,6.21-11.11,5.71
		c-6.92-1.04-12.82-2.46-18.8,3.04c-1.19,1.08-6.59-2.4-10.53-3.96C257.63,349.95,262.11,347.41,266.59,344.88z"/>
	<path class="st81" d="M291.46,348.86c-7.8,2.65-14.42,1.69-18.86-6.09c6.59-1.5,13.15-3.17,19.8-4.29
		c0.81-0.15,2.11,2.67,3.17,4.11C294.19,344.7,292.84,346.78,291.46,348.86z"/>
	<path class="st60" d="M408.4,451.19c0.69-2.77,1.38-5.54,2.06-8.32c6.96-5.57,13.92-11.11,20.89-16.68
		c0.02,19.45,0.04,38.92,0.06,58.36c-0.71,0.71-1.42,1.44-2.11,2.15c-2.42-2.75-4.98-7.96-7.23-7.82
		c-12.57,0.75-14.7-6.04-13.72-16.24C408.71,458.86,408.4,455,408.4,451.19z"/>
	<path class="st65" d="M408.4,451.19c0,3.81,0.33,7.67-0.04,11.44c-0.98,10.19,1.15,16.99,13.72,16.24
		c2.25-0.13,4.82,5.09,7.23,7.82c-2.79,9.71-5.59,19.45-8.36,29.16c-1.38,2.08-2.77,4.17-4.15,6.23
		c-3.48-5.57-6.98-11.11-10.46-16.68c0-13.36-0.19-26.72,0.08-40.08C406.5,460.61,407.69,455.9,408.4,451.19z"/>
	<path class="st82" d="M429.26,530.44c-1.4-0.69-2.77-1.4-4.17-2.08c3.27-8.82,6.55-17.63,9.82-26.45c0.71,0.06,1.42,0.13,2.15,0.19
		c0.19,3.9,0.35,7.77,0.54,11.67C434.81,519.31,432.04,524.88,429.26,530.44z"/>
	<path class="st11" d="M531.48,488.75c0.67-10.38,1.33-20.78,2-31.16c2.79,8.28,5.61,16.53,8.4,24.8c0.69,1.42,1.38,2.83,2.06,4.25
		C539.8,487.36,535.63,488.06,531.48,488.75z"/>
	<path class="st83" d="M483.52,520.06c4.52-6.57,8.53-14.07,18.74-10.42c-3.98,7.44-7.96,14.9-12.94,24.26
		C486.44,527.08,484.98,523.56,483.52,520.06z"/>
</g>
</svg>
