<?xml version="1.0" encoding="utf-8"?>
<!-- Generator: Adobe Illustrator 26.0.3, SVG Export Plug-In . SVG Version: 6.00 Build 0)  -->
<svg version="1.1" id="Layer_1" xmlns="http://www.w3.org/2000/svg" xmlns:xlink="http://www.w3.org/1999/xlink" x="0px" y="0px"
	 viewBox="0 0 1133.86 1133.86" style="enable-background:new 0 0 1133.86 1133.86;" xml:space="preserve">
<style type="text/css">
	.st0{fill:#FBC0A2;}
	.st1{fill:#1FA12A;}
	.st2{fill:#219F29;}
	.st3{fill:#AA0A13;}
	.st4{fill:#E81921;}
	.st5{fill:#FAC2A6;}
	.st6{fill:#E61D24;}
	.st7{fill:#22A02C;}
	.st8{fill:#E71B23;}
	.st9{fill:#DF2125;}
	.st10{fill:#F5BF9F;}
	.st11{fill:#D82D31;}
	.st12{fill:#6AC972;}
	.st13{fill:#7C2A0F;}
	.st14{fill:#F7B033;}
	.st15{fill:#EBD693;}
	.st16{fill:#46A44C;}
	.st17{fill:#2CA738;}
	.st18{fill:#D57623;}
	.st19{fill:#732C18;}
	.st20{fill:#701B11;}
	.st21{fill:#F6F4F0;}
	.st22{fill:#77341E;}
	.st23{fill:#DE9875;}
	.st24{fill:#D56C5E;}
	.st25{fill:#F99A98;}
	.st26{fill:#E8AA2C;}
	.st27{fill:#DED5D5;}
</style>
<g>
	<path class="st0" d="M746.86,267.78c15.95,9.86,27.62,22.71,31.67,41.8c7.82,36.7-20.57,84.77-57.27,89.43
		c-17.25,2.19-25.25,9.28-33.88,21.97c-12.05,17.72-28.04,31.89-47.99,40.95c-2.13,0.97-3.69,3.26-5.51,4.95
		c-3.86,1.18-7.74,2.35-11.61,3.53c-9.37,1.96-18.67,4.41-28.14,5.78c-14.63,2.12-29.36,3.51-44.25,5.22
		c16.85,12.89,44.95,14.19,62.8,3.18c3.24-2,6.81-3.45,10.23-5.16c0.45,0.19,0.85,0.47,1.2,0.82c0.64,0.14,1.3,0.29,1.94,0.43
		c1.94,0.1,3.88,0.19,5.82,0.27c0.25,0.58,0.68,0.97,1.28,1.16c3.67,14.61-1.67,26.16-13,34.89c-20.94,16.13-43.92,16.48-67.77,7.43
		c-4.42-3.18-8.87-6.38-13.29-9.57c-11.55-18.36-11.49-19.19,2.68-29.28c-4.33-0.76-7.57-1.32-10.81-1.88
		c0.08-9.35-9.14-7.57-13.29-8.83c-25.99-7.94-48.23-21.21-66.95-40.87c-2.02-2.12-6.75-2.91-9.98-2.46
		c-55.68,7.9-100.41-50.65-82.75-97.67c3.45-9.18,11.82-16.52,17.91-24.7c0.72-0.19,1.42-0.37,2.13-0.56
		c8.03,16.36,16.07,32.72,24.1,49.1c-9.78,6.25-12.32,21.56-5.84,35.28c5.07,10.75,20.24,18.71,29.48,14.83
		c1.53-0.64,2.89-5.26,2.15-7.16c-4.35-11-9.33-21.75-14.11-32.58c-11.51-35.57-16.63-72.1-16.75-109.42
		c1.47-2.85,2.5-6.07,4.48-8.52c18.81-23.4,41.72-41.67,69.03-54.26c1.51-0.7,3.65-0.1,5.49-0.1c11.53,0.85,23.06,2.58,34.56,2.43
		c40.46-0.6,80.05-6.19,117.41-22.94c3.55,1.34,7.01,2.93,10.63,3.96c27.89,7.88,53.52,19.58,72.78,42.29
		c0.72,5.36,1.77,10.69,2.1,16.07c2.02,31.65,3.86,63.32,5.76,94.98c-2.6,13.88-5.2,27.75-7.8,41.61
		c15.95,2.46,27.23-5.38,31.03-20.45c3.76-14.87-2.5-28.24-15.39-32.8c5.22-18.18,10.44-36.37,15.66-54.55
		C744.18,266.83,745.52,267.3,746.86,267.78z M625.1,273.56c-15.12,5.94-25.75,16.77-28.86,32.47c-4.15,20.88,0.7,33.81,21.23,36.68
		c9.49,1.32,19.54,2.62,28.8,0.95c23.4-4.19,32.78-15.8,30.29-40.13c1.61-14.09-6.19-23.33-17.08-29.71
		C648.53,267.39,636.61,266.03,625.1,273.56z M447.24,340.03c4.29,12.94,13.41,20.3,26.78,21.41c14.28,1.18,28.08-1.3,40.89-8.31
		c12.09-6.58,16.73-17.25,12.85-30.68c-4.97-17.17-16.71-27.46-33.42-32.62c-11.95-6.23-29.44-3.16-39.8,6.83
		C443.53,307.29,439.79,328.7,447.24,340.03z M527.12,384.86c-13.66-0.04-19.29,6.35-15.7,19.12c4.77,17.02,16.67,27.42,33.13,32.99
		c12.25,7.67,25.85,8.13,39.01,4.83c8.81-2.19,16.75-7.84,25.07-11.94c15.02-6.05,22.45-18.4,26.18-33.11
		c3.8-15.02-2.19-22.3-17.72-23.17c-23.68,2.27-47.39,4.37-71.03,6.95C539.66,381.21,533.43,383.39,527.12,384.86z M481.79,222.08
		c-18.61,0.56-34.04,4.7-45.86,17.12c-2,2.1-0.85,7.22-1.14,10.93c3.49,0.06,8.27,1.65,10.25-0.06
		c13.93-12.01,29.67-14.38,47.24-11.55c2.72,0.45,6.19-3.82,9.32-5.92c-2.12-2.83-3.67-7.01-6.46-8.17
		C490.46,222.54,485.03,222.58,481.79,222.08z M636.81,203.76c-10.05,2.39-18.53,4.08-26.8,6.46c-5.32,1.53-11.39,4.08-8.93,11.2
		c2.56,7.43,8.44,4.7,13.74,2.74c14.46-5.38,28.84-6.21,42.83,1.59c4.77,2.66,10.09,3.73,11.99-2.15c0.91-2.81-2.06-9.26-4.83-10.48
		C655.55,209.02,645.6,206.55,636.81,203.76z M673.58,355.95c-0.21-0.5-0.41-1.03-0.62-1.53c-6.38,2.6-13.2,4.52-19,8.07
		c-3.03,1.84-6.46,7.06-5.8,9.84c0.82,3.49,5.14,7.14,8.81,8.79c9.18,4.11,18.48,2.29,26.28-3.57c3.69-2.78,8.89-9.57,7.84-11.43
		c-2.45-4.39-8.15-7.04-12.75-10.03C677.21,355.31,675.19,355.95,673.58,355.95z M464.49,404.42c1.94,0,3.86,0.08,5.8-0.02
		c7.55-0.33,17.41-7.28,17.76-12.46c0.43-6.25-7.26-12.13-16.81-12.73c-2.25-0.14-4.52-0.08-6.77-0.02
		c-10.27,0.27-20.96,7.41-20.73,13.82C444,399.71,452.56,404.42,464.49,404.42z M577.77,354.86c0.97-0.62,1.92-1.24,2.89-1.84
		c-2.76-3.12-5.16-8.4-8.34-8.93c-5.43-0.89-11.72,0.31-16.92,2.45c-2.58,1.05-3.55,6.09-5.24,9.33c0.72,0.37,1.44,0.76,2.15,1.13
		C560.11,345.95,564.96,340.83,577.77,354.86z"/>
	<path class="st1" d="M414.44,666.67c-9.04-14.52-18.94-28.57-26.9-43.67c-9.43-17.89-12.89-36.68-0.02-54.98
		c1.47-2.1,3.03-4.29,4.99-5.9c24.24-19.87,48.3-39.98,73.09-59.15c5.53-4.27,13.7-5.1,20.65-7.51c-1.61,3.63-2.45,6.71,3.11,7.7
		c3.76,0.68,7.39,2.12,11.06,3.32c19.25,6.31,19.23,6.31,13.41,25.19c-0.08,0.27,0.06,0.64,0.1,0.95c-1.53,3.18-3.05,6.37-4.58,9.57
		c-1.86,1.59-4.02,2.97-5.55,4.85c-4.23,5.18-8.23,6.91-11.97-0.82c-5.2,10.11-0.08,17.89,14.85,22.07c-2.52-4.41-4.44-7.7-6.35-11
		c0.43-0.58,0.83-1.14,1.26-1.73c3.53,1.79,7.06,3.57,11.35,5.74c0.21-3.14,0.35-5.34,0.49-7.53c5.61-3.05,11.22-6.11,16.83-9.16
		c2.15-0.54,4.42-0.83,6.42-1.71c17.39-7.59,22.36-6.4,34.6,7.92c4.81,5.63,9.99,10.96,15.14,16.32c4.27,4.44,7.76,3.86,10.21-1.96
		c3.24-7.72,6.46-15.45,9.82-23.11c5.07-11.59,6.7-11.99,19.08-8.29c11.18,3.34,22.61,5.9,33.92,8.81c0.83-0.87,1.67-1.75,2.5-2.6
		c-4.31-9.78-8.31-19.74-13.02-29.3c-6.75-13.66-7.12-13.74,5.71-22.8c7.24-5.12,15-9.51,23.5-14.83
		c-5.26-2.58-9.22-4.52-13.16-6.46c32.86-13.1,65.73-26.18,98.59-39.32c9.57-3.82,19.04-7.86,28.55-11.8
		c5.49,1.73,10.96,3.49,16.48,5.18c7.12,2.17,8.97,6.56,5.72,13.22c-1.13,2.31-1.9,4.83-3.28,6.95c-4.27,6.58-1.13,9.28,5.18,10.48
		c2.19,0.43,4.42,0.97,6.64,0.99c7.24,0.02,8.77,3.98,7.18,10.11c-1.44,5.57-2.99,11.1-4.5,16.63
		c-24.2,13.53-48.42,27.03-72.62,40.58c-16.05,8.99-32.23,17.76-47.93,27.32c-2.95,1.8-5.88,7.01-5.55,10.32
		c4.04,41.43,8.69,82.81,13.2,124.2c-9.68,2.35-19.29,5.26-29.11,6.89c-15.08,2.5-30.31,4.13-45.47,6.13
		c-0.14-6.68-3.42-8.6-9.98-7.9c-13.39,1.46-26.86,2.7-40.29,2.91c-7.69,0.12-10.6,2.76-9.78,10.09
		c-11.64-0.54-23.29-1.07-34.93-1.61c-0.6-1.49-1.18-2.99-1.79-4.48l-0.39-0.56c-0.45-0.52-0.89-1.07-1.34-1.59
		c0,0-0.58-0.56-0.58-0.54c-1.13-1.53-2.25-3.07-3.11-4.23c3.42-1.47,6.21-2.7,9-3.9l0.54-0.33c0.8-0.25,1.59-0.5,2.37-0.74
		c0.17-1.82,0.37-3.65,0.54-5.45l0.02,0.02c-0.6-0.66-1.22-1.32-1.82-2l-0.08-0.04c-1.44-0.47-2.89-0.93-4.33-1.38h0.19
		c-4.68-1.3-9.35-2.6-14.01-3.9c-0.49,0.16-0.91,0.06-1.28-0.27c0.04-1.79,0.08-3.59,0.1-5.38c1.3-0.04,2.6-0.1,3.9-0.14
		c1.28-0.19,2.56-0.37,3.84-0.56l0.04-0.02c0.62-0.25,1.24-0.52,1.86-0.78c1.05-0.5,2.1-1.01,3.14-1.49
		c5.41-3.9,2.87-7.72-1.42-8.83c-5.45-1.4-11.41-0.72-17.17-0.91c-4.54-0.04-9.1-0.08-13.64-0.12c-5.24,1.01-10.46,2.02-15.7,3.03
		c-1.24,0.37-2.5,0.76-3.75,1.13c-1.07-0.54-2.13-1.09-3.18-1.61c-0.82-2.62-1.63-5.22-2.45-7.84c0.25-0.37,0.29-0.78,0.14-1.2
		c0.21-2.17,0.43-4.37,0.64-6.54c0.23-3.92,0.49-7.82,0.72-11.74c0.06-1.26,0.1-2.54,0.16-3.8c0.21-7.1,0.43-14.21,0.64-21.31
		c-0.35-3.11-0.7-6.23-1.05-9.33c9.51-9.9,8.48-14.4-5.3-26.49c-5.98,1.71-11.26,3.22-17.25,4.93c3.4,7.76-6.48,19.43,7.22,25.19
		c0.54,0.23,0.25,2.43,0.37,3.71c-12.3,5.84-12.5,6.46-6.04,19.25c0.58,1.15,1.24,2.23,1.86,3.36c-1.03,4.33-2.21,8.64-3.09,13
		c-2.91,14.77-2.87,14.79-17.78,11.8c-10.36-2.06-11.99-0.39-10.77,11.16c1.16,11.06,0.5,11.84-10.25,11.14
		C420.03,668.01,417.24,667.19,414.44,666.67z M612.14,651.43c-0.04-1.34-0.1-2.7-0.14-4.04c-3.28-2.04-7.06-6.19-9.72-5.57
		c-3.2,0.74-7.04,5.32-7.53,8.69c-0.31,2.08,5.01,6.89,7.98,7.03C605.76,657.68,609,653.65,612.14,651.43z M612.99,608.18
		c-5.63-4.08-8.81-8.07-12.19-8.23c-2.52-0.12-7.7,5.08-7.37,7.24c0.5,3.18,4.5,7.45,7.67,8.11
		C603.72,615.84,607.27,611.82,612.99,608.18z"/>
	<path class="st1" d="M721.15,791.39c0,0-0.39,0.04-0.39,0.02c-1.73,0.85-3.43,1.73-5.16,2.58l-0.16,0.76
		c-1.28-0.02-2.6-0.27-3.82,0c-21.52,4.81-42.97,9.98-64.55,14.44c-11.55,2.39-23.35,3.55-35.05,5.26
		c-5.51,0.52-11.02,1.05-16.53,1.59c-38.21,0.21-76.15-2.76-113.84-9.06c-17.08-5.63-16.83-5.59-14.13-23.93
		c3.01-20.32,5.47-40.72,8.19-61.07c0.93-2.64,1.88-5.28,2.83-7.94c33.17,8.58,66.99,11.49,101.13,11.61
		c0.58,5.73,3.92,7.28,9.33,6.87c14.73-1.09,29.5-2.19,44.27-2.56c6.31-0.16,6.46-3.73,6.64-8.09c17.39-3.01,34.8-6.02,52.18-9.02
		c-2.54,11.45-11.92,17.68-21.74,14.44c-2.99,11.7,3.18,19.48,15.49,19c-1.73-2.99-3.34-5.8-5.96-10.34
		c5.61,1.61,9.3,2.68,14.81,4.25c-2.81-4.85-4.42-7.63-5.74-9.9c5.59-0.52,11.26,0.43,15.1-1.79c4.37-2.52,7.12-7.86,10.81-12.27
		c2.85,5.86,4.89,10.03,6.91,14.21c0.27,1.3,0.52,2.62,0.8,3.92c0.43,1.92,0.87,3.84,1.3,5.76c0.27,1.32,0.54,2.64,0.82,3.94
		c0.21,1.28,0.43,2.54,0.66,3.82c0.43,1.96,0.85,3.92,1.28,5.88c0.25,1.28,0.49,2.54,0.74,3.82c0.43,1.92,0.87,3.86,1.3,5.78
		c-0.21,0.21-0.66,0.54-0.62,0.62c0.25,0.47,0.6,0.87,0.91,1.3c0.23,1.47,0.49,2.93,0.72,4.41c0.49,1.79,0.97,3.55,1.47,5.34
		c0.49,1.96,0.97,3.9,1.46,5.86C728.77,784.45,724.95,787.92,721.15,791.39z M639.62,769.08c13.86,8.33,20.96,8.25,26.68-0.85
		c5.36-8.5,1.92-17.76-8.6-24.94c-6.11,2.25-11.64,4.29-16.96,6.27C640.4,755.49,640.05,761.57,639.62,769.08z"/>
	<path class="st2" d="M344.17,162.69c0.23-3.51,0.1-7.14,0.95-10.5c0.25-1.01,3.3-1.3,5.07-1.92c17.23,11.41,34.47,22.8,53,35.07
		c0-33.01,0-62.92,0-93.81c4.41,1.79,7.88,3.18,11.33,4.58l0.37,0.33l0.45-0.17c1.67,1.14,3.36,2.29,5.03,3.43l0.39,0.47l0.6-0.1
		c1.61,1.18,3.22,2.35,4.83,3.53c2.85,1.44,5.72,2.87,8.58,4.31c4.91,3.07,9.8,6.15,14.71,9.22c0.87,0.19,1.75,0.39,2.6,0.58
		c1.71,1.26,3.42,2.5,5.12,3.76l0.74,0.08c1.71,1.11,3.42,2.21,5.12,3.3l0.14,0.06c0.47,0.19,0.93,0.39,1.4,0.6
		c4.64,2.48,9.26,4.97,13.9,7.45c3.49,3.38,5.49,2.6,6.07-2.17c0.45-0.27,0.52-0.6,0.21-1.01c1.01-1.61,2.02-3.22,3.01-4.83
		c1.03-2.78,2.08-5.55,3.11-8.33c1.05-1.75,2.12-3.49,3.16-5.22c0.21-0.87,0.41-1.73,0.62-2.6c1.09-1.73,2.17-3.45,3.26-5.16
		c2.06-4.5,4.09-9,6.15-13.51c0.8-1.77,1.59-3.53,2.41-5.3l-0.1-0.04c2.97-6.02,5.96-12.03,8.93-18.05
		c2.02-4.44,4.04-8.91,6.07-13.35c2.5,1.28,5.01,2.56,7.51,3.84l-0.06-0.06c1.26,1.36,2.54,2.72,3.8,4.08l-0.08-0.08
		c1.28,1.55,2.56,3.12,3.84,4.68c3.43,4.17,6.87,8.34,10.3,12.52c1.13,1.05,2.23,2.1,3.36,3.14l0.08,0.78
		c1.24,1.44,2.5,2.85,3.75,4.29l-0.06-0.06c0.72,1.13,1.42,2.25,2.12,3.38c-0.25,1.88-0.06,3.98-0.85,5.61
		c-7.32,15.04-14.79,30-22.22,45c-0.62,0.7-1.24,1.4-1.86,2.1c-10.44,9.74-20.88,19.46-31.32,29.21
		c-33.53,8.23-62.96,24.34-87.5,48.38c-23.54,23.04-37.44,51.95-46.25,83.43c-3.32-11.84-8.03-23.48-9.66-35.55
		C351.6,233,348.13,197.82,344.17,162.69z"/>
	<path class="st3" d="M395.15,1095.25c-14.42-18.81-13.16-39.26,3.57-57.56c1.96,2.04,3.92,4.09,5.86,6.13
		c1.3,7.24,0.23,17.39,4.56,20.9c4.37,3.53,14.36,1.63,21.37-0.02c6.71-1.59,12.89-5.72,19.1-9.1
		c20.78-11.35,22.9-16.28,17.74-39.78c-0.27-1.22,0-2.56,0.02-3.82c2.1,5.16,4.27,9.51,11.31,9.61c24.59,0.35,49.18,1.26,73.77,1.96
		c-2.15,21.29-4.31,42.6-6.46,63.89c-0.7,5.61-2.91,8.79-9.49,9.24c-39.4,2.7-78.77,5.84-118.15,8.83c-1.86-0.41-3.71-0.8-5.57-1.2
		C406.89,1101.28,401.03,1098.25,395.15,1095.25z"/>
	<path class="st4" d="M478.51,132.96c-4.64-2.48-9.26-4.97-13.88-7.45c-0.41-0.33-0.87-0.52-1.4-0.6l-0.14-0.06
		c-1.71-1.11-3.42-2.21-5.12-3.3l-0.74-0.08c-1.71-1.26-3.42-2.5-5.12-3.76c-0.87-0.19-1.75-0.39-2.6-0.58
		c-4.91-3.07-9.8-6.15-14.71-9.22c-2.85-1.44-5.73-2.87-8.58-4.31c-1.61-1.18-3.22-2.35-4.83-3.53l-0.6,0.1l-0.39-0.47
		c-1.67-1.14-3.36-2.29-5.03-3.43l-0.45,0.17l-0.37-0.33c-3.59-4.17-7.16-8.33-9.84-11.43c4.46-5.84,8.67-11.35,12.89-16.86
		l0.29,0.54l-0.17-0.58c2.64-1.92,5.3-3.84,7.94-5.76l-0.14,0.19c0.83-0.56,1.65-1.13,2.48-1.69c0,0-0.16,0.1-0.16,0.12
		c2.48-0.35,5.22-0.12,7.39-1.13c15.56-7.18,30.55-15.99,46.62-21.66c28.12-9.9,56.76-5.34,85.18,0.29
		c5.34,1.07,10.91,1.05,16.36,1.51c1.2,0.27,2.41,0.54,3.61,0.82c6.33,2.12,12.63,4.23,18.96,6.35l0.45-0.17l0.37,0.33
		c2.81,1.09,5.63,2.17,8.44,3.26l-0.66,0.52l0.66-0.5c0.41,0.95,0.82,1.9,1.22,2.83c2.56,0.74,5.1,1.47,7.67,2.21
		c-1.24,1.84-2.06,4.37-3.78,5.43c-4.09,2.5-8.62,3.92-6.83,10.6c0.54,2-2.17,4.89-3.4,7.37c-0.5,0.12-0.99,0.06-1.46-0.17
		c-2.76-2.56-5.51-5.12-8.27-7.7c-3.71-2.12-7.43-4.23-11.14-6.33c-1.59-5.03-4.39-4.5-6.04-0.54c-1.36,3.3-1.05,7.3-1.47,10.98
		c0.12,0.5,0.1,0.99-0.06,1.47c-5.59,1.16-4.77,4.17-2.23,7.69c-0.64,2.62-1.28,5.22-1.94,7.84c-3.76,2.54-7.51,5.07-11.28,7.61
		c-1.38-1.98-2.76-3.96-4.13-5.92c0.76-6.4-2.19-8.54-8.21-7.14l0.06,0.06c-1.24-1.44-2.5-2.85-3.75-4.29l-0.08-0.78
		c-1.13-1.05-2.23-2.1-3.36-3.12c-3.43-4.17-6.87-8.34-10.3-12.54c-1.28-1.55-2.56-3.12-3.84-4.68c0,0,0.08,0.08,0.08,0.06
		c-1.26-1.36-2.54-2.72-3.8-4.08l0.06,0.06c-2.04-2.33-4.09-4.66-6.13-6.99c-0.47,1.05-0.93,2.12-1.38,3.16
		c-2.02,4.44-4.04,8.91-6.05,13.35c-8.5,3.28-9.02,10.52-8.93,18.05c0,0,0.1,0.04,0.1,0.02c-1.92,0.43-3.84,0.85-5.76,1.26
		c1.13,1.34,2.25,2.68,3.38,4.04c-2.06,4.5-4.09,9-6.15,13.51c-1.09,1.73-2.17,3.45-3.26,5.16c-0.21,0.87-0.41,1.73-0.62,2.6
		c-1.05,1.75-2.12,3.49-3.16,5.22c-1.03,2.78-2.08,5.55-3.11,8.33c-1.01,1.61-2.02,3.22-3.03,4.83c0.31,0.41,0.25,0.76-0.21,1.01
		C482.56,131.53,480.52,132.24,478.51,132.96z"/>
	<path class="st5" d="M828.2,402.35c0.72-3.18,2.06-6.37,2.08-9.55c0.1-18.73-0.17-37.46-0.14-56.2c0-1.71,1.26-3.42,2.02-5.34
		c12.25,1.73,13.86,11.59,16.85,20.22c0.41,1.18-0.17,2.76,0.37,3.82c2.33,4.68,4.89,9.24,7.37,13.84c4.46-2.6,10.07-4.25,13.2-8
		c7.82-9.37,14.44-19.76,21.72-29.58c2.68-3.61,5.41-7.43,8.97-10.03c2.76-2.02,6.79-2.31,10.27-3.36c0.56,3.88,2.6,8.31,1.42,11.55
		c-3.3,9.04-7.94,17.6-12.07,26.33c-0.64,1.38-1.44,2.68-0.85,5.82c4.41-2.66,8.71-5.49,13.24-7.96c7.32-4,14.59-8.15,22.24-11.35
		c2.31-0.97,7.26,0.14,8.44,1.96c1.22,1.88,0.31,6.64-1.42,8.64c-7.12,8.27-14.89,15.99-22.47,23.87c-1.88,1.94-3.96,3.67-5.96,5.51
		c0.27,0.87,0.56,1.73,0.83,2.6c5.18-0.45,10.36-1.03,15.54-1.32c6.75-0.39,13.55-0.99,20.28-0.58c2.6,0.16,5.07,2.79,7.59,4.31
		c-1.53,2.52-2.45,6.27-4.68,7.37c-9.8,4.87-19.97,8.99-30,13.39c-3.14,2.06-6.27,4.13-9.41,6.19c1.79,1.28,3.55,2.58,5.34,3.86
		c6.15,1.65,12.54,2.76,18.38,5.16c3.4,1.4,5.92,4.87,8.85,7.41c-3.26,2.12-6.37,5.76-9.82,6.11c-18.53,1.92-37.14,3.36-55.76,4.31
		c-10.01,0.52-18.05,3.9-24.03,11.99C847.1,436.33,837.65,419.33,828.2,402.35z"/>
	<path class="st6" d="M344.17,162.69c3.96,35.13,7.41,70.31,12.13,105.32c1.63,12.07,6.35,23.72,9.66,35.55
		c1.4,1.92,2.79,3.82,4.19,5.74c-34.45,30.74-75.38,41.38-120.55,38.79c-0.56-2.66-1.13-5.3-1.69-7.96
		c28.37-14.28,43.68-38.87,54.01-67.67c11.62-32.43,23.66-64.7,35.69-96.98C339.3,171.06,341.98,166.96,344.17,162.69z"/>
	<path class="st7" d="M754.18,254.97c0.17,0.64,0.17,1.26-0.04,1.9c-3.9-6.15-7.63-12.44-11.74-18.46
		c-25.27-36.91-60.28-59.89-103.03-71.69c2.21-3.49,4.5-6.97,6.66-10.52c14.61-24.08,7.26-56.59-16.05-71.11l0.02,0.02
		c3.98-6.11,7.96-12.23,11.94-18.34c0.58-0.41,0.82-0.97,0.68-1.67c0.52-0.54,1.05-1.09,1.57-1.65c2.21-1.63,4.41-3.26,7.08-5.22
		c2.48,4.93,4.74,9.37,6.97,13.84c7.88,23.99,15.76,47.99,23.72,71.96c0.23,0.72,1.42,1.13,3.34,2.58
		c9.61-7.47,19.37-15.1,29.15-22.71c5.96-4.35,11.9-8.69,19.19-14.03c2.29,10.3,4.72,20.18,6.66,30.14
		c6.81,34.91,13.08,69.88,12.21,105.69c-0.06,2.43,1.05,4.89,1.63,7.34C754.14,253.71,754.16,254.35,754.18,254.97z"/>
	<path class="st8" d="M612.04,814.47c11.68-1.71,23.48-2.87,35.05-5.26c21.58-4.44,43.02-9.63,64.55-14.44
		c1.2-0.27,2.54-0.02,3.82,0c-0.19,21.64-1.03,43.28-0.33,64.88c0.33,10.34-3.12,14.92-13.1,15.1c-8,0.6-15.97,1.57-23.97,1.71
		c-17.37,0.29-34.76,0.14-52.15,0.17c-13.99-3.09-13.93-3.09-13.88-17.8C612.08,844.06,612.04,829.28,612.04,814.47z"/>
	<path class="st8" d="M481.67,807c37.69,6.31,75.63,9.28,113.84,9.06c-4.13,17.52-8.62,34.97-12.25,52.59
		c-1.46,7.04-4.85,9.96-11.64,9.72c-27.71-1.98-55.45-3.96-83.16-5.94c-2.19-0.52-4.35-1.36-6.56-1.51
		c-6.89-0.5-8.09-4.27-7.2-10.44C477.26,842.69,479.38,824.83,481.67,807z"/>
	<path class="st9" d="M513.96,532.66c-0.04-0.31-0.17-0.68-0.1-0.95c5.84-18.88,5.84-18.9-13.41-25.19
		c-3.67-1.2-7.3-2.64-11.06-3.32c-5.55-0.99-4.72-4.08-3.11-7.7c14.9-3.92,29.79-7.86,44.69-11.78c3.24,0.56,6.5,1.13,10.83,1.88
		c-14.17,10.09-14.21,10.93-2.68,29.28c-0.87,5.73,3.8,12.36,12.4,16.94c0.33-2.62,0.6-4.99,0.89-7.37
		c23.85,9.04,46.83,8.69,67.77-7.43c11.35-8.73,16.67-20.28,13.02-34.89c-0.43-0.39-0.85-0.78-1.28-1.16
		c-1.94-0.1-3.88-0.19-5.82-0.27c-0.64-0.14-1.3-0.27-1.94-0.43c-0.35-0.33-0.76-0.6-1.2-0.8c-0.21-3.01-0.43-6.02-0.66-9.02
		c3.86-1.18,7.74-2.35,11.61-3.53c10.36-0.08,20.75-0.17,31.09-0.25c3.94,1.94,7.88,3.88,13.16,6.48
		c-8.48,5.32-16.24,9.7-23.5,14.83c-12.83,9.06-12.46,9.14-5.71,22.8c4.74,9.59,8.71,19.52,13.02,29.3c-0.83,0.87-1.67,1.75-2.5,2.6
		c-11.31-2.91-22.73-5.47-33.92-8.81c-12.38-3.69-14.01-3.3-19.08,8.29c-3.36,7.67-6.58,15.39-9.82,23.11
		c-2.45,5.82-5.94,6.38-10.21,1.96c-5.14-5.34-10.3-10.69-15.14-16.32c-12.25-14.32-17.21-15.51-34.6-7.92
		c-2,0.87-4.27,1.14-6.42,1.71c-2.72,0.14-5.43,0.27-8.13,0.41c-0.23-11.35,9.14-5.69,15.16-8.62c-4.58-3.53-8.21-6.31-11.82-9.08
		c-0.06,1.11-0.12,2.21-0.19,3.32C521.51,531.34,517.73,532,513.96,532.66z M534.98,526.41c0.58-0.87,1.16-1.75,1.73-2.6
		c-1.98-1.01-3.98-2.02-5.96-3.01c-0.39,0.7-0.8,1.4-1.18,2.1C531.37,524.07,533.17,525.23,534.98,526.41z"/>
	<path class="st10" d="M478.56,714.08c-0.95,2.64-1.88,5.3-2.83,7.94c-2.17-1.26-4.52-3.8-6.48-3.53
		c-8.95,1.24-14.44-2.79-19.12-9.88c-3.63-5.49-8.33-10.27-12.54-15.37c2.72-2.19,5.49-4.33,8.17-6.56
		c12.17-10.13,24.34-20.28,36.48-30.41c2-0.58,4-1.14,6-1.73c1.24-0.37,2.5-0.76,3.75-1.13c5.24-1.01,10.46-2.02,15.7-3.05
		c4.54,0.04,9.1,0.08,13.64,0.12c4.31,0.8,8.62,1.63,12.94,2.35c4.27,0.7,7.32,2.23,5.65,7.39c-1.05,0.5-2.1,1.01-3.14,1.49
		c-0.62,0.25-1.24,0.52-1.86,0.8l-0.04,0.02c-1.28,0.19-2.56,0.37-3.84,0.56c-1.3,0.04-2.6,0.1-3.9,0.14c-5.92,0-11.84,0-17.76,0
		c-0.02,0.95-0.02,1.92-0.04,2.87c5.9,0.83,11.8,1.67,17.7,2.5c0.39,0.33,0.82,0.41,1.28,0.25c2.35,1.15,4.68,2.27,7.03,3.42
		c0.39,0.08,0.76,0.16,1.14,0.23c1.96,0.08,3.9,0.17,5.86,0.25h-0.19c0,0.54,0.16,1.05,0.49,1.49c0.93,2.72,1.86,5.41,2.79,8.13
		c0,0-0.54,0.33-0.54,0.31c-5.4,0.02-10.81,0.06-16.2,0.1c-0.99-0.1-1.98-0.21-2.97-0.31c-5.2-1.03-10.4-2.08-15.6-3.11
		c-0.21,1.05-0.45,2.1-0.66,3.14c5.2,1.2,10.4,2.41,15.6,3.61c1.34,0.23,2.7,0.49,4.04,0.72c3.3,1.34,6.62,2.66,9.92,4l0.58,0.56
		c0.45,0.52,0.89,1.07,1.34,1.59l0.39,0.56c-0.19,1.88-0.39,3.78-0.58,5.69c-4.33,0.29-8.66,0.85-12.98,0.83
		c-5.07-0.02-10.13-0.54-15.2-0.83c0,0.54-0.02,1.09-0.02,1.63c5.84,3.8,11.68,7.59,19.93,12.96c-5.88,1.96-8.48,2.83-11.1,3.69
		c-7.22-2.39-14.48-4.66-21.66-7.16C491.86,707.6,484.74,708.06,478.56,714.08z"/>
	<path class="st11" d="M695.96,990.37c5.07,1.49,14.11,2.35,14.48,4.6c1.38,8.66,0.25,17.78-0.47,26.68
		c-0.52,6.62-2.41,13.18-2.5,19.79c-0.04,2.33,3.03,5.51,5.45,6.91c10.09,5.74,20.38,11.2,30.84,16.24
		c7.12,3.43,15.29,6.19,21.89,0.14c6.99-6.4,5.9-15.2,3.03-23.54c-0.62-1.82-1.67-3.49-2.52-5.22c0.47-1.47,0.93-2.97,1.42-4.44
		c2.83,2.31,5.65,4.62,8.48,6.93c-0.23,0.25-0.47,0.5-0.7,0.76c-1.51-0.41-3.05-0.81-5.47-1.46c0.72,1.92,1.07,3.05,1.57,4.11
		c3.94,8.67,3.51,17.62-2.64,24.41c-5.4,5.96-13.58,7.2-21.39,3.59c-8.36-3.86-16.57-8.07-24.76-12.28
		c-11.92-6.13-23.13-12.67-19.12-29.48c0.21-0.85-5.34-4.42-8.23-4.48c-22.86-0.37-45.72-0.21-68.56-0.19
		c-1.53-6.19-3.65-12.28-4.39-18.57c-0.6-5.01-1.65-11.18,5.63-13.24C650.62,991.21,673.29,990.8,695.96,990.37z"/>
	<path class="st9" d="M417.59,67.83c-4.21,5.51-8.42,11.02-12.89,16.86c2.66,3.11,6.25,7.26,9.84,11.43
		c-3.47-1.4-6.95-2.79-11.33-4.58c0,30.9,0,60.8,0,93.81c-18.53-12.27-35.77-23.68-53-35.07C366.8,118.02,388.21,89.67,417.59,67.83
		z"/>
	<path class="st11" d="M552.43,1023.52c-24.59-0.7-49.18-1.59-73.77-1.96c-7.04-0.1-9.22-4.44-11.31-9.61
		c1.2-7.28,2.41-14.57,3.61-21.85c25.13,0.74,50.24,1.47,75.38,2.19c3.42,2.6,8.85,4.66,9.74,7.94c1.28,4.77-0.74,10.42-1.36,15.68
		c-0.8,2.54-1.57,5.08-2.37,7.63L552.43,1023.52z"/>
	<path class="st9" d="M828.2,402.35c9.45,16.98,18.9,33.98,28.35,50.96c3.4,5.47,1.96,9.28-3.76,12.07
		c-9.14,4.44-18.16,9.12-27.25,13.72c1.49-5.55,3.07-11.08,4.5-16.63c1.57-6.13,0.06-10.09-7.18-10.11c-2.21,0-4.44-0.56-6.64-0.99
		c-6.31-1.2-9.47-3.9-5.18-10.48c1.38-2.13,2.17-4.66,3.28-6.95c3.24-6.66,1.4-11.04-5.72-13.22c-5.51-1.69-10.98-3.45-16.48-5.18
		c0.76-1.57,1.15-4.08,2.33-4.54c9.45-3.67,19-7.1,28.62-10.23C824.45,400.29,826.47,401.77,828.2,402.35z"/>
	<path class="st9" d="M482.25,656.25c-12.17,10.13-24.32,20.28-36.48,30.41c-2.68,2.23-5.45,4.39-8.17,6.56
		c-3.09,0.04-7.37,1.4-9.02-0.12c-7.96-7.34-15.2-15.45-24.32-24.98c4.95-0.72,7.57-1.09,10.21-1.47c2.79,0.52,5.57,1.34,8.4,1.51
		c10.75,0.7,11.41-0.08,10.25-11.14c-1.22-11.55,0.41-13.22,10.77-11.16c14.9,2.97,14.87,2.97,17.78-11.8
		c0.85-4.37,2.04-8.67,3.09-13c5.61,7.88,11.24,15.78,16.86,23.68l0.47,0.33l0.56-0.02c0.82,2.62,1.63,5.22,2.45,7.84
		C484.11,654.01,483.18,655.14,482.25,656.25z"/>
	<path class="st12" d="M370.18,309.33c-1.4-1.92-2.79-3.82-4.19-5.74c8.81-31.48,22.71-60.39,46.25-83.43
		c24.57-24.04,53.97-40.13,87.52-48.38c-7.88,8-15.78,15.97-23.66,23.97c-1.84,0-3.98-0.6-5.49,0.1
		c-27.31,12.59-50.22,30.86-69.03,54.26c-1.98,2.45-3.01,5.67-4.48,8.52c-2.04,2.76-4.95,5.22-5.98,8.31
		c-4.64,13.8-8.73,27.77-13.04,41.67c-0.72,0.19-1.44,0.37-2.13,0.56C374,309.21,372.08,309.27,370.18,309.33z"/>
	<path class="st13" d="M692.1,712.89c-17.39,3.01-34.8,6.02-52.18,9.02c-0.62-9.12-1.24-18.26-1.86-27.4
		c15.18-2,30.39-3.63,45.47-6.13c9.82-1.63,19.41-4.54,29.11-6.89c1.36,7.72,2.74,15.47,4.09,23.19
		C708.51,707.42,700.31,710.16,692.1,712.89z"/>
	<path class="st14" d="M247.91,340.15c0.56,2.66,1.13,5.3,1.69,7.96c3.03,16.28-1.26,29.98-14.28,40.6
		c-1.55-1.61-3.32-3.07-4.64-4.83c-13.78-18.32-21.83-39.2-27.31-61.25c16.24-3.57,29.6,1.14,40.21,13.91
		C244.77,337.98,246.46,338.96,247.91,340.15z"/>
	<path class="st12" d="M639.37,166.75c42.75,11.8,77.76,34.8,103.03,71.69c4.11,6.02,7.84,12.28,11.74,18.46
		c-2.41,3.63-4.83,7.28-7.26,10.91c-1.36-0.49-2.68-0.97-4.02-1.44c-5.41-18.48-16.59-32.93-31.38-44.87
		c-19.25-22.73-44.89-34.41-72.78-42.29c-3.63-1.03-7.1-2.62-10.63-3.96C631.82,172.4,635.6,169.56,639.37,166.75z"/>
	<path class="st9" d="M714.45,123.92c-9.78,7.61-19.56,15.23-29.15,22.71c-1.92-1.46-3.09-1.86-3.34-2.58
		c-7.96-23.97-15.84-47.97-23.72-71.96C680.86,85.16,699.35,102.71,714.45,123.92z"/>
	<path class="st14" d="M228.22,394.06c-12.69,1.86-25.46,3.73-36.41-5.43c-2.78-2.33-4.64-5.71-6.93-8.62
		c2.56-0.29,5.63,0.17,7.55-1.09c2.64-1.75,6.05-4.77,6.11-7.34c0.06-2.56-3.3-6.97-5.69-7.37c-3.07-0.52-7.34,1.44-9.8,3.71
		c-1.57,1.44-0.8,5.41-1.07,8.25c-11.45-16.09-5.49-38.54,13.16-49.55C202.33,351,211.29,374.48,228.22,394.06z"/>
	<path class="st15" d="M697.47,924.47c-0.31,5.8-0.6,11.61-0.91,17.41c-22.82-0.62-45.63-1.24-68.45-1.86
		c0.02-5.24,0.04-10.5,0.06-15.74c4.48,0.45,8.99,1.34,13.47,1.28C660.23,925.34,678.86,924.85,697.47,924.47z"/>
	<path class="st15" d="M486.52,933.9c0.83-5.16,1.69-10.32,2.52-15.49c22.4,2.06,44.79,4.09,67.17,6.15
		c-0.83,5.28-1.67,10.54-2.5,15.82C531.33,938.21,508.92,936.05,486.52,933.9z"/>
	<path class="st15" d="M484.35,960.62c0.6-4.97,1.2-9.94,1.82-14.89c22.05,2.12,44.11,4.23,66.16,6.35
		c-0.87,5.12-1.77,10.27-2.64,15.41C527.9,965.18,506.12,962.91,484.35,960.62z"/>
	<path class="st15" d="M695.88,953.54c-0.06,5.22-0.12,10.44-0.19,15.68c-22.34-0.6-44.67-1.2-67.01-1.8
		c-0.12-5.2-0.23-10.38-0.35-15.58C650.86,952.39,673.37,952.97,695.88,953.54z"/>
	<path class="st16" d="M699.08,887.96c-0.39,3.84-0.8,7.67-1.18,11.51c-23.62-0.25-47.26-0.52-70.87-0.78
		c-0.23-4.25-0.45-8.52-0.68-12.77C650.59,886.58,674.84,887.28,699.08,887.96z"/>
	<path class="st16" d="M490.4,891.49c0.16-3.73,0.31-7.47,0.47-11.2c3.82,0.21,7.65,0.31,11.47,0.62
		c19.87,1.65,39.75,3.34,59.62,5.01c0.29,1.32,0.58,2.66,0.87,4c-0.17,0.99-0.33,1.96-0.5,2.95c-0.74,2.12-1.47,4.23-2.21,6.35
		C536.88,896.64,513.65,894.08,490.4,891.49z"/>
	<path class="st15" d="M546.37,992.31c-25.13-0.74-50.26-1.46-75.38-2.19c11.51-0.17,11.04-9.61,13.22-17.02
		c21.29,1.92,42.58,3.82,63.87,5.74C547.5,983.33,546.93,987.83,546.37,992.31z"/>
	<path class="st15" d="M490.4,891.49c23.25,2.58,46.48,5.14,69.73,7.72c-0.52,5.67-1.05,11.31-1.57,16.98
		c-1.28-1.2-2.46-3.28-3.86-3.45c-21.93-2.62-43.9-4.99-65.85-7.41C489.35,900.73,489.88,896.11,490.4,891.49z"/>
	<path class="st16" d="M488.83,905.33c21.95,2.43,43.92,4.79,65.85,7.41c1.42,0.17,2.58,2.25,3.86,3.45
		c-0.78,2.79-1.55,5.57-2.33,8.34c-22.4-2.06-44.79-4.09-67.17-6.15c-0.39-1.3-0.78-2.62-1.16-3.92c0.41-0.39,0.43-0.8,0.06-1.22
		C488.25,910.63,488.54,907.99,488.83,905.33z"/>
	<path class="st16" d="M697.47,924.47c-18.61,0.39-37.24,0.87-55.85,1.09c-4.48,0.06-8.97-0.83-13.47-1.28
		c-0.45-4.29-0.87-8.56-1.32-12.85c11.92,0.97,23.83,1.94,35.75,2.91c5.28-0.17,10.58-0.35,15.86-0.54
		c5.24-0.21,10.46-0.41,15.7-0.62c1.18,1.18,2.37,2.37,3.55,3.55C697.61,919.3,697.55,921.89,697.47,924.47z"/>
	<path class="st17" d="M692.1,712.89c8.21-2.74,16.42-5.45,24.63-8.19c1.69,8.6,3.38,17.19,5.07,25.81
		c-2.04-4.17-4.06-8.34-6.91-14.21c-3.71,4.41-6.44,9.74-10.81,12.27c-3.84,2.21-9.51,1.28-15.1,1.79c1.32,2.29,2.93,5.05,5.74,9.9
		c-5.51-1.59-9.2-2.64-14.81-4.25c2.62,4.54,4.23,7.36,5.96,10.34c-12.3,0.49-18.46-7.3-15.49-19
		C680.18,730.57,689.55,724.34,692.1,712.89z"/>
	<path class="st15" d="M662.58,914.34c-11.92-0.97-23.83-1.94-35.75-2.91c0.06-4.25,0.12-8.5,0.17-12.75
		c23.62,0.25,47.26,0.52,70.87,0.78c-0.04,4.48-0.06,8.95-0.1,13.43c-1.22,0.1-2.45,0.19-3.67,0.29c-5.24,0.21-10.46,0.43-15.7,0.62
		C673.16,913.97,667.86,914.16,662.58,914.34z"/>
	<path class="st16" d="M695.88,953.54c-22.51-0.56-45.04-1.15-67.55-1.71c-0.08-3.94-0.16-7.88-0.21-11.8
		c22.82,0.62,45.63,1.24,68.45,1.86c0.17,1.44,0.37,2.89,0.54,4.33l-0.41,0.54l0.37,0.58C696.68,949.4,696.29,951.48,695.88,953.54z
		"/>
	<path class="st15" d="M699.08,887.96c-24.26-0.68-48.5-1.38-72.76-2.06c-0.14-3.09-0.29-6.17-0.43-9.26
		c17.39-0.04,34.76,0.12,52.15-0.17c8-0.14,15.97-1.11,23.97-1.71C701.04,879.17,700.05,883.56,699.08,887.96z"/>
	<path class="st16" d="M552.31,952.08c-22.05-2.12-44.09-4.23-66.16-6.35c-0.08-2.76-0.16-5.49-0.23-8.23
		c0.12-0.95,0.23-1.92,0.35-2.87l0.25-0.72c22.4,2.15,44.79,4.31,67.19,6.46C553.26,944.28,552.78,948.18,552.31,952.08z"/>
	<path class="st16" d="M628.69,967.41c22.34,0.6,44.67,1.2,67.01,1.8c-0.19,3.67-0.39,7.34-0.56,11
		c-21.79-0.31-43.59-0.6-65.38-0.91C629.39,975.33,629.04,971.37,628.69,967.41z"/>
	<path class="st16" d="M548.06,978.84c-21.29-1.92-42.58-3.82-63.87-5.74c0.04-4.15,0.1-8.31,0.14-12.46
		c21.77,2.27,43.55,4.56,65.32,6.85c-0.19,2.7-0.41,5.38-0.6,8.05l-0.37,0.35l0.19,0.47C548.62,977.17,548.35,978.01,548.06,978.84z
		"/>
	<path class="st14" d="M767.57,1031.51c-0.47,1.47-0.93,2.97-1.42,4.44c-12.32,8.67-23.68,6.93-26.74-4.29
		c-1.75-6.38-1.11-13.22,5.26-16.11c4.68-2.12,11.49-3.03,16.03-1.18C767.43,1017.11,769.92,1023.91,767.57,1031.51z"/>
	<path class="st14" d="M404.59,1043.84c-1.96-2.04-3.92-4.09-5.86-6.13c-3.61-14.44,1.11-23.73,12.32-23.4
		c7.7,0.23,13.62,3.65,14.92,12.13c1.28,8.4-2.72,14.63-10.91,16.55C411.69,1043.74,408.08,1043.57,404.59,1043.84z"/>
	<path class="st18" d="M228.22,394.06c-16.94-19.58-25.91-43.06-33.07-67.44c0.87-5.18,2.31-9.18,8.23-3.98
		c5.47,22.05,13.53,42.93,27.31,61.25c1.34,1.77,3.09,3.22,4.64,4.83C236.54,395.24,234.91,398,228.22,394.06z"/>
	<path class="st15" d="M629.74,979.31c21.79,0.31,43.59,0.6,65.38,0.91c0.27,3.4,0.54,6.77,0.82,10.15
		c-22.67,0.41-45.33,0.83-68,1.24C628.56,987.52,629.16,983.4,629.74,979.31z"/>
	<path class="st9" d="M583.36,39.69c-5.45-0.49-11.02-0.47-16.36-1.51c-28.41-5.65-57.08-10.21-85.18-0.29
		c-16.09,5.67-31.05,14.48-46.62,21.66c-2.17,1.01-4.91,0.78-7.39,1.13c34.74-21.46,70.64-38.64,113.3-30.08
		C555.24,33.39,569.29,36.63,583.36,39.69z"/>
	<path class="st15" d="M561.95,885.94c-19.87-1.67-39.74-3.38-59.62-5.01c-3.82-0.31-7.65-0.43-11.47-0.62
		c-0.8-2.62-1.61-5.24-2.41-7.86c27.73,1.98,55.45,3.96,83.16,5.94C568.42,880.9,565.18,883.42,561.95,885.94z"/>
	<path class="st18" d="M181.99,376.17c0.27-2.83-0.49-6.81,1.07-8.25c2.46-2.27,6.73-4.23,9.8-3.71c2.41,0.41,5.76,4.81,5.69,7.37
		c-0.06,2.56-3.47,5.59-6.11,7.34c-1.92,1.26-4.99,0.8-7.55,1.09c0,0,0-0.17,0.02-0.17c-0.64-0.78-1.28-1.55-1.92-2.31
		C182.38,377.25,182.05,376.81,181.99,376.17z"/>
	<path class="st11" d="M781.37,1093.25c-0.6,0.02-1.2,0.04-1.8,0.08c0.23-1.57,0.04-3.42,0.8-4.64c6.83-11.02,7.9-22.61,3.05-34.51
		c-2.13-5.22-5.36-9.99-8.07-14.98c0.23-0.25,0.47-0.5,0.7-0.76C791.38,1052.92,793.38,1073.65,781.37,1093.25z"/>
	<path class="st11" d="M644.2,63.49c-0.52,0.54-1.05,1.09-1.57,1.65c-6.19-3.26-12.36-6.52-18.55-9.78
		c-2.56-0.74-5.1-1.47-7.67-2.21c0.02-0.83,0.02-1.65,0.04-2.48C625.69,54.93,634.94,59.22,644.2,63.49z"/>
	<path class="st11" d="M605.93,46.85c-6.33-2.12-12.63-4.23-18.96-6.35C593.3,42.62,599.6,44.74,605.93,46.85z"/>
	<path class="st17" d="M721.15,791.39c3.82-3.47,7.63-6.95,11.45-10.42C735.96,792.35,725.67,788.7,721.15,791.39z"/>
	<path class="st11" d="M615.19,50.27c-2.81-1.09-5.63-2.17-8.44-3.26C609.56,48.1,612.37,49.18,615.19,50.27z"/>
	<path class="st9" d="M425.62,62.03c-2.64,1.92-5.28,3.84-7.94,5.76C420.32,65.87,422.96,63.95,425.62,62.03z"/>
	<path class="st17" d="M723.88,740.2c-0.43-1.92-0.87-3.84-1.3-5.76C723.01,736.36,723.44,738.28,723.88,740.2z"/>
	<path class="st17" d="M715.6,794.01c1.73-0.87,3.43-1.73,5.16-2.58C719.03,792.31,717.32,793.16,715.6,794.01z"/>
	<path class="st17" d="M727.38,757.67c-0.25-1.28-0.49-2.54-0.74-3.82C726.87,755.12,727.13,756.38,727.38,757.67z"/>
	<path class="st17" d="M725.36,747.96c-0.21-1.28-0.43-2.54-0.66-3.82C724.91,745.42,725.13,746.68,725.36,747.96z"/>
	<path class="st17" d="M731.14,775.11c-0.49-1.77-0.99-3.55-1.47-5.34C730.17,771.56,730.66,773.33,731.14,775.11z"/>
	<path class="st12" d="M694.13,913.17c1.22-0.1,2.45-0.19,3.67-0.29c-0.04,1.28-0.08,2.56-0.12,3.86
		C696.5,915.54,695.32,914.36,694.13,913.17z"/>
	<path class="st15" d="M486.27,934.62c-0.12,0.97-0.23,1.92-0.35,2.87C486.04,936.54,486.15,935.57,486.27,934.62z"/>
	<path class="st12" d="M754.18,254.97c-0.02-0.64-0.04-1.26-0.06-1.9c0.21,0.45,0.49,0.89,0.62,1.38
		C754.78,254.56,754.39,254.8,754.18,254.97z"/>
	<path class="st9" d="M427.97,60.52c-0.83,0.56-1.65,1.13-2.48,1.69C426.3,61.66,427.14,61.1,427.97,60.52z"/>
	<polygon class="st15" points="697.06,947.35 696.7,946.76 697.1,946.22 697.57,946.8 	"/>
	<path class="st9" d="M616.43,50.66c-0.02,0.83-0.02,1.65-0.04,2.48c-0.41-0.95-0.82-1.88-1.22-2.83
		C615.71,50,616.14,50.11,616.43,50.66z"/>
	<path class="st15" d="M487.96,913.27c0.35,0.43,0.33,0.83-0.06,1.22c-0.17-0.33-0.35-0.64-0.52-0.95
		C487.57,913.44,487.76,913.37,487.96,913.27z"/>
	<path class="st17" d="M728.97,765.37c-0.31-0.43-0.68-0.83-0.91-1.3c-0.04-0.08,0.41-0.41,0.62-0.62
		C728.76,764.09,728.87,764.73,728.97,765.37z"/>
	<path class="st14" d="M183,377.51c0.64,0.78,1.28,1.53,1.92,2.31C184.26,379.06,183.64,378.28,183,377.51z"/>
	<path class="st19" d="M639.37,166.75c-3.76,2.83-7.55,5.67-11.31,8.48c-37.36,16.77-76.95,22.36-117.41,22.94
		c-11.51,0.17-23.04-1.55-34.56-2.43c7.88-8,15.78-15.99,23.66-23.97c10.44-9.72,20.88-19.46,31.3-29.21
		c-0.58,5.53-1.14,11.06-1.86,17.95c4.83,1.42,11.04,4,17.49,4.93c8.03,1.16,15.51-9.86,12.17-17.19c-1.44-3.16-3.28-6.17-4.95-9.22
		c-3.28-6.02-6.46-8.75-11.72-1.26c-1.46,2.06-6.09,1.86-9.28,2.7c7.43-14.98,14.9-29.94,22.22-45c0.8-1.63,0.6-3.73,0.85-5.61
		c2.04,1.26,4.06,2.52,6.07,3.78c1.38,1.98,2.76,3.96,4.13,5.92c1.34,2.72,2.7,5.45,4.04,8.17c0.83-0.16,1.69-0.33,2.52-0.49
		c1.57-5.1,3.14-10.19,4.72-15.29c0.64-2.62,1.28-5.22,1.94-7.84c0.74-2.56,1.47-5.12,2.23-7.69c0.17-0.49,0.19-0.97,0.06-1.47
		c2.5-3.49,5.01-6.97,7.49-10.44c3.71,2.12,7.43,4.23,11.14,6.33c2.76,2.56,5.51,5.14,8.27,7.7c0.47,0.23,0.95,0.29,1.46,0.17
		l0.23-0.04c0.08,1.82,0.16,3.67,0.23,5.51c-9.65,3.42-16.67,11.84-17.02,20.18c-14.65-1.36-17.06,15.29-28.02,19.43
		c-1.3-2.27-2.43-4.23-3.76-6.58c-5.63,9.59-0.56,17.49,14.52,22.36c-2.23-4.5-3.98-8.03-6.52-13.18c5.38,1.86,8.89,3.07,12.98,4.5
		c-1.28-5.08-2.21-8.73-3.43-13.64c14.05,7.32,18.44,5.34,19.21-5.67c4.44-2.56,9.3-3.86,11.61-7.04c3.26-4.46,6.6-3.84,10.63-2.91
		c2.74,5.38,5.49,10.75,8.54,16.73c7.16-11.59,2.83-22.43,0.72-33.22c23.31,14.52,30.64,47.02,16.05,71.11
		C643.87,159.78,641.6,163.24,639.37,166.75z"/>
	<path class="st20" d="M617.09,373.59c15.53,0.87,21.52,8.15,17.72,23.17c-3.73,14.69-11.16,27.05-26.18,33.11
		c-15.29-15.33-47.64-11.74-64.1,7.1c-16.46-5.55-28.35-15.95-33.13-32.99c-3.59-12.77,2.04-19.15,15.7-19.12
		c4.72,3.03,9.06,7.57,14.23,8.83c21.97,5.41,43.57,3.12,63.69-7.24C609.97,383.93,613.13,377.97,617.09,373.59z"/>
	<path class="st21" d="M494.36,289.85c16.71,5.16,28.45,15.45,33.42,32.62c3.88,13.41-0.78,24.08-12.85,30.68
		c-12.83,6.99-26.61,9.47-40.89,8.31c-13.37-1.11-22.51-8.44-26.78-21.41c-0.02-2.25,0.14-4.52-0.12-6.75
		c-2.25-19.43,16.24-44.81,39.26-41.74C488.93,291.88,491.7,290.45,494.36,289.85z M474.2,313.25c-1.13,2.54-2.25,5.08-3.38,7.63
		c-5.01,11.72,4.74,27.17,17.64,29.36c11.47,1.96,22.51-3.88,26.61-14.54c3.98-10.32,0.23-22.18-8.91-28.16
		C495.58,300.66,484.33,302.65,474.2,313.25z"/>
	<path class="st21" d="M676.57,303.53c2.5,24.34-6.89,35.94-30.29,40.13c-9.26,1.65-19.31,0.37-28.8-0.95
		c-20.55-2.87-25.38-15.8-21.23-36.68c3.12-15.7,13.74-26.51,28.86-32.47c3.8,0.29,7.63,0.85,11.45,0.82
		c15.72-0.1,26.55,7.92,34.66,20.53C673.02,297.76,674.77,300.66,676.57,303.53z M609.38,299.86c-1.3,2.93-2.58,5.84-3.88,8.77
		c0.23,2.56,0.27,5.16,0.72,7.69c2.04,11.47,11.55,19.52,23.02,19.66c11.31,0.14,21.13-8.01,23.37-19.35
		c2.1-10.71-3.94-22.01-13.93-26.08C627.63,286.06,615.69,289.85,609.38,299.86z"/>
	<path class="st22" d="M711.48,221.5c14.79,11.94,25.97,26.37,31.38,44.87c-5.22,18.18-10.44,36.37-15.66,54.55
		c-2.62,3.88-5.22,7.76-7.84,11.64c-1.9-31.67-3.75-63.32-5.76-94.98C713.23,232.19,712.2,226.85,711.48,221.5z"/>
	<path class="st22" d="M378.06,308.61c4.29-13.91,8.4-27.89,13.04-41.67c1.03-3.09,3.94-5.55,5.98-8.31
		c0.12,37.3,5.24,73.84,16.75,109.4c-3.88-3.45-7.78-6.89-11.66-10.34C394.13,341.33,386.09,324.97,378.06,308.61z"/>
	<path class="st21" d="M617.09,373.59c-3.98,4.39-7.12,10.36-12.05,12.89c-20.14,10.36-41.72,12.65-63.69,7.24
		c-5.16-1.26-9.51-5.8-14.23-8.83c6.31-1.49,12.54-3.65,18.94-4.35C569.72,377.95,593.41,375.86,617.09,373.59z"/>
	<path class="st23" d="M719.34,332.54c2.62-3.88,5.22-7.76,7.84-11.64c12.89,4.56,19.15,17.93,15.39,32.8
		c-3.82,15.06-15.1,22.92-31.03,20.45C714.14,360.29,716.74,346.42,719.34,332.54z"/>
	<path class="st22" d="M481.79,222.08c3.24,0.5,8.67,0.45,13.31,2.37c2.79,1.16,4.35,5.34,6.46,8.17c-3.12,2.1-6.6,6.35-9.32,5.92
		c-17.56-2.83-33.28-0.47-47.24,11.55c-1.96,1.69-6.75,0.12-10.25,0.06c0.31-3.73-0.85-8.83,1.14-10.93
		C447.75,226.77,463.17,222.64,481.79,222.08z"/>
	<path class="st23" d="M402.16,357.69c3.88,3.45,7.76,6.89,11.66,10.34c4.77,10.85,9.78,21.58,14.13,32.58
		c0.76,1.92-0.62,6.52-2.15,7.16c-9.24,3.88-24.41-4.08-29.48-14.83C389.84,379.25,392.38,363.94,402.16,357.69z"/>
	<path class="st22" d="M636.81,203.76c8.79,2.79,18.75,5.26,27.98,9.35c2.78,1.22,5.74,7.67,4.83,10.48
		c-1.9,5.86-7.22,4.81-11.99,2.15c-13.97-7.78-28.35-6.95-42.83-1.59c-5.28,1.96-11.18,4.7-13.74-2.74
		c-2.45-7.12,3.61-9.66,8.93-11.2C618.29,207.83,626.77,206.13,636.81,203.76z"/>
	<path class="st24" d="M544.55,436.97c16.46-18.84,48.81-22.43,64.1-7.1c-8.33,4.09-16.28,9.72-25.07,11.94
		C570.4,445.1,556.79,444.62,544.55,436.97z"/>
	<path class="st25" d="M673.58,355.95c1.61,0,3.63-0.62,4.75,0.12c4.62,3.01,10.3,5.67,12.75,10.03c1.05,1.86-4.15,8.66-7.84,11.43
		c-7.78,5.86-17.1,7.69-26.28,3.57c-3.67-1.65-8-5.3-8.81-8.79c-0.66-2.78,2.78-8,5.8-9.84c5.8-3.55,12.61-5.47,19-8.07
		C673.17,354.92,673.37,355.42,673.58,355.95z"/>
	<path class="st25" d="M464.49,404.42c-11.94,0-20.49-4.72-20.73-11.43c-0.23-6.4,10.46-13.57,20.73-13.82
		c2.25-0.06,4.52-0.12,6.77,0.02c9.55,0.62,17.23,6.48,16.81,12.73c-0.37,5.2-10.23,12.15-17.76,12.46
		C468.38,404.48,466.43,404.42,464.49,404.42z"/>
	<path class="st23" d="M622.29,470.41c0.21,3.01,0.43,6.02,0.66,9.02c-3.42,1.71-6.99,3.16-10.23,5.16
		c-17.85,10.98-45.96,9.7-62.8-3.18c14.88-1.73,29.61-3.11,44.25-5.22C603.62,474.81,612.92,472.37,622.29,470.41z"/>
	<path class="st22" d="M494.36,289.85c-2.66,0.6-5.43,2.04-7.98,1.71c-23.02-3.05-41.49,22.32-39.26,41.74
		c0.25,2.23,0.08,4.5,0.12,6.75c-7.45-11.33-3.73-32.74,7.32-43.35C464.92,286.68,482.41,283.62,494.36,289.85z"/>
	<path class="st22" d="M676.57,303.53c-1.79-2.87-3.53-5.76-5.36-8.6c-8.13-12.61-18.94-20.63-34.66-20.53
		c-3.8,0.02-7.63-0.52-11.45-0.82c11.51-7.53,23.44-6.17,34.39,0.25C670.36,280.2,678.16,289.44,676.57,303.53z"/>
	<path class="st23" d="M577.77,354.86c-12.81-14.05-17.66-8.93-25.48,2.12c-0.72-0.37-1.44-0.76-2.15-1.13
		c1.69-3.24,2.66-8.27,5.24-9.33c5.2-2.12,11.49-3.32,16.92-2.45c3.18,0.52,5.59,5.78,8.34,8.93
		C579.69,353.64,578.72,354.26,577.77,354.86z"/>
	<path class="st11" d="M552.41,524.44c-0.29,2.37-0.58,4.75-0.89,7.37c-8.6-4.58-13.27-11.22-12.4-16.94
		C543.54,518.05,547.98,521.25,552.41,524.44z"/>
	<path class="st23" d="M631.92,480.94c0.43,0.39,0.85,0.78,1.28,1.16C632.58,481.91,632.15,481.53,631.92,480.94z"/>
	<path class="st23" d="M624.15,480.23c0.64,0.14,1.3,0.27,1.94,0.43C625.45,480.52,624.79,480.38,624.15,480.23z"/>
	<path class="st26" d="M638.05,694.52c0.62,9.14,1.24,18.28,1.86,27.4c-0.17,4.35-0.33,7.92-6.64,8.07
		c-14.77,0.37-29.52,1.47-44.27,2.56c-5.41,0.41-8.73-1.16-9.33-6.87c-0.04-1.01-0.08-2.02-0.14-3.03
		c-0.52-7.69-1.03-15.35-1.55-23.04c-0.82-7.34,2.1-9.98,9.78-10.09c13.45-0.21,26.92-1.47,40.29-2.91
		C634.63,685.92,637.91,687.84,638.05,694.52z M590.13,700.05c-2.33,21.77-2.33,21.77,17.78,20.86c4.83-0.21,9.72,0.14,14.44-0.66
		c2.17-0.37,5.59-2.72,5.71-4.37c0.43-5.88-0.31-11.86-0.66-18.46C614.29,698.36,602.51,699.17,590.13,700.05z"/>
	<path class="st13" d="M578,699.64c0.52,7.69,1.03,15.35,1.55,23.04c-16.73-0.64-33.48-1.16-50.19-2.08
		c-2.74-0.16-5.38-2.02-8.05-3.11c2.6-0.87,5.22-1.73,11.1-3.69c-8.25-5.36-14.09-9.16-19.93-12.96c0-0.54,0.02-1.09,0.02-1.63
		c5.07,0.29,10.13,0.82,15.2,0.83c4.33,0.02,8.66-0.54,12.98-0.83c0.8-0.39,1.57-0.8,2.37-1.18
		C554.7,698.55,566.36,699.1,578,699.64z"/>
	<path class="st17" d="M483.86,591.16c-4.99,2.45-9.98,4.89-14.96,7.34c-0.1-1.28,0.17-3.47-0.37-3.71
		c-13.7-5.74-3.82-17.43-7.22-25.19c6-1.71,11.28-3.22,17.25-4.93C492.34,576.76,493.39,581.24,483.86,591.16z"/>
	<path class="st11" d="M513.96,532.66c3.78-0.66,7.55-1.32,11.33-1.98c0.06-1.11,0.12-2.21,0.19-3.32
		c3.61,2.78,7.22,5.55,11.82,9.08c-6.02,2.93-15.37-2.74-15.16,8.62c2.72-0.14,5.41-0.27,8.13-0.41
		c-5.61,3.05-11.22,6.11-16.81,9.16c-1.36-3.86-2.72-7.72-4.08-11.59C510.91,539.05,512.43,535.85,513.96,532.66z"/>
	<path class="st17" d="M509.38,542.23c1.36,3.86,2.72,7.72,4.08,11.59c-0.14,2.19-0.29,4.39-0.49,7.53
		c-4.29-2.17-7.82-3.96-11.35-5.74c-0.43,0.58-0.83,1.14-1.26,1.73c1.9,3.3,3.8,6.62,6.35,11c-14.92-4.17-20.05-11.95-14.85-22.07
		c3.75,7.72,7.76,5.98,11.97,0.82C505.36,545.2,507.52,543.82,509.38,542.23z"/>
	<path class="st26" d="M612.14,651.43c-3.14,2.21-6.38,6.25-9.43,6.09c-2.95-0.14-8.29-4.95-7.98-7.03c0.5-3.38,4.33-7.94,7.53-8.69
		c2.66-0.62,6.44,3.53,9.72,5.57C612.06,648.74,612.1,650.07,612.14,651.43z"/>
	<path class="st26" d="M612.99,608.18c-5.72,3.65-9.28,7.67-11.9,7.12c-3.16-0.66-7.16-4.91-7.67-8.11
		c-0.33-2.15,4.83-7.36,7.37-7.24C604.18,600.1,607.37,604.1,612.99,608.18z"/>
	<path class="st23" d="M528.67,682.79c5.4-0.04,10.81-0.06,16.2-0.1c-2.79,1.22-5.59,2.43-9,3.9c0.85,1.16,1.98,2.7,3.11,4.23
		c-3.3-1.34-6.62-2.66-9.92-4C528.92,685.49,528.81,684.13,528.67,682.79z"/>
	<path class="st16" d="M527.02,668.61c-5.9-0.83-11.8-1.67-17.7-2.5c0.02-0.95,0.02-1.92,0.04-2.87c5.92,0,11.84,0,17.76,0
		C527.1,665.02,527.06,666.8,527.02,668.61z"/>
	<path class="st16" d="M539.91,660.22c1.67-5.18-1.38-6.7-5.65-7.39c-4.33-0.72-8.64-1.55-12.94-2.35
		c5.74,0.21,11.72-0.47,17.17,0.91C542.78,652.5,545.32,656.32,539.91,660.22z"/>
	<path class="st16" d="M507.67,650.37c-5.24,1.01-10.46,2.02-15.7,3.05C497.21,652.38,502.45,651.37,507.67,650.37z"/>
	<path class="st17" d="M483.4,637.32c0.23-3.92,0.49-7.82,0.72-11.74C483.86,629.5,483.63,633.42,483.4,637.32z"/>
	<path class="st23" d="M545.42,682.39c-0.93-2.72-1.86-5.41-2.79-8.13c1.28-0.04,2.58-0.06,3.86-0.1l0.08,0.04
		c0.6,0.66,1.22,1.32,1.82,2l-0.02-0.02c-0.17,1.82-0.37,3.65-0.54,5.45C546.99,681.88,546.22,682.13,545.42,682.39z"/>
	<path class="st16" d="M542.33,672.78c-1.96-0.08-3.9-0.17-5.86-0.25c-0.33-0.33-0.72-0.41-1.15-0.23
		c-2.33-1.15-4.68-2.27-7.03-3.42C532.98,670.18,537.66,671.48,542.33,672.78z"/>
	<path class="st16" d="M482.25,656.25c0.93-1.11,1.86-2.23,2.79-3.34c1.07,0.54,2.13,1.09,3.18,1.63
		C486.25,655.1,484.25,655.68,482.25,656.25z"/>
	<path class="st23" d="M543.05,698.03c-0.8,0.39-1.57,0.8-2.37,1.18c0.19-1.9,0.39-3.78,0.58-5.69
		C541.87,695.02,542.47,696.53,543.05,698.03z"/>
	<path class="st16" d="M547.79,681.63c0.17-1.82,0.37-3.65,0.54-5.45C548.16,678,547.98,679.81,547.79,681.63z"/>
	<path class="st16" d="M531.02,663.1c1.28-0.19,2.56-0.37,3.84-0.56C533.58,662.71,532.3,662.9,531.02,663.1z"/>
	<path class="st16" d="M546.47,674.16c-1.28,0.04-2.58,0.06-3.86,0.1c-0.31-0.45-0.47-0.93-0.49-1.49
		C543.58,673.23,545.03,673.69,546.47,674.16z"/>
	<path class="st23" d="M540.9,692.96c-0.45-0.52-0.89-1.07-1.34-1.59C540.01,691.92,540.45,692.44,540.9,692.96z"/>
	<path class="st16" d="M548.37,676.2c-0.6-0.66-1.22-1.32-1.82-2C547.15,674.86,547.75,675.54,548.37,676.2z"/>
	<path class="st16" d="M534.9,662.51c0.62-0.27,1.24-0.52,1.86-0.8C536.16,661.99,535.54,662.24,534.9,662.51z"/>
	<path class="st16" d="M481.57,644.76l0.31-0.8c0,0,0.83-0.1,0.85-0.1c0.16,0.43,0.12,0.82-0.14,1.2l-0.56,0.02L481.57,644.76z"/>
	<path class="st17" d="M639.62,769.08c0.43-7.51,0.78-13.58,1.13-19.52c5.34-1.96,10.85-4,16.96-6.27
		c10.52,7.18,13.95,16.44,8.6,24.94C660.58,777.32,653.48,777.4,639.62,769.08z"/>
	<path class="st19" d="M521.32,717.49c2.68,1.09,5.32,2.95,8.05,3.11c16.71,0.91,33.46,1.44,50.19,2.08
		c0.04,1.01,0.08,2.02,0.14,3.03c-34.14-0.12-67.96-3.05-101.13-11.62c6.19-6.02,13.31-6.48,21.1-3.76
		C506.84,712.84,514.1,715.11,521.32,717.49z"/>
	<path class="st19" d="M532.92,140.47c3.18-0.83,7.82-0.64,9.28-2.7c5.28-7.47,8.44-4.75,11.72,1.26c1.67,3.07,3.49,6.05,4.95,9.22
		c3.34,7.34-4.13,18.36-12.17,17.19c-6.44-0.93-12.65-3.51-17.49-4.93c0.72-6.89,1.28-12.42,1.86-17.95
		C531.66,141.87,532.28,141.17,532.92,140.47z"/>
	<path class="st9" d="M506.41,84.78c-0.1-7.53,0.43-14.77,8.93-18.05C512.35,72.74,509.38,78.76,506.41,84.78z"/>
	<path class="st9" d="M434.76,107.91c4.91,3.07,9.8,6.15,14.71,9.22C444.58,114.06,439.67,110.97,434.76,107.91z"/>
	<path class="st9" d="M562.07,93.64c-2.02-1.26-4.06-2.52-6.07-3.78c-0.72-1.13-1.42-2.25-2.13-3.38
		C559.88,85.11,562.83,87.24,562.07,93.64z"/>
	<path class="st9" d="M521.39,53.39c0.47-1.05,0.93-2.12,1.38-3.16c2.04,2.33,4.09,4.66,6.13,6.99
		C526.4,55.94,523.9,54.66,521.39,53.39z"/>
	<path class="st9" d="M504.1,90.11c-1.13-1.34-2.25-2.68-3.38-4.04c1.92-0.43,3.84-0.85,5.76-1.26
		C505.69,86.58,504.9,88.35,504.1,90.11z"/>
	<path class="st9" d="M478.51,132.96c2.02-0.72,4.06-1.46,6.07-2.17C484,135.58,482,136.36,478.51,132.96z"/>
	<path class="st9" d="M490.91,116.6c1.05-1.75,2.12-3.49,3.16-5.22C493.02,113.13,491.97,114.86,490.91,116.6z"/>
	<path class="st9" d="M494.69,108.78c1.09-1.73,2.17-3.45,3.26-5.16C496.86,105.33,495.78,107.05,494.69,108.78z"/>
	<path class="st9" d="M421.37,100.07c1.61,1.18,3.22,2.35,4.83,3.53C424.59,102.42,422.98,101.25,421.37,100.07z"/>
	<path class="st9" d="M415.34,96.26c1.67,1.14,3.36,2.29,5.03,3.43C418.69,98.55,417.02,97.41,415.34,96.26z"/>
	<path class="st9" d="M452.09,117.71c1.71,1.26,3.42,2.5,5.12,3.76C455.51,120.21,453.8,118.97,452.09,117.71z"/>
	<path class="st9" d="M550.17,82.27c1.24,1.44,2.5,2.85,3.75,4.29C552.68,85.12,551.44,83.71,550.17,82.27z"/>
	<path class="st9" d="M457.95,121.55c1.71,1.11,3.42,2.21,5.12,3.3C461.37,123.76,459.66,122.66,457.95,121.55z"/>
	<path class="st9" d="M484.77,129.78c1.01-1.61,2.02-3.22,3.03-4.83C486.79,126.56,485.78,128.17,484.77,129.78z"/>
	<path class="st9" d="M528.87,57.16c1.26,1.36,2.54,2.72,3.8,4.08C531.39,59.88,530.13,58.52,528.87,57.16z"/>
	<path class="st9" d="M532.59,61.18c1.28,1.55,2.56,3.11,3.84,4.68C535.15,64.28,533.87,62.73,532.59,61.18z"/>
	<path class="st9" d="M546.74,78.37c1.13,1.05,2.23,2.08,3.36,3.12C548.97,80.47,547.87,79.42,546.74,78.37z"/>
	<path class="st9" d="M463.23,124.93c0.52,0.08,0.99,0.27,1.4,0.6C464.16,125.32,463.7,125.12,463.23,124.93z"/>
	<path class="st9" d="M624.08,55.35c6.19,3.26,12.36,6.52,18.55,9.78c0.12,0.7-0.12,1.26-0.68,1.67
		c-5.24,2.6-17.97-4.11-12.25,11.92c-7.24,0-13.33,0-19.41,0l-0.23,0.04c1.22-2.48,3.94-5.36,3.4-7.37
		c-1.8-6.68,2.74-8.07,6.83-10.6C622,59.72,622.83,57.2,624.08,55.35z"/>
	<path class="st9" d="M577.48,91.96c-1.57,5.1-3.14,10.19-4.72,15.29c-0.83,0.16-1.69,0.33-2.52,0.49c-1.34-2.72-2.7-5.45-4.04-8.17
		C569.95,97.04,573.71,94.5,577.48,91.96z"/>
	<path class="st9" d="M589.2,64.51c-2.5,3.47-5.01,6.97-7.49,10.44c0.43-3.69,0.1-7.69,1.47-10.98
		C584.8,60.03,587.61,59.49,589.2,64.51z"/>
	<path class="st9" d="M608.59,78.57c-2.76-2.56-5.51-5.14-8.27-7.7C603.08,73.42,605.83,75.98,608.59,78.57z"/>
	<path class="st9" d="M581.63,76.45c-0.74,2.56-1.47,5.12-2.23,7.69C576.86,80.62,576.04,77.61,581.63,76.45z"/>
	<path class="st2" d="M629.98,85.12c2.1,10.81,6.42,21.64-0.72,33.22c-3.05-5.98-5.78-11.35-8.54-16.73
		c-0.02-2.97-0.02-5.92-0.04-8.89C623.78,90.21,626.89,87.67,629.98,85.12L629.98,85.12z"/>
	<path class="st11" d="M629.99,85.12c-3.11,2.54-6.21,5.08-9.32,7.61c-3.38-2.85-6.77-5.71-10.15-8.54
		c-0.08-1.84-0.16-3.67-0.23-5.51c6.07,0,12.15,0,19.41,0c-5.72-16.03,7.01-9.3,12.25-11.92C637.95,72.9,633.97,79.01,629.99,85.12z
		"/>
	<path class="st11" d="M534.98,526.41c-1.8-1.18-3.61-2.35-5.41-3.53c0.39-0.7,0.8-1.4,1.18-2.1c1.98,1.01,3.98,2.02,5.96,3.01
		C536.14,524.67,535.56,525.54,534.98,526.41z"/>
	<path class="st3" d="M628.5,1087.46c-0.6-21.35-1.18-42.69-1.79-64.02c22.86,0,45.72-0.17,68.56,0.19
		c2.91,0.04,8.44,3.61,8.23,4.48c-4.02,16.79,7.2,23.35,19.12,29.48c8.19,4.21,16.4,8.42,24.76,12.28
		c7.82,3.61,15.99,2.35,21.39-3.59c6.15-6.77,6.58-15.74,2.64-24.41c-0.49-1.07-0.83-2.21-1.57-4.11c2.45,0.66,3.96,1.05,5.47,1.46
		c2.72,4.99,5.94,9.76,8.07,14.98c4.85,11.9,3.78,23.48-3.05,34.51c-0.78,1.24-0.56,3.09-0.8,4.64c-0.7,0.7-1.38,1.42-2.08,2.13
		c-1.07,0.82-2.12,1.65-3.18,2.46c-9.53,2.52-19.17,7.59-28.53,7.1c-35.48-1.8-70.89-5.14-106.25-8.69
		C635.58,1095.92,632.15,1090.53,628.5,1087.46z"/>
	<path class="st11" d="M774.3,1097.92c1.07-0.82,2.12-1.65,3.18-2.46C776.42,1096.27,775.35,1097.11,774.3,1097.92z"/>
	<path class="st23" d="M525.02,686.11c-5.2-1.2-10.4-2.41-15.6-3.61c0.21-1.05,0.45-2.1,0.66-3.14c5.2,1.03,10.4,2.08,15.6,3.11
		C525.47,683.69,525.24,684.89,525.02,686.11z"/>
	<path class="st1" d="M525.02,686.11c0.23-1.22,0.45-2.43,0.68-3.63c0.99,0.1,1.98,0.21,2.97,0.31c0.14,1.36,0.25,2.7,0.39,4.04
		C527.7,686.6,526.36,686.35,525.02,686.11z"/>
	<path class="st23" d="M535.33,672.28c0.43-0.17,0.82-0.1,1.15,0.23C536.09,672.43,535.72,672.35,535.33,672.28z"/>
	<path class="st3" d="M554.75,1015.93c-0.8,2.54-1.57,5.08-2.37,7.63C553.18,1021.03,553.96,1018.47,554.75,1015.93z"/>
	<path class="st15" d="M562.83,889.92c-0.17,0.99-0.33,1.98-0.5,2.95C562.5,891.88,562.67,890.91,562.83,889.92z"/>
	<path class="st12" d="M662.58,914.34c5.3-0.17,10.58-0.37,15.86-0.54C673.16,913.99,667.86,914.16,662.58,914.34z"/>
	<path class="st15" d="M549.07,975.53l0.56,0.5c0,0-0.74,0.33-0.74,0.31l-0.19-0.47L549.07,975.53z"/>
	<path class="st19" d="M610.53,84.19c3.38,2.85,6.77,5.69,10.15,8.54c0.02,2.97,0.02,5.92,0.04,8.89
		c-4.04-0.93-7.37-1.57-10.63,2.91c-2.31,3.16-7.16,4.48-11.61,7.04c-0.8,11-5.16,12.98-19.21,5.67c1.24,4.89,2.15,8.54,3.43,13.64
		c-4.09-1.42-7.61-2.64-12.98-4.5c2.54,5.14,4.29,8.67,6.52,13.18c-15.08-4.87-20.14-12.77-14.52-22.36
		c1.36,2.37,2.46,4.31,3.76,6.58c10.96-4.11,13.37-20.78,28.02-19.43C593.88,96.03,600.88,87.61,610.53,84.19z"/>
	<path class="st22" d="M474.2,313.25c10.15-10.6,21.39-12.6,31.96-5.69c9.14,5.96,12.89,17.82,8.91,28.16
		c-4.11,10.65-15.14,16.5-26.61,14.54c-12.91-2.19-22.65-17.64-17.64-29.36c3.49,1.8,6.91,3.82,10.58,5.12
		c0.41,0.14,3.71-5.12,3.2-5.69c-2.39-2.68-5.59-4.62-8.56-6.73C475.58,313.25,474.82,313.35,474.2,313.25z"/>
	<path class="st27" d="M474.2,313.25c0.62,0.1,1.38,0,1.84,0.33c2.97,2.12,6.19,4.06,8.56,6.73c0.5,0.56-2.79,5.84-3.2,5.69
		c-3.67-1.3-7.08-3.32-10.58-5.12C471.95,318.34,473.07,315.79,474.2,313.25z"/>
	<path class="st22" d="M609.38,299.86c6.31-10.01,18.24-13.8,29.28-9.32c10.01,4.08,16.05,15.37,13.93,26.08
		c-2.23,11.33-12.05,19.48-23.37,19.35c-11.47-0.14-20.98-8.19-23.02-19.66c-0.45-2.52-0.49-5.12-0.72-7.7c1.77,0.74,3.49,2,5.3,2.1
		c2.87,0.17,6.46,0.49,8.46-0.99c1.46-1.07,1.73-6.89,0.99-7.24C616.95,300.95,613.07,300.62,609.38,299.86z"/>
	<path class="st27" d="M609.38,299.86c3.69,0.76,7.57,1.09,10.89,2.62c0.76,0.35,0.47,6.17-0.99,7.24c-2,1.47-5.59,1.16-8.46,0.99
		c-1.8-0.12-3.53-1.36-5.3-2.1C606.8,305.7,608.1,302.77,609.38,299.86z"/>
	<path class="st13" d="M590.13,700.05c12.38-0.87,24.16-1.69,37.28-2.62c0.33,6.6,1.09,12.58,0.66,18.46
		c-0.12,1.65-3.53,4.02-5.71,4.37c-4.72,0.8-9.63,0.45-14.44,0.66C587.8,721.82,587.8,721.82,590.13,700.05z"/>
</g>
</svg>
