<?xml version="1.0" encoding="utf-8"?>
<!-- Generator: Adobe Illustrator 26.0.3, SVG Export Plug-In . SVG Version: 6.00 Build 0)  -->
<svg version="1.1" id="Layer_1" xmlns="http://www.w3.org/2000/svg" xmlns:xlink="http://www.w3.org/1999/xlink" x="0px" y="0px"
	 viewBox="0 0 1133.86 1133.86" style="enable-background:new 0 0 1133.86 1133.86;" xml:space="preserve">
<style type="text/css">
	.st0{fill:#FFFFFF;}
</style>
<g>
	<path d="M568.12,222.47c156.84,0,313.65-0.05,470.49,0.12c9.12,0.02,18.67,0.34,27.29,2.93c25.87,7.8,39.6,28.54,39.58,56.59
		c-0.07,174.34,0.29,348.68-0.48,523c-0.09,19.95-3.94,40.66-10.23,59.64c-10.27,30.98-34.2,45.98-66.75,46.03
		c-59.24,0.12-118.47,0.03-177.71,0.03c-245.2,0-490.41-0.74-735.6,0.58c-51.75,0.27-75.61-30.5-83.36-71.6
		c-1.78-9.48-2.52-19.3-2.54-28.97c-0.27-180.17-0.38-360.32-0.46-540.48c-0.02-19.01,24.38-43.13,47.5-46.7
		c7.15-1.1,14.52-1.13,21.77-1.13C254.45,222.46,411.29,222.47,568.12,222.47z M1061.14,319.21c-3.09,2.09-4.39,2.76-5.42,3.72
		c-95.47,87.68-190.91,175.4-286.38,263.1c-33.96,31.2-67.16,63.31-102.15,93.32c-34.9,29.93-75.53,44.64-122.38,37.27
		c-35.26-5.55-64.54-22.75-90.31-46.54C331.44,556.42,208.46,442.67,85.45,328.96c-3.77-3.48-7.78-6.7-13.11-11.3
		c0,169.59,0,337,0,506.49c5.37-4.47,9.14-7.35,12.62-10.56c43.94-40.46,87.8-80.98,131.77-121.4
		c26.45-24.31,52.9-48.65,79.69-72.58c10.41-9.29,23.09-8.49,31.08,0.67c7.61,8.73,6.77,20.42-2.28,30.08
		c-1.99,2.13-4.23,3.99-6.38,5.98c-70.97,65.57-141.94,131.14-212.98,196.64c-4.39,4.05-9.46,7.34-14.21,10.97
		c1.05,0.93,2.09,1.85,3.14,2.78c315.44,0,630.89,0,946.33,0c0.62-1.2,1.23-2.4,1.85-3.6c-2.49-1.56-5.26-2.78-7.39-4.71
		c-68.79-62.91-137.55-125.88-206.26-188.89c-8.95-8.19-18-16.32-26.42-25.04c-8.62-8.95-9.03-19.18-1.32-28.9
		c7.15-9,20.09-9.96,30.03-2.67c3.89,2.86,7.41,6.27,10.99,9.55c62.4,56.96,124.76,113.95,187.16,170.91
		c9.91,9.05,19.87,18.02,31.35,28.42C1061.14,653.43,1061.14,487.25,1061.14,319.21z M1053.29,266.07c-325.05,0-647.23,0-973.34,0
		c15.65,14.47,28.37,26.28,41.12,38.04c119.95,110.57,239.77,221.26,359.89,331.64c56.71,52.1,113.5,52.8,167.88,2.83
		c86.5-79.51,172.95-159.06,259.38-238.64C956.04,355.88,1003.78,311.75,1053.29,266.07z"/>
	<path class="st0" d="M1061.14,319.21c0,168.05,0,334.22,0,502.58c-11.49-10.41-21.45-19.39-31.35-28.42
		C967.4,736.4,905.02,679.42,842.63,622.46c-3.58-3.27-7.1-6.69-10.99-9.55c-9.93-7.29-22.89-6.33-30.03,2.67
		c-7.73,9.74-7.3,19.97,1.32,28.9c8.42,8.73,17.47,16.85,26.42,25.04c68.71,63,137.46,125.98,206.26,188.89
		c2.13,1.94,4.92,3.17,7.39,4.71c-0.62,1.2-1.23,2.4-1.85,3.6c-315.44,0-630.89,0-946.33,0c-1.05-0.93-2.09-1.85-3.14-2.78
		c4.75-3.63,9.82-6.94,14.21-10.97c71.04-65.48,142.01-131.07,212.98-196.64c2.14-1.97,4.39-3.86,6.38-5.98
		c9.05-9.67,9.89-21.36,2.28-30.08c-7.99-9.15-20.67-9.94-31.08-0.67c-26.79,23.93-53.24,48.26-79.69,72.58
		c-43.97,40.42-87.84,80.96-131.77,121.4c-3.48,3.21-7.23,6.09-12.62,10.56c0-169.47,0-336.9,0-506.49
		c5.35,4.59,9.34,7.82,13.11,11.3C208.5,442.67,331.46,556.42,454.52,670.08c25.76,23.79,55.03,40.99,90.31,46.54
		c46.85,7.37,87.48-7.34,122.38-37.27c34.99-30.02,68.18-62.12,102.15-93.32c95.45-87.7,190.9-175.42,286.36-263.1
		C1056.77,321.97,1058.07,321.3,1061.14,319.21z"/>
	<path class="st0" d="M1053.29,266.07c-49.52,45.7-97.25,89.81-145.06,133.85c-86.43,79.57-172.88,159.15-259.38,238.64
		c-54.39,49.99-111.17,49.28-167.88-2.83C360.84,525.36,241.03,414.67,121.09,304.11c-12.75-11.76-25.49-23.57-41.12-38.04
		C406.08,266.07,728.25,266.07,1053.29,266.07z"/>
</g>
</svg>
