<?xml version="1.0" encoding="utf-8"?>
<!-- Generator: Adobe Illustrator 26.0.3, SVG Export Plug-In . SVG Version: 6.00 Build 0)  -->
<svg version="1.1" id="Layer_1" xmlns="http://www.w3.org/2000/svg" xmlns:xlink="http://www.w3.org/1999/xlink" x="0px" y="0px"
	 viewBox="0 0 1133.86 1133.86" style="enable-background:new 0 0 1133.86 1133.86;" xml:space="preserve">
<style type="text/css">
	.st0{fill:#8C0303;}
	.st1{fill:#BF1A1F;stroke:#8C0303;stroke-width:1.8122;stroke-miterlimit:10;}
	.st2{fill:#D0D6F7;stroke:#7C7C7C;stroke-width:1.2081;stroke-miterlimit:10;}
	.st3{fill:none;stroke:#CFCFD1;stroke-width:6.6448;stroke-miterlimit:10;}
	.st4{opacity:0.31;fill:#FDFDFF;}
	.st5{fill:url(#SVGID_1_);}
	.st6{fill:#333333;}
	.st7{fill:#878995;stroke:#2B2B2B;stroke-width:1.2081;stroke-miterlimit:10;}
	.st8{fill:#161616;}
	.st9{fill:#BFBFBF;}
	.st10{fill:#F5F1F0;}
	.st11{fill:url(#SVGID_00000154399027773882683700000009700156608040270465_);}
	.st12{stroke:#000000;stroke-width:0.6041;stroke-miterlimit:10;}
	.st13{fill:#323433;stroke:#000000;stroke-width:0.6041;stroke-miterlimit:10;}
	.st14{fill:#AAA9A5;}
	.st15{fill:#C4C3C2;}
	.st16{fill:#BAB7B5;}
	.st17{fill:#BAB7B5;stroke:#7A7877;stroke-width:0.6041;stroke-miterlimit:10;}
	.st18{fill:none;stroke:#000000;stroke-width:1.8122;stroke-miterlimit:10;}
	.st19{fill:#61050C;stroke:#8C0303;stroke-width:1.8122;stroke-miterlimit:10;}
	.st20{fill:#2B2B2B;}
	.st21{fill:#939393;}
	.st22{fill:#101010;}
	.st23{fill:#4E4F54;}
	.st24{fill:#999D9E;}
	.st25{fill:#B8B8B8;}
	.st26{fill:#C70414;}
	.st27{fill:#D6D6D6;}
	.st28{fill:#EF4E22;}
	.st29{fill:#CC401F;}
	.st30{fill:#D6D6D6;stroke:#8E8D8D;stroke-width:0.4531;stroke-miterlimit:10;}
	.st31{fill:#D6D6D6;stroke:#8E8D8D;stroke-width:0.2692;stroke-miterlimit:10;}
	.st32{fill:#D6D6D6;stroke:#8E8D8D;stroke-width:0.2631;stroke-miterlimit:10;}
	.st33{fill:#A5A5A5;stroke:#D3D3D3;stroke-width:1.898;stroke-miterlimit:10;}
	.st34{fill:#887D83;}
	.st35{fill:#7F7F7F;}
	.st36{fill:#BF1A1F;stroke:#8C0303;stroke-width:1.8515;stroke-miterlimit:10;}
	.st37{fill:none;stroke:#8C0303;stroke-width:1.8515;stroke-miterlimit:10;}
	.st38{fill:#BF1A1F;stroke:#8C0303;stroke-width:1.8181;stroke-miterlimit:10;}
	.st39{fill:#BF1A1F;}
	.st40{fill:#7F0312;}
	.st41{fill:#A5A5A5;}
	.st42{fill:none;stroke:#2D2D2D;stroke-width:1.2081;stroke-miterlimit:10;}
	.st43{fill:#EDEDED;stroke:#000000;stroke-width:0.6041;stroke-miterlimit:10;}
	.st44{fill:#EDEDED;}
	.st45{fill:url(#SVGID_00000015322640415972276470000000220011708743337126_);}
	.st46{fill:#CECECE;stroke:#000000;stroke-width:0.6041;stroke-miterlimit:10;}
	.st47{fill:url(#SVGID_00000181799088076589296040000008471688380492512435_);}
	.st48{fill:url(#SVGID_00000041294742176942214710000014841338686334705580_);}
	.st49{fill:none;stroke:#727272;stroke-width:9.4382;stroke-miterlimit:10;}
	.st50{fill:none;stroke:#727272;stroke-width:6.4888;stroke-miterlimit:10;}
	.st51{fill:none;stroke:#727272;stroke-width:5.8989;stroke-miterlimit:10;}
	.st52{fill:none;stroke:#A5A5A5;stroke-width:10.8733;stroke-miterlimit:10;}
	.st53{fill:none;stroke:#A5A5A5;stroke-width:6.4888;stroke-miterlimit:10;}
	.st54{fill:none;stroke:#A5A5A5;stroke-width:5.8989;stroke-miterlimit:10;}
	.st55{fill:#636363;}
	.st56{fill:#232323;}
	.st57{fill:url(#SVGID_00000079466700933849596300000001118320395557282458_);}
	.st58{fill:url(#SVGID_00000139996841146794605620000013297894283180769175_);}
</style>
<g>
	<rect x="472.51" y="693.56" class="st0" width="175.2" height="7.86"/>
	<path class="st1" d="M784.2,710.23h-88.71c-7.68,0-15.32-1.03-22.72-3.07l-33.53-9.22c-2.15-0.59-3.64-2.54-3.64-4.77V454.14
		c0-6.36,5.16-11.52,11.52-11.53l361.91-0.29c0.12,0,0.24,0,0.35-0.01c1.71-0.09,16.4-0.63,20.37,8.47
		c2.99,6.82,27.76,85.77,30.3,93.87c0.14,0.45,0.23,0.91,0.27,1.37l7.77,93.81c0.02,0.22,0.03,0.44,0.02,0.66l-1.16,53.44
		c-0.03,1.28-0.44,2.52-1.18,3.56c-2.42,3.37-8.68,10.47-18.79,10.93C1033.68,709.02,784.2,710.23,784.2,710.23z"/>
	<path class="st2" d="M1033.38,464.07l-10.27,0.6c0,0-9.67,1.21-7.85,10.87c1.81,9.67,18.12,65.84,18.12,65.84s1.21,6.04,13.89,6.04
		h12.97l0.02-2.11L1034.34,464L1033.38,464.07z"/>
	<polyline class="st3" points="1041.85,705.62 1027.16,547.43 998.5,456.66 636.49,456.67 	"/>
	<line class="st3" x1="795.94" y1="455.38" x2="796.47" y2="640.77"/>
	<path class="st2" d="M907.58,467.57h73.38c5.47,0,10.26,3.64,11.73,8.91l16.25,58.33c1.53,5.51-2.61,10.96-8.32,10.96h-93.11
		c-4.16,0-7.52-3.39-7.49-7.55l0.5-63.66C900.56,470.69,903.71,467.57,907.58,467.57z"/>
	<path class="st2" d="M765.1,547.43h-38.94c-11.3,0-20.46-9.16-20.46-20.46v-38.94c0-11.3,9.16-20.46,20.46-20.46h38.94
		c11.3,0,20.46,9.16,20.46,20.46v38.94C785.57,538.27,776.4,547.43,765.1,547.43z"/>
	<path class="st2" d="M830,547.43h-1.69c-12.49,0-22.61-10.12-22.61-22.61v-34.64c0-12.49,10.12-22.61,22.61-22.61H830
		c12.49,0,22.61,10.12,22.61,22.61v34.64C852.61,537.31,842.49,547.43,830,547.43z"/>
	<polygon class="st4" points="999.83,504.45 907.66,545.16 963.09,545.16 1007.07,530.33 	"/>
	<linearGradient id="SVGID_1_" gradientUnits="userSpaceOnUse" x1="977.2709" y1="526.4374" x2="995.5468" y2="526.4374">
		<stop  offset="0.6531" style="stop-color:#020202"/>
		<stop  offset="0.8448" style="stop-color:#202020"/>
		<stop  offset="1" style="stop-color:#333333"/>
	</linearGradient>
	<path class="st5" d="M988.86,549.46h-4.89c-3.7,0-6.69-3-6.69-6.69v-32.66c0-3.7,3-6.69,6.69-6.69h4.89c3.7,0,6.69,3,6.69,6.69
		v32.66C995.55,546.46,992.55,549.46,988.86,549.46z"/>
	<polygon class="st6" points="1004.5,521.17 995.55,521.17 995.55,516.6 1003.22,516.6 	"/>
	<path class="st6" d="M1008.54,538.47h-13v-6.08h12.1l0.55,1.49C1008.73,535.35,1008.85,536.94,1008.54,538.47L1008.54,538.47z"/>
	<path class="st7" d="M1058.45,658.07l6.93-0.67c1.18-0.11,2.09-1.09,2.11-2.28l0.07-3.77c0.03-1.55,1.54-2.65,3.02-2.18l12.85,4.02
		c2.31,0.72,4,2.7,4.34,5.1l3.49,24.05c0.57,3.9-2.26,7.48-6.18,7.83l-20.03,1.81c-3.27,0.3-6.23-1.95-6.82-5.18l-4.19-22.87
		C1053.51,661.05,1055.55,658.35,1058.45,658.07z"/>
	<g>
		<rect x="861.02" y="521.34" class="st8" width="22.2" height="73.75"/>
		<rect x="861.02" y="526.35" class="st9" width="22.2" height="1.69"/>
		<rect x="861.02" y="530.06" class="st9" width="22.2" height="1.69"/>
		<rect x="861.02" y="533.78" class="st9" width="22.2" height="1.69"/>
		<rect x="861.02" y="537.5" class="st9" width="22.2" height="1.69"/>
		<rect x="861.02" y="541.22" class="st9" width="22.2" height="1.69"/>
		<rect x="861.02" y="544.93" class="st9" width="22.2" height="1.69"/>
		<rect x="861.02" y="548.65" class="st9" width="22.2" height="1.69"/>
		<rect x="861.02" y="552.37" class="st9" width="22.2" height="1.69"/>
		<rect x="861.02" y="556.08" class="st9" width="22.2" height="1.69"/>
		<rect x="861.02" y="559.8" class="st9" width="22.2" height="1.69"/>
		<rect x="861.02" y="563.52" class="st9" width="22.2" height="1.69"/>
		<rect x="861.02" y="567.24" class="st9" width="22.2" height="1.69"/>
		<rect x="861.02" y="570.95" class="st9" width="22.2" height="1.69"/>
		<rect x="861.02" y="574.67" class="st9" width="22.2" height="1.69"/>
		<rect x="861.02" y="578.39" class="st9" width="22.2" height="1.69"/>
		<rect x="861.02" y="582.1" class="st9" width="22.2" height="1.69"/>
		<rect x="861.02" y="585.82" class="st9" width="22.2" height="1.69"/>
		<rect x="861.02" y="589.54" class="st9" width="22.2" height="1.69"/>
	</g>
	<polygon class="st4" points="785,480.48 706.36,515.81 706.19,535.66 785,501.13 	"/>
	<path class="st4" d="M951.18,468.15l-50.17,22.48l-0.16,19.88l88.51-38.74l0,0c-2.21-2.31-5.27-3.62-8.46-3.62H951.18z"/>
	<path class="st4" d="M851.93,479.79l-45.64,20.22v19.79l45.64-19.36C851.93,500.44,852.15,481.33,851.93,479.79z"/>
	<path class="st4" d="M785,506.05l-77.19,34.83v0c1.4,2.57,4.25,4.82,7.29,5.57l1.79,0.38L785,514.66V506.05z"/>
	<path class="st4" d="M852.03,520.55l-43.79,20.08c1.42,2.45,4.66,5.32,8.81,5.99l0.34,0.08l34.64-17.54V520.55z"/>
	<path class="st4" d="M846.11,470.25l-39.82,16.25v9.89l44.79-20.03c-0.15-0.64-1.37-2.57-1.37-2.57
		C848.35,471.65,846.15,470.4,846.11,470.25z"/>
	<polygon class="st4" points="992.61,478.47 900.74,519.44 900.71,528.04 994.64,485.84 	"/>
	<path class="st4" d="M1053.85,526.96l-19.35,15.4l0,0c0.86,1.39,2.3,2.31,3.88,3l0.61,0.22l16.62-13.2L1053.85,526.96z"/>
	<polygon class="st4" points="1032.93,464.7 1016.31,477.61 1017.89,483.98 1035.78,470.54 1033.9,464.63 	"/>
	<polygon class="st10" points="642.04,661.09 1034.39,661.09 1032.21,637.76 642.04,637.76 	"/>
	<g>
		<g>
			
				<linearGradient id="SVGID_00000028302034422459438820000014030184049208779192_" gradientUnits="userSpaceOnUse" x1="859.9162" y1="750.3541" x2="859.9958" y2="606.8983">
				<stop  offset="0.3751" style="stop-color:#020202"/>
				<stop  offset="0.5441" style="stop-color:#090909"/>
				<stop  offset="0.7956" style="stop-color:#1E1E1E"/>
				<stop  offset="1" style="stop-color:#333333"/>
				<stop  offset="1" style="stop-color:#67B1EE"/>
			</linearGradient>
			<path style="fill:url(#SVGID_00000028302034422459438820000014030184049208779192_);" d="M788.21,712.11l1.14-39.04
				c0,0,2.28-38.88,32.17-53.07c3.17-1.5,6.63-2.28,10.12-2.28h58.65c7.06,0,10.97,2.71,13.65,4.34
				c11.97,7.29,27.74,26.44,27.74,47.22c0,27.97,0,42.82,0,42.82"/>
			<path d="M785.62,712.04c-0.12-6-0.17-11.99-0.24-17.99l-0.1-9l-0.04-9l-0.01-2.25l0-0.56l0-0.28l0.02-0.41l0.08-1.24
				c0.12-1.61,0.29-3.17,0.51-4.73c0.43-3.12,1.02-6.21,1.78-9.28c0.76-3.06,1.67-6.1,2.78-9.09c1.12-2.98,2.41-5.92,3.92-8.78
				c3.02-5.7,6.87-11.13,11.73-15.72c2.41-2.3,5.06-4.39,7.88-6.21c1.41-0.91,2.87-1.76,4.36-2.53c0.7-0.38,1.61-0.81,2.46-1.17
				c0.87-0.36,1.75-0.69,2.65-0.96c1.8-0.56,3.65-0.94,5.53-1.13c0.93-0.1,1.9-0.15,2.8-0.17l2.24-0.04l8.98-0.17l17.96-0.18
				c5.98,0.02,11.97-0.03,17.96,0.04l8.98,0.08l2.24,0.02l1.34,0.04c0.46,0.01,0.94,0.05,1.4,0.09c1.88,0.17,3.79,0.52,5.66,1.08
				c1.87,0.55,3.68,1.34,5.32,2.23c0.81,0.44,1.59,0.9,2.28,1.34l0.95,0.61l1.06,0.69c2.89,1.92,5.44,4.05,7.8,6.35
				c4.69,4.6,8.7,9.72,11.96,15.33c3.25,5.61,5.81,11.68,7.23,18.12c0.71,3.22,1.13,6.52,1.21,9.85c0.01,0.82,0,1.69-0.01,2.48
				l-0.08,2.24l-0.15,4.49c-0.39,11.97-0.85,23.94-1.42,35.91c-0.08,1.64-1.48,2.91-3.12,2.83c-1.54-0.07-2.75-1.32-2.83-2.83
				c-0.58-11.97-1.03-23.94-1.42-35.91l-0.15-4.49l-0.08-2.24l-0.12-2.01c-0.24-2.65-0.75-5.29-1.49-7.87
				c-1.49-5.18-3.96-10.13-7-14.69c-1.54-2.27-3.22-4.46-5.01-6.54c-1.81-2.06-3.72-4.03-5.75-5.8c-2.03-1.77-4.15-3.42-6.29-4.74
				l-1.79-1.07c-0.59-0.34-1.11-0.63-1.62-0.89c-1.01-0.5-1.97-0.88-2.98-1.14c-1.01-0.26-2.06-0.42-3.16-0.49
				c-0.28-0.01-0.55-0.04-0.84-0.04l-0.9-0.01l-2.24,0.02l-8.98,0.08c-5.99,0.07-11.97,0.02-17.96,0.04l-17.96-0.18l-8.98-0.17
				l-2.24-0.04c-0.6-0.01-1.12,0-1.68,0.03c-1.11,0.07-2.2,0.25-3.28,0.52c-0.54,0.13-1.07,0.3-1.6,0.49
				c-0.54,0.2-0.99,0.38-1.63,0.68c-1.2,0.54-2.36,1.15-3.49,1.81c-2.27,1.31-4.43,2.85-6.43,4.58c-4.02,3.47-7.48,7.71-10.32,12.44
				c-1.42,2.37-2.69,4.85-3.81,7.41c-1.13,2.56-2.14,5.2-2.99,7.9c-0.86,2.7-1.58,5.46-2.15,8.23c-0.28,1.39-0.53,2.79-0.73,4.16
				l-0.13,1l-0.02,0.15l-0.02,0.28l-0.03,0.56l-0.14,2.24l-0.56,8.95l-0.62,8.95c-0.41,5.97-0.82,11.93-1.28,17.9
				c-0.11,1.43-1.36,2.5-2.79,2.39C786.67,714.47,785.65,713.36,785.62,712.04z"/>
		</g>
	</g>
	<g>
		
			<ellipse transform="matrix(0.7071 -0.7071 0.7071 0.7071 -242.3741 811.4072)" class="st12" cx="858.27" cy="698.27" rx="57.86" ry="57.86"/>
		
			<ellipse transform="matrix(0.1602 -0.9871 0.9871 0.1602 34.1142 1436.6464)" class="st13" cx="861.34" cy="698.27" rx="57.86" ry="57.86"/>
		
			<ellipse transform="matrix(0.7071 -0.7071 0.7071 0.7071 -240.9072 814.9485)" class="st14" cx="863.28" cy="698.27" rx="33.21" ry="33.21"/>
		<ellipse class="st15" cx="862.89" cy="698.27" rx="28.06" ry="27.81"/>
		
			<ellipse transform="matrix(0.8507 -0.5257 0.5257 0.8507 -238.2791 558.1671)" class="st16" cx="863.28" cy="698.47" rx="19.11" ry="19.11"/>
		
			<ellipse transform="matrix(0.7071 -0.7071 0.7071 0.7071 -240.9072 814.9485)" class="st17" cx="863.28" cy="698.27" rx="11.33" ry="11.33"/>
		<path d="M859.94,683.84c0-1.21-0.98-2.2-2.2-2.2c-1.21,0-2.2,0.98-2.2,2.2c0,1.21,0.98,2.2,2.2,2.2
			C858.95,686.04,859.94,685.06,859.94,683.84z"/>
		<path d="M850.3,679.27c0-1.21-0.98-2.2-2.2-2.2c-1.21,0-2.2,0.98-2.2,2.2s0.98,2.2,2.2,2.2
			C849.32,681.46,850.3,680.48,850.3,679.27z"/>
		<path d="M865.55,675.37c0.78-0.93,0.66-2.31-0.27-3.09c-0.93-0.78-2.31-0.66-3.09,0.27c-0.78,0.93-0.66,2.31,0.27,3.09
			C863.39,676.42,864.77,676.3,865.55,675.37z"/>
		<path d="M879.74,682.19c1.19-0.21,1.99-1.35,1.78-2.54c-0.21-1.19-1.35-1.99-2.54-1.78c-1.19,0.21-1.99,1.35-1.78,2.54
			C877.41,681.61,878.55,682.41,879.74,682.19z"/>
		<path d="M886.23,696.54c1.05,0.61,2.39,0.25,3-0.8s0.25-2.39-0.8-3c-1.05-0.61-2.39-0.25-3,0.8
			C884.81,694.59,885.17,695.93,886.23,696.54z"/>
		<path d="M881.97,711.7c0.41,1.14,1.68,1.73,2.82,1.31c1.14-0.41,1.73-1.68,1.31-2.82c-0.41-1.14-1.68-1.73-2.82-1.31
			S881.56,710.56,881.97,711.7z"/>
		<path d="M868.97,720.57c-0.41,1.14,0.17,2.4,1.31,2.82c1.14,0.41,2.4-0.17,2.82-1.31c0.41-1.14-0.17-2.4-1.31-2.82
			C870.65,718.85,869.39,719.43,868.97,720.57z"/>
		<path d="M853.3,719.02c-1.05,0.61-1.41,1.95-0.8,3c0.61,1.05,1.95,1.41,3,0.8c1.05-0.61,1.41-1.95,0.8-3
			C855.7,718.77,854.36,718.41,853.3,719.02z"/>
		<path d="M842.3,707.75c-1.19-0.21-2.33,0.59-2.54,1.78c-0.21,1.19,0.59,2.33,1.78,2.54c1.19,0.21,2.33-0.59,2.54-1.78
			S843.5,707.97,842.3,707.75z"/>
		<path d="M841.12,692.06c-0.78-0.93-2.17-1.05-3.09-0.27c-0.93,0.78-1.05,2.17-0.27,3.09s2.17,1.05,3.09,0.27
			C841.78,694.37,841.9,692.99,841.12,692.06z"/>
		<path d="M870,685.07c0.78-0.93,0.66-2.31-0.27-3.09c-0.93-0.78-2.31-0.66-3.09,0.27s-0.66,2.31,0.27,3.09
			C867.83,686.12,869.22,686,870,685.07z"/>
		<path d="M876.91,692.48c1.19-0.21,1.99-1.35,1.78-2.54c-0.21-1.19-1.35-1.99-2.54-1.78c-1.19,0.21-1.99,1.35-1.78,2.54
			C874.58,691.89,875.71,692.69,876.91,692.48z"/>
		<path d="M877.44,702.6c1.05,0.61,2.39,0.25,3-0.8c0.61-1.05,0.25-2.39-0.8-3c-1.05-0.61-2.39-0.25-3,0.8
			C876.03,700.65,876.39,701.99,877.44,702.6z"/>
		<path d="M871.35,710.69c0.41,1.14,1.68,1.73,2.82,1.31c1.14-0.41,1.73-1.68,1.31-2.82s-1.68-1.73-2.82-1.31
			C871.52,708.29,870.93,709.55,871.35,710.69z"/>
		<path d="M861.48,712.98c-0.41,1.14,0.17,2.4,1.31,2.82c1.14,0.41,2.4-0.17,2.82-1.31c0.41-1.14-0.17-2.4-1.31-2.82
			S861.89,711.84,861.48,712.98z"/>
		<path d="M852.45,708.38c-1.05,0.61-1.41,1.95-0.8,3s1.95,1.41,3,0.8c1.05-0.61,1.41-1.95,0.8-3
			C854.84,708.14,853.5,707.78,852.45,708.38z"/>
		<path d="M848.48,699.06c-1.19-0.21-2.33,0.59-2.54,1.78c-0.21,1.19,0.59,2.33,1.78,2.54c1.19,0.21,2.33-0.59,2.54-1.78
			C850.48,700.41,849.68,699.27,848.48,699.06z"/>
		<path d="M851.44,689.37c-0.78-0.93-2.17-1.05-3.09-0.27c-0.93,0.78-1.05,2.17-0.27,3.09c0.78,0.93,2.17,1.05,3.09,0.27
			C852.1,691.68,852.22,690.3,851.44,689.37z"/>
	</g>
	<line class="st18" x1="892.57" y1="459.99" x2="892.57" y2="611.45"/>
	<polygon class="st18" points="685.65,684.95 686.75,468.27 644.42,468.27 644.42,684.86 	"/>
	<path class="st19" d="M829.69,573.97h-18.47c-3.05,0-5.52-0.19-5.52-3.24l0,0c0-3.05,2.47-5.52,5.52-5.52h18.47
		c3.05,0,5.52,2.47,5.52,5.52l0,0C835.22,573.78,832.74,573.97,829.69,573.97z"/>
	<path class="st19" d="M924.03,573.97h-18.47c-3.05,0-5.52-0.19-5.52-3.24l0,0c0-3.05,2.47-5.52,5.52-5.52h18.47
		c3.05,0,5.52,2.47,5.52,5.52l0,0C929.55,573.78,927.08,573.97,924.03,573.97z"/>
	<path class="st19" d="M717.05,573.97h-18.47c-3.05,0-5.52-0.19-5.52-3.24l0,0c0-3.05,2.47-5.52,5.52-5.52h18.47
		c3.05,0,5.52,2.47,5.52,5.52l0,0C722.58,573.78,720.1,573.97,717.05,573.97z"/>
	<rect x="941.17" y="661.09" class="st20" width="8.26" height="54.48"/>
	<rect x="1005.14" y="661.07" class="st20" width="8.26" height="54.5"/>
	<rect x="941.17" y="661.09" width="8.26" height="2.3"/>
	<rect x="1005.14" y="661.07" width="8.26" height="2.3"/>
	<rect x="949.44" y="671.03" class="st21" width="55.71" height="6.24"/>
	<rect x="949.43" y="704.24" class="st21" width="55.71" height="6.74"/>
	<rect x="949.45" y="664.62" class="st20" width="55.68" height="6.38"/>
	<rect x="949.45" y="696.21" class="st20" width="55.68" height="6.38"/>
	<rect x="949.45" y="677.29" class="st22" width="55.68" height="4.15"/>
	<rect x="949.43" y="711.12" width="55.71" height="1.65"/>
	<rect x="949.43" y="702.59" width="55.71" height="1.65"/>
	<rect x="701.37" y="661.09" class="st20" width="8.26" height="54.48"/>
	<rect x="765.33" y="661.07" class="st20" width="8.26" height="54.5"/>
	<rect x="701.37" y="661.09" width="8.26" height="2.3"/>
	<rect x="765.33" y="661.07" width="8.26" height="2.3"/>
	<rect x="709.64" y="671.03" class="st21" width="55.71" height="6.24"/>
	<rect x="709.63" y="704.24" class="st21" width="55.71" height="6.74"/>
	<rect x="709.65" y="664.62" class="st20" width="55.68" height="6.38"/>
	<rect x="709.65" y="696.21" class="st20" width="55.68" height="6.38"/>
	<rect x="709.65" y="677.29" class="st22" width="55.68" height="4.15"/>
	<rect x="709.63" y="711.12" width="55.71" height="1.65"/>
	<rect x="709.63" y="702.59" width="55.71" height="1.65"/>
	<rect x="478.42" y="456.33" class="st1" width="155.78" height="237.24"/>
	<path class="st23" d="M621.81,701.42H490.61c-6.3,0-11.4-5.1-11.4-11.4V589.24c0-6.3,5.1-11.4,11.4-11.4h131.21
		c6.3,0,11.4,5.1,11.4,11.4v100.78C633.21,696.32,628.11,701.42,621.81,701.42z"/>
	<rect x="479.21" y="679.33" class="st24" width="154.01" height="9.49"/>
	<rect x="479.21" y="688.82" class="st25" width="154.01" height="4.22"/>
	<rect x="586.16" y="581.27" class="st26" width="41.12" height="98.06"/>
	<rect x="586.16" y="619.64" class="st27" width="41.12" height="23.33"/>
	
		<ellipse transform="matrix(0.0799 -0.9968 0.9968 0.0799 -128.9574 1168.342)" class="st27" cx="568.37" cy="654.02" rx="10.9" ry="10.9"/>
	
		<ellipse transform="matrix(0.2153 -0.9765 0.9765 0.2153 -192.6947 1068.234)" class="st26" cx="568.37" cy="654.02" rx="8.74" ry="8.74"/>
	
		<ellipse transform="matrix(0.3094 -0.9509 0.9509 0.3094 -249.1925 964.9218)" class="st27" cx="539.72" cy="654.02" rx="10.9" ry="10.9"/>
	
		<ellipse transform="matrix(0.6376 -0.7704 0.7704 0.6376 -308.2422 652.8568)" class="st26" cx="539.72" cy="654.02" rx="8.74" ry="8.74"/>
	<path class="st28" d="M514.72,664.57h-26.58l1.03-6.46l1.15-7.29l0.8-5.01l0.08-0.5l1.08-6.79l0.08-0.5l0.88-5.52l1.15-7.29
		l0.62-3.87c0,0,0.61-6.06,6.54-6.06c0,0,6.49-0.33,6.95,5.53l0.63,4.4l1.03,7.29l0.79,5.52l0.07,0.5l0.97,6.79l0.07,0.5l0.71,5.01
		l1.04,7.29L514.72,664.57z"/>
	<polygon points="513.81,658.11 489.17,658.11 490.33,650.82 512.77,650.82 	"/>
	<polygon points="511.98,645.3 491.2,645.3 492.28,638.51 492.36,638.01 510.94,638.01 511.02,638.51 	"/>
	<polygon points="510.16,632.5 493.23,632.5 494.39,625.2 509.12,625.2 	"/>
	<rect x="482.87" y="664.57" class="st28" width="38.05" height="2.42"/>
	<rect x="482.87" y="669.4" class="st28" width="38.05" height="2.42"/>
	<rect x="482.87" y="674.23" class="st28" width="38.05" height="2.42"/>
	<rect x="482.87" y="666.98" class="st29" width="38.05" height="2.42"/>
	<rect x="482.87" y="676.65" class="st29" width="38.05" height="2.42"/>
	<rect x="482.87" y="671.81" class="st29" width="38.05" height="2.42"/>
	<g>
		
			<ellipse transform="matrix(0.6538 -0.7566 0.7566 0.6538 -278.2631 580.9208)" class="st30" cx="495.75" cy="594.57" rx="10.06" ry="10.06"/>
		<path class="st21" d="M495.75,585.41c-5.06,0-9.16,4.1-9.16,9.16s4.1,9.16,9.16,9.16c5.06,0,9.16-4.1,9.16-9.16
			S500.8,585.41,495.75,585.41z M495.75,602.29c-4.26,0-7.72-3.45-7.72-7.72s3.45-7.72,7.72-7.72c4.26,0,7.72,3.45,7.72,7.72
			S500.01,602.29,495.75,602.29z"/>
		<path class="st21" d="M497,594.71c0,0.69-0.56,1.25-1.25,1.25c-0.69,0-1.25-0.56-1.25-1.25s0.56-1.25,1.25-1.25
			C496.44,593.46,497,594.02,497,594.71z"/>
		<polygon class="st21" points="495.37,593.52 499.58,592.71 496.53,595.69 		"/>
	</g>
	<g>
		<circle class="st31" cx="533" cy="594.2" r="5.97"/>
		<path class="st21" d="M533,588.76c-3.01,0-5.44,2.44-5.44,5.44c0,3.01,2.44,5.44,5.44,5.44c3.01,0,5.44-2.44,5.44-5.44
			C538.45,591.2,536.01,588.76,533,588.76z M533,598.78c-2.53,0-4.58-2.05-4.58-4.58c0-2.53,2.05-4.58,4.58-4.58
			c2.53,0,4.58,2.05,4.58,4.58C537.59,596.73,535.54,598.78,533,598.78z"/>
		<path class="st21" d="M533.75,594.29c0,0.41-0.33,0.74-0.74,0.74c-0.41,0-0.74-0.33-0.74-0.74s0.33-0.74,0.74-0.74
			C533.41,593.54,533.75,593.88,533.75,594.29z"/>
		<polygon class="st21" points="532.78,593.58 535.28,593.1 533.47,594.87 		"/>
	</g>
	<g>
		
			<ellipse transform="matrix(0.7071 -0.7071 0.7071 0.7071 -268.7998 539.4617)" class="st31" cx="516.79" cy="594.2" rx="5.97" ry="5.97"/>
		<path class="st21" d="M516.79,588.76c-3.01,0-5.44,2.44-5.44,5.44c0,3.01,2.44,5.44,5.44,5.44c3.01,0,5.44-2.44,5.44-5.44
			C522.23,591.2,519.79,588.76,516.79,588.76z M516.79,598.78c-2.53,0-4.58-2.05-4.58-4.58c0-2.53,2.05-4.58,4.58-4.58
			c2.53,0,4.58,2.05,4.58,4.58C521.37,596.73,519.32,598.78,516.79,598.78z"/>
		<path class="st21" d="M517.29,593.61c0.38,0.17,0.54,0.61,0.38,0.98c-0.17,0.38-0.61,0.54-0.98,0.38
			c-0.38-0.17-0.54-0.61-0.38-0.98C516.48,593.61,516.92,593.44,517.29,593.61z"/>
		<polygon class="st21" points="516.25,594.2 516.83,591.72 517.71,594.1 		"/>
	</g>
	<g>
		
			<ellipse transform="matrix(0.39 -0.9208 0.9208 0.39 -199.9461 887.3213)" class="st30" cx="569.73" cy="594.57" rx="10.06" ry="10.06"/>
		<path class="st21" d="M569.73,585.41c-5.06,0-9.16,4.1-9.16,9.16s4.1,9.16,9.16,9.16s9.16-4.1,9.16-9.16
			S574.79,585.41,569.73,585.41z M569.73,602.29c-4.26,0-7.72-3.45-7.72-7.72s3.45-7.72,7.72-7.72c4.26,0,7.72,3.45,7.72,7.72
			S573.99,602.29,569.73,602.29z"/>
		<path class="st21" d="M570.1,593.58c0.69,0,1.25,0.56,1.25,1.25s-0.56,1.25-1.25,1.25c-0.69,0-1.25-0.56-1.25-1.25
			C568.85,594.14,569.41,593.58,570.1,593.58z"/>
		<polygon class="st21" points="568.91,595.2 568.1,591 571.08,594.04 		"/>
	</g>
	<g>
		
			<ellipse transform="matrix(0.1611 -0.9869 0.9869 0.1611 -126.266 1039.8568)" class="st32" cx="548.53" cy="594.2" rx="5.84" ry="5.84"/>
		<path class="st21" d="M548.53,588.88c-2.94,0-5.32,2.38-5.32,5.32c0,2.94,2.38,5.32,5.32,5.32c2.94,0,5.32-2.38,5.32-5.32
			C553.85,591.26,551.47,588.88,548.53,588.88z M548.53,598.68c-2.48,0-4.48-2.01-4.48-4.48c0-2.48,2.01-4.48,4.48-4.48
			c2.48,0,4.48,2.01,4.48,4.48C553.01,596.68,551.01,598.68,548.53,598.68z"/>
		<path class="st21" d="M548.75,593.62c0.4,0,0.73,0.32,0.73,0.73c0,0.4-0.32,0.73-0.73,0.73c-0.4,0-0.73-0.32-0.73-0.73
			C548.02,593.95,548.35,593.62,548.75,593.62z"/>
		<polygon class="st21" points="548.06,594.57 547.59,592.13 549.32,593.9 		"/>
	</g>
	<path class="st33" d="M601.28,575.97h-89.72c-15.19,0-27.5-12.31-27.5-27.5v-59.89c0-15.19,12.31-27.5,27.5-27.5h89.72
		c15.19,0,27.5,12.31,27.5,27.5v59.89C628.77,563.66,616.46,575.97,601.28,575.97z"/>
	<g>
		<rect x="594.14" y="516.62" class="st26" width="21.16" height="29.87"/>
		<rect x="594.14" y="520.88" width="21.16" height="3.78"/>
		<path class="st26" d="M594.14,504.98v-4.49l6.03-7.37c0.42-0.51,1.24-1.02,1.81-1.02h4.76c0.49,0,1.03,0.42,1.36,0.79l7.2,8v3.93
			L594.14,504.98z"/>
		<polygon class="st34" points="615.3,516.62 594.14,516.62 594.14,504.98 615.3,504.73 		"/>
		<polygon class="st35" points="605.22,490.18 603.03,490.23 603.03,489.6 605.22,489.6 		"/>
		<path class="st26" d="M600.36,492.92c0,0,1.08-1.18,2.03-2.26c0.23-0.26,0.52-0.46,0.87-0.46l1.95-0.02
			c0.35,0,0.68,0.15,0.89,0.42c0.58,0.72,1.66,1.93,2.04,2.32"/>
		<path d="M607.48,488.37l9.58,3.25c0,0,1.9,0.54,1.19,2.64c-0.67,1.97-3.87,0.18-3.87,0.18l-8.57-3.65c0,0-1.32-0.46-0.53-2.09
			C605.78,487.67,607.48,488.37,607.48,488.37z"/>
		<path d="M604.74,487.79c0,0-0.46-1.68,1.56-2.2c2.29-0.59,9.84-1.74,9.84-1.74s1.74-0.23,1.82,2.02c0.08,2.21-3.65,2.26-3.65,2.26
			l-8.46,0.64C605.86,488.78,604.9,489.02,604.74,487.79z"/>
		<path class="st18" d="M605.28,488.7h-6.19c0,0-8.48,0-8.64,13.63c-0.08,6.86-0.1,27.92-0.1,27.92"/>
		<path d="M592.24,544.28h-3.77c-0.4,0-0.72-0.33-0.7-0.73l0.62-13.14c0.02-0.37,0.32-0.66,0.7-0.66h2.45c0.37,0,0.68,0.29,0.7,0.66
			l0.7,13.14C592.95,543.95,592.64,544.28,592.24,544.28z"/>
	</g>
	<g>
		
			<ellipse transform="matrix(0.7071 -0.7071 0.7071 0.7071 -198.6657 527.5937)" class="st36" cx="537.53" cy="503.61" rx="37.3" ry="37.3"/>
		
			<ellipse transform="matrix(0.1857 -0.9826 0.9826 0.1857 -57.1511 938.2494)" class="st37" cx="537.53" cy="503.61" rx="32.77" ry="32.77"/>
		
			<ellipse transform="matrix(0.1768 -0.9843 0.9843 0.1768 -53.1583 943.6603)" class="st37" cx="537.53" cy="503.61" rx="26.97" ry="26.97"/>
		
			<ellipse transform="matrix(0.7071 -0.7071 0.7071 0.7071 -198.6657 527.5937)" class="st37" cx="537.53" cy="503.61" rx="20.43" ry="20.43"/>
		
			<ellipse transform="matrix(0.5189 -0.8548 0.8548 0.5189 -171.9007 701.7676)" class="st37" cx="537.53" cy="503.61" rx="13" ry="13"/>
		<ellipse transform="matrix(0.7071 -0.7071 0.7071 0.7071 -198.6657 527.5937)" cx="537.53" cy="503.61" rx="8.17" ry="8.17"/>
		<path class="st38" d="M502.96,529.84h-0.93c-0.99,0-1.8-0.81-1.8-1.8v-21.71c0-0.99,0.81-1.8,1.8-1.8h0.93
			c0.99,0,1.8,0.81,1.8,1.8v21.71C504.76,529.03,503.95,529.84,502.96,529.84z"/>
		<polygon class="st39" points="503.84,505.68 501.14,505.68 501.15,503.1 503.82,503.1 		"/>
		<path d="M505.74,530.8h-6.49c-0.45,0-0.81-0.36-0.81-0.81v-0.3c0-0.45,0.36-0.81,0.81-0.81h6.49c0.45,0,0.81,0.36,0.81,0.81v0.3
			C506.55,530.44,506.18,530.8,505.74,530.8z"/>
		<path class="st34" d="M506.86,532.72h-8.94c-0.53,0-0.96-0.43-0.96-0.96l0,0c0-0.53,0.43-0.96,0.96-0.96h8.94
			c0.53,0,0.96,0.43,0.96,0.96l0,0C507.82,532.29,507.39,532.72,506.86,532.72z"/>
		<path class="st40" d="M506.49,543.21c0,0,3.31-0.2,3.97,1.25l6.91-3.56c0,0,2.41-1.29,3.39,0.43s-1.09,3.53-1.09,3.53l-13.05,6.69
			L506.49,543.21z"/>
		<rect x="498.44" y="532.72" width="8.42" height="20.97"/>
		<rect x="499.48" y="553.69" width="6.06" height="8.26"/>
		<path class="st40" d="M508.28,570.01c0.46,0.79-0.11,1.77-1.02,1.78l-4.61,0.01l-4.61,0.01c-0.91,0-1.48-0.98-1.03-1.77l2.47-8.09
			h6.06L508.28,570.01z"/>
		<path d="M498.2,545.73l-4.96-1.67c-0.62-0.21-0.95-0.88-0.75-1.5l0,0c0.21-0.62,0.88-0.95,1.5-0.75l4.96,1.67
			c0.62,0.21,0.95,0.88,0.75,1.5l0,0C499.49,545.61,498.82,545.94,498.2,545.73z"/>
	</g>
	<path class="st1" d="M457.16,704.3H62.81c-11.21,0-20.29-9.08-20.29-20.29V466.79c0-11.21,9.08-20.29,20.29-20.29h394.35
		c11.21,0,20.29,9.08,20.29,20.29V684C477.45,695.21,468.37,704.3,457.16,704.3z"/>
	<rect x="43.29" y="459.94" class="st41" width="433.31" height="10.68"/>
	<polygon class="st10" points="43.22,654.08 476.4,654.08 476.46,630.75 43.22,630.75 	"/>
	<rect x="43.29" y="579.75" class="st41" width="433.09" height="10.68"/>
	<line class="st42" x1="154.81" y1="590.42" x2="154.81" y2="701.4"/>
	<line class="st42" x1="272.12" y1="470.62" x2="272.12" y2="579.75"/>
	<line class="st42" x1="384.67" y1="590.42" x2="384.67" y2="703.24"/>
	<path class="st41" d="M179.33,621.53h-9.4v-27.59h9.4c7.62,0,13.79,6.18,13.79,13.79l0,0
		C193.12,615.35,186.95,621.53,179.33,621.53z"/>
	<path class="st41" d="M364.41,621.53h9.4v-27.59h-9.4c-7.62,0-13.79,6.18-13.79,13.79l0,0
		C350.62,615.35,356.8,621.53,364.41,621.53z"/>
	<g>
		
			<ellipse transform="matrix(0.7071 -0.7071 0.7071 0.7071 -280.5436 425.2654)" class="st43" cx="373.07" cy="551.28" rx="12.78" ry="12.78"/>
		<circle class="st23" cx="373.07" cy="551.28" r="9.36"/>
		
			<rect x="363.67" y="550.15" transform="matrix(0.9053 -0.4247 0.4247 0.9053 -198.8023 210.6146)" class="st44" width="18.8" height="2.26"/>
	</g>
	<g>
		
			<ellipse transform="matrix(0.7071 -0.7071 0.7071 0.7071 -346.2789 266.8346)" class="st43" cx="148.96" cy="551.41" rx="12.78" ry="12.78"/>
		<circle class="st23" cx="148.96" cy="551.41" r="9.36"/>
		
			<rect x="139.56" y="550.28" transform="matrix(0.9053 -0.4247 0.4247 0.9053 -220.0723 115.4529)" class="st44" width="18.8" height="2.26"/>
	</g>
	<g>
		<g>
			
				<linearGradient id="SVGID_00000091708920265492537140000015692952907664311944_" gradientUnits="userSpaceOnUse" x1="275.4354" y1="750.3541" x2="275.515" y2="606.8983">
				<stop  offset="0.3751" style="stop-color:#020202"/>
				<stop  offset="0.5441" style="stop-color:#090909"/>
				<stop  offset="0.7956" style="stop-color:#1E1E1E"/>
				<stop  offset="1" style="stop-color:#333333"/>
				<stop  offset="1" style="stop-color:#67B1EE"/>
			</linearGradient>
			<path style="fill:url(#SVGID_00000091708920265492537140000015692952907664311944_);" d="M203.73,712.11l1.14-39.04
				c0,0,2.28-38.88,32.17-53.07c3.17-1.5,6.63-2.28,10.12-2.28h58.65c7.06,0,10.97,2.71,13.65,4.34
				c11.97,7.29,27.74,26.44,27.74,47.22c0,27.97,0,42.82,0,42.82"/>
			<path d="M201.14,712.04c-0.12-6-0.17-11.99-0.24-17.99l-0.1-9l-0.04-9l-0.01-2.25l0-0.56l0-0.28l0.02-0.41l0.08-1.24
				c0.12-1.61,0.29-3.17,0.51-4.73c0.43-3.12,1.02-6.21,1.78-9.28c0.76-3.06,1.67-6.1,2.78-9.09c1.12-2.98,2.41-5.92,3.92-8.78
				c3.02-5.7,6.87-11.13,11.73-15.72c2.41-2.3,5.06-4.39,7.88-6.21c1.41-0.91,2.87-1.76,4.36-2.53c0.7-0.38,1.61-0.81,2.46-1.17
				c0.87-0.36,1.75-0.69,2.65-0.96c1.8-0.56,3.65-0.94,5.53-1.13c0.93-0.1,1.9-0.15,2.8-0.17l2.24-0.04l8.98-0.17l17.96-0.18
				c5.98,0.02,11.97-0.03,17.96,0.04l8.98,0.08l2.24,0.02l1.34,0.04c0.46,0.01,0.94,0.05,1.4,0.09c1.88,0.17,3.79,0.52,5.66,1.08
				c1.87,0.55,3.68,1.34,5.32,2.23c0.81,0.44,1.59,0.9,2.28,1.34l0.95,0.61l1.06,0.69c2.89,1.92,5.44,4.05,7.8,6.35
				c4.69,4.6,8.7,9.72,11.96,15.33c3.25,5.61,5.81,11.68,7.23,18.12c0.71,3.22,1.13,6.52,1.21,9.85c0.01,0.82,0,1.69-0.01,2.48
				l-0.08,2.24l-0.15,4.49c-0.39,11.97-0.85,23.94-1.42,35.91c-0.08,1.64-1.48,2.91-3.12,2.83c-1.54-0.07-2.75-1.32-2.83-2.83
				c-0.58-11.97-1.03-23.94-1.42-35.91l-0.15-4.49l-0.08-2.24l-0.12-2.01c-0.24-2.65-0.75-5.29-1.49-7.87
				c-1.49-5.18-3.96-10.13-7-14.69c-1.54-2.27-3.22-4.46-5.01-6.54c-1.81-2.06-3.72-4.03-5.75-5.8c-2.03-1.77-4.15-3.42-6.29-4.74
				l-1.79-1.07c-0.59-0.34-1.11-0.63-1.62-0.89c-1.01-0.5-1.97-0.88-2.98-1.14c-1.01-0.26-2.06-0.42-3.16-0.49
				c-0.28-0.01-0.55-0.04-0.84-0.04l-0.9-0.01l-2.24,0.02l-8.98,0.08c-5.99,0.07-11.97,0.02-17.96,0.04l-17.96-0.18l-8.98-0.17
				l-2.24-0.04c-0.6-0.01-1.12,0-1.68,0.03c-1.11,0.07-2.2,0.25-3.28,0.52c-0.54,0.13-1.07,0.3-1.6,0.49
				c-0.54,0.2-0.99,0.38-1.63,0.68c-1.2,0.54-2.36,1.15-3.49,1.81c-2.27,1.31-4.43,2.85-6.43,4.58c-4.02,3.47-7.48,7.71-10.32,12.44
				c-1.42,2.37-2.69,4.85-3.81,7.41c-1.13,2.56-2.14,5.2-2.99,7.9c-0.86,2.7-1.58,5.46-2.15,8.23c-0.28,1.39-0.53,2.79-0.73,4.16
				l-0.13,1l-0.02,0.15l-0.02,0.28l-0.03,0.56l-0.14,2.24l-0.56,8.95l-0.62,8.95c-0.41,5.97-0.82,11.93-1.28,17.9
				c-0.11,1.43-1.36,2.5-2.79,2.39C202.19,714.47,201.17,713.36,201.14,712.04z"/>
		</g>
	</g>
	<g>
		
			<ellipse transform="matrix(0.1581 -0.9874 0.9874 0.1581 -458.9902 858.2272)" class="st12" cx="273.79" cy="698.27" rx="57.86" ry="57.86"/>
		
			<ellipse transform="matrix(0.158 -0.9874 0.9874 0.158 -456.381 861.3502)" class="st13" cx="276.86" cy="698.27" rx="57.86" ry="57.86"/>
		
			<ellipse transform="matrix(0.8976 -0.4409 0.4409 0.8976 -279.2987 194.4439)" class="st14" cx="278.8" cy="698.27" rx="33.21" ry="33.21"/>
		<ellipse class="st15" cx="278.41" cy="698.27" rx="28.06" ry="27.81"/>
		
			<ellipse transform="matrix(0.9135 -0.4068 0.4068 0.9135 -260.0499 173.8426)" class="st16" cx="278.8" cy="698.47" rx="19.11" ry="19.11"/>
		
			<ellipse transform="matrix(0.9013 -0.4332 0.4332 0.9013 -274.9692 189.6892)" class="st17" cx="278.8" cy="698.27" rx="11.33" ry="11.33"/>
		<path d="M275.46,683.84c0-1.21-0.98-2.2-2.2-2.2c-1.21,0-2.2,0.98-2.2,2.2c0,1.21,0.98,2.2,2.2,2.2
			C274.47,686.04,275.46,685.06,275.46,683.84z"/>
		<path d="M265.82,679.27c0-1.21-0.98-2.2-2.2-2.2s-2.2,0.98-2.2,2.2s0.98,2.2,2.2,2.2S265.82,680.48,265.82,679.27z"/>
		<path d="M281.07,675.37c0.78-0.93,0.66-2.31-0.27-3.09c-0.93-0.78-2.31-0.66-3.09,0.27c-0.78,0.93-0.66,2.31,0.27,3.09
			C278.91,676.42,280.29,676.3,281.07,675.37z"/>
		<path d="M295.26,682.19c1.19-0.21,1.99-1.35,1.78-2.54c-0.21-1.19-1.35-1.99-2.54-1.78c-1.19,0.21-1.99,1.35-1.78,2.54
			C292.93,681.61,294.07,682.41,295.26,682.19z"/>
		<path d="M301.74,696.54c1.05,0.61,2.39,0.25,3-0.8c0.61-1.05,0.25-2.39-0.8-3c-1.05-0.61-2.39-0.25-3,0.8
			C300.33,694.59,300.69,695.93,301.74,696.54z"/>
		<path d="M297.49,711.7c0.41,1.14,1.68,1.73,2.82,1.31c1.14-0.41,1.73-1.68,1.31-2.82c-0.41-1.14-1.68-1.73-2.82-1.31
			C297.66,709.3,297.08,710.56,297.49,711.7z"/>
		<path d="M284.49,720.57c-0.41,1.14,0.17,2.4,1.31,2.82c1.14,0.41,2.4-0.17,2.82-1.31c0.41-1.14-0.17-2.4-1.31-2.82
			C286.16,718.85,284.9,719.43,284.49,720.57z"/>
		<path d="M268.82,719.02c-1.05,0.61-1.41,1.95-0.8,3c0.61,1.05,1.95,1.41,3,0.8c1.05-0.61,1.41-1.95,0.8-3
			C271.22,718.77,269.87,718.41,268.82,719.02z"/>
		<path d="M257.82,707.75c-1.19-0.21-2.33,0.59-2.54,1.78c-0.21,1.19,0.59,2.33,1.78,2.54c1.19,0.21,2.33-0.59,2.54-1.78
			C259.82,709.1,259.02,707.97,257.82,707.75z"/>
		<path d="M256.64,692.06c-0.78-0.93-2.17-1.05-3.09-0.27c-0.93,0.78-1.05,2.17-0.27,3.09c0.78,0.93,2.17,1.05,3.09,0.27
			C257.3,694.37,257.42,692.99,256.64,692.06z"/>
		<path d="M285.51,685.07c0.78-0.93,0.66-2.31-0.27-3.09c-0.93-0.78-2.31-0.66-3.09,0.27c-0.78,0.93-0.66,2.31,0.27,3.09
			C283.35,686.12,284.73,686,285.51,685.07z"/>
		<path d="M292.43,692.48c1.19-0.21,1.99-1.35,1.78-2.54c-0.21-1.19-1.35-1.99-2.54-1.78s-1.99,1.35-1.78,2.54
			C290.09,691.89,291.23,692.69,292.43,692.48z"/>
		<path d="M292.96,702.6c1.05,0.61,2.39,0.25,3-0.8c0.61-1.05,0.25-2.39-0.8-3c-1.05-0.61-2.39-0.25-3,0.8
			C291.55,700.65,291.91,701.99,292.96,702.6z"/>
		<path d="M286.87,710.69c0.41,1.14,1.68,1.73,2.82,1.31c1.14-0.41,1.73-1.68,1.31-2.82c-0.41-1.14-1.68-1.73-2.82-1.31
			C287.04,708.29,286.45,709.55,286.87,710.69z"/>
		<path d="M277,712.98c-0.41,1.14,0.17,2.4,1.31,2.82c1.14,0.41,2.4-0.17,2.82-1.31c0.41-1.14-0.17-2.4-1.31-2.82
			S277.41,711.84,277,712.98z"/>
		<path d="M267.97,708.38c-1.05,0.61-1.41,1.95-0.8,3c0.61,1.05,1.95,1.41,3,0.8s1.41-1.95,0.8-3
			C270.36,708.14,269.02,707.78,267.97,708.38z"/>
		<path d="M264,699.06c-1.19-0.21-2.33,0.59-2.54,1.78c-0.21,1.19,0.59,2.33,1.78,2.54c1.19,0.21,2.33-0.59,2.54-1.78
			C266,700.41,265.2,699.27,264,699.06z"/>
		<path d="M266.96,689.37c-0.78-0.93-2.17-1.05-3.09-0.27c-0.93,0.78-1.05,2.17-0.27,3.09c0.78,0.93,2.17,1.05,3.09,0.27
			C267.62,691.68,267.74,690.3,266.96,689.37z"/>
	</g>
	<g>
		
			<ellipse transform="matrix(0.1616 -0.9869 0.9869 0.1616 -271.9176 964.7592)" class="st46" cx="431.85" cy="642.42" rx="9.36" ry="9.36"/>
		<circle class="st23" cx="431.85" cy="642.42" r="6.85"/>
		
			<rect x="424.97" y="641.59" transform="matrix(0.9053 -0.4247 0.4247 0.9053 -231.9434 244.2061)" class="st44" width="13.76" height="1.65"/>
	</g>
	<g>
		
			<ellipse transform="matrix(0.1602 -0.9871 0.9871 0.1602 -581.892 600.9016)" class="st46" cx="62.19" cy="642.42" rx="9.36" ry="9.36"/>
		<circle class="st23" cx="62.19" cy="642.42" r="6.85"/>
		
			<rect x="55.31" y="641.59" transform="matrix(0.9053 -0.4247 0.4247 0.9053 -266.9332 87.2196)" class="st44" width="13.76" height="1.65"/>
	</g>
	
		<linearGradient id="SVGID_00000024713772502110209420000008571509879749551272_" gradientUnits="userSpaceOnUse" x1="975.582" y1="428.0169" x2="999.3881" y2="428.0169">
		<stop  offset="0.0536" style="stop-color:#337BDE"/>
		<stop  offset="0.183" style="stop-color:#3E87E1"/>
		<stop  offset="0.5748" style="stop-color:#5CA5EB"/>
		<stop  offset="0.7944" style="stop-color:#67B1EE"/>
	</linearGradient>
	<path style="fill:url(#SVGID_00000024713772502110209420000008571509879749551272_);" d="M999.39,439.09h-23.81l0.74-16
		c0-3.45,3.14-6.14,6.59-6.14h8.85c3.31,0,6,2.68,6,6L999.39,439.09z"/>
	
		<linearGradient id="SVGID_00000063615018040254579050000000768448064158972090_" gradientUnits="userSpaceOnUse" x1="973.9511" y1="439.637" x2="1000.9696" y2="439.637">
		<stop  offset="0.0536" style="stop-color:#337BDE"/>
		<stop  offset="0.183" style="stop-color:#3E87E1"/>
		<stop  offset="0.5748" style="stop-color:#5CA5EB"/>
		<stop  offset="0.7944" style="stop-color:#67B1EE"/>
	</linearGradient>
	<path style="fill:url(#SVGID_00000063615018040254579050000000768448064158972090_);" d="M999.28,441.33h-23.64
		c-0.93,0-1.69-0.76-1.69-1.69l0,0c0-0.93,0.76-1.69,1.69-1.69h23.64c0.93,0,1.69,0.76,1.69,1.69l0,0
		C1000.97,440.57,1000.21,441.33,999.28,441.33z"/>
	<g>
		<path class="st49" d="M98.93,438.21l-0.4-29.11c0-4.19,2.3-8.01,5.9-9.81l43.11-21.56h759.69l54.71,46.55
			c3.6,3.07,1.45,8.96-3.28,8.99L98.93,438.21z"/>
		<line class="st50" x1="103.31" y1="430.18" x2="158.01" y2="379.19"/>
		<polyline class="st51" points="172.69,381.06 172.69,430.18 219.19,380.07 		"/>
		<polyline class="st51" points="241.34,381.06 241.34,430.18 287.84,380.07 		"/>
		<polyline class="st51" points="309.72,381.06 309.72,430.18 356.22,380.07 		"/>
		<polyline class="st51" points="378.1,381.06 378.1,430.18 424.6,380.07 		"/>
		<polyline class="st51" points="446.48,381.06 446.48,430.18 492.98,380.07 		"/>
		<polyline class="st51" points="514.86,381.06 514.86,430.18 561.36,380.07 		"/>
		<polyline class="st51" points="583.24,381.06 583.24,430.18 629.74,380.07 		"/>
		<polyline class="st51" points="651.62,381.06 651.62,430.18 698.12,380.07 		"/>
		<polyline class="st51" points="720,381.06 720,430.18 766.5,380.07 		"/>
		<polyline class="st51" points="788.38,381.06 788.38,430.18 834.88,380.07 		"/>
		<polyline class="st51" points="856.76,381.06 856.76,430.18 903.26,380.07 		"/>
	</g>
	<g>
		<path class="st52" d="M84.54,437.59l-0.24-28.49c0-4.19,2.3-8.01,5.9-9.81l43.11-21.1h762l58.9,49.24
			c2.09,1.75,0.87,5.15-1.86,5.17L84.54,437.59z"/>
		<line class="st53" x1="89.07" y1="430.18" x2="143.77" y2="379.19"/>
		<polyline class="st54" points="158.44,381.06 158.44,430.18 204.95,380.07 		"/>
		<polyline class="st54" points="227.1,381.06 227.1,430.18 273.6,380.07 		"/>
		<polyline class="st54" points="295.48,381.06 295.48,430.18 341.98,380.07 		"/>
		<polyline class="st54" points="363.86,381.06 363.86,430.18 410.36,380.07 		"/>
		<polyline class="st54" points="432.24,381.06 432.24,430.18 478.74,380.07 		"/>
		<polyline class="st54" points="500.62,381.06 500.62,430.18 547.12,380.07 		"/>
		<polyline class="st54" points="568.99,381.06 568.99,430.18 615.5,380.07 		"/>
		<polyline class="st54" points="637.37,381.06 637.37,430.18 683.88,380.07 		"/>
		<polyline class="st54" points="705.75,381.06 705.75,430.18 752.26,380.07 		"/>
		<polyline class="st54" points="774.13,381.06 774.13,430.18 820.64,380.07 		"/>
		<polyline class="st54" points="842.51,381.06 842.51,430.18 889.02,380.07 		"/>
	</g>
	<path class="st55" d="M197.62,400.89L197.62,400.89c16.96,0,30.71,13.75,30.71,30.71v13.84h-61.42V431.6
		C166.91,414.64,180.66,400.89,197.62,400.89z"/>
	<circle class="st41" cx="197.62" cy="424.61" r="16.87"/>
	
		<ellipse transform="matrix(0.1602 -0.9871 0.9871 0.1602 -253.1608 551.6656)" class="st56" cx="197.62" cy="424.61" rx="11.6" ry="11.6"/>
	
		<ellipse transform="matrix(0.2298 -0.9732 0.9732 0.2298 -197.5274 624.0161)" class="st56" cx="295.48" cy="436.8" rx="2.79" ry="2.79"/>
	
		<ellipse transform="matrix(0.2298 -0.9732 0.9732 0.2298 -229.7889 583.2518)" class="st56" cx="253.59" cy="436.8" rx="2.79" ry="2.79"/>
	
		<ellipse transform="matrix(0.2306 -0.973 0.973 0.2306 -176.8673 649.9224)" class="st56" cx="322.54" cy="436.8" rx="2.79" ry="2.79"/>
	
		<ellipse transform="matrix(0.2306 -0.973 0.973 0.2306 -145.364 689.764)" class="st56" cx="363.48" cy="436.8" rx="2.79" ry="2.79"/>
	
		<ellipse transform="matrix(0.2306 -0.973 0.973 0.2306 -124.5421 716.0971)" class="st56" cx="390.55" cy="436.8" rx="2.79" ry="2.79"/>
	
		<ellipse transform="matrix(0.7071 -0.7071 0.7071 0.7071 -182.0261 433.6259)" class="st56" cx="432.42" cy="436.54" rx="2.79" ry="2.79"/>
	
		<ellipse transform="matrix(0.7071 -0.7071 0.7071 0.7071 -173.7735 452.6268)" class="st56" cx="459.48" cy="436.08" rx="2.79" ry="2.79"/>
	
		<ellipse transform="matrix(0.2145 -0.9767 0.9767 0.2145 -31.7957 830.7678)" class="st56" cx="500.6" cy="435.15" rx="2.79" ry="2.79"/>
	
		<ellipse transform="matrix(0.2306 -0.973 0.973 0.2306 -17.441 848.2457)" class="st56" cx="527.66" cy="435.15" rx="2.79" ry="2.79"/>
	
		<ellipse transform="matrix(0.9417 -0.3365 0.3365 0.9417 -113.1001 216.9819)" class="st56" cx="569.44" cy="434.78" rx="2.79" ry="2.79"/>
	
		<ellipse transform="matrix(0.923 -0.3847 0.3847 0.923 -121.352 262.921)" class="st56" cx="596.5" cy="434.78" rx="2.79" ry="2.79"/>
	
		<ellipse transform="matrix(0.7071 -0.7071 0.7071 0.7071 -120.6755 578.2637)" class="st56" cx="637.69" cy="434.8" rx="2.79" ry="2.79"/>
	
		<ellipse transform="matrix(0.7071 -0.7071 0.7071 0.7071 -112.7491 597.3998)" class="st56" cx="664.75" cy="434.8" rx="2.79" ry="2.79"/>
	
		<ellipse transform="matrix(0.2298 -0.9732 0.9732 0.2298 121.2836 1021.3816)" class="st56" cx="705.93" cy="434.07" rx="2.79" ry="2.79"/>
	
		<ellipse transform="matrix(0.2298 -0.9732 0.9732 0.2298 142.1284 1047.7201)" class="st56" cx="732.99" cy="434.07" rx="2.79" ry="2.79"/>
	
		<ellipse transform="matrix(0.2298 -0.9732 0.9732 0.2298 174.419 1088.4187)" class="st56" cx="774.85" cy="434.02" rx="2.79" ry="2.79"/>
	
		<ellipse transform="matrix(0.9239 -0.3827 0.3827 0.9239 -105.0488 339.9141)" class="st56" cx="801.91" cy="434.02" rx="2.79" ry="2.79"/>
	
		<ellipse transform="matrix(0.7071 -0.7071 0.7071 0.7071 -59.4273 723.1672)" class="st56" cx="843.23" cy="433.32" rx="2.79" ry="2.79"/>
	
		<ellipse transform="matrix(0.7071 -0.7071 0.7071 0.7071 -51.5009 742.3033)" class="st56" cx="870.29" cy="433.32" rx="2.79" ry="2.79"/>
	<rect x="78.21" y="413.01" class="st41" width="95.16" height="32.42"/>
	<g>
		
			<linearGradient id="SVGID_00000173862926168266848740000005857584183976936633_" gradientUnits="userSpaceOnUse" x1="985.7744" y1="426.3914" x2="1009.5804" y2="426.3914">
			<stop  offset="0.0536" style="stop-color:#337BDE"/>
			<stop  offset="0.183" style="stop-color:#3E87E1"/>
			<stop  offset="0.5748" style="stop-color:#5CA5EB"/>
			<stop  offset="0.7944" style="stop-color:#67B1EE"/>
		</linearGradient>
		<path style="fill:url(#SVGID_00000173862926168266848740000005857584183976936633_);" d="M1009.58,437.46h-23.81l0.74-16
			c0-3.45,3.14-6.14,6.59-6.14h8.85c3.31,0,6,2.68,6,6L1009.58,437.46z"/>
		
			<linearGradient id="SVGID_00000039822246448496281370000014372170936940744086_" gradientUnits="userSpaceOnUse" x1="984.1434" y1="438.0115" x2="1011.1619" y2="438.0115">
			<stop  offset="0.0536" style="stop-color:#337BDE"/>
			<stop  offset="0.183" style="stop-color:#3E87E1"/>
			<stop  offset="0.5748" style="stop-color:#5CA5EB"/>
			<stop  offset="0.7944" style="stop-color:#67B1EE"/>
		</linearGradient>
		<path style="fill:url(#SVGID_00000039822246448496281370000014372170936940744086_);" d="M1009.47,439.7h-23.64
			c-0.93,0-1.69-0.76-1.69-1.69l0,0c0-0.93,0.76-1.69,1.69-1.69h23.64c0.93,0,1.69,0.76,1.69,1.69l0,0
			C1011.16,438.95,1010.4,439.7,1009.47,439.7z"/>
		<path d="M1008.77,441.33h-22.12c-0.45,0-0.81-0.36-0.81-0.81l0,0c0-0.45,0.36-0.81,0.81-0.81h22.12c0.45,0,0.81,0.36,0.81,0.81
			l0,0C1009.58,440.96,1009.22,441.33,1008.77,441.33z"/>
	</g>
</g>
</svg>
