<?xml version="1.0" encoding="utf-8"?>
<!-- Generator: Adobe Illustrator 26.0.3, SVG Export Plug-In . SVG Version: 6.00 Build 0)  -->
<svg version="1.1" id="Layer_1" xmlns="http://www.w3.org/2000/svg" xmlns:xlink="http://www.w3.org/1999/xlink" x="0px" y="0px"
	 viewBox="0 0 1133.86 1133.86" style="enable-background:new 0 0 1133.86 1133.86;" xml:space="preserve">
<style type="text/css">
	.st0{fill:#FF9541;}
	.st1{fill:#FFECD2;}
	.st2{fill:#E2CBAF;}
	.st3{fill:#47230B;}
	.st4{fill:none;}
	.st5{fill:#DB7028;}
</style>
<g>
	<g>
		<g>
			<path class="st0" d="M655.98,287.01c2.76-33.54,65.57,0,65.57,0h0.03c0.3-2.47,4.58-5.67,9.92-8.05
				c4.4-1.99,9.54-3.39,13.73-3.33c-7.16-6.62-24.6-20.02-39.13-30.84c-0.68-0.53-1.37-1.04-2.02-1.63
				c-0.36-0.27-0.68-0.53-1.01-0.86c-23.53-20.08-37.25-56.89-47.59-79.59c-8.38-18.33-46.2-36.99-62.86-44.47
				c0.18,4.93-0.24,10.1-1.37,15.66c-5.53,26.83-13.81,23.29-23.68,37.88c-3.71,5.5-7.13,15.24-10.75,23.97
				c-3.59,8.73-7.4,16.43-11.85,17.74c-0.56,0.27-1.28,0.42-2.14,0.42c-11.41,0-45.25-24.6-46.05-61.32
				c-15.18,12.98-42.13,40.79-44.95,76.68c-3.95,50.27,16.58,113.43-58.41,176.56c-58.73,49.46-131.46,57.16-175.04,139.15
				c-11.29,21.24-20.65,47.5-27.3,80.78c-0.21,1.13-0.42,2.23-0.62,3.39c-0.21,1.1-0.45,2.26-0.65,3.39c0,0.03,0,0.12-0.03,0.15
				c-11.85,65-16.96,141.35-8.73,216.81c-6.65-66.19,4.87-122.78,19.37-164.76c0,0,0.03-0.03,0.03-0.06
				c0.03-0.09,0.06-0.15,0.09-0.21c1.49-3.65,18.89-44.74,44.03-5.76c1.16,1.81,2.35,3.83,3.57,6.03c0,0,0,0,0,0.03
				c18.39,28.49,46.97,37.7,74.6,35.53c16.19-1.28,32.09-6.45,45.42-13.96c6.62-3.74,12.63-6.86,18.03-9.45
				c28.02-13.4,39.84-12.66,39.84-12.66s32.53,1.52,55.23,68.39c10.87,32.03,23.62,52.7,35,66.25
				c-5.41-18.36-12.98-38.8-19.49-57.52c-13.46-38.62-1.28-91.86,8.2-64.23c4.19,12.27,18.89,32.03,33.93,50.18
				c-36.27-103.44-27.81-178.64-22.31-224.63c2.58-21.54,1.43-37.02-0.86-47.83c-6.18,1.66-12.06,7.58-12.06,7.58
				c-4.22-11.97-7.04-25.82-8.91-40.17c-6.83-52.97-0.3-113.1-0.3-113.1c22.1-106.18,86.15-85.89,86.15-85.89
				c15.39-9.86,20.91,24.84,20.91,24.84C616.91,249.13,655.98,287.01,655.98,287.01z M600.07,229.34c-0.71-0.8-1.37-1.63-1.99-2.55
				c12.95-7.01,32.59-13.87,42.1-10.43c11.23,4.07,13.67,21.06,14.14,25.67c-0.92,0.45-2.05,0.8-3.51,1.01
				c-1.1-1.87-2.73-4.75-3.92-7.34C646.89,235.7,615.73,247.2,600.07,229.34z"/>
			<path class="st0" d="M852.53,779.19c21.3-2.38,33.15,16.58,33.15,16.58c7.9-15.78-5.88-46.26-5.88-46.26
				c-26.77-25.28-57.04-45.45-84.73-60.04h-0.03c-4.01-2.14-7.96-4.13-11.85-6c-30.81-13.13-64.2-9.95-104.04-21.48
				c-23.8-6.86-37.22-17.77-44.62-26.53c-8.65,11.88-18.39,21.92-27.96,30.21c0,0,0,0,0,0.03c0,0.74-0.21,22.07,0.09,52.44
				c10.75,16.49,32.35,37.28,75.64,53.42c84.7,31.58,127.18,57.6,135.5,66.84c0,0,0,0,0.03,0.03c27.63,18.92,70.29,8.65,70.29,8.65
				C863.73,836.02,852.53,779.19,852.53,779.19z"/>
		</g>
		<g>
			<path class="st1" d="M879.8,749.51c0,0,13.78,30.48,5.88,46.26c0,0-11.85-18.95-33.15-16.58c0,0,11.2,56.83,35.59,67.88
				c0,0-42.66,10.28-70.29-8.65c1.01,1.07,34.02,35.77,35.12,52.85c0,0,4.34,24.98,37.49,37.64c22.4,8.53,45.36,19.43,57.55,35.35
				c0.71-0.06,1.13-0.09,1.13-0.09C974.37,873.75,934.32,800.99,879.8,749.51z"/>
			<circle class="st1" cx="634.95" cy="223.28" r="2.79"/>
			<path class="st1" d="M541.13,175.72c4.34,8.29,7.93,7.49,12.63-7.1c1.46-4.49,2.53-7.61,3.48-9.89
				c-18.98-75.82,5.82-97.29,5.82-97.29c-2.7-4.81-5.67-7.69-9.27-7.13c-2.58,0.42-5.47,2.61-8.82,7.13
				c-3.54,4.78-6.95,12.57-9.74,21.54c-5.91,18.84-9.15,42.84-5.14,54.87C535.99,155.58,536.79,167.43,541.13,175.72z"/>
			<path class="st1" d="M673.6,318.86c-3.42-0.98-5.53-1.72-5.53-1.72c-6.06-2.08-24.45-8.67-32.89-8.67
				c-8.41,0-9.98,3.15-12.36-4.22c-2.38-7.37,23.94-2.88,33.66,1.6c2.41,1.07,5.02,2.47,8.05,3.98
				c-12.21-14.35-8.56-22.82-8.56-22.82s-39.07-37.88-54.49-18.92c0,0-5.53-34.7-20.91-24.84c0,0-94.47,37.52-85.83,198.99h-0.03
				c1.87,14.35,4.69,28.19,8.91,40.17c0,0,5.88-5.91,12.06-7.58c6.8-1.87,13.99,1.4,13.99,23.35c0,5.29-0.39,11.73-0.95,19.1
				c0,0.03,0,0.03,0,0.03c-6.18,113.55,39.33,156.38,39.33,156.38C633.88,631.57,632.15,540,632.15,540
				c6.71,2.11,13.75,10.28,13.75,10.28c6.77-47.65-36.78-87.1-36.78-87.1c13.16,6.3,14.91,0,14.91,0
				c-53.53-56.74-34.37-105.26-34.37-105.26c10.78-25.79,40.25-31.55,54.46-29.74c2.97,0.42,6.45,0.77,10.28,1.16
				c10.78,1.04,24.27,1.99,36.84,2.47c0.03,0,0.03,0,0.03,0.03c4.16,0.15,8.23,0.27,12.06,0.3c19.01,0.27,21.06-12.06,21.15-12.63
				h-0.03C715.52,329.76,685.99,322.48,673.6,318.86z"/>
		</g>
		<g>
			<path class="st2" d="M890.44,928.92c-33.15-12.66-37.49-37.64-37.49-37.64s-13.04-7.1-20.14-8.67c0,0-2.7,41.86,32.98,65.12
				c35.65,19.52,75.1,17.17,82.2,16.55C935.8,948.35,912.84,937.44,890.44,928.92z"/>
			<path class="st2" d="M721.99,288.55c-0.36-0.45-0.48-0.95-0.42-1.54h-0.03c0,0-62.8-33.54-65.57,0c0,0-3.65,8.47,8.56,22.82
				c9.3,4.66,22.28,10.4,42.75,11.79c6.21,0.42,11.38-0.27,15.69-1.6c0.51-0.18,1.01-0.36,1.49-0.51h0.03v-0.03
				c13.19-4.81,17.23-15.66,17.23-15.66C729.36,307,723.84,290.93,721.99,288.55z"/>
			<path class="st2" d="M566.44,148.89c0,0,16.52-6.71,14.14-24.48c-2.35-17.77-6.68-36.48-12.63-51.99
				c-1.57-4.16-3.21-7.96-4.9-10.99c0,0-24.81,21.48-5.82,97.29C559.43,153.53,561.24,152.43,566.44,148.89z"/>
			<path class="st2" d="M665.7,423.19c-20.26-14.74-33.54-48.63-33.54-48.63c4.43,1.9,8.02,1.28,8.02,1.28
				c-24.18-42.63,14.23-46.49,14.23-46.49c-3.83-0.39-7.31-0.74-10.28-1.16c-14.2-1.81-43.67,3.95-54.46,29.74
				c0,0-19.16,48.51,34.37,105.26c0,0-1.75,6.3-14.91,0c0,0,43.55,39.45,36.78,87.1c0,0-7.04-8.17-13.75-10.28
				c0,0,1.72,91.56-64.08,133.69c0,0-45.51-42.84-39.33-156.38c-3.39,45.04-13.34,123.5,15.45,165.12
				c3.89,5.61,8.5,10.58,13.9,14.68c0,0,23.62-9.83,48.48-31.4c0-0.03,0-0.03,0-0.03c9.57-8.29,19.31-18.33,27.96-30.21
				c3.21-4.37,6.27-9,9.09-13.87c14.08-24.33,22.91-54.96,18.66-92.63c0,0,11.59,7.37,12.66,15.27c0,0,6.36-31.67,0.12-61.5
				c1.49-13.61-2.29-28.13-5.47-37.46c10.52,5.94,16.4,15.8,16.4,15.8C685.99,436.32,665.7,423.19,665.7,423.19z"/>
			<path class="st2" d="M580.58,243.25c0,0-64.05-20.29-86.15,85.89c0,0-6.54,60.13,0.3,113.1h0.03
				C486.11,280.77,580.58,243.25,580.58,243.25z"/>
			<path class="st2" d="M469.32,752.6c-12.15-31.25-27.99-64.02-43.31-68.39c0,0-11.82-0.74-39.84,12.66
				c-5.41,2.58-11.41,5.7-18.03,9.45c-13.34,7.52-29.23,12.69-45.42,13.96c-27.63,2.17-56.21-7.04-74.6-35.53
				c0.39,1.4,12.42,46.26,44.27,50.98c0.27,0.03,0.53,0.06,0.83,0.12c-4.93,13.9-14.82,42.42-23.68,70.91
				c-8.85,28.52-16.67,57.01-17.35,70.94c4.1-13.22,9.42-26.14,14.08-38.26c7.4-19.25,16.58-37.73,24.57-56.71
				c6.3-15.03,11.29-30.72,19.01-45.1c21.45,1.34,35.92-2.64,59.89-12.89c9-3.86,19.79-7.72,31.05-9.74
				c3.21,9.68,3.68,20.86,6.06,30.21c2.85,11.14,7.64,21.95,11.91,32.65c8.14,20.44,16.07,43.73,29.62,61.35
				c2.85,3.71,7.25,7.99,12.66,12.8c-12.09-17.17-17.88-40.43-24.21-56.24c-6.3-15.78-14.2-32.35-17.35-54.46
				c-1.72-12.09-4.4-21.33-6.98-27.63C434.59,712.67,456.76,721.11,469.32,752.6z"/>
		</g>
		<g>
			<path class="st3" d="M752.24,278.3c-1.43-1.87-3.98-2.64-7.01-2.67c-4.19-0.06-9.33,1.34-13.73,3.33
				c-5.35,2.38-9.63,5.59-9.92,8.05c-0.06,0.59,0.06,1.1,0.42,1.54c1.84,2.38,7.37,18.45,19.73,15.27
				C754.11,300.67,756.72,284.1,752.24,278.3z"/>
			<path class="st3" d="M648.88,65.2c18.15-24.48,22.79,6.68,22.79,6.68c0.59-3.95,0.8-7.78,0.51-11.41
				c-2.76-32.77-25.67-5.94-41.44,11.44c-9.51,10.43-24.39,21.6-34.79,28.82C609.55,98.54,632.13,87.75,648.88,65.2z"/>
			<path class="st3" d="M628.74,218.92c-8.23,1.54-16.93,4.78-23.97,8.08c-0.36,0.18-0.68,0.33-1.04,0.51l0.15,0.33
				c17.56,15.51,42.04,4.34,42.04,4.34S644.72,215.97,628.74,218.92z M634.95,220.49c1.54,0,2.79,1.25,2.79,2.79
				c0,1.54-1.25,2.79-2.79,2.79c-1.54,0-2.79-1.25-2.79-2.79C632.15,221.74,633.4,220.49,634.95,220.49z"/>
			<path class="st3" d="M707.29,321.62c-20.47-1.4-33.45-7.13-42.75-11.79c-3.03-1.52-5.64-2.91-8.05-3.98
				c-9.71-4.49-36.04-8.97-33.66-1.6c2.38,7.37,3.95,4.22,12.36,4.22c8.44,0,26.83,6.6,32.89,8.67c0,0,2.11,0.74,5.53,1.72
				c12.39,3.62,41.92,10.9,50.86,0.65c-0.48,0.15-0.98,0.33-1.49,0.51C718.67,321.35,713.5,322.03,707.29,321.62z"/>
			<path class="st3" d="M652.83,959.16c-19.49-8.94-33.15-65.51-33.15-65.51c-1.9-4.99-3.68-9.74-5.59-14.77
				c-2.44-21.9-4.13-47.92-5.23-74.18c-1.37-30.72-1.93-61.67-2.2-86.57c-0.3-30.36-0.09-51.69-0.09-52.44
				c-24.87,21.57-48.48,31.4-48.48,31.4c-5.41-4.1-10.01-9.06-13.9-14.68c2.79,16.64,11.38,59.36,32.86,107.81
				c0,0-19.37-20.23-38.18-42.96c-15.03-18.15-29.74-37.91-33.93-50.18c-9.48-27.63-21.66,25.61-8.2,64.23
				c6.51,18.72,14.08,39.16,19.49,57.52c5.76,19.61,9.09,36.9,6.09,47.3c-15.92-25.58-33.18-56.71-39.48-75.64
				c-3.39-10.16-7.78-22.93-12.83-36.1c-0.06-0.21-0.12-0.39-0.21-0.56c-0.15-0.42-0.33-0.83-0.48-1.25
				c-12.57-31.49-34.73-39.93-56.83-38.92c2.58,6.3,5.26,15.54,6.98,27.63c3.15,22.1,11.05,38.68,17.35,54.46
				c6.33,15.8,12.12,39.07,24.21,56.24c24.3,21.63,69.01,54.51,88.38,101.63c0,0,21.33,41.24,51.48,42.69
				c16.87,26.77,62.65,36.6,88.23,29.95c27.27-7.1,31.82-8.62,22.88-31.58C700.96,966.26,672.29,968.13,652.83,959.16z"/>
			<path class="st3" d="M542.82,213.9c0.86,0,1.57-0.15,2.14-0.42c-2.91,0.83-6.15-1.1-9.74-7.37c0,0-22.25-45.63-20.2-85.98
				c0.09-1.75,0.24-3.51,0.42-5.26c0-0.03,0-0.03,0-0.06c4.25-23.56,19.13-31.49,19.79-31.85c2.79-8.97,6.21-16.76,9.74-21.54
				c3.36-4.52,6.24-6.71,8.82-7.13l-0.03-0.15c11.02-13.16,22.76,12.18,24.98,17.38c-1.1-2.79-2.2-5.67-3.27-8.7
				c-9.48-26.44-16.99-22.1-16.99-22.1c-4.43,0.15-9.06,2.23-13.78,6.92c-0.12,0.12-0.3,0.27-0.48,0.48
				c-0.09,0.12-0.21,0.24-0.33,0.33c-0.24,0.24-0.51,0.53-0.8,0.83c-0.03,0.03-0.06,0.09-0.09,0.12
				c-7.66,8.08-35.2,39.48-43.82,81.22c-1.07,5.14-1.84,10.46-2.26,15.89c-0.15,2.05-0.21,4.07-0.15,6.06
				C497.58,189.3,531.41,213.9,542.82,213.9z"/>
			<path class="st3" d="M286.14,1060.14c-5.44-5.97-13.22-13.25-22.49-18.09c-18.15-9.48-25.25-30.78-25.25-47.36
				c0-16.58,7.1-46.58,7.1-78.94c0-12.63,2.79-25.46,6.68-38.06c0.68-13.93,8.5-42.42,17.35-70.94
				c8.85-28.49,18.75-57.01,23.68-70.91c-0.3-0.06-0.56-0.09-0.83-0.12c-31.85-4.72-43.88-49.58-44.27-50.98c0-0.03,0-0.03,0-0.03
				c-1.25-1.93-2.44-3.92-3.57-6.03c-25.13-38.98-42.54,2.11-44.03,5.76c-0.03,0.06-0.06,0.12-0.09,0.21c0,0.03-0.03,0.06-0.03,0.06
				c-14.5,41.98-26.02,98.57-19.37,164.76c1.19,11.08,2.67,22.13,4.49,33.12c0,0,24.36,70.26,14.88,101.04
				c-3.95,12.83-1.54,26.92,3.89,40.7c7.61,19.22,21.15,37.85,31.73,51.66c18.15,23.68,70.53,24.45,58.44-5.53
				C294.46,1070.48,291.4,1065.9,286.14,1060.14z"/>
		</g>
	</g>
	<g>
		<path class="st4" d="M645.91,232.17c0,0-1.19-16.19-17.17-13.25c-8.23,1.54-16.93,4.78-23.97,8.08c-0.36,0.18-0.68,0.33-1.04,0.51
			l0.15,0.33C621.43,243.34,645.91,232.17,645.91,232.17z"/>
		<path class="st5" d="M832.81,882.6c7.1,1.57,20.14,8.67,20.14,8.67c-1.1-17.08-34.11-51.78-35.12-52.85
			c-0.03-0.03-0.03-0.03-0.03-0.03c-8.32-9.24-50.8-35.26-135.5-66.84c-43.29-16.13-64.88-36.93-75.64-53.42
			c0.27,24.9,0.83,55.85,2.2,86.57c31.22,13.67,83.45,25.19,107.31,30.01c31.25,6.33,76.11,36.84,118.21,87.34
			c9.33,11.23,20.17,19.52,31.4,25.67C830.1,924.46,832.81,882.6,832.81,882.6z"/>
		<path class="st5" d="M634.53,635.46c7.4,8.76,20.83,19.67,44.62,26.53c39.84,11.53,73.23,8.35,104.04,21.48
			c-16.96-8.23-32.59-14.2-45.28-17.8c-49.82-14.11-79.59-32.8-94.29-44.09C640.8,626.46,637.74,631.09,634.53,635.46z"/>
		<path class="st5" d="M646.89,235.7c1.19,2.58,2.82,5.47,3.92,7.34c1.46-0.21,2.58-0.56,3.51-1.01c-0.48-4.6-2.91-21.6-14.14-25.67
			c-9.51-3.45-29.14,3.42-42.1,10.43c0.62,0.92,1.28,1.75,1.99,2.55C615.73,247.2,646.89,235.7,646.89,235.7z M603.72,227.5
			c0.36-0.18,0.68-0.33,1.04-0.51c7.04-3.3,15.75-6.54,23.97-8.08c15.98-2.94,17.17,13.25,17.17,13.25s-24.48,11.17-42.04-4.34
			L603.72,227.5z"/>
		<path class="st5" d="M655.48,162.71c10.34,22.7,24.06,59.51,47.59,79.59c-14.38-12.83-17.74-33.33-27.36-67.38
			c-3.89-13.73-16.9-26.53-31.58-37.19c9.83-19.4,24.39-44.56,27.54-65.83c0,0-4.63-31.16-22.79-6.68
			c-16.76,22.55-39.33,33.33-52.94,35.53c-1.93,1.34-3.71,2.55-5.29,3.59c-2.5-10.43-7.01-20.44-11.56-31.91
			c0,0-0.06-0.18-0.21-0.53c-0.06-0.12-0.09-0.24-0.15-0.36c-2.23-5.2-13.96-30.54-24.98-17.38l0.03,0.15
			c3.59-0.56,6.57,2.32,9.27,7.13c1.69,3.03,3.33,6.83,4.9,10.99c5.94,15.51,10.28,34.22,12.63,51.99
			c2.38,17.77-14.14,24.48-14.14,24.48c-5.2,3.54-7.01,4.63-9.21,9.83c-0.95,2.29-2.02,5.41-3.48,9.89
			c-4.69,14.59-8.29,15.39-12.63,7.1s-5.14-20.14-11.05-37.88c-4.01-12.03-0.77-36.04,5.14-54.87c-0.65,0.36-15.54,8.29-19.79,31.85
			c0,0.03,0,0.03,0,0.06c-0.18,1.75-0.33,3.51-0.42,5.26c-2.05,40.34,20.2,85.98,20.2,85.98c3.59,6.27,6.83,8.2,9.74,7.37
			c4.46-1.31,8.26-9,11.85-17.74c3.62-8.73,7.04-18.48,10.75-23.97c9.86-14.59,18.15-11.05,23.68-37.88
			c1.13-5.56,1.54-10.72,1.37-15.66C609.28,125.72,647.1,144.38,655.48,162.71z"/>
		<path class="st5" d="M528.74,517.31c0,0,0,0,0-0.03c0.56-7.37,0.95-13.81,0.95-19.1c0-21.95-7.19-25.22-13.99-23.35
			c2.29,10.81,3.45,26.29,0.86,47.83c-5.5,45.99-13.96,121.18,22.31,224.63c18.81,22.73,38.18,42.96,38.18,42.96
			c-21.48-48.45-30.06-91.17-32.86-107.81C515.4,640.8,525.35,562.34,528.74,517.31z"/>
		<path class="st5" d="M481.24,752.6c-22.7-66.87-55.23-68.39-55.23-68.39c15.33,4.37,31.16,37.14,43.31,68.39
			c0.15,0.42,0.33,0.83,0.48,1.25c0.09,0.18,0.15,0.36,0.21,0.56c5.05,13.16,9.45,25.94,12.83,36.1
			c6.3,18.92,23.56,50.06,39.48,75.64c3-10.4-0.33-27.69-6.09-47.3C504.85,805.3,492.11,784.62,481.24,752.6z"/>
		<path class="st5" d="M451.83,229.25c2.82-35.89,29.77-63.69,44.95-76.68c-0.06-1.99,0-4.01,0.15-6.06
			c0.42-5.44,1.19-10.75,2.26-15.89c-18.81,15.24-50.5,46.97-63.43,96.02c-18.95,71.83-26.05,128.67-60.01,154.72
			C344.9,405.04,272.3,430.65,233.85,494.4v0.03c-3.86,6.36-7.37,13.13-10.46,20.32c-12.42,28.88-23.89,67.2-32.32,110.99
			c6.65-33.27,16.01-59.54,27.3-80.78c43.58-82,116.31-89.69,175.04-139.15C468.4,342.68,447.87,279.52,451.83,229.25z"/>
	</g>
</g>
</svg>
