<?xml version="1.0" encoding="utf-8"?>
<!-- Generator: Adobe Illustrator 26.0.3, SVG Export Plug-In . SVG Version: 6.00 Build 0)  -->
<svg version="1.1" id="Layer_1" xmlns="http://www.w3.org/2000/svg" xmlns:xlink="http://www.w3.org/1999/xlink" x="0px" y="0px"
	 viewBox="0 0 1133.86 1133.86" style="enable-background:new 0 0 1133.86 1133.86;" xml:space="preserve">
<style type="text/css">
	.st0{fill:#D19B71;}
	.st1{fill:#AB5839;}
	.st2{fill:#DE825F;}
	.st3{fill:#FFD1AD;}
	.st4{fill:#F5B27D;}
	.st5{fill:#DE8A6A;}
	.st6{fill:#4A2A2A;}
	.st7{fill:#787878;}
	.st8{fill:#E88864;}
	.st9{fill:#111111;}
	.st10{fill:#E0D0C1;}
</style>
<g>
	<path class="st0" d="M709.26,589.55c-1.28-32.58,12.56-60.56,35.23-70.46c13.6-5.94,30.05-6.67,42.52,2.98
		c37.26,28.87,86.68,56.03,70.18,136.49c-5.12,24.95-14.27,94.77,10.37,132.23c6.53,9.93,14.66,15.22,16.7,22.81
		c1.65,6.15,2.3,12.68,1.59,18.65l13.48,158.18c0.06,0.28,0.15,0.53,0.2,0.82c1.29,8.32,4.17,19.2-10.4,21.32
		c-0.45,0.07-0.9,0.03-1.35,0.04l-13.85,52.81l-37.86-2.38c0,0,8.4-16.17,15.97-23.04c5.18-4.7,9.69-14.01,13.6-20.68
		c4.31-7.36,8.84-33.24,8.84-33.24s-1.04-58.43-8.88-85.91c-5.67-19.85-38.04-71.43-38.04-71.43
		c-20.39-35.06-71.19-104.54-92.2-147.71C721.5,652.59,710.27,615.24,709.26,589.55z"/>
	<path class="st1" d="M352.87,160.27c1.92-5.16-5.44-26.44,1.93-26.24c3.76,0.1,10.63,2.24,16.47,8.37
		c5.33,5.6,9.78,15.11,10.51,17.34c12.75,38.95,44.1,102.34,80.85,150.32c47.57,62.1,114.43,92.13,123.69,95.31
		c8.79,3.02,31.33,16.82,28.73,34.51c-2.97,20.23-61.27,27.58-104.07,14.19c-43.99-13.76-66.27-47.5-105.12-108.27
		C339.15,241.42,341.42,191.13,352.87,160.27z"/>
	<path class="st2" d="M589.17,406.57c-2.05,5.7-5.19,10.85-9.45,15.36c-0.87,0.79-0.97,1.93-0.47,2.72
		c0.66,1.66,2.93,1.37,3.68-0.04c4.41-4.74,7.79-10.17,10.01-16.14C591.61,407.73,590.34,407.1,589.17,406.57z M577.91,401.86
		c-0.45,3.29-1.84,6.25-3.54,9.07c-0.89,1.47-1.85,3.22-3.04,4.66c-0.7-0.39-1.57-0.37-2.26,0.44c-0.95,1.12-1.36,2.06-1.41,3.55
		c-0.06,1.76,1.8,2.4,3.16,1.82c3.38-1.45,5.37-5.33,7.18-8.34c1.81-3.01,3.1-6.09,3.79-9.45
		C580.64,403.1,579.36,402.53,577.91,401.86z M491.27,368.32c-2.64,0.58-1.52,4.63,1.12,4.05c7.72-1.69,13.93-6.72,19.45-12.26
		c-1.08-0.87-2.16-1.76-3.25-2.66C503.66,362.38,498.13,366.82,491.27,368.32z M481.53,332.2c-4.25,3.9-8.94,7.16-14.12,9.75
		c-2.42,1.21-0.29,4.84,2.12,3.63c5.47-2.73,10.43-6.23,14.92-10.36C483.47,334.22,482.5,333.23,481.53,332.2z M487.68,338.49
		c-3.52,5.34-7.76,10.24-14.32,11.7c-2.64,0.59-1.52,4.64,1.12,4.05c7.27-1.62,12.22-6.88,16.23-12.77
		C489.7,340.5,488.69,339.49,487.68,338.49z M383.06,163.51c-4.83,2.18-11.78,2.55-16.07,2.92c-2.68,0.23-2.7,4.44,0,4.2
		c5.07-0.43,12.06-0.83,17.45-3.12C383.94,166.13,383.52,164.84,383.06,163.51z M396.94,236.91c-2.68,0.23-2.7,4.44,0,4.2
		c6.64-0.57,13.19-1.44,18.73-4.96c-0.65-1.22-1.32-2.44-1.96-3.66C408.82,235.77,402.79,236.4,396.94,236.91z M422.69,284.87
		c-2.69,0.12-2.71,4.33,0,4.2c7.41-0.34,14.24-2.8,20.06-7.13c-0.76-1.17-1.51-2.35-2.26-3.53
		C435.34,282.34,429.29,284.57,422.69,284.87z M387.53,175.77c-4.5,1.97-10.01,2.47-14.55,3.39c-2.65,0.54-1.53,4.59,1.12,4.05
		c4.97-1.01,10.26-1.66,14.95-3.64C388.55,178.31,388.02,177.01,387.53,175.77z M406.8,218.98c-4.61,2.91-9.85,4.38-15.4,4.25
		c-2.71-0.06-2.71,4.14,0,4.2c6.26,0.15,12.09-1.49,17.29-4.66C408.05,221.5,407.43,220.25,406.8,218.98z M393.76,190.92
		c-4.4,2.25-11.24,2.71-14.99,3.28c-2.67,0.41-1.53,4.46,1.12,4.05c4.51-0.69,10.74-1.29,15.5-3.59
		C394.83,193.4,394.29,192.16,393.76,190.92z"/>
	<path class="st3" d="M496.27,1055.86c4.36-2.63,14.72-22.78,13.67-40.67c-0.58-20.35-3.56-80.6-4.4-108.55
		c-0.12-4.04-1.05-13.04-1.05-13.04s-5.8-20.65-7.23-27.7c-3.56-17.47-7.58-59.76-10.95-101.27c-4.18-51.61-31.1-107.47-31.1-107.47
		l89.53,26.32c-0.49-0.79-1.47,7.15-2,17.28c-0.02,0.39-0.46,0.58-0.48,0.98c-0.38,7.6-2.41,10.71-2.69,21.73
		c-0.01,0.37,2.15,3.86,2.14,4.24c-1.06,41.73-1.85,104.63-0.93,136c0.19,6.5-6.63,23.88-8.45,29.02l6.32,111.48
		c0,0,0.67,14.48,0.73,15.5c0.61,9.25-3.47,11.61-11.72,13.37l-16.32,49.67l-35.74,0.18
		C475.6,1082.93,481.69,1064.65,496.27,1055.86z"/>
	<path class="st4" d="M867.34,744.54l-0.67-123.81c0.55-4.98,0.52-10.28-0.09-15.81l-0.01-2.74l-0.27,0.22
		c-2.26-16.31-9.34-34.27-20.95-51.04c-0.1-0.15-0.87,0.05-0.97-0.09c-0.62-0.88-1.04-1.45-1.68-2.32
		c-5.44-7.43-8.88-12.23-15.14-17.96c-0.18-0.17-0.37-0.91-0.55-1.08c-11.5-10.38-25.48-19.28-37.47-23.09
		c-3.3-2.25-7.44-4.8-11.38-6.95c-0.08-0.04-1.29,0.28-1.37,0.23c-14.7-7.96-32.03-15.41-54.2-24.23c-0.2-0.08-0.23-1.17-0.43-1.25
		c-5.71-2.27-12.42-4.9-18.46-7.24c-0.06-0.02-0.34,0.22-0.4,0.2c-10.75-4.18-21.91-7.59-33.53-12.14
		c-16.8-6.58-32.4-13.41-47.9-19.44c-0.09-0.04-0.15-0.72-0.24-0.75c-20.05-7.8-39.07-14.83-55.42-19.7
		c-0.05-0.01-0.8,0.06-0.85,0.04c-0.07-0.02-0.15-0.04-0.22-0.06c-7.95-4.51-18.59-9.4-32.43-17.36
		c-9.46-5.44-16.93-11.62-24.56-17.89c-14.76-12.24-28.17-27.03-47.27-48.16c-0.69-0.77-2.06-2.61-2.74-3.37
		c-0.13-0.15-1.65,0.85-1.78,0.7c-11.2-12.52-18.52-24.06-26.91-36.75c-0.07-0.11,0.14-1.14,0.07-1.25
		c-5.75-8.72-11.46-18.07-16.16-26.46c-0.08-0.14-1.02,0.39-1.1,0.26c-7.5-13.44-12.81-26.36-18.72-39.35
		c-0.05-0.11,0.15-0.41,0.1-0.52c-2.57-5.65-5.3-11.78-7.74-17.29C354.01,136,350.84,96.96,335.86,96.83
		c-20.98-0.19-32.51,76.38-30.94,76.99c0.04,0.02,0.67,0.2,0.69,0.49c0.01,0.14-0.12,0.31-0.47,0.49l-0.54-0.35
		c6.1,23.23,13.95,51.29,21.42,75.82c0.26,0.85,1.47-0.06,1.73,0.79c0.83,2.72-0.39,3.07,0.46,5.8
		c3.77,12.13,9.45,19.24,13.33,30.92c0.2,0.6-2.67,3.11-2.47,3.71c3.48,10.43,8.23,23.56,11.78,33.63c0,0,9.11,26.17,22.32,59.98
		c0.16,0.42,3.88-0.13,4.04,0.29c7.47,19.09,11.43,29.93,21.59,53.67c0.27,0.63-0.49,7.52-0.22,8.15
		c5.55,12.93,11.77,26.91,18.22,40.94c4.6,38.18-3.47,62.68-3.47,82.39c0,58.24,37.3,105.45,83.3,105.45
		c9.89,0,19.38-2.19,28.18-6.2c12.71,12.26,33.13,21.35,66.04,23.94c93.32,7.35,154.31-27.83,182.61-62.25
		c16.45,15.33,14.99,64.7,31.38,65.92c9.91,0.74,13.77-11.99,25.4-17.14c10.21-4.51,21.01-22.23,27.25-33.91v98.17H867.34z"/>
	<path class="st3" d="M596.35,584.49c15.14-64.88-1.6-124.25-37.39-132.6c-35.79-8.35-77.07,37.48-92.21,102.36
		s-42.08,112.99,37.39,132.6C575.64,704.49,581.21,649.37,596.35,584.49z"/>
	<path class="st3" d="M699.04,588.41c3.22-32.44,20.8-58.24,44.61-64.92c14.29-4.01,30.69-2.46,41.7,8.82
		c32.92,33.73,78.12,67.45,50.67,144.87c-1.54,4.35-3.83,10.28-5.75,17.09c-0.03,0.12-0.6,0.01-0.63,0.12
		c-2.75,9.78-5.46,20.17-7.42,32.85c-0.03,0.18,0.57,0.06,0.54,0.24c-4.15,27.12-5.34,59.7,5.29,82.1
		c5.09,10.73,12.42,17.1,13.39,24.9c0.78,6.32,0.53,12.88-1,18.69l-8.48,158.53c0.02,0.28,0.08,0.55,0.08,0.84
		c0.13,8.42,1.48,19.59-13.24,19.68c-0.46,0-0.9-0.09-1.34-0.15l-22.33,50.53l-41.84-0.27c0,0,12.05-19.13,20.49-24.89
		c5.78-3.94,15.54-16.22,20.33-22.28c5.29-6.69,13.83-31.19,13.83-31.19s7.04-58.01,3.06-86.32c-2.87-20.44-27.82-76-27.82-76
		c-15.36-37.54-56.08-113.36-70.94-159.02C702.46,652.54,696.5,614,699.04,588.41z"/>
	<path class="st1" d="M885.22,841.37c7.82-16.66,0.17-39.5-4.16-44.43c0.96-5,2.32-9.96,3.14-14.91
		c2.77-16.94,0.38-32.24-14.36-42.41c-1.93-1.33-12.31-2.96-15.34,4.66c-5.77,14.51-1.98,24.45,0.37,38.96
		c1.22,7.54-1.68,7.98-3.91,14.36c-2.14,6.13-3.07,16.26-2.34,22.37c2.28,19.14,17.87,36.58,18.05,55.94
		c0.09,10.07-8,33.98-5.87,32.93c17.82-8.8,25.98-32.85,26.49-47.39C887.53,854.42,886.63,847.81,885.22,841.37z"/>
	<path class="st5" d="M792.65,630.38c-1.19,1.99-1.07,4.38-1.11,6.7c-0.03,1.57,0.53,7.14,0.11,8.74c-0.93,3.55-2.18,6.98-1.2,10.69
		c0.98,3.73,3.75,5.06,5.73,7.06c2.94,2.96,4.96,6.11,9.69,6.15c3.99,0.03,7.25-2.36,9.07-5.77c2.01-3.78,4.04-9.74,4.66-13.97
		C820.75,642.18,803.03,612.97,792.65,630.38z"/>
	<path class="st4" d="M361.99,125.94c-18.53,0.37-27.51,6.3-29.89-1.36c-2.38-7.66,5.04,0.15,18.64-12.44
		c15.11-13.99,23.82-15.04,29.39-15.14c9.3-0.16,25.92,4.35,25.92,4.35S388.95,125.41,361.99,125.94z"/>
	<path class="st1" d="M364,123.38c-14.74,0.29-21.89,5.01-23.78-1.08c-1.89-6.09,4.01,0.12,14.83-9.9
		c12.02-11.13,18.95-11.97,23.39-12.04c7.4-0.13,22.35,2.88,22.35,2.88S385.45,122.96,364,123.38z"/>
	<path class="st4" d="M272.07,122.93c18.15,3.73,25.9,11.2,29.64,4.1c3.74-7.1-4.98-0.77-16.06-15.63
		c-12.31-16.5-20.68-19.13-26.15-20.23c-9.11-1.85-26.28-0.44-26.28-0.44S245.66,117.5,272.07,122.93z"/>
	<path class="st1" d="M269.96,119.17c14.44,2.97,20.61,8.91,23.58,3.26c2.97-5.65-3.96-0.61-12.78-12.43
		c-9.79-13.13-16.45-15.22-20.8-16.1c-7.25-1.47-22.5-1.24-22.5-1.24S248.95,114.85,269.96,119.17z"/>
	<g>
		<path class="st2" d="M559.16,494.89c9.97,6.2,20.31,5.24,30.48-0.53c12.42-7.05,18.21-17.33,19.1-31.01
			c1.02-15.75-6.67-22.74-22.07-24.29c-11.04-1.11-31,10.01-38.85,15.64c-4.4,3.16-5.2,7.3-6.52,12.86
			C538.9,477.59,550.84,489.71,559.16,494.89z"/>
		<path class="st2" d="M514.25,749.99c1.01-3.88-0.52-8.35-1.5-12.09c-0.99-3.8-2.11-7.81-4.94-10.71
			c-3.09-3.17-7.56-4.49-11.84-3.22c-2.08,0.62-13.18,2.32-10.14,17.47c0.2,1.01,2.86,14.84,6.93,17.18
			C500.11,762.84,512.07,758.39,514.25,749.99z"/>
		<path class="st2" d="M526.43,574.12c-6.55,6.74-13.36,15.89-15.02,25.36c-2.36,13.46,12.08,13.8,21.44,14.99
			c5,0.64,10.88,2.32,15.55-0.43c4.5-2.66,5.96-8.08,5.1-12.95c-0.9-5.07-3.54-9.72-6.02-14.18c-2.3-4.15-4.34-9.48-7.77-12.8
			c-1.64-1.6-3.85-2.33-6.06-2.31C531.28,571.26,528.67,571.81,526.43,574.12z"/>
		<path class="st2" d="M467.28,443.2c-3.94-2.3-8.91-4.03-13.71-4.1c-2.4-0.04-13.53-0.77-16.59,6.89
			c-4.41,11.07-9.48,21.93-3.61,33.52c4.26,8.42,14.02,16.65,23.16,19.18c2.84,0.79,6.13-0.01,8.18-2.16
			c7.25-7.59,11.12-21.11,13.5-31.1C480.66,455.12,476.3,448.46,467.28,443.2z"/>
		<path class="st2" d="M497.68,688.33c5.29-6.07,13.67-13.93,8.48-22.5c-2.64-4.35-8.2-6.63-13.13-5.53
			c-4.43,0.99-20.66,19.44-17.56,26.74C479.6,696.76,491.78,695.1,497.68,688.33z"/>
		<path class="st2" d="M416.94,308.27c-0.41,0.35-6.66,37.79,5.76,51.41c6.39,7.01,22.28,5.46,29.51,0.69
			c9.7-6.4,7.57-19.49,6.21-29.4c-0.08-0.57-0.19-1.62-0.27-2.21c-11.13-12.59-20.35-24.84-28.62-37.3
			C422.87,294.07,418.84,300.71,416.94,308.27z"/>
		<path class="st2" d="M437.87,379.43c-0.26,0.43-2.18,5.14-2.02,7.56c0.52,7.67,1.55,15.26,3.1,22.79c0.4,1.95,4.63,8.31,6.36,9.5
			c4.86,3.35,11.51,1.96,16.98,3.3c5.38,1.31,10.91,3.28,16.25,0.73c4.73-2.26,6.36-6.84,6.5-11.77c0.17-6.35-1.84-12.74-3.25-18.87
			c-1.29-5.64-2.13-11.54-5.31-16.48c-2.91-4.53-13.32-2.54-14.21-2.45C455.44,374.48,442.01,372.56,437.87,379.43z"/>
		<path class="st2" d="M500.65,473.21c-10.05,8.32-28.68,23.75-29.3,38.06c-0.29,6.7,3.47,12.55,6.44,18.29
			c5.5,10.6,11.11,21.13,16.67,31.69c2.69,5.11,9.31,5.05,13.21,1.7c9.44-8.09,24.53-20.06,26.29-33.32
			c2.19-16.56-12.75-33.48-17.89-48.26C515.89,480.88,507.08,467.89,500.65,473.21z"/>
		<path class="st2" d="M328.51,222.93c1.51,1.86,24.6,12.77,26.66,13.27c4.7,1.14,9.38-0.2,12.32-6.12
			c2.06-4.15,9.32-21.43,7.66-26.5c-3.41-10.43-16.94-13.42-26.51-14.3c-10.5-0.97-16.47,5.16-20.44,14.16
			C325.25,210.1,324.38,217.85,328.51,222.93z"/>
		<path class="st2" d="M577.71,508.46c-23.98-4.22-26.68,11.97-26.93,14.62c-0.7,7.33,0.23,14.98,0.55,22.32
			c0.25,5.57,0.1,11.63,2.5,16.8c4.71,10.12,14.29,10.72,23.71,7.24c7.28-2.69,14.26-4.81,21.78-6.72c4.43-1.12,8.9-2.25,11.21-6.68
			c4.59-8.79-1.88-26.07-5.77-34.24C598.8,509.3,589.67,510.56,577.71,508.46z"/>
		<path class="st2" d="M534.97,796.48c2.61-7.7,0.56-18.83-7.5-22.49c-1.13-0.51-2.31-0.81-3.49-0.92c-1.27-0.26-2.62-0.3-3.98-0.08
			c-5.2,0.86-7.89,6.13-10.19,10.32c-2.27,4.14-5.51,8.16-5.86,12.87c-1.04,13.67,16.37,11.36,20.52,10.33
			C529.55,805.23,533.32,801.37,534.97,796.48z"/>
		<path class="st2" d="M557.63,626.98c-2.65,0.8-27.95,8.85-32.06,17.12c-3.8,7.67,0.88,19.72,9.01,22.65
			c8.5,3.07,21.34-1.65,29.21-4.87c4.45-1.82,9.26-3.67,12.01-7.85c2.94-4.47,1.94-9.09,0.65-13.93
			C573.71,629.83,569.07,623.54,557.63,626.98z"/>
		<path class="st2" d="M841.3,602.42c-5.9,1.17-16.14,12.13-16.13,21.62c0,6.08,6.04,10.33,10.1,14.03
			c5.25,4.77,10.57,4.63,15.47-0.54c3.87-4.1,8.15-8.73,10.65-13.8C868.21,609.8,854.32,599.83,841.3,602.42z"/>
		<path class="st2" d="M389.57,294.73c-9.82-2.63-17.19,10.73-22.16,17.25c-6.55,8.6-8.38,17.62-1.54,26.61
			c5.5,7.23,12.83,17.57,23.26,13.06c8.62-3.73,13.6-15.63,15.15-24.26c1.6-8.94,1.31-21.52-5.93-28.15
			C396.51,297.55,390.89,295.08,389.57,294.73z"/>
		<path class="st2" d="M379.65,269.54c3.83,5.61,9.09,15.05,16.97,14.35c7.85-0.7,12.56-9.68,15.49-16.05
			c0.37-0.8,0.94-1.94,1.24-2.84c-7.51-13.56-13.8-26.63-19.72-39.62c-1.8,0.08-4.02,0.87-5.63,2.66
			c-5.25,5.85-12.13,12.89-14.58,20.52C370.84,256.63,375.23,263.05,379.65,269.54z"/>
		<path class="st2" d="M360.8,294.76c6.45-3.54,6.51-13.61,6.52-19.96c0.01-6.99,0.34-15.75-5.66-20.48
			c-6.57-5.18-28.37-11.42-35.64-3.77c0.63,2.05,1.23,4.08,1.87,6.14c3.67,11.81,7.41,23.42,11.19,34.81
			c3.35,1.19,6.96,1.98,10.31,2.97C353.15,295.57,357.1,296.78,360.8,294.76z"/>
		<path class="st2" d="M402.89,444.09c7.35-9.93,13.75-20.43,18.84-31.7c5.09-11.26,2.93-16.27-5.81-24.59
			c-6.31-6-15.15-18.84-24.84-18.23c-7.6,0.48-13.31,8.65-17.91,15.53c7.2,18.34,15.82,39.64,25.42,62.11
			C400.23,446.65,401.75,445.64,402.89,444.09z"/>
		<path class="st2" d="M465.58,569.57c-0.34-1.14-0.85-2.26-1.44-3.36c0.03-0.89,0-1.77,0.09-2.67c0.3-2.91,1.02-5.77,0.34-8.7
			c-1.33-5.68-6.33-11.26-10.44-15.19c-4.08-3.91-9.07-7.89-15.06-7.16c-5.97,0.73-10.57,5.69-13.61,10.67
			c-0.57,0.71-4.73,5.75-5.38,7.71c-1.94,5.87-3.4,13.58,0.89,18.74c2.03,2.44,5,4.16,8.14,5.54c1.64,1.37,7.46,2.86,8.22,3.14
			c4.55,1.71,10.55,4.13,15.98,4.63c3.2,0.99,7.05-0.05,9.31-2.48C465.5,577.82,466.76,573.56,465.58,569.57z"/>
		<path class="st2" d="M475.82,640.6c4.67,6.72,9.5,13.21,18.17,7.47c7.48-4.95,14.6-10.46,10.93-19.98
			c-0.98-2.55-2.83-6.62-5.26-10.96c-2.94-5.27-13.14-18.62-14.8-19.76c-0.13-0.09-0.25-0.17-0.38-0.26c-2.47-1.7-5.99-1.38-8.49,0
			c-4.2,2.33-7.65,6.67-11,10.08c-3.05,3.1-5.41,5.49-5.31,10.08c0.11,4.84,2.83,7.42,5.87,10.81
			C469.16,632.13,472.71,636.12,475.82,640.6z"/>
		<path class="st2" d="M680.66,641.52c2.24,5.9,9.15,8.32,14.06,3.71c7.16-6.72,17.93-22.06,4.86-28.69
			c-5.36-2.72-27.56-9.31-23.31,10.24C677.35,631.81,678.83,636.71,680.66,641.52z"/>
		<path class="st2" d="M621.21,626.67c-1.22,1.22-2.01,2.87-2.37,4.61c-1.01,2.61-0.79,5.45,0.5,7.98c2.09,4.08,4.92,7.91,7.35,11.8
			c1.45,2.31,2.73,4.89,4.97,6.53c2.88,2.1,6.64,2.35,9.75,0.53c3.88-2.27,6.39-8.08,8.72-11.8c6.89-11-2.87-20.38-13.71-22
			C631.5,623.58,625.09,622.79,621.21,626.67z"/>
		<path class="st2" d="M722.12,474.68c-2.98,4.44-4.08,10.66-5.58,15.72c-1.52,5.12-3.91,10.98-3.23,16.4
			c1.42,11.27,13.27,12.41,22.47,12.29c7.11-0.09,14.21-0.24,21.32-0.36c4.98-0.08,10.72,0.52,15.31-1.83
			c6.67-3.41,7.87-10.7,5.76-17.03c-14.77-8.27-33.95-16.48-55.99-25.25C722.15,474.65,722.13,474.66,722.12,474.68z"/>
		<path class="st2" d="M688.4,497.01c-6.96-5.52-17.01-3.17-25.18-2.49c-10.03,0.84-22.73,1.68-32.28,5.14
			c-10.43,3.77-3.77,21.4-2.97,26.87c1.13,7.81,0.16,22.12,6.71,27.94c6.56,5.83,15.12,0.85,21.73-2.12
			c10.86-4.87,21.76-10.33,31.72-16.89C703.13,525.57,702.44,508.15,688.4,497.01z"/>
		<path class="st2" d="M787.93,588.52c-4.71-4.45-15.79-8.49-21.87-4.65c-4.14,2.61-7.75,6.52-11.03,10.01
			c-2.85,3.02-5.46,6.05-5.18,10.55c0.27,4.36,3.43,6.99,4.72,10.85c1.52,4.55,1.44,7.62,5.65,10.76c2.48,1.85,5.96,1.21,8.49,0
			c3.82-1.82,7.26-6.09,10.33-8.95c3.09-2.87,6.41-5.62,9.32-8.67C793.92,602.59,793.94,594.2,787.93,588.52z"/>
		<path class="st2" d="M808.66,773.39c-10.41-2.14-16.31,10.54-15.97,12.42l-2.7,5.33c-2.51,4.95-0.37,10.64,5.03,12.35
			c5.97,1.89,13.17,5.4,18.45,0.11c4.13-4.13,5.94-11.02,6.63-16.62C821.07,779.12,816.53,775.01,808.66,773.39z"/>
		<path class="st2" d="M734.39,577.15c5.41-3.9,11.65-7.89,12.89-14.94c1.25-7.08-2.11-15.11-4.49-21.62
			c-2.01-5.49-3.83-12.17-9.97-14.27c-11.23-3.84-26.04,8.08-32.47,16.01c-0.18,0.22-0.32,0.49-0.49,0.74
			c-1.71,1.83-2.72,4.36-2.2,7.43c1.46,8.61,3.01,17.35,5.47,25.74c1.72,5.89,4.27,11.65,11.52,11.39
			C721.57,587.37,729.04,581.01,734.39,577.15z"/>
		<path class="st2" d="M673.78,581.66c-2.49-8.26-5.96-17.57-16.4-16.56c-6.69,0.65-14.34,6.58-19.49,11.94
			c-5.96,5.66-17.68,14.07-15.97,22.93c1.67,8.64,11.51,11.37,19.04,9.9c8.89-1.73,18.97-0.49,27.29-4.57
			C678.53,600.25,676.63,591.13,673.78,581.66z"/>
		<path class="st2" d="M532.74,397.13c-9.29-5.35-17.17-10.88-24.68-17.01c-6.1,8.11-5.63,20.26-4.08,29.74
			c0.07,0.45,0.25,0.83,0.39,1.23c1.62,7.87-0.18,17.95,4.83,24.56c5.43,7.16,14.12,6.16,21.61,3.27
			c6.38-2.46,23.4-13.57,25.34-15.13c0.75-0.49,1.52-0.94,2.25-1.48c1.32-0.98,4.81-3.86,7.82-6.74c-0.26-0.08-0.54-0.17-0.79-0.25
			C557.29,409.21,546.59,405.1,532.74,397.13z"/>
		<path class="st2" d="M665.56,486.11c10.48-1.18,33.03-1.19,37.56-13.24c0.77-2.06,0.88-3.86,0.58-5.48
			c-10.84-4.21-22.16-8.57-33.88-13.16c-16.7-6.54-32.84-13-48.19-18.97c-10.02,8.42,1.58,30.19,5.16,38.93
			C634.31,492.51,648.5,488.03,665.56,486.11z"/>
		<path class="st2" d="M536.38,695.21c-2.72-1.9-16.78-1.34-17.55,10.21c-0.43,6.46,1.16,13.86,5.02,19.22
			c4.5,6.26,11.62,6.98,17.86,3.08c0.32-10.4,0.68-19.64,1.03-26.95C540.86,698.71,538.73,696.86,536.38,695.21z"/>
		<path class="st2" d="M784.51,532.49c0.13,7.29,8.71,14.78,12.88,20.23c4.84,6.33,9.69,15.79,17.86,18.06
			c7.73,2.15,14.23-2.3,20.24-6.67c4.57-3.33,9.84-7.04,9.86-12.75c-0.67-0.96-1.28-1.93-1.98-2.88
			c-4.41-6.02-8.77-11.25-13.75-16.17c-0.19-0.09-0.6-0.68-0.79-0.77c-2.32-2.2-2.87-2.52-5.07-3.13
			C815.06,525.96,784.2,514.52,784.51,532.49z"/>
		<path class="st2" d="M740.96,644.28c-4.26-1.44-8.49-2.42-12.56,0.18c-2.71,1.73-9.32,14.55-10.52,18.15
			c-1.73,5.2-0.4,11.76,5.53,13.46c3.53,1.01,8.45,1.56,12.14,1.45c5.94-0.17,12.68-17.31,13.73-21.13
			C751.01,650.11,746.29,646.08,740.96,644.28z"/>
		<path class="st2" d="M771.06,737.96c-2.11-4.28-3.8-7.99-8.93-9.31c-5.15-1.32-10.05,1.61-13.53,5.16
			c-2.2,2.24-2.72,4.83-2.23,7.19c0.79,9,0.11,18.66,7.56,25.24c7.35,6.5,19.66,5.11,23.94-4.16c1.94-4.2,1.55-8.94-0.1-13.16
			C776.17,744.83,772.99,741.86,771.06,737.96z"/>
		<path class="st2" d="M772.2,680.36c-3.1-0.19-9.78-0.64-14.13,5.97c-2.17,3.3-4.04,6.79-6.05,10.18
			c-2.24,3.76-4.65,7.26-3.22,11.83c0.83,2.62,2.99,5.36,5.87,5.87c3.53,0.63,7.01,0.19,10.57-0.04c3.45-0.22,7.53-0.01,10.63-1.82
			c5.34-3.12,9.32-11.76,9.43-17.79C785.44,687.02,779.75,680.82,772.2,680.36z"/>
		<path class="st2" d="M803.49,708.54c-0.75,8.31-2.58,24.87,10.84,23.28c2.97-0.35,5.83-2.03,8.43-4.34
			c2.08-12.26,4.84-23.71,7.51-33.21c-2.05-1.31-4.51-2.01-7-1.96C816.71,692.43,804.55,696.84,803.49,708.54z"/>
	</g>
	<path class="st6" d="M302.59,49.88c0,4.06-3.29,7.36-7.36,7.36c-4.06,0-7.36-3.29-7.36-7.36s3.29-7.36,7.36-7.36
		C299.3,42.52,302.59,45.81,302.59,49.88z"/>
	<polygon class="st0" points="310.74,82.03 288.79,91.14 287.87,49.88 302.59,49.88 	"/>
	<path class="st6" d="M345.98,56.22c-1.41,3.81,0.54,8.04,4.35,9.45c3.81,1.41,8.04-0.54,9.45-4.35c1.41-3.81-0.54-8.04-4.35-9.45
		C351.62,50.46,347.39,52.41,345.98,56.22z"/>
	<polygon class="st0" points="327.2,83.55 344.62,99.7 359.79,61.32 345.98,56.22 	"/>
	<path class="st7" d="M499.04,1060.47c-0.05-0.04-3.31-2.04-5.61-2.67c-25.93,15.07-24.23,25.12-24.23,25.12l8.95-0.04
		c-2.73,5.21-2.97,8.45-2.97,8.45l36.19-8.58l2.22-6.75C509.08,1067.72,505.47,1065.19,499.04,1060.47z"/>
	<path class="st7" d="M782.94,1060.04c-0.05-0.04-5.04-3.45-7.35-4.08c-19.32,9.47-24.96,26.71-24.96,26.71l11.41-0.22
		c-2.73,5.21-2.97,8.45-2.97,8.45l36.04-8.31l2.99-6.76C793.6,1067.55,789.37,1064.75,782.94,1060.04z"/>
	<path class="st7" d="M861.73,1042.86c-0.05-0.04-5.85-3.75-8.15-4.38c-19.32,9.47-24.96,26.71-24.96,26.71l11.41-0.22
		c-2.73,5.21-2.97,8.45-2.97,8.45l36.85-8.01l2.16-8.21C871.57,1048.92,868.16,1047.58,861.73,1042.86z"/>
	<path class="st3" d="M352.26,127.94c0-27.24-17.57-49.32-39.24-49.32c-21.67,0-39.24,22.08-39.24,49.32
		c0,7.11-4.15,30.27-6.13,37.09c-5.15,17.8,1.18,35.27,14.13,39.02c5.43,1.57,11.16,0.48,16.37-2.62
		c7.22-4.3,36.89-30.86,43.65-40.01C348.29,152.64,352.26,140.88,352.26,127.94z"/>
	<path class="st4" d="M313.16,78.35c-4.07,0-7.99,0.99-11.68,2.43l-26.07,69c-2.97,5.31-7,12.87-7.78,15.58
		c-5.15,17.8,1.18,35.27,14.13,39.02c5.43,1.57,11.16,0.48,16.37-2.62c2.22-1.32,6.57-4.76,11.72-9.14
		c0.55-2.69,0.87-5.48,0.87-8.37c0-5.82-1.2-11.3-3.28-16.14l28.63-80.07C329.63,82.18,321.74,78.35,313.16,78.35z"/>
	<path class="st8" d="M344.26,125.09c0.43,3.6-3.93,7.08-9.73,7.77c-5.8,0.69-10.85-1.68-11.28-5.28c-0.43-3.6,3.93-7.08,9.73-7.77
		C338.78,119.12,343.83,121.49,344.26,125.09z"/>
	<path class="st9" d="M326.21,127.9c-0.88-2.61,1.34-5.44,4.95-6.3c3.61-0.87,7.25,0.55,8.13,3.17c0.88,2.61-1.34,5.44-4.95,6.3
		C330.72,131.94,327.09,130.52,326.21,127.9z"/>
	<path class="st10" d="M336.95,127.52c0.03-0.64,0.57-1.14,1.21-1.11c0.64,0.03,1.14,0.57,1.11,1.21c-0.03,0.64-0.57,1.14-1.21,1.11
		C337.42,128.7,336.92,128.16,336.95,127.52z"/>
	<path class="st8" d="M297.29,124.38c-1.29,3.39-6.39,4.6-11.38,2.7c-5-1.9-8-6.19-6.71-9.58c1.29-3.39,6.39-4.6,11.38-2.7
		C295.57,116.69,298.58,120.98,297.29,124.38z"/>
	<path class="st9" d="M281.42,118.71c0.45-2.72,3.38-4.27,6.54-3.46c3.16,0.81,5.37,3.67,4.92,6.39s-3.38,4.27-6.54,3.46
		C283.17,124.3,280.97,121.44,281.42,118.71z"/>
	<path class="st10" d="M290.56,121.77c0.32-0.55,1.03-0.74,1.59-0.42c0.55,0.32,0.74,1.03,0.42,1.59c-0.32,0.55-1.03,0.74-1.59,0.42
		C290.42,123.03,290.24,122.32,290.56,121.77z"/>
	<path class="st6" d="M280.51,171.67c0,4.16-2.15,9.29-2.15,9.29s-2.86-5.12-2.86-9.29s1.48-5.78,2.86-5.78
		C279.74,165.89,280.51,167.51,280.51,171.67z"/>
	<path class="st6" d="M294.8,175.62c-1.63,3.83-5.62,7.7-5.62,7.7s-0.62-5.84,1.02-9.66c1.63-3.83,3.63-4.74,4.9-4.19
		C296.37,170,296.44,171.79,294.8,175.62z"/>
	<path class="st2" d="M887.4,859.82c-3.08-8.33-4.01-17.16-3.62-26.87c0.43-10.69-0.49-19.76-6.12-28.99
		c-1.41-2.31-5.04-0.2-3.63,2.12c8.26,13.54,3.9,27.11,5.75,41.85c0.93,7.4,3.32,14.22,6.84,20.55c0.43-2.55,0.71-4.98,0.79-7.18
		C887.42,860.8,887.4,860.32,887.4,859.82z M871.16,843.41c-3.73-8.11-7.13-15.67-7.32-24.76c-0.18-8.2,1.82-16.27,2.92-24.34
		c1.43-10.57,1.28-20.54-3.57-30.22c-1.21-2.42-4.84-0.29-3.63,2.12c10.95,21.84-5.27,46.31,3.44,69.09
		c3.92,10.23,9.17,19.67,11.77,30.41c0.33,1.39,2,16.04,2.58,27.37c1.71-2.71,3.19-5.57,4.45-8.47c-0.21-2.45-0.46-4.74-0.66-6.66
		C879.85,865.83,876.23,854.45,871.16,843.41z"/>
	<path class="st2" d="M310.37,178.18c-0.29-1.97-0.69-3.88-1.24-5.72c-0.12,0.16-0.22,0.34-0.27,0.55
		c-0.87,3.51-2.06,6.96-3.56,10.23c-3.83,8.39-9.58,15.7-17.06,21.8c1.99-0.14,3.98-0.58,5.93-1.31
		c5.87-5.61,10.49-12.06,13.79-19.28C308.88,182.42,309.66,180.32,310.37,178.18z"/>
</g>
</svg>
