<?xml version="1.0" encoding="utf-8"?>
<!-- Generator: Adobe Illustrator 26.0.3, SVG Export Plug-In . SVG Version: 6.00 Build 0)  -->
<svg version="1.1" id="Layer_1" xmlns="http://www.w3.org/2000/svg" xmlns:xlink="http://www.w3.org/1999/xlink" x="0px" y="0px"
	 viewBox="0 0 1133.86 1133.86" style="enable-background:new 0 0 1133.86 1133.86;" xml:space="preserve">
<style type="text/css">
	.st0{fill:#922442;}
	.st1{fill:#B63A5E;}
	.st2{fill:#B4596E;}
	.st3{fill:#A12A49;}
	.st4{fill:#7AC043;}
	.st5{fill:#6C9E41;}
</style>
<g id="XMLID_6058_">
	<g id="XMLID_7744_">
		<g id="XMLID_8388_">
			<path id="XMLID_8403_" class="st0" d="M880.04,615.23c9.28,11.89,15.98,26.38,18.85,42.41c8.58,47.91-19.93,93.1-63.7,100.94
				c-20.81,3.73-41.32-1.67-58.04-13.5c18.33,23.75,47.24,36.8,76.75,31.52c43.76-7.84,72.28-53.03,63.7-100.94
				C913.05,650.23,898.88,628.68,880.04,615.23z"/>
			<path id="XMLID_8400_" class="st1" d="M833.68,634.9c-7.86-5.62-17.45-8.25-27.14-6.51c-20.65,3.7-33.96,25.81-29.91,48.42
				c1.32,7.36,4.33,13.95,8.51,19.36c8.65,11.21,22.29,17.37,36.21,14.87c20.65-3.7,34.11-25.02,30.06-47.63
				C849.25,651.42,842.57,641.25,833.68,634.9z"/>
			<path id="XMLID_8397_" class="st2" d="M811.55,650.95c-3.42-2.44-7.59-3.59-11.8-2.83c-8.98,1.61-14.77,11.22-13.01,21.05
				c0.57,3.2,1.88,6.07,3.7,8.42c3.76,4.87,9.69,7.55,15.75,6.47c8.98-1.61,14.83-10.88,13.07-20.71
				C818.32,658.14,815.41,653.72,811.55,650.95z"/>
			<g id="XMLID_8389_">
				<path id="XMLID_3635_" class="st3" d="M880.04,615.23c-16.66-11.9-36.98-17.48-57.52-13.8c-43.76,7.84-71.98,54.7-63.4,102.61
					c2.79,15.6,9.18,29.56,18.03,41.03c16.71,11.83,37.22,17.23,58.04,13.5c43.76-7.84,72.28-53.03,63.7-100.94
					C896.02,641.6,889.32,627.12,880.04,615.23z M821.35,711.04c-13.93,2.49-27.56-3.66-36.21-14.87c-4.18-5.41-7.19-12-8.51-19.36
					c-4.05-22.61,9.27-44.72,29.91-48.42c9.69-1.74,19.28,0.89,27.14,6.51c8.89,6.35,15.57,16.51,17.72,28.51
					C855.45,686.02,842,707.34,821.35,711.04z"/>
			</g>
		</g>
		<g id="XMLID_8370_">
			<path id="XMLID_8385_" class="st0" d="M579.47,635.1c9.28,11.89,15.98,26.38,18.85,42.41c8.58,47.91-19.93,93.1-63.7,100.94
				c-20.81,3.73-41.32-1.67-58.04-13.5c18.33,23.75,47.24,36.8,76.75,31.52c43.76-7.84,72.28-53.03,63.7-100.94
				C612.47,670.11,598.3,648.56,579.47,635.1z"/>
			<path id="XMLID_8382_" class="st1" d="M533.11,654.78c-7.86-5.62-17.45-8.25-27.14-6.51c-20.65,3.7-33.96,25.81-29.91,48.42
				c1.32,7.36,4.33,13.95,8.51,19.36c8.65,11.21,22.29,17.37,36.21,14.87c20.65-3.7,34.11-25.02,30.06-47.63
				C548.68,671.3,542,661.13,533.11,654.78z"/>
			<path id="XMLID_8379_" class="st2" d="M510.97,670.83c-3.42-2.44-7.59-3.59-11.8-2.83c-8.98,1.61-14.77,11.22-13.01,21.05
				c0.57,3.2,1.88,6.07,3.7,8.42c3.76,4.87,9.69,7.55,15.75,6.47c8.98-1.61,14.83-10.88,13.07-20.71
				C517.75,678.02,514.84,673.59,510.97,670.83z"/>
			<g id="XMLID_8371_">
				<path id="XMLID_3605_" class="st3" d="M579.47,635.1c-16.66-11.9-36.98-17.48-57.52-13.8c-43.76,7.84-71.98,54.7-63.4,102.61
					c2.8,15.6,9.18,29.56,18.03,41.03c16.71,11.83,37.22,17.23,58.04,13.5c43.76-7.84,72.28-53.03,63.7-100.94
					C595.45,661.48,588.75,647,579.47,635.1z M520.78,730.92c-13.93,2.49-27.56-3.66-36.21-14.87c-4.18-5.41-7.19-12-8.51-19.36
					c-4.05-22.61,9.27-44.72,29.91-48.42c9.69-1.74,19.28,0.89,27.14,6.51c8.89,6.35,15.57,16.51,17.72,28.51
					C554.88,705.9,541.42,727.22,520.78,730.92z"/>
			</g>
		</g>
		<g id="XMLID_8352_">
			<path id="XMLID_8367_" class="st0" d="M646.65,458.05c9.28,11.89,15.98,26.38,18.85,42.41c8.58,47.91-19.93,93.1-63.7,100.94
				c-20.81,3.73-41.32-1.67-58.04-13.5c18.33,23.75,47.24,36.8,76.75,31.52c43.76-7.84,72.28-53.03,63.7-100.94
				C679.65,493.05,665.48,471.5,646.65,458.05z"/>
			<path id="XMLID_8364_" class="st1" d="M600.29,477.73c-7.86-5.62-17.45-8.25-27.14-6.51c-20.65,3.7-33.96,25.81-29.91,48.42
				c1.32,7.36,4.33,13.95,8.51,19.36c8.65,11.21,22.29,17.37,36.21,14.87c20.65-3.7,34.11-25.02,30.06-47.63
				C615.86,494.24,609.18,484.07,600.29,477.73z"/>
			<path id="XMLID_8361_" class="st2" d="M578.15,493.78c-3.42-2.44-7.59-3.59-11.8-2.83c-8.98,1.61-14.77,11.22-13.01,21.05
				c0.57,3.2,1.88,6.07,3.7,8.42c3.76,4.87,9.69,7.55,15.75,6.47c8.98-1.61,14.83-10.88,13.07-20.71
				C584.93,500.96,582.02,496.54,578.15,493.78z"/>
			<g id="XMLID_8353_">
				<path id="XMLID_3599_" class="st3" d="M646.65,458.05c-16.66-11.9-36.98-17.48-57.52-13.8c-43.76,7.84-71.98,54.7-63.4,102.61
					c2.8,15.6,9.18,29.56,18.03,41.03c16.71,11.83,37.22,17.23,58.04,13.5c43.76-7.84,72.28-53.03,63.7-100.94
					C662.63,484.42,655.93,469.94,646.65,458.05z M587.96,553.86c-13.93,2.49-27.56-3.66-36.21-14.87c-4.18-5.41-7.19-12-8.51-19.36
					c-4.05-22.61,9.27-44.72,29.91-48.42c9.69-1.74,19.28,0.89,27.14,6.51c8.89,6.35,15.57,16.51,17.72,28.51
					C622.06,528.84,608.6,550.16,587.96,553.86z"/>
			</g>
		</g>
		<g id="XMLID_8311_">
			<path id="XMLID_8349_" class="st0" d="M698.18,384.87c9.28,11.89,15.98,26.38,18.85,42.41c8.58,47.91-19.93,93.1-63.7,100.94
				c-20.81,3.73-41.32-1.67-58.04-13.5c18.33,23.75,47.24,36.8,76.75,31.52c43.76-7.84,72.28-53.03,63.7-100.94
				C731.18,419.87,717.01,398.32,698.18,384.87z"/>
			<path id="XMLID_8346_" class="st1" d="M651.82,404.55c-7.86-5.62-17.45-8.25-27.14-6.51c-20.65,3.7-33.96,25.81-29.91,48.42
				c1.32,7.36,4.33,13.95,8.51,19.36c8.65,11.21,22.29,17.37,36.21,14.87c20.65-3.7,34.11-25.02,30.05-47.63
				C667.39,421.06,660.7,410.9,651.82,404.55z"/>
			<path id="XMLID_8343_" class="st2" d="M629.68,420.6c-3.42-2.44-7.59-3.59-11.8-2.83c-8.98,1.61-14.77,11.22-13.01,21.05
				c0.57,3.2,1.88,6.07,3.7,8.42c3.76,4.87,9.69,7.55,15.75,6.47c8.98-1.61,14.83-10.88,13.07-20.71
				C636.45,427.78,633.55,423.36,629.68,420.6z"/>
			<g id="XMLID_8312_">
				<path id="XMLID_3590_" class="st3" d="M698.18,384.87c-16.66-11.9-36.98-17.48-57.52-13.8c-43.76,7.84-71.98,54.7-63.4,102.61
					c2.8,15.6,9.18,29.56,18.03,41.03c16.71,11.83,37.22,17.23,58.04,13.5c43.76-7.84,72.28-53.03,63.7-100.94
					C714.15,411.24,707.45,396.76,698.18,384.87z M639.48,480.68c-13.93,2.49-27.56-3.66-36.21-14.87c-4.18-5.41-7.19-12-8.51-19.36
					c-4.05-22.61,9.27-44.72,29.91-48.42c9.69-1.74,19.28,0.89,27.14,6.51c8.89,6.35,15.57,16.51,17.72,28.51
					C673.59,455.66,660.13,476.98,639.48,480.68z"/>
			</g>
		</g>
		<g id="XMLID_8243_">
			<path id="XMLID_8308_" class="st0" d="M770.38,527.69c9.28,11.89,15.98,26.38,18.85,42.41c8.58,47.91-19.93,93.1-63.7,100.94
				c-20.81,3.73-41.32-1.67-58.04-13.5c18.33,23.75,47.24,36.8,76.75,31.52c43.76-7.84,72.28-53.03,63.7-100.94
				C803.39,562.69,789.22,541.14,770.38,527.69z"/>
			<path id="XMLID_8305_" class="st1" d="M724.02,547.37c-7.86-5.62-17.45-8.25-27.14-6.51c-20.65,3.7-33.96,25.81-29.91,48.42
				c1.32,7.36,4.33,13.95,8.51,19.36c8.65,11.21,22.29,17.37,36.21,14.87c20.65-3.7,34.11-25.02,30.05-47.63
				C739.59,563.88,732.91,553.71,724.02,547.37z"/>
			<path id="XMLID_8294_" class="st2" d="M701.89,563.42c-3.42-2.44-7.59-3.59-11.8-2.83c-8.98,1.61-14.77,11.22-13.01,21.05
				c0.57,3.2,1.88,6.07,3.7,8.42c3.76,4.87,9.69,7.55,15.75,6.47c8.98-1.61,14.83-10.88,13.07-20.71
				C708.66,570.6,705.75,566.18,701.89,563.42z"/>
			<g id="XMLID_8244_">
				<path id="XMLID_3548_" class="st3" d="M770.38,527.69c-16.66-11.9-36.98-17.48-57.52-13.8c-43.76,7.84-71.98,54.7-63.4,102.61
					c2.8,15.6,9.18,29.56,18.03,41.03c16.71,11.83,37.22,17.23,58.04,13.5c43.76-7.84,72.28-53.03,63.7-100.94
					C786.36,554.06,779.66,539.58,770.38,527.69z M711.69,623.5c-13.93,2.49-27.56-3.66-36.21-14.87c-4.18-5.41-7.19-12-8.51-19.36
					c-4.05-22.61,9.27-44.72,29.91-48.42c9.69-1.74,19.28,0.89,27.14,6.51c8.89,6.35,15.57,16.51,17.72,28.51
					C745.79,598.48,732.34,619.8,711.69,623.5z"/>
			</g>
		</g>
		<g id="XMLID_8225_">
			<path id="XMLID_8240_" class="st0" d="M812.98,398.79c9.28,11.89,15.98,26.38,18.85,42.41c8.58,47.91-19.93,93.1-63.7,100.94
				c-20.81,3.73-41.32-1.67-58.04-13.5c18.33,23.75,47.24,36.8,76.75,31.52c43.76-7.84,72.28-53.03,63.7-100.94
				C845.99,433.79,831.82,412.24,812.98,398.79z"/>
			<path id="XMLID_8237_" class="st1" d="M766.62,418.47c-7.86-5.62-17.45-8.25-27.14-6.51c-20.65,3.7-33.96,25.81-29.91,48.42
				c1.32,7.36,4.33,13.95,8.51,19.36c8.65,11.21,22.29,17.37,36.21,14.87c20.65-3.7,34.11-25.02,30.06-47.63
				C782.2,434.98,775.51,424.81,766.62,418.47z"/>
			<path id="XMLID_8234_" class="st2" d="M744.49,434.52c-3.42-2.44-7.59-3.59-11.8-2.83c-8.98,1.61-14.77,11.22-13.01,21.05
				c0.57,3.2,1.88,6.07,3.7,8.42c3.76,4.87,9.69,7.55,15.75,6.47c8.98-1.61,14.83-10.88,13.07-20.71
				C751.26,441.7,748.35,437.28,744.49,434.52z"/>
			<g id="XMLID_8226_">
				<path id="XMLID_3482_" class="st3" d="M812.98,398.79c-16.66-11.9-36.98-17.48-57.52-13.8c-43.76,7.84-71.98,54.7-63.4,102.61
					c2.8,15.6,9.18,29.56,18.03,41.03c16.71,11.83,37.22,17.23,58.04,13.5c43.76-7.84,72.28-53.03,63.7-100.94
					C828.96,425.16,822.26,410.68,812.98,398.79z M754.29,494.6c-13.93,2.49-27.56-3.66-36.21-14.87c-4.18-5.41-7.19-12-8.51-19.36
					c-4.05-22.61,9.27-44.72,29.91-48.42c9.69-1.74,19.28,0.89,27.14,6.51c8.89,6.35,15.57,16.51,17.72,28.51
					C788.39,469.58,774.94,490.9,754.29,494.6z"/>
			</g>
		</g>
		<g id="XMLID_8205_">
			<path id="XMLID_8222_" class="st0" d="M776.19,341.59c9.28,11.89,15.98,26.38,18.85,42.41c8.58,47.91-19.93,93.1-63.7,100.94
				c-20.81,3.73-41.32-1.67-58.04-13.5c18.33,23.75,47.24,36.8,76.75,31.52c43.76-7.84,72.28-53.03,63.7-100.94
				C809.19,376.59,795.02,355.05,776.19,341.59z"/>
			<path id="XMLID_8219_" class="st1" d="M729.83,361.27c-7.86-5.62-17.45-8.25-27.14-6.51c-20.65,3.7-33.96,25.81-29.91,48.42
				c1.32,7.36,4.33,13.95,8.51,19.36c8.65,11.21,22.29,17.37,36.21,14.87c20.65-3.7,34.1-25.02,30.05-47.63
				C745.4,377.78,738.72,367.62,729.83,361.27z"/>
			<path id="XMLID_8214_" class="st2" d="M707.7,377.32c-3.42-2.44-7.59-3.59-11.8-2.83c-8.98,1.61-14.77,11.22-13.01,21.05
				c0.57,3.2,1.88,6.07,3.7,8.42c3.76,4.87,9.69,7.55,15.75,6.47c8.98-1.61,14.83-10.88,13.07-20.71
				C714.47,384.5,711.56,380.08,707.7,377.32z"/>
			<g id="XMLID_8206_">
				<path id="XMLID_3473_" class="st3" d="M776.19,341.59c-16.66-11.9-36.98-17.48-57.52-13.8c-43.76,7.84-71.98,54.7-63.4,102.61
					c2.8,15.6,9.18,29.56,18.03,41.03c16.71,11.83,37.22,17.23,58.04,13.5c43.76-7.84,72.28-53.03,63.7-100.94
					C792.17,367.97,785.47,353.48,776.19,341.59z M717.5,437.41c-13.93,2.49-27.56-3.66-36.21-14.87c-4.18-5.41-7.19-12-8.51-19.36
					c-4.05-22.61,9.27-44.72,29.91-48.42c9.69-1.74,19.28,0.89,27.14,6.51c8.89,6.35,15.57,16.51,17.72,28.51
					C751.6,412.38,738.14,433.71,717.5,437.41z"/>
			</g>
		</g>
		<g id="XMLID_8163_">
			<path id="XMLID_8202_" class="st0" d="M856.19,370.99c6.83,8.75,11.76,19.41,13.87,31.21c6.32,35.26-14.67,68.52-46.88,74.29
				c-15.32,2.74-30.41-1.23-42.71-9.94c13.49,17.48,34.76,27.08,56.48,23.19c32.21-5.77,53.19-39.03,46.88-74.29
				C880.48,396.75,870.05,380.9,856.19,370.99z"/>
			<path id="XMLID_8189_" class="st1" d="M822.07,385.48c-5.79-4.13-12.84-6.07-19.97-4.79c-15.2,2.72-25,19-22.01,35.63
				c0.97,5.42,3.19,10.27,6.26,14.25c6.37,8.25,16.4,12.78,26.65,10.94c15.2-2.72,25.1-18.42,22.12-35.05
				C833.53,397.63,828.61,390.15,822.07,385.48z"/>
			<path id="XMLID_8173_" class="st2" d="M805.78,397.29c-2.52-1.8-5.58-2.64-8.69-2.08c-6.61,1.18-10.87,8.26-9.57,15.49
				c0.42,2.36,1.39,4.46,2.72,6.2c2.77,3.59,7.13,5.56,11.59,4.76c6.61-1.18,10.91-8.01,9.62-15.24
				C810.77,402.57,808.63,399.32,805.78,397.29z"/>
			<g id="XMLID_8164_">
				<path id="XMLID_3456_" class="st3" d="M856.19,370.99c-12.26-8.76-27.21-12.86-42.33-10.15c-32.21,5.77-52.97,40.26-46.66,75.52
					c2.06,11.48,6.76,21.76,13.27,30.2c12.3,8.71,27.4,12.68,42.71,9.94c32.21-5.77,53.19-39.03,46.88-74.29
					C867.95,390.41,863.02,379.75,856.19,370.99z M812.99,441.51c-10.25,1.84-20.29-2.7-26.65-10.94
					c-3.07-3.98-5.29-8.83-6.26-14.25c-2.98-16.64,6.82-32.91,22.02-35.63c7.13-1.28,14.19,0.66,19.97,4.79
					c6.54,4.67,11.46,12.15,13.04,20.98C838.09,423.09,828.19,438.79,812.99,441.51z"/>
			</g>
		</g>
		<g id="XMLID_8145_">
			<path id="XMLID_8160_" class="st0" d="M915.57,497.39c7.71,9.88,13.27,21.91,15.65,35.22c7.13,39.79-16.56,77.32-52.9,83.83
				c-17.29,3.1-34.32-1.39-48.2-11.21c15.22,19.73,39.23,30.57,63.74,26.17c36.34-6.51,60.03-44.05,52.9-83.83
				C942.98,526.46,931.21,508.57,915.57,497.39z"/>
			<path id="XMLID_8157_" class="st1" d="M877.06,513.74c-6.53-4.67-14.49-6.85-22.54-5.41c-17.15,3.07-28.21,21.44-24.84,40.21
				c1.1,6.11,3.6,11.59,7.07,16.08c7.18,9.31,18.51,14.42,30.07,12.35c17.15-3.07,28.32-20.78,24.96-39.56
				C890,527.45,884.44,519.01,877.06,513.74z"/>
			<path id="XMLID_8154_" class="st2" d="M858.68,527.07c-2.84-2.03-6.3-2.98-9.8-2.35c-7.46,1.34-12.27,9.32-10.8,17.49
				c0.48,2.66,1.56,5.04,3.07,6.99c3.12,4.05,8.05,6.27,13.08,5.37c7.46-1.34,12.32-9.04,10.85-17.2
				C864.31,533.03,861.89,529.36,858.68,527.07z"/>
			<g id="XMLID_8146_">
				<path id="XMLID_2933_" class="st3" d="M915.57,497.39c-13.84-9.89-30.71-14.52-47.77-11.46c-36.35,6.51-59.78,45.43-52.65,85.22
					c2.32,12.96,7.63,24.55,14.98,34.08c13.88,9.83,30.92,14.31,48.2,11.21c36.35-6.51,60.03-44.05,52.9-83.83
					C928.84,519.3,923.27,507.27,915.57,497.39z M866.82,576.97c-11.56,2.07-22.89-3.04-30.07-12.35
					c-3.47-4.49-5.97-9.97-7.07-16.08c-3.36-18.77,7.69-37.14,24.84-40.21c8.05-1.44,16.01,0.74,22.54,5.41
					c7.38,5.27,12.93,13.72,14.72,23.68C895.14,556.19,883.97,573.9,866.82,576.97z"/>
			</g>
		</g>
		<g id="XMLID_8127_">
			<path id="XMLID_8142_" class="st0" d="M674.89,712.99c9.28,11.89,15.98,26.38,18.85,42.41c8.58,47.91-19.93,93.1-63.7,100.94
				c-20.81,3.73-41.32-1.67-58.04-13.5c18.33,23.75,47.24,36.8,76.75,31.52c43.76-7.84,72.28-53.03,63.7-100.94
				C707.9,747.99,693.73,726.45,674.89,712.99z"/>
			<path id="XMLID_8139_" class="st1" d="M628.53,732.67c-7.86-5.62-17.45-8.25-27.14-6.51c-20.65,3.7-33.96,25.81-29.91,48.42
				c1.32,7.36,4.33,13.95,8.51,19.36c8.65,11.21,22.29,17.37,36.21,14.87c20.65-3.7,34.11-25.02,30.06-47.63
				C644.11,749.19,637.42,739.02,628.53,732.67z"/>
			<path id="XMLID_8136_" class="st2" d="M606.4,748.72c-3.42-2.44-7.59-3.59-11.8-2.83c-8.98,1.61-14.77,11.22-13.01,21.05
				c0.57,3.2,1.88,6.07,3.7,8.42c3.76,4.87,9.69,7.55,15.75,6.47c8.98-1.61,14.83-10.88,13.07-20.71
				C613.17,755.9,610.26,751.48,606.4,748.72z"/>
			<g id="XMLID_8128_">
				<path id="XMLID_2884_" class="st3" d="M674.89,712.99c-16.66-11.9-36.98-17.48-57.52-13.8c-43.76,7.84-71.98,54.7-63.4,102.61
					c2.8,15.6,9.18,29.56,18.03,41.03c16.71,11.83,37.22,17.23,58.04,13.5c43.76-7.84,72.28-53.03,63.7-100.94
					C690.87,739.37,684.17,724.88,674.89,712.99z M616.2,808.81c-13.93,2.49-27.56-3.66-36.21-14.87c-4.18-5.41-7.19-12-8.51-19.36
					c-4.05-22.61,9.27-44.72,29.91-48.42c9.69-1.74,19.28,0.89,27.14,6.51c8.89,6.35,15.57,16.51,17.72,28.51
					C650.3,783.79,636.85,805.11,616.2,808.81z"/>
			</g>
		</g>
		<g id="XMLID_8106_">
			<path id="XMLID_8124_" class="st0" d="M767.51,790.53c9.28,11.89,15.98,26.38,18.85,42.41c8.58,47.91-19.93,93.1-63.7,100.94
				c-20.81,3.73-41.32-1.67-58.04-13.5c18.33,23.75,47.24,36.8,76.75,31.52c43.76-7.84,72.28-53.03,63.7-100.94
				C800.52,825.53,786.35,803.98,767.51,790.53z"/>
			<path id="XMLID_8118_" class="st1" d="M721.15,810.21c-7.86-5.62-17.45-8.25-27.14-6.51c-20.65,3.7-33.96,25.81-29.91,48.42
				c1.32,7.36,4.33,13.95,8.51,19.36c8.65,11.21,22.29,17.37,36.21,14.87c20.65-3.7,34.11-25.02,30.06-47.63
				C736.72,826.72,730.04,816.56,721.15,810.21z"/>
			<path id="XMLID_8115_" class="st2" d="M699.02,826.26c-3.42-2.44-7.59-3.59-11.8-2.83c-8.98,1.61-14.77,11.22-13.01,21.05
				c0.57,3.2,1.88,6.07,3.7,8.42c3.76,4.87,9.69,7.55,15.75,6.47c8.98-1.61,14.83-10.88,13.07-20.71
				C705.79,833.44,702.88,829.02,699.02,826.26z"/>
			<g id="XMLID_8107_">
				<path id="XMLID_2862_" class="st3" d="M767.51,790.53c-16.66-11.9-36.98-17.48-57.52-13.8c-43.76,7.84-71.98,54.7-63.4,102.61
					c2.8,15.6,9.18,29.56,18.03,41.03c16.71,11.83,37.22,17.23,58.04,13.5c43.76-7.84,72.28-53.03,63.7-100.94
					C783.49,816.91,776.79,802.42,767.51,790.53z M708.82,886.34c-13.93,2.49-27.56-3.66-36.21-14.87c-4.18-5.41-7.19-12-8.51-19.36
					c-4.05-22.61,9.26-44.72,29.91-48.42c9.69-1.74,19.28,0.89,27.14,6.51c8.89,6.35,15.57,16.51,17.72,28.51
					C742.92,861.32,729.47,882.65,708.82,886.34z"/>
			</g>
		</g>
		<g id="XMLID_8088_">
			<path id="XMLID_8103_" class="st0" d="M813.99,928.82c7.43,9.52,12.79,21.11,15.09,33.94c6.87,38.35-15.96,74.52-50.98,80.8
				c-16.66,2.98-33.08-1.34-46.45-10.81c14.67,19.01,37.81,29.46,61.43,25.23c35.03-6.28,57.85-42.45,50.98-80.79
				C840.41,956.83,829.07,939.59,813.99,928.82z"/>
			<path id="XMLID_8100_" class="st1" d="M776.89,944.57c-6.29-4.5-13.97-6.6-21.72-5.21c-16.53,2.96-27.18,20.66-23.94,38.75
				c1.06,5.89,3.47,11.17,6.81,15.5c6.92,8.97,17.84,13.9,28.98,11.9c16.53-2.96,27.3-20.03,24.06-38.12
				C789.35,957.79,784,949.65,776.89,944.57z"/>
			<path id="XMLID_8097_" class="st2" d="M759.17,957.41c-2.74-1.96-6.07-2.87-9.45-2.27c-7.19,1.29-11.82,8.98-10.41,16.85
				c0.46,2.56,1.51,4.86,2.96,6.74c3.01,3.9,7.76,6.04,12.6,5.18c7.19-1.29,11.87-8.71,10.46-16.58
				C764.59,963.16,762.26,959.62,759.17,957.41z"/>
			<g id="XMLID_8089_">
				<path id="XMLID_2714_" class="st3" d="M813.99,928.82c-13.34-9.53-29.6-13.99-46.04-11.04c-35.03,6.28-57.61,43.78-50.74,82.13
					c2.24,12.49,7.35,23.66,14.43,32.84c13.38,9.47,29.79,13.79,46.45,10.81c35.03-6.28,57.85-42.45,50.98-80.8
					C826.78,949.93,821.42,938.33,813.99,928.82z M767.01,1005.51c-11.15,2-22.06-2.93-28.98-11.9c-3.34-4.33-5.76-9.6-6.81-15.5
					c-3.24-18.09,7.42-35.79,23.94-38.75c7.76-1.39,15.43,0.71,21.72,5.21c7.11,5.08,12.46,13.22,14.18,22.82
					C794.31,985.48,783.54,1002.55,767.01,1005.51z"/>
			</g>
		</g>
		<g id="XMLID_8070_">
			<path id="XMLID_8085_" class="st0" d="M923.79,981.85c6.41,8.22,11.04,18.22,13.02,29.3c5.93,33.1-13.77,64.32-44.01,69.74
				c-14.38,2.58-28.55-1.15-40.1-9.33c12.66,16.41,32.64,25.43,53.02,21.77c30.24-5.42,49.94-36.64,44.01-69.74
				C946.59,1006.03,936.8,991.14,923.79,981.85z"/>
			<path id="XMLID_8082_" class="st1" d="M891.76,995.44c-5.43-3.88-12.06-5.7-18.75-4.5c-14.27,2.56-23.47,17.83-20.67,33.45
				c0.91,5.09,2.99,9.64,5.88,13.38c5.98,7.74,15.4,12,25.02,10.27c14.27-2.56,23.56-17.29,20.77-32.91
				C902.51,1006.85,897.9,999.83,891.76,995.44z"/>
			<path id="XMLID_8079_" class="st2" d="M876.46,1006.53c-2.36-1.69-5.24-2.48-8.15-1.96c-6.2,1.11-10.2,7.76-8.99,14.55
				c0.4,2.21,1.3,4.19,2.56,5.82c2.6,3.37,6.7,5.22,10.88,4.47c6.2-1.11,10.25-7.52,9.03-14.31
				C881.14,1011.49,879.13,1008.44,876.46,1006.53z"/>
			<g id="XMLID_8071_">
				<path id="XMLID_2393_" class="st3" d="M923.79,981.85c-11.51-8.23-25.55-12.08-39.74-9.53c-30.24,5.42-49.73,37.79-43.8,70.89
					c1.93,10.78,6.34,20.43,12.46,28.35c11.55,8.18,25.72,11.91,40.1,9.33c30.24-5.42,49.94-36.64,44.01-69.74
					C934.83,1000.07,930.2,990.06,923.79,981.85z M883.23,1048.05c-9.62,1.72-19.04-2.53-25.02-10.27
					c-2.89-3.74-4.97-8.29-5.88-13.38c-2.8-15.62,6.4-30.89,20.67-33.45c6.7-1.2,13.32,0.62,18.75,4.5
					c6.14,4.39,10.76,11.41,12.24,19.7C906.8,1030.76,897.5,1045.49,883.23,1048.05z"/>
			</g>
		</g>
		<g id="XMLID_8044_">
			<path id="XMLID_8067_" class="st0" d="M915.12,868.12c7.79,9.98,13.41,22.15,15.83,35.6c7.21,40.22-16.74,78.17-53.48,84.75
				c-17.48,3.13-34.7-1.4-48.73-11.34c15.39,19.94,39.66,30.9,64.44,26.46c36.74-6.58,60.69-44.53,53.48-84.75
				C942.83,897.5,930.93,879.41,915.12,868.12z"/>
			<path id="XMLID_8064_" class="st1" d="M876.19,884.64c-6.6-4.72-14.65-6.92-22.79-5.47c-17.34,3.11-28.52,21.67-25.12,40.65
				c1.11,6.18,3.64,11.71,7.14,16.26c7.26,9.41,18.71,14.58,30.4,12.48c17.34-3.11,28.63-21.01,25.23-39.99
				C889.27,898.5,883.65,889.97,876.19,884.64z"/>
			<path id="XMLID_8061_" class="st2" d="M857.61,898.11c-2.87-2.05-6.37-3.01-9.91-2.38c-7.54,1.35-12.4,9.42-10.92,17.68
				c0.48,2.69,1.58,5.09,3.11,7.07c3.16,4.09,8.14,6.34,13.22,5.43c7.54-1.35,12.45-9.14,10.97-17.39
				C863.3,904.14,860.85,900.43,857.61,898.11z"/>
			<g id="XMLID_8045_">
				<path id="XMLID_2390_" class="st3" d="M915.12,868.12c-13.99-10-31.05-14.67-48.29-11.58c-36.74,6.58-60.43,45.93-53.23,86.15
					c2.35,13.1,7.71,24.82,15.14,34.45c14.03,9.94,31.25,14.47,48.73,11.34c36.74-6.58,60.69-44.53,53.48-84.75
					C928.53,890.26,922.91,878.1,915.12,868.12z M865.84,948.56c-11.69,2.09-23.14-3.08-30.4-12.48
					c-3.51-4.54-6.04-10.08-7.14-16.26c-3.4-18.98,7.78-37.54,25.12-40.65c8.14-1.46,16.19,0.75,22.79,5.47
					c7.46,5.33,13.07,13.87,14.88,23.94C894.47,927.55,883.17,945.46,865.84,948.56z"/>
			</g>
		</g>
		<g id="XMLID_8022_">
			<path id="XMLID_8038_" class="st0" d="M874.03,740.12c7.79,9.98,13.41,22.15,15.83,35.6c7.21,40.22-16.74,78.17-53.48,84.75
				c-17.48,3.13-34.7-1.4-48.73-11.34c15.39,19.94,39.66,30.9,64.44,26.46c36.74-6.58,60.69-44.53,53.48-84.75
				C901.74,769.5,889.84,751.41,874.03,740.12z"/>
			<path id="XMLID_8035_" class="st1" d="M835.1,756.64c-6.6-4.72-14.65-6.92-22.79-5.47c-17.34,3.11-28.52,21.67-25.12,40.65
				c1.11,6.18,3.64,11.71,7.14,16.26c7.26,9.41,18.71,14.58,30.4,12.48c17.34-3.11,28.63-21.01,25.23-39.99
				C848.18,770.5,842.56,761.97,835.1,756.64z"/>
			<path id="XMLID_8032_" class="st2" d="M816.52,770.11c-2.87-2.05-6.37-3.01-9.91-2.38c-7.54,1.35-12.4,9.42-10.92,17.68
				c0.48,2.69,1.58,5.09,3.11,7.07c3.16,4.09,8.14,6.34,13.22,5.43c7.54-1.35,12.45-9.14,10.97-17.39
				C822.2,776.14,819.76,772.43,816.52,770.11z"/>
			<g id="XMLID_8023_">
				<path id="XMLID_2380_" class="st3" d="M874.03,740.12c-13.99-10-31.05-14.67-48.29-11.58c-36.74,6.58-60.43,45.93-53.23,86.15
					c2.35,13.1,7.71,24.82,15.14,34.45c14.03,9.94,31.25,14.47,48.73,11.34c36.74-6.58,60.69-44.53,53.48-84.75
					C887.44,762.26,881.82,750.1,874.03,740.12z M824.75,820.56c-11.69,2.09-23.14-3.08-30.4-12.48
					c-3.51-4.54-6.04-10.08-7.14-16.26c-3.4-18.98,7.78-37.54,25.12-40.65c8.14-1.46,16.19,0.75,22.79,5.47
					c7.46,5.33,13.07,13.87,14.88,23.94C853.38,799.55,842.08,817.46,824.75,820.56z"/>
			</g>
		</g>
		<g id="XMLID_7860_">
			<path id="XMLID_8019_" class="st0" d="M890.44,837.93c7.79,9.98,13.41,22.15,15.83,35.6c7.21,40.22-16.74,78.17-53.48,84.75
				c-17.48,3.13-34.7-1.4-48.73-11.34c15.39,19.94,39.66,30.9,64.44,26.46c36.74-6.58,60.69-44.53,53.48-84.75
				C918.15,867.31,906.25,849.22,890.44,837.93z"/>
			<path id="XMLID_8016_" class="st1" d="M851.51,854.45c-6.6-4.72-14.65-6.92-22.79-5.47c-17.34,3.11-28.52,21.67-25.12,40.65
				c1.11,6.18,3.64,11.71,7.14,16.26c7.26,9.41,18.71,14.58,30.4,12.48c17.34-3.11,28.63-21.01,25.23-39.99
				C864.59,868.31,858.98,859.78,851.51,854.45z"/>
			<path id="XMLID_7869_" class="st2" d="M832.93,867.92c-2.87-2.05-6.37-3.01-9.91-2.38c-7.54,1.35-12.4,9.42-10.92,17.68
				c0.48,2.69,1.58,5.09,3.11,7.07c3.16,4.09,8.14,6.34,13.22,5.43c7.54-1.35,12.45-9.14,10.97-17.39
				C838.62,873.95,836.17,870.24,832.93,867.92z"/>
			<g id="XMLID_7861_">
				<path id="XMLID_1958_" class="st3" d="M890.44,837.93c-13.99-10-31.05-14.67-48.29-11.58c-36.74,6.58-60.43,45.93-53.23,86.15
					c2.35,13.1,7.71,24.82,15.14,34.45c14.03,9.94,31.25,14.47,48.73,11.34c36.74-6.58,60.69-44.53,53.48-84.75
					C903.85,860.07,898.23,847.91,890.44,837.93z M841.16,918.37c-11.69,2.09-23.14-3.08-30.4-12.48
					c-3.51-4.54-6.04-10.08-7.14-16.26c-3.4-18.98,7.78-37.54,25.12-40.65c8.14-1.46,16.19,0.75,22.79,5.47
					c7.46,5.33,13.07,13.87,14.88,23.94C869.79,897.36,858.49,915.27,841.16,918.37z"/>
			</g>
		</g>
		<g id="XMLID_7842_">
			<path id="XMLID_7857_" class="st0" d="M659.29,599.96c7.79,9.98,13.41,22.15,15.83,35.6c7.21,40.22-16.74,78.17-53.48,84.75
				c-17.48,3.13-34.7-1.4-48.73-11.34c15.39,19.94,39.66,30.9,64.44,26.46c36.74-6.58,60.69-44.53,53.48-84.75
				C687,629.35,675.1,611.26,659.29,599.96z"/>
			<path id="XMLID_7854_" class="st1" d="M620.37,616.48c-6.6-4.72-14.65-6.92-22.79-5.47c-17.34,3.11-28.52,21.67-25.12,40.65
				c1.11,6.18,3.64,11.71,7.14,16.26c7.26,9.41,18.71,14.58,30.4,12.48c17.34-3.11,28.63-21.01,25.23-39.99
				C633.44,630.35,627.83,621.81,620.37,616.48z"/>
			<path id="XMLID_7851_" class="st2" d="M601.78,629.96c-2.87-2.05-6.37-3.01-9.91-2.38c-7.54,1.35-12.4,9.42-10.92,17.68
				c0.48,2.69,1.58,5.09,3.11,7.07c3.16,4.09,8.14,6.34,13.22,5.43c7.54-1.35,12.45-9.14,10.97-17.39
				C607.47,635.99,605.03,632.28,601.78,629.96z"/>
			<g id="XMLID_7843_">
				<path id="XMLID_1935_" class="st3" d="M659.29,599.96c-13.99-10-31.05-14.67-48.29-11.58c-36.74,6.58-60.43,45.93-53.23,86.15
					c2.35,13.1,7.71,24.82,15.14,34.45c14.03,9.94,31.25,14.47,48.73,11.34c36.74-6.58,60.69-44.53,53.48-84.75
					C672.7,622.11,667.08,609.94,659.29,599.96z M610.01,680.41c-11.69,2.09-23.14-3.08-30.4-12.48
					c-3.51-4.54-6.04-10.08-7.14-16.26c-3.4-18.98,7.78-37.54,25.12-40.65c8.14-1.46,16.19,0.75,22.79,5.47
					c7.46,5.33,13.07,13.87,14.88,23.94C638.64,659.4,627.35,677.3,610.01,680.41z"/>
			</g>
		</g>
		<g id="XMLID_7799_">
			<path id="XMLID_7839_" class="st0" d="M753.29,704.02c7.79,9.98,13.41,22.15,15.83,35.6c7.21,40.22-16.74,78.17-53.48,84.75
				c-17.48,3.13-34.7-1.4-48.73-11.34c15.39,19.94,39.66,30.9,64.44,26.46c36.74-6.58,60.69-44.53,53.48-84.75
				C780.99,733.41,769.1,715.32,753.29,704.02z"/>
			<path id="XMLID_7836_" class="st1" d="M714.36,720.55c-6.6-4.72-14.65-6.92-22.79-5.47c-17.34,3.11-28.52,21.67-25.12,40.65
				c1.11,6.18,3.64,11.71,7.14,16.26c7.26,9.41,18.71,14.58,30.4,12.48c17.34-3.11,28.63-21.01,25.23-39.99
				C727.44,734.41,721.82,725.88,714.36,720.55z"/>
			<path id="XMLID_7808_" class="st2" d="M695.78,734.02c-2.87-2.05-6.37-3.01-9.91-2.38c-7.54,1.35-12.4,9.42-10.92,17.68
				c0.48,2.69,1.58,5.09,3.11,7.07c3.16,4.09,8.14,6.34,13.22,5.43c7.54-1.35,12.45-9.14,10.97-17.39
				C701.46,740.05,699.02,736.34,695.78,734.02z"/>
			<g id="XMLID_7800_">
				<path id="XMLID_1930_" class="st3" d="M753.29,704.02c-13.99-10-31.05-14.67-48.29-11.58c-36.74,6.58-60.43,45.93-53.23,86.15
					c2.35,13.1,7.71,24.82,15.14,34.45c14.03,9.94,31.25,14.47,48.73,11.34c36.74-6.58,60.69-44.53,53.48-84.75
					C766.7,726.17,761.08,714.01,753.29,704.02z M704.01,784.47c-11.69,2.09-23.14-3.08-30.4-12.48
					c-3.51-4.54-6.04-10.08-7.14-16.26c-3.4-18.98,7.78-37.54,25.12-40.65c8.14-1.46,16.19,0.75,22.79,5.47
					c7.46,5.33,13.07,13.87,14.88,23.94C732.64,763.46,721.34,781.36,704.01,784.47z"/>
			</g>
		</g>
		<g id="XMLID_7781_">
			<path id="XMLID_7796_" class="st0" d="M503.61,429.51c7.57,9.71,13.04,21.53,15.39,34.62c7.01,39.11-16.27,76.01-52,82.41
				c-16.99,3.04-33.74-1.36-47.38-11.02c14.96,19.39,38.56,30.04,62.65,25.73c35.73-6.4,59.01-43.3,52-82.41
				C530.55,458.09,518.98,440.5,503.61,429.51z"/>
			<path id="XMLID_7793_" class="st1" d="M465.76,445.58c-6.42-4.59-14.24-6.73-22.16-5.31c-16.86,3.02-27.73,21.07-24.42,39.53
				c1.08,6.01,3.54,11.39,6.95,15.81c7.06,9.15,18.2,14.18,29.56,12.14c16.86-3.02,27.84-20.43,24.54-38.88
				C478.47,459.06,473.01,450.76,465.76,445.58z"/>
			<path id="XMLID_7790_" class="st2" d="M447.69,458.68c-2.79-1.99-6.19-2.93-9.64-2.31c-7.33,1.31-12.06,9.16-10.62,17.19
				c0.47,2.61,1.54,4.95,3.02,6.87c3.07,3.98,7.91,6.16,12.86,5.28c7.33-1.31,12.11-8.88,10.67-16.91
				C453.22,464.55,450.84,460.94,447.69,458.68z"/>
			<g id="XMLID_7782_">
				<path id="XMLID_1910_" class="st3" d="M503.61,429.51c-13.6-9.72-30.19-14.27-46.96-11.26c-35.73,6.4-58.76,44.66-51.76,83.77
					c2.28,12.74,7.5,24.14,14.72,33.5c13.64,9.66,30.39,14.07,47.38,11.02c35.73-6.4,59.01-43.3,52-82.41
					C516.65,451.05,511.18,439.22,503.61,429.51z M455.69,507.74c-11.37,2.04-22.5-2.99-29.56-12.14c-3.41-4.42-5.87-9.8-6.95-15.81
					c-3.31-18.45,7.56-36.51,24.42-39.53c7.91-1.42,15.74,0.73,22.16,5.31c7.26,5.18,12.71,13.48,14.47,23.27
					C483.53,487.31,472.55,504.72,455.69,507.74z"/>
			</g>
		</g>
		<g id="XMLID_7763_">
			<path id="XMLID_7778_" class="st0" d="M490.25,533.27c9.28,11.89,15.98,26.38,18.85,42.41c8.58,47.91-19.93,93.1-63.7,100.94
				c-20.81,3.73-41.32-1.67-58.04-13.5c18.33,23.75,47.24,36.8,76.75,31.52c43.76-7.84,72.28-53.03,63.7-100.94
				C523.25,568.27,509.08,546.72,490.25,533.27z"/>
			<path id="XMLID_7775_" class="st1" d="M443.89,552.95c-7.86-5.62-17.45-8.25-27.14-6.51c-20.65,3.7-33.96,25.81-29.91,48.42
				c1.32,7.36,4.33,13.95,8.51,19.36c8.65,11.21,22.29,17.37,36.21,14.87c20.65-3.7,34.11-25.02,30.06-47.63
				C459.46,569.46,452.77,559.3,443.89,552.95z"/>
			<path id="XMLID_7772_" class="st2" d="M421.75,569c-3.42-2.44-7.59-3.59-11.8-2.83c-8.98,1.61-14.77,11.22-13.01,21.05
				c0.57,3.2,1.88,6.07,3.7,8.42c3.76,4.87,9.69,7.55,15.75,6.47c8.98-1.61,14.83-10.88,13.07-20.71
				C428.52,576.18,425.62,571.76,421.75,569z"/>
			<g id="XMLID_7764_">
				<path id="XMLID_1890_" class="st3" d="M490.25,533.27c-16.66-11.9-36.98-17.48-57.52-13.8c-43.76,7.84-71.98,54.7-63.4,102.61
					c2.8,15.6,9.18,29.56,18.03,41.03c16.71,11.83,37.22,17.23,58.04,13.5c43.76-7.84,72.28-53.03,63.7-100.94
					C506.22,559.65,499.52,545.16,490.25,533.27z M431.55,629.09c-13.93,2.49-27.56-3.66-36.21-14.87c-4.18-5.41-7.19-12-8.51-19.36
					c-4.05-22.61,9.26-44.72,29.91-48.42c9.69-1.74,19.28,0.89,27.14,6.51c8.89,6.35,15.57,16.51,17.72,28.51
					C465.66,604.06,452.2,625.39,431.55,629.09z"/>
			</g>
		</g>
		<g id="XMLID_7745_">
			<path id="XMLID_7760_" class="st0" d="M589.22,537.41c9.28,11.89,15.98,26.38,18.85,42.41c8.58,47.91-19.93,93.1-63.7,100.94
				c-20.81,3.73-41.32-1.67-58.04-13.5c18.33,23.75,47.24,36.8,76.75,31.52c43.76-7.84,72.28-53.03,63.7-100.94
				C622.22,572.41,608.05,550.86,589.22,537.41z"/>
			<path id="XMLID_7757_" class="st1" d="M542.86,557.09c-7.86-5.62-17.45-8.25-27.14-6.51c-20.65,3.7-33.96,25.81-29.91,48.42
				c1.32,7.36,4.33,13.95,8.51,19.36c8.65,11.21,22.29,17.37,36.21,14.87c20.65-3.7,34.11-25.02,30.06-47.63
				C558.43,573.6,551.75,563.44,542.86,557.09z"/>
			<path id="XMLID_7754_" class="st2" d="M520.72,573.14c-3.42-2.44-7.59-3.59-11.8-2.83c-8.98,1.61-14.77,11.22-13.01,21.05
				c0.57,3.2,1.88,6.07,3.7,8.42c3.76,4.87,9.69,7.55,15.75,6.47c8.98-1.61,14.83-10.88,13.07-20.71
				C527.5,580.32,524.59,575.9,520.72,573.14z"/>
			<g id="XMLID_7746_">
				<path id="XMLID_1870_" class="st3" d="M589.22,537.41c-16.66-11.9-36.98-17.48-57.52-13.8c-43.76,7.84-71.98,54.7-63.4,102.61
					c2.8,15.6,9.18,29.56,18.03,41.03c16.71,11.83,37.22,17.23,58.04,13.5c43.76-7.84,72.28-53.03,63.7-100.94
					C605.2,563.79,598.5,549.3,589.22,537.41z M530.52,633.22c-13.93,2.49-27.56-3.66-36.21-14.87c-4.18-5.41-7.19-12-8.51-19.36
					c-4.05-22.61,9.27-44.72,29.91-48.42c9.69-1.74,19.28,0.89,27.14,6.51c8.89,6.35,15.57,16.51,17.72,28.51
					C564.63,608.2,551.17,629.53,530.52,633.22z"/>
			</g>
		</g>
	</g>
	<g id="XMLID_7739_">
		<path id="XMLID_7740_" class="st4" d="M464.03,509.45l-5.45-49.31l18.35,16.56l-19.69-50.57l17.57-0.59l-5.82-4.38l25.2-4.23
			l-6.33-18.89c-0.57-1.86-1.17-3.66-1.81-5.4l0,0c-3.79-10.27-8.82-18.42-14.47-24.9l10.35-1.31c-8.93-2.81-17.53-6.63-25.42-11.67
			c-2.79-1.78-5.59-3.3-8.36-4.59c-7.93-3.7-16.51-5.25-25.08-4.9l7.67-10.19l-19.41,10.16c-14.25,7.46-30.47,10.41-46.41,8.21
			c-2.38-0.33-3.76-0.63-3.76-0.63l-0.07,0.05l0.03-0.08c0,0-0.67-1.24-1.64-3.44c-6.52-14.71-8.16-31.11-4.92-46.87l4.41-21.46
			l-7.67,10.19c-2.02-8.33-5.88-16.15-11.63-22.75c-2.01-2.3-4.24-4.58-6.72-6.77c-7.02-6.19-13.07-13.4-18.24-21.21l1.6,10.31
			c-7.79-3.64-17.02-6.23-27.93-7.03l0,0c-1.85-0.14-3.75-0.22-5.69-0.25l-19.9-0.87l2.89,25.39l-5.82-4.38l4.28,17.05l-54.05-4.96
			l20.99,13.07l-48.9,8.38l19.24,11.98c0,0-67.25,6.66-84.67,34.65c0,0,22.98,17.46,47.12,31.61l-9.82,3.04
			c22.63,13.07,43.06,14.69,52.14,14.66c1.83,0.14,3.5,0.07,4.98-0.23l-36.3,29.83l13.59-0.6c-11.9,16.75-25.13,38.04-30.65,56.46
			l-4.72,19.29l21.34-8.95c0,0-25.73,40.46-28.67,71.77l11.01-10.03c-6.14,27.56-10.47,58.82-5.9,81.34
			c22.9-1.83,51.75-14.63,76.55-28.14l-6.6,13.36c29.28-11.48,61.06-47.38,61.06-47.38l-2.71,22.98l17.24-9.87
			c16.18-10.4,32.99-28.99,45.8-45.05l3.17,13.23l18.65-43.12c0.12,1.51,0.52,3.13,1.16,4.85c2.47,8.74,9.68,27.92,28.49,46.06
			l0.21-10.28c20.27,19.29,43.4,36.56,43.4,36.56c22.08-24.47,9.92-90.95,9.92-90.95L464.03,509.45z M418.06,531.69
			c0.24,2.43,0.34,4.35,0.46,5.65c0.1,1.3,0.15,2,0.15,2s-0.08-0.69-0.23-1.99c-0.16-1.3-0.34-3.2-0.68-5.61
			c-0.2-1.2-0.43-2.53-0.68-3.98c-0.12-0.72-0.25-1.48-0.38-2.26c-0.14-0.78-0.34-1.58-0.52-2.4c-0.37-1.65-0.74-3.42-1.18-5.27
			c-0.49-1.83-1.01-3.76-1.55-5.78c-1.18-4-2.52-8.31-4.18-12.78c-1.62-4.49-3.51-9.15-5.61-13.91c-2.09-4.76-4.44-9.6-6.93-14.46
			c-1.27-2.42-2.57-4.84-3.88-7.27c-1.37-2.4-2.7-4.83-4.12-7.21c-1.42-2.38-2.81-4.78-4.29-7.11c-0.73-1.17-1.46-2.34-2.18-3.51
			c-0.75-1.15-1.49-2.3-2.23-3.45c-2.96-4.59-6.01-9-9-13.25c-3.03-4.22-5.99-8.28-8.89-12.05c-2.87-3.79-5.69-7.31-8.29-10.54
			c-5.24-6.44-9.78-11.66-13-15.25c-0.44-0.49-0.85-0.94-1.23-1.36c-0.12,0.21-0.24,0.42-0.39,0.61L203.1,562.66l127.88-178.35
			c0.04-0.06,0.1-0.13,0.15-0.19c0.18-0.23,0.39-0.43,0.6-0.62c-0.96-0.48-2.11-1.05-3.46-1.71c-4.34-2.1-10.61-5.03-18.25-8.29
			c-3.83-1.61-7.98-3.35-12.42-5.06c-4.43-1.75-9.14-3.47-14.04-5.21c-4.91-1.69-10-3.41-15.22-4.99c-1.31-0.4-2.62-0.79-3.93-1.19
			c-1.32-0.38-2.65-0.75-3.97-1.13c-2.65-0.78-5.34-1.45-8.02-2.16c-2.68-0.71-5.39-1.31-8.07-1.97c-2.7-0.59-5.39-1.18-8.06-1.73
			c-5.36-1.04-10.65-1.97-15.81-2.66c-5.15-0.71-10.16-1.23-14.92-1.56c-4.76-0.35-9.27-0.46-13.44-0.49
			c-2.08,0.04-4.08,0.07-5.98,0.1c-1.9,0.09-3.69,0.22-5.39,0.32c-0.85,0.06-1.67,0.09-2.45,0.17c-0.79,0.09-1.55,0.17-2.27,0.25
			c-1.46,0.16-2.8,0.31-4.01,0.45c-2.41,0.34-4.29,0.69-5.58,0.89c-1.29,0.21-1.98,0.33-1.98,0.33s0.68-0.14,1.96-0.41
			c1.28-0.25,3.15-0.68,5.55-1.12c1.21-0.18,2.54-0.39,4-0.61c0.73-0.11,1.49-0.23,2.27-0.35c0.79-0.11,1.61-0.17,2.45-0.27
			c1.69-0.17,3.49-0.37,5.4-0.54c1.91-0.11,3.91-0.22,6.01-0.34c4.19-0.14,8.74-0.22,13.54-0.06c4.81,0.13,9.87,0.46,15.1,0.96
			c5.23,0.49,10.61,1.21,16.06,2.04c2.72,0.44,5.46,0.93,8.21,1.41c2.73,0.55,5.49,1.05,8.23,1.66c2.73,0.61,5.48,1.18,8.19,1.86
			c1.36,0.33,2.71,0.65,4.06,0.98c1.34,0.35,2.68,0.7,4.02,1.05c5.34,1.38,10.56,2.91,15.59,4.42c5.02,1.56,9.86,3.11,14.41,4.7
			c4.56,1.55,8.84,3.14,12.78,4.61c7.87,2.98,14.35,5.7,18.87,7.67c1.88,0.83,3.4,1.51,4.56,2.04c-0.06-0.56-0.12-1.22-0.2-1.94
			c-0.32-2.91-0.86-7.08-1.71-12.05c-0.84-4.98-1.99-10.76-3.51-16.9c-0.74-3.07-1.61-6.22-2.53-9.41c-0.95-3.18-1.96-6.4-3.08-9.59
			c-0.56-1.59-1.11-3.19-1.73-4.75c-0.58-1.58-1.2-3.14-1.84-4.67c-1.25-3.08-2.59-6.07-3.96-8.93c-1.37-2.86-2.78-5.58-4.21-8.12
			c-0.68-1.29-1.43-2.49-2.13-3.67c-0.35-0.59-0.7-1.17-1.04-1.73c-0.36-0.55-0.71-1.1-1.06-1.63c-1.35-2.16-2.72-4.04-3.91-5.74
			c-1.23-1.66-2.35-3.08-3.25-4.26c-1.92-2.28-3.01-3.58-3.01-3.58s1.17,1.24,3.21,3.41c0.97,1.13,2.18,2.48,3.5,4.08
			c1.29,1.63,2.77,3.45,4.26,5.54c0.38,0.52,0.76,1.05,1.16,1.58c0.37,0.55,0.75,1.11,1.14,1.69c0.77,1.15,1.59,2.32,2.35,3.57
			c1.58,2.48,3.17,5.15,4.72,7.96c1.55,2.81,3.08,5.76,4.52,8.81c0.74,1.52,1.45,3.06,2.13,4.63c0.71,1.55,1.36,3.14,2.02,4.72
			c1.32,3.17,2.53,6.38,3.67,9.55c1.12,3.19,2.18,6.34,3.12,9.42c1.9,6.15,3.41,11.98,4.56,17.01c1.16,5.03,1.95,9.27,2.45,12.25
			c0.25,1.49,0.43,2.67,0.55,3.49c0.01,0.11,0.03,0.19,0.04,0.29c0.09-0.01,0.18-0.03,0.29-0.04c0.81-0.11,2-0.27,3.5-0.44
			c3.01-0.34,7.3-0.75,12.45-1.03c5.15-0.29,11.17-0.45,17.61-0.32c3.22,0.05,6.54,0.2,9.91,0.39c3.37,0.22,6.79,0.5,10.2,0.89
			c1.7,0.2,3.41,0.39,5.1,0.64c1.69,0.22,3.37,0.48,5.04,0.77c3.33,0.54,6.58,1.2,9.71,1.91c3.13,0.71,6.13,1.5,8.95,2.34
			c1.42,0.39,2.77,0.85,4.09,1.28c0.66,0.21,1.3,0.43,1.94,0.63c0.63,0.23,1.24,0.46,1.84,0.68c2.42,0.85,4.58,1.77,6.5,2.56
			c1.9,0.83,3.54,1.62,4.89,2.24c2.65,1.37,4.16,2.15,4.16,2.15s-1.55-0.69-4.27-1.91c-1.38-0.54-3.05-1.23-4.99-1.95
			c-1.96-0.68-4.15-1.47-6.59-2.17c-0.61-0.18-1.23-0.37-1.86-0.57c-0.64-0.17-1.29-0.34-1.95-0.52c-1.32-0.35-2.69-0.73-4.11-1.03
			c-2.83-0.67-5.84-1.27-8.96-1.8c-3.13-0.53-6.37-0.99-9.68-1.34c-1.65-0.19-3.32-0.35-5-0.48c-1.67-0.16-3.36-0.25-5.05-0.35
			c-3.37-0.19-6.75-0.28-10.07-0.31c-3.32,0-6.59,0.03-9.75,0.17c-6.32,0.23-12.2,0.72-17.21,1.29c-5.02,0.56-9.17,1.19-12.05,1.69
			c-0.01,0-0.02,0-0.03,0.01c-1.09,0.19-1.57,1.49-0.86,2.34c0.12,0.15,0.25,0.3,0.38,0.46c3.14,3.8,7.54,9.28,12.58,16.02
			c2.51,3.38,5.21,7.05,7.96,11.01c2.78,3.94,5.61,8.16,8.49,12.55c2.84,4.42,5.75,9.01,8.55,13.76c0.7,1.19,1.41,2.38,2.11,3.57
			c0.69,1.21,1.37,2.42,2.06,3.63c1.4,2.41,2.7,4.9,4.04,7.36c1.34,2.46,2.58,4.98,3.86,7.45c1.23,2.51,2.45,5.01,3.62,7.5
			c2.31,5.01,4.48,9.98,6.4,14.87c1.93,4.88,3.64,9.66,5.09,14.25c1.48,4.58,2.66,8.97,3.68,13.03c0.46,2.04,0.91,4,1.33,5.87
			c0.37,1.87,0.67,3.66,0.97,5.34c0.14,0.84,0.31,1.65,0.42,2.43c0.1,0.79,0.2,1.55,0.29,2.28
			C417.73,529.14,417.9,530.48,418.06,531.69z"/>
	</g>
	<g id="XMLID_7734_">
		<path id="XMLID_7735_" class="st4" d="M534.61,270.23c0,0,27.25,29.14,46.62,27.26c0,0-0.06-17.04-2.09-33.44l4.95,3.51
			c-2-15.3-8.56-25.46-11.84-29.7c-0.59-0.91-1.22-1.67-1.89-2.25l27.01,6.31l-5.16-6.16c12.12-0.43,26.85-1.87,37.47-5.89
			l10.74-4.71l-11.85-6.79c0,0,28.2-2.46,43.93-12.31l-8.66-1.56c15.12-7.01,31.33-16.2,40.25-26.42
			c-9.08-10.08-25.43-19.02-40.66-25.79l8.63-1.7c-15.89-9.61-44.12-11.63-44.12-11.63l11.74-6.98l-10.81-4.54
			c-10.68-3.85-25.43-5.07-37.56-5.31l5.06-6.23l-26.91,6.73c0.66-0.6,1.28-1.37,1.86-2.28c3.21-4.3,9.62-14.56,11.37-29.88
			l-4.89,3.59c1.77-16.43,1.57-33.46,1.57-33.46c-19.4-1.57-46.2,27.98-46.2,27.98l1.08-13.34L513.12,95.5l1.18-14.55l-16.64,27.38
			l-6.58-8.02l0.03,4.3l-11.03-10.3l-6.58,9.75c-0.67,0.93-1.3,1.86-1.88,2.79l0,0c-3.45,5.46-5.47,10.75-6.48,15.72l-4.33-4.39
			c1.89,5.19,3.18,10.6,3.65,16.11c0.17,1.95,0.46,3.81,0.85,5.57c1.11,5.05,3.46,9.63,6.7,13.51l-7.53,0.06l11.73,5.45
			c8.61,4,15.82,10.55,20.5,18.81c0.7,1.23,1.05,1.99,1.05,1.99l0.05,0.01l-0.05,0.01c0,0-0.34,0.76-1.02,2
			c-4.56,8.33-11.66,14.99-20.21,19.13l-11.64,5.63l7.53-0.06c-3.18,3.94-5.46,8.55-6.49,13.62c-0.36,1.77-0.63,3.63-0.76,5.58
			c-0.38,5.51-1.59,10.94-3.4,16.16l4.26-4.45c1.09,4.96,3.19,10.21,6.73,15.62l0,0c0.6,0.92,1.24,1.83,1.93,2.76l6.73,9.64
			l10.87-10.47l0.03,4.3l6.46-8.13l17.07,27.12l-1.4-14.53l21.48,19.92L534.61,270.23z M560.89,267.91
			c-0.31-0.3-0.64-0.62-0.98-0.94c-0.33-0.33-0.66-0.69-1.01-1.05c-0.69-0.73-1.43-1.5-2.19-2.34c-0.74-0.86-1.51-1.75-2.32-2.69
			c-1.57-1.91-3.24-4.02-4.89-6.33c-1.66-2.3-3.33-4.79-4.97-7.42c-1.65-2.63-3.24-5.41-4.8-8.26c-0.77-1.43-1.52-2.89-2.28-4.35
			c-0.72-1.48-1.48-2.95-2.18-4.45c-0.7-1.5-1.41-2.99-2.07-4.5c-0.33-0.75-0.67-1.51-1-2.26c-0.32-0.76-0.64-1.51-0.95-2.26
			c-1.27-3-2.42-5.99-3.52-8.89c-1.07-2.91-2.08-5.74-2.97-8.44c-0.91-2.7-1.7-5.27-2.42-7.65c-1.43-4.76-2.48-8.77-3.18-11.6
			c-0.03-0.12-0.06-0.23-0.08-0.34c-0.15-0.64-0.94-0.87-1.41-0.41l-0.01,0.01c-1.25,1.2-3.01,2.94-5.04,5.13
			c-2.03,2.18-4.33,4.8-6.66,7.71c-1.17,1.45-2.34,2.99-3.5,4.57c-1.15,1.59-2.3,3.22-3.39,4.88c-0.55,0.83-1.09,1.67-1.61,2.52
			c-0.53,0.84-1.04,1.69-1.53,2.54c-1,1.69-1.92,3.39-2.76,5.06c-0.85,1.67-1.62,3.31-2.3,4.89c-0.36,0.78-0.65,1.56-0.96,2.31
			c-0.15,0.38-0.3,0.75-0.44,1.11c-0.13,0.37-0.26,0.73-0.39,1.08c-0.53,1.41-0.92,2.73-1.29,3.89c-0.34,1.17-0.6,2.21-0.83,3.05
			c-0.38,1.72-0.6,2.7-0.6,2.7s0.16-0.99,0.44-2.73c0.18-0.86,0.38-1.91,0.66-3.11c0.3-1.19,0.62-2.54,1.07-3.98
			c0.11-0.36,0.22-0.73,0.33-1.11c0.12-0.37,0.25-0.75,0.38-1.14c0.26-0.77,0.52-1.58,0.83-2.39c0.59-1.63,1.28-3.33,2.04-5.07
			c0.76-1.74,1.59-3.51,2.51-5.28c0.45-0.89,0.92-1.78,1.4-2.66c0.47-0.89,0.98-1.77,1.49-2.64c1.01-1.75,2.08-3.47,3.16-5.15
			c1.09-1.67,2.19-3.3,3.3-4.84c2.2-3.1,4.39-5.9,6.34-8.24c1.94-2.35,3.65-4.24,4.86-5.55c0.61-0.65,1.1-1.16,1.44-1.51
			c0.05-0.05,0.08-0.08,0.12-0.12c-0.04-0.04-0.08-0.07-0.12-0.12c-0.35-0.34-0.84-0.84-1.46-1.49c-1.24-1.29-2.97-3.15-4.95-5.47
			c-1.98-2.31-4.22-5.08-6.47-8.14c-1.13-1.53-2.25-3.14-3.37-4.79c-1.1-1.66-2.2-3.36-3.24-5.1c-0.52-0.87-1.04-1.74-1.53-2.62
			c-0.5-0.87-0.98-1.75-1.45-2.64c-0.94-1.76-1.8-3.52-2.59-5.24c-0.79-1.72-1.5-3.41-2.12-5.03c-0.33-0.8-0.6-1.6-0.87-2.37
			c-0.14-0.38-0.27-0.76-0.4-1.13c-0.12-0.38-0.23-0.74-0.34-1.11c-0.47-1.44-0.81-2.78-1.13-3.97c-0.29-1.19-0.51-2.24-0.71-3.1
			c-0.31-1.73-0.49-2.72-0.49-2.72s0.23,0.98,0.64,2.69c0.24,0.84,0.52,1.87,0.88,3.04c0.38,1.16,0.8,2.47,1.35,3.87
			c0.13,0.35,0.27,0.71,0.4,1.07c0.15,0.36,0.3,0.73,0.46,1.1c0.31,0.75,0.62,1.52,0.99,2.3c0.7,1.57,1.5,3.19,2.37,4.85
			c0.87,1.65,1.82,3.34,2.84,5.02c0.5,0.84,1.03,1.68,1.57,2.51c0.53,0.84,1.09,1.66,1.65,2.49c1.12,1.65,2.29,3.26,3.47,4.83
			c1.19,1.56,2.38,3.08,3.58,4.51c2.38,2.88,4.72,5.46,6.78,7.61c2.06,2.15,3.85,3.87,5.12,5.05c0.32,0.29,0.6,0.56,0.85,0.78
			c0.16-0.74,0.37-1.7,0.64-2.88c0.65-2.83,1.64-6.86,3-11.64c0.69-2.39,1.44-4.97,2.3-7.68c0.85-2.72,1.81-5.56,2.84-8.49
			c1.05-2.92,2.16-5.93,3.38-8.95c0.3-0.76,0.61-1.51,0.92-2.27c0.32-0.76,0.64-1.51,0.96-2.27c0.63-1.52,1.33-3.02,2-4.54
			c0.67-1.51,1.41-2.99,2.11-4.49c0.74-1.47,1.47-2.94,2.21-4.39c1.52-2.88,3.07-5.68,4.68-8.34c1.6-2.66,3.22-5.17,4.85-7.5
			c1.61-2.34,3.25-4.47,4.79-6.4c0.79-0.95,1.55-1.86,2.27-2.73c0.75-0.85,1.48-1.63,2.15-2.37c0.34-0.37,0.66-0.74,0.99-1.07
			c0.33-0.33,0.65-0.65,0.96-0.96c0.62-0.61,1.18-1.17,1.69-1.68c1.05-0.98,1.91-1.72,2.48-2.24c0.58-0.51,0.88-0.79,0.88-0.79
			s-0.3,0.29-0.85,0.82c-0.55,0.54-1.38,1.31-2.39,2.33c-0.49,0.53-1.03,1.11-1.62,1.74c-0.29,0.32-0.6,0.65-0.92,0.99
			c-0.31,0.35-0.62,0.73-0.94,1.11c-0.64,0.77-1.34,1.57-2.04,2.44c-0.68,0.89-1.4,1.83-2.15,2.8c-1.45,1.99-2.99,4.16-4.49,6.54
			c-1.52,2.37-3.03,4.93-4.51,7.62c-1.48,2.69-2.9,5.53-4.29,8.43c-0.68,1.46-1.35,2.94-2.01,4.43c-0.63,1.5-1.3,3-1.9,4.52
			c-0.6,1.52-1.23,3.03-1.79,4.56c-0.29,0.76-0.57,1.52-0.86,2.28c-0.27,0.76-0.54,1.53-0.82,2.28c-1.09,3.03-2.06,6.05-2.98,8.97
			c-0.89,2.93-1.73,5.78-2.46,8.49c-0.75,2.71-1.38,5.29-1.97,7.67c-1.14,4.77-1.95,8.77-2.48,11.57c-0.16,0.87-0.3,1.62-0.41,2.24
			c0.16-0.03,0.33-0.06,0.5-0.07c0.04,0,0.1,0,0.14,0l129.55,2.04l-129.5,4.05c-0.15,0-0.29-0.01-0.43-0.03
			c0.07,0.33,0.14,0.69,0.21,1.06c0.57,2.79,1.45,6.78,2.66,11.53c0.62,2.37,1.29,4.94,2.08,7.64c0.77,2.7,1.65,5.53,2.59,8.45
			c0.97,2.91,1.99,5.91,3.12,8.93c0.28,0.75,0.57,1.51,0.85,2.27c0.3,0.75,0.6,1.51,0.9,2.27c0.58,1.52,1.24,3.02,1.86,4.53
			c0.63,1.51,1.32,2.99,1.97,4.49c0.69,1.48,1.38,2.95,2.08,4.4c1.43,2.89,2.9,5.7,4.42,8.37c1.52,2.67,3.07,5.2,4.62,7.55
			c1.54,2.36,3.11,4.51,4.59,6.47c0.76,0.96,1.5,1.89,2.19,2.77c0.72,0.86,1.43,1.65,2.08,2.41c0.33,0.38,0.64,0.75,0.96,1.09
			c0.32,0.34,0.64,0.66,0.93,0.98c0.6,0.63,1.15,1.2,1.65,1.72c1.02,1.01,1.87,1.76,2.42,2.3c0.56,0.53,0.86,0.81,0.86,0.81
			s-0.31-0.27-0.89-0.77c-0.58-0.51-1.45-1.23-2.52-2.2C562.09,269.06,561.52,268.51,560.89,267.91z"/>
	</g>
	<path id="XMLID_7730_" class="st5" d="M901.2,337.19l-0.01-2.32c0.04-0.62,0.08-1.44,0.18-2.15c0.16-1.48,0.5-2.95,0.86-4.42
		c1.53-5.89,4.42-11.6,6.27-18c1.96-6.44,1.81-13.56,0.08-20.2c-1.86-6.64-5.26-12.86-9.71-18.24c-4.48-5.35-9.87-10.07-16.05-13.65
		c-3.05-1.86-6.36-3.32-9.75-4.58c-3.42-1.22-7.01-2.02-10.68-2.48c-0.6-0.05-1.2-0.08-1.81-0.11c-0.27-0.61-0.54-1.21-0.87-1.79
		l-1.45-2.56l-0.73-1.28c-0.26-0.41-0.55-0.81-0.82-1.22l-1.66-2.43c-4.57-6.4-10.45-11.79-16.99-16.13
		c-6.57-4.29-13.86-7.59-21.59-9.31c-1.94-0.36-3.86-0.88-5.84-1.04l-2.95-0.35c-0.99-0.11-2.03-0.09-3.05-0.14
		c-1-0.02-2.08-0.1-3.03-0.06l-2.81,0.15l-1.4,0.07c0.01-0.01-0.41,0.02-0.51,0.04l-0.37,0.04l-0.74,0.09
		c-0.99,0.1-1.97,0.27-2.96,0.42c-7.83,1.36-15.54,4.28-22.05,9.22c-0.83,0.6-1.6,1.27-2.38,1.93c-0.76,0.67-1.61,1.48-2.27,2.16
		l-0.96,1.02c-0.46,0.47-0.69,0.83-1.04,1.25c-0.01,0.01-0.01,0.02-0.01,0.02c-0.65-0.08-1.29-0.17-1.95-0.24
		c-3.69-0.35-7.57-0.33-11.25,0.06c-7.44,0.76-14.46,2.81-21.04,5.33c-3.3,1.27-6.46,2.65-9.61,4.12c-3.07,1.43-6.08,2.95-9.05,4.4
		c-5.97,2.92-11.84,5.82-17.61,8.72c-11.56,5.77-22.76,11.36-33.64,16.65c-5.46,2.57-10.8,5.16-16.1,7.56
		c-2.65,1.19-5.28,2.36-7.88,3.52c-1.3,0.58-2.59,1.16-3.88,1.73c-1.3,0.54-2.59,1.07-3.88,1.6c-20.52,8.66-39.86,14.94-57.36,18.65
		c-17.49,3.73-33.03,5.28-45.83,5.29c-1.6,0.03-3.16,0.06-4.67,0.09c-0.76,0.02-1.5,0.03-2.24,0.04c-0.73,0.01-1.44-0.06-2.15-0.08
		c-2.81-0.13-5.45-0.26-7.91-0.37c-2.46-0.13-4.7-0.17-6.82-0.35c-2.15-0.24-4.1-0.46-5.85-0.66c-1.11-0.12-2.13-0.24-3.08-0.34
		c-16.37-15.49-33.89-30.84-49.27-47.22c-2.02-2.21-4.1-4.39-6.03-6.64l-2.93-3.36c-0.97-1.11-1.81-2.19-2.73-3.28
		c-1.74-2.03-3.72-4.69-5.64-7.15l-0.36-0.47l-0.18-0.23l-0.04-0.05l-0.58-0.84l-1.23-1.77c-0.83-1.17-1.65-2.35-2.48-3.51
		c-6.42-9.48-11.85-19.48-16.42-29.55c-4.55-10.09-7.89-20.36-10.58-30.29c-0.39-1.54-0.79-3.06-1.18-4.58
		c0.67,0.27,1.33,0.53,2.04,0.82c2.23,0.92,4.69,1.81,7.3,2.73c2.59,0.95,5.39,1.77,8.25,2.69c2.9,0.81,5.86,1.7,8.93,2.41
		c3.04,0.8,6.18,1.4,9.29,2.06c3.14,0.54,6.26,1.15,9.36,1.54c3.09,0.48,6.15,0.76,9.09,1.08c2.96,0.21,5.81,0.49,8.52,0.57
		c2.71,0.12,5.26,0.2,7.63,0.18c1.18,0,2.31,0,3.38,0c1.07-0.03,2.09-0.06,3.05-0.09c1.91-0.05,3.58-0.11,4.94-0.22
		c2.73-0.18,4.3-0.28,4.3-0.28s-1.56-0.1-4.29-0.27c-1.36-0.07-3.02-0.22-4.91-0.42c-0.94-0.09-1.95-0.19-3.01-0.3
		c-1.06-0.14-2.17-0.28-3.32-0.44c-2.32-0.28-4.81-0.69-7.44-1.15c-2.63-0.42-5.38-1.05-8.22-1.63c-2.82-0.68-5.74-1.33-8.66-2.19
		c-2.94-0.76-5.87-1.74-8.8-2.64c-2.9-1.03-5.82-1.99-8.61-3.12c-2.83-1.05-5.54-2.27-8.17-3.38c-2.59-1.22-5.12-2.33-7.44-3.54
		c-2.34-1.18-4.53-2.31-6.51-3.44c-0.99-0.55-1.94-1.08-2.85-1.59c-0.87-0.53-1.7-1.02-2.48-1.49c-0.78-0.47-1.5-0.9-2.17-1.31
		c-0.69-0.44-1.32-0.85-1.9-1.21c-0.11-0.07-0.21-0.14-0.32-0.21c-0.11-0.78-0.23-1.55-0.35-2.32c-0.18-1.17-0.35-2.33-0.53-3.48
		c-0.18-1.15-0.37-2.29-0.46-3.42c-0.46-4.53-1.02-8.91-1.16-13.1c-0.13-2.1-0.25-4.15-0.37-6.14c-0.01-1.99,0-3.93-0.04-5.82
		c-0.01-1.89-0.09-3.73-0.03-5.5c0.09-1.76,0.16-3.47,0.21-5.12c0.06-1.66,0.12-3.24,0.17-4.76c0.13-1.5,0.25-2.93,0.37-4.29
		c0.12-1.37,0.23-2.67,0.33-3.89c0.12-1.23,0.13-2.4,0.31-3.48c0.31-2.16,0.54-4.01,0.73-5.51c0.35-3.01,0.54-4.61,0.54-4.61
		s-0.76,1.43-2.18,4.1c-0.7,1.34-1.55,3-2.53,4.95c-0.96,1.96-1.87,4.35-2.97,7c-0.53,1.33-1.14,2.74-1.7,4.23
		c-0.49,1.5-1,3.07-1.54,4.71c-0.54,1.64-1.09,3.36-1.64,5.16c-0.53,1.8-0.93,3.69-1.43,5.63c-0.49,1.95-0.97,3.97-1.44,6.07
		c-0.36,2.11-0.73,4.28-1.11,6.51c-0.88,4.47-1.17,9.22-1.69,14.21c-0.58,9.95-0.73,20.91,0.76,32.4c0.17,1.44,0.25,2.9,0.5,4.35
		c0.25,1.45,0.5,2.9,0.76,4.37c0.54,2.92,0.94,5.93,1.71,8.89c0.7,2.97,1.38,5.99,2.19,9.01c0.93,2.99,1.87,6.01,2.81,9.05
		c3.84,11.46,9.07,22.92,15.62,33.91c0.18,0.5,0.4,1,0.71,1.46c0,0,0.22,0.34,0.65,0.96c0.38,0.59,1.16,1.66,1.63,2.54
		c0.28,0.5,0.61,0.98,0.94,1.63c0.33,0.67,0.68,1.39,1.06,2.15c0.33,0.8,0.68,1.65,1.05,2.55c0.31,0.93,0.64,1.91,0.99,2.93
		c0.58,2.09,1.17,4.39,1.5,6.9c0.41,2.5,0.56,5.2,0.6,8.02c0.02,2.82-0.22,5.75-0.59,8.72c-0.42,2.94-1.09,6.03-1.86,8.88
		c-0.94,3.17-1.9,5.92-3.08,8.83c-1.2,2.84-2.49,5.61-3.88,8.24c-1.4,2.61-2.82,5.13-4.28,7.45c-1.44,2.34-2.89,4.49-4.25,6.47
		c-2.75,3.95-5.2,7.15-6.94,9.36c-1.75,2.21-2.75,3.47-2.75,3.47s1.15-1.13,3.17-3.11c2.01-1.99,4.85-4.86,8.1-8.48
		c1.62-1.82,3.36-3.81,5.11-5.99c1.78-2.16,3.55-4.54,5.33-7.05c1.76-2.53,3.47-5.23,5.11-8.06c1.58-2.8,3.15-5.98,4.4-8.86
		c1.34-3.23,2.42-6.35,3.32-9.61c0.84-3.24,1.52-6.5,1.9-9.71c0.17-1.46,0.3-2.9,0.39-4.32l0.81,0.96c2.18,2.57,4.47,5,6.71,7.49
		c9.16,9.71,18.84,18.61,28.52,26.87c9.69,8.25,19.35,15.94,28.64,23.24c9.24,7.34,18.1,14.32,26.2,21.17
		c2.07,1.68,4,3.41,5.96,5.08c1.96,1.67,3.76,3.41,5.65,5.03c1.84,1.66,3.6,3.33,5.36,4.95c1.71,1.66,3.34,3.32,5.01,4.91
		c1.46,1.46,2.86,2.91,4.23,4.35c-0.07,0.58-0.17,1.51-0.31,2.76c-0.14,1.07-0.26,2.46-0.37,4.08c-0.06,0.8-0.13,1.66-0.2,2.55
		c-0.04,0.89-0.07,1.82-0.11,2.8c-0.1,1.94-0.11,4.05-0.1,6.28c-0.02,2.22,0.13,4.57,0.22,6.98c0.19,2.42,0.33,4.91,0.65,7.42
		c0.24,2.52,0.68,5.06,1.05,7.59c0.49,2.52,0.91,5.05,1.51,7.5c0.52,2.46,1.2,4.85,1.81,7.16c0.7,2.29,1.32,4.51,2.06,6.57
		c0.71,2.07,1.4,4.01,2.12,5.78c0.67,1.78,1.36,3.38,1.99,4.79c0.61,1.42,1.15,2.64,1.65,3.63c0.96,1.99,1.51,3.13,1.51,3.13
		s-0.42-1.19-1.15-3.27c-0.38-1.03-0.79-2.31-1.23-3.78c-0.47-1.46-0.96-3.11-1.43-4.94c-0.51-1.81-0.97-3.8-1.44-5.9
		c-0.5-2.09-0.86-4.34-1.29-6.63c-0.34-2.32-0.74-4.7-0.98-7.14c-0.31-2.43-0.45-4.92-0.64-7.39c-0.08-2.48-0.23-4.96-0.18-7.39
		c-0.04-2.43,0.09-4.83,0.17-7.14c0.17-2.31,0.28-4.54,0.54-6.63c0.23-2.1,0.45-4.08,0.76-5.9c0.14-0.91,0.27-1.78,0.4-2.6
		c0.14-0.71,0.26-1.37,0.39-2.01c1.75,2.08,3.4,4.13,4.93,6.13c4.53,5.95,8.25,11.43,10.96,16.19c1.45,2.34,2.56,4.53,3.58,6.43
		c0.51,0.96,0.98,1.84,1.41,2.65c0.39,0.83,0.75,1.58,1.07,2.26c1.32,2.72,2.02,4.17,2.02,4.17s-0.12-1.61-0.35-4.64
		c-0.07-0.76-0.14-1.61-0.23-2.55c-0.12-0.93-0.3-1.93-0.47-3.03c-0.18-1.1-0.37-2.28-0.58-3.54c-0.2-1.27-0.57-2.56-0.88-3.97
		c-1.21-5.64-3.42-12.31-6.58-19.78c-3.19-7.44-7.57-15.55-13.11-23.84c-0.98-1.44-2-2.89-3.04-4.36c0.68,0.19,1.37,0.39,2.07,0.6
		c2.84,0.81,5.82,1.78,8.91,2.8c6.2,2.13,12.82,4.4,19.44,6.67c6.68,2.22,13.46,4.29,19.98,5.62c3.25,0.69,6.43,1.19,9.46,1.5
		c3.03,0.34,5.92,0.41,8.57,0.38c1.33-0.01,2.6-0.13,3.8-0.18c1.2-0.13,2.34-0.26,3.4-0.38c1.06-0.18,2.05-0.36,2.96-0.51
		c0.91-0.16,1.73-0.4,2.48-0.57c1.5-0.32,2.64-0.75,3.43-0.97c0.78-0.24,1.2-0.37,1.2-0.37s-0.43,0.1-1.23,0.28
		c-0.8,0.16-1.96,0.49-3.48,0.69c-0.76,0.11-1.58,0.28-2.5,0.36c-0.91,0.08-1.9,0.17-2.95,0.27c-1.06,0.03-2.18,0.07-3.37,0.1
		c-1.19-0.04-2.43-0.03-3.72-0.12c-2.59-0.18-5.38-0.48-8.3-1.04c-2.92-0.54-5.96-1.27-9.07-2.2c-6.22-1.81-12.67-4.35-19.07-7.08
		c-6.42-2.8-12.84-5.6-18.85-8.22c-3.05-1.28-6.01-2.52-8.88-3.6c-2.85-1.1-5.61-2.05-8.17-2.9c-1.28-0.41-2.51-0.78-3.69-1.12
		c-2.89-3.58-5.95-7.17-9.13-10.76c-4.33-4.82-8.93-9.64-13.7-14.44c0.2,0.01,0.39,0.01,0.59,0.02c2.64,0.09,5.49,0.18,8.52,0.29
		c0.76,0.02,1.53,0.07,2.31,0.05c0.77-0.02,1.56-0.05,2.36-0.08c1.59-0.05,3.23-0.1,4.92-0.16c13.46-0.2,29.83-2.05,48.08-6.2
		c18.26-4.13,38.26-10.95,59.11-20.08c1.31-0.56,2.62-1.13,3.95-1.7c1.3-0.6,2.61-1.21,3.93-1.82c2.63-1.22,5.29-2.45,7.97-3.69
		c5.34-2.51,10.7-5.2,16.2-7.88c10.89-5.48,22.07-11.24,33.53-17.16c5.73-2.97,11.54-5.94,17.43-8.92c2.96-1.5,5.88-3.02,8.86-4.45
		c2.9-1.4,5.9-2.76,8.91-3.97c6.03-2.41,12.26-4.28,18.59-5.01c2.35-0.27,4.65-0.38,7.01-0.31c-0.71,1.67-1.33,3.39-1.8,5.15
		c-0.22,1.01-0.53,2.01-0.67,3.04l-0.4,3.1c-0.08,2.09-0.14,4.18,0.15,6.27c0.49,4.17,1.8,8.31,4.01,12l1.85,2.64
		c0.64,0.86,1.44,1.6,2.16,2.39c0.7,0.82,1.58,1.45,2.41,2.12l1.26,0.99c0.41,0.34,0.95,0.59,1.42,0.89c0.96,0.55,2,1.17,2.91,1.61
		l2.55,1.04c2.24,0.9,4.4,1.31,6.64,1.45c4.43,0.19,8.88-0.78,12.79-3.14c1.94-1.19,3.74-2.74,5.18-4.66
		c0.36-0.47,0.71-0.94,1.05-1.57l0.49-0.89l0.22-0.43l0.13-0.31l0.26-0.63l0.13-0.31c0.02-0.04,0.26-0.69,0.22-0.62
		c0.16-0.57,0.34-1.14,0.47-1.72c0.52-2.33,0.51-4.72,0.14-6.95c-0.37-2.24-1.09-4.32-2-6.24c-1.83-3.84-4.38-7.09-7.26-9.84
		c-5.73-5.43-12.52-9.36-19.81-11.78c-0.42-0.14-0.85-0.25-1.27-0.38c0.31-0.3,0.62-0.59,0.97-0.91c0.64-0.55,1.27-1.12,1.95-1.63
		c5.37-4.2,12.03-6.87,18.93-8.17c0.87-0.14,1.73-0.31,2.61-0.41l0.65-0.09l0.33-0.04c0.14-0.02-0.05,0,0.19-0.02l1.4-0.09
		l2.81-0.18c0.92-0.05,1.73,0.03,2.6,0.03c0.86,0.04,1.7,0,2.58,0.08l2.64,0.28c1.77,0.11,3.5,0.57,5.25,0.86
		c6.97,1.44,13.62,4.35,19.64,8.17c5.99,3.86,11.42,8.69,15.62,14.43l1.53,2.18c0.25,0.36,0.52,0.72,0.76,1.09l0.67,1.15l0.91,1.55
		c-1,0.11-2,0.25-3,0.44c-3.72,0.79-7.31,2.29-10.56,4.36c-3.26,2.1-5.94,4.92-8.31,7.95l-1.61,2.47l-0.8,1.24l-0.61,1.21
		l-1.22,2.42l-0.15,0.3c-0.15,0.33-0.12,0.29-0.19,0.46l-0.26,0.7l-0.52,1.41c-0.33,0.95-0.5,1.98-0.74,2.97
		c-0.07,0.52-0.1,1.05-0.15,1.57c-0.03,0.53-0.12,1.05-0.05,1.59c0.03,2.16,0.67,4.36,1.72,6.33c1.14,1.94,2.75,3.51,4.53,4.74
		c1.82,1.15,3.8,1.95,5.82,2.44c4.05,0.91,8.27,0.73,12.21-0.5c3.91-1.26,7.64-3.53,10.33-6.82c2.7-3.27,4.31-7.36,4.84-11.44
		c0.54-4.09,0.18-8.16-0.66-12.03c-0.22-0.98-0.52-1.95-0.78-2.92l-0.41-1.46l-0.47-1.32l-0.73-2.03c3.17,0.39,6.32,1.04,9.35,2.08
		c3.15,1.13,6.26,2.43,9.13,4.15c5.84,3.27,10.97,7.65,15.25,12.61c4.25,4.99,7.48,10.75,9.28,16.85c1.66,6.11,1.9,12.55,0.17,18.53
		c-1.64,6.04-4.47,11.83-6.03,18.12c-0.37,1.58-0.71,3.16-0.86,4.79c-0.1,0.83-0.13,1.57-0.16,2.49l0.04,2.32
		c0.19,3.28,0.92,6.45,2.12,9.37c1.2,2.94,2.87,5.62,4.79,8.01c1.92,2.4,4.05,4.56,6.27,6.54c4.47,3.93,9.23,7.25,13.91,10.4
		c9.35,6.28,18.51,12.03,25.7,19.23c3.54,3.6,6.63,7.55,8.69,11.82c1.1,2.21,1.8,4.36,2.43,6.62c0.5,2.26,0.92,4.52,1,6.77
		c0.49,9.01-2.32,17.52-7.05,23.73c-4.73,6.23-11.28,10.19-17.61,11.57c-6.36,1.47-12.49,0.17-16.7-2.62
		c-4.27-2.76-6.93-6.42-8.28-9.63c-1.39-3.23-1.58-6-1.47-7.8c0-0.91,0.17-1.58,0.23-2.04c0.07-0.46,0.11-0.69,0.11-0.69
		s-0.04,0.23-0.12,0.69c-0.07,0.46-0.25,1.13-0.26,2.04c-0.14,1.8,0.02,4.58,1.38,7.86c1.32,3.25,3.95,6.98,8.24,9.84
		c4.25,2.89,10.48,4.31,16.99,2.89c6.49-1.33,13.23-5.27,18.17-11.6c4.94-6.31,7.95-15,7.57-24.31c-0.05-2.33-0.45-4.67-0.94-7.02
		c-0.59-2.3-1.37-4.73-2.42-6.89c-2.11-4.53-5.23-8.6-8.82-12.36c-7.27-7.47-16.47-13.41-25.69-19.79
		c-4.61-3.2-9.26-6.54-13.54-10.41c-4.2-3.9-8.15-8.37-10.26-13.81C901.94,342.96,901.34,340.07,901.2,337.19z M787.33,251.27
		c2.31,2.14,4.27,4.63,5.57,7.29c1.3,2.65,1.87,5.4,1.36,7.83l-0.24,0.91c-0.03,0.1-0.03,0.1-0.02,0.09l-0.1,0.25l-0.25,0.63
		l-0.13,0.32c-0.04,0.09-0.07,0.11-0.1,0.16c-0.06,0.09-0.12,0.19-0.18,0.29c-0.07,0.18-0.27,0.44-0.46,0.69
		c-0.73,1-1.7,1.9-2.85,2.63c-2.31,1.46-5.29,2.18-8.17,2.09c-1.41-0.05-2.91-0.35-4.07-0.81l-2.56-1.01
		c-0.74-0.36-1.25-0.73-1.9-1.07c-2.5-1.53-4.9-3.71-6.53-6.32c-3.22-5.28-4.16-12.17-2.47-18.55c0.53-2.08,1.3-4.12,2.27-6.06
		c1.42,0.3,2.83,0.66,4.21,1.08C776.79,243.62,782.61,246.92,787.33,251.27z M856.64,256.13l0.14,0.3c0.06,0.12,0.01,0.02,0.09,0.22
		l0.99,2.62l0.49,1.3l0.35,1.23c0.22,0.82,0.49,1.63,0.69,2.46c0.78,3.38,1.1,6.82,0.71,10.09c-0.39,3.27-1.57,6.33-3.54,8.8
		c-1.96,2.49-4.77,4.25-7.82,5.29c-3.06,1.01-6.44,1.19-9.54,0.53c-1.54-0.36-2.99-0.94-4.28-1.71c-1.23-0.84-2.28-1.85-3.03-3.05
		c-1.37-2.44-1.52-5.58-0.49-8.65l0.41-1.14l0.2-0.57c0.01-0.05,0.11-0.3,0.05-0.18l0.15-0.3l1.19-2.44l0.59-1.21l0.66-1.03
		l1.31-2.08c2.04-2.65,4.31-5.13,7.07-6.95c2.76-1.8,5.8-3.12,9.02-3.86c1.37-0.28,2.75-0.45,4.15-0.56l0.14,0.29L856.64,256.13z"/>
</g>
</svg>
