<?xml version="1.0" encoding="utf-8"?>
<!-- Generator: Adobe Illustrator 26.0.3, SVG Export Plug-In . SVG Version: 6.00 Build 0)  -->
<svg version="1.1" id="Layer_1" xmlns="http://www.w3.org/2000/svg" xmlns:xlink="http://www.w3.org/1999/xlink" x="0px" y="0px"
	 viewBox="0 0 1133.86 1133.86" style="enable-background:new 0 0 1133.86 1133.86;" xml:space="preserve">
<style type="text/css">
	.st0{fill:#CAE8FB;}
	.st1{fill:#0F546C;}
	.st2{fill:#137291;}
	.st3{fill:#84A3BA;}
	.st4{fill:#FFFFFF;}
	.st5{fill:#FCC439;}
	.st6{fill:none;stroke:#FFFFFF;stroke-width:2.7197;stroke-linecap:round;stroke-linejoin:round;stroke-miterlimit:10;}
	.st7{fill:#B97431;}
	.st8{fill:#805220;}
</style>
<g>
	<ellipse class="st0" cx="828.15" cy="1050.17" rx="252.83" ry="41.17"/>
	<ellipse class="st0" cx="305.71" cy="1050.17" rx="252.83" ry="41.17"/>
	<g>
		<g>
			<g>
				<g>
					<g>
						<g>
							<path class="st1" d="M797.78,88.24c-0.88-0.05-1.75-0.08-2.66-0.16c-10.91-0.97-24.48,0.26-35.35,0.28v9.48
								c8.45,0.55,23.15,1.48,29.32,1.66c2.21,0.07,5.24,0.11,8.68,0.14V88.24z"/>
						</g>
						<path class="st1" d="M758.75,77.03c-3.14,0-4.63,0.87-4.99,2.19c-0.49,1.76-0.78,6.32-0.86,7.12
							c-0.97,9.55-0.04,18.44-0.04,18.44c0.18,3.04,2.45,3.18,5.06,3.18s4.92-0.14,5.14-3.18c0,0,1.09-14.76,1.26-20.16
							c0.07-1.94,0.07-2.09,0.07-2.09C764.42,79.51,761.88,77.03,758.75,77.03z"/>
					</g>
					<g>
						<g>
							<path class="st1" d="M803.75,120.55c-0.89-0.04-1.75-0.07-2.66-0.16c-10.91-0.97-24.48,0.26-35.34,0.28v9.48
								c8.45,0.55,23.14,1.5,29.32,1.67c2.22,0.06,5.24,0.1,8.69,0.13V120.55z"/>
						</g>
						<path class="st1" d="M764.71,109.34c-3.13,0-4.64,0.87-4.99,2.19c-0.48,1.76-0.78,6.32-0.87,7.12
							c-0.97,9.55-0.04,18.45-0.04,18.45c0.18,3.03,2.45,3.18,5.06,3.18c2.6,0,4.92-0.15,5.14-3.18c0,0,1.08-14.76,1.26-20.16
							c0.07-1.94,0.07-2.08,0.07-2.08C770.38,111.83,767.85,109.34,764.71,109.34z"/>
					</g>
					<g>
						<g>
							<path class="st1" d="M809.71,152.86c-0.88-0.05-1.75-0.09-2.66-0.16c-10.92-0.97-24.48,0.25-35.35,0.28v9.47
								c8.45,0.56,23.15,1.5,29.32,1.67c2.22,0.07,5.24,0.11,8.68,0.12V152.86z"/>
						</g>
						<path class="st1" d="M770.67,141.66c-3.13,0-4.63,0.87-4.99,2.19c-0.49,1.76-0.78,6.33-0.86,7.12
							c-0.97,9.56-0.04,18.45-0.04,18.45c0.18,3.03,2.46,3.18,5.05,3.18c2.61,0,4.93-0.15,5.15-3.18c0,0,1.09-14.76,1.26-20.17
							c0.07-1.94,0.07-2.08,0.07-2.08C776.35,144.13,773.81,141.66,770.67,141.66z"/>
					</g>
				</g>
				<g>
					<g>
						<g>
							<path class="st1" d="M864.28,88.24c0.88-0.05,1.75-0.08,2.66-0.16c10.92-0.97,24.48,0.26,35.35,0.28v9.48
								c-8.45,0.55-23.15,1.48-29.32,1.66c-2.22,0.07-5.23,0.11-8.68,0.14V88.24z"/>
						</g>
						<path class="st1" d="M903.32,77.03c3.13,0,4.63,0.87,4.99,2.19c0.48,1.76,0.78,6.32,0.87,7.12
							c0.97,9.55,0.04,18.44,0.04,18.44c-0.18,3.04-2.46,3.18-5.06,3.18c-2.61,0-4.93-0.14-5.15-3.18c0,0-1.08-14.76-1.26-20.16
							c-0.07-1.94-0.07-2.09-0.07-2.09C897.65,79.51,900.19,77.03,903.32,77.03z"/>
					</g>
					<g>
						<g>
							<path class="st1" d="M858.32,120.55c0.88-0.04,1.75-0.07,2.66-0.16c10.91-0.97,24.48,0.26,35.35,0.28v9.48
								c-8.46,0.55-23.15,1.5-29.32,1.67c-2.21,0.06-5.24,0.1-8.68,0.13V120.55z"/>
						</g>
						<path class="st1" d="M897.36,109.34c3.13,0,4.63,0.87,4.99,2.19c0.49,1.76,0.78,6.32,0.87,7.12
							c0.97,9.55,0.04,18.45,0.04,18.45c-0.18,3.03-2.45,3.18-5.05,3.18c-2.61,0-4.92-0.15-5.14-3.18c0,0-1.09-14.76-1.27-20.16
							c-0.07-1.94-0.07-2.08-0.07-2.08C891.69,111.83,894.23,109.34,897.36,109.34z"/>
					</g>
					<g>
						<g>
							<path class="st1" d="M852.35,152.86c0.88-0.05,1.75-0.09,2.66-0.16c10.91-0.97,24.48,0.25,35.34,0.28v9.47
								c-8.45,0.56-23.14,1.5-29.32,1.67c-2.22,0.07-5.24,0.11-8.68,0.12V152.86z"/>
						</g>
						<path class="st1" d="M891.39,141.66c3.13,0,4.63,0.87,4.99,2.19c0.48,1.76,0.78,6.33,0.87,7.12
							c0.97,9.56,0.04,18.45,0.04,18.45c-0.18,3.03-2.46,3.18-5.06,3.18c-2.61,0-4.93-0.15-5.15-3.18c0,0-1.08-14.76-1.26-20.17
							c-0.07-1.94-0.07-2.08-0.07-2.08C885.72,144.13,888.26,141.66,891.39,141.66z"/>
					</g>
				</g>
			</g>
		</g>
		<path class="st2" d="M949.84,786.67c-30.25-60.33-2.18-91.11,12.71-153.04c11.64-48.41,18.2-119.57-11.02-164.81
			c-44.94-69.58-38.06,25.68-46.77,46.98c-9.85,24.07-31.16,32.71-62.15,32.71c-13.31,9.65-16.14,26.1-15.73,43.84
			c-0.48-3.45-1.01-6.7-1.63-9.7c-36.76,0-75.63-1.28-72.84-41.14c2.65-37.93-49.13-50.44-69.88,9.08
			c-28.9,82.89,71.19,166.71,14.7,249.52c-0.55,0.78-1.11,1.57-1.66,2.34c-0.1,0.14-0.21,0.28-0.31,0.43
			c-31.05,43.31-59.97,73.48-55.24,133.71c8.19,104.08,102.91,113.59,188.12,113.59c85.21,0,179.93-9.51,188.12-113.59
			C1021.56,869.14,984.67,839.39,949.84,786.67z"/>
		<path class="st3" d="M765.81,931.01c13.39,1.38,36.7,3.69,46.48,4.14c19.53,0.89,78.18,0,78.18,0v-24.59
			c-3.65-1.33-7.47-1.81-10.13-2.36c-20.82-4.34-37.56,1.49-58.5-1.43c-17.3-2.4-38.81,0.65-56.03,0.7V931.01z"/>
		<path class="st3" d="M716.42,968.34c-37.66-35.64-18.58-79.59-2.17-123.49c14.41-38.54,42.05-72.93,40.23-115.86
			c-0.97-22.91-8.11-45.42-14.19-67.36c-4.86-17.54-16.63-43.28-14.01-61.83c4.33-30.64,44.38,17.45,59.66,24.56
			c27.45,12.79,75.39-2.36,94.26-25.85c7.34-9.15,30.77-64.38,47.29-46.46c17.67,19.15-0.26,60.27-7.86,80.03
			c-9.62,24.95-14.55,51.76-18.87,78.09c-3.68,22.41,0.27,43.7,9.99,64.06c8.9,18.68,26.19,42.51,17.5,63.93
			c-9.55,23.53-41,37.12-65.04,35.11c-19.89-1.67-38.04-12.25-58.09-14.64c-20.51-2.45-41.73-0.02-55.04,17.61
			c-15.65,20.72-19.43,51.03-15.99,75.98C737.27,975.16,721.41,973.06,716.42,968.34z"/>
		<g>
			<path class="st4" d="M734.29,599.24c-0.71,0-1.41-0.3-1.91-0.81c-0.51-0.52-0.81-1.2-0.81-1.9c0-0.74,0.3-1.42,0.81-1.94
				c0.98-1,2.83-1,3.84,0c0.52,0.49,0.79,1.2,0.79,1.94c0,0.7-0.27,1.38-0.79,1.9C735.7,598.94,735.02,599.24,734.29,599.24z"/>
			<path class="st4" d="M722.38,966.99c-1.47-0.41-2.32-1.88-1.91-3.34l0,0c0.38-1.44,1.88-2.31,3.32-1.9l0,0l0,0l0,0
				c1.44,0.38,2.31,1.88,1.9,3.34l0,0c-0.32,1.2-1.41,1.98-2.61,1.98l0,0C722.84,967.07,722.62,967.05,722.38,966.99z"/>
			<path class="st4" d="M699.42,928.29L699.42,928.29c-0.21-1.47,0.82-2.86,2.31-3.07l0,0c1.47-0.2,2.86,0.84,3.08,2.31l0,0
				c0.19,1.5-0.84,2.89-2.31,3.07l0,0c-0.13,0.03-0.27,0.03-0.38,0.03l0,0C700.75,930.63,699.59,929.65,699.42,928.29z"/>
			<path class="st4" d="M726.26,927.12c-1.5-0.14-2.61-1.44-2.5-2.94l0,0c0.11-1.49,1.41-2.61,2.94-2.5l0,0
				c1.49,0.13,2.61,1.44,2.5,2.94h-0.03c-0.11,1.42-1.28,2.5-2.7,2.5l0,0C726.4,927.12,726.34,927.12,726.26,927.12z"/>
			<path class="st4" d="M706.36,887.86c-1.45-0.41-2.26-1.94-1.85-3.37l0,0c0.44-1.44,1.96-2.26,3.4-1.83l0,0
				c1.44,0.41,2.25,1.93,1.82,3.37l0,0c-0.35,1.17-1.44,1.96-2.61,1.96l0,0C706.88,887.99,706.6,887.93,706.36,887.86z"/>
			<path class="st4" d="M736.58,885.35c-1.34-0.7-1.83-2.33-1.15-3.67l0,0l0,0l0,0c0.71-1.34,2.34-1.85,3.67-1.15l0,0
				c1.33,0.68,1.85,2.34,1.14,3.68l0,0c-0.49,0.92-1.41,1.43-2.39,1.43l0,0C737.42,885.65,736.98,885.54,736.58,885.35z"/>
			<path class="st4" d="M852.81,867.45c-1.47-0.32-2.4-1.79-2.04-3.26l0,0c0.32-1.44,1.79-2.37,3.26-2.01l0,0
				c1.44,0.32,2.37,1.79,2.04,3.23l0,0c-0.3,1.28-1.41,2.12-2.66,2.12l0,0C853.22,867.54,853,867.51,852.81,867.45z"/>
			<path class="st4" d="M893.17,861.47c-0.62-1.37,0-2.96,1.36-3.59l0,0c1.36-0.63,2.99-0.02,3.62,1.33l0,0
				c0.6,1.38,0,2.99-1.36,3.62l0,0c-0.35,0.16-0.76,0.25-1.11,0.25l0,0C894.61,863.08,893.64,862.48,893.17,861.47z"/>
			<path class="st4" d="M766.49,855.46c-0.49-1.42,0.25-2.96,1.69-3.43l0,0c1.41-0.52,2.96,0.25,3.45,1.69l0,0
				c0.46,1.41-0.27,2.96-1.71,3.45l0,0c-0.27,0.08-0.57,0.14-0.87,0.14l0,0C767.9,857.31,766.87,856.6,766.49,855.46z"/>
			<path class="st4" d="M811.34,855.46c-1.47-0.27-2.45-1.69-2.15-3.16l0,0c0.27-1.49,1.69-2.44,3.18-2.17l0,0
				c1.47,0.27,2.42,1.69,2.15,3.18l0,0c-0.25,1.3-1.39,2.2-2.67,2.2l0,0C811.69,855.52,811.53,855.52,811.34,855.46z"/>
			<path class="st4" d="M720.69,847.03c-1.42-0.57-2.1-2.15-1.55-3.54l0,0c0.54-1.41,2.12-2.09,3.54-1.55l0,0
				c1.39,0.57,2.06,2.15,1.52,3.53l0,0c-0.41,1.06-1.44,1.74-2.53,1.74l0,0C721.34,847.22,721.02,847.14,720.69,847.03z"/>
			<path class="st4" d="M923.2,832.21c-1.5-0.22-2.53-1.58-2.34-3.07l0,0c0.19-1.47,1.58-2.53,3.05-2.31l0,0
				c1.5,0.19,2.56,1.55,2.34,3.05l0,0c-0.19,1.36-1.34,2.36-2.7,2.36l0,0C923.44,832.23,923.31,832.21,923.2,832.21z"/>
			<path class="st4" d="M738.83,807.73c-1.33-0.65-1.91-2.28-1.22-3.64l0,0c0.65-1.33,2.28-1.9,3.61-1.22l0,0
				c1.36,0.65,1.91,2.28,1.26,3.62l0,0c-0.47,0.98-1.45,1.52-2.45,1.52l0,0C739.62,808,739.21,807.92,738.83,807.73z"/>
			<path class="st4" d="M908.26,790.16c-0.7-1.34-0.22-2.99,1.11-3.67l0,0c1.34-0.74,2.97-0.22,3.68,1.11l0,0
				c0.7,1.31,0.21,2.96-1.12,3.67l0,0c-0.41,0.22-0.84,0.33-1.28,0.33l0,0C909.68,791.6,908.76,791.06,908.26,790.16z"/>
			<path class="st4" d="M755.75,767.92c-1.45-0.41-2.26-1.94-1.85-3.37l0,0c0.41-1.44,1.93-2.26,3.37-1.85l0,0
				c1.45,0.43,2.28,1.93,1.85,3.37l0,0c-0.35,1.2-1.45,1.96-2.61,1.96l0,0C756.26,768.03,756.02,767.99,755.75,767.92z"/>
			<path class="st4" d="M892.25,749.29c-0.3-1.47,0.65-2.91,2.12-3.21l0,0c1.47-0.31,2.91,0.62,3.21,2.09l0,0
				c0.3,1.47-0.65,2.91-2.12,3.24l0,0c-0.16,0.03-0.35,0.05-0.54,0.05l0,0C893.66,751.46,892.52,750.56,892.25,749.29z"/>
			<path class="st4" d="M758.17,722.75c-0.14-1.5,0.98-2.81,2.47-2.94l0,0c1.5-0.14,2.8,0.98,2.93,2.47l0,0
				c0.14,1.49-0.98,2.83-2.47,2.94l0,0c-0.09,0.02-0.14,0.02-0.22,0.02l0,0C759.48,725.24,758.3,724.16,758.17,722.75z"/>
			<path class="st4" d="M894.15,708.41c-1.47-0.24-2.48-1.66-2.23-3.12l0,0c0.25-1.47,1.63-2.47,3.12-2.23l0,0
				c1.5,0.24,2.48,1.64,2.23,3.13l0,0c-0.22,1.34-1.36,2.26-2.67,2.26l0,0C894.45,708.44,894.31,708.44,894.15,708.41z"/>
			<path class="st4" d="M749.9,680.8c-0.41-1.45,0.47-2.94,1.91-3.32l0,0c1.44-0.41,2.93,0.47,3.34,1.91l0,0
				c0.38,1.43-0.46,2.94-1.93,3.31l0,0c-0.25,0.09-0.46,0.11-0.7,0.11l0,0C751.31,682.82,750.22,682.03,749.9,680.8z"/>
			<path class="st4" d="M902.31,665.9c-1.47-0.36-2.34-1.83-1.98-3.29l0,0c0.35-1.47,1.82-2.36,3.26-1.99l0,0
				c1.47,0.36,2.37,1.83,2.01,3.27l0,0c-0.3,1.25-1.41,2.1-2.63,2.1l0,0C902.75,665.99,902.53,665.95,902.31,665.9z"/>
			<path class="st4" d="M737.42,639.52c-0.46-1.45,0.29-2.96,1.74-3.46l0,0c1.41-0.46,2.96,0.33,3.43,1.74l0,0
				c0.46,1.44-0.3,2.96-1.71,3.43l0,0c-0.3,0.1-0.6,0.14-0.87,0.14l0,0C738.86,641.37,737.8,640.66,737.42,639.52z"/>
			<path class="st4" d="M809.27,638.54c-1.53,0-2.72-1.23-2.72-2.72l0,0c0-1.52,1.23-2.72,2.75-2.72l0,0c1.49,0,2.69,1.22,2.69,2.74
				l0,0C811.99,637.35,810.77,638.54,809.27,638.54L809.27,638.54L809.27,638.54z"/>
			<path class="st4" d="M848.87,628.04c-0.6-1.39,0.06-2.99,1.44-3.56l0,0c1.39-0.6,2.99,0.05,3.57,1.44l0,0
				c0.59,1.39-0.06,3-1.44,3.56l0,0c-0.35,0.14-0.7,0.22-1.06,0.22l0,0C850.31,629.7,849.3,629.08,848.87,628.04z"/>
			<path class="st4" d="M915.25,624.62c-1.41-0.55-2.09-2.12-1.54-3.51l0,0l0,0l0,0c0.54-1.41,2.12-2.09,3.51-1.55l0,0
				c1.41,0.54,2.09,2.12,1.55,3.51l0,0c-0.41,1.09-1.44,1.74-2.53,1.74l0,0C915.9,624.81,915.58,624.75,915.25,624.62z"/>
			<path class="st4" d="M767.98,623.25c-1.17-0.95-1.33-2.67-0.38-3.8l0,0c0.95-1.17,2.66-1.33,3.83-0.38l0,0
				c1.15,0.95,1.31,2.67,0.36,3.84l0,0c-0.52,0.65-1.31,0.98-2.1,0.98l0,0C769.1,623.88,768.48,623.7,767.98,623.25z"/>
			<path class="st4" d="M884.53,604.13c-1.2-0.89-1.47-2.58-0.6-3.8h0.03c0.87-1.2,2.58-1.47,3.78-0.59l0,0
				c1.22,0.89,1.5,2.61,0.59,3.8l0,0l0,0l0,0c-0.51,0.74-1.36,1.11-2.2,1.11l0,0C885.59,604.65,885.01,604.49,884.53,604.13z"/>
			<path class="st4" d="M927.71,583.25c-1.49-0.17-2.58-1.5-2.44-3l0,0l0,0l0,0c0.16-1.49,1.47-2.58,2.96-2.42l0,0
				c1.49,0.14,2.58,1.47,2.45,2.96l0,0c-0.14,1.39-1.31,2.45-2.69,2.45l0,0C927.9,583.25,927.82,583.25,927.71,583.25z"/>
			<path class="st4" d="M907.23,567.26c-1.2-0.92-1.44-2.61-0.51-3.8l0,0c0.89-1.22,2.61-1.45,3.81-0.54l0,0
				c1.2,0.89,1.41,2.61,0.52,3.8l0,0c-0.54,0.7-1.36,1.09-2.18,1.09l0,0C908.29,567.8,907.72,567.61,907.23,567.26z"/>
		</g>
		<path class="st5" d="M747.47,823.83c17.34,1.06,47.49,2.85,60.16,3.19c25.29,0.69,101.19,0,101.19,0v-18.96
			c-4.72-1.02-9.68-1.39-13.12-1.83c-26.95-3.34-48.61,1.15-75.71-1.09c-22.4-1.86-50.23,0.49-72.52,0.54V823.83z"/>
		<path class="st2" d="M772.16,722.75c12.03,0.87,32.96,2.35,41.75,2.64c17.55,0.57,70.23,0,70.23,0V709.7
			c-3.29-0.85-6.72-1.16-9.1-1.51c-18.7-2.77-33.73,0.95-52.55-0.91c-15.54-1.53-34.86,0.42-50.32,0.45V722.75z"/>
		<path class="st5" d="M862.24,664.37c1.06-54.04,1.32-137.9,2.17-174.36c1.82-77.48,0-309.96,0-309.96H797
			c-0.18,14.43-1.83,27.04-2.13,40.19c-1.88,83,5.15,165.91-0.76,248.93c-4.64,65.29-2.68,130.24-2.41,195.21H862.24z"/>
		<g>
			<path class="st4" d="M802.14,940.1h3.29c0.13-67.35,0.44-236.58,0.49-302.14c0.09-114.44,0-457.92,0-457.92h-2.6
				c-0.14,21.4-0.19,43.8-0.25,59.37c-0.46,121.97-0.5,245.11-0.81,367.75C801.99,718.55,802.17,829.25,802.14,940.1z"/>
			<path class="st4" d="M811.78,940.1h3.29c0.12-67.35,0.43-236.58,0.49-302.14c0.09-114.44,0-457.92,0-457.92h-2.6
				c-0.14,21.4-0.19,43.8-0.25,59.37c-0.46,121.97-0.5,245.11-0.81,367.75C811.63,718.55,811.81,829.25,811.78,940.1z"/>
			<path class="st4" d="M821.42,940.1h3.29c0.13-67.35,0.44-236.58,0.49-302.14c0.1-114.44,0-457.92,0-457.92h-2.6
				c-0.14,21.4-0.19,43.8-0.25,59.37c-0.45,121.97-0.5,245.11-0.81,367.75C821.28,718.55,821.45,829.25,821.42,940.1z"/>
			<path class="st4" d="M831.07,940.1h3.29c0.13-67.35,0.44-236.58,0.49-302.14c0.09-114.44,0-457.92,0-457.92h-2.6
				c-0.14,21.4-0.19,43.8-0.25,59.37c-0.46,121.97-0.5,245.11-0.8,367.75C830.91,718.55,831.09,829.25,831.07,940.1z"/>
			<path class="st4" d="M840.71,940.1h3.29c0.13-67.35,0.44-236.58,0.49-302.14c0.09-114.44,0-457.92,0-457.92h-2.6
				c-0.14,21.4-0.19,43.8-0.25,59.37c-0.46,121.97-0.5,245.11-0.81,367.75C840.56,718.55,840.74,829.25,840.71,940.1z"/>
			<path class="st4" d="M850.35,940.1h3.29c0.13-67.35,0.44-236.58,0.5-302.14c0.09-114.44,0-457.92,0-457.92h-2.6
				c-0.14,21.4-0.19,43.8-0.25,59.37c-0.46,121.97-0.5,245.11-0.81,367.75C850.2,718.55,850.38,829.25,850.35,940.1z"/>
		</g>
		<path class="st5" d="M752.85,946.72c16.18,1.06,44.33,2.85,56.15,3.19c23.6,0.69,94.44,0,94.44,0v-18.96
			c-4.41-1.02-9.03-1.39-12.24-1.82c-25.15-3.34-45.37,1.14-70.66-1.09c-20.9-1.85-46.88,0.49-67.68,0.53V946.72z"/>
		<path class="st2" d="M891.91,78.08c-5.37-2.12-10.7-2.78-16.35-3.86c-4.75-25.59-24.87-31.46-44.41-31.69v-0.01
			c-0.04,0-0.08,0-0.12,0c-0.04,0-0.08,0-0.12,0v0.01c-19.53,0.23-39.64,6.1-44.4,31.69c-5.66,1.08-10.99,1.74-16.35,3.86
			c0.5,16.06,19.86,86.71,27.07,104.64l33.79-1.71l33.79,1.71C872.04,164.78,891.41,94.14,891.91,78.08z"/>
		<g>
			<path class="st4" d="M788.4,87.78c-1.99,0-4.06,0.88-5.28,2.26c-0.9,1.01-1.28,2.18-1.14,3.47c0.29,2.49,2.52,5.04,4.99,5.67
				c0.47,0.13,0.92,0.19,1.37,0.19c2.47,0,3.82-1.92,4.28-2.74c1.2-2.13,1.21-4.76,0.02-6.69C791.49,88.06,789.49,87.78,788.4,87.78
				z"/>
			<path class="st4" d="M796.76,120.34c-1.98,0-4.05,0.89-5.28,2.26c-0.9,1.02-1.29,2.19-1.14,3.48c0.29,2.49,2.52,5.03,5,5.67
				c0.46,0.12,0.93,0.18,1.37,0.18c2.48,0,3.82-1.91,4.28-2.74c1.2-2.13,1.2-4.76,0.02-6.69
				C799.85,120.62,797.85,120.34,796.76,120.34z"/>
			<path class="st4" d="M805.12,152.91c-1.98,0-4.05,0.88-5.28,2.26c-0.91,1.01-1.29,2.18-1.14,3.47c0.29,2.49,2.53,5.03,4.99,5.67
				c3.11,0.81,5.11-1.59,5.65-2.55c1.2-2.13,1.2-4.75,0.02-6.69C808.21,153.19,806.21,152.91,805.12,152.91z"/>
			<path class="st4" d="M872.92,87.78c-1.09,0-3.09,0.28-4.24,2.16c-1.18,1.93-1.17,4.56,0.02,6.69c0.47,0.82,1.81,2.74,4.28,2.74
				c0.44,0,0.9-0.06,1.36-0.19c2.47-0.64,4.71-3.18,4.99-5.67c0.15-1.29-0.24-2.46-1.14-3.47C876.98,88.66,874.9,87.78,872.92,87.78
				z"/>
			<path class="st4" d="M864.56,120.34c-1.09,0-3.09,0.28-4.24,2.16c-1.19,1.94-1.18,4.56,0.02,6.69c0.46,0.82,1.8,2.74,4.28,2.74
				c0.44,0,0.9-0.06,1.37-0.18c2.46-0.65,4.71-3.18,4.99-5.67c0.15-1.29-0.24-2.46-1.14-3.48
				C868.62,121.23,866.55,120.34,864.56,120.34z"/>
			<path class="st4" d="M856.21,152.91c-1.09,0-3.09,0.28-4.24,2.16c-1.19,1.93-1.18,4.56,0.01,6.69c0.46,0.82,1.8,2.74,4.28,2.74
				c0.44,0,0.9-0.06,1.36-0.19c2.47-0.64,4.71-3.18,5-5.67c0.14-1.29-0.24-2.46-1.15-3.47
				C860.26,153.79,858.18,152.91,856.21,152.91z"/>
		</g>
		<path class="st6" d="M660.61,936.34c3.63,17.23,4.53,27.2,14.51,42.61c12.69,19.94,30.82,28.1,52.58,36.26
			c36.26,12.69,71.62,19.03,110.6,19.03c13.59,0,26.29-2.72,38.98-3.62"/>
		<path class="st6" d="M679.08,950.55c1.75,6.38,4.22,12.4,9.03,19.83c11.39,17.91,27.68,25.24,47.22,32.57
			c32.57,11.4,64.33,17.1,99.34,17.1"/>
		<g>
			<path class="st6" d="M975.54,863.05c25.35,20.27,33.87,88.75,10.06,112.12"/>
			<path class="st6" d="M974.1,879.44c9.52,5.55,12.4,21.11,13.45,31.1c1.23,11.84,1.08,24.77-0.59,36.56
				c-0.73,5.12-2.39,10.3-4.69,14.95"/>
			<path class="st6" d="M982.6,980.75c-1.56,1.71-3.32,3.01-5.1,4.42"/>
			<path class="st6" d="M979.88,966.47c-0.37,1.64-1.61,2.84-3.06,3.75"/>
		</g>
		<path class="st6" d="M840.67,1019.48c2.23,0,4.53,0.29,6.46-0.68"/>
		<path class="st6" d="M659.93,920.36c-0.63,2.01-0.94,5.44-0.34,7.48"/>
		<path class="st6" d="M791.61,73.76c1.57-9.02,6.92-16.18,14.68-20.85c2.14-1.29,4.6-2.68,7.08-3.17"/>
		<path class="st6" d="M819.71,47.92c2.6-0.98,6.03-1.89,8.84-1.59"/>
		<path class="st6" d="M805.89,178.24c7.26,0.7,14.69-0.9,21.98-0.9"/>
		<path class="st6" d="M832.18,177.33c1.62-0.17,3.13,0.37,4.76,0.22"/>
		<path class="st6" d="M728.66,520.23c-33.57,1.71-40.42,58.04-35.95,82.39c8.41,45.81,28.97,87.31,31.47,134.32
			c1.07,20.11,0.4,35.7-9.79,55.94"/>
		<path class="st6" d="M708.94,801.04c-1.79,2.05-3.55,4.58-5.44,6.8"/>
		<path class="st6" d="M708.26,546.07c-11.44,20.91-6.23,57.59-0.02,78.86c6.52,22.34,14.51,43.61,19.86,66.45
			c2.84,12.11,4.47,23.9,6,36.23"/>
		<path class="st6" d="M735.45,736.45c0.55,4.52-0.5,9.9-1.36,13.59"/>
		<path class="st6" d="M950.31,491.68c6.62,9.98,11.79,56.82,2.04,101.3"/>
		<path class="st6" d="M950.93,603.66c-0.81,5.36-2.66,10.22-3.96,15.38"/>
		<path class="st6" d="M938.07,611.34c6.59-25.91,10.58-56.14,6.8-82.95"/>
		<path class="st6" d="M941.47,506.64c0.64,3.28,1.34,6.5,2.72,9.52"/>
	</g>
	<g>
		<g>
			<g>
				<g>
					<g>
						<path class="st7" d="M275.35,88.24c-0.88-0.05-1.75-0.08-2.66-0.16c-10.92-0.97-24.48,0.26-35.35,0.28v9.48
							c8.45,0.55,23.15,1.48,29.32,1.66c2.22,0.07,5.24,0.11,8.68,0.14V88.24z"/>
						<path class="st7" d="M236.31,77.03c-3.14,0-4.63,0.87-5,2.19c-0.48,1.76-0.78,6.32-0.86,7.12
							c-0.97,9.55-0.05,18.44-0.05,18.44c0.18,3.04,2.45,3.18,5.06,3.18c2.6,0,4.92-0.14,5.14-3.18c0,0,1.09-14.76,1.26-20.16
							c0.07-1.94,0.07-2.09,0.07-2.09C241.98,79.51,239.45,77.03,236.31,77.03z"/>
					</g>
					<g>
						<path class="st7" d="M281.32,120.55c-0.89-0.04-1.76-0.07-2.67-0.16c-10.91-0.97-24.48,0.26-35.34,0.28v9.48
							c8.45,0.55,23.14,1.5,29.32,1.67c2.22,0.06,5.23,0.1,8.68,0.13V120.55z"/>
						<path class="st7" d="M242.28,109.34c-3.13,0-4.64,0.87-5,2.19c-0.48,1.76-0.78,6.32-0.87,7.12
							c-0.97,9.55-0.04,18.45-0.04,18.45c0.18,3.03,2.45,3.18,5.06,3.18c2.61,0,4.92-0.15,5.14-3.18c0,0,1.08-14.76,1.26-20.16
							c0.07-1.94,0.07-2.08,0.07-2.08C247.95,111.83,245.41,109.34,242.28,109.34z"/>
					</g>
					<g>
						<path class="st7" d="M287.28,152.86c-0.88-0.05-1.75-0.09-2.66-0.16c-10.92-0.97-24.48,0.25-35.35,0.28v9.47
							c8.45,0.56,23.15,1.5,29.32,1.67c2.22,0.07,5.24,0.11,8.69,0.12V152.86z"/>
						<path class="st7" d="M248.24,141.66c-3.13,0-4.63,0.87-4.99,2.19c-0.48,1.76-0.78,6.33-0.86,7.12
							c-0.96,9.56-0.04,18.45-0.04,18.45c0.18,3.03,2.45,3.18,5.06,3.18c2.61,0,4.92-0.15,5.14-3.18c0,0,1.09-14.76,1.27-20.17
							c0.07-1.94,0.07-2.08,0.07-2.08C253.91,144.13,251.37,141.66,248.24,141.66z"/>
					</g>
				</g>
				<g>
					<g>
						<path class="st7" d="M341.85,88.24c0.88-0.05,1.75-0.08,2.66-0.16c10.92-0.97,24.48,0.26,35.35,0.28v9.48
							c-8.45,0.55-23.15,1.48-29.32,1.66c-2.22,0.07-5.24,0.11-8.68,0.14V88.24z"/>
						<path class="st7" d="M380.89,77.03c3.13,0,4.63,0.87,4.99,2.19c0.48,1.76,0.78,6.32,0.86,7.12
							c0.96,9.55,0.05,18.44,0.05,18.44c-0.18,3.04-2.46,3.18-5.06,3.18c-2.61,0-4.92-0.14-5.15-3.18c0,0-1.08-14.76-1.26-20.16
							c-0.07-1.94-0.07-2.09-0.07-2.09C375.22,79.51,377.76,77.03,380.89,77.03z"/>
					</g>
					<g>
						<path class="st7" d="M335.89,120.55c0.88-0.04,1.75-0.07,2.66-0.16c10.91-0.97,24.48,0.26,35.35,0.28v9.48
							c-8.46,0.55-23.15,1.5-29.32,1.67c-2.22,0.06-5.23,0.1-8.68,0.13V120.55z"/>
						<path class="st7" d="M374.92,109.34c3.14,0,4.64,0.87,4.99,2.19c0.49,1.76,0.78,6.32,0.87,7.12
							c0.97,9.55,0.04,18.45,0.04,18.45c-0.18,3.03-2.45,3.18-5.06,3.18c-2.6,0-4.92-0.15-5.14-3.18c0,0-1.08-14.76-1.26-20.16
							c-0.07-1.94-0.07-2.08-0.07-2.08C369.26,111.83,371.79,109.34,374.92,109.34z"/>
					</g>
					<g>
						<path class="st7" d="M329.92,152.86c0.88-0.05,1.75-0.09,2.66-0.16c10.91-0.97,24.48,0.25,35.34,0.28v9.47
							c-8.45,0.56-23.15,1.5-29.32,1.67c-2.22,0.07-5.24,0.11-8.68,0.12V152.86z"/>
						<path class="st7" d="M368.96,141.66c3.13,0,4.63,0.87,4.99,2.19c0.48,1.76,0.78,6.33,0.86,7.12
							c0.97,9.56,0.05,18.45,0.05,18.45c-0.18,3.03-2.46,3.18-5.06,3.18c-2.61,0-4.93-0.15-5.15-3.18c0,0-1.08-14.76-1.26-20.17
							c-0.07-1.94-0.07-2.08-0.07-2.08C363.29,144.13,365.83,141.66,368.96,141.66z"/>
					</g>
				</g>
			</g>
			<path class="st5" d="M425.01,767.55c-14.2-22.72-18.46-49.7-11.36-75.27c8.52-31.25,19.47-63.6,13.99-97.27
				c-8.14-50.03-56.59-75.99-121.92-75.99c-65.33,0-113.78,25.96-121.92,75.99c-5.48,33.67,5.46,66.02,13.99,97.27
				c7.1,25.56,2.84,52.55-11.36,75.27c-35.5,58.23-74.25,89.47-68.82,162.46c8.18,110.1,102.91,120.16,188.12,120.16
				c85.21,0,179.93-10.06,188.12-120.16C499.25,857.03,460.51,825.78,425.01,767.55z"/>
			<path class="st8" d="M244.46,751.42c1.38,26.5,22.23,52.96,47.3,61.15c53.86,17.59,91.89-47.28,68-92.33
				C333.01,669.79,241.42,693.36,244.46,751.42z"/>
			<path class="st7" d="M269.09,710.91c17.44-13.23,49.61-17.45,69.57-9.15c2.12-39.27,2.22-164.81,3.32-211.75
				c1.82-77.48,0-309.96,0-309.96h-67.41c-0.18,14.43-1.83,27.04-2.13,40.19c-1.88,83,5.15,165.91-0.76,248.93
				C265.93,550.04,270.32,630.39,269.09,710.91z"/>
			<g>
				<path class="st4" d="M279.71,940.1H283c0.13-67.35,0.44-236.58,0.49-302.14c0.09-114.44,0-457.92,0-457.92h-2.6
					c-0.14,21.4-0.19,43.8-0.25,59.37c-0.46,121.97-0.5,245.11-0.81,367.75C279.56,718.55,279.73,829.25,279.71,940.1z"/>
				<path class="st4" d="M289.35,940.1h3.29c0.13-67.35,0.44-236.58,0.49-302.14c0.1-114.44,0-457.92,0-457.92h-2.6
					c-0.14,21.4-0.2,43.8-0.25,59.37c-0.46,121.97-0.5,245.11-0.81,367.75C289.2,718.55,289.37,829.25,289.35,940.1z"/>
				<path class="st4" d="M298.99,940.1h3.29c0.12-67.35,0.44-236.58,0.49-302.14c0.1-114.44,0-457.92,0-457.92h-2.6
					c-0.13,21.4-0.19,43.8-0.25,59.37c-0.46,121.97-0.5,245.11-0.81,367.75C298.84,718.55,299.02,829.25,298.99,940.1z"/>
				<path class="st4" d="M308.64,940.1h3.29c0.12-67.35,0.44-236.58,0.49-302.14c0.1-114.44,0-457.92,0-457.92h-2.6
					c-0.14,21.4-0.19,43.8-0.25,59.37c-0.46,121.97-0.5,245.11-0.81,367.75C308.48,718.55,308.66,829.25,308.64,940.1z"/>
				<path class="st4" d="M318.28,940.1h3.29c0.12-67.35,0.44-236.58,0.49-302.14c0.1-114.44,0-457.92,0-457.92h-2.6
					c-0.14,21.4-0.19,43.8-0.25,59.37c-0.46,121.97-0.5,245.11-0.81,367.75C318.13,718.55,318.31,829.25,318.28,940.1z"/>
				<path class="st4" d="M327.92,940.1h3.29c0.13-67.35,0.44-236.58,0.5-302.14c0.1-114.44,0-457.92,0-457.92h-2.6
					c-0.14,21.4-0.19,43.8-0.25,59.37c-0.45,121.97-0.5,245.11-0.81,367.75C327.77,718.55,327.95,829.25,327.92,940.1z"/>
			</g>
			<path class="st7" d="M230.42,946.72c16.18,1.06,44.33,2.85,56.14,3.19c23.61,0.69,94.44,0,94.44,0v-18.96
				c-4.41-1.02-9.03-1.39-12.24-1.82c-25.15-3.34-45.36,1.14-70.66-1.09c-20.91-1.85-46.88,0.49-67.68,0.53V946.72z"/>
			<path class="st5" d="M369.48,78.08c-5.37-2.12-10.7-2.78-16.35-3.86c-4.76-25.59-24.87-31.46-44.41-31.69v-0.01
				c-0.04,0-0.08,0-0.12,0c-0.04,0-0.08,0-0.12,0v0.01c-19.54,0.23-39.65,6.1-44.4,31.69c-5.65,1.08-10.98,1.74-16.35,3.86
				c0.51,16.06,19.86,86.71,27.08,104.64L308.6,181l33.79,1.71C349.61,164.78,368.97,94.14,369.48,78.08z"/>
			<g>
				<path class="st8" d="M265.96,87.78c-1.98,0-4.05,0.88-5.27,2.26c-0.9,1.01-1.29,2.18-1.14,3.47c0.28,2.49,2.52,5.04,4.99,5.67
					c0.47,0.13,0.92,0.19,1.37,0.19c2.47,0,3.81-1.92,4.28-2.74c1.2-2.13,1.2-4.76,0.02-6.69
					C269.06,88.06,267.06,87.78,265.96,87.78z"/>
				<path class="st8" d="M274.33,120.34c-1.98,0-4.06,0.89-5.28,2.26c-0.9,1.02-1.28,2.19-1.14,3.48c0.29,2.49,2.53,5.03,4.99,5.67
					c0.47,0.12,0.92,0.18,1.37,0.18c2.48,0,3.82-1.91,4.28-2.74c1.19-2.13,1.2-4.76,0.01-6.69
					C277.41,120.62,275.42,120.34,274.33,120.34z"/>
				<path class="st8" d="M282.68,152.91c-1.99,0-4.05,0.88-5.28,2.26c-0.91,1.01-1.29,2.18-1.14,3.47c0.29,2.49,2.53,5.03,5,5.67
					c3.11,0.81,5.11-1.59,5.65-2.55c1.2-2.13,1.2-4.75,0.02-6.69C285.77,153.19,283.77,152.91,282.68,152.91z"/>
				<path class="st8" d="M350.49,87.78c-1.09,0-3.09,0.28-4.24,2.16c-1.18,1.93-1.17,4.56,0.02,6.69c0.46,0.82,1.8,2.74,4.28,2.74
					c0.44,0,0.9-0.06,1.36-0.19c2.47-0.64,4.71-3.18,4.99-5.67c0.15-1.29-0.24-2.46-1.14-3.47
					C354.54,88.66,352.47,87.78,350.49,87.78z"/>
				<path class="st8" d="M342.13,120.34c-1.09,0-3.09,0.28-4.24,2.16c-1.19,1.94-1.18,4.56,0.02,6.69c0.46,0.82,1.8,2.74,4.28,2.74
					c0.44,0,0.9-0.06,1.37-0.18c2.46-0.65,4.71-3.18,4.99-5.67c0.15-1.29-0.24-2.46-1.14-3.48
					C346.18,121.23,344.11,120.34,342.13,120.34z"/>
				<path class="st8" d="M333.78,152.91c-1.09,0-3.09,0.28-4.25,2.16c-1.18,1.93-1.17,4.56,0.02,6.69c0.47,0.82,1.81,2.74,4.28,2.74
					c0.44,0,0.89-0.06,1.36-0.19c2.47-0.64,4.71-3.18,5-5.67c0.15-1.29-0.23-2.46-1.14-3.47
					C337.83,153.79,335.75,152.91,333.78,152.91z"/>
			</g>
		</g>
		<path class="st6" d="M258.4,538.81c-20.68,7.76-38.07,20.64-47.43,38.55c-17.22,31.73-7.03,65.25,0.9,96.09
			c8.24,32.07,9.49,58.92-2.3,87.03"/>
		<path class="st6" d="M138.18,936.34c3.62,17.23,4.53,27.2,14.51,42.61c12.69,19.94,30.82,28.1,52.58,36.26
			c36.26,12.69,71.62,19.03,110.6,19.03c13.6,0,26.29-2.72,38.99-3.62"/>
		<path class="st6" d="M164.25,954.79c1.76,6.37,4.22,12.4,9.03,19.83c11.39,17.91,27.68,25.24,47.22,32.57
			c32.57,11.4,64.32,17.1,99.33,17.1"/>
		<path class="st6" d="M452.39,843.46c25.35,20.27,33.87,88.75,10.06,112.12"/>
		<path class="st6" d="M450.94,859.85c9.52,5.55,12.4,21.11,13.45,31.1c1.23,11.84,1.09,24.78-0.59,36.56
			c-0.73,5.12-2.4,10.3-4.7,14.95"/>
		<path class="st6" d="M249.46,551.86c-20.14,8.22-35.68,30.69-38.99,52.34c-0.89,5.84-1.87,11.77-0.89,17.69"/>
		<path class="st6" d="M206.51,767.38c-0.79,3-2.93,5.2-3.74,8.16"/>
		<path class="st6" d="M210.25,629.7c0.16,2.12,0.23,4.78,1.36,6.45"/>
		<path class="st6" d="M459.44,961.16c-1.56,1.71-3.32,3.02-5.1,4.42"/>
		<path class="st6" d="M456.72,946.88c-0.37,1.64-1.61,2.84-3.06,3.75"/>
		<path class="st6" d="M325.84,1023.71c2.23,0,4.53,0.29,6.46-0.68"/>
		<path class="st6" d="M137.5,920.36c-0.63,2.01-0.93,5.44-0.34,7.48"/>
		<path class="st6" d="M373.88,544.71c29.11,7.17,41.87,32.2,43.56,60.72c0.32,5.4,0.32,10.94-0.04,16.34"/>
		<path class="st6" d="M360.74,541.09c1.17-0.21,3.37,0.15,4.98,0.9"/>
		<path class="st6" d="M370.26,551.06c21.04,2.04,32.14,22.64,36.11,40.92c1.24,5.75,2.79,11.64,2.42,17.56"/>
		<path class="st6" d="M408.33,615.42c0.22,2.44,0.04,5.41-0.9,7.25"/>
		<path class="st6" d="M269.18,73.76c1.57-9.02,6.92-16.18,14.68-20.85c2.14-1.29,4.6-2.68,7.07-3.17"/>
		<path class="st6" d="M297.28,47.92c2.59-0.98,6.03-1.89,8.84-1.59"/>
		<path class="st6" d="M283.46,178.24c7.26,0.7,14.69-0.9,21.99-0.9"/>
		<path class="st6" d="M309.75,177.33c1.62-0.17,3.13,0.37,4.76,0.22"/>
		<path class="st6" d="M343.85,711.29c9.25,8.73,14.44,19.73,14.62,32.64"/>
		<path class="st6" d="M358.14,749.7c0.09,2.89-0.51,5.92-1.7,8.5"/>
		<path class="st6" d="M251.39,738.15c-0.55,2.73-0.78,5.38-1.02,8.16"/>
		<path class="st6" d="M251.05,754.13c2.49,7.69,4.48,15.57,8.82,22.48c3.93,6.26,8.85,11.32,13.28,16.95"/>
	</g>
</g>
</svg>
