<?xml version="1.0" encoding="utf-8"?>
<!-- Generator: Adobe Illustrator 26.0.3, SVG Export Plug-In . SVG Version: 6.00 Build 0)  -->
<svg version="1.1" id="Layer_1" xmlns="http://www.w3.org/2000/svg" xmlns:xlink="http://www.w3.org/1999/xlink" x="0px" y="0px"
	 viewBox="0 0 1133.86 1133.86" style="enable-background:new 0 0 1133.86 1133.86;" xml:space="preserve">
<style type="text/css">
	.st0{fill:#343433;}
</style>
<g id="Hammer_and_nail">
	<path class="st0" d="M926.87,1041.01c-86.93-105.59-270.55-315.32-357.78-420.79l-89.05-107.79l48.85-44.36l48.12-45.16
		l100.35,97.36c98.17,95.36,292.59,295.12,390.92,390.19c24.76,23.91,37.95,55.21,37.21,88.01c-1.24,55.15-39.17,89.78-93.82,86.64
		C978.9,1083.25,948.74,1067.61,926.87,1041.01z"/>
	<path class="st0" d="M35.65,428.29c12-11.11,24.14-22.22,36.28-33.33C85.47,382.56,99,370,112.38,357.59
		c4.62-4.33,9.15-5.98,15.41-5.78c3.28,0.1,32.78,1.79,40.98,2.2l2.53,0.08c29.53,0.94,44.14-12.78,45.7-43.03l0.54-7.59
		c0.51-6.7,0.87-13.26,0.78-19.98c-0.17-8.81,3.18-15.57,11.19-23.23c40.94-39,89.28-85.23,137.35-132.66
		c20.34-20.1,43.83-36.07,71.84-48.62c61.94-28.19,121.17-36.6,181.14-26.04c29.63,5.17,57.52,14.87,84.31,29.37
		c14.62,7.91,9.9,30.33-6.7,31.29c-31.88,1.85-60.59,8.71-87.65,20.67c-62.83,27.86-100.12,83.69-99.67,149.23
		c0.24,30.16,7.8,59.8,22.43,88.03c-18.15,16.89-36.61,34.21-54.76,51.25c-15.53,14.43-30.62,28.73-44.62,41.87
		c-17.51-17.42-21.58-20.84-24.94-23.03c-21.07-13.21-45.48-15.47-65.63-6.11c-6.52,3.08-12.93,7.5-18.93,13.13
		c-27.21,24.81-33.04,58.21-15.99,89.95c-6.3,5.62-12.6,11.24-18.89,16.86c-25.2,22.78-51.47,46.28-77.69,68.29
		c-3.83,3.16-7.02,5-9.11,4.94c-1.05-0.03-4.31-0.73-10.71-6.01L66.69,489.73l-32.84-37.46C27.23,444.6,25.2,437.96,35.65,428.29z"
		/>
</g>
</svg>
