<?xml version="1.0" encoding="utf-8"?>
<!-- Generator: Adobe Illustrator 26.0.3, SVG Export Plug-In . SVG Version: 6.00 Build 0)  -->
<svg version="1.1" id="Layer_1" xmlns="http://www.w3.org/2000/svg" xmlns:xlink="http://www.w3.org/1999/xlink" x="0px" y="0px"
	 viewBox="0 0 1133.86 1133.86" style="enable-background:new 0 0 1133.86 1133.86;" xml:space="preserve">
<style type="text/css">
	.st0{fill:#A0A0A0;}
	.st1{fill:#878787;}
	.st2{fill:#625150;}
	.st3{fill:#7A6B6A;}
	.st4{fill:#513E3E;}
	.st5{fill:#A4695B;}
	.st6{fill:#865145;}
	.st7{fill:#CE9180;}
	.st8{fill:#844F3D;}
	.st9{fill:#714239;}
	.st10{fill:#6B2A39;}
	.st11{fill:#F79CA7;}
	.st12{fill:#F6F3EF;}
</style>
<g>
	<path class="st0" d="M211.28,1091.94c52.59,25.7,108.8,7.64,110.69,4.2c1.89-3.45,1.8-22.97-2.22-39.2
		c-13.12,0.37-44.81-1.81-67.87-14.25C239.65,1059.5,225.17,1077.18,211.28,1091.94z"/>
	<path class="st1" d="M255.69,1060.53c-4.01-1.79-8.31-3.79-12.61-6.11c3.03-3.93,5.98-7.86,8.8-11.74
		c23.05,12.44,54.75,14.62,67.87,14.25c0.71,2.87,1.29,5.84,1.77,8.8C300.32,1071.29,275.47,1069.34,255.69,1060.53z"/>
	<path class="st0" d="M104.85,942.69c53.54-2.9,79.12-45.42,78-49.31c-1.11-3.89-14.74-20.74-28.76-32.88
		c-8.64,6.59-31.66,19.87-55.94,20.13C101.54,901.03,104.01,923.27,104.85,942.69z"/>
	<path class="st1" d="M113.13,894.25c-3.96,0.37-8.27,0.69-12.79,0.74c-0.68-4.85-1.41-9.66-2.19-14.37
		c24.29-0.26,47.3-13.54,55.94-20.13c2.47,2.14,4.93,4.44,7.32,6.78C150.9,882.23,132.68,892.41,113.13,894.25z"/>
	<path class="st0" d="M495.47,941.2c-6.04,5.5-35.79,39.49-37.63,42.23c27.79,28.93,93.37,26.68,102.24,18.31
		c4.05-3.82,5.09-23.35,5.38-31.35C540.67,967.51,516.36,958.8,495.47,941.2z"/>
	<path class="st1" d="M495.47,948.88c1.39-1.5,22.06-4.48,23.04-5.37c20.89,17.6,31.48,16.13,46.96,26.89
		c-0.1,2.75-0.3,6.88-0.66,11.26C538.04,983.67,517.51,974.14,495.47,948.88z"/>
	<path class="st0" d="M562.88,1064.2c28.07,28.14,110.85,23.99,110.92,14.57c0.07-9.41-0.35-20.5-1.08-30.72
		c-23.91-1.44-51.13-11.47-73.28-22.54C587.53,1038.84,575.48,1051.79,562.88,1064.2z"/>
	<path class="st1" d="M596.15,1029.15c1.09-1.21,2.19-2.41,3.28-3.63c22.15,11.06,49.37,21.1,73.28,22.54
		c0.22,3.07,0.4,6.22,0.56,9.36C645.97,1063.64,617.02,1051.43,596.15,1029.15z"/>
	<path class="st2" d="M840.65,644.89c14.96-10.99,40.46-54.89,63.54-55.61c15.45-0.48,26.39,25.6-5.31,63.23
		c-43.54,51.7-47.01,103.36-24.13,149.14c16.41,32.82,59.85,61.3,93.64,47.78c-13.04-17.85-22.2-39.1-26.92-54.72
		c10.32,4.45,24.45,7.32,34.42,5.06c-9.47-4.69-38.45-38.9-28.49-66.74c2.02,8.77,20.39,16.39,35.24,17.17
		c-8.47-12.64-17.45-24.99-13.66-40.79c5.32-22.11,36.24-36.57,50.51-52.92c14.27-16.36,25.9-30.17,25.77-54.1
		c-0.12-23.94-7.7-46.03-29.13-68.94c-21.44-22.92-37.44-30.32-58.84-36.17c-21.41-5.84-43.88-4.17-59.58,4.54
		c-45.71,25.36-64.39,107.24-100.77,134.84C806.98,640.53,825.69,655.88,840.65,644.89z"/>
	<path class="st3" d="M988.26,519.68c-46.04-27.89-83.98-18.32-108.14-4.31c5.42-5.42,11.25-10.03,17.6-13.56
		c15.69-8.71,38.16-10.38,59.58-4.54c21.4,5.85,37.4,13.25,58.84,36.17c21.44,22.92,29.01,45,29.13,68.94
		c0.06,11.96-2.81,21.39-7.48,29.87C1049.33,585.85,1018.48,537.99,988.26,519.68z"/>
	<path class="st4" d="M941.47,794.71c-0.94-3.42-3.21-8.36-5.81-13.33c11.32,7.52,24.88,12.52,36.68,18.95
		C962.76,801.34,950.63,798.66,941.47,794.71z"/>
	<path class="st4" d="M947.41,733.03c-1.25-5.35,3.18-17.75,8.24-28.54c-1.31,13.52,1,27.42,5.59,40.57
		C954.05,741.9,948.46,737.63,947.41,733.03z"/>
	<path class="st2" d="M210.37,395.03c16.99-36.11,42.76-76.86,66.01-108.23c34.16-46.08,77.15-82,126.2-104.31
		c5.81-2.65,11.7-5.03,17.63-7.29c16.7-10.3,34.08-19.55,49.65-31.58c-8.05-16.42-11.32-35.11-5.99-54.59
		c0.2-0.76,0.46-1.49,0.68-2.24c-32.25,19.79-93.6,45.24-152.18,42.92c-3.32,16.99,11.46,22.98,31.96,30.46
		c-27.45,4.99-90.9,71.38-144.38,46.5c-6.54,8.21,5.9,31.22,39.39,35.01c-2.98,1.98-5.9,4.11-8.7,6.43
		c-35.88,30.86-79.53,108.06-129.32,95.88C140.11,381.09,180.55,395.57,210.37,395.03z"/>
	<path class="st4" d="M282.04,253.94c-18.11,6.85-39.07,3.02-42.7-12.27c34.1,7.23,64.6-12.09,98.32-32.29
		c33.72-20.21,66.52-54.39,103.43-61.67c-4.86-13.11-8.74-37.88,9.23-49.05c1.45,5.34,26.22,59.62,28.65,64.58
		c-15.56,12.04-236.19,200.8-253.18,236.91c-15.05,0.26-48.21-8.42-67.09-16.77C207.04,349.23,286.35,252.31,282.04,253.94z"/>
	<path class="st4" d="M386.66,160.34c-14.38,13.74-21.45,20.29-41.44,15.53c-11.54-2.76-7.16-14.57-0.89-15.71
		C360.27,168.21,375.77,166.25,386.66,160.34z"/>
	<path class="st5" d="M580.83,865.06c-11.91,14.51-38.09,48.97-43.79,51.56c-5.69,2.59-61.61,13.99-53.31,24.25
		c16.49,20.39,93.33,38.95,91.81,24.02c-1.52-14.93-4.33-24.44-0.7-32.73c3.62-8.28,25.21-42.34,34.74-50.59
		c-1.84-3.18-3.38-6.65-4.53-10.44c-10.44-34.78,12.9-74.9,29.91-104.99c-29.42,15.52-61,27.45-93.78,35.29
		C540.81,827.62,557.05,853.45,580.83,865.06z"/>
	<path class="st5" d="M94.37,717.9c-6.6,9.17-7.03,28.03-3.86,55.08c3.16,27.05,4.83,91.8,4.83,107.27c0,15.46,77.81-6.4,64.74-23.2
		c-27.06-34.78-38.66-99.53-33.82-116.93c4.84-17.39,44.65-26.34,51.76-29.49c12.5-5.51,25.32-10.3,38.07-15.26
		c1.03-12.65,3.18-24.75,6.24-36.32c-13.21,2.15-26.09,5.47-38.5,9.83C164.45,676,111.76,693.74,94.37,717.9z"/>
	<path class="st6" d="M641.11,882.94c-27,5.29-45.01-4.77-51.89-30.18c-22.76-10.59-40.9-42.2-37.59-56.12
		c32.78-7.86,70.65-32.13,100.07-47.66C637.27,774.52,640.17,852.37,641.11,882.94z"/>
	<path class="st6" d="M193.8,665.65c9.3-2.79,18.82-5.02,28.52-6.59c-3.06,11.57-5.2,23.68-6.24,36.32
		c-5.77,2.24-11.54,4.46-17.31,6.71C198.37,690.06,196.73,677.74,193.8,665.65z"/>
	<path class="st5" d="M188.03,633.23c3.75,23.52,8.94,45.26,30.29,77.11c15.73,23.46,55.3,54.44,70.28,62.26
		c-0.94,17.07,4.34,101.51,3.55,132.55c-0.85,33.11-2.25,76.11-6.12,89.33c-3.87,13.22-32.9,34.18-42.57,44.5
		c-9.67,10.32,87.35,37.9,84.17,23.22c-3.17-14.68-5.98-34.09-4.68-61.28c2.88-60.53,12.37-152.58,17.85-200.63
		c21.39,14.71,57.66,28.98,79.79,32.84c44.25,7.7,158.09-13.34,210.42-63.91c-39.14,49.65-38.08,85.65-23.11,116.58
		c11.18,23.09,57.72,37.9,91.98,37.9c4.77,0,7.95,1.58,5.29,6.35c-5.71,10.29-35.16,56.54-40.24,59.3
		c-5.08,2.78-53.7,27.43-69.74,35.69c-16.04,8.27,62.39,31.52,85.55,22.79c4.62-1.74-3.5-10.49,9.84-33.14
		c13.34-22.66,76.27-87.95,81.34-94.87c5.07-6.92-10.11-17.83-16.46-20.49c-6.36-2.65,16.94-23.83,30.18-39.71
		c13.24-15.88,24.7-37.53,30.26-47.61c16.68-30.3,26.21-66.3,28.75-84.28c2.66-20.29,3.02-40.87,0.46-61.19
		c-2.16-15.56-4.66-48.95-27.42-78.87c-22.76-29.92-48.13-36.42-74.15-40.32c-31.89-4.78-55.2-0.8-74.15,1.3
		c-17.56,1.95-74.4,6.35-130.7-15.68c-56.3-22.03-110.27-63.23-121.01-80.86c-24.49-40.21-34.23-94.61-26.7-143.61
		c-11-17.2-22.55-37-26.69-57.1c-3.25-15.75,78.95-82.61,91.41-98.39c-103.82,23.09-196.73,121.61-240.7,248.35
		C188.98,476.42,179.92,582.4,188.03,633.23z"/>
	<path class="st7" d="M831.6,691.84c-4.47-35.67-13.13-73.67-35.34-102.76c-21.28-27.88-56.95-36.61-89.73-43.85
		c10.95-0.36,23.18,0.06,37.02,2.14c26.02,3.9,51.39,10.41,74.15,40.32c22.76,29.92,25.25,63.32,27.42,78.87
		c2.56,20.31,2.2,40.89-0.46,61.19c-1.62,11.51-6.12,30.4-13.52,50.46C835.98,749.79,835.18,720.36,831.6,691.84z"/>
	<path class="st6" d="M391,308.52c-1.85,11.99-2.63,24.3-2.44,36.65c-10.34,7.87-29.67,0.74-37.72-17.93
		c-11.21-26.01-10.66-55.68,1.05-90.04c7.9-23.16,16.46-31.61,25.92-36.83c-12.46,15.78-16.76,35.3-13.51,51.05
		C368.45,271.51,380,291.31,391,308.52z"/>
	<path class="st6" d="M357.94,788.73c-0.64,7.42-7.42,14.93-16.77,9.03c1.79-28.27,1.15-60.27,0.97-70.31
		C353.1,747.77,358.59,781.31,357.94,788.73z"/>
	<path class="st6" d="M281.18,754.22c0.32-10.96,4.08-29.77,8.61-39.06c0.09,17.46-1.2,38.09-0.9,54.89
		C286,768.53,280.86,765.19,281.18,754.22z"/>
	<path class="st5" d="M611.43,43.54c-20.21,5.84-46.1,22.93-60.65,33.25c13.48,2.69,32.45,8.41,38.06,10.82
		C600.2,73.65,611.88,51.63,611.43,43.54z"/>
	<path class="st6" d="M569.62,64.17c9.19,4.18,18.75,7.47,28.41,10.53c-2.92,4.61-6.06,9.07-9.19,12.92
		c-5.6-2.41-24.58-8.14-38.06-10.82C555.9,73.16,562.44,68.69,569.62,64.17z"/>
	<path class="st2" d="M517.19,71.51c2.9-0.18,16.95-0.47,19.99-0.51c31.6-0.36,69.79,7.27,98.36,31
		c1.26,1.04,11.93,11.33,18.99,18.15c3.62,1.32,7.25,2.75,10.84,4.32c30.8,13.5,46.4,25.73,54.42,44.72
		c-16.02-17.06-47.49-27.08-69.96-24.94c31.16,16.76,47.45,51.83,34.74,65.4c-9.47-9.17-35.4-26.42-46.05-32.18
		c-9.57-5.17-19.51-9.68-30.19-12.01c-13.03-2.85-26.39-3.65-39.61-5.38c-10.5-1.5-20.56-4-30.4-8.02
		c-14.67-6.3-28-15.08-40.63-24.78C489.14,118.65,512.45,80.37,517.19,71.51z"/>
	<path class="st3" d="M546.52,71.16c28.02,1.09,59.68,8.63,84.88,27.66C607.74,88.55,573.5,77.37,546.52,71.16z"/>
	<path class="st3" d="M655.66,126.38c-15.65-6.95-47.06-16.78-56.11-20.54c15.94,3.64,41.51,7.98,65.82,18.64
		c29.45,12.91,45,24.68,53.31,42.28C704.31,146.57,668.64,132.15,655.66,126.38z"/>
	<path class="st5" d="M359.49,228.73c6.36-40.96,51.35-64.84,96.22-75.71c-5.75-9.57-12.44-23.65-11.41-36.56
		c1.58-19.91,16.88-36.7,30.38-49.36c13.5-12.66,61.61-44.11,60.33-37.97c-2.14,10.33-6.75,26.02-12.71,42.7
		c-6.94,19.43-15.72,40.21-24.6,55.45c8.74,0.32,64.6,26.34,72.29,27.47c3.38,21.55,19.6,81.44,22.08,82.76
		c27.95,14.87,54.43,32.21,79.69,51.47c11.96,9.32,23.06,19.72,32.45,31.65c6.3,8.33,11.66,17.28,15.84,26.86
		c3.94,9.61,6.58,19.6,8.08,29.88c1.06,8.42,1.37,16.9,0.37,25.33c-0.75,4.9-1.95,9.69-3.78,14.3c-1.54,3.45-3.42,6.71-5.66,9.77
		c-2.28,2.81-4.84,5.34-7.65,7.62c-3.53,2.59-7.32,4.74-11.33,6.51c-6.4,2.57-13.09,4.2-19.9,5.21c-8.06,1.01-26.38,2.05-42.07-3.49
		c-16.61,47.07-74.76,59.99-110.75,37.84c-28.99-17.85-49.31-60.29-34.15-98.75c-14.94-12.7-24.09-36.45-29.77-59.99
		C389.61,373.39,349.93,290.33,359.49,228.73z"/>
	<path class="st7" d="M696.52,329.1c-25.59-33.97-62.79-63.35-97.46-87.77c25.39,14,49.56,30.01,72.71,47.66
		c11.96,9.32,23.06,19.72,32.45,31.65c6.3,8.33,11.66,17.28,15.84,26.86c3.94,9.61,6.58,19.6,8.08,29.88
		c1.06,8.42,1.37,16.9,0.37,25.33c-0.75,4.9-1.95,9.69-3.78,14.3c-1.54,3.45-3.42,6.71-5.66,9.77c-2.28,2.81-4.84,5.34-7.65,7.62
		c-0.7,0.51-1.42,0.99-2.14,1.48C725.81,404.45,715.29,354.03,696.52,329.1z"/>
	<path class="st7" d="M452.65,92.71c5.99-9.76,14.31-18.36,22.03-25.6c13.5-12.66,61.61-44.11,60.33-37.97
		c-0.47,2.24-1.32,4.84-2.47,7.7C509.29,43.04,466.38,78.43,452.65,92.71z"/>
	<path class="st6" d="M497.7,127.28c17.1,9.88,64.01,29.93,71.7,31.06C574.77,185.79,523.45,185.5,497.7,127.28z"/>
	<path class="st8" d="M606.1,328.99c16.96-2.78,40.6,12.79,47.83,31.98c7.23,19.19-9.58,33.16-18.24,27.39
		C625.11,381.3,594.45,330.9,606.1,328.99z"/>
	<path class="st9" d="M635.4,366.65c-6.69,3.38-12.71,2.05-17.87-1.4c-10.08-16.29-18.47-35.11-11.43-36.26
		c10.67-1.75,23.97,3.77,34.18,12.87C644.38,350.29,643.69,362.46,635.4,366.65z"/>
	<path class="st4" d="M649.84,144.26c-16.6-8.95-39.6-13.26-55.78-18.02c37.46-0.21,67.83,11.33,77.51,19.21
		C663.96,144.08,656.5,143.62,649.84,144.26z"/>
	<path class="st4" d="M522.3,71.83c-9,30.12-5.33,44.17,15.77,62.94c12.39,11.02,39.98,23.57,55.6,28.2
		c-8.3-1.09-16.65-1.81-24.94-2.89c-10.5-1.5-20.56-4-30.4-8.02c-14.67-6.3-28-15.08-40.63-24.78
		C502.83,119.59,516.29,87.02,522.3,71.83z"/>
	<path class="st10" d="M541.37,463.22c-29.44-18.65-41.9-61.68-17.93-95.13c17.25,27.34,65.98,57.36,100.74,60
		C607.22,475.61,565.78,478.68,541.37,463.22z"/>
	<path class="st11" d="M571.53,471.52c-0.69-11.2-4.24-22.54-8.82-31.26c-4.71-8.99-11.18-18.19-20.4-23.04
		c-9.55-5-21.23-4.9-30.7-0.2c2.93,18.94,13.86,36.13,29.76,46.2C549.92,468.64,560.57,471.77,571.53,471.52z"/>
	<path class="st12" d="M537.51,384.86c-5.73-5.54-10.56-11.21-14.07-16.77c-4.68,6.53-7.95,13.41-10,20.42
		c2.29,6.29,6.66,12.54,12.3,17.45C529.96,398.95,533.65,391.93,537.51,384.86z"/>
	<path class="st12" d="M566.57,406.91c-9.48-5.77-18.39-12.3-25.95-19.15c-3.92,7.18-7.86,14.36-11.97,21.43
		c4.58,7.77,19.15,18.53,24.34,21.14C557.46,422.49,562.04,414.71,566.57,406.91z"/>
	<path class="st12" d="M582.89,443.12c3.67-6.53,8.59-15.81,11.99-22.23c-8.31-3.18-16.7-7.2-24.76-11.86
		c-4.55,7.82-9.77,17.23-13,23.78C563.69,437.95,574.09,442.45,582.89,443.12z"/>
	<path class="st12" d="M598.78,422.34c-4.07,7.12-7.58,14.16-10.22,21.21c8.01,2.8,17.41,3.95,26.71,2.62
		c3.41-5.13,6.43-11.12,8.91-18.07C616.26,427.49,607.62,425.44,598.78,422.34z"/>
	<path class="st12" d="M527.55,433.21c-4.05-4.7-9.13-9.91-15.6-14.19c1.59,8.55,4.83,16.7,9.4,23.95
		C523.45,440.35,526.05,436.6,527.55,433.21z"/>
	<path class="st12" d="M544.64,450.29c-3.06-4.4-9.1-10.99-14.04-14.11c-1.97,2.6-5.06,7.18-6.72,10.53
		c4.03,5.53,8.93,10.38,14.48,14.38C540.55,457.56,542.65,453.96,544.64,450.29z"/>
	<path class="st12" d="M563.9,471.11c-4.33-6.74-9.52-13.27-16.26-17.74c-2,2.92-4.65,7.32-5.9,10.06
		C548.21,467.45,555.85,470.15,563.9,471.11z"/>
	<path class="st9" d="M513.75,215.44c-14.69-2.73-23.64,13.92-25.29,27.8c-1.08,9.06,3.12,12.78,3.23,10.72
		c0.55-9.83,4.62-36.22,21.97-32.92c9.91,1.88,15.94,16.59,17.17,28.91c0.11,1.09,2.81-0.48,2.81-5.77
		C533.66,231.94,528.33,218.15,513.75,215.44z"/>
	<path class="st9" d="M561.94,210.56c-5.53,0.73-9.87,7.1-11.62,11.61c-2.49,6.44-2.66,12.62-2.32,16.59
		c0.39,4.63,4.31,8.96,4.06,5.85c-0.75-9.13-0.39-21.65,8.54-27.91c8-5.59,14.62,6.47,15.77,16.78c0.51,4.49,2.83,0.98,2.17-4.67
		C577.49,219.96,572.93,209.11,561.94,210.56z"/>
	<path class="st8" d="M514.4,179.88c-18.37-10.28-32.45,2.54-35.46,20.79c-0.64,3.9-0.22,6.18,0.23,5.27
		c3.44-6.9,7.82-13.17,14.32-17.51c8.29-5.54,19.86-6.12,25.87-3.24C520.74,185.86,518.07,181.93,514.4,179.88z"/>
	<path class="st8" d="M566.14,186.7c-11.08-6.51-14.09,3.94-13.16,3.46c5.08-2.66,10.86-1.27,15.06,1.99
		c2.25,1.75,3.88,4.55,5.77,6.69C574.36,199.48,573.42,190.97,566.14,186.7z"/>
</g>
</svg>
