<?xml version="1.0" encoding="utf-8"?>
<!-- Generator: Adobe Illustrator 26.0.3, SVG Export Plug-In . SVG Version: 6.00 Build 0)  -->
<svg version="1.1" id="Layer_1" xmlns="http://www.w3.org/2000/svg" xmlns:xlink="http://www.w3.org/1999/xlink" x="0px" y="0px"
	 viewBox="0 0 1133.86 1133.86" style="enable-background:new 0 0 1133.86 1133.86;" xml:space="preserve">
<style type="text/css">
	.st0{fill:#9C877B;}
	.st1{fill:#BDA583;}
	.st2{opacity:0.2;}
	.st3{fill:#7A8692;}
	.st4{clip-path:url(#SVGID_00000154389272302660008130000003841533318594730155_);}
	.st5{fill:#F9BA63;}
	.st6{opacity:0.2;fill:#D37324;}
	.st7{fill:#6D5F5E;}
	.st8{fill:#EEEDEB;}
	.st9{clip-path:url(#SVGID_00000136407721210357089980000005320019112447160724_);}
	.st10{fill:#372426;}
	.st11{fill:#964B32;}
	.st12{fill:#AB6C3F;}
	.st13{fill:#417624;}
	.st14{fill:#67953D;}
	.st15{fill:#FFB5BA;}
	.st16{fill:#FF8F81;}
	.st17{fill:#F4E2E1;}
	.st18{fill:#80AF4E;}
	.st19{opacity:0.1;}
</style>
<g>
	<g>
		<rect x="222.06" y="311.64" class="st0" width="65.7" height="81.23"/>
		<rect x="209.66" y="285.09" class="st1" width="90.5" height="27.93"/>
		<rect x="222.06" y="311.64" class="st2" width="65.7" height="27.93"/>
	</g>
	<rect x="42.52" y="895.35" class="st3" width="1048.82" height="19.27"/>
	<g>
		<defs>
			<polygon id="SVGID_1_" points="953.88,895.35 179.98,895.35 179.98,460.39 423.33,250.68 658.72,460.39 953.88,460.39 			"/>
		</defs>
		<use xlink:href="#SVGID_1_"  style="overflow:visible;fill:#FFD982;"/>
		<clipPath id="SVGID_00000120543722867353823170000002090198289413887413_">
			<use xlink:href="#SVGID_1_"  style="overflow:visible;"/>
		</clipPath>
		<g style="clip-path:url(#SVGID_00000120543722867353823170000002090198289413887413_);">
			<rect x="179.98" y="824.8" class="st5" width="773.9" height="5.47"/>
			<rect x="179.98" y="795.68" class="st5" width="773.9" height="5.47"/>
			<rect x="179.98" y="766.57" class="st5" width="773.9" height="5.47"/>
			<rect x="179.98" y="737.45" class="st5" width="773.9" height="5.47"/>
			<rect x="179.98" y="708.33" class="st5" width="773.9" height="5.47"/>
			<rect x="179.98" y="679.22" class="st5" width="773.9" height="5.47"/>
			<rect x="179.98" y="650.1" class="st5" width="773.9" height="5.47"/>
			<rect x="179.98" y="620.99" class="st5" width="773.9" height="5.47"/>
			<rect x="179.98" y="591.87" class="st5" width="773.9" height="5.47"/>
			<rect x="179.98" y="562.76" class="st5" width="773.9" height="5.47"/>
			<rect x="179.98" y="533.64" class="st5" width="773.9" height="5.47"/>
			<rect x="179.98" y="505.45" class="st5" width="773.9" height="5.47"/>
			<rect x="179.98" y="477.92" class="st5" width="773.9" height="5.47"/>
			<rect x="179.98" y="450.39" class="st5" width="773.9" height="5.47"/>
			<rect x="179.98" y="422.86" class="st5" width="773.9" height="5.47"/>
			<rect x="179.98" y="395.33" class="st5" width="773.9" height="5.47"/>
			<rect x="179.98" y="367.8" class="st5" width="773.9" height="5.47"/>
			<rect x="179.98" y="340.27" class="st5" width="773.9" height="5.47"/>
			<rect x="179.98" y="312.73" class="st5" width="773.9" height="5.47"/>
		</g>
	</g>
	<rect x="666.87" y="513.5" class="st6" width="287.01" height="381.85"/>
	<rect x="179.98" y="856.82" class="st7" width="773.9" height="38.53"/>
	<rect x="467.21" y="593.35" class="st7" width="124.36" height="236.91"/>
	<rect x="391.33" y="818.29" class="st8" width="276.13" height="38.53"/>
	<rect x="361.65" y="856.82" class="st1" width="335.49" height="38.53"/>
	<rect x="478.16" y="605.33" class="st1" width="102.46" height="212.96"/>
	<g>
		<rect x="746.39" y="595.96" class="st8" width="118.72" height="154.64"/>
		
			<rect x="757.32" y="608.19" transform="matrix(-1 -1.224647e-16 1.224647e-16 -1 1611.4911 1273.1853)" class="st7" width="96.85" height="56.8"/>
		
			<rect x="811.47" y="677.4" transform="matrix(-1 -1.224647e-16 1.224647e-16 -1 1665.642 1414.7209)" class="st7" width="42.7" height="59.92"/>
		
			<rect x="757.32" y="677.4" transform="matrix(-1 -1.224647e-16 1.224647e-16 -1 1557.3401 1414.7209)" class="st7" width="42.7" height="59.92"/>
		<rect x="734.67" y="750.6" class="st1" width="142.15" height="14.84"/>
	</g>
	<g>
		<rect x="245.3" y="595.96" class="st8" width="118.72" height="154.64"/>
		
			<rect x="256.23" y="608.19" transform="matrix(-1 -1.224647e-16 1.224647e-16 -1 609.3083 1273.1853)" class="st7" width="96.85" height="56.8"/>
		
			<rect x="310.38" y="677.4" transform="matrix(-1 -1.224647e-16 1.224647e-16 -1 663.4593 1414.7209)" class="st7" width="42.7" height="59.92"/>
		
			<rect x="256.23" y="677.4" transform="matrix(-1 -1.224647e-16 1.224647e-16 -1 555.1574 1414.7209)" class="st7" width="42.7" height="59.92"/>
		<rect x="233.58" y="750.6" class="st1" width="142.15" height="14.84"/>
	</g>
	<g>
		<rect x="360.8" y="341.58" class="st8" width="118.72" height="154.64"/>
		
			<rect x="371.73" y="353.82" transform="matrix(-1 -1.224647e-16 1.224647e-16 -1 840.3057 764.4356)" class="st7" width="96.85" height="56.8"/>
		
			<rect x="425.88" y="423.02" transform="matrix(-1 -1.224647e-16 1.224647e-16 -1 894.4566 905.9717)" class="st7" width="42.7" height="59.92"/>
		
			<rect x="371.73" y="423.02" transform="matrix(-1 -1.224647e-16 1.224647e-16 -1 786.1547 905.9717)" class="st7" width="42.7" height="59.92"/>
		<rect x="349.08" y="496.22" class="st1" width="142.15" height="14.84"/>
	</g>
	<g>
		<defs>
			<polygon id="SVGID_00000017493750609998711390000013952232130184989073_" points="987.44,303.85 501.05,303.85 666.24,468.87 
				666.87,513.5 987.68,513.5 			"/>
		</defs>
		<use xlink:href="#SVGID_00000017493750609998711390000013952232130184989073_"  style="overflow:visible;fill:#5D5052;"/>
		<clipPath id="SVGID_00000076589937680046421550000004427303352014309309_">
			<use xlink:href="#SVGID_00000017493750609998711390000013952232130184989073_"  style="overflow:visible;"/>
		</clipPath>
		<g style="clip-path:url(#SVGID_00000076589937680046421550000004427303352014309309_);">
			
				<rect x="335.51" y="405.94" transform="matrix(-1.836970e-16 1 -1 -1.836970e-16 887.3192 -69.9637)" class="st10" width="286.26" height="5.47"/>
			
				<rect x="364.63" y="405.94" transform="matrix(-1.836970e-16 1 -1 -1.836970e-16 916.4347 -99.0793)" class="st10" width="286.26" height="5.47"/>
			
				<rect x="393.74" y="405.94" transform="matrix(-1.836970e-16 1 -1 -1.836970e-16 945.5502 -128.1948)" class="st10" width="286.26" height="5.47"/>
			
				<rect x="422.86" y="405.94" transform="matrix(-1.836970e-16 1 -1 -1.836970e-16 974.6658 -157.3103)" class="st10" width="286.26" height="5.47"/>
			
				<rect x="451.97" y="405.94" transform="matrix(-1.836970e-16 1 -1 -1.836970e-16 1003.7813 -186.4259)" class="st10" width="286.26" height="5.47"/>
			
				<rect x="481.09" y="405.94" transform="matrix(-1.836970e-16 1 -1 -1.836970e-16 1032.8969 -215.5414)" class="st10" width="286.26" height="5.47"/>
			
				<rect x="510.21" y="405.94" transform="matrix(-1.836970e-16 1 -1 -1.836970e-16 1062.0123 -244.6569)" class="st10" width="286.26" height="5.47"/>
			
				<rect x="539.32" y="405.94" transform="matrix(-1.836970e-16 1 -1 -1.836970e-16 1091.1279 -273.7725)" class="st10" width="286.26" height="5.47"/>
			
				<rect x="568.44" y="405.94" transform="matrix(-1.836970e-16 1 -1 -1.836970e-16 1120.2434 -302.8879)" class="st10" width="286.26" height="5.47"/>
			
				<rect x="597.55" y="405.94" transform="matrix(-1.836970e-16 1 -1 -1.836970e-16 1149.359 -332.0036)" class="st10" width="286.26" height="5.47"/>
			
				<rect x="626.67" y="405.94" transform="matrix(-1.836970e-16 1 -1 -1.836970e-16 1178.4745 -361.119)" class="st10" width="286.26" height="5.47"/>
			
				<rect x="654.86" y="405.94" transform="matrix(-1.836970e-16 1 -1 -1.836970e-16 1206.6664 -389.3109)" class="st10" width="286.26" height="5.47"/>
			
				<rect x="682.39" y="405.94" transform="matrix(-1.836970e-16 1 -1 -1.836970e-16 1234.1971 -416.8416)" class="st10" width="286.26" height="5.47"/>
			
				<rect x="709.92" y="405.94" transform="matrix(-1.836970e-16 1 -1 -1.836970e-16 1261.7278 -444.3723)" class="st10" width="286.26" height="5.47"/>
			
				<rect x="737.45" y="405.94" transform="matrix(-1.836970e-16 1 -1 -1.836970e-16 1289.2584 -471.903)" class="st10" width="286.26" height="5.47"/>
			
				<rect x="764.98" y="405.94" transform="matrix(-1.836970e-16 1 -1 -1.836970e-16 1316.7891 -499.4336)" class="st10" width="286.26" height="5.47"/>
			
				<rect x="792.51" y="405.94" transform="matrix(-1.836970e-16 1 -1 -1.836970e-16 1344.3199 -526.9644)" class="st10" width="286.26" height="5.47"/>
			
				<rect x="820.04" y="405.94" transform="matrix(-1.836970e-16 1 -1 -1.836970e-16 1371.8506 -554.4951)" class="st10" width="286.26" height="5.47"/>
			
				<rect x="847.57" y="405.94" transform="matrix(-1.836970e-16 1 -1 -1.836970e-16 1399.3812 -582.0257)" class="st10" width="286.26" height="5.47"/>
		</g>
	</g>
	<g>
		<g>
			<polygon class="st11" points="440.83,817.69 405.03,817.69 401.74,768.73 444.68,768.73 			"/>
			<rect x="399.52" y="754.08" class="st12" width="47.35" height="16.19"/>
		</g>
		<g>
			<path class="st13" d="M399.5,736.05c4.06,1.76,7.72,4.37,9.81,6.66c0.7,0.76,1.38,1.62,1.53,2.64c0.18,1.24-0.46,2.44-1.08,3.53
				c-1.5,2.63-3.19,5.45-5.99,6.6c-1.1,0.46-2.31,0.62-3.5,0.72c-3.56,0.32-7.23,0.2-10.59-1s-6.41-3.61-7.81-6.9
				c-1.35-3.18-0.68-9.51,2.06-11.93C387.91,732.86,394.06,733.69,399.5,736.05z"/>
			<path class="st13" d="M408.71,718.79c4.06,1.76,7.72,4.37,9.81,6.66c0.7,0.76,1.38,1.62,1.53,2.64c0.18,1.24-0.46,2.44-1.08,3.53
				c-1.5,2.63-3.19,5.45-5.99,6.6c-1.1,0.46-2.31,0.62-3.5,0.72c-3.56,0.32-7.23,0.2-10.59-1c-3.37-1.21-6.41-3.61-7.81-6.9
				c-1.35-3.18-0.68-9.51,2.06-11.93C397.12,715.59,403.27,716.43,408.71,718.79z"/>
			<path class="st13" d="M414,740.7c4.05-1.78,8.45-2.7,11.55-2.67c1.03,0.01,2.13,0.09,2.98,0.67c1.03,0.71,1.48,2,1.86,3.2
				c0.92,2.89,1.83,6.04,0.78,8.88c-0.42,1.12-1.11,2.11-1.84,3.06c-2.18,2.83-4.76,5.44-7.93,7.09c-3.17,1.65-7.01,2.25-10.37,1.05
				c-3.25-1.17-7.44-5.96-7.36-9.61C403.79,747.03,408.57,743.09,414,740.7z"/>
			<path class="st13" d="M436.46,729.42c4.06,1.76,7.72,4.37,9.81,6.66c0.7,0.76,1.38,1.62,1.53,2.64c0.18,1.24-0.46,2.44-1.08,3.53
				c-1.5,2.63-3.19,5.45-5.99,6.6c-1.1,0.46-2.31,0.62-3.5,0.72c-3.56,0.32-7.23,0.2-10.59-1c-3.36-1.21-6.41-3.61-7.81-6.9
				c-1.35-3.18-0.68-9.51,2.06-11.93C424.87,726.23,431.02,727.06,436.46,729.42z"/>
			<path class="st13" d="M453.78,732.14c-3.55-0.12-7.23-1.14-9.7-2.42c-0.82-0.43-1.68-0.95-2.26-1.8
				c-0.7-1.04-0.83-2.32-0.92-3.51c-0.22-2.86-0.39-5.95,0.96-7.96c0.53-0.79,1.27-1.36,2.02-1.88c2.25-1.55,4.77-2.74,7.59-2.86
				c2.83-0.12,6,0.93,8.47,3.34c2.39,2.33,4.88,8.18,4.17,11.29C463.07,730.86,458.54,732.3,453.78,732.14z"/>
			<path class="st13" d="M410.91,744.22c-3.55-0.12-7.23-1.14-9.7-2.42c-0.82-0.43-1.68-0.95-2.26-1.8
				c-0.7-1.04-0.83-2.32-0.92-3.51c-0.22-2.86-0.39-5.95,0.96-7.96c0.53-0.79,1.27-1.36,2.02-1.88c2.25-1.55,4.77-2.74,7.59-2.86
				c2.83-0.12,6,0.93,8.47,3.34c2.39,2.33,4.88,8.18,4.17,11.29C420.19,742.95,415.67,744.39,410.91,744.22z"/>
			<path class="st13" d="M432.47,736.61c-3.84-0.68-7.96-2.52-10.81-4.54c-0.95-0.67-1.95-1.46-2.7-2.64
				c-0.91-1.43-1.23-3.1-1.51-4.63c-0.66-3.7-1.3-7.67-0.14-10.06c0.45-0.94,1.16-1.56,1.9-2.11c2.19-1.65,4.73-2.8,7.76-2.54
				c3.03,0.26,6.6,2.07,9.62,5.53c2.92,3.34,6.47,11.19,6.16,15.07C442.29,736.35,437.63,737.52,432.47,736.61z"/>
			<path class="st13" d="M463.72,742.32c-1.07,3.38-3.04,6.66-4.94,8.69c-0.63,0.68-1.36,1.37-2.34,1.69
				c-1.19,0.4-2.46,0.17-3.63-0.06c-2.81-0.56-5.83-1.22-7.41-3.06c-0.62-0.73-0.97-1.58-1.27-2.45c-0.89-2.58-1.36-5.33-0.71-8.08
				c0.64-2.76,2.5-5.53,5.5-7.26c2.89-1.67,9.19-2.5,11.99-0.98C464.99,733.04,465.16,737.78,463.72,742.32z"/>
			<path class="st14" d="M413.08,752.75c-2.59-0.09-5.28-0.83-7.08-1.77c-0.6-0.31-1.23-0.69-1.65-1.31
				c-0.51-0.76-0.6-1.7-0.67-2.56c-0.16-2.09-0.28-4.34,0.7-5.81c0.39-0.58,0.92-0.99,1.47-1.37c1.64-1.13,3.48-2,5.54-2.09
				s4.37,0.68,6.18,2.44c1.74,1.7,3.56,5.97,3.04,8.24C419.86,751.82,416.56,752.87,413.08,752.75z"/>
			<path class="st14" d="M410.77,735.71c-3.18-0.11-6.49-1.02-8.71-2.17c-0.74-0.39-1.51-0.85-2.03-1.61
				c-0.63-0.93-0.74-2.09-0.82-3.15c-0.2-2.57-0.35-5.34,0.86-7.15c0.48-0.71,1.14-1.22,1.81-1.69c2.01-1.39,4.28-2.46,6.81-2.57
				c2.54-0.11,5.38,0.83,7.6,3c2.14,2.1,4.38,7.34,3.74,10.13C419.1,734.57,415.05,735.86,410.77,735.71z"/>
			<path class="st14" d="M425.82,729.66c-0.74-2.48-0.9-5.26-0.59-7.27c0.1-0.67,0.26-1.38,0.72-1.98c0.55-0.73,1.41-1.11,2.21-1.45
				c1.93-0.82,4.02-1.66,5.73-1.2c0.67,0.18,1.24,0.56,1.77,0.95c1.59,1.19,3.01,2.66,3.75,4.58c0.75,1.92,0.76,4.36-0.33,6.63
				c-1.06,2.2-4.51,5.29-6.83,5.52C428.87,735.77,426.82,732.98,425.82,729.66z"/>
			<path class="st14" d="M447.29,741.46c-2.59-0.09-5.28-0.83-7.08-1.77c-0.6-0.31-1.23-0.69-1.65-1.31
				c-0.51-0.76-0.6-1.7-0.67-2.56c-0.16-2.09-0.28-4.34,0.7-5.81c0.39-0.58,0.92-0.99,1.47-1.37c1.64-1.13,3.48-2,5.54-2.09
				c2.06-0.09,4.37,0.68,6.18,2.44c1.74,1.7,3.56,5.97,3.04,8.24C454.06,740.53,450.76,741.58,447.29,741.46z"/>
			<path class="st14" d="M459.77,731.31c-1.66-0.06-3.37-0.53-4.53-1.13c-0.38-0.2-0.79-0.44-1.05-0.84
				c-0.33-0.48-0.39-1.09-0.43-1.64c-0.1-1.34-0.18-2.78,0.45-3.72c0.25-0.37,0.59-0.64,0.94-0.88c1.05-0.72,2.23-1.28,3.54-1.34
				c1.32-0.06,2.8,0.43,3.95,1.56c1.12,1.09,2.28,3.82,1.95,5.27C464.1,730.71,461.99,731.39,459.77,731.31z"/>
			<path class="st14" d="M426.62,742.4c3.16-2.45,7.07-4.23,10.14-4.9c1.02-0.22,2.14-0.4,3.25-0.07c1.35,0.39,2.39,1.41,3.32,2.37
				c2.25,2.32,4.63,4.86,4.92,7.57c0.11,1.07-0.11,2.09-0.39,3.08c-0.83,2.96-2.15,5.81-4.5,7.95c-2.35,2.15-5.85,3.52-9.73,3.22
				c-3.75-0.29-10.12-3.55-11.74-6.75C419.51,750.2,422.38,745.69,426.62,742.4z"/>
			<path class="st14" d="M395.3,741.46c-2.59-0.09-5.27-0.83-7.08-1.77c-0.6-0.31-1.23-0.69-1.65-1.31c-0.51-0.76-0.6-1.7-0.67-2.56
				c-0.16-2.09-0.28-4.34,0.7-5.81c0.39-0.58,0.92-0.99,1.47-1.37c1.64-1.13,3.48-2,5.54-2.09c2.06-0.09,4.37,0.68,6.18,2.44
				c1.74,1.7,3.56,5.97,3.04,8.24C402.07,740.53,398.77,741.58,395.3,741.46z"/>
			<path class="st15" d="M410.23,729.26c-0.16,0.45-0.39,0.84-0.89,0.7c-0.39-0.11-0.6-0.57-0.99-0.66
				c-0.3-0.07-0.59,0.09-0.88,0.19c-0.29,0.11-0.66,0.14-0.85-0.1c-0.16-0.2-0.1-0.5,0.02-0.73c0.47-0.88-0.31-2.34,0.48-3
				c0.3-0.25,0.89-0.09,1.15-0.43c0.32-0.42-0.09-1.73,0.98-1.09c0.41,0.24,0.72,1.25,1.04,1.3c0.14,0.02,0.27-0.04,0.4-0.1
				c0.46-0.22,0.96-0.43,1.46-0.34c0.5,0.09,0.95,0.63,0.76,1.1c-0.06,0.15-0.17,0.27-0.21,0.42c-0.21,0.66,0.15,1.18-0.49,1.75
				c-0.51,0.45-1.08,0.39-1.65,0.08C410.44,728.55,410.35,728.92,410.23,729.26z"/>
			<path class="st15" d="M422.03,736.92c-0.09,0.24-0.21,0.44-0.47,0.37c-0.2-0.06-0.32-0.3-0.52-0.35
				c-0.16-0.04-0.31,0.05-0.46,0.1c-0.15,0.06-0.35,0.08-0.45-0.05c-0.08-0.11-0.05-0.26,0.01-0.38c0.25-0.46-0.16-1.23,0.25-1.58
				c0.16-0.13,0.47-0.05,0.6-0.23c0.17-0.22-0.05-0.91,0.52-0.58c0.22,0.13,0.38,0.66,0.55,0.69c0.07,0.01,0.14-0.02,0.21-0.05
				c0.24-0.12,0.51-0.23,0.77-0.18c0.26,0.05,0.5,0.33,0.4,0.58c-0.03,0.08-0.09,0.14-0.11,0.22c-0.11,0.35,0.08,0.62-0.26,0.92
				c-0.27,0.24-0.57,0.2-0.87,0.04C422.14,736.55,422.1,736.74,422.03,736.92z"/>
			<path class="st15" d="M444.68,724.98c-0.09,0.24-0.21,0.44-0.47,0.37c-0.2-0.06-0.32-0.3-0.52-0.35
				c-0.16-0.04-0.31,0.05-0.46,0.1c-0.15,0.06-0.35,0.08-0.45-0.05c-0.08-0.11-0.05-0.26,0.01-0.38c0.25-0.46-0.16-1.23,0.25-1.58
				c0.16-0.13,0.47-0.05,0.6-0.23c0.17-0.22-0.05-0.91,0.52-0.58c0.22,0.13,0.38,0.66,0.55,0.69c0.07,0.01,0.14-0.02,0.21-0.05
				c0.24-0.12,0.51-0.23,0.77-0.18c0.26,0.05,0.5,0.33,0.4,0.58c-0.03,0.08-0.09,0.14-0.11,0.22c-0.11,0.35,0.08,0.62-0.26,0.92
				c-0.27,0.24-0.57,0.2-0.87,0.04C444.79,724.6,444.75,724.8,444.68,724.98z"/>
			<path class="st15" d="M398.77,746.69c0.25,0,0.49,0.05,0.5,0.32c0.01,0.21-0.18,0.4-0.16,0.61c0.02,0.16,0.15,0.28,0.25,0.4
				c0.1,0.12,0.19,0.3,0.1,0.44c-0.07,0.11-0.23,0.13-0.37,0.11c-0.52-0.08-1.11,0.56-1.58,0.28c-0.18-0.11-0.2-0.43-0.41-0.5
				c-0.26-0.09-0.84,0.34-0.71-0.3c0.05-0.25,0.5-0.57,0.47-0.74c-0.01-0.07-0.07-0.13-0.12-0.18c-0.19-0.19-0.38-0.4-0.42-0.67
				c-0.04-0.27,0.15-0.58,0.42-0.57c0.08,0,0.16,0.04,0.25,0.03c0.36-0.01,0.56-0.28,0.95-0.06c0.31,0.18,0.38,0.47,0.32,0.81
				C398.38,746.71,398.58,746.68,398.77,746.69z"/>
			<path class="st15" d="M427.54,716.07c0.25,0,0.49,0.05,0.5,0.32c0.01,0.21-0.18,0.4-0.16,0.61c0.02,0.16,0.15,0.28,0.25,0.4
				c0.1,0.12,0.19,0.3,0.1,0.44c-0.07,0.11-0.23,0.13-0.37,0.11c-0.52-0.08-1.11,0.56-1.58,0.28c-0.18-0.11-0.2-0.43-0.41-0.5
				c-0.26-0.09-0.84,0.34-0.71-0.3c0.05-0.25,0.5-0.57,0.47-0.74c-0.01-0.07-0.07-0.13-0.12-0.18c-0.19-0.19-0.38-0.4-0.42-0.67
				c-0.04-0.27,0.15-0.58,0.42-0.57c0.08,0,0.16,0.04,0.25,0.03c0.36-0.01,0.56-0.28,0.95-0.06c0.31,0.18,0.38,0.47,0.32,0.81
				C427.15,716.09,427.35,716.07,427.54,716.07z"/>
			<path class="st16" d="M409.45,727.3c0.1,0.31,0.26,0.46,0.22,0.8c-0.03,0.22-0.1,0.52-0.38,0.5c-0.35-0.03-0.63-0.44-0.98-0.52
				c-0.05-0.01-0.11-0.02-0.16,0.01c-0.11,0.06-0.07,0.23-0.09,0.35c-0.02,0.11-0.1,0.21-0.21,0.25c-0.11,0.04-0.24,0.01-0.32-0.07
				c-0.21-0.2-0.2-0.43-0.5-0.53c-0.25-0.08-0.49-0.15-0.62-0.42c-0.07-0.14-0.06-0.34,0.05-0.45c0.13-0.12,0.35-0.12,0.47-0.25
				c0.09-0.1,0.08-0.27-0.01-0.37c-0.07-0.07-0.18-0.1-0.26-0.15c-0.09-0.06-0.15-0.17-0.09-0.26c0.04-0.06,0.12-0.07,0.19-0.07
				c0.24-0.02,0.43-0.11,0.65-0.15c0.22-0.04,0.36,0.16,0.57,0.13c0.15-0.02,0.29-0.12,0.4-0.22c0.12-0.1,0.22-0.22,0.35-0.3
				c0.16-0.11,0.35-0.17,0.54-0.17c0.14,0,0.29,0.04,0.35,0.16c0.06,0.12-0.01,0.27-0.09,0.38c-0.08,0.11-0.19,0.22-0.2,0.36
				c-0.02,0.19,0.1,0.37,0.11,0.57C409.44,727.03,409.39,727.13,409.45,727.3z"/>
			<path class="st15" d="M433.17,746.04c0.37-0.3,0.77-0.52,1.12-0.15c0.28,0.29,0.23,0.8,0.52,1.08c0.22,0.21,0.56,0.23,0.86,0.28
				c0.3,0.05,0.64,0.21,0.68,0.51c0.03,0.25-0.17,0.48-0.39,0.62c-0.85,0.52-0.92,2.17-1.93,2.35c-0.39,0.07-0.82-0.37-1.21-0.21
				c-0.49,0.2-0.8,1.54-1.4,0.44c-0.23-0.42,0.02-1.44-0.23-1.65c-0.11-0.09-0.26-0.1-0.4-0.12c-0.51-0.04-1.05-0.11-1.43-0.45
				c-0.39-0.33-0.5-1.02-0.1-1.33c0.12-0.1,0.28-0.15,0.4-0.25c0.51-0.47,0.47-1.1,1.31-1.26c0.67-0.13,1.13,0.21,1.46,0.77
				C432.64,746.55,432.9,746.27,433.17,746.04z"/>
			<path class="st16" d="M432.86,748.13c0.07-0.32,0-0.53,0.21-0.8c0.14-0.18,0.35-0.4,0.58-0.24c0.29,0.2,0.32,0.69,0.58,0.95
				c0.04,0.04,0.09,0.07,0.14,0.07c0.13,0,0.17-0.16,0.25-0.26c0.07-0.09,0.19-0.13,0.31-0.11c0.11,0.02,0.21,0.11,0.24,0.22
				c0.08,0.28-0.05,0.48,0.16,0.71c0.17,0.2,0.34,0.38,0.32,0.67c-0.01,0.16-0.12,0.32-0.27,0.36c-0.17,0.04-0.36-0.08-0.53-0.02
				c-0.13,0.04-0.21,0.19-0.18,0.32c0.03,0.1,0.1,0.18,0.15,0.27c0.05,0.09,0.04,0.23-0.05,0.27c-0.07,0.03-0.14,0-0.21-0.03
				c-0.22-0.11-0.43-0.12-0.64-0.2c-0.21-0.08-0.23-0.32-0.43-0.4c-0.14-0.06-0.31-0.05-0.46-0.02c-0.15,0.03-0.3,0.07-0.46,0.08
				c-0.19,0.01-0.39-0.03-0.56-0.13c-0.12-0.07-0.23-0.18-0.22-0.31c0.01-0.14,0.15-0.23,0.27-0.28c0.13-0.05,0.27-0.09,0.36-0.2
				c0.12-0.15,0.1-0.38,0.2-0.54C432.73,748.37,432.82,748.31,432.86,748.13z"/>
			<path class="st15" d="M442.5,729.66c0.37-0.3,0.77-0.52,1.12-0.15c0.28,0.29,0.23,0.8,0.52,1.08c0.22,0.21,0.56,0.23,0.86,0.28
				c0.3,0.05,0.64,0.21,0.68,0.51c0.03,0.25-0.17,0.48-0.39,0.62c-0.85,0.52-0.92,2.17-1.93,2.35c-0.39,0.07-0.82-0.37-1.21-0.21
				c-0.49,0.2-0.8,1.54-1.4,0.44c-0.23-0.42,0.02-1.44-0.23-1.65c-0.11-0.09-0.26-0.1-0.4-0.12c-0.51-0.04-1.05-0.11-1.44-0.45
				c-0.39-0.33-0.5-1.02-0.1-1.33c0.12-0.1,0.28-0.15,0.4-0.25c0.51-0.47,0.47-1.1,1.31-1.26c0.67-0.13,1.13,0.21,1.46,0.77
				C441.96,730.16,442.22,729.89,442.5,729.66z"/>
			<path class="st16" d="M442.19,731.74c0.07-0.32,0-0.53,0.21-0.8c0.14-0.18,0.35-0.4,0.58-0.24c0.29,0.2,0.32,0.69,0.58,0.95
				c0.04,0.04,0.09,0.07,0.14,0.07c0.13,0,0.17-0.16,0.25-0.26c0.07-0.09,0.19-0.13,0.31-0.11c0.11,0.02,0.21,0.11,0.24,0.22
				c0.08,0.28-0.05,0.48,0.16,0.71c0.17,0.2,0.34,0.38,0.32,0.67c-0.01,0.16-0.12,0.32-0.27,0.36c-0.17,0.04-0.36-0.08-0.53-0.02
				c-0.13,0.04-0.21,0.19-0.18,0.32c0.03,0.1,0.1,0.18,0.15,0.27s0.04,0.23-0.05,0.27c-0.07,0.03-0.14,0-0.21-0.03
				c-0.22-0.11-0.43-0.12-0.64-0.2c-0.21-0.08-0.23-0.32-0.43-0.4c-0.14-0.06-0.31-0.05-0.46-0.02c-0.15,0.03-0.3,0.07-0.46,0.08
				c-0.19,0.01-0.39-0.03-0.56-0.13c-0.12-0.07-0.23-0.18-0.22-0.31c0.01-0.14,0.15-0.23,0.27-0.28c0.13-0.05,0.27-0.09,0.36-0.2
				c0.12-0.15,0.1-0.38,0.2-0.54C442.06,731.98,442.15,731.92,442.19,731.74z"/>
			<path class="st16" d="M429.43,721.65c0.31-0.26,0.65-0.45,0.96-0.13c0.24,0.25,0.2,0.68,0.44,0.92c0.19,0.18,0.47,0.19,0.73,0.24
				c0.26,0.04,0.55,0.18,0.58,0.44c0.03,0.22-0.14,0.41-0.33,0.53c-0.72,0.45-0.78,1.85-1.65,2c-0.33,0.06-0.7-0.32-1.03-0.18
				c-0.41,0.17-0.68,1.31-1.2,0.38c-0.2-0.36,0.01-1.23-0.2-1.41c-0.09-0.08-0.22-0.09-0.34-0.1c-0.43-0.04-0.9-0.1-1.22-0.38
				c-0.33-0.28-0.43-0.87-0.08-1.14c0.11-0.08,0.24-0.13,0.34-0.22c0.44-0.4,0.4-0.94,1.11-1.08c0.57-0.11,0.96,0.18,1.25,0.65
				C428.97,722.08,429.19,721.84,429.43,721.65z"/>
			<path class="st17" d="M428.25,723.2c0.06-0.27,0-0.45,0.18-0.68c0.12-0.15,0.3-0.34,0.5-0.2c0.24,0.17,0.27,0.59,0.5,0.81
				c0.03,0.03,0.08,0.06,0.12,0.06c0.11,0,0.15-0.14,0.22-0.22c0.06-0.08,0.17-0.11,0.26-0.09c0.1,0.02,0.18,0.1,0.2,0.19
				c0.07,0.24-0.04,0.41,0.14,0.61c0.15,0.17,0.29,0.32,0.27,0.57c-0.01,0.14-0.1,0.28-0.23,0.31c-0.15,0.03-0.31-0.07-0.45-0.02
				c-0.11,0.04-0.18,0.16-0.15,0.28c0.02,0.08,0.09,0.15,0.13,0.23c0.04,0.08,0.04,0.19-0.04,0.23c-0.06,0.03-0.12,0-0.18-0.03
				c-0.19-0.09-0.37-0.1-0.55-0.17c-0.18-0.07-0.2-0.27-0.36-0.34c-0.12-0.05-0.26-0.04-0.39-0.01c-0.13,0.02-0.26,0.06-0.39,0.07
				c-0.16,0.01-0.33-0.03-0.48-0.11c-0.1-0.06-0.2-0.15-0.19-0.27c0.01-0.12,0.12-0.2,0.23-0.24c0.11-0.05,0.23-0.08,0.3-0.17
				c0.1-0.13,0.09-0.32,0.17-0.46C428.14,723.41,428.22,723.35,428.25,723.2z"/>
			<path class="st16" d="M411.57,742.11c0.31-0.26,0.65-0.45,0.96-0.13c0.24,0.25,0.2,0.68,0.44,0.92c0.19,0.18,0.47,0.19,0.73,0.24
				s0.55,0.18,0.58,0.44c0.03,0.22-0.14,0.41-0.33,0.53c-0.72,0.45-0.78,1.85-1.65,2c-0.33,0.06-0.7-0.32-1.03-0.18
				c-0.41,0.17-0.68,1.31-1.2,0.38c-0.2-0.36,0.01-1.23-0.2-1.41c-0.09-0.08-0.22-0.09-0.34-0.1c-0.43-0.04-0.9-0.1-1.22-0.38
				c-0.33-0.28-0.43-0.87-0.08-1.14c0.11-0.08,0.24-0.13,0.34-0.22c0.44-0.4,0.4-0.94,1.11-1.08c0.57-0.11,0.96,0.18,1.25,0.65
				C411.12,742.54,411.34,742.3,411.57,742.11z"/>
			<path class="st17" d="M410.4,743.66c0.06-0.27,0-0.45,0.18-0.68c0.12-0.15,0.3-0.34,0.5-0.2c0.24,0.17,0.27,0.59,0.5,0.81
				c0.03,0.03,0.08,0.06,0.12,0.06c0.11,0,0.15-0.14,0.22-0.22c0.06-0.08,0.17-0.11,0.26-0.09c0.1,0.02,0.18,0.1,0.2,0.19
				c0.07,0.24-0.04,0.41,0.14,0.61c0.15,0.17,0.29,0.32,0.27,0.57c-0.01,0.14-0.1,0.28-0.23,0.31c-0.15,0.03-0.31-0.07-0.45-0.02
				c-0.11,0.04-0.18,0.16-0.15,0.28c0.02,0.08,0.09,0.15,0.13,0.23c0.04,0.08,0.04,0.19-0.04,0.23c-0.06,0.03-0.12,0-0.18-0.03
				c-0.19-0.09-0.37-0.1-0.55-0.17c-0.18-0.07-0.2-0.27-0.36-0.34c-0.12-0.05-0.26-0.04-0.39-0.01c-0.13,0.02-0.26,0.06-0.39,0.07
				c-0.16,0.01-0.33-0.03-0.48-0.11c-0.1-0.06-0.2-0.15-0.19-0.27c0.01-0.12,0.12-0.2,0.23-0.24c0.11-0.05,0.23-0.08,0.3-0.17
				c0.1-0.13,0.09-0.32,0.17-0.46C410.29,743.87,410.37,743.81,410.4,743.66z"/>
			<path class="st16" d="M458.77,724.41c0.31-0.26,0.65-0.45,0.96-0.13c0.24,0.25,0.2,0.68,0.44,0.92c0.19,0.18,0.47,0.19,0.73,0.24
				c0.26,0.04,0.55,0.18,0.58,0.44c0.03,0.22-0.14,0.41-0.33,0.53c-0.72,0.45-0.78,1.85-1.65,2c-0.33,0.06-0.7-0.32-1.03-0.18
				c-0.41,0.17-0.68,1.31-1.2,0.38c-0.2-0.36,0.01-1.23-0.2-1.41c-0.09-0.08-0.22-0.09-0.34-0.1c-0.43-0.04-0.9-0.1-1.22-0.38
				s-0.43-0.87-0.08-1.14c0.11-0.08,0.24-0.13,0.34-0.22c0.44-0.4,0.4-0.94,1.11-1.08c0.57-0.11,0.96,0.18,1.25,0.65
				C458.31,724.85,458.53,724.61,458.77,724.41z"/>
			<path class="st17" d="M457.6,725.97c0.06-0.27,0-0.45,0.18-0.68c0.12-0.15,0.3-0.34,0.5-0.2c0.24,0.17,0.27,0.59,0.5,0.81
				c0.03,0.03,0.08,0.06,0.12,0.06c0.11,0,0.15-0.14,0.22-0.22c0.06-0.08,0.17-0.11,0.26-0.09c0.1,0.02,0.18,0.1,0.2,0.19
				c0.07,0.24-0.04,0.41,0.14,0.61c0.15,0.17,0.29,0.32,0.27,0.57c-0.01,0.14-0.1,0.28-0.23,0.31c-0.15,0.03-0.31-0.07-0.45-0.02
				c-0.11,0.04-0.18,0.16-0.15,0.28c0.02,0.08,0.09,0.15,0.13,0.23c0.04,0.08,0.04,0.19-0.04,0.23c-0.06,0.03-0.12,0-0.18-0.03
				c-0.19-0.09-0.37-0.1-0.55-0.17c-0.18-0.07-0.2-0.27-0.36-0.34c-0.12-0.05-0.26-0.04-0.39-0.01c-0.13,0.02-0.26,0.06-0.39,0.07
				c-0.16,0.01-0.33-0.03-0.48-0.11c-0.1-0.06-0.2-0.15-0.19-0.27c0.01-0.12,0.12-0.2,0.23-0.24c0.11-0.05,0.23-0.08,0.3-0.17
				c0.1-0.13,0.08-0.32,0.17-0.46C457.49,726.17,457.56,726.12,457.6,725.97z"/>
			<path class="st16" d="M392.17,734.68c0.02,0.41-0.02,0.79-0.46,0.85c-0.34,0.04-0.66-0.24-1-0.18c-0.26,0.04-0.44,0.27-0.62,0.45
				c-0.19,0.18-0.47,0.34-0.7,0.21c-0.19-0.11-0.25-0.36-0.23-0.58c0.07-0.85-1.03-1.73-0.64-2.51c0.15-0.3,0.67-0.38,0.75-0.73
				c0.11-0.43-0.66-1.32,0.4-1.19c0.41,0.05,0.98,0.74,1.25,0.67c0.12-0.03,0.2-0.12,0.28-0.21c0.28-0.33,0.61-0.67,1.03-0.76
				c0.42-0.1,0.96,0.17,0.97,0.6c0,0.13-0.04,0.27-0.03,0.4c0.06,0.59,0.52,0.88,0.21,1.53c-0.25,0.53-0.71,0.67-1.26,0.62
				C392.09,734.05,392.15,734.37,392.17,734.68z"/>
			<path class="st17" d="M391.61,732.82c0.18,0.21,0.36,0.27,0.44,0.55c0.05,0.18,0.1,0.44-0.13,0.52c-0.28,0.1-0.64-0.13-0.94-0.08
				c-0.05,0.01-0.1,0.02-0.12,0.06c-0.07,0.09,0.02,0.2,0.05,0.31c0.03,0.09-0.01,0.2-0.08,0.27c-0.07,0.07-0.18,0.09-0.27,0.05
				c-0.23-0.09-0.3-0.27-0.57-0.25c-0.22,0.02-0.43,0.04-0.62-0.12c-0.1-0.09-0.16-0.24-0.11-0.37c0.06-0.14,0.23-0.21,0.28-0.35
				c0.04-0.11-0.03-0.24-0.13-0.28c-0.08-0.03-0.17-0.02-0.26-0.03c-0.09-0.01-0.18-0.08-0.16-0.17c0.01-0.06,0.07-0.1,0.13-0.12
				c0.19-0.1,0.3-0.23,0.46-0.34c0.16-0.1,0.34,0,0.49-0.09c0.11-0.07,0.19-0.19,0.24-0.31c0.06-0.12,0.1-0.25,0.17-0.36
				c0.09-0.14,0.22-0.25,0.37-0.32c0.11-0.05,0.24-0.07,0.33,0.01c0.09,0.08,0.09,0.22,0.06,0.33c-0.03,0.11-0.07,0.23-0.04,0.35
				c0.05,0.16,0.21,0.26,0.27,0.41C391.51,732.61,391.51,732.7,391.61,732.82z"/>
		</g>
	</g>
	<g>
		<g>
			<polygon class="st11" points="655.88,817.69 620.07,817.69 616.78,768.73 659.72,768.73 			"/>
			<rect x="614.57" y="754.08" class="st12" width="47.35" height="16.19"/>
		</g>
		<g>
			<path class="st13" d="M614.54,736.05c4.06,1.76,7.72,4.37,9.81,6.66c0.7,0.76,1.38,1.62,1.53,2.64c0.18,1.24-0.46,2.44-1.08,3.53
				c-1.5,2.63-3.19,5.45-5.99,6.6c-1.1,0.46-2.31,0.62-3.5,0.72c-3.56,0.32-7.23,0.2-10.59-1c-3.36-1.21-6.41-3.61-7.81-6.9
				c-1.35-3.18-0.68-9.51,2.06-11.93C602.95,732.86,609.1,733.69,614.54,736.05z"/>
			<path class="st13" d="M623.75,718.79c4.06,1.76,7.72,4.37,9.81,6.66c0.7,0.76,1.38,1.62,1.53,2.64c0.18,1.24-0.46,2.44-1.08,3.53
				c-1.5,2.63-3.19,5.45-5.99,6.6c-1.1,0.46-2.31,0.62-3.5,0.72c-3.56,0.32-7.23,0.2-10.59-1c-3.36-1.21-6.41-3.61-7.81-6.9
				c-1.35-3.18-0.68-9.51,2.06-11.93C612.17,715.59,618.31,716.43,623.75,718.79z"/>
			<path class="st13" d="M629.05,740.7c4.05-1.78,8.45-2.7,11.55-2.67c1.03,0.01,2.13,0.09,2.98,0.67c1.03,0.71,1.48,2,1.86,3.2
				c0.92,2.89,1.83,6.04,0.78,8.88c-0.42,1.12-1.11,2.11-1.84,3.06c-2.18,2.83-4.76,5.44-7.93,7.09c-3.17,1.65-7.01,2.25-10.37,1.05
				c-3.25-1.17-7.44-5.96-7.36-9.61C618.83,747.03,623.62,743.09,629.05,740.7z"/>
			<path class="st13" d="M651.5,729.42c4.06,1.76,7.72,4.37,9.81,6.66c0.7,0.76,1.38,1.62,1.53,2.64c0.18,1.24-0.46,2.44-1.08,3.53
				c-1.5,2.63-3.19,5.45-5.99,6.6c-1.1,0.46-2.31,0.62-3.5,0.72c-3.56,0.32-7.23,0.2-10.59-1c-3.36-1.21-6.41-3.61-7.81-6.9
				c-1.35-3.18-0.68-9.51,2.06-11.93C639.92,726.23,646.06,727.06,651.5,729.42z"/>
			<path class="st13" d="M668.83,732.14c-3.55-0.12-7.23-1.14-9.7-2.42c-0.82-0.43-1.68-0.95-2.26-1.8
				c-0.7-1.04-0.83-2.32-0.92-3.51c-0.22-2.86-0.39-5.95,0.96-7.96c0.53-0.79,1.27-1.36,2.02-1.88c2.25-1.55,4.77-2.74,7.59-2.86
				c2.83-0.12,5.99,0.93,8.47,3.34c2.39,2.33,4.88,8.18,4.17,11.29C678.11,730.86,673.59,732.3,668.83,732.14z"/>
			<path class="st13" d="M625.95,744.22c-3.55-0.12-7.23-1.14-9.7-2.42c-0.82-0.43-1.68-0.95-2.26-1.8
				c-0.7-1.04-0.83-2.32-0.92-3.51c-0.22-2.86-0.39-5.95,0.96-7.96c0.53-0.79,1.27-1.36,2.02-1.88c2.25-1.55,4.77-2.74,7.59-2.86
				c2.83-0.12,6,0.93,8.47,3.34c2.39,2.33,4.88,8.18,4.17,11.29C635.23,742.95,630.71,744.39,625.95,744.22z"/>
			<path class="st13" d="M647.52,736.61c-3.84-0.68-7.96-2.52-10.81-4.54c-0.95-0.67-1.95-1.46-2.7-2.64
				c-0.91-1.43-1.23-3.1-1.51-4.63c-0.66-3.7-1.3-7.67-0.14-10.06c0.45-0.94,1.16-1.56,1.9-2.11c2.19-1.65,4.73-2.8,7.76-2.54
				c3.03,0.26,6.6,2.07,9.62,5.53c2.92,3.34,6.47,11.19,6.16,15.07C657.33,736.35,652.67,737.52,647.52,736.61z"/>
			<path class="st13" d="M678.77,742.32c-1.07,3.38-3.04,6.66-4.94,8.69c-0.64,0.68-1.36,1.37-2.34,1.69
				c-1.19,0.4-2.46,0.17-3.63-0.06c-2.81-0.56-5.83-1.22-7.41-3.06c-0.62-0.73-0.97-1.58-1.27-2.45c-0.89-2.58-1.36-5.33-0.71-8.08
				c0.64-2.76,2.5-5.53,5.5-7.26c2.89-1.67,9.19-2.5,11.99-0.98C680.04,733.04,680.21,737.78,678.77,742.32z"/>
			<path class="st14" d="M628.13,752.75c-2.59-0.09-5.27-0.83-7.08-1.77c-0.6-0.31-1.23-0.69-1.65-1.31
				c-0.51-0.76-0.6-1.7-0.67-2.56c-0.16-2.09-0.28-4.34,0.7-5.81c0.39-0.58,0.92-0.99,1.47-1.37c1.64-1.13,3.48-2,5.54-2.09
				c2.06-0.09,4.37,0.68,6.18,2.44c1.74,1.7,3.56,5.97,3.04,8.24C634.9,751.82,631.6,752.87,628.13,752.75z"/>
			<path class="st14" d="M625.82,735.71c-3.18-0.11-6.49-1.02-8.71-2.17c-0.74-0.39-1.51-0.85-2.03-1.61
				c-0.63-0.93-0.74-2.09-0.82-3.15c-0.2-2.57-0.35-5.34,0.86-7.15c0.48-0.71,1.14-1.22,1.81-1.69c2.01-1.39,4.28-2.46,6.81-2.57
				c2.54-0.11,5.38,0.83,7.6,3c2.14,2.1,4.38,7.34,3.74,10.13C634.15,734.57,630.09,735.86,625.82,735.71z"/>
			<path class="st14" d="M640.87,729.66c-0.74-2.48-0.9-5.26-0.59-7.27c0.1-0.67,0.26-1.38,0.72-1.98c0.55-0.73,1.41-1.11,2.21-1.45
				c1.93-0.82,4.02-1.66,5.73-1.2c0.67,0.18,1.24,0.56,1.77,0.95c1.59,1.19,3.01,2.66,3.75,4.58c0.75,1.92,0.76,4.36-0.33,6.63
				c-1.06,2.2-4.51,5.29-6.83,5.52C643.92,735.77,641.87,732.98,640.87,729.66z"/>
			<path class="st14" d="M662.33,741.46c-2.59-0.09-5.27-0.83-7.08-1.77c-0.6-0.31-1.23-0.69-1.65-1.31
				c-0.51-0.76-0.6-1.7-0.67-2.56c-0.16-2.09-0.28-4.34,0.7-5.81c0.39-0.58,0.92-0.99,1.47-1.37c1.64-1.13,3.48-2,5.54-2.09
				c2.06-0.09,4.37,0.68,6.18,2.44c1.74,1.7,3.56,5.97,3.04,8.24C669.1,740.53,665.8,741.58,662.33,741.46z"/>
			<path class="st14" d="M674.81,731.31c-1.66-0.06-3.37-0.53-4.53-1.13c-0.38-0.2-0.79-0.44-1.05-0.84
				c-0.33-0.48-0.39-1.09-0.43-1.64c-0.1-1.34-0.18-2.78,0.45-3.72c0.25-0.37,0.59-0.64,0.94-0.88c1.05-0.72,2.23-1.28,3.54-1.34
				c1.32-0.06,2.8,0.43,3.95,1.56c1.12,1.09,2.28,3.82,1.95,5.27C679.15,730.71,677.04,731.39,674.81,731.31z"/>
			<path class="st14" d="M641.66,742.4c3.16-2.45,7.07-4.23,10.14-4.9c1.02-0.22,2.14-0.4,3.25-0.07c1.35,0.39,2.39,1.41,3.32,2.37
				c2.25,2.32,4.63,4.86,4.92,7.57c0.11,1.07-0.11,2.09-0.39,3.08c-0.83,2.96-2.15,5.81-4.5,7.95s-5.85,3.52-9.73,3.22
				c-3.75-0.29-10.12-3.55-11.75-6.75C634.56,750.2,637.43,745.69,641.66,742.4z"/>
			<path class="st14" d="M610.34,741.46c-2.59-0.09-5.28-0.83-7.08-1.77c-0.6-0.31-1.23-0.69-1.65-1.31
				c-0.51-0.76-0.6-1.7-0.67-2.56c-0.16-2.09-0.28-4.34,0.7-5.81c0.39-0.58,0.92-0.99,1.47-1.37c1.64-1.13,3.48-2,5.54-2.09
				c2.06-0.09,4.37,0.68,6.18,2.44c1.74,1.7,3.56,5.97,3.04,8.24C617.11,740.53,613.81,741.58,610.34,741.46z"/>
			<path class="st15" d="M625.28,729.26c-0.16,0.45-0.39,0.84-0.89,0.7c-0.39-0.11-0.6-0.57-0.99-0.66
				c-0.3-0.07-0.59,0.09-0.88,0.19c-0.29,0.11-0.66,0.14-0.85-0.1c-0.16-0.2-0.1-0.5,0.02-0.73c0.47-0.88-0.31-2.34,0.48-3
				c0.3-0.25,0.89-0.09,1.15-0.43c0.32-0.42-0.09-1.73,0.98-1.09c0.41,0.24,0.72,1.25,1.04,1.3c0.14,0.02,0.27-0.04,0.4-0.1
				c0.46-0.22,0.96-0.43,1.46-0.34c0.5,0.09,0.95,0.63,0.76,1.1c-0.06,0.15-0.17,0.27-0.21,0.42c-0.21,0.66,0.15,1.18-0.49,1.75
				c-0.51,0.45-1.08,0.39-1.65,0.08C625.48,728.55,625.4,728.92,625.28,729.26z"/>
			<path class="st15" d="M637.07,736.92c-0.09,0.24-0.21,0.44-0.47,0.37c-0.2-0.06-0.32-0.3-0.52-0.35
				c-0.16-0.04-0.31,0.05-0.46,0.1c-0.15,0.06-0.35,0.08-0.45-0.05c-0.08-0.11-0.05-0.26,0.01-0.38c0.25-0.46-0.16-1.23,0.25-1.58
				c0.16-0.13,0.47-0.05,0.61-0.23c0.17-0.22-0.05-0.91,0.52-0.58c0.22,0.13,0.38,0.66,0.55,0.69c0.07,0.01,0.14-0.02,0.21-0.05
				c0.24-0.12,0.51-0.23,0.77-0.18c0.26,0.05,0.5,0.33,0.4,0.58c-0.03,0.08-0.09,0.14-0.11,0.22c-0.11,0.35,0.08,0.62-0.26,0.92
				c-0.27,0.24-0.57,0.2-0.87,0.04C637.18,736.55,637.14,736.74,637.07,736.92z"/>
			<path class="st15" d="M659.73,724.98c-0.09,0.24-0.21,0.44-0.47,0.37c-0.2-0.06-0.32-0.3-0.52-0.35
				c-0.16-0.04-0.31,0.05-0.46,0.1c-0.15,0.06-0.35,0.08-0.45-0.05c-0.08-0.11-0.05-0.26,0.01-0.38c0.25-0.46-0.16-1.23,0.25-1.58
				c0.16-0.13,0.47-0.05,0.61-0.23c0.17-0.22-0.05-0.91,0.52-0.58c0.22,0.13,0.38,0.66,0.55,0.69c0.07,0.01,0.14-0.02,0.21-0.05
				c0.24-0.12,0.51-0.23,0.77-0.18c0.26,0.05,0.5,0.33,0.4,0.58c-0.03,0.08-0.09,0.14-0.11,0.22c-0.11,0.35,0.08,0.62-0.26,0.92
				c-0.27,0.24-0.57,0.2-0.87,0.04C659.84,724.6,659.79,724.8,659.73,724.98z"/>
			<path class="st15" d="M613.82,746.69c0.25,0,0.49,0.05,0.5,0.32c0.01,0.21-0.18,0.4-0.16,0.61c0.02,0.16,0.15,0.28,0.25,0.4
				c0.1,0.12,0.19,0.3,0.1,0.44c-0.07,0.11-0.23,0.13-0.37,0.11c-0.52-0.08-1.11,0.56-1.58,0.28c-0.18-0.11-0.2-0.43-0.41-0.5
				c-0.26-0.09-0.84,0.34-0.71-0.3c0.05-0.25,0.5-0.57,0.47-0.74c-0.01-0.07-0.07-0.13-0.12-0.18c-0.19-0.19-0.38-0.4-0.42-0.67
				c-0.04-0.27,0.15-0.58,0.42-0.57c0.08,0,0.16,0.04,0.25,0.03c0.36-0.01,0.56-0.28,0.95-0.06c0.31,0.18,0.38,0.47,0.32,0.81
				C613.43,746.71,613.63,746.68,613.82,746.69z"/>
			<path class="st15" d="M642.58,716.07c0.25,0,0.49,0.05,0.5,0.32c0.01,0.21-0.18,0.4-0.16,0.61c0.02,0.16,0.15,0.28,0.25,0.4
				c0.1,0.12,0.19,0.3,0.1,0.44c-0.07,0.11-0.23,0.13-0.37,0.11c-0.52-0.08-1.11,0.56-1.58,0.28c-0.18-0.11-0.2-0.43-0.41-0.5
				c-0.26-0.09-0.84,0.34-0.71-0.3c0.05-0.25,0.5-0.57,0.47-0.74c-0.01-0.07-0.07-0.13-0.12-0.18c-0.19-0.19-0.38-0.4-0.42-0.67
				c-0.04-0.27,0.15-0.58,0.42-0.57c0.08,0,0.16,0.04,0.25,0.03c0.36-0.01,0.56-0.28,0.95-0.06c0.31,0.18,0.38,0.47,0.32,0.81
				C642.19,716.09,642.39,716.07,642.58,716.07z"/>
			<path class="st16" d="M624.49,727.3c0.1,0.31,0.26,0.46,0.22,0.8c-0.03,0.22-0.1,0.52-0.38,0.5c-0.35-0.03-0.63-0.44-0.98-0.52
				c-0.05-0.01-0.11-0.02-0.16,0.01c-0.11,0.06-0.07,0.23-0.09,0.35c-0.02,0.11-0.1,0.21-0.21,0.25c-0.11,0.04-0.24,0.01-0.32-0.07
				c-0.21-0.2-0.2-0.43-0.5-0.53c-0.25-0.08-0.49-0.15-0.62-0.42c-0.07-0.14-0.06-0.34,0.05-0.45c0.13-0.12,0.35-0.12,0.47-0.25
				c0.09-0.1,0.08-0.27-0.01-0.37c-0.07-0.07-0.18-0.1-0.26-0.15c-0.09-0.06-0.15-0.17-0.09-0.26c0.04-0.06,0.12-0.07,0.19-0.07
				c0.24-0.02,0.43-0.11,0.65-0.15c0.22-0.04,0.36,0.16,0.57,0.13c0.15-0.02,0.29-0.12,0.4-0.22c0.12-0.1,0.22-0.22,0.35-0.3
				c0.16-0.11,0.35-0.17,0.54-0.17c0.14,0,0.29,0.04,0.35,0.16c0.06,0.12-0.01,0.27-0.09,0.38c-0.08,0.11-0.19,0.22-0.2,0.36
				c-0.02,0.19,0.1,0.37,0.11,0.57C624.48,727.03,624.44,727.13,624.49,727.3z"/>
			<path class="st15" d="M648.22,746.04c0.37-0.3,0.77-0.52,1.12-0.15c0.28,0.29,0.23,0.8,0.52,1.08c0.22,0.21,0.56,0.23,0.86,0.28
				c0.3,0.05,0.64,0.21,0.68,0.51c0.03,0.25-0.17,0.48-0.39,0.62c-0.85,0.52-0.92,2.17-1.93,2.35c-0.39,0.07-0.82-0.37-1.21-0.21
				c-0.49,0.2-0.8,1.54-1.4,0.44c-0.23-0.42,0.02-1.44-0.23-1.65c-0.11-0.09-0.26-0.1-0.4-0.12c-0.51-0.04-1.05-0.11-1.44-0.45
				c-0.39-0.33-0.5-1.02-0.1-1.33c0.12-0.1,0.28-0.15,0.4-0.25c0.51-0.47,0.47-1.1,1.31-1.26c0.67-0.13,1.13,0.21,1.46,0.77
				C647.68,746.55,647.94,746.27,648.22,746.04z"/>
			<path class="st16" d="M647.9,748.13c0.07-0.32,0-0.53,0.21-0.8c0.14-0.18,0.35-0.4,0.58-0.24c0.29,0.2,0.32,0.69,0.58,0.95
				c0.04,0.04,0.09,0.07,0.14,0.07c0.13,0,0.17-0.16,0.25-0.26c0.07-0.09,0.19-0.13,0.31-0.11c0.11,0.02,0.21,0.11,0.24,0.22
				c0.08,0.28-0.05,0.48,0.16,0.71c0.17,0.2,0.34,0.38,0.32,0.67c-0.01,0.16-0.12,0.32-0.27,0.36c-0.17,0.04-0.36-0.08-0.53-0.02
				c-0.13,0.04-0.21,0.19-0.18,0.32c0.03,0.1,0.1,0.18,0.15,0.27c0.05,0.09,0.04,0.23-0.05,0.27c-0.07,0.03-0.14,0-0.21-0.03
				c-0.22-0.11-0.43-0.12-0.64-0.2c-0.21-0.08-0.23-0.32-0.43-0.4c-0.14-0.06-0.31-0.05-0.46-0.02c-0.15,0.03-0.3,0.07-0.46,0.08
				c-0.19,0.01-0.39-0.03-0.56-0.13c-0.12-0.07-0.23-0.18-0.22-0.31c0.01-0.14,0.15-0.23,0.27-0.28c0.13-0.05,0.27-0.09,0.36-0.2
				c0.12-0.15,0.1-0.38,0.2-0.54C647.77,748.37,647.86,748.31,647.9,748.13z"/>
			<path class="st15" d="M657.55,729.66c0.37-0.3,0.77-0.52,1.12-0.15c0.28,0.29,0.23,0.8,0.52,1.08c0.22,0.21,0.56,0.23,0.86,0.28
				c0.3,0.05,0.64,0.21,0.68,0.51c0.03,0.25-0.17,0.48-0.39,0.62c-0.85,0.52-0.92,2.17-1.93,2.35c-0.39,0.07-0.82-0.37-1.21-0.21
				c-0.49,0.2-0.8,1.54-1.4,0.44c-0.23-0.42,0.02-1.44-0.23-1.65c-0.11-0.09-0.26-0.1-0.4-0.12c-0.51-0.04-1.05-0.11-1.43-0.45
				c-0.39-0.33-0.5-1.02-0.1-1.33c0.12-0.1,0.28-0.15,0.4-0.25c0.51-0.47,0.47-1.1,1.31-1.26c0.67-0.13,1.13,0.21,1.46,0.77
				C657.01,730.16,657.27,729.89,657.55,729.66z"/>
			<path class="st16" d="M657.23,731.74c0.07-0.32,0-0.53,0.21-0.8c0.14-0.18,0.35-0.4,0.58-0.24c0.29,0.2,0.32,0.69,0.58,0.95
				c0.04,0.04,0.09,0.07,0.14,0.07c0.13,0,0.17-0.16,0.25-0.26c0.07-0.09,0.19-0.13,0.31-0.11c0.11,0.02,0.21,0.11,0.24,0.22
				c0.08,0.28-0.05,0.48,0.16,0.71c0.17,0.2,0.34,0.38,0.32,0.67c-0.01,0.16-0.12,0.32-0.27,0.36c-0.17,0.04-0.36-0.08-0.53-0.02
				c-0.13,0.04-0.21,0.19-0.18,0.32c0.03,0.1,0.1,0.18,0.15,0.27c0.05,0.09,0.04,0.23-0.05,0.27c-0.07,0.03-0.14,0-0.21-0.03
				c-0.22-0.11-0.43-0.12-0.64-0.2c-0.21-0.08-0.23-0.32-0.43-0.4c-0.14-0.06-0.31-0.05-0.46-0.02c-0.15,0.03-0.3,0.07-0.46,0.08
				c-0.19,0.01-0.39-0.03-0.56-0.13c-0.12-0.07-0.23-0.18-0.22-0.31c0.01-0.14,0.15-0.23,0.27-0.28c0.13-0.05,0.27-0.09,0.36-0.2
				c0.12-0.15,0.1-0.38,0.2-0.54C657.1,731.98,657.19,731.92,657.23,731.74z"/>
			<path class="st16" d="M644.47,721.65c0.31-0.26,0.65-0.45,0.96-0.13c0.24,0.25,0.2,0.68,0.44,0.92c0.19,0.18,0.47,0.19,0.73,0.24
				c0.26,0.04,0.55,0.18,0.58,0.44c0.03,0.22-0.14,0.41-0.33,0.53c-0.72,0.45-0.78,1.85-1.65,2c-0.33,0.06-0.7-0.32-1.03-0.18
				c-0.41,0.17-0.68,1.31-1.2,0.38c-0.2-0.36,0.01-1.23-0.2-1.41c-0.09-0.08-0.22-0.09-0.34-0.1c-0.43-0.04-0.9-0.1-1.22-0.38
				s-0.43-0.87-0.08-1.14c0.11-0.08,0.24-0.13,0.34-0.22c0.44-0.4,0.4-0.94,1.11-1.08c0.57-0.11,0.96,0.18,1.25,0.65
				C644.01,722.08,644.23,721.84,644.47,721.65z"/>
			<path class="st17" d="M643.3,723.2c0.06-0.27,0-0.45,0.18-0.68c0.12-0.15,0.3-0.34,0.5-0.2c0.24,0.17,0.27,0.59,0.5,0.81
				c0.03,0.03,0.08,0.06,0.12,0.06c0.11,0,0.15-0.14,0.22-0.22c0.06-0.08,0.17-0.11,0.26-0.09c0.1,0.02,0.18,0.1,0.2,0.19
				c0.07,0.24-0.04,0.41,0.14,0.61c0.15,0.17,0.29,0.32,0.27,0.57c-0.01,0.14-0.1,0.28-0.23,0.31c-0.15,0.03-0.31-0.07-0.45-0.02
				c-0.11,0.04-0.18,0.16-0.15,0.28c0.02,0.08,0.09,0.15,0.13,0.23c0.04,0.08,0.04,0.19-0.04,0.23c-0.06,0.03-0.12,0-0.18-0.03
				c-0.19-0.09-0.37-0.1-0.55-0.17c-0.18-0.07-0.2-0.27-0.36-0.34c-0.12-0.05-0.26-0.04-0.39-0.01c-0.13,0.02-0.26,0.06-0.39,0.07
				c-0.16,0.01-0.33-0.03-0.48-0.11c-0.1-0.06-0.2-0.15-0.19-0.27c0.01-0.12,0.12-0.2,0.23-0.24c0.11-0.05,0.23-0.08,0.3-0.17
				c0.1-0.13,0.08-0.32,0.17-0.46C643.19,723.41,643.26,723.35,643.3,723.2z"/>
			<path class="st16" d="M626.62,742.11c0.31-0.26,0.65-0.45,0.96-0.13c0.24,0.25,0.2,0.68,0.44,0.92c0.19,0.18,0.47,0.19,0.73,0.24
				c0.26,0.04,0.55,0.18,0.58,0.44c0.03,0.22-0.14,0.41-0.33,0.53c-0.72,0.45-0.78,1.85-1.65,2c-0.33,0.06-0.7-0.32-1.03-0.18
				c-0.41,0.17-0.68,1.31-1.2,0.38c-0.2-0.36,0.01-1.23-0.2-1.41c-0.09-0.08-0.22-0.09-0.34-0.1c-0.43-0.04-0.9-0.1-1.22-0.38
				c-0.33-0.28-0.43-0.87-0.08-1.14c0.11-0.08,0.24-0.13,0.34-0.22c0.44-0.4,0.4-0.94,1.11-1.08c0.57-0.11,0.96,0.18,1.25,0.65
				C626.16,742.54,626.38,742.3,626.62,742.11z"/>
			<path class="st17" d="M625.45,743.66c0.06-0.27,0-0.45,0.18-0.68c0.12-0.15,0.3-0.34,0.5-0.2c0.24,0.17,0.27,0.59,0.5,0.81
				c0.03,0.03,0.08,0.06,0.12,0.06c0.11,0,0.15-0.14,0.22-0.22c0.06-0.08,0.17-0.11,0.26-0.09c0.1,0.02,0.18,0.1,0.2,0.19
				c0.07,0.24-0.04,0.41,0.14,0.61c0.15,0.17,0.29,0.32,0.27,0.57c-0.01,0.14-0.1,0.28-0.23,0.31c-0.15,0.03-0.31-0.07-0.45-0.02
				c-0.11,0.04-0.18,0.16-0.15,0.28c0.02,0.08,0.09,0.15,0.13,0.23c0.04,0.08,0.04,0.19-0.04,0.23c-0.06,0.03-0.12,0-0.17-0.03
				c-0.19-0.09-0.37-0.1-0.55-0.17c-0.18-0.07-0.2-0.27-0.36-0.34c-0.12-0.05-0.26-0.04-0.39-0.01c-0.13,0.02-0.26,0.06-0.39,0.07
				c-0.16,0.01-0.33-0.03-0.48-0.11c-0.1-0.06-0.2-0.15-0.19-0.27c0.01-0.12,0.12-0.2,0.23-0.24s0.23-0.08,0.3-0.17
				c0.1-0.13,0.08-0.32,0.17-0.46C625.34,743.87,625.41,743.81,625.45,743.66z"/>
			<path class="st16" d="M673.81,724.41c0.31-0.26,0.65-0.45,0.96-0.13c0.24,0.25,0.2,0.68,0.44,0.92c0.19,0.18,0.47,0.19,0.73,0.24
				s0.55,0.18,0.58,0.44c0.03,0.22-0.14,0.41-0.33,0.53c-0.72,0.45-0.78,1.85-1.65,2c-0.33,0.06-0.7-0.32-1.03-0.18
				c-0.41,0.17-0.68,1.31-1.2,0.38c-0.2-0.36,0.01-1.23-0.2-1.41c-0.09-0.08-0.22-0.09-0.34-0.1c-0.43-0.04-0.9-0.1-1.22-0.38
				c-0.33-0.28-0.43-0.87-0.08-1.14c0.11-0.08,0.24-0.13,0.34-0.22c0.44-0.4,0.4-0.94,1.11-1.08c0.57-0.11,0.96,0.18,1.25,0.65
				C673.35,724.85,673.57,724.61,673.81,724.41z"/>
			<path class="st17" d="M672.64,725.97c0.06-0.27,0-0.45,0.18-0.68c0.12-0.15,0.3-0.34,0.5-0.2c0.24,0.17,0.27,0.59,0.5,0.81
				c0.03,0.03,0.08,0.06,0.12,0.06c0.11,0,0.15-0.14,0.22-0.22c0.06-0.08,0.17-0.11,0.26-0.09c0.1,0.02,0.18,0.1,0.2,0.19
				c0.07,0.24-0.04,0.41,0.14,0.61c0.15,0.17,0.29,0.32,0.27,0.57c-0.01,0.14-0.1,0.28-0.23,0.31c-0.15,0.03-0.31-0.07-0.45-0.02
				c-0.11,0.04-0.18,0.16-0.15,0.28c0.02,0.08,0.09,0.15,0.13,0.23c0.04,0.08,0.04,0.19-0.04,0.23c-0.06,0.03-0.12,0-0.17-0.03
				c-0.19-0.09-0.37-0.1-0.55-0.17c-0.18-0.07-0.2-0.27-0.36-0.34c-0.12-0.05-0.26-0.04-0.39-0.01c-0.13,0.02-0.26,0.06-0.39,0.07
				c-0.16,0.01-0.33-0.03-0.48-0.11c-0.1-0.06-0.2-0.15-0.19-0.27c0.01-0.12,0.12-0.2,0.23-0.24c0.11-0.05,0.23-0.08,0.3-0.17
				c0.1-0.13,0.08-0.32,0.17-0.46C672.53,726.17,672.61,726.12,672.64,725.97z"/>
			<path class="st16" d="M607.21,734.68c0.02,0.41-0.02,0.79-0.46,0.85c-0.34,0.04-0.66-0.24-1-0.18c-0.26,0.04-0.44,0.27-0.62,0.45
				c-0.19,0.18-0.47,0.34-0.7,0.21c-0.19-0.11-0.25-0.36-0.23-0.58c0.07-0.85-1.03-1.73-0.64-2.51c0.15-0.3,0.67-0.38,0.75-0.73
				c0.11-0.43-0.66-1.32,0.4-1.19c0.41,0.05,0.98,0.74,1.25,0.67c0.12-0.03,0.2-0.12,0.28-0.21c0.28-0.33,0.61-0.67,1.03-0.76
				c0.42-0.1,0.96,0.17,0.97,0.6c0,0.13-0.04,0.27-0.03,0.4c0.06,0.59,0.52,0.88,0.21,1.53c-0.25,0.53-0.71,0.67-1.26,0.62
				C607.14,734.05,607.2,734.37,607.21,734.68z"/>
			<path class="st17" d="M606.65,732.82c0.18,0.21,0.36,0.27,0.44,0.55c0.05,0.18,0.1,0.44-0.13,0.52c-0.28,0.1-0.64-0.13-0.94-0.08
				c-0.05,0.01-0.1,0.02-0.12,0.06c-0.07,0.09,0.02,0.2,0.05,0.31c0.03,0.09-0.01,0.2-0.08,0.27c-0.07,0.07-0.18,0.09-0.27,0.05
				c-0.23-0.09-0.3-0.27-0.57-0.25c-0.22,0.02-0.43,0.04-0.62-0.12c-0.1-0.09-0.16-0.24-0.11-0.37c0.06-0.14,0.23-0.21,0.28-0.35
				c0.04-0.11-0.03-0.24-0.13-0.28c-0.08-0.03-0.17-0.02-0.26-0.03c-0.09-0.01-0.18-0.08-0.16-0.17c0.01-0.06,0.07-0.1,0.13-0.12
				c0.19-0.1,0.3-0.23,0.46-0.34c0.16-0.1,0.34,0,0.49-0.09c0.11-0.07,0.19-0.19,0.24-0.31c0.06-0.12,0.1-0.25,0.17-0.36
				c0.09-0.14,0.22-0.25,0.37-0.32c0.11-0.05,0.24-0.07,0.33,0.01c0.09,0.08,0.09,0.22,0.06,0.33c-0.03,0.11-0.07,0.23-0.04,0.35
				c0.05,0.16,0.21,0.26,0.28,0.41C606.55,732.61,606.55,732.7,606.65,732.82z"/>
		</g>
	</g>
	<g>
		<polyline class="st0" points="423.11,236.39 159.51,468.57 179.98,468.87 423.09,253.35 		"/>
		<polyline class="st8" points="423.11,219.25 148.86,455.23 159.51,468.57 423.11,236.39 		"/>
	</g>
	<g>
		<polyline class="st0" points="423.11,236.39 686.71,468.57 666.24,468.87 423.13,253.35 		"/>
		<polyline class="st8" points="423.11,219.25 697.36,455.23 686.71,468.57 423.11,236.39 		"/>
	</g>
	<g>
		<rect x="81.53" y="878.25" class="st11" width="8.32" height="17.1"/>
		<path class="st14" d="M113.06,855.86c0,15.12-12.25,27.37-27.37,27.37s-27.37-12.25-27.37-27.37c0-15.12,12.25-93.81,27.37-93.81
			S113.06,840.75,113.06,855.86z"/>
		<g>
			<g>
				<path class="st18" d="M66.35,840.61c-1.13-0.04-2.3-0.36-3.08-0.77c-0.26-0.14-0.53-0.3-0.72-0.57
					c-0.22-0.33-0.26-0.74-0.29-1.11c-0.07-0.91-0.12-1.89,0.3-2.53c0.17-0.25,0.4-0.43,0.64-0.6c0.71-0.49,1.51-0.87,2.41-0.91
					c0.9-0.04,1.9,0.29,2.69,1.06c0.76,0.74,1.55,2.6,1.32,3.58C69.3,840.2,67.86,840.66,66.35,840.61z"/>
				<path class="st18" d="M91.61,876.35c-1.13-0.04-2.3-0.36-3.08-0.77c-0.26-0.14-0.53-0.3-0.72-0.57
					c-0.22-0.33-0.26-0.74-0.29-1.11c-0.07-0.91-0.12-1.89,0.3-2.53c0.17-0.25,0.4-0.43,0.64-0.6c0.71-0.49,1.51-0.87,2.41-0.91
					c0.9-0.04,1.9,0.29,2.69,1.06c0.76,0.74,1.55,2.6,1.32,3.58C94.55,875.94,93.12,876.4,91.61,876.35z"/>
				<path class="st18" d="M79.92,852.45c-1.39-0.05-2.82-0.44-3.79-0.95c-0.32-0.17-0.66-0.37-0.88-0.7
					c-0.27-0.4-0.32-0.91-0.36-1.37c-0.09-1.12-0.15-2.32,0.37-3.11c0.21-0.31,0.49-0.53,0.79-0.73c0.88-0.6,1.86-1.07,2.97-1.12
					c1.1-0.05,2.34,0.36,3.31,1.31c0.93,0.91,1.91,3.19,1.63,4.41C83.54,851.95,81.78,852.51,79.92,852.45z"/>
				<path class="st18" d="M66.76,866.99c-0.32-1.08-0.39-2.29-0.26-3.16c0.05-0.29,0.11-0.6,0.31-0.86
					c0.24-0.32,0.62-0.48,0.96-0.63c0.84-0.36,1.75-0.72,2.49-0.52c0.29,0.08,0.54,0.24,0.77,0.42c0.69,0.52,1.31,1.16,1.63,1.99
					c0.32,0.84,0.33,1.9-0.14,2.89c-0.46,0.96-1.96,2.3-2.97,2.4C68.09,869.65,67.2,868.44,66.76,866.99z"/>
				<path class="st18" d="M96.47,822.44c-0.32-1.08-0.39-2.29-0.26-3.16c0.05-0.29,0.11-0.6,0.31-0.86
					c0.24-0.32,0.62-0.48,0.96-0.63c0.84-0.36,1.75-0.72,2.49-0.52c0.29,0.08,0.54,0.24,0.77,0.42c0.69,0.52,1.31,1.16,1.63,1.99
					c0.32,0.84,0.33,1.9-0.14,2.89c-0.46,0.96-1.96,2.3-2.97,2.4C97.8,825.1,96.91,823.88,96.47,822.44z"/>
				<path class="st18" d="M79.74,783.56c-0.32-1.08-0.39-2.29-0.26-3.16c0.05-0.29,0.11-0.6,0.31-0.86
					c0.24-0.32,0.62-0.48,0.96-0.63c0.84-0.36,1.75-0.72,2.49-0.52c0.29,0.08,0.54,0.24,0.77,0.42c0.69,0.52,1.31,1.16,1.63,1.99
					c0.32,0.84,0.33,1.9-0.14,2.89c-0.46,0.96-1.96,2.3-2.97,2.4C81.07,786.23,80.18,785.01,79.74,783.56z"/>
				<path class="st18" d="M77.29,828.7c-0.72-0.02-1.47-0.23-1.97-0.49c-0.17-0.09-0.34-0.19-0.46-0.37
					c-0.14-0.21-0.17-0.47-0.19-0.71c-0.04-0.58-0.08-1.21,0.19-1.62c0.11-0.16,0.26-0.28,0.41-0.38c0.46-0.31,0.97-0.56,1.54-0.58
					c0.57-0.02,1.22,0.19,1.72,0.68c0.49,0.47,0.99,1.66,0.85,2.29C79.18,828.44,78.26,828.73,77.29,828.7z"/>
				<path class="st18" d="M96.41,801.66c-0.72-0.03-1.47-0.23-1.97-0.49c-0.17-0.09-0.34-0.19-0.46-0.37
					c-0.14-0.21-0.17-0.47-0.19-0.71c-0.04-0.58-0.08-1.21,0.19-1.62c0.11-0.16,0.26-0.28,0.41-0.38c0.46-0.31,0.97-0.56,1.54-0.58
					c0.57-0.03,1.22,0.19,1.72,0.68c0.49,0.47,0.99,1.66,0.85,2.29C98.29,801.4,97.38,801.69,96.41,801.66z"/>
				<path class="st18" d="M90.12,839.44c-0.72-0.02-1.47-0.23-1.97-0.49c-0.17-0.09-0.34-0.19-0.46-0.37
					c-0.14-0.21-0.17-0.47-0.19-0.71c-0.04-0.58-0.08-1.21,0.19-1.62c0.11-0.16,0.26-0.28,0.41-0.38c0.46-0.31,0.97-0.56,1.54-0.58
					c0.57-0.03,1.22,0.19,1.72,0.68c0.49,0.47,0.99,1.66,0.85,2.29C92,839.18,91.08,839.47,90.12,839.44z"/>
				<path class="st18" d="M82.91,814.35c-0.72-0.02-1.47-0.23-1.97-0.49c-0.17-0.09-0.34-0.19-0.46-0.37
					c-0.14-0.21-0.17-0.47-0.19-0.71c-0.04-0.58-0.08-1.21,0.19-1.62c0.11-0.16,0.26-0.28,0.41-0.38c0.46-0.31,0.97-0.56,1.54-0.58
					c0.57-0.02,1.22,0.19,1.72,0.68c0.49,0.47,0.99,1.66,0.85,2.29C84.8,814.09,83.88,814.38,82.91,814.35z"/>
				<path class="st18" d="M76.1,804.91c-1.13-0.04-2.3-0.36-3.08-0.77c-0.26-0.14-0.53-0.3-0.72-0.57
					c-0.22-0.33-0.26-0.74-0.29-1.11c-0.07-0.91-0.12-1.89,0.3-2.53c0.17-0.25,0.4-0.43,0.64-0.6c0.71-0.49,1.51-0.87,2.41-0.91
					c0.9-0.04,1.9,0.29,2.69,1.06c0.76,0.74,1.55,2.6,1.32,3.58C79.05,804.5,77.61,804.96,76.1,804.91z"/>
				<path class="st18" d="M98.94,861.75c-1.13-0.04-2.3-0.36-3.08-0.77c-0.26-0.14-0.53-0.3-0.72-0.57
					c-0.22-0.33-0.26-0.74-0.29-1.11c-0.07-0.91-0.12-1.89,0.3-2.53c0.17-0.25,0.4-0.43,0.64-0.6c0.71-0.49,1.51-0.87,2.41-0.91
					c0.9-0.04,1.9,0.29,2.69,1.06c0.76,0.74,1.55,2.6,1.32,3.58C101.89,861.34,100.45,861.8,98.94,861.75z"/>
				<path class="st18" d="M105.35,847.71c-1.13-0.04-2.3-0.36-3.08-0.77c-0.26-0.14-0.53-0.3-0.72-0.57
					c-0.22-0.33-0.26-0.74-0.29-1.11c-0.07-0.91-0.12-1.89,0.3-2.53c0.17-0.25,0.4-0.43,0.64-0.6c0.71-0.49,1.51-0.87,2.41-0.91
					c0.9-0.04,1.9,0.29,2.69,1.06c0.76,0.74,1.55,2.6,1.32,3.58C108.3,847.3,106.86,847.76,105.35,847.71z"/>
			</g>
		</g>
		<path class="st2" d="M85.69,883.23c15.12,0,27.37-12.25,27.37-27.37c0-15.12-12.25-93.81-27.37-93.81
			c0.77,5.33,2.21,12.02,2.98,17.35c0.18,1.24,0.36,2.49,0.22,3.74c-0.38,3.24-2.89,6.02-2.92,9.28c-0.04,3.83,3.34,7.74,1.49,11.09
			c-0.58,1.06-1.6,1.82-2.16,2.89c-1.52,2.93,1.01,6.23,1.69,9.46c1.07,5.12-2.63,10.84-0.14,15.44c0.67,1.24,1.79,2.42,1.61,3.82
			c-0.22,1.63-2.07,2.47-2.94,3.87c-2.14,3.45,2.49,7.65,1.82,11.66c-0.3,1.8-1.65,3.32-1.79,5.13c-0.21,2.83,2.55,5.79,1.06,8.21
			c-0.41,0.67-1.1,1.14-1.51,1.81c-0.9,1.47-0.24,3.4,0.65,4.88c0.89,1.48,2.03,2.96,2.05,4.69
			C87.84,877.95,84.83,880.8,85.69,883.23z"/>
	</g>
	<g>
		<rect x="142.36" y="878.25" class="st11" width="8.32" height="17.1"/>
		<path class="st14" d="M173.89,855.86c0,15.12-12.25,27.37-27.37,27.37c-15.12,0-27.37-12.25-27.37-27.37
			c0-15.12,12.25-118.83,27.37-118.83C161.64,737.03,173.89,840.75,173.89,855.86z"/>
		<g>
			<g>
				<path class="st18" d="M127.18,840.61c-1.13-0.04-2.3-0.36-3.08-0.77c-0.26-0.14-0.53-0.3-0.72-0.57
					c-0.22-0.33-0.26-0.74-0.29-1.11c-0.07-0.91-0.12-1.89,0.3-2.53c0.17-0.25,0.4-0.43,0.64-0.6c0.71-0.49,1.51-0.87,2.41-0.91
					c0.9-0.04,1.9,0.29,2.69,1.06c0.76,0.74,1.55,2.6,1.32,3.58C130.13,840.2,128.69,840.66,127.18,840.61z"/>
				<path class="st18" d="M152.43,876.35c-1.13-0.04-2.3-0.36-3.08-0.77c-0.26-0.14-0.53-0.3-0.72-0.57
					c-0.22-0.33-0.26-0.74-0.29-1.11c-0.07-0.91-0.12-1.89,0.3-2.53c0.17-0.25,0.4-0.43,0.64-0.6c0.71-0.49,1.51-0.87,2.41-0.91
					c0.9-0.04,1.9,0.29,2.69,1.06c0.76,0.74,1.55,2.6,1.32,3.58C155.38,875.94,153.95,876.4,152.43,876.35z"/>
				<path class="st18" d="M140.75,852.45c-1.39-0.05-2.82-0.44-3.79-0.95c-0.32-0.17-0.66-0.37-0.88-0.7
					c-0.27-0.4-0.32-0.91-0.36-1.37c-0.09-1.12-0.15-2.32,0.37-3.11c0.21-0.31,0.49-0.53,0.79-0.73c0.88-0.6,1.86-1.07,2.97-1.12
					c1.1-0.05,2.34,0.36,3.31,1.31c0.93,0.91,1.91,3.19,1.63,4.41C144.37,851.95,142.61,852.51,140.75,852.45z"/>
				<path class="st18" d="M127.59,866.99c-0.32-1.08-0.39-2.29-0.26-3.16c0.05-0.29,0.11-0.6,0.31-0.86
					c0.24-0.32,0.62-0.48,0.96-0.63c0.84-0.36,1.75-0.72,2.49-0.52c0.29,0.08,0.54,0.24,0.77,0.42c0.69,0.52,1.31,1.16,1.63,1.99
					c0.32,0.84,0.33,1.9-0.14,2.89c-0.46,0.96-1.96,2.3-2.97,2.4C128.92,869.65,128.02,868.44,127.59,866.99z"/>
				<path class="st18" d="M157.3,822.44c-0.32-1.08-0.39-2.29-0.26-3.16c0.05-0.29,0.11-0.6,0.31-0.86
					c0.24-0.32,0.62-0.48,0.96-0.63c0.84-0.36,1.75-0.72,2.49-0.52c0.29,0.08,0.54,0.24,0.77,0.42c0.69,0.52,1.31,1.16,1.63,1.99
					c0.32,0.84,0.33,1.9-0.14,2.89c-0.46,0.96-1.96,2.3-2.97,2.4C158.63,825.1,157.73,823.88,157.3,822.44z"/>
				<path class="st18" d="M140.57,783.56c-0.32-1.08-0.39-2.29-0.26-3.16c0.05-0.29,0.11-0.6,0.31-0.86
					c0.24-0.32,0.62-0.48,0.96-0.63c0.84-0.36,1.75-0.72,2.49-0.52c0.29,0.08,0.54,0.24,0.77,0.42c0.69,0.52,1.31,1.16,1.63,1.99
					c0.32,0.84,0.33,1.9-0.14,2.89c-0.46,0.96-1.96,2.3-2.97,2.4C141.9,786.23,141,785.01,140.57,783.56z"/>
				<path class="st18" d="M151.68,771.8c-0.32-1.08-0.39-2.29-0.26-3.16c0.05-0.29,0.11-0.6,0.31-0.86
					c0.24-0.32,0.62-0.48,0.96-0.63c0.84-0.36,1.75-0.72,2.49-0.52c0.29,0.08,0.54,0.24,0.77,0.42c0.69,0.52,1.31,1.16,1.63,1.99
					c0.32,0.84,0.33,1.9-0.14,2.89c-0.46,0.96-1.96,2.3-2.97,2.4C153.01,774.47,152.12,773.25,151.68,771.8z"/>
				<path class="st18" d="M138.12,828.7c-0.72-0.02-1.47-0.23-1.97-0.49c-0.17-0.09-0.34-0.19-0.46-0.37
					c-0.14-0.21-0.17-0.47-0.19-0.71c-0.04-0.58-0.08-1.21,0.19-1.62c0.11-0.16,0.26-0.28,0.41-0.38c0.46-0.31,0.97-0.56,1.54-0.58
					c0.57-0.02,1.22,0.19,1.72,0.68c0.49,0.47,0.99,1.66,0.85,2.29C140.01,828.44,139.09,828.73,138.12,828.7z"/>
				<path class="st18" d="M157.24,801.66c-0.72-0.03-1.47-0.23-1.97-0.49c-0.17-0.09-0.34-0.19-0.46-0.37
					c-0.14-0.21-0.17-0.47-0.19-0.71c-0.04-0.58-0.08-1.21,0.19-1.62c0.11-0.16,0.26-0.28,0.41-0.38c0.46-0.31,0.97-0.56,1.54-0.58
					c0.57-0.03,1.22,0.19,1.72,0.68c0.49,0.47,0.99,1.66,0.85,2.29C159.12,801.4,158.2,801.69,157.24,801.66z"/>
				<path class="st18" d="M150.94,839.44c-0.72-0.02-1.47-0.23-1.97-0.49c-0.17-0.09-0.34-0.19-0.46-0.37
					c-0.14-0.21-0.17-0.47-0.19-0.71c-0.04-0.58-0.08-1.21,0.19-1.62c0.11-0.16,0.26-0.28,0.41-0.38c0.46-0.31,0.97-0.56,1.54-0.58
					c0.57-0.03,1.22,0.19,1.72,0.68c0.49,0.47,0.99,1.66,0.85,2.29C152.83,839.18,151.91,839.47,150.94,839.44z"/>
				<path class="st18" d="M143.74,814.35c-0.72-0.02-1.47-0.23-1.97-0.49c-0.17-0.09-0.34-0.19-0.46-0.37
					c-0.14-0.21-0.17-0.47-0.19-0.71c-0.04-0.58-0.08-1.21,0.19-1.62c0.11-0.16,0.26-0.28,0.41-0.38c0.46-0.31,0.97-0.56,1.54-0.58
					c0.57-0.02,1.22,0.19,1.72,0.68c0.49,0.47,0.99,1.66,0.85,2.29C145.63,814.09,144.71,814.38,143.74,814.35z"/>
				<path class="st18" d="M142.62,762.17c-0.72-0.02-1.47-0.23-1.97-0.49c-0.17-0.09-0.34-0.19-0.46-0.37
					c-0.14-0.21-0.17-0.47-0.19-0.71c-0.04-0.58-0.08-1.21,0.19-1.62c0.11-0.16,0.26-0.28,0.41-0.38c0.46-0.31,0.97-0.56,1.54-0.58
					c0.57-0.03,1.22,0.19,1.72,0.68c0.49,0.47,0.99,1.66,0.85,2.29C144.51,761.91,143.59,762.21,142.62,762.17z"/>
				<path class="st18" d="M136.93,804.91c-1.13-0.04-2.3-0.36-3.08-0.77c-0.26-0.14-0.53-0.3-0.72-0.57
					c-0.22-0.33-0.26-0.74-0.29-1.11c-0.07-0.91-0.12-1.89,0.3-2.53c0.17-0.25,0.4-0.43,0.64-0.6c0.71-0.49,1.51-0.87,2.41-0.91
					c0.9-0.04,1.9,0.29,2.69,1.06c0.76,0.74,1.55,2.6,1.32,3.58C139.87,804.5,138.44,804.96,136.93,804.91z"/>
				<path class="st18" d="M159.77,861.75c-1.13-0.04-2.3-0.36-3.08-0.77c-0.26-0.14-0.53-0.3-0.72-0.57
					c-0.22-0.33-0.26-0.74-0.29-1.11c-0.07-0.91-0.12-1.89,0.3-2.53c0.17-0.25,0.4-0.43,0.64-0.6c0.71-0.49,1.51-0.87,2.41-0.91
					c0.9-0.04,1.9,0.29,2.69,1.06c0.76,0.74,1.55,2.6,1.32,3.58C162.72,861.34,161.28,861.8,159.77,861.75z"/>
				<path class="st18" d="M166.18,847.71c-1.13-0.04-2.3-0.36-3.08-0.77c-0.26-0.14-0.53-0.3-0.72-0.57
					c-0.22-0.33-0.26-0.74-0.29-1.11c-0.07-0.91-0.12-1.89,0.3-2.53c0.17-0.25,0.4-0.43,0.64-0.6c0.71-0.49,1.51-0.87,2.41-0.91
					c0.9-0.04,1.9,0.29,2.69,1.06c0.76,0.74,1.55,2.6,1.32,3.58C169.13,847.3,167.69,847.76,166.18,847.71z"/>
			</g>
		</g>
		<path class="st2" d="M146.52,883.23c15.12,0,27.37-12.25,27.37-27.37c0-15.12-12.25-118.83-27.37-118.83
			c1.29,8.89,1.3,18.07,1.84,27.02c0.51,8.32,2.31,15.59-0.25,23.88c-0.61,1.97-1.39,3.96-1.18,6.01c0.27,2.72,2.28,5.21,1.73,7.98
			c-0.66,3.36-2.7,5.5-2.3,9.29c0.29,2.7,1.38,5.3,1.42,8.02c0.04,2.76-1.01,5.5-0.57,8.22c0.4,2.46,1.99,4.74,1.69,7.22
			c-0.41,3.37-3.18,5.67-2.59,9.29c0.34,2.05,1.52,3.96,1.47,6.03c-0.04,1.64-0.86,3.16-1.04,4.79c-0.26,2.34,0.83,4.55,0.74,6.87
			c-0.09,2.36-1.57,4.41-1.51,6.8c0.07,2.59,2.61,4.29,2.65,6.92C148.67,877.95,145.66,880.8,146.52,883.23z"/>
	</g>
	<g>
		<rect x="1053.84" y="878.25" class="st11" width="8.32" height="17.1"/>
		<path class="st14" d="M1085.38,855.86c0,15.12-12.25,27.37-27.37,27.37s-27.37-12.25-27.37-27.37c0-15.12,12.25-93.81,27.37-93.81
			S1085.38,840.75,1085.38,855.86z"/>
		<g>
			<g>
				<path class="st18" d="M1038.66,840.61c-1.13-0.04-2.3-0.36-3.08-0.77c-0.26-0.14-0.53-0.3-0.72-0.57
					c-0.22-0.33-0.26-0.74-0.29-1.11c-0.07-0.91-0.12-1.89,0.3-2.53c0.17-0.25,0.4-0.43,0.64-0.6c0.71-0.49,1.51-0.87,2.41-0.91
					c0.9-0.04,1.9,0.29,2.69,1.06c0.76,0.74,1.55,2.6,1.32,3.58C1041.61,840.2,1040.17,840.66,1038.66,840.61z"/>
				<path class="st18" d="M1063.92,876.35c-1.13-0.04-2.3-0.36-3.08-0.77c-0.26-0.14-0.53-0.3-0.72-0.57
					c-0.22-0.33-0.26-0.74-0.29-1.11c-0.07-0.91-0.12-1.89,0.3-2.53c0.17-0.25,0.4-0.43,0.64-0.6c0.71-0.49,1.51-0.87,2.41-0.91
					c0.9-0.04,1.9,0.29,2.69,1.06c0.76,0.74,1.55,2.6,1.32,3.58C1066.86,875.94,1065.43,876.4,1063.92,876.35z"/>
				<path class="st18" d="M1052.23,852.45c-1.39-0.05-2.82-0.44-3.79-0.95c-0.32-0.17-0.66-0.37-0.88-0.7
					c-0.27-0.4-0.32-0.91-0.36-1.37c-0.09-1.12-0.15-2.32,0.37-3.11c0.21-0.31,0.49-0.53,0.79-0.73c0.88-0.6,1.86-1.07,2.97-1.12
					c1.1-0.05,2.34,0.36,3.31,1.31c0.93,0.91,1.91,3.19,1.63,4.41C1055.85,851.95,1054.09,852.51,1052.23,852.45z"/>
				<path class="st18" d="M1039.07,866.99c-0.32-1.08-0.39-2.29-0.26-3.16c0.05-0.29,0.11-0.6,0.31-0.86
					c0.24-0.32,0.62-0.48,0.96-0.63c0.84-0.36,1.75-0.72,2.49-0.52c0.29,0.08,0.54,0.24,0.77,0.42c0.69,0.52,1.31,1.16,1.63,1.99
					c0.32,0.84,0.33,1.9-0.14,2.89c-0.46,0.96-1.96,2.3-2.97,2.4C1040.4,869.65,1039.51,868.44,1039.07,866.99z"/>
				<path class="st18" d="M1068.78,822.44c-0.32-1.08-0.39-2.29-0.26-3.16c0.05-0.29,0.11-0.6,0.31-0.86
					c0.24-0.32,0.62-0.48,0.96-0.63c0.84-0.36,1.75-0.72,2.49-0.52c0.29,0.08,0.54,0.24,0.77,0.42c0.69,0.52,1.31,1.16,1.63,1.99
					c0.32,0.84,0.33,1.9-0.14,2.89c-0.46,0.96-1.96,2.3-2.97,2.4C1070.11,825.1,1069.22,823.88,1068.78,822.44z"/>
				<path class="st18" d="M1052.05,783.56c-0.32-1.08-0.39-2.29-0.26-3.16c0.05-0.29,0.11-0.6,0.31-0.86
					c0.24-0.32,0.62-0.48,0.96-0.63c0.84-0.36,1.75-0.72,2.49-0.52c0.29,0.08,0.54,0.24,0.77,0.42c0.69,0.52,1.31,1.16,1.63,1.99
					c0.32,0.84,0.33,1.9-0.14,2.89c-0.46,0.96-1.96,2.3-2.97,2.4C1053.38,786.23,1052.49,785.01,1052.05,783.56z"/>
				<path class="st18" d="M1049.61,828.7c-0.72-0.02-1.47-0.23-1.97-0.49c-0.17-0.09-0.34-0.19-0.46-0.37
					c-0.14-0.21-0.17-0.47-0.19-0.71c-0.04-0.58-0.08-1.21,0.19-1.62c0.11-0.16,0.26-0.28,0.41-0.38c0.46-0.31,0.97-0.56,1.54-0.58
					c0.57-0.02,1.22,0.19,1.72,0.68c0.49,0.47,0.99,1.66,0.85,2.29C1051.49,828.44,1050.57,828.73,1049.61,828.7z"/>
				<path class="st18" d="M1068.72,801.66c-0.72-0.03-1.47-0.23-1.97-0.49c-0.17-0.09-0.34-0.19-0.46-0.37
					c-0.14-0.21-0.17-0.47-0.19-0.71c-0.04-0.58-0.08-1.21,0.19-1.62c0.11-0.16,0.26-0.28,0.41-0.38c0.46-0.31,0.97-0.56,1.54-0.58
					c0.57-0.03,1.22,0.19,1.72,0.68c0.49,0.47,0.99,1.66,0.85,2.29C1070.6,801.4,1069.69,801.69,1068.72,801.66z"/>
				<path class="st18" d="M1062.43,839.44c-0.72-0.02-1.47-0.23-1.97-0.49c-0.17-0.09-0.34-0.19-0.46-0.37
					c-0.14-0.21-0.17-0.47-0.19-0.71c-0.04-0.58-0.08-1.21,0.19-1.62c0.11-0.16,0.26-0.28,0.41-0.38c0.46-0.31,0.97-0.56,1.54-0.58
					c0.57-0.03,1.22,0.19,1.72,0.68c0.49,0.47,0.99,1.66,0.85,2.29C1064.31,839.18,1063.39,839.47,1062.43,839.44z"/>
				<path class="st18" d="M1055.22,814.35c-0.72-0.02-1.47-0.23-1.97-0.49c-0.17-0.09-0.34-0.19-0.46-0.37
					c-0.14-0.21-0.17-0.47-0.19-0.71c-0.04-0.58-0.08-1.21,0.19-1.62c0.11-0.16,0.26-0.28,0.41-0.38c0.46-0.31,0.97-0.56,1.54-0.58
					c0.57-0.02,1.22,0.19,1.72,0.68c0.49,0.47,0.99,1.66,0.85,2.29C1057.11,814.09,1056.19,814.38,1055.22,814.35z"/>
				<path class="st18" d="M1048.41,804.91c-1.13-0.04-2.3-0.36-3.08-0.77c-0.26-0.14-0.53-0.3-0.72-0.57
					c-0.22-0.33-0.26-0.74-0.29-1.11c-0.07-0.91-0.12-1.89,0.3-2.53c0.17-0.25,0.4-0.43,0.64-0.6c0.71-0.49,1.51-0.87,2.41-0.91
					c0.9-0.04,1.9,0.29,2.69,1.06c0.76,0.74,1.55,2.6,1.32,3.58C1051.36,804.5,1049.92,804.96,1048.41,804.91z"/>
				<path class="st18" d="M1071.25,861.75c-1.13-0.04-2.3-0.36-3.08-0.77c-0.26-0.14-0.53-0.3-0.72-0.57
					c-0.22-0.33-0.26-0.74-0.29-1.11c-0.07-0.91-0.12-1.89,0.3-2.53c0.17-0.25,0.4-0.43,0.64-0.6c0.71-0.49,1.51-0.87,2.41-0.91
					c0.9-0.04,1.9,0.29,2.69,1.06c0.76,0.74,1.55,2.6,1.32,3.58C1074.2,861.34,1072.76,861.8,1071.25,861.75z"/>
				<path class="st18" d="M1077.66,847.71c-1.13-0.04-2.3-0.36-3.08-0.77c-0.26-0.14-0.53-0.3-0.72-0.57
					c-0.22-0.33-0.26-0.74-0.29-1.11c-0.07-0.91-0.12-1.89,0.3-2.53c0.17-0.25,0.4-0.43,0.64-0.6c0.71-0.49,1.51-0.87,2.41-0.91
					c0.9-0.04,1.9,0.29,2.69,1.06c0.76,0.74,1.55,2.6,1.32,3.58C1080.61,847.3,1079.17,847.76,1077.66,847.71z"/>
			</g>
		</g>
		<path class="st2" d="M1058,883.23c15.12,0,27.37-12.25,27.37-27.37c0-15.12-12.25-93.81-27.37-93.81
			c0.77,5.33,2.21,12.02,2.98,17.35c0.18,1.24,0.36,2.49,0.21,3.74c-0.38,3.24-2.9,6.02-2.93,9.28c-0.04,3.83,3.34,7.74,1.49,11.09
			c-0.58,1.06-1.6,1.82-2.16,2.89c-1.52,2.93,1.01,6.23,1.69,9.46c1.07,5.12-2.63,10.84-0.14,15.44c0.67,1.24,1.79,2.42,1.61,3.82
			c-0.22,1.63-2.07,2.47-2.94,3.87c-2.14,3.45,2.49,7.65,1.82,11.66c-0.3,1.8-1.65,3.32-1.79,5.13c-0.21,2.83,2.55,5.79,1.06,8.21
			c-0.41,0.67-1.1,1.14-1.51,1.81c-0.9,1.47-0.24,3.4,0.65,4.88c0.89,1.48,2.03,2.96,2.05,4.69
			C1060.15,877.95,1057.14,880.8,1058,883.23z"/>
	</g>
	<g>
		<rect x="993.02" y="878.25" class="st11" width="8.32" height="17.1"/>
		<path class="st14" d="M1024.55,855.86c0,15.12-12.25,27.37-27.37,27.37c-15.12,0-27.37-12.25-27.37-27.37
			c0-15.12,12.25-118.83,27.37-118.83C1012.29,737.03,1024.55,840.75,1024.55,855.86z"/>
		<g>
			<g>
				<path class="st18" d="M977.83,840.61c-1.13-0.04-2.3-0.36-3.08-0.77c-0.26-0.14-0.53-0.3-0.72-0.57
					c-0.22-0.33-0.26-0.74-0.29-1.11c-0.07-0.91-0.12-1.89,0.3-2.53c0.17-0.25,0.4-0.43,0.64-0.6c0.71-0.49,1.51-0.87,2.41-0.91
					c0.9-0.04,1.9,0.29,2.69,1.06c0.76,0.74,1.55,2.6,1.32,3.58C980.78,840.2,979.35,840.66,977.83,840.61z"/>
				<path class="st18" d="M1003.09,876.35c-1.13-0.04-2.3-0.36-3.08-0.77c-0.26-0.14-0.53-0.3-0.72-0.57
					c-0.22-0.33-0.26-0.74-0.29-1.11c-0.07-0.91-0.12-1.89,0.3-2.53c0.17-0.25,0.4-0.43,0.64-0.6c0.71-0.49,1.51-0.87,2.41-0.91
					c0.9-0.04,1.9,0.29,2.69,1.06c0.76,0.74,1.55,2.6,1.32,3.58C1006.04,875.94,1004.6,876.4,1003.09,876.35z"/>
				<path class="st18" d="M991.4,852.45c-1.39-0.05-2.82-0.44-3.79-0.95c-0.32-0.17-0.66-0.37-0.88-0.7
					c-0.27-0.4-0.32-0.91-0.36-1.37c-0.09-1.12-0.15-2.32,0.37-3.11c0.21-0.31,0.49-0.53,0.79-0.73c0.88-0.6,1.86-1.07,2.97-1.12
					c1.1-0.05,2.34,0.36,3.31,1.31c0.93,0.91,1.91,3.19,1.63,4.41C995.03,851.95,993.26,852.51,991.4,852.45z"/>
				<path class="st18" d="M978.24,866.99c-0.32-1.08-0.39-2.29-0.26-3.16c0.05-0.29,0.11-0.6,0.31-0.86
					c0.24-0.32,0.62-0.48,0.96-0.63c0.84-0.36,1.75-0.72,2.49-0.52c0.29,0.08,0.54,0.24,0.77,0.42c0.69,0.52,1.31,1.16,1.63,1.99
					c0.32,0.84,0.33,1.9-0.14,2.89c-0.46,0.96-1.96,2.3-2.97,2.4C979.57,869.65,978.68,868.44,978.24,866.99z"/>
				<path class="st18" d="M1007.95,822.44c-0.32-1.08-0.39-2.29-0.26-3.16c0.05-0.29,0.11-0.6,0.31-0.86
					c0.24-0.32,0.62-0.48,0.96-0.63c0.84-0.36,1.75-0.72,2.49-0.52c0.29,0.08,0.54,0.24,0.77,0.42c0.69,0.52,1.31,1.16,1.63,1.99
					c0.32,0.84,0.33,1.9-0.14,2.89c-0.46,0.96-1.96,2.3-2.97,2.4C1009.28,825.1,1008.39,823.88,1007.95,822.44z"/>
				<path class="st18" d="M991.22,783.56c-0.32-1.08-0.39-2.29-0.26-3.16c0.05-0.29,0.11-0.6,0.31-0.86
					c0.24-0.32,0.62-0.48,0.96-0.63c0.84-0.36,1.75-0.72,2.49-0.52c0.29,0.08,0.54,0.24,0.77,0.42c0.69,0.52,1.31,1.16,1.63,1.99
					c0.32,0.84,0.33,1.9-0.14,2.89c-0.46,0.96-1.96,2.3-2.97,2.4C992.55,786.23,991.66,785.01,991.22,783.56z"/>
				<path class="st18" d="M1002.34,771.8c-0.32-1.08-0.39-2.29-0.26-3.16c0.05-0.29,0.11-0.6,0.31-0.86
					c0.24-0.32,0.62-0.48,0.96-0.63c0.84-0.36,1.75-0.72,2.49-0.52c0.29,0.08,0.54,0.24,0.77,0.42c0.69,0.52,1.31,1.16,1.63,1.99
					c0.32,0.84,0.33,1.9-0.14,2.89c-0.46,0.96-1.96,2.3-2.97,2.4C1003.66,774.47,1002.77,773.25,1002.34,771.8z"/>
				<path class="st18" d="M988.78,828.7c-0.72-0.02-1.47-0.23-1.97-0.49c-0.17-0.09-0.34-0.19-0.46-0.37
					c-0.14-0.21-0.17-0.47-0.19-0.71c-0.04-0.58-0.08-1.21,0.19-1.62c0.11-0.16,0.26-0.28,0.41-0.38c0.46-0.31,0.97-0.56,1.54-0.58
					c0.57-0.02,1.22,0.19,1.72,0.68c0.49,0.47,0.99,1.66,0.85,2.29C990.66,828.44,989.74,828.73,988.78,828.7z"/>
				<path class="st18" d="M1007.89,801.66c-0.72-0.03-1.47-0.23-1.97-0.49c-0.17-0.09-0.34-0.19-0.46-0.37
					c-0.14-0.21-0.17-0.47-0.19-0.71c-0.04-0.58-0.08-1.21,0.19-1.62c0.11-0.16,0.26-0.28,0.41-0.38c0.46-0.31,0.97-0.56,1.54-0.58
					c0.57-0.03,1.22,0.19,1.72,0.68c0.49,0.47,0.99,1.66,0.85,2.29C1009.78,801.4,1008.86,801.69,1007.89,801.66z"/>
				<path class="st18" d="M1001.6,839.44c-0.72-0.02-1.47-0.23-1.97-0.49c-0.17-0.09-0.34-0.19-0.46-0.37
					c-0.14-0.21-0.17-0.47-0.19-0.71c-0.04-0.58-0.08-1.21,0.19-1.62c0.11-0.16,0.26-0.28,0.41-0.38c0.46-0.31,0.97-0.56,1.54-0.58
					c0.57-0.03,1.22,0.19,1.72,0.68c0.49,0.47,0.99,1.66,0.85,2.29C1003.48,839.18,1002.57,839.47,1001.6,839.44z"/>
				<path class="st18" d="M994.39,814.35c-0.72-0.02-1.47-0.23-1.97-0.49c-0.17-0.09-0.34-0.19-0.46-0.37
					c-0.14-0.21-0.17-0.47-0.19-0.71c-0.04-0.58-0.08-1.21,0.19-1.62c0.11-0.16,0.26-0.28,0.41-0.38c0.46-0.31,0.97-0.56,1.54-0.58
					c0.57-0.02,1.22,0.19,1.72,0.68c0.49,0.47,0.99,1.66,0.85,2.29C996.28,814.09,995.36,814.38,994.39,814.35z"/>
				<path class="st18" d="M993.28,762.17c-0.72-0.02-1.47-0.23-1.97-0.49c-0.17-0.09-0.34-0.19-0.46-0.37
					c-0.14-0.21-0.17-0.47-0.19-0.71c-0.04-0.58-0.08-1.21,0.19-1.62c0.11-0.16,0.26-0.28,0.41-0.38c0.46-0.31,0.97-0.56,1.54-0.58
					c0.57-0.03,1.22,0.19,1.72,0.68c0.49,0.47,0.99,1.66,0.85,2.29C995.16,761.91,994.24,762.21,993.28,762.17z"/>
				<path class="st18" d="M987.58,804.91c-1.13-0.04-2.3-0.36-3.08-0.77c-0.26-0.14-0.53-0.3-0.72-0.57
					c-0.22-0.33-0.26-0.74-0.29-1.11c-0.07-0.91-0.12-1.89,0.3-2.53c0.17-0.25,0.4-0.43,0.64-0.6c0.71-0.49,1.51-0.87,2.41-0.91
					c0.9-0.04,1.9,0.29,2.69,1.06c0.76,0.74,1.55,2.6,1.32,3.58C990.53,804.5,989.09,804.96,987.58,804.91z"/>
				<path class="st18" d="M1010.42,861.75c-1.13-0.04-2.3-0.36-3.08-0.77c-0.26-0.14-0.53-0.3-0.72-0.57
					c-0.22-0.33-0.26-0.74-0.29-1.11c-0.07-0.91-0.12-1.89,0.3-2.53c0.17-0.25,0.4-0.43,0.64-0.6c0.71-0.49,1.51-0.87,2.41-0.91
					c0.9-0.04,1.9,0.29,2.69,1.06c0.76,0.74,1.55,2.6,1.32,3.58C1013.37,861.34,1011.93,861.8,1010.42,861.75z"/>
				<path class="st18" d="M1016.83,847.71c-1.13-0.04-2.3-0.36-3.08-0.77c-0.26-0.14-0.53-0.3-0.72-0.57
					c-0.22-0.33-0.26-0.74-0.29-1.11c-0.07-0.91-0.12-1.89,0.3-2.53c0.17-0.25,0.4-0.43,0.64-0.6c0.71-0.49,1.51-0.87,2.41-0.91
					c0.9-0.04,1.9,0.29,2.69,1.06c0.76,0.74,1.55,2.6,1.32,3.58C1019.78,847.3,1018.35,847.76,1016.83,847.71z"/>
			</g>
		</g>
		<path class="st2" d="M997.18,883.23c15.12,0,27.37-12.25,27.37-27.37c0-15.12-12.25-118.83-27.37-118.83
			c1.29,8.89,1.29,18.07,1.84,27.02c0.51,8.32,2.32,15.59-0.25,23.88c-0.61,1.97-1.39,3.96-1.18,6.01c0.27,2.72,2.28,5.21,1.73,7.98
			c-0.66,3.36-2.7,5.5-2.3,9.29c0.29,2.7,1.38,5.3,1.42,8.02c0.04,2.76-1.01,5.5-0.57,8.22c0.4,2.46,1.99,4.74,1.69,7.22
			c-0.41,3.37-3.18,5.67-2.59,9.29c0.34,2.05,1.52,3.96,1.47,6.03c-0.04,1.64-0.86,3.16-1.04,4.79c-0.26,2.34,0.83,4.55,0.74,6.87
			c-0.09,2.36-1.57,4.41-1.51,6.8c0.07,2.59,2.61,4.29,2.65,6.92C999.32,877.95,996.31,880.8,997.18,883.23z"/>
	</g>
	<rect x="666.87" y="513.5" class="st8" width="320.81" height="13.24"/>
	<rect x="666.87" y="525.79" class="st0" width="320.81" height="13.24"/>
	<rect x="488.35" y="711.69" class="st7" width="28.15" height="5.93"/>
	<rect x="666.87" y="539.03" class="st19" width="287.01" height="40.65"/>
	<polygon class="st19" points="423.47,294.36 179.98,509.22 179.98,468.57 423.47,253.71 	"/>
	<polygon class="st19" points="423.11,294.36 666.59,509.22 666.59,468.57 423.11,253.71 	"/>
</g>
</svg>
