<?xml version="1.0" encoding="utf-8"?>
<!-- Generator: Adobe Illustrator 26.0.3, SVG Export Plug-In . SVG Version: 6.00 Build 0)  -->
<svg version="1.1" id="Layer_1" xmlns="http://www.w3.org/2000/svg" xmlns:xlink="http://www.w3.org/1999/xlink" x="0px" y="0px"
	 viewBox="0 0 1133.86 1133.86" style="enable-background:new 0 0 1133.86 1133.86;" xml:space="preserve">
<style type="text/css">
	.st0{fill:#E8BC72;}
	.st1{fill:#FFEDC9;}
	.st2{fill:#FFFFFF;}
	.st3{fill:#E8A669;}
	.st4{fill:#F3B781;}
	.st5{fill:url(#XMLID_00000084530026936303715420000002414374723942241420_);}
	.st6{fill:#83DDE2;}
	.st7{fill:#B1E1E6;}
	.st8{fill:#C3E5E8;}
	.st9{fill:#E1F3F5;}
	.st10{fill:#C5EAED;}
	.st11{fill:#FFCC9E;}
	.st12{fill:url(#XMLID_00000089576403706221217390000000624081282723558273_);}
	.st13{fill:#ED6F75;}
	.st14{fill:#F08895;}
	.st15{fill:#F3A2B1;}
	.st16{fill:#F7BEC1;}
	.st17{fill:url(#XMLID_00000123410927648326216640000009122541616507647925_);}
	.st18{fill:#DFA544;}
	.st19{fill:#EDCC95;}
	.st20{fill:#F7DCB0;}
</style>
<g id="XMLID_97_">
	<rect id="XMLID_102_" x="377.83" class="st0" width="377.83" height="1133.86"/>
	<polygon id="XMLID_101_" class="st1" points="755.66,776.63 566.75,569.45 377.83,776.63 377.83,566.93 377.83,357.23 
		566.75,569.45 755.66,357.23 755.66,566.93 	"/>
	<polygon id="XMLID_100_" class="st0" points="755.66,624.23 566.75,567.62 377.83,624.23 377.83,566.93 377.83,509.62 
		566.75,567.62 755.66,509.62 755.66,566.93 	"/>
	<polygon id="XMLID_99_" class="st1" points="755.66,1133.86 566.75,1133.86 377.83,1133.86 563.45,569.18 377.83,0 566.75,0 
		755.66,0 563.45,566.93 	"/>
	<polygon id="XMLID_98_" class="st0" points="624.87,1133.86 566.75,1133.86 508.62,1133.86 565.73,569.18 508.62,0 566.75,0 
		624.87,0 565.73,566.93 	"/>
</g>
<path id="XMLID_68_" class="st2" d="M551.39,253.81c7.95,8.26,9.93,40.24,9.93,40.24s-31.88-3.2-39.83-11.46
	c-7.95-8.26-7.69-21.39,0.56-29.34C530.31,245.3,543.44,245.55,551.39,253.81z"/>
<path id="XMLID_71_" class="st2" d="M581.22,218.48c-0.32,7.97-15.43,24.38-15.43,24.38s-13.75-17.56-13.44-25.53
	s7.04-14.17,15.01-13.86C575.34,203.79,581.54,210.51,581.22,218.48z"/>
<path id="XMLID_70_" class="st2" d="M635.56,283.57c-12.63,9.9-57.48,8.12-57.48,8.12s8.99-43.97,21.62-53.87
	c12.63-9.9,30.9-7.69,40.8,4.94C650.41,255.4,648.2,273.67,635.56,283.57z"/>
<path id="XMLID_83_" class="st2" d="M716.59,587.84c0-21.93-10.29-41.45-26.31-54.01c15.1-22.24,23.93-49.09,23.93-78
	c0-76.79-62.25-139.04-139.04-139.04s-139.04,62.25-139.04,139.04c0,19.51,4.03,38.09,11.28,54.94
	c-18.9,19.66-30.51,46.37-30.51,75.79c0,57.01,43.6,103.82,99.28,108.93c2.46,16.12,10.35,30.46,21.74,41.08v51.71
	c0,6.9,5.59,12.49,12.49,12.49c6.09,0,11.16-4.36,12.27-10.12v-27.14c0-6.9,5.59-12.49,12.49-12.49c6.9,0,12.49,5.59,12.49,12.49
	v1.69v48.24c0,9.76,7.91,17.68,17.68,17.68c9.76,0,17.68-7.91,17.68-17.68v-68.07c20.5-12.43,34.19-34.96,34.19-60.68
	c0-10.09-2.11-19.68-5.91-28.37C687.65,654.62,716.59,624.61,716.59,587.84z"/>
<g id="XMLID_4_">
	<path id="XMLID_31_" class="st3" d="M660.28,755.34l-3.9-208.28L502.1,603.2L633,765.27C642.18,776.64,660.55,769.95,660.28,755.34
		z"/>
	<path id="XMLID_30_" class="st4" d="M652.92,758.55c7.34-4.28-1.53-170.24-3.37-180.12c-1.11-5.99-46.78,12.68-61.64,22.43
		S648.94,760.87,652.92,758.55z"/>
	
		<linearGradient id="XMLID_00000150086993078316957180000016510781539919287974_" gradientUnits="userSpaceOnUse" x1="532.0131" y1="681.5618" x2="627.479" y2="680.8774" gradientTransform="matrix(-0.9397 0.342 0.342 0.9397 928.7042 -169.5685)">
		<stop  offset="0" style="stop-color:#FFCC9E"/>
		<stop  offset="1" style="stop-color:#F3B781"/>
	</linearGradient>
	<path id="XMLID_19_" style="fill:url(#XMLID_00000150086993078316957180000016510781539919287974_);" d="M646.35,755.42
		c4.48,1.33,8.99,2.62,13.52,3.89c0.29-1.25,0.44-2.57,0.41-3.97l0-0.18c-3.9-1.09-7.79-2.2-11.66-3.34
		c3.84-6.16,7.59-12.34,11.25-18.54l-0.15-7.85c-4.9,8.43-9.96,16.82-15.2,25.17c-9.55-2.86-19-5.86-28.34-9
		c5.34-8.22,10.51-16.49,15.5-24.79c9.24,2.96,18.59,5.77,28.04,8.44l-0.08-4.25c-8.7-2.46-17.31-5.05-25.83-7.75
		c4.95-8.31,9.73-16.66,14.33-25.03c3.63,1.09,7.28,2.17,10.94,3.21l-0.08-4.2c-2.98-0.85-5.95-1.72-8.9-2.61
		c2.92-5.37,5.77-10.75,8.55-16.14l-0.16-8.46c-3.96,7.83-8.06,15.64-12.32,23.42c-9.15-2.79-18.2-5.71-27.13-8.78
		c4.64-8.19,9.11-16.42,13.41-24.66c8.57,2.8,17.24,5.48,26.01,8.02l-0.08-4.14c-8.12-2.36-16.15-4.83-24.1-7.41
		c4.25-8.26,8.33-16.54,12.25-24.83c3.75,1.16,7.52,2.29,11.31,3.4l-0.08-4.09c-3.2-0.94-6.39-1.9-9.57-2.87
		c3.16-6.78,6.2-13.58,9.13-20.38l-0.18-9.44c-0.03,0.06-0.05,0.13-0.08,0.19c-8.67-2.56-17.24-5.27-25.7-8.1
		c4.04-9.28,7.87-18.57,11.49-27.87c-0.24-0.08-0.49-0.16-0.73-0.23l-3.76,1.37c-3.36,8.52-6.9,17.02-10.62,25.52
		c-8.43-2.88-16.76-5.89-24.98-9.03c0.64-1.41,1.27-2.81,1.9-4.22l-4.93,1.79c-0.16,0.36-0.32,0.72-0.49,1.07
		c-0.4-0.15-0.79-0.31-1.19-0.46l-5.32,1.93c1.64,0.65,3.28,1.3,4.93,1.95c-3.69,7.98-7.55,15.93-11.58,23.87
		c-8.26-3.35-16.41-6.82-24.44-10.42c0.88-1.68,1.75-3.35,2.61-5.03l-5.22,1.9c-0.28,0.53-0.55,1.06-0.83,1.58
		c-0.52-0.24-1.04-0.48-1.56-0.71l-5.01,1.82c1.6,0.74,3.2,1.48,4.8,2.22c-4.14,7.76-8.45,15.49-12.92,23.18
		c-8.84-4.17-17.54-8.49-26.1-12.95l-1.54,0.56c-0.44,0.73-0.88,1.46-1.32,2.18c8.86,4.65,17.87,9.15,27.04,13.5
		c-4.29,7.29-8.72,14.55-13.31,21.78l7.68,9.51c5.89,2.79,11.83,5.51,17.84,8.18c-1.62,2.61-3.26,5.21-4.92,7.81l2.6,3.21
		c2-3.14,3.98-6.29,5.93-9.44c8.44,3.69,16.99,7.25,25.65,10.68c-4.29,7.17-8.72,14.31-13.28,21.42l2.63,3.26
		c4.95-7.7,9.74-15.45,14.37-23.22c8.7,3.39,17.5,6.66,26.42,9.78c-4.7,8.16-9.56,16.29-14.6,24.38c-8.5-3.12-16.9-6.36-25.2-9.72
		l5.11,6.32c5.93,2.34,11.9,4.63,17.93,6.86c-1.8,2.86-3.62,5.72-5.47,8.57l2.67,3.3c2.25-3.48,4.47-6.97,6.66-10.46
		c9.02,3.28,18.16,6.43,27.4,9.43c-4.92,8.14-10.01,16.24-15.26,24.3l5.33,6.6c8.08,2.69,16.23,5.28,24.47,7.77
		c-2.63,4.15-5.31,8.3-8.02,12.43c1.03,1.02,2.14,1.85,3.31,2.5C640.52,764.57,643.47,760,646.35,755.42z M559.48,651.57
		c4.78-7.82,9.39-15.67,13.84-23.56c8.37,3.51,16.85,6.89,25.44,10.13c-4.38,8.04-8.94,16.06-13.66,24.04
		C576.46,658.77,567.91,655.23,559.48,651.57z M569.75,626.5c-4.45,7.86-9.08,15.7-13.86,23.49c-8.39-3.7-16.67-7.53-24.83-11.47
		c4.84-7.64,9.52-15.31,14.03-23.02C553.19,619.29,561.41,622.96,569.75,626.5z M584.36,599.43c-4.07,7.93-8.31,15.83-12.72,23.7
		c-8.33-3.52-16.54-7.17-24.64-10.94c4.46-7.72,8.76-15.47,12.89-23.25C567.94,592.56,576.09,596.06,584.36,599.43z M587.91,600.86
		c8.3,3.33,16.71,6.53,25.23,9.6c-4,8.1-8.17,16.18-12.51,24.23c-8.58-3.22-17.06-6.58-25.42-10.07
		C579.62,616.73,583.85,608.81,587.91,600.86z M626.21,582.61c-3.62,8.14-7.4,16.27-11.36,24.38c-8.51-3.05-16.91-6.23-25.2-9.54
		c4.02-7.96,7.87-15.93,11.55-23.93C609.42,576.68,617.76,579.72,626.21,582.61z M644.44,616.91c-8.75-2.74-17.4-5.61-25.94-8.62
		c3.94-8.13,7.72-16.28,11.33-24.44c8.47,2.86,17.05,5.58,25.73,8.17C652.02,600.33,648.31,608.63,644.44,616.91z M630.49,645.23
		c-8.83-2.92-17.55-5.97-26.17-9.16c4.33-8.07,8.49-16.17,12.48-24.3c8.55,3.03,17.21,5.93,25.97,8.69
		C638.84,628.73,634.75,636.99,630.49,645.23z M615.22,673.34c-8.91-3.1-17.71-6.34-26.39-9.71c4.71-8,9.26-16.04,13.63-24.11
		c8.62,3.21,17.36,6.29,26.2,9.23C624.34,656.98,619.87,665.18,615.22,673.34z M629.85,711.98c-9.23-2.98-18.35-6.1-27.37-9.36
		c5.03-8.11,9.88-16.27,14.57-24.45c8.95,3.09,18,6.04,27.16,8.85C639.59,695.37,634.8,703.69,629.85,711.98z"/>
	<path id="XMLID_18_" class="st3" d="M521.41,619.97l130.96-47.67c11.19-4.07,16.96-16.45,12.89-27.64l-4.22-11.59
		c-2.04-5.61-8.25-8.51-13.86-6.46l-151.21,55.03c-5.59,2.04-8.48,8.22-6.44,13.81l4.23,11.62
		C497.84,618.27,510.21,624.04,521.41,619.97z"/>
	<path id="XMLID_17_" class="st4" d="M496.57,581.43l150.06-54.62c5.92-2.15,12.46,0.9,14.62,6.82l4.02,11.03
		c1.62,4.45,1.68,9.09,0.46,13.32l-163.74,59.6c-3.65-2.46-6.59-6.05-8.21-10.5l-4.02-11.03
		C487.59,590.13,490.65,583.58,496.57,581.43z"/>
	<g id="XMLID_14_">
		<path id="XMLID_16_" class="st6" d="M470.8,584.01c3.9,10.71,12.51,11.67,24.53,7.68c2.89-0.96,7.65,33.6,25.99,27.18
			c11.52-4.03-0.64-15.65,8.51-18.98c7.68-2.8,23.08,18.36,25.54,28.76c9.64,40.85,43.58,22.82,24.18-8.39
			c-7.61-12.24-4.65-22.76-13.21-49.87c-3.77-11.93,1.87-14.25,11.51-17.76c52.76-19.2,95.71-15.67,85.32-44.22
			c-10.39-28.55-60.65-37.88-113.41-18.68C497,508.92,460.41,555.46,470.8,584.01z"/>
		<path id="XMLID_15_" class="st6" d="M467.7,534.92c16.54,45.45,40.75,15.39,86.19-1.15s94.92-13.3,78.38-58.74
			c-16.54-45.45-66.79-68.88-112.24-52.34S451.16,489.47,467.7,534.92z"/>
	</g>
	<path id="XMLID_13_" class="st7" d="M469.85,521.75c12.91,32.59,37.37-12.75,72.3-9.84c68.08,5.68,91.74-9.65,79.75-42.59
		c-11.99-32.94-49.36-59.99-98.26-42.19C490.7,439.12,451.95,476.58,469.85,521.75z"/>
	<path id="XMLID_12_" class="st7" d="M480.67,525.76l-8.57,0.72c0,0,9.82,17.39,7.44,25.53s-7.85,27.78,1.66,27.23
		c9.51-0.55,24.97-10.78,21.53-2.66c-5.92,13.97,4.23,38.76,15.22,28.93c6.24-5.58-4.06-17.27-4.2-25.34
		c-0.11-6.14,9.75-10.45,13.41-6.74c8.46,8.57,25.93,37.27,33.34,34.5c8.55-3.19-23.02-52.52,1.79-69.15
		c18.26-12.24,37.41-28.98,37.41-28.98s-45.66-12.43-47.93-13.06c-2.27-0.63-35.98,7.27-43.82,8.18
		C500.13,505.85,480.67,525.76,480.67,525.76z"/>
	<path id="XMLID_11_" class="st8" d="M470.61,498.3c4,26.38,14.75,28.91,15.6,40.88c2.44,34.3,53.66,18.96,62.99-5.18
		c19.69-50.95,71.84-35.86,59.85-68.8c-11.99-32.94-48.41-49.92-81.35-37.93S466.84,473.49,470.61,498.3z"/>
	<path id="XMLID_10_" class="st9" d="M487.67,472.66c3.18,43.1,22.45,65.77,58.89-2.26c7.75-14.46,46.03-13.73,40.38-29.13
		c-6.78-18.5-37.37-20.37-53.23-16.17C503.15,433.16,486.46,456.3,487.67,472.66z"/>
	<path id="XMLID_9_" class="st7" d="M590.99,521.26c4.45,12.22,20.86-7.86,37.21-1.58c18.34,7.04,23.06-4.57,23.46-9.15
		c0.76-8.59-9.03-20.32-25.49-14.33C609.71,502.18,589.42,516.94,590.99,521.26z"/>
	<path id="XMLID_8_" class="st10" d="M607.75,511.4c0.83,2.28,7.79,1.84,15.54-0.98c7.75-2.82,13.37-6.96,12.54-9.24
		c-0.83-2.28-7.79-1.84-15.54,0.98C612.54,504.99,606.93,509.12,607.75,511.4z"/>
	<path id="XMLID_7_" class="st11" d="M579.55,568.02l2.24,6.15c2.62,7.19,3.24,11.22,10.35,8.4l64.39-23.01
		c6.83-2.71,3.44-7.66,0.92-14.56l-2.14-5.88c-1.38-3.8-5.59-5.76-9.39-4.38l-61.26,22.3C580.23,558.66,577.93,563.57,579.55,568.02
		z"/>
</g>
<g id="XMLID_66_">
	<rect id="XMLID_60_" class="st6" width="377.83" height="1133.86"/>
	<polygon id="XMLID_64_" class="st8" points="377.83,776.63 188.92,569.45 0,776.63 0,566.93 0,357.23 188.92,569.45 377.83,357.23 
		377.83,566.93 	"/>
	<polygon id="XMLID_65_" class="st6" points="377.83,624.23 188.92,567.62 0,624.23 0,566.93 0,509.62 188.92,567.62 377.83,509.62 
		377.83,566.93 	"/>
	<polygon id="XMLID_59_" class="st8" points="377.83,1133.86 188.92,1133.86 0,1133.86 185.62,569.18 0,0 188.92,0 377.83,0 
		185.62,566.93 	"/>
	<polygon id="XMLID_61_" class="st6" points="247.04,1133.86 188.92,1133.86 130.79,1133.86 187.9,569.18 130.79,0 188.92,0 
		247.04,0 187.9,566.93 	"/>
</g>
<g>
	<path id="XMLID_74_" class="st2" d="M249.19,219.37c4.54,10.81-5.35,42.07-5.35,42.07s-29.25-14.8-33.79-25.61
		c-4.54-10.81,0.54-23.26,11.35-27.8C232.2,203.48,244.64,208.56,249.19,219.37z"/>
	<path id="XMLID_73_" class="st2" d="M291.78,200.06c-3.24,7.49-23.71,17.58-23.71,17.58s-6.66-21.83-3.42-29.32
		c3.24-7.49,11.94-10.94,19.43-7.7C291.58,183.87,295.02,192.57,291.78,200.06z"/>
	<path id="XMLID_72_" class="st2" d="M305.05,300.29c-15.71,4.8-57.86-13.42-57.86-13.42s24.78-38.66,40.48-43.46
		c15.71-4.8,32.33,4.05,37.13,19.75S320.76,295.5,305.05,300.29z"/>
	<path id="XMLID_67_" class="st2" d="M342.23,590.77c0-22.44-10.53-42.41-26.92-55.26c15.45-22.76,24.48-50.23,24.48-79.8
		c0-78.57-63.69-142.26-142.26-142.26S55.27,377.14,55.27,455.71c0,19.97,4.12,38.97,11.55,56.21
		c-19.33,20.12-31.22,47.44-31.22,77.55c0,58.33,44.61,106.23,101.57,111.45c2.52,16.49,10.59,31.16,22.24,42.03v52.91
		c0,7.06,5.72,12.78,12.78,12.78c6.23,0,11.42-4.46,12.55-10.36v-27.77c0-7.06,5.72-12.78,12.78-12.78
		c7.06,0,12.78,5.72,12.78,12.78v1.72v49.36c0,9.99,8.1,18.08,18.08,18.08c9.99,0,18.08-8.1,18.08-18.08v-69.64
		c20.97-12.72,34.98-35.77,34.98-62.09c0-10.32-2.16-20.14-6.04-29.03C312.62,659.1,342.23,628.4,342.23,590.77z"/>
	<g id="XMLID_3_">
		<path id="XMLID_2_" class="st3" d="M106.68,735.51l3.99-213.11l157.84,57.45L134.59,745.67
			C125.2,757.3,106.4,750.46,106.68,735.51z"/>
		<path id="XMLID_171_" class="st4" d="M114.21,738.79c-7.51-4.38,1.57-174.18,3.45-184.29c1.14-6.13,47.87,12.97,63.06,22.95
			C195.92,587.43,118.28,741.16,114.21,738.79z"/>
		
			<linearGradient id="XMLID_00000150082661816139031880000016748891449038834355_" gradientUnits="userSpaceOnUse" x1="96.5873" y1="447.8469" x2="194.2632" y2="447.1468" gradientTransform="matrix(0.9397 0.342 -0.342 0.9397 167.4551 176.7657)">
			<stop  offset="0" style="stop-color:#FFCC9E"/>
			<stop  offset="1" style="stop-color:#F3B781"/>
		</linearGradient>
		<path id="XMLID_209_" style="fill:url(#XMLID_00000150082661816139031880000016748891449038834355_);" d="M129.95,749.62
			c1.2-0.67,2.33-1.52,3.39-2.56c-2.78-4.23-5.52-8.47-8.21-12.72c8.43-2.54,16.77-5.19,25.03-7.95l5.46-6.76
			c-5.37-8.25-10.58-16.54-15.62-24.86c9.45-3.07,18.8-6.29,28.03-9.65c2.24,3.57,4.51,7.14,6.81,10.7l2.73-3.38
			c-1.89-2.92-3.75-5.84-5.59-8.77c6.17-2.28,12.28-4.62,18.34-7.02l5.22-6.47c-8.49,3.43-17.09,6.75-25.79,9.94
			c-5.15-8.28-10.13-16.59-14.93-24.94c9.12-3.2,18.14-6.54,27.03-10.01c4.74,7.95,9.64,15.88,14.7,23.76l2.69-3.33
			c-4.67-7.27-9.2-14.58-13.59-21.92c8.86-3.51,17.61-7.16,26.25-10.93c1.99,3.23,4.02,6.45,6.07,9.66l2.66-3.29
			c-1.7-2.66-3.38-5.33-5.03-8c6.14-2.72,12.23-5.51,18.25-8.37l7.86-9.73c-4.69-7.39-9.23-14.82-13.62-22.29
			c9.38-4.45,18.6-9.05,27.66-13.81c-0.45-0.74-0.9-1.49-1.35-2.24l-1.58-0.57c-8.75,4.56-17.65,8.98-26.7,13.25
			c-4.57-7.87-8.98-15.78-13.22-23.72c1.64-0.75,3.28-1.51,4.92-2.27l-5.12-1.86c-0.53,0.24-1.06,0.49-1.6,0.73
			c-0.28-0.54-0.57-1.08-0.85-1.62l-5.34-1.94c0.88,1.72,1.77,3.43,2.67,5.15c-8.22,3.68-16.56,7.24-25.01,10.66
			c-4.12-8.12-8.07-16.26-11.85-24.42c1.69-0.66,3.37-1.32,5.05-1.99l-5.44-1.98c-0.4,0.16-0.81,0.32-1.21,0.47
			c-0.17-0.37-0.33-0.73-0.5-1.1l-5.04-1.84c0.64,1.44,1.29,2.88,1.94,4.32c-8.41,3.21-16.93,6.29-25.56,9.24
			c-3.81-8.69-7.43-17.39-10.87-26.11l-3.85-1.4c-0.25,0.08-0.5,0.16-0.74,0.24c3.7,9.52,7.62,19.03,11.75,28.52
			c-8.66,2.9-17.43,5.67-26.3,8.29c-0.03-0.07-0.05-0.13-0.08-0.2l-0.18,9.66c3,6.96,6.11,13.91,9.34,20.85
			c-3.25,1-6.51,1.98-9.79,2.94l-0.08,4.18c3.88-1.14,7.73-2.3,11.57-3.48c4,8.49,8.18,16.96,12.53,25.41
			c-8.13,2.64-16.35,5.17-24.66,7.58l-0.08,4.24c8.97-2.6,17.84-5.33,26.61-8.2c4.4,8.44,8.97,16.85,13.72,25.23
			c-9.15,3.13-18.4,6.13-27.76,8.98c-4.35-7.96-8.55-15.95-12.6-23.96l-0.16,8.66c2.84,5.52,5.76,11.02,8.75,16.52
			c-3.02,0.9-6.06,1.79-9.11,2.67l-0.08,4.3c3.75-1.07,7.48-2.17,11.2-3.29c4.71,8.57,9.6,17.11,14.66,25.61
			c-8.72,2.77-17.53,5.41-26.43,7.93l-0.08,4.35c9.67-2.73,19.23-5.61,28.69-8.64c5.11,8.49,10.4,16.95,15.86,25.37
			c-9.56,3.21-19.22,6.29-29,9.21c-5.36-8.55-10.54-17.14-15.55-25.76l-0.15,8.03c3.74,6.34,7.58,12.67,11.51,18.97
			c-3.96,1.16-7.94,2.3-11.93,3.42l0,0.19c-0.03,1.43,0.12,2.79,0.42,4.06c4.63-1.29,9.24-2.62,13.83-3.98
			C123.88,740.28,126.89,744.96,129.95,749.62z M183.59,640.19c-4.83-8.17-9.49-16.37-13.97-24.6c8.79-3.32,17.47-6.78,26.03-10.37
			c4.55,8.07,9.27,16.11,14.16,24.11C201.18,633.09,192.44,636.71,183.59,640.19z M224.54,592.43c4.62,7.89,9.4,15.74,14.36,23.55
			c-8.35,4.04-16.82,7.95-25.41,11.74c-4.9-7.98-9.63-15.99-14.18-24.04C207.84,600.06,216.25,596.31,224.54,592.43z M209.38,565.26
			c4.23,7.96,8.62,15.89,13.19,23.79c-8.28,3.86-16.69,7.59-25.21,11.19c-4.51-8.05-8.85-16.14-13.01-24.25
			C192.81,572.54,201.16,568.96,209.38,565.26z M193.71,601.77c-8.55,3.56-17.22,7-26.01,10.3c-4.44-8.24-8.7-16.5-12.8-24.79
			c8.72-3.14,17.32-6.42,25.81-9.83C184.88,585.59,189.21,593.69,193.71,601.77z M167.13,549.48c3.77,8.18,7.71,16.35,11.82,24.49
			c-8.48,3.39-17.08,6.64-25.79,9.76c-4.04-8.29-7.92-16.61-11.62-24.94C150.18,555.82,158.71,552.72,167.13,549.48z M111.51,568.4
			c8.88-2.64,17.66-5.43,26.33-8.36c3.69,8.35,7.56,16.69,11.59,25.01c-8.74,3.08-17.59,6.02-26.54,8.82
			C118.92,585.4,115.13,576.91,111.51,568.4z M124.6,597.51c8.96-2.82,17.82-5.79,26.57-8.89c4.08,8.31,8.34,16.6,12.77,24.86
			c-8.81,3.26-17.74,6.39-26.78,9.37C132.8,614.42,128.61,605.97,124.6,597.51z M139.04,626.45c9.04-3.01,17.98-6.16,26.8-9.44
			c4.48,8.25,9.13,16.48,13.95,24.67c-8.89,3.45-17.89,6.76-27,9.94C148.03,643.26,143.44,634.87,139.04,626.45z M123.12,665.61
			c9.37-2.87,18.64-5.89,27.79-9.05c4.79,8.37,9.76,16.71,14.9,25.02c-9.22,3.33-18.56,6.52-28,9.57
			C132.74,682.67,127.84,674.15,123.12,665.61z"/>
		<path id="XMLID_1_" class="st3" d="M248.77,597.01l-133.99-48.77c-11.45-4.17-17.36-16.83-13.19-28.28l4.32-11.86
			c2.09-5.74,8.44-8.7,14.18-6.61l154.71,56.31c5.72,2.08,8.67,8.41,6.59,14.13l-4.33,11.89
			C272.88,595.27,260.22,601.17,248.77,597.01z"/>
		<path id="XMLID_33_" class="st4" d="M274.18,557.57l-153.53-55.88c-6.06-2.2-12.75,0.92-14.96,6.97l-4.11,11.29
			c-1.66,4.56-1.72,9.3-0.47,13.63l167.53,60.98c3.74-2.52,6.74-6.19,8.4-10.75l4.11-11.29
			C283.36,566.47,280.24,559.78,274.18,557.57z"/>
		<g id="XMLID_229_">
			<path id="XMLID_170_" class="st13" d="M300.54,560.21c-3.99,10.95-12.8,11.94-25.09,7.86c-2.96-0.98-7.83,34.38-26.59,27.81
				c-11.79-4.13,0.65-16.02-8.71-19.42c-7.86-2.86-15.85,33.16-26.13,29.42c-21.48-7.82,3.68-43.28-1.17-56.72
				c-4.35-12.04-11.98-17.47-21.84-21.06c-53.98-19.65-97.93-16.03-87.3-45.24c10.63-29.21,62.05-38.76,116.03-19.11
				C273.73,483.39,311.18,531,300.54,560.21z"/>
			<path id="XMLID_222_" class="st13" d="M303.72,509.99c-16.92,46.5-41.69,15.74-88.19-1.18c-46.5-16.92-97.12-13.61-80.19-60.1
				s68.34-70.47,114.83-53.55C296.67,412.08,320.64,463.49,303.72,509.99z"/>
		</g>
		<path id="XMLID_223_" class="st14" d="M301.52,496.51c-13.21,33.34-38.24-13.05-73.98-10.07c-69.66,5.81-93.87-9.88-81.6-43.58
			c12.27-33.7,50.5-61.38,100.54-43.17C280.18,411.97,319.83,450.29,301.52,496.51z"/>
		<path id="XMLID_226_" class="st14" d="M290.44,500.62l8.77,0.74c0,0-10.04,17.79-7.61,26.13c2.43,8.34,8.03,28.43-1.7,27.86
			s-25.55-11.03-22.03-2.72c6.06,14.29-4.33,39.66-15.58,29.6c-6.38-5.71,4.16-17.67,4.3-25.92c0.11-6.28-9.97-10.69-13.72-6.9
			c-8.66,8.77-9.6,21.41-17.19,18.58c-8.75-3.27,4.67-36.3-10.58-52.82c-15.25-16.53-46.45-30.86-46.45-30.86
			s46.72-12.72,49.04-13.36c2.32-0.65,36.81,7.44,44.83,8.37C270.54,480.24,290.44,500.62,290.44,500.62z"/>
		<path id="XMLID_225_" class="st15" d="M300.74,472.52c-4.1,26.99-24.86,25.11-21.45,36.9c11.51,39.79-31.91,38.34-41.45,13.64
			c-20.15-52.13-91.01-50.7-78.74-84.4c12.27-33.7,49.53-51.08,83.23-38.81C276.02,412.12,304.59,447.13,300.74,472.52z"/>
		<path id="XMLID_224_" class="st16" d="M283.29,446.29c-5.74,15.77-41.94-8.51-57.71-14.25c-15.77-5.74-49.63-2.11-43.85-17.88
			c6.93-18.93,38.23-20.84,54.46-16.55C267.45,405.88,289.03,430.51,283.29,446.29z"/>
		<path id="XMLID_227_" class="st14" d="M177.57,496.01c-4.55,12.5-21.34-8.04-38.07-1.62c-18.76,7.2-23.59-4.68-24-9.36
			c-0.77-8.79,9.24-20.79,26.08-14.66C158.41,476.49,179.18,491.59,177.57,496.01z"/>
		
			<ellipse id="XMLID_228_" transform="matrix(0.342 -0.9397 0.9397 0.342 -355.6069 453.5328)" class="st15" cx="146.05" cy="480.7" rx="4.49" ry="15.29"/>
		<path id="XMLID_218_" class="st11" d="M189.27,543.85l-2.29,6.29c-2.68,7.36-3.31,11.48-10.59,8.6l-65.88-23.54
			c-6.99-2.77-3.52-7.83-0.95-14.9l2.19-6.01c1.42-3.89,5.72-5.9,9.61-4.48l62.68,22.81C188.58,534.27,190.93,539.3,189.27,543.85z"
			/>
	</g>
</g>
<g id="XMLID_117_">
	<rect id="XMLID_122_" x="756.03" class="st14" width="377.83" height="1133.86"/>
	<polygon id="XMLID_121_" class="st16" points="1133.86,776.63 944.94,569.45 756.03,776.63 756.03,566.93 756.03,357.23 
		944.94,569.45 1133.86,357.23 1133.86,566.93 	"/>
	<polygon id="XMLID_120_" class="st14" points="1133.86,624.23 944.94,567.62 756.03,624.23 756.03,566.93 756.03,509.62 
		944.94,567.62 1133.86,509.62 1133.86,566.93 	"/>
	<polygon id="XMLID_119_" class="st16" points="1133.86,1133.86 944.94,1133.86 756.03,1133.86 941.65,569.18 756.03,0 944.94,0 
		1133.86,0 941.65,566.93 	"/>
	<polygon id="XMLID_118_" class="st14" points="1003.07,1133.86 944.94,1133.86 886.82,1133.86 943.93,569.18 886.82,0 944.94,0 
		1003.07,0 943.93,566.93 	"/>
</g>
<path id="XMLID_187_" class="st2" d="M858.06,285.3c8.19,10.71,6.23,48.35,6.23,48.35s-36.83-8-45.02-18.71
	c-8.19-10.71-6.14-26.03,4.57-34.21C834.56,272.55,849.88,274.59,858.06,285.3z"/>
<path id="XMLID_189_" class="st2" d="M898.75,238.63c-0.66,8.96-18.28,26.86-18.28,26.86s-14.82-20.28-14.17-29.24
	s8.45-15.69,17.41-15.03S899.4,229.67,898.75,238.63z"/>
<path id="XMLID_69_" class="st2" d="M839.01,221.9c4.36,6.14,2.53,27.11,2.53,27.11s-20.4-5.19-24.76-11.33
	c-4.36-6.14-2.91-14.65,3.23-19.01C826.14,214.32,834.65,215.76,839.01,221.9z"/>
<path id="XMLID_104_" class="st2" d="M1104.82,617.83c0-23.19-10.89-43.84-27.83-57.12c15.97-23.53,25.31-51.92,25.31-82.5
	c0-81.22-65.84-147.06-147.06-147.06c-81.22,0-147.06,65.84-147.06,147.06c0,20.64,4.26,40.28,11.94,58.11
	c-19.99,20.8-32.27,49.05-32.27,80.17c0,60.3,46.12,109.81,105,115.22c2.6,17.05,10.94,32.21,22.99,43.45v54.69
	c0,7.3,5.92,13.21,13.21,13.21c6.44,0,11.8-4.61,12.97-10.71v-28.7c0-7.3,5.92-13.21,13.21-13.21c7.3,0,13.21,5.92,13.21,13.21v1.78
	v51.03c0,10.32,8.37,18.69,18.69,18.69c10.32,0,18.69-8.37,18.69-18.69v-71.99c21.68-13.15,36.16-36.97,36.16-64.18
	c0-10.67-2.23-20.82-6.25-30.01C1074.2,688.47,1104.82,656.73,1104.82,617.83z"/>
<g id="XMLID_6_">
	<path id="XMLID_57_" class="st3" d="M866.58,736.93l4.13-220.3l163.17,59.39L895.44,747.43
		C885.72,759.46,866.29,752.39,866.58,736.93z"/>
	<path id="XMLID_56_" class="st4" d="M874.37,740.32c-7.77-4.53,1.62-180.06,3.56-190.51c1.18-6.33,49.48,13.41,65.19,23.73
		C958.83,583.86,878.57,742.78,874.37,740.32z"/>
	
		<linearGradient id="XMLID_00000111184964202743222200000002922923196166517946_" gradientUnits="userSpaceOnUse" x1="930.7307" y1="871.3881" x2="1031.7032" y2="870.6642" gradientTransform="matrix(0.9397 0.342 -0.342 0.9397 288.3089 -508.6306)">
		<stop  offset="0" style="stop-color:#FFCC9E"/>
		<stop  offset="1" style="stop-color:#F3B781"/>
	</linearGradient>
	<path id="XMLID_45_" style="fill:url(#XMLID_00000111184964202743222200000002922923196166517946_);" d="M890.64,751.52
		c1.24-0.69,2.41-1.57,3.5-2.65c-2.87-4.37-5.7-8.75-8.49-13.15c8.71-2.63,17.34-5.37,25.88-8.21l5.64-6.99
		c-5.56-8.53-10.94-17.1-16.14-25.7c9.77-3.18,19.43-6.51,28.98-9.98c2.31,3.7,4.66,7.38,7.04,11.06l2.82-3.49
		c-1.95-3.02-3.88-6.04-5.78-9.07c6.37-2.35,12.7-4.77,18.96-7.25l5.4-6.69c-8.78,3.55-17.67,6.98-26.66,10.28
		c-5.33-8.56-10.47-17.15-15.44-25.78c9.43-3.31,18.75-6.76,27.95-10.35c4.9,8.22,9.96,16.41,15.19,24.56l2.78-3.45
		c-4.83-7.52-9.51-15.07-14.05-22.66c9.16-3.63,18.21-7.4,27.13-11.3c2.06,3.34,4.15,6.66,6.27,9.98l2.74-3.4
		c-1.75-2.75-3.49-5.51-5.2-8.27c6.35-2.82,12.64-5.7,18.86-8.65l8.12-10.06c-4.85-7.64-9.54-15.32-14.08-23.04
		c9.69-4.6,19.23-9.36,28.59-14.28c-0.47-0.77-0.93-1.54-1.4-2.31l-1.63-0.59c-9.05,4.71-18.25,9.28-27.6,13.69
		c-4.73-8.14-9.28-16.32-13.66-24.52c1.7-0.78,3.39-1.56,5.08-2.34l-5.3-1.93c-0.55,0.25-1.1,0.5-1.65,0.75
		c-0.29-0.56-0.59-1.12-0.88-1.68l-5.52-2.01c0.91,1.78,1.83,3.55,2.76,5.32c-8.5,3.81-17.12,7.48-25.85,11.02
		c-4.26-8.39-8.34-16.81-12.24-25.24c1.74-0.68,3.48-1.37,5.22-2.06l-5.62-2.05c-0.42,0.16-0.84,0.33-1.26,0.49
		c-0.17-0.38-0.34-0.76-0.51-1.13l-5.21-1.9c0.67,1.49,1.33,2.98,2.01,4.46c-8.69,3.32-17.5,6.51-26.42,9.55
		c-3.94-8.98-7.68-17.98-11.23-26.99l-3.98-1.45c-0.26,0.08-0.51,0.17-0.77,0.25c3.82,9.84,7.87,19.67,12.15,29.48
		c-8.95,3-18.02,5.86-27.18,8.57c-0.03-0.07-0.06-0.14-0.09-0.2l-0.19,9.98c3.1,7.19,6.32,14.38,9.66,21.55
		c-3.36,1.03-6.73,2.04-10.12,3.04l-0.08,4.32c4.01-1.17,8-2.37,11.96-3.6c4.14,8.78,8.46,17.54,12.95,26.27
		c-8.41,2.73-16.91,5.34-25.49,7.83l-0.08,4.38c9.27-2.69,18.44-5.51,27.51-8.48c4.55,8.72,9.27,17.42,14.18,26.09
		c-9.45,3.24-19.02,6.34-28.7,9.28c-4.5-8.23-8.84-16.49-13.03-24.77l-0.17,8.95c2.94,5.7,5.95,11.4,9.04,17.08
		c-3.13,0.93-6.27,1.85-9.41,2.76l-0.08,4.44c3.87-1.11,7.73-2.24,11.57-3.4c4.87,8.86,9.93,17.69,15.16,26.48
		c-9.01,2.86-18.12,5.59-27.32,8.2l-0.08,4.49c10-2.83,19.88-5.8,29.66-8.93c5.29,8.78,10.75,17.52,16.4,26.22
		c-9.88,3.32-19.87,6.5-29.98,9.52c-5.54-8.84-10.9-17.71-16.08-26.63l-0.16,8.3c3.87,6.56,7.83,13.09,11.9,19.61
		c-4.09,1.2-8.2,2.38-12.33,3.53l0,0.2c-0.03,1.48,0.13,2.88,0.44,4.2c4.79-1.34,9.55-2.71,14.29-4.11
		C884.36,741.86,887.47,746.7,890.64,751.52z M946.08,638.4c-4.99-8.44-9.81-16.92-14.45-25.43c9.09-3.43,18.06-7.01,26.91-10.72
		c4.7,8.34,9.58,16.65,14.64,24.92C964.27,631.05,955.24,634.79,946.08,638.4z M988.42,589.02c4.77,8.15,9.72,16.27,14.84,24.35
		c-8.63,4.18-17.39,8.22-26.26,12.14c-5.06-8.25-9.95-16.53-14.66-24.85C971.15,596.91,979.85,593.03,988.42,589.02z M972.75,560.94
		c4.37,8.23,8.92,16.42,13.64,24.59c-8.56,3.99-17.25,7.84-26.06,11.57c-4.66-8.33-9.14-16.68-13.45-25.07
		C955.62,568.46,964.25,564.76,972.75,560.94z M956.55,598.68c-8.84,3.69-17.81,7.24-26.88,10.65c-4.59-8.52-9-17.06-13.23-25.63
		c9.01-3.25,17.91-6.63,26.69-10.16C947.42,581.95,951.9,590.33,956.55,598.68z M929.07,544.63c3.9,8.46,7.97,16.9,12.22,25.31
		c-8.77,3.5-17.66,6.87-26.66,10.09c-4.18-8.57-8.19-17.17-12.01-25.78C911.55,551.18,920.37,547.97,929.07,544.63z M871.57,564.19
		c9.18-2.73,18.25-5.61,27.22-8.64c3.82,8.64,7.81,17.25,11.98,25.85c-9.03,3.18-18.18,6.22-27.43,9.12
		C879.24,581.76,875.31,572.98,871.57,564.19z M885.1,594.27c9.27-2.92,18.42-5.98,27.47-9.19c4.22,8.59,8.62,17.16,13.2,25.7
		c-9.11,3.37-18.34,6.6-27.68,9.69C893.58,611.76,889.25,603.02,885.1,594.27z M900.03,624.19c9.35-3.11,18.59-6.36,27.71-9.76
		c4.63,8.53,9.43,17.03,14.42,25.5c-9.19,3.57-18.5,6.99-27.92,10.27C909.32,641.57,904.59,632.89,900.03,624.19z M883.58,664.67
		c9.69-2.97,19.27-6.09,28.73-9.36c4.96,8.66,10.09,17.28,15.41,25.86c-9.53,3.44-19.18,6.75-28.95,9.9
		C893.52,682.31,888.46,673.5,883.58,664.67z"/>
	<path id="XMLID_44_" class="st3" d="M1013.46,593.75l-138.52-50.42c-11.84-4.31-17.94-17.4-13.63-29.24l4.46-12.26
		c2.16-5.94,8.72-9,14.66-6.84l159.93,58.21c5.91,2.15,8.96,8.69,6.81,14.61l-4.47,12.29
		C1038.39,591.96,1025.3,598.06,1013.46,593.75z"/>
	<path id="XMLID_43_" class="st4" d="M1039.74,552.99l-158.71-57.77c-6.26-2.28-13.18,0.95-15.46,7.21l-4.25,11.67
		c-1.71,4.71-1.78,9.62-0.49,14.09l173.19,63.04c3.86-2.6,6.97-6.4,8.69-11.11l4.25-11.67
		C1049.23,562.19,1046,555.27,1039.74,552.99z"/>
	<g id="XMLID_40_">
		<path id="XMLID_42_" class="st18" d="M1066.99,555.72c-4.12,11.32-13.23,12.34-25.94,8.12c-3.06-1.02-8.09,35.54-27.49,28.75
			c-12.19-4.27,0.67-16.56-9-20.08c-8.13-2.96-24.41,19.42-27.01,30.41c-10.2,43.21-46.1,24.14-25.58-8.88
			c8.04-12.94,4.91-24.07,13.97-52.75c3.98-12.62-1.98-15.07-12.17-18.78c-55.8-20.31-101.23-16.57-90.24-46.77
			s64.15-40.06,119.95-19.76C1039.27,476.3,1077.98,525.52,1066.99,555.72z"/>
		<path id="XMLID_5_" class="st0" d="M1066.99,555.72c-4.12,11.32-12.55,5.49-25.27,1.27c-3.06-1.02-6.31,38.94-25.7,32.16
			c-12.19-4.27,1.15-21.08-8.52-24.6c-8.13-2.96-28.68,17.57-31.27,28.57c-10.2,43.21-37.53,24.39-17.01-8.62
			c8.04-12.94-2.32-14.51,6.73-43.19c3.98-12.62,4.01-25.74-6.18-29.45c-55.8-20.31-98.79-6.03-87.8-36.23
			c10.99-30.2,55.71-39.93,111.51-19.62C1039.27,476.3,1077.98,525.52,1066.99,555.72z"/>
		<path id="XMLID_41_" class="st0" d="M1070.27,503.8c-17.49,48.07-43.1,16.27-91.17-1.22c-48.07-17.49-100.39-14.07-82.9-62.13
			c17.49-48.07,70.64-72.85,118.71-55.36C1062.98,402.58,1087.76,455.73,1070.27,503.8z"/>
	</g>
	<path id="XMLID_39_" class="st19" d="M1068,489.87c-13.66,34.47-39.53-13.49-76.47-10.41c-72.01,6.01-97.03-10.21-84.35-45.05
		c12.68-34.84,52.21-63.45,103.93-44.63C1045.94,402.47,1086.93,442.09,1068,489.87z"/>
	<path id="XMLID_38_" class="st19" d="M1056.55,494.11l9.06,0.76c0,0-10.38,18.39-7.87,27.01c2.51,8.62,8.31,29.38-1.75,28.8
		c-10.06-0.58-26.41-11.4-22.77-2.81c6.26,14.78-4.48,40.99-16.1,30.6c-6.6-5.9,4.3-18.27,4.45-26.8
		c0.11-6.5-10.31-11.05-14.18-7.13c-8.95,9.07-27.42,39.42-35.27,36.49c-5.52-2.06,30.69-34.05,12.43-48.14
		c-19.93-15.38-9.49-28.67-7.38-38.36c4.96-22.71-46.52-17.3-46.52-17.3s48.29-13.15,50.69-13.81s38.05,7.69,46.34,8.65
		C1035.97,473.05,1056.55,494.11,1056.55,494.11z"/>
	<path id="XMLID_37_" class="st20" d="M1067.19,465.07c-4.24,27.9-15.6,30.58-16.5,43.24c-2.58,36.28-93.8,18.78-66.62-5.48
		c43.1-38.47-75.98-37.93-63.3-72.76c12.68-34.84,51.2-52.8,86.04-40.12C1041.64,402.62,1071.17,438.82,1067.19,465.07z"/>
	<path id="XMLID_36_" class="st1" d="M1049.15,437.95c-3.36,45.59-34.8,23.39-70.2,1.61c-14.78-9.09-40.76-18.52-34.79-34.81
		c7.17-19.57,39.52-21.54,56.3-17.11C1032.78,396.17,1050.43,420.64,1049.15,437.95z"/>
	<path id="XMLID_35_" class="st19" d="M939.86,489.35c-4.7,12.92-22.06-8.31-39.36-1.67c-19.4,7.44-24.38-4.83-24.81-9.68
		c-0.8-9.09,9.55-21.5,26.96-15.16C920.06,469.17,941.53,484.78,939.86,489.35z"/>
	
		<ellipse id="XMLID_34_" transform="matrix(0.342 -0.9397 0.9397 0.342 152.0137 1164.1326)" class="st20" cx="907.28" cy="473.52" rx="4.64" ry="15.8"/>
	<path id="XMLID_32_" class="st11" d="M951.96,538.8l-2.37,6.51c-2.77,7.61-3.43,11.87-10.95,8.89l-68.11-24.33
		c-7.23-2.87-3.64-8.1-0.98-15.4l2.26-6.22c1.46-4.02,5.91-6.1,9.94-4.63l64.79,23.58C951.25,528.9,953.67,534.1,951.96,538.8z"/>
</g>
</svg>
