<?xml version="1.0" encoding="utf-8"?>
<!-- Generator: Adobe Illustrator 26.0.3, SVG Export Plug-In . SVG Version: 6.00 Build 0)  -->
<svg version="1.1" id="Layer_1" xmlns="http://www.w3.org/2000/svg" xmlns:xlink="http://www.w3.org/1999/xlink" x="0px" y="0px"
	 viewBox="0 0 1133.86 1133.86" style="enable-background:new 0 0 1133.86 1133.86;" xml:space="preserve">
<style type="text/css">
	.st0{fill:#FFFFFF;}
	.st1{opacity:0.29;fill:#231F20;}
	.st2{fill:#5F2D37;}
	.st3{fill:#EE4036;}
	.st4{opacity:0.25;fill:#FFFFFF;}
	.st5{fill:#FAAF40;}
	.st6{fill:#ACD6F2;}
	.st7{fill:#404041;}
	.st8{fill:#F05A28;}
	.st9{fill:#FFD9A0;}
	.st10{fill:#003B5F;}
	.st11{fill:#BBBDBF;}
</style>
<g>
	<g>
		<polygon class="st0" points="228.68,111.51 199.72,53.41 170.77,111.51 183.42,211.29 216.03,211.29 		"/>
		<polygon class="st1" points="228.68,111.51 196.25,56.16 216,115.57 206.05,211.29 216.03,211.29 		"/>
		<path class="st2" d="M220.31,216.15h-41.18l-13.37-105.49l33.96-68.14l33.96,68.14L220.31,216.15z M187.7,206.43h24.05
			l11.93-94.08L199.72,64.3l-23.95,48.05L187.7,206.43z"/>
		<rect x="162.77" y="196.71" class="st0" width="73.92" height="29.17"/>
		<rect x="220.55" y="196.71" class="st1" width="16.14" height="29.17"/>
		<path class="st2" d="M241.54,230.74h-83.63v-38.89h83.63V230.74z M167.62,221.02h64.2v-19.45h-64.2V221.02z"/>
		<rect x="168.82" y="173.11" class="st0" width="61.81" height="23.6"/>
		<rect x="211.18" y="173.11" class="st1" width="19.45" height="23.6"/>
		<path class="st2" d="M235.49,201.57h-71.53v-33.31h71.53V201.57z M173.68,191.85h52.1v-13.88h-52.1V191.85z"/>
		<path class="st3" d="M218.73,1046.45L218.73,1046.45c-15.15,19.88-22.86,19.88-38.02,0l0,0c-27.01-35.44-41.24-78.98-40.36-123.53
			l12.44-700.06c0.15-4.32,3.69-7.75,8.01-7.75h77.85c4.32,0,7.87,3.43,8.01,7.75l12.44,700.06
			C259.97,967.47,245.75,1011.01,218.73,1046.45z"/>
		<path class="st4" d="M176.48,1026.56c-2.54-5.27-5.69,8.7-7.75,3.24c-8.83-23.36,0.41-814.68,0.41-814.68h14.29
			C183.42,215.12,182.21,1038.42,176.48,1026.56z"/>
		<path class="st1" d="M259.1,922.92l-12.44-700.06c-0.15-4.32-3.69-7.75-8.01-7.75h-23.65v836c1.2-1.41,2.44-2.96,3.74-4.66l0,0
			C245.75,1011.01,259.97,967.47,259.1,922.92z"/>
		<path class="st2" d="M199.72,1066.22C199.72,1066.22,199.72,1066.22,199.72,1066.22c-8.83,0-16.21-8.09-22.87-16.82
			c-27.56-36.16-42.25-81.11-41.36-126.57l12.44-700.05c0.24-7.05,5.89-12.52,12.87-12.52h77.85c6.98,0,12.63,5.47,12.87,12.44
			l12.44,700.13c0.89,45.45-13.79,90.4-41.36,126.56v0C215.94,1058.13,208.56,1066.22,199.72,1066.22z M160.8,219.98
			c-1.71,0-3.1,1.34-3.16,3.05l-12.44,699.98c-0.85,43.28,13.13,86.07,39.37,120.5c6.76,8.87,11.57,13,15.15,13s8.39-4.13,15.15-13
			h0c26.24-34.42,40.22-77.21,39.37-120.49L241.8,222.95c-0.06-1.63-1.44-2.98-3.15-2.98H160.8z"/>
		<rect x="143.45" y="426.22" class="st5" width="112.55" height="27.02"/>
		<rect x="166.32" y="426.22" class="st4" width="17.09" height="27.02"/>
		<rect x="234.89" y="426.22" class="st1" width="21.11" height="27.02"/>
		<path class="st2" d="M260.86,458.1H138.59v-36.74h122.27V458.1z M148.31,448.38h102.84v-17.3H148.31V448.38z"/>
		<rect x="135.4" y="767.45" class="st5" width="128.65" height="27.02"/>
		<rect x="164.9" y="767.45" class="st4" width="16.24" height="27.02"/>
		<rect x="234.08" y="767.45" class="st1" width="29.97" height="27.02"/>
		<path class="st2" d="M268.9,799.33H130.54v-36.74H268.9V799.33z M140.26,789.61h118.93v-17.3H140.26V789.61z"/>
		<path class="st5" d="M217.37,1086.48h-35.3c-2.58,0-4.67-2.09-4.67-4.67V864.04c0-1.63,1.32-2.94,2.94-2.94h38.75
			c1.63,0,2.94,1.32,2.94,2.94v217.77C222.04,1084.39,219.95,1086.48,217.37,1086.48z"/>
		<polygon class="st4" points="185.93,861.1 194.17,861.1 194.17,1086.29 186.46,1083.85 		"/>
		<path class="st1" d="M209.09,861.15v223.23c7.64-3.54,12.95-11.25,12.95-20.22V875.17C222.04,867.78,216.34,861.73,209.09,861.15z
			"/>
		<path class="st2" d="M199.72,1091.34c-14.99,0-27.18-12.19-27.18-27.18v-187.6c0-11.21,9.12-20.32,20.32-20.32h13.71
			c11.21,0,20.32,9.12,20.32,20.32v187.6C226.9,1079.15,214.71,1091.34,199.72,1091.34z M192.87,865.95
			c-5.85,0-10.61,4.76-10.61,10.61v187.6c0,9.63,7.83,17.46,17.46,17.46s17.46-7.83,17.46-17.46v-187.6
			c0-5.85-4.76-10.61-10.61-10.61H192.87z"/>
		<path class="st2" d="M199.72,127.73c-3.57,0-6.48-2.91-6.48-6.48s2.91-6.48,6.48-6.48c3.57,0,6.48,2.91,6.48,6.48
			S203.3,127.73,199.72,127.73z M199.72,117.55c-2.04,0-3.7,1.66-3.7,3.7c0,2.04,1.66,3.7,3.7,3.7s3.7-1.66,3.7-3.7
			C203.43,119.21,201.76,117.55,199.72,117.55z"/>
	</g>
	<g>
		<path class="st6" d="M995.87,828.7H486.38l27.71-322.53c1.5-17.45,16.1-30.84,33.61-30.84h386.86c17.51,0,32.11,13.4,33.61,30.84
			L995.87,828.7z"/>
		<polygon class="st7" points="995.87,828.7 486.38,828.7 506.13,598.82 976.12,598.82 		"/>
		<g>
			<ellipse class="st8" cx="741.13" cy="666.59" rx="212.46" ry="82"/>
			<ellipse class="st9" cx="741.13" cy="666.59" rx="175.59" ry="67.77"/>
		</g>
		<g>
			<path class="st7" d="M653.56,631.29v70.59h-12.71v-70.59H653.56z"/>
			<path class="st7" d="M675.76,701.88v-70.59h13.88l31.55,35.71c7.3,8.27,13,15.71,17.67,22.94l0.29-0.1
				c-1.17-9.42-1.46-18.01-1.46-29.01v-29.53h11.98v70.59h-12.85l-31.26-35.82c-6.86-7.85-13.44-15.92-18.4-23.56l-0.44,0.1
				c0.73,8.9,1.02,17.38,1.02,29.12v30.16H675.76z"/>
			<path class="st7" d="M771.88,631.29h12.71v34.04h0.44c2.63-2.72,5.26-5.24,7.74-7.54l30.09-26.5h15.78l-35.64,29.95l38.42,40.64
				h-15.05l-32.43-34.67l-9.35,7.75v26.92h-12.71V631.29z"/>
		</g>
		<g>
			<polygon class="st4" points="621.2,828.7 558.96,828.7 587.8,475.33 643.97,475.33 			"/>
			<path class="st1" d="M995.87,828.7h-86.24l-30.36-353.37h55.28c17.51,0,32.11,13.4,33.61,30.84L995.87,828.7z"/>
		</g>
		<path class="st10" d="M1003.32,835.53H478.93l28.35-329.94c1.82-21.15,19.19-37.09,40.41-37.09h386.86
			c21.22,0,38.6,15.95,40.41,37.09L1003.32,835.53z M493.82,821.86h494.61l-27.07-315.11c-1.2-14.02-12.73-24.6-26.8-24.6H547.7
			c-14.08,0-25.6,10.57-26.8,24.6L493.82,821.86z"/>
		<polygon class="st6" points="847.39,422.14 634.86,422.14 627.27,472.69 854.98,472.69 		"/>
		<polygon class="st1" points="847.39,422.14 806.4,422.14 810.96,472.69 854.98,472.69 		"/>
		<polygon class="st4" points="674.71,422.14 700.52,422.14 693.69,472.69 667.12,472.69 		"/>
		<path class="st10" d="M862.91,479.52H619.34l9.64-64.21h224.29L862.91,479.52z M635.21,465.86h211.84l-5.54-36.89H640.74
			L635.21,465.86z"/>
		<path class="st11" d="M863.82,329.94L863.82,329.94c-78.46-33.03-166.92-33.03-245.38,0h0v89.57h245.38V329.94z"/>
		<path class="st1" d="M863.82,329.94c-22.28-9.38-45.36-16.09-68.8-20.14V419.5h68.8V329.94L863.82,329.94z"/>
		<path class="st4" d="M667.12,313.97V419.5h33.4V307.8C689.31,309.25,678.16,311.31,667.12,313.97z"/>
		<path class="st10" d="M870.65,426.34H611.61V325.4l4.18-1.76c39.89-16.79,82.06-25.31,125.34-25.31
			c43.28,0,85.45,8.52,125.34,25.31l4.18,1.76V426.34z M625.27,412.67h231.72v-78.16c-73.9-29.82-157.82-29.82-231.72,0V412.67z"/>
	</g>
</g>
</svg>
