<?xml version="1.0" encoding="utf-8"?>
<!-- Generator: Adobe Illustrator 26.0.3, SVG Export Plug-In . SVG Version: 6.00 Build 0)  -->
<svg version="1.1" id="Layer_1" xmlns="http://www.w3.org/2000/svg" xmlns:xlink="http://www.w3.org/1999/xlink" x="0px" y="0px"
	 viewBox="0 0 1133.86 1133.86" style="enable-background:new 0 0 1133.86 1133.86;" xml:space="preserve">
<style type="text/css">
	.st0{fill:#32475F;}
	.st1{fill:#95C3F1;}
	.st2{fill:#74ACEB;}
	.st3{fill:#D2E4F7;}
	.st4{fill:#D6E6F8;}
	.st5{fill:#94C2EF;}
	.st6{fill:#D5E5F7;}
	.st7{fill:#74ABE8;}
	.st8{fill:#281D0A;}
	.st9{fill:#93C0EE;}
	.st10{fill:#2E2C1D;}
	.st11{fill:#5998E4;}
	.st12{fill:#73A8E2;}
	.st13{fill:#C9DDF5;}
	.st14{fill:#D2E3F5;}
	.st15{fill:#51657B;}
	.st16{fill:#75ADEC;}
	.st17{fill:#364B63;}
	.st18{fill:#B86E1C;}
	.st19{fill:#E8D2B6;}
	.st20{fill:#CE9346;}
</style>
<g>
	<path class="st0" d="M534.24,42.52c6.73,0.64,13.49,1.08,20.19,1.96c16.35,2.14,32.78,3.92,48.95,7.03
		c6.4,1.23,12.35,0.72,18.58,0.47c19.76-0.8,39.53-1.31,59.3-1.84c2.73-0.07,5.53,0.13,8.2,0.68c10.48,2.14,14.05,7.91,12.9,18.53
		c-1.96,18.09-3.4,36.24-5.03,54.37c-0.15,1.67-0.02,3.37-0.02,5.05c25.59,6.67,51.29,8.4,77.08,8.92
		c40.27,0.8,80.44,3.18,120.23,9.36c24.76,3.84,49.34,8.98,73.78,14.55c7.59,1.73,15.65,5.45,21.29,10.65
		c7.19,6.63,13.71,14.98,17.68,23.86c5.05,11.29,5.48,24.05,4.04,36.51c-0.94,8.17-4.43,15.12-11.6,20.4
		c4.73,6.98,3.17,13.92,0,20.67c-5.83,12.43-11.94,24.73-17.71,37.19c-1.01,2.18-1.22,4.86-1.28,7.33
		c-0.31,12.53-0.47,25.07-0.64,37.61c-0.37,25.62-1.69,51.27-0.85,76.85c1.46,44.03-4.17,86.96-14.71,129.64
		c-7.86,31.81-13.82,64.12-19.89,96.34c-2.05,10.91-2.46,22.24-2.55,33.39c-0.2,23.88-3.39,47.2-9.74,70.25
		c-8.62,31.25-12.64,63.28-15.32,95.54c-2.54,30.49-4.51,61.11-9.25,91.28c-2.03,12.91,3.18,23.3,4.52,34.9
		c0.67,5.79,1.62,11.58,3.04,17.22c1.14,4.53,3.24,8.82,4.82,13.25c0.45,1.26,0.88,2.69,0.75,3.98
		c-1.31,12.43-16.76,25.61-29.15,23.27c-11.02-2.08-22.01-5.58-32.3-10.08c-22.87-10.01-46.27-11.81-70.65-8.11
		c-45.87,6.97-91.8,13.55-137.72,20.18c-33.67,4.86-67.45,9.1-101.03,14.53c-12.63,2.04-24.68,7.56-37.29,9.92
		c-18.38,3.44-37.09,5.11-55.55,8.15c-25.42,4.18-50.78,8.79-76.1,13.5c-16.01,2.98-31.48,1.68-46.55-4.44
		c-15.52-6.3-31.33-11.4-48.32-11.46c-8.74-0.03-17.48-0.01-26.71-0.01c-18.74-40.12-41.44-77.54-75.49-106.43
		c-13.12-11.13-19.25-24.67-22.63-40.76c-5.61-26.8-14.06-52.76-25.58-77.64c-4.32-9.33-9.05-18.47-13.34-27.82
		c-0.83-1.8-1.16-4.37-0.55-6.2c15.69-47.2,24.6-95.9,29.82-145.14c3.82-36.03,5.67-72.36,6.54-108.6
		c1.33-55.69,0.5-111.44,1.76-167.13c0.54-23.82,3.69-47.61,6.31-71.34c1.82-16.51,9.54-30.89,21.8-41.64
		c10.72-9.4,12.95-19.32,10.6-32.85c-4.41-25.38-7.05-51.06-10.72-76.57c-0.5-3.5-3.39-6.65-3.95-10.16
		c-2.24-14.08-3.32-28.37-6.14-42.32c-2.21-10.95,0.17-19.47,8.37-26.76c2.03-1.8,3.63-4.13,5.23-6.36
		c12.66-17.65,30.91-24.85,51.51-25.04c23.35-0.2,46.72,1.57,70.08,2.65c28.87,1.33,57.67,2.05,86.61,0.49
		c10.14-0.55,19.02-3.23,28.08-6.38c25.74-8.94,52.37-12.61,79.39-14.31c1.76-0.11,3.49-0.7,5.24-1.07
		C519.79,42.52,527.02,42.52,534.24,42.52z M356.73,291.24c-1.19-7.52-2.2-7.86-12.52-3.81c0.71,1.62,1.43,3.25,2.15,4.88
		c0.68,7.36,5.62,2.76,8.67,2.92C358.17,295.38,358.12,293.42,356.73,291.24z M616.83,239.66c0.71-0.02,1.42-0.03,2.13-0.05
		c3.56,7.95,4.47,8.34,12.18,5.19c-0.63-2.55-1.27-5.09-1.9-7.64c0.43-0.11,0.87-0.22,1.3-0.32c4.13,9.39,4.72,9.66,16.04,7.16
		c-0.34-1.45-0.67-2.89-1.01-4.34c0.74-0.01,1.48-0.01,2.22-0.02c2.58,5.03,5.54,5.81,8.44,2.21c0.56-0.03,1.12-0.05,1.68-0.08
		c3.16,0.32,6.31,0.65,9.47,0.97c0.2-0.33,0.4-0.66,0.6-0.99c-0.18-0.71-0.36-1.41-0.53-2.12c0.66,0,1.32,0.01,1.97,0.01
		c1.39,0.75,2.78,1.51,4.17,2.26c1.91-0.69,3.82-1.37,6.29-2.26c0.97,1.32,2.65,5.06,4.7-0.63c0.39-0.45,0.78-0.9,1.18-1.36
		c2.29,4.6,5.47,1.09,8.39,1.22c0.16-1.66,0.29-3.02,0.55-5.84c1.69,2.39,2.57,3.64,3.61,5.1c1.48-0.36,3.05-0.74,4.77-1.16
		c-2.32-7.4-4.5-14.39-6.71-21.38c-0.15-0.46-0.47-0.87-0.9-1.63c-5.22,1.38-10.45,2.77-15.69,4.16c-3.46,0.6-6.91,1.19-10.37,1.79
		c-8.83,1.14-17.66,2.28-26.5,3.41c-0.78,0.25-1.56,0.5-2.34,0.74c-4.52,1.33-10.92-1.92-12.78,4.56c-0.97-0.69-2.21-2.31-3.33-2.23
		c-2.97,0.21-5.88,1.16-8.82,1.82c-0.68,0.04-1.35,0.08-2.03,0.12c-6.89,1-13.79,1.99-20.68,2.99c-0.6,0.67-1.2,1.34-1.8,2.01
		c-2.39-0.29-4.77-0.58-8.25-1c1.86,5.21,3.17,8.87,4.48,12.53c1.57,6.03,1.83,6.17,8.05,3.96c-0.41-1.35-0.84-2.72-1.26-4.09
		c-0.05-0.67-0.1-1.34-0.14-2.01c0.73-0.01,1.46-0.01,2.19-0.02c0.31,0.37,0.62,0.74,0.92,1.1c1.47,5.98,1.73,6.07,9.8,3.62
		c-0.56-1.91-1.11-3.81-1.67-5.72c-0.07-0.98-0.13-1.95-0.26-3.82c1.26,1.41,1.87,2.09,2.48,2.77c2.23,7.8,3.21,8.29,10.93,5.31
		C617.9,243.9,617.36,241.78,616.83,239.66z M989.3,240.84c1.06,1.49,2.12,2.98,3.7,5.2c1.41-6.7,2.57-12.18,3.73-17.65
		c-0.41-8.29-0.83-16.57-1.24-24.86c-0.97-7.89-3.38-10.31-10.36-10.28c-2.03,0.01-4.06,0.27-6.08,0.41
		c-15.59,1.78-13.7-1.18-16.43,13.2c-2.94,15.49-4.58,31.23-7.55,46.71c-2.52,13.12-6.14,26.02-9.28,39.02l0.21,0.15
		c-1.03,2.25-2.06,4.51-3.08,6.76c-5.62,7.54-11.08,15.19-16.89,22.58c-5.56,7.07-9.02,14.77-10.04,23.82
		c-1.95,17.21-2.47,34.71-8.42,51.24c-11.71,32.56-19.84,66.03-27.33,99.78c-14.45,65.05-30.08,129.84-44.97,194.79
		c-2.59,11.29-7.25,22.66-0.63,34.46c2.99,5.33,4.41,11.53,6.72,17.27c0.93,2.32,2.31,4.45,3.49,6.67c0.45,1.77,0.66,3.65,1.4,5.3
		c4.09,9.08,8.32,18.11,12.48,27.16c1.32,2.88,2.59,5.79,4.37,9.78c0.62-3.66,1-6,1.41-8.34c5-28.38,9.39-56.89,15.2-85.1
		c4.42-21.49,10.32-42.62,12.95-64.54c3.58-29.8,7.96-59.53,12.96-89.13c4.61-27.35,14.15-53.41,23.5-79.44
		c7.96-22.14,13.82-44.53,13.18-68.37c-0.2-7.48,1.09-15.08,2.46-22.49c4.56-24.7,14.08-47.68,25.04-70.13
		c6.18-12.66,12.26-25.36,18.44-38.02c1.81-3.71,1.36-6.45-1.86-9.51c-6.16-5.85-11.64-12.61-12.73-21.3
		c-0.78-6.19,0.19-12.6,0.37-18.91c1.99-3.1,3.53-6.68,6.16-9.07c1.24-1.13,5.13-0.74,6.76,0.43c1.18,0.84,0.98,4.16,0.73,6.29
		c-0.29,2.47-1.3,4.85-2,7.26C984.64,228.7,984.34,235.28,989.3,240.84z M513.82,248.73c-0.36,0.38-0.73,0.77-1.09,1.15
		c-1.25-3.7-3.82-1.59-5.65-0.99c-1.03,0.34-1.62,2.05-2.41,3.14c-0.45,0-0.9-0.01-1.35-0.01c-3.66-4.82-6.73,0.26-10.47-0.04
		c0.95,2.97,1.64,5.27,2.41,7.53c2.46,7.18,2.58,7.23,10.32,4.98c0.11-0.36,0.22-0.72,0.33-1.08c-0.21-1-0.43-1.99-0.64-2.99
		c0.42-0.76,0.83-1.52,1.25-2.28c2.38,6.44,2.76,6.62,9.16,4.25c0.66-0.33,1.32-0.66,1.99-0.99c1.63,0.24,3.25,0.48,5.23,0.77
		c-0.42-3.61-0.74-6.36-1.06-9.1c0.47,0.67,1.06,1.29,1.38,2.03c2.84,6.74,4.5,7.32,11.41,3.6c-1.69-4.88-3.39-9.81-5.28-15.3
		c-3.08,0.96-5.75,1.79-8.42,2.63C518.55,246.92,516.18,247.82,513.82,248.73z M199.55,310.76c-2.52,1.1-7.02,1.92-7.22,3.34
		c-0.69,4.96,0.1,10.13,0.32,15.24c7.97-1.04,8.42-1.54,8.25-8.65c-0.04-1.54-0.02-3.08-0.04-4.62c0.75,1.19,1.93,2.3,2.15,3.59
		c0.36,2.04,0.1,4.19,0.1,8.04c3.46-2.44,7.05-3.64,7.48-5.55c0.95-4.17,0.29-8.71,0.29-13.96
		C206.69,309.13,203.12,309.94,199.55,310.76z M705.56,144.75c-2.26-0.91-4.51-1.83-7.82-3.17c0.96,5.98,1.73,10.81,2.5,15.65
		c3.49,15.45,6.98,30.89,10.47,46.34c0.62,2.14,1.23,4.28,1.85,6.43c5.17,15.97,10.42,31.92,15.47,47.93
		c3.71,11.74,8.2,23.37,10.5,35.4c5.49,28.75,9.63,57.75,14.83,86.56c2.76,15.3,6.6,30.4,9.95,45.59c0.01,0.34-0.02,0.69,0.05,1.03
		c10.06,52.9,19.64,105.89,30.41,158.64c5.07,24.81,12.42,49.15,18.73,73.71c0.75,2.58,1.5,5.16,2.25,7.74
		c2.16,7.39,4.32,14.77,6.86,23.46c0.8-2.46,1.21-3.42,1.43-4.41c4.35-19.58,8.71-39.16,12.99-58.75
		c3.84-17.58,7.58-35.18,11.36-52.77c0.19-0.16,0.2-0.33,0.04-0.51c0.21-0.87,0.42-1.75,0.64-2.62
		c6.25-27.1,12.79-54.14,18.66-81.32c6.17-28.55,12.45-57.04,22.66-84.51c5.65-15.2,9.6-30.83,10.31-47.14
		c0.9-20.65,7.14-38.85,22.35-53.82c4.53-4.46,7.48-11.19,9.5-17.41c3.76-11.57,6.78-23.44,9.22-35.37
		c2.93-14.28,5.14-28.73,7.28-43.16c1.73-11.67,6.06-22.28,12.4-32.36c-1.39-0.47-2.19-0.82-3.01-1.01
		c-47.19-10.72-94.95-17.25-143.26-20.02c-30.01-1.72-59.99-3.96-89.99-5.97C717.96,147.52,711.76,146.13,705.56,144.75z
		 M684.69,72.49c0.23-1.65,0.46-3.3,0.82-5.84c-2.58,0-4.71,0-6.84,0c-6.86-0.17-13.71-0.35-20.57-0.52
		c-14.45-0.63-28.91-1.25-44.17-1.92c3.72,10.55,7.18,20.35,10.64,30.16c4.31,14.72,8.63,29.43,12.94,44.15
		c0.78,4.27,1.55,8.54,2.19,12.07c8.06,0,15.33,0,22.59,0c6.56,0.5,13.12,1.01,19.72,1.51c-0.44-8.76-1.18-16.94-1.18-25.13
		c0-10.61,0.6-21.21,0.94-31.82C682.74,87.6,683.72,80.05,684.69,72.49z M663.38,163.97c-6.86-0.43-13.71-0.91-20.58-1.19
		c-0.68-0.03-1.64,1.06-2.09,1.85c-1.26,2.2-2.31,4.52-3.45,6.79c-3.02,0.54-6.04,1.07-9.06,1.61c-1.88-0.13-3.77-0.47-5.63-0.37
		c-25.19,1.36-50.42,2.33-75.56,4.33c-19.14,1.52-38.25,3.93-57.25,6.71c-22.92,3.35-45.71,7.52-68.57,11.32
		c-4.49,0.75-8.53,0.53-11.11-4.2c-0.56-1.03-2.46-1.66-3.84-1.87c-8.81-1.36-17.73-2.14-26.47-3.87
		c-26.77-5.31-53.44-8.31-80.69-2.58c-12.98,2.73-26.31,5.4-39.83,2.3c-4.5-1.03-9.15-1.43-13.73-2.12
		c-13.78-2.06-27.4-5.68-42.35-5.29c1.67,8.71,3.08,16.07,4.49,23.44c2.41,17.68,4.96,35.34,7.14,53.05
		c0.87,7.07,2.53,14.55-2.43,20.9c-4.22,5.4-9.09,10.3-13.29,15.72c-3.65,4.71-6.76,9.83-10.09,14.78c-0.02,0.4-0.05,0.8-0.07,1.19
		c0.27-0.16,0.54-0.33,0.81-0.49c13.93-2.47,27.83-5.14,41.79-7.36c10.42-1.65,20.92-2.73,31.39-4.06
		c18.19-3.16,36.38-6.33,54.57-9.49c3.04-0.49,6.12-0.79,9.1-1.49c59.3-13.86,118.49-28.19,177.92-41.48
		c33.96-7.6,68.25-13.78,102.49-20.08c20.4-3.76,40.98-6.52,61.47-9.73c8.32-1.59,16.64-3.19,24.99-4.78
		c-0.17-1.76-0.16-2.44-0.31-3.09c-2.78-12.2-5.51-24.42-8.5-36.57c-0.28-1.13-2.16-2.54-3.4-2.66c-5.96-0.55-11.96-0.71-17.94-1
		L663.38,163.97z M224,103.36c-0.25,10.34-3.72,19.76-8.07,28.98c-3.87,8.19-7.84,16.35-11.15,24.76c-1.92,4.88-0.33,7.31,4.7,8.01
		c9.82,1.37,19.71,2.29,29.57,3.4c2.34,0.5,4.65,1.21,7.02,1.47c9.82,1.08,19.77,3.49,29.45,2.71c20.25-1.64,40.36-4.98,60.53-7.63
		c24.21,3.17,48.41,6.34,73.27,9.6c0-2.05,0.1-3.72-0.02-5.37c-0.63-9.4-0.76-18.87-2.12-28.16c-1.86-12.65-4.67-25.15-7.08-37.72
		c-1.72-7.49-3.44-14.98-5.27-22.97c-6.91,0.41-13.73,0.81-20.55,1.21c-0.68-0.08-1.36-0.2-2.04-0.23
		c-32.74-1.57-65.47-3.12-98.21-4.71c-10.62-0.52-21.23-1.14-31.84-1.71c-5.06,0.44-10.12,0.84-15.17,1.33
		c-2.74,0.26-3.56,1.87-3.46,4.57C223.83,88.38,223.87,95.87,224,103.36z M965.06,394.6c0.84-16.2,1.69-32.4,2.61-50.04
		c-8.84,21.12-12.01,41.82-12.28,63.04c-0.18,14.33-2.57,28.23-6.55,42.01c-1.77,6.12-1.59,12.81-2.29,19.23
		c-0.11,1.02-0.22,2.03-0.33,3.05c-0.05,0.68-0.09,1.37-0.14,2.05c-0.38,1.49-0.87,2.97-1.13,4.48
		c-5.17,29.67-10.52,59.31-15.4,89.03c-2.43,14.85-3.99,29.85-5.94,44.78c-1.1,11.44-2.23,22.88-3.3,34.33
		c-2.44,26.32-4.67,52.65-7.32,78.95c-1.92,19.12-4.14,38.22-6.62,57.28c-3.19,24.51-11.71,47.58-19.88,70.72
		c-0.54,1.52-0.9,3.36-0.58,4.88c3.83,18.04,7.8,36.06,11.62,53.53c0.17-0.91,0.62-2.56,0.78-4.24c1.54-16.93,3.18-33.85,4.49-50.79
		c2.32-29.82,5.41-59.59,13.26-88.48c7.95-29.25,11.59-58.83,11.73-89.06c0.05-10.59,1.19-21.34,3.32-31.72
		c8.36-40.67,17.14-81.25,26.13-121.79c4.86-21.9,7.33-43.97,7.05-66.38C964.56,437.85,964.81,416.22,965.06,394.6z M905.86,638.06
		c-0.1,0.71-0.19,1.41-0.29,2.12c-1.49,8.96-2.32,18.1-4.6,26.87c-12.09,46.43-20.54,93.52-27.19,141.01
		c-1.67,11.92,2.96,21.47,6.55,31.76c4.76-17.23,9.95-34.22,12.9-51.6c3.28-19.26,4.73-38.85,6.58-58.34
		c2.97-31.28,5.61-62.6,8.4-93.9c0.22-0.99,0.52-1.97,0.63-2.97c1.72-15.7,3.32-31.41,5.15-47.09c0.99-8.48,2.37-16.92,3.57-25.38
		c-0.41-0.07-0.82-0.14-1.23-0.22c-0.4,1.94-0.87,3.87-1.2,5.82c-1.63,9.82-3.51,19.61-4.77,29.47
		c-1.71,13.44-2.95,26.94-4.39,40.41C905.94,636.71,905.9,637.39,905.86,638.06z M634.46,161.34c4.62-2.7,1.97-6.15,0.97-9.43
		c-0.39-2.05-0.78-4.1-1.18-6.15c-0.46-3.04-0.57-6.17-1.42-9.09c-6.56-22.69-12.88-45.47-20.13-67.94
		c-2.13-6.59-7.49-11.91-14.98-13.42c-6.02-1.22-12.14-2.02-18.26-2.68c-16.13-1.74-32.28-4.61-48.43-4.61
		c-19.96,0-39.99,1.88-59.86,4.06c-10.43,1.14-20.6,4.66-30.89,7.11c-10.78,3.37-21.66,6.43-32.25,10.32
		c-2.8,1.03-6.29,4.37-6.63,7.02c-0.78,6.02-0.95,12.58,0.66,18.36c6.76,24.4,10.29,49.22,11.31,74.45
		c0.34,8.31,5.52,16.24,13.35,19.1c1.54,0.56,3.38,0.73,5.01,0.53c4.58-0.56,9.11-1.47,13.67-2.13
		c33.17-4.74,66.25-10.24,99.54-13.9c24.82-2.73,49.9-3.4,74.89-4.23C626.45,168.49,630.97,166.57,634.46,161.34z M778.92,599.78
		l0.15,0.07c-0.19-2.16-0.17-4.37-0.6-6.48c-3.59-18-7.35-35.97-10.9-53.99c-9.68-49.15-19.4-98.3-28.88-147.49
		c-5.22-27.12-11.24-54.17-14.56-81.53c-2.84-23.42-12.38-44.41-18.64-66.74c-10.05,1.82-19.47,3.54-28.9,5.25
		c-19.01,1.53-38.09,2.5-57.02,4.74c-22.5,2.66-44.94,6.03-67.28,9.81c-29.29,4.96-58.52,10.31-87.67,16.07
		c-51.89,10.25-103.69,20.92-155.52,31.43c-16.82,3.41-33.64,6.85-50.46,10.27c-0.51-0.01-1.04-0.11-1.54-0.02
		c-25.46,4.19-50.61,9.58-74.36,20.06c-1.17,0.52-2.31,2.5-2.4,3.87c-1.21,18.34-2.87,36.68-3.19,55.04
		c-1.18,68.91,2.04,137.9-3.18,206.75c-2.21,29.1-3.99,58.28-7.74,87.2c-5.52,42.6-13.79,84.73-27.74,125.55
		c-0.64,1.86,0,4.65,0.99,6.49c4.46,8.3,9.78,16.16,13.86,24.63c12.37,25.69,19.46,53.14,25.82,80.78
		c1.86,8.09,5.44,14.53,12.11,20.14c16.43,13.84,31.84,28.84,44.91,46.04c13.46,17.73,24.28,37.06,34.26,56.87
		c1.54,3.05,2.95,4.3,6.93,4.07c14.95-0.84,29.9-0.42,44.35,4.36c8.96,2.97,17.91,5.97,26.91,8.85c13.94,4.46,27.56,0.77,41.22-1.74
		c25.66-4.71,51.29-9.55,76.97-14.11c15.53-2.76,31.68-3.34,46.6-7.97c28.44-8.81,57.55-12.95,86.84-16.74
		c12.07-1.56,24.1-3.39,36.15-5.1c1.03-0.06,2.07-0.03,3.08-0.18c50.15-7.34,100.3-14.69,150.44-22.06
		c25.03-3.68,49.34-1.49,72.82,8.42c6.94,2.93,14.11,5.32,21.18,7.96c3.27,0.91,6.49,2.33,9.81,2.6c4.8,0.38,9.82-6.12,8.66-10.41
		c-1.84-6.78-3.81-13.53-5.29-20.39c-5.81-27.01-12.64-53.87-16.86-81.13c-5.99-38.67-17.1-75.8-32.36-111.47
		c-16.29-38.07-32.64-76.03-45.15-115.53c-4.87-15.37-9.35-30.87-14.01-46.31c-2.9-11.9-5.81-23.8-8.71-35.7
		C779.66,601.27,779.29,600.52,778.92,599.78z M464.03,258.58c-5.91,0-10.86,3.41-16.57,3.63c-1.12,0.04-3.22,1.49-3.13,1.84
		c0.96,3.8,1.71,7.87,3.78,11.05c0.77,1.18,4.86,0.19,7.7,0.19c-0.86-3.21-1.41-5.29-1.96-7.36c6.3,6.56,6.3,6.56,13.46,3.5
		C466.26,267.26,465.17,263.02,464.03,258.58z M554.26,238.45c-4.49,0.96-8.56,1.83-13.09,2.79c1.63,4.99,2.9,9.41,4.57,13.66
		c0.41,1.03,2.22,2.23,3.28,2.14c3.3-0.3,6.55-1.18,9.98-1.86C557.34,249.35,555.91,244.27,554.26,238.45z M444.91,276.4
		c-1.21-4.12-2.44-8.3-3.77-12.82c-5.28,1.24-10.19,2.39-15.58,3.65c1.27,4.67,2.41,8.87,3.62,13.35c1.89-0.44,3.32-0.78,5.09-1.19
		c-1.13-4-2.18-7.69-3.23-11.38c0.49-0.16,0.99-0.33,1.48-0.49c0.76,1.78,1.59,3.54,2.27,5.36
		C437.39,279.85,437.44,279.88,444.91,276.4z M227.19,319.79c13.43-0.84,15.47-3.19,13.1-14.7c-13.07-0.89-14.33,0.31-13.54,12.93
		C226.78,318.5,226.99,318.98,227.19,319.79z M194.68,101.89c-4.49,3.16-7.07,6.1-5.8,11.11c0.46,1.81,0.52,3.72,0.76,5.58
		c1.14,8.9,2.28,17.8,3.41,26.7c0.46,0.06,0.91,0.13,1.37,0.19c0.92-2.57,2.8-5.22,2.59-7.7c-0.76-9.1-2.35-18.12-3.32-27.21
		C193.42,108.03,194.25,105.38,194.68,101.89z M571.14,252.65c-0.67-2.78-1.32-5.25-1.87-7.75c-2.06-9.32-2.05-9.32-11.3-7.07
		c-0.27,0.07-0.46,0.46-0.95,0.97c0.9,3.07,1.82,6.33,2.8,9.56C561.97,255.45,563.29,255.98,571.14,252.65z M412.88,270.28
		c-2.8,0.85-5.12,1.56-7.63,2.32c1.91,4.01,3.53,7.41,5.15,10.82c-0.6,0.34-1.2,0.68-1.8,1.03c-1.57-2.6-3.33-5.1-4.66-7.82
		c-1.35-2.76-2.82-4.11-5.99-1.82c1.2,3.1,2.12,6.23,3.64,9.04c0.59,1.09,2.64,2.14,3.88,1.99c3.69-0.44,7.3-1.48,11.62-2.43
		C415.67,278.97,414.35,274.85,412.88,270.28z M213.52,323.32c3.08-0.74,5.78-1.16,8.29-2.1c1.1-0.41,2.49-1.83,2.58-2.89
		c0.32-3.68,0.12-7.41,0.12-11.92c-4.11,0.59-7.66,1.1-10.99,1.58C213.52,313.45,213.52,318.15,213.52,323.32z M494.44,266.47
		c-0.97-3.59-1.97-6.63-2.58-9.74c-0.7-3.61-2.59-4.13-5.89-3.33c-7.45,1.8-7.49,1.68-5.03,8.92c0.7,2.05,1.5,4.07,2.38,6.42
		C487.07,267.97,490.5,267.27,494.44,266.47z M466.16,257.71c4.17,15.85,3.53,14.28,13.97,11.2c-1.09-4.21-2.18-8.43-3.39-13.14
		C473.14,256.43,469.85,257.03,466.16,257.71z M270.26,300.97c-0.18,3.33-0.33,6.01-0.48,8.7c-0.47,0.01-0.95,0.01-1.43,0.02
		c-0.35-2.57-0.7-5.13-1.1-8.11c-1.84,0.18-3.46,0.34-5.61,0.55c0.34,3.84,0.64,7.27,1.05,12.01c5.35-1.92,9.88-3.08,13.75-5.35
		c0.75-0.44-1.06-5.24-1.73-8.22C273.11,300.72,271.81,300.83,270.26,300.97z M181.94,335.97c2.97-2.52,6.72-4.13,7.12-6.34
		c0.95-5.25,0.3-10.78,0.3-16.34C183.92,314.8,181.09,323.17,181.94,335.97z M203.46,126.2c4.4-8.67,8.29-17.41,6.38-27.83
		C200.54,106.39,202.7,116.47,203.46,126.2z M279.95,310.05c4.48-1.04,8.74-2.04,13.29-3.1c-0.74-3.35-1.36-6.13-2.06-9.29
		c-1.75,0.46-3.14,0.82-4.54,1.19c0.22,3.07,0.41,5.75,0.61,8.43c-0.54,0.09-1.08,0.18-1.62,0.27c-0.77-2.61-1.55-5.21-2.44-8.21
		c-1.73,0.15-3.49,0.3-5.47,0.47C278.5,303.37,279.14,306.33,279.95,310.05z M395.11,274.82c-2.77,0.74-5.32,1.43-8.34,2.24
		c1.18,4.16,2.23,7.86,3.38,11.92c3.24-0.76,6.09-1.43,9.29-2.18C397.86,282.44,396.54,278.79,395.11,274.82z M585.91,250.41
		c-1.69-5.67-3.32-11.14-5.08-17.05c-1.84,0.49-3.66,0.99-5.79,1.56c1.23,4.6,2.48,8.49,3.28,12.47
		C579.24,251.95,581.44,253.02,585.91,250.41z M531.69,243.2c1.77,4.46,3.47,8.19,4.73,12.06c1.33,4.1,3.56,4.43,6.87,2.31
		c-1.55-5.27-3.07-10.45-4.69-15.97C536.34,242.12,534.39,242.57,531.69,243.2z M426.39,281.25c-0.55-2.64-0.99-4.79-1.44-6.93
		c-1.47-7.01-2.5-7.45-9.55-3.71c1.53,4.03,3.08,8.11,4.65,12.26C422.33,282.29,423.97,281.87,426.39,281.25z M357.92,283.85
		c2.37,11.56,2.47,11.64,10.53,8.31c-0.88-3.28-1.78-6.63-2.75-10.27C362.77,282.63,360.5,283.2,357.92,283.85z M250.81,303.54
		c1.07,4.13,1.87,7.68,3.1,11.06c0.11,0.3,4.41-0.15,4.55-0.76c0.8-3.48,0.93-7.11,1.36-11.35
		C256.49,302.88,254.2,303.15,250.81,303.54z M386.95,288.78c-0.47-2.07-0.87-3.89-1.3-5.7c-0.42-1.76-0.87-3.5-1.39-5.54
		c-2.7,0.68-4.81,1.21-6.83,1.72C377.9,289.57,379.92,291.68,386.95,288.78z M318.94,292.77c-8.83,0.79-9.59,2.25-5.74,10.48
		C321,302.24,321,302.24,318.94,292.77z M249.31,304.3c-6.75-0.59-7.21,0.48-5.55,12.41c2.12-0.36,4.22-0.72,6.45-1.1
		C249.89,311.68,249.61,308.16,249.31,304.3z M369.28,281.4c1.44,10.83,3.25,12.95,8.16,8.83c-1.01-3.23-2.06-6.57-3.21-10.23
		C372.31,280.54,370.77,280.97,369.28,281.4z M573.43,235.34c-0.71-0.22-1.41-0.45-2.12-0.67c-0.42,1.38-1.41,2.89-1.14,4.12
		c0.83,3.82,2.08,7.55,3.31,11.27c0.35,1.06,1.2,1.95,1.82,2.92c0.52-0.2,1.05-0.4,1.57-0.6
		C575.73,246.7,574.58,241.02,573.43,235.34z M336.04,288.78c-2.74,0.64-4.66,1.09-7.31,1.71c2.98,2.87,0.01,9.97,6.25,8.36
		C340.04,297.55,335.72,292.92,336.04,288.78z M329.31,299.57c-0.58-2.85-1.18-5.75-1.8-8.8c-2.34,0.42-4.15,0.74-5.91,1.06
		C321.93,300.97,322.67,301.75,329.31,299.57z M304.38,304.25c6.29,0.25,6.75-1.03,3.83-9.66c-1.6,0.36-3.22,0.72-5.41,1.22
		C303.36,298.82,303.88,301.58,304.38,304.25z M294.03,297.65c0.99,3.22,1.82,5.95,2.72,8.91c1.66-0.46,3.08-0.85,4.69-1.29
		c-0.36-3.09-0.68-5.88-1.02-8.86c-1.78,0.12-2.97,0.13-4.13,0.31C295.66,296.81,295.08,297.2,294.03,297.65z M341.68,286.48
		c-1.58,1.72-3.43,2.91-3.27,3.71c0.49,2.53,1.73,4.91,2.68,7.35c1.08-0.86,3.16-1.84,3.07-2.57
		C343.87,292.51,342.82,290.13,341.68,286.48z"/>
	<path class="st1" d="M780.03,602.01c2.9,11.9,5.81,23.8,8.71,35.7c-2.59,1.17-5.17,2.34-7.76,3.52c-0.08-2.4,0.11-4.85-0.27-7.21
		c-4.56-28.71-10.65-57.07-18.21-85.15c-10.34-38.42-21.17-76.64-38.48-112.64c-3.16-6.57-7.35-12.71-11.54-18.71
		c-2.86-4.11-7.96-3.28-11.32-1.72c-2.68,1.24-4.87,5.22-5.65,8.38c-0.71,2.89,0.41,6.41,1.32,9.48
		c9.77,32.98,19.62,65.94,29.52,98.89c1.99,6.63,4.23,13.18,6.36,19.76c-0.02,0.54-0.04,1.09-0.06,1.63
		c0.29,0.52,0.59,1.04,0.88,1.56c0.04,0.54,0.09,1.09,0.13,1.63c0.3,1.18,0.59,2.35,0.89,3.53c0.07,0.87,0.14,1.74,0.21,2.61
		c0.28,0.85,0.56,1.69,0.83,2.54c5.15,24.75,10.3,49.49,15.45,74.24c0.95,4.89,1.9,9.79,2.85,14.68c0.64-0.14,1.28-0.29,1.92-0.43
		c-1.12-4.65-2.24-9.31-3.36-13.96c-0.59-4.14-1.18-8.28-1.77-12.41c0.82,1.61,1.75,3.18,2.44,4.84
		c8.22,19.94,16.38,39.9,24.67,59.81c0.82,1.98,2.44,3.62,3.69,5.42c0.55-0.19,1.1-0.38,1.65-0.57c0.36-3.68,0.71-7.35,1.07-11.03
		c0.77,1.02,1.88,1.92,2.25,3.06c6.78,20.48,13.61,40.95,20.14,61.51c8.2,25.79,16.45,51.58,24.12,77.53
		c9.51,32.18,18.63,64.48,27.59,96.82c7.72,27.87,14.98,55.86,22.45,83.79c1.01,3.76,2.12,7.5,3.18,11.24
		c-7.07-2.64-14.24-5.02-21.18-7.96c-23.48-9.91-47.79-12.09-72.82-8.42c-50.15,7.37-100.29,14.71-150.44,22.06
		c-1.01,0.15-2.05,0.12-3.08,0.18c-0.4-0.31-0.77-0.86-1.19-0.9c-13.1-1.13-26.2-2.99-39.32-3.1c-16.42-0.14-32.85,1.11-49.27,1.86
		c-13.33,0.61-26.65,1.47-39.99,2.02c-19.69,0.8-39.38,1.8-59.07,1.99c-18.35,0.18-36.72-0.26-55.06-1.02
		c-12.62-0.52-25.35-1.15-37.74-3.37c-18.13-3.24-36.08-7.64-53.94-12.22c-4.74-1.22-9.98-3.96-13.04-7.63
		c-12.7-15.22-25.01-30.81-36.76-46.77c-9.84-13.36-18.39-27.66-28.09-41.13c-8.85-12.29-16.83-25.04-22.28-39.15
		c-2.69-6.97-5.62-14.44-5.66-21.71c-0.08-13.27,1.68-26.57,3.08-39.81c1.34-12.72,3.4-25.36,4.76-38.07
		c1.33-12.39,2.09-24.85,3.26-37.26c1.96-20.9,4.11-41.79,6.06-62.69c1.19-12.76,1.97-25.55,3.23-38.3
		c1.89-19.19,4.21-38.34,6.03-57.53c1.61-17,3.05-34.03,4.09-51.08c1.04-17.09,1.81-34.21,2.09-51.33
		c0.35-21.32-0.4-42.66,0.31-63.95c0.32-9.79,1.74-19.93,4.89-29.14c4.48-13.08,11.29-25.35,16.57-38.18
		c3.56-8.65,6.21-17.69,9.27-26.55c16.82-3.42,33.64-6.86,50.46-10.27c51.83-10.5,103.64-21.18,155.52-31.43
		c29.14-5.76,58.38-11.11,87.67-16.07c22.34-3.78,44.78-7.15,67.28-9.81c18.93-2.24,38-3.21,57.02-4.74
		c0.35,1.5,0.62,3.01,1.04,4.48c7.01,24.55,14.18,49.04,20.99,73.64c4.7,16.99,8.3,34.3,13.46,51.14
		c9.4,30.66,20.11,60.91,29.31,91.62c11.02,36.75,21,73.82,31.51,110.72c1.86,6.52,4.09,12.93,6.14,19.38l-0.14-0.07
		C779.29,600.52,779.66,601.27,780.03,602.01z M597.21,861.03c-2.73,0.64-5.46,1.27-8.19,1.91c-16.14,0.77-32.27,1.55-48.41,2.32
		c-3.54,0.08-7.08,0.15-10.62,0.23c0.05,0.5,0.1,0.99,0.16,1.49c3.53,0,7.05,0,10.58,0c9.91-0.18,19.82-0.36,29.72-0.54
		c-6.16,2.82-13.66,3.44-17.18,11.24c68.56-6.77,137.54-10.19,204.12-30.04c-0.05-0.43-0.1-0.85-0.15-1.28
		c-3.45,0.4-6.9,0.8-10.35,1.2c-3.11-3.82-6.77-2.03-10.35-1.02c-5.19-0.11-10.39-0.22-15.58-0.33c0.74-0.97,1.29-2.35,2.27-2.82
		c3.85-1.86,7.89-3.3,11.74-5.15c1.77-0.85,3.27-2.28,6.03-4.27c-15.27-3.46-28.88-6.27-42.97-5.99
		c-19.87,0.39-39.75,0.43-59.61,1.17c-7.61,0.28-15.22,1.78-22.71,3.29c-2.53,0.51-4.7,2.8-7.04,4.27c2.26,1.58,4.32,3.67,6.82,4.65
		c12.37,4.82,25.4,6.4,38.55,7.34c1.39,0.1,2.71,1.25,4.06,1.91c-8.13,1.4-16.28,2.67-24.38,4.23c-7.12,1.37-14.17,3.05-21.25,4.6
		c-0.06-0.14-0.14-0.28-0.22-0.43C607.24,859.67,602.22,860.35,597.21,861.03z M409.37,805.27c0.33-0.7,0.67-1.39,1-2.09
		c5.69-11.78,11.67-23.46,14.31-36.7c-2.57,5.7-5.01,11.13-7.46,16.56c-0.39-0.33-0.97-0.6-1.13-1.02c-2.37-6.2-2.2-5.79-8.66-3.28
		c-11.27,4.37-17.5,13.62-22.7,23.43c-9.51,17.96-14.74,37.5-18.6,57.34c-1.28,6.55-1,13.4-1.44,20.12
		c-1.38,10.13-3.48,20.28,1.2,30.2c-0.17-2.51-0.35-5.02-0.52-7.53c0.62,0.41,1.45,0.68,1.82,1.25c3.35,5.14,6.44,10.46,9.97,15.47
		c2.1,2.97,4.74,2.12,5.99-0.83c5.15-12.11,10.19-24.17,11.91-37.51c2.14-16.57,5.27-33.03,8.32-49.47
		C405,822.48,407.35,813.91,409.37,805.27L409.37,805.27z M413.67,939.68c-6.45,2.35-12.9,4.69-19.35,7.04
		c0.14,0.33,0.27,0.65,0.41,0.98c4.55-1.11,9.11-2.22,13.66-3.33c2.02,7.3,5.76,9.16,13.18,5.91c7.69-3.37,15.65-4.92,23.99-4.61
		c7.53,0.28,15.06,1.07,22.57,0.93c27.26-0.5,54.52-1.06,81.76-2.07c13.48-0.5,26.95-1.73,40.36-3.15c16.28-1.72,32.5-4,48.75-6.03
		c16.93-2.12,33.98-3.53,50.76-6.52c22.68-4.04,45.2-9.02,67.67-14.11c21.84-4.95,43.55-10.49,65.28-15.89
		c5.19-1.29,10.26-3.06,15.39-4.61c-0.04-0.42-0.08-0.85-0.12-1.27c-2.64-0.32-5.28-1-7.9-0.91c-17.63,0.58-35.26,1.27-52.88,2.02
		c-14.02,0.6-28.03,1.4-42.05,1.95c-2.27,0.09-4.57-0.64-6.86-0.99c11.33-3.77,22.67-7.53,34-11.3c7.26-2.42,14.51-4.87,21.77-7.31
		c1.99-0.62,3.98-1.23,5.97-1.85c1.71-0.12,3.56,0.14,5.11-0.41c6.9-2.46,13.7-5.19,20.57-7.74c6.01-2.23,12.05-4.36,18.08-6.53
		c-0.12-0.45-0.24-0.9-0.36-1.35c-13.45,2.07-26.9,4.14-40.35,6.21c-16.36,2.53-32.71,5.12-49.08,7.59
		c-15.69,2.37-31.44,4.32-47.08,7c-16.66,2.85-33.18,6.54-49.83,9.5c-21.34,3.8-42.72,7.4-64.13,10.79
		c-13.99,2.21-28.04,4.01-42.1,5.76c-12.88,1.61-25.82,2.7-38.68,4.43c-15.56,2.09-31.17,4.06-46.54,7.14
		c-12.35,2.48-24.42,6.46-36.55,9.97c-3.45,1-6.28,3.02-5.71,7.38C413.48,936.07,413.58,937.88,413.67,939.68z M237.93,401.69
		c-0.98,3.54-3.2,7.27-2.69,10.58c1.37,8.92,3.39,17.82,6.09,26.43c5.74,18.31,12.71,36.24,18.02,54.66
		c10.83,37.56,23.94,74.31,37.59,110.9c6.65,17.83,13.16,35.71,19.37,53.69c7.21,20.88,13.84,41.96,21.07,62.84
		c2.61,7.53,7.43,13.64,15.56,15.96c4.23,1.21,8.66,1.72,12.99,2.63c35.94,7.52,72.08,14.23,107.76,22.86
		c26.63,6.44,53.22,6.61,80.11,4.73c3.88-0.27,7.83-1.03,11.54-2.21c5.35-1.7,6.42-6.08,3.02-10.5c-1.12-1.46-2.1-3.02-3.14-4.54
		c7.09-4.96,14.19-9.92,21.28-14.87c7.46,1.87,14.93,3.73,22.39,5.6c0.23-0.65,0.45-1.3,0.68-1.96c-1.77-1.16-3.49-2.39-5.31-3.47
		c-3.33-1.99-6.7-3.91-10.06-5.85c0.53-0.44,1.01-0.94,1.59-1.3c34.46-21.02,68.89-42.09,103.44-62.94
		c3.24-1.96,4.86-3.88,4.27-7.67c-1.08-6.95-2.18-13.9-2.96-20.88c-1.96-17.59-3.65-35.21-5.61-52.8
		c-3.97-35.69-7.91-71.38-12.09-107.04c-5.11-43.64-10.46-87.26-15.64-130.89c-0.35-2.95-1.41-4.22-4.54-4.03
		c-28.29,1.72-56.63,2.84-84.87,5.18c-21.55,1.78-42.99,5.01-64.46,7.7c-26.76,3.35-53.64,5.99-80.21,10.43
		c-25.89,4.33-51.29,11.83-77.24,15.61c-35.67,5.19-71.65,8.19-107.51,12.04c-1.19,0.13-2.55-0.55-3.71-1.11
		c-4.21-2.05-7.63-0.07-7.63,4.67C237.03,397.98,237.61,399.84,237.93,401.69z M413.23,836.23c0.54,2.64,1.27,6.99,2.35,11.26
		c0.73,2.9,2.88,4.15,5.31,1.98c3.11-2.78,6.81-5.59,8.42-9.21c5.4-12.12,8.7-24.84,5.77-38.26c-0.54-2.49-1.9-5.77-3.86-6.77
		c-3.14-1.6-5.53,1.1-7.44,3.82C416.3,809.68,414.24,821.86,413.23,836.23z M801.87,990.82c-10.55-11.55-64.9-12-78.67-1.11
		C749.41,998.37,775.21,999.65,801.87,990.82z M226.67,859.79c-0.07,6.6,2.73,11.01,6.34,11.3c4.76,0.38,7.93-2.68,8.01-6.86
		c0.11-5.6-0.83-11.37-2.31-16.8c-0.84-3.09-5.65-2.87-7.36,0.48C229.14,852.25,227.74,857,226.67,859.79z M636.11,334.35
		c0.65-0.12,1.3-0.23,1.95-0.35c-4.09-19.02-8.17-38.05-12.26-57.07c-0.7,0.15-1.4,0.31-2.1,0.46
		C627.27,296.49,629.83,315.82,636.11,334.35z M780.36,830.37c10.16,1.3,32.71-3.43,36.86-7.31
		C805.4,825.41,793.67,827.73,780.36,830.37z M756.26,657.74c-0.47-0.04-0.94-0.07-1.41-0.11c0.56,2.96,1.12,5.91,1.67,8.87
		c0.43-0.08,0.86-0.15,1.29-0.23C757.29,663.43,756.77,660.59,756.26,657.74z"/>
	<path class="st1" d="M812.49,658.84c-6.32-24.55-13.67-48.9-18.73-73.71c-10.77-52.75-20.35-105.74-30.41-158.64
		c-0.06-0.33-0.03-0.68-0.05-1.03c0.35-2.11,1.18-4.27,0.96-6.32c-1.17-11.01-2.29-22.05-4.01-32.98
		c-3.42-21.72-7.13-43.39-10.88-65.06c-3.11-17.97-6.54-35.89-9.69-53.86c-3.74-21.32-7.38-42.66-10.98-64
		c-2.3-13.61-4.45-27.25-6.67-40.88c14.63,1.38,29.27,2.65,43.89,4.15c18.69,1.92,37.36,4.11,56.05,6
		c18.36,1.85,36.75,3.45,55.13,5.17c22.46,2.11,44.92,4.23,67.38,6.38c0.42,0.04,0.8,0.49,1.14,0.72c-0.04,0.49,0.02,0.87-0.11,1.15
		c-13.48,29.05-22.22,59.67-30.67,90.45c-3.06,11.15-7.2,22.2-12.39,32.52c-6.89,13.69-13.35,27.43-17.42,42.21
		c-4,14.52-7.92,29.07-11.82,43.61c-6.35,23.65-13.33,47.15-18.8,71c-6.54,28.48-11.69,57.27-17.62,85.9
		c-5.82,28.12-11.76,56.22-17.89,84.27C817.2,643.64,814.65,651.2,812.49,658.84z"/>
	<path class="st2" d="M258.66,321.18c-3.06,8.86-5.7,17.9-9.27,26.55c-5.28,12.83-12.1,25.1-16.57,38.18
		c-3.15,9.22-4.57,19.35-4.89,29.14c-0.71,21.3,0.05,42.64-0.31,63.95c-0.28,17.12-1.06,34.24-2.09,51.33
		c-1.03,17.05-2.48,34.07-4.09,51.08c-1.82,19.2-4.14,38.34-6.03,57.53c-1.26,12.75-2.05,25.54-3.23,38.3
		c-1.94,20.9-4.09,41.79-6.06,62.69c-1.17,12.41-1.93,24.87-3.26,37.26c-1.36,12.72-3.42,25.36-4.76,38.07
		c-1.4,13.25-3.16,26.55-3.08,39.81c0.05,7.26,2.97,14.74,5.66,21.71c5.45,14.11,13.43,26.85,22.28,39.15
		c9.7,13.47,18.25,27.77,28.09,41.13c11.75,15.97,24.06,31.55,36.76,46.77c3.06,3.67,8.3,6.42,13.04,7.63
		c17.85,4.58,35.8,8.98,53.94,12.22c12.39,2.21,25.13,2.84,37.74,3.37c18.34,0.76,36.71,1.2,55.06,1.02
		c19.69-0.2,39.38-1.19,59.07-1.99c13.33-0.54,26.65-1.41,39.99-2.02c16.42-0.75,32.85-2,49.27-1.86
		c13.11,0.11,26.21,1.97,39.32,3.1c0.42,0.04,0.8,0.59,1.19,0.9c-12.05,1.71-24.08,3.54-36.15,5.1
		c-29.29,3.79-58.4,7.93-86.84,16.74c-14.92,4.62-31.07,5.21-46.6,7.97c-25.68,4.56-51.32,9.39-76.97,14.11
		c-13.66,2.51-27.28,6.2-41.22,1.74c-8.99-2.88-17.94-5.89-26.91-8.85c-14.45-4.78-29.4-5.21-44.35-4.36
		c-3.98,0.23-5.39-1.02-6.93-4.07c-9.99-19.82-20.8-39.14-34.26-56.87c-13.07-17.21-28.48-32.2-44.91-46.04
		c-6.66-5.61-10.24-12.05-12.11-20.14c-6.36-27.64-13.45-55.09-25.82-80.78c-4.08-8.47-9.4-16.33-13.86-24.63
		c-0.99-1.84-1.63-4.63-0.99-6.49c13.96-40.82,22.22-82.95,27.74-125.55c3.75-28.91,5.53-58.1,7.74-87.2
		c5.23-68.85,2-137.83,3.18-206.75c0.32-18.36,1.98-36.7,3.19-55.04c0.09-1.37,1.23-3.35,2.4-3.87
		c23.75-10.48,48.89-15.88,74.36-20.06C257.62,321.07,258.14,321.16,258.66,321.18z"/>
	<path class="st1" d="M628.21,173.02c3.02-0.54,6.04-1.07,9.06-1.61c8.7-2.48,17.41-4.96,26.11-7.45l-0.05,0.19
		c0.17,3.89,0.16,7.8,0.56,11.67c1.1,10.6,2.38,21.17,3.59,31.76c-16.62,1.73-33.31,3.01-49.85,5.32
		c-19.91,2.77-39.8,5.93-59.52,9.82c-22.26,4.39-44.33,9.77-66.48,14.75c-24.32,5.47-48.76,10.45-72.9,16.6
		c-27.16,6.92-54.09,14.72-81.01,22.55c-6.97,2.03-13.49,5.57-20.22,8.42c-18.19,3.16-36.38,6.33-54.57,9.49
		c-0.39-0.91-1-1.79-1.13-2.73c-2.4-17.74-4.57-35.52-7.17-53.24c-1.68-11.45-4-22.8-6.23-35.36c6.33,0.46,12.21,1.13,18.09,1.28
		c23.84,0.62,47.55-0.17,71.11-4.62c15.85-2.99,31.9-3.4,47.77,0.67c18.67,4.79,37.47,8.1,56.83,5.06
		c16.68-2.62,33.38-5.12,50.03-7.92c18.18-3.05,36.28-6.55,54.47-9.56c22.22-3.67,44.51-6.9,66.72-10.63
		C618.46,176.66,623.28,174.55,628.21,173.02z"/>
	<path class="st2" d="M946,292.74c0,0-0.21-0.15-0.21-0.15c0.87-1.63,1.97-3.18,2.57-4.9c2.14-6.14,4.1-12.34,6.16-18.51
		c5.79-17.37,11.6-34.73,17.41-52.1c0.69,0,1.39,0,2.08,0c-0.19,6.31-1.15,12.72-0.37,18.91c1.09,8.68,6.57,15.45,12.73,21.3
		c3.22,3.06,3.67,5.8,1.86,9.51c-6.18,12.66-12.26,25.36-18.44,38.02c-10.95,22.45-20.48,45.43-25.04,70.13
		c-1.37,7.41-2.66,15.02-2.46,22.49c0.65,23.83-5.22,46.23-13.18,68.37c-9.35,26.02-18.89,52.08-23.5,79.44
		c-4.99,29.6-9.38,59.33-12.96,89.13c-2.63,21.93-8.53,43.05-12.95,64.54c-5.81,28.21-10.2,56.72-15.2,85.1
		c-0.41,2.34-0.79,4.68-1.41,8.34c-1.78-3.99-3.04-6.9-4.37-9.78c-4.16-9.05-8.39-18.08-12.48-27.16c-0.74-1.64-0.95-3.52-1.4-5.3
		c1.82-11.63,3-23.4,5.58-34.85c8.95-39.82,18.59-79.49,27.58-119.3c7.15-31.64,13.8-63.39,20.56-95.11
		c6.97-32.72,13.54-65.52,20.76-98.19c5.79-26.18,12.27-52.22,18.5-78.3c1.98-8.3,4.13-16.56,6.21-24.84
		C944.68,297.26,945.34,295,946,292.74z"/>
	<path class="st3" d="M812.49,658.84c2.16-7.64,4.71-15.2,6.4-22.95c6.13-28.06,12.06-56.15,17.89-84.27
		c5.93-28.62,11.08-57.42,17.62-85.9c5.48-23.85,12.46-47.35,18.8-71c3.9-14.55,7.82-29.09,11.82-43.61
		c4.08-14.78,10.54-28.53,17.42-42.21c5.19-10.32,9.33-21.37,12.39-32.52c8.45-30.77,17.19-61.4,30.67-90.45
		c0.13-0.28,0.07-0.66,0.11-1.15c-0.34-0.22-0.72-0.68-1.14-0.72c-22.46-2.15-44.92-4.27-67.38-6.38
		c-18.38-1.73-36.77-3.32-55.13-5.17c-18.7-1.88-37.36-4.08-56.05-6c-14.62-1.5-29.26-2.77-43.89-4.15c-0.32-0.1-0.63-0.2-0.95-0.3
		c-0.58-3.21-1.16-6.42-1.64-9.1c1.87-1.6,3.29-2.81,4.71-4.03c29.99,2.01,59.98,4.25,89.99,5.97c48.31,2.77,96.07,9.3,143.26,20.02
		c0.83,0.19,1.62,0.54,3.01,1.01c-6.34,10.08-10.67,20.69-12.4,32.36c-2.14,14.43-4.35,28.87-7.28,43.16
		c-2.45,11.93-5.47,23.8-9.22,35.37c-2.02,6.22-4.96,12.95-9.5,17.41c-15.21,14.97-21.44,33.17-22.35,53.82
		c-0.71,16.31-4.66,31.94-10.31,47.14c-10.2,27.47-16.48,55.95-22.66,84.51c-5.87,27.18-12.41,54.22-18.66,81.32
		c-0.21,0.87-0.42,1.75-0.64,2.62c0.16,0.18,0.15,0.36-0.04,0.51c-0.83,1.6-1.89,3.13-2.45,4.82c-2.16,6.48-4.01,13.06-6.26,19.5
		c-7.91,22.74-15.94,45.44-23.93,68.15C813.99,664,813.24,661.42,812.49,658.84z"/>
	<path class="st2" d="M628.21,173.02c-4.92,1.53-9.75,3.63-14.79,4.48c-22.21,3.73-44.5,6.96-66.72,10.63
		c-18.18,3.01-36.29,6.5-54.47,9.56c-16.65,2.8-33.35,5.3-50.03,7.92c-19.36,3.04-38.16-0.27-56.83-5.06
		c-15.87-4.07-31.91-3.66-47.77-0.67c-23.56,4.45-47.28,5.24-71.11,4.62c-5.89-0.15-11.76-0.82-18.09-1.28
		c2.24,12.56,4.55,23.91,6.23,35.36c2.61,17.71,4.77,35.49,7.17,53.24c0.13,0.94,0.74,1.82,1.13,2.73
		c-10.47,1.33-20.98,2.41-31.39,4.07c-13.97,2.22-27.87,4.89-41.79,7.36c-0.23-0.25-0.48-0.49-0.74-0.7
		c3.35-4.94,6.45-10.07,10.1-14.77c4.2-5.42,9.07-10.32,13.29-15.72c4.96-6.35,3.3-13.83,2.43-20.9
		c-2.18-17.71-4.74-35.37-7.14-53.05c4.58,0.03,9.16-0.13,13.72,0.14c8.42,0.49,16.83,1.23,26.22,1.94
		c-1.32-6.24-2.52-11.29-3.37-16.41c-0.19-1.17,0.82-2.54,1.28-3.82c4.58,0.69,9.23,1.09,13.73,2.12c13.52,3.1,26.85,0.43,39.83-2.3
		c27.25-5.73,53.91-2.73,80.69,2.58c8.73,1.73,17.65,2.51,26.47,3.87c1.38,0.21,3.27,0.84,3.84,1.87c2.58,4.74,6.62,4.95,11.11,4.2
		c22.85-3.8,45.65-7.97,68.57-11.32c19.01-2.78,38.11-5.19,57.25-6.71c25.14-2,50.37-2.97,75.56-4.33
		C624.44,172.55,626.33,172.89,628.21,173.02z"/>
	<path class="st4" d="M883.95,1020.36c-1.06-3.75-2.17-7.48-3.18-11.24c-7.48-27.93-14.73-55.93-22.45-83.79
		c-8.96-32.34-18.08-64.64-27.59-96.82c-7.67-25.95-15.92-51.74-24.12-77.53c-6.54-20.56-13.37-41.03-20.14-61.51
		c-0.38-1.14-1.49-2.05-2.26-3.06c-1.53-7-3.13-13.99-4.56-21.01c-1.66-8.15-4.47-16.4,1.34-24.15c2.58-1.17,5.17-2.34,7.76-3.52
		c4.66,15.44,9.15,30.93,14.02,46.31c12.51,39.5,28.87,77.47,45.15,115.53c15.26,35.67,26.37,72.8,32.36,111.47
		c4.22,27.26,11.05,54.12,16.86,81.13c1.48,6.86,3.45,13.61,5.29,20.39c1.16,4.29-3.86,10.8-8.66,10.41
		C890.44,1022.69,887.22,1021.27,883.95,1020.36z"/>
	<path class="st1" d="M336.04,165.06c-20.17,2.64-40.28,5.99-60.53,7.63c-9.68,0.78-19.63-1.63-29.45-2.71
		c-2.36-0.26-4.68-0.97-7.02-1.47c-0.26-2.69-0.69-5.38-0.75-8.08c-0.2-10.16-0.6-20.32-0.32-30.47c0.25-8.8,1.32-17.58,2.02-26.38
		c0.37-0.06,0.75-0.11,1.12-0.17c11.64,0.36,23.29,0.48,34.91,1.15c19.95,1.14,39.87,2.95,59.83,3.86
		c13.12,0.6,26.29,0.12,39.43,0.13c0.37,0.05,0.74,0.1,1.11,0.14c0.34,8.54,0.56,17.08,1.06,25.6c0.25,4.24,0.42,8.63,1.68,12.62
		c1.77,5.61,4.52,10.91,6.82,16.28c-1.43-0.25-3.42-0.88-5.41-0.9c-11.41-0.09-22.83-0.26-34.23,0.09
		C342.87,162.49,339.47,164.13,336.04,165.06z M334.04,151.88c0.1,0.09,0.2,0.19,0.31,0.28c-0.12-0.08-0.24-0.15-0.36-0.23
		c-14.37-11.12-37.55-6.2-52.25,2.79c0.34,0,0.71,0.09,1.01-0.01c1.94-0.67,3.85-1.41,5.79-2.07c13.33-4.56,26.71-7.66,40.52-1.8
		C330.59,151.5,332.37,151.55,334.04,151.88z"/>
	<path class="st5" d="M944.02,299.52c-2.07,8.28-4.23,16.54-6.21,24.84c-6.23,26.09-12.71,52.12-18.5,78.3
		c-7.22,32.66-13.79,65.47-20.76,98.19c-6.76,31.72-13.41,63.47-20.56,95.11c-8.99,39.81-18.63,79.48-27.58,119.3
		c-2.58,11.46-3.76,23.23-5.58,34.85c-1.18-2.22-2.56-4.35-3.49-6.67c-2.3-5.74-3.73-11.94-6.72-17.27
		c-6.62-11.8-1.96-23.17,0.63-34.46c14.88-64.96,30.52-129.74,44.97-194.79c7.5-33.75,15.63-67.22,27.33-99.78
		c5.94-16.53,6.47-34.03,8.42-51.24c1.02-9.05,4.48-16.75,10.04-23.82c5.81-7.39,11.28-15.04,16.89-22.58
		C943.28,299.51,943.65,299.52,944.02,299.52z"/>
	<path class="st6" d="M779.07,599.85c-2.06-6.46-4.29-12.87-6.14-19.38c-10.51-36.91-20.49-73.97-31.51-110.72
		c-9.21-30.71-19.92-60.97-29.31-91.62c-5.16-16.84-8.76-34.15-13.46-51.14c-6.81-24.6-13.99-49.1-20.99-73.64
		c-0.42-1.47-0.7-2.99-1.04-4.48c9.42-1.71,18.85-3.42,28.9-5.25c6.26,22.33,15.8,43.32,18.64,66.74
		c3.32,27.37,9.34,54.42,14.56,81.53c9.47,49.19,19.19,98.34,28.88,147.49c3.55,18.01,7.3,35.98,10.9,53.99
		C778.89,595.48,778.88,597.69,779.07,599.85z"/>
	<path class="st7" d="M964.3,459.48c0.29,22.41-2.19,44.48-7.05,66.38c-8.99,40.53-17.77,81.12-26.13,121.79
		c-2.13,10.37-3.28,21.13-3.32,31.72c-0.14,30.23-3.78,59.8-11.73,89.06c-7.85,28.89-10.94,58.66-13.26,88.48
		c-1.32,16.94-2.96,33.86-4.49,50.79c-0.15,1.68-0.6,3.33-0.78,4.24c-3.82-17.47-7.79-35.49-11.62-53.53
		c-0.32-1.53,0.04-3.36,0.58-4.88c8.17-23.14,16.68-46.21,19.88-70.72c2.48-19.06,4.7-38.16,6.62-57.28
		c2.64-26.3,4.88-52.63,7.32-78.95c1.06-11.45,2.2-22.89,3.3-34.33c0.58-0.53,1.51-0.97,1.68-1.61c1.51-5.77,2.87-11.58,4.31-17.36
		c10-40.07,19.98-80.14,30.08-120.18C960.84,468.45,962.74,464,964.3,459.48z"/>
	<path class="st4" d="M375.29,108.56c-13.15-0.01-26.32,0.47-39.43-0.13c-19.96-0.91-39.88-2.72-59.83-3.86
		c-11.62-0.67-23.27-0.78-34.91-1.15c0.36-9.47,0.71-18.94,1.07-28.41c10.61,0.57,21.22,1.2,31.84,1.71
		c32.74,1.59,65.47,3.14,98.21,4.71c0.68,0.03,1.36,0.15,2.04,0.23C374.61,90.63,374.95,99.59,375.29,108.56z"/>
	<path class="st8" d="M634.26,145.77c0.39,2.05,0.78,4.1,1.18,6.15c-0.32,3.14-0.65,6.29-0.97,9.43c-3.49,5.23-8.01,7.14-14.63,7.36
		c-24.99,0.83-50.07,1.5-74.89,4.23c-33.29,3.66-66.37,9.16-99.54,13.9c-4.57,0.65-9.1,1.57-13.67,2.13
		c-1.63,0.2-3.47,0.03-5.01-0.53c-7.83-2.86-13.01-10.8-13.35-19.1c-1.02-25.22-4.55-50.04-11.31-74.45
		c-1.6-5.78-1.44-12.34-0.66-18.36c0.34-2.65,3.83-6,6.63-7.02c10.59-3.88,21.48-6.95,32.25-10.32c0.01,2.69,0.03,5.37,0.04,8.06
		c-1.13,0.68-2.27,1.36-3.4,2.05c-8.29,2.49-16.59,4.96-24.87,7.48c-6.44,1.96-6.58,2.04-4.49,8.37
		c9.38,28.44,14.29,57.6,14.42,87.56c0.02,5.43,3.8,8.38,9.4,7.57c32.77-4.72,65.53-9.56,98.33-14.09
		c29.11-4.02,58.34-6.72,87.79-6.28c2.36,0.04,4.73-0.44,7.09-0.68c1.06,0.19,2.13,0.39,3.58,0.65c-0.76-5.43-1.43-10.3-2.11-15.18
		C628.8,145.05,631.53,145.41,634.26,145.77z"/>
	<path class="st7" d="M721.08,162.05c0.31,0.11,0.63,0.21,0.95,0.3c2.22,13.63,4.37,27.27,6.67,40.88c3.6,21.34,7.24,42.68,10.98,64
		c3.15,17.97,6.58,35.89,9.69,53.86c3.75,21.66,7.46,43.34,10.88,65.06c1.72,10.94,2.84,21.97,4.01,32.98
		c0.22,2.05-0.61,4.21-0.96,6.32c-3.35-15.19-7.19-30.29-9.95-45.59c-5.2-28.81-9.34-57.81-14.83-86.56
		c-2.3-12.03-6.79-23.66-10.5-35.4c-5.05-16.01-10.3-31.96-15.47-47.93c3.65-2.19,7.3-4.37,10.95-6.56
		c-0.02-0.39-0.05-0.78-0.07-1.17c-4.25,0.43-8.49,0.87-12.74,1.3c-3.49-15.44-6.98-30.89-10.47-46.34
		c1.53-0.75,3.06-1.51,4.59-2.26C710.25,157.32,715.67,159.68,721.08,162.05z"/>
	<path class="st7" d="M317.51,285.05c6.73-2.85,13.25-6.4,20.22-8.42c26.91-7.83,53.85-15.63,81.01-22.55
		c24.14-6.15,48.58-11.13,72.9-16.6c22.15-4.98,44.21-10.36,66.48-14.75c19.72-3.89,39.61-7.04,59.52-9.82
		c16.54-2.3,33.23-3.58,49.85-5.32c0.34,1.56,0.68,3.12,1.02,4.67c-20.5,3.21-41.08,5.97-61.47,9.72
		c-34.24,6.31-68.53,12.49-102.49,20.08c-59.43,13.29-118.62,27.63-177.92,41.48C323.62,284.26,320.54,284.56,317.51,285.05z"/>
	<path class="st9" d="M908.22,636c-2.78,31.3-5.43,62.61-8.4,93.9c-1.85,19.48-3.3,39.07-6.58,58.34
		c-2.95,17.37-8.15,34.37-12.9,51.6c-3.59-10.3-8.22-19.84-6.55-31.76c6.65-47.49,15.1-94.58,27.19-141.01
		c2.28-8.76,3.1-17.9,4.6-26.86c0.09-0.71,0.19-1.41,0.29-2.12c0.04-0.68,0.09-1.35,0.13-2.03
		C906.73,636.03,907.47,636.01,908.22,636z"/>
	<path class="st3" d="M624.56,94.38c-3.46-9.8-6.92-19.61-10.64-30.16c15.26,0.66,29.72,1.29,44.17,1.92
		c0.1,8.73-1.02,17.6,3.1,25.84c-0.3,1.58-1.12,3.28-0.82,4.73c1.27,6.03,2.73,12.03,4.41,17.96c2.49,8.77,5.22,17.46,7.85,26.19
		c0.5-0.14,1.01-0.28,1.51-0.42c-1.29-5.29-2.51-10.59-3.87-15.86c-2.36-9.13-4.79-18.23-7.19-27.35
		c6.23-0.69,12.46-1.38,18.69-2.08c-0.34,10.61-0.94,21.21-0.94,31.82c0,8.19,0.74,16.37,1.18,25.13
		c-6.61-0.51-13.16-1.01-19.72-1.51c-0.44-4.33-0.89-8.67-1.33-13c-0.75-13.25-1.49-26.5-2.28-40.42
		C647.22,96.23,635.89,95.3,624.56,94.38z"/>
	<path class="st10" d="M440.32,67.24c-0.01-2.69-0.02-5.37-0.04-8.06c10.29-2.44,20.46-5.96,30.89-7.1
		c19.88-2.18,39.9-4.06,59.86-4.06c16.14,0,32.3,2.87,48.43,4.61c6.11,0.66,12.24,1.46,18.26,2.68c7.48,1.51,12.85,6.83,14.98,13.42
		c7.25,22.47,13.58,45.25,20.13,67.94c0.84,2.92,0.96,6.06,1.42,9.09c-2.73-0.36-5.46-0.71-8.19-1.07
		c-0.21-0.47-0.47-0.92-0.61-1.41c-6.89-24.44-13.83-48.88-20.59-73.36c-1.01-3.65-2.81-5.41-6.62-5.83
		c-5.8-0.63-11.53-1.77-17.3-2.66c-22.13-3.42-44.37-5.35-66.79-4.68C489.14,57.5,464.53,60.96,440.32,67.24z"/>
	<path class="st7" d="M336.04,165.06c3.43-0.94,6.83-2.57,10.28-2.68c11.4-0.34,22.82-0.18,34.23-0.09c1.99,0.02,3.98,0.65,5.41,0.9
		c-2.3-5.37-5.05-10.67-6.82-16.28c-1.26-3.99-1.43-8.38-1.68-12.62c-0.5-8.53-0.72-17.07-1.06-25.6c3.44-0.39,6.87-0.78,10.31-1.17
		c0.43,11.05,0.6,22.14,5.37,32.55c-1.3-11.02-2.6-22.04-3.91-33.06c3.98-1.2,7.95-2.41,11.93-3.61c2.4,12.57,5.22,25.07,7.08,37.72
		c1.36,9.29,1.49,18.76,2.12,28.16c0.11,1.65,0.02,3.32,0.02,5.37C384.45,171.41,360.24,168.24,336.04,165.06z"/>
	<path class="st5" d="M964.3,459.48c-1.56,4.53-3.46,8.97-4.63,13.59c-10.1,40.04-20.07,80.12-30.08,120.18
		c-1.44,5.79-2.8,11.59-4.31,17.36c-0.17,0.64-1.1,1.08-1.68,1.61c1.95-14.93,3.51-29.93,5.94-44.78
		c4.87-29.72,10.22-59.36,15.4-89.03c0.26-1.51,0.75-2.99,1.13-4.48c0.05-0.68,0.09-1.37,0.14-2.05c0.11-1.02,0.22-2.03,0.33-3.05
		c0.51-0.61,1.32-1.15,1.48-1.84c4.63-20.85,9.16-41.72,13.83-62.56c0.75-3.35,2.12-6.56,3.21-9.84
		C964.81,416.22,964.56,437.85,964.3,459.48z"/>
	<path class="st2" d="M240,103.59c-0.71,8.79-1.78,17.57-2.02,26.38c-0.28,10.15,0.11,20.31,0.32,30.47
		c0.05,2.7,0.49,5.39,0.75,8.08c-9.86-1.11-19.75-2.03-29.57-3.4c-5.03-0.7-6.62-3.13-4.7-8.01c3.31-8.42,7.28-16.58,11.15-24.76
		c4.36-9.21,7.82-18.64,8.07-28.98C229.33,103.44,234.67,103.51,240,103.59z"/>
	<path class="st1" d="M624.56,94.38c11.33,0.93,22.65,1.85,34.12,2.79c0.78,13.92,1.53,27.17,2.28,40.42
		c-7.82,0.31-15.64,0.62-23.46,0.93C633.19,123.81,628.88,109.09,624.56,94.38z"/>
	<path class="st6" d="M668.5,212.27c-0.34-1.56-0.68-3.11-1.02-4.67c-1.21-10.59-2.49-21.16-3.59-31.76
		c-0.4-3.87-0.39-7.78-0.56-11.67c5.98,0.29,11.98,0.45,17.94,1c1.24,0.12,3.12,1.52,3.4,2.66c2.99,12.15,5.72,24.37,8.5,36.57
		c0.15,0.65,0.14,1.34,0.31,3.09C685.14,209.08,676.82,210.67,668.5,212.27z"/>
	<path class="st11" d="M245.54,182.67c-0.46,1.28-1.48,2.65-1.28,3.82c0.85,5.11,2.05,10.17,3.37,16.41
		c-9.39-0.71-17.8-1.45-26.22-1.94c-4.56-0.27-9.14-0.11-13.72-0.14c-1.41-7.37-2.83-14.73-4.5-23.44
		C218.13,176.99,231.76,180.61,245.54,182.67z"/>
	<path class="st9" d="M814.74,666.59c7.98-22.71,16.01-45.41,23.93-68.15c2.24-6.45,4.09-13.03,6.26-19.5
		c0.56-1.69,1.62-3.21,2.45-4.82c-3.78,17.59-7.52,35.19-11.36,52.77c-4.28,19.6-8.65,39.17-12.99,58.75
		c-0.22,1-0.62,1.95-1.43,4.41C819.06,681.36,816.9,673.97,814.74,666.59z"/>
	<path class="st4" d="M681.77,95.16c-6.23,0.69-12.46,1.38-18.69,2.08c-0.63-1.75-1.25-3.51-1.88-5.26c-4.12-8.24-3-17.12-3.1-25.84
		c6.86,0.17,13.71,0.35,20.57,0.52c2.01,1.95,4.02,3.89,6.03,5.84C683.72,80.05,682.74,87.6,681.77,95.16z"/>
	<path class="st9" d="M971.92,217.08c-5.8,17.37-11.61,34.73-17.41,52.1c-2.06,6.17-4.02,12.37-6.16,18.51
		c-0.6,1.72-1.7,3.27-2.57,4.9c3.13-13,6.76-25.9,9.28-39.02c2.98-15.48,4.61-31.22,7.55-46.71c2.73-14.38,0.84-11.42,16.43-13.2
		c-0.67,2.63-1.35,5.25-2.02,7.88c-1.55,1-3.26,1.82-4.62,3.03C967.43,208.97,967.36,212.24,971.92,217.08z"/>
	<path class="st12" d="M965.06,394.6c-1.09,3.28-2.46,6.49-3.21,9.84c-4.67,20.84-9.2,41.71-13.83,62.56
		c-0.15,0.69-0.97,1.23-1.48,1.84c0.7-6.43,0.52-13.11,2.29-19.23c3.98-13.78,6.37-27.67,6.55-42.01
		c0.27-21.22,3.45-41.92,12.28-63.04C966.75,362.19,965.91,378.4,965.06,394.6z"/>
	<path class="st13" d="M386.71,107.53c-3.44,0.39-6.87,0.78-10.31,1.17c-0.37-0.05-0.74-0.09-1.11-0.14
		c-0.34-8.97-0.68-17.93-1.02-26.9c6.82-0.4,13.64-0.81,20.55-1.21c1.83,7.99,3.55,15.48,5.27,22.97c-3.98,1.2-7.95,2.41-11.92,3.61
		c-0.36-0.45-0.72-0.91-1.07-1.35C386.96,106.34,386.84,106.94,386.71,107.53z"/>
	<path class="st13" d="M240,103.59c-5.33-0.08-10.67-0.15-16-0.23c-0.13-7.49-0.16-14.98-0.44-22.46c-0.1-2.7,0.72-4.3,3.46-4.57
		c5.05-0.49,10.11-0.89,15.17-1.33c-0.36,9.47-0.71,18.94-1.07,28.41C240.75,103.48,240.37,103.53,240,103.59z"/>
	<path class="st14" d="M679.78,218.15c5.24-1.39,10.47-2.77,15.69-4.16c0.43,0.76,0.75,1.17,0.9,1.63
		c2.21,6.99,4.39,13.98,6.71,21.38c-1.72,0.42-3.29,0.8-4.77,1.16c-1.04-1.46-1.91-2.71-3.61-5.1c-0.27,2.83-0.4,4.19-0.55,5.84
		c-2.91-0.14-6.1,3.38-8.39-1.22c-2.01-5.04-4.01-10.08-6.02-15.12C679.76,221.09,679.77,219.62,679.78,218.15z"/>
	<path class="st13" d="M971.92,217.08c-4.56-4.83-4.49-8.11,0.48-12.51c1.37-1.21,3.07-2.03,4.62-3.03
		c6.15,0.66,12.31,1.33,18.46,1.99c0.41,8.29,0.83,16.57,1.24,24.86c-1.76-0.7-3.52-1.4-5.28-2.11c-1.93-1.43-3.87-2.86-5.8-4.28
		c0.7-2.42,1.71-4.8,2-7.26c0.25-2.13,0.45-5.45-0.73-6.29c-1.64-1.17-5.52-1.56-6.76-0.43c-2.63,2.39-4.17,5.98-6.16,9.07
		C973.3,217.08,972.61,217.08,971.92,217.08z"/>
	<path class="st7" d="M637.5,138.53c7.82-0.31,15.64-0.62,23.46-0.93c0.44,4.33,0.88,8.67,1.33,13c-7.27,0-14.53,0-22.59,0
		C639.05,147.06,638.28,142.79,637.5,138.53z"/>
	<path class="st12" d="M464.03,258.58c1.14,4.44,2.22,8.68,3.29,12.85c-7.16,3.06-7.16,3.06-13.46-3.5c0.55,2.07,1.1,4.15,1.96,7.36
		c-2.84,0-6.93,0.99-7.7-0.19c-2.07-3.18-2.82-7.25-3.78-11.05c-0.09-0.36,2.01-1.8,3.13-1.84
		C453.18,261.99,458.12,258.58,464.03,258.58z"/>
	<path class="st9" d="M645.57,239.67c0.34,1.45,0.67,2.89,1.01,4.34c-11.32,2.49-11.91,2.22-16.04-7.16
		c-0.43,0.11-0.87,0.22-1.3,0.32c0.63,2.55,1.27,5.09,1.9,7.64c-7.72,3.14-8.63,2.76-12.18-5.19c-0.02-0.67-0.04-1.35-0.06-2.02
		c7.84-2.05,15.69-4.11,23.53-6.17C643.48,234.18,644.52,236.92,645.57,239.67z"/>
	<path class="st12" d="M597.14,243.84c-0.31-0.37-0.62-0.74-0.92-1.1c-1.09-3.79-2.18-7.59-3.27-11.38c6.89-1,13.79-1.99,20.68-2.99
		c0.74,3.4,1.49,6.81,2.23,10.22c-2.79,0.7-5.57,1.41-8.36,2.11c-0.61-0.68-1.22-1.36-2.48-2.77c0.13,1.87,0.19,2.84,0.26,3.82
		C602.56,242.44,599.85,243.14,597.14,243.84z"/>
	<path class="st13" d="M679.78,218.15c-0.01,1.47-0.02,2.94-0.04,4.41c1.61,5.49,3.23,10.98,4.84,16.47
		c-2.04,5.69-3.73,1.95-4.7,0.63c-2.47,0.89-4.38,1.57-6.29,2.26c-1.37-6.61-2.74-13.21-4.11-19.82c-0.03-0.72-0.06-1.45-0.09-2.17
		C672.87,219.34,676.32,218.75,679.78,218.15z"/>
	<path class="st7" d="M554.26,238.45c1.65,5.82,3.08,10.9,4.74,16.74c-3.42,0.68-6.68,1.56-9.98,1.86
		c-1.06,0.09-2.87-1.11-3.28-2.14c-1.68-4.26-2.95-8.67-4.57-13.66C545.7,240.28,549.77,239.41,554.26,238.45z"/>
	<path class="st12" d="M642.43,231.43c-7.84,2.06-15.69,4.11-23.53,6.17c-1.08-3.12-2.17-6.24-3.25-9.35
		c2.94-0.66,5.85-1.6,8.82-1.82c1.12-0.08,2.36,1.54,3.33,2.23c1.85-6.48,8.26-3.23,12.78-4.56
		C641.19,226.54,641.81,228.99,642.43,231.43z"/>
	<path class="st13" d="M721.08,162.05c-5.42-2.36-10.84-4.72-16.26-7.08c0.24-3.4,0.49-6.81,0.73-10.22
		c6.2,1.39,12.4,2.78,18.6,4.17c-1.42,1.22-2.85,2.44-4.71,4.03C719.93,155.62,720.5,158.83,721.08,162.05z"/>
	<path class="st12" d="M444.91,276.4c-7.47,3.48-7.52,3.45-10.11-3.52c-0.68-1.82-1.51-3.57-2.27-5.36
		c-0.49,0.16-0.99,0.33-1.48,0.49c1.05,3.69,2.09,7.38,3.23,11.38c-1.78,0.42-3.2,0.75-5.09,1.19c-1.22-4.48-2.35-8.68-3.62-13.35
		c5.39-1.26,10.3-2.41,15.58-3.65C442.47,268.1,443.7,272.28,444.91,276.4z"/>
	<path class="st12" d="M227.19,319.79c-0.21-0.8-0.41-1.28-0.44-1.77c-0.79-12.62,0.47-13.82,13.54-12.93
		C242.67,316.59,240.62,318.95,227.19,319.79z"/>
	<path class="st12" d="M908.22,636c-0.74,0.01-1.49,0.02-2.23,0.04c1.44-13.47,2.68-26.97,4.39-40.41
		c1.26-9.87,3.13-19.65,4.77-29.47c0.32-1.95,0.8-3.88,1.2-5.82c0.41,0.07,0.82,0.15,1.23,0.22c-1.2,8.46-2.58,16.9-3.57,25.38
		c-1.83,15.68-3.43,31.4-5.15,47.09C908.74,634.03,908.43,635.01,908.22,636z"/>
	<path class="st12" d="M194.68,101.89c-0.43,3.49-1.25,6.14-0.98,8.67c0.96,9.09,2.56,18.11,3.32,27.21
		c0.21,2.48-1.67,5.13-2.59,7.7c-0.46-0.06-0.91-0.13-1.37-0.19c-1.14-8.9-2.28-17.8-3.41-26.7c-0.24-1.86-0.3-3.77-0.76-5.58
		C187.6,107.99,190.18,105.06,194.68,101.89z"/>
	<path class="st12" d="M571.14,252.65c-7.85,3.32-9.16,2.8-11.32-4.28c-0.99-3.24-1.91-6.5-2.8-9.56c0.49-0.52,0.68-0.91,0.95-0.97
		c9.25-2.25,9.24-2.24,11.3,7.07C569.82,247.4,570.46,249.88,571.14,252.65z"/>
	<path class="st9" d="M667.46,239.66c0.18,0.71,0.36,1.41,0.53,2.11c-0.2,0.33-0.4,0.66-0.6,0.99c-3.16-0.32-6.31-0.65-9.47-0.97
		c-1.73-4.41-3.45-8.83-5.18-13.24c3.44-1.45,6.87-2.89,10.31-4.34C664.52,229.36,665.99,234.51,667.46,239.66z"/>
	<path class="st12" d="M412.88,270.28c1.46,4.57,2.78,8.68,4.21,13.13c-4.32,0.95-7.94,1.99-11.62,2.43
		c-1.24,0.15-3.29-0.9-3.88-1.99c-1.53-2.8-2.44-5.94-3.64-9.04c3.17-2.29,4.64-0.94,5.99,1.82c1.33,2.71,3.09,5.22,4.66,7.82
		c0.6-0.34,1.2-0.68,1.8-1.03c-1.62-3.41-3.24-6.81-5.15-10.82C407.76,271.84,410.09,271.13,412.88,270.28z"/>
	<path class="st12" d="M213.52,323.32c0-5.17,0-9.87,0-15.32c3.33-0.48,6.87-0.99,10.99-1.58c0,4.51,0.19,8.23-0.12,11.92
		c-0.09,1.06-1.47,2.48-2.58,2.89C219.3,322.17,216.6,322.58,213.52,323.32z"/>
	<path class="st7" d="M494.44,266.47c-3.94,0.8-7.37,1.5-11.11,2.26c-0.88-2.35-1.68-4.37-2.38-6.42c-2.47-7.24-2.42-7.11,5.03-8.92
		c3.29-0.8,5.18-0.27,5.89,3.33C492.47,259.84,493.47,262.88,494.44,266.47z"/>
	<path class="st7" d="M520.91,246.01c2.67-0.83,5.35-1.67,8.42-2.63c1.9,5.49,3.6,10.42,5.28,15.3c-6.92,3.71-8.57,3.14-11.41-3.6
		c-0.31-0.74-0.91-1.36-1.38-2.03l0.06,0.05c-0.01-0.72-0.01-1.44-0.02-2.16C521.56,249.3,521.23,247.66,520.91,246.01z"/>
	<path class="st12" d="M466.16,257.71c3.68-0.67,6.97-1.28,10.58-1.94c1.22,4.71,2.3,8.93,3.39,13.14
		C469.69,271.98,470.34,273.55,466.16,257.71z"/>
	<path class="st7" d="M200.87,316.06c0.01,1.54,0,3.08,0.04,4.62c0.17,7.11-0.29,7.61-8.25,8.65c-0.23-5.11-1.02-10.28-0.32-15.24
		c0.2-1.42,4.69-2.24,7.22-3.34C203.44,311.67,201.55,314.01,200.87,316.06z"/>
	<path class="st12" d="M200.87,316.06c0.67-2.04,2.56-4.39-1.32-5.3c3.57-0.81,7.13-1.62,11.35-2.58c0,5.25,0.66,9.79-0.29,13.96
		c-0.44,1.92-4.03,3.11-7.48,5.55c0-3.85,0.27-6-0.1-8.04C202.8,318.36,201.62,317.25,200.87,316.06z"/>
	<path class="st12" d="M505.26,260.42c0.21,1,0.43,1.99,0.64,2.99c-0.11,0.36-0.22,0.72-0.32,1.08c-7.73,2.25-7.86,2.2-10.32-4.98
		c-0.77-2.26-1.46-4.56-2.41-7.53c3.74,0.31,6.81-4.78,10.47,0.04C503.97,254.82,504.61,257.62,505.26,260.42z"/>
	<path class="st9" d="M270.26,300.97c1.55-0.14,2.85-0.26,4.45-0.4c0.67,2.98,2.48,7.78,1.73,8.22c-3.87,2.27-8.4,3.43-13.75,5.35
		c-0.42-4.74-0.72-8.17-1.05-12.01c2.16-0.21,3.77-0.37,5.61-0.55c0.41,2.98,0.75,5.54,1.1,8.11c0.48-0.01,0.95-0.01,1.43-0.02
		C269.93,306.99,270.08,304.3,270.26,300.97z"/>
	<path class="st7" d="M995.49,203.52c-6.15-0.66-12.31-1.33-18.46-1.99c0.67-2.62,1.35-5.25,2.02-7.88c2.03-0.14,4.05-0.4,6.08-0.41
		C992.11,193.21,994.52,195.63,995.49,203.52z"/>
	<path class="st12" d="M181.94,335.97c-0.85-12.81,1.97-21.17,7.42-22.68c0,5.55,0.64,11.09-0.3,16.34
		C188.66,331.85,184.92,333.46,181.94,335.97z"/>
	<path class="st12" d="M663.38,163.97c-8.7,2.48-17.41,4.96-26.11,7.45c1.14-2.27,2.19-4.58,3.45-6.79c0.45-0.79,1.4-1.88,2.09-1.85
		C649.66,163.06,656.52,163.55,663.38,163.97z"/>
	<path class="st12" d="M203.46,126.2c-0.76-9.73-2.93-19.81,6.38-27.83C211.76,108.78,207.87,117.53,203.46,126.2z"/>
	<path class="st9" d="M279.95,310.05c-0.81-3.72-1.45-6.67-2.23-10.23c1.98-0.17,3.75-0.32,5.47-0.47c0.89,2.99,1.66,5.6,2.44,8.21
		c0.54-0.09,1.08-0.18,1.62-0.27c-0.19-2.68-0.39-5.37-0.61-8.43c1.4-0.37,2.8-0.73,4.54-1.19c0.7,3.16,1.32,5.94,2.06,9.29
		C288.69,308.01,284.43,309,279.95,310.05z"/>
	<path class="st12" d="M395.11,274.82c1.43,3.97,2.75,7.62,4.33,11.98c-3.19,0.75-6.04,1.42-9.29,2.18
		c-1.15-4.06-2.2-7.76-3.38-11.92C389.78,276.25,392.34,275.56,395.11,274.82z"/>
	<path class="st12" d="M663.06,224.21c-3.44,1.45-6.87,2.89-10.31,4.33c-0.3-0.07-0.59-0.17-0.88-0.27l0.07,0.08
		c-0.13-0.71-0.26-1.41-0.4-2.12c-0.15,0.02-0.31,0.04-0.46,0.05c-0.05,0.66-0.09,1.32-0.14,1.98c-2.13,0.36-4.25,0.73-6.38,1.09
		c-0.55-2-1.09-4-1.64-6c8.83-1.14,17.66-2.28,26.49-3.41c0.03,0.72,0.06,1.45,0.09,2.17c-1.77,0.36-3.55,0.71-5.32,1.07
		C663.8,223.52,663.43,223.86,663.06,224.21z"/>
	<path class="st12" d="M585.91,250.41c-4.47,2.61-6.67,1.54-7.59-3.02c-0.8-3.98-2.05-7.87-3.28-12.47
		c2.13-0.57,3.95-1.06,5.79-1.56C582.59,239.27,584.22,244.74,585.91,250.41z"/>
	<path class="st12" d="M515.67,262.38c-6.4,2.37-6.78,2.19-9.16-4.25c-0.61-2.03-1.23-4.07-1.84-6.1c0.79-1.09,1.37-2.8,2.41-3.14
		c1.84-0.6,4.41-2.71,5.65,0.99C513.71,254.05,514.69,258.21,515.67,262.38z"/>
	<path class="st12" d="M531.69,243.2c2.71-0.63,4.66-1.08,6.91-1.6c1.62,5.52,3.14,10.71,4.69,15.97c-3.32,2.12-5.54,1.79-6.87-2.31
		C535.16,251.38,533.46,247.66,531.69,243.2z"/>
	<path class="st12" d="M426.39,281.25c-2.42,0.62-4.06,1.04-6.34,1.62c-1.58-4.16-3.12-8.23-4.65-12.26
		c7.05-3.75,8.08-3.31,9.55,3.71C425.4,276.46,425.84,278.61,426.39,281.25z"/>
	<path class="st9" d="M644.56,229.35c2.13-0.36,4.25-0.73,6.38-1.09l0.49,0.11l0.5-0.03l-0.07-0.08c1.46,4.53,2.92,9.06,4.37,13.59
		c-2.9,3.6-5.86,2.82-8.44-2.21C646.71,236.22,645.64,232.79,644.56,229.35z"/>
	<path class="st12" d="M520.91,246.01c0.32,1.65,0.65,3.29,0.97,4.94c0.01,0.72,0.01,1.44,0.02,2.16l-0.06-0.05
		c0.32,2.75,0.64,5.49,1.06,9.1c-1.98-0.29-3.61-0.53-5.23-0.77c-1.28-4.22-2.56-8.44-3.84-12.66
		C516.18,247.82,518.55,246.92,520.91,246.01z"/>
	<path class="st12" d="M357.92,283.85c2.58-0.65,4.85-1.22,7.77-1.96c0.98,3.64,1.87,6.99,2.75,10.27
		C360.39,295.49,360.29,295.41,357.92,283.85z"/>
	<path class="st12" d="M250.81,303.54c3.4-0.39,5.68-0.66,9.01-1.05c-0.42,4.24-0.55,7.87-1.36,11.35
		c-0.14,0.61-4.44,1.06-4.55,0.76C252.67,311.22,251.88,307.67,250.81,303.54z"/>
	<path class="st9" d="M664.18,223.18c1.77-0.36,3.55-0.71,5.32-1.07c1.37,6.61,2.74,13.21,4.11,19.82
		c-1.39-0.75-2.78-1.51-4.17-2.26C667.68,234.17,665.93,228.68,664.18,223.18z"/>
	<path class="st12" d="M386.95,288.78c-7.03,2.9-9.06,0.79-9.52-9.52c2.03-0.51,4.13-1.04,6.83-1.72c0.51,2.04,0.97,3.79,1.39,5.54
		C386.09,284.89,386.48,286.71,386.95,288.78z"/>
	<path class="st12" d="M594.02,242.76c0.05,0.67,0.1,1.34,0.14,2.01c-2.26,0.04-4.53,0.09-6.79,0.13
		c-1.31-3.66-2.62-7.32-4.48-12.53c3.48,0.42,5.86,0.71,8.25,1C592.1,236.5,593.06,239.63,594.02,242.76z"/>
	<path class="st12" d="M318.94,292.77c2.06,9.47,2.06,9.47-5.74,10.48C309.35,295.01,310.12,293.55,318.94,292.77z"/>
	<path class="st7" d="M985.64,221.99c1.93,1.43,3.87,2.86,5.8,4.28c-0.72,4.85-1.43,9.71-2.15,14.56
		C984.34,235.28,984.64,228.7,985.64,221.99z"/>
	<path class="st12" d="M249.31,304.3c0.31,3.86,0.59,7.39,0.9,11.31c-2.23,0.38-4.33,0.74-6.45,1.1
		C242.1,304.78,242.56,303.71,249.31,304.3z"/>
	<path class="st9" d="M989.3,240.84c0.72-4.86,1.43-9.71,2.15-14.56c1.76,0.7,3.52,1.4,5.28,2.11c-1.16,5.48-2.31,10.95-3.73,17.65
		C991.42,243.82,990.36,242.33,989.3,240.84z"/>
	<path class="st9" d="M607.5,240.69c2.79-0.7,5.57-1.41,8.36-2.11c0.32,0.36,0.65,0.72,0.97,1.08c0.54,2.12,1.07,4.24,1.6,6.34
		C610.71,248.98,609.73,248.49,607.5,240.69z"/>
	<path class="st11" d="M705.56,144.75c-0.25,3.41-0.49,6.81-0.73,10.22c-1.53,0.75-3.06,1.51-4.58,2.26
		c-0.77-4.83-1.54-9.66-2.5-15.65C701.05,142.92,703.31,143.83,705.56,144.75z"/>
	<path class="st12" d="M346.36,292.3c-0.72-1.63-1.44-3.26-2.15-4.88c10.32-4.05,11.32-3.71,12.52,3.81
		C353.27,291.6,349.81,291.95,346.36,292.3z"/>
	<path class="st12" d="M369.28,281.4c1.49-0.42,3.04-0.86,4.94-1.4c1.15,3.66,2.2,7,3.21,10.23
		C372.53,294.35,370.72,292.23,369.28,281.4z"/>
	<path class="st12" d="M573.43,235.34c1.15,5.68,2.3,11.36,3.44,17.04c-0.52,0.2-1.05,0.4-1.57,0.6c-0.62-0.97-1.47-1.86-1.82-2.92
		c-1.23-3.72-2.48-7.45-3.31-11.27c-0.27-1.23,0.73-2.74,1.14-4.12C572.02,234.89,572.72,235.12,573.43,235.34z"/>
	<path class="st12" d="M336.04,288.78c-0.32,4.13,4,8.77-1.06,10.07c-6.24,1.61-3.27-5.49-6.25-8.36
		C331.38,289.87,333.3,289.42,336.04,288.78z"/>
	<path class="st7" d="M329.31,299.57c-6.64,2.18-7.38,1.4-7.71-7.74c1.76-0.32,3.57-0.64,5.91-1.06
		C328.13,293.82,328.73,296.73,329.31,299.57z"/>
	<path class="st9" d="M304.38,304.25c-0.5-2.67-1.02-5.43-1.58-8.44c2.19-0.49,3.81-0.86,5.41-1.22
		C311.13,303.22,310.66,304.51,304.38,304.25z"/>
	<path class="st9" d="M294.03,297.65c1.05-0.45,1.63-0.84,2.26-0.94c1.16-0.18,2.35-0.19,4.13-0.31c0.34,2.98,0.67,5.77,1.02,8.86
		c-1.61,0.44-3.03,0.84-4.69,1.29C295.85,303.61,295.02,300.88,294.03,297.65z"/>
	<path class="st9" d="M597.14,243.84c2.71-0.7,5.42-1.4,8.13-2.1c0.56,1.91,1.11,3.81,1.67,5.72
		C598.87,249.92,598.61,249.82,597.14,243.84z"/>
	<path class="st11" d="M710.71,203.56c4.25-0.43,8.49-0.87,12.74-1.3c0.02,0.39,0.05,0.78,0.07,1.17c-3.65,2.19-7.3,4.37-10.95,6.56
		C711.95,207.84,711.33,205.7,710.71,203.56z"/>
	<path class="st12" d="M341.68,286.48c1.15,3.65,2.19,6.03,2.48,8.5c0.08,0.73-1.99,1.7-3.07,2.57c-0.95-2.44-2.19-4.82-2.68-7.35
		C338.25,289.39,340.1,288.2,341.68,286.48z"/>
	<path class="st9" d="M346.36,292.3c3.46-0.35,6.91-0.71,10.37-1.06c1.39,2.18,1.45,4.14-1.7,3.98
		C351.98,295.06,347.04,299.66,346.36,292.3z"/>
	<path class="st15" d="M644.56,229.35c1.08,3.43,2.16,6.87,3.24,10.3c-0.74,0.01-1.48,0.01-2.22,0.02
		c-1.05-2.75-2.09-5.49-3.14-8.24c-0.62-2.45-1.24-4.89-1.86-7.34c0.78-0.25,1.56-0.5,2.35-0.74
		C643.46,225.35,644.01,227.35,644.56,229.35z"/>
	<path class="st9" d="M587.37,244.9c2.26-0.04,4.53-0.09,6.79-0.13c0.42,1.37,0.84,2.74,1.26,4.09
		C589.2,251.07,588.94,250.93,587.37,244.9z"/>
	<path class="st15" d="M664.18,223.18c1.75,5.5,3.5,10.99,5.25,16.49c-0.66,0-1.32-0.01-1.97-0.01c-1.47-5.15-2.93-10.3-4.4-15.45
		C663.43,223.86,663.8,223.52,664.18,223.18z"/>
	<path class="st9" d="M684.69,72.49c-2.01-1.95-4.02-3.89-6.03-5.84c2.13,0,4.27,0,6.84,0C685.15,69.19,684.92,70.84,684.69,72.49z"
		/>
	<path class="st15" d="M684.59,239.04c-1.61-5.49-3.23-10.98-4.84-16.47c2.01,5.04,4.01,10.08,6.02,15.12
		C685.37,238.14,684.98,238.59,684.59,239.04z"/>
	<path class="st15" d="M656.24,241.86c-1.46-4.53-2.92-9.06-4.37-13.59c0.29,0.11,0.58,0.2,0.88,0.27
		c1.73,4.42,3.45,8.83,5.18,13.24C657.36,241.81,656.8,241.84,656.24,241.86z"/>
	<path class="st15" d="M513.82,248.73c1.28,4.22,2.56,8.44,3.84,12.66c-0.66,0.33-1.32,0.66-1.99,0.99
		c-0.98-4.17-1.96-8.33-2.94-12.5C513.09,249.5,513.45,249.11,513.82,248.73z"/>
	<path class="st15" d="M594.02,242.76c-0.96-3.13-1.92-6.26-2.88-9.39c0.6-0.67,1.2-1.34,1.8-2.01c1.09,3.79,2.18,7.59,3.27,11.38
		C595.49,242.74,594.75,242.75,594.02,242.76z"/>
	<path class="st15" d="M616.83,239.66c-0.32-0.36-0.65-0.72-0.97-1.08c-0.74-3.41-1.49-6.81-2.23-10.22
		c0.68-0.04,1.35-0.08,2.03-0.12c1.08,3.12,2.17,6.24,3.25,9.35c0.02,0.67,0.04,1.35,0.06,2.02
		C618.25,239.63,617.54,239.65,616.83,239.66z"/>
	<path class="st10" d="M634.46,161.34c0.32-3.14,0.65-6.29,0.97-9.43C636.43,155.19,639.08,158.64,634.46,161.34z"/>
	<path class="st15" d="M504.66,252.03c0.61,2.03,1.23,4.07,1.84,6.1c-0.42,0.76-0.83,1.52-1.25,2.28c-0.65-2.8-1.3-5.59-1.94-8.39
		C503.77,252.03,504.22,252.03,504.66,252.03z"/>
	<path class="st9" d="M944.02,299.52c-0.37-0.01-0.74-0.02-1.11-0.02c1.03-2.25,2.06-4.51,3.08-6.76
		C945.34,295,944.68,297.26,944.02,299.52z"/>
	<path class="st12" d="M905.86,638.06c-0.1,0.71-0.19,1.41-0.29,2.12C905.67,639.48,905.76,638.77,905.86,638.06z"/>
	<path class="st12" d="M946.22,471.89c-0.05,0.68-0.09,1.37-0.14,2.05C946.12,473.25,946.17,472.57,946.22,471.89z"/>
	<path class="st9" d="M847.42,573.6c0.21-0.87,0.42-1.75,0.64-2.62C847.84,571.86,847.63,572.73,847.42,573.6z"/>
	<path class="st6" d="M780.03,602.01c-0.37-0.74-0.74-1.49-1.11-2.23C779.29,600.52,779.66,601.27,780.03,602.01z"/>
	<path class="st15" d="M667.39,242.76c0.2-0.33,0.4-0.66,0.6-0.99C667.79,242.1,667.59,242.43,667.39,242.76z"/>
	<path class="st2" d="M189.75,305.96c-0.27,0.16-0.54,0.33-0.81,0.49c0.02-0.4,0.05-0.8,0.07-1.2
		C189.27,305.48,189.52,305.71,189.75,305.96z"/>
	<path class="st15" d="M505.58,264.49c0.11-0.36,0.21-0.72,0.32-1.08C505.79,263.76,505.69,264.12,505.58,264.49z"/>
	<path class="st0" d="M586.49,734.84c-7.09,4.96-14.19,9.92-21.28,14.87c-3.59,2.63-7.21,5.23-10.77,7.9
		c-5.42,4.08-11.26,5.65-17.91,3.48c-8.81-2.87-17.58-5.91-26.5-8.39c-56.5-15.72-111.31-35.98-164.33-61.03
		c-2.13-1.01-4.22-3.46-5.01-5.7c-3.79-10.85-7.14-21.86-10.62-32.82c-17.28-54.47-32.26-109.69-52.93-163.05
		c-11.66-30.08-23.09-60.29-39.21-88.41c-0.32-1.85-0.9-3.71-0.9-5.56c0-4.74,3.42-6.72,7.63-4.67c1.16,0.56,2.52,1.24,3.71,1.11
		c35.86-3.85,71.85-6.85,107.51-12.04c25.95-3.77,51.34-11.28,77.24-15.61c26.58-4.44,53.46-7.08,80.21-10.43
		c21.48-2.69,42.91-5.92,64.46-7.7c28.24-2.33,56.58-3.45,84.87-5.18c3.13-0.19,4.19,1.07,4.54,4.03
		c5.17,43.63,10.53,87.25,15.64,130.89c4.17,35.66,8.12,71.35,12.09,107.04c1.95,17.59,3.65,35.21,5.61,52.8
		c0.78,6.98,1.87,13.94,2.96,20.88c0.59,3.78-1.03,5.71-4.27,7.67c-34.55,20.86-68.98,41.92-103.44,62.94
		c-0.58,0.35-1.06,0.86-1.59,1.3C591.63,731.05,589.06,732.95,586.49,734.84z M621.04,692.79l0.11,0.25
		c14.76-8.6,29.52-17.2,44.28-25.8c6.76-4.07,13.56-8.06,20.21-12.29c1.03-0.66,2-2.5,1.89-3.69c-0.67-7.17-1.67-14.31-2.55-21.46
		c-0.15-2.74-0.19-5.49-0.46-8.21c-1.53-15.55-3.11-31.09-4.68-46.64c-2.69-26.65-5.36-53.3-8.07-79.94
		c-2.88-28.36-5.68-56.73-8.73-85.07c-1.94-18.04-4.27-36.04-6.48-54.45c-2.01,0.11-3.84,0.21-5.68,0.31
		c-6.54,0.15-13.08,0.3-19.61,0.44c-1.71-0.03-3.44-0.23-5.13-0.08c-26.47,2.39-52.97,4.51-79.4,7.35
		c-32.74,3.51-65.45,7.33-98.09,11.62c-14.23,1.87-28.26,5.22-42.39,7.89c-3.89,0.58-7.79,1.09-11.67,1.75
		c-18.78,3.19-37.45,7.33-56.35,9.43c-26.78,2.98-53.73,4.46-80.61,6.58c-2.3,0-4.61,0-7.61,0c2.49,4.3,4.83,7.87,6.7,11.66
		c18.16,36.87,32.91,75.18,46.19,113.99c17.34,50.65,33.62,101.67,50.54,152.47c0.8,2.39,3.06,4.84,5.29,6.1
		c4.6,2.6,9.65,4.41,14.51,6.54c7.37,2.57,14.73,5.14,22.1,7.71c0.86,0.53,1.67,1.22,2.6,1.56c15.26,5.66,30.35,11.86,45.84,16.79
		c31.49,10.02,63.22,19.27,94.79,29.05c5.17,1.6,8.03-1.23,11.19-4.12c5.46-3.92,10.93-7.83,16.39-11.75
		c3.51-2.55,7.01-5.11,10.52-7.66c14.41-9.59,28.82-19.17,43.23-28.76C620.3,693.84,620.67,693.31,621.04,692.79z"/>
	<path class="st2" d="M237.93,401.69c16.11,28.12,27.55,58.33,39.21,88.41c20.68,53.36,35.65,108.58,52.93,163.05
		c3.48,10.96,6.83,21.96,10.62,32.82c0.78,2.24,2.88,4.7,5.01,5.7c53.02,25.05,107.83,45.31,164.33,61.03
		c8.92,2.48,17.69,5.52,26.5,8.39c6.65,2.17,12.49,0.6,17.91-3.48c3.56-2.68,7.18-5.27,10.77-7.9c1.04,1.52,2.02,3.08,3.14,4.54
		c3.4,4.42,2.33,8.79-3.02,10.5c-3.71,1.18-7.65,1.94-11.54,2.21c-26.89,1.88-53.48,1.7-80.11-4.73
		c-35.68-8.63-71.82-15.34-107.76-22.86c-4.32-0.9-8.75-1.42-12.99-2.63c-8.13-2.32-12.95-8.43-15.56-15.96
		c-7.23-20.87-13.87-41.95-21.07-62.84c-6.21-17.98-12.72-35.87-19.37-53.69c-13.64-36.59-26.76-73.34-37.59-110.9
		c-5.31-18.42-12.29-36.36-18.02-54.66c-2.7-8.61-4.72-17.51-6.09-26.43C234.73,408.96,236.95,405.23,237.93,401.69z"/>
	<path class="st16" d="M728.29,895.01c2.29,0.35,4.59,1.07,6.86,0.99c14.02-0.55,28.03-1.35,42.05-1.95
		c17.62-0.75,35.25-1.44,52.88-2.02c2.62-0.09,5.27,0.59,7.9,0.91c0.04,0.42,0.08,0.85,0.12,1.27c-5.13,1.55-10.2,3.32-15.39,4.61
		c-21.74,5.4-43.44,10.94-65.28,15.89c-22.47,5.09-45,10.07-67.67,14.11c-16.77,2.99-33.83,4.4-50.76,6.52
		c-16.25,2.03-32.47,4.31-48.75,6.03c-13.42,1.42-26.89,2.65-40.36,3.15c-27.24,1.01-54.51,1.57-81.76,2.07
		c-7.52,0.14-15.05-0.65-22.57-0.93c-8.34-0.31-16.29,1.24-23.99,4.61c-7.42,3.25-11.16,1.4-13.18-5.9
		c7.35-1.65,14.71-3.3,22.06-4.95c1.58-0.36,3.15-0.72,4.72-1.08l-0.08,0.04c2.89-0.22,5.8-0.35,8.68-0.67
		c16.3-1.81,32.58-3.83,48.9-5.44c13.61-1.34,27.32-1.84,40.9-3.4c20.19-2.32,40.38-4.8,60.44-8.02
		c27.66-4.43,55.22-9.46,82.77-14.54c10.37-1.92,20.57-4.72,30.84-7.13C714.52,897.79,721.4,896.4,728.29,895.01z"/>
	<path class="st2" d="M780.98,641.23c-5.81,7.75-3,16.01-1.34,24.15c1.43,7.02,3.03,14.01,4.56,21.01
		c-0.35,3.68-0.71,7.35-1.07,11.03c-0.55,0.19-1.1,0.38-1.65,0.57c-1.25-1.8-2.86-3.45-3.69-5.42
		c-8.29-19.91-16.44-39.88-24.67-59.81c-0.69-1.67-1.62-3.23-2.44-4.84c0,0,0.22-0.13,0.22-0.13c-0.33-1.07-0.67-2.13-1-3.2
		c-0.37-1.5-0.81-2.98-1.11-4.49c-5-25.6-9.35-51.34-15.11-76.76c-7.05-31.12-15.28-61.98-23.03-92.95
		c-0.36-1.42-1.02-2.76-1.54-4.14c-0.72,2.25-0.32,4.04,0.13,5.83c4.19,16.64,8.61,33.24,12.52,49.94
		c3.91,16.7,7.31,33.52,10.94,50.28c-2.13-6.59-4.37-13.14-6.36-19.76c-9.89-32.95-19.75-65.9-29.52-98.89
		c-0.91-3.07-2.03-6.6-1.32-9.48c0.78-3.16,2.97-7.14,5.65-8.38c3.36-1.56,8.46-2.39,11.32,1.72c4.19,6.01,8.38,12.14,11.54,18.71
		c17.31,36,28.14,74.22,38.48,112.64c7.56,28.08,13.65,56.45,18.21,85.15C781.09,636.38,780.91,638.83,780.98,641.23z"/>
	<path class="st6" d="M728.29,895.01c-6.88,1.39-13.77,2.78-20.65,4.17c-5.68,0.04-11.43-0.47-17.03,0.21
		c-17.23,2.1-34.4,4.61-51.59,7.05c-13.64,1.94-27.26,4.11-40.92,5.9c-2.19,0.29-4.56-0.84-6.84-1.31c2-0.32,4.01-0.56,5.99-0.97
		c11.01-2.27,22.01-4.58,33.01-6.88c5.85-1.07,11.69-2.13,17.54-3.2c-0.08-0.46-0.15-0.92-0.23-1.38c-5.8,0.97-11.6,1.93-17.4,2.9
		c-31.37,5.12-62.74,10.2-94.09,15.39c-15.42,2.55-30.81,5.3-46.21,7.96c-1.89-0.64-3.78-1.83-5.66-1.81
		c-5.97,0.06-11.96,0.42-17.91,0.95c-9.85,0.87-19.79,1.35-29.48,3.16c-7.97,1.49-15.63,4.68-23.43,7.12
		c-0.56-4.36,2.27-6.39,5.71-7.38c12.13-3.51,24.2-7.49,36.55-9.97c15.37-3.09,30.98-5.05,46.54-7.14
		c12.86-1.73,25.8-2.81,38.68-4.43c14.05-1.76,28.11-3.55,42.1-5.76c21.41-3.38,42.79-6.99,64.13-10.79
		c16.65-2.96,33.17-6.65,49.83-9.5c15.63-2.68,31.39-4.63,47.08-7c16.37-2.47,32.72-5.06,49.08-7.59
		c13.45-2.08,26.9-4.14,40.35-6.21c0.12,0.45,0.24,0.9,0.36,1.35c-6.03,2.17-12.08,4.3-18.08,6.53c-6.87,2.55-13.67,5.29-20.57,7.74
		c-1.56,0.55-3.4,0.29-5.11,0.41c-2.23-0.06-4.49-0.43-6.67-0.13c-23.78,3.22-47.56,6.45-71.31,9.88
		c-8.68,1.25-17.28,3.04-25.92,4.58c13.07-0.75,25.91-2.85,38.79-4.63c19.7-2.73,39.43-5.24,59.14-7.85
		c-7.26,2.44-14.51,4.89-21.77,7.31C750.96,887.48,739.62,891.24,728.29,895.01z"/>
	<path class="st16" d="M658.11,850.6c-1.35-0.66-2.67-1.81-4.06-1.91c-13.15-0.94-26.18-2.52-38.55-7.34
		c-2.5-0.97-4.56-3.07-6.82-4.65c2.34-1.48,4.51-3.76,7.04-4.27c7.49-1.52,15.1-3.01,22.71-3.29c19.86-0.73,39.74-0.77,59.61-1.17
		c14.08-0.28,27.7,2.53,42.97,5.99c-2.76,1.99-4.26,3.42-6.03,4.27c-3.85,1.85-7.9,3.3-11.74,5.15c-0.98,0.47-1.52,1.86-2.27,2.82
		c-6.85,0.17-13.7,0.34-20.55,0.51c-2.4,0.29-4.81,0.58-7.21,0.87c-3.79,0.11-7.57,0.23-11.36,0.34c-0.69,0.22-1.38,0.45-2.07,0.67
		C672.55,849.27,665.33,849.94,658.11,850.6z"/>
	<path class="st6" d="M658.11,850.6c7.22-0.67,14.44-1.33,21.66-2c0.69-0.22,1.38-0.45,2.07-0.67c3.79-0.11,7.57-0.23,11.36-0.34
		c2.6,1.34,5.16,2.31,7.21-0.87c6.85-0.17,13.7-0.34,20.55-0.51c5.19,0.11,10.39,0.22,15.58,0.33c3.15,3.37,6.83,1.45,10.35,1.02
		c3.45-0.4,6.9-0.8,10.35-1.2c0.05,0.43,0.1,0.85,0.15,1.28c-66.58,19.84-135.56,23.27-204.12,30.04
		c3.51-7.8,11.02-8.42,17.18-11.24c20.87-1.71,41.78-3.05,62.6-5.23c27.31-2.86,54.55-6.4,81.82-9.64
		c6.4-0.78,12.81-1.55,19.21-2.33c-0.07-0.52-0.14-1.05-0.21-1.57c-6.68,0.74-13.35,1.48-20.03,2.22
		c-32.32,3.62-64.63,7.26-96.96,10.78c-1.4,0.15-2.93-0.8-4.4-1.24c7.08-1.54,14.13-3.23,21.25-4.6
		C641.83,853.27,649.98,852,658.11,850.6z"/>
	<path class="st2" d="M409.37,805.27c-2.02,8.64-4.37,17.21-5.99,25.92c-3.05,16.44-6.18,32.9-8.32,49.47
		c-1.72,13.34-6.77,25.4-11.91,37.51c-1.25,2.95-3.9,3.8-5.99,0.83c-3.53-5.01-6.62-10.32-9.97-15.47c-0.37-0.57-1.2-0.84-1.82-1.25
		c-0.08-1.02-0.26-2.05-0.24-3.07c0.37-15.59,4.38-30.09,12.73-43.37C388.44,839.04,398.88,822.14,409.37,805.27z"/>
	<path class="st2" d="M364.7,879.63c0.43-6.71,0.16-13.57,1.44-20.12c3.86-19.84,9.09-39.38,18.6-57.34
		c5.2-9.81,11.42-19.06,22.7-23.43c6.47-2.51,6.29-2.93,8.66,3.28c0.16,0.42,0.74,0.68,1.12,1.01c-0.23,0.52-0.46,1.05-0.69,1.58
		c-0.32,0.39-0.65,0.78-0.97,1.17c-0.38,1.12-0.59,2.35-1.18,3.35c-10.85,18.52-21.43,37.2-32.74,55.43
		C374.72,855.71,367.88,866.75,364.7,879.63z"/>
	<path class="st3" d="M413.23,836.23c1.01-14.36,3.08-26.54,10.55-37.19c1.91-2.71,4.29-5.42,7.44-3.82c1.96,1,3.32,4.28,3.86,6.77
		c2.93,13.42-0.37,26.14-5.77,38.26c-1.61,3.62-5.31,6.44-8.42,9.21c-2.43,2.17-4.58,0.92-5.31-1.98
		C414.5,843.22,413.77,838.87,413.23,836.23z"/>
	<path class="st16" d="M801.87,990.82c-26.66,8.83-52.46,7.55-78.67-1.11C736.97,978.82,791.32,979.28,801.87,990.82z"/>
	<path class="st15" d="M630.26,903.18c-11,2.3-22,4.61-33.01,6.88c-1.98,0.41-3.99,0.65-5.99,0.97c0,0-0.21,0.11-0.21,0.11
		c-0.7,0.14-1.4,0.27-2.1,0.41c-10.52,1.55-21.07,2.94-31.56,4.68c-26.08,4.3-52.17,8.59-78.19,13.23
		c-14.76,2.63-29.4,5.93-44.1,8.92l0.08-0.04c-1.58,0.36-3.15,0.72-4.72,1.08c-7.36,1.65-14.71,3.3-22.06,4.95
		c-4.55,1.11-9.11,2.22-13.66,3.33c-0.14-0.33-0.27-0.65-0.41-0.98c6.45-2.35,12.9-4.69,19.35-7.04c1.87-0.21,3.77-0.26,5.6-0.67
		c10.04-2.24,20.02-4.82,30.11-6.82c13.45-2.67,26.99-4.91,40.5-7.34c15.4-2.66,30.79-5.41,46.21-7.96
		c31.35-5.19,62.73-10.27,94.09-15.39C630.2,902.06,630.23,902.62,630.26,903.18z"/>
	<path class="st15" d="M732.72,552.31c-3.63-16.76-7.03-33.58-10.94-50.28c-3.91-16.71-8.33-33.3-12.52-49.94
		c-0.45-1.79-0.85-3.58-0.13-5.83c0.52,1.38,1.18,2.72,1.54,4.14c7.75,30.97,15.97,61.83,23.03,92.95
		c5.76,25.42,10.12,51.16,15.11,76.76c0.29,1.51,0.74,2.99,1.11,4.49c0.33,1.07,0.67,2.13,1,3.2c0,0-0.22,0.13-0.22,0.13
		c0.59,4.14,1.18,8.28,1.76,12.41c-0.47-0.1-0.94-0.19-1.41-0.28c-5.15-24.75-10.3-49.49-15.45-74.24
		c-0.28-0.85-0.56-1.69-0.83-2.54c-0.07-0.87-0.14-1.74-0.21-2.61c-0.3-1.18-0.59-2.35-0.89-3.53c-0.04-0.54-0.09-1.09-0.13-1.63
		c-0.29-0.52-0.59-1.04-0.88-1.56C732.68,553.4,732.7,552.85,732.72,552.31z"/>
	<path class="st13" d="M489.87,924.85c-13.5,2.43-27.04,4.67-40.5,7.34c-10.09,2-20.07,4.57-30.11,6.82
		c-1.82,0.41-3.73,0.45-5.6,0.67c-0.09-1.8-0.18-3.6-0.27-5.4c7.8-2.44,15.45-5.63,23.43-7.12c9.69-1.81,19.63-2.29,29.48-3.16
		c5.95-0.53,11.94-0.89,17.91-0.95C486.09,923.02,487.98,924.22,489.87,924.85z"/>
	<path class="st15" d="M364.7,879.63c3.18-12.89,10.02-23.92,16.94-35.07c11.32-18.23,21.89-36.91,32.74-55.43
		c0.59-1,0.79-2.23,1.18-3.35c0.32-0.39,0.65-0.78,0.97-1.17c0.23-0.53,0.46-1.05,0.69-1.58c2.45-5.42,4.89-10.85,7.46-16.55
		c-2.64,13.24-8.62,24.92-14.31,36.7c-0.33,0.7-0.67,1.39-1,2.09l0,0c-10.49,16.87-20.92,33.77-31.5,50.59
		c-8.35,13.28-12.36,27.78-12.73,43.37c-0.02,1.02,0.15,2.05,0.24,3.07c0.18,2.51,0.35,5.02,0.53,7.53
		C361.23,899.92,363.33,889.76,364.7,879.63z"/>
	<path class="st15" d="M612.48,859.42c1.47,0.44,2.99,1.39,4.4,1.24c32.33-3.52,64.64-7.16,96.95-10.79
		c0.34,0.56,0.69,1.12,1.04,1.68c-27.27,3.25-54.51,6.78-81.82,9.64c-20.82,2.18-41.73,3.52-62.6,5.23
		c-9.91,0.18-19.82,0.36-29.73,0.54c-0.04-0.57-0.08-1.14-0.12-1.72c16.14-0.77,32.27-1.55,48.41-2.32c2.75-0.2,5.5-0.4,8.26-0.6
		c3.91-0.26,7.85-0.35,11.72-0.89c1.18-0.17,2.18-1.6,3.26-2.45C612.34,859.14,612.41,859.28,612.48,859.42z"/>
	<path class="st3" d="M226.67,859.79c1.07-2.8,2.48-7.54,4.69-11.88c1.7-3.34,6.51-3.57,7.36-0.48c1.48,5.43,2.42,11.2,2.31,16.8
		c-0.08,4.17-3.25,7.24-8.01,6.86C229.4,870.8,226.6,866.39,226.67,859.79z"/>
	<path class="st15" d="M784.05,876.39c-19.72,2.6-39.45,5.12-59.14,7.85c-12.88,1.78-25.72,3.88-38.79,4.63
		c8.64-1.54,17.24-3.33,25.92-4.58c23.75-3.43,47.53-6.66,71.31-9.88c2.18-0.29,4.45,0.07,6.67,0.13
		C788.03,875.16,786.04,875.78,784.05,876.39z"/>
	<path class="st17" d="M636.11,334.35c-6.29-18.53-8.85-37.85-12.42-56.96c0.7-0.15,1.4-0.31,2.1-0.46
		c4.09,19.02,8.17,38.05,12.26,57.07C637.41,334.11,636.76,334.23,636.11,334.35z"/>
	<path class="st2" d="M586.49,734.84c2.57-1.89,5.14-3.79,7.7-5.68c3.36,1.95,6.73,3.86,10.06,5.85c1.81,1.09,3.54,2.31,5.31,3.47
		c-0.23,0.65-0.45,1.3-0.68,1.96C601.42,738.58,593.95,736.71,586.49,734.84z"/>
	<path class="st11" d="M780.36,830.37c13.31-2.64,25.04-4.96,36.86-7.31C813.07,826.94,790.52,831.67,780.36,830.37z"/>
	<path class="st12" d="M751.05,640.05c0.47,0.09,0.94,0.19,1.41,0.28c1.12,4.66,2.24,9.31,3.36,13.96
		c-0.64,0.14-1.28,0.29-1.92,0.43C752.95,649.84,752,644.95,751.05,640.05z"/>
	<path class="st14" d="M746.89,847.56c-3.53,0.42-7.2,2.34-10.35-1.02C740.12,845.53,743.79,843.74,746.89,847.56z"/>
	<path class="st6" d="M612.25,859c-1.08,0.85-2.08,2.28-3.26,2.45c-3.87,0.55-7.81,0.63-11.72,0.89c-0.02-0.44-0.04-0.87-0.06-1.31
		C602.22,860.35,607.24,859.67,612.25,859z"/>
	<path class="st12" d="M540.61,865.26c0.04,0.57,0.08,1.14,0.12,1.72c-3.53,0-7.05,0-10.58,0c-0.05-0.5-0.1-0.99-0.16-1.49
		C533.52,865.41,537.07,865.34,540.61,865.26z"/>
	<path class="st12" d="M756.26,657.74c0.52,2.84,1.03,5.69,1.55,8.53c-0.43,0.08-0.86,0.15-1.29,0.23
		c-0.56-2.96-1.12-5.91-1.67-8.87C755.31,657.67,755.78,657.71,756.26,657.74z"/>
	<path class="st14" d="M597.21,861.03c0.02,0.44,0.04,0.87,0.06,1.31c-2.75,0.2-5.5,0.4-8.26,0.6
		C591.75,862.3,594.48,861.67,597.21,861.03z"/>
	<path class="st2" d="M733.67,557.13c0.29,1.18,0.59,2.35,0.89,3.53C734.26,559.49,733.97,558.31,733.67,557.13z"/>
	<path class="st2" d="M734.77,563.27c0.28,0.85,0.56,1.69,0.83,2.54C735.32,564.96,735.05,564.12,734.77,563.27z"/>
	<path class="st2" d="M409.37,805.27c0.33-0.7,0.67-1.39,1-2.09C410.04,803.88,409.7,804.58,409.37,805.27z"/>
	<path class="st2" d="M732.66,553.94c0.29,0.52,0.59,1.04,0.88,1.56C733.25,554.98,732.95,554.46,732.66,553.94z"/>
	<path class="st15" d="M334.04,151.88c-1.67-0.33-3.45-0.39-4.98-1.04c-13.81-5.87-27.19-2.77-40.52,1.8
		c-1.94,0.66-3.86,1.4-5.79,2.07c-0.3,0.1-0.67,0.01-1.01,0.01c14.7-8.99,37.88-13.91,52.25-2.79L334.04,151.88z"/>
	<path class="st15" d="M333.98,151.93c0.12,0.08,0.24,0.15,0.36,0.23c-0.1-0.09-0.2-0.19-0.31-0.28L333.98,151.93z"/>
	<path class="st18" d="M624.6,159.22c-2.36,0.24-4.73,0.72-7.09,0.68c-29.45-0.44-58.68,2.26-87.79,6.28
		c-32.8,4.53-65.56,9.37-98.33,14.09c-5.6,0.81-9.37-2.14-9.4-7.57c-0.13-29.96-5.05-59.12-14.42-87.56
		c-2.09-6.33-1.95-6.41,4.49-8.37c8.28-2.52,16.58-4.99,24.87-7.48c1.41,0.19,2.83,0.37,4.24,0.56c0.4,3.73,0.87,7.46,1.18,11.2
		c1.4,16.84,2.98,33.66,3.96,50.52c0.28,4.81,2.56,5.73,6.34,5.87c9.75,0.35,19.49,0.87,29.25,1c33.78,0.44,67.57,0.64,101.35,1.17
		c8.16,0.13,16.32,1.21,24.47,1.85C613.34,147.39,618.97,153.3,624.6,159.22z M427.52,176.25c0.12-0.02,0.24-0.03,0.36-0.05
		c0.56-8.55,1.76-17.13,1.54-25.66c-0.55-21.63-1.36-43.3-8.47-64.09c-0.53-1.55-1.69-2.88-2.56-4.32
		c-0.63,1.76-1.98,3.61-1.77,5.26c0.73,5.6,2.38,11.09,3.02,16.69C422.4,128.13,424.92,152.19,427.52,176.25z"/>
	<path class="st19" d="M441.17,69.85c-1.41-0.19-2.83-0.37-4.24-0.56c1.13-0.68,2.27-1.36,3.4-2.05
		c24.21-6.29,48.82-9.74,73.82-10.49c22.42-0.67,44.66,1.26,66.79,4.68c5.77,0.89,11.51,2.03,17.3,2.66
		c3.81,0.42,5.61,2.17,6.62,5.83c6.76,24.48,13.7,48.91,20.59,73.36c0.14,0.49,0.4,0.94,0.61,1.41c0.68,4.87,1.36,9.75,2.11,15.18
		c-1.45-0.26-2.52-0.46-3.58-0.65c-5.63-5.92-11.25-11.83-16.88-17.75c-2.52-6.17-5.29-12.25-7.49-18.53
		c-3.5-10.04-6.76-20.17-9.81-30.35c-1.01-3.38-2.78-5.06-6.08-6.09c-25.87-8.09-51.97-14.74-79.11-17.51
		C483.74,66.79,462.49,67.22,441.17,69.85z"/>
	<path class="st15" d="M661.2,91.98c0.63,1.75,1.25,3.51,1.88,5.26c2.4,9.12,4.84,18.22,7.19,27.35c1.36,5.27,2.59,10.57,3.87,15.86
		c-0.5,0.14-1.01,0.28-1.51,0.42c-2.63-8.73-5.36-17.42-7.85-26.19c-1.68-5.93-3.14-11.93-4.41-17.96
		C660.07,95.25,660.89,93.56,661.2,91.98z"/>
	<path class="st15" d="M386.71,107.53c0.13-0.6,0.25-1.19,0.4-1.85c0.35,0.44,0.71,0.89,1.07,1.35c1.3,11.02,2.6,22.04,3.9,33.06
		C387.31,129.67,387.14,118.58,386.71,107.53z"/>
	<path class="st0" d="M521.89,253.11c-0.01-0.72-0.01-1.44-0.02-2.16C521.88,251.67,521.89,252.39,521.89,253.11z"/>
	<path class="st15" d="M651.93,228.35l-0.5,0.03l-0.49-0.11c0.05-0.66,0.09-1.32,0.14-1.98c0.15-0.02,0.31-0.04,0.46-0.05
		C651.67,226.94,651.8,227.64,651.93,228.35z"/>
	<path class="st9" d="M395.36,699.26c-7.37-2.57-14.73-5.14-22.1-7.71c-0.14-1.19-0.04-2.46-0.44-3.55
		c-6.36-16.99-12.55-34.04-19.24-50.9c-8.4-21.17-17.3-42.14-25.83-63.26c-9.42-23.34-18.87-46.67-27.92-70.15
		c-7.13-18.51-13.17-37.46-20.64-55.83c-6.5-15.97-14.32-31.4-21.56-47.07c26.88-2.12,53.83-3.61,80.61-6.58
		c18.9-2.1,37.57-6.24,56.35-9.43c3.88-0.66,7.78-1.17,11.67-1.75c-5.49,1.93-10.32,4.4-9.32,11.56c-0.64,0.23-1.27,0.56-1.93,0.67
		c-36.52,6.21-73.04,12.41-109.57,18.58c-1.5,0.25-3.06,0.21-4.59,0.17c-1.57-0.04-3.14-0.25-4.71-0.39
		c-0.07,1.94-0.73,4.11-0.1,5.79c2.24,5.93,5.12,11.62,7.39,17.54c14.5,37.81,28.46,75.83,43.45,113.44
		c13.2,33.13,27.47,65.83,41.37,98.68c1.73,4.1,4.68,7.76,5.93,11.96c1.42,4.8,3.51,8.42,8.35,10.09c0.69,1.89,1.1,3.94,2.11,5.64
		c5.8,9.76,15.75,13.28,25.73,16.45c14.65,4.66,29.29,9.5,44.19,13.22c12.34,3.08,25.07,4.64,37.62,6.87
		c11.31,3.95,22.75,7.61,33.9,11.97c7.48,2.92,14.51,6.02,21.09-1.45c0.09-0.1,0.33-0.08,0.49-0.11c1.89,1.05,3.68,2.36,5.69,3.08
		c4.22,1.51,8.56,2.7,12.85,4.02c-5.46,3.92-10.93,7.83-16.39,11.75c-4.75-2.9-9.51-5.78-14.26-8.69
		c-13.98-8.58-29.03-14.33-45.17-17.37c-22.78-4.28-45.51-8.84-68.3-13.08C413.22,701.74,404.27,700.62,395.36,699.26z"/>
	<path class="st14" d="M650.88,355.8c1.84-0.1,3.68-0.2,5.68-0.31c2.2,18.41,4.54,36.41,6.48,54.45
		c3.05,28.34,5.85,56.71,8.73,85.07c2.71,26.65,5.38,53.3,8.07,79.94c1.57,15.55,3.15,31.09,4.68,46.64
		c0.27,2.73,0.31,5.48,0.46,8.21c-3.94,2.1-7.88,4.2-11.82,6.3c-0.22-1.17-0.53-2.34-0.64-3.52c-3.56-37.44-6.35-74.97-10.85-112.29
		c-4.64-38.52-11.09-76.82-16.42-115.25c-1.48-10.66-1.79-21.48-2.64-32.23c2.51-0.34,5.01-0.82,7.53-1
		c3.12-0.22,4.2-1.37,3.23-4.62C652.26,363.47,651.68,359.6,650.88,355.8z"/>
	<path class="st6" d="M396.94,394.58c-1-7.17,3.82-9.63,9.32-11.56c14.12-2.68,28.16-6.03,42.39-7.89
		c32.64-4.28,65.35-8.11,98.09-11.62c26.43-2.83,52.93-4.95,79.4-7.35c1.7-0.15,3.42,0.04,5.13,0.08c0.34,4.69,0.69,9.39,1.03,14.08
		c-3.93,0.3-7.87,0.53-11.79,0.9c-27.66,2.58-55.34,5.04-82.98,7.84c-34.29,3.48-68.56,7.2-102.83,10.93
		C422.09,391.35,409.52,393.04,396.94,394.58z"/>
	<path class="st7" d="M257.63,400.78c7.24,15.67,15.07,31.1,21.56,47.07c7.47,18.37,13.51,37.32,20.64,55.83
		c9.05,23.48,18.5,46.82,27.92,70.15c8.53,21.12,17.43,42.09,25.83,63.26c6.69,16.86,12.88,33.91,19.24,50.9
		c0.41,1.09,0.31,2.36,0.44,3.55c-4.86-2.13-9.91-3.94-14.51-6.54c-2.23-1.26-4.5-3.71-5.29-6.1
		c-16.93-50.8-33.21-101.81-50.54-152.47c-13.28-38.81-28.03-77.12-46.19-113.99c-1.87-3.8-4.22-7.36-6.7-11.66
		C253.02,400.78,255.33,400.78,257.63,400.78z"/>
	<path class="st7" d="M395.36,699.26c8.91,1.36,17.86,2.48,26.71,4.13c22.79,4.24,45.52,8.8,68.3,13.08
		c16.14,3.04,31.19,8.79,45.17,17.37c4.74,2.91,9.5,5.79,14.26,8.69c-3.16,2.9-6.02,5.72-11.19,4.12
		c-31.57-9.78-63.3-19.03-94.79-29.05c-15.49-4.93-30.58-11.13-45.84-16.79C397.03,700.48,396.23,699.79,395.36,699.26z"/>
	<path class="st9" d="M619.94,694.36c-14.41,9.59-28.82,19.17-43.23,28.76c-5.7-2.6-11.4-5.2-17.1-7.8
		c22.66-16.25,44.48-33.7,68.97-47.32c9.99-5.55,19.62-11.77,29.41-17.69c-0.71,1.3-1.18,2.82-2.16,3.85
		c-8.49,8.99-17.2,17.77-25.57,26.87c-3.38,3.68-6.09,7.98-9.1,12l-0.11-0.25C620.67,693.31,620.3,693.84,619.94,694.36z"/>
	<path class="st6" d="M621.15,693.04c3.01-4.02,5.71-8.32,9.1-12c8.37-9.1,17.08-17.88,25.57-26.87c0.98-1.04,1.45-2.56,2.16-3.85
		l0,0.02c0.43-0.31,0.85-0.61,1.28-0.92c0.99-0.67,1.97-1.33,2.96-2c1.07,6.61,2.13,13.21,3.2,19.82
		C650.67,675.84,635.91,684.44,621.15,693.04z"/>
	<path class="st4" d="M665.43,667.24c-1.07-6.61-2.13-13.21-3.2-19.82c2.02-1.16,3.92-2.75,6.1-3.4c4.2-1.26,5.65-3.8,4.83-7.92
		c3.94-2.1,7.88-4.2,11.82-6.3c0.89,7.15,1.88,14.29,2.55,21.46c0.11,1.19-0.85,3.03-1.89,3.69
		C678.99,659.19,672.18,663.18,665.43,667.24z"/>
	<path class="st4" d="M632.3,370.32c-0.34-4.69-0.69-9.39-1.03-14.08c6.54-0.15,13.08-0.3,19.61-0.44c0.81,3.8,1.38,7.67,2.48,11.39
		c0.97,3.26-0.11,4.4-3.23,4.62c-2.52,0.18-5.02,0.65-7.53,1c-0.98-1-1.88-2.7-2.97-2.84C637.24,369.66,634.75,370.15,632.3,370.32z
		"/>
	<path class="st7" d="M559.61,715.32c5.7,2.6,11.4,5.2,17.1,7.8c-3.51,2.55-7.01,5.11-10.52,7.66c-4.29-1.32-8.62-2.52-12.85-4.02
		c-2.01-0.72-3.8-2.04-5.69-3.08C551.63,720.89,555.62,718.11,559.61,715.32z"/>
	<path class="st6" d="M619.94,694.36c0.37-0.52,0.73-1.05,1.1-1.57C620.67,693.31,620.3,693.84,619.94,694.36z"/>
	<path class="st13" d="M591.05,911.14c0,0,0.22-0.1,0.21-0.11c2.28,0.47,4.65,1.59,6.84,1.31c13.66-1.8,27.27-3.97,40.92-5.9
		c17.18-2.44,34.36-4.95,51.59-7.05c5.6-0.68,11.35-0.17,17.03-0.21c-10.28,2.4-20.48,5.21-30.84,7.13
		c-27.55,5.09-55.11,10.11-82.77,14.54c-20.06,3.21-40.25,5.7-60.44,8.02c-13.58,1.56-27.29,2.06-40.9,3.4
		c-16.32,1.61-32.6,3.63-48.9,5.44c-2.88,0.32-5.79,0.45-8.68,0.67c14.7-3,29.34-6.29,44.1-8.92c26.02-4.63,52.11-8.92,78.19-13.23
		c10.49-1.73,21.04-3.13,31.56-4.68c0.41,0.52,0.82,1.04,1.23,1.55C590.47,912.45,590.76,911.8,591.05,911.14z"/>
	<path class="st13" d="M430.45,939.41c1.57-0.36,3.15-0.72,4.72-1.08C433.6,938.69,432.03,939.05,430.45,939.41z"/>
	<path class="st1" d="M750.92,627.79c-0.33-1.07-0.67-2.13-1-3.2C750.26,625.66,750.59,626.73,750.92,627.79z"/>
	<path class="st12" d="M630.26,903.18c-0.03-0.56-0.06-1.12-0.09-1.68c5.8-0.96,11.6-1.93,17.4-2.9c0.08,0.46,0.15,0.92,0.23,1.38
		C641.95,901.05,636.11,902.11,630.26,903.18z"/>
	<path class="st14" d="M700.41,846.72c-2.05,3.18-4.61,2.21-7.21,0.87C695.6,847.3,698.01,847.01,700.41,846.72z"/>
	<path class="st14" d="M681.84,847.93c-0.69,0.22-1.38,0.45-2.07,0.67C680.46,848.38,681.15,848.16,681.84,847.93z"/>
	<path class="st12" d="M714.86,851.56c-0.35-0.56-0.69-1.12-1.04-1.68c6.68-0.74,13.35-1.48,20.03-2.22
		c0.07,0.52,0.14,1.05,0.21,1.57C727.67,850,721.26,850.78,714.86,851.56z"/>
	<path class="st1" d="M416.53,784.62c-0.32,0.39-0.65,0.78-0.97,1.17C415.89,785.4,416.21,785.01,416.53,784.62z"/>
	<path class="st6" d="M591.05,911.14c-0.29,0.66-0.58,1.31-0.87,1.97c-0.41-0.52-0.82-1.04-1.23-1.55
		C589.65,911.42,590.35,911.28,591.05,911.14z"/>
	<path class="st20" d="M441.17,69.85c21.32-2.63,42.57-3.06,64.06-0.86c27.13,2.77,53.23,9.42,79.11,17.51
		c3.3,1.03,5.07,2.71,6.08,6.09c3.04,10.19,6.3,20.32,9.81,30.35c2.19,6.28,4.97,12.36,7.49,18.53c-8.16-0.64-16.31-1.72-24.47-1.85
		c-33.78-0.54-67.57-0.73-101.35-1.17c-9.75-0.13-19.5-0.65-29.25-1c-3.78-0.14-6.06-1.06-6.34-5.87
		c-0.98-16.86-2.57-33.69-3.96-50.52C442.03,77.31,441.56,73.58,441.17,69.85z"/>
	<path class="st8" d="M427.52,176.25c-2.6-24.05-5.12-48.12-7.88-72.16c-0.64-5.61-2.29-11.09-3.02-16.69
		c-0.22-1.65,1.13-3.5,1.77-5.26c0.87,1.43,2.03,2.77,2.56,4.32c7.11,20.78,7.93,42.45,8.47,64.09c0.22,8.54-0.99,17.11-1.54,25.66
		C427.76,176.21,427.64,176.23,427.52,176.25z"/>
	<path class="st17" d="M559.61,715.32c-3.99,2.78-7.97,5.57-11.96,8.35c-0.17,0.04-0.4,0.01-0.49,0.11
		c-6.57,7.47-13.61,4.37-21.09,1.45c-11.16-4.36-22.59-8.01-33.9-11.97c-0.75-0.37-1.48-0.8-2.26-1.09
		c-21.55-7.88-43.18-15.53-64.62-23.67c-14.39-5.46-28.52-11.59-42.76-17.42c-4.84-1.67-6.93-5.29-8.35-10.09
		c-1.25-4.2-4.2-7.86-5.93-11.96c-13.89-32.85-28.17-65.55-41.37-98.68c-14.99-37.61-28.96-75.63-43.45-113.44
		c-2.27-5.92-5.16-11.6-7.39-17.54c-0.63-1.68,0.03-3.85,0.1-5.79c1.57,0.14,3.14,0.35,4.71,0.39c1.53,0.04,3.09,0.09,4.59-0.17
		c36.53-6.16,73.05-12.37,109.57-18.58c0.66-0.11,1.29-0.44,1.93-0.67c12.59-1.54,25.16-3.22,37.76-4.6
		c34.27-3.73,68.54-7.45,102.83-10.93c27.64-2.8,55.32-5.25,82.98-7.84c3.92-0.37,7.86-0.6,11.79-0.9c2.45-0.17,4.94-0.66,7.33-0.36
		c1.09,0.14,1.99,1.85,2.97,2.84c0.85,10.75,1.16,21.57,2.64,32.23c5.33,38.44,11.77,76.74,16.42,115.25
		c4.5,37.32,7.29,74.85,10.85,112.29c0.11,1.18,0.43,2.35,0.64,3.52c0.83,4.13-0.62,6.66-4.83,7.92c-2.18,0.65-4.07,2.24-6.1,3.4
		c-0.99,0.67-1.97,1.33-2.96,2c-0.43,0.31-0.85,0.61-1.28,0.92l0-0.02c-9.79,5.92-19.42,12.13-29.41,17.69
		C604.08,681.62,582.26,699.07,559.61,715.32z M641.39,430.61c-0.27-0.39-0.54-0.79-0.81-1.18c0.02-0.33-0.04-0.64-0.18-0.93
		c0.09-0.85,0.33-1.72,0.24-2.56c-1.72-16.69-3.46-33.39-5.37-50.06c-0.06-0.52-2.04-0.81-3.13-1.21
		c-26.56,3.13-53.11,6.42-79.69,9.35c-27.63,3.05-55.33,5.47-82.94,8.68c-28.79,3.35-57.56,6.97-86.25,11.13
		c-24.44,3.54-48.74,8.01-73.1,12.07c-8.82,1.16-17.64,2.32-26.68,3.5c0.18,0.84,0.23,1.52,0.48,2.12
		c9.32,23.25,18.92,46.39,27.95,69.76c21.57,55.88,42.87,111.87,64.35,167.78c0.55,1.43,1.78,3.11,3.12,3.66
		c16.79,7.01,33.51,14.24,50.54,20.62c31.18,11.69,62.56,22.84,93.85,34.24c5.1,1.86,10.53,5.94,15.16,5.17
		c4.97-0.83,9.17-6.19,13.71-9.58c0.13-0.1,0.21-0.27,0.31-0.41c13.38-9.9,26.38-20.37,40.21-29.58
		c22.42-14.94,45.39-29.06,68.13-43.52c2.59-1.71,6.55-1.66,5.91-6.84c-2.28-18.58-3.98-37.24-6.14-55.84
		c-3.27-28.16-6.49-56.32-10.22-84.42C648.1,471.85,644.57,451.25,641.39,430.61z"/>
	<path class="st7" d="M382.52,671.09c14.25,5.83,28.38,11.96,42.76,17.42c21.45,8.14,43.08,15.79,64.62,23.67
		c0.78,0.29,1.51,0.72,2.26,1.09c-12.56-2.23-25.28-3.79-37.62-6.87c-14.9-3.72-29.54-8.56-44.19-13.22
		c-9.98-3.17-19.93-6.69-25.73-16.45C383.62,675.03,383.2,672.98,382.52,671.09z"/>
	<path class="st9" d="M657.99,650.34c0.43-0.31,0.85-0.61,1.28-0.92C658.84,649.73,658.42,650.04,657.99,650.34z"/>
	<path class="st1" d="M310.16,415.9c24.36-4.06,48.66-8.53,73.1-12.07c28.69-4.16,57.46-7.78,86.25-11.13
		c27.61-3.21,55.31-5.63,82.94-8.68c26.58-2.93,53.13-6.22,79.69-9.35c1.77,11.94,3.52,23.88,5.33,35.81
		c0.91,6.01,1.95,12.01,2.93,18.01c0.14,0.3,0.2,0.61,0.18,0.94c-0.01,0.39-0.02,0.78-0.04,1.17c0.07,3.09-0.05,6.2,0.26,9.27
		c1.23,12.4,2.65,24.78,3.88,37.18c1.15,11.56,2.11,23.14,3.26,34.7c1.26,12.74,2.68,25.47,3.96,38.21
		c1.14,11.39,2.08,22.8,3.29,34.18c1.96,18.51,4.05,37,6.09,55.5c-22.74,14.46-45.71,28.58-68.13,43.52
		c-13.83,9.22-26.84,19.68-40.21,29.58c-1.53-1.03-2.96-2.29-4.62-3.05c-14.19-6.5-28.71-12.35-42.58-19.46
		c-25.41-13.02-51.05-25.45-78.91-32.21c-8.42-2.04-11.85-6.75-14.45-14.16c-15.78-45.07-34.95-88.71-56.03-131.53
		c-6.13-12.46-11.82-25.13-17.89-37.62c-6.22-12.79-12.75-25.43-18.97-38.22C316.19,429.72,313.26,422.77,310.16,415.9z"/>
	<path class="st2" d="M310.16,415.9c3.1,6.87,6.03,13.82,9.33,20.6c6.22,12.79,12.75,25.43,18.97,38.22
		c6.07,12.49,11.76,25.16,17.89,37.62c21.09,42.82,40.26,86.46,56.03,131.53c2.6,7.41,6.03,12.12,14.45,14.16
		c27.85,6.76,53.5,19.19,78.91,32.21c13.88,7.11,28.39,12.96,42.58,19.46c1.66,0.76,3.09,2.02,4.62,3.05
		c-0.1,0.14-0.18,0.31-0.31,0.41c-4.53,3.39-8.74,8.75-13.71,9.58c-4.63,0.78-10.05-3.31-15.16-5.17
		c-31.29-11.4-62.67-22.55-93.85-34.24c-17.03-6.38-33.75-13.61-50.54-20.62c-1.33-0.56-2.57-2.23-3.12-3.66
		c-21.49-55.91-42.78-111.9-64.35-167.78c-9.02-23.37-18.62-46.51-27.95-69.76c-0.24-0.6-0.29-1.28-0.48-2.12
		C292.51,418.21,301.34,417.06,310.16,415.9z"/>
	<path class="st14" d="M661.28,639.65c-2.04-18.5-4.13-36.99-6.09-55.5c-1.2-11.38-2.15-22.79-3.29-34.18
		c-1.28-12.74-2.7-25.47-3.96-38.21c-1.15-11.56-2.11-23.14-3.26-34.7c-1.24-12.4-2.66-24.78-3.88-37.18
		c-0.3-3.07-0.18-6.18-0.25-9.27c0.28,0,0.57,0,0.85,0.01c3.18,20.65,6.7,41.24,9.45,61.95c3.73,28.1,6.95,56.27,10.22,84.42
		c2.16,18.6,3.86,37.26,6.14,55.84C667.83,637.99,663.88,637.94,661.28,639.65z"/>
	<path class="st13" d="M640.4,428.49c-0.98-6-2.01-12-2.93-18.01c-1.81-11.93-3.56-23.87-5.33-35.81c1.09,0.4,3.07,0.69,3.13,1.21
		c1.91,16.67,3.65,33.37,5.37,50.06C640.73,426.77,640.49,427.64,640.4,428.49z"/>
	<path class="st13" d="M641.39,430.61c-0.28,0-0.57-0.01-0.85-0.01c0.01-0.39,0.02-0.78,0.04-1.17
		C640.85,429.82,641.12,430.21,641.39,430.61z"/>
</g>
</svg>
