<?xml version="1.0" encoding="utf-8"?>
<!-- Generator: Adobe Illustrator 26.0.3, SVG Export Plug-In . SVG Version: 6.00 Build 0)  -->
<svg version="1.1" id="Layer_1" xmlns="http://www.w3.org/2000/svg" xmlns:xlink="http://www.w3.org/1999/xlink" x="0px" y="0px"
	 viewBox="0 0 1133.86 1133.86" style="enable-background:new 0 0 1133.86 1133.86;" xml:space="preserve">
<style type="text/css">
	.st0{fill:#F8C49F;}
	.st1{fill:#5A000E;}
	.st2{fill:#B6755B;}
	.st3{fill:#C6C8C9;}
	.st4{fill:#392521;}
	.st5{fill:#1A1718;}
	.st6{fill:#E0C057;}
	.st7{fill:#000017;}
	.st8{fill:#105792;}
	.st9{fill:#CA292E;}
	.st10{fill:#AD2428;}
	.st11{fill:#951F21;}
	.st12{fill:#CDDDE0;}
	.st13{opacity:0.5;}
	.st14{fill:#3C7AC0;}
	.st15{fill:#A40028;}
	.st16{fill:#DF002B;}
	.st17{fill:#FFF9AD;}
	.st18{fill:#1E1F30;}
	.st19{fill:#E39108;}
	.st20{fill:#E8E8E1;}
	.st21{opacity:0.3;}
	.st22{fill:#9E6052;}
	.st23{fill:#382625;}
	.st24{fill:#FFFFFF;}
	.st25{fill:#EB7C8A;}
	.st26{fill:#0C1D29;}
	.st27{fill:#FAB200;}
	.st28{opacity:0.4;}
	.st29{fill:#EAAF24;}
	.st30{fill:#9A352C;}
	.st31{fill:#960024;}
</style>
<g>
	<g>
		<path class="st0" d="M842.68,543.07c-3.8-4.17-12.63,4.3-18.05,5.09c5.53-3.87,13.9-9.28,17.19-15.39
			c3.14-5.84-2.65-7.83-7.32-5.6c-3.62,1.73-6.56,4.44-10.02,6.4c-2.21,1.24-4.41,2.43-6.67,3.55c1.67-1.65,3.36-3.28,5.1-4.79
			c3.83-3.32,8.78-7.34,10.39-12.36c1.37-4.23-1.06-9.98-6.17-7.51c-3.46,1.65-6.03,5.03-8.74,7.64c-1.9,1.83-3.84,3.57-5.83,5.27
			c1.69-2.23,3.37-4.46,4.89-6.81c1.95-2.99,5.28-7.23,5.39-11.02c0.07-2.08-0.25-5.62-2.58-6.58c-3.08-1.26-5.69,2.03-7.45,4.15
			c-3.33,4-6.26,8.29-9.64,12.24c-3.27,3.81-6.66,7.52-10.24,11.03c-1.03,1.01-2.01,2.04-3.05,3.02c0.11-0.34,0.21-0.69,0.32-1.04
			c1.74-5.04,4.04-9.14,3.64-14.57c-1.03-13.88-10.8,0.69-13.09,5.51c-4.64,9.75-6.44,20.73-1.98,30.88
			c4.04,9.2,13.49,11.88,23.47,12.72C814.27,565.9,849.39,550.45,842.68,543.07z"/>
	</g>
	<g>
		<path class="st1" d="M340.92,1021.12c0,0-35.73,32.58,2.1,42.03c37.82,9.46,105.08-55.7,338.37-16.81c0,0,40.98,11.56,49.38-4.2
			c8.41-15.76-101.93-95.62-133.45-210.17c-31.53-114.54-154.47-106.13-178.64-3.15C394.51,931.8,340.92,1021.12,340.92,1021.12z"/>
	</g>
	<g>
		<g>
			<path class="st0" d="M291.69,791.78c0.5,0.7,1.24,1.58,2.17,1.67c0.4,0.03,2.17-0.49,2.13-1.07c0.26,3.46,1.35,6.6,3.97,8.28
				c1.81,1.17,2.76-1.47,3.28-5.25c0.45,1.44,0.96,2.87,1.58,4.24c0.84,1.86,2.55,6.08,5.26,5.96c4.06-0.19,2.34-4.72,1.76-7.32
				c-0.01-0.03-0.01-0.06-0.02-0.09c1.97,4.96,5.06,9.23,9.54,10.28c6.01,1.41,1.99-7.96,1.11-10.63c-1.48-4.46-2.71-8.35-2.2-13.14
				c0.24-2.29,1.22-6.3,3.19-7.84c2.7-2.12,5.5,3.84,6.6,5.46c1.66,2.44,3.88,4.9,7.14,4.14c3-0.7,2-7.26,1.47-9.22
				c-1.94-7.08-9.18-12.29-8.95-19.88c0-0.19-0.26-0.36-0.43-0.28c-0.09-0.33-0.33-0.72-0.89-1.05c-2.53-1.47-6.2-2.3-9.09-2.33
				c-8.42-0.13-16.9,0.85-21.68,7.55C290.83,770.77,288.62,787.49,291.69,791.78z"/>
		</g>
		<g>
			<path class="st2" d="M313.21,774.45c0,0-0.25,0.3-0.57,0.89c-0.36,0.57-0.74,1.46-1.17,2.54c-0.17,0.56-0.35,1.16-0.55,1.8
				c-0.22,0.63-0.34,1.32-0.45,2.04c-0.12,0.71-0.26,1.45-0.35,2.21c-0.02,0.76-0.06,1.54-0.08,2.32c0.01,0.77-0.1,1.55,0.01,2.31
				c0.08,0.76,0.15,1.49,0.23,2.22c0.09,0.72,0.17,1.41,0.25,2.07c0.16,0.65,0.31,1.26,0.45,1.81c0.57,2.24,1.01,3.69,1.01,3.69
				s-0.17-1.53-0.53-3.78c-0.09-0.56-0.2-1.17-0.3-1.81c-0.04-0.65-0.07-1.34-0.11-2.05c-0.05-0.71-0.1-1.44-0.16-2.18
				c-0.1-0.74,0.02-1.49,0.02-2.25c0.02-0.76,0.03-1.51,0.05-2.25c0.09-0.74,0.18-1.47,0.27-2.17c0.09-0.7,0.14-1.39,0.31-2.01
				c0.14-0.64,0.27-1.24,0.39-1.8c0.36-1.07,0.57-2.01,0.86-2.61C313.03,774.8,313.21,774.45,313.21,774.45z"/>
		</g>
		<g>
			<path class="st2" d="M304.95,773.81c0,0-0.24,0.26-0.56,0.79c-0.36,0.51-0.75,1.31-1.2,2.27c-0.17,0.5-0.36,1.04-0.57,1.62
				c-0.22,0.57-0.38,1.2-0.48,1.86c-0.12,0.65-0.25,1.32-0.39,2.01c-0.05,0.7-0.1,1.4-0.14,2.11c-0.01,0.71-0.11,1.42-0.02,2.11
				c0.06,0.69,0.12,1.38,0.18,2.04c0.06,0.67,0.14,1.3,0.21,1.9c0.14,0.59,0.28,1.15,0.4,1.66c0.53,2.05,0.94,3.38,0.94,3.38
				s-0.16-1.4-0.48-3.46c-0.07-0.51-0.17-1.07-0.26-1.66c-0.02-0.6-0.04-1.22-0.09-1.87c-0.04-0.65-0.08-1.31-0.13-1.99
				c-0.06-0.68,0.07-1.37,0.08-2.05c0.02-0.69,0.06-1.39,0.08-2.06c0.11-0.67,0.21-1.32,0.32-1.96c0.1-0.64,0.19-1.26,0.37-1.82
				c0.14-0.58,0.29-1.12,0.41-1.63c0.38-0.96,0.61-1.81,0.9-2.35C304.77,774.12,304.95,773.81,304.95,773.81z"/>
		</g>
		<g>
			<path class="st2" d="M298.09,773.48c0,0-0.23,0.21-0.55,0.67c-0.34,0.44-0.74,1.12-1.2,1.95c-0.21,0.44-0.39,0.91-0.6,1.42
				c-0.22,0.5-0.43,1.03-0.53,1.63c-0.14,0.58-0.28,1.17-0.43,1.79c-0.1,0.61-0.13,1.25-0.2,1.88c-0.03,0.63-0.12,1.26-0.09,1.89
				c0.05,0.62,0.09,1.23,0.14,1.83c0.04,0.59,0.11,1.16,0.16,1.69c0.1,0.53,0.25,1.03,0.37,1.49c0.48,1.82,0.86,3.01,0.86,3.01
				s-0.14-1.26-0.44-3.1c-0.07-0.46-0.17-0.95-0.23-1.48c-0.01-0.53-0.02-1.1-0.05-1.67c-0.03-0.57-0.06-1.17-0.09-1.78
				c-0.02-0.61,0.1-1.21,0.14-1.83c0.05-0.61,0.06-1.22,0.14-1.82c0.12-0.59,0.25-1.17,0.36-1.74c0.1-0.57,0.24-1.11,0.42-1.6
				c0.16-0.51,0.3-0.99,0.45-1.43c0.39-0.84,0.64-1.58,0.94-2.04C297.91,773.75,298.09,773.48,298.09,773.48z"/>
		</g>
	</g>
	<g>
		<g>
			<g>
				<path class="st3" d="M491.76,1036.47c-9.72,0.31-19.45,0.71-29.17,0.99l0.08,0.38c1.89,14.17-6.89,14.59-6.89,14.59
					c1.34,15.4,38.75,4.52,38.75,4.52C491.69,1054.52,491.48,1044.27,491.76,1036.47z"/>
			</g>
			<g>
				<g>
					<g>
						<path class="st4" d="M496.94,1054.9c-0.61-0.76-1.37-1.17-2.22-1.41c-8.59,2.95-15.84,4.89-24.69,4.13
							c-0.39-0.03-0.17-5.02-1.4-7.77c-1.01-2.29-5.94-2.99-10.64-3.59c-2.01-0.25-6.29,0.15-7.13,1.48
							c-1.01,1.11-1.29,3.24-1.29,3.24s-41.99,9.2-34.97,37.98c0,0,30.45,6.7,59.4-2.35l4.81-5.47l2.53,3.85
							c0,0,12.54-3.39,16.87-7.52l-0.64-21.55C497.36,1055.57,497.18,1055.2,496.94,1054.9z"/>
					</g>
					<g>
						<path d="M441.73,1083.95c-5.94,0.37-22.44,1.58-27.76-4.45c-0.34,2.91-0.2,6.04,0.63,9.45c0,0,30.45,6.7,59.4-2.35l4.81-5.47
							l2.53,3.85c0,0,12.54-3.39,16.87-7.52l-0.24-8.08C481.29,1079.97,461.6,1082.74,441.73,1083.95z"/>
					</g>
					<g>
						<path class="st5" d="M445.99,1056.83c-5.82-0.29-13.7,5.35-15.6,10.75c-0.12,0.38-0.22,0.75-0.29,1.11
							c-0.11,0.37-0.19,0.74-0.24,1.12c-0.36,2.78,2.64,3.42,4.76,3.2c3.07-0.34,6.26-2.31,8.5-4.34
							C445.4,1066.59,453.65,1057.21,445.99,1056.83z"/>
					</g>
					<g>
						<path class="st5" d="M424.75,1073.39c-2.03-0.1-4.76,1.86-5.41,3.74c-0.05,0.13-0.07,0.25-0.1,0.38
							c-0.04,0.12-0.07,0.26-0.09,0.39c-0.12,0.97,0.91,1.19,1.66,1.11c1.07-0.11,2.18-0.8,2.95-1.5
							C424.55,1076.78,427.41,1073.52,424.75,1073.39z"/>
					</g>
				</g>
				<g>
					<path d="M448.37,1051.36c0,0-11.52,3.17-14.93,6.03c0,0,12.3,3.38,19.5,11.14l16.45-8.69
						C469.38,1059.85,463.88,1051.3,448.37,1051.36z M452.51,1064.46c-5-5.39-13.54-7.73-13.54-7.73c2.36-2,9.4-3.9,9.4-3.9
						c9.71,0.21,15.57,5.59,15.57,5.59L452.51,1064.46z"/>
				</g>
				<g>
					<path class="st6" d="M448.33,1050.67c0,0-11.52,3.18-14.93,6.05c0,0,12.29,3.37,19.49,11.13l16.45-8.69
						C469.35,1059.16,463.84,1050.62,448.33,1050.67z M452.49,1063.78c-5.01-5.39-13.55-7.73-13.55-7.73
						c2.36-1.99,9.4-3.89,9.4-3.89c9.71,0.21,15.57,5.59,15.57,5.59L452.49,1063.78z"/>
				</g>
			</g>
		</g>
		<g>
			<g>
				<g>
					<path class="st7" d="M491.48,1036.03c0,0,1.13-55.2,2.26-110.4c0.29-13.79,0.57-27.59,0.83-40.52
						c0.66-12.68,1.54-24.32,2.15-34.37c0.33-5.02,0.63-9.61,0.89-13.68c0.55-4.04,1.03-7.56,1.43-10.47c0.79-5.8,1.24-9.1,1.24-9.1
						c0.81-7.7-0.93-14.96-4.37-20.62c-3.24-5.61-8.08-9.61-14.16-10.55c-6.02-0.93-12.16,1.46-16.9,6.26
						c-4.54,4.81-7.81,12.01-8.68,20.28c0,0-0.22,3.58-0.62,9.84c-0.2,3.13-0.44,6.92-0.71,11.28c0.02,4.36,0.05,9.28,0.07,14.65
						c0.11,10.71,0.07,23.28,0.35,36.52c0.67,13,1.39,26.86,2.1,40.73c2.87,55.42,5.74,110.83,5.74,110.83L491.48,1036.03z"/>
				</g>
			</g>
			<g>
				<path class="st8" d="M499.34,1034.13c0.02,2.66-1.46,4.84-3.31,4.89l-34.01,0.82c-1.85,0.05-3.37-2.09-3.39-4.76
					c-0.02-2.68,1.46-4.88,3.32-4.92l34-0.77C497.81,1029.35,499.33,1031.47,499.34,1034.13z"/>
			</g>
			<g>
				<g>
					<polygon class="st8" points="506.17,882.13 444.14,882.06 445.12,854.05 507.09,856.65 					"/>
				</g>
				<g>
					<path class="st9" d="M506.81,864.53c12.94-18.97,22.77-47.72,28.52-80.19c4.23-27.63,5.63-52.77,2.21-73.27
						c-3.05-20.34-10.29-35.38-23.03-41.78c-12.73-6.42-30.48,1.06-46.22,18.78c-15.35,17.7-29.56,45.91-34.66,78.78
						c-3.83,19.41-3.21,38.14-1.39,54.55c0.49,4.11,1.03,8.07,1.81,11.87c0.94,3.81,2,7.45,3.13,10.93
						c2.28,6.94,4.92,13.16,7.87,18.53L506.81,864.53z"/>
				</g>
				<g>
					<g>
						<path class="st8" d="M456.17,863.05c-1-6.47-2.14-14.75-3.23-24.87c-0.73-5.07-0.56-10.55-0.78-16.5
							c-0.11-5.95-0.16-12.36-0.12-19.22c-0.37-13.74,1.65-29.11,3.46-46.29c0.4-4.3,1.19-8.66,2.06-13.13
							c0.86-4.47,1.75-9.05,2.66-13.73c1-4.67,1.76-9.47,3.12-14.32c1.34-4.85,2.71-9.8,4.1-14.85c0,0-2.71,5.06-6.69,14.04
							c-2.06,4.48-3.83,10-5.99,16.31c-2.03,6.33-4.42,13.46-6.22,21.28c-1.63,7.83-3.14,16.32-4.36,25.25
							c-0.55,4.46-1.28,9.01-1.44,13.69c-0.16,4.67-0.21,9.42-0.14,14.22c0.14,9.61,0.69,19.41,1.99,29.15
							c1.86,9.76,4.36,19.47,7.6,28.85L456.17,863.05z"/>
					</g>
					<g>
						<path class="st8" d="M507.43,795.73c-1.12,4.47-2.15,8.86-2.91,13.05c-1.34,6.14-2.68,11.91-3.98,17.29
							c-1.2,5.39-2.82,10.35-3.54,15.01c-1.79,9.27-3.49,16.97-4.93,23.03l3.96,0.11c3.81-8.41,6.9-16.87,9.38-25.3
							C507.05,824.57,508.01,810.21,507.43,795.73z"/>
					</g>
					<g>
						<path class="st8" d="M514.57,771.52c0.14-2.14,0.32-4.28,0.53-6.42c-0.21,0.87-0.46,1.74-0.64,2.61
							c-0.78,3.47-1.61,6.83-2.45,10.14c0.36,2.77,0.65,5.53,0.88,8.28C513.35,781.24,513.87,776.36,514.57,771.52z"/>
					</g>
					<g>
						<path class="st8" d="M475.07,863.6c2.1-29.5,8.16-96.94,31.94-178.69c0,0-1.95,3.02-5.39,9.55c-3.65,6.48-7.75,16.78-13,31
							c-2.2,7.21-4.55,15.43-6.98,24.69c-1.33,4.61-2.22,9.57-3.14,14.79c-0.89,5.21-1.81,10.69-2.78,16.42
							c-2.18,11.44-2.68,24.15-3.55,37.83c-0.18,3.42-0.35,6.91-0.54,10.48c-0.07,1.77-0.16,3.57-0.24,5.39
							c0,1.81,0.09,3.65,0.14,5.5c0.23,7.4,0.55,15.07,0.94,22.98L475.07,863.6z"/>
					</g>
				</g>
			</g>
		</g>
	</g>
	<g>
		<g>
			<g>
				<path class="st3" d="M613.08,1035.7c-9.85,0.82-19.69,1.81-29.56,2.27c-0.27,0.25-0.58,0.44-0.94,0.57
					c0.8,7.84,1.11,17.08-1.45,19.62c0,0,40.29,8.36,40.43-7.96C621.56,1050.21,612.42,1050.48,613.08,1035.7z"/>
			</g>
			<g>
				<g>
					<g>
						<path class="st4" d="M578.45,1056.22c0.57-0.85,1.34-1.34,2.21-1.66c9.29,2.38,17.09,3.83,26.34,2.29
							c0.41-0.07-0.24-5.3,0.82-8.3c0.88-2.49,6-3.64,10.91-4.66c2.09-0.44,6.63-0.37,7.63,0.96c1.15,1.08,1.62,3.31,1.62,3.31
							s44.96,6.2,39.97,37.08c0,0-31.49,9.58-62.73,2.46l-5.51-5.36l-2.35,4.27c0,0-13.49-2.53-18.38-6.53l-1.12-22.74
							C578.05,1056.97,578.22,1056.57,578.45,1056.22z"/>
					</g>
					<g>
						<path d="M638.98,1082.23c6.28-0.11,23.74-0.2,28.84-7c0.62,3.05,0.71,6.35,0.12,10.01c0,0-31.49,9.58-62.73,2.46l-5.51-5.36
							l-2.35,4.27c0,0-13.49-2.53-18.38-6.53l-0.42-8.52C597,1081.33,617.96,1082.6,638.98,1082.23z"/>
					</g>
					<g>
						<path class="st5" d="M632.25,1054.03c6.1-0.78,14.86,4.49,17.31,10.02c0.16,0.39,0.3,0.77,0.39,1.15
							c0.15,0.37,0.26,0.76,0.35,1.16c0.61,2.89-2.48,3.83-4.75,3.77c-3.26-0.11-6.78-1.91-9.31-3.87
							C633.67,1064.25,624.21,1055.06,632.25,1054.03z"/>
					</g>
					<g>
						<path class="st5" d="M655.96,1069.69c2.13-0.27,5.17,1.57,6.02,3.48c0.06,0.14,0.09,0.27,0.13,0.39
							c0.06,0.13,0.09,0.26,0.13,0.4c0.21,1.01-0.86,1.33-1.66,1.31c-1.12-0.03-2.35-0.67-3.23-1.34
							C656.47,1073.25,653.18,1070.05,655.96,1069.69z"/>
					</g>
				</g>
				<g>
					<path d="M607.85,1059.15l18.05,7.77c6.93-8.75,19.59-13.33,19.59-13.33c-3.83-2.73-16.21-5.12-16.21-5.12
						C612.95,1049.69,607.85,1059.15,607.85,1059.15z M613.46,1057.2c0,0,5.72-6.15,15.93-7.18c0,0,7.57,1.42,10.23,3.32
						c0,0-8.8,3.16-13.61,9.26L613.46,1057.2z"/>
				</g>
				<g>
					<path class="st6" d="M607.84,1058.42l18.05,7.79c6.93-8.77,19.59-13.33,19.59-13.33c-3.83-2.75-16.21-5.14-16.21-5.14
						C612.93,1048.97,607.84,1058.42,607.84,1058.42z M613.45,1056.48c0,0,5.72-6.15,15.93-7.18c0,0,7.57,1.42,10.22,3.32
						c0,0-8.8,3.17-13.62,9.26L613.45,1056.48z"/>
				</g>
			</g>
		</g>
		<g>
			<g>
				<g>
					<path class="st7" d="M611.21,1036.79c0,0,0.65-14.03,1.62-35.09c0.48-10.53,0.69-23.01,1.1-36.3c0.3-6.62,0.07-13.62,0-20.69
						c-0.11-7.09-0.21-14.29-0.32-21.49c-0.54-7.24-1.08-14.48-1.6-21.61c-0.27-3.57-0.53-7.12-0.8-10.62s-0.87-6.92-1.27-10.31
						c-0.97-6.75-1.65-13.32-2.76-19.49c-1.13-6.16-2.2-11.99-3.19-17.36c-2.14-10.73-4.44-19.56-5.82-25.8
						c-1.7-6.16-2.67-9.68-2.67-9.68c-1.25-4.05-3.03-7.72-5.17-10.85c-2.23-3.12-4.9-5.67-7.69-7.59
						c-5.62-3.84-11.93-5.05-17.67-2.91c-5.74,2.13-9.85,7.13-11.93,13.3c-1.04,3.09-1.52,6.47-1.52,10.02
						c-0.07,3.57,0.42,7.28,1.56,10.98c0,0,1.12,3.15,3.09,8.67c1.65,5.61,4.36,13.54,7.02,23.23c1.26,4.87,2.64,10.15,4.09,15.73
						c1.44,5.58,2.48,11.58,3.83,17.73c0.6,3.1,1.4,6.21,1.86,9.43c0.47,3.22,0.94,6.47,1.43,9.75c0.97,6.58,1.95,13.25,2.94,19.93
						c0.59,6.79,1.17,13.58,1.76,20.26c0.53,6.71,1.26,13.26,1.41,19.77c0.53,12.98,1.19,25.02,1.46,35.5
						c0.53,20.97,0.89,34.94,0.89,34.94L611.21,1036.79z"/>
				</g>
			</g>
			<g>
				<path class="st8" d="M619.13,1035.2c-0.05,2.71-1.58,4.88-3.44,4.84l-34.01-0.7c-1.85-0.04-3.31-2.25-3.26-4.94
					c0.05-2.69,1.58-4.84,3.44-4.81l34.01,0.63C617.71,1030.26,619.18,1032.48,619.13,1035.2z"/>
			</g>
			<g>
				<g>
					<path class="st8" d="M620.87,875.71l-61.25,9.79c0,0-1.03-6.26-2.04-12.52c-1.32-6.21-2.64-12.41-2.64-12.41l60.62-13.16
						c0,0,1.49,7.04,2.97,14.1C619.7,868.61,620.87,875.71,620.87,875.71z"/>
				</g>
				<g>
					<path class="st9" d="M617.4,856.13c8.33-23.68,7.41-61.08-7.68-98.84c-6.12-15.96-14.47-30.16-23.27-42.22
						c-9.07-11.98-18.74-21.76-28.55-28.76c-19.39-14.1-38.44-17.27-49.5-8.32c-11.11,8.96-14.42,25.48-12.87,46.17
						c1.67,20.65,8.1,45.31,18.24,71.11c12.18,30.48,27.15,56.42,43.01,72.93L617.4,856.13z"/>
				</g>
				<g>
					<g>
						<path class="st8" d="M545.48,835.59c5.43,10.42,11.44,20.93,18.34,31.21l3.89-0.77c-1.2-2.86-2.56-6.1-4.08-9.71
							c-1.43-3.64-3.06-7.63-5.03-11.95c-1.89-4.33-3.88-9.04-5.96-14.11c-2.31-5.01-4.73-10.38-7.21-16.12
							c-4.73-10.48-10.21-22.14-16.49-34.7C531.86,798.97,538.09,817.45,545.48,835.59z"/>
					</g>
					<g>
						<path class="st8" d="M606.81,858.24c6.69-39.98-4.2-82.3-18.52-111.49c-1.77-3.67-3.53-7.18-5.26-10.51
							c-1.78-3.3-3.62-6.39-5.34-9.29c-3.39-5.83-6.78-10.74-9.63-14.75c-2.81-4.04-5.24-7.12-6.95-9.2
							c-1.72-2.06-2.65-3.18-2.65-3.18c20.5,37.08,31.29,70.77,37.23,97.94c1.39,6.83,2.6,13.23,3.66,19.17
							c0.84,6.02,1.51,11.58,2.09,16.7c0.65,5.09,0.95,9.79,1.1,14.04c0.14,4.22,0.28,8,0.38,11.34L606.81,858.24z"/>
					</g>
					<g>
						<path class="st8" d="M586.26,862.34c-2.01-14.79-6.35-39.16-16.55-69.22c-10.19-29.93-26.45-65.7-52.01-100.32
							c0,0,1.26,3.45,4.26,10.16c2.96,6.74,7.41,16.87,13.41,30.53c11.81,27.42,30.48,68.54,48.36,129.35L586.26,862.34z"/>
					</g>
				</g>
			</g>
		</g>
	</g>
	<g>
		<g>
			<path class="st10" d="M336.9,758.99c0,0,0.21-0.85,0.61-2.45c0.37-1.6,1-3.92,1.85-6.83c0.85-2.91,1.86-6.46,3.03-10.53
				c1.31-3.98,2.79-8.47,4.41-13.38c6.9-19.35,18.12-44.15,34.26-65.74c15.89-21.76,35.83-40.57,52.22-53.16
				c3.97-3.28,7.98-5.91,11.33-8.44c3.42-2.46,6.32-4.71,8.92-6.31c5.1-3.33,8.01-5.24,8.01-5.24c6.64-4.54,11.95-9.99,14.73-15.89
				c2.82-5.86,3.3-11.94,0.61-16.76c-2.69-4.81-8.11-7.41-14.85-7.65c-6.71-0.18-14.84,1.75-22.18,6.74c0,0-3.19,2.09-8.77,5.74
				c-2.83,1.75-6.08,4.24-9.87,6.97c-3.74,2.82-8.13,5.73-12.6,9.41c-18.27,14.03-41.23,35.55-59.8,60.99
				c-18.87,25.27-31.97,54.24-39.69,76.01c-1.81,5.48-3.46,10.52-4.93,14.97c-1.29,4.47-2.41,8.38-3.34,11.59
				c-0.94,3.22-1.62,5.75-2.02,7.47c-0.43,1.72-0.66,2.64-0.66,2.64L336.9,758.99z"/>
		</g>
		<g>
			<path class="st11" d="M476.88,554.26c-2.69-4.81-8.11-7.41-14.85-7.65c-6.71-0.18-14.84,1.75-22.18,6.74c0,0-3.19,2.09-8.77,5.74
				c-2.83,1.75-6.08,4.24-9.87,6.97c-3.74,2.82-8.13,5.73-12.6,9.41c-6.58,5.05-13.78,11.12-21.16,17.95
				c-4.8,21.43-6.37,43.6-5.7,65.74c15.78-21.37,35.37-39.85,51.53-52.26c3.97-3.28,7.98-5.91,11.33-8.44
				c3.42-2.46,6.32-4.71,8.92-6.31c5.1-3.33,8.01-5.24,8.01-5.24c6.64-4.54,11.95-9.99,14.73-15.89
				C479.09,565.16,479.57,559.08,476.88,554.26z"/>
		</g>
		<g>
			<path class="st12" d="M340.54,758.15c-1.48,5.94-5.41,10.12-8.78,9.34l-32.82-7.64c-3.38-0.77-4.8-6.7-3.18-13.23
				c1.59-6.54,5.98-11.05,9.25-10.07l32.4,9.26C340.79,746.8,341.99,752.2,340.54,758.15z"/>
		</g>
		<g class="st13">
			<path class="st12" d="M332.71,754.55c-1.12,4.52-4.07,7.7-6.59,7.1l-24.51-5.94c-2.52-0.61-3.59-5.03-2.37-9.89
				c1.23-4.85,4.47-8.21,6.93-7.5l24.27,6.86C332.96,745.91,333.85,750.04,332.71,754.55z"/>
		</g>
	</g>
	<g>
		<g>
			<path class="st10" d="M768.95,547.33c0,0-1.83,1.98-5.03,5.43c-1.53,1.84-3.71,3.53-6.07,5.72c-2.42,2.06-4.98,4.74-8.06,7.05
				c-3.1,2.25-6.45,4.7-10,7.29c-3.75,1.99-7.55,4.58-11.68,6.48c-4.2,1.6-8.39,3.96-12.91,4.83c-2.23,0.53-4.44,1.43-6.72,1.75
				l-6.86,0.92c-18.36,1.75-37.01-4.83-49.92-12.86c-3.21-2.1-6.14-4.02-8.74-5.72c-2.5-1.96-4.67-3.67-6.46-5.09
				c-1.8-1.41-3.23-2.46-4.11-3.36c-0.92-0.84-1.4-1.28-1.4-1.28c-2.27-2.09-4.79-3.64-7.5-4.72c-2.63-1.18-5.33-2-8.1-2.27
				c-5.51-0.54-11.12,0.82-15.24,4.48c-4.13,3.66-5.9,9.04-5.22,15.02c0.35,2.96,1.24,6.11,2.83,9.1c1.68,2.92,3.96,5.78,6.75,8.33
				c0,0,0.61,0.55,1.73,1.58c1.08,1.08,2.9,2.45,5.17,4.24c2.27,1.78,5.04,3.94,8.22,6.42c3.43,2.25,7.29,4.77,11.51,7.54
				c4.4,2.55,9.37,5.11,14.63,7.74c2.78,1.12,5.64,2.26,8.56,3.43c1.46,0.57,2.94,1.15,4.44,1.73c1.57,0.44,3.15,0.87,4.75,1.32
				c3.22,0.85,6.47,1.77,9.8,2.55c3.43,0.47,6.91,0.95,10.41,1.44c3.49,0.62,7.09,0.53,10.69,0.56l5.41-0.01l2.71-0.03l2.68-0.33
				c3.57-0.49,7.15-0.98,10.71-1.46c3.55-0.55,6.89-1.73,10.29-2.59c6.93-1.58,12.96-4.66,19.05-7.15
				c5.91-2.75,11.09-6.14,16.25-9.02c4.76-3.29,9.09-6.58,13.15-9.55c3.99-3.04,7.13-6.22,10.16-8.85c2.93-2.7,5.67-4.95,7.49-7.07
				c3.83-4.13,6.04-6.48,6.04-6.48L768.95,547.33z"/>
		</g>
		<g>
			<path class="st11" d="M665.14,596.66c-1.24-4.75-2.42-11.17-4.02-17.68c-3.37-1.57-6.57-3.26-9.43-5.05
				c-3.21-2.1-6.14-4.02-8.74-5.72c-2.5-1.96-4.67-3.67-6.46-5.09c-1.8-1.41-3.23-2.46-4.11-3.36c-0.92-0.84-1.4-1.28-1.4-1.28
				c-2.27-2.09-4.79-3.64-7.5-4.72c-2.63-1.18-5.33-2-8.1-2.27c-5.51-0.54-11.12,0.82-15.24,4.48c-4.13,3.66-5.9,9.04-5.22,15.02
				c0.35,2.96,1.24,6.11,2.83,9.1c1.68,2.92,3.96,5.78,6.75,8.33c0,0,0.61,0.55,1.73,1.58c1.08,1.08,2.9,2.45,5.17,4.24
				c2.27,1.78,5.04,3.94,8.22,6.42c3.43,2.25,7.29,4.77,11.51,7.54c4.4,2.55,9.37,5.11,14.63,7.74c2.78,1.12,5.64,2.26,8.56,3.43
				c1.46,0.57,2.94,1.15,4.44,1.73c1.57,0.44,3.15,0.87,4.75,1.32c2.61,0.7,5.27,1.4,7.95,2.07
				C669.67,615.15,667.54,605.88,665.14,596.66z"/>
		</g>
		<g>
			<path class="st12" d="M765.61,546.03c3.16-3.4,7.88-4.33,10.52-2.09l25.58,21.92c2.64,2.23,1.63,7.49-2.31,11.71
				c-3.94,4.22-9.06,5.63-11.52,3.12l-23.62-24.02C761.89,554.23,762.45,549.42,765.61,546.03z"/>
		</g>
		<g class="st13">
			<path class="st12" d="M770.99,552.68c2.46-2.65,6.05-3.42,8-1.71l18.87,16.73c1.95,1.71,1.19,5.62-1.72,8.74
				c-2.9,3.12-6.73,4.14-8.55,2.29l-17.77-17.89C768.01,558.98,768.52,555.33,770.99,552.68z"/>
		</g>
	</g>
	<g>
		<path class="st14" d="M517.62,781.87l5.25-40.04l10.85,39.04c2.96-0.22,5.89-0.46,8.78-0.71c21.64-1.83,47.9-4.66,71.94-11.85
			c-1.06-7.06-2.46-16.21-4.07-26.65c-7.51-48.67-19.73-125.21-25.51-147.44c-3.31-12.72-7.13-37.77-19.19-45.31
			c-14.79-9.26-30.65-14.01-48.18-12.46c-16.44,1.46-36.1,6.7-46.37,20.34c-14.28,18.97-17.94,43.14-22.63,65.79
			c-7.41,35.81-11.26,72.36-13.95,108.82l-3.63,34.88C456.22,781.32,487.68,783.23,517.62,781.87z"/>
	</g>
	<g>
		<path class="st15" d="M448.6,553.04c0,0,39.93,97.73,118.74,166.03l35.73-1.05c0,0-86.16-94.57-118.74-152.37L448.6,553.04z"/>
	</g>
	<g>
		<path class="st16" d="M453.76,552.59c0,0,42.38,97.72,121.19,166.02l17.52-2.1c0,0-83.36-92.82-115.94-150.61L453.76,552.59z"/>
	</g>
	<g>
		<path class="st15" d="M495.54,532.37c0,0-49.04,4.9-65.15,13.31c0,0,18.57,42.38,88.63,40.28c0,0,72.15-2.1,92.47-31.53
			C611.48,554.43,562.09,526.07,495.54,532.37z"/>
	</g>
	<g>
		<g>
			<path class="st17" d="M519.01,577.55c-52.49,1.58-76.07-21.81-84.6-33.64c-1.49,0.57-2.85,1.17-4.02,1.77
				c0,0,18.57,42.38,88.63,40.28c0,0,72.15-2.1,92.47-31.53c0,0-1.76-1-5.05-2.6C581.34,575.72,519.01,577.55,519.01,577.55z"/>
		</g>
	</g>
	<g>
		<g>
			<path class="st18" d="M437,702.38c-0.93,9.67-1.73,19.35-2.45,29.03l-0.85,8.12c36.79,10.04,77.81,11.35,114.62,8.71
				c20.82-1.49,41.44-4.54,61.62-9.37c-1.84-11.93-3.95-25.37-6.15-39.19C578.41,706.18,496.42,720.99,437,702.38z"/>
		</g>
		<g>
			<path class="st19" d="M492.22,704.17v49.92h60.42v-49.92H492.22z M543.73,746.74h-42.62v-35.2h42.62V746.74z"/>
		</g>
	</g>
	<g>
		<g>
			<g>
				<path class="st9" d="M497.6,558.38c0,0,27.43,393.17-85,501.91c0,0-17.98,17.74-43.83,15.15c-25.84-2.59-94.01-4.1-50.17-56
					c43.84-51.89,64.9-206.97,70.27-288.15c5.37-81.19-2.19-164.21,41.39-189.08S493.23,541.78,497.6,558.38z"/>
			</g>
			<g>
				<path class="st20" d="M497.6,558.38c-3.75-14.24-18.55-34.22-50.17-23.93c-5.03,6.51-8.68,13.85-8.16,23.79
					c0.8,15.59,6.11,30.47,8.25,45.86c1.88,13.46,3.11,27,3.7,40.62c2.68,61.62,2.14,123.42-5.23,184.52
					c-3.83,31.7-9.01,63.18-16.08,94.09c-5.85,25.59-11.44,53.31-22.36,76.68c-9.88,21.14-23.46,35.51-41.12,47.32
					c-7.13,4.78-18.79,17.19-15.17,26.48c6.63,0.71,12.78,1.16,17.51,1.63c25.85,2.59,43.83-15.15,43.83-15.15
					C525.03,951.55,497.6,558.38,497.6,558.38z"/>
			</g>
			<g>
				<path class="st5" d="M464.75,673.92L464.75,673.92c-3.05,0.08-6.19-26.99-6.19-26.99c-0.09-3.57,2.31-6.54,5.36-6.62l0,0
					c3.05-0.07,5.59,2.77,5.68,6.34C469.61,646.65,467.8,673.85,464.75,673.92z"/>
			</g>
			<g>
				<path class="st5" d="M484.39,630.06L484.39,630.06c-3.05,0.09-6.19-26.99-6.19-26.99c-0.08-3.58,2.32-6.54,5.36-6.61l0,0
					c3.05-0.08,5.6,2.75,5.68,6.34C489.24,602.79,487.44,629.98,484.39,630.06z"/>
			</g>
			<g>
				<path class="st5" d="M459.86,588.54L459.86,588.54c-2.46,0.07-4.99-21.79-4.99-21.79c-0.07-2.89,1.86-5.28,4.33-5.34l0,0
					c2.46-0.06,4.52,2.23,4.58,5.11C463.78,566.52,462.32,588.48,459.86,588.54z"/>
			</g>
			<g>
				<path class="st5" d="M487.64,707.38L487.64,707.38c-2.46,0.06-5-21.79-5-21.79c-0.07-2.89,1.87-5.28,4.33-5.34l0,0
					c2.45-0.07,4.52,2.23,4.58,5.12C491.56,685.37,490.1,707.32,487.64,707.38z"/>
			</g>
			<g>
				<path class="st5" d="M466.84,760.19L466.84,760.19c-2.46,0.06-4.99-21.8-4.99-21.8c-0.07-2.89,1.86-5.28,4.33-5.34l0,0
					c2.46-0.07,4.52,2.22,4.58,5.11C470.76,738.17,469.3,760.13,466.84,760.19z"/>
			</g>
			<g>
				<path class="st5" d="M483.57,808.8L483.57,808.8c-2.46,0.06-4.99-21.8-4.99-21.8c-0.07-2.89,1.86-5.28,4.33-5.34l0,0
					c2.46-0.07,4.52,2.22,4.59,5.11C487.5,786.78,486.03,808.74,483.57,808.8z"/>
			</g>
			<g>
				<path class="st5" d="M454.82,856.18L454.82,856.18c-2.41-0.6-0.64-22.52-0.64-22.52c0.49-2.82,2.84-4.64,5.25-4.04l0,0
					c2.41,0.6,3.97,3.37,3.48,6.2C462.92,835.82,457.23,856.77,454.82,856.18z"/>
			</g>
			<g>
				<path class="st5" d="M470.11,901.99L470.11,901.99c-2.41-0.6-0.65-22.52-0.65-22.52c0.49-2.83,2.85-4.64,5.26-4.04l0,0
					c2.41,0.6,3.97,3.37,3.48,6.2C478.2,881.63,472.52,902.59,470.11,901.99z"/>
			</g>
			<g>
				<path class="st5" d="M441.83,945.66L441.83,945.66c-2.41-0.6-0.64-22.52-0.64-22.52c0.48-2.82,2.84-4.63,5.25-4.04l0,0
					c2.41,0.6,3.97,3.37,3.48,6.2C449.93,925.3,444.25,946.25,441.83,945.66z"/>
			</g>
			<g>
				<path class="st5" d="M440.3,999.83L440.3,999.83c-2.28-1.09,2.82-22.26,2.82-22.26c0.92-2.68,3.52-3.96,5.8-2.86l0,0
					c2.29,1.1,3.39,4.15,2.47,6.83C451.4,981.55,442.59,1000.92,440.3,999.83z"/>
			</g>
			<g>
				<path class="st5" d="M404.42,1023.14L404.42,1023.14c-1.54-1.55,7.14-16.4,7.14-16.4c1.31-1.79,3.61-1.99,5.15-0.44l0,0
					c1.54,1.55,1.72,4.26,0.42,6.05C417.13,1012.35,405.95,1024.68,404.42,1023.14z"/>
			</g>
			<g>
				<path class="st5" d="M391.52,1065.57L391.52,1065.57c-1.2-1.54,7.77-13.36,7.77-13.36c1.31-1.4,3.35-1.27,4.54,0.27l0,0
					c1.2,1.55,1.11,3.93-0.2,5.33C403.63,1057.81,392.72,1067.11,391.52,1065.57z"/>
			</g>
			<g>
				<path class="st5" d="M360.45,1065.95L360.45,1065.95c-0.91-1.18,5.92-10.19,5.92-10.19c0.99-1.06,2.55-0.96,3.46,0.21l0,0
					c0.91,1.18,0.85,3.01-0.16,4.06C369.67,1060.04,361.37,1067.12,360.45,1065.95z"/>
			</g>
		</g>
		<g>
			<g>
				<path class="st9" d="M551.91,557.01c0,0-8.1,394.07,109.52,497c0,0,18.83,16.81,44.52,12.92c25.68-3.88,93.7-8.84,47.36-58.46
					c-46.34-49.62-74.97-203.44-84.32-284.25c-9.35-80.81-5.87-164.12-50.62-186.76C573.61,514.82,555.46,540.21,551.91,557.01z"/>
			</g>
			<g>
				<path class="st20" d="M551.91,557.01c3.04-14.41,16.84-35.11,48.93-26.44c5.34,6.25,9.35,13.41,9.33,23.36
					c-0.04,15.62-4.61,30.73-6,46.21c-1.22,13.54-1.77,27.13-1.7,40.75c0.35,61.67,3.92,123.38,14.28,184.03
					c5.38,31.47,12.11,62.66,20.69,93.18c7.09,25.26,14.03,52.66,26.09,75.45c10.9,20.61,25.18,34.28,43.4,45.2
					c7.36,4.41,19.61,16.22,16.45,25.67c-6.58,1.05-12.72,1.81-17.42,2.51c-25.69,3.89-44.52-12.92-44.52-12.92
					C543.81,951.08,551.91,557.01,551.91,557.01z"/>
			</g>
			<g>
				<path class="st5" d="M590.39,670.75L590.39,670.75c3.05-0.07,4.85-27.28,4.85-27.28c-0.09-3.57-2.63-6.42-5.68-6.34l0,0
					c-3.05,0.07-5.45,3.04-5.36,6.62C584.2,643.76,587.35,670.83,590.39,670.75z"/>
			</g>
			<g>
				<path class="st5" d="M568.62,627.94L568.62,627.94c3.05-0.07,4.85-27.27,4.85-27.27c-0.08-3.58-2.63-6.41-5.67-6.34l0,0
					c-3.05,0.08-5.45,3.04-5.37,6.62C562.43,600.94,565.57,628.02,568.62,627.94z"/>
			</g>
			<g>
				<path class="st5" d="M591.08,585.23L591.08,585.23c2.46-0.07,3.92-22.02,3.92-22.02c-0.07-2.88-2.12-5.18-4.58-5.11l0,0
					c-2.46,0.06-4.4,2.45-4.33,5.34C586.09,563.43,588.62,585.29,591.08,585.23z"/>
			</g>
			<g>
				<path class="st5" d="M569.17,705.32L569.17,705.32c2.46-0.06,3.92-22.01,3.92-22.01c-0.07-2.89-2.12-5.18-4.58-5.12l0,0
					c-2.46,0.07-4.4,2.45-4.33,5.34C564.17,683.53,566.71,705.39,569.17,705.32z"/>
			</g>
			<g>
				<path class="st5" d="M592.53,757.01L592.53,757.01c2.46-0.06,3.92-22.02,3.92-22.02c-0.07-2.88-2.13-5.17-4.59-5.11l0,0
					c-2.46,0.07-4.4,2.45-4.33,5.34C587.54,735.22,590.08,757.08,592.53,757.01z"/>
			</g>
			<g>
				<path class="st5" d="M578.22,806.41L578.22,806.41c2.45-0.07,3.92-22.02,3.92-22.02c-0.07-2.89-2.13-5.18-4.59-5.11l0,0
					c-2.45,0.07-4.4,2.45-4.33,5.34C573.22,784.62,575.75,806.48,578.22,806.41z"/>
			</g>
			<g>
				<path class="st5" d="M609.25,852.28L609.25,852.28c2.39-0.71-0.46-22.52-0.46-22.52c-0.63-2.8-3.07-4.49-5.45-3.77l0,0
					c-2.38,0.71-3.8,3.57-3.17,6.36C600.17,832.36,606.87,853.01,609.25,852.28z"/>
			</g>
			<g>
				<path class="st5" d="M596.24,898.81L596.24,898.81c2.38-0.72-0.47-22.53-0.47-22.53c-0.62-2.79-3.06-4.48-5.44-3.77l0,0
					c-2.38,0.72-3.8,3.57-3.18,6.37C587.15,878.88,593.86,899.52,596.24,898.81z"/>
			</g>
			<g>
				<path class="st5" d="M626.62,941L626.62,941c2.38-0.72-0.46-22.53-0.46-22.53c-0.63-2.79-3.07-4.48-5.45-3.76l0,0
					c-2.38,0.71-3.8,3.56-3.17,6.36C617.54,921.07,624.25,941.71,626.62,941z"/>
			</g>
			<g>
				<path class="st5" d="M630.81,995.02L630.81,995.02c2.23-1.21-3.92-22.09-3.92-22.09c-1.04-2.63-3.69-3.78-5.93-2.56l0,0
					c-2.22,1.22-3.19,4.32-2.14,6.95C618.82,977.32,628.58,996.24,630.81,995.02z"/>
			</g>
			<g>
				<path class="st5" d="M667.79,1016.49L667.79,1016.49c1.46-1.63-7.94-16.01-7.94-16.01c-1.4-1.72-3.7-1.8-5.16-0.18l0,0
					c-1.46,1.63-1.51,4.34-0.11,6.07C654.57,1006.37,666.33,1018.12,667.79,1016.49z"/>
			</g>
			<g>
				<path class="st5" d="M682.75,1058.22L682.75,1058.22c1.12-1.61-8.42-12.96-8.42-12.96c-1.38-1.32-3.41-1.1-4.52,0.51l0,0
					c-1.12,1.61-0.91,3.99,0.47,5.31C670.28,1051.09,681.64,1059.82,682.75,1058.22z"/>
			</g>
			<g>
				<path class="st5" d="M713.8,1057.03L713.8,1057.03c0.85-1.22-6.42-9.87-6.42-9.87c-1.04-1.02-2.59-0.84-3.44,0.39l0,0
					c-0.85,1.22-0.69,3.04,0.35,4.05C704.3,1051.6,712.95,1058.26,713.8,1057.03z"/>
			</g>
		</g>
	</g>
	<g>
		<g>
			<g>
				<g>
					<g>
						<g>
							<g>
								<path class="st0" d="M375.68,418.31c0,0-4.47-39.07-46.62-29.71c-42.15,9.38-13.53,87.03,48.5,79.47L375.68,418.31z"/>
							</g>
							<g class="st21">
								<path class="st22" d="M357.74,420.41c-6.31-12.9-22.2-24.84-32.6-15.21c-11.95,11.08,0.2,31.43,10.43,39.54
									C352.14,457.87,369.79,445.07,357.74,420.41z"/>
							</g>
						</g>
						<g>
							<path class="st0" d="M567.95,160.59c-93.92-18.28-185.27,32.59-221.44,117.14c2.99,6.21,5.86,12.5,7.53,19.32
								c5.89,23.97,8.83,48.66,9.54,73.3c0.53,18.03-1.62,35.97-2.59,53.94c-0.88,16.09,6.56,38.09,13.43,52.4
								c7.64,15.88,19.7,28.65,33.83,38.98c31.04,22.74,70.52,38.41,109.11,40.02c76.83,3.21,151.2-35.37,188.03-103.77
								c9.44-17.56,16.47-37.83,20.28-57.42C746.71,286.36,676.1,181.63,567.95,160.59z"/>
						</g>
						<g>
							<g>
								<path class="st23" d="M459.9,411.7c-1.5,7.76-9.03,12.83-16.8,11.32c-7.77-1.51-12.84-9.03-11.33-16.81
									c1.52-7.76,9.04-12.82,16.81-11.32C456.36,396.41,461.42,403.93,459.9,411.7z"/>
							</g>
							<g>
								<g>
									<path class="st24" d="M441.49,404.13c-0.28,1.42-1.65,2.34-3.06,2.07c-1.41-0.28-2.34-1.65-2.06-3.06
										c0.27-1.42,1.64-2.35,3.06-2.07C440.84,401.34,441.76,402.72,441.49,404.13z"/>
								</g>
							</g>
						</g>
						<g>
							<g>
								<path class="st23" d="M604.42,419.18c-1.51,7.76-9.03,12.84-16.81,11.32c-7.77-1.51-12.84-9.03-11.33-16.79
									c1.51-7.77,9.04-12.84,16.81-11.33C600.86,403.89,605.93,411.41,604.42,419.18z"/>
							</g>
							<g>
								<g>
									<path class="st24" d="M585.79,411.57c-0.26,1.36-1.58,2.25-2.94,1.98c-1.36-0.26-2.25-1.58-1.99-2.95
										c0.26-1.35,1.58-2.24,2.94-1.97C585.17,408.9,586.06,410.22,585.79,411.57z"/>
								</g>
							</g>
						</g>
						<g>
							<path class="st25" d="M463.55,487c0,0,49.77,20.1,91.4,3.22c0,0-5.24,36.63-36.8,38.97C468.65,532.88,463.55,487,463.55,487z
								"/>
						</g>
					</g>
					<g>
						<path class="st26" d="M773.87,317.35c8.24,3.53,16.52,6.65,24.38,10.84c-12.77-34.56-17.64-73.8-39.2-103.95
							c-0.07-0.03-0.16-0.07-0.23-0.09c-3.74-1.27-7.51-2.33-11.41-2.95c-1.33-0.21-2.62-0.14-3.9,0.04
							c-0.71-0.89-1.42-1.78-2.12-2.65c-1.17-1.43-2.38-2.83-3.61-4.18c-0.77-1.4-1.54-2.77-2.36-4.02
							c-4.71-7.21-10.48-13.35-17.07-18.84c-11.92-9.95-27.46-14.59-41.58-20.7c-6.89-3.47-13.97-6.6-21.31-9.29
							c-0.29-0.1-0.57-0.19-0.84-0.3c-8.55-3.5-17.22-6.72-26.3-9.29c-17.91-5.1-36.23-7.74-54.79-9.1
							c-36.15-2.66-71.87-1.36-107.21,7.02c-16.55,3.92-33.72,8.55-48.32,17.56c-14.61,9.01-28.84,18.4-42.97,28.1
							c-3.19,2.2-5.99,5.11-8.95,7.59c-3.42,2.89-7.36,5.17-10.86,8.01c-7.5,6.08-14.24,13.08-20.72,20.22
							c-5.38,5.92-11.34,11.23-16.12,17.67c-4.98,6.71-10.34,13.32-15.95,19.52c0,0.01-0.01,0.01-0.02,0.04
							c-0.39,0.42-0.7,0.84-0.99,1.26c14.25,11.87,22.64,32.16,26.02,49.4c3.7,18.9,2.96,38.63,0.07,57.97
							c1.32-2.41,17.29-10.13,23.79-17.27c-1.71,10.55,12.83,62.86,13.09,60.36c3.09-28.68,17.29-56.09,35.01-78.64
							c3.95-5.02,1.72,7.59-2,19.56c-0.87,2.81,19.15-3.07,23.14-4.3c7.46-2.29,14.79-4.85,22.18-7.38
							c15.85-5.44,31.93-10.17,47.6-16.1c14.52-5.49,28.87-11.61,42.9-18.38c-4.06,4.24-8.23,8.39-12.5,12.45
							c-3.53,3.36-13.36,9.44-13.53,15.02c-0.08,2.79,17.36,3.66,23.88,2.96c24.88-2.67,49.97-10.72,73.2-19.72
							c10.56-4.1,20.39-9.25,30.03-15.13c-0.44,4.36-0.66,8.75-0.67,13.21c-0.03,8.22,0.88,16.09,2.6,24.12
							c0.9,4.12,1.93,8.19,3.19,12.21c0.74,2.32,0.95,4.68,2.6,6.57c2.5,2.84,13.31-19.43,15.98-27.19c0.44-1.28,0.88-2.56,1.3-3.84
							c-0.43,6.4,1.22,23.89,3.46,41.81c14.06,20.23,25.9,41.75,36.7,63.84c7.11-7.65,14.28-15.42,20.8-24.48
							c17.91-24.88,34.51-64.75,66.64-69.95c-3.16-10.06-9.61-18.35-15.92-26.72C769.56,318.33,772.21,316.64,773.87,317.35z"/>
					</g>
				</g>
			</g>
			<g>
				<g>
					<path class="st0" d="M682.01,430.8c0,0,9.17-38.25,49.86-23.85c40.71,14.43,2.87,88.03-57.78,73L682.01,430.8z"/>
				</g>
				<g class="st21">
					<path class="st22" d="M699.54,435.04c7.82-12.03,25.06-21.96,34.2-11.14c10.53,12.45-4.01,31.18-15.14,37.98
						C700.57,472.91,684.6,458.07,699.54,435.04z"/>
				</g>
			</g>
		</g>
	</g>
	<g>
		<g>
			<g>
				<g>
					<g>
						<path class="st27" d="M712.11,76.82c-9.63,26.53-37.79,40.61-64.01,34.54c-25.4-5.89-43.7-29.51-42.21-56.51
							c-5.16,26.55-28.68,44.99-54.61,44.48c-25.94-0.51-48.72-19.85-52.83-46.57c0.44,27.04-18.75,49.92-44.37,54.82
							c-26.44,5.06-54.04-10.11-62.63-36.99c-0.15,0.05-0.24,0.06-0.39,0.11c13.32,43.91,26.66,87.82,39.98,131.73
							c84.39-19.36,152.83-18.02,236.4,4.61c15.02-43.36,30.04-86.72,45.08-130.07C712.36,76.91,712.27,76.87,712.11,76.82z"/>
					</g>
				</g>
			</g>
			<g class="st28">
				<g>
					<path class="st29" d="M429,195.72c0.68,2.23,1.36,4.47,2.04,6.7c84.39-19.36,152.83-18.02,236.4,4.61
						c0.8-2.34,1.62-4.68,2.42-7.02C545.84,166.29,462.73,184.5,429,195.72z"/>
				</g>
			</g>
			<g class="st28">
				<path class="st29" d="M455.43,121.96c25.14-4.91,43.98-27.8,43.56-54.83c4.04,26.73,26.38,46.06,51.84,46.55
					c25.45,0.49,48.54-17.95,53.61-44.5c-1.47,27,16.49,50.61,41.41,56.49c22.59,5.32,46.63-4.89,58.59-25.4
					c2.69-7.77,5.39-15.55,8.08-23.31c-0.16-0.06-0.25-0.09-0.4-0.14c-9.63,26.53-37.79,40.61-64.01,34.54
					c-25.4-5.89-43.7-29.51-42.21-56.51c-5.16,26.55-28.68,44.99-54.61,44.48c-25.94-0.51-48.72-19.85-52.83-46.57
					c0.44,27.04-18.75,49.92-44.37,54.82c-26.44,5.06-54.04-10.11-62.63-36.99c-0.15,0.05-0.24,0.06-0.39,0.11
					c2.52,8.31,5.04,16.61,7.56,24.9C410.03,115.71,433.12,126.31,455.43,121.96z"/>
			</g>
			<g>
				<g>
					<g>
						<path class="st29" d="M401.59,75.02c-0.11,5.37-4.54,9.63-9.91,9.53c-5.37-0.1-9.63-4.54-9.53-9.9
							c0.11-5.37,4.54-9.64,9.92-9.53C397.43,65.22,401.69,69.66,401.59,75.02z"/>
					</g>
					<g>
						<path class="st24" d="M392.59,71.96c-0.05,2.46-2.08,4.43-4.56,4.38c-2.46-0.05-4.42-2.09-4.38-4.55
							c0.05-2.48,2.09-4.43,4.55-4.38C390.68,67.45,392.64,69.49,392.59,71.96z"/>
					</g>
				</g>
				<g>
					<g>
						<path class="st29" d="M509.77,52.43c-0.11,5.37-4.54,9.63-9.91,9.53c-5.37-0.11-9.63-4.54-9.53-9.91
							c0.11-5.37,4.54-9.63,9.91-9.53C505.61,42.63,509.87,47.06,509.77,52.43z"/>
					</g>
					<g>
						<path class="st24" d="M500.76,49.37c-0.05,2.47-2.09,4.42-4.56,4.38c-2.46-0.05-4.43-2.09-4.38-4.56
							c0.05-2.47,2.09-4.43,4.55-4.38C498.85,44.86,500.81,46.9,500.76,49.37z"/>
					</g>
				</g>
				<g>
					<g>
						<path class="st29" d="M616.15,54.5c-0.11,5.37-4.55,9.64-9.91,9.53c-5.37-0.11-9.64-4.54-9.53-9.9
							c0.11-5.38,4.54-9.63,9.91-9.54C611.99,44.7,616.24,49.14,616.15,54.5z"/>
					</g>
					<g>
						<path class="st24" d="M607.14,51.44c-0.05,2.47-2.09,4.43-4.56,4.38c-2.47-0.05-4.43-2.09-4.38-4.56
							c0.05-2.46,2.09-4.42,4.55-4.38C605.23,46.93,607.19,48.98,607.14,51.44z"/>
					</g>
				</g>
				<g>
					<g>
						<path class="st29" d="M723.01,78.64c-0.09,5.37-4.52,9.64-9.88,9.55c-5.37-0.1-9.65-4.52-9.55-9.89
							c0.1-5.37,4.52-9.64,9.89-9.55C718.84,68.85,723.11,73.27,723.01,78.64z"/>
					</g>
					<g>
						<path class="st24" d="M714,75.59c-0.04,2.47-2.07,4.43-4.55,4.39c-2.46-0.05-4.43-2.08-4.38-4.55
							c0.05-2.47,2.08-4.43,4.55-4.39C712.08,71.09,714.04,73.12,714,75.59z"/>
					</g>
				</g>
			</g>
		</g>
		<g>
			<g class="st28">
				<path class="st30" d="M559.77,138.14c-0.2,11.9-7.17,21.44-15.58,21.3c-8.41-0.14-15.07-9.88-14.88-21.78
					c0.19-11.89,7.17-21.42,15.57-21.29C553.29,116.49,559.96,126.25,559.77,138.14z"/>
			</g>
			<g>
				<path class="st31" d="M556.6,138.61c-0.15,9.43-5.68,16.99-12.36,16.88c-6.66-0.11-11.95-7.83-11.79-17.27
					c0.15-9.42,5.68-16.99,12.34-16.88C551.47,121.46,556.76,129.19,556.6,138.61z"/>
			</g>
			<g>
				<path class="st24" d="M546.1,132.99c-0.07,4.24-2.55,7.64-5.54,7.59c-3-0.05-5.38-3.53-5.3-7.77c0.07-4.24,2.55-7.64,5.55-7.59
					C543.79,125.27,546.17,128.75,546.1,132.99z"/>
			</g>
		</g>
	</g>
</g>
</svg>
