<?xml version="1.0" encoding="utf-8"?>
<!-- Generator: Adobe Illustrator 26.0.3, SVG Export Plug-In . SVG Version: 6.00 Build 0)  -->
<svg version="1.1" id="Layer_1" xmlns="http://www.w3.org/2000/svg" xmlns:xlink="http://www.w3.org/1999/xlink" x="0px" y="0px"
	 viewBox="0 0 1133.86 1133.86" style="enable-background:new 0 0 1133.86 1133.86;" xml:space="preserve">
<style type="text/css">
	.st0{fill:#877F81;}
	.st1{fill:#AAA5A7;}
	.st2{fill:#756B6E;}
	.st3{fill:#332C2E;}
	.st4{fill:#EF9A9D;}
	.st5{fill:#DDD7DB;}
	.st6{fill:#B2B1B2;}
	.st7{fill:#545454;}
	.st8{fill:#60585B;}
	.st9{fill:#4C4548;}
	.st10{fill:#1E1B1C;}
	.st11{fill:#5C1202;}
	.st12{fill:#151002;}
	.st13{fill:#FDA6A8;}
	.st14{fill:#EB7F83;}
	.st15{fill:#60300F;}
	.st16{fill:#F3F1F2;}
	.st17{fill:#FFFFFF;}
	.st18{fill:#E2E2E2;}
	.st19{fill:#383035;}
	.st20{fill:#594D55;}
	.st21{fill:#2D262B;}
	.st22{fill:#252225;}
	.st23{fill:#151215;}
	.st24{fill:#3A3035;}
	.st25{fill:#251A20;}
	.st26{fill:#542416;}
	.st27{fill:#A74F45;}
	.st28{fill:#261005;}
</style>
<g>
	<g>
		<g>
			<path class="st0" d="M304.91,49.22c-88.82-26.95-139.89,42.83-157.68,84.83c-17.96,42.41-33.93,135.73-51.9,159.68
				c14.97,0,25.95-15.97,25.95-15.97s-7.98,58.88,11.98,90.82c2-15.97,6.99-38.92,6.99-38.92s7.98,65.87,37.92,87.82
				c-7.98-20.96-3.99-57.88-3.99-57.88s16.97,68.86,54.89,86.83c-8.98-17.96-7.98-48.9-7.98-48.9s19.96,43.91,41.92,48.9
				c-4.99-13.97-6.49-28.94-6.49-28.94s25.45,42.91,65.37,42.91c39.92,0,95.81-241.52,95.81-241.52S393.73,76.16,304.91,49.22z"/>
			<path class="st1" d="M299.03,57.64C279.99,51.29,237,39.66,193.57,70.39c26.63-22.14,63.51-35.68,111.34-21.17
				c88.82,26.95,112.77,169.66,112.77,169.66s-2.22,9.57-6.08,24.9C378.72,103.82,327.58,67.16,299.03,57.64z"/>
			<path class="st2" d="M95.33,293.73c17.96-23.95,33.93-117.27,51.9-159.68c9.17-21.66,27.2-50.7,54.69-70.06
				c-63.27,54.47-53.56,124.49-64.32,164.98c10.58-7.4,16.92-20.09,25.38-30.67c-2.12,31.73-28.55,80.25,6.87,118.45
				c4.23-12.69-3.44-41.77,5.29-60.28c1.06,39.66,29.35,70.33,30.96,103.91c6.35-9.52,5.26-25.38,9.49-35.96
				c1.06,25.38,16.13,51.56,36.22,69.54c5.29-10.58,4.23-23.27,9.52-33.84c14.25,39.76,58.3,46.52,100.07,45.21
				c-13.28,31.94-27.16,55.07-39.52,55.07c-39.92,0-65.37-42.91-65.37-42.91s1.5,14.97,6.49,28.94
				c-21.96-4.99-41.92-48.9-41.92-48.9s-1,30.94,7.98,48.9c-37.92-17.96-54.89-86.83-54.89-86.83s-3.99,36.93,3.99,57.88
				c-29.94-21.96-37.92-87.82-37.92-87.82s-4.99,22.95-6.99,38.92c-19.96-31.94-11.98-90.82-11.98-90.82S110.3,293.73,95.33,293.73z
				"/>
			<path class="st3" d="M395.22,143.88c-9.95-22.73-21.63-41.99-34.71-57.23c-16.38-19.09-35.02-31.9-55.41-38.08
				c-13.24-4.02-26.26-6.05-38.72-6.05c-15.44,0-30.36,3.12-44.32,9.26c-12.23,5.38-23.86,13.13-34.56,23.03
				c-22.77,21.08-35.39,45.99-40.89,58.97c-7.77,18.36-15.26,46.55-22.5,73.82c-9.43,35.5-19.18,72.22-29.31,85.72l-0.81,1.08h1.34
				c6.28,0,12.86-2.82,19.03-8.15c2.66-2.3,4.7-4.59,5.97-6.14c-0.53,4.96-1.59,16.95-1.22,31.1c0.46,17.16,3.18,41.1,13.57,57.72
				l1,1.6l0.23-1.88c1.49-11.95,4.71-28,6.19-35.16c0.93,5.98,3.14,18.37,7.22,32.02c3.34,11.2,7.28,21.05,11.68,29.29
				c5.53,10.33,11.84,18.14,18.75,23.21l1.84,1.35l-0.81-2.13c-6.35-16.67-5.03-43.92-4.28-53.82c1.74,6.11,5.79,19.1,12.27,33.14
				c5.24,11.34,11.01,21.15,17.17,29.13c7.72,10.02,16.07,17.2,24.82,21.34l1.76,0.83l-0.87-1.74c-7.21-14.43-7.93-37.64-7.94-45.71
				c1.96,3.96,6.08,11.89,11.52,20.06c10.36,15.54,20.32,24.5,29.6,26.6l1.19,0.27l-0.41-1.15c-3.61-10.11-5.39-20.85-6.09-25.88
				c2.58,3.83,8.18,11.51,16.22,19.11c6.64,6.27,13.62,11.27,20.76,14.86c8.94,4.5,18.15,6.78,27.36,6.78
				c4.97,0,10.39-3.58,16.1-10.63c5.1-6.3,10.59-15.55,16.32-27.49c9.62-20.06,20.08-48.02,31.1-83.11
				c18.75-59.71,32.81-120.2,32.95-120.81l0.03-0.13l-0.02-0.13C418.29,218.41,412.15,182.56,395.22,143.88z M384.11,339.43
				c-24.71,78.69-46.23,120.29-62.23,120.29c-20.39,0-36.9-11.56-47.17-21.25c-11.16-10.54-17.56-21.23-17.62-21.34l-1.55-2.61
				l0.3,3.02c0.01,0.15,1.48,14.36,6.11,27.91c-8.5-2.51-18-11.37-27.57-25.71c-7.62-11.42-12.63-22.39-12.68-22.5l-1.19-2.62
				l-0.09,2.88c-0.01,0.3-0.84,29.35,7.22,47.46c-18.5-9.7-31.71-31.82-39.61-48.94c-8.86-19.18-13.15-36.41-13.19-36.58l-0.91-3.7
				l-0.41,3.79c-0.04,0.36-3.66,34.87,3.27,56.02c-14.26-11.66-23.14-33.65-28.14-50.39c-5.66-18.94-7.7-35.42-7.72-35.59
				l-0.48-3.95l-0.85,3.89c-0.05,0.22-4.63,21.38-6.75,37.07c-9.41-16.28-11.94-38.96-12.38-55.38c-0.49-18.45,1.47-33.2,1.49-33.35
				l0.38-2.8l-1.6,2.33c-0.1,0.15-10.28,14.72-24.05,15.63c9.97-14.44,19.09-48.77,28.73-85.06c7.23-27.22,14.71-55.37,22.44-73.64
				c6.4-15.1,42.17-90.44,118.54-90.44c12.33,0,25.22,2.02,38.33,5.99c45.63,13.84,73.73,59.05,89.26,94.54
				c16.35,37.35,22.6,72.05,23.02,74.46C416.25,222.06,402.42,281.12,384.11,339.43z"/>
		</g>
		<g>
			<path class="st4" d="M252.02,139.04c-33.93,9.31-45.24,71.19-45.24,71.19c11.98,73.85,116.83,208.91,116.83,208.91
				s40.85-39.25,24.88-146.37C332.52,165.65,285.95,129.72,252.02,139.04z"/>
			<path class="st3" d="M334.19,210.75c-5.96-16.52-13.14-30.68-21.36-42.1c-14.71-20.44-32.57-31.7-50.29-31.7
				c-3.63,0-7.23,0.48-10.7,1.44c-7.88,2.16-15.19,7.3-21.73,15.28c-5.2,6.34-9.93,14.48-14.06,24.2
				c-7.02,16.51-9.91,32.09-9.94,32.24l-0.02,0.11l0.02,0.11c2.74,16.91,10.61,38.44,23.37,63.99
				c10.2,20.41,23.53,43.43,39.64,68.42c27.41,42.53,53.7,76.47,53.96,76.81l0.46,0.59l0.54-0.52c0.42-0.41,10.42-10.19,18.6-33.28
				c4.79-13.53,7.93-28.82,9.34-45.46c1.76-20.78,0.8-43.73-2.85-68.22C345.71,249.58,340.68,228.74,334.19,210.75z M341.44,385.79
				c-7.02,19.86-15.6,29.96-17.78,32.32c-3.68-4.78-28.07-36.77-53.42-76.11c-25.22-39.13-56.57-93.74-62.78-131.77
				c0.27-1.43,3.19-16.21,9.83-31.85c6.39-15.04,17.64-33.96,34.91-38.7c3.35-0.92,6.83-1.39,10.35-1.39
				c30.09,0,70.48,35.24,85.29,134.57C356.04,328,348.89,364.7,341.44,385.79z"/>
		</g>
		<g>
			<path class="st5" d="M267.32,316.68c0,0,9.98-5.99,31.94,1.33c-0.67-5.32,1.33-28.61-42.75-43.91
				c16.47-3.99,46.74,5.32,40.09-1.33c-25.28-11.31-30.61-32.6-30.61-32.6s14.64,11.31,26.61,16.63
				c-5.99-41.92-44.58-46.57-44.58-46.57s23.95-2,40.59,2c-13.31-22.62-50.57-17.96-50.57-17.96s5.99-15.97,22.62-27.94
				c-23.95-2.66-45.91,17.96-45.91,17.96s3.99-9.98,6.65-21.29c-16.63,17.3-47.9,77.84-15.3,148.37
				c32.6,70.53,115.77,105.12,115.77,105.12C335.18,325.33,267.32,316.68,267.32,316.68z"/>
			<path class="st6" d="M210.56,187.98c-6.21,11.77-4.47,24.85-4.47,30.14c3.81-11.63,14.39-18.24,22.27-20.62
				c-12.78,10.31-14.36,28.82-16.48,39.39c5.29-1.06,15.6-15.33,21.94-16.39c-9.52,17.98-9.52,39.13-9.52,59.22
				c6.35-7.4,8.46-15.86,14.81-23.27c-6.35,11.63-5.29,25.38-5.29,38.07c9.52-5.29,20.09,0,28.55,4.23
				c-8.46-1.06-20.09,0-23.27,8.46c-6.35,12.69,4.23,23.27,11.63,32.78c0-4.23,0-9.52,0-13.75c12.69,8.46,14.81,22.21,21.15,34.9
				c2.12-9.52,4.23-19.04,3.17-28.55c8.46,10.58,13.75,21.15,20.09,33.84c6.17,11.65,16.79,19.31,28.39,24.4
				c0.19,7.72-0.31,16.23-1.68,25.63c0,0-83.17-34.6-115.77-105.12c-19.12-41.35-16.27-79.27-7.29-107.05
				C202.24,196.66,206.5,191.46,210.56,187.98z"/>
			<path class="st7" d="M281.79,320.35c-5.26-2.27-9.62-3.4-12.12-3.93c1.87-0.63,5.07-1.37,9.66-1.37c5.91,0,12.54,1.21,19.71,3.6
				l1.01,0.34l-0.13-1.06c-0.05-0.39-0.08-0.91-0.13-1.5c-0.26-3.81-0.75-10.91-6.36-18.98c-6.54-9.4-18.11-17.19-34.41-23.17
				c2.3-0.37,4.94-0.55,7.99-0.55c6.12,0,12.76,0.75,18.09,1.36c3.89,0.44,7.24,0.82,9.5,0.82c1.5,0,3.09-0.14,3.51-1.15
				c0.38-0.91-0.41-1.84-1.04-2.47l-0.09-0.09l-0.11-0.05c-12.89-5.77-20.42-14.19-24.46-20.25c-2.78-4.16-4.34-7.8-5.12-9.92
				c4.23,3.13,15.52,11.2,25.05,15.43l1.11,0.49l-0.17-1.2c-1.38-9.67-4.61-18.16-9.61-25.25c-4-5.68-9.13-10.46-15.24-14.23
				c-5.9-3.63-11.51-5.6-15.34-6.62c2.4-0.11,5.51-0.2,9-0.2c7.32,0,17.84,0.43,26.37,2.48l1.54,0.37l-0.8-1.36
				c-9.57-16.26-31.14-18.69-43.15-18.69c-3.16,0-5.6,0.17-6.93,0.28c1.63-3.69,8.07-16.62,21.96-26.62l1.42-1.02l-1.74-0.19
				c-1.44-0.16-2.92-0.24-4.4-0.24c-11.62,0-22.44,5-29.46,9.2c-4.72,2.82-8.42,5.67-10.55,7.43c1.35-3.68,3.88-11,5.74-18.89
				l0.56-2.39l-1.7,1.77c-8.48,8.82-20.46,28.4-26.29,54.54c-3.22,14.42-4.19,29.17-2.9,43.85c1.51,17.17,6.14,34.23,13.76,50.73
				c7.47,16.15,18.22,31.75,31.96,46.36c10.99,11.68,23.9,22.75,38.37,32.92c24.64,17.31,45.58,26.1,45.79,26.18l0.8,0.33l0.12-0.86
				c4.64-31.79,0-57.12-13.78-75.27C300.06,329.85,289.29,323.59,281.79,320.35z M321.33,415.51c-4.05-1.77-22.94-10.39-44.76-25.72
				c-22.61-15.88-53.09-42.44-69.86-78.72c-17.65-38.19-15.6-72.04-10.77-93.72c5.37-24.09,15.99-42.52,24.17-51.96
				c-2.58,10.05-5.96,18.54-5.99,18.63l-1.13,2.82l2.21-2.08c0.19-0.18,19.43-18.02,41.12-18.02c0.84,0,1.67,0.03,2.5,0.08
				c-15.53,11.83-21.37,27.04-21.43,27.19l-0.39,1.04l1.1-0.14c0.03,0,3.19-0.39,7.91-0.39c11.38,0,31.54,2.21,41.15,16.68
				c-8.34-1.77-18.15-2.16-25.1-2.16c-8,0-14.05,0.5-14.11,0.5l-6.54,0.55l6.52,0.79c0.1,0.01,9.66,1.23,19.82,7.5
				c9.16,5.66,20.67,16.69,23.99,37.28c-11.55-5.41-25.21-15.93-25.35-16.04l-1.53-1.18l0.47,1.88c0.06,0.22,1.41,5.51,5.91,12.27
				c4.13,6.2,11.82,14.82,24.95,20.73c0.55,0.56,0.64,0.84,0.65,0.92c-0.09,0.07-0.52,0.32-2.26,0.32c-2.18,0-5.5-0.38-9.34-0.81
				c-5.37-0.61-12.05-1.37-18.24-1.37c-4.25,0-7.74,0.34-10.66,1.05l-2.22,0.54l2.16,0.75c40.26,13.98,41.65,34.18,42.17,41.78
				c0.01,0.19,0.03,0.37,0.04,0.54c-6.94-2.23-13.38-3.35-19.16-3.35c-8.26,0-12.19,2.3-12.36,2.4l-1.66,1l1.92,0.25
				c0.06,0.01,6.1,0.81,14.07,4.26c7.35,3.18,17.89,9.32,26.4,20.53C321.13,359.83,325.71,384.51,321.33,415.51z"/>
		</g>
	</g>
	<g>
		<g>
			<path class="st0" d="M828.95,51.56c88.82-26.95,139.89,42.83,157.68,84.83c17.96,42.41,33.93,135.73,51.9,159.68
				c-14.97,0-25.95-15.97-25.95-15.97s7.98,58.88-11.98,90.82c-2-15.97-6.99-38.92-6.99-38.92s-7.98,65.87-37.92,87.82
				c7.98-20.96,3.99-57.88,3.99-57.88s-16.97,68.86-54.89,86.83c8.98-17.96,7.98-48.9,7.98-48.9s-19.96,43.91-41.92,48.9
				c4.99-13.97,6.49-28.94,6.49-28.94s-25.45,42.91-65.37,42.91c-39.92,0-95.81-241.52-95.81-241.52S740.13,78.51,828.95,51.56z"/>
			<path class="st1" d="M834.83,59.99c19.04-6.35,62.03-17.98,105.46,12.75c-26.63-22.14-63.51-35.68-111.34-21.17
				c-88.82,26.95-112.77,169.66-112.77,169.66s2.22,9.57,6.08,24.9C755.14,106.17,806.28,69.51,834.83,59.99z"/>
			<path class="st2" d="M1038.53,296.08c-17.96-23.95-33.93-117.27-51.9-159.68c-9.17-21.66-27.2-50.7-54.69-70.06
				c63.27,54.47,53.56,124.49,64.32,164.98c-10.58-7.4-16.92-20.09-25.38-30.67c2.12,31.73,28.55,80.25-6.87,118.45
				c-4.23-12.69,3.44-41.77-5.29-60.28c-1.06,39.66-29.35,70.33-30.96,103.91c-6.35-9.52-5.26-25.38-9.49-35.96
				c-1.06,25.38-16.13,51.56-36.22,69.54c-5.29-10.58-4.23-23.27-9.52-33.84c-14.25,39.76-58.3,46.52-100.07,45.21
				c13.28,31.94,27.16,55.07,39.52,55.07c39.92,0,65.37-42.91,65.37-42.91s-1.5,14.97-6.49,28.94c21.96-4.99,41.92-48.9,41.92-48.9
				s1,30.94-7.98,48.9c37.92-17.96,54.89-86.83,54.89-86.83s3.99,36.93-3.99,57.88c29.94-21.96,37.92-87.82,37.92-87.82
				s4.99,22.95,6.99,38.92c19.96-31.94,11.98-90.82,11.98-90.82S1023.56,296.08,1038.53,296.08z"/>
			<path class="st3" d="M715.51,221.11l-0.02,0.13l0.03,0.13c0.14,0.6,14.19,61.09,32.95,120.81c11.02,35.09,21.48,63.05,31.1,83.11
				c5.72,11.94,11.21,21.19,16.32,27.49c5.71,7.05,11.13,10.63,16.1,10.63c9.21,0,18.42-2.28,27.36-6.78
				c7.14-3.59,14.12-8.59,20.76-14.86c8.04-7.6,13.64-15.28,16.22-19.11c-0.7,5.02-2.48,15.77-6.09,25.88l-0.41,1.15l1.19-0.27
				c9.28-2.11,19.24-11.06,29.6-26.6c5.44-8.16,9.57-16.09,11.52-20.06c-0.02,8.07-0.73,31.28-7.94,45.71l-0.87,1.74l1.76-0.83
				c8.75-4.14,17.1-11.32,24.82-21.34c6.16-7.99,11.93-17.79,17.17-29.13c6.48-14.03,10.53-27.03,12.27-33.14
				c0.75,9.91,2.07,37.15-4.28,53.82l-0.81,2.13l1.84-1.35c6.91-5.07,13.22-12.88,18.75-23.21c4.41-8.23,8.34-18.09,11.68-29.29
				c4.08-13.66,6.29-26.04,7.22-32.02c1.49,7.15,4.7,23.2,6.19,35.16l0.23,1.88l1-1.6c10.39-16.63,13.12-40.57,13.57-57.72
				c0.38-14.15-0.68-26.14-1.22-31.1c1.27,1.56,3.31,3.84,5.97,6.14c6.16,5.33,12.74,8.15,19.03,8.15h1.34l-0.81-1.08
				c-10.13-13.51-19.88-50.22-29.31-85.72c-7.24-27.26-14.73-55.46-22.5-73.82c-5.5-12.98-18.12-37.9-40.89-58.97
				c-10.7-9.9-22.32-17.65-34.56-23.03c-13.97-6.14-28.88-9.26-44.32-9.26c-12.46,0-25.49,2.04-38.72,6.05
				c-20.38,6.18-39.03,19-55.41,38.08c-13.08,15.24-24.76,34.49-34.71,57.23C721.71,184.91,715.57,220.76,715.51,221.11z
				 M716.86,221.21c0.42-2.41,6.67-37.11,23.02-74.46c15.54-35.49,43.63-80.69,89.26-94.54c13.11-3.98,26.01-5.99,38.33-5.99
				c76.36,0,112.14,75.34,118.54,90.44c7.74,18.27,15.21,46.42,22.44,73.64c9.64,36.29,18.76,70.63,28.73,85.06
				c-13.77-0.91-23.95-15.48-24.05-15.63l-1.6-2.33l0.38,2.8c0.02,0.15,1.98,14.9,1.49,33.35c-0.44,16.42-2.97,39.11-12.38,55.38
				c-2.12-15.68-6.7-36.85-6.75-37.07l-0.85-3.89l-0.48,3.95c-0.02,0.16-2.06,16.65-7.72,35.59c-5,16.73-13.89,38.72-28.14,50.39
				c6.93-21.16,3.3-55.67,3.27-56.02l-0.41-3.79l-0.91,3.7c-0.04,0.17-4.33,17.39-13.19,36.58c-7.9,17.12-21.11,39.25-39.61,48.94
				c8.06-18.1,7.23-47.16,7.22-47.46l-0.09-2.88l-1.19,2.62c-0.05,0.11-5.06,11.08-12.68,22.5c-9.57,14.35-19.07,23.2-27.57,25.71
				c4.63-13.54,6.09-27.76,6.11-27.91l0.3-3.02l-1.55,2.61c-0.06,0.11-6.46,10.79-17.62,21.34c-10.26,9.69-26.78,21.25-47.17,21.25
				c-16,0-37.52-41.59-62.23-120.29C731.44,283.46,717.61,224.41,716.86,221.21z"/>
		</g>
		<g>
			<path class="st4" d="M881.84,141.38c33.93,9.31,45.24,71.19,45.24,71.19c-11.98,73.85-116.83,208.91-116.83,208.91
				s-40.85-39.25-24.88-146.37C801.34,168,847.91,132.07,881.84,141.38z"/>
			<path class="st3" d="M784.71,275.02c-3.65,24.49-4.61,47.44-2.85,68.22c1.41,16.64,4.55,31.94,9.34,45.46
				c8.18,23.09,18.18,32.87,18.6,33.28l0.54,0.52l0.46-0.59c0.26-0.34,26.55-34.28,53.96-76.81c16.1-24.98,29.44-48,39.64-68.42
				c12.76-25.55,20.63-47.08,23.37-63.99l0.02-0.11l-0.02-0.11c-0.03-0.16-2.92-15.73-9.94-32.24c-4.13-9.72-8.86-17.86-14.06-24.2
				c-6.54-7.97-13.85-13.11-21.73-15.28c-3.47-0.95-7.07-1.44-10.7-1.44c-17.72,0-35.58,11.26-50.29,31.7
				c-8.22,11.42-15.4,25.59-21.36,42.1C793.18,231.09,788.15,251.93,784.71,275.02z M786.04,275.22
				c14.81-99.33,55.2-134.57,85.29-134.57c3.51,0,6.99,0.47,10.35,1.39c17.27,4.74,28.51,23.66,34.91,38.7
				c6.65,15.64,9.56,30.42,9.83,31.85c-6.21,38.03-37.56,92.64-62.78,131.77c-25.35,39.34-49.74,71.32-53.42,76.11
				c-2.18-2.36-10.76-12.46-17.78-32.32C784.97,367.05,777.82,330.34,786.04,275.22z"/>
		</g>
		<g>
			<path class="st5" d="M866.54,319.03c0,0-9.98-5.99-31.94,1.33c0.67-5.32-1.33-28.61,42.75-43.91
				c-16.47-3.99-46.74,5.32-40.09-1.33c25.28-11.31,30.61-32.6,30.61-32.6s-14.64,11.31-26.61,16.63
				c5.99-41.92,44.58-46.57,44.58-46.57s-23.95-2-40.59,2c13.31-22.62,50.57-17.96,50.57-17.96s-5.99-15.97-22.62-27.94
				c23.95-2.66,45.91,17.96,45.91,17.96s-3.99-9.98-6.65-21.29c16.63,17.3,47.9,77.84,15.3,148.37
				c-32.6,70.53-115.77,105.12-115.77,105.12C798.68,327.68,866.54,319.03,866.54,319.03z"/>
			<path class="st6" d="M923.3,190.33c6.21,11.77,4.47,24.85,4.47,30.14c-3.81-11.63-14.39-18.24-22.27-20.62
				c12.78,10.31,14.36,28.82,16.48,39.39c-5.29-1.06-15.6-15.33-21.94-16.39c9.52,17.98,9.52,39.13,9.52,59.22
				c-6.35-7.4-8.46-15.86-14.81-23.27c6.35,11.63,5.29,25.38,5.29,38.07c-9.52-5.29-20.09,0-28.55,4.23
				c8.46-1.06,20.09,0,23.27,8.46c6.35,12.69-4.23,23.27-11.63,32.78c0-4.23,0-9.52,0-13.75c-12.69,8.46-14.81,22.21-21.15,34.9
				c-2.12-9.52-4.23-19.04-3.17-28.55c-8.46,10.58-13.75,21.15-20.09,33.84c-6.17,11.65-16.79,19.31-28.39,24.4
				c-0.19,7.72,0.31,16.23,1.68,25.63c0,0,83.17-34.6,115.77-105.12c19.12-41.35,16.27-79.27,7.29-107.05
				C931.62,199.01,927.36,193.81,923.3,190.33z"/>
			<path class="st7" d="M825.1,343.66c-13.79,18.15-18.42,43.48-13.78,75.27l0.12,0.86l0.8-0.33c0.21-0.09,21.14-8.88,45.79-26.18
				c14.48-10.17,27.38-21.24,38.37-32.92c13.74-14.61,24.5-30.2,31.96-46.36c7.62-16.49,12.25-33.56,13.76-50.73
				c1.29-14.67,0.31-29.42-2.9-43.85c-5.83-26.14-17.8-45.72-26.29-54.54l-1.7-1.77l0.56,2.39c1.86,7.89,4.39,15.21,5.74,18.89
				c-2.13-1.76-5.83-4.61-10.55-7.43c-7.02-4.2-17.84-9.2-29.46-9.2c-1.48,0-2.96,0.08-4.4,0.24l-1.74,0.19l1.42,1.02
				c13.89,10,20.33,22.93,21.96,26.62c-1.34-0.12-3.77-0.28-6.93-0.28c-12.01,0-33.59,2.43-43.15,18.69l-0.8,1.36l1.54-0.37
				c8.53-2.05,19.05-2.48,26.37-2.48c3.49,0,6.6,0.09,9,0.2c-3.83,1.03-9.44,2.99-15.34,6.62c-6.11,3.77-11.24,8.55-15.24,14.23
				c-4.99,7.09-8.23,15.59-9.61,25.25l-0.17,1.2l1.11-0.49c9.52-4.23,20.82-12.31,25.05-15.43c-0.78,2.13-2.34,5.77-5.12,9.92
				c-4.05,6.06-11.58,14.49-24.46,20.25l-0.11,0.05l-0.09,0.09c-0.63,0.63-1.42,1.56-1.04,2.47c0.42,1.02,2.01,1.15,3.51,1.15
				c2.26,0,5.61-0.38,9.5-0.82c5.33-0.61,11.97-1.36,18.09-1.36c3.05,0,5.68,0.18,7.99,0.55c-16.3,5.98-27.87,13.77-34.41,23.17
				c-5.61,8.06-6.1,15.16-6.36,18.98c-0.04,0.6-0.08,1.11-0.13,1.5l-0.13,1.06l1.01-0.34c7.17-2.39,13.8-3.6,19.71-3.6
				c4.59,0,7.79,0.75,9.66,1.37c-2.5,0.53-6.86,1.66-12.12,3.93C844.57,325.94,833.8,332.2,825.1,343.66z M826.16,344.49
				c8.51-11.21,19.05-17.35,26.4-20.53c7.97-3.45,14.01-4.25,14.07-4.26l1.92-0.25l-1.66-1c-0.16-0.1-4.1-2.4-12.36-2.4
				c-5.78,0-12.22,1.13-19.16,3.35c0.01-0.17,0.02-0.35,0.04-0.54c0.52-7.61,1.91-27.81,42.17-41.78l2.16-0.75l-2.22-0.54
				c-2.93-0.71-6.41-1.05-10.66-1.05c-6.19,0-12.87,0.76-18.24,1.37c-3.84,0.44-7.16,0.81-9.34,0.81c-1.74,0-2.17-0.25-2.26-0.32
				c0.02-0.08,0.11-0.36,0.65-0.92c13.14-5.91,20.82-14.53,24.95-20.73c4.5-6.76,5.86-12.05,5.91-12.27l0.47-1.88l-1.53,1.18
				c-0.14,0.11-13.8,10.62-25.35,16.04c3.32-20.58,14.82-31.62,23.99-37.28c10.16-6.27,19.72-7.49,19.82-7.5l6.52-0.79l-6.54-0.55
				c-0.06-0.01-6.11-0.5-14.11-0.5c-6.95,0-16.76,0.39-25.1,2.16c9.61-14.47,29.77-16.68,41.15-16.68c4.72,0,7.88,0.39,7.91,0.39
				l1.1,0.14l-0.39-1.04c-0.06-0.16-5.9-15.37-21.43-27.19c0.83-0.05,1.67-0.08,2.5-0.08c21.69,0,40.93,17.84,41.12,18.02l2.21,2.08
				l-1.13-2.82c-0.04-0.09-3.41-8.58-5.99-18.63c8.19,9.44,18.8,27.87,24.17,51.96c4.83,21.68,6.89,55.53-10.77,93.72
				c-16.77,36.28-47.25,62.84-69.86,78.72c-21.82,15.33-40.71,23.94-44.76,25.72C808.15,386.86,812.73,362.18,826.16,344.49z"/>
		</g>
	</g>
	<g>
		<path class="st8" d="M323.54,975.68c-28.94,11.48-46.91,31.44-33.93,38.92c-26.45,15.97-30.73,46.41,14.82,32.44
			c-11.83,21.46,14.12,26.45,32.58,10.48c18.46-15.97,73.85-37.92,102.3-48.4C429.33,984.16,323.54,975.68,323.54,975.68z"/>
		<path class="st9" d="M416.6,993.21c-32.57,15.84-65.24,56.67-90.9,47.33c-4.7-1.69-4.77-9.54,8.26-17.93
			c-11.28,6.45-29.68,12.76-37.74,6.31c-8.06-8.06,9.67-17.73,19.34-24.18c-23.24,7.09-21.89-9-14.39-17.12
			c-14.5,10.31-20.67,21.72-11.55,26.98c-26.45,15.97-30.73,46.41,14.82,32.44c-11.83,21.46,14.12,26.45,32.58,10.48
			c18.46-15.97,73.85-37.92,102.3-48.4C436.79,1002.8,428.12,997.55,416.6,993.21z"/>
		<path class="st10" d="M377.81,982.38c-27.41-5.19-53.95-7.35-54.21-7.37l-0.16-0.01l-0.15,0.06
			c-10.49,4.16-20.16,9.72-27.24,15.64c-6.99,5.86-11.03,11.71-11.38,16.48c-0.22,3.02,1.04,5.57,3.67,7.42
			c-13.03,8.19-21.05,20.37-18.75,28.63c1.45,5.2,6.8,8.06,15.06,8.06c5.1,0,11.3-1.06,18.45-3.14c-3.42,6.96-2.45,11.38-0.96,13.9
			c2.08,3.52,6.5,5.54,12.13,5.54c0,0,0,0,0,0c7.6,0,16.27-3.57,23.18-9.55c19.94-17.25,83.18-41.31,102.09-48.28l0.65-0.24
			l-0.26-0.64C435.7,998.29,414.8,989.38,377.81,982.38z M336.58,1057.01c-6.68,5.78-15.02,9.23-22.3,9.23c0,0,0,0,0,0
			c-5.15,0-9.15-1.78-10.98-4.87c-2.03-3.43-1.43-8.27,1.73-14l0.8-1.45l-1.59,0.49c-7.66,2.35-14.25,3.54-19.58,3.54
			c-7.72,0-12.48-2.45-13.77-7.08c-1.02-3.67,0.26-8.46,3.61-13.48c3.5-5.24,8.99-10.28,15.46-14.19l0.97-0.59l-0.99-0.57
			c-2.81-1.62-4.14-3.89-3.93-6.75c0.32-4.4,4.19-9.92,10.9-15.54c6.94-5.81,16.42-11.27,26.73-15.37
			c2.22,0.19,27.67,2.37,53.92,7.34c35.23,6.67,56.22,15.31,60.84,25.03C418.67,1016.02,356.46,1039.81,336.58,1057.01z"/>
	</g>
	<g>
		<path class="st10" d="M289.31,1014l0.6,1.2c23.59-11.79,44.3-15.86,44.51-15.9l-0.25-1.32
			C333.95,998.02,313.07,1002.12,289.31,1014z"/>
	</g>
	<g>
		<path class="st10" d="M303.89,1046.65l1.09,0.78c14.31-20.03,38.66-28.11,38.91-28.19c-0.06,0.02-6.73,0.79-14.68,5.33
			C321.86,1028.75,311.51,1035.98,303.89,1046.65z"/>
	</g>
	<g>
		<g>
			<path class="st8" d="M765.16,981.17c-39.92-17.47-164.67,6.99-112.28,20.96c52.39,13.97,74.35,33.93,94.81,56.23
				c20.46,22.3,41.92,18.62,36.93-3.84c21.46,10.48,33.93-2,22.95-19.46C827.53,1011.11,765.16,981.17,765.16,981.17z"/>
			<path class="st9" d="M801.56,1006.05c1.01,2.06,2.78,5.25,1.46,7.88c-3.22,4.84-15.21,0.49-20.05-2.73
				c6.45,6.45,14.51,17.73,9.67,22.56c-6.45,8.06-19.85-0.71-29.01-6.45c8.39,7.03,14.51,17.73,3.22,22.56
				c-11.28,3.22-19.24-2.42-29.92-13.1c-25.49-25.49-60.62-39.73-95.61-44.94c-2.96,3.56-0.07,7.18,11.56,10.28
				c52.39,13.97,74.35,33.93,94.81,56.23c20.46,22.3,41.92,18.62,36.93-3.84c21.46,10.48,33.93-2,22.95-19.46
				C815.47,1025.59,810.47,1015.17,801.56,1006.05z"/>
			<path class="st10" d="M811.79,1021.32c-1.87-8.61-10.26-18.1-24.92-28.19c-10.86-7.47-21.31-12.52-21.44-12.58
				c-9.15-4-23.42-6.12-41.28-6.12c-36.15,0-83.21,9.18-84.56,19.49c-0.46,3.48,3.84,6.37,13.12,8.85
				c52.67,14.04,74.75,34.52,94.49,56.04c8.86,9.66,18.56,15.2,26.61,15.2c4,0,7.26-1.42,9.41-4.1c2.63-3.28,3.43-8.18,2.33-14.21
				c4.8,2.18,9.41,3.33,13.42,3.33c5.55,0,9.77-2.13,11.91-5.98c2.57-4.64,1.66-11.16-2.47-17.93
				C811.73,1030.93,812.87,1026.29,811.79,1021.32z M809.69,1052.4c-1.88,3.41-5.69,5.29-10.73,5.29c-4.14,0-9-1.3-14.05-3.77
				l-1.25-0.61l0.3,1.36c1.38,6.23,0.76,11.21-1.79,14.4c-1.89,2.36-4.78,3.6-8.36,3.6c-7.56,0-17.14-5.52-25.62-14.76
				c-11.18-12.18-21.5-22.18-35.56-31.35c-16.03-10.46-35.52-18.66-59.57-25.08c-8.16-2.18-12.47-4.8-12.13-7.38
				c0.52-3.95,11.11-8.68,27.65-12.35c16.83-3.74,37.61-5.97,55.58-5.97c17.67,0,31.76,2.08,40.72,5.99
				c0.41,0.2,41.3,20.03,45.61,39.83c1.02,4.69-0.13,9.08-3.42,13.02l-0.31,0.38l0.26,0.41
				C811.09,1041.91,812.07,1048.1,809.69,1052.4z"/>
		</g>
		<g>
			<path class="st10" d="M778.3,1009.7c0.2,0.11,19.92,11.56,28.71,25.72l1.14-0.71C799.18,1020.26,781.66,1010.49,778.3,1009.7z"/>
		</g>
		<g>
			<path class="st10" d="M757.27,1022.63c0.19,0.14,18.91,14.08,26.73,32.16l1.23-0.53
				C774.91,1031.34,757.46,1022.77,757.27,1022.63z"/>
		</g>
	</g>
	<g>
		<path class="st0" d="M249.02,848.77c-23.29,55.22,2.66,191.29,209.58,157.85c11.31-87.33-104.01-229.05-104.01-229.05
			S272.31,793.55,249.02,848.77z"/>
		<g>
			<path class="st2" d="M447.82,971.83c-122.39,19.78-181.46-19.75-204.48-66.77c8.87,59.16,63.19,126.14,215.27,101.57
				c3.06-23.6-3.15-51.18-13.81-78.86C448.27,943.28,449.58,958.22,447.82,971.83z"/>
			<g>
				<path class="st1" d="M354.59,777.58c0,0-82.28,15.97-105.57,71.19c-6.17,14.64-8.88,34.95-5.68,56.29
					c0.2,0.41,0.41,0.82,0.62,1.23c-1.9-19.1,0.83-37.01,6.42-50.26c23.29-55.22,105.57-71.19,105.57-71.19s61.4,75.46,90.2,150.19
					c0.22,0.96,0.4,1.92,0.6,2.88c-0.55-3.35-1.18-6.72-1.95-10.13C415.99,853.04,354.59,777.58,354.59,777.58z"/>
			</g>
		</g>
		<path class="st3" d="M411.42,859.01c-27.13-45.86-56.02-81.5-56.3-81.86l-0.25-0.31l-0.4,0.08c-0.21,0.04-20.92,4.13-44.21,14.94
			c-13.69,6.35-25.58,13.75-35.35,21.98c-12.23,10.31-21.15,21.98-26.51,34.67c-5.77,13.69-8.14,30.96-6.67,48.63
			c1.69,20.23,8.33,39.59,19.21,55.99c17.98,27.09,56.38,59.39,137.23,59.39c0,0,0,0,0.01,0c18.69,0,39.06-1.76,60.52-5.23l0.5-0.08
			l0.06-0.5c2.59-20.03-1.28-44.57-11.51-72.94C439.58,911.11,427.36,885.95,411.42,859.01z M458,1006.04
			c-21.21,3.4-41.33,5.13-59.81,5.13c0,0-0.01,0-0.01,0c-80.26,0-118.32-31.97-136.11-58.79c-23.53-35.46-22.94-78.43-12.43-103.35
			c11.94-28.32,39.85-46.05,61.15-55.94c21.38-9.92,40.57-14.15,43.53-14.77c2.92,3.63,30.23,37.91,55.94,81.39
			C435.14,901.74,463.55,961.18,458,1006.04z"/>
	</g>
	<g>
		<path class="st0" d="M716.09,777.58c0,0-77.84,108.45-93.15,198.1c109.78,80.34,279.44-5.16,262.81-107.62
			C869.12,765.6,716.09,777.58,716.09,777.58z"/>
		<g>
			<path class="st2" d="M885.75,868.06c-3.17-19.52-11.3-34.88-22.37-46.97c1.16,3.86,2.12,7.89,2.81,12.12
				c15.58,95.96-127.77,169.72-236.21,112.69c-2.97,10.04-5.37,20.02-7.04,29.78C732.72,1056.02,902.38,970.52,885.75,868.06z"/>
		</g>
		<path class="st3" d="M861.72,818.35c-11.15-11.38-25.92-20.64-43.9-27.52c-32.66-12.49-68.67-14.36-87.22-14.36
			c-8.94,0-14.51,0.43-14.56,0.43l-0.31,0.02l-0.18,0.25c-0.19,0.27-19.73,27.58-40.88,65.5c-12.42,22.27-22.97,43.79-31.34,63.97
			c-10.47,25.23-17.55,48.42-21.05,68.92l-0.07,0.41l0.34,0.25c28.5,20.86,63.08,31.88,100.01,31.88c26.62,0,53.78-5.76,78.53-16.66
			c24.24-10.67,45.08-25.75,60.26-43.59c10.04-11.8,17.32-24.46,21.64-37.64c4.56-13.92,5.72-28.14,3.42-42.27
			C883.26,848.55,874.96,831.86,861.72,818.35z M860.32,946.99c-30.89,36.31-84.97,59.77-137.77,59.77
			c-36.49,0-70.68-10.85-98.88-31.38c7.96-46.11,32.74-97.22,52.16-132.03c20.02-35.89,38.59-62.26,40.62-65.13
			c1.28-0.09,6.46-0.41,14.15-0.41c18.46,0,54.29,1.85,86.74,14.27c39.19,14.99,61.98,40.59,67.74,76.08
			C889.52,895.48,880.96,922.74,860.32,946.99z"/>
	</g>
	<g>
		<path class="st5" d="M399.39,706.72c-24.95,32.93,28.94,250.5,81.84,291.92c52.89,41.43,95.81,34.42,134.73-12.48
			c38.92-46.91,57.88-271.46,57.88-271.46S424.34,673.79,399.39,706.72z"/>
		<path class="st6" d="M608.9,946.73c-36.01,48.35-92.42,46.03-108.72,14.01c-8.58-16.85-36.13,0.33-51.58-8
			c10.43,20.81,21.55,37.23,32.63,45.9c52.89,41.43,95.81,34.42,134.73-12.48c10.95-13.2,20.32-40.45,28.13-72.81
			C633.54,925.54,618.51,933.83,608.9,946.73z"/>
		<path class="st7" d="M465.14,693.23c-17.53,0-31.88,0.97-42.66,2.88c-12.18,2.16-20.13,5.59-23.63,10.21
			c-7.6,10.03-7.08,34.98-5.31,54.15c2.34,25.34,8.35,57.02,16.92,89.21c8.94,33.57,19.85,64.97,31.54,90.79
			c12.99,28.7,26.41,49,38.81,58.71c11.71,9.17,23.17,16.12,34.06,20.65c10.81,4.5,21.43,6.78,31.59,6.78
			c12.45,0,24.7-3.44,36.39-10.22c11.38-6.59,22.69-16.62,33.62-29.8c8.94-10.78,17.55-31.79,25.6-62.46
			c6.42-24.48,12.51-55.16,18.09-91.18c9.5-61.31,14.3-117.62,14.35-118.18l0.05-0.62l-0.61-0.1
			C672.68,713.83,546.1,693.23,465.14,693.23z M658.83,832.74c-5.57,35.98-11.65,66.61-18.06,91.05
			c-7.99,30.48-16.52,51.32-25.33,61.94c-22.07,26.6-44.63,39.52-68.98,39.52c-20.3,0-41.5-8.88-64.82-27.14
			c-12.23-9.58-25.51-29.71-38.41-58.21c-11.66-25.76-22.54-57.08-31.46-90.58c-8.55-32.11-14.55-63.71-16.88-88.98
			c-2.51-27.15-0.76-45.55,5.04-53.21c6.31-8.33,28.25-12.55,65.21-12.55c77.95,0,198.29,19.13,207.98,20.7
			C672.57,721.58,667.79,774.93,658.83,832.74z"/>
	</g>
	<g>
		<path class="st8" d="M518.65,1003.25c-18.96-17.09-68.86,0.37-68.86,0.37s-40.42-3.03-65.87,8.22
			c-25.45,11.24-19.05,35.7,9.19,26.46c-22.41,22.7-6.69,40.67,56.68,13.22c-13.47,23.45-4.49,63.87,37.43,8.48
			c-2,37.42,32.44,33.93,35.43-5.49C523.64,1043.55,537.61,1020.35,518.65,1003.25z"/>
		<path class="st9" d="M518.65,1003.25c-5.49-4.95-13.58-6.99-22.3-7.41c7.96,12.38,17.76,23.83,19.07,39.53
			c1.61,9.67-5.24,28-14.51,24.18c-9.67-4.84-8.06-19.34-8.06-30.62c0,12.89-9.87,28-19.34,30.62c-4.84,1.61-11.28,0-14.51-4.84
			c-4.84-8.06,1.61-17.73,4.84-25.79c-16.12,9.67-47.14,25.39-60.24,16.92c-8.67-5.6,8.66-16.92,16.72-21.76
			c-8.06,2.04-29.21,10.28-40.5,3.83c-5.35-2.68-5.98-8.69-0.88-13.46c-19.42,11.97-12.05,32.42,14.16,23.85
			c-22.41,22.7-6.69,40.67,56.68,13.22c-13.47,23.45-4.49,63.87,37.43,8.48c-2,37.42,32.44,33.93,35.43-5.49
			C523.64,1043.55,537.61,1020.35,518.65,1003.25z"/>
		<path class="st10" d="M519.1,1002.76c-5.65-5.09-14.5-7.68-26.29-7.68c-19.59,0-41.21,7.22-43.11,7.87
			c-0.86-0.06-5.62-0.36-12.39-0.36c-15.55,0-37.49,1.5-53.66,8.64c-12.98,5.73-17.45,14.61-16.13,20.86
			c1.16,5.51,6.59,8.93,14.17,8.93c2.82,0,5.91-0.45,9.2-1.35c-6.8,7.49-9.49,14.52-7.41,19.5c1.32,3.16,5.15,6.92,15.92,6.92
			c11.74,0,28.61-4.55,48.87-13.17c-5.45,10.6-6.61,23.81-2.56,30.82c1.82,3.14,4.59,4.8,8.01,4.8c8.09,0,19.39-9.13,32.75-26.44
			c-0.15,9.12,1.97,16.42,6.04,20.72c2.51,2.64,5.63,4.04,9.03,4.04c0,0,0,0,0,0c9.6,0,20.17-11.09,21.77-32.27
			c0.23-2.49,1.14-5.63,2.2-9.27c1.72-5.93,3.86-13.3,3.69-20.73C528.99,1015.84,525.69,1008.7,519.1,1002.76z M524.22,1044.94
			c-1.08,3.71-2.01,6.91-2.24,9.53c-0.91,12.03-4.63,19.31-7.59,23.3c-3.65,4.92-8.33,7.74-12.84,7.74c-3.02,0-5.81-1.25-8.05-3.62
			c-4.13-4.36-6.12-12.11-5.6-21.84l0.12-2.19l-1.32,1.75c-17.25,22.79-27.44,27.58-32.96,27.58c-2.95,0-5.26-1.39-6.84-4.13
			c-3.99-6.9-2.42-20.89,3.5-31.19l1.01-1.76l-1.86,0.81c-20.89,9.05-38.22,13.83-50.12,13.83c-7.94,0-13.02-2.11-14.68-6.09
			c-2.03-4.86,1.2-12.1,8.87-19.87l1.95-1.97l-2.63,0.86c-4.07,1.33-7.84,2.01-11.21,2.01c-7.01,0-11.82-2.94-12.86-7.87
			c-1.21-5.72,3.07-13.92,15.36-19.35c16.8-7.42,40.49-8.53,53.11-8.53c7.41,0,12.38,0.37,12.43,0.37l0.14,0.01l0.13-0.05
			c0.22-0.08,22.63-7.84,42.8-7.84c11.46,0,20,2.47,25.39,7.33C532.45,1016.6,527.69,1032.98,524.22,1044.94z"/>
	</g>
	<g>
		<path class="st10" d="M393.49,1038.86c17.3-12.16,34.83-16.87,35.01-16.91c-0.18,0.05-18.27,3.51-35.78,15.81L393.49,1038.86z"/>
	</g>
	<g>
		<path class="st0" d="M350.69,639.19c0.8,47.24-19.83,90.96-23.15,137.96c-3.33,47,34.6,114.2,59.21,152.79
			c24.62,38.59,60.5,65.69,48.23,73.33c15.64,23.14,63.46,37.12,88.79,5.85c-7.28-27.28-3.29-86.49-22.58-149.2
			C481.35,795.44,420.41,662.48,350.69,639.19z"/>
		<path class="st2" d="M428.75,709.35c53.54,80.36,59.18,139.71,30.31,109.4c61.3,86.31,25.88,149.43,54.58,199.81
			c1.7-1.11,3.99-2.96,10.13-9.45c-7.28-27.28-3.29-86.49-22.58-149.2C489.36,821.48,462.93,758.72,428.75,709.35z"/>
		<g>
			<path class="st1" d="M335.02,774.38c3.22-45.5,16.15-85.35,16.66-130.88c-3.64-1.82,2.7-3.08-0.99-4.32
				c0.8,47.24-19.83,90.96-23.15,137.96c-3.33,47,34.6,114.2,59.21,152.79c24.62,38.59,60.5,65.69,48.23,73.33
				c1.25,1.85,2.74,3.64,4.37,5.36c23.21-16.86-18.51-42.38-41.61-78.59C373.13,891.45,331.69,821.39,335.02,774.38z"/>
			<path class="st1" d="M479.92,1027.05c0.32-0.21,0.6-0.45,0.91-0.67c-3.82-0.31-7.83-0.67-11.83-1.15
				C472.56,1026.13,476.22,1026.76,479.92,1027.05z"/>
		</g>
		<path class="st3" d="M519.19,966.51c-2.35-30.07-5.27-67.48-17.36-106.8c-9.58-31.14-29.49-80.59-56.61-125.96
			c-14.39-24.08-29.16-44.19-43.9-59.79c-17.03-18.02-33.99-29.94-50.42-35.42l-0.9-0.3l0.02,0.95
			c0.44,25.98-5.74,51.39-11.72,75.96c-4.88,20.07-9.93,40.82-11.43,61.94c-1.47,20.83,4.98,47.7,19.18,79.87
			c9.92,22.45,23.42,47.13,40.13,73.33c9.91,15.54,21.79,29.38,31.32,40.5c11.22,13.08,20.08,23.41,19.23,28.91
			c-0.19,1.24-0.88,2.22-2.11,2.98l-0.59,0.37l0.39,0.58c4.57,6.77,12.01,12.91,20.93,17.3c9.27,4.56,19.4,6.97,29.29,6.97
			c0,0,0,0,0,0c11.3,0,27.34-3.19,39.65-18.38l0.22-0.27l-0.09-0.33C521.71,998.79,520.54,983.83,519.19,966.51z M484.64,1026.58
			c-19.23,0-39.15-9.49-48.73-23.14c1.21-0.92,1.93-2.1,2.15-3.52c0.94-6.12-7.65-16.13-19.54-29.99
			c-9.51-11.09-21.35-24.89-31.21-40.35c-16.68-26.15-30.15-50.76-40.04-73.15c-14.11-31.96-20.53-58.62-19.07-79.23
			c1.49-21.01,6.52-41.71,11.39-61.72c5.93-24.35,12.05-49.52,11.77-75.34c37.87,13.18,71.27,58.48,92.7,94.32
			c27.06,45.27,46.92,94.59,56.48,125.66c12.05,39.17,14.97,76.51,17.31,106.51c1.34,17.2,2.5,32.08,5.18,42.34
			C511.09,1023.51,495.58,1026.58,484.64,1026.58z"/>
	</g>
	<g>
		<path class="st3" d="M459.06,818.75c0.08,0.04,7.72,4.37,17.63,15.57c9.17,10.37,22.17,28.88,32.02,58.19l1.27-0.43
			c-9.91-29.52-23.03-48.19-32.28-58.65C467.64,822.06,459.38,818.93,459.06,818.75z"/>
	</g>
	<g>
		<path class="st8" d="M705.44,995.75c-18.96-8.59-59.24-10.94-78.84-5.27c-19.6,5.67-50.57,5.27-50.57,5.27
			c-11.98,12.7-15.3,32.99-7.98,44.3c6.08,9.4,21.61,26.8,26.28,38.59c6.32,15.97,31.27,18.3,28.61-6.99
			c13.64,20.63,41.58,9.31,32.6-8.65c-8.98-17.96-24.28-27.94-24.28-27.94s45.58,5.66,65.54,19.46
			c19.96,13.81,35.33-14.14,7.19-32.43C727.07,1023.75,724.41,1004.35,705.44,995.75z"/>
		<path class="st9" d="M705.44,995.75c-2.43-1.1-5.22-2.1-8.27-2.99c4.04,2.78,14.51,8.52,10.45,13.6
			c-8.06,11.28-27.53,7.56-44.24,6.94c20.87,1.08,50.27,13.93,40.85,22.88c-13.13,12.22-19.84-0.67-82.7-6.72
			c7.21,7.82,30.43,23.1,21.49,36.53c-5.78,9.54-15.98,1.61-34.12-17.73c6.04,11.28,12.49,28.61-0.4,31.83
			c-7.08,1.93-11.82-2.28-17.29-7.7c1.27,2.19,2.36,4.3,3.13,6.24c6.32,15.97,31.27,18.3,28.61-6.99
			c13.64,20.63,41.58,9.31,32.6-8.65c-8.98-17.96-24.28-27.94-24.28-27.94s45.58,5.66,65.54,19.46
			c19.96,13.81,35.33-14.14,7.19-32.43C727.07,1023.75,724.41,1004.35,705.44,995.75z"/>
		<path class="st10" d="M705.72,995.14c-11.29-5.11-31.35-8.42-51.11-8.42c-11.23,0-21.25,1.11-28.2,3.12
			c-16.82,4.87-41.76,5.25-49,5.25c-0.88,0-1.36-0.01-1.37-0.01l-0.3,0l-0.2,0.21c-11.98,12.7-15.67,33.37-8.06,45.13
			c2.06,3.18,5.23,7.32,8.59,11.71c6.83,8.92,14.57,19.02,17.63,26.76c2.9,7.33,9.95,12.45,17.14,12.45c3.66,0,6.8-1.35,9.09-3.89
			c2.76-3.06,4.07-7.69,3.84-13.47c4.71,6.01,11.2,9.42,18.1,9.42c6.08,0,11.54-2.73,14.26-7.13c2.42-3.91,2.42-8.73,0.01-13.56
			c-6.93-13.86-17.71-23.09-22.31-26.61c10.02,1.46,45.74,7.33,62.58,18.98c3.61,2.5,7.36,3.82,10.83,3.82
			c5.79,0,10.44-3.56,12.14-9.29c1.24-4.17,0.7-9.03-1.51-13.68c-2.26-4.75-6.24-9.24-11.57-13.07c0.13,0,0.25,0,0.38,0
			c7.99,0,13.19-2.89,14.28-7.92C722.42,1008.14,716.02,999.81,705.72,995.14z M719.64,1014.66c-0.94,4.36-5.67,6.86-12.97,6.86
			c-0.85,0-1.74-0.03-2.65-0.1l-2.6-0.19l2.19,1.42c13.84,8.99,16.45,19.94,14.48,26.58c-1.52,5.14-5.68,8.33-10.85,8.33
			c-3.2,0-6.68-1.24-10.07-3.58c-19.87-13.74-65.38-19.52-65.83-19.58l-2.88-0.36l2.43,1.59c0.15,0.1,15.25,10.08,24.05,27.68
			c2.2,4.4,2.22,8.75,0.05,12.25c-2.47,4-7.5,6.49-13.11,6.49c-7.16,0-13.86-3.92-18.38-10.76l-1.52-2.29l0.29,2.74
			c0.69,6.52-0.47,11.64-3.33,14.82c-2.03,2.25-4.83,3.45-8.09,3.45c-6.65,0-13.19-4.77-15.89-11.6
			c-3.13-7.92-10.93-18.1-17.81-27.09c-3.34-4.36-6.5-8.49-8.53-11.62c-7.26-11.22-3.72-30.96,7.71-43.26c0.23,0,0.6,0,1.09,0
			c7.29,0,32.39-0.38,49.38-5.3c6.83-1.98,16.71-3.07,27.82-3.07c19.58,0,39.43,3.26,50.55,8.3
			C716.07,1001.3,720.76,1009.48,719.64,1014.66z"/>
	</g>
	<g>
		<path class="st10" d="M603.22,1042.41c0.16,0.19,15.91,18.78,19.28,31.11l1.3-0.35C620.34,1060.55,606.38,1045.4,603.22,1042.41z"
			/>
	</g>
	<g>
		<path class="st0" d="M648.89,740.98c0,0-67.2,101.13-79.17,145.04c-11.98,43.91-11.98,97.98,0,118.52
			c21.96,15.88,61.35,9.51,79.17-3.62c17.82-13.13,78.31-69.61,97.14-145.7s18.63-183.44,0-222.03
			C696.13,649.83,648.89,740.98,648.89,740.98z"/>
		<path class="st1" d="M569.72,886.03c-11.98,43.91-11.98,97.98,0,118.52c1.1,0.8,2.26,1.52,3.45,2.21
			c-9.83-50.43-0.73-122.18,24.4-173.53c25.32-51.74,30.32-81.93,85.48-141.15c2.15-2.3,2.34-5.85,3.28-8.77
			c-22.24,28.4-37.43,57.69-37.43,57.69S581.69,842.12,569.72,886.03z"/>
		<path class="st2" d="M724.35,644.84c10.44,60.65,10.66,122.43,0.6,184.22c-11.28,64.47-46.74,116.05-93.48,161.18
			c-11.71,11.02-25.48,17.91-40.3,22.7c20.69,3.42,44.84-2.53,57.72-12.02c17.82-13.13,78.31-69.61,97.14-145.7
			s18.63-183.44,0-222.03C738.7,635.64,731.42,639.71,724.35,644.84z"/>
		<path class="st3" d="M746.38,632.38l-0.56,0.19c-11.48,3.83-23.75,11.9-36.48,24.01c-10.16,9.66-20.63,21.89-31.13,36.36
			c-17.56,24.19-29.37,46.71-29.89,47.71c-0.67,1.01-17.28,26.09-35.09,56.05c-16.71,28.11-37.94,66.4-44.15,89.16
			c-5.81,21.29-9.01,45.51-9.01,68.2c0,22.74,3.22,40.8,9.07,50.83l0.07,0.12l0.11,0.08c8.6,6.22,20.42,9.51,34.18,9.51c0,0,0,0,0,0
			c16.98,0,34.96-5.15,45.79-13.13c8.58-6.32,28.42-23.83,48.32-49.37c10.99-14.1,20.55-28.75,28.4-43.54
			c9.34-17.61,16.3-35.5,20.67-53.18c8.97-36.23,14.09-81.88,14.07-125.24c-0.03-43.27-5.17-78.72-14.11-97.24L746.38,632.38z
			 M745.38,855.07c-8.08,32.65-24.51,65.02-48.83,96.21c-19.82,25.42-39.53,42.83-48.06,49.11c-10.61,7.82-28.27,12.87-44.99,12.87
			c-9.36,0-22.72-1.59-33.28-9.17c-11.79-20.43-11.73-74.34,0.14-117.88c4.88-17.9,20.1-48.61,44.01-88.82
			c18.08-30.41,34.91-55.78,35.08-56.03l0.04-0.06c0.12-0.23,11.99-23.03,29.8-47.57c16.29-22.44,40.98-50.93,66.39-59.7
			c8.7,18.49,13.7,53.46,13.72,96.12C759.43,773.4,754.32,818.93,745.38,855.07z"/>
	</g>
	<g>
		<path class="st5" d="M741.37,556.02c0,0-286.09-9.98-348.26,16.63c-62.17,26.61-49.43,97.14-49.43,97.14s6.19-11.08,10.91-16.63
			c-8.2,50.57,22.84,80.51,22.84,80.51s-7.32-25.28,0-39.77c5.32,51.38,39.92,88.34,39.92,88.34s-11.31-27.94-9.31-45.91
			c13.97,45.91,54.56,76.51,54.56,76.51s-15.3-25.28-14.35-44.58c16.92,29.94,36.3,33.93,46.85,73.41c0,0,5.42-22.18,2.09-46.8
			c14.64,33.93,35.93,39.92,42.58,79.84c9.31-37.92,41.25-43.25,50.57-80.51c0,0-5.32,26.61,2.89,39.01
			c5.55-32.85,38.54-65.58,38.54-65.58s2.48,15.27-4.84,35.23c33.93-18.63,44.5-63.28,44.5-63.28s3.4,18.71-4.31,38
			c26.22-15.97,46.3-57.88,46.3-57.88s-3.33,19.29,0,29.27c27.28-29.27,25.28-77.84,25.28-77.84s6.65,13.31,16.2,16.63
			C749.96,659.81,775.3,612.58,741.37,556.02z"/>
		<path class="st6" d="M591.24,719.08c-0.53-2.02-1.11-4.04-1.68-6.07C589.97,715.09,590.55,717.11,591.24,719.08z"/>
		<path class="st6" d="M741.37,556.02c0,0-5.73-0.2-15.74-0.47c14.86,23.65,15.95,55.89,12.21,83.32
			c-4.84-12.89-19.34-14.51-24.18-27.4c4.84,22.56,8.06,45.13,6.45,69.31c-3.22-12.89-11.28-22.56-16.12-33.85
			c1.61,17.73-4.84,33.85-11.28,49.97c0-12.89-8.06-24.18-14.51-33.85c-1.61,27.4-9.67,51.58-27.4,72.53
			c1.61-16.12-3.22-30.62-9.67-45.13c1.61,27.4-14.51,49.97-32.24,67.69c-2.81-14.05-12.96-25.65-17.66-39.06
			c2.43,9.26,3.9,18.52-0.07,27.78c-9.67,27.4-35.46,46.74-45.13,75.75c-2.66-13.7-20.42-31.16-26.86-36
			c-20.42-17.73-36.48-36.59-32.77-68.77c-1.89,16.39-12.09,22.83-6.18,59.72c-18-13.25-20.68-35.55-36.8-45.22
			c-6.98,8.86-8.33,20.42-10.21,30.62c-11.52-16.27-9.67-37.07-11.28-56.41c-6.45,8.06-17.73,8.06-20.95,17.73
			c-12.89-17.73-4.84-40.29-11.28-59.64c-11.28,4.84-20.95,11.28-25.79,22.56c-1.61-22.56,0-46.74,11.28-66.08
			c-11.28,3.22-17.73,14.51-22.56,24.18c0.88-17.62,4.66-37.16,12.9-53.9c-30.28,31.74-21.85,78.37-21.85,78.37
			s6.19-11.08,10.91-16.63c-8.2,50.57,22.84,80.51,22.84,80.51s-7.32-25.28,0-39.77c5.32,51.38,39.92,88.34,39.92,88.34
			s-11.31-27.94-9.31-45.91c13.97,45.91,54.56,76.51,54.56,76.51s-15.3-25.28-14.35-44.58c16.92,29.94,36.3,33.93,46.85,73.41
			c0,0,5.42-22.18,2.09-46.8c14.64,33.93,35.93,39.92,42.58,79.84c9.31-37.92,41.25-43.25,50.57-80.51c0,0-5.32,26.61,2.89,39.01
			c5.55-32.85,38.54-65.58,38.54-65.58s2.48,15.27-4.84,35.23c33.93-18.63,44.5-63.28,44.5-63.28s3.4,18.71-4.31,38
			c26.22-15.97,46.3-57.88,46.3-57.88s-3.33,19.29,0,29.27c27.28-29.27,25.28-77.84,25.28-77.84s6.65,13.31,16.2,16.63
			C749.96,659.81,775.3,612.58,741.37,556.02z"/>
		<path class="st7" d="M741.95,555.68l-0.19-0.31l-0.36-0.01c-0.53-0.02-53.3-1.83-117.52-1.83c-85.66,0-195.27,3.21-231.03,18.52
			c-14.29,6.12-25.81,15.08-34.23,26.63c-6.73,9.24-11.51,20.14-14.19,32.4c-4.56,20.85-1.44,38.68-1.4,38.85l0.33,1.85l0.91-1.64
			c0.06-0.1,4.95-8.83,9.29-14.58c-1.49,10.76-1.33,21.4,0.48,31.65c1.57,8.84,4.36,17.41,8.29,25.48
			c6.71,13.75,14.56,21.4,14.64,21.48l1.81,1.75l-0.7-2.42c-0.07-0.24-6.45-22.7-1.03-37.03c3.15,25.59,13.5,47.33,21.77,61.23
			c9.25,15.54,17.96,24.92,18.05,25.01l2.47,2.64l-1.36-3.35c-0.11-0.26-9.84-24.54-9.49-42.07c7.54,22.3,21.19,40.65,31.57,52.33
			c11.8,13.29,22.04,21.05,22.14,21.13l2.79,2.1l-1.81-2.99c-0.15-0.24-13.95-23.26-14.29-41.79c6.23,10.51,12.71,17.72,19,24.71
			c10.37,11.53,20.16,22.42,26.57,46.44l0.68,2.54l0.62-2.55c0.05-0.21,4.8-20.04,2.6-42.77c5.6,11.79,11.96,20.04,18.13,28.04
			c9.63,12.48,18.72,24.28,22.62,47.72l0.54,3.22l0.78-3.17c4.64-18.9,15.14-29.82,25.3-40.39c8.59-8.93,17.42-18.12,22.76-32.12
			c-0.93,8.95-1.26,23,4.18,31.22l0.94,1.42l0.28-1.68c2.84-16.83,13.11-33.66,21.22-44.81c7.04-9.68,13.71-16.87,16.16-19.41
			c0.39,4.16,0.97,17.33-4.97,33.52l-0.62,1.68l1.57-0.86c17.68-9.71,28.93-26.52,35.25-38.91c4.64-9.1,7.38-17.22,8.68-21.53
			c0.57,6.19,0.98,20.17-4.68,34.32l-0.75,1.87l1.72-1.05c13.65-8.31,25.58-23.69,33.19-35.13c5.32-8,9.33-15.24,11.51-19.39
			c-0.79,6.25-1.83,18.23,0.61,25.55l0.36,1.07l0.77-0.83c14.2-15.24,20.37-35.73,23.04-50.24c2.1-11.39,2.43-20.97,2.45-25.43
			c2.41,4.04,7.97,12.08,15.28,14.63l1.08,0.38l-0.2-1.13c-1.54-8.67-0.12-19.26,1.53-31.52c1.81-13.49,3.86-28.78,2.55-45.65
			C758.13,590.92,752.34,573,741.95,555.68z M755.77,655.94c-1.59,11.83-2.97,22.12-1.71,30.76c-8.61-3.78-14.69-15.75-14.75-15.88
			l-1.4-2.8l0.13,3.13c0,0.12,0.46,12.25-2.4,27.79c-2.59,14.05-8.49,33.79-21.91,48.69c-2.67-9.97,0.33-27.65,0.36-27.83l0.82-4.77
			l-2.09,4.36c-0.05,0.1-5.1,10.59-13.28,22.89c-7.21,10.84-18.34,25.25-31.06,33.63c6.76-18.58,3.66-36.29,3.62-36.47l-0.57-3.16
			l-0.74,3.13c-0.03,0.11-2.71,11.27-9.49,24.54c-6.05,11.85-16.65,27.78-33.13,37.43c6.55-19.07,4.29-33.71,4.27-33.86l-0.21-1.29
			l-0.93,0.92c-0.08,0.08-8.39,8.36-17.26,20.56c-7.92,10.88-17.87,27.13-21.15,43.62c-6.66-12.57-1.94-36.74-1.89-36.99l-1.31-0.29
			c-4.59,18.34-14.93,29.1-24.93,39.51c-9.75,10.14-19.81,20.6-24.85,38.07c-4.21-21.81-13.03-33.26-22.35-45.34
			c-6.78-8.8-13.79-17.89-19.74-31.68l-1.94-4.49l0.66,4.85c2.61,19.29-0.23,37.27-1.51,43.88c-6.5-22.49-16.05-33.11-26.13-44.33
			c-6.65-7.39-13.52-15.04-20.05-26.58l-1.14-2.02l-0.11,2.32c-0.77,15.51,8.64,34.49,12.68,41.86
			c-3.81-3.18-11.14-9.66-19.22-18.76c-10.8-12.16-25.18-31.61-32.36-55.2l-0.95-3.12l-0.36,3.24c-1.59,14.33,5.05,34.56,8.01,42.69
			c-3.22-3.85-9.19-11.49-15.41-21.95c-8.46-14.23-19.13-36.74-21.87-63.16l-0.24-2.28l-1.03,2.04
			c-6.05,11.97-2.38,30.79-0.72,37.67c-2.68-3.04-7.91-9.62-12.6-19.24c-6.09-12.5-12.46-32.84-8.26-58.76l0.39-2.38l-1.56,1.83
			c-3.65,4.29-8.09,11.7-10.02,15.04c-0.65-5.1-1.97-19.77,1.67-36.42c4.15-18.97,15.78-44.44,47.64-58.08
			c35.55-15.22,144.97-18.41,230.5-18.41c61.39,0,112.31,1.66,117.11,1.82C763.93,595.14,759.4,628.84,755.77,655.94z"/>
	</g>
	<g>
		<path class="st0" d="M718.75,190.75c-48.76-41.92-113.77-51.31-158.02-51.31c-57.73,0-146.37,13.39-187.29,76.26
			c-40.92,62.87-39.43,112.79-46.11,132.07c-12.37,35.71-58.34,99.62-31.73,165.34c30.47,75.25,131.74,113.44,232.53,120.09
			c100.8,6.65,255.06-21.81,297.4-121.09c28.94-67.86-16.97-131.4-38.92-180.31C764.66,282.9,761.56,227.55,718.75,190.75z"/>
		<g>
			<path class="st2" d="M718.75,190.75c-16.15-13.88-34.08-24.18-52.44-31.76c15.73,9.06,30.57,19.23,43.33,30.2
				c42.81,36.8,43.48,94.65,65.44,143.56c21.96,48.9,56.41,88.91,27.47,156.78c-42.34,99.28-196.61,127.74-297.4,121.09
				c-70.88-4.68-141.99-24.95-188.55-62.74c43.46,52.4,127.66,79.78,211.54,85.32c100.8,6.65,255.06-21.81,297.4-121.09
				c28.94-67.86-16.97-131.4-38.92-180.31C764.66,282.9,761.56,227.55,718.75,190.75z"/>
			<g>
				<path class="st1" d="M560.73,139.44c-57.73,0-146.37,13.39-187.29,76.26c-40.92,62.87-39.43,112.79-46.11,132.07
					c-12.37,35.71-58.34,99.62-31.73,165.34c5.11,12.63,12.23,24.2,20.99,34.77c2.13,1.73,4.33,3.41,6.55,5.06
					c-6.71-11.24-13.28-25.81-17.07-35.16c-26.61-65.72,16.85-132.91,29.23-168.62c6.68-19.28,7.7-65.91,48.62-128.78
					c40.92-62.87,129.56-76.26,187.29-76.26c27.59,0,63.25,3.68,98.01,16.59c-0.97-0.57-1.94-1.15-2.92-1.72
					C629.21,143.66,590.33,139.44,560.73,139.44z"/>
			</g>
		</g>
		<path class="st3" d="M800.53,358.7c-4.85-9.54-9.44-18.55-13.3-27.17c-6.89-15.34-11.98-31.53-16.91-47.18
			c-5.34-16.96-10.85-34.49-18.58-50.5c-8.66-17.95-19.3-32.21-32.55-43.6c-22-18.91-49.24-32.88-80.96-41.51
			c-30.25-8.23-58.83-9.96-77.49-9.96c-25.21,0-63.05,2.53-100.16,14.59c-39.85,12.95-69.36,33.8-87.7,61.98
			c-13.55,20.82-23.65,41.9-30.87,64.45c-6.1,19.04-8.85,35.03-11.06,47.88c-1.45,8.44-2.6,15.1-4.25,19.88
			c-2.67,7.71-6.85,16.6-11.69,26.89c-17.3,36.79-40.98,87.19-20.03,138.92c7.38,18.22,19.21,34.98,35.18,49.81
			c14.88,13.83,33.41,26.05,55.05,36.31c20.32,9.64,43.27,17.5,68.2,23.38c23.76,5.6,48.88,9.3,74.68,11.01
			c9.23,0.61,18.86,0.92,28.62,0.92c0.01,0,0.01,0,0.02,0c100.21,0,230.89-32.06,269.43-122.42c10.68-25.03,12.18-51.64,4.61-81.34
			C824.18,405.2,811.61,380.49,800.53,358.7z M824.92,511.85c-17.26,40.48-55.74,73.16-111.26,94.5
			c-45.46,17.47-101.19,27.1-156.93,27.1c0,0-0.01,0-0.02,0c-9.73,0-19.33-0.31-28.53-0.92c-53.31-3.52-102.55-15.37-142.4-34.26
			c-44.51-21.11-75.48-50.64-89.56-85.41c-20.73-51.19,2.81-101.27,20-137.84c4.85-10.32,9.04-19.24,11.74-27.02
			c1.69-4.88,2.85-11.6,4.31-20.09c4.44-25.81,11.14-64.83,41.73-111.83c44.61-68.55,145.45-75.96,186.73-75.96
			c36.63,0,105.8,6.65,157.58,51.15c29.21,25.11,39.66,58.32,50.73,93.49c4.94,15.69,10.05,31.92,16.96,47.33
			c3.88,8.64,8.47,17.67,13.33,27.23C821.3,402.5,848.63,456.25,824.92,511.85z"/>
	</g>
	<g>
		<path class="st5" d="M429.69,497.71c14.47,37.43-2.26,141.4,95.59,141.48c92.32,0.07,77.7-108.62,97.66-144.54
			C579.53,464.21,429.69,497.71,429.69,497.71z"/>
		<g>
			<path class="st6" d="M429.69,497.71c2.85,7.37,4.49,17.32,6.03,28.55c-1.5-11.2-3.02-21.2-5.71-28.62
				C429.81,497.69,429.69,497.71,429.69,497.71z"/>
			<path class="st6" d="M554.98,481.89c23.44,0.3,44.36,3.5,56.47,11.99c-18.77,33.79-5.03,136.01-91.86,135.95
				c-66.28-0.05-76.66-50.78-82.37-92.32c6,44.76,15.7,101.62,88.05,101.68c92.32,0.07,77.7-108.62,97.66-144.54
				C608.71,484.67,583.05,481.56,554.98,481.89z"/>
			<path class="st6" d="M437.22,537.51c-0.52-3.86-1.01-7.62-1.51-11.25C436.21,529.9,436.69,533.67,437.22,537.51z"/>
			<path class="st6" d="M429.69,496.77c0.11,0.28,0.21,0.58,0.32,0.87c4.88-1.07,69.61-15.1,124.98-15.75
				C499.41,481.18,429.69,496.77,429.69,496.77z"/>
		</g>
		<path class="st7" d="M558.92,481.2c-57.79,0-128.67,15.7-129.38,15.86l-0.76,0.17l0.28,0.73c3.41,8.82,5.05,21.2,6.95,35.52
			c3.06,23.07,6.52,49.22,18.67,70.12c14.17,24.38,37.26,36.24,70.6,36.26h0.09c0,0,0,0,0,0c29.97,0,51.4-11.3,65.5-34.53
			c12.15-20.03,16.95-45.65,21.18-68.26c3.25-17.35,6.05-32.33,11.48-42.1l0.29-0.53l-0.5-0.35
			C611.12,485.54,589.45,481.2,558.92,481.2z M610.73,536.82c-4.21,22.49-8.98,47.99-21.01,67.81
			c-13.84,22.8-34.89,33.88-64.35,33.88h-0.08c-32.82-0.02-55.54-11.67-69.44-35.59c-12.01-20.66-15.46-46.67-18.5-69.62
			c-1.86-14.03-3.47-26.19-6.75-35.1c7.8-1.69,73.91-15.66,128.33-15.66c29.84,0,51.07,4.14,63.14,12.31
			C616.72,504.82,613.94,519.67,610.73,536.82z"/>
	</g>
	<g>
		<path class="st11" d="M441.16,500.02c19.82,30.82,20.28,59.87,30.58,81.95c10.3,22.08,36.25,37.72,70.86,28.44
			c48.4-12.97,39.92-72.36,60.38-104.79C602.98,505.62,483.51,491.42,441.16,500.02z"/>
		<ellipse class="st12" cx="528.41" cy="577.29" rx="38.42" ry="35.84"/>
		<g>
			<g>
				<path class="st13" d="M478.03,592.2c12.74,16.3,35.62,25.98,64.57,18.22c14.1-3.78,23.36-11.52,29.92-21.36
					C549.25,571,505.88,567.89,478.03,592.2z"/>
				<path class="st14" d="M519.65,602.81c-15.14,1.16-25.79-1.81-39.37-7.94c13.09,14.65,35,22.86,62.33,15.54
					c14.1-3.78,23.36-11.52,29.92-21.36c-4.6-3.57-10-6.55-15.91-8.85C550.32,591.46,533.73,601.73,519.65,602.81z"/>
				<path class="st15" d="M527.01,574.07c-18.85,0-36.41,6.26-49.43,17.62l-0.48,0.42l0.39,0.5c5.08,6.5,11.45,11.65,18.92,15.3
					c8,3.91,16.89,5.9,26.41,5.9c6.44,0,13.15-0.92,19.95-2.75c13.01-3.49,22.92-10.56,30.31-21.64l0.35-0.52l-0.49-0.38
					C561.09,579.34,544.36,574.07,527.01,574.07z M542.43,609.76c-6.69,1.79-13.28,2.7-19.6,2.7c-17.89,0-33.45-7.16-43.87-20.18
					c12.73-10.88,29.76-16.87,48.06-16.87c16.81,0,33.02,5.02,44.6,13.79C564.46,599.69,554.9,606.42,542.43,609.76z"/>
			</g>
		</g>
		<path class="st3" d="M480.71,496.58c-17.25,0-30.6,0.93-39.68,2.78l-0.96,0.2l0.53,0.83c12.19,18.95,17.06,37.4,21.36,53.68
			c2.68,10.13,5.21,19.7,9.17,28.19c4.29,9.19,11.08,16.96,19.63,22.48c9.2,5.94,20.29,9.08,32.06,9.08
			c6.44,0,13.15-0.92,19.95-2.75c32.2-8.63,39.51-37.49,46.57-65.4c3.73-14.74,7.25-28.66,14.2-39.68l0.57-0.9l-1.06-0.13
			C602.36,504.87,532.03,496.58,480.71,496.58z M588.04,545.33c-6.97,27.53-14.17,56.01-45.61,64.43c-6.69,1.79-13.28,2.7-19.6,2.7
			c-22.61,0-41.48-11.51-50.47-30.78c-3.91-8.39-6.43-17.9-9.09-27.97c-4.26-16.13-9.09-34.39-21-53.23
			c8.96-1.7,21.89-2.56,38.45-2.56c47.81,0,112.17,7.21,121.14,8.24C595.16,517.22,591.7,530.88,588.04,545.33z"/>
	</g>
	<g>
		<path class="st5" d="M523.77,447.57c-60.25-2.66-96.1,24.28-98.22,35.34c-2.12,11.06,23.74,49.82,41.37,58.14
			c17.63,8.32,45.58,10.65,55.15,7.65c8.91,2.99,33.34,2,54.96-6.99c21.62-8.98,49.23-38.92,49.57-46.91
			C625.27,481.5,584.02,450.23,523.77,447.57z"/>
		<g>
			<path class="st6" d="M620.69,484.6c-0.33,7.98-27.94,37.92-49.57,46.91s-46.05,9.98-54.96,6.99c-9.58,2.99-37.52,0.67-55.15-7.65
				c-9.8-4.62-22.13-18.64-30.8-32.09c7.98,15.72,24.36,36.47,36.71,42.29c17.63,8.32,45.58,10.65,55.15,7.65
				c8.91,2.99,33.34,2,54.96-6.99c21.62-8.98,49.23-38.92,49.57-46.91c-0.28-2.79-2.33-6.37-5.93-10.31
				C620.68,484.53,620.69,484.57,620.69,484.6z"/>
			<g>
				<path class="st16" d="M523.77,447.57c-60.25-2.66-96.1,24.28-98.22,35.34c-0.63,3.31,1.25,9.12,4.67,15.84
					c0.57,0.89,1.17,1.78,1.77,2.68c-2.65-5.68-4.04-10.51-3.48-13.41c2.12-11.06,37.97-38.01,98.22-35.34
					c44.18,1.95,78.11,19.28,93.61,33.63c0.22-0.64,0.34-1.21,0.36-1.7c0-0.03-0.02-0.07-0.02-0.11
					C607.12,469.65,571.39,449.68,523.77,447.57z"/>
			</g>
		</g>
		<path class="st7" d="M618.91,481.71c-5.37-5.21-12.74-10.43-21.31-15.1c-21.18-11.54-47.4-18.54-73.81-19.71
			c-2.77-0.12-5.56-0.18-8.3-0.18c-30.67,0-52.4,7.55-65.24,13.88c-16.12,7.95-24.36,16.88-25.38,22.19
			c-1.03,5.38,4.22,17.4,13.39,30.61c9.62,13.86,20.22,24.42,28.36,28.27c13.13,6.19,31.5,8.96,43.89,8.96
			c4.88,0,8.86-0.42,11.54-1.22c2.99,0.96,7.54,1.48,12.87,1.48c13.62,0,29.46-3.2,42.35-8.55c9.71-4.03,21.74-12.77,32.98-23.97
			c9.99-9.95,16.83-19.41,17-23.53l0-0.05l0-0.05C626.92,491.22,623.95,486.59,618.91,481.71z M576.78,541.1
			c-12.74,5.29-28.38,8.45-41.84,8.45c-5.31,0-9.81-0.53-12.65-1.48l-0.21-0.07l-0.21,0.06c-2.55,0.8-6.47,1.22-11.35,1.22
			c-12.24,0-30.38-2.73-43.32-8.84c-7.82-3.69-18.48-14.35-27.83-27.82c-8.83-12.73-14.12-24.62-13.17-29.59
			c0.93-4.83,9.03-13.53,24.65-21.24c12.7-6.27,34.23-13.74,64.64-13.74c2.71,0,5.49,0.06,8.24,0.18
			c26.21,1.16,52.21,8.1,73.22,19.55c19.03,10.37,28.35,21.27,28.97,27.04C625.51,502.35,598.61,532.03,576.78,541.1z"/>
	</g>
	<g>
		<path class="st5" d="M437.46,315.34c-36.64-34.61-85.97-6.94-96.69,26.1c-9,27.73-4.72,85.08,46.32,99.12
			c51.04,14.04,80.64-17.35,82.78-31.8C472.02,394.3,470.9,346.93,437.46,315.34z"/>
	</g>
	<g>
		<path d="M358.02,357.13c-6.73,21.56-3.53,66.15,34.63,77.07c38.15,10.92,60.27-13.49,61.88-24.73
			c1.6-11.24,0.77-48.07-24.23-72.64C402.91,309.93,366.04,331.44,358.02,357.13z"/>
		<path class="st17" d="M360.36,360.65c-6.44,20.61-3.38,63.24,33.16,73.68c36.53,10.44,57.72-12.89,59.25-23.64
			c1.54-10.74,0.74-45.96-23.2-69.44C403.34,315.52,368.03,336.09,360.36,360.65z"/>
		<path class="st18" d="M367.76,394.04c-5.01-5.01-7.83-11.25-9.97-17.95c-1.09,21.69,6.89,50,35.73,58.24
			c36.53,10.44,57.72-12.89,59.25-23.64c0.34-2.39,0.57-6.01,0.45-10.43C428.51,419.87,388.63,417.52,367.76,394.04z"/>
		<path d="M430,340.8c-8.03-7.88-17.63-12.05-27.76-12.05c-9.11,0-18.53,3.4-26.51,9.56c-7.68,5.93-13.35,13.8-15.96,22.14
			c-2.18,6.96-3.09,15.54-2.56,24.16c0.61,10.03,3.15,19.43,7.34,27.2c6.3,11.67,15.99,19.44,28.8,23.1
			c6.15,1.76,12.2,2.65,17.99,2.65c0,0,0,0,0,0c14.42,0,24.39-5.41,30.21-9.94c7.83-6.1,11.28-12.9,11.84-16.86
			c0.86-6.02,0.84-17.54-2.06-30.17C447.67,364.67,440.29,350.9,430,340.8z M452.15,410.6c-0.58,4.03-4.32,10.55-11.38,16.05
			c-5.67,4.42-15.38,9.68-29.45,9.68c-5.67,0-11.6-0.88-17.65-2.6c-12.48-3.57-21.92-11.14-28.05-22.5
			c-8.89-16.48-8.66-37.68-4.68-50.4c5.4-17.29,23.54-30.83,41.29-30.83c9.8,0,19.09,4.04,26.89,11.69
			c10.12,9.93,17.38,23.48,20.98,39.19C452.97,393.34,453,404.68,452.15,410.6z"/>
	</g>
	<g>
		<path class="st5" d="M628.16,319.64c-33.93,33.29-33.34,86.09-31.16,101.32c2.18,15.23,42.69,50.39,94.48,35.6
			c51.79-14.8,67.35-79.23,58.22-108.45C738.81,313.29,665.34,283.16,628.16,319.64z"/>
	</g>
	<g>
		<path d="M641.17,339.97c-26.25,24.73-27.13,61.81-25.44,73.12c1.68,11.31,24.92,35.88,64.98,24.89
			c40.07-10.99,43.43-55.88,36.36-77.58C708.66,334.53,669.94,312.87,641.17,339.97z"/>
		<path class="st17" d="M640.44,342.81c-25.51,24.03-26.36,60.06-24.73,71.06c1.64,11,24.21,34.87,63.15,24.19
			c38.94-10.68,42.2-54.31,35.34-75.4C706.02,337.53,668.39,316.48,640.44,342.81z"/>
		<path class="st18" d="M694.33,398.72c-24.27,13.48-55.29,14.55-78.94,1.34c-0.37,5.96-0.11,10.81,0.33,13.81
			c1.64,11,24.21,34.87,63.15,24.19c33.03-9.06,40.38-41.81,37.67-64.42C711.5,384,704.11,392.85,694.33,398.72z"/>
		<path d="M697.78,339.82c-8.5-6.3-18.52-9.77-28.22-9.77c-10.78,0-20.99,4.26-29.54,12.31c-10.97,10.33-18.82,24.41-22.72,40.72
			c-3.09,12.92-3.11,24.71-2.19,30.87c0.6,4.05,4.27,11,12.61,17.24c6.2,4.64,16.81,10.16,32.16,10.16c6.15,0,12.6-0.91,19.15-2.71
			c13.98-3.83,24.45-12.07,31.13-24.47c4.25-7.89,6.8-17.38,7.38-27.44c0.5-8.66-0.48-17.28-2.76-24.28
			C712.01,353.93,705.97,345.89,697.78,339.82z M709.08,413.6c-6.52,12.09-16.74,20.12-30.38,23.87
			c-6.45,1.77-12.78,2.67-18.83,2.67c-15.02,0-25.38-5.39-31.42-9.92c-7.53-5.63-11.52-12.32-12.13-16.44
			c-0.9-6.06-0.87-17.66,2.17-30.41c3.84-16.08,11.57-29.95,22.37-40.11c8.32-7.84,18.25-11.98,28.7-11.98
			c18.94,0,38.3,13.87,44.06,31.57C717.76,375.56,718.1,396.86,709.08,413.6z"/>
	</g>
	<g>
		<path class="st19" d="M522.07,364.9c-37.19-0.12-58.81,34.39-68.29,64.85c-9.48,30.46-9.98,88.84,27.45,99.82
			c13.47,5.49,25.95-3.49,33.93-3.49c7.98,0,20.96,11.04,37.92,5.27c16.97-5.77,34.93-26.73,29.94-86.11
			C578.03,385.86,551.07,365,522.07,364.9z"/>
		<path id="XMLID_55_" class="st20" d="M457.97,470.06c6.3-36.84,20.37-75.53,50.94-98.59C471.71,385.7,452.73,437.01,457.97,470.06
			z"/>
		<g>
			<path class="st21" d="M583.02,445.24c-2.78-33.06-12.37-54.16-25.33-66.41c6.79,12.3,11.6,28.91,13.44,50.75
				c4.99,59.38-8.7,82.34-25.59,88.33c-11.17,3.96-17.13-3.09-31.26-2.54c-7.98,0.31-23.03,13.05-45.21,1.99
				c-5.14-1.51-9.3-7.36-13.08-10.46c5.16,10.77,13.25,19.16,25.24,22.68c13.47,5.49,25.95-3.49,33.93-3.49
				c7.98,0,20.96,11.04,37.92,5.27C570.05,525.58,588.01,504.62,583.02,445.24z"/>
		</g>
		<path d="M562.06,382.4c-10.28-11.83-24.11-18.12-39.98-18.17h-0.19c-17.07,0-32.17,7.15-44.9,21.24
			c-12.76,14.13-20.01,31.77-23.84,44.08c-3.59,11.54-5.57,25.89-5.44,39.38c0.16,16.03,3.21,30.06,8.84,40.56
			c5.71,10.65,13.94,17.62,24.46,20.72c3.01,1.22,6.11,1.81,9.47,1.81c5.59,0,10.8-1.66,15.39-3.13c3.59-1.15,6.7-2.14,9.29-2.14
			c2.53,0,5.69,1.2,9.35,2.6c5.08,1.93,11.4,4.34,18.55,4.34c0,0,0,0,0,0c3.51,0,6.86-0.56,10.24-1.7
			c10.16-3.46,18.32-11.52,23.6-23.31c6.77-15.14,9.06-36.5,6.79-63.49C581.35,417.36,574.07,396.23,562.06,382.4z M575.67,508.13
			c-5.12,11.44-13.01,19.26-22.81,22.59c-3.23,1.1-6.44,1.63-9.8,1.63c0,0,0,0,0,0c-6.9,0-12.84-2.26-18.07-4.25
			c-3.78-1.44-7.05-2.68-9.83-2.68c-2.8,0-6,1.02-9.7,2.2c-4.5,1.44-9.6,3.07-14.98,3.07c-3.2,0-6.15-0.57-9-1.73l-0.06-0.02
			c-10.18-2.99-18.15-9.74-23.69-20.07c-11.57-21.59-10.42-56.04-3.3-78.9c4.7-15.1,23.46-64.38,67.46-64.38l0.19,0
			c15.48,0.05,28.95,6.17,38.97,17.7c11.83,13.62,19,34.48,21.31,62.02C584.6,472.06,582.35,493.2,575.67,508.13z"/>
	</g>
	<g>
		<path class="st22" d="M449.6,485.03c1.35,9.95,4.68,23.76,15.43,34.96c7.55,5.86,22.14,6.4,18.19-10.7S457.74,476.57,449.6,485.03
			z"/>
		<g>
			<path class="st23" d="M483.22,509.28c-3.28-14.16-18.59-27.28-28.38-26.58c1.53,9.74,5.09,22.46,15.13,32.92
				c3.7,2.87,9.09,4.46,13.16,3.33C484.04,516.68,484.2,513.53,483.22,509.28z"/>
		</g>
		<path d="M472.35,490.3c-5.58-5.21-11.84-8.32-16.75-8.32c-2.65,0-4.83,0.87-6.47,2.58l-0.23,0.23l0.04,0.32
			c2.03,14.94,7.13,26.5,15.61,35.34l0.07,0.07c3.05,2.37,7.16,3.84,10.72,3.84c0,0,0,0,0,0c3.12,0,5.61-1.07,7.22-3.09
			c2.12-2.67,2.56-6.75,1.32-12.14C482.36,502.6,478.16,495.73,472.35,490.3z M481.51,520.43c-1.7,2.13-4.29,2.58-6.17,2.58
			c0,0,0,0,0,0c-3.26,0-7.03-1.35-9.86-3.53c-8.19-8.55-13.16-19.75-15.17-34.22c1.35-1.29,3.13-1.94,5.28-1.94
			c9.23,0,23.78,12.29,26.97,26.11C483.7,514.33,483.33,518.14,481.51,520.43z"/>
	</g>
	<g>
		<path class="st22" d="M549.05,500.43c-8.78,14.85,0.37,30.15,10.81,27.75c16.42-10.38,22.5-32.53,23.16-49.83
			C573.87,479.51,558.34,484.72,549.05,500.43z"/>
		<g>
			<path class="st23" d="M576.92,479.57c-8.97,2.42-20.42,8.27-27.87,20.86c-5.78,9.78-3.78,19.76,1.24,24.74
				C569.9,518.82,577.78,492.21,576.92,479.57z"/>
		</g>
		<path d="M548.48,500.08c-5.2,8.8-4.01,17.27-1.17,22.26c2.41,4.23,6.29,6.75,10.38,6.75c0.77,0,1.56-0.09,2.33-0.27l0.11-0.03
			l0.1-0.06c7.64-4.83,13.62-12.45,17.75-22.64c4.25-10.46,5.46-20.86,5.72-27.74l0.03-0.79l-0.79,0.1
			C577.56,478.36,559.17,482,548.48,500.08z M559.6,527.55c-0.64,0.14-1.28,0.21-1.91,0.21c-3.6,0-7.04-2.27-9.21-6.07
			c-2.66-4.67-3.76-12.61,1.16-20.91c9.91-16.75,26.63-20.74,32.68-21.65C581.86,488.36,578.84,515.3,559.6,527.55z"/>
	</g>
	<g>
		<path class="st24" d="M373.08,284.64c0,0,33.41-38.59,67.27-20.63C443.6,236.07,391.04,231.74,373.08,284.64z"/>
		<path class="st25" d="M373.08,284.64c0,0,33.41-38.59,67.27-20.63C440.07,247.62,394.13,239.16,373.08,284.64z"/>
		<path d="M419.2,243.03c-15.09,0-36.38,10.84-46.76,41.4l-1.11,3.26l2.25-2.6c0.05-0.06,5.54-6.36,14.17-12.59
			c7.94-5.73,20.23-12.57,33.68-12.57c6.47,0,12.73,1.58,18.59,4.69l0.87,0.46l0.11-0.98c0.64-5.49-0.79-10.37-4.12-14.11
			C432.96,245.56,426.51,243.03,419.2,243.03z M439.77,262.96c-5.8-2.91-11.96-4.39-18.33-4.39c-13.8,0-26.36,6.97-34.46,12.82
			c-5.5,3.97-9.76,7.98-12.17,10.43c10.48-27.57,30.26-37.46,44.4-37.46c6.93,0,13.01,2.37,16.69,6.5
			C438.77,254.1,440.1,258.26,439.77,262.96z"/>
	</g>
	<g>
		<path class="st24" d="M636.42,264.01c33.86-17.96,67.27,20.63,67.27,20.63C685.73,231.75,633.17,236.07,636.42,264.01z"/>
		<path class="st25" d="M636.42,264.01c33.86-17.96,67.27,20.63,67.27,20.63C688.68,251.65,641.54,241.17,636.42,264.01z"/>
		<path d="M657.57,243.03c-7.31,0-13.76,2.53-17.69,6.95c-3.34,3.75-4.76,8.63-4.12,14.11l0.11,0.98l0.87-0.46
			c5.86-3.11,12.12-4.69,18.59-4.69c13.43,0,25.71,6.83,33.65,12.55c8.64,6.23,14.15,12.55,14.2,12.61l2.25,2.6l-1.1-3.25
			C693.95,253.87,672.65,243.03,657.57,243.03z M689.8,271.4c-8.1-5.85-20.66-12.82-34.46-12.82c-6.37,0-12.53,1.47-18.33,4.39
			c-0.33-4.7,1.01-8.86,3.88-12.09c3.68-4.13,9.76-6.5,16.69-6.5c14.14,0,33.92,9.88,44.4,37.46
			C699.55,279.38,695.3,275.37,689.8,271.4z"/>
	</g>
	<g>
		<path class="st10" d="M651.96,1012.51c0.27,0,27.17,0.4,51.77,10.2l0.5-1.25C679.39,1011.57,655.31,1011.53,651.96,1012.51z"/>
	</g>
	<g>
		<g id="XMLID_25_">
			<ellipse id="XMLID_30_" class="st26" cx="665.2" cy="396.27" rx="26.01" ry="28.69"/>
			<path id="XMLID_29_" class="st27" d="M639.19,396.27c0,15.84,11.65,28.69,26.01,28.69c14.37,0,26.01-12.84,26.01-28.69
				C685.83,410.61,651.6,418.27,639.19,396.27z"/>
			<path id="XMLID_26_" class="st28" d="M665.2,425.58c-14.69,0-26.64-13.15-26.64-29.32c0-16.17,11.95-29.32,26.64-29.32
				c14.69,0,26.64,13.15,26.64,29.32C691.85,412.43,679.89,425.58,665.2,425.58z M665.2,368.21c-14,0-25.38,12.59-25.38,28.06
				c0,15.47,11.39,28.06,25.38,28.06c14,0,25.38-12.59,25.38-28.06C690.59,380.8,679.2,368.21,665.2,368.21z"/>
		</g>
		<g id="XMLID_5_">
			<ellipse id="XMLID_6_" cx="665.2" cy="398.99" rx="17.49" ry="19.28"/>
		</g>
		<g id="XMLID_3_">
			<path id="XMLID_4_" class="st17" d="M664.75,381.35c0,3.95-3.2,7.16-7.16,7.16c-3.95,0-7.16-3.2-7.16-7.16
				c0-3.95,3.2-7.16,7.16-7.16C661.54,374.19,664.75,377.39,664.75,381.35z"/>
		</g>
		<g id="XMLID_1_">
			<path id="XMLID_2_" class="st17" d="M674.4,410.95c0,1.61-1.31,2.92-2.92,2.92c-1.61,0-2.92-1.31-2.92-2.92
				c0-1.61,1.31-2.92,2.92-2.92C673.09,408.03,674.4,409.34,674.4,410.95z"/>
		</g>
	</g>
	<g>
		<g id="XMLID_40_">
			<ellipse id="XMLID_51_" class="st26" cx="413.42" cy="393.55" rx="26.01" ry="28.69"/>
			<path id="XMLID_50_" class="st27" d="M387.41,393.55c0,15.84,11.65,28.69,26.01,28.69c14.37,0,26.01-12.84,26.01-28.69
				C434.05,407.89,399.82,415.55,387.41,393.55z"/>
			<path id="XMLID_41_" class="st28" d="M413.42,422.86c-14.69,0-26.64-13.15-26.64-29.32c0-16.17,11.95-29.32,26.64-29.32
				c14.69,0,26.64,13.15,26.64,29.32C440.07,409.71,428.12,422.86,413.42,422.86z M413.42,365.49c-14,0-25.38,12.59-25.38,28.06
				c0,15.47,11.39,28.06,25.38,28.06c14,0,25.38-12.59,25.38-28.06C438.81,378.08,427.42,365.49,413.42,365.49z"/>
		</g>
		<g id="XMLID_38_">
			<ellipse id="XMLID_39_" cx="413.42" cy="396.27" rx="17.49" ry="19.28"/>
		</g>
		<g id="XMLID_33_">
			<path id="XMLID_37_" class="st17" d="M412.97,378.63c0,3.95-3.2,7.16-7.16,7.16c-3.95,0-7.16-3.2-7.16-7.16
				c0-3.95,3.2-7.16,7.16-7.16C409.76,371.47,412.97,374.67,412.97,378.63z"/>
		</g>
		<g id="XMLID_31_">
			<path id="XMLID_32_" class="st17" d="M422.62,408.23c0,1.61-1.31,2.92-2.92,2.92c-1.61,0-2.92-1.31-2.92-2.92
				c0-1.61,1.31-2.92,2.92-2.92C421.31,405.31,422.62,406.62,422.62,408.23z"/>
		</g>
	</g>
</g>
</svg>
