<?xml version="1.0" encoding="utf-8"?>
<!-- Generator: Adobe Illustrator 26.0.3, SVG Export Plug-In . SVG Version: 6.00 Build 0)  -->
<svg version="1.1" id="Layer_1" xmlns="http://www.w3.org/2000/svg" xmlns:xlink="http://www.w3.org/1999/xlink" x="0px" y="0px"
	 viewBox="0 0 1133.86 1133.86" style="enable-background:new 0 0 1133.86 1133.86;" xml:space="preserve">
<style type="text/css">
	.st0{fill:#CBE2E3;}
	.st1{fill:#FDE100;}
	.st2{fill:#F4CA00;}
	.st3{fill:#FFFFFF;}
	.st4{fill:#56992F;}
</style>
<rect x="0" class="st0" width="1133.86" height="1133.86"/>
<g>
	<g>
		<g>
			<g>
				<path class="st1" d="M734.57,235.6c13.5-22.11,30.89-41.34,50.5-57.22c-5.59,55.75,41.06,122.44,117.28,160.61
					c54.28,27.19,111.17,33.7,154.34,21.51c-6.35,14.08-14.71,28.31-25.37,42.52c-53.9,71.93-120.24,108.15-181.19,95.61
					c-17.79-3.65-28.49,15.94-66.28-5.42c-32.46-18.34-18.95-36.13-29.44-47.78C708.32,394.26,689.65,309.15,734.57,235.6z"/>
				<g>
					<path class="st2" d="M1012.4,366.39c-51.64,73.34-116.74,112.05-179.36,102.91c-19.03-2.78-29.15,18.59-70.41-1.67
						c-0.62-0.3-1.18-0.61-1.77-0.91c1.98,8.23,6.68,17.3,22.99,26.51c37.79,21.36,48.49,1.76,66.28,5.42
						c60.95,12.54,127.29-23.68,181.19-95.61c10.66-14.22,19.02-28.44,25.37-42.52C1043.11,364.33,1028.18,366.31,1012.4,366.39z"/>
				</g>
			</g>
			<g>
				<path class="st3" d="M1019.98,363.45c2.64-5.18,6.51-8.57,8.64-7.58c2.12,1.01,1.7,6.01-0.95,11.19
					c-2.65,5.18-6.52,8.57-8.65,7.57C1016.9,373.64,1017.33,368.63,1019.98,363.45z"/>
				<path class="st3" d="M1001.04,372.02c1.33-2.17,3.82-3.14,5.58-2.16c1.75,0.98,2.09,3.54,0.76,5.71
					c-1.33,2.17-3.83,3.14-5.57,2.16C1000.05,376.75,999.71,374.19,1001.04,372.02z"/>
				<path class="st3" d="M1001.77,397.83c2.03-3.34,5.11-5.24,6.86-4.27c1.74,0.98,1.52,4.48-0.52,7.82
					c-2.04,3.34-5.11,5.24-6.86,4.26C999.51,404.67,999.74,401.17,1001.77,397.83z"/>
				<path class="st3" d="M972.79,412.03c3.47-5.68,8.7-8.92,11.69-7.26c2.97,1.67,2.58,7.63-0.88,13.32
					c-3.47,5.68-8.7,8.93-11.68,7.26C968.93,423.67,969.31,417.71,972.79,412.03z"/>
				<path class="st3" d="M910.26,438.14c2.53-4.15,6.35-6.53,8.53-5.31c2.18,1.22,1.89,5.58-0.64,9.72
					c-2.53,4.16-6.36,6.53-8.53,5.32C907.44,446.65,907.72,442.3,910.26,438.14z"/>
				<path class="st3" d="M793.61,304.92c2.28-2.66,5.27-3.91,6.67-2.79c1.41,1.12,0.71,4.18-1.57,6.84
					c-2.28,2.66-5.27,3.91-6.68,2.8C790.62,310.65,791.33,307.59,793.61,304.92z"/>
				<path class="st3" d="M896.16,477.22c2.92-1.93,6.14-2.31,7.19-0.85c1.05,1.47-0.47,4.22-3.39,6.15
					c-2.92,1.94-6.14,2.32-7.19,0.86C891.72,481.91,893.23,479.16,896.16,477.22z"/>
				<path class="st3" d="M973.47,390.96c1.76-2.9,4.42-4.55,5.94-3.7c1.51,0.85,1.32,3.88-0.45,6.77c-1.77,2.89-4.42,4.54-5.94,3.69
					C971.51,396.87,971.7,393.85,973.47,390.96z"/>
				<path class="st3" d="M939.82,395.88c1.5-2.45,3.94-3.74,5.46-2.89c1.52,0.85,1.54,3.52,0.04,5.97
					c-1.49,2.45-3.94,3.74-5.45,2.89C938.35,401,938.33,398.33,939.82,395.88z"/>
				<path class="st3" d="M956.02,392.19c1.13-1.85,2.99-2.83,4.14-2.19c1.15,0.64,1.16,2.66,0.03,4.52
					c-1.14,1.86-2.98,2.83-4.13,2.19C954.91,396.07,954.9,394.05,956.02,392.19z"/>
				<path class="st3" d="M822.28,378.27c1.14-1.85,2.99-2.83,4.14-2.19c1.15,0.64,1.16,2.66,0.03,4.51
					c-1.13,1.86-2.98,2.84-4.13,2.19C821.16,382.15,821.15,380.12,822.28,378.27z"/>
				<path class="st3" d="M756.62,378.07c2.44-3.98,6.42-6.09,8.89-4.71c2.47,1.38,2.5,5.73,0.07,9.71c-2.43,3.99-6.41,6.1-8.88,4.71
					C754.22,386.41,754.19,382.05,756.62,378.07z"/>
				<path class="st3" d="M910.73,365.13c1.69-2.76,4.45-4.22,6.17-3.26c1.71,0.96,1.74,3.97,0.05,6.74
					c-1.69,2.77-4.45,4.23-6.16,3.27C909.06,370.92,909.04,367.9,910.73,365.13z"/>
				<path class="st3" d="M856.11,312.52c1.76-2.89,4.42-4.54,5.94-3.69c1.52,0.85,1.32,3.87-0.44,6.76
					c-1.76,2.89-4.43,4.54-5.94,3.69C854.15,318.44,854.35,315.41,856.11,312.52z"/>
				<path class="st3" d="M973.72,369.02c1.3-2.13,3.26-3.34,4.37-2.72c1.11,0.63,0.97,2.86-0.33,4.98c-1.3,2.12-3.25,3.34-4.37,2.72
					C972.28,373.37,972.43,371.14,973.72,369.02z"/>
				<path class="st3" d="M965.14,442.39c1.3-2.13,3.25-3.34,4.37-2.71c1.11,0.62,0.97,2.85-0.33,4.98c-1.3,2.12-3.25,3.34-4.37,2.72
					C963.7,446.74,963.84,444.51,965.14,442.39z"/>
				<path class="st3" d="M879.27,364.46c1.29-2.12,3.25-3.34,4.37-2.72c1.11,0.62,0.96,2.86-0.33,4.98
					c-1.29,2.13-3.25,3.33-4.36,2.72C877.82,368.81,877.97,366.58,879.27,364.46z"/>
				<path class="st3" d="M947.45,364.26c1.3-2.12,3.26-3.34,4.37-2.72c1.11,0.63,0.97,2.86-0.33,4.98c-1.3,2.12-3.25,3.34-4.37,2.72
					C946.01,368.61,946.16,366.38,947.45,364.26z"/>
				<path class="st3" d="M892.09,409.35c1.3-2.12,3.25-3.34,4.37-2.71c1.11,0.62,0.97,2.85-0.33,4.98c-1.3,2.12-3.25,3.34-4.37,2.71
					C890.65,413.71,890.79,411.48,892.09,409.35z"/>
				<path class="st3" d="M944.1,427.74c1.3-2.12,3.25-3.34,4.37-2.72c1.11,0.63,0.97,2.86-0.33,4.98c-1.3,2.13-3.25,3.34-4.37,2.72
					C942.66,432.09,942.8,429.87,944.1,427.74z"/>
				<path class="st3" d="M987.42,421.37c1.3-2.12,3.24-3.34,4.37-2.71c1.11,0.62,0.96,2.85-0.33,4.97c-1.3,2.13-3.25,3.34-4.37,2.71
					C985.97,425.72,986.11,423.5,987.42,421.37z"/>
				<path class="st3" d="M920.12,388.12c0.77-1.26,1.93-1.99,2.6-1.62c0.67,0.37,0.58,1.7-0.19,2.97c-0.78,1.26-1.94,1.99-2.6,1.62
					C919.26,390.72,919.34,389.39,920.12,388.12z"/>
				<path class="st3" d="M864.75,375.3c0.77-1.27,1.93-1.99,2.6-1.62c0.66,0.37,0.57,1.7-0.2,2.97c-0.77,1.27-1.94,1.99-2.6,1.62
					C863.89,377.89,863.97,376.56,864.75,375.3z"/>
				<path class="st3" d="M1008.24,418.96c0.77-1.27,1.93-1.99,2.6-1.62c0.67,0.37,0.58,1.7-0.19,2.97c-0.78,1.26-1.94,1.99-2.6,1.62
					C1007.38,421.56,1007.46,420.22,1008.24,418.96z"/>
				<path class="st3" d="M839.92,446.19c0.77-1.26,1.93-1.99,2.6-1.62c0.67,0.38,0.58,1.71-0.19,2.97c-0.77,1.27-1.94,2-2.6,1.63
					C839.06,448.79,839.15,447.47,839.92,446.19z"/>
				<path class="st3" d="M917.03,343.47c0.77-1.26,1.93-1.99,2.6-1.62c0.67,0.37,0.58,1.71-0.19,2.97c-0.77,1.26-1.94,1.99-2.6,1.62
					C916.17,346.07,916.26,344.74,917.03,343.47z"/>
				<path class="st3" d="M808.47,344.73c0.77-1.27,1.94-1.99,2.6-1.62c0.66,0.37,0.58,1.7-0.19,2.97c-0.77,1.27-1.93,2-2.6,1.62
					C807.62,347.33,807.7,346.01,808.47,344.73z"/>
				<path class="st3" d="M1026.33,386.2c1.47-2.41,4.1-3.54,5.9-2.55c1.78,1,2.05,3.76,0.57,6.17c-1.47,2.41-4.1,3.55-5.89,2.54
					C1025.12,391.36,1024.85,388.61,1026.33,386.2z"/>
			</g>
			<path class="st3" d="M763.64,233.52c0,0,1.41,5.47,4.79,12.46c0,0-16.56,13.65-23.81,35.86
				C744.61,281.84,738.96,260.44,763.64,233.52z"/>
		</g>
		<g>
			<path class="st1" d="M818.5,173.53c-43.42,10.45-32.25,61.29,24.96,113.55c57.2,52.26,138.77,86.15,182.19,75.7
				c43.42-10.45,32.25-61.29-24.95-113.55C943.49,196.97,861.92,163.08,818.5,173.53z"/>
			<path class="st3" d="M828.28,182.47c-39.32,9.47-29.2,55.5,22.6,102.82c51.8,47.32,125.67,78.01,164.99,68.55
				c39.32-9.47,29.2-55.5-22.6-102.82C941.47,203.69,867.6,173,828.28,182.47z"/>
			<path class="st1" d="M929.27,266.24c5.85,5.62,60.53,15.2,82.9,18.08c2.87,0.37,15.17,3.49-15.15-26.64
				c-27.28-27.1-35.04-26.95-37.28-25.62C943,242.01,925.75,262.86,929.27,266.24z"/>
			<path class="st1" d="M921.19,260.35c7.51,2.87,17.55-26.71,20.2-40.19c0.34-1.73,3.94-7.12-36.39-23.36
				c-36.28-14.6-35.59-8.42-33.58-4.94C886.38,217.88,916.67,258.62,921.19,260.35z"/>
			<path class="st1" d="M914.15,259.68c3.56-2.01-38.52-48.69-57.58-68.47c-2.45-2.54-10.22-12.41-30.48-2.66
				c-18.22,8.78-9.59,16.39-4.84,19.42C856.79,230.66,912.01,260.9,914.15,259.68z"/>
			<path class="st1" d="M913.56,263.98c-3.04-5.4-65.85-34.35-92.39-45.67c-3.41-1.45-16.76-8.45-1.83,20.03
				c13.43,25.61,23.57,28.97,27.52,29.29C876.44,270.05,915.4,267.23,913.56,263.98z"/>
			<path class="st1" d="M919.62,270.09c-7.37-4.75-44.05,5.62-58.28,11.21c-1.83,0.71-10.79,1.82,28.19,27.77
				c35.06,23.34,39.14,19.94,39.35,17.31C930.43,306.73,924.06,272.95,919.62,270.09z"/>
			<path class="st1" d="M927.81,273.45c-6.2-0.56,10.61,41.4,19.31,59.72c1.12,2.35,3.22,10.73,37.17,14.79
				c30.54,3.65,25.51-3.97,21.82-7.59C978.49,313.33,931.54,273.79,927.81,273.45z"/>
			<path class="st1" d="M932.01,271.56c-0.4,4.05,57.36,46.29,82.5,63.68c3.23,2.24,14.84,11.63,18.42-9.22
				c3.23-18.76-7.15-24.92-11.98-26.83C984.75,284.92,932.26,269.12,932.01,271.56z"/>
			<path class="st3" d="M940.99,267.37c-4.84-0.42-9.96-3.53-4.96-5.9c5.01-2.37,8.73,0.51,11.21,3.12
				C949.72,267.2,945.66,267.78,940.99,267.37z"/>
			<path class="st3" d="M901.34,246.72c2.6,3.71,0.9,5.5-6.47-0.61c-7.37-6.11-5.11-6.91-2.45-6.88
				C895.07,239.24,898.82,243.13,901.34,246.72z"/>
			<path class="st3" d="M907.57,261.53c2.94,1.42,1.92,3.56-5.47,2.74c-7.39-0.83-5.7-2.52-3.5-3.81
				C900.8,259.17,904.73,260.15,907.57,261.53z"/>
			<path class="st3" d="M912.85,273.94c2.77-1.01,7.75,1.12,7.01,5.53c-0.73,4.42-4.82,2.13-8.06-0.22
				C908.56,276.9,910.17,274.92,912.85,273.94z"/>
			<path class="st3" d="M947.4,281.93c-2.68-2.65-2.55-4.54,3.36-0.84c5.9,3.7,5.12,4.86,3.83,5.4
				C953.3,287.04,950,284.49,947.4,281.93z"/>
			<path class="st3" d="M938.72,288.25c-1.73-3.24,0.45-4.39,6.44,1.36c6,5.74,3.5,6.06,0.8,5.67
				C943.26,294.9,940.39,291.38,938.72,288.25z"/>
			<path class="st3" d="M909.51,300.74c-1.16,1.85-1.51,3.2-0.76,3.67c0.75,0.47,2.32-0.11,3.48-1.96c1.16-1.85,2.48-5.56,1.73-6.03
				C913.2,295.95,910.67,298.89,909.51,300.74z"/>
			<path class="st3" d="M895.66,286.4c-3,1.6-4.37,2.93-3.42,3.68c0.95,0.75,3.85,0.62,6.85-0.98c3-1.6,7.34-5.13,6.4-5.88
				C904.53,282.47,898.65,284.8,895.66,286.4z"/>
			<path class="st3" d="M884.95,282.27c-4.99,2.35-7.6,4.18-6.7,5c0.91,0.82,4.98,0.33,9.97-2.02c4.99-2.35,12.89-7.28,11.98-8.1
				C899.31,276.32,889.94,279.92,884.95,282.27z"/>
			<path class="st3" d="M856.4,256c-5.2-0.61-8.08-0.6-7.5,0.19c0.58,0.79,4.42,2.06,9.62,2.66c5.2,0.61,13.77,0.91,13.18,0.12
				C871.13,258.19,861.6,256.61,856.4,256z"/>
			<path class="st3" d="M873.25,252.44c-4.74-1.21-7.47-1.65-7.14-1.03c0.33,0.62,3.59,2.07,8.33,3.28
				c4.74,1.21,12.75,2.74,12.42,2.12C886.54,256.19,877.99,253.66,873.25,252.44z"/>
			<path class="st3" d="M837.87,234.22c-3.7-1.25-5.88-1.8-5.72-1.36c0.17,0.44,2.61,1.7,6.31,2.95c3.7,1.25,10.06,3.02,9.9,2.58
				C848.2,237.96,841.57,235.47,837.87,234.22z"/>
			<path class="st3" d="M840.22,242.92c-5.59-1.4-8.81-1.9-8.41-1.16c0.4,0.74,4.26,2.43,9.86,3.83c5.6,1.4,15.05,3.14,14.65,2.41
				C855.92,247.26,845.82,244.32,840.22,242.92z"/>
			<path class="st3" d="M919.2,215.01c-0.31-2.28-0.82-3.81-1.49-4.09c-0.66-0.29-1.23,0.78-0.92,3.06
				c0.31,2.28,1.51,6.57,2.18,6.86C919.64,221.12,919.52,217.3,919.2,215.01z"/>
			<path class="st3" d="M870.22,223.26c-3.41-2.59-5.64-4.08-5.94-3.89c-0.3,0.19,1.44,1.99,4.86,4.58
				c3.42,2.59,9.71,6.96,10.01,6.77C879.45,230.53,873.64,225.85,870.22,223.26z"/>
			<path class="st3" d="M922.25,244.67c-0.27-3.07-0.73-5.13-1.32-5.5c-0.6-0.37-1.11,1.08-0.83,4.15c0.27,3.07,1.33,8.85,1.93,9.22
				C922.62,252.92,922.52,247.75,922.25,244.67z"/>
			<path class="st3" d="M892.62,211.03c-1.87-3.7-3.32-6.03-3.94-6.2c-0.62-0.17-0.19,1.9,1.69,5.6c1.88,3.7,5.79,10.37,6.41,10.54
				C897.4,221.13,894.51,214.73,892.62,211.03z"/>
			<path class="st3" d="M962.9,266.87c3.3,0.05,5.11-0.15,4.69-0.64c-0.43-0.49-2.92-1.08-6.23-1.14c-3.3-0.05-8.69,0.34-8.27,0.83
				C953.52,266.41,959.6,266.82,962.9,266.87z"/>
			<path class="st3" d="M973.28,254.1c3.84-1.03,5.8-2.01,5-2.72c-0.8-0.72-4.05-0.91-7.9,0.12c-3.84,1.03-9.82,3.55-9.03,4.26
				C962.16,256.48,969.44,255.13,973.28,254.1z"/>
			<path class="st3" d="M985.21,271.03c3.14,0.25,4.88,0.19,4.53-0.24c-0.35-0.44-2.66-1.1-5.79-1.35
				c-3.14-0.25-8.31-0.26-7.96,0.17C976.34,270.05,982.08,270.78,985.21,271.03z"/>
			<path class="st3" d="M950.86,251.29c1.71-1.11,2.5-1.98,1.96-2.38c-0.53-0.41-2.2-0.19-3.91,0.91c-1.72,1.11-4.2,3.45-3.67,3.86
				C945.79,254.09,949.15,252.4,950.86,251.29z"/>
			<path class="st3" d="M968.44,286.45c3.77,1.39,6.02,2.04,5.9,1.66c-0.11-0.38-2.55-1.67-6.32-3.05
				c-3.77-1.38-10.29-3.44-10.18-3.06C957.95,282.38,964.66,285.06,968.44,286.45z"/>
			<path class="st3" d="M1012.53,308.89c3.85,1.87,6.19,2.85,6.2,2.52c0.01-0.33-2.32-1.85-6.17-3.72
				c-3.84-1.87-10.61-4.84-10.62-4.51C1001.93,303.51,1008.68,307.02,1012.53,308.89z"/>
			<path class="st3" d="M963.75,311.44c2.71,2.82,4.57,4.53,4.99,4.49c0.43-0.03-0.74-1.79-3.45-4.62c-2.71-2.82-7.9-7.75-8.33-7.72
				C956.54,303.63,961.03,308.62,963.75,311.44z"/>
			<path class="st3" d="M939.38,298.19c1.46,2.69,2.61,4.4,3.16,4.53c0.56,0.14,0.3-1.34-1.15-4.03c-1.45-2.69-4.56-7.55-5.11-7.69
				C935.72,290.86,937.92,295.5,939.38,298.19z"/>
			<path class="st3" d="M910.29,287.53c-1.44,1.32-2.04,2.3-1.48,2.69c0.56,0.39,2.07,0.04,3.5-1.28c1.43-1.31,3.4-4.01,2.85-4.4
				C914.6,284.16,911.72,286.22,910.29,287.53z"/>
			<path class="st3" d="M965.08,322.18c4.09,5.34,6.82,8.61,7.31,8.66c0.5,0.05-1.43-3.15-5.52-8.49
				c-4.08-5.33-11.76-14.77-12.26-14.82C954.12,307.48,961,316.84,965.08,322.18z"/>
			<path class="st3" d="M958.19,325.86c4,6.37,6.75,10.32,7.4,10.44c0.66,0.13-1.03-3.61-5.03-9.98
				c-3.99-6.37-11.67-17.71-12.32-17.84C947.59,308.35,954.2,319.48,958.19,325.86z"/>
			<path class="st3" d="M996.49,306.86c5.55,2.94,8.97,4.52,9.05,4.07c0.08-0.45-3.22-2.75-8.77-5.69
				c-5.55-2.94-15.39-7.67-15.47-7.23C981.22,298.46,990.93,303.92,996.49,306.86z"/>
			<path class="st3" d="M984.28,305.26c7.51,4.85,12.2,7.64,12.45,7.3c0.25-0.35-4.04-3.7-11.55-8.56
				c-7.5-4.85-20.95-13.05-21.19-12.7C963.73,291.64,976.77,300.4,984.28,305.26z"/>
			<path class="st3" d="M840.72,205.04c-7.27-5.52-11.85-8.79-12.15-8.6c-0.29,0.19,3.79,3.77,11.07,9.29
				c7.27,5.52,20.36,15.04,20.65,14.85C860.59,220.39,847.99,210.56,840.72,205.04z"/>
			<path class="st3" d="M866.48,228.24c-5.09-3.41-8.35-5.33-8.65-4.98c-0.31,0.35,2.45,2.84,7.55,6.25
				c5.1,3.42,14.35,9.08,14.66,8.73C880.34,237.89,871.57,231.65,866.48,228.24z"/>
			<path class="st3" d="M858.38,237.94c-6.33-2.77-10.17-4.26-10.12-3.86c0.05,0.39,3.97,2.53,10.3,5.3
				c6.33,2.77,17.42,7.24,17.37,6.85C875.89,245.83,864.72,240.71,858.38,237.94z"/>
			<path class="st3" d="M865.24,210.78c-5.04-4.57-8.31-7.31-8.71-7.2c-0.41,0.1,2.21,3.01,7.26,7.58
				c5.04,4.57,14.31,12.51,14.72,12.41C878.9,223.46,870.28,215.35,865.24,210.78z"/>
			<path class="st3" d="M929.35,230.95c0.5-2.76,0.53-4.59-0.03-4.89c-0.56-0.3-1.51,1.04-2.01,3.81c-0.5,2.76-0.83,7.91-0.27,8.21
				C927.6,238.38,928.85,233.72,929.35,230.95z"/>
			<path class="st3" d="M911.64,233.9c-1.62-4.21-2.92-6.88-3.56-7.09c-0.65-0.22-0.39,2.11,1.23,6.32
				c1.62,4.21,5.1,11.83,5.75,12.04C915.71,245.39,913.27,238.11,911.64,233.9z"/>
			<path class="st3" d="M913.55,223.22c-1.16-4.36-2.16-7.16-2.78-7.44c-0.62-0.28-0.62,2.06,0.54,6.42
				c1.15,4.36,3.79,12.31,4.41,12.59C916.34,235.08,914.7,227.58,913.55,223.22z"/>
		</g>
	</g>
	<g>
		<path d="M803.59,166.92c20.4-5.59,48.85-2.38,79.8,7.49c-26.35-7.02-50.25-8.78-68.07-3.9c-47.96,13.13-33.78,69.32,31.68,125.5
			c28.01,24.05,60.87,44.19,93.06,58.34c-35.89-14.04-73.59-36.11-105.1-63.16C770.14,235.56,756.1,179.92,803.59,166.92z"/>
		<path d="M1040.31,367.68c-18.65,4.49-44.35,0.79-72.13-9.03c23.7,7.1,47,9.63,63.29,5.71c43.85-10.56,32.56-61.89-25.2-114.66
			c-24.72-22.58-55.64-42.03-84.42-55.76c32.14,13.74,65.7,34.8,93.51,60.2C1072.55,306.39,1083.73,357.23,1040.31,367.68z"/>
	</g>
</g>
<g>
	<g>
		<path class="st1" d="M102.15,346.68c35.88-73.06,112.9-103.82,176.72-95.8c14.53,1.83,21.88-17.86,52.77-2.85
			c35.96,17.47,25.77,35.97,37.61,47.57c40.59,39.76,45.14,109.39,15.07,188.42c-39.2,103.06-128.68,130.86-195.97,113.4
			c-9.79-2.53-32.51,5.77-41.77,1.22c-13-6.38-16.38-29.53-25.82-39.98C77.17,510.39,65.95,420.41,102.15,346.68z"/>
		<path class="st2" d="M374.45,301.14c8.11,35.23,6.59,77.65-4.79,124.11C341.33,540.98,249.09,582.69,174.6,572.92
			c-10.07-1.32-30.85,8.88-42.21,7.4c3.63,7.84,7.72,15.15,14.18,18.32c9.26,4.55,31.99-3.75,41.77-1.22
			c67.29,17.46,156.77-10.34,195.97-113.4C413.05,408.53,410.15,341.64,374.45,301.14z"/>
		<g>
			<path class="st3" d="M347.18,496.32c-2.79,4.75-3.54,9.49-1.68,10.58c1.86,1.08,5.63-1.88,8.42-6.64
				c2.79-4.76,3.54-9.49,1.67-10.58C353.72,488.59,349.96,491.56,347.18,496.32z"/>
			<path class="st3" d="M344.46,477.38c-1.06,2.16-0.57,4.57,1.09,5.38c1.66,0.81,3.86-0.28,4.92-2.43
				c1.06-2.16,0.57-4.57-1.08-5.39C347.73,474.13,345.53,475.22,344.46,477.38z"/>
			<path class="st3" d="M275.73,545.26c-1.13,2.3-0.7,4.83,0.95,5.65c1.66,0.82,3.92-0.39,5.06-2.7c1.13-2.31,0.71-4.84-0.95-5.65
				C279.12,541.74,276.86,542.95,275.73,545.26z"/>
			<path class="st3" d="M319.57,510.38c-1.63,3.32-1.39,6.76,0.54,7.71c1.92,0.94,4.8-0.97,6.42-4.29c1.63-3.31,1.39-6.76-0.53-7.71
				C324.07,505.15,321.2,507.07,319.57,510.38z"/>
			<path class="st3" d="M365.35,464.3c-1.63,3.31-1.6,6.66,0.06,7.48c1.66,0.81,4.32-1.21,5.95-4.52c1.63-3.32,1.6-6.66-0.06-7.47
				C369.64,458.96,366.98,460.98,365.35,464.3z"/>
			<path class="st3" d="M362.61,436.36c-2.47,5.03-2.43,10.12,0.09,11.36c2.52,1.23,6.57-1.84,9.05-6.88
				c2.47-5.04,2.43-10.12-0.09-11.36C369.14,428.25,365.08,431.32,362.61,436.36z"/>
			<path class="st3" d="M351.4,373.35c-2.03,4.12-2,8.29,0.07,9.3c2.07,1.01,5.38-1.51,7.41-5.63c2.03-4.12,2-8.29-0.07-9.3
				C356.74,366.71,353.42,369.22,351.4,373.35z"/>
			<path class="st3" d="M309.85,548.21c-3.35,4.5-4.24,9.51-1.98,11.19c2.25,1.67,6.79-0.62,10.14-5.12
				c3.35-4.5,4.24-9.51,1.98-11.18C317.74,541.42,313.2,543.71,309.85,548.21z"/>
			<path class="st3" d="M322.06,484.98c-1.63,3.31-1.6,6.66,0.06,7.47c1.66,0.82,4.32-1.21,5.95-4.52c1.63-3.32,1.6-6.66-0.06-7.47
				C326.36,479.64,323.69,481.66,322.06,484.98z"/>
			<path class="st3" d="M345.66,446.39c-1.41,2.86-1.39,5.76,0.05,6.47c1.43,0.7,3.75-1.05,5.15-3.91c1.41-2.87,1.39-5.76-0.05-6.47
				C349.38,441.77,347.07,443.52,345.66,446.39z"/>
			<path class="st3" d="M332.67,418.18c-1.19,2.43-0.99,4.97,0.45,5.68c1.44,0.7,3.57-0.69,4.76-3.12c1.2-2.43,1-4.98-0.44-5.68
				C336,414.35,333.86,415.75,332.67,418.18z"/>
			<path class="st3" d="M206.49,506.36c-1.43,2.93-1.19,5.98,0.54,6.83c1.73,0.85,4.29-0.83,5.72-3.75
				c1.44-2.93,1.19-5.99-0.53-6.83C210.49,501.75,207.93,503.43,206.49,506.36z"/>
			<path class="st3" d="M137,453.81c-0.98,2-0.65,4.17,0.75,4.86c1.39,0.68,3.31-0.38,4.29-2.38c0.98-2,0.65-4.17-0.74-4.85
				C139.9,450.75,137.98,451.82,137,453.81z"/>
			<path class="st3" d="M277.23,462.95c-1.41,2.87-1.39,5.76,0.05,6.47c1.44,0.7,3.74-1.05,5.15-3.92c1.41-2.87,1.39-5.76-0.05-6.47
				C280.95,458.32,278.64,460.07,277.23,462.95z"/>
			<path class="st3" d="M224.36,398.53c-1.41,2.87-1.38,5.76,0.05,6.47c1.44,0.71,3.74-1.04,5.16-3.91
				c1.41-2.87,1.38-5.77-0.05-6.47C228.08,393.91,225.77,395.66,224.36,398.53z"/>
			<path class="st3" d="M328.36,458.18c-1.04,2.11-1.02,4.24,0.04,4.76c1.05,0.52,2.76-0.77,3.79-2.88
				c1.03-2.11,1.02-4.24-0.04-4.76C331.09,454.78,329.39,456.07,328.36,458.18z"/>
			<path class="st3" d="M382.34,412.87c-1.04,2.11-1.02,4.24,0.04,4.76c1.05,0.51,2.75-0.77,3.79-2.88
				c1.04-2.11,1.02-4.24-0.04-4.76C385.08,409.47,383.38,410.76,382.34,412.87z"/>
			<path class="st3" d="M303.34,473.37c-1.03,2.11-1.02,4.24,0.04,4.76c1.06,0.52,2.75-0.77,3.79-2.88
				c1.04-2.11,1.02-4.24-0.03-4.76C306.07,469.96,304.37,471.25,303.34,473.37z"/>
			<path class="st3" d="M243.5,453.86c-1.04,2.11-1.02,4.24,0.04,4.76c1.06,0.52,2.75-0.77,3.79-2.88c1.04-2.11,1.02-4.24-0.03-4.76
				C246.23,450.46,244.54,451.75,243.5,453.86z"/>
			<path class="st3" d="M268.96,522.31c-1.04,2.11-1.02,4.24,0.04,4.76c1.05,0.52,2.75-0.78,3.79-2.89c1.04-2.1,1.02-4.24-0.03-4.75
				C271.7,518.91,270,520.2,268.96,522.31z"/>
			<path class="st3" d="M272.89,491.57c-1.04,2.11-1.02,4.24,0.04,4.76c1.06,0.51,2.75-0.77,3.79-2.88
				c1.04-2.11,1.02-4.24-0.04-4.76C275.62,488.16,273.93,489.45,272.89,491.57z"/>
			<path class="st3" d="M277.27,388.71c-1.04,2.1-1.02,4.24,0.04,4.76c1.06,0.52,2.75-0.77,3.79-2.88c1.04-2.11,1.02-4.24-0.04-4.76
				C280,385.3,278.3,386.59,277.27,388.71z"/>
			<path class="st3" d="M311.37,440.7c-1.04,2.11-1.02,4.24,0.04,4.76c1.06,0.52,2.75-0.77,3.79-2.88c1.04-2.11,1.02-4.24-0.04-4.76
				C314.11,437.3,312.41,438.59,311.37,440.7z"/>
			<path class="st3" d="M319.39,374.74c-1.03,2.1-1.02,4.23,0.04,4.76c1.06,0.52,2.75-0.77,3.79-2.88c1.03-2.11,1.02-4.24-0.04-4.76
				C322.12,371.34,320.43,372.62,319.39,374.74z"/>
			<path class="st3" d="M360.13,404.6c-1.04,2.11-1.02,4.24,0.03,4.76c1.06,0.51,2.76-0.77,3.79-2.89c1.04-2.11,1.02-4.24-0.03-4.76
				C362.87,401.2,361.17,402.49,360.13,404.6z"/>
			<path class="st3" d="M376.84,440.93c-1.04,2.11-1.03,4.24,0.04,4.76c1.05,0.52,2.75-0.78,3.79-2.88
				c1.04-2.11,1.02-4.24-0.03-4.76C379.57,437.53,377.87,438.81,376.84,440.93z"/>
			<path class="st3" d="M335.89,526.43c-1.38,1.9-1.72,4-0.77,4.69c0.95,0.69,2.84-0.3,4.22-2.2c1.38-1.9,1.72-4.01,0.77-4.7
				C339.15,523.53,337.26,524.52,335.89,526.43z"/>
			<path class="st3" d="M210.36,563.74c-1.38,1.91-1.72,4.01-0.77,4.7c0.95,0.69,2.84-0.3,4.22-2.2c1.38-1.91,1.72-4.01,0.77-4.7
				C213.62,560.85,211.74,561.83,210.36,563.74z"/>
			<path class="st3" d="M194.95,481.53c-1.38,1.9-1.72,4-0.77,4.7c0.95,0.69,2.84-0.3,4.22-2.2c1.38-1.91,1.72-4.01,0.77-4.7
				C198.22,478.63,196.33,479.62,194.95,481.53z"/>
			<path class="st3" d="M207.06,534.49c-0.62,1.25-0.61,2.52,0.02,2.83c0.63,0.31,1.64-0.46,2.26-1.72
				c0.62-1.25,0.61-2.53-0.02-2.83C208.69,532.46,207.68,533.23,207.06,534.49z"/>
			<path class="st3" d="M233.06,498.56c-0.62,1.26-0.61,2.53,0.02,2.84c0.63,0.31,1.64-0.46,2.26-1.72
				c0.62-1.26,0.61-2.53-0.02-2.84C234.69,496.53,233.68,497.3,233.06,498.56z"/>
			<path class="st3" d="M293.96,501.12c-0.62,1.26-0.61,2.52,0.02,2.83c0.63,0.31,1.64-0.46,2.26-1.72
				c0.62-1.25,0.61-2.53-0.02-2.83C295.59,499.09,294.58,499.86,293.96,501.12z"/>
			<path class="st3" d="M239.02,519.64c-0.62,1.26-0.61,2.52,0.02,2.84c0.63,0.31,1.64-0.46,2.26-1.72
				c0.62-1.25,0.61-2.53-0.02-2.84C240.65,517.61,239.64,518.38,239.02,519.64z"/>
			<path class="st3" d="M316.6,407.29c-0.62,1.25-0.61,2.52,0.02,2.83c0.63,0.31,1.64-0.46,2.26-1.72c0.62-1.26,0.61-2.53-0.02-2.84
				C318.23,405.26,317.22,406.03,316.6,407.29z"/>
			<path class="st3" d="M278.58,371.93c-0.62,1.26-0.61,2.52,0.02,2.83c0.63,0.31,1.64-0.46,2.26-1.72
				c0.62-1.26,0.61-2.53-0.02-2.83C280.22,369.9,279.2,370.67,278.58,371.93z"/>
			<path class="st3" d="M385.39,458.05c-0.62,1.25-0.61,2.52,0.02,2.84c0.63,0.31,1.65-0.46,2.26-1.71
				c0.62-1.26,0.61-2.53-0.02-2.84C387.02,456.02,386,456.79,385.39,458.05z"/>
			<path class="st3" d="M175.44,435.51c-0.62,1.26-0.61,2.53,0.02,2.84c0.63,0.3,1.65-0.47,2.27-1.72c0.62-1.26,0.61-2.53-0.02-2.84
				C177.07,433.48,176.05,434.25,175.44,435.51z"/>
			<path class="st3" d="M136.82,512.31c-0.62,1.26-0.61,2.53,0.02,2.84c0.63,0.31,1.64-0.46,2.26-1.71
				c0.62-1.26,0.61-2.53-0.02-2.84C138.46,510.28,137.44,511.04,136.82,512.31z"/>
			<path class="st3" d="M322.45,315.57c-0.62,1.26-0.61,2.53,0.02,2.84c0.63,0.31,1.64-0.46,2.26-1.72
				c0.62-1.26,0.61-2.53-0.02-2.84C324.08,313.54,323.07,314.31,322.45,315.57z"/>
			<path class="st3" d="M251.92,544.45c-0.62,1.25-0.61,2.52,0.02,2.83c0.63,0.31,1.64-0.46,2.26-1.71
				c0.62-1.26,0.61-2.53-0.02-2.84C253.56,542.43,252.54,543.19,251.92,544.45z"/>
			<path class="st3" d="M233.69,584.55c-0.62,1.26-0.61,2.53,0.02,2.84c0.63,0.31,1.64-0.46,2.26-1.72
				c0.62-1.26,0.61-2.53-0.02-2.84C235.33,582.52,234.31,583.29,233.69,584.55z"/>
			<path class="st3" d="M279.56,428.53c-0.62,1.26-0.61,2.53,0.02,2.83c0.63,0.31,1.65-0.46,2.26-1.71
				c0.62-1.26,0.61-2.53-0.02-2.84C281.2,426.5,280.19,427.27,279.56,428.53z"/>
			<path class="st3" d="M226.02,345.25c-0.62,1.26-0.61,2.52,0.02,2.83c0.63,0.31,1.65-0.46,2.26-1.71
				c0.62-1.26,0.61-2.53-0.02-2.84C227.66,343.23,226.64,344,226.02,345.25z"/>
			<path class="st3" d="M368.44,489.13c-1.18,2.39-0.75,4.99,0.94,5.83c1.69,0.82,4.02-0.43,5.19-2.82c1.18-2.39,0.76-5-0.94-5.83
				C371.94,485.48,369.62,486.74,368.44,489.13z"/>
		</g>
		<g>
			<path class="st3" d="M201.48,305.68c-30.21,18.87-42.91,47.93-42.91,47.93c17.28-17.1,33.74-29.97,47.89-39.49L201.48,305.68z"/>
			<path class="st3" d="M212.73,310.03c23.4-14.88,39.08-19.99,39.08-19.99c-17.24,0.87-31.75,5.51-43.84,11.91L212.73,310.03z"/>
		</g>
	</g>
	<g>
		<path d="M196.05,604.8c0,0,112.67,9.19,174.92-90.64C433.23,414.33,386,343.88,376,301.72c0,0,93.69,119.25-10.08,240.69
			C290.21,631.03,196.05,604.8,196.05,604.8z"/>
		<g>
			<path d="M107.94,329.18c30.87-51.59,80.93-79.86,131.09-87.66c-52.53,2.98-107.7,29.75-140.2,84.07
				c-38.98,65.17-38.7,147.49-7.26,200.41C67.01,469.95,70.32,392.07,107.94,329.18z"/>
		</g>
	</g>
	<g>
		<g>
			<path class="st4" d="M370.82,257.68c0,0-12.09-37.26-27.82-44.06l-3.7,4.97c0,0,14,4.38,28.61,40.05L370.82,257.68z"/>
			<path class="st4" d="M358.34,248.6c-19.93,13.57-42.21,44.74-3.12,118.47c33.27,62.74,59.88,68.42,69.5,88.88
				c0,0,46.15-75.7,17-149.69C412.58,232.27,369.22,241.18,358.34,248.6z"/>
			<g>
				<path d="M354.75,358.97c-16.8-54.67-10.13-85.39,2.97-102.9c-19.08,14.24-36.71,45.15-4.39,114.77
					c8.46,18.22,16.62,31.85,24.18,42.51C370.06,400.25,362.15,383.07,354.75,358.97z"/>
			</g>
			<path d="M438.29,299.43c19.46,37.84,18.7,78.17,13.2,108.81c8.13-28.85,12.94-68.7-3.41-107.57
				c-24.39-58.01-56.5-63.91-74.15-60.05C392.45,242.98,416.38,256.82,438.29,299.43z"/>
			<g>
				<path class="st3" d="M367.87,262.34c0,0,36.18,77.21,52.09,160.56C419.96,422.9,407.5,308.65,367.87,262.34z"/>
				<path class="st3" d="M369.28,276.77c0,0-19.75,16.25-14.11,54.37C355.17,331.14,361.35,301.83,369.28,276.77z"/>
				<path class="st3" d="M380.41,312.52c0,0-15.8,17.57-5.39,51.64C375.02,364.16,376.62,336.52,380.41,312.52z"/>
				<path class="st3" d="M398.89,351.72c0,0-13.58,15.1-4.63,44.36C394.26,396.08,395.63,372.34,398.89,351.72z"/>
				<path class="st3" d="M398.7,309.3c0,0,23.25,4.25,35.83,37.57C434.53,346.87,416.37,325.97,398.7,309.3z"/>
				<path class="st3" d="M414.28,358.08c0,0,18.63,8.08,22.65,38.42C436.93,396.5,425.81,375.47,414.28,358.08z"/>
				<path class="st3" d="M382.55,267.93c0,0,25.57-0.58,46.18,31.98C428.73,299.91,404.92,281.74,382.55,267.93z"/>
			</g>
		</g>
		<g>
			<path class="st4" d="M316.33,199.65c0,0,26.01,4.56,35.02-2.67l-1.79-3.77c0,0-7.02,6.96-32.88,4.4L316.33,199.65z"/>
			<path class="st4" d="M325.68,195.08c-1.79-16.15-13.33-39.26-69.57-39.24c-47.86,0.02-59.64,14.07-74.86,13.34
				c0,0,30.52,51.37,83.78,57.36C318.29,232.54,326.66,203.9,325.68,195.08z"/>
			<g>
				<path d="M256.98,154.08c38.54,0.87,56.77,11.66,65.18,23.76c-5.05-15.23-21.08-33.07-72.47-27.19
					c-13.45,1.54-23.9,3.87-32.33,6.43C227.33,155.11,240,153.7,256.98,154.08z"/>
			</g>
			<path d="M260.95,225.2c-28.51-3.16-50.88-18.6-66.04-33.11c13.18,15.31,33.77,32.85,61.7,38.14c41.67,7.9,56.94-7.94,61.34-19.29
				C309.72,220.47,293.04,228.76,260.95,225.2z"/>
			<g>
				<path class="st3" d="M314.49,196.42c0,0-57.4-2.82-112.05-19.64C202.43,176.78,274.4,205.41,314.49,196.42z"/>
				<path class="st3" d="M299.05,192.44c0,0-5.48-14.96-29.05-19.5C270,172.94,285.95,182.61,299.05,192.44z"/>
				<path class="st3" d="M266.37,188.44c0,0-4.71-12.85-24.96-16.75C241.41,171.69,255.12,180,266.37,188.44z"/>
				<path class="st3" d="M233.13,181.33c0,0-4.21-11.17-21.9-14.41C211.23,166.92,223.25,174.06,233.13,181.33z"/>
				<path class="st3" d="M295.2,204.34c0,0-9.87,12.51-33.68,9.49C261.52,213.83,279.7,209.61,295.2,204.34z"/>
				<path class="st3" d="M257.73,195.6c0,0-10.69,8.54-30.03,1.37C227.7,196.97,243.73,196.98,257.73,195.6z"/>
			</g>
		</g>
		<path class="st4" d="M311.79,254.7c6.64,4.82,31.33,13.84,28.92,7.23c-2.41-6.61-11.35-5.18-3.91-21.4
			c7.44-16.23,26.82-66.33,26.82-66.33s-2.38-0.89-6.22,0.66c-3.84,1.55-32.45,72.64-36.34,73.62
			C317.16,249.45,305.6,250.21,311.79,254.7z"/>
	</g>
</g>
<g>
	<path class="st4" d="M806.05,509.34c7.2-25.87,32.13-60.51,123.88-45.58c78.06,12.7,93.55,38.74,118.57,41.59
		c0,0-63.39,75.71-151.85,71.37C808.19,572.39,802.11,523.47,806.05,509.34z"/>
	<g>
		<path d="M960.65,468.99c-62.25-13.53-95.72-3.25-113.91,12.93c14.02-22.51,46.67-44.96,126.96-15.62
			c21.01,7.68,36.9,15.47,49.44,22.86C1007.9,482.12,988.08,474.95,960.65,468.99z"/>
	</g>
	<path d="M888.21,575.54c46.87,7.03,89.15-8.17,119.5-24.92c-27.53,18.87-67.85,38.18-114.7,34.8
		c-69.91-5.02-87.59-36.79-89.82-56.78C812.3,547.33,835.44,567.64,888.21,575.54z"/>
	<g>
		<path class="st3" d="M823.95,514.49c0,0,94.37,10.61,187.98-2.37C1011.93,512.12,886.95,539.77,823.95,514.49z"/>
		<path class="st3" d="M839.67,510.83c0,0,10.09-26.64,52.33-34.3C892,476.53,863.28,493.51,839.67,510.83z"/>
		<path class="st3" d="M881.37,509.8c0,0,12.9-22.94,52.55-24.11C933.92,485.68,905.33,497.23,881.37,509.8z"/>
		<path class="st3" d="M929.31,515.3c0,0,11.08-19.71,45.15-20.72C974.46,494.58,949.9,504.5,929.31,515.3z"/>
		<path class="st3" d="M884.49,530.24c0,0,12.78,23.02,52.43,24.39C936.92,554.63,908.4,542.94,884.49,530.24z"/>
		<path class="st3" d="M941.51,529.26c0,0,15.18,16.77,48.62,10.18C990.13,539.44,963.98,535.22,941.51,529.26z"/>
		<path class="st3" d="M835.09,527.98c0,0,8.51,27.18,50.22,37.31C885.31,565.29,857.65,546.65,835.09,527.98z"/>
	</g>
</g>
<g>
	<path class="st4" d="M469.32,897.55c0,0-23.85,11.33-34.46,6.77l0.72-4.11c0,0,8.62,4.83,32.86-4.53L469.32,897.55z"/>
	<path class="st4" d="M459.09,895.64c-2.58-16.04,2.38-41.39,56.6-56.37c46.13-12.74,61.23-2.34,75.7-7.1
		c0,0-15.72,57.65-65.46,77.62C476.2,929.77,460.5,904.4,459.09,895.64z"/>
	<g>
		<path d="M514.37,837.81c-36.91,11.11-51.6,26.37-56.48,40.28c0.81-16.02,11.5-37.49,62.6-45.53c13.37-2.1,24.07-2.65,32.87-2.42
			C543.22,830.89,530.64,832.91,514.37,837.81z"/>
	</g>
	<path d="M529.51,907.41c26.63-10.65,44.08-31.5,54.82-49.52c-8.62,18.27-23.79,40.66-49.29,53.21
		c-38.06,18.73-56.99,7.53-64.26-2.23C481.24,915.86,499.53,919.4,529.51,907.41z"/>
	<g>
		<path class="st3" d="M470.24,893.95c0,0,54.57-18.02,102.76-48.81C573,845.14,511.26,891.93,470.24,893.95z"/>
		<path class="st3" d="M484.05,885.99c0,0,1.29-15.88,22.8-26.54C506.85,859.45,494.05,873.03,484.05,885.99z"/>
		<path class="st3" d="M514.48,873.43c0,0,1.11-13.64,19.59-22.8C534.07,850.63,523.08,862.29,514.48,873.43z"/>
		<path class="st3" d="M544.63,857.71c0,0,1.07-11.88,17.26-19.73C561.89,837.98,552.21,848.07,544.63,857.71z"/>
		<path class="st3" d="M490.93,896.44c0,0,12.84,9.42,34.99,0.17C525.92,896.6,507.28,897.38,490.93,896.44z"/>
		<path class="st3" d="M524.72,878.03c0,0,12.58,5.38,29.31-6.69C554.02,871.33,538.58,875.62,524.72,878.03z"/>
	</g>
</g>
<g>
	<g>
		<path class="st1" d="M833.83,655.72c-80.72,10.45-134.64,73.46-147.59,136.47c-2.95,14.35-23.95,14.96-19.68,49.04
			c4.96,39.67,25.76,35.98,32.93,50.93c24.58,51.23,89.03,77.95,173.54,74.93c110.19-3.94,165.32-79.7,170.45-149.03
			c0.75-10.08,15.92-28.92,14.6-39.16c-1.86-14.36-22.69-25.02-29.55-37.32C996.87,684.77,915.29,645.18,833.83,655.72z"/>
		<path class="st2" d="M703.04,898.86c30.75,19.02,71.4,31.24,119.05,35.42c118.68,10.44,187.87-63.47,202.6-137.13
			c1.99-9.96,18.34-26.35,20.59-37.58c6.25,5.96,11.86,12.19,12.78,19.33c1.32,10.24-13.85,29.07-14.6,39.16
			c-5.13,69.33-60.26,145.1-170.45,149.03C792.29,969.97,729.89,945.69,703.04,898.86z"/>
		<g>
			<path class="st3" d="M913.39,924.9c5.39-1.11,10.12-0.29,10.56,1.82c0.42,2.11-3.6,4.72-9,5.83c-5.4,1.1-10.12,0.29-10.56-1.82
				C903.96,928.61,907.99,926,913.39,924.9z"/>
			<path class="st3" d="M883.07,928.23c3.28-0.42,6.22,1.28,6.55,3.81c0.33,2.52-2.08,4.92-5.36,5.35c-3.3,0.42-6.23-1.28-6.55-3.8
				C877.37,931.06,879.77,928.66,883.07,928.23z"/>
			<path class="st3" d="M978.2,880.88c2.55-0.33,4.8,0.89,5.04,2.72c0.24,1.84-1.63,3.59-4.18,3.92c-2.55,0.33-4.81-0.89-5.04-2.72
				C973.77,882.96,975.65,881.21,978.2,880.88z"/>
			<path class="st3" d="M937.06,897.1c2.54-0.33,4.8,0.89,5.04,2.72c0.24,1.84-1.64,3.59-4.18,3.92c-2.55,0.33-4.81-0.88-5.04-2.72
				C932.63,899.19,934.51,897.43,937.06,897.1z"/>
			<path class="st3" d="M867.05,927.37c2.54-0.33,4.8,0.89,5.04,2.72c0.24,1.84-1.63,3.59-4.19,3.92c-2.55,0.33-4.8-0.89-5.04-2.72
				C862.62,929.46,864.5,927.7,867.05,927.37z"/>
			<path class="st3" d="M800.84,943.16c2.55-0.33,4.8,0.89,5.04,2.72c0.24,1.83-1.63,3.59-4.18,3.92c-2.55,0.32-4.8-0.89-5.04-2.72
				C796.41,945.25,798.29,943.5,800.84,943.16z"/>
			<path class="st3" d="M897.4,947.75c2.54-0.33,4.8,0.89,5.04,2.72c0.24,1.84-1.64,3.59-4.18,3.92c-2.55,0.33-4.81-0.89-5.04-2.72
				C892.97,949.83,894.85,948.08,897.4,947.75z"/>
			<path class="st3" d="M916.87,907.05c2.55-0.33,4.8,0.89,5.04,2.72c0.24,1.83-1.64,3.59-4.19,3.92c-2.55,0.33-4.8-0.89-5.04-2.72
				C912.45,909.13,914.32,907.38,916.87,907.05z"/>
			<path class="st3" d="M973.47,843.01c2.55-0.33,4.8,0.89,5.04,2.73c0.24,1.83-1.64,3.59-4.18,3.92c-2.55,0.32-4.81-0.89-5.04-2.72
				C969.05,845.1,970.92,843.34,973.47,843.01z"/>
			<path class="st3" d="M944.04,913c2.54-0.33,4.8,0.89,5.04,2.72c0.24,1.84-1.64,3.59-4.19,3.92c-2.54,0.32-4.8-0.89-5.04-2.72
				C939.62,915.08,941.49,913.33,944.04,913z"/>
			<path class="st3" d="M807.19,841.67c2.54-0.33,4.8,0.89,5.04,2.72c0.24,1.84-1.63,3.59-4.19,3.92c-2.54,0.32-4.8-0.89-5.04-2.72
				C802.76,843.75,804.64,842,807.19,841.67z"/>
			<path class="st3" d="M766.84,930.48c2.55-0.33,4.8,0.89,5.04,2.72c0.24,1.84-1.64,3.59-4.18,3.92c-2.55,0.33-4.81-0.89-5.04-2.72
				C762.42,932.56,764.3,930.81,766.84,930.48z"/>
			<path class="st3" d="M711.57,867.74c2.55-0.33,4.8,0.89,5.04,2.72c0.24,1.83-1.64,3.59-4.19,3.92c-2.55,0.33-4.81-0.89-5.04-2.72
				C707.14,869.82,709.02,868.07,711.57,867.74z"/>
			<path class="st3" d="M912.58,816.67c2.55-0.33,4.8,0.89,5.04,2.72c0.24,1.83-1.64,3.59-4.18,3.92c-2.55,0.33-4.81-0.89-5.04-2.72
				C908.16,818.75,910.03,817,912.58,816.67z"/>
			<path class="st3" d="M818.18,753.02c2.55-0.33,4.8,0.89,5.04,2.72c0.24,1.83-1.64,3.59-4.19,3.92s-4.8-0.89-5.04-2.72
				C813.76,755.1,815.63,753.35,818.18,753.02z"/>
			<path class="st3" d="M970.53,789.98c3.67-0.47,6.85,0.86,7.12,2.99c0.28,2.12-2.46,4.23-6.13,4.7c-3.66,0.48-6.85-0.86-7.12-2.98
				C964.13,792.56,966.87,790.46,970.53,789.98z"/>
			<path class="st3" d="M834.29,934.26c3.66-0.47,6.82,0.63,7.06,2.46c0.23,1.83-2.54,3.7-6.2,4.18c-3.66,0.48-6.82-0.63-7.06-2.46
				C827.85,936.6,830.62,934.73,834.29,934.26z"/>
			<path class="st3" d="M746,879.73c5.56-0.72,10.36,0.95,10.72,3.74c0.35,2.78-3.86,5.63-9.42,6.35
				c-5.56,0.72-10.36-0.96-10.73-3.74C736.22,883.3,740.43,880.45,746,879.73z"/>
			<path class="st3" d="M778.84,900.28c4.56-0.59,8.48,0.78,8.78,3.06c0.29,2.28-3.16,4.61-7.72,5.2c-4.56,0.59-8.49-0.78-8.78-3.06
				C770.83,903.2,774.27,900.87,778.84,900.28z"/>
			<path class="st3" d="M967.04,909.61c4.21-2.29,8.54-2.43,9.7-0.32c1.14,2.11-1.34,5.67-5.55,7.96c-4.21,2.29-8.55,2.43-9.69,0.32
				C960.35,915.46,962.83,911.9,967.04,909.61z"/>
			<path class="st3" d="M893.96,908.45c3.66-0.48,6.82,0.62,7.06,2.45c0.24,1.83-2.54,3.7-6.2,4.18c-3.66,0.48-6.82-0.62-7.06-2.46
				C887.53,910.79,890.3,908.92,893.96,908.45z"/>
			<path class="st3" d="M849.83,918.36c3.16-0.41,5.9,0.54,6.11,2.13c0.2,1.59-2.19,3.21-5.37,3.62c-3.17,0.41-5.9-0.54-6.11-2.13
				C844.26,920.39,846.66,918.77,849.83,918.36z"/>
			<path class="st3" d="M827.31,896.98c2.68-0.34,5.03,0.66,5.23,2.25c0.2,1.59-1.8,3.16-4.49,3.5c-2.69,0.35-5.03-0.66-5.23-2.25
				C822.62,898.9,824.62,897.33,827.31,896.98z"/>
			<path class="st3" d="M1024.7,797.15c3.23-0.41,6.05,0.8,6.3,2.71c0.25,1.91-2.17,3.8-5.4,4.21c-3.24,0.42-6.05-0.8-6.3-2.7
				C1019.05,799.45,1021.47,797.57,1024.7,797.15z"/>
			<path class="st3" d="M924.04,723.2c2.21-0.28,4.15,0.73,4.36,2.27c0.2,1.53-1.43,3.01-3.64,3.29c-2.21,0.29-4.16-0.73-4.35-2.26
				C920.21,724.96,921.83,723.48,924.04,723.2z"/>
			<path class="st3" d="M887.54,858.91c3.17-0.41,5.9,0.55,6.11,2.13c0.21,1.58-2.2,3.2-5.37,3.62c-3.17,0.41-5.9-0.54-6.11-2.13
				C881.96,860.94,884.36,859.31,887.54,858.91z"/>
			<path class="st3" d="M1015.16,764.1c3.17-0.41,5.9,0.55,6.11,2.13c0.21,1.59-2.19,3.21-5.36,3.62c-3.17,0.41-5.91-0.55-6.11-2.13
				C1009.59,766.13,1012,764.51,1015.16,764.1z"/>
			<path class="st3" d="M866.56,905.77c2.33-0.3,4.34,0.4,4.49,1.56c0.15,1.17-1.62,2.36-3.95,2.66c-2.33,0.3-4.34-0.4-4.5-1.57
				C862.46,907.27,864.23,906.07,866.56,905.77z"/>
			<path class="st3" d="M888.72,884.88c4.64-0.6,8.65,0.8,8.96,3.12c0.3,2.33-3.23,4.7-7.87,5.3c-4.64,0.6-8.65-0.8-8.95-3.12
				C880.56,887.85,884.08,885.48,888.72,884.88z"/>
			<path class="st3" d="M882.87,793.07c2.33-0.3,4.34,0.4,4.49,1.57c0.15,1.17-1.62,2.36-3.95,2.66c-2.33,0.3-4.35-0.4-4.49-1.56
				C878.77,794.57,880.53,793.38,882.87,793.07z"/>
			<path class="st3" d="M946.4,870.19c2.33-0.3,4.34,0.4,4.5,1.57c0.15,1.16-1.62,2.35-3.95,2.66c-2.33,0.3-4.34-0.4-4.49-1.56
				C942.3,871.69,944.07,870.49,946.4,870.19z"/>
			<path class="st3" d="M916.03,864.01c2.33-0.3,4.34,0.4,4.49,1.57c0.15,1.17-1.62,2.36-3.95,2.66c-2.33,0.3-4.34-0.4-4.5-1.56
				C911.93,865.5,913.69,864.31,916.03,864.01z"/>
			<path class="st3" d="M838.34,801.82c2.33-0.31,4.34,0.4,4.49,1.56c0.15,1.17-1.62,2.36-3.95,2.66c-2.33,0.3-4.34-0.4-4.49-1.57
				C834.24,803.31,836.01,802.12,838.34,801.82z"/>
			<path class="st3" d="M855.49,884.07c2.33-0.3,4.34,0.4,4.5,1.56c0.15,1.17-1.62,2.36-3.95,2.66c-2.33,0.3-4.34-0.4-4.49-1.57
				C851.39,885.56,853.15,884.37,855.49,884.07z"/>
			<path class="st3" d="M790.46,870.42c2.32-0.3,4.33,0.4,4.49,1.57c0.15,1.17-1.62,2.36-3.95,2.66c-2.33,0.3-4.34-0.4-4.5-1.57
				C786.35,871.91,788.11,870.72,790.46,870.42z"/>
			<path class="st3" d="M805.61,918.61c2.33-0.3,4.34,0.4,4.5,1.56c0.14,1.17-1.62,2.36-3.95,2.66c-2.33,0.3-4.34-0.39-4.49-1.56
				C801.51,920.1,803.27,918.91,805.61,918.61z"/>
			<path class="st3" d="M855.19,946.16c5.93-0.77,11.05,1,11.44,3.99c0.38,2.96-4.12,5.99-10.04,6.76
				c-5.94,0.77-11.05-1.02-11.44-3.99C844.76,949.95,849.25,946.92,855.19,946.16z"/>
			<path class="st3" d="M928.75,934.88c2.24-0.69,4.34-0.34,4.69,0.78c0.35,1.13-1.19,2.6-3.44,3.29c-2.25,0.69-4.35,0.34-4.7-0.79
				C924.96,937.03,926.5,935.56,928.75,934.88z"/>
			<path class="st3" d="M1004.49,828.05c2.25-0.69,4.35-0.34,4.69,0.78c0.35,1.13-1.2,2.6-3.44,3.29c-2.25,0.69-4.35,0.34-4.7-0.79
				C1000.7,830.2,1002.24,828.73,1004.49,828.05z"/>
			<path class="st3" d="M931.62,786.99c2.25-0.69,4.35-0.34,4.7,0.79c0.34,1.12-1.2,2.6-3.44,3.29c-2.25,0.69-4.35,0.34-4.7-0.79
				C927.83,789.15,929.37,787.68,931.62,786.99z"/>
			<path class="st3" d="M977.87,815.5c1.38-0.19,2.58,0.23,2.68,0.93c0.09,0.7-0.96,1.4-2.36,1.59c-1.39,0.18-2.59-0.23-2.68-0.93
				C975.42,816.4,976.47,815.68,977.87,815.5z"/>
			<path class="st3" d="M935.48,828.55c1.39-0.18,2.59,0.24,2.68,0.93c0.09,0.69-0.96,1.41-2.35,1.59c-1.4,0.18-2.59-0.24-2.68-0.93
				C933.03,829.44,934.09,828.73,935.48,828.55z"/>
			<path class="st3" d="M918.29,887.03c1.39-0.18,2.59,0.23,2.68,0.93c0.09,0.7-0.97,1.41-2.35,1.59c-1.39,0.18-2.59-0.24-2.68-0.93
				C915.85,887.92,916.9,887.21,918.29,887.03z"/>
			<path class="st3" d="M953.51,840.98c1.39-0.18,2.59,0.23,2.68,0.93c0.09,0.7-0.97,1.41-2.36,1.59c-1.39,0.18-2.59-0.23-2.68-0.93
				C951.07,841.87,952.12,841.16,953.51,840.98z"/>
			<path class="st3" d="M822.17,878.26c1.38-0.18,2.58,0.23,2.67,0.93c0.09,0.7-0.96,1.41-2.35,1.59c-1.39,0.18-2.59-0.24-2.68-0.93
				C819.72,879.15,820.77,878.44,822.17,878.26z"/>
			<path class="st3" d="M785.86,816.03c1.39-0.18,2.59,0.24,2.68,0.93c0.09,0.7-0.97,1.41-2.35,1.59c-1.39,0.18-2.59-0.24-2.68-0.93
				C783.42,816.92,784.47,816.21,785.86,816.03z"/>
			<path class="st3" d="M848.08,959.72c1.39-0.18,2.59,0.24,2.68,0.93c0.09,0.7-0.96,1.41-2.35,1.59c-1.39,0.19-2.59-0.24-2.68-0.93
				C845.64,960.62,846.69,959.9,848.08,959.72z"/>
			<path class="st3" d="M894.33,753.7c1.39-0.18,2.59,0.23,2.68,0.93c0.09,0.7-0.97,1.41-2.35,1.59c-1.39,0.18-2.59-0.23-2.68-0.93
				C891.89,754.59,892.94,753.88,894.33,753.7z"/>
			<path class="st3" d="M979.48,741.87c1.39-0.18,2.59,0.24,2.68,0.93c0.09,0.7-0.96,1.41-2.35,1.59c-1.39,0.18-2.59-0.24-2.68-0.93
				C977.03,742.76,978.08,742.05,979.48,741.87z"/>
			<path class="st3" d="M733.45,854.26c1.39-0.18,2.59,0.24,2.68,0.93c0.09,0.7-0.97,1.41-2.35,1.59c-1.39,0.18-2.59-0.24-2.68-0.93
				C731.01,855.16,732.06,854.45,733.45,854.26z"/>
			<path class="st3" d="M972.85,861.18c1.39-0.18,2.59,0.24,2.67,0.94c0.09,0.69-0.96,1.41-2.35,1.59
				c-1.39,0.18-2.59-0.24-2.68-0.94C970.41,862.08,971.46,861.37,972.85,861.18z"/>
			<path class="st3" d="M1016.68,856.84c1.39-0.18,2.59,0.24,2.68,0.93c0.09,0.7-0.97,1.41-2.35,1.59
				c-1.39,0.18-2.59-0.24-2.69-0.93C1014.24,857.73,1015.29,857.02,1016.68,856.84z"/>
			<path class="st3" d="M854.2,850.03c1.39-0.18,2.59,0.24,2.68,0.93c0.09,0.7-0.96,1.41-2.35,1.59c-1.39,0.18-2.59-0.23-2.68-0.93
				C851.76,850.93,852.81,850.22,854.2,850.03z"/>
			<path class="st3" d="M858.31,828.43c1.39-0.18,2.59,0.23,2.68,0.93c0.09,0.7-0.96,1.41-2.35,1.59c-1.39,0.18-2.59-0.23-2.68-0.93
				C855.87,829.32,856.92,828.62,858.31,828.43z"/>
			<path class="st3" d="M882.96,953.69c2.64-0.34,4.97,0.9,5.22,2.77c0.24,1.87-1.7,3.66-4.35,4.01c-2.64,0.34-4.97-0.9-5.21-2.76
				C878.38,955.83,880.32,954.03,882.96,953.69z"/>
		</g>
		<g>
			<path class="st3" d="M776.95,737.14c29.6-19.83,61.31-19.5,61.31-19.5c-22.68,8.76-41.16,18.5-55.64,27.51L776.95,737.14z"/>
			<path class="st3" d="M776.31,749.18c-23.16,15.25-34.25,27.45-34.25,27.45c7.85-15.37,18.04-26.71,28.83-35.11L776.31,749.18z"/>
		</g>
	</g>
	<g>
		<path d="M1046.27,826.67c0,0-32.06,111.79-150.76,135.45c-118.7,23.68-169.36-47.37-206.3-72.29c0,0,80.76,133.48,235.34,77.7
			C1037.32,926.82,1046.27,826.67,1046.27,826.67z"/>
		<g>
			<path d="M802.75,658.66c-58.71,17.79-99.09,60.36-119.22,108.09c15.95-51.27,56.1-99.27,117.91-117.99
				c74.16-22.47,155.59-1.81,200.2,42.4C952.24,652.97,874.32,636.98,802.75,658.66z"/>
		</g>
	</g>
</g>
<g>
	<g>
		
			<ellipse transform="matrix(0.9256 -0.3785 0.3785 0.9256 -295.5903 154.2413)" class="st1" cx="244.56" cy="829.04" rx="152.37" ry="148.57"/>
		<path class="st2" d="M385.11,770.18c-13.71-32.7-38.06-57.79-67.55-73.14c11.34,12.21,20.75,26.54,27.55,42.74
			c31.73,75.67-5.47,163.37-83.09,195.88c-44.08,18.46-91.71,15.15-130.45-5.01c41.64,44.81,109.45,60.96,170.45,35.41
			C379.64,933.55,416.84,845.85,385.11,770.18z"/>
		<path class="st3" d="M371.83,775.74c28.74,68.52-4.95,147.94-75.24,177.38c-70.29,29.44-150.57-2.25-179.3-70.77
			c-28.74-68.52,4.95-147.94,75.24-177.38C262.82,675.53,343.1,707.21,371.83,775.74z"/>
		<path class="st1" d="M240.03,821.07c-8.24,3.93-61.5-46.73-82.71-69.58c-2.72-2.94-15.23-12.37,28.01-34.86
			c38.89-20.23,45.63-9.95,46.85-4.37C241.38,754.06,244.99,818.7,240.03,821.07z"/>
		<path class="st1" d="M250.38,819.43c-8.17-3.78-0.64-77,4.49-107.88c0.65-3.97,0.48-19.58,44.83-0.9
			c39.9,16.8,35.87,28.53,32.19,33.06C304.37,777.52,255.3,821.71,250.38,819.43z"/>
		<path class="st1" d="M256.92,827.12c-2.01-8.67,60.69-49.83,88.33-65.69c3.55-2.04,15.82-12.18,28.2,33.72
			c11.13,41.3-0.64,45.73-6.48,45.82C323.27,841.58,258.13,832.34,256.92,827.12z"/>
		<path class="st1" d="M255.06,836.64c5.65-7.1,76.75,14.52,106.28,25.51c3.79,1.41,19.37,4.3-9.47,43.19
			c-25.93,34.98-36.67,28.81-40.32,24.4C284.27,896.68,251.66,840.9,255.06,836.64z"/>
		<path class="st1" d="M246.37,841.31c9.09-0.22,35.54,68.03,44.93,97.68c1.21,3.81,8.46,17.58-40.07,20.43
			c-43.65,2.57-45.35-9.61-44.08-15.23C216.65,902.14,240.89,841.44,246.37,841.31z"/>
		<path class="st1" d="M237.33,837.66c5.75,6.82-32.18,70.8-49.93,96.97c-2.28,3.36-8.75,17.74-40.78-17.57
			c-28.8-31.76-20.19-40.86-14.95-43.49C170.85,853.89,233.87,833.55,237.33,837.66z"/>
		<path class="st1" d="M234.69,828.4c-1.88,8.77-75.9,20.74-107.55,23.92c-4.07,0.41-19.44,4.67-11.07-42.46
			c7.53-42.4,20.04-41.63,25.33-39.31C181.04,787.92,235.82,823.12,234.69,828.4z"/>
		<path class="st3" d="M229.13,808.35c4.48,5.36,10.69,5.59,7.61-5.67c-3.08-11.26-7.94-10.18-11.56-8.05
			C221.57,796.76,224.8,803.18,229.13,808.35z"/>
		<path class="st3" d="M275.32,817.13c-4.33,4.23-3.83,10.05,6.02,7.06c9.84-3,8.3-7.53,5.95-10.89
			C284.94,809.94,279.51,813.03,275.32,817.13z"/>
		<path class="st3" d="M250.18,857.85c-1.87-5.62-7.41-7.67-9.21,2.27c-1.8,9.94,3.05,10.53,7.19,9.91
			C252.31,869.4,252,863.3,250.18,857.85z"/>
		<path class="st3" d="M215.46,829.79c3.81-1.95,4.74-5.99-2.48-6.03c-7.22-0.04-7.18,3.34-6.35,6.1
			C207.47,832.63,211.77,831.68,215.46,829.79z"/>
		<path class="st3" d="M219.58,853.83c3.3-4.38,2.03-9.52-6.4-5.51c-8.44,4-6.42,7.85-3.84,10.55
			C211.93,861.56,216.39,858.06,219.58,853.83z"/>
		<path class="st3" d="M238.31,916.78c0,5.26-0.44,8.47-1.36,8.47s-1.97-3.21-1.97-8.47c0-5.26,0.9-14.51,1.81-14.51
			C237.72,902.27,238.31,911.52,238.31,916.78z"/>
		<path class="st3" d="M258.38,905.34c1.75,7.11,2.21,11.58,0.97,11.89c-1.24,0.3-3.72-3.68-5.46-10.78
			c-1.75-7.1-3.6-19.9-2.36-20.21C252.76,885.93,256.64,898.24,258.38,905.34z"/>
		<path class="st3" d="M277.16,729.55c1.53-4.25,2.83-6.71,3.57-6.44c0.74,0.27,0.65,3.17-0.88,7.41
			c-1.53,4.25-4.95,11.45-5.7,11.19C273.41,741.44,275.63,733.8,277.16,729.55z"/>
		<path class="st3" d="M315.57,809.25c4.42-0.9,7.2-1.08,7.35-0.3c0.16,0.77-2.36,2.2-6.79,3.1c-4.42,0.9-12.36,1.73-12.52,0.95
			C303.46,812.23,311.15,810.15,315.57,809.25z"/>
		<path class="st3" d="M271.36,764.11c2.09-4.01,3.7-6.27,4.39-5.91c0.7,0.37,0.23,3.22-1.86,7.23c-2.08,4.01-6.44,10.69-7.14,10.33
			C266.05,775.4,269.27,768.12,271.36,764.11z"/>
		<path class="st3" d="M302.68,755.55c3.69-5.13,6.25-8.04,6.88-7.58c0.64,0.46-0.88,4.12-4.57,9.25
			c-3.69,5.13-10.81,13.71-11.45,13.25C292.91,770.01,298.99,760.69,302.68,755.55z"/>
		<path class="st3" d="M210.18,779.18c-2.92-4.13-4.4-6.87-3.75-7.32c0.65-0.46,3.16,1.55,6.09,5.68c2.92,4.13,7.44,11.85,6.8,12.3
			C218.67,790.29,213.11,783.32,210.18,779.18z"/>
		<path class="st3" d="M208.13,739.8c-2.8-7.04-3.98-11.54-2.89-11.97c1.1-0.44,4.06,3.36,6.86,10.4c2.8,7.04,6.66,19.84,5.57,20.28
			C216.57,758.94,210.94,746.84,208.13,739.8z"/>
		<path class="st3" d="M188.31,759.01c-2.89-3.51-4.39-5.87-3.84-6.32c0.55-0.45,2.93,1.18,5.83,4.69
			c2.89,3.51,7.43,10.13,6.89,10.58C196.63,768.41,191.2,762.53,188.31,759.01z"/>
		<path class="st3" d="M229.35,762.87c-0.89-4.46-1.1-7.24-0.41-7.38c0.7-0.14,2.03,2.42,2.92,6.88c0.89,4.46,1.77,12.44,1.08,12.58
			C232.25,775.08,230.24,767.33,229.35,762.87z"/>
		<path class="st3" d="M194.51,811.98c-4.08-2.02-6.41-3.56-6.09-4.19c0.31-0.64,3.16-0.13,7.24,1.89
			c4.07,2.02,10.93,6.19,10.62,6.83C205.96,817.15,198.59,814,194.51,811.98z"/>
		<path class="st3" d="M143.43,801.13c-4.41-1.12-7.01-2.13-6.83-2.82c0.18-0.69,3.06-0.79,7.47,0.33
			c4.41,1.12,11.99,3.77,11.81,4.45C155.7,803.78,147.84,802.25,143.43,801.13z"/>
		<path class="st3" d="M184.81,868.98c-3.94,2.28-6.51,3.36-6.86,2.75c-0.36-0.61,1.64-2.7,5.58-4.98
			c3.94-2.27,11.21-5.67,11.57-5.06C195.46,862.31,188.76,866.7,184.81,868.98z"/>
		<path class="st3" d="M213.51,873.24c-2.76,3.62-4.72,5.61-5.28,5.18c-0.57-0.43,0.48-3.12,3.24-6.74
			c2.76-3.61,8.17-9.55,8.73-9.12C220.77,862.99,216.27,869.63,213.51,873.24z"/>
		<path class="st3" d="M244.92,888.86c0.53,4.52,0.51,7.31-0.19,7.39c-0.71,0.08-1.83-2.58-2.36-7.1
			c-0.53-4.52-0.77-12.54-0.07-12.63C243.01,876.45,244.39,884.34,244.92,888.86z"/>
		<path class="st3" d="M177.71,889.15c-6.54,5.64-10.74,8.82-11.2,8.28c-0.47-0.54,2.99-4.59,9.53-10.22
			c6.53-5.64,18.48-15.02,18.94-14.49C195.44,873.26,184.25,883.51,177.71,889.15z"/>
		<path class="st3" d="M181.73,905.49c-7.03,7.87-11.62,12.39-12.26,11.81c-0.65-0.58,2.9-6.03,9.93-13.9
			c7.02-7.86,20.01-21.13,20.66-20.56C200.7,883.42,188.76,897.63,181.73,905.49z"/>
		<path class="st3" d="M158.63,817.58c-6.49-1.13-10.37-2.31-10.19-3.32c0.17-1.02,4.34-1.48,10.84-0.34
			c6.49,1.13,17.74,4.12,17.56,5.13C176.66,820.06,165.13,818.72,158.63,817.58z"/>
		<path class="st3" d="M170.22,830c-9.26,0.26-14.92-0.07-14.95-1.1c-0.03-1.03,5.59-2.36,14.86-2.62
			c9.26-0.26,25.59,0.29,25.61,1.31C195.77,828.62,179.49,829.74,170.22,830z"/>
		<path class="st3" d="M316.11,824.21c6.35-0.42,10.27-0.15,10.34,0.96c0.08,1.11-3.72,2.63-10.07,3.06
			c-6.36,0.42-17.61,0.08-17.69-1.03C298.62,826.09,309.75,824.64,316.11,824.21z"/>
		<path class="st3" d="M326.84,790.2c6.95-2.84,11.33-4.22,11.62-3.49c0.3,0.73-3.6,3.29-10.55,6.14
			c-6.95,2.84-19.46,7.12-19.77,6.4C307.86,798.51,319.89,793.04,326.84,790.2z"/>
		<path class="st3" d="M259.46,749.02c1.09-6.27,2.06-10.05,2.72-9.93c0.66,0.11,0.75,4.07-0.34,10.35
			c-1.08,6.27-3.64,17.2-4.3,17.09C256.89,766.42,258.37,755.3,259.46,749.02z"/>
		<path class="st3" d="M273.36,777.77c3.75-6.5,6.36-10.28,7.04-9.88c0.68,0.39-0.82,4.81-4.57,11.32
			c-3.75,6.5-11.01,17.56-11.7,17.17C263.45,795.97,269.61,784.27,273.36,777.77z"/>
		<path class="st2" d="M285.95,923.13c-7.47,4.77-15.46,8.98-23.93,12.53c-18.03,7.55-36.66,11.46-55.03,12.06
			c0.85,5.98,8.4,13.81,44.25,11.7c48.53-2.86,41.27-16.63,40.07-20.43C289.88,934.47,288.05,929.06,285.95,923.13z"/>
		<path class="st2" d="M361.34,862.14c-4.91-1.83-10.96-3.95-17.67-6.18c-9.78,22.12-24.91,42.05-44.53,57.71
			c4.16,5.69,8.35,11.12,12.41,16.05c3.65,4.42,14.39,10.58,40.32-24.4C380.71,866.44,365.13,863.55,361.34,862.14z"/>
		<path class="st2" d="M373.45,795.15c-8.13-30.14-16.21-36.12-21.8-36.1c7.23,27.43,6.07,55.67-2.21,81.7
			c6.07,0.21,11.98,0.29,17.53,0.22C372.81,840.89,384.59,836.45,373.45,795.15z"/>
		<path class="st3" d="M351.52,809.98c9.43-1.91,15.25-2.71,15.4-1.94c0.15,0.77-5.41,2.82-14.85,4.74
			c-9.43,1.92-26.17,4.53-26.32,3.76C325.61,815.77,342.09,811.9,351.52,809.98z"/>
		<path class="st3" d="M296.26,876.93c4.9,5.44,7.42,9.16,6.47,10.02c-0.95,0.85-5.02-1.48-9.91-6.92
			c-4.9-5.44-12.58-15.84-11.63-16.69C282.14,862.48,291.36,871.5,296.26,876.93z"/>
		<path class="st3" d="M285.36,854.83c4.83,3.61,7.46,6.22,6.83,7.06c-0.63,0.84-4.29-0.39-9.12-4.01
			c-4.83-3.61-12.7-10.78-12.07-11.62C271.64,845.41,280.53,851.22,285.36,854.83z"/>
		<path class="st3" d="M337.91,873.14c3.94,2.21,6.16,3.88,5.77,4.57c-0.39,0.69-3.23,0.13-7.17-2.08
			c-3.94-2.21-10.49-6.76-10.11-7.45C326.78,867.5,333.96,870.93,337.91,873.14z"/>
		<path class="st3" d="M331.03,887.85c5.68,4.33,8.78,7.45,8.02,8.44c-0.76,0.99-5.08-0.52-10.77-4.85
			c-5.68-4.33-14.94-12.92-14.18-13.91C314.86,876.54,325.35,883.52,331.03,887.85z"/>
		<path class="st3" d="M317.85,854.39c7.08,2.49,11.27,4.37,11.01,5.11c-0.26,0.74-4.88,0.07-11.96-2.42
			c-7.08-2.49-19.28-7.6-19.02-8.35C298.14,847.99,310.77,851.9,317.85,854.39z"/>
	</g>
	<g>
		<path d="M397.46,771.13c-13.63-32.51-37.78-57.5-67.03-72.87c24.26,15.66,44.11,38.37,56.01,66.77
			c32.05,76.42-5.52,164.98-83.9,197.8c-33.54,14.05-69.12,15.61-101.37,6.81c35.14,13.01,75.47,13.16,113.2-2.64
			C391.99,934.5,429.19,846.8,397.46,771.13z"/>
		<path d="M88.73,879.25c13.63,32.51,37.78,57.5,67.03,72.87c-24.26-15.66-45.71-39.98-57.61-68.37
			c-32.05-76.41,5.52-164.97,83.9-197.8c33.54-14.05,70.72-14.01,102.97-5.21c-35.14-13.01-75.47-13.16-113.2,2.64
			C94.2,715.88,57,803.57,88.73,879.25z"/>
	</g>
</g>
<g>
	<g>
		<path class="st1" d="M410.75,588.94c13.13,37.51,40.85,69.43,79.63,86.37c75.19,32.85,163.49-3.02,197.21-80.12
			c16.48-37.69,16.87-78.25,4.18-113.71L410.75,588.94z"/>
		<path class="st2" d="M691.77,481.47l-29.58,11.31c7.55,31.45,5.24,65.77-8.86,98c-25.41,58.1-81.81,92.77-140.23,92.29
			c69.47,17.54,144.11-18.44,174.49-87.89C704.07,557.49,704.46,516.93,691.77,481.47z"/>
		<path class="st3" d="M424.03,583.86c11.88,33.99,36.99,62.91,72.12,78.25c68.09,29.75,148.05-2.73,178.59-72.55
			c14.94-34.15,15.28-70.9,3.77-103.02L424.03,583.86z"/>
		<path class="st1" d="M567.41,529.03c-2.11,2.02-3.25,3.7-3.14,4.92c0.48,5.44,62.59,23.28,105.13,28.37
			c5.69,0.68,17.72-2.27,12.34-45.48c-1.74-13.91-4.08-23.05-6.63-29L567.41,529.03z"/>
		<path class="st1" d="M535.56,541.21l-104.87,40.1c1.62,6.74,5.85,16.11,14.54,29.2c26.47,39.88,34.66,26.19,37.32,23.09
			c20.71-24.15,66-83.9,61.31-91.55C543.29,541.14,540.29,540.9,535.56,541.21z"/>
		<path class="st1" d="M561.22,543.33c6.42-6.44,72.68,24.7,99.93,39.66c3.5,1.92,18.26,6.88-14.89,42.44
			c-29.82,31.99-39.44,24.35-42.4,19.41C581.7,607.86,557.35,547.21,561.22,543.33z"/>
		<path class="st1" d="M552.16,546.93c8.87,0.96,25.58,73.44,30.8,104.63c0.67,4.01,5.91,18.88-41.63,15.44
			c-42.77-3.1-42.81-15.63-40.83-21.15C515.25,604.56,546.82,546.35,552.16,546.93z"/>
		<path class="st3" d="M575.39,552.67c-5.24-2.78-10.66-0.43-5.09,8c5.56,8.44,9.48,5.52,12.04,2.2
			C584.91,559.56,580.47,555.36,575.39,552.67z"/>
		<path class="st3" d="M530.9,556.33c1.41-4.05-0.7-7.61-5.96-2.65c-5.26,4.95-2.89,7.37-0.38,8.8
			C527.08,563.9,529.53,560.25,530.9,556.33z"/>
		<path class="st3" d="M550.47,570.88c-0.63-5.45-5.1-8.29-8.43,0.43c-3.34,8.72,0.78,10.11,4.5,10.28
			C550.27,581.76,551.08,576.15,550.47,570.88z"/>
		<path class="st3" d="M602.23,603.13c3.63,3.8,5.52,6.43,4.85,7.06c-0.66,0.64-3.63-0.96-7.26-4.77c-3.63-3.8-9.37-11.12-8.7-11.75
			C591.79,593.04,598.6,599.32,602.23,603.13z"/>
		<path class="st3" d="M614.1,581.37c6.17,3.94,9.6,6.86,8.91,7.93c-0.69,1.08-5.23-0.1-11.4-4.03
			c-6.17-3.93-16.34-11.91-15.66-12.99C596.64,571.21,607.94,577.44,614.1,581.37z"/>
		<path class="st3" d="M624.85,538.18c7.3,0.55,11.7,1.51,11.6,2.78c-0.09,1.27-4.65,2.39-11.95,1.83
			c-7.29-0.55-20.03-2.77-19.94-4.05C604.66,537.47,617.56,537.63,624.85,538.18z"/>
		<path class="st3" d="M594.38,528.84c5.31-0.64,8.59-0.58,8.7,0.34c0.11,0.93-2.99,2.37-8.3,3.01c-5.3,0.64-14.74,0.85-14.86-0.07
			C579.82,531.2,589.07,529.48,594.38,528.84z"/>
		<path class="st3" d="M647.58,508.76c4.37-1.12,7.13-1.44,7.33-0.68c0.2,0.76-2.25,2.32-6.62,3.44
			c-4.37,1.12-12.26,2.35-12.46,1.59C635.63,512.35,643.2,509.88,647.58,508.76z"/>
		<path class="st3" d="M661.27,523.17c7.1-0.79,11.5-0.67,11.63,0.57c0.14,1.24-4.04,3.14-11.14,3.92
			c-7.1,0.79-19.72,0.96-19.86-0.27C641.77,526.15,654.17,523.96,661.27,523.17z"/>
		<path class="st3" d="M501.89,561.58c-4.06,2.05-6.69,2.99-7,2.36c-0.32-0.63,1.79-2.6,5.85-4.65c4.06-2.05,11.51-5.03,11.83-4.4
			C512.89,555.53,505.95,559.54,501.89,561.58z"/>
		<path class="st3" d="M457.62,590.54c-3.96,2.23-6.54,3.29-6.89,2.68c-0.35-0.62,1.67-2.68,5.64-4.91
			c3.96-2.23,11.27-5.55,11.62-4.94C468.33,583.98,461.59,588.3,457.62,590.54z"/>
		<path class="st3" d="M535.77,605.84c-1.28,4.37-2.39,6.93-3.07,6.73c-0.68-0.2-0.68-3.09,0.61-7.45
			c1.28-4.37,4.2-11.84,4.88-11.65C538.87,593.67,537.06,601.47,535.77,605.84z"/>
		<path class="st3" d="M559.48,589.12c0.49,4.53,0.46,7.32-0.25,7.39c-0.7,0.08-1.81-2.59-2.31-7.11
			c-0.5-4.52-0.68-12.55,0.02-12.62C557.66,576.69,558.98,584.59,559.48,589.12z"/>
		<path class="st3" d="M592.99,578.74c3.5,2.9,5.42,4.94,4.97,5.48c-0.45,0.55-3.1-0.6-6.6-3.5c-3.5-2.9-9.22-8.55-8.77-9.09
			C583.04,571.08,589.49,575.83,592.99,578.74z"/>
		<path class="st3" d="M628.26,610.9c3.5,2.9,5.42,4.94,4.97,5.48c-0.45,0.55-3.1-0.6-6.61-3.5c-3.5-2.9-9.22-8.55-8.77-9.09
			C618.31,603.24,624.76,608,628.26,610.9z"/>
		<path class="st3" d="M521.34,641.04c-0.72,4.49-1.51,7.17-2.2,7.06c-0.7-0.12-1.06-2.98-0.33-7.47
			c0.73-4.49,2.69-12.28,3.39-12.17C522.9,628.58,522.07,636.55,521.34,641.04z"/>
		<path class="st3" d="M634.5,582.09c7.02,3.96,11.09,6.74,10.66,7.49c-0.43,0.76-5.19-0.8-12.21-4.75
			c-7.02-3.96-18.94-11.67-18.52-12.42C614.87,571.65,627.49,578.13,634.5,582.09z"/>
		<path class="st3" d="M544.27,619.74c-0.66,6.71-1.39,10.76-2.1,10.69c-0.71-0.07-1.11-4.24-0.45-10.94
			c0.65-6.7,2.5-18.43,3.2-18.36C545.63,601.19,544.93,613.03,544.27,619.74z"/>
		<path class="st3" d="M558.75,634.39c0.35,10.55,0.14,16.98-0.72,17.01c-0.87,0.03-2.07-6.36-2.41-16.91
			c-0.35-10.54-0.11-29.11,0.75-29.14C557.23,605.33,558.4,623.85,558.75,634.39z"/>
		<path class="st3" d="M479.8,591.28c-5.48,3.66-9.1,5.48-9.66,4.63c-0.58-0.86,2.12-4.06,7.61-7.72
			c5.48-3.66,15.68-9.26,16.25-8.41C494.56,580.63,485.29,587.62,479.8,591.28z"/>
		<path class="st3" d="M497.32,597.95c-6.52,6.58-10.85,10.25-11.58,9.52c-0.73-0.72,2.42-5.56,8.95-12.15
			c6.52-6.58,18.71-17.45,19.44-16.73C514.85,579.31,503.85,591.36,497.32,597.95z"/>
		<path class="st2" d="M661.15,582.99c-1.21-0.67-2.53-1.38-3.89-2.1c-1.19,3.32-2.5,6.61-3.93,9.89
			c-10.28,23.5-25.64,43.17-44.15,58.23c5.85,1.6,16.79-1.81,37.08-23.59C679.41,589.87,664.65,584.92,661.15,582.99z"/>
		<path class="st2" d="M681.75,516.83c-1.74-13.91-4.08-23.05-6.63-29l-12.94,4.95c5.3,22.04,5.74,45.5,0.67,68.67
			c2.22,0.32,4.42,0.61,6.55,0.87C675.1,563,687.13,560.05,681.75,516.83z"/>
	</g>
	<path d="M693.72,575.92c-23.07,82.35-106.58,131.46-186.5,109.69c-31.98-8.71-58.53-27.46-77.41-52.08
		c18.94,29.63,48.15,52.49,84.31,62.48c79.09,21.84,161.4-26.21,183.83-107.32c8.49-30.7,7.15-61.72-2.04-89.62
		C701.37,523.52,701.04,549.82,693.72,575.92z"/>
</g>
<g>
	<g>
		<path class="st1" d="M542.89,184.23l-42.8,147.08c37.83,12.19,80,9.37,116.93-11.31c17.15-9.61,31.61-22.2,43.12-36.8
			L542.89,184.23z"/>
		<path class="st2" d="M621.59,307.18c-24.8,18.29-53.1,28.52-81.89,31.23c26.22,1.11,52.91-4.75,77.32-18.41
			c17.15-9.61,31.61-22.2,43.12-36.8l-7.36-6.21C643.95,288.15,633.57,298.35,621.59,307.18z"/>
		<path class="st3" d="M542.89,184.23l-38.83,133.43c34.26,11.06,72.47,8.51,105.93-10.22c15.6-8.74,28.72-20.22,39.17-33.51
			L542.89,184.23z"/>
		<path class="st1" d="M644.74,270.19l-91.84-77.52c-0.37,0.14-0.67,0.32-0.89,0.55c-3.69,3.9,23.65,64.22,47.64,100.92
			c3.21,4.9,13.22,12.44,41.52-19.77C642.44,272.93,643.61,271.55,644.74,270.19z"/>
		<path class="st1" d="M537.43,203.01l-31.37,107.8c6.35,2.78,16.38,5.07,32.05,6.05c47.77,2.99,41.8-11.81,40.94-15.8
			c-6.75-31.09-27.02-103.28-35.94-104.15C542.04,196.8,540.04,199.05,537.43,203.01z"/>
		<path class="st3" d="M546.67,215.85c-2.37-3.56-6.49-4.03-5.71,3.15c0.78,7.18,4.13,6.76,6.78,5.61
			C550.39,223.47,548.97,219.3,546.67,215.85z"/>
		<path class="st3" d="M568.97,209.57c-4.72-2.78-9.69-0.94-4.75,6.98c4.94,7.93,8.53,5.49,10.92,2.62
			C577.52,216.31,573.54,212.27,568.97,209.57z"/>
		<path class="st3" d="M533.33,242.14c-0.82,4.47-1.65,7.14-2.35,7.01c-0.7-0.13-0.99-3-0.17-7.48c0.82-4.47,2.95-12.21,3.64-12.09
			C535.15,229.72,534.16,237.67,533.33,242.14z"/>
		<path class="st3" d="M531.91,292.16c-0.87,6.37-1.88,10.19-2.87,10.05c-1-0.14-1.6-4.18-0.72-10.54
			c0.87-6.36,3.38-17.43,4.36-17.3C533.68,274.51,532.78,285.79,531.91,292.16z"/>
		<path class="st3" d="M585.74,237.82c2.71,3.66,4.08,6.09,3.52,6.51c-0.57,0.42-2.87-1.33-5.58-4.99
			c-2.71-3.66-6.9-10.5-6.34-10.92C577.91,228,583.04,234.16,585.74,237.82z"/>
		<path class="st3" d="M599.35,269.84c3.51,4.94,5.27,8.21,4.51,8.75c-0.77,0.55-3.78-1.84-7.29-6.78
			c-3.51-4.93-8.91-14.15-8.15-14.7C589.19,256.57,595.84,264.9,599.35,269.84z"/>
		<path class="st3" d="M619.43,272.38c2.86,3.27,4.35,5.47,3.84,5.91c-0.51,0.45-2.83-1.04-5.68-4.31
			c-2.86-3.27-7.38-9.45-6.87-9.89C611.23,263.65,616.58,269.11,619.43,272.38z"/>
		<path class="st3" d="M610.58,250.25c4.95,4.57,7.73,7.61,7.25,8.13c-0.48,0.52-4.05-1.67-9-6.25
			c-4.95-4.57-13.18-13.12-12.7-13.64C596.62,237.97,605.63,245.68,610.58,250.25z"/>
		<path class="st3" d="M545.21,260.54c-0.39,6.58-1.13,10.56-2.15,10.5c-1.03-0.06-1.96-4.15-1.56-10.73
			c0.39-6.58,2.09-18.09,3.11-18.03C545.64,242.34,545.61,253.95,545.21,260.54z"/>
		<path class="st3" d="M559.53,276.19c1.31,9.18,1.61,14.84,0.6,14.98c-1.02,0.15-2.97-5.29-4.28-14.47
			c-1.31-9.18-2.61-25.46-1.6-25.6C555.27,250.96,558.22,267,559.53,276.19z"/>
	</g>
	<path d="M513.53,339.77c0,0,81.03,29.01,147.06-52.03C660.59,287.74,597.36,350.75,513.53,339.77z"/>
</g>
</svg>
