<?xml version="1.0" encoding="utf-8"?>
<!-- Generator: Adobe Illustrator 26.0.3, SVG Export Plug-In . SVG Version: 6.00 Build 0)  -->
<svg version="1.1" id="Layer_1" xmlns="http://www.w3.org/2000/svg" xmlns:xlink="http://www.w3.org/1999/xlink" x="0px" y="0px"
	 viewBox="0 0 1133.86 1133.86" style="enable-background:new 0 0 1133.86 1133.86;" xml:space="preserve">
<style type="text/css">
	.st0{fill:#FF9E21;}
	.st1{fill:#FFCC9A;}
	.st2{fill:#E57007;}
	.st3{fill:#9B4A07;}
	.st4{fill:#FFDD9E;}
	.st5{fill:#EFB673;}
	.st6{fill:#895A21;}
	.st7{fill:#6C2B15;}
	.st8{fill:#874022;}
	.st9{fill:#42180C;}
	.st10{fill:#230903;}
	.st11{fill:#FF9676;}
	.st12{fill:#E56D4B;}
	.st13{fill:#FFFFFF;}
	.st14{fill:#E0E0E0;}
	.st15{fill:#0092FF;}
	.st16{fill:#0065D1;}
	.st17{fill:#003084;}
	.st18{fill:#6D0000;}
	.st19{fill:#FFBBBB;}
	.st20{fill:#EFA3A3;}
	.st21{fill:#BC6161;}
	.st22{fill:#A1B2B1;}
	.st23{fill:#D3EAEA;}
	.st24{fill:#3A0501;}
	.st25{fill:#190000;}
	.st26{fill:#872B12;}
	.st27{fill:#B75037;}
	.st28{fill:#661D0E;}
	.st29{fill:#330601;}
</style>
<g>
	<g id="XMLID_178_">
		<g id="XMLID_262_">
			<g id="XMLID_267_">
				<path id="XMLID_737_" class="st0" d="M570.6,762.88c9.05,31.34,1.79,82.91,4.18,102.28c2.52,20.51,7.74,32.11,12.11,52.96
					c4.37,20.85-3.88,58.4-14.13,68.59c7.06,18.66,44.55,43.81,63.72,46.03c19.17,2.22,25.55-18.14,25.55-18.14
					c2.35-18.31,26-79.73,25.33-98.56s-16.92-28.23-13.23-57.53c4.03-32.02,43.38-101.29,58.17-109.36
					c-23.87-38.33-58.84-59.85-58.84-59.85L570.6,762.88z"/>
				<g id="XMLID_1283_">
					<path id="XMLID_1285_" class="st1" d="M593.66,919.46c-4.37-20.85-7.23-33.29-9.75-53.8c-2.3-18.71,7.99-64.93-4.32-109.21
						l-8.99,6.43c9.05,31.34,1.79,82.91,4.17,102.28c2.52,20.51,7.74,32.11,12.11,52.96c4.37,20.85-3.88,58.4-14.13,68.59
						C583,976.52,598.03,940.31,593.66,919.46z"/>
					<path id="XMLID_1286_" class="st2" d="M732.31,749.16c-8.26-13.25-17.84-24.5-26.84-33.54
						c-23.7,36.11-54.11,98.72-54.11,130.89c0,29.54,16.11,55.97,16.78,74.8c0.67,18.83-25.43,85.84-27.78,104.15
						c0,0,6.89,4.28,5.62,6.43c11.84-3.86,16.06-17.28,16.06-17.28c2.35-18.31,26-79.73,25.33-98.56
						c-0.67-18.83-16.92-28.23-13.23-57.53C678.17,826.49,717.51,757.23,732.31,749.16z"/>
				</g>
				<path id="XMLID_738_" class="st3" d="M639.3,1033.75c-0.96,0-1.93-0.06-2.92-0.17c-19.32-2.24-57.23-27.61-64.41-46.57
					l-0.19-0.51l0.39-0.38c4.69-4.67,9.41-16.12,12.31-29.88c2.99-14.2,3.59-28.39,1.58-37.95c-1.73-8.25-3.58-15.01-5.37-21.54
					c-2.68-9.8-5.22-19.06-6.75-31.48c-0.85-6.92-0.49-17.84-0.06-30.48c0.77-22.97,1.72-51.56-4.08-71.68l-0.16-0.57l0.48-0.35
					l103.32-73.9l0.48,0.29c0.09,0.05,8.94,5.53,20.58,15.63c10.74,9.32,26.15,24.6,38.54,44.49l0.47,0.76l-0.78,0.43
					c-6.83,3.73-20.01,21.96-32.78,45.36c-13.81,25.31-23.14,48.99-24.95,63.36c-2.16,17.17,2.5,27.17,7.01,36.84
					c3.06,6.55,5.94,12.74,6.22,20.56c0.4,11.13-7.59,36.94-14.64,59.71c-5,16.16-9.73,31.43-10.7,38.98l-0.03,0.14
					c-0.07,0.21-1.69,5.3-5.75,10.19C652.33,1030.78,646.23,1033.75,639.3,1033.75z M573.74,986.91
					c3.36,8.28,13.34,18.81,26.82,28.3c13.16,9.25,26.96,15.65,36.01,16.7c17.74,2.05,24.22-16.25,24.63-17.49
					c1.01-7.72,5.74-23.01,10.75-39.18c7.01-22.65,14.95-48.31,14.57-59.16c-0.27-7.47-3.08-13.51-6.07-19.91
					c-4.4-9.43-9.38-20.11-7.15-37.76c1.84-14.57,11.24-38.48,25.15-63.96c12.67-23.21,25.35-40.85,32.69-45.58
					c-21.98-34.89-53.44-55.85-57.65-58.56l-101.92,72.9c5.7,20.34,4.75,48.75,3.99,71.63c-0.42,12.57-0.78,23.42,0.05,30.22
					c1.51,12.31,4.03,21.51,6.7,31.25c1.8,6.56,3.66,13.34,5.4,21.64c2.05,9.77,1.46,24.22-1.58,38.64
					C583.19,970.49,578.58,981.75,573.74,986.91z"/>
			</g>
			<g id="XMLID_263_">
				<g id="XMLID_266_">
					<path id="XMLID_731_" class="st4" d="M662.03,1014.61c-3.59,5.01-14.41,11.72-30.49,4.56c-20.62-9.19-36.99-44.16-54.25-36.99
						c-3.36-7.62-15.92-13.23-27.8-4.03c-7.62-4.26-23.2,1.12-33.74,22.19c-9.46,18.92-3.03,40.9,15.58,36.36
						c4.6,9.7,17.26,13.85,30.04,9.81c8.74,8.52,34.28,15.82,59.4,11.43C649.03,1053.01,664.72,1038.22,662.03,1014.61z"/>
					<path id="XMLID_1274_" class="st5" d="M624.8,1057.24c7.03-1.54,13.79-4.02,19.83-7.62c8.19-4.87,14.98-12.87,16.95-22.35
						c0-0.01,0-0.02,0.01-0.03c0.8-3.88,0.97-8.1,0.45-12.64c-2.84,3.96-10.21,8.99-21.12,7.37c-1.97,25.4-42.71,20.79-54.04,17.36
						c-19.4-5.88-29.08-14.74-30.87-26.72c-7.51,10.77-23.71,3.94-24.04-3.38c-5.85,6.74-15.52,4.59-19.12-1.3
						c-4.61,16.67,2.37,32.69,18.51,28.76c4.6,9.7,17.26,13.85,30.04,9.81c0.31-0.1,4.85,3.63,5.49,4c2.57,1.47,5.29,2.66,8.07,3.68
						c7,2.56,14.42,4.04,21.84,4.7C605.85,1059.69,615.55,1059.27,624.8,1057.24z"/>
					<path id="XMLID_734_" class="st6" d="M605.29,1060.09c-6.91,0-13.9-0.74-20.53-2.2c-10.33-2.28-18.89-6.06-23.6-10.43
						c-12.77,3.84-25.32-0.24-30.27-9.8c-6.53,1.39-12.13-0.36-15.82-4.99c-5.94-7.45-5.96-20.91-0.06-32.72
						c5.99-11.98,14.49-20.41,23.32-23.13c4.16-1.28,8.07-1.16,11.09,0.32c5.52-4.1,11.76-5.54,17.62-4.05
						c4.69,1.19,8.71,4.22,10.68,8.02c10.4-3.66,20.28,6.73,30.72,17.7c7.42,7.79,15.09,15.86,23.44,19.58
						c15.83,7.05,26.19,0.28,29.46-4.28l1.27-1.77l0.25,2.17c2.66,23.36-12.23,39.07-41.94,44.26
						C615.89,1059.65,610.61,1060.09,605.29,1060.09z M561.61,1045.56l0.36,0.35c9.02,8.79,34.74,15.39,58.67,11.21
						c27.84-4.86,42.23-19.18,40.74-40.43c-4.57,4.72-15.09,9.97-30.18,3.25c-8.66-3.86-16.45-12.04-23.98-19.96
						c-10.28-10.81-20-21.02-29.61-17.02l-0.76,0.32l-0.33-0.75c-1.62-3.66-5.41-6.65-9.9-7.79c-5.51-1.4-11.4,0.05-16.61,4.08
						l-0.44,0.34l-0.48-0.27c-2.68-1.5-6.32-1.65-10.27-0.44c-8.39,2.58-16.52,10.7-22.31,22.27c-5.62,11.25-5.68,23.96-0.13,30.92
						c3.43,4.3,8.53,5.77,14.76,4.25l0.67-0.16l0.29,0.62c4.43,9.34,16.63,13.29,29.03,9.37L561.61,1045.56z"/>
				</g>
				<g id="XMLID_265_">
					<path id="XMLID_733_" class="st6" d="M530.56,1037.01c-3.17-7.79-2.53-19.66,1.75-32.57c4-12.06,10.39-22.4,16.7-26.98
						l0.99,1.36c-12.58,9.16-24.36,41.63-17.87,57.56L530.56,1037.01z"/>
				</g>
				<g id="XMLID_264_">
					<path id="XMLID_732_" class="st6" d="M561.1,1047.38c-6.64-9.51-8.69-22.42-5.61-35.43c3.17-13.39,11.37-25.08,21.4-30.51
						l0.8,1.48c-9.62,5.21-17.5,16.48-20.57,29.42c-2.97,12.54-1.02,24.96,5.35,34.08L561.1,1047.38z"/>
				</g>
			</g>
		</g>
		<g id="XMLID_261_">
			<path id="XMLID_727_" class="st0" d="M531.07,421.65c14.96,10.42,27.74,23.2,67.41,25.22c36.96,1.88,78.12-3.36,106.14,3.14
				c28.02,6.5,62.72,32.81,81.88,57.72c10.93,25.56-96.9,208.59-96.9,208.59c-21.07,4.48-67.92,31.83-99.3,51.56
				c-31.38,19.73-65.23,20.4-65.23,20.4L401.61,767.5l-10.67-237.09L531.07,421.65z"/>
			<path id="XMLID_1307_" class="st5" d="M644.73,698.87c-18.34,33.86-76.96,26.43-100.5,2.7c-1.83,22.57-7.59,66.26-17.36,86.62
				c7.39-0.45,36.33-3.28,63.43-20.31c31.38-19.73,78.23-47.07,99.3-51.56c0,0,2.7-4.58,7.2-12.4c-3.81-0.82-7.6-1.68-11.35-2.68
				C674.36,698.21,655.82,699.88,644.73,698.87z"/>
			<g id="XMLID_1302_">
				<path id="XMLID_1303_" class="st1" d="M597.54,457.28c36.96,1.88,77.49-6.5,105.51,0s63.21,28.65,83.45,50.45
					c-19.16-24.91-53.86-51.21-81.88-57.72c-28.02-6.5-69.18-1.26-106.14-3.14c-39.68-2.02-52.45-14.79-67.41-25.22l-8.02,6.22
					C535.8,442.08,562.15,455.48,597.54,457.28z"/>
			</g>
			<path id="XMLID_728_" class="st3" d="M525,789.12l-0.08-0.01L400.8,768.21l-10.72-238.2l0.34-0.27l140.62-109.14l0.51,0.35
				c1.73,1.2,3.46,2.46,5.13,3.68c13.26,9.64,26.98,19.62,61.84,21.39c14.02,0.71,28.74,0.4,42.97,0.09
				c23.58-0.51,45.85-0.99,63.32,3.07c13.42,3.11,28.83,10.75,44.56,22.09c14.69,10.59,28.12,23.35,37.79,35.93l0.07,0.08l0.04,0.1
				c4.64,10.84-10.29,49.4-44.38,114.6c-25.31,48.41-52.3,94.29-52.57,94.75l-0.19,0.32l-0.36,0.08
				c-24.1,5.13-81.89,40.67-99.03,51.45c-16.32,10.26-33.29,15.29-44.66,17.71c-12.32,2.62-20.92,2.82-21.01,2.82L525,789.12z
				 M402.42,766.78l122.71,20.65c1.81-0.06,34.62-1.35,64.73-20.27c21.93-13.78,75.32-46.29,99.21-51.59
				c2.44-4.15,28.16-48.1,52.34-94.36c41.96-80.27,47.32-105.81,44.36-113.06c-17.5-22.72-51.92-50.5-81.33-57.32
				c-17.26-4.01-39.43-3.53-62.9-3.02c-14.26,0.31-29.01,0.62-43.09-0.09c-35.36-1.8-49.28-11.92-62.75-21.71
				c-1.5-1.09-3.05-2.22-4.6-3.31l-139.3,108.11L402.42,766.78z"/>
		</g>
		<g id="XMLID_256_">
			<g id="XMLID_260_">
				<path id="XMLID_720_" class="st7" d="M866.8,328.18c19.5,8.49,55.36-5.84,104.24,17.15c50.77,23.87,72.29,67.25,78.01,105.58
					s-4.12,63.04-20.51,69.27c-16.81,6.39-57.5-2.52-84.73-17.48c-32.17-17.67-41.92-43.95-57.5-57.5
					c-15.47-13.45-27.01-18.94-39.34-17.6c5.04-9.98,31.38-12.1,43.71-8.29c-21.52-6.56-37.88-17.71-59.4-28.24
					s-31.83-13-39.68-13.23c11.21-14.12,47.3-30.49,98.63-23.09C872.27,343.31,866.8,328.18,866.8,328.18z"/>
				<path id="XMLID_1297_" class="st8" d="M886.87,337.86c16.14,1.68,43.26-0.56,71.96,11.1s61.59,36.09,75.99,81.6
					c-13.23-22.86-39.01-56.95-76.22-72.63C922.71,342.8,901.66,349.07,886.87,337.86z"/>
				<g id="XMLID_1296_">
					<path id="XMLID_1299_" class="st9" d="M791.6,377.83c7.85,0.22,18.16,2.69,39.68,13.23c21.52,10.54,37.88,21.69,59.4,28.24
						c-12.33-3.81-38.67-1.68-43.71,8.29c12.33-1.35,23.87,4.15,39.34,17.6c15.58,13.55,25.33,39.83,57.5,57.5
						c27.24,14.96,67.92,23.87,84.73,17.48c12.34-4.69,20.97-19.86,22.03-43.43c-5.98,14.13-18.73,25.39-35.6,27.82
						c-23.49,3.38-66.91-13.14-82.72-30.62s-24.55-29.09-42.19-40.85c13.8-0.5,40.84,7.9,53.96,15.3
						c-9.08-23.54-29.89-32.2-50.77-39.85c-28.02-10.26-46.96-25.61-74.65-33.23c30.7-11.99,86.19,6.39,98.35,11.08
						c-12.84-9.77-38.94-21.28-67.3-23.86c-24.04-2.19-35.35,0.86-43.54,3.79C799.56,369.97,794.65,373.98,791.6,377.83z"/>
				</g>
				<path id="XMLID_724_" class="st10" d="M1014.04,523.12c-6.9,0-15.07-0.96-24.13-2.86c-16.34-3.44-33.29-9.58-46.51-16.83
					c-21.13-11.61-32.45-26.62-42.43-39.86c-5.07-6.73-9.86-13.08-15.22-17.74c-15.69-13.64-26.9-18.68-38.7-17.4l-1.54,0.17
					l0.7-1.38c3.25-6.43,13.77-8.88,19.75-9.77c4.97-0.74,10.23-0.93,15.02-0.61c-10.86-4.21-20.69-9.51-30.97-15.05
					c-6.07-3.27-12.34-6.66-19.11-9.97c-22.91-11.21-32.44-12.94-39.33-13.14l-1.68-0.05l1.04-1.31
					c6.31-7.95,19.27-15.38,34.69-19.9c12.84-3.76,33.69-7.4,61.15-3.98c-15.62-11.11-20.55-24.37-20.76-24.97l-0.66-1.84l1.79,0.78
					c7.21,3.14,16.66,3.09,28.62,3.03c20.08-0.1,45.07-0.24,75.64,14.13c23.6,11.1,42.53,27.13,56.24,47.66
					c11.38,17.03,19.07,37.27,22.24,58.56c2.73,18.29,2.04,34.56-2,47.05c-3.82,11.85-10.41,19.84-19.05,23.12
					C1025.04,522.4,1020.02,523.12,1014.04,523.12z M850.61,426.55c10.98,0,21.8,5.44,36.25,18c5.49,4.77,10.33,11.2,15.46,18
					c9.88,13.11,21.08,27.96,41.9,39.4c27.8,15.27,67.85,23.58,84.03,17.44c8.14-3.09,14.38-10.72,18.05-22.07
					c3.95-12.25,4.62-28.25,1.93-46.29c-4.1-27.51-19.63-77.72-77.54-104.94c-30.22-14.21-55-14.08-74.92-13.97
					c-11.15,0.06-20.15,0.11-27.38-2.42c2.06,4.31,8.42,15.5,22.3,24.33l3.3,2.1l-3.87-0.56c-28.93-4.17-50.78-0.43-64.01,3.45
					c-14.25,4.17-26.33,10.85-32.76,18.05c6.97,0.46,16.93,2.76,38.31,13.23c6.8,3.33,13.09,6.72,19.17,10
					c13.04,7.03,25.36,13.68,39.94,18.14c0.06,0.02,0.11,0.03,0.17,0.05l-0.49,1.61c-0.06-0.02-0.11-0.03-0.17-0.05
					c-6.11-1.84-15.52-2.21-24.05-0.94c-8.56,1.27-14.84,3.97-17.62,7.5C849.26,426.57,849.94,426.55,850.61,426.55z"/>
			</g>
			<g id="XMLID_259_">
				<path id="XMLID_723_" class="st10" d="M952.33,376.75c-8.86-5.45-36.13-16.14-62.26-21.19l0.32-1.65
					c17.48,3.38,35.5,9.28,48.26,14.48C948.96,372.69,952.33,376.75,952.33,376.75z"/>
			</g>
			<g id="XMLID_258_">
				<path id="XMLID_722_" class="st10" d="M916.95,386.38c-26.33-16.96-80.07-32.71-112.49-18.16l-0.69-1.53
					c26.86-12.06,68.01-3.72,96.75,9.06C912.7,381.18,916.95,386.38,916.95,386.38z"/>
			</g>
			<g id="XMLID_257_">
				<path id="XMLID_721_" class="st10" d="M928.68,434.47c-5.23-3.21-18.46-8.18-38.26-14.37l0.5-1.6
					c10.72,3.36,19.41,6.31,26.02,8.84C927.09,431.65,928.68,434.47,928.68,434.47z"/>
			</g>
		</g>
		<g id="XMLID_255_">
			<path id="XMLID_716_" class="st0" d="M834.86,604.96c24.21,26.51,69.94,72.91,124.41,71.56c51.81-1.28,75.33-25.7,81.37-61.2
				c6.5-38.22-10.98-80.81-22.86-93.06c-2.69-11.06,12.78-26.08,27.93-20.92c9.5,9.85,35.45,47.69,31.41,108.88
				c-4.03,61.2-43.1,103.84-103.06,111.01c-54.25,6.49-115.67-12.78-130.8-43.71C830.15,632.82,834.86,604.96,834.86,604.96z"/>
			<g id="XMLID_1293_">
				<path id="XMLID_1294_" class="st2" d="M1045.71,501.35c-3.38-1.15-6.78-1.3-9.99-0.71c10.35,11.62,37.67,51.88,32.04,110.76
					c-5.38,56.21-40.91,90.73-100.87,97.9c-47.7,5.71-117.09-26.39-132.16-79.05c1.35,7.06,6.1,39,8.53,47.28
					c15.13,30.93,76.55,50.2,130.8,43.71c59.96-7.17,99.02-49.82,103.06-111.01C1081.16,549.04,1055.21,511.21,1045.71,501.35z"/>
				<path id="XMLID_1295_" class="st1" d="M959.49,682.91c54.64-0.67,80.49-29.68,86.53-65.18c6.5-38.22-9.19-84.29-28.24-95.47
					c11.88,12.25,29.37,54.84,22.86,93.06c-6.04,35.5-29.57,59.92-81.37,61.2c-54.47,1.34-100.2-45.06-124.41-71.56
					c0,0-0.44-3.1-0.61,3.62C861.62,636.42,901.31,683.63,959.49,682.91z"/>
			</g>
			<path id="XMLID_717_" class="st3" d="M952.7,723.33c-20.09,0-40.73-3.13-58.96-9.1c-25.69-8.42-43.88-21.32-51.22-36.32
				l-0.05-0.13c-13.02-44.39-8.48-72.67-8.43-72.95l0.29-1.7l1.16,1.27c28.08,30.74,71.04,71.32,121.46,71.32
				c0.77,0,1.54-0.01,2.31-0.03c46.83-1.16,73.93-21.51,80.56-60.5c6.55-38.54-11.25-80.6-22.64-92.34l-0.16-0.16l-0.05-0.22
				c-1.29-5.31,1.24-11.66,6.61-16.56c5-4.57,13.52-8.38,22.42-5.35l0.19,0.07l0.14,0.15c5.77,5.98,14.3,18.44,20.96,35.47
				c8.84,22.61,12.44,47.53,10.69,74.06c-2,30.29-12.64,56.67-30.78,76.28c-18.22,19.7-43.47,31.98-73.02,35.51
				C967.18,722.92,959.97,723.33,952.7,723.33z M844.05,677.23c7.16,14.56,24.98,27.13,50.2,35.4c24.61,8.06,53.66,10.9,79.71,7.79
				c59.1-7.07,98.3-49.31,102.32-110.23c1.73-26.28-1.83-50.95-10.57-73.33c-6.51-16.65-14.81-28.84-20.46-34.76
				c-8.13-2.67-15.94,0.85-20.55,5.06c-4.76,4.35-7.16,10.1-6.16,14.71c6.51,6.83,13.7,21.3,18.36,36.97
				c4.12,13.85,8.26,34.93,4.56,56.65c-6.79,39.89-34.43,60.72-82.18,61.9c-0.77,0.02-1.54,0.03-2.31,0.03
				c-23.19,0-47.31-8.58-71.74-25.52c-20.28-14.06-37.16-31.27-49.77-45.01C834.72,613.65,833.01,639.54,844.05,677.23z"/>
		</g>
		<g id="XMLID_249_">
			<g id="XMLID_254_">
				<path id="XMLID_714_" class="st0" d="M784.43,505.1c22.7,26.68,46.41,60.84,58.01,106.64c11.6,45.81,2.52,140.62,12.61,187.53
					c10.09,46.9,33.29,60.52,41.36,85.74c8.07,25.22-5.06,61.19,10.41,109.61c-36.65,12.44-105.92-10.09-105.92-10.09
					c10.42-21.86,10.44-52.8,4.03-68.93c-18.83-47.41-45.56-65.06-59.18-87.76c-9.7-16.17-7.06-47.75-48.08-95.49
					c-24.96-29.05-52.95-33.47-52.95-33.47L784.43,505.1z"/>
				<g id="XMLID_1287_">
					<path id="XMLID_1291_" class="st2" d="M834.91,803.12c10.09,46.9,41.57,64.4,49.63,89.62c7.4,23.11-10.08,58.52,8.18,104.91
						c5.04-0.59,9.79-1.57,14.1-3.03c-15.47-48.42-2.34-84.39-10.41-109.61c-8.07-25.22-31.27-38.83-41.36-85.74
						c-10.09-46.9-1.01-141.72-12.61-187.53c-11.6-45.81-35.32-79.96-58.01-106.64c20.51,30.03,35.28,67.28,42.25,110.41
						C837.44,682.07,824.82,756.21,834.91,803.12z"/>
				</g>
				<path id="XMLID_715_" class="st3" d="M879.49,999.18c-13.65,0-27.91-1.95-39.53-4.11c-21.7-4.04-39.15-9.68-39.32-9.74
					l-0.91-0.3l0.41-0.86c10.49-21.99,10.25-52.55,4.01-68.26c-12.34-31.06-28.39-49.66-41.29-64.6
					c-7.04-8.16-13.13-15.21-17.82-23.03c-2.97-4.96-4.76-11.15-7.02-18.99c-5.24-18.21-12.42-43.14-40.98-76.39
					c-24.48-28.5-52.03-33.97-52.31-34.02c0,0,4.24-1.39,14.14,3.07c1.09,0.49,2.24,1.02,3.42,1.6
					c9.27,4.54,23.04,13.13,36.02,28.25c28.8,33.53,36.04,58.66,41.33,77.02c2.22,7.72,3.98,13.82,6.84,18.59
					c4.62,7.7,10.66,14.7,17.65,22.8c12.98,15.04,29.14,33.76,41.58,65.08c6.28,15.82,6.62,46.4-3.65,68.73
					c3.84,1.2,19.43,5.9,38.22,9.4c19.6,3.65,46.74,6.69,65.48,0.66c-8.76-27.91-8.09-52.1-7.56-71.57
					c0.4-14.38,0.74-26.81-2.6-37.24c-3.13-9.77-8.47-17.66-14.66-26.79c-9.63-14.22-20.55-30.34-26.72-59.02
					c-4.87-22.66-5.3-57.1-5.71-90.4c-0.44-36.1-0.9-73.44-6.9-97.1c-12.38-48.9-38.94-84.09-57.84-106.3l1.28-1.09
					c19.01,22.35,45.72,57.75,58.19,106.98c6.04,23.85,6.5,61.29,6.95,97.49c0.41,33.22,0.83,67.57,5.67,90.07
					c6.1,28.36,16.92,44.34,26.47,58.43c6.26,9.24,11.67,17.23,14.87,27.22c3.43,10.71,3.08,23.27,2.68,37.8
					c-0.54,19.53-1.21,43.83,7.73,71.8l0.25,0.79l-0.78,0.27C899.04,998.14,889.42,999.18,879.49,999.18z"/>
			</g>
			<g id="XMLID_250_">
				<g id="XMLID_253_">
					<path id="XMLID_708_" class="st4" d="M822.53,983.97c-4.26-7.85-36.9-20.56-50.21,20.17c-14.96,45.79,22.7,65.96,42.2,49.15
						c9.81,14.91,43.21,20.68,54.42-2.52c11.66,17.48,59.07,16.09,52.23-31.83c-5.91-41.42-38.89-46.07-50.77-34.41
						C859.97,968.05,833.85,971.08,822.53,983.97z"/>
					<g id="XMLID_1288_">
						<path id="XMLID_1292_" class="st5" d="M814.52,1053.29c9.81,14.91,43.21,20.68,54.42-2.52
							c11.66,17.48,59.07,16.09,52.23-31.83c-0.25-1.78-0.56-3.49-0.91-5.13c-11.42,22.44-46.16,23.12-57.65,4.94
							c-8.24,21.33-43.43,18.17-52.85,1.04c-11.96,17.83-33.13,13.67-40.83,2.37C767.74,1054.94,797.8,1067.7,814.52,1053.29z"/>
					</g>
					<path id="XMLID_711_" class="st6" d="M842.6,1067.19c-11.32,0-22.76-5.08-28.26-12.66c-8.81,7.05-21.28,7.34-31.33,0.65
						c-6.5-4.33-11.14-10.96-13.41-19.17c-2.61-9.43-1.97-20.24,1.91-32.12c3.12-9.54,7.52-16.88,13.09-21.8
						c4.7-4.15,10.12-6.54,16.11-7.08c9.78-0.89,18.81,3.59,21.92,7.61c6.59-6.89,17.69-10.94,28-10.13
						c8.53,0.67,15.56,4.48,19.91,10.76c5.88-5.11,15.59-6.52,24.57-3.48c14.23,4.82,24.02,19.06,26.88,39.06
						c1.57,10.97,0.43,20.23-3.37,27.5c-3.26,6.24-8.49,10.88-15.12,13.41c-3.76,1.44-7.81,2.11-11.82,2.11
						c-9.06,0-17.9-3.47-22.63-9.47c-4.76,8.81-13.23,14.02-24.02,14.74C844.23,1067.16,843.42,1067.19,842.6,1067.19z
						 M814.69,1052.03l0.53,0.8c5.32,8.09,17.81,13.39,29.71,12.6c10.65-0.7,18.9-6.04,23.25-15.03l0.64-1.32l0.82,1.22
						c5.92,8.89,21.16,12.48,33.27,7.86c13.86-5.3,20.22-19.55,17.43-39.1c-2.76-19.35-12.15-33.09-25.75-37.7
						c-8.78-2.98-18.27-1.46-23.6,3.77l-0.74,0.73l-0.56-0.88c-4-6.32-10.81-10.17-19.17-10.82c-10.21-0.8-21.19,3.37-27.34,10.37
						l-0.8,0.91l-0.57-1.06c-2.07-3.82-11.03-8.59-20.92-7.69c-8.79,0.8-20.74,6.26-27.75,27.73c-8.34,25.52,0.13,42.24,10.83,49.37
						c9.69,6.45,21.75,6,30.02-1.12L814.69,1052.03z"/>
				</g>
				<g id="XMLID_252_">
					<path id="XMLID_710_" class="st6" d="M868.19,1051.16c-4.13-7.85-6.6-20.02-6.63-32.53c-0.03-13.81,2.86-26.08,8.12-34.54
						l1.43,0.89c-5.1,8.2-7.89,20.15-7.86,33.65c0.02,12.26,2.43,24.13,6.44,31.75L868.19,1051.16z"/>
				</g>
				<g id="XMLID_251_">
					<path id="XMLID_709_" class="st6" d="M813.77,1053.68c-7.06-13.39-5.69-30.47-4.25-39.45c2.14-13.37,7.02-25.49,12.42-30.86
						l1.19,1.19c-5.09,5.06-9.89,17.09-11.94,29.93c-1.41,8.78-2.75,25.45,4.08,38.4L813.77,1053.68z"/>
				</g>
			</g>
		</g>
		<g id="XMLID_243_">
			<g id="XMLID_248_">
				<path id="XMLID_704_" class="st0" d="M286.78,757.23c-4.71,21.86-4.47,76.88,9.08,110.29c14.23,35.09,27.25,55.3,30.6,70.28
					c5.06,22.64-2.69,54.7-2.69,54.7l77.84,2.47c0,0,1.47-34.75-0.64-47.75s-10.98-34.44-14.66-51.78
					c-7.17-33.75-4.37-99.98-0.67-116.4c-9.75-39.62-23.12-54.75-23.12-54.75L286.78,757.23z"/>
				<g id="XMLID_1276_">
					<path id="XMLID_1278_" class="st1" d="M332.73,936.44c-3.59-14.92-14.35-33.33-28.58-68.43
						c-12.89-31.78-13.73-89.74-9.73-114.11l-7.64,3.33c-4.71,21.86-4.47,76.88,9.08,110.29c14.23,35.09,27.25,55.3,30.6,70.28
						c5.06,22.64-2.69,54.7-2.69,54.7S339.45,964.35,332.73,936.44z"/>
					<path id="XMLID_1280_" class="st2" d="M400.97,947.21c-2.11-13-10.98-34.44-14.66-51.78c-7.17-33.76-4.37-99.98-0.67-116.4
						c-6.65-27.02-14.98-42.64-19.61-49.85c3.19,39.4-6.88,107.87,5.38,169.1c3.48,17.38,14.02,37.44,16.13,50.44
						c1.39,8.57,1.76,31.34,1.85,45.85l12.21,0.39C401.61,994.95,403.08,960.21,400.97,947.21z"/>
				</g>
				<path id="XMLID_705_" class="st3" d="M402.41,995.82l-79.71-2.52l0.24-1c0.08-0.32,7.64-32.13,2.69-54.32
					c-1.8-8.06-6.58-17.95-12.64-30.48c-5.09-10.54-11.43-23.65-17.92-39.66c-13.15-32.43-14.19-87.27-9.12-110.78l0.09-0.42
					l76.69-33.37l0.4,0.46c0.55,0.62,13.62,15.74,23.31,55.11l0.05,0.19l-0.04,0.19c-3.48,15.44-6.57,81.95,0.67,116.04
					c1.79,8.43,4.79,17.77,7.7,26.8c3.03,9.41,5.88,18.31,6.97,25.02c2.1,12.94,0.71,46.49,0.65,47.92L402.41,995.82z
					 M324.81,991.68l75.99,2.41c0.2-5.36,1.23-35.09-0.66-46.75c-1.07-6.59-3.91-15.42-6.91-24.78c-2.92-9.07-5.93-18.45-7.74-26.97
					c-4.28-20.14-4.61-49.3-4.43-64.88c0.25-21.68,1.78-42.86,3.72-51.68c-8.65-35.05-20.26-50.91-22.5-53.74l-74.76,32.53
					c-4.92,23.53-3.83,77.43,9.13,109.37c6.47,15.96,12.8,29.05,17.88,39.56c6.1,12.63,10.92,22.6,12.76,30.85
					C331.82,957.93,326.06,986.04,324.81,991.68z"/>
			</g>
			<g id="XMLID_244_">
				<g id="XMLID_247_">
					<path id="XMLID_698_" class="st4" d="M397.7,983.3c-7.57-3.7-23.33-7.27-31.91,5.43c-5.63-7.31-20.06-9.47-30.71,0.06
						c-6.5-9.47-27.46-12.44-30.65,19.28c-2.98,29.55,10.59,42.98,30.93,32.45c7.9,6.22,20.85,7.57,27.4,2.69
						c6.22,5.55,24.88,8.83,34.8,3.32C405.14,1026.39,397.7,983.3,397.7,983.3z"/>
					<g id="XMLID_1273_">
						<g>
							<path id="XMLID_00000127029435625745956060000003333500881972758435_" class="st5" d="M335.37,1040.51
								c7.9,6.22,20.85,7.57,27.4,2.69c6.22,5.55,24.88,8.83,34.8,3.32c3.28-8.73,3.74-21.78,3.21-33.76
								c-12.96,7.68-33.85,7.83-40.98-1.68c-6.82,14.79-27.91,11.77-32.94,0.06c-6.46,11.54-18.56,9.41-22.69,0.15
								C302.48,1038.58,315.78,1050.65,335.37,1040.51z"/>
						</g>
					</g>
					<path id="XMLID_701_" class="st6" d="M384.34,1050.2c-1.83,0-3.72-0.12-5.66-0.36c-6.61-0.82-12.63-2.93-15.96-5.58
						c-6.86,4.56-19.35,3.32-27.45-2.76c-8.65,4.35-16.29,4.56-22.09,0.62c-7.86-5.34-11.26-17.46-9.59-34.14
						c1.98-19.71,10.53-24.76,15.44-26.02c6.52-1.67,12.89,1.46,16.18,5.6c5.25-4.4,11.68-6.49,18.2-5.88
						c5.04,0.47,9.46,2.52,12.32,5.68c8.88-11.89,24.4-8.69,32.33-4.81l0.39,0.19l0.07,0.42c0.31,1.77,7.39,43.54-0.17,63.66
						l-0.11,0.29l-0.27,0.15C394.51,1049.19,389.71,1050.2,384.34,1050.2z M362.82,1042.12l0.51,0.46
						c5.67,5.06,23.58,8.66,33.56,3.36c6.83-18.74,0.79-57.56,0.05-62.06c-7.75-3.65-22.48-6.47-30.45,5.33l-0.65,0.97l-0.71-0.92
						c-2.49-3.23-6.93-5.43-11.87-5.89c-6.34-0.58-12.59,1.57-17.62,6.06l-0.71,0.64l-0.54-0.79c-2.76-4.02-8.77-7.25-14.94-5.68
						c-4.49,1.15-12.3,5.87-14.19,24.56c-1.59,15.8,1.64,27.68,8.86,32.58c5.37,3.65,12.58,3.32,20.85-0.96l0.48-0.25l0.43,0.34
						c7.62,6,20.2,7.28,26.38,2.68L362.82,1042.12z"/>
				</g>
				<g id="XMLID_246_">
					<path id="XMLID_700_" class="st6" d="M334.83,1041.16c-6.71-5.66-8.53-14.75-8.88-21.38c-0.64-12.05,3.12-25.92,8.54-31.57
						l1.21,1.16c-4.41,4.59-8.75,17.49-8.07,30.32c0.33,6.3,2.04,14.92,8.29,20.18L334.83,1041.16z"/>
				</g>
				<g id="XMLID_245_">
					<path id="XMLID_699_" class="st6" d="M362.01,1043.57c-2.89-6.03-4.14-16.13-3.42-27.71c0.69-11.18,3.11-21.47,6.47-27.53
						l1.47,0.82c-7.06,12.75-8.69,41.85-3,53.7L362.01,1043.57z"/>
				</g>
			</g>
		</g>
		<g id="XMLID_237_">
			<g id="XMLID_242_">
				<path id="XMLID_696_" class="st0" d="M413.24,711.01c-7.06,40.35,1.48,119.01-4.58,153.65c-3.54,20.24-11.43,36.48-14.79,62.04
					c-3.36,25.55-0.11,70.11-3.42,80.19c23.76,9.92,49.99,25.11,69.15,25.83s23.76-16.81,23.76-16.81
					c-0.67-15.8-2.28-65.24,5.6-96.05c15.69-61.34,53.59-112.18,61.25-156.24c7.7-44.32-4.49-68.88-13.57-78.8L413.24,711.01z"/>
				<g id="XMLID_1281_">
					<path id="XMLID_1282_" class="st1" d="M415.67,864.19c6.05-34.63-9.49-112.83-2.43-153.18c-7.06,40.35,1.48,119.01-4.58,153.65
						c-3.54,20.24-11.43,36.48-14.79,62.04c-3.36,25.55-0.11,70.11-3.42,80.19c1.62,0.68,3.26,1.38,4.9,2.1
						c5.94-21.88,1.76-57.1,4.76-79.89C403.48,903.54,412.14,884.43,415.67,864.19z"/>
					<path id="XMLID_1284_" class="st2" d="M536.66,684.81c7.17,11.41,6.92,43.96-1.85,75.26c-14.12,50.44-47.56,97.82-63.25,159.16
						c-6.84,26.74-0.06,84.28-7.85,113.35c15.73-1.69,19.66-16.68,19.66-16.68c-0.67-15.8-2.28-65.24,5.6-96.05
						c15.69-61.34,53.59-112.18,61.25-156.24C557.93,719.3,545.74,694.73,536.66,684.81z"/>
				</g>
				<path id="XMLID_697_" class="st3" d="M460.75,1033.59c-0.38,0-0.77-0.01-1.17-0.02c-14.17-0.54-32.34-8.97-49.92-17.13
					c-6.46-3-13.14-6.1-19.53-8.77l-0.72-0.3l0.24-0.74c1.61-4.9,1.63-18.35,1.65-33.91c0.02-15.59,0.04-33.26,1.74-46.13
					c1.92-14.57,5.27-26.02,8.51-37.08c2.45-8.38,4.77-16.29,6.29-24.99c2.9-16.57,2.44-43.09,1.95-71.17
					c-0.52-30.21-1.06-61.44,2.62-82.47l1.66,0.29c-3.65,20.87-3.12,52.02-2.6,82.15c0.49,28.16,0.94,54.76-1.98,71.49
					c-1.54,8.79-3.87,16.75-6.33,25.17c-3.22,11.01-6.56,22.39-8.46,36.83c-1.68,12.76-1.7,30.37-1.72,45.91
					c-0.02,15-0.04,28.05-1.51,33.69c6.21,2.61,12.65,5.6,18.89,8.5c17.42,8.09,35.44,16.45,49.28,16.98
					c0.37,0.01,0.74,0.02,1.1,0.02c16.59,0,21.36-14.65,21.78-16.09c-1.01-23.81-1.61-67.83,5.64-96.16
					c7.9-30.89,21.69-59.69,33.86-85.1c12.13-25.33,23.59-49.26,27.38-71.08c7.87-45.27-4.6-68.71-12.74-78.66
					c0,0,5.55,3.48,10.01,13.61c5.74,13.49,9.76,34.43,4.39,65.33c-3.83,22.05-15.34,46.08-27.52,71.52
					c-12.13,25.34-25.89,54.06-33.75,84.79c-7.21,28.18-6.59,72.12-5.58,95.81l0.01,0.13l-0.03,0.12c-0.05,0.19-1.24,4.61-4.86,9
					C476.1,1029.03,470.29,1033.59,460.75,1033.59z"/>
			</g>
			<g id="XMLID_238_">
				<g id="XMLID_241_">
					<path id="XMLID_690_" class="st4" d="M483.37,1015.91c-3.03,2.13-9.86,4.57-16.7,1.46c-9.92-4.51-16.39-14.68-25.78-16.03
						c-6.67-0.96-10.65,1.51-14.23,6.72c-6.61-4.03-19.61-14.35-36.2-5.94c-3.36-1.79-21.18-13.34-32.62,20.62
						c-11.83,35.14,4.48,46.29,23.99,40.57c7.62,10.98,28.02,14.77,46.85,2c8.07,6.74,24.21,11.67,41.47-2.23
						C487.41,1049.2,483.37,1015.91,483.37,1015.91z"/>
					<path id="XMLID_405_" class="st5" d="M473.15,1059.9c1.69-1.92,3.18-4.02,4.41-6.3c3.83-7.07,4.89-14.61,5.77-22.47
						c0.4-3.55,0.53-7.08,0.37-10.69c-0.02-0.39-0.61-4.33-0.33-4.53c-2.98,2.1-9.65,4.49-16.39,1.59
						c2.64,44.94-46.82,37.35-47.49,16.62c-14.01,21.97-38,17.65-43.15-2.91c-3.42,12.36-21.57,14.36-20-3.57
						c-8.75,31.28,6.93,41.13,25.49,35.69c7.62,10.98,28.02,14.77,46.85,2c5.74,4.79,15.56,8.67,26.97,5.51
						c0.02-0.01,0.04-0.01,0.07-0.02C462.42,1068.91,468.55,1065.1,473.15,1059.9z"/>
					<path id="XMLID_693_" class="st6" d="M404.09,1074.2c-1.05,0-2.08-0.04-3.12-0.13c-8.35-0.72-15.41-4.27-19.49-9.77
						c-9.53,2.64-17.87,1.16-22.93-4.11c-4.8-4.99-8.96-15.59-1.51-37.7c4.32-12.85,10.08-20.74,17.1-23.47
						c7.31-2.83,13.8,0.76,16.25,2.12c0.03,0.02,0.05,0.03,0.08,0.04c15.27-7.5,27.36,0.25,34.61,4.9c0.47,0.3,0.92,0.59,1.35,0.86
						c3.94-5.39,8.34-7.32,14.58-6.43c5.58,0.8,10.05,4.48,14.78,8.39c3.47,2.86,7.05,5.81,11.22,7.71
						c6.68,3.04,13.3,0.43,15.87-1.38l1.15-0.81l0.17,1.39c0.01,0.08,1.01,8.54-0.14,18.58c-1.53,13.39-6.16,23.54-13.39,29.36
						c-16.68,13.43-32.94,9.88-42.05,2.62C420.9,1071.47,412.32,1074.2,404.09,1074.2z M382.17,1062.35l0.35,0.5
						c3.73,5.37,10.51,8.85,18.6,9.55c8.94,0.77,18.56-1.99,27.08-7.76l0.52-0.36l0.49,0.41c8.52,7.12,24.21,10.8,40.4-2.24
						c14.77-11.89,13.55-38.81,13.04-45.1c-3.48,1.94-9.82,3.76-16.34,0.79c-4.37-1.99-8.05-5.02-11.6-7.94
						c-4.55-3.75-8.84-7.29-13.95-8.02c-5.84-0.84-9.73,1.01-13.42,6.37l-0.45,0.66l-0.68-0.41c-0.63-0.38-1.32-0.83-2.05-1.29
						c-7.01-4.49-18.74-12.01-33.34-4.61l-0.39,0.2l-0.39-0.21c-0.14-0.07-0.3-0.16-0.48-0.26c-2.26-1.25-8.25-4.57-14.83-2.02
						c-6.53,2.54-11.96,10.08-16.11,22.44c-5.6,16.63-5.2,29.42,1.13,36c4.72,4.91,12.67,6.18,21.82,3.5L382.17,1062.35z"/>
				</g>
				<g id="XMLID_240_">
					<path id="XMLID_692_" class="st6" d="M381.19,1063.88c-4.73-5.39-7.09-18.25-5.74-31.29c1.45-13.98,6.74-25.32,14.5-31.13
						l1.01,1.35c-7.39,5.53-12.43,16.45-13.83,29.96c-1.31,12.61,0.88,24.95,5.33,30.01L381.19,1063.88z"/>
				</g>
				<g id="XMLID_239_">
					<path id="XMLID_691_" class="st6" d="M428.08,1065.92c-5.06-5.07-8.68-15.03-9.44-26.01c-0.85-12.23,1.75-23.7,7.31-32.3
						l1.41,0.91c-12.16,18.81-7.23,47.07,1.91,56.21L428.08,1065.92z"/>
				</g>
			</g>
		</g>
		<g id="XMLID_226_">
			<g id="XMLID_236_">
				<path class="st7" d="M526.97,611.74c0,0-3.17-1.38-7.84-3.76c-9.21-4.68-24.25-13.21-32.28-22.58
					c13.11,34.3-6.05,93.81-12.78,108.61c0,0-8.74-12.78-15.47-19.36c0,0,3.7,26.42-10.09,56.35
					c-13.79,29.93-40.69,73.64-44.28,102.22c-17.04-16.14-35.08-55.14-36.43-87.09c0,0-19.33,39.34-58.17,72.29
					c-36.21,30.72-64.9,39.34-91.8,44.39c13.45-15.13,16.48-63.21,13.79-89.11c-2.69-25.89-1.34-78.01,8.07-104.24
					c-10.09,13.11-41.02,59.85-46.74,87.76c0,0-20.18-28.69-19.84-71.28c0.27-33.62,8.74-56.49,8.41-74.65
					c-3.53,5.89-15.97,28.08-15.3,40.52c0,0-8.8-12.95-11.93-34.63c-3.41-23.55,0.78-47.24,0-65.57
					c-0.79-18.32-11.77-48.92-18.16-65.12l-4.32-63.46l381.07,4.26l1.87,0.02c0,0,14.8,24.94,16.31,65.12
					C532.58,532.61,521.25,585.85,526.97,611.74z"/>
				<path class="st9" d="M526.97,611.74c0,0-3.17-1.38-7.84-3.76l-5.71-56.36c15.53-42.56-29.27-108.08-29.27-108.08l28.74-16.25
					l1.87,0.02c0,0,14.8,24.94,16.31,65.12C532.58,532.61,521.25,585.85,526.97,611.74z"/>
				<path class="st8" d="M301.79,611.3c0,0-7.87,146.02-51.05,216.9C283.17,795.16,317.22,692.43,301.79,611.3z"/>
				<g id="XMLID_1271_">
					<path class="st8" d="M231.64,773.7c2.03,19.56-1.66,59.6-8.32,82.04c9.22-4.94,21.3-22.16,23.44-27.54
						c12.84-32.19,15.07-74.32,18.59-104.94c2.97-25.89,7.96-42.97,9.84-44.82c-12.84,10.72-17.27,26.57-23.67,70.23
						c-8.4-24.39-11.8-79.2,21.6-133.13c-13.18,5-23.05,31.85-33.13,50.73c-10.33,19.34-20.81,34.36-26.06,41.28
						c-4.18-26.22,17.53-69.49,25-74.33c-24.6-0.73-37.57,66.29-44.74,90.06c-13.49-29.67-8.5-74.55-6.71-94.43
						c1.79-19.88-3.08-42.9,13.97-62.91c-22.11,9.81-16.99,29.46-19.9,45.37c-25.54,29.56-16.68-47.37-15.33-62.04
						c1.34-14.67-14.07-87.71-20.12-105.71l-13.74-12.88l3.8,55.83c6.39,16.19,17.37,46.79,18.16,65.12
						c0.78,18.32-3.41,42.01,0,65.57c3.14,21.69,11.94,34.63,11.94,34.63c-0.67-12.44,11.77-34.63,15.3-40.52
						c0.34,18.16-8.14,41.02-8.41,74.65c-0.34,42.59,19.84,71.28,19.84,71.28c5.72-27.91,36.65-74.65,46.74-87.76
						C230.29,695.69,228.95,747.81,231.64,773.7z"/>
					<path class="st9" d="M526.97,611.74c-1.92-8.68-1.92-20.42-1.13-33.72c-10.17-27.46-17.43-70.66-35.3-83.95
						c11.54,17.78,13,72.33,18.72,96.54c-16.48-7.73-24.88-20.4-40.01-26.9c11.43,23.2,10.98,58.73,0,91.46
						c-3.81-21.07-27.8-45.95-44.38-45.73c11.88,11.43,18.83,47.3,18.61,68.15c-0.22,20.85-3.81,33.4-14.35,53.8
						c0,0,4.48-24.66-1.57-46.57c-6.05-21.91-23.54-36.15-40.65-39.96c12.47,10.31,20.03,50.66,19.58,69.04
						c-0.54,21.98-2.91,35.87-13.23,60.75c-4.93-8.74-7.57-28.52-6.72-48.03c0.84-19.5-5.85-44.93-21.64-64.95
						c1.87,22.85-2.37,69.45-25.5,91.16c11.63-43.02,8.59-83.4-2.92-104.84c0,2.11-0.08,4.22-0.2,6.29
						c-0.44,7.59-1.45,15.21-2.88,22.68c-1.86,9.71-3.67,19.43-5.67,29.12c-1.93,9.37-4.01,18.78-6.99,27.88
						c-5.87,17.9-14.65,34.78-24.71,50.66c-4.87,7.69-10.72,14.75-15.44,22.53c-17.91,29.54-50.11,48.05-50.03,47.99
						c0,0,0.01-0.01,0.01-0.01c0.24-0.19,0.33-0.25-0.01,0.01c-0.36,0.28-4.23,3.38-5.77,4.69c-1.96,1.66-4.24,2.51-6.49,2.44
						c-0.15,0.18-0.3,0.36-0.46,0.54c26.9-5.04,55.59-13.66,91.8-44.38c38.84-32.95,58.17-72.29,58.17-72.29
						c1.34,31.94,19.39,70.95,36.42,87.09c3.59-28.58,30.49-72.29,44.27-102.22c13.79-29.93,10.09-56.35,10.09-56.35
						c6.72,6.58,15.47,19.36,15.47,19.36c6.72-14.79,25.89-74.31,12.78-108.61C498.95,599.53,526.97,611.74,526.97,611.74z"/>
				</g>
				<path id="XMLID_687_" class="st10" d="M215.59,864.09l1.63-1.84c5.86-6.59,10.38-20.82,12.74-40.06
					c1.96-15.98,2.28-34.53,0.84-48.4c-2.54-24.47-1.51-72.16,6.53-99.7c-12.14,16.88-38.37,58.1-43.54,83.31l-0.39,1.91l-1.12-1.59
					c-0.05-0.07-5.16-7.4-10.14-19.84c-4.59-11.47-10.03-29.79-9.85-51.93c0.15-18.85,2.82-34.05,5.18-47.46
					c1.58-8.98,2.97-16.89,3.2-24.02c-4.14,7.29-14.19,26.23-13.59,37.31l0.16,3.02l-1.7-2.5c-0.09-0.13-8.94-13.36-12.07-34.99
					c-2.12-14.65-1.3-29.57-0.58-42.72c0.45-8.22,0.87-15.98,0.58-22.93c-0.82-19.21-12.93-51.75-18.1-64.84l-0.05-0.12l-4.39-64.5
					l384.32,4.3l0.24,0.41c0.15,0.25,14.92,25.58,16.43,65.51c0.68,17.92-1.18,38.25-2.97,57.91c-2.2,24.17-4.29,47.01-1.14,61.26
					l0.36,1.61l-1.51-0.66c-1.07-0.47-24.72-10.87-37.73-23.69c5.5,18.17,3.03,41.48-0.18,58.35c-3.98,20.96-10.49,39.7-13.89,47.18
					l-0.62,1.36l-0.84-1.23c-0.08-0.12-7.41-10.8-13.71-17.54c0.52,7.23,0.96,29.77-10.38,54.41c-3.85,8.36-8.69,17.74-13.82,27.66
					c-13.04,25.24-27.81,53.85-30.38,74.31l-0.21,1.65l-1.21-1.14c-16.09-15.24-34.16-52.34-36.51-84.63
					c-5.15,9.47-24.26,42.12-56.96,69.86c-16.69,14.16-32.91,24.61-49.59,31.95c-16.18,7.12-30.61,10.37-42.59,12.62L215.59,864.09z
					 M242.31,664.7l-1.81,5.05c-9.4,26.17-10.71,78.03-8.03,103.87c2.71,26.08-0.31,71.13-12.54,87.94
					c29.4-5.74,56.03-15.65,89.17-43.77c38.26-32.46,57.77-71.63,57.96-72.02l1.46-2.96l0.14,3.3
					c1.34,31.78,18.93,69.18,34.98,85.36c3.16-20.61,17.57-48.52,30.33-73.21c5.12-9.91,9.95-19.26,13.79-27.59
					c13.53-29.36,10.05-55.62,10.02-55.88l-0.34-2.44l1.76,1.73c5.55,5.44,12.34,14.87,14.71,18.25c3.49-8.15,9.44-25.8,13.17-45.44
					c3.39-17.83,5.96-42.92-1.01-61.16l-1.73-4.53l3.15,3.68c10.25,11.96,32.4,22.7,38.34,25.44c-2.72-14.56-0.7-36.73,1.44-60.15
					c1.79-19.6,3.64-39.88,2.97-57.69c-1.39-36.74-14.09-60.93-15.96-64.31l-381.54-4.27l4.25,62.43
					c5.23,13.26,17.34,45.87,18.17,65.27c0.3,7.03-0.13,14.83-0.58,23.09c-0.72,13.08-1.53,27.91,0.57,42.39
					c2.3,15.88,7.7,27.1,10.32,31.81c1.16-13.96,13.82-35.44,15.36-38l1.51-2.51l0.05,2.93c0.15,8.1-1.43,17.08-3.26,27.49
					c-2.34,13.35-5,28.47-5.15,47.18c-0.17,21.84,5.19,39.92,9.71,51.24c3.55,8.88,7.16,15.11,8.9,17.9
					c6.7-28.08,36.61-73.34,46.46-86.14L242.31,664.7z"/>
			</g>
			<g id="XMLID_235_">
				<path id="XMLID_686_" class="st10" d="M180.69,611.3c-0.08-8.4,0.59-16.44,1.86-23.23c1.52-9.07,4.91-11.08,4.91-11.08
					c-3.31,7.62-5.21,20.44-5.09,34.29L180.69,611.3z"/>
			</g>
			<g id="XMLID_234_">
				<path id="XMLID_685_" class="st10" d="M192.13,757.32c-1.66-14.69,1.6-38.25,8.71-63.02c4.35-15.15,9.65-29.1,15.18-40.22
					c5.41-11.37,11.73-16.04,11.73-16.04c-19,23.92-37.41,88.48-33.95,119.09L192.13,757.32z"/>
			</g>
			<g id="XMLID_233_">
				<path id="XMLID_684_" class="st10" d="M240.5,669.74l-1.59-0.56c3.2-9.13,8.02-19.91,12.79-29.03
					c5.1-9.93,10.86-14.73,10.86-14.73C256.04,633.95,245.94,654.25,240.5,669.74z"/>
			</g>
			<g id="XMLID_232_">
				<path id="XMLID_683_" class="st10" d="M218.44,863.4l-1.19-1.19c22.89-22.89,28.18-57.07,32.71-99.36
					c2.11-19.68,4.01-37.44,7.01-52.09c2.37-11.38,5.72-15.25,5.72-15.25c-5.6,16.57-8.13,40.18-11.06,67.52
					C247.07,805.66,241.73,840.12,218.44,863.4z"/>
			</g>
			<g id="XMLID_231_">
				<path id="XMLID_682_" class="st10" d="M223.9,862.46l-0.59-1.57c0.14-0.05,14.6-5.57,32.95-19.2
					c16.93-12.57,40.73-34.8,58.01-69.37c22.24-44.51,23.15-75.81,23.89-100.97c0.07-2.52,0.14-4.9,0.23-7.29
					c0,0,1.57,8.65,1.01,19.69c-1.11,23.14-4.72,51.49-23.62,89.32c-7.7,15.4-17.31,29.69-28.58,42.45
					c-9.01,10.21-19.1,19.48-29.98,27.55C238.68,856.82,224.05,862.4,223.9,862.46z"/>
			</g>
			<g id="XMLID_230_">
				<path id="XMLID_681_" class="st10" d="M368.59,746.45l-1.56-0.64c6.41-15.61,8.36-44.04,6.51-54.85c0,0,2.62,4.17,2.2,16.24
					C375.18,720.08,372.86,736.06,368.59,746.45z"/>
			</g>
			<g id="XMLID_229_">
				<path id="XMLID_680_" class="st10" d="M403.4,833.3c-2.3-23.11,1.98-41.53,6.52-61.03c3.25-13.98,6.61-28.44,7.32-44.83
					c1.41-32.35-8.68-56.13-16.38-71.2c0,0,3.74,3.56,8.26,14.01c5.81,14.53,10.83,33.63,9.8,57.26
					c-0.72,16.55-4.1,31.08-7.37,45.14c-4.5,19.36-8.75,37.65-6.48,60.49L403.4,833.3z"/>
			</g>
			<g id="XMLID_228_">
				<path id="XMLID_679_" class="st10" d="M457.77,674.77c-2.39-17.23-10.41-42.86-19.69-55.92c0,0,4.94,3.96,9.77,14.71
					c5.6,13.12,9.93,29.05,11.59,40.99L457.77,674.77z"/>
			</g>
			<g id="XMLID_227_">
				<path id="XMLID_678_" class="st10" d="M526.29,612.23c-9.07-12.82-12.24-33.71-15.6-55.82c-2.69-17.72-5.48-36.05-11.5-50.8
					c0,0,3.52,3.5,6.31,13.9c3.05,11.59,4.97,24.26,6.85,36.64c3.33,21.91,6.47,42.61,15.31,55.11L526.29,612.23z"/>
			</g>
		</g>
		<path class="st8" d="M400.86,614.16c0,0,37.64,28.56,33.12,92.06C442.11,695.51,443.56,630.96,400.86,614.16z"/>
		<path class="st8" d="M874.27,386.38c0,0,108.37,35.06,121.49,88.51c-2.92-46.65-33.05-97.45-98.65-113.12
			c56.86,37.3,76.32,63.85,77.76,72.69C963.21,420.47,929.65,386.52,874.27,386.38z"/>
	</g>
	<g>
		<g id="XMLID_42_">
			<g id="XMLID_43_">
				<g id="XMLID_388_">
					<g id="XMLID_650_">
						<g id="XMLID_666_">
							<g id="XMLID_35_">
								<path id="XMLID_1442_" class="st0" d="M162.45,132.25c-8.96-5.43-46.81-30.11-81.17-1.51
									c-35.06,29.18-29.74,79.9-5.02,105.18c21.43,21.91,42.29,12.15,42.29,12.15L162.45,132.25z"/>
							</g>
							<g id="XMLID_34_">
								<path id="XMLID_1441_" class="st2" d="M56.82,176.27c-2.51,22.34,5.28,45.17,19.44,59.65
									c21.43,21.91,42.29,12.15,42.29,12.15l1.96-5.17C82.62,239.11,58.52,206.31,56.82,176.27z"/>
							</g>
							<g id="XMLID_675_">
								<path id="XMLID_1438_" class="st1" d="M81.28,130.74c-11.73,9.76-18.93,21.94-22.41,34.76
									c4.62-12.29,22.82-36.24,43.07-41.1c20.94-5.02,40.56,1.2,58.63,13.77l1.87-5.93C153.49,126.82,115.64,102.14,81.28,130.74z
									"/>
							</g>
							<g id="XMLID_667_">
								<g id="XMLID_391_">
									<path id="XMLID_1754_" class="st3" d="M109.63,251.02c-1.3,0.1-2.71,0.14-4.22,0.08c-7.36-0.28-18.51-3.03-29.78-14.56
										c-6.61-6.76-11.95-15.45-15.46-25.13c-3.54-9.77-5.13-20.38-4.6-30.68c1.03-20.04,9.96-38.03,25.15-50.68
										c14.39-11.97,31.05-16.17,49.52-12.47c14.77,2.95,26.71,10.26,31.81,13.38c0.31,0.19,0.6,0.37,0.87,0.53l0.63,0.38
										l-44.29,116.85l-0.33,0.15C118.74,248.96,115.23,250.57,109.63,251.02z M113.02,118.24c-11.28,0.89-21.69,5.28-31.18,13.18
										c-14.81,12.32-23.51,29.87-24.51,49.41c-1.05,20.51,6.26,40.88,19.56,54.47c10.83,11.07,21.47,13.74,28.48,14.02
										c6.53,0.27,11.24-1.42,12.47-1.92l43.51-114.78c-0.08-0.05-0.16-0.1-0.24-0.15C143.72,121.84,127.65,117.09,113.02,118.24z
										"/>
								</g>
							</g>
						</g>
						<g id="XMLID_651_">
							<g id="XMLID_663_">
								<path id="XMLID_1437_" class="st11" d="M129.04,178.68c-8.3-9.2-25.98-16.44-38.83-4.21c-17.24,16.4-0.63,58.4,17.49,69.17
									C115.09,229.02,129.04,178.68,129.04,178.68z"/>
							</g>
							<g id="XMLID_660_">
								<path id="XMLID_1434_" class="st12" d="M90.21,174.47c-3.27,3.11-5.32,7.14-6.37,11.7c4.92-7.28,12.14-11.68,21.14-10.96
									c10.85,0.86,15.34,7.82,18.49,22.75c3.25-10.91,5.57-19.28,5.57-19.28C120.74,169.48,103.06,162.25,90.21,174.47z"/>
							</g>
							<g id="XMLID_652_">
								<g id="XMLID_384_">
									<path id="XMLID_1730_" class="st3" d="M108.06,244.89l-0.82-0.49c-5.72-3.4-11.45-9.89-16.12-18.27
										c-4.67-8.37-7.77-17.69-8.73-26.26c-1.28-11.34,1.21-20.35,7.21-26.05c4.87-4.63,10.92-6.95,17.49-6.7
										c8.01,0.31,16.88,4.6,22.61,10.95l0.33,0.36l-0.13,0.47c-0.57,2.06-14.05,50.59-21.4,65.12L108.06,244.89z M104.26,168.96
										c-5.05,0.4-9.56,2.46-13.44,6.15c-7.04,6.7-7.51,17.06-6.67,24.56c1.88,16.69,12.18,35.54,23.18,42.69
										c6.97-14.59,19.3-58.4,20.71-63.45c-5.42-5.81-13.62-9.73-21.03-10.01C106.08,168.87,105.16,168.89,104.26,168.96z"/>
								</g>
							</g>
						</g>
					</g>
					<g id="XMLID_555_">
						<g id="XMLID_608_">
							<g id="XMLID_647_">
								<path class="st7" d="M589.12,399.07c-3.08,51.68-56.93,93.14-65.77,100.63c-0.78-12.93-4.56-30.99-6.7-35.6
									c-5.2,23.4-27.6,63.37-53.37,83.23c-30.94,23.84-70.68,22.02-84.72,35.44c-3.06-14.96,2.71-32.66,2.71-32.66
									c-15.05,16.92-34.31,32.98-58.86,51.35c-24.55,18.37-41.33,24.04-45.52,42.83c-0.09-0.21-0.18-0.43-0.28-0.64
									c-6.58-14.93-24.58-37.23-38.82-50.83c-14.45-13.8-38.88-36.23-43.86-54.75c0.47,2.06,0.76,4.1,0.92,6.06
									c0.47,5.98-0.32,11.22-0.93,14.16c-0.19,0.93-0.37,1.63-0.48,2.05c-0.08,0.29-0.12,0.45-0.12,0.45
									c-0.07-0.18-0.13-0.36-0.2-0.54c-7.59-19.87-33.94-43.13-49.18-57.68c-15.38-14.68-24.74-26.55-26.74-45.2
									c-0.39,5.8-1.88,11.26-3.61,15.86c-3.02,8.04-6.78,13.46-6.78,13.46c0.38-5.71-3.5-16.12-8.81-27.73
									c-5-10.96-11.27-22.98-16.42-33.11c-0.07-0.14-0.14-0.28-0.21-0.43c-10.49-20.88-17.37-52.91-9.21-85.15
									c8.21-32.46,27.46-61.27,27.46-61.27c-11.48,10.28-29.19,9.24-29.19,9.24c7.11-3.94,13.1-8.22,18.73-18.99
									c3.84-7.34,7.5-17.7,11.22-33.02c9.18-37.78,22.96-72.98,41.58-96.54c18.63-23.56,45.39-40.25,54.57-43.09
									c-19.4,5.9-35.89,3.86-35.89,3.86c11.66-6.31,30.75-28.12,69.9-34.95c17.51-3.05,33.16-1.35,46.27,2.33
									c26.73,7.48,42.93,23.1,42.93,23.1c4.74-4.84,10.53-9.55,17.36-13.76c16.99-10.46,40.42-17.82,70.01-16.46
									c40.11,1.85,63.85,27.6,78.71,33.66c13.53,5.52,21.76,1.08,25.44-1.66c0.36-0.27,0.68-0.52,0.95-0.75
									c0.27,12.31-12.28,20.29-22.96,22.92c13.44,6.2,39.24,33.3,51.15,72.56c11.91,39.26,26.65,106.75,31.14,117.86
									C576,316.4,592.2,347.4,589.12,399.07z"/>
							</g>
							<path class="st8" d="M511.23,92.71c-11.93,15.48-46.76-0.07-79.79-18.04c-31.23-16.98-80.62-2.18-94.36,2.49
								c16.99-10.46,40.42-17.82,70.01-16.46c40.11,1.85,63.85,27.6,78.71,33.66C499.32,99.89,507.55,95.45,511.23,92.71z"/>
							<path class="st8" d="M325.72,550.93c-15.39,19.95-46.49,56.15-49.11,92.72c-6.58-14.93-24.58-37.23-38.82-50.83
								c-14.45-13.8-38.88-36.23-43.86-54.75c0.47,2.06,0.76,4.1,0.92,6.06c-2.83-13.24-5.45-33.46-3.97-59.93
								c0,0,4.99,71.29,52.74,98.22c-4.76-11.42-13.14-48.52-14.69-58c12.02,32.84,42.07,65.35,45.94,85.74
								C288.27,581.57,314.24,563.77,325.72,550.93z"/>
							<path class="st8" d="M194.17,560.55c-0.24-0.07-0.49-0.14-0.73-0.22c-0.11-0.03-0.22-0.06-0.33-0.1
								c-7.59-19.87-33.94-43.13-49.18-57.68c-15.38-14.68-24.74-26.55-26.74-45.2c-0.39,5.8-2.28-29.42-0.15-37.06
								c0,0,4.98,54.75,16.9,63.91c15.74,12.11,20.28,17.33,20.51,17.7c-0.41-0.8-14.21-27.64-14.16-41.43
								c16.76,35.07,49.2,63.81,53.63,97.81C194.01,559.04,194.1,559.8,194.17,560.55z"/>
							<path class="st8" d="M187.47,99.76c47.62-17.82,64.97,2.29,65.42,2.6c-0.29-0.05-9.87-1.55-40.41,0.37
								c-31.03,1.96-88.18,67.29-102.84,120.38c-7.01,25.39-14.55,38.92-20.5,46.13c3.84-7.34,7.5-17.7,11.22-33.02
								c9.18-37.78,22.96-72.98,41.58-96.54c18.63-23.56,45.64-39.4,54.82-42.24c-19.4,5.9-36.14,3-36.14,3
								c11.66-6.31,30.75-28.12,69.9-34.95c17.51-3.05,33.16-1.35,46.27,2.33C237.51,67.67,205.36,73.66,187.47,99.76z"/>
							<path class="st8" d="M119.02,347.56c0,0-21.99,19.44-20.71,71.77c0.43,17.38,0.46,30.75-0.32,39.62
								c-5-10.96-11.27-22.98-16.42-33.11c-0.07-0.14-0.14-0.28-0.21-0.43c-2.64-17.48-5.42-31.79-2.73-53.77
								c4.22-34.48,35.59-67.4,40.19-79.45c-1.15,8.46-26,47.43-31.76,65.87c-5.76,18.45-5.04,47.44,3.35,72.54
								C89.07,421.93,93.53,358.77,119.02,347.56z"/>
							<g id="XMLID_625_">
								<g id="XMLID_626_">
									<path id="XMLID_1418_" class="st9" d="M284.96,75.34c0,0,12.1,9.01,18.86,26.09c0,0-8.76-12.41-24.69-18.55
										c9.06,3.76,14.19,17.19,13.72,29.31c-3.39-6.88-7.8-11.7-17.88-16.12c2.54,2.17,10.65,11.74,11.39,27.07
										c-2.39-6.26-7.66-12.89-15.38-14.49c3.83,3.42,9.46,11.67,10.9,26.97c-3.36-9.48-17.56-21.15-30.3-20.17
										c16.12,5.82,22.58,21.51,23.21,32.61c0,0-4.79-9.59-20.32-13.92c0,0,14.6,10.57,15.86,26.64
										c-9-13.8-42.2-17.59-56.71-11.94c0,0,11.88,43.53,10.32,45.02c-1.56,1.49,45.26,21.91,45.26,21.91l51.99-29.59l5.95-51.39
										c0,0-17.06,1.11-36.3,16.62c0,0,15.44-19.73,41.34-26.57c0,0-15.9-1.15-31.91,8.43c3.89-4.89,18.49-18.74,36.65-20.55
										c0,0-14.54-1.53-24.9,4.79c0,0,9.88-14.64,28.29-24.99c0,0-15.45,4.95-22.87,12.47c3.47-7.42,11.8-20.01,23.36-29.99
										c-8.47,4.73-15.5,10.24-21.07,15.93c0,0-8.18-7.89-22.51-15.14c4.21,4.45,9.99,11.1,12.84,16.8
										C310.05,92.59,302.99,84.37,284.96,75.34z"/>
								</g>
							</g>
							<g id="XMLID_621_">
								<g id="XMLID_622_">
									<path id="XMLID_1417_" class="st8" d="M128.9,235.47c-11,17.73-30.11,42.58-57.41,52.16c-0.36,0.2-0.72,0.41-1.08,0.61
										c0,0,17.71,1.04,29.19-9.24c0,0-19.25,28.8-27.46,61.27c-2.67,10.53-3.72,21.05-3.58,31.15c1.38-6.65,2.47-14.51,5.6-22.7
										C88.72,310.54,117.05,277.47,128.9,235.47z"/>
								</g>
							</g>
							<g id="XMLID_617_">
								<g id="XMLID_618_">
									<path class="st9" d="M571.51,305.3c-1.17-2.89-3.04-9.62-5.37-18.68c-5.53,0.66-11.49,1.58-17.5,2.88
										c15.22,13.74,32.87,77.16,23.07,103.09c-6.14-25.03-26.22-49.43-43.64-59.69c13.71,17.43,30.79,60.28,28.68,95.24
										c-1.25,20.7-7.26,33.57-24.27,45.13c-1.09-28.87-12.81-42.18-28.93-55.63c6.52,20.84,1.95,56.56-12.65,73.14
										c2.71-28.93-5.73-52.39-20.01-66.47c7.88,29.99,1.81,65.97-13.24,91.73c-20.55,35.17-45.49,35.53-62.92,43.31
										c0,0,4.38-5.77,6.47-24.45s-1.85-31.45-9.64-45.93c1,6.66-1.24,29.88-12.06,46.75c-8.22,12.82-79.55,57.35-98.44,98.35
										c12.25-13.47,21.87-18.05,41.34-32.61c24.55-18.37,43.81-34.43,58.86-51.35c0,0-5.77,17.71-2.71,32.66
										c14.04-13.41,53.77-11.6,84.72-35.43c25.77-19.86,48.18-59.83,53.37-83.23c2.15,4.6,5.92,22.67,6.7,35.6
										c8.84-7.49,62.69-48.95,65.77-100.63C592.2,347.4,576,316.4,571.51,305.3z"/>
								</g>
							</g>
							<g id="XMLID_609_">
								<g id="XMLID_380_">
									<path id="XMLID_1698_" class="st10" d="M277.15,647.19l-1.08-2.55c-6.26-14.76-24.7-37.61-38.9-51.18
										c-0.81-0.78-1.66-1.58-2.53-2.41c-12.72-12.1-31.07-29.57-38.82-45.55c0.41,8.53-1.56,15.18-1.67,15.54l-0.77,2.54
										l-0.91-2.5c-6.45-17.62-28.04-37.96-43.8-52.81c-1.9-1.79-3.7-3.48-5.36-5.07c-14.16-13.51-22.86-24.32-26.06-39.63
										c-2.52,13.08-9.4,23.13-9.74,23.61l-1.83,2.63l0.21-3.2c0.66-9.9-12.09-34.83-22.32-54.87c-0.96-1.89-1.91-3.73-2.81-5.51
										c-5.82-11.45-9.92-24.84-11.86-38.72c-2.28-16.3-1.48-32.28,2.37-47.48c6.35-25.1,19.42-48.25,24.98-57.41
										c-11.26,7.24-25.25,6.52-25.91,6.48l-3.05-0.18l2.68-1.48c11.51-6.38,20.37-13.8,29.52-51.44
										c10.11-41.62,24.55-75.12,41.75-96.88c14.31-18.1,33.69-32.46,46.23-39.37c-15.13,2.98-26.82,1.59-26.96,1.57l-2.75-0.34
										l2.44-1.32c2.83-1.53,6.21-4.07,10.12-7.01c12.1-9.1,30.39-22.86,60.05-28.03c27.72-4.84,50.7,2.39,65.09,9.31
										c13.26,6.37,21.88,13.66,24.23,15.76c9.09-9.11,20.84-16.62,34.03-21.76c16.12-6.28,34.09-9.01,53.41-8.12
										c29.01,1.34,49.38,14.97,64.25,24.93c5.7,3.82,10.63,7.11,14.75,8.79c9.95,4.06,18.76,3.27,25.49-2.27l1.41-1.16l0.04,1.83
										c0.13,5.84-2.52,11.3-7.68,15.78c-3.65,3.18-8.57,5.81-13.75,7.41c14.2,7.98,38.29,34.83,49.58,72.05
										c6.31,20.8,13.55,50.05,19.36,73.56c5.18,20.96,9.66,39.06,11.75,44.23c0.44,1.1,1,2.39,1.65,3.9
										c2.86,6.62,7.64,17.69,11.26,32.72c4.36,18.09,5.96,37.45,4.76,57.55c-1.24,20.86-10.78,42.48-28.34,64.26
										c-14.03,17.4-29.28,29.99-35.79,35.37c-0.79,0.65-1.44,1.19-1.95,1.62l-1.35,1.15l-0.11-1.77
										c-0.68-11.22-3.58-25.9-5.65-32.6c-3.08,11.59-9.81,26.42-18.38,40.36c-10.44,16.98-22.74,31.37-34.62,40.52
										c-17.46,13.45-37.98,18.88-54.47,23.24c-12.96,3.43-24.15,6.39-30.17,12.14l-1.16,1.11l-0.32-1.57
										c-2.27-11.07,0.17-23.42,1.7-29.44c-13.32,14.46-30.46,29.22-56.45,48.66c-6.36,4.76-12.23,8.69-17.42,12.16
										c-14.9,9.97-24.74,16.56-27.77,30.16L277.15,647.19z M194.79,537.84c4.63,17.24,26.56,38.11,41.08,51.93
										c0.87,0.83,1.72,1.64,2.53,2.41c13.45,12.84,30.92,34.04,38.26,49.45c3.76-12.64,13.53-19.18,27.88-28.78
										c5.17-3.46,11.02-7.38,17.34-12.1c27.56-20.62,45.13-35.95,58.73-51.23l2.82-3.17l-1.31,4.03
										c-0.06,0.17-5.28,16.47-2.96,30.68c6.53-5.37,17.34-8.22,29.74-11.5c16.34-4.32,36.67-9.7,53.85-22.93
										c25.03-19.28,47.64-58.34,53.05-82.71l0.57-2.55l1.1,2.37c2.21,4.74,5.69,21.66,6.66,34.18c0.2-0.17,0.41-0.34,0.63-0.52
										c40.21-33.22,61.57-66.31,63.49-98.37c2.76-46.31-9.83-75.45-15.88-89.46c-0.65-1.51-1.22-2.82-1.67-3.94
										c-2.14-5.29-6.41-22.58-11.83-44.47c-5.81-23.48-13.04-52.71-19.34-73.47c-11.7-38.56-37.16-65.76-50.68-72.01l-2.3-1.06
										l2.46-0.61c10.67-2.63,21.32-9.83,22.23-20.23c-7.04,4.93-15.91,5.42-25.78,1.4c-4.29-1.75-9.28-5.09-15.07-8.96
										c-14.7-9.84-34.83-23.31-63.35-24.63c-49.57-2.29-77.14,20.18-86.69,29.95l-0.62,0.63l-0.63-0.61
										c-0.09-0.09-9.12-8.7-24.47-16.06c-14.15-6.79-36.73-13.88-63.96-9.13c-29.24,5.1-47.32,18.7-59.29,27.7
										c-2.93,2.2-5.56,4.18-7.92,5.71c5.44,0.29,18.36,0.35,32.78-4.03c0,0,0,0,0.01,0l0.52,1.7
										c-9.64,2.97-35.97,19.82-54.13,42.79c-17.04,21.56-31.37,54.83-41.42,96.2c-8.54,35.15-16.94,44.49-27.46,50.89
										c5.59-0.25,17.11-1.7,25.25-8.99l5.23-4.68l-3.9,5.83c-0.19,0.29-19.26,29.06-27.34,60.99
										c-10.43,41.24,4.52,75.46,9.35,84.96c0.91,1.78,1.85,3.62,2.81,5.51c9.45,18.5,21.02,41.13,22.4,52.81
										c2.65-4.53,7.94-14.88,8.73-26.46l1.77-0.03c1.95,18.16,10.81,29.7,26.47,44.66c1.66,1.59,3.46,3.28,5.36,5.07
										c15.13,14.25,35.58,33.51,43.2,50.87c0.78-3.91,1.81-11.6-0.03-19.6L194.79,537.84z"/>
								</g>
							</g>
						</g>
						<g id="XMLID_604_">
							<g id="XMLID_605_">
								<path id="XMLID_1414_" class="st10" d="M308.17,104.86c0,0,4.01-7.59,10.92-14.55l1.26,1.25
									C313.5,98.46,308.22,104.79,308.17,104.86z"/>
							</g>
						</g>
						<g id="XMLID_600_">
							<g id="XMLID_601_">
								<path id="XMLID_1411_" class="st10" d="M236.15,95.3c-13.63-4.55-29-0.95-39.39,2.15l-0.51-1.7
									c7.3-2.18,17.02-4.59,26.96-4.36C231.63,91.87,236.15,95.3,236.15,95.3z"/>
							</g>
						</g>
						<g id="XMLID_596_">
							<g id="XMLID_597_">
								<path id="XMLID_1410_" class="st10" d="M86.71,437.89c-5.67-11.61-9.25-25.08-10.36-38.95
									c-1.29-16.13,0.76-31.89,6.11-46.85c6.5-18.18,16.85-32.19,25.16-43.44c4.51-6.1,8.4-11.37,11.19-16.46
									c0,0-1.02,6.16-9.76,17.51c-8.68,11.74-18.51,25.05-24.92,42.99c-9.8,27.44-8.24,59,4.18,84.43L86.71,437.89z"/>
							</g>
						</g>
						<g id="XMLID_592_">
							<g id="XMLID_593_">
								<path id="XMLID_1409_" class="st10" d="M118.07,457.31l-1.77,0.11c-0.01-0.14-0.5-8.46-0.82-18.11
									c-0.54-14.96,1.56-19,1.56-19C116.71,434.18,118.05,457.08,118.07,457.31z"/>
							</g>
						</g>
						<g id="XMLID_588_">
							<g id="XMLID_589_">
								<path id="XMLID_1408_" class="st10" d="M192.45,561.01c-4.42-16.66-16.34-31.45-26.85-44.5
									c-4.19-5.2-8.15-10.11-11.14-14.58c-4.47-6.68-8.07-14.63-10.78-22.27c-4.51-13.61-3.39-19.18-3.39-19.18
									c1.98,10.84,7.27,27.94,15.65,40.46c2.95,4.41,6.88,9.29,11.05,14.46c10.63,13.19,22.67,28.13,27.19,45.15L192.45,561.01z"
									/>
							</g>
						</g>
						<g id="XMLID_584_">
							<g id="XMLID_585_">
								<path id="XMLID_1407_" class="st10" d="M193.08,538.33c-3.55-11.36-4.76-28.06-4.04-40.88c0.94-10.61,3.73-13.39,3.73-13.39
									c-3.3,10.75-3.02,37.66,2,53.75L193.08,538.33z"/>
							</g>
						</g>
						<g id="XMLID_580_">
							<g id="XMLID_581_">
								<path id="XMLID_1406_" class="st10" d="M268.36,630.75c-1.93-4.47-5.03-10.11-8.62-16.65
									c-9.52-17.33-23.15-42.12-29.71-72.13c-2.85-11.74-1.1-17.55-1.1-17.55c4.16,37.49,21.14,68.38,32.37,88.82
									c3.61,6.57,6.73,12.24,8.7,16.8L268.36,630.75z"/>
							</g>
						</g>
						<g id="XMLID_576_">
							<g id="XMLID_577_">
								<path id="XMLID_1402_" class="st10" d="M277.78,644.26l-1.77,0.06c-1.01-28.05,15.35-48.56,32.67-70.27
									c15.35-19.25,31.23-39.15,37.5-66.44c0,0,0.3,9.09-5.4,21.44c-7.9,17.51-19.45,31.99-30.72,46.11
									C292.95,596.61,276.79,616.86,277.78,644.26z"/>
							</g>
						</g>
						<g id="XMLID_572_">
							<g id="XMLID_573_">
								<path id="XMLID_1401_" class="st10" d="M381.94,550.69l-1.34-1.16c8.84-10.19,11.8-23.97,12.78-31.28
									c0,0,1.21,6.88-3.17,18.79C388.25,541.73,385.57,546.5,381.94,550.69z"/>
							</g>
						</g>
						<g id="XMLID_568_">
							<g id="XMLID_569_">
								<path id="XMLID_1399_" class="st10" d="M429.54,565.43l-0.9-1.53c16.92-9.94,40.33-27.13,48.13-61.56
									c7.38-32.57,4.61-47.35-0.83-67.83c0,0,3.59,4.61,6.26,20.79c1.66,12.59,1.09,26.32-3.7,47.43
									C470.55,537.83,446.75,555.32,429.54,565.43z"/>
							</g>
						</g>
						<g id="XMLID_564_">
							<g id="XMLID_565_">
								<path id="XMLID_1398_" class="st10" d="M517.53,464.24l-1.75-0.27c1.13-7.46-0.93-20.59-3.49-27.7c0,0,4.01,5.42,5.25,16.59
									C517.94,457.07,518,461.12,517.53,464.24z"/>
							</g>
						</g>
						<g id="XMLID_560_">
							<g id="XMLID_561_">
								<path id="XMLID_1395_" class="st10" d="M570.22,451.71l-1.74-0.33c3.78-19.97,2.4-36.3-4.93-58.26
									c-6.19-18.54-15.61-33.07-23.18-44.73c-2.29-3.53-4.46-6.87-6.3-9.96c0,0,12.27,15.91,14.62,19.74
									c5.92,9.66,12.06,20.97,16.54,34.4C572.67,414.83,574.06,431.42,570.22,451.71z"/>
							</g>
						</g>
						<g id="XMLID_556_">
							<g id="XMLID_557_">
								<path id="XMLID_1394_" class="st10" d="M488.83,115.68c-17-8.22-42.47-18.16-67.26-18.82c0,0,10.46-1.64,23.01,1.15
									c17.08,3.72,33.11,10.31,45.02,16.07L488.83,115.68z"/>
							</g>
						</g>
					</g>
					<g id="XMLID_519_">
						<g id="XMLID_536_">
							<g id="XMLID_552_">
								<path id="XMLID_1393_" class="st0" d="M487.79,217.45c18.53-11.29,40.99-41.43,76.78-46.24
									c33.2-4.45,58.79,8.37,66.42,51.52c6.56,37.09-5.06,67.37-34.62,79.79c-33.65,14.13-65.14,2.78-74.87,4.77L487.79,217.45z"
									/>
							</g>
							<g id="XMLID_545_">
								<g id="XMLID_549_">
									<path id="XMLID_1392_" class="st2" d="M630.98,222.74c3.61,27.5-12.01,55.6-41.56,68.02
										c-33.65,14.13-60.22,6.39-72.05,5.57l4.12,10.98c9.74-1.99,41.22,9.36,74.87-4.77
										C625.92,290.11,637.54,259.82,630.98,222.74z"/>
								</g>
								<g id="XMLID_546_">
									<path id="XMLID_1391_" class="st1" d="M619.47,191.63c-12.24-18.2-31.71-23.52-54.9-20.41
										c-35.79,4.8-58.25,34.95-76.78,46.24l2.08,5.55c21.59-11.36,43.48-39.9,74.32-44.7
										C586.25,174.87,606.01,178.21,619.47,191.63z"/>
								</g>
							</g>
							<g id="XMLID_537_">
								<g id="XMLID_374_">
									<path id="XMLID_1184_" class="st3" d="M567.51,310.29c-12.54,0.99-23.74-0.36-32.38-1.39c-6-0.72-10.74-1.29-13.46-0.73
										l-0.74,0.15l-34.22-91.24l0.63-0.38c5.43-3.31,11.36-8.39,17.65-13.78c15.16-13,34.04-29.17,59.48-32.58
										c17.76-2.38,32.37,0.33,43.42,8.06c12.25,8.56,20.31,23.43,23.98,44.18c3.3,18.67,1.98,35.83-3.82,49.64
										c-5.99,14.27-16.83,25.02-31.33,31.12C586.58,307.6,576.68,309.57,567.51,310.29z M522.78,306.23
										c3.02-0.24,7.32,0.28,12.56,0.91c14.79,1.77,37.15,4.46,60.68-5.43c28.41-11.93,40.84-40.66,34.09-78.82
										c-6.83-38.62-28.84-55.71-65.43-50.8c-24.92,3.34-43.57,19.33-58.56,32.17c-6.1,5.23-11.87,10.18-17.25,13.56l33.19,88.48
										C522.29,306.27,522.53,306.25,522.78,306.23z"/>
								</g>
							</g>
						</g>
						<g id="XMLID_520_">
							<g id="XMLID_533_">
								<path id="XMLID_1390_" class="st11" d="M508.25,262.27c15.5-9.14,30.7-28.5,48.95-39.13c20.95-12.21,42.38-0.25,39.82,25.1
									c-2.71,26.81-48.09,46.46-75.46,40.35C511.48,276.34,508.25,262.27,508.25,262.27z"/>
							</g>
							<g id="XMLID_529_">
								<g id="XMLID_530_">
									<path id="XMLID_1389_" class="st12" d="M557.21,223.14c-18.25,10.63-33.45,30-48.95,39.13c0,0,1.24,5.41,4.59,12.45
										c16.91,1.22,35.01-11.6,36.27-16.62c-8.37,5.23-18.02,6.22-18.02,6.22c11.43-6.24,15.21-14.72,15.21-14.72
										c-10.26,9.88-20.75,10.77-20.75,10.77c11.98-12.9,20.11-23.89,34.11-29.98c13.25-5.76,30.26-4.96,37.24,9.04
										C594.27,220.3,575.56,212.45,557.21,223.14z"/>
								</g>
							</g>
							<g id="XMLID_521_">
								<g id="XMLID_370_">
									<path id="XMLID_793_" class="st3" d="M537.64,290.37c-5.81,0.46-11.35,0.18-16.27-0.91l-0.3-0.07l-0.19-0.24
										c-10.11-12.27-13.36-26.1-13.49-26.68l-0.15-0.63l0.56-0.33c7.32-4.31,14.54-10.91,22.19-17.89
										c8.42-7.69,17.14-15.64,26.76-21.25c10.53-6.13,21.81-6.58,30.17-1.19c8.19,5.27,12.19,15.17,10.98,27.14
										c-0.97,9.63-7.24,18.86-18.11,26.72C567.82,283.68,551.94,289.24,537.64,290.37z M522.06,287.79
										c16.56,3.56,40.34-2.38,56.7-14.18c7.29-5.26,16.22-13.95,17.39-25.46c1.14-11.29-2.57-20.57-10.17-25.47
										c-7.79-5.02-18.38-4.56-28.32,1.23c-9.47,5.51-18.11,13.4-26.46,21.02c-7.52,6.87-14.64,13.36-21.91,17.76
										C510.03,265.51,513.55,277.35,522.06,287.79z"/>
								</g>
							</g>
						</g>
					</g>
					<g id="XMLID_507_">
						<g id="XMLID_516_">
							<path id="XMLID_1385_" class="st9" d="M164.93,327.37c3.36-13.93-11.05-51.78-9.84-90.58c1.29-41.25,13.88-66.53,42.68-82.23
								c28.8-15.7,67.17-5.56,76.58,32.33c7.96-19.3,27.95-52.2,71.2-56.27c34.39-3.24,73.37,26.25,87.39,63.61
								c20.57,54.81,14.71,122.96,16.25,140.81c-18.27-20.93-26.68-140.24-88.83-149.3c-62.15-9.06-80.38,20.97-80.38,20.97
								c-19.12-21.47-64.29-14.39-76.49,10.98C192.16,241.28,189.08,312,164.93,327.37z"/>
						</g>
						<g id="XMLID_508_">
							<g id="XMLID_305_">
								<path id="XMLID_784_" class="st10" d="M450.32,337.66l-1.79-2.05c-5.8-6.65-10.42-22.29-16.27-42.08
									c-12.55-42.52-29.75-100.76-72.02-106.92c-31.78-4.63-51.71,1.21-62.83,6.93c-12.02,6.18-16.62,13.55-16.66,13.62
									l-0.62,1.02l-0.8-0.89c-8.63-9.69-23.44-14.12-39.61-11.85c-16.24,2.28-29.81,10.95-35.42,22.62
									c-4,8.32-7.03,22.92-10.25,38.38c-6,28.87-12.8,61.58-28.65,71.67l-1.85,1.18l0.51-2.14c1.48-6.16-0.64-17.28-3.32-31.37
									c-3.21-16.84-7.2-37.8-6.54-59.03c0.66-21.09,4.29-37.8,11.12-51.07c6.95-13.51,17.42-23.95,32.02-31.91
									c15.54-8.47,33.89-9.54,49.08-2.86c13.68,6.01,23.59,17.77,28.11,33.26c3.98-9.06,10.77-21.23,21.56-31.77
									c13.54-13.24,30.15-20.87,49.37-22.68c16.7-1.57,35.15,4.38,51.94,16.75c16.54,12.19,29.46,29.03,36.36,47.43
									c16.17,43.09,16.06,95.14,16.01,123.1c-0.02,7.89-0.03,14.12,0.3,17.95L450.32,337.66z M328.72,183.53
									c8.98-0.71,19.52-0.46,31.79,1.32c43.4,6.32,60.78,65.19,73.47,108.17c4.97,16.83,9.33,31.61,14.17,39.09
									c-0.15-3.82-0.14-8.97-0.13-15.11c0.06-27.85,0.17-79.68-15.89-122.47c-6.79-18.08-19.48-34.64-35.75-46.63
									c-16.45-12.12-34.47-17.94-50.72-16.41c-42.99,4.05-62.6,36.66-70.46,55.73l-1.03,2.5l-0.65-2.62
									c-4.02-16.18-13.88-28.45-27.78-34.56c-14.7-6.46-32.46-5.41-47.52,2.8c-28.29,15.43-40.92,39.79-42.22,81.48
									c-0.66,21.03,3.32,41.89,6.51,58.65c2.44,12.82,4.43,23.23,3.67,29.95c14.02-10.94,20.45-41.89,26.16-69.32
									c3.24-15.57,6.29-30.27,10.38-38.79c5.86-12.2,19.95-21.24,36.77-23.61c16.29-2.29,31.3,2.04,40.42,11.6
									c1.67-2.26,6.62-8.1,16.58-13.25C303.52,188.39,314.03,184.69,328.72,183.53z"/>
							</g>
						</g>
					</g>
					<g id="XMLID_500_">
						<g id="XMLID_504_">
							<path id="XMLID_1384_" class="st7" d="M460.03,155.65c18.37,5.2,32.03,31.21,40.73,65.99c8.7,34.78,27.28,84.71,50.18,97.06
								C510.11,343.63,491.26,225.74,460.03,155.65z"/>
						</g>
						<g id="XMLID_501_">
							<path id="XMLID_1382_" class="st10" d="M537.04,308.42c-16.2-19.87-29.38-55.54-37.14-86.57
								c-4.51-18.05-10.03-32.76-16.4-43.73c-6.85-11.8-14.75-19.36-23.48-22.47c0,0,5.64-0.44,13.28,6.3
								c11.65,10.88,21.14,30.79,28.31,59.47c9.66,38.62,27.69,84.45,49.32,97.27C550.94,318.7,545.3,318.75,537.04,308.42z"/>
						</g>
					</g>
					<g id="XMLID_485_">
						<g id="XMLID_497_">
							<path id="XMLID_1381_" class="st0" d="M274.36,186.88c10.71-10.46,43.88-40.46,83.32-30.38
								c43.83,11.19,59.41,43.18,73.28,86.23c13.87,43.06,15.49,83.46,18.24,92.3c11.56,17.27,16.81,33.7,11.68,59.66
								c-4.08,20.66-20.34,42.45-66.57,62.51c-17.55,7.62-52.48,20.67-67.24,36.62c-34.01,4.88-96.67,1.92-96.67,1.92
								c-17.11-31.51-51.81-43.21-73.01-71.01c-21.63-28.37-17.65-61.18-6.49-82.68c8.65-16.67,18.17-29.46,18.86-32.78
								c-0.65-13.44-4.64-49.91,8.69-85.97c13.34-36.06,37.28-51.99,55.34-56.13C263.08,160.46,274.36,186.88,274.36,186.88z"/>
						</g>
						<g id="XMLID_494_">
							<path id="XMLID_1380_" class="st2" d="M454.41,343.59c11.31,77.52-61.52,95.83-114.91,109.41c-1.36,0.82-3.43,1.69-5.14,2.54
								c-3.1,1.31-6.23,2.27-9.71,3.26c-2.09,0.52-4.27-0.02-6.37,0.5c-21.93,6.35-43.35,5.55-65.07,0.85
								c-8.69-1.81-18.33-6.7-26.53-11.39c-14.84,2.9-59.16-11.47-80.4-44.22c2.49,6.84,6.12,13.63,11.12,20.18
								c21.19,27.8,55.89,39.5,73.01,71.01c0,0,62.66,2.97,96.67-1.92c14.76-15.95,49.69-29,67.24-36.62
								c46.24-20.06,62.49-41.85,66.57-62.51C465.16,373.03,462.21,358,454.41,343.59z"/>
						</g>
						<g id="XMLID_486_">
							<g id="XMLID_280_">
								<path id="XMLID_767_" class="st3" d="M313.66,496.14c-34.57,2.72-82.75,0.5-83.3,0.47l-0.5-0.02l-0.24-0.44
									c-9.44-17.39-24.65-28.96-39.36-40.15c-11.85-9.02-24.11-18.34-33.57-30.75c-21.92-28.76-17.77-62.05-6.57-83.62
									c4.6-8.86,9.5-16.72,13.08-22.46c2.95-4.74,5.3-8.51,5.68-9.99c-0.06-1.29-0.16-2.78-0.26-4.5
									c-1-15.91-3.07-49.02,9.02-81.7c6.15-16.62,14.94-30.21,26.13-40.39c11.51-10.46,22.58-14.64,29.84-16.3
									c15.5-3.55,25.98,2.14,32.05,7.54c5.01,4.46,7.86,9.36,8.98,11.54c9.75-9.38,19.91-16.85,30.21-22.19
									c18.11-9.39,35.96-11.93,53.07-7.56c20.85,5.32,36.21,15.33,48.36,31.5c11.87,15.79,19.29,35.92,25.54,55.33
									c9.66,29.97,13.43,58.99,15.69,76.33c0.99,7.63,1.72,13.18,2.52,15.86c10.95,16.39,17.13,32.92,11.74,60.22
									c-2.31,11.71-8.11,22.15-17.72,31.93c-11.14,11.33-27.75,21.84-49.38,31.22c-2.46,1.07-5.28,2.25-8.27,3.5
									c-18.36,7.7-46.1,19.33-58.67,32.9l-0.21,0.23l-0.31,0.04C323.06,495.29,318.49,495.76,313.66,496.14z M230.94,494.87
									c5.96,0.26,63.69,2.64,95.7-1.89c12.93-13.76,40.67-25.39,59.07-33.1c2.99-1.25,5.81-2.43,8.25-3.5
									c39.62-17.19,61.23-37.43,66.06-61.86c5.28-26.76-0.79-42.94-11.55-59l-0.07-0.11l-0.04-0.12
									c-0.86-2.77-1.6-8.44-2.62-16.28c-2.25-17.28-6.01-46.19-15.62-76.01c-12.41-38.53-27.31-74.07-72.66-85.65
									c-35.61-9.09-66.96,14.99-82.48,30.16l-0.93,0.9l-0.51-1.19c-0.03-0.06-2.85-6.54-9.12-12.1c-8.36-7.41-18.6-9.8-30.42-7.09
									c-8.75,2.01-38.57,11.94-54.7,55.57c-11.95,32.33-9.9,65.19-8.91,80.98c0.11,1.78,0.21,3.31,0.27,4.64l0.01,0.11l-0.02,0.11
									c-0.36,1.71-2.58,5.27-5.94,10.66c-3.56,5.71-8.44,13.54-13.01,22.34c-10.94,21.09-15.01,53.63,6.41,81.73
									c9.31,12.22,21.47,21.46,33.23,30.41C206.07,465.8,221.3,477.39,230.94,494.87z"/>
							</g>
						</g>
					</g>
					<g id="XMLID_481_">
						<g id="XMLID_482_">
							<path id="XMLID_1379_" class="st4" d="M335.4,210.88c-10.61,18.99-25.85,78.49-11.26,116.02
								c12.34,31.75,67.25,12.84,69.99,1.02c2.74-11.82,1.66-59.86-7.79-89.55c-8.09-25.4-18-37.24-30.29-39.56
								C342.32,196.22,335.4,210.88,335.4,210.88z"/>
						</g>
					</g>
					<g id="XMLID_477_">
						<g id="XMLID_478_">
							<path id="XMLID_1378_" class="st4" d="M247.47,212.23c5.83,25.88,5.25,91.52-21.42,111.02
								c-30.5,1.05-40.64-23.66-40.64-23.66c-0.39-27.56,6.06-52.62,10.29-66.66c4.23-14.05,14.18-29.91,30.41-32.83
								C242.34,197.17,247.47,212.23,247.47,212.23z"/>
						</g>
					</g>
					<g id="XMLID_466_">
						<g id="XMLID_474_">
							<path id="XMLID_1377_" class="st5" d="M361.56,255.12c-28.81,2.28-43.03,53.67-37.24,72.33
								c7.97,23.92,49.19,26.62,64.91,10.99C401.98,324.32,394.43,252.52,361.56,255.12z"/>
						</g>
						<g id="XMLID_473_">
							<path id="XMLID_755_" class="st6" d="M381.11,264.51c-5.07-6.26-11.56-10.02-19.55-9.39c-5.06,0.4-9.67,2.32-13.81,5.32
								c6.26-2.94,12.82-4.74,19.03-3.41C372.45,258.24,376.24,261.33,381.11,264.51z"/>
						</g>
						<g id="XMLID_472_">
							<path id="XMLID_750_" d="M360.08,264.67c-26.34,2.82-42.03,43.99-35.77,62.78c7.97,23.92,49.19,26.62,64.91,10.99
								C403.9,323.85,391.49,261.31,360.08,264.67z"/>
						</g>
						<g id="XMLID_471_">
							<path id="XMLID_402_" class="st13" d="M359.68,268.9c-24.89,2.97-40.82,41.05-34.73,59.29
								c7.75,23.22,47.91,25.82,63.23,10.63C402.5,324.63,389.41,265.35,359.68,268.9z"/>
						</g>
						<g id="XMLID_470_">
							<path id="XMLID_399_" class="st14" d="M323.69,317.46c-0.17,3.97,0.23,7.64,1.26,10.73c7.75,23.22,47.91,25.82,63.23,10.63
								c5.87-5.82,7.13-19.23,4.53-32.77C384.56,336.61,338.39,347.1,323.69,317.46z"/>
						</g>
						<g id="XMLID_467_">
							<path id="XMLID_365_" d="M364.75,349.08c-5.4,0.43-11.05,0.03-16.51-1.27c-12.2-2.91-21-9.96-24.13-19.34
								c-3.52-10.55-0.01-27.33,8.53-40.81c7.27-11.46,16.83-18.44,26.94-19.65l0,0c5.97-0.71,11.57,0.95,16.67,4.93
								c4.42,3.46,8.43,8.73,11.57,15.25c4.17,8.64,6.74,19.19,7.04,28.93c0.31,10.21-1.83,18.14-6.05,22.32
								C383.27,344.94,374.41,348.32,364.75,349.08z M359.79,269.78c-9.57,1.14-18.67,7.83-25.65,18.84
								c-8.15,12.85-11.66,29.38-8.35,39.3c2.93,8.79,11.26,15.41,22.86,18.18c14.45,3.44,30.81,0.12,38.91-7.9
								c7.94-7.87,7.3-31.33-1.33-49.22C382.41,281.08,373.92,268.09,359.79,269.78L359.79,269.78z"/>
						</g>
					</g>
					<g id="XMLID_452_">
						<g id="XMLID_465_">
							
								<ellipse id="XMLID_362_" transform="matrix(0.0321 -0.9995 0.9995 0.0321 38.5928 672.2167)" class="st15" cx="366.37" cy="316.18" rx="18.6" ry="14.67"/>
						</g>
						<g id="XMLID_464_">
							<path id="XMLID_360_" class="st16" d="M381.03,316.65c-0.33,10.27-7.16,18.38-15.26,18.12c-8.1-0.26-14.39-8.8-14.06-19.06
								C359.93,326.8,374.84,323.25,381.03,316.65z"/>
						</g>
						<g id="XMLID_462_">
							<g id="XMLID_463_">
								
									<ellipse id="XMLID_353_" transform="matrix(0.0813 -0.9967 0.9967 0.0813 17.8125 659.2338)" cx="366.49" cy="319.96" rx="11.4" ry="10.1"/>
							</g>
						</g>
						<g id="XMLID_461_">
							<path id="XMLID_349_" class="st13" d="M366.99,308.73c-0.2,2.49-2.39,4.34-4.87,4.14c-2.49-0.2-4.34-2.39-4.14-4.88
								c0.2-2.49,2.39-4.34,4.88-4.14C365.34,304.06,367.19,306.24,366.99,308.73z"/>
						</g>
						<g id="XMLID_460_">
							<path id="XMLID_345_" class="st13" d="M372.89,327.18c-0.09,1.05-1.01,1.84-2.06,1.75c-1.05-0.09-1.84-1.01-1.75-2.06
								c0.09-1.05,1.01-1.84,2.06-1.75C372.19,325.2,372.97,326.13,372.89,327.18z"/>
						</g>
						<g id="XMLID_458_">
							<g id="XMLID_459_">
								
									<ellipse id="XMLID_339_" transform="matrix(0.0813 -0.9967 0.9967 0.0813 -106.7883 496.113)" cx="215.71" cy="305.98" rx="11.4" ry="10.1"/>
							</g>
						</g>
						<g id="XMLID_457_">
							<path id="XMLID_33_" class="st13" d="M216.21,294.76c-0.2,2.49-2.39,4.34-4.87,4.14c-2.49-0.2-4.34-2.39-4.14-4.88
								c0.2-2.49,2.39-4.34,4.88-4.14C214.56,290.09,216.41,292.27,216.21,294.76z"/>
						</g>
						<g id="XMLID_456_">
							<path id="XMLID_32_" class="st13" d="M222.1,313.2c-0.09,1.05-1.01,1.84-2.06,1.75c-1.05-0.09-1.84-1.01-1.75-2.06
								c0.09-1.05,1.01-1.84,2.06-1.75C221.4,311.23,222.19,312.15,222.1,313.2z"/>
						</g>
						<g id="XMLID_453_">
							<path id="XMLID_31_" class="st17" d="M367.15,335.63c-0.47,0.04-0.94,0.05-1.41,0.03c-4.19-0.13-8.06-2.31-10.88-6.14
								c-2.77-3.76-4.21-8.68-4.04-13.84c0.34-10.74,7.6-19.25,16.17-18.98c8.57,0.28,15.27,9.24,14.92,19.98l-0.89-0.03l0.89,0.03
								c-0.17,5.16-1.91,9.98-4.92,13.55C374.27,333.46,370.82,335.34,367.15,335.63z M365.74,298.5
								c-7.06,0.56-12.85,7.99-13.14,17.24c-0.15,4.77,1.16,9.29,3.7,12.73c2.49,3.38,5.87,5.3,9.51,5.42
								c3.64,0.12,7.13-1.59,9.83-4.8c2.75-3.27,4.35-7.7,4.51-12.47c0.31-9.76-5.61-17.91-13.2-18.15
								C366.53,298.46,366.13,298.47,365.74,298.5z"/>
						</g>
					</g>
					<g id="XMLID_429_">
						<g id="XMLID_449_">
							<path id="XMLID_1376_" class="st5" d="M237.79,295.18c1.7,23.78-7.78,38.63-31.43,36.55c-18.84-1.65-25.63-19.53-22.53-41.17
								c3.06-21.38,13.1-45.27,28.26-45.27C226.91,245.3,236.16,272.5,237.79,295.18z"/>
						</g>
						<g id="XMLID_448_">
							<path id="XMLID_30_" class="st6" d="M222.09,249.87c-2.97-2.88-6.31-4.57-10.01-4.57c-3.83,0-7.34,1.53-10.49,4.16
								c2.83-1.45,6.75-2.99,9.99-3.07C215.28,246.3,218.08,247.48,222.09,249.87z"/>
						</g>
						<g id="XMLID_435_">
							<path id="XMLID_29_" d="M237.79,295.18c1.7,23.78-7.78,38.63-31.43,36.55c-18.84-1.65-25.63-19.53-22.53-41.17
								c3.06-21.38,12.42-36.88,27.58-36.87C226.23,253.7,236.16,272.5,237.79,295.18z"/>
						</g>
						<g id="XMLID_434_">
							<path id="XMLID_28_" class="st13" d="M236.72,296.87c1.66,22.7-7.48,36.87-30.28,34.88c-18.17-1.59-24.72-18.66-21.75-39.31
								c2.93-20.41,11.95-35.2,26.57-35.18C225.55,257.26,235.13,275.21,236.72,296.87z"/>
						</g>
						<g id="XMLID_433_">
							<path id="XMLID_27_" class="st14" d="M184.17,305.99c1.18,14.14,8.28,24.54,22.26,25.76c22.64,1.98,31.81-11.97,30.32-34.38
								C229.71,319.97,195.29,329.13,184.17,305.99z"/>
						</g>
						<g id="XMLID_430_">
							<path id="XMLID_26_" d="M213.71,332.7c-2.3,0.18-4.75,0.16-7.35-0.07c-7.07-0.62-12.7-3.5-16.72-8.57
								c-5.68-7.16-7.75-18.43-5.83-31.75c1.52-10.59,4.65-19.45,9.06-25.64c4.81-6.75,11.16-10.31,18.39-10.31
								c7.12,0.01,13.44,4.2,18.26,12.12c4.41,7.25,7.29,17.31,8.09,28.32c0.97,13.28-1.67,23.1-7.85,29.19
								C225.76,329.93,220.38,332.17,213.71,332.7z M209.63,258.19c-6.02,0.47-11.17,3.66-15.33,9.5
								c-4.24,5.96-7.27,14.55-8.75,24.86c-1.84,12.83,0.1,23.62,5.47,30.4c3.71,4.67,8.92,7.33,15.48,7.91
								c9.62,0.84,17.02-1.22,21.99-6.13c5.79-5.71,8.26-15.07,7.33-27.8l0.88-0.06l-0.88,0.06c-1.67-22.83-11.78-38.79-24.59-38.8
								C210.7,258.13,210.16,258.15,209.63,258.19z"/>
						</g>
					</g>
					<g id="XMLID_419_">
						<g id="XMLID_428_">
							
								<ellipse id="XMLID_225_" transform="matrix(0.0214 -0.9998 0.9998 0.0214 -93.6001 513.6717)" class="st15" cx="215.6" cy="304.65" rx="16.42" ry="11.8"/>
						</g>
						<g id="XMLID_427_">
							<path id="XMLID_222_" class="st16" d="M227.4,304.9c-0.19,9.07-5.63,16.3-12.15,16.16c-6.52-0.14-11.64-7.6-11.44-16.67
								C210.08,313.66,221.89,310.53,227.4,304.9z"/>
						</g>
						<g id="XMLID_425_">
							<g id="XMLID_426_">
								
									<ellipse id="XMLID_220_" transform="matrix(0.0434 -0.9991 0.9991 0.0434 -101.6115 509.7621)" cx="215.39" cy="307.94" rx="9.45" ry="8.37"/>
							</g>
						</g>
						<g id="XMLID_424_">
							<path id="XMLID_217_" class="st13" d="M215.45,298.63c-0.09,2.07-1.84,3.67-3.91,3.58c-2.07-0.09-3.67-1.84-3.58-3.91
								c0.09-2.07,1.84-3.67,3.91-3.58C213.94,294.81,215.54,296.56,215.45,298.63z"/>
						</g>
						<g id="XMLID_423_">
							<path id="XMLID_215_" class="st13" d="M220.92,313.73c-0.04,0.88-0.78,1.55-1.65,1.52c-0.88-0.04-1.55-0.78-1.52-1.65
								c0.04-0.88,0.78-1.55,1.65-1.52C220.28,312.11,220.96,312.85,220.92,313.73z"/>
						</g>
						<g id="XMLID_420_">
							<path id="XMLID_211_" class="st17" d="M216.17,321.93c-0.31,0.02-0.62,0.03-0.94,0.03c-6.99-0.15-12.52-8.03-12.31-17.58
								c0.2-9.54,6.06-17.19,13.05-17.03c3.44,0.07,6.62,1.98,8.95,5.37c2.27,3.3,3.46,7.63,3.36,12.2
								C228.09,314.03,222.74,321.41,216.17,321.93z M215.16,289.14c-5.67,0.45-10.29,7.08-10.47,15.27
								c-0.18,8.56,4.56,15.64,10.58,15.76c6.01,0.13,11.06-6.73,11.24-15.3l0,0c0.09-4.2-0.99-8.17-3.05-11.16
								c-2-2.91-4.67-4.54-7.53-4.6C215.67,289.11,215.41,289.12,215.16,289.14z"/>
						</g>
					</g>
					<g id="XMLID_404_">
						<g id="XMLID_416_">
							<path id="XMLID_1373_" class="st7" d="M335.4,210.88c10.09-7.44,36.62-7.33,50.93,27.49c-3.91-22.47-12.92-43.35-27.99-45.85
								C339.17,189.34,335.4,210.88,335.4,210.88z"/>
						</g>
						<g id="XMLID_413_">
							<path id="XMLID_1372_" class="st9" d="M335.4,210.88c10.09-7.44,36.62-7.33,50.93,27.49
								C380.62,208.3,350.77,184.78,335.4,210.88z"/>
						</g>
						<g id="XMLID_24_">
							<g id="XMLID_25_">
								<path id="XMLID_197_" class="st10" d="M388.6,246.21l-3.08-7.5c-8.35-20.32-20.17-27.4-28.62-29.76
									c-9.3-2.6-17.1-0.2-20.97,2.65l-1.78,1.31l0.38-2.18c0.04-0.23,1.01-5.63,4.41-10.71c3.19-4.77,9.17-10.09,19.54-8.37
									c19.17,3.18,26.47,33.63,28.72,46.57L388.6,246.21z M346.59,206.17c3.5-0.28,7.21,0.07,10.79,1.07
									c7.79,2.18,18.31,8.16,26.6,23.95C380.69,217,373.3,195.9,358.2,193.4c-7.56-1.25-13.53,1.29-17.75,7.56
									c-1.96,2.91-3.08,6-3.65,7.98C339.59,207.4,342.98,206.46,346.59,206.17z"/>
							</g>
						</g>
					</g>
					<g id="XMLID_389_">
						<g id="XMLID_401_">
							<path id="XMLID_1370_" class="st7" d="M247.47,212.23c-10.77-11.73-38.48-6.52-51.77,20.69
								c3.61-17.49,12.84-35.13,29.8-40.55C245.56,185.95,247.47,212.23,247.47,212.23z"/>
						</g>
						<g id="XMLID_398_">
							<path id="XMLID_1369_" class="st9" d="M247.47,212.23c-10.77-11.73-38.48-6.52-51.77,20.69
								C201.63,207.56,236.83,182.84,247.47,212.23z"/>
						</g>
						<g id="XMLID_390_">
							<g id="XMLID_22_">
								<path id="XMLID_186_" class="st10" d="M193.41,239.63l1.42-6.89c4.42-21.43,15.5-36.46,30.4-41.22
									c5.43-1.74,10.1-1.32,13.89,1.24c8.14,5.5,9.19,18.84,9.24,19.41l0.18,2.54l-1.72-1.88c-4.12-4.49-10.88-6.42-18.55-5.3
									c-12.93,1.88-24.81,11.52-31.77,25.78L193.41,239.63z M230.22,192.29c-1.41,0.11-2.89,0.41-4.45,0.91
									c-16.65,5.32-24.28,22.19-27.6,33.49c7.39-11.57,18.19-19.24,29.84-20.93c7.21-1.05,13.7,0.45,18.25,4.12
									c-0.68-4.01-2.69-11.97-8.14-15.66C235.87,192.7,233.22,192.06,230.22,192.29z"/>
							</g>
						</g>
					</g>
				</g>
				<g id="XMLID_44_">
					<g id="XMLID_375_">
						<g id="XMLID_385_">
							<path id="XMLID_1366_" class="st0" d="M246.77,282.29c-3.6,16.51-9.1,33.54-30.9,57.97c-12.62,14.14-15.36,27.55-10.56,34.29
								c7.92,7.21,40.07,7.05,60.19,6.41c20.12-0.64,36.33-8.79,36.33-8.79c5.16-6.25,3.32-21.86,1.5-27.04L246.77,282.29z"/>
						</g>
						<g id="XMLID_382_">
							<path id="XMLID_1365_" class="st1" d="M246.16,285.01c-3.64,15.68-9.68,32.15-30.29,55.24
								c-12.62,14.14-15.36,27.55-10.56,34.29c0.87,0.79,2.03,1.49,3.43,2.11c-0.35-1.47-3.14-10.53,1.55-21.37
								c3.7-8.55,14.22-18.46,20.62-27.52C246.16,306.19,246.58,290.67,246.16,285.01z"/>
						</g>
						<g id="XMLID_379_">
							<path id="XMLID_1363_" class="st2" d="M303.33,345.13c0.49,9.56-7.31,24.66-20.51,33.52c11.34-2.62,19.01-6.48,19.01-6.48
								C306.99,365.91,305.15,350.31,303.33,345.13z"/>
						</g>
						<g id="XMLID_376_">
							<path id="XMLID_1362_" class="st3" d="M269.36,381.63c-1.26,0.1-2.54,0.17-3.83,0.21c-34.8,1.1-54.69-1.07-60.81-6.64
								l-0.07-0.06l-0.06-0.08c-4.63-6.5-3.15-19.97,10.62-35.4c22.08-24.74,26.47-39.86,31.56-57.38c0,0,0.68,5.26-3.05,15.59
								c-4.48,12.31-11.32,25.18-27.19,42.96c-5.87,6.57-9.88,13.34-11.62,19.57c-1.54,5.54-1.16,10.34,1.07,13.54
								c5.78,5.13,25.79,7.18,59.49,6.12c18.62-0.59,34.02-7.76,35.79-8.62c4.75-6.03,3.16-21.6,2.07-26.33
								c0,0,2.92,6.71,2.94,11.75c0.02,5.94-0.84,12.33-3.75,15.85l-0.12,0.14l-0.17,0.08
								C302.08,373.03,287.67,380.19,269.36,381.63z"/>
						</g>
					</g>
					<g id="XMLID_351_">
						<g id="XMLID_372_">
							<path id="XMLID_1360_" class="st4" d="M204.09,420.75c4.78,9.52,6.4,22.7,6.62,36.04c0.34,21.42-5.83,47.62,1.89,64.55
								c7.83,17.18,27.99,24.49,63.26,20.47c31.5-3.59,56.1-7.06,61.97-25.93c5.87-18.87-6.32-48.3-8.49-70.2
								c-1.71-17.17,1.65-30.16,4.01-34.95c-26.09,3.24-81.56,0.96-81.56,0.96L204.09,420.75z"/>
						</g>
						<g id="XMLID_369_">
							<path id="XMLID_1359_" class="st5" d="M333.34,410.74c-3.52,0.44-7.58,0.77-11.97,1.03c-5.15,43.18,15.37,87.13-0.1,104.32
								c-11.95,13.29-93.27,24.06-108.84,4.9c0.05,0.12,0.1,0.23,0.15,0.35c7.83,17.18,27.99,24.49,63.26,20.47
								c31.5-3.59,56.1-7.06,61.97-25.93c5.87-18.87-6.32-48.3-8.49-70.2C327.62,428.51,330.98,415.52,333.34,410.74z"/>
						</g>
						<g id="XMLID_357_">
							<path id="XMLID_164_" class="st6" d="M269.71,543.29c-14.64,1.15-26.75,0.17-36.06-2.93c-10.45-3.48-17.81-9.76-21.87-18.66
								c-5.36-11.75-4.14-27.92-2.96-43.55c0.54-7.17,1.1-14.59,0.99-21.36c-0.25-15.76-2.38-27.42-6.52-35.66l-0.53-1.05
								l48.95-9.28l0.1,0c0.55,0.02,55.7,2.24,81.41-0.96l1.63-0.2l-0.73,1.48c-2.12,4.29-5.66,17.02-3.92,34.47
								c0.75,7.52,2.66,15.81,4.68,24.59c3.78,16.42,7.69,33.4,3.78,45.96c-2.81,9.02-9.78,15.14-21.94,19.27
								c-10.78,3.66-24.85,5.46-40.78,7.27C273.82,542.93,271.74,543.13,269.71,543.29z M205.39,421.4
								c3.93,8.4,5.96,19.99,6.2,35.37c0.11,6.86-0.45,14.31-1,21.52c-1.16,15.41-2.37,31.34,2.8,42.68
								c7.89,17.31,28.29,23.83,62.36,19.96c33.41-3.8,55.72-7.62,61.23-25.31c3.77-12.11-0.09-28.85-3.82-45.04
								c-2.03-8.83-3.95-17.17-4.71-24.81c-1.61-16.19,1.27-28.51,3.46-33.97c-25.9,2.88-77.41,0.9-80.06,0.79L205.39,421.4z"/>
						</g>
					</g>
					<g id="XMLID_337_">
						<g id="XMLID_342_">
							<path id="XMLID_161_" class="st18" d="M210.19,419.59c4.57,6.36,7.65,16.08,8.77,25.78c1.12,9.7-4.79,31.88,10.07,37.47
								c14.86,5.59,25.43-2.54,37.15-2.92c11.72-0.39,25.39,3.81,37.11-1.14c11.71-4.95,11.7-29.93,13.01-39.29
								c1.31-9.36,7.06-22.58,13.53-28.37c-26.04,1.26-77.99-0.2-77.99-0.2L210.19,419.59z"/>
						</g>
						<g id="XMLID_338_">
							<path id="XMLID_21_" d="M293.42,481.96c-5.03,0.4-10.19-0.07-15.24-0.53c-4.2-0.38-8.16-0.74-11.97-0.62
								c-4.01,0.14-7.86,1.19-11.94,2.31c-7.69,2.11-15.63,4.29-25.55,0.56c-11.84-4.46-11.17-18.9-10.67-29.45
								c0.15-3.32,0.3-6.46,0.04-8.76c-1.15-9.99-4.37-19.47-8.61-25.37l-0.8-1.11l43.09-8.96l0.1,0c0.52,0.01,52.21,1.44,77.92,0.2
								l2.5-0.12l-1.87,1.67c-6.39,5.71-12.01,19-13.25,27.83c-0.22,1.55-0.4,3.54-0.61,5.84c-1.08,11.87-2.71,29.82-12.94,34.14
								C300.33,480.99,296.9,481.68,293.42,481.96z M264.83,479.11c0.44-0.03,0.87-0.06,1.32-0.07c3.92-0.13,7.93,0.24,12.19,0.62
								c8.33,0.76,16.95,1.54,24.6-1.7c9.25-3.91,10.89-21.91,11.86-32.67c0.21-2.32,0.39-4.33,0.62-5.93
								c1.17-8.36,6.03-20.55,12.16-27.25c-25.84,1.04-73.1-0.23-75.66-0.3l-40.25,8.37c4.08,6.22,7.03,15.26,8.16,25.08
								c0.28,2.44,0.13,5.65-0.03,9.04c-0.49,10.56-1.1,23.7,9.53,27.7c9.37,3.53,17.04,1.43,24.45-0.61
								C257.54,480.38,261.1,479.4,264.83,479.11z"/>
						</g>
					</g>
					<g id="XMLID_328_">
						<g id="XMLID_329_">
							<g id="XMLID_335_">
								<path id="XMLID_154_" class="st19" d="M273.2,445.95c-24.93,3.17-36.66,22.25-35.08,36.69l1.86,2.16
									c9.56-0.11,17.57-4.59,26.19-4.88c11.72-0.39,25.39,3.81,37.11-1.14c6.12-2.59,9.04-10.64,10.62-19.07l0,0
									C313.9,459.71,302.71,442.2,273.2,445.95z"/>
							</g>
							<g id="XMLID_334_">
								<path id="XMLID_152_" class="st20" d="M313.9,459.71c0,0-8.4-13.14-29.84-14.21c0.31,0.09,0.62,0.19,0.95,0.28
									c13.42,3.21,15.87,18.57,6.19,26.8c-5.37,4.85-13.52,6.87-20.4,7.39c10.59,0.49,22.28,3.12,32.48-1.19
									C309.4,476.19,312.32,468.14,313.9,459.71L313.9,459.71z"/>
							</g>
							<g id="XMLID_330_">
								<path id="XMLID_147_" class="st21" d="M293.42,481.96c-5.03,0.4-10.19-0.07-15.24-0.53c-4.2-0.38-8.16-0.74-11.97-0.62
									c-4.01,0.13-7.86,1.19-11.94,2.31c-4.5,1.24-9.16,2.51-14.27,2.57l-0.41,0l-2.31-2.69l-0.03-0.27
									c-0.86-7.84,1.98-16.31,7.8-23.24c4.66-5.55,13.3-12.55,28.05-14.43c15.5-1.97,25.95,1.96,31.98,5.59
									c6.59,3.97,9.45,8.38,9.57,8.57l0.09,0.14l0.06,0.33l-0.03,0.17c-2.06,10.97-5.7,17.42-11.14,19.72
									C300.33,480.99,296.9,481.68,293.42,481.96z M264.83,479.11c0.44-0.03,0.87-0.06,1.32-0.07c3.92-0.13,7.93,0.24,12.19,0.62
									c8.33,0.76,16.95,1.54,24.6-1.7c4.8-2.03,8.07-7.94,10.02-18.05c-0.73-1.01-3.54-4.58-8.89-7.78
									c-5.79-3.47-15.82-7.2-30.76-5.3c-14.18,1.8-22.46,8.5-26.92,13.81c-5.36,6.38-8.12,14.45-7.42,21.63l1.41,1.64
									c4.73-0.12,9.14-1.33,13.41-2.5C257.54,480.38,261.1,479.4,264.83,479.11z"/>
							</g>
						</g>
					</g>
					<g id="XMLID_321_">
						<g id="XMLID_325_">
							<path id="XMLID_20_" class="st13" d="M237.57,469.26c10.69,1.69,39.05-1.33,43.63-3.44c0.61,6.28-2.41,12.09-2.41,12.09
								s-9.22-1.53-15.76-0.3c-6.55,1.23-19.45,4.59-19.45,4.59L237.57,469.26z"/>
						</g>
						<g id="XMLID_322_">
							<path id="XMLID_139_" class="st22" d="M243.08,483.25l-7.01-15.13l1.64,0.26c10.91,1.72,38.93-1.44,43.12-3.37l1.13-0.52
								l0.12,1.24c0.63,6.47-2.38,12.34-2.51,12.59l-0.3,0.57l-0.64-0.1c-0.09-0.02-9.14-1.49-15.46-0.3
								c-6.44,1.21-19.26,4.54-19.39,4.58L243.08,483.25z M239.05,470.35l5.02,10.82c2.81-0.72,13.18-3.37,18.8-4.42
								c5.68-1.07,13.15-0.13,15.41,0.2c0.65-1.45,2.24-5.48,2.12-9.88C273.54,469.13,250.05,471.49,239.05,470.35z"/>
						</g>
					</g>
					<g id="XMLID_315_">
						<g id="XMLID_320_">
							<path id="XMLID_19_" class="st13" d="M226.78,476.91c-2.04-9.33,3.46-19.38,5.58-19.54c2.12-0.17,6.15,13.28,16.56,21.94
								C238.51,484.78,226.78,476.91,226.78,476.91z"/>
						</g>
						<g id="XMLID_319_">
							<path id="XMLID_18_" class="st23" d="M248.92,479.31c-9.49-7.89-13.68-19.77-15.95-21.67c1.26,8.27,3.27,16.64,7.94,23.61
								C243.53,481.23,246.27,480.7,248.92,479.31z"/>
						</g>
						<g id="XMLID_316_">
							<path id="XMLID_17_" class="st22" d="M242.36,482.09c-8.34,0.66-15.68-4.18-16.07-4.44l-0.3-0.2l-0.08-0.35
								c-1.66-7.6,1.48-15.49,3.85-18.68c0.92-1.24,1.75-1.87,2.53-1.93c1.39-0.11,2.4,1.7,4.42,5.31
								c2.6,4.63,6.52,11.63,12.77,16.83l1.02,0.85l-1.18,0.62C247.02,481.31,244.65,481.91,242.36,482.09z M227.58,476.36
								c1.77,1.08,11.13,6.35,19.74,2.73c-5.9-5.29-9.63-11.94-12.14-16.43c-1.06-1.88-2.25-4.01-2.8-4.38
								c-0.54,0.24-2.19,2.1-3.59,5.91C227.9,466.6,226.59,471.35,227.58,476.36z"/>
						</g>
					</g>
					<g id="XMLID_309_">
						<g id="XMLID_314_">
							<path id="XMLID_16_" class="st13" d="M274.1,476.63c4.98-7.63,5.79-21.34,8.81-22.29c2.14-0.67,11.35,9.9,12.34,22.68
								C286.23,481.14,274.1,476.63,274.1,476.63z"/>
						</g>
						<g id="XMLID_313_">
							<path id="XMLID_15_" class="st23" d="M283.7,454.44c5.22,6.68,6.16,15.77,5.12,24.2c2.19-0.2,4.39-0.69,6.44-1.62
								C294.36,465.45,286.72,455.68,283.7,454.44z"/>
						</g>
						<g id="XMLID_310_">
							<path id="XMLID_14_" class="st22" d="M288.53,479.57c-7.38,0.58-14.35-1.96-14.74-2.11l-1.04-0.39l0.61-0.93
								c2.45-3.75,3.91-9.21,5.08-13.6c1.36-5.08,2.26-8.44,4.21-9.06c0.63-0.2,1.37,0.01,2.29,0.63
								c3.36,2.27,10.33,11.59,11.2,22.83l0.05,0.62l-0.56,0.26C293.36,478.86,290.92,479.38,288.53,479.57z M275.44,476.14
								c2.99,0.92,11.86,3.19,18.87,0.32c-1.2-12.19-9.6-21.18-11.16-21.26c-1.01,0.39-2.11,4.5-3,7.81
								C279.05,467.16,277.68,472.24,275.44,476.14z"/>
						</g>
					</g>
					<g id="XMLID_297_">
						<g id="XMLID_306_">
							<path id="XMLID_1358_" class="st24" d="M208.37,421.65c5.28,5.99,7.46,17.92,7.56,25.92c0.1,8-3.23,29.03,9.34,38.93
								c9.72,7.65,27.77,0.15,39.13-0.03s34.03,3.02,44.36-3.67c10.33-6.69,9.17-31.32,10.51-40.52
								c2.2-15.06,8.39-26.82,14.07-31.54c-3.77-0.42-7.88,1.69-7.88,1.69c-8.97,11.86-10.59,19.23-12.79,29.72
								c-2.2,10.5-4.82,26.18-11.25,30.43c-8.35,5.52-25.99,1.81-37.42,2.18c-9.78,0.31-26.37,7.47-35.69,1.39
								c-6.48-4.23-4.72-23.83-6.5-35.08c-1.78-11.25-7.18-18.83-7.18-18.83L208.37,421.65z"/>
						</g>
						<g id="XMLID_298_">
							<g id="XMLID_11_">
								<path id="XMLID_12_" class="st25" d="M293.92,487.69c-6.52,0.51-13.63,0.2-19.94-0.08c-3.55-0.16-6.91-0.3-9.56-0.26
									c-3.44,0.05-7.53,0.8-11.86,1.59c-9.75,1.77-20.8,3.79-27.83-1.75c-10.96-8.63-10.24-25.17-9.81-35.05
									c0.08-1.79,0.15-3.34,0.13-4.56c-0.1-8.31-2.44-19.79-7.34-25.35l-1.47-1.67l8.9,0.81l0.24,0.33
									c0.23,0.32,5.54,7.88,7.33,19.21c0.55,3.48,0.76,7.64,0.98,12.04c0.47,9.25,1,19.74,5.13,22.44
									c6.06,3.96,15.67,1.97,24.14,0.21c4.04-0.84,7.86-1.63,11.03-1.74c3.46-0.11,7.4,0.14,11.58,0.41
									c9.27,0.6,19.78,1.27,25.38-2.44c5.52-3.65,8.25-17.03,10.24-26.8c0.22-1.06,0.43-2.09,0.63-3.07
									c2.18-10.41,3.76-17.92,12.95-30.07l0.12-0.16l0.18-0.09c0.18-0.09,4.39-2.22,8.38-1.78l2.08,0.23l-1.61,1.34
									c-5.23,4.35-11.52,15.62-13.76,30.99c-0.28,1.95-0.46,4.63-0.65,7.72c-0.75,11.79-1.78,27.93-10.26,33.42
									C305.36,486.06,299.89,487.22,293.92,487.69z M262.3,485.68c0.72-0.06,1.41-0.09,2.09-0.1c2.7-0.04,6.09,0.1,9.67,0.26
									c11.84,0.52,26.57,1.17,34.23-3.79c7.72-5,8.76-21.27,9.45-32.04c0.2-3.13,0.37-5.84,0.67-7.86
									c2.08-14.25,7.61-25.14,12.7-30.51c-2.32,0.27-4.44,1.2-5.05,1.49c-8.84,11.73-10.38,19.07-12.5,29.2
									c-0.2,0.98-0.41,2-0.63,3.06c-2.17,10.64-4.87,23.87-11,27.93c-6.1,4.04-16.46,3.37-26.47,2.73
									c-4.13-0.27-8.04-0.52-11.41-0.41c-3.02,0.1-6.76,0.88-10.72,1.7c-8.81,1.83-18.8,3.91-25.47-0.46
									c-4.88-3.19-5.41-13.68-5.93-23.83c-0.22-4.36-0.43-8.47-0.96-11.85c-1.52-9.63-5.78-16.57-6.8-18.13l-3.82-0.35
									c4.34,6.27,6.39,16.7,6.49,24.84c0.02,1.28-0.05,2.84-0.13,4.66c-0.42,9.54-1.12,25.51,9.13,33.58
									c6.4,5.04,17.04,3.11,26.42,1.4C255.81,486.55,259.22,485.93,262.3,485.68z"/>
							</g>
						</g>
					</g>
					<g id="XMLID_288_">
						<g id="XMLID_294_">
							<path id="XMLID_10_" class="st13" d="M213.11,427.62c5.08,8.03,13.86,19.27,17.35,18.47c3.26-0.75,4.73-13.12,11.96-19.11
								C228.25,425.42,213.11,427.62,213.11,427.62z"/>
						</g>
						<g id="XMLID_293_">
							<path id="XMLID_9_" class="st23" d="M231.53,426.42c-0.99,6.2-1.86,13.93-0.66,19.5c2.99-1.63,4.63-13.21,11.56-18.95
								C238.77,426.57,235.04,426.42,231.53,426.42z"/>
						</g>
						<g id="XMLID_289_">
							<path id="XMLID_8_" class="st22" d="M230.34,447c-5.65,0.45-17.85-18.71-17.97-18.91l-0.73-1.16l1.35-0.2
								c0.15-0.02,15.41-2.19,29.54-0.65l2.08,0.23l-1.61,1.34c-3.87,3.21-6.04,8.38-7.79,12.53c-1.54,3.68-2.66,6.33-4.54,6.76
								C230.56,446.98,230.45,446.99,230.34,447z M214.62,428.32c6.26,9.63,13.44,17.42,15.65,16.91c1-0.23,2.17-3.02,3.3-5.72
								c1.59-3.8,3.53-8.41,6.82-11.84C229.53,426.74,218.42,427.86,214.62,428.32z"/>
						</g>
					</g>
					<g id="XMLID_282_">
						<g id="XMLID_287_">
							<path id="XMLID_7_" class="st13" d="M272.59,427.75c5.08,8.03,13.86,19.27,17.35,18.47c3.26-0.75,4.73-13.12,11.96-19.11
								C287.72,425.55,272.59,427.75,272.59,427.75z"/>
						</g>
						<g id="XMLID_286_">
							<path id="XMLID_96_" class="st23" d="M290.9,426.55c-1.19,6.48-1.36,13.06-0.42,19.42c2.91-1.91,4.6-13.22,11.42-18.87
								C298.2,426.7,294.44,426.55,290.9,426.55z"/>
						</g>
						<g id="XMLID_283_">
							<path id="XMLID_6_" class="st22" d="M289.81,447.13c-5.65,0.45-17.85-18.71-17.97-18.91l-0.73-1.16l1.35-0.2
								c0.15-0.02,15.41-2.19,29.54-0.65l2.08,0.23l-1.61,1.34c-3.87,3.21-6.04,8.38-7.79,12.53c-1.54,3.68-2.66,6.33-4.54,6.76
								C290.03,447.11,289.92,447.13,289.81,447.13z M274.09,428.45c6.26,9.63,13.43,17.42,15.65,16.91c1-0.23,2.17-3.02,3.3-5.72
								c1.59-3.8,3.53-8.41,6.82-11.84C289,426.87,277.9,427.99,274.09,428.45z"/>
						</g>
					</g>
					<g id="XMLID_175_">
						<g id="XMLID_279_">
							<path id="XMLID_1357_" class="st4" d="M205.61,370.78c-17.59,4.94-25.36,18.88-21.42,33.19
								c5.75,20.91,37.63,37.08,67.62,23.15c10.95,7.15,37.49,9.68,58.29,2.71c23.02-7.72,34.72-24.02,31.82-39.7
								c-3.51-18.95-24.69-27.24-41.01-20.5c-27.7,10.72-48.53,13.49-59.58,13.32S205.61,370.78,205.61,370.78z"/>
						</g>
						<g id="XMLID_276_">
							<path id="XMLID_1356_" class="st5" d="M341.93,390.13c-2.32-12.55-12.41-20.43-23.69-22.36
								c20.62,12.9,18.93,34.19,3.49,45.45c-15.17,10.81-54.29,12.67-72.93-5.53c-4.61,9.28-13.36,12.95-21.07,13.76
								c-22.21,2.34-36.65-6.51-43.54-17.55c0.01,0.02,0.01,0.04,0.02,0.06c5.75,20.91,37.63,37.08,67.62,23.15
								c10.95,7.15,37.49,9.68,58.29,2.71C333.13,422.11,344.83,405.81,341.93,390.13z"/>
						</g>
						<g id="XMLID_5_">
							<path id="XMLID_74_" class="st6" d="M290.66,434.55c-4.43,0.35-8.95,0.39-13.45,0.11c-10.6-0.66-19.83-3.03-25.46-6.53
								c-14.83,6.74-31.54,6.78-45.93,0.12c-11.39-5.28-19.8-14.27-22.49-24.04c-2.01-7.32-1.04-14.71,2.74-20.81
								c3.95-6.37,10.62-11.03,19.3-13.47l0.32-0.09l0.3,0.15c0.25,0.12,24.63,11.91,35.35,12.08c5.64,0.09,26.58-0.61,59.25-13.27
								c8.87-3.67,19.27-3.09,27.79,1.54c7.72,4.2,12.84,11.17,14.41,19.63c3.11,16.8-9.91,33.16-32.41,40.71
								C304.39,432.68,297.65,434,290.66,434.55z M251.89,426.11l0.41,0.27c10.48,6.84,36.68,9.6,57.53,2.61
								c21.62-7.25,34.17-22.8,31.23-38.7c-1.47-7.92-6.27-14.45-13.51-18.39c-8.06-4.38-17.89-4.92-26.29-1.45
								c-32.98,12.77-54.21,13.48-59.94,13.39c-10.58-0.16-32.78-10.66-35.79-12.11c-16.24,4.7-24.47,17.53-20.48,32.01
								c2.55,9.28,10.6,17.84,21.52,22.9c14.06,6.51,30.41,6.4,44.88-0.32L251.89,426.11z"/>
						</g>
					</g>
					<g id="XMLID_4_">
						<g id="XMLID_170_">
							<path id="XMLID_71_" class="st6" d="M251.05,427.58c-3.64-6.14-3.94-21.32-3.95-21.97l1.77-0.03
								c0,0.15,0.31,15.36,3.71,21.09L251.05,427.58z"/>
						</g>
					</g>
					<g id="XMLID_45_">
						<g id="XMLID_90_">
							<path id="XMLID_1351_" class="st26" d="M203.73,367.91c-6.18,7.48,8.73,15.2,21.88,26.28c10.3,8.67,17.33,18.21,22.77,18.16
								c6.04-0.06,16.51-11.6,29.27-19.56c14.16-8.84,29.11-15.03,25.48-22.67c-4.74-10-35.08,1.31-62.15,2.33
								C221.98,373.16,207.95,362.81,203.73,367.91z"/>
						</g>
						<g id="XMLID_3_">
							<path id="XMLID_1350_" class="st27" d="M214.1,371.05c9.12,3.54,16.58,4.94,30.17,5.08c17.64,0.18,38.8-6.78,38.8-6.78
								c-11,7.09-26.35,10.5-39.07,10.95C224.73,380.99,214.1,371.05,214.1,371.05z"/>
						</g>
						<g id="XMLID_1_">
							<g id="XMLID_2_">
								<path id="XMLID_1348_" class="st28" d="M301.61,368.19c-2.06,8.5-14.39,10.13-24.58,16.49
									c-12.76,7.96-23.23,19.51-29.27,19.56c-5.44,0.05-12.47-9.49-22.77-18.16c-8.42-7.09-18.95-8.47-21.42-17.96
									c-5.75,7.42,9.01,15.1,22.04,26.07c10.3,8.67,17.33,18.21,22.77,18.16c6.04-0.06,16.51-11.6,29.27-19.56
									c14.16-8.84,29.11-15.03,25.48-22.67C302.77,369.35,302.26,368.71,301.61,368.19z"/>
							</g>
						</g>
						<g id="XMLID_46_">
							<g id="XMLID_902_">
								<path id="XMLID_54_" class="st29" d="M248.8,413.22c-0.14,0.01-0.28,0.02-0.41,0.02c-3.98,0.04-8.43-4.3-14.08-9.79
									c-2.74-2.67-5.84-5.69-9.27-8.58c-2.99-2.52-6.04-4.84-8.99-7.08c-7.84-5.96-14.04-10.67-14.6-15.54
									c-0.2-1.72,0.34-3.37,1.6-4.9c2.49-3.01,7.35-1.6,14.08,0.36c6.46,1.88,14.5,4.21,23.82,3.86c9.8-0.37,20.2-2.12,29.37-3.67
									c16.93-2.86,30.31-5.11,33.61,1.85c1.5,3.17,0.35,6.36-3.51,9.76c-3.3,2.9-8.39,5.86-13.79,8.98
									c-2.78,1.61-5.66,3.28-8.52,5.07c-5.11,3.19-9.89,6.99-14.11,10.35C257.69,408.91,252.65,412.91,248.8,413.22z
									 M203.73,367.91l0.68,0.57c-0.96,1.16-1.35,2.32-1.21,3.56c0.48,4.12,6.7,8.85,13.91,14.33c2.97,2.26,6.04,4.59,9.06,7.14
									c3.48,2.93,6.61,5.98,9.37,8.66c5.35,5.21,9.57,9.32,12.82,9.29c3.29-0.03,8.5-4.17,14.53-8.96
									c4.26-3.39,9.08-7.22,14.28-10.47c2.88-1.8,5.77-3.47,8.57-5.1c5.32-3.08,10.34-5.99,13.5-8.78
									c3.28-2.88,4.22-5.25,3.08-7.66c-2.73-5.75-16.16-3.48-31.71-0.86c-9.23,1.56-19.68,3.32-29.6,3.7
									c-9.61,0.36-17.8-2.02-24.39-3.93c-6.08-1.77-10.47-3.04-12.21-0.93L203.73,367.91z"/>
							</g>
						</g>
					</g>
				</g>
			</g>
		</g>
		<path class="st8" d="M259.82,146.91c0,0-36.72-20.16-66.71,1.22c-29.99,21.37-49.81,64.39-42.41,123.6
			c-10.22-30.73-12.13-101.28,33.94-127.57c-13.1,2.26-34.52,14.93-46.93,36.98C148.53,138.97,222.23,109.06,259.82,146.91z"/>
		<path class="st8" d="M132.92,371.44c0,0-19.79,22.5-0.73,90.64C130.59,418.73,132.92,371.44,132.92,371.44z"/>
		<path class="st8" d="M329.83,545.44c-0.98,1.73-2.38,3.55-4.11,5.49C327.26,548.93,328.65,547.1,329.83,545.44z"/>
		<path class="st8" d="M431.01,451.84c0,0,7.29,69.61-19.96,92.37C432.39,533.9,451.64,482.11,431.01,451.84z"/>
		<path class="st8" d="M465.62,333.73c0,0,70.13,73.74,74.38,118.29c4.19-21.26-17.23-62.05-47.6-102.89
			c34.11,28.19,50.34,44.55,53.56,66.92C551.03,387.24,500.61,325.13,465.62,333.73z"/>
		<path class="st8" d="M439.72,157.25c0,0,31.12,2.81,40.61,52.92s34.88,105.63,63.23,111.57c-15.25-18.41-41.42-51.34-49-83.71
			C486.98,205.67,484.45,153.5,439.72,157.25z"/>
		<path class="st8" d="M448.85,206.96c0,0,5.7,69.74,28.47,98.86c22.77,29.12,29.59,28.01,29.59,28.01s-14.07-16.32-27.59-45.16
			C465.79,259.83,448.85,206.96,448.85,206.96z"/>
		<path class="st8" d="M364.28,113.39c0,0,110.77,7.21,144.92,79.19c-3.28-24.97-40.64-66.63-95.79-88.61
			c52.72,6.72,85.9,32.11,100.02,47.47c-2.41-16.67-59.58-67.42-145.26-51.31c11-0.77,61.14,10.63,80.57,28.36
			C428.76,121.79,402.48,111.55,364.28,113.39z"/>
		<path class="st8" d="M358.33,87.21c0,0,53.82-13.54,93.57,7.19C446.24,82.45,391.1,61.37,358.33,87.21z"/>
		<path class="st8" d="M337.4,124.58c0,0,79.22-14.68,103.67,72.43C431.59,152.27,402.86,104.95,337.4,124.58z"/>
	</g>
</g>
</svg>
