<?xml version="1.0" encoding="utf-8"?>
<!-- Generator: Adobe Illustrator 26.0.3, SVG Export Plug-In . SVG Version: 6.00 Build 0)  -->
<svg version="1.1" id="Layer_1" xmlns="http://www.w3.org/2000/svg" xmlns:xlink="http://www.w3.org/1999/xlink" x="0px" y="0px"
	 viewBox="0 0 1133.86 1133.86" style="enable-background:new 0 0 1133.86 1133.86;" xml:space="preserve">
<style type="text/css">
	.st0{fill:#FFE0C1;}
	.st1{fill:#E8BC95;}
	.st2{fill:#72553B;}
	.st3{fill:#8A4804;}
	.st4{fill:#CC9262;}
	.st5{fill:#703500;}
	.st6{fill:#3A1000;}
	.st7{fill:#684B37;}
	.st8{fill:#513624;}
	.st9{fill:#A38D7E;}
	.st10{fill:#190D05;}
	.st11{fill:#BF7D41;}
	.st12{fill:#FFE6CD;}
	.st13{fill:#930002;}
	.st14{fill:#490004;}
	.st15{fill:#FFA6A6;}
	.st16{fill:#F27C7C;}
	.st17{fill:#C63838;}
	.st18{fill:#FFFFFF;}
	.st19{fill:#BFBFBF;}
	.st20{fill:#5E2A14;}
	.st21{fill:#774014;}
	.st22{fill:#1E1005;}
</style>
<g>
	<g>
		<g>
			<path class="st0" d="M302.83,118.96c4.4,12.91,10.71,22.15,15.55,39.9c9.68,10.71,23.18,0,23.18,0
				c-1.47-11.15-2.2-24.94,7.48-39.9C347.13,115.29,302.83,118.96,302.83,118.96z"/>
			<path class="st1" d="M307.64,118.58c3.98,16.43,19.01,27.96,21.95,44.99c-3.73,0.26-7.81-0.78-11.38-4.72
				c-4.84-17.75-11.15-26.99-15.55-39.9C302.67,118.96,304.6,118.8,307.64,118.58z"/>
			<path class="st2" d="M328.69,164.5L328.69,164.5c-4.25,0-7.94-1.7-10.97-5.05l-0.14-0.16l-0.05-0.2c-2.88-10.55-6.24-18-9.5-25.2
				c-2.19-4.84-4.26-9.42-6.04-14.64l-0.36-1.07l1.12-0.09c0.2-0.01,19.88-1.63,33.45-1.63c11,0,13.04,1.01,13.61,2.1l0.24,0.46
				l-0.28,0.43c-9.14,14.13-8.94,27.24-7.35,39.3l0.07,0.5l-0.39,0.31C341.85,159.75,335.78,164.5,328.69,164.5z M319.17,158.42
				c2.65,2.86,5.86,4.32,9.52,4.32c5.5,0,10.52-3.27,11.93-4.28c-1.55-12.07-1.64-25.16,7.26-39.31c-0.86-0.35-3.53-0.94-11.66-0.94
				c-11.63,0-27.79,1.19-32.17,1.54c1.67,4.71,3.58,8.95,5.6,13.42C312.9,140.38,316.27,147.84,319.17,158.42z"/>
		</g>
		<g>
			<path class="st3" d="M540.22,753.31c3.74,13.64-2.64,26.84-11,50.61c-8.36,23.76-19.29,64.32-8.14,109.5
				c11.15,45.18,53.69,68.72,58.97,92.71c5.28,23.98-20.46,47.53-33.23,57.65c-12.76,10.12-16.28,19.58-9.9,28.16
				c6.38,8.58,25.96,2.2,42.02-9.24c16.06-11.44,44.23-49.29,35.43-83.61c-8.8-34.32-55.01-58.53-65.13-102.09
				c-10.12-43.57,2.2-104.74,38.73-143.68C576.09,753.97,540.22,753.31,540.22,753.31z"/>
			<path class="st4" d="M527.39,918.55c-12.82-36.96-7.5-70.5-0.17-108.73c-7.94,24.26-16.41,61.96-6.14,103.6
				c9.54,38.67,42.07,61.49,54.56,82.31C571.58,980.6,540.55,956.51,527.39,918.55z"/>
			<path class="st4" d="M547.04,1068.03c17.01-14.37,41.44-36.58,33.39-59.75c3.36,23.23-21.23,45.68-33.61,55.5
				c-11.91,9.45-15.77,18.32-11.03,26.44C535.36,1080.86,537.58,1075.43,547.04,1068.03z"/>
			<path class="st5" d="M614.37,999.08c-8.8-34.32-55.01-58.53-65.13-102.09c-10.12-43.57,2.2-104.74,38.73-143.68
				c-11.88,0.66-47.75,0-47.75,0c1.68,6.11,1.31,12.14-0.35,19.07c5.87,51.96-20.13,91.46,4.09,141.62
				c18.19,41.37,55.15,61.9,60.81,92.27c3.24,17.4-3.54,36.72-14.16,52.06c-13.86,16.38-30.66,30.96-50.48,36.24
				c8.32,4.15,24.88-1.95,38.81-11.87C595.01,1071.25,623.17,1033.41,614.37,999.08z"/>
			<path class="st6" d="M546.59,1096.78c-4.75,0-8.24-1.45-10.37-4.32c-6.64-8.93-3.26-18.82,10.06-29.38
				c14.44-11.45,37.91-34.05,32.91-56.77c-2.2-10-11.17-20.09-21.56-31.76c-13.79-15.5-30.96-34.8-37.41-60.93
				c-8.47-34.33-5.8-70.31,8.16-110c1.28-3.65,2.52-7.05,3.68-10.24c6.26-17.2,10.4-28.56,7.3-39.84l-0.31-1.14l1.18,0.02
				c0.16,0,16.09,0.29,30.07,0.29c8.2,0,14.12-0.1,17.61-0.29l2.19-0.12l-1.5,1.6c-37.73,40.23-47.93,102.33-38.51,142.88
				c5.36,23.07,20.8,40.51,35.73,57.38c12.98,14.66,25.24,28.51,29.39,44.7c8.94,34.86-19.36,72.86-35.77,84.55
				C567.88,1091.66,555.29,1096.78,546.59,1096.78z M541.36,754.21c2.68,11.43-1.46,22.82-7.63,39.78
				c-1.16,3.18-2.4,6.58-3.68,10.22c-13.85,39.36-16.5,75.01-8.12,109c6.34,25.7,22.64,44.02,37.01,60.18
				c10.55,11.86,19.66,22.1,21.96,32.55c5.21,23.65-18.78,46.82-33.54,58.53c-12.43,9.86-15.71,18.92-9.74,26.95
				c1.78,2.4,4.8,3.61,8.96,3.61c8.35,0,20.56-5,31.85-13.04c16.08-11.45,43.81-48.63,35.08-82.68
				c-4.04-15.77-16.17-29.47-29.01-43.97c-15.08-17.03-30.67-34.64-36.13-58.14c-9.4-40.48,0.53-102.19,37.48-142.91
				c-3.6,0.13-8.82,0.2-15.56,0.2C558.49,754.48,545.28,754.27,541.36,754.21z"/>
		</g>
		<g>
			<g>
				<path class="st0" d="M831.03,118.96c-4.4,12.91-10.71,22.15-15.55,39.9c-9.68,10.71-23.18,0-23.18,0
					c1.47-11.15,2.2-24.94-7.48-39.9C786.73,115.29,831.03,118.96,831.03,118.96z"/>
				<path class="st1" d="M826.06,118.58c-3.98,16.43-19.01,27.96-21.95,44.99c3.73,0.26,7.81-0.78,11.38-4.72
					c4.84-17.75,11.15-26.99,15.55-39.9C831.03,118.96,829.1,118.8,826.06,118.58z"/>
				<path class="st2" d="M805.17,164.5c-7.09,0-13.16-4.75-13.41-4.95l-0.39-0.31l0.06-0.5c1.59-12.06,1.8-25.17-7.35-39.3
					l-0.28-0.43l0.24-0.46c0.57-1.09,2.61-2.1,13.61-2.1c13.57,0,33.26,1.62,33.45,1.63l1.12,0.09l-0.36,1.07
					c-1.78,5.22-3.85,9.8-6.04,14.64c-3.25,7.2-6.62,14.65-9.5,25.2l-0.05,0.2l-0.14,0.16C813.1,162.8,809.42,164.5,805.17,164.5z
					 M793.24,158.46c1.41,1.01,6.42,4.28,11.92,4.28c3.66,0,6.86-1.45,9.52-4.32c2.9-10.58,6.27-18.04,9.53-25.26
					c2.02-4.47,3.93-8.71,5.6-13.42c-4.38-0.34-20.55-1.54-32.17-1.54c-8.1,0-10.78,0.59-11.66,0.95
					C794.88,133.31,794.79,146.39,793.24,158.46z"/>
			</g>
			<path class="st3" d="M810.08,151.96c0.41-6.01,0.12-14.52-1.49-17.75c-1.91,8.51-7.48,15.7-10.56,19.22
				c0.59-8.95-3.37-20.31-8.95-25.08c3.96,12.76,2.2,32.42-12.98,60.8c-15.18,28.38-45.84,77.08-51.41,134.58
				c-14.67,18.78-40.78,53.39-78.33,100.92c-39.44,22.04-119.41,22.04-158.84,0c-37.55-47.53-63.66-82.14-78.33-100.92
				c-5.57-57.5-36.23-106.2-51.41-134.58c-15.18-28.38-16.94-48.04-12.98-60.8c-5.58,4.77-9.54,16.14-8.95,25.08
				c-3.08-3.52-8.66-10.71-10.56-19.22c-1.61,3.23-1.91,11.74-1.49,17.75c-3.25-6.45-9.51-11.44-13.03-12.47
				c6.16,13.64,11.15,43.27,19.95,85.08c8.8,41.81,30.36,100.77,48.41,136.42c18.04,35.65,44.74,69.24,64.98,97.69
				c20.24,28.46,35.79,47.09,38.43,73.49c-9.24,44.45-28.16,135.1-9.68,181.74c18.44,46.53,80.15,46.46,94.09,46.44
				c14.66,0.03,75.65,0.09,94.09-46.44c18.48-46.65-0.44-137.3-9.68-181.74c2.64-26.4,18.19-45.03,38.43-73.49
				c20.24-28.46,46.94-62.05,64.98-97.69c18.04-35.65,39.61-94.61,48.41-136.42c8.8-41.8,13.79-71.44,19.95-85.08
				C819.59,140.52,813.33,145.51,810.08,151.96z"/>
			<path class="st5" d="M465.05,662.04c0,1,0.04,1.97,0.05,2.96c0.11-0.64,0.23-1.28,0.35-1.92
				C465.31,662.74,465.18,662.39,465.05,662.04z"/>
			<path class="st4" d="M485.33,511.71c-1.39,17.65-5.39,33-5.85,35.25c-6.39,31.54-14.53,76.28-14.43,115.08
				c0.13,0.35,2.88,3.45,3,3.8C471.44,596.9,482.06,573.25,485.33,511.71z"/>
			<path class="st4" d="M781.7,192.81c-29.2,51.93-52.98,106.77-49.86,167.53c-5.4-7.42-8.03-14.3-9.79-23.1
				c-20.8,28.8-46.14,62.8-71.38,82.54c35.47-45,60.32-77.92,74.48-96.04c5.58-57.5,36.23-106.2,51.41-134.58
				c15.18-28.38,16.94-48.04,12.98-60.8c1.77,1.51,3.37,3.68,4.71,6.23C794.83,146.77,794.27,170.45,781.7,192.81z"/>
			<path class="st5" d="M811.16,150.87c-11.78,47.65-15.15,86.02-36.86,141.75c-28.72,73.72-80.97,135.54-119.7,204.19
				c-1.94-10.77-4.8-14.29-5.28-29.92c-18.37,36.68,3.44,146.76-4.99,207.43c-7.04,51.05-81.88,77.73-127.65,54.85
				c-26.79-12.69-41.15-38.94-51.24-66.08c-0.11,0.64-0.23,1.28-0.35,1.92c0.25,18.5,2.44,35.54,7.74,48.92
				c18.44,46.53,80.15,46.46,94.09,46.44c14.66,0.03,75.65,0.09,94.09-46.44c15.55-39.25,4.62-109.65-4.74-157.47
				c0.26,0.52,0.49,1.04,0.76,1.55c-1.87-9.62-3.69-18.38-5.24-25.83c2.64-26.4,18.19-45.03,38.43-73.49
				c20.24-28.46,46.94-62.05,64.98-97.69c18.04-35.65,39.61-94.61,48.41-136.42c8.8-41.8,13.79-71.44,19.95-85.08
				C820.25,140.46,814.53,144.96,811.16,150.87z"/>
			<path class="st5" d="M352.62,192.81c29.2,51.93,52.98,106.77,49.87,167.53c5.4-7.42,8.03-14.3,9.79-23.1
				c20.8,28.8,46.14,62.8,71.38,82.54c-35.47-45-60.32-77.92-74.48-96.04c-5.57-57.5-36.23-106.2-51.41-134.58
				c-15.18-28.38-16.94-48.04-12.98-60.8c-1.77,1.51-3.37,3.68-4.72,6.23C339.49,146.77,340.04,170.45,352.62,192.81z"/>
			<path class="st5" d="M484.99,466.89c-3.52,10.56-5.28,19.36-5.28,29.92c-38.73-68.65-90.98-130.47-119.7-204.19
				c-21.71-55.73-25.08-94.1-36.86-141.75c-3.37-5.91-9.09-10.41-12.4-11.38c6.16,13.64,11.15,43.27,19.95,85.08
				c8.8,41.81,30.36,100.77,48.41,136.42c18.04,35.65,44.74,69.24,64.98,97.69c20.24,28.46,35.79,47.09,38.43,73.49
				C480.97,539.62,491.07,497.28,484.99,466.89z"/>
			<g>
				<path class="st6" d="M724.69,316.09l1.74,0.23c-2.3,17.2,1.85,33.5,1.89,33.67C728.32,349.99,722.35,333.63,724.69,316.09z"/>
			</g>
			<g>
				<path class="st6" d="M651.42,536.91c-6.18-26.81-1.85-50.4-1.85-50.4c-0.03,0.23-2.55,23.5,3.56,50.01L651.42,536.91z"/>
			</g>
			<g>
				<path class="st6" d="M405.54,349.99c0.04-0.16,4.18-16.48,1.89-33.67l1.74-0.23C411.51,333.63,405.54,349.99,405.54,349.99z"/>
			</g>
			<g>
				<path class="st6" d="M482.44,536.91l-1.71-0.39c6.12-26.51,3.59-49.77,3.56-50.01C484.29,486.51,488.62,510.09,482.44,536.91z"
					/>
			</g>
			<path class="st6" d="M568.08,761.24l-1.15,0l-1.1,0c-48.48,0-81.8-16.69-93.8-46.99c-18.53-46.77,0.44-138.04,9.56-181.9
				l0.05-0.22c-2.35-23.08-14.59-40.05-31.51-63.53c-2.18-3.02-4.44-6.15-6.75-9.41c-4.25-5.97-8.72-12.09-13.46-18.57
				c-17.49-23.91-37.3-51.01-51.59-79.23c-19.24-38.02-40.09-96.76-48.48-136.64c-2.05-9.74-3.89-18.82-5.59-27.19
				c-5.58-27.48-9.61-47.33-14.3-57.71l-0.79-1.74l1.84,0.54c3.33,0.97,8.31,4.82,11.75,9.86c-0.1-5.21,0.26-11.75,1.73-14.69
				l1.11-2.21l0.54,2.41c1.5,6.7,5.33,12.66,8.77,16.93c0.19-8.81,4.1-18.82,9.31-23.28l2.31-1.98l-0.9,2.91
				c-3.22,10.39-3.6,29.25,12.92,60.13c1.88,3.51,3.99,7.33,6.27,11.45c16.04,28.98,40.26,72.76,45.22,123.21
				c4.75,6.08,10.69,13.81,17.81,23.08c14.76,19.21,34.98,45.51,60.25,77.5c18.67,10.38,47.4,16.33,78.84,16.33
				c31.45,0,60.16-5.95,78.84-16.33c25.25-31.97,45.46-58.25,60.22-77.46c7.01-9.13,13.08-17.02,17.85-23.12
				c4.96-50.45,29.18-94.23,45.22-123.21c2.27-4.11,4.39-7.94,6.27-11.45c16.51-30.88,16.14-49.74,12.92-60.13l-0.9-2.91l2.32,1.98
				c5.21,4.46,9.12,14.46,9.31,23.28c3.44-4.28,7.27-10.23,8.77-16.93l0.54-2.41l1.11,2.21c1.47,2.94,1.84,9.48,1.73,14.69
				c3.45-5.04,8.42-8.89,11.75-9.86l1.83-0.54l-0.79,1.74c-4.68,10.37-8.72,30.23-14.3,57.71c-1.7,8.37-3.54,17.45-5.59,27.19
				c-8.39,39.87-29.24,98.61-48.48,136.64c-14.29,28.22-34.11,55.32-51.59,79.23c-4.74,6.48-9.21,12.6-13.46,18.57
				c-2.32,3.26-4.57,6.38-6.75,9.41c-16.92,23.47-29.16,40.44-31.51,63.53l0.04,0.22c9.12,43.86,28.1,135.13,9.57,181.9
				C649.66,744.99,617.24,761.24,568.08,761.24z M566.93,759.48h1.15c48.37,0,80.23-15.87,92.12-45.88
				c18.33-46.28-0.57-137.2-9.65-180.89l-0.1-0.48l0.01-0.13c2.36-23.62,14.73-40.77,31.84-64.51c2.18-3.02,4.43-6.15,6.74-9.4
				c4.26-5.98,8.73-12.11,13.47-18.59c17.45-23.86,37.22-50.9,51.44-78.99c19.19-37.9,39.96-96.46,48.33-136.2
				c2.05-9.74,3.89-18.81,5.59-27.18c5.26-25.91,9.15-45.07,13.55-56.05c-3.31,1.8-7.92,5.91-10.58,11.19l-1.96,3.9l0.3-4.35
				c0.33-4.77,0.2-10.73-0.56-14.56c-2.23,6.87-6.53,12.75-9.95,16.66l-1.71,1.95l0.17-2.59c0.48-7.39-2.29-16.53-6.35-21.88
				c2.36,11.21,1.22,29.74-13.93,58.07c-1.88,3.52-4,7.35-6.28,11.47c-15.99,28.9-40.17,72.59-45.03,122.79l-0.03,0.25l-0.16,0.2
				c-4.78,6.12-10.9,14.09-17.99,23.31c-14.78,19.24-35.03,45.58-60.34,77.61l-0.26,0.22c-18.92,10.57-48.03,16.64-79.85,16.64
				c-31.82,0-60.93-6.07-79.85-16.64l-0.26-0.22c-25.33-32.06-45.58-58.41-60.37-77.65c-7.2-9.37-13.19-17.16-17.96-23.27l-0.16-0.2
				l-0.03-0.25c-4.87-50.2-29.04-93.88-45.03-122.79c-2.28-4.12-4.4-7.95-6.28-11.47c-15.15-28.33-16.29-46.85-13.93-58.07
				c-4.06,5.35-6.83,14.49-6.35,21.88l0.17,2.59l-1.71-1.95c-3.42-3.91-7.72-9.8-9.95-16.66c-0.76,3.83-0.89,9.78-0.56,14.56
				l0.3,4.35l-1.97-3.9c-2.66-5.28-7.27-9.39-10.58-11.19c4.4,10.98,8.29,30.14,13.55,56.05c1.7,8.37,3.54,17.44,5.59,27.18
				c8.37,39.75,29.15,98.3,48.33,136.2c14.22,28.09,33.99,55.13,51.44,78.99c4.74,6.48,9.22,12.61,13.47,18.59
				c2.32,3.25,4.57,6.38,6.74,9.4c17.12,23.74,29.48,40.89,31.85,64.51l0.01,0.13l-0.1,0.48c-9.09,43.69-27.99,134.61-9.65,180.89
				c11.72,29.59,44.46,45.88,92.17,45.88H566.93z"/>
		</g>
		<g>
			<path class="st3" d="M418.04,600.79c-4.67,2.67-12.04,9.93-13.25,28.2c-1.21,18.26,6.05,48.19,26.51,75.47
				c20.46,27.28,48.11,37.48,67.44,35.64c-1.98-12.32,3.63-31.02-8.03-55.45C479.05,660.23,443.21,604.87,418.04,600.79z"/>
			<path class="st5" d="M494.54,694.2c-11.37,9.15-25.41,15.59-39.47,8.56c-26.03-11.16-38.97-35.42-49.88-61.09
				c1.97,17.83,9.88,41.13,26.12,62.79c20.46,27.28,48.11,37.48,67.44,35.64C497.03,729.44,501,713.99,494.54,694.2z"/>
			<path class="st6" d="M494.26,741.19L494.26,741.19c-17.65,0-43.64-9.51-63.66-36.21c-21.52-28.69-27.82-58.9-26.69-76.06
				c1.26-19.05,9.12-26.28,13.69-28.9l0.27-0.16l0.31,0.05c25,4.04,60.65,57.82,73.32,84.35c8.25,17.28,7.95,31.57,7.71,43.05
				c-0.1,4.84-0.19,9.02,0.39,12.64l-0.79,1.02C497.35,741.12,495.81,741.19,494.26,741.19z M418.21,601.72
				c-4.3,2.57-11.36,9.48-12.54,27.33c-1.12,16.85,5.11,46.58,26.34,74.88c19.63,26.17,45.03,35.5,62.25,35.5h0
				c1.18,0,2.34-0.04,3.48-0.13c-0.46-3.54-0.37-7.5-0.28-12.02c0.24-11.29,0.53-25.35-7.54-42.25
				C477.44,658.89,442.56,606.05,418.21,601.72z"/>
		</g>
		<g>
			<path class="st0" d="M619.71,721.18c-4.73,17.49-10.23,28.05-21.67,28.49c-11.44,0.44-23.41-14.85-31.11-44.12
				c-3.38,6.16-7.71,11.58-13.36,9.24c-9.91-4.11,1.14-50.21,19.92-53.28c9.31-0.01,11.29,5.86,15.36,17.32
				c3.56,10.03,10.84,25.98,17.14,32.44C612.3,717.74,619.71,721.18,619.71,721.18z"/>
			<path class="st1" d="M588.85,725.65c-10.56-5.28-15.84-19.36-17.6-33.44c-6.22,6.22-12.44,12.42-21.09,7.72
				c-0.85,7.51,0.12,13.52,3.41,14.88c5.65,2.34,9.98-3.08,13.36-9.24c7.7,29.27,19.67,44.56,31.11,44.12
				c11.44-0.44,16.94-11,21.67-28.49c0,0-1.17-0.55-2.97-1.6C608.21,726.18,598.53,730.48,588.85,725.65z"/>
			<path class="st2" d="M597.56,750.57c-12.03,0-23.51-15.92-30.92-42.72c-2.42,4.03-5.89,8.39-10.41,8.39c-0.99,0-2-0.21-3-0.62
				c-3.51-1.46-4.95-7.27-3.94-15.95c1.67-14.42,10.48-36.79,24.05-39h0.03c9.96,0,12.17,6.24,16.18,17.55l0.12,0.35
				c3.3,9.32,10.55,25.57,16.94,32.12c6.12,6.27,13.38,9.68,13.46,9.72l0.67,0.31l-0.19,0.72c-4.64,17.15-10.24,28.67-22.49,29.14
				C597.9,750.56,597.73,750.57,597.56,750.57z M567.22,703.2l0.56,2.13c7.16,27.22,18.29,43.47,29.77,43.47l0.45-0.01
				c11.02-0.42,16.27-11.13,20.67-27.14c-1.99-1.01-7.99-4.31-13.31-9.76c-6.6-6.75-13.99-23.29-17.34-32.76l-0.12-0.35
				c-3.99-11.25-5.81-16.39-14.39-16.39c-12.01,1.97-20.8,23.02-22.47,37.46c-0.88,7.61,0.21,13.03,2.86,14.12
				c4.19,1.73,7.94-1.01,12.25-8.85L567.22,703.2z"/>
		</g>
		<g>
			<path class="st3" d="M700.45,600.79c4.67,2.67,12.04,9.93,13.25,28.2c1.21,18.26-6.05,48.19-26.51,75.47
				c-20.46,27.28-48.11,37.48-67.44,35.64c1.98-12.32-3.63-31.02,8.03-55.45C639.44,660.23,675.28,604.87,700.45,600.79z"/>
			<path class="st5" d="M623.97,693.83c11.36,9.15,25.41,15.59,39.46,8.56c26.04-11.16,38.97-35.42,49.88-61.09
				c-1.97,17.83-9.87,41.13-26.12,62.79c-20.46,27.28-48.11,37.48-67.44,35.64C621.47,729.07,617.51,713.63,623.97,693.83z"/>
			<path class="st6" d="M624.23,741.19c-1.55,0-3.09-0.07-4.57-0.21l-0.79-1.02c0.58-3.62,0.5-7.8,0.39-12.64
				c-0.24-11.48-0.54-25.76,7.71-43.05c12.67-26.54,48.32-80.31,73.32-84.35l0.31-0.05l0.27,0.16c4.57,2.62,12.43,9.85,13.69,28.9
				c1.14,17.16-5.17,47.37-26.69,76.06C667.87,731.68,641.88,741.19,624.23,741.19z M620.75,739.31c1.14,0.08,2.3,0.13,3.48,0.13
				c17.22,0,42.62-9.33,62.25-35.5c21.23-28.3,27.46-58.03,26.34-74.88c-1.18-17.86-8.24-24.76-12.54-27.33
				c-24.35,4.34-59.23,57.18-71.71,83.32c-8.07,16.9-7.78,30.96-7.54,42.25C621.13,731.81,621.21,735.77,620.75,739.31z"/>
		</g>
		<g>
			<path class="st3" d="M703.45,604.89c0,0-4.12-14.33-21.69-4.06c-24.35,14.23-45.33,40.04-59.11,65.57
				c-13.79,25.52-18.85,38.95-36.67,46.43c4.18,5.72,15.18,6.16,19.47,5.5c-4.73,5.94-6.27,11.33-5.72,17.16
				c4.62-1.65,10.89-6.49,14.52-10.78c0.77,5.39,2.36,13.06,5.5,15.4c3.52-8.91,10.97-20.31,27.39-33.22
				c16.43-12.91,34.13-26.1,44.23-41.15c11.44-17.05,14.09-38.21,14.09-38.21L703.45,604.89z"/>
			<path class="st5" d="M615.91,714.72c0,5.28,1.76,10.56,3.52,15.84c4.18-13.92,17.76-23.66,22.23-27.45
				c25.09-21.32,49.28-41.19,63.82-75.96c-0.81,4.99-4.41,23.78-14.09,38.21c-10.1,15.05-27.8,28.24-44.23,41.15
				c-16.43,12.91-23.87,24.31-27.39,33.22c-3.14-2.34-4.73-10.01-5.5-15.4c-3.63,4.29-9.9,9.13-14.52,10.78
				c-0.07-0.71-0.1-1.42-0.1-2.12C607.02,728.86,611.96,721.3,615.91,714.72z"/>
			<path class="st4" d="M622.65,666.03c13.79-25.52,34.77-51.34,59.12-65.57c11.88-6.94,17.61-2.64,20.07,0.88
				c-6.15,0.02-12.13,0.5-17.16,3.12c-20.29,10.56-40.59,36.14-58.87,64.06c-7.32,11.19-15.47,40.78-39.14,44.74
				c-0.24-0.26-0.47-0.52-0.68-0.8C603.81,704.97,608.87,691.55,622.65,666.03z"/>
			<path class="st6" d="M620.14,741.5l-0.92-0.69c-2.45-1.83-4.32-6.58-5.56-14.13c-3.96,4.19-9.55,8.18-13.64,9.64l-1.07,0.38
				l-0.11-1.13c-0.54-5.74,0.95-10.92,4.69-16.18c-5.26,0.28-14.43-0.79-18.28-6.05l-0.66-0.9l1.03-0.43
				c15.25-6.4,20.96-17.21,31.33-36.82c1.52-2.88,3.14-5.95,4.91-9.22c15.64-28.95,37.31-52.98,59.44-65.91
				c6.4-3.73,11.73-4.72,15.86-2.92c4.97,2.16,6.22,7.52,6.28,7.75c0,0-2.85-4.34-7-6.14c-3.58-1.55-8.38-0.6-14.25,2.84
				c-21.87,12.78-43.29,36.55-58.78,65.23c-1.76,3.26-3.38,6.33-4.9,9.21c-10.31,19.5-16.09,30.45-31.11,37.14
				c4.19,4.32,13.52,4.96,17.9,4.29l2.22-0.34l-1.4,1.76c-4.09,5.14-5.85,9.92-5.62,15.35c4.14-1.83,9.65-6.05,13.06-10.08l1.27-1.5
				l0.28,1.94c0.98,6.87,2.49,11.75,4.31,13.99c4.67-10.99,13.81-21.88,27.17-32.38l4.16-3.26c15.1-11.8,30.71-24.02,39.88-37.69
				c11.21-16.7,14.79-37.51,14.82-37.72c0,0-1.95,21.69-13.36,38.7c-9.33,13.91-25.05,26.2-40.26,38.1l-4.15,3.25
				c-13.6,10.69-22.73,21.74-27.12,32.85L620.14,741.5z"/>
		</g>
		<g>
			<path class="st0" d="M502.82,721.18c4.73,17.49,10.23,28.05,21.67,28.49c11.44,0.44,26.95-33.11,34.65-62.38
				c6.44,0.88,16.94,12.32,21.78,8.58c3.93-3.04,1.47-7.92,0-10.71c4.25-0.59,4.68-5.55,1.47-9.54c0.15-6.75-1.17-14.37-10.56-23.18
				c-9.39-8.8-14.96-8.8-19.36-7.78c-4.4,1.03-9.24,7.04-11.74,14.23c-5.87,0.73-10.85,6.75-12.18,17.31
				c-1.32,10.56-5.72,28.6-12.03,35.06C510.23,717.74,502.82,721.18,502.82,721.18z"/>
			<path class="st1" d="M556.06,682.33c-4.03,5.27-12.98,31-23.54,43.32c-7.26,8.71-15.72-1.74-21.42-9.62
				c-4.48,3.38-8.28,5.16-8.28,5.16c4.73,17.49,10.23,28.05,21.67,28.49c11.44,0.44,26.95-33.11,34.65-62.38
				c6.44,0.88,16.94,12.32,21.78,8.58c0.84-0.65,1.37-1.38,1.7-2.16C572.93,689.11,563.35,677.96,556.06,682.33z"/>
			<path class="st1" d="M548.36,669.32c1.5-8.56,5.79-13.63,7.55-13.63c10.46-1.5,17.87,11.48,26.49,18.82
				c-0.01-2.36-0.25-4.82-0.96-7.39c-6.37-6.7-17.96-18.78-27.28-14.55C547.26,655.7,547.74,663.34,548.36,669.32z"/>
			<path class="st1" d="M553.64,667.56c-5.17,3.35-5.91,10.62-5.91,17.66c1.7-5.31,5.8-14.98,11.08-14.98
				c12.98,1.38,16.56,7.43,23.03,16.78c-0.31-0.68-0.63-1.31-0.92-1.86c3.21-0.44,4.24-3.37,3.17-6.5
				C575.61,670.39,564.63,661.28,553.64,667.56z"/>
			<g>
				<path class="st2" d="M581.15,687.6c-2.01-5.34-11.2-15.58-20.17-16.29c-8.42-0.6-13.2,13.77-13.25,13.92
					c0,0,3.59-16.5,13.39-15.67c9.36,0.74,19.24,10.98,21.68,17.43L581.15,687.6z"/>
			</g>
			<g>
				<path class="st2" d="M582.78,677.81c-4.4-6.93-17.35-20.52-24.22-21.66c-6.4-1.07-9.54,10.25-9.57,10.36
					c0,0,1.91-13.42,9.86-12.1c7.61,1.27,20.97,15.46,25.41,22.45L582.78,677.81z"/>
			</g>
			<g>
				<path class="st2" d="M539.34,670.47c0,0-1.12-8.32,1.67-14.63l1.61,0.71C539.95,662.58,539.35,670.39,539.34,670.47z"/>
			</g>
			<path class="st2" d="M524.71,750.56L524.71,750.56l-0.26,0c-12.25-0.47-17.85-11.99-22.49-29.14l-0.19-0.72l0.67-0.31
				c0.07-0.04,7.34-3.46,13.46-9.72c6.24-6.38,10.54-24.58,11.79-34.55c1.25-10.03,5.98-16.85,12.39-17.99
				c2.69-7.39,7.66-13.24,12.19-14.29c1.4-0.33,2.62-0.48,3.84-0.48c4.98,0,10.17,2.69,16.33,8.47
				c9.65,9.05,10.94,16.96,10.84,23.52c1.95,2.56,2.61,5.51,1.72,7.76c-0.51,1.28-1.47,2.2-2.78,2.66c1.46,2.9,3.32,7.66-0.76,10.82
				c-0.8,0.62-1.77,0.93-2.87,0.93c-3.08,0-6.77-2.37-10.68-4.87c-2.85-1.83-5.8-3.72-8.13-4.32
				C552.79,714.44,537.48,750.56,524.71,750.56z M503.86,721.65c4.4,16.01,9.65,26.72,20.67,27.14l0.19,0
				c10.37,0,25.73-31.92,33.58-61.73l0.2-0.75l0.77,0.11c2.82,0.38,6.11,2.49,9.6,4.73c3.52,2.26,7.17,4.59,9.73,4.59
				c0.72,0,1.3-0.19,1.8-0.56c3.01-2.33,1.66-5.99-0.24-9.6l-0.59-1.11l1.24-0.17c1.26-0.17,2.14-0.82,2.56-1.85
				c0.68-1.71,0.03-4.17-1.65-6.26l-0.2-0.25l0.01-0.32c0.13-6.24-0.98-13.8-10.28-22.51c-5.82-5.45-10.62-7.99-15.13-7.99
				c-1.08,0-2.17,0.14-3.44,0.43c-4.01,0.94-8.68,6.68-11.1,13.66l-0.18,0.52l-0.54,0.07c-5.85,0.73-10.23,7.07-11.41,16.55
				c-1.33,10.6-5.69,28.83-12.27,35.56C511.85,717.34,505.84,720.64,503.86,721.65z"/>
		</g>
		<g>
			<path class="st3" d="M415.05,604.89c0,0,4.12-14.33,21.69-4.06c24.35,14.23,45.33,40.04,59.11,65.57
				c13.79,25.52,18.85,38.95,36.67,46.43c-4.18,5.72-15.18,6.16-19.47,5.5c4.73,5.94,6.27,11.33,5.72,17.16
				c-4.62-1.65-10.89-6.49-14.52-10.78c-0.77,5.39-2.36,13.06-5.5,15.4c-3.52-8.91-10.97-20.31-27.39-33.22
				c-16.43-12.91-34.13-26.1-44.23-41.15c-11.44-17.05-14.09-38.21-14.09-38.21L415.05,604.89z"/>
			<path class="st5" d="M502.6,715.08c0,5.28-1.76,10.56-3.52,15.84c-4.18-13.92-17.76-23.66-22.23-27.45
				c-25.09-21.32-49.28-41.19-63.82-75.96c0.81,4.99,4.41,23.78,14.09,38.21c10.1,15.05,27.8,28.24,44.23,41.15
				c16.43,12.91,23.87,24.31,27.39,33.22c3.14-2.34,4.73-10.01,5.5-15.4c3.63,4.29,9.9,9.13,14.52,10.78
				c0.07-0.71,0.1-1.42,0.1-2.12C511.48,729.23,506.55,721.67,502.6,715.08z"/>
			<path class="st5" d="M495.85,666.39c-13.79-25.52-34.76-51.34-59.11-65.57c-11.88-6.94-17.61-2.64-20.07,0.88
				c6.15,0.02,12.13,0.5,17.17,3.12c20.29,10.56,40.58,36.14,58.87,64.06c7.32,11.19,15.48,40.78,39.15,44.74
				c0.24-0.26,0.47-0.52,0.68-0.8C514.7,705.34,509.64,691.92,495.85,666.39z"/>
			<path class="st6" d="M498.35,741.5l-0.42-1.07c-4.39-11.11-13.52-22.17-27.12-32.85l-4.15-3.25
				c-15.21-11.89-30.93-24.19-40.27-38.1c-11.42-17.01-13.36-38.7-13.36-38.7c0.04,0.21,3.63,21.03,14.82,37.72
				c9.18,13.68,24.79,25.88,39.89,37.69l4.15,3.25c13.36,10.5,22.5,21.38,27.17,32.38c1.82-2.24,3.33-7.11,4.31-13.99l0.28-1.94
				l1.27,1.5c3.41,4.03,8.92,8.25,13.06,10.08c0.24-5.43-1.53-10.21-5.62-15.35l-1.4-1.76l2.22,0.34c4.38,0.67,13.72,0.03,17.9-4.29
				c-15.01-6.69-20.8-17.64-31.11-37.14c-1.52-2.88-3.14-5.94-4.9-9.21c-15.49-28.67-36.92-52.45-58.79-65.23
				c-5.88-3.43-10.67-4.39-14.25-2.84c-4.15,1.79-6.99,6.14-6.99,6.14c0.05-0.23,1.31-5.58,6.27-7.75c4.13-1.8,9.46-0.82,15.86,2.92
				c22.14,12.94,43.8,36.96,59.44,65.91c1.77,3.27,3.39,6.33,4.91,9.22c10.37,19.61,16.07,30.41,31.33,36.81l1.03,0.43l-0.66,0.9
				c-3.85,5.26-12.99,6.33-18.28,6.05c3.74,5.25,5.23,10.44,4.69,16.18l-0.11,1.13l-1.07-0.38c-4.08-1.46-9.68-5.45-13.64-9.64
				c-1.24,7.55-3.11,12.3-5.56,14.13L498.35,741.5z"/>
		</g>
		<g>
			<path class="st0" d="M327.23,131.08c0,0,16.09,6.65,23.86-5.37c7.77-12.03,3.67-29.19-3.96-35.5
				c-7.63-6.31-48.08-15.37-51.19-5.13c-9.68,31.83,16.54,44.25,16.54,44.25L327.23,131.08z"/>
			<path class="st1" d="M295.78,85.07c0.85-2.79,4.48-4.14,9.46-4.51c-10.72,15.95-4,34.83,6.44,48.43
				C307.73,126.83,287,113.93,295.78,85.07z"/>
			<path class="st2" d="M338.02,133.4c-5.83,0-10.83-2.3-10.92-2.35c0,0,9.09,2.25,16.15-0.16c2.62-0.89,5.13-2.62,7.1-5.67
				c7.28-11.27,3.89-28-3.78-34.34c-6.24-5.16-34.65-12.01-45.75-8.67c-2.26,0.68-3.62,1.72-4.04,3.11
				c-3.32,10.92-2.43,19.56,0.14,26.2c4.67,12.04,14.89,17.46,15.55,17.8c0,0-11.74-4.2-16.89-16.74
				c-2.89-7.03-4.01-16.21-0.49-27.77c0.6-1.98,2.36-3.43,5.22-4.29c11.76-3.55,40.74,3.51,47.38,9
				c8.22,6.79,11.89,24.66,4.14,36.65c-2.24,3.47-5.13,5.4-8.13,6.37C341.81,133.16,339.87,133.4,338.02,133.4z"/>
		</g>
		<g>
			<path class="st0" d="M806.76,131.05c0,0-16.22,6.68-23.99-5.34c-7.77-12.03-3.67-29.19,3.96-35.5
				c7.63-6.31,48.08-15.37,51.2-5.13c9.68,31.83-16.54,44.25-16.54,44.25L806.76,131.05z"/>
			<path class="st1" d="M837.93,85.07c-0.85-2.79-4.48-4.14-9.46-4.51c10.72,15.95,4,34.83-6.44,48.43
				C825.97,126.83,846.7,113.93,837.93,85.07z"/>
			<path class="st2" d="M795.84,133.4c-4.8,0-10.15-1.56-13.81-7.21c-7.76-12-4.08-29.86,4.14-36.65c6.64-5.49,35.61-12.54,47.38-9
				c2.86,0.86,4.61,2.3,5.22,4.29c4.16,13.67,1.83,24.02-2.23,31.41c-5.5,10-15.15,13.1-15.15,13.1c0.59-0.31,8.88-4.7,13.95-14.3
				c3.69-6.99,5.68-16.75,1.74-29.7c-0.42-1.39-1.78-2.43-4.04-3.11c-11.11-3.35-39.51,3.51-45.75,8.67
				c-7.67,6.34-11.07,23.07-3.78,34.34c2.11,3.27,4.88,5,7.76,5.81c7.02,1.98,15.5,0.01,15.5,0.01
				C806.67,131.09,801.67,133.4,795.84,133.4z"/>
		</g>
		<g>
			<path class="st0" d="M791.53,121.82c0,0-11.55,0.44-13.65-6.68c-1.65-5.61-0.56-9.9,6.8-11.88c6.75-1.82,13.09-1.03,19.53-3.89
				c6.44-2.86,11.72-5.78,15.29-3.63c3.58,2.14,3.1,10.89-5.55,16.98c-8.66,6.09-19.41,0.94-19.41,0.94L791.53,121.82z"/>
			<path class="st1" d="M817.64,95.04c0.79,0.08,1.53,0.3,2.2,0.71c3.57,2.14,3.1,10.89-5.56,16.98c-5.94,4.18-14.54,3.1-19.41,0.94
				C811,113.97,818.41,104.51,817.64,95.04z"/>
			<path class="st2" d="M777.04,115.39c-1.02-3.45-0.93-6.17,0.26-8.3c1.23-2.19,3.57-3.72,7.15-4.69c2.85-0.77,5.63-1.08,8.32-1.38
				c3.82-0.43,7.43-0.83,11.08-2.46c0.77-0.34,1.52-0.68,2.25-1.02c5.53-2.52,10.31-4.69,13.85-2.57c1.52,0.91,2.44,2.75,2.52,5.05
				c0.13,3.66-1.91,9.1-8.02,13.41c-8.94,6.28-19.92,0.22-19.92,0.22c0.11,0.04,10.75,4.07,18.9-1.66c5.54-3.9,7.39-8.7,7.27-11.9
				c-0.06-1.69-0.67-3.01-1.66-3.6c-2.76-1.65-7.14,0.35-12.22,2.66c-0.74,0.34-1.49,0.68-2.26,1.02c-3.9,1.74-7.82,2.18-11.6,2.6
				c-2.62,0.29-5.33,0.6-8.06,1.33c-3.11,0.84-5.09,2.09-6.07,3.85c-0.95,1.7-0.99,3.96-0.11,6.94c1.9,6.43,12.7,6.92,12.81,6.92
				C791.53,121.82,779.29,123.03,777.04,115.39z"/>
		</g>
		<g>
			<path class="st7" d="M990.77,19.8c-22.3,7.63-108.76,35.13-210.06,49.87c-46.79,6.81-130.29,15.4-213.79,15.4
				c-83.5,0-166.99-8.59-213.79-15.4C251.85,54.93,165.38,27.43,143.09,19.8c-4.69,5.87-1.17,31.68,0.59,32.86
				c47.53,16.43,134.19,33.94,210.2,43.42c70.49,8.79,179.85,13.16,213.05,12.91c34.02,0.21,142.56-4.12,213.05-12.91
				c76.02-9.48,162.68-26.99,210.2-43.42C991.95,51.48,995.47,25.67,990.77,19.8z"/>
			<path class="st8" d="M140.81,35.33c0.34,8.28,1.87,16.67,2.86,17.33c47.53,16.43,134.19,33.94,210.2,43.42
				c70.49,8.79,179.85,13.16,213.05,12.91c34.02,0.21,142.56-4.12,213.05-12.91c76.02-9.48,162.68-26.99,210.2-43.42
				c0.86-0.58,2.15-7.08,2.68-14.25c-137.23,41.83-281.3,59.04-425.59,59.06C422.5,97.48,277.52,80.14,140.81,35.33z"/>
			<path class="st9" d="M566.93,90.25c72.32-0.06,143.65-5.5,214.15-15.82c71.42-10.46,142-25.92,211.93-45.88
				c-0.24-3.84-0.91-7.09-2.23-8.74c-22.3,7.63-108.76,35.13-210.06,49.87c-46.79,6.81-130.29,15.4-213.79,15.4
				c-83.5,0-166.99-8.59-213.79-15.4C251.85,54.93,165.38,27.43,143.09,19.8c-0.67,0.84-1.17,2.13-1.53,3.67
				c72.17,26.67,142.92,40.84,210.39,50.68C428.64,85.33,501.1,90.3,566.93,90.25z"/>
			<path class="st10" d="M564.17,109.88c-37.25,0-142.34-4.44-210.4-12.93c-77.99-9.73-164.5-27.6-210.38-43.46l-0.2-0.1
				c-0.33-0.22-1.19-0.8-2.23-7.5c-1.12-7.19-2.25-22.02,1.45-26.64l0.39-0.48l0.59,0.2c10.04,3.44,101.25,34.02,209.9,49.84
				c51.13,7.44,134.11,15.39,213.66,15.39c79.54,0,162.53-7.95,213.66-15.39c108.66-15.82,199.86-46.4,209.9-49.84l0.59-0.2
				l0.39,0.48c3.7,4.62,2.56,19.45,1.45,26.64c-1.04,6.7-1.91,7.28-2.23,7.5l-0.2,0.1c-45.88,15.86-132.4,33.73-210.38,43.46
				c-68.05,8.49-173.3,12.93-210.64,12.93h0l-2.52-0.01C566.06,109.88,565.15,109.88,564.17,109.88z M144.17,51.9
				C190,67.7,276.23,85.5,353.99,95.2c67.99,8.48,172.97,12.92,210.18,12.92c0.97,0,1.89,0,2.75-0.01l2.52,0.01
				c37.3,0,142.45-4.44,210.43-12.92c77.78-9.7,164.03-27.51,209.85-43.32c1.59-2.19,4.41-24.9,0.7-31.04
				c-12.75,4.33-102.75,34.15-209.59,49.7c-51.2,7.45-134.27,15.41-213.91,15.41c-79.64,0-162.72-7.96-213.91-15.41
				c-106.84-15.55-196.84-45.36-209.59-49.7C139.74,26.94,142.51,49.39,144.17,51.9z"/>
		</g>
		<g>
			<path class="st0" d="M784.68,55.15c6.44-1.76,12.5,8.58,14.72,21.12c2.22,12.54,1.56,20.24-4.16,21.34
				c-5.72,1.1-9.68-7.26-12.54-19.8C779.84,65.27,779.84,56.47,784.68,55.15z"/>
			<path class="st1" d="M793.86,60.2c2.65,3.94,4.76,9.72,5.88,16.07c2.22,12.54,1.56,20.24-4.16,21.34
				c-4.08,0.78-7.26-3.25-9.78-10.17C798.38,92.99,799.74,76.27,793.86,60.2z"/>
			<path class="st2" d="M794.24,98.59c-5.19,0-9.24-6.73-12.4-20.58c-3.32-14.57-2.47-22.32,2.61-23.71
				c0.55-0.15,1.11-0.23,1.67-0.23c7.04,0,12.27,11.43,14.15,22.04c1.71,9.65,2.7,20.91-4.86,22.36
				C795.01,98.56,794.62,98.59,794.24,98.59z M786.12,55.83c-0.4,0-0.81,0.05-1.21,0.16c-3.87,1.06-4.34,8.53-1.35,21.62
				c3.1,13.58,6.89,20.02,11.52,19.13c4.66-0.89,5.76-7.35,3.46-20.33C796.46,64.69,791.12,55.83,786.12,55.83z"/>
		</g>
		<g>
			<path class="st0" d="M801.55,53.83c6.67-0.95,10.85,7.19,14.08,18.78c3.23,11.59,1.36,18.38-5.04,19.31
				c-6.4,0.93-10.01-5.22-12.71-18.13C795.62,62.97,794.92,54.78,801.55,53.83z"/>
			<path class="st1" d="M809.57,57.64c2.58,3.35,4.63,8.64,6.4,14.97c3.23,11.59,1.36,18.38-5.04,19.31
				c-4.56,0.66-7.7-2.29-10.11-8.71C809.7,88.59,816.85,86.94,809.57,57.64z"/>
			<path class="st2" d="M809.37,92.88c-5.88,0-9.57-5.66-12.35-18.92c-1.79-8.54-2.48-14.95-0.04-18.43c1-1.43,2.5-2.3,4.44-2.57
				c6.46-0.92,11.05,5.04,15.05,19.41c2.17,7.79,2.12,13.5-0.14,16.98c-1.26,1.93-3.15,3.08-5.62,3.44
				C810.25,92.85,809.8,92.88,809.37,92.88z M802.59,54.63c-0.3,0-0.61,0.02-0.92,0.07c-1.46,0.21-2.52,0.81-3.25,1.84
				c-2.2,3.14-1.15,10.05,0.32,17.06c2.76,13.18,6.19,18.24,11.72,17.44c1.95-0.28,3.43-1.18,4.4-2.66
				c1.95-2.99,1.92-8.36-0.08-15.54C811.32,60.42,807.45,54.63,802.59,54.63z"/>
		</g>
		<g>
			<path class="st0" d="M819,53.75c8.36-1.69,13.64,7.81,14.52,19.12c0.88,11.32-1.21,18.24-7.81,19.12
				c-6.6,0.88-9.45-3.83-11.11-15.67C812.94,64.49,812.47,55.08,819,53.75z"/>
			<path class="st1" d="M832.28,64.54c0.81,2.55,1.35,5.38,1.58,8.34c0.88,11.32-1.21,18.24-7.81,19.12
				c-5.25,0.7-8.12-2.15-9.92-9.31C829.39,89.71,833.89,80.53,832.28,64.54z"/>
			<path class="st2" d="M824.24,92.99c-6.8,0-9.11-6.61-10.51-16.53c-1.62-11.55-2.45-22.04,5.1-23.57c0.7-0.14,1.4-0.21,2.08-0.21
				c8.24,0,12.71,10.11,13.49,20.13c0.98,12.6-1.82,19.16-8.57,20.07C825.27,92.95,824.74,92.99,824.24,92.99z M820.91,54.44
				c-0.56,0-1.14,0.06-1.73,0.18c-5.45,1.1-5.46,9.08-3.7,21.6c1.65,11.79,4.42,15.68,10.12,14.92c5.64-0.75,7.94-6.7,7.05-18.18
				C831.93,63.73,828.02,54.44,820.91,54.44z"/>
		</g>
		<g>
			<path class="st0" d="M342.33,121.82c0,0,11.55,0.44,13.65-6.68c1.66-5.61,0.56-9.9-6.8-11.88c-6.75-1.82-13.09-1.03-19.53-3.89
				c-6.44-2.86-11.72-5.78-15.29-3.63c-3.58,2.14-3.1,10.89,5.55,16.98c8.66,6.09,19.41,0.94,19.41,0.94L342.33,121.82z"/>
			<path class="st1" d="M316.56,95.04c-0.79,0.08-1.53,0.3-2.2,0.71c-3.58,2.14-3.1,10.89,5.55,16.98
				c5.94,4.18,14.54,3.1,19.41,0.94C323.2,113.97,315.79,104.51,316.56,95.04z"/>
			<path class="st2" d="M342.33,121.82c0.11,0,10.91-0.5,12.81-6.92c0.88-2.97,0.84-5.24-0.11-6.94c-0.98-1.75-2.97-3.01-6.07-3.85
				c-2.72-0.73-5.43-1.04-8.06-1.33c-3.78-0.43-7.7-0.87-11.6-2.6c-0.77-0.34-1.53-0.68-2.26-1.02c-5.08-2.31-9.47-4.31-12.22-2.66
				c-1,0.6-1.6,1.91-1.66,3.6c-0.12,3.2,1.73,8,7.27,11.9c8.15,5.74,18.8,1.7,18.9,1.66c0,0-10.98,6.06-19.91-0.22
				c-6.12-4.3-8.15-9.74-8.02-13.41c0.08-2.3,1-4.14,2.52-5.05c3.54-2.13,8.32,0.05,13.85,2.57c0.73,0.33,1.48,0.67,2.25,1.02
				c3.65,1.62,7.26,2.03,11.08,2.46c2.69,0.3,5.47,0.61,8.32,1.38c3.59,0.97,5.93,2.5,7.15,4.69c1.19,2.13,1.28,4.84,0.26,8.3
				C354.57,123.03,342.33,121.82,342.33,121.82z"/>
		</g>
		<g>
			<path class="st0" d="M349.18,55.15c-6.45-1.76-12.51,8.58-14.72,21.12c-2.22,12.54-1.56,20.24,4.16,21.34
				c5.72,1.1,9.68-7.26,12.54-19.8C354.02,65.27,354.02,56.47,349.18,55.15z"/>
			<path class="st1" d="M340.34,60.2c-2.65,3.94-4.76,9.72-5.88,16.07c-2.22,12.54-1.56,20.24,4.16,21.34
				c4.08,0.78,7.26-3.25,9.78-10.17C335.81,92.99,334.46,76.27,340.34,60.2z"/>
			<path class="st2" d="M339.62,98.59L339.62,98.59c-0.38,0-0.77-0.04-1.16-0.11c-7.56-1.45-6.57-12.71-4.86-22.36
				c1.88-10.62,7.11-22.04,14.15-22.04c0.56,0,1.12,0.07,1.67,0.23c5.08,1.38,5.93,9.14,2.61,23.71
				C348.86,91.86,344.8,98.59,339.62,98.59z M347.74,55.83c-5,0-10.34,8.85-12.42,20.59c-2.29,12.97-1.19,19.43,3.46,20.33
				c4.62,0.89,8.42-5.55,11.52-19.13c2.98-13.09,2.52-20.56-1.35-21.62C348.55,55.89,348.15,55.83,347.74,55.83z"/>
		</g>
		<g>
			<path class="st0" d="M332.31,53.83c-6.67-0.95-10.85,7.19-14.08,18.78c-3.23,11.59-1.36,18.38,5.04,19.31
				c6.41,0.93,10.01-5.22,12.71-18.13C338.24,62.97,338.94,54.78,332.31,53.83z"/>
			<path class="st1" d="M324.63,57.64c-2.58,3.35-4.63,8.64-6.4,14.97c-3.23,11.59-1.36,18.38,5.04,19.31
				c4.56,0.66,7.7-2.29,10.11-8.71C324.5,88.59,317.34,86.94,324.63,57.64z"/>
			<path class="st2" d="M324.5,92.88L324.5,92.88c-0.44,0-0.89-0.03-1.35-0.1c-2.47-0.36-4.37-1.51-5.62-3.44
				c-2.26-3.47-2.31-9.18-0.14-16.98c4-14.36,8.57-20.33,15.06-19.41c1.94,0.28,3.44,1.14,4.44,2.57c2.44,3.48,1.75,9.89-0.04,18.43
				C334.07,87.22,330.38,92.88,324.5,92.88z M331.27,54.63c-4.86,0-8.73,5.79-12.19,18.21c-2,7.18-2.03,12.56-0.08,15.54
				c0.97,1.48,2.45,2.38,4.4,2.66c0.38,0.05,0.74,0.08,1.1,0.08h0c4.88,0,8.05-5.24,10.62-17.53c1.46-7,2.52-13.92,0.32-17.06
				c-0.72-1.03-1.78-1.63-3.25-1.84C331.88,54.66,331.57,54.63,331.27,54.63z"/>
		</g>
		<g>
			<path class="st0" d="M314.86,53.75c-8.36-1.69-13.64,7.81-14.52,19.12c-0.88,11.32,1.21,18.24,7.81,19.12
				c6.6,0.88,9.45-3.83,11.11-15.67C320.92,64.49,321.39,55.08,314.86,53.75z"/>
			<path class="st1" d="M301.92,64.54c-0.81,2.55-1.35,5.38-1.58,8.34c-0.88,11.32,1.21,18.24,7.81,19.12
				c5.25,0.7,8.13-2.15,9.92-9.31C304.81,89.71,300.31,80.53,301.92,64.54z"/>
			<path class="st2" d="M309.62,92.99L309.62,92.99c-0.51,0-1.04-0.04-1.59-0.11c-6.75-0.9-9.55-7.47-8.57-20.07
				c0.78-10.02,5.26-20.13,13.5-20.13c0.68,0,1.38,0.07,2.08,0.21c7.54,1.53,6.72,12.02,5.1,23.57
				C318.74,86.38,316.42,92.99,309.62,92.99z M312.95,54.44c-7.12,0-11.02,9.3-11.74,18.51c-0.89,11.48,1.41,17.43,7.05,18.18
				c5.72,0.77,8.47-3.13,10.12-14.92c1.75-12.51,1.75-20.49-3.7-21.6C314.1,54.5,313.52,54.44,312.95,54.44z"/>
		</g>
	</g>
	<g>
		<g>
			<g>
				<g>
					<path class="st0" d="M677.2,287.69c2.84-21.88,30.17-47.2,58.32-35.01c34.19,14.81,25.47,66.09,1.27,85.05
						c-23.81,18.66-43.98,7.55-51.07-11.36C679.89,310.83,677.2,287.69,677.2,287.69z"/>
					<path class="st1" d="M708.38,333.88c-12.14-3.72-11.45-25.97-4.81-36.53c6.97-9.44,22.25,0.69,28.99,10.92
						c-1-15.62-12.01-31.93-28.87-26.88c12.14-14.68,27.86-11.61,34.97,13.52c1.47-11.46,0.3-23.56-8.1-30.13
						c-16.63-13.01-38.49,2.61-52.09,17.23c-0.59,1.9-1.03,3.81-1.27,5.69c0,0,2.69,23.14,8.52,38.69
						c7.09,18.91,27.26,30.02,51.07,11.36c13.33-10.44,21.96-30.69,21.31-49.25C751.92,314.57,738.96,340.99,708.38,333.88z"/>
					<g>
						<path class="st2" d="M686.54,317.47l-1.17,0.06c-0.92-19.15,6.95-34.85,14.62-43.16c5.1-5.53,10.72-8.67,15.81-8.83
							c18.63-0.6,22.27,23.26,22.27,23.26c-0.05-0.23-4.6-22.66-22.24-22.09c-4.77,0.15-10.1,3.16-14.98,8.45
							C693.34,283.3,685.64,298.69,686.54,317.47z"/>
					</g>
					<g>
						<path class="st2" d="M729.28,301.88c-0.06-0.12-6.68-11.81-17.94-13.46c-7.31-1.07-14.99,2.25-22.83,9.88l-0.82-0.84
							c8.12-7.9,16.13-11.33,23.82-10.2C723.35,289.01,729.28,301.88,729.28,301.88z"/>
					</g>
					<path class="st2" d="M721.7,346.57c-18.04,5.4-31.35-6.15-36.54-19.99c-5.79-15.44-8.52-38.59-8.55-38.83l0-0.14
						c2.1-16.15,16.22-32.08,32.85-37.05c8.76-2.62,17.84-2.08,26.28,1.58c12.64,5.47,20.64,16.61,22.54,31.35
						c2.58,20.07-6.31,43.08-21.14,54.71C732,342.22,726.81,345.04,721.7,346.57z M677.79,287.69c0.17,1.43,2.9,23.6,8.48,38.48
						c5,13.33,17.79,24.46,35.1,19.28c4.96-1.48,10.02-4.24,15.05-8.18c14.29-11.2,23.19-34.26,20.7-53.63
						c-1.84-14.31-9.6-25.12-21.84-30.42c-8.18-3.54-16.99-4.07-25.48-1.53C693.88,256.45,679.83,272.26,677.79,287.69z"/>
				</g>
				<g>
					<path class="st0" d="M430.26,311.38c-12.45-20.36-49.3-23.47-64.14,3.38c-16.09,29.12,11.21,68.62,41.85,71.17
						c30.15,2.51,40.89-17.86,36.43-37.55C440.73,332.2,430.26,311.38,430.26,311.38z"/>
					<path class="st1" d="M428.37,308.68c-14.85-6.09-32.19-6.89-46.7,1.73c-13.12,8.35-8.67,28.32-0.14,40.46
						c-1.57-9.33-2.35-20.12,3.84-28.1c6.52-6.85,16.07-3.59,24.17-1.11c-4.5,1.35-10.45,1.9-13.15,5.16
						c-7.65,7.19-10.35,22.7-0.58,30.8c2.14-9.22,7.55-27.98,17.77-22.47c7.64,5.06,10.89,20.01,10.21,30.02
						c-2.37,16.63-22.37,15.27-34.4,7.85c-10.69-5.13-18.89-13.27-24.98-23.14c6.89,18.7,24.58,34.48,43.57,36.06
						c30.15,2.51,40.89-17.86,36.43-37.55c-3.67-16.19-14.14-37-14.14-37C429.69,310.44,429.04,309.55,428.37,308.68z"/>
					<g>
						<path class="st2" d="M438.82,341.4c-9.57-16.19-24.46-24.82-35.2-27.49c-6.99-1.74-13.09-1.32-17.16,1.17
							c-15.04,9.21-6.53,30.46-6.44,30.67c0,0-10.07-21.94,5.83-31.67c4.34-2.66,10.76-3.12,18.06-1.31
							c10.97,2.73,26.17,11.52,35.92,28.03L438.82,341.4z"/>
					</g>
					<g>
						<path class="st2" d="M394.54,351.86c0,0-2.12-14.02,6.81-21.97c5.8-5.17,14.39-6.71,25.51-4.57l-0.22,1.15
							c-10.74-2.07-18.99-0.62-24.51,4.29C393.63,338.34,394.53,351.73,394.54,351.86z"/>
					</g>
					<path class="st2" d="M425.43,385.03L425.43,385.03c-5.1,1.53-10.99,2.03-17.5,1.49c-16.01-1.33-32.06-12.85-40.88-29.33
						c-7.83-14.62-8.35-30.19-1.43-42.71c4.94-8.95,12.6-15.18,22.14-18.04c16.42-4.91,34.91,1.38,43.02,14.64
						c0.13,0.25,10.57,21.1,14.21,37.18C448.24,362.67,443.47,379.64,425.43,385.03z M388.08,297.56
						c-9.24,2.76-16.65,8.81-21.44,17.48c-6.72,12.17-6.2,27.33,1.44,41.59c8.64,16.14,24.32,27.41,39.95,28.71
						c6.36,0.53,12.11,0.04,17.07-1.44c17.31-5.18,21.89-21.51,18.74-35.39c-3.61-15.94-13.99-36.66-14.09-36.87
						C421.92,298.87,404,292.8,388.08,297.56z"/>
				</g>
				<g>
					<path class="st3" d="M544.67,219.37c23.07-17.73,63.5-26.56,80.82-18.48c-7.21,1.14-14.73,4-18.68,9.88
						c11.52-2.43,25.74-6.07,35.63,4.44c-5.3-0.66-14.01,0.93-19.48,3.79c19.07-0.4,37.16,10.93,49.5,39.89
						c12.35,28.97,6.86,42.35,17.88,73.04c11.02,30.69,15.89,62.3-4.97,82.63c0.71-7.87-3.01-12.11-3.63-13.15
						c-1.83,11.27-5.37,25.03-12.92,30.51c1.28-6.97-0.72-14.18-2.07-15.61c-2.23,10.47-10.05,24.75-23.01,26.95
						c6.32-4.96,6.08-13.45,6.08-13.45c-6.03,7.47-17.98,22.12-44.34,26.13c-26.36,4.01-77.77,11.95-77.77,11.95
						c-16.72,0.41-34.05-10.94-44.06-21.87c-0.25,2.22,0.96,6.3,1.6,8.4c-5.76,0.19-15.9-9.99-20.32-21.33
						c-1.28,3.24,0.39,11.52,1.17,14.14c-5.73-0.73-17.23-11.17-19.72-32.47c-2.04,4.08-3.02,9.68-3.08,11.54
						c-5.45-3.88-6.4-17.27-3.71-28.08c2.69-10.81-14.56-53.41-13-83.68c1.55-30.27,10.06-53.18,34.7-72.65
						c-4.93,0.4-10.27,2-14.43,6c-0.02-8.26,12.9-23.92,38.83-26.78c-4.41-2.97-8.69-2.96-12.68-2.48
						C492.57,203.52,523.59,206.9,544.67,219.37z"/>
					<path class="st11" d="M513.28,235.02c0,0-39.36-11.21-61.8,8.9C464.24,226.74,490.45,218.62,513.28,235.02z"/>
					<path class="st11" d="M527.82,231.51c0,0-25.76-14.57-50.47-13.69C493.3,208.34,525.23,220.35,527.82,231.51z"/>
					<path class="st11" d="M595.97,202.57c0,0-33.79,14.12-41.61,31.19C555.31,213.12,580.66,203.39,595.97,202.57z"/>
					<path class="st5" d="M672.46,258.9c-12.35-28.97-30.43-40.29-49.5-39.89c5.47-2.86,14.18-4.45,19.48-3.79
						c-9.88-10.51-24.1-6.87-35.63-4.44c3.96-5.88,11.47-8.74,18.68-9.88c-1.9-0.89-4.08-1.56-6.48-2.05
						c-12.96,3.89-24.53,11.92-31.96,24.37c9.78-4.15,19.9-7.18,30.02-10.21c-6.07,4.27-7.42,12.02-13.5,16.29
						c59.8-5.65,59.81,56.12,65.53,75.23c8.16,38.17,24.75,54.53,10.8,85.65c-1.35-4.49-5.35-7.41-7.18-11.45
						c2.61,10.26,3.08,20.97-1.6,31.22c-2.81-5.28-2.58-12.7-6.51-17.65c2.24,11.58-2.6,24.05-9.91,32.36
						c-0.89-7.08-0.33-13.38-3.47-19.78c-4.17,14.72-14.51,25.17-26.54,29.99c-45.87,18.63-122.76,44.1-148.01-15.71
						c0.9,7.08-3.04,14.38-0.69,22.25c-7.86-9.9-13.48-20.46-16.05-33.17c-2.81,6.97-0.46,14.84-2.15,21.47
						c-4.04-13.49-8.08-26.98-8.41-40.35c-2.03,5.51-2.93,10.68-6.75,14.27c3.98-29.63-13.87-53.85-16.15-86.15
						c-0.38,30.02,15.7,70.28,13.1,80.74c-2.69,10.81-1.74,24.2,3.71,28.08c0.06-1.85,1.04-7.45,3.08-11.54
						c2.5,21.3,13.99,31.74,19.72,32.47c-0.78-2.62-2.45-10.9-1.17-14.14c4.41,11.34,14.56,21.52,20.32,21.33
						c-0.63-2.11-1.85-6.18-1.6-8.4c10.01,10.94,27.34,22.29,44.06,21.87c0,0,51.41-7.94,77.77-11.95
						c26.36-4.01,38.3-18.66,44.34-26.13c0,0,0.25,8.5-6.08,13.45c12.97-2.2,20.79-16.48,23.01-26.95
						c1.35,1.43,3.35,8.64,2.07,15.61c7.55-5.47,11.08-19.24,12.92-30.51c0.62,1.04,4.34,5.28,3.63,13.15
						c20.86-20.33,15.99-51.94,4.97-82.63C679.31,301.24,684.8,287.86,672.46,258.9z"/>
					<path class="st6" d="M616.15,454.16c-3.36,1-6.92,1.8-10.58,2.35c-26.06,3.97-77.26,11.87-77.77,11.95
						c-17.01,0.42-33.81-10.79-43.56-20.96c0.2,2.19,1.09,5.16,1.56,6.74l0.22,0.73l-0.76,0.03c-5.87,0.2-15.47-9.45-20.15-19.96
						c-0.34,3.64,0.87,9.73,1.55,12.02l0.26,0.87l-0.9-0.11c-5.61-0.72-16.91-10.52-19.95-30.91c-1.45,3.73-2.14,8-2.19,9.41
						l-0.03,1.1l-0.89-0.64c-5.81-4.14-6.57-18.12-3.94-28.7c1.13-4.57-1.54-15.57-4.64-28.3c-4.13-16.98-9.27-38.1-8.38-55.27
						c1.67-32.45,11.66-54.05,33.33-71.8c-4.88,0.73-8.99,2.64-12.08,5.61l-0.99,0.95l0-1.37c-0.02-6.75,8.75-19.37,27.62-25.02
						c3.19-0.95,6.56-1.67,10.04-2.14c-3.77-2-7.43-1.93-10.85-1.52l-2.11,0.25l1.68-1.3c4.4-3.4,9.53-5.99,15.25-7.7
						c17.18-5.14,39.4-1.92,56.74,8.2c8.94-6.79,21.02-12.67,34.05-16.57c19.08-5.71,37.11-6.37,47.06-1.73l1.74,0.81l-1.9,0.3
						c-1.95,0.31-3.83,0.73-5.57,1.25c-5.23,1.57-9.2,3.97-11.81,7.15l0.09-0.02c11.1-2.37,24.91-5.31,34.56,4.96l1.11,1.18
						l-1.61-0.2c-3.6-0.45-9.01,0.19-13.78,1.61c-1.06,0.32-2.05,0.66-2.98,1.03c14.62,0.54,33.82,8.37,47.39,40.23
						c6.53,15.32,8.08,26.21,9.72,37.73c1.46,10.25,2.97,20.86,8.17,35.33c14.21,39.55,12.58,66.01-5.11,83.25l-1.14,1.11l0.14-1.58
						c0.53-5.86-1.49-9.66-2.71-11.55c-2.64,15.23-6.98,25.13-12.91,29.43l-1.19,0.86l0.27-1.44c1.04-5.62-0.13-11.4-1.25-13.95
						c-2.64,10.56-9.87,22.16-20.66,25.39c-0.82,0.24-1.66,0.44-2.5,0.58l-2.28,0.39l1.82-1.43c4.31-3.38,5.45-8.53,5.75-11.21
						C643.76,438.15,634.24,448.74,616.15,454.16z M483.21,444.67l0.87,0.95c9.4,10.27,26.46,22.11,43.61,21.68
						c0.44-0.07,51.64-7.98,77.7-11.94c3.61-0.55,7.11-1.33,10.42-2.32c19.11-5.72,28.5-17.35,33.55-23.6l1-1.23l0.05,1.59
						c0.01,0.32,0.15,7.32-4.64,12.41c10.96-3.14,18.15-15.35,20.41-26.01l0.23-1.1l0.77,0.82c1.42,1.51,3.25,7.97,2.45,14.61
						c5.26-4.69,9.14-14.5,11.53-29.2l0.26-1.59l0.82,1.39c0.07,0.11,0.17,0.26,0.3,0.45c1.03,1.49,3.63,5.25,3.5,11.5
						c16.3-16.91,17.48-42.69,3.74-80.93c-5.24-14.59-6.76-25.25-8.23-35.57c-1.63-11.45-3.17-22.26-9.64-37.44
						c-11.21-26.3-28.14-39.97-48.95-39.54l-2.5,0.05l2.21-1.16c1.59-0.83,3.46-1.57,5.56-2.2c4.32-1.29,8.99-1.94,12.64-1.78
						c-9.11-8.45-21.42-5.83-32.34-3.5l-3.03,0.64l0.81-1.2c2.71-4.03,7.2-7.01,13.36-8.85c1.19-0.36,2.45-0.67,3.74-0.93
						c-10-3.67-26.72-2.75-44.41,2.55c-13.05,3.91-25.13,9.81-33.99,16.62l-0.31,0.24l-0.34-0.2
						c-17.11-10.12-39.15-13.37-56.15-8.29c-4.86,1.45-9.28,3.56-13.17,6.26c3.47-0.21,7.15,0.21,10.96,2.77l1.33,0.89l-1.59,0.18
						c-4.02,0.44-7.89,1.22-11.53,2.31c-17.02,5.09-25.56,15.85-26.66,22.47c3.57-2.96,8.27-4.73,13.68-5.17l1.94-0.16l-1.52,1.2
						c-22.48,17.76-32.79,39.36-34.48,72.22c-0.87,17,4.24,38.03,8.35,54.93c3.26,13.42,5.84,24.01,4.63,28.86
						c-2.4,9.66-1.98,22.18,2.65,26.76c0.3-2.53,1.3-7.13,3.04-10.62l0.88-1.75l0.23,1.95c2.35,20.07,12.6,30.19,18.32,31.78
						c-0.83-3.27-2.13-10.47-0.9-13.59l0.55-1.39l0.54,1.4c4.26,10.93,13.63,20.19,18.97,20.91c-0.68-2.29-1.62-5.76-1.38-7.84
						L483.21,444.67z"/>
				</g>
				<g>
					<path class="st0" d="M504.87,400.1c-10.37-8.73-49-8.19-54.78-45.24c-5.78-37.06,14.77-65.18,43.8-67.82
						c23.75-2.16,33.08,14.28,51.08,13.79c21.46-0.59,35.66-28.04,64.62-25.56c31.84,2.72,52.73,33.92,50.17,62.62
						c-2.9,32.58-45.33,40.9-50.36,55.45C592.72,396.27,504.87,400.1,504.87,400.1z"/>
					<path class="st1" d="M618.73,292.12c-22.57-7.3-46.95,20.63-66.52,24.1c-4.26,0.75-8.23,0.49-11.82-0.39
						c-8.39-2.06-18.1-5.1-23.9-7c-12.11-4.29-24.31-7.12-34.59-1.66c-20.95,11.12-28.94,31.8-19.58,53.6
						c9.37,21.81,27.58,25.29,39.18,24.03c14.72-1.59,31.95-15.11,49.21-18.31c12.18-2.26,14.3-0.37,15.76-1
						c16.91,0.63,35.38,6.05,46.49,6.5c11.67,0.47,28.97-7.4,34.39-30.5C652.78,318.38,641.3,299.42,618.73,292.12z"/>
					<path class="st2" d="M609.84,393.85l-0.34,0.06c-16.52,2.91-103.73,6.74-104.61,6.78l-0.23,0.01l-0.17-0.15
						c-2.8-2.36-7.87-4.07-13.73-6.04c-15.62-5.26-37.02-12.47-41.25-39.56c-4.94-31.63,9.43-59.06,34.93-66.69
						c3.03-0.91,6.19-1.51,9.4-1.81c13.19-1.2,21.83,3.19,30.19,7.43c6.66,3.38,12.95,6.57,20.93,6.35c2.32-0.06,4.6-0.44,6.99-1.16
						c6.5-1.95,12.5-6.05,18.85-10.4c7.01-4.8,14.26-9.76,22.94-12.36c5.26-1.57,10.46-2.11,15.91-1.64
						c14.04,1.2,27.01,8.1,36.52,19.44c10.24,12.2,15.55,28.58,14.19,43.81c-1.83,20.55-19.14,31.57-33.05,40.41
						c-8.32,5.29-15.51,9.87-17.34,15.18L609.84,393.85z M505.06,399.5c4.93-0.22,87.08-3.88,103.9-6.69
						c2.13-5.55,9.36-10.15,17.7-15.46c13.69-8.71,30.73-19.55,32.51-39.53c1.33-14.93-3.87-30.99-13.92-42.96
						c-9.31-11.09-22-17.85-35.72-19.02c-5.3-0.45-10.36,0.07-15.47,1.6c-8.5,2.54-15.67,7.45-22.61,12.2
						c-6.43,4.4-12.5,8.56-19.18,10.56c-2.49,0.74-4.87,1.14-7.29,1.21c-8.28,0.23-14.7-3.03-21.49-6.48
						c-8.21-4.17-16.7-8.48-29.55-7.31c-3.13,0.28-6.21,0.88-9.17,1.76c-24.93,7.46-38.95,34.35-34.11,65.38
						c4.12,26.38,25.13,33.46,40.47,38.63C496.99,395.37,502.07,397.08,505.06,399.5z"/>
				</g>
				<g>
					<path class="st0" d="M504.02,417.74c-5.05,27.82,12.84,69.5,61.58,63.18c50.15-6.5,68.23-44.39,50.42-81.27
						C605.01,395.04,504.02,417.74,504.02,417.74z"/>
					<path class="st12" d="M536.26,451.79c0,0,8.37,9.73,28.28,7.12c19.91-2.61,27.99-14.97,27.99-14.97s-10.94,10.66-30.32,13.37
						C549.6,459.08,536.26,451.79,536.26,451.79z"/>
					<g>
						<path class="st2" d="M569.67,462.08c-26.25,6.63-40.22-8.94-40.36-9.1c0,0,4.16,3.06,10.52,6.01
							c7.09,3.3,17.99,5.7,32.46,1.27c7.07-2.16,12.13-5.18,15.67-8.07c5.49-4.48,8.32-8.28,8.32-8.28
							c-0.2,0.47-5.12,11.67-23.68,17.35C571.61,461.57,570.63,461.84,569.67,462.08z"/>
					</g>
					<path class="st1" d="M616.02,399.65c-2.47-1.03-9.45-0.69-18.8,0.45c11.33,24.29,16.65,41.24-1.42,56.89
						c-16.42,14.71-40.5,20.7-62.72,11.43c-16.13-6.73-26.3-20.6-29.85-40.11c0.53,26.61,19.52,58.17,62.38,52.61
						C615.74,474.42,633.83,436.52,616.02,399.65z"/>
					<path class="st2" d="M580.92,478.3L580.92,478.3c-4.77,1.43-9.9,2.5-15.25,3.2c-24.91,3.23-39.77-6.22-47.85-14.72
						c-11.88-12.5-17.53-31.79-14.38-49.15l0.07-0.38l0.38-0.09c4.13-0.93,101.3-22.69,112.35-18.06l0.2,0.09l0.1,0.2
						c8,16.56,8.91,33.6,2.57,47.99C612.65,462.07,599.44,472.76,580.92,478.3z M504.53,418.23c-2.93,16.9,2.6,35.6,14.14,47.75
						c7.89,8.3,22.43,17.53,46.85,14.36c5.29-0.69,10.36-1.75,15.06-3.15l0.01,0c18.18-5.44,31.13-15.91,37.46-30.27
						c6.17-14,5.3-30.61-2.46-46.79C604.26,396.1,511.3,416.72,504.53,418.23z"/>
				</g>
				<g>
					<path class="st13" d="M515.46,422.86c8.89,21.53,22.29,32.04,46.6,29.84c24.9-2.25,41.32-21.55,42.17-40.18
						C585.43,411.11,535.13,410.85,515.46,422.86z"/>
					<path class="st14" d="M547.7,439.55c21.75,12.59,41.05-7.07,47.48-27.5c-16.54-0.58-42.42-0.09-61.8,4.29
						C536.06,425.69,538.74,435.57,547.7,439.55z"/>
					<g>
						<g>
							<path class="st15" d="M562.28,440.16c-9.3-5.02-20.46-1.11-25.94,8.51c6.91,3.58,15.31,4.98,25.71,4.04
								c13.28-1.2,24.15-7.25,31.53-15.47C582.25,426.69,565.99,436.29,562.28,440.16z"/>
							<path class="st16" d="M584.87,432.79c-5.94,17.92-27.48,17.95-43.81,17.88c5.94,2.06,12.84,2.78,20.99,2.04
								c13.28-1.2,24.15-7.25,31.53-15.47C590.88,434.72,587.89,433.36,584.87,432.79z"/>
							<g>
								<path class="st17" d="M560.54,447.33c0,0-0.2-6.61,2.23-8.43l0.7,0.94C561.77,441.11,560.78,445.68,560.54,447.33z"/>
							</g>
							<path class="st17" d="M572.2,451.35L572.2,451.35c-3.25,0.97-6.64,1.62-10.1,1.93c-10.39,0.94-18.9-0.4-26.03-4.1l-0.54-0.28
								l0.3-0.53c2.86-5.03,7.29-8.65,12.45-10.19c4.65-1.39,9.56-0.94,13.88,1.26c1.91-1.82,6.33-4.81,11.8-6.45
								c5.5-1.64,13.43-2.32,20.01,3.81l0.42,0.39l-0.39,0.43C588.23,444.07,580.69,448.82,572.2,451.35z M537.16,448.42
								c6.81,3.38,14.95,4.59,24.84,3.7c11.99-1.08,22.97-6.41,30.75-14.84c-6.09-5.33-13.36-4.68-18.45-3.16
								c-5.58,1.67-9.99,4.77-11.6,6.45l-0.31,0.32l-0.39-0.21c-4.13-2.23-8.88-2.72-13.38-1.37
								C543.93,440.71,539.88,443.94,537.16,448.42z"/>
						</g>
					</g>
					<path class="st2" d="M572.21,451.35L572.21,451.35c-3.25,0.97-6.65,1.62-10.1,1.93c-23.15,2.09-37.7-7.23-47.19-30.2
						l-0.19-0.46l0.43-0.26c3.06-1.87,7.01-3.53,11.74-4.95c24.75-7.41,64.25-6.46,77.37-5.48l0.57,0.04l-0.03,0.57
						C604.02,429.89,590.61,445.85,572.21,451.35z M516.19,423.11c9.38,22.38,23.11,31.06,45.81,29.01c3.38-0.3,6.7-0.94,9.87-1.89
						c17.73-5.31,30.7-20.54,31.74-37.17c-13.61-0.97-52.14-1.78-76.38,5.47C522.81,419.86,519.1,421.39,516.19,423.11z"/>
				</g>
				<g>
					<path class="st0" d="M549.63,377.65c21.56-6.76,61.5-2.41,66.07,17.96c4.57,20.37-35.82,32.77-57.2,24.78
						c-21.14,11.23-58.79,10.25-61.25-9.22C494.79,391.69,526.76,378.99,549.63,377.65z"/>
					<path class="st1" d="M568.22,413.35c-6.63-1.69-11.82-9.94-14.31-18.53c-5.06,7.64-2.87,15.98-10.58,21.42
						c-14.12,9.95-39.83,6.31-46.14-8.52c-0.09,1.13-0.08,2.27,0.07,3.45c2.46,19.47,40.11,20.45,61.25,9.22
						c21.38,7.99,61.76-4.4,57.2-24.78c-0.29-1.28-0.71-2.49-1.26-3.64C606.17,410.98,588.09,417.82,568.22,413.35z"/>
					<path class="st2" d="M592.81,420.62c-12.01,3.59-25.1,3.75-34.26,0.41c-3.06,1.61-6.51,2.98-10.24,4.1
						c-16.26,4.87-34.35,3.87-44.01-2.41c-4.47-2.91-7.04-6.77-7.63-11.48c-1.86-14.74,15.5-25.39,32.36-30.44
						c6.84-2.05,13.92-3.33,20.49-3.72l0.54-0.16c15.24-4.56,39.97-4.03,54.98,4.76c6.21,3.64,9.99,8.28,11.23,13.82
						C619.08,408,605.99,416.67,592.81,420.62L592.81,420.62z M558.46,419.75l0.25,0.09c8.95,3.34,21.88,3.21,33.77-0.34
						c0,0,0,0,0,0c12.67-3.79,25.28-12.03,22.65-23.75c-1.17-5.2-4.76-9.6-10.68-13.06c-14.54-8.51-39.38-9.04-54.05-4.65l-0.66,0.2
						l-0.07,0c-6.5,0.38-13.52,1.65-20.29,3.68c-16.4,4.91-33.3,15.15-31.53,29.17c0.55,4.35,2.94,7.94,7.11,10.65
						c9.39,6.11,27.08,7.04,43.03,2.27c3.75-1.12,7.2-2.51,10.25-4.14L558.46,419.75z"/>
				</g>
				<g>
					<g>
						<g>
							<path class="st18" d="M474.05,372.79c9.61,13.12,28.78,10.84,44.55,2.96c14.25-7.12,22.87-19.78,17.19-37.58
								c-7.41-23.21-28.8-32.44-45.51-26.81C473.57,317,452.45,343.3,474.05,372.79z"/>
							<path class="st19" d="M526.88,363c8.29-10.25,7.88-22.41,4.8-34.13c1.63,2.8,3.03,5.9,4.11,9.3
								c5.68,17.8-2.94,30.46-17.19,37.58c-15.78,7.88-34.95,10.16-44.55-2.96c-1.17-1.59-2.18-3.17-3.11-4.74
								C485.06,383.16,511.98,380.06,526.88,363z"/>
							<path d="M473.48,373.2L473.48,373.2c-11.13-15.2-10.28-28.46-7.6-36.91c4.27-13.48,15.22-22.57,24.17-25.59
								c8.24-2.78,17.71-1.98,25.96,2.19c9.57,4.84,16.83,13.74,20.44,25.06c5.19,16.26-1.21,30.26-17.55,38.42
								c-4.18,2.09-8.71,3.84-13.3,5C493.46,384.45,480.91,383.34,473.48,373.2z M490.5,312.03c-8.34,2.81-19.19,11.74-23.29,24.69
								c-2.58,8.14-3.39,20.94,7.4,35.66c9.71,13.26,28.93,10.11,43.68,2.75c9.2-4.59,23.62-15.48,16.84-36.74
								c-3.5-10.96-10.51-19.57-19.74-24.24c-7.2-3.64-15.35-4.61-22.71-2.75C491.94,311.57,491.22,311.79,490.5,312.03z"/>
						</g>
					</g>
					<g>
						<path class="st20" d="M480.6,357.83c3.89,11.54,15.88,17.91,26.77,14.24c10.89-3.67,16.56-16.01,12.67-27.54
							c-3.89-11.54-15.88-17.91-26.77-14.24C482.38,333.96,476.7,346.29,480.6,357.83z"/>
						<path class="st21" d="M520.3,345.46c3.29,11.26-2.34,23.04-12.93,26.61c-10.89,3.68-22.87-2.7-26.77-14.24
							c-0.03-0.1-0.05-0.2-0.09-0.3C494.76,358.45,509.21,354.29,520.3,345.46z"/>
						<path d="M487.25,359.59c2.73,8.1,11.14,12.57,18.78,9.99c7.64-2.58,11.62-11.23,8.89-19.33c-2.73-8.1-11.14-12.57-18.78-9.99
							C488.5,342.84,484.52,351.49,487.25,359.59z"/>
						<path class="st18" d="M496.51,344.06c0.87,4.22,5.12,6.92,9.48,6.01c4.36-0.9,7.19-5.06,6.32-9.28
							c-0.87-4.22-5.12-6.92-9.48-6.01C498.46,335.68,495.63,339.83,496.51,344.06z"/>
						<path class="st18" d="M493.85,366.69c0.37,1.78,2.16,2.92,4,2.54c1.84-0.38,3.03-2.13,2.66-3.91
							c-0.37-1.78-2.16-2.92-3.99-2.54C494.67,363.16,493.48,364.91,493.85,366.69z"/>
						<path class="st22" d="M479.96,358.05c-4.01-11.87,1.87-24.61,13.09-28.4c0.79-0.27,1.6-0.49,2.41-0.65
							c10.68-2.21,21.52,4.38,25.21,15.32c1.94,5.74,1.65,11.86-0.82,17.22c-2.47,5.37-6.83,9.34-12.28,11.18
							c-0.79,0.27-1.6,0.49-2.41,0.65C494.49,375.57,483.65,368.99,479.96,358.05z M493.48,330.93
							c-10.52,3.55-16.01,15.52-12.25,26.69c3.47,10.29,13.65,16.5,23.66,14.43c0.76-0.15,1.51-0.36,2.25-0.61
							c5.09-1.72,9.17-5.43,11.48-10.47c2.32-5.05,2.59-10.81,0.77-16.22c-3.47-10.3-13.65-16.5-23.66-14.43
							C494.97,330.47,494.22,330.68,493.48,330.93z"/>
					</g>
				</g>
				<g>
					<g>
						<g>
							<path class="st18" d="M642.49,344.27c-2.23,16.11-20.18,23.2-37.81,23.76c-15.92,0.5-29.52-6.55-32.97-24.91
								c-4.5-23.95,9.95-42.23,27.33-45.2C616.43,294.94,647.5,308.06,642.49,344.27z"/>
							<path class="st19" d="M591.34,360.73c-12.16-5.09-17.57-15.98-20.43-27.76c-0.1,3.24,0.14,6.63,0.8,10.14
								c3.45,18.36,17.05,25.42,32.97,24.91c17.63-0.56,35.58-7.65,37.81-23.76c0.27-1.95,0.42-3.83,0.48-5.65
								C637.72,358.63,612.56,368.68,591.34,360.73z"/>
							<path d="M618.79,366.81c-4.59,1.16-9.41,1.77-14.08,1.91c-18.25,0.58-30.53-8.71-33.68-25.48
								c-2.2-11.68-0.03-22.96,6.09-31.77c5.28-7.59,13.23-12.79,21.8-14.25c9.32-1.59,23.26,1.21,33.42,11.05
								c6.37,6.17,13.42,17.43,10.84,36.09l0,0C641.46,356.81,630.95,363.74,618.79,366.81z M596.95,299.07
								c-7.35,1.86-14.07,6.58-18.68,13.2c-5.91,8.5-7.99,19.4-5.87,30.71c4.13,21.94,21.99,24.67,32.26,24.34
								c16.48-0.52,34.88-6.88,37.14-23.16c2.5-18.08-4.29-28.96-10.42-34.9c-9.76-9.45-23.54-12.16-32.22-10.67
								C598.42,298.73,597.68,298.89,596.95,299.07z"/>
						</g>
					</g>
					<g>
						<path class="st20" d="M629.63,334.21c2.05,12-5.47,23.3-16.8,25.24c-11.33,1.94-22.18-6.22-24.23-18.23
							c-2.05-12,5.47-23.3,16.8-25.24C616.73,314.05,627.58,322.21,629.63,334.21z"/>
						<path class="st21" d="M588.81,342.17c2.45,11.48,13,19.17,24.02,17.28c11.33-1.94,18.85-13.24,16.8-25.24
							c-0.02-0.1-0.05-0.2-0.07-0.31C617.45,341.48,602.77,344.68,588.81,342.17z"/>
						<path d="M624.6,338.92c1.44,8.42-3.84,16.35-11.79,17.71c-7.95,1.36-15.56-4.37-17-12.79c-1.44-8.42,3.84-16.35,11.79-17.71
							C615.55,324.77,623.16,330.5,624.6,338.92z"/>
						<path class="st18" d="M609.08,329.64c1.24,4.13-1.22,8.52-5.49,9.79c-4.27,1.28-8.73-1.04-9.97-5.17
							c-1.24-4.13,1.22-8.52,5.49-9.79C603.39,323.2,607.85,325.51,609.08,329.64z"/>
						<path class="st18" d="M622.17,348.3c0.52,1.74-0.51,3.59-2.31,4.13c-1.8,0.54-3.68-0.44-4.2-2.18
							c-0.52-1.74,0.51-3.59,2.31-4.13C619.77,345.58,621.65,346.56,622.17,348.3z"/>
						<path class="st22" d="M615.37,359.55c-0.79,0.24-1.61,0.43-2.43,0.57c-5.66,0.97-11.39-0.46-16.11-4.01
							c-4.71-3.55-7.87-8.79-8.89-14.77c-1.95-11.38,4.47-22.32,14.92-25.45c0.79-0.24,1.61-0.43,2.43-0.57
							c11.68-1.99,22.9,6.43,25.01,18.78C632.24,345.48,625.82,356.42,615.37,359.55z M603.24,317.18
							c-9.8,2.93-15.81,13.22-13.98,23.93c0.96,5.64,3.94,10.58,8.38,13.92c4.43,3.33,9.78,4.67,15.07,3.76
							c0.77-0.13,1.53-0.31,2.27-0.53c9.8-2.93,15.81-13.22,13.98-23.93c-1.99-11.62-12.51-19.55-23.45-17.68
							C604.75,316.78,603.98,316.96,603.24,317.18z"/>
					</g>
				</g>
			</g>
		</g>
		<g>
			<path class="st2" d="M521.6,308.8c-30.68-20.43-52.19,3.95-52.4,4.2l0,0c0.14-0.16,7.02-11.07,23.37-13.76
				C501.05,297.84,512.27,300.67,521.6,308.8L521.6,308.8z"/>
		</g>
		<g>
			<path class="st2" d="M633.68,296.88c-30.68-20.43-52.19,3.95-52.4,4.2l0,0c0.14-0.16,7.02-11.07,23.37-13.76
				C613.13,285.92,624.35,288.75,633.68,296.88L633.68,296.88z"/>
		</g>
		<g>
			<g>
				<path class="st0" d="M560.57,383.71c0,0,7.39-3.05,7.88-9.39c0.42-5.44-11.29-9.27-16.55,0.89c-7.85-8.31-18.06-1.42-16.16,3.7
					c2.21,5.96,10.16,6.86,10.16,6.86L560.57,383.71z"/>
				<path class="st2" d="M560.37,383.23L560.37,383.23c0.07-0.03,7.1-3.01,7.55-8.95c0.15-1.94-1.58-3.82-4.2-4.56
					c-3.37-0.96-8.37-0.04-11.36,5.73l-0.34,0.65l-0.51-0.54c-4.46-4.72-9.52-4.23-12.5-2.38c-2.32,1.44-3.46,3.72-2.79,5.54
					c2.08,5.6,9.65,6.52,9.72,6.53l0,0c-0.34-0.04-7.84,1.18-10.71-6.16c-0.9-2.32,0.43-5.06,3.21-6.8
					c3.2-1.99,8.54-2.59,13.31,2.04c3.31-5.76,8.61-6.66,12.24-5.63c3.16,0.9,5.08,3.16,4.96,5.65
					C568.62,381.68,560.69,383.1,560.37,383.23z"/>
			</g>
			<path class="st2" d="M547.1,383.59c0,0-3.26-0.15-5.59-1.27c-1.97-0.95-3.29-2.78-1.41-3.79
				C544.19,376.32,547.1,383.59,547.1,383.59z"/>
			<path class="st2" d="M558.6,382.38c0,0,3.12-0.93,5.12-2.59c1.68-1.39,2.52-3.49,0.45-4.02
				C559.66,374.62,558.6,382.38,558.6,382.38z"/>
		</g>
		<path class="st12" d="M538.08,375.55c0,0,5.65-3.75,11.55,2.11C548.55,373.2,542.29,369.83,538.08,375.55z"/>
		<path class="st12" d="M553.67,376.14c0,0,7.32-5.92,11.86-3.98C562.31,370.1,557.62,369.35,553.67,376.14z"/>
	</g>
</g>
</svg>
