<?xml version="1.0" encoding="utf-8"?>
<!-- Generator: Adobe Illustrator 26.0.3, SVG Export Plug-In . SVG Version: 6.00 Build 0)  -->
<svg version="1.1" id="Layer_1" xmlns="http://www.w3.org/2000/svg" xmlns:xlink="http://www.w3.org/1999/xlink" x="0px" y="0px"
	 viewBox="0 0 1133.86 1133.86" style="enable-background:new 0 0 1133.86 1133.86;" xml:space="preserve">
<style type="text/css">
	.st0{fill:#1F1F1D;}
	.st1{fill:#9E4C0B;}
	.st2{fill:#F9CEB2;}
	.st3{fill:#FAD6BE;}
	.st4{fill:#424241;}
	.st5{opacity:0.5;fill:#424241;}
	.st6{fill:#81400F;}
	.st7{fill:#FFFFFF;}
	.st8{clip-path:url(#SVGID_00000042018144177330460330000006363580430085543054_);}
	.st9{fill:#220300;}
	.st10{fill:#7F4A23;}
	.st11{fill:#0A000B;}
	.st12{fill:#FFFAE2;}
	.st13{clip-path:url(#SVGID_00000080925645421329285330000002197514180588836258_);}
	.st14{fill:#AC641B;}
	.st15{fill:#FAEDE6;}
	.st16{fill:#8C0C00;}
	.st17{opacity:0.6;fill:#B8A997;}
	.st18{fill:#FF7858;}
	.st19{fill:#CA2D00;}
</style>
<g>
	<g>
		<path class="st0" d="M309.22,644.54c-25.93,9.51-50.57,21.4-71.8,37.04c-17.42,12.8-31.11,28.84-41.36,46.73
			c-2.57,4.46-4.35,8.92-5.78,13.41c-0.06-1.92-0.02-3.85-0.04-5.75c-1.87,5.22-3.34,10.59-4.5,16.01c0.25,4,0.56,7.98,0.95,11.98
			c-0.12,12.11,2.15,24.39,4.79,37.09c0.2,0.93,0.86,1.22,1.63,1.14c1.65,6.93,3.48,13.84,5.64,20.69
			c10.91,34.58,30.17,66.43,50.29,97.28c14.65,22.48,29.28,46.24,54.41,60.57c1.57,0.89,3.34-1.42,3.41-2.55
			c0.28-5.33-1.79-10.77-4.46-16.17c2.01,3.17,4.18,6.3,6.56,9.44c10.11,13.29,22.7,24.21,36.94,33.25
			c34.55,13.86,71.08,22.37,108.4,22.19C326.95,950.16,288.98,787.98,309.22,644.54z"/>
		<path class="st0" d="M444.97,1055.44c-18.57,0.79-36.95-0.93-55-4.69c20.66,6.74,42.46,11.28,64.58,14.14
			C451.16,1061.99,448,1058.78,444.97,1055.44z"/>
		<path class="st0" d="M655.69,1020.63c43.19-12.38,84.53-31.07,121.27-55.38c-1.5,1.74-3.03,3.47-4.63,5.14
			c-3.46,3.58-8.49,8.26-9.68,13.08c-3.96,15.87,41.24-9.87,46.45-12.78c73.18-40.6,129.95-118.06,129.29-198.91
			c-0.36-42.48-22.12-81.94-58.54-107.2c-23.85-16.55-52.86-26.47-82.48-33.87c-0.93,7.52-2.19,15.01-3.28,22.34
			c-4.36,29.87-10.12,59.92-17.62,89.25c-13.3,52.02-31.22,103.6-59.35,150.47c-14.43,24.05-30.86,46.82-49.42,68.3
			c-15.62,18.09-34.32,40.68-56.52,52.14c-0.46,0.23-0.94,0.46-1.41,0.72C622.35,1019.18,638.74,1020.89,655.69,1020.63z"/>
		<g>
			<g>
				<g>
					<path class="st1" d="M270.17,761.67c13.62-54.48,2.63-105.56-27.47-149.2c-6.92-23.53-19.31-45.86-41.79-37.23
						c-18.35,7.06-27.99,20.8-31.09,37.83c1.57,19.68,7.17,39.08,11.95,58.61c0.41,1.25,0.86,2.53,1.21,3.78
						c4.93,17.3,6.58,34.99,10.65,52.46c4.91,21.08,11.14,39.68,31.75,49.17C241.84,784.68,265.25,781.36,270.17,761.67z"/>
					<path class="st2" d="M232.36,770.51c-28.4-6.5-32.12-39.73-35.66-61.77c-4.39-27.26-36.29-97.15-7.98-118.84
						c2.42-3.58,5.51-6.6,9.52-8.66c15.33-7.94,27.59,3.3,34.34,16.76c1.25,1.97,2.49,4.13,3.76,6.53
						c4.31,8.13,7.79,16.42,10.62,24.83c14.27,26.21,22.94,54.29,21.26,86.74C267.06,738.51,267.16,778.46,232.36,770.51z"/>
					<path class="st3" d="M232.36,770.51c-28.4-6.5-32.12-39.73-35.66-61.77c-4.39-27.26-36.29-97.15-7.98-118.84
						c2.42-3.58,5.51-6.6,9.52-8.66c15.33-7.94,27.59,3.3,34.34,16.76c1.25,1.97,2.49,4.13,3.76,6.53
						c4.31,8.13,7.79,16.42,10.62,24.83c14.27,26.21,22.94,54.29,21.26,86.74C267.06,738.51,267.16,778.46,232.36,770.51z"/>
					<path class="st1" d="M204.17,680.03c1.89,2.49,5.76,2.55,7.75,0.28c9.67-10.98,10.23-32.72,3.18-45.26
						c-2.03-3.65-7.69-9.37-12.1-10.29c-9.59-1.97-14.79,7.16-17.13,14.6c0.85-2.72-0.78-7.3-0.45-10.31
						c0.37-3.56,1.44-7.08,3.37-10.13c3.13-4.96,10.02-8.72,16.31-5.87c10.17,4.61,14.31,16.21,16.93,25.61
						c2.71,9.76,4.37,19.8,4.58,29.87c0.2,10.3-1.59,20.23-3.33,30.33c-0.14,0.74-0.22,1.5-0.36,2.25c-0.04,0.26-0.19,0.34-0.35,0.4
						c-1.35,5.04-3.01,9.83-5,14.11c-0.76,1.63-3.01-1.06-2.84-2.15c1.8-11.82,2.5-23.81,2.75-35.8c-1.08,3.89-2.74,9.28-6.19,10.57
						c-7.17,2.67-10.96-10.12-13.98-18.53C199.48,673.12,201.6,676.61,204.17,680.03z"/>
				</g>
				<g>
					<path class="st1" d="M850.39,777.09c20.6-9.49,26.83-28.09,31.75-49.17c4.06-17.47,5.7-35.16,10.64-52.46
						c0.35-1.25,0.79-2.53,1.22-3.78c4.78-19.53,10.38-38.93,11.94-58.61c-3.09-17.03-12.73-30.77-31.09-37.83
						c-22.47-8.63-34.86,13.7-41.78,37.23c-30.1,43.63-41.09,94.72-27.47,149.2C810.52,781.36,833.93,784.68,850.39,777.09z"/>
					<path class="st2" d="M807.55,716.11c-1.67-32.45,7-60.53,21.27-86.74c2.82-8.41,6.32-16.7,10.61-24.83
						c1.26-2.4,2.52-4.56,3.77-6.53c6.75-13.46,19.01-24.7,34.34-16.76c4,2.06,7.1,5.08,9.51,8.66
						c28.31,21.68-3.59,91.57-7.98,118.84c-3.53,22.04-7.26,55.28-35.65,61.77C808.61,778.46,808.71,738.51,807.55,716.11z"/>
					<path class="st3" d="M807.55,716.11c-1.67-32.45,7-60.53,21.27-86.74c2.82-8.41,6.32-16.7,10.61-24.83
						c1.26-2.4,2.52-4.56,3.77-6.53c6.75-13.46,19.01-24.7,34.34-16.76c4,2.06,7.1,5.08,9.51,8.66
						c28.31,21.68-3.59,91.57-7.98,118.84c-3.53,22.04-7.26,55.28-35.65,61.77C808.61,778.46,808.71,738.51,807.55,716.11z"/>
					<path class="st1" d="M871.59,680.03c-1.88,2.49-5.76,2.55-7.75,0.28c-9.66-10.98-10.23-32.72-3.17-45.26
						c2.04-3.65,7.68-9.37,12.1-10.29c9.58-1.97,14.78,7.16,17.13,14.6c-0.85-2.72,0.77-7.3,0.45-10.31
						c-0.37-3.56-1.45-7.08-3.37-10.13c-3.13-4.96-10.02-8.72-16.31-5.87c-10.17,4.61-14.31,16.21-16.93,25.61
						c-2.72,9.76-4.38,19.8-4.58,29.87c-0.21,10.3,1.59,20.23,3.33,30.33c0.12,0.74,0.22,1.5,0.36,2.25
						c0.03,0.26,0.19,0.34,0.34,0.4c1.36,5.04,3.02,9.83,5.01,14.11c0.76,1.63,3.01-1.06,2.84-2.15c-1.8-11.82-2.52-23.81-2.75-35.8
						c1.08,3.89,2.74,9.28,6.2,10.57c7.17,2.67,10.95-10.12,13.97-18.53C876.29,673.12,874.17,676.61,871.59,680.03z"/>
				</g>
				<g>
					<path class="st2" d="M866.79,464.79c-1.32-36.61-5.65-73.34-10.71-109.7c-0.51-29.01-1.42-60.56-18.1-84.95
						c-17.49-25.6-48.33-41.52-75.63-54.16c-73.82-34.19-152.64-50.5-233.4-56.44c-65.33-4.8-125.97,1.76-185.14,31.67
						c-41.02,20.74-77.74,52.64-98.07,93.63c-0.31-0.68-1.53-0.78-1.83,0.16c-1.61,4.81-3.14,9.64-4.56,14.45
						c-2.86,7.51-5.21,15.29-6.91,23.33c-0.11,0.5,0.09,0.84,0.37,1.11c-5.62,23.79-9.16,47.9-10.39,72.78
						c-2.16,43.14,3.41,86.45,3.97,129.61c0.2,15.43,0.3,30.86,0.4,46.32c7.61,34.97,3.25,77.38,3.02,112.45
						c-0.12,18.73-0.81,37.64-0.94,56.54c0.82,12.27,2.16,24.5,4.37,36.61c13.11,72.01,63.73,128.38,127.65,161.58
						c15.91,8.25,112.58,75.94,216.54,68.18c60.9-21.77,114.79-61.86,170.28-97.99c22.58-16.56,44.6-35.33,60.36-58.44
						c17.43-25.55,28.02-53.92,34.44-84.06c1.76-8.24,3.08-16.53,4.23-24.85c-0.76-50.45,3.96-102.62,8.6-152.73
						c-0.11,0.2-0.26,0.41-0.37,0.61c0.2-2.95,0.42-5.92,0.67-8.88C859.01,541.99,868.21,504.86,866.79,464.79z"/>
					<path class="st3" d="M866.79,464.79c-1.32-36.61-5.65-73.34-10.71-109.7c-0.51-29.01-1.42-60.56-18.1-84.95
						c-17.49-25.6-48.33-41.52-75.63-54.16c-73.82-34.19-152.64-50.5-233.4-56.44c-65.33-4.8-125.97,1.76-185.14,31.67
						c-41.02,20.74-77.74,52.64-98.07,93.63c-0.31-0.68-1.53-0.78-1.83,0.16c-1.61,4.81-3.14,9.64-4.56,14.45
						c-2.86,7.51-5.21,15.29-6.91,23.33c-0.11,0.5,0.09,0.84,0.37,1.11c-5.62,23.79-9.16,47.9-10.39,72.78
						c-2.16,43.14,3.41,86.45,3.97,129.61c0.2,15.43,0.3,30.86,0.4,46.32c7.61,34.97,3.25,77.38,3.02,112.45
						c-0.12,18.73-0.81,37.64-0.94,56.54c0.82,12.27,2.16,24.5,4.37,36.61c13.11,72.01,63.73,128.38,127.65,161.58
						c15.91,8.25,112.58,75.94,216.54,68.18c60.9-21.77,114.79-61.86,170.28-97.99c22.58-16.56,44.6-35.33,60.36-58.44
						c17.43-25.55,28.02-53.92,34.44-84.06c1.76-8.24,3.08-16.53,4.23-24.85c-0.76-50.45,3.96-102.62,8.6-152.73
						c-0.11,0.2-0.26,0.41-0.37,0.61c0.2-2.95,0.42-5.92,0.67-8.88C859.01,541.99,868.21,504.86,866.79,464.79z M785.03,820.74
						c-26.73,39.63-62.69,70.33-100.63,98.82c-39.58,29.72-85.48,61.22-136.47,65c-50.35,3.72-101.9-17.75-144.87-42.28
						c-41.96-23.97-86.97-54.58-116.2-93.83c-53.88-72.34-52.18-175.23-30.38-258.86c1.08-4.15,6.62-3.73,7.87,0
						c3.44,10.25,7.04,20.43,11.85,29.92c-0.17-73.45,60.39-126.54,120.48-163.32c37.64-23.06,77.21-44.09,117.32-62.53
						c26.59-12.22,54.47-23.83,78.19-41.28c24.66-18.15,38.58-43.06,58.59-65.41c1.96-2.19,6.31-1.16,6.81,1.83
						c7.38,44.22,17.1,88.81,38.41,128.7c20.9,39.14,49.42,73.21,74.55,109.58c30.39,44,55.33,92.1,55,146.94
						C825.24,725.09,813.91,777.95,785.03,820.74z"/>
					<path class="st1" d="M866.79,464.79c-1.32-36.61-5.65-73.34-10.71-109.7c-0.51-29.01-1.42-60.56-18.1-84.95
						c-17.49-25.6-48.33-41.52-75.63-54.16c-73.82-34.19-152.64-50.5-233.4-56.44c-65.33-4.8-125.97,1.76-185.14,31.67
						c-41.02,20.74-77.74,52.64-98.07,93.63c-0.31-0.68-1.53-0.78-1.83,0.16c-1.61,4.81-3.14,9.64-4.56,14.45
						c-2.86,7.51-5.21,15.29-6.91,23.33c-0.11,0.5,0.09,0.84,0.37,1.11c-5.62,23.79-9.16,47.9-10.39,72.78
						c-2.16,43.14,3.41,86.45,3.97,129.61c0.2,15.43,0.3,30.86,0.4,46.32c7.61,34.97,3.25,77.38,3.02,112.45
						c-0.12,18.73-0.81,37.64-0.94,56.54c0.82,12.27,2.16,24.5,4.37,36.61c13.11,72.01,63.73,128.38,127.65,161.58
						c19.93,10.36,104.55,69.43,169.77,71.74c11.69,0.41,34.71,0.53,45.94-3.47c61.21-21.71,115.39-61.81,171.11-98.08
						c22.58-16.56,44.6-35.33,60.36-58.44c17.43-25.55,28.02-53.92,34.44-84.06c1.76-8.24,7.28-33.86,8.44-42.18
						c-0.7-46.96-0.89-78.09,3.42-124.99c0.03-0.58,0.03-1.17,0.08-1.76c0.03-0.06,0.07-0.11,0.1-0.17
						c0.26-2.84,0.53-5.65,0.78-8.49c-0.11,0.2-0.26,0.41-0.37,0.61c0.2-2.95,0.42-5.92,0.67-8.88
						C859.01,541.99,868.21,504.86,866.79,464.79z M851.28,564.07c-7.58,51.94-4.36,104.83-8.76,157.12
						c-0.34,0.67-0.45,1.44-0.22,2.24c-0.55,6.27-1.14,12.56-1.96,18.81c-3.86,29.78-11.64,58.88-25.32,85.68
						c-15.89,31.14-41.53,54.47-68.96,75.39c-27.26,20.8-56.8,38.61-86.12,56.35c-31.24,18.88-66.08,41.82-102.4,46.6
						c-11.39-0.04-22.54-1.95-34.45-2.47c-63.86-2.81-212.73-93.25-239.15-132.88c-23.52-35.26-40.7-69.5-45.89-111.18
						c-4.55-36.79-2.94-74.15-3.55-111.12c-0.7-43.04-0.53-86.1-1.16-129.13c-0.59-39.25-5.5-78.19-5.11-117.49
						c0.35-31.59,4.64-62.98,11.79-93.72c19.35-49.83,60.12-86.77,107.53-111.1c55.41-28.47,114.17-34.48,175.39-30.58
						c77.45,4.89,151.08,20.54,222.77,50.3c28.35,11.76,56.72,26.2,78.42,48.3c26.49,26.97,20.62,65.02,27.12,99.1
						c0.13,0.74,0.53,1.23,1.04,1.5c2.46,26.58,5.77,53.07,7.45,79.72C862.26,486.14,857.12,524.01,851.28,564.07z"/>
				</g>
			</g>
			<g>
				<g>
					<path class="st0" d="M1083.6,843.62c-12.23-46.56-29.6-91.57-47.38-136.54c-9.55-24.13-19.7-47.6-26.46-72.4
						c-31.46-91.83-39.4-187.66-56.24-284.07c-8.29-47.46-22.34-100.34-46.06-146.67c-12.82-21.33-27.62-41.07-46.33-57.83
						c-13.01-11.65-26.6-22.62-39.75-34.11c-4.57-2.76-9.18-5.47-13.77-8.21c-36.81-18.57-76.24-29.11-117.36-27.92
						c-29.95-14.15-60.33-25.04-95.3-29.88c-55.55-7.7-112.52-1.89-166.92,10.36c-83.04,18.66-158.42,64.75-220.16,122.23
						c-9.81,9.14-19.16,18.9-28.24,28.94c-7.76,12.3-15.96,24.33-22.13,37.51c-10.96,23.47-20.37,47.87-29.62,72.04
						c-0.44,1.14-0.83,2.3-1.28,3.44c-4.37,21.09-12.08,41.38-15.02,62.85c-4.14,30.16-6.59,59.89-6.25,90.37
						c0.27,25.13,1.17,50.26,1.6,75.35c1.98,29.57,3.01,59.08-0.37,89.71c-1.62,14.71-4.09,29.24-7.09,43.67
						c-2.56,19.94-4.63,40.26-10.55,59.44c-7.08,22.95-16.21,45.23-24.23,67.84c-0.2,0.57-0.39,1.14-0.6,1.72
						c-17.3,63.83-24.21,125.92-3.6,190.47c1.41,3.77,2.95,7.49,4.57,11.16c24.78,46.88,67.54,84.72,121.15,77.33
						c-23.84-5.64-41.76-22.57-57.32-41.24c-15.94-19.1-21.62-40.47-25.7-62.79c11.72,29.43,30.94,55.33,57.6,70.06
						c47.98,26.55,105.92,29.68,156.23,9.64c5.32,2.61,10.93,4.91,16.67,6.99c26.75,4.31,52.85,8.47,80.47,5.14
						c20.26-2.45,38.4-8.92,55.88-17.62c-4.98-1.36-9.73-2.72-13.89-3.7c-43.67-10.31-81.08-34.23-112.5-65.89
						c-33.1-33.36-55.84-71.67-74.7-114.53c-10.9-24.8-20.14-50.08-26.17-76.13c-3.5-9.97-6.64-20.11-9-30.21
						c-34.03,4.25-49.42-99.5-53.16-127.17c7.66-20.1,17.95-45.1,27.32-67.33c3.24,10.74,6.65,21.55,10.12,32.49
						c1.15,9.45,2.87,18.87,4.85,28.26c0.46,6.58,0.77,13.16,1.16,19.76c3.5,17.11,7.01,34.21,9.38,51.5
						c0.76-0.91,1.3-1.91,1.32-2.84c1.39-46.83,2.65-95.21,13.52-140.92c1.54-6.48,3.88-13.03,6.54-19.67
						c0.22,13.98,3.4,27.05,10.81,38.12c1.91,2.85,7.28-2.39,6.14-5.11c-0.55-1.27-0.98-2.62-1.42-3.97
						c0.98-0.65,1.84-1.54,2.09-2.48c31.28-117.94,178.47-155,273.14-207.67c40.64-22.6,93.97-60.52,119.01-106.93
						c-0.4,1.27-0.74,2.54-1.16,3.8c1.44,11.82,3.57,23.8,7.06,36.24c3.39,12.03,7.57,23.9,12.32,35.56
						c12.75,40.07,30.63,79.04,49.71,114.32c39.98,73.94,95.58,126.06,96.14,214.67c0.02,4.14,13.12-29.94,15.57-44.39
						c0.08,0.82,0.24,1.6,0.3,2.43c1.19,6.39,2.22,12.84,3.25,19.32c3.3-11.23,8.07-22.01,12.95-32.74
						c1.06-3.33,2.14-6.49,3.21-9.76c0.54-0.21,1-0.61,1.3-1.06v0.02c1.67-2.37,4-5.12,5.98-7.26c1.44-1.56,2.75-2,3.99-1.71
						c0.41,0.44,0.79,0.92,1.24,1.34c0.49,0.46,1.04,0.64,1.63,0.7c0.23,0.25,0.48,0.44,0.69,0.73c0.21,0.23,0.29,0.56,0.47,0.83
						c0.95,3.91,1.91,7.83,2.7,11.65c1.24,6.14,2.46,12.29,3.68,18.42c0.41,3.49,0.86,6.97,1.13,10.51
						c2.76,36.67,0.72,133.58-46.48,146.27c-0.01,0-0.02,0.02-0.02,0.02c-1.17,0.32-2.46,1.36-3.1,2.46
						c-0.71,0.98-1.14,2.06-1.11,2.95c-16.95,52.87-40.19,97.43-73.65,141.99c-34.89,46.48-90.85,99.47-150.61,108.93
						c-2.49,0.4-6.68,4.34-5.03,7.18c17.05,29.42,63.61,25.68,95.9,21.11c32.5-0.36,65.69-9.61,95.91-25.16
						c-0.95,1.26-1.81,2.57-2.75,3.86c-5.39,3.56-10.9,6.69-16.57,9.17c-2.95,1.31-9.29,9.06-3.58,11.15
						c34.33,12.55,71.05,6.27,104.48-8.44c-1.83,1.97-3.7,3.87-5.48,5.98c-0.78,0.93-1.59,2.27-2.05,3.63
						c53.77,5.61,110.1-5.38,152.36-36.48c18.44-17.02,33.32-37.89,43.9-61.91c2.49-5.39,4.66-10.91,6.51-16.57
						c0.04-0.15,0.1-0.27,0.16-0.41c0.17-0.51,0.29-1.02,0.45-1.53c0.51-1.64,1.03-3.29,1.48-4.93
						C1086.89,907.51,1087.93,875.43,1083.6,843.62z"/>
					<path class="st4" d="M1068.27,935c-2.24,6.45-4.95,12.62-7.86,18.69c-0.59,1.23-1.19,2.42-1.79,3.62
						c-0.94,1.87-1.86,3.75-2.86,5.57c-5.4,10.1-11.39,19.54-17.14,27.82c-10.85,15.63-25.7,28.41-42.53,37.96
						c-7.91,4.88-16.49,8.97-25.41,12.28c-24.42,11-51.37,16.86-79.26,16.09c-0.78-0.03-1.45-0.3-2.03-0.68
						c-0.09,0.04-0.2,0.09-0.28,0.13c0.08-0.04,0.16-0.11,0.23-0.16c-2.34-1.54-2.84-5.3,0.08-6.9
						c13.81-7.56,24.83-18.19,35.39-29.39c-40,23.94-85.38,38.74-132.29,36.31c-3.39-0.18-5.59-4.38-2.87-6.95
						c12.74-12,26.86-22.31,39.12-34.87c4.37-4.46,15-14,21.43-23.36c-0.78,0.54-1.53,1.12-2.29,1.68c0.29-0.27,0.61-0.53,0.91-0.79
						c0.46-0.42,0.76-0.88,1.01-1.36c-30.15,22.16-64.28,38.73-100.63,49.67c-34.95,10.53-98.4,33.16-128.89,1.91
						c-2.24-2.3-1.05-5.85,1.84-6.8c66.83-21.98,123.99-71.12,162.66-129.13c18.46-27.69,40.59-59.26,47.03-92.47
						c1.64-8.51,2.54-22.51,9.56-29.05c0.1-0.7,0.26-1.4,0.34-2.11c19.11-3.24,30.99-23.54,38.8-44.22
						c5.79-24.81,10.76-50.57,13.16-76.03c2.28,13.37,4.38,26.79,5.97,40.34c7.77,66,4.12,132.07-10.9,196.66
						c15.36-31.41,16.95-69.74,20.95-103.58c3.5-29.54,3.59-58.93,2.85-88.37c-2.52-27.78-8.07-55.33-14.12-82.47
						c-1.07-4.81-2.71-10.02-4.52-15.42c-1.48-9.31-4.5-17.46-8.91-26.14c-3.38-10.76-5.88-21.37-5.5-30.85
						c1.19-3.75,2.48-7.46,3.58-11.22c0.1-0.18,0.19-0.36,0.3-0.53c0.53-1.92,0.93-3.89,1.42-5.83c3.67-13.46,6.51-27.14,8.65-40.92
						c0.93-38.84-0.72-77.54-13.04-114.98c-6.91-20.98-16.33-40.76-25.13-60.96c-1.73-3.98-3.63-8.67-5.79-13.47
						c14.04,43.2,31.98,83.22,36.51,129.73c5.75,59.07-15.83,112.11-30.65,167.83c-0.28,1.07,0.01,1.58,0.55,1.79
						c-2.18,0.88-5.21,0.04-5.67-2.59c-0.69-3.97-1.55-7.89-2.31-11.84c5.33-52.92-0.18-107.53-22.9-154.79
						c0.83,2.02,1.63,4.03,2.37,6.08c6.46,18.35,12.24,37.22,15.78,56.39c6.93,37.69-7.72,124.54-8.63,130.9
						c-1.2-22.19-9.14-43.09-18.71-63.03c-21.22-44.17-50.9-83.38-75.37-125.68c-21.01-33.31-39.96-68.1-52.29-105.48
						c-7.79-23.61-17.12-49.18-19.93-74c-1.43-12.58,1.51-24.62,4-36.84c-2.63,5.55-5.48,11.01-8.87,16.23
						c-20.75,41.19-62.36,74.63-98.06,99.48c-46.12,32.11-99.03,54.45-148.55,80.67c-60.17,31.86-130.69,75.05-148.44,145.53
						c-5.02-27.16,4.8-62.97,13.78-85.96c5.58-14.27,12.87-27.79,21.14-40.7c5.28-10.69,11.35-20.95,18.08-30.82
						c8.19-13.29,17.12-26.1,26.8-38.41c-16,15.73-31.13,32.59-44.99,51.24c-16.09,21.68-36.3,57.42-44.54,92.48
						c-3.5,6.92-7.02,13.87-10.23,20.93c-5.79,24.55-10.59,49.37-14.84,74.36c-0.71,4.06-7.02,3.84-7.87,0
						c-9.14-41.14-28.9-78.17-30.54-121.05c-0.82-21.47-1.04-43.69,1.38-65.09c0.81-7.09,3.34-14.71,5.5-22.25
						c-8.21,15.78-10.43,36.2-10.88,55.45c-3.36,35.66,2.5,68.88,11.63,102.22c-8.79,21-17.45,42.03-25.57,63.21
						c-4.39,18.83-9.26,37.6-13.95,56.43c-6.81,27.35-16.3,60.81-12.85,90.78c2.28-19.45,5.4-38.19,9.29-55.6
						c5.33-23.85,8.07-40.16,16.4-62.78c1.8,36.98,22.21,140.94,54.12,129.59c7.58,41.04,22.97,79.36,40.69,117.07
						c9.99,21.26,20.63,44.1,34.9,63.66c10.91,13.72,22.64,26.84,35.07,39.4c24.02,24.31,51.98,47.93,85.55,57.19
						c1.42,0.39,2.24,1.33,2.62,2.42c7.01,2.24,14.12,4.22,21.44,5.67c-24.49,5.68-49.07,7.18-73.01,3.97
						c-45.1-3.01-95.72-31.25-124.18-58.15c-9.27-8.76-17.4-18.33-24.42-28.49c6.96,13.74,15.51,26.81,25.41,38.84
						c10.87,13.22,26.32,25.51,43.51,34.06c2.27,1.59,4.57,3.13,6.99,4.61c-21.94,4.5-43.94,5.1-65.03,2.33
						c-62.99-1.58-119.89-40.39-146.26-97.12c2.35,33.96,4.46,64.03,26.46,93.51c4.81,6.43,10.76,13.61,17.49,20.18
						c-46.67-20.9-68.36-75.75-77.14-126.27c-5.84-33.51-3.15-67.22,3.32-100.64c0.69-5.54,1.5-11.08,2.51-16.57
						c3.52-19.29,9.59-37.55,16.19-55.6c-0.02-0.18-0.08-0.36-0.12-0.53c5.54-18.6,11.24-36.96,16.3-55.02
						c24.12-86.1,20.68-166.01,14.75-253.98c-3.76-56.05,4.65-109.76,23.55-162.45c2.93-8.2,23.32-50.79,32.09-73.89
						c1.76-2.2,3.61-4.34,5.4-6.51c10.72-19.36,29.48-36,45.09-49.16c2.48-2.11,5.12-4.01,7.66-6.05
						c56.73-50.39,125.61-86.45,199.06-105.39c35.09-9.05,71.05-13.26,107.12-13.68c25.26-4.33,52.48-2.27,75.37,2.95
						c35.43,8.12,71.64,17.65,105.4,32.23c-3.11-1.61-6.23-3.28-9.34-4.85c2.03,0.26,4.07,0.49,6.09,0.86
						c58.93,6.21,110.81,35.53,159.34,78.07c3.32,4.89,6.47,9.84,9.52,14.84c4.91,5.78,9.51,11.88,13.68,18.45
						c22,34.6,35.85,74.48,43.62,115.44c14.34,51.32,19.68,106.49,27.5,158.39c4.03,26.69,7.79,53.32,12.16,79.9
						c10.53,36.82,23.4,72.78,36.25,109.31c10.76,30.61,22.62,61.32,32.68,92.36C1073.05,808.79,1089.59,873.68,1068.27,935z"/>
					<path class="st5" d="M1045.46,750.49c-10.05-31.03-21.92-61.75-32.68-92.36c-12.85-36.53-25.72-72.49-36.25-109.31
						c-4.36-26.58-8.13-53.21-12.16-79.9c-7.82-51.9-13.16-107.07-27.5-158.39c-7.77-40.96-21.63-80.84-43.62-115.44
						c-4.17-6.58-8.77-12.67-13.68-18.45c-3.04-5-6.19-9.95-9.52-14.84c-48.53-42.54-100.41-71.86-159.34-78.07
						c-2.02-0.37-4.06-0.6-6.09-0.86c3.11,1.58,6.23,3.24,9.34,4.85c-33.76-14.58-69.97-24.11-105.4-32.23
						c-22.89-5.22-50.11-7.28-75.37-2.95c-14.38,0.16-28.72,1.13-43.02,2.57c57.18-2.62,118.13,3.17,166.8,33.32
						c-12.02-0.36-24.09-0.01-35.47-0.06c-34.4-0.18-68.49,1.59-102.74,4.89c-47.46,4.56-94.12,14.49-133.89,39.47
						c9.09-3.61,18.32-6.62,28.19-9.3c32.43-8.79,64.88-12.57,97.65-14.22c27.13-3.13,54.45-4.49,81.72-5.39
						c8.22,0.85,16.44,1.97,24.66,3.58c6.35,1.25,12.92,2.62,19.57,4.1c-12.38,6.24-24.03,13.8-34.63,21.57
						c8.28-4.06,17.01-7.25,25.23-9.93c22.65-7.37,49.03-15.92,73.16-14.6c38.8,2.11,75.4,38.51,96.48,74.59
						c-8.51-18.41-20.87-34.83-33.68-51.32c-2.71-3.48,0.58-8.7,4.89-6.4c27.17,14.41,50.97,33.12,71.24,55.02
						C892.6,225.88,926.3,296.36,940,363.46c11.1,54.39,10.23,109.91,18.36,164.64c5.88,39.63,15.41,78.52,24,117.62
						c3.18,9.68,6.37,19.35,9.59,29.03c1.87,5.63,3.7,11.3,5.49,17.01c22.01,49.51,48.25,97.66,53.44,151.89
						c3.6,37.59,0.08,77.05-18.21,110.74c-13.27,24.46-32.95,54.78-63,58.8c-2.91,0.39-5.81-1.73-4.97-4.95
						c8.89-33.74,15.5-68.23,15.83-102.77c-3.04,10.5-7.04,20.74-12.37,30.62c-21.98,40.85-62.61,83.29-107.57,97.77
						c-3.23,1.04-6.54-3.04-4.57-5.94c10.32-15.14,24.19-26.19,37.27-38.8c14.18-13.69,24.33-30,30.84-48.65
						c1.21-3.44,2.3-6.91,3.36-10.4c-15.15,25.52-35.39,45.98-62.82,53.65c-3.85,1.07-6.88-4.04-3.9-6.8
						c44.57-41.6,61.27-107.44,67.72-166.12c8-72.63-3.58-144.36-21.37-214.76c-1.17-4.65,4.95-6.75,7.47-3.03
						c13.27,19.59,24.03,40.67,35.57,61.29c-2.5-8.31-5.12-16.59-7.75-24.88c-10.47-22.91-20.43-46.11-27.24-70.27
						c-11.61-41.21-11.01-83.02-16.04-125.21c-5.75-48.19-18.82-98.36-42.72-140.95c-13.52-24.09-32.68-43.32-51.61-62.91
						c14.01,24.88,25.06,51.09,33.4,78.13c26.51,63.19,36.25,134.27,26.77,201.12c-0.04,0.34-0.08,0.68-0.12,1.03
						c-0.72,4.92-7.56,3.18-8.01-1.03c-1.22-11.65-3.44-22.96-6.33-34.06c-0.83-0.45-1.47-1.25-1.67-2.5
						c-0.56-3.58-1.36-7.05-2.08-10.56c-11.18-35.58-29.14-68.84-46.59-102.19c5.79,23.95,8.95,48.41,9.25,72.42
						c0.04,2.76-2.32,4.16-4.54,3.89c-3.19-9.93-6.56-19.76-9.94-29.43c-3.73-10.67-7.63-22.49-12.19-34.08
						c-5.98-8.57-12.12-17.02-18.49-25.31c15.73,43,26.29,87.45,39.31,131.12c0.69,5.8,1.33,11.63,1.79,17.49
						c0.3,3.96-4.47,4.83-6.95,2.87c-19.88-15.68-31.63-39.22-41.96-61.82c-4.92-10.8-10.22-21.44-15.53-32.07
						c-36.79-61.75-60.5-132.55-66.42-204.14c-34.34,38.89-68.62,78.04-108.37,111.52c-43.26,36.42-93.87,69.44-152.33,69.82
						c-1.99,0.02-3.39-1.52-3.8-3.28c6.22-6.07,12.16-12.43,17.96-18.65c3.66-3.94,7.41-7.84,11.1-11.79
						c45.48-36.31,87.78-78.12,116.27-124.26c1.43-2.3-1.29-2.76-2.59-1.1c-20.04,25.63-46.59,48.11-72.94,69.31
						c-16.6,11.58-32.39,24.64-48.56,36.46c-18.23,13.28-37.08,27.39-60.11,29.94c-2.92,0.33-5.21-3.7-3.53-6.07
						c17.37-24.47,43.84-43.61,67.63-62.61c-28.33,14.97-57.73,29.08-83.59,48.13c-13.97,10.27-27.36,21.33-38.56,34.64
						c-9.2,10.95-17.94,22.13-29.2,31.13c5.28-16.6,11.64-32.64,22.28-48.9c20.24-31.01,49.42-54.36,78.79-76.17
						c1.42-1.04,1.73-4.44-0.73-3.18c-30.75,15.91-70.6,46.84-96.83,83.38c-34.98,36.29-59.6,79.16-68.62,132.76
						c-22.53-172.23,122.54-276.39,269.93-324.05c-9.61,1.51-19.18,3.13-28.65,5.3c-25.53,5.87-50.6,14.86-74.72,25.04
						c-6.94,2.94-13.74,6.16-20.56,9.33c-24.49,13.16-47.79,28.49-69.44,45.73c-49.73,39.54-92.06,89.23-110.05,151.19
						c-18.31,63-3.98,128.66-22.04,191.53c-18.91,65.94-34.32,128.81-26.87,198.13c7.09,66.08,28.59,128.63,58.8,187.6
						c2.17,4.23-2.94,7.79-6.41,4.89c-58.78-49.28-84.65-118.61-87.65-192.7c-10.85,39.64-10.93,81.04-15.15,122.08
						c-0.48,4.62-6.43,5.52-8.01,1.03c-12.78-36.4-8.24-75.55-2.97-112.99c0.29-2.1,0.55-4.19,0.84-6.28
						c-3.96,12.03-7.43,24.24-9.74,36.92c-1.01,5.49-1.81,11.04-2.51,16.57c-6.47,33.42-9.16,67.13-3.32,100.64
						c8.78,50.52,30.47,105.37,77.14,126.27c-6.73-6.58-12.68-13.76-17.49-20.18c-22-29.48-24.11-59.55-26.46-93.51
						c26.37,56.73,83.27,95.54,146.26,97.12c21.09,2.77,43.09,2.17,65.03-2.33c-2.42-1.48-4.72-3.02-6.99-4.61
						c-17.19-8.55-32.64-20.84-43.51-34.06c-9.9-12.03-18.45-25.09-25.41-38.84c4.16,6.02,8.82,11.73,13.75,17.29
						c-33.62-49.73-46.02-108.19-50.27-169.75c-0.32-4.72,6.81-5.39,8-1.04c12.29,44.96,26.45,91.07,53.59,129.61
						c14.73,20.91,29.95,43.8,51.44,58.36c11.61,7.86,24.43,15.49,30.74,28.5c1.26,2.62-0.29,6.2-3.55,6.08
						c-9.49-0.37-18.86-2.03-27.87-4.82c23.03,11.95,48.68,20.8,72.77,22.41c23.94,3.21,48.52,1.71,73.01-3.97
						c-7.31-1.45-14.43-3.43-21.44-5.67c-0.38-1.08-1.2-2.02-2.62-2.42c-33.57-9.26-61.53-32.88-85.55-57.19
						c-12.42-12.56-24.15-25.68-35.07-39.4c-14.27-19.56-24.92-42.4-34.9-63.66c-17.73-37.71-33.11-76.03-40.69-117.07
						c-31.92,11.35-52.32-92.61-54.12-129.59c-8.33,22.62-11.07,38.93-16.4,62.78c-3.89,17.41-7.01,36.15-9.29,55.6
						c-3.45-29.97,6.04-63.43,12.85-90.78c4.69-18.83,9.55-37.6,13.95-56.43c8.13-21.18,16.78-42.2,25.57-63.21
						c-9.13-33.34-14.98-66.56-11.63-102.22c0.45-19.26,2.67-39.68,10.88-55.45c-2.16,7.55-4.7,15.16-5.5,22.25
						c-2.42,21.4-2.19,43.62-1.38,65.09c1.64,42.89,21.4,79.91,30.54,121.05c0.85,3.84,7.17,4.06,7.87,0
						c4.25-24.99,9.05-49.82,14.84-74.36c3.21-7.07,6.73-14.01,10.23-20.93c8.24-35.06,28.45-70.8,44.54-92.48
						c13.85-18.65,28.98-35.51,44.99-51.24c-9.68,12.31-18.62,25.13-26.8,38.41c-6.73,9.87-12.8,20.13-18.08,30.82
						c-8.26,12.92-15.56,26.44-21.14,40.7c-8.98,22.99-18.8,58.8-13.78,85.96c17.75-70.48,88.26-113.67,148.44-145.53
						c49.52-26.22,102.43-48.57,148.55-80.67c35.7-24.85,77.3-58.29,98.06-99.48c3.39-5.21,6.24-10.68,8.87-16.23
						c-2.49,12.21-5.43,24.26-4,36.84c2.81,24.81,12.13,50.39,19.93,74c12.33,37.37,31.28,72.16,52.29,105.48
						c24.47,42.3,54.15,81.51,75.37,125.68c9.57,19.94,17.51,40.84,18.71,63.03c0.92-6.36,15.57-93.22,8.63-130.9
						c-3.53-19.18-9.32-38.04-15.78-56.39c-0.74-2.06-1.54-4.06-2.37-6.08c22.72,47.26,28.24,101.87,22.9,154.79
						c0.76,3.95,1.62,7.87,2.31,11.84c0.46,2.64,3.49,3.48,5.67,2.59c-0.54-0.21-0.83-0.72-0.55-1.79
						c14.82-55.72,36.4-108.76,30.65-167.83c-4.53-46.51-22.47-86.53-36.51-129.73c2.16,4.81,4.06,9.49,5.79,13.47
						c8.8,20.2,18.22,39.98,25.13,60.96c12.32,37.44,13.97,76.14,13.04,114.98c-2.15,13.78-4.99,27.45-8.65,40.92
						c-0.49,1.94-0.9,3.9-1.42,5.83c-0.11,0.17-0.2,0.35-0.3,0.53c-1.1,3.76-2.39,7.47-3.58,11.22c-0.38,9.48,2.12,20.1,5.5,30.85
						c4.42,8.69,7.44,16.83,8.91,26.14c1.81,5.4,3.44,10.61,4.52,15.42c6.05,27.14,11.61,54.69,14.12,82.47
						c0.74,29.43,0.65,58.82-2.85,88.37c-3.99,33.85-5.58,72.17-20.95,103.58c15.02-64.59,18.67-130.66,10.9-196.66
						c-1.59-13.54-3.69-26.96-5.97-40.34c-2.4,25.46-7.37,51.22-13.16,76.03c-7.82,20.68-19.69,40.97-38.8,44.22
						c-0.08,0.72-0.23,1.41-0.34,2.11c-7.02,6.54-7.92,20.54-9.56,29.05c-5.14,26.55-20.32,52-35.63,75.3
						c19.76-22.02,37-46.32,46.57-74.02c1.7-4.91,9.46-2.96,7.87,2.07c-6.53,20.65-9.59,42.76-18.17,62.75
						c-7.86,18.25-19.38,35.3-32.21,50.51c-2.48,4.27-4.91,8.57-7,13.03c25.21-13.49,41.54-42.31,59.7-63.13
						c2.73-3.12,7.83,0.14,6.82,3.9c-18.61,68.56-59.47,127.79-128.91,151.25c-3.41,1.15-6.24-3.04-4.56-5.94
						c9.29-16.14,21.09-30.43,32.57-44.97c-13.88,8.75-29.3,15.05-45.28,19.4c-0.36,0.09-0.65,0.04-0.97,0.06
						c-5.14,3.21-10.33,6.35-15.56,9.37c-21.96,12.69-48.56,22.15-73.39,26.8c-1.32,0.26-2.69,0.49-4.12,0.75
						c0.19,0.42,0.34,0.87,0.71,1.25c30.49,31.24,93.95,8.62,128.89-1.91c36.35-10.95,70.48-27.51,100.63-49.67
						c-0.25,0.48-0.55,0.94-1.01,1.36c-0.29,0.27-0.61,0.53-0.91,0.79c0.76-0.56,1.51-1.14,2.29-1.68
						c-6.43,9.36-17.05,18.9-21.43,23.36c-12.26,12.56-26.38,22.87-39.12,34.87c-2.72,2.56-0.51,6.77,2.87,6.95
						c46.91,2.43,92.29-12.37,132.29-36.31c-10.57,11.19-21.58,21.83-35.39,29.39c-2.92,1.6-2.42,5.36-0.08,6.9
						c-0.08,0.04-0.16,0.11-0.23,0.16c0.08-0.04,0.19-0.09,0.28-0.13c0.58,0.38,1.25,0.65,2.03,0.68
						c27.89,0.77,54.84-5.09,79.26-16.09c8.91-3.31,17.5-7.4,25.41-12.28c16.83-9.55,31.68-22.33,42.53-37.96
						c5.75-8.29,11.74-17.72,17.14-27.82c1.01-1.82,1.92-3.7,2.86-5.57c0.6-1.21,1.2-2.39,1.79-3.62
						c2.91-6.06,5.62-12.23,7.86-18.69C1089.59,873.68,1073.05,808.79,1045.46,750.49z"/>
					<path class="st5" d="M254.24,1020.72c-9.9-12.03-18.45-25.09-25.41-38.84c4.16,6.02,8.82,11.73,13.75,17.29
						c-24.13-35.71-37.31-75.94-44.41-118.58c-2.8-8.6-5.36-17.3-7.31-26.19c-5.09-23.23-9.81-47.83-10.73-71.94
						c-13.56,93.72,11.84,194.01,78.04,262.55c3.03,3.13-0.08,7.34-3.9,6.8c-69.14-9.64-150.88-58.19-171.87-125.94
						c-4.95,22.35-6.43,45.12-1.48,66.95c4.16,18.37,11.63,34.58,22.95,49.55c7.05,9.3,16.84,22.85,28.36,30.39
						c-4.56-4.94-8.83-9.97-12.33-14.66c-22-29.48-24.11-59.55-26.46-93.51c26.37,56.73,83.27,95.54,146.26,97.12
						c21.09,2.77,43.09,2.17,65.03-2.33c-2.42-1.48-4.72-3.02-6.99-4.61C280.57,1046.23,265.11,1033.94,254.24,1020.72z"/>
					<path class="st5" d="M429.02,1058.89c-0.38-1.08-1.2-2.02-2.62-2.42c-33.57-9.26-61.53-32.88-85.55-57.19
						c-12.42-12.56-24.15-25.68-35.07-39.4c-14.27-19.56-24.92-42.4-34.9-63.66c-17.73-37.71-33.11-76.03-40.69-117.07
						c-0.21,0.08-0.42,0.09-0.64,0.17c-4.06,49.58,10.41,100.45,34.8,143.98c15.08,26.88,32.96,54.09,54.84,75.94
						c19.61,19.57,42.14,35.48,64.14,52.21c2.64,2.02,2.86,6.53-0.98,7.47c-24.25,5.97-47.27,1.15-68.2-10.38
						c-3.2-0.69-6.35-1.48-9.47-2.43c23.03,11.95,48.68,20.8,72.77,22.41c23.94,3.21,48.52,1.71,73.01-3.97
						C443.14,1063.1,436.03,1061.13,429.02,1058.89z"/>
					<path class="st5" d="M661.73,242.49c-33.48,47.67-85.59,85.32-135.91,108.73c-76.7,35.67-165.75,45.33-221.9,115.27
						c-2.57,3.2-7.92-0.22-6.8-3.91c6.56-21.73,16.46-41.58,27.9-60.57c-1.21,1.9-2.53,3.74-3.7,5.64
						c-6.73,9.87-12.8,20.13-18.08,30.82c-8.26,12.92-15.56,26.44-21.14,40.7c-8.98,22.99-18.8,58.8-13.78,85.96
						c17.75-70.48,88.26-113.67,148.44-145.53c49.52-26.22,102.43-48.57,148.55-80.67C600.11,314.7,640.48,282.27,661.73,242.49z"/>
					<path class="st5" d="M712.64,1004.11c-5.14,3.21-10.33,6.35-15.56,9.37c-19.82,11.45-43.37,20.07-66.02,25.11
						c19.92,8.05,49.37-1.36,68.1-4.28c9.49-1.48,18.78-3.48,27.91-5.89c9.17-15.62,20.62-29.6,31.81-43.76
						c-13.88,8.75-29.3,15.05-45.28,19.4C713.26,1004.14,712.97,1004.09,712.64,1004.11z"/>
					<path class="st5" d="M971.91,952.32c1.65-5.12,3.3-10.22,5-15.21c0.36-1.05,1.02-1.73,1.78-2.19c1.02-9.8,1.77-19.6,1.86-29.44
						c-3.04,10.5-7.04,20.74-12.37,30.62c-14.91,27.69-38.39,56.09-65.97,76.04C930.04,997.42,953.46,977.78,971.91,952.32z"/>
					<path class="st5" d="M1045.46,750.49c-10.05-31.03-21.92-61.75-32.68-92.36c-8.29-23.57-16.52-46.92-24.2-70.41
						c2.81,25.02,7.35,49.81,14.03,74.05c16.26,58.98,49.33,112.48,62.22,172.45c17.72,82.42-41.63,186.79-128.7,201.32
						c-3.72,0.63-7.06-3.81-3.9-6.8c15.13-14.31,24.23-32.91,31.45-52.35c-12.61,14.34-27.11,26.93-43.42,36.71
						c-28.92,17.36-70.74,35.64-105.07,30.56c-1.78-0.26-3.03-2.26-3.03-3.93c0-5.37,5.79-7.07,9.37-10.38
						c8.27-7.66,15.94-15.94,22.23-25.32c7.72-11.47,14.38-23.51,19.27-36.24c-22.63,15.54-45.82,30.37-69.73,43.45
						c-19.61,10.71-40.15,18.17-61.26,23.86c-0.39,0.12-0.75,0.29-1.15,0.42c-0.39,0.13-0.77,0.19-1.15,0.19
						c-16.14,4.22-32.56,7.46-49.26,10.14c-18.66,3.02-43.84,7.48-60.44-4.05c0.1,0.15,0.13,0.31,0.26,0.45
						c30.49,31.24,93.95,8.62,128.89-1.91c36.35-10.95,70.48-27.51,100.63-49.67c-0.25,0.48-0.55,0.94-1.01,1.36
						c-0.29,0.27-0.61,0.53-0.91,0.79c0.76-0.56,1.51-1.14,2.29-1.68c-6.43,9.36-17.05,18.9-21.43,23.36
						c-12.26,12.56-26.38,22.87-39.12,34.87c-2.72,2.56-0.51,6.77,2.87,6.95c46.91,2.43,92.29-12.37,132.29-36.31
						c-10.57,11.19-21.58,21.83-35.39,29.39c-2.92,1.6-2.42,5.36-0.08,6.9c-0.08,0.04-0.16,0.11-0.23,0.16
						c0.08-0.04,0.19-0.09,0.28-0.13c0.58,0.38,1.25,0.65,2.03,0.68c27.89,0.77,54.84-5.09,79.26-16.09
						c8.91-3.31,17.5-7.4,25.41-12.28c16.83-9.55,31.68-22.33,42.53-37.96c5.75-8.29,11.74-17.72,17.14-27.82
						c1.01-1.82,1.92-3.7,2.86-5.57c0.6-1.21,1.2-2.39,1.79-3.62c2.91-6.06,5.62-12.23,7.86-18.69
						C1089.59,873.68,1073.05,808.79,1045.46,750.49z"/>
					<path class="st5" d="M947.05,1024.66c10.41-3,20.32-7.45,29.62-12.97c-2.27,0.64-4.58,1.19-7,1.51
						c-2.91,0.39-5.81-1.73-4.97-4.95c2.69-10.21,5.03-20.52,7.19-30.85C965.69,994.34,958.24,1010.79,947.05,1024.66z"/>
					<path class="st5" d="M865.05,983.6c-5.01,10.28-11.04,20.08-17.77,29.39c-6.91,9.56-15.07,17.99-24.08,25.55
						c3.91-3.28,20.87-5.22,32.43-7.72c-0.26-0.95-0.21-1.99,0.4-2.9c10.32-15.14,24.19-26.19,37.27-38.8
						c14.18-13.69,24.33-30,30.84-48.65c1.21-3.44,2.3-6.91,3.36-10.4C912.44,955.46,892.3,975.85,865.05,983.6z"/>
					<path class="st5" d="M772.75,483.98c-19.02-28.11-37.03-57.05-52.25-87.43c-25.93-51.75-44.6-107.36-49.96-164.97
						c-1.89,9.39-3.4,18.79-2.3,28.47c2.81,24.81,12.13,50.39,19.93,74c12.33,37.37,31.28,72.16,52.29,105.48
						c24.47,42.3,54.15,81.51,75.37,125.68c9.57,19.94,17.51,40.84,18.71,63.03c0.92-6.36,15.57-93.22,8.63-130.9
						c-2.55-13.82-6.28-27.5-10.59-40.93c-3.06-5.41-6.28-10.78-9.56-16.1c2.84,9.63,5.69,19.25,7.72,29.08
						c5.69,27.45,5.52,57.22-0.41,84.69c-0.69,3.22-4.6,3.74-6.81,1.84c-10.18-8.72-16.01-20.35-23.11-31.51
						C791.65,510.63,781.88,497.49,772.75,483.98z"/>
					<path class="st5" d="M855.85,526.61c-1.19-23.53-9.3-44.28-19.89-64.04c13.31,40.28,16.29,84.22,11.97,127.08
						c0.76,3.95,1.62,7.87,2.31,11.84c0.46,2.64,3.49,3.48,5.67,2.59c-0.54-0.21-0.83-0.72-0.55-1.79
						c14.82-55.72,36.4-108.76,30.65-167.83c-0.13-1.29-0.37-2.51-0.51-3.8c-0.85,34.19-7.2,67.77-22.03,97.95
						C861.55,532.49,856.05,530.42,855.85,526.61z"/>
					<path class="st5" d="M342.56,374.88c6.09-8.91,12.36-17.74,18.61-26.58c-68.8,47.2-127.37,108.07-133.29,194.57
						c-0.21,3.18-4.48,5.85-6.95,2.87c-18.24-22.13-23.15-55.95-26.34-84.43c0.01,8.68,0.18,17.33,0.5,25.89
						c1.64,42.89,21.4,79.91,30.54,121.05c0.85,3.84,7.17,4.06,7.87,0c4.25-24.99,9.05-49.82,14.84-74.36
						c3.21-7.07,6.73-14.01,10.23-20.93c8.24-35.06,28.45-70.8,44.54-92.48C315.37,404.01,328.62,389,342.56,374.88z"/>
				</g>
				<path class="st5" d="M512.69,128.8c-79.69,4.69-157,31.39-220.11,76.71c-42.15,25.28-87.82,82.57-86.18,78.61
					c29.08-70.51,91.72-122.2,157.16-158.1c34.97-19.19,71.51-35.72,110.28-45.48c29.53-7.42,59.49-12.33,89.62-16.34
					c-23.26-1.11-47.57-0.92-70.83,3.26c-122.72,11.24-232.26,74.38-306.84,175.95c-19.13,26.07-33.43,55.15-43.86,85.67
					c-13.6,57.9-14.53,118.73-13.49,178.58c0.88,50.61,9.47,103.54,1.21,153.49c1.9-5.09,3.76-10.16,5.56-15.26
					c7.35-37.5,5.5-74.69,5.66-116.58c0.15-34.6,3.31-68.82,7.69-103.01c-1.92,32.07-0.66,63.89,5.01,91.53
					c0.89,4.31,6.25,0.08,6.35-2.76c3.36-91.03,31.04-191.07,97.09-257.04c75.18-75.1,183.7-104.23,284.23-123.52
					c0.66-0.14,1.42-0.68,2.08-1.4C533.22,131.19,523,129.75,512.69,128.8z"/>
				<path class="st5" d="M768.23,390.47c-0.06-0.32-0.13-0.63-0.19-0.94c-12.26-42.2-16.86-83.96-22.9-127.27
					c10.84,24.96,20.82,53.53,42.44,66.38c2.33,1.36,5.07-2.05,5.56-3.88c1.99-7.28,2.56-15.78,2.11-24.87
					c15.28,34.13,27.19,69.3,41.91,103.72c-8.88-47.65-16.38-96.05-31.47-141.87c-9.53-28.97-25.18-57.03-43.46-81.5
					c-10.03-13.43-21.53-35.3-38.07-42.66c22.48,34.93,44.14,75.05,44.64,116.03c0.04,3.63-4.43,5.27-6.93,2.87
					c-13.16-12.49-20.46-28.71-28.07-44.81c-0.02,18.94,0.32,37.89,1.12,56.84c0.21,4.86-6.54,5.18-8,1.03
					c-7.21-20.7-11.46-41.99-14.29-63.7c-1.22-9.38-1.71-19.38-2.7-29.25c-0.88-5.33-1.61-10.51-2.21-15.39
					c-0.76-3.86-1.68-7.65-2.92-11.29c-2.58-7.57-7.77-9.14-14.09-7.62c-3.16,2.28-5.8,4.61-6.43,5.13
					c-7.93,6.73-15.9,13.4-23.98,19.95c-10.38,8.42-20.26,17.28-30.51,25.8c-5.18,4.31-24.97,24.2-31.78,12.55
					c-6.53-11.16,6.62-26.37,12.93-34.45c9.33-11.95,21.3-22.77,31.01-34.73c-20.6,8.22-40.51,20.77-59.27,31.81
					c-15.17,8.94-30.98,19.44-48.96,20.91c-3.35,0.28-5.64-4.76-2.87-6.95c3.72-2.91,29.02-19.73,48.26-33.19
					c-6.12,1.8-12.28,3.47-18.5,5c-21.17,10.01-43.45,16.35-65.58,23.88c-17.51,5.95-35.23,13.19-52.65,21.4
					c-27.04,11.25-53.13,26.63-75.21,41.11c-21.31,13.96-48.24,32.26-70.15,53.52c-10.93,13.33-20.63,27.6-29.01,42.75
					c11.29-12.29,25.36-22.25,39.17-31.45c17.96-11.95,36.1-23.33,55.04-33.28c35.21-22.11,73.53-39.14,111.69-55.29
					c6.31-2.66,12.59-5.38,18.88-8.1c-33.32,22.89-64.18,49.93-96.93,73.06c-2.03,1.42-3.91,5.3-3.28,7.61
					c14.63-1.62,29.94-8.2,42.68-12.45c5.33-1.79,10.6-3.71,15.91-5.57c13.45-6.8,26.57-14.45,39.37-21.95
					c28.53-12.8,53.8-32.78,81.58-47.28c17.76-9.27-5.55,28.66-4.51,27.27c-6.98,9.28-13.28,19.06-19.68,28.73
					c-16.2,24.43-35.75,46.17-55.11,68.09c-0.54,0.6-1.02,1.61-1.3,2.64c4.44-0.91,8.87-1.88,13.22-3.29
					c11.78-3.81,23.1-9.04,33.94-15.09c19.29-13.79,36.8-31.17,53.11-46.35c6.51-6.07,12.49-12.5,18.26-19.12
					c14.58-12.32,28.24-25.98,41.05-39.61c11.88-12.66,25.64-25.98,36.58-40.58c-3.62,29.66,4.16,66.16,9.84,89.76
					c13.69,56.99,37.64,118.97,73.3,166c1.28,1.69,3.58,0.35,4.89-1.49C772.66,409.69,770.03,400.18,768.23,390.47z"/>
				<path class="st5" d="M132.07,856.33c-4.72-22.29-7.5-44.88-6.74-67.71c0.82-24.53,3.05-49.02,0.1-73.31
					c-13.53,80.78-18.72,167.95,39.01,234.47c1.23,1.42,3.67,0.09,4.87-1.62C151.31,920.28,138.88,888.54,132.07,856.33z"/>
				<path class="st5" d="M994.89,711.39c-14.14-39.89-28.05-81.3-40.45-123.46c-1.31-6.94-2.43-13.91-3.56-20.87
					c-7.83-35.67-12.77-71.71-15.84-108.78c-0.98-11.8-1.87-23.63-2.9-35.46c-3.2-23.79-6.88-47.51-11.86-71.14
					c-8.32-39.46-23.34-72.77-43.58-102.71c-10.95-15.19-23.28-29.25-36.87-42.18c31.59,45.45,56.14,96.26,67.11,149.88
					c8.19,40.02,10.76,80.83,10.69,121.61c-0.01,9.4-0.03,18.83,0.07,28.25c11.41,61.82,29.33,123.1,49,181.8
					c4.86,21.56,10.19,42.52,13.71,63.8c-7.09-35.49-23.75-68.93-39.52-101.89c-2.3-3.13-15.62-22.98-17.97-26.07
					c17.4,43.13,29.96,108,29.47,153.43c-0.59,55.21-10.37,107.22-32.09,157.09c19.7-22.7,35.08-43.42,45.79-66.63
					c-2.16,17.11-5.19,34.55-8.29,53.23c8.2-6.45,15.35-14.89,20.52-22.76c1.19-1.8,3.07-2.12,4.71-1.63
					c7.35-14.07,11.54-29.22,14.68-45.38c6.71,36.96,2.02,75.04,1.88,112.44c13.11-10.7,22.12-28.37,27.88-46.97
					C1040.64,849.05,1017.18,774.3,994.89,711.39z"/>
				<path class="st5" d="M307.9,1033.1c-65.68-40.34-87.96-108.32-107.13-179.29c-0.29-1.1-2.16,0.27-2.05,1.12
					c10.58,73.15,32.71,151.1,106.99,181.32C307.26,1036.88,309.57,1034.13,307.9,1033.1z"/>
			</g>
		</g>
	</g>
	<g>
		<g>
			<g>
				<g>
					<path class="st4" d="M735.69,541.3c-5.79-5.54-12.41-9.9-19.83-12.18c-17.29-7.21-37.67-8.57-58.75-4.47
						c-15.47,3.01-64.62,18.16-82.26,39.11c-0.13,1.92-0.02,3.79,0.17,5.65c1.52,5.52,4.15,10.94,7.72,15.35
						c32.6-18.94,60.09-38.3,99.85-35.78c28.01,1.77,57,9.44,76.5,28.82C754.13,562.22,745.98,550.17,735.69,541.3z"/>
					<path class="st4" d="M714.64,542.94c-28.96-12.76-57.84-7.22-85.78,5.22c-10.67,4.76-22.04,9.5-31.01,17.18
						c-4.13,3.52-8.86,8.58-14.03,10.62c-2.11,0.85-4.1,1-6.02,0.86c1.34,2.86,3,5.54,4.93,7.93c32.6-18.94,60.09-38.3,99.85-35.78
						c21.34,1.34,43.23,6.16,61.08,16.94C735.59,556.62,726.68,548.26,714.64,542.94z"/>
				</g>
				<path class="st3" d="M682.55,545.14c-18.28,1.79-35.08-3.07-52.36,2.84c-14.41,4.94-38.63,29.71-53.73,25.8
					c1.77,4.61,4.29,8.97,7.53,12.51c1.7,0.86,3.61,1.31,5.77,1.04c11.93-3.52,25.94-11.38,33.59-13.93
					c46.87-15.6,89.31-26.03,131.23,7.37c1.34,1.09,3.75-1.07,3.11-2.59C745.29,548.54,711.18,542.34,682.55,545.14z"/>
			</g>
			<g>
				<g>
					<path class="st4" d="M478.31,576.42c1.25-2.35,2.61-5.48,3.36-8.68c0.08-1.31,0.11-2.64,0.01-3.99
						c-17.64-20.95-66.79-36.1-82.26-39.11c-21.08-4.09-41.49-2.74-58.78,4.47c-7.41,2.28-14.01,6.64-19.82,12.18
						c-10.3,8.87-18.43,20.92-23.38,36.49c19.48-19.38,48.49-27.05,76.5-28.82c38.31-2.43,65.23,15.47,96.29,33.73
						C473.43,581.18,476.71,579.46,478.31,576.42z"/>
					<path class="st4" d="M477.92,576.91c-1.67,0-3.39-0.21-5.21-0.94c-5.18-2.05-9.92-7.1-14.03-10.62
						c-8.97-7.67-20.35-12.41-31.01-17.18c-27.96-12.45-56.84-17.98-85.79-5.22c-12.04,5.31-20.95,13.68-29.03,22.97
						c17.85-10.78,39.74-15.6,61.1-16.94c38.31-2.43,65.23,15.47,96.29,33.73C473.23,581.27,476.22,579.6,477.92,576.91z"/>
				</g>
				<path class="st3" d="M370.59,545.14c17.47,1.79,33.5-3.07,49.97,2.84c16.33,5.86,45.84,39.74,58.37,20.47
					c0.92-1.43,4.05,1.61,2.65,2.77c-0.48,0.4-0.95,0.8-1.43,1.21c-0.45,0.36-1.11-0.2-1.17-0.69c4.54,35.17-36.72,6.93-51.85,1.65
					c-44.78-15.6-85.29-26.03-125.32,7.37c-1.3,1.09-3.58-1.07-2.97-2.59C310.65,548.54,343.23,542.34,370.59,545.14z"/>
			</g>
		</g>
		<g>
			<g>
				<g>
					<path class="st3" d="M768.13,643.04c-2.38,0.94-6.85,4.15-9.2,5.1c3.44-19-12.13-38.02-25.81-49.73
						c-12.31-10.56-27.05-19.06-43.53-19.02c6.31-1.05,12.75-1.82,19.27-2.52c-34.87-5.32-66.4,6.26-88.39,29.67
						c-11.88,16.26-19.25,38.6-15.6,58.33c4.22,22.72,49.24,16.76,64.43,15.31c27.26-2.61,65.5-8.86,90.61-25.51
						C763.21,651.25,766,647.4,768.13,643.04z"/>
					<g>
						<path class="st6" d="M756.41,648.4c-0.96-4.36-5-12.07-6.43-16.33c-5.67-14.45-12.29-25.92-28.95-35.7
							c-16.32-9.55-32.44-10.93-51.5-7.65c-39.03,6.7-56.57,38.9-55.86,68.99c-1.22,4.89-1.29,10.04,4.93,12.07
							c17.15,5.64,36.44,5.12,54.64,4.43c20.12-0.77,46.74-4.73,65.69-15.01C739.09,659.08,752.46,653.55,756.41,648.4z"/>
						<path class="st7" d="M638.59,670.95c-20.48-2.24-23.27-15.49-21.41-22.7c4.58-28.71,24.3-52.6,63.16-57.09
							c39.13-4.51,58.03,25.31,69.94,50.48c-4.79,18.22-53.24,29.08-80.58,29.72C661.93,671.53,648.13,671.78,638.59,670.95z"/>
						<path class="st6" d="M682.28,578.25c-5.78,0.46-11.44,1.2-16.96,2.2c-34.89,10.62-58.83,39.6-57.5,72.73
							c0.03,0.48,0.47,0.53,0.91,0.4c0.55-1.59,1.04-3.19,1.67-4.74c2.3-18.43,8.98-35.55,24.33-49.77
							c15.14-14.01,38.2-19.4,60.22-20.86C689.96,578.11,684.52,578.07,682.28,578.25z"/>
					</g>
				</g>
				<g>
					<defs>
						<path id="SVGID_1_" d="M638.59,670.95c-20.48-2.24-23.27-15.49-21.41-22.7c4.58-28.71,24.3-52.6,63.16-57.09
							c39.13-4.51,58.03,25.31,69.94,50.48c-4.79,18.22-53.24,29.08-80.58,29.72C661.93,671.53,648.13,671.78,638.59,670.95z"/>
					</defs>
					<clipPath id="SVGID_00000071532905900141963150000001919781154542042035_">
						<use xlink:href="#SVGID_1_"  style="overflow:visible;"/>
					</clipPath>
					<g style="clip-path:url(#SVGID_00000071532905900141963150000001919781154542042035_);">
						<g>
							<path class="st9" d="M722.73,635.59c0,29.29-17.95,53.05-40.09,53.05c-22.15,0-40.11-23.76-40.11-53.05
								c0-29.31,17.96-53.07,40.11-53.07C704.78,582.52,722.73,606.28,722.73,635.59z"/>
							<path class="st10" d="M682.64,586.19c-20.29,0-36.7,21.72-36.7,48.54c0,26.82,16.42,48.54,36.7,48.54
								c20.25,0,36.69-21.73,36.69-48.54C719.33,607.9,702.89,586.19,682.64,586.19z"/>
							<path class="st11" d="M707.49,632.66c0,18.48-11.34,33.47-25.32,33.47c-13.97,0-25.28-14.98-25.28-33.47
								c0-18.49,11.32-33.46,25.28-33.46C696.15,599.2,707.49,614.18,707.49,632.66z"/>
							<path class="st12" d="M676.23,621.79c-1.8,8.24-7.41,14.01-12.5,12.88c-5.09-1.12-7.74-8.7-5.93-16.96
								c1.82-8.22,7.41-14,12.51-12.87C675.41,605.96,678.04,613.55,676.23,621.79z"/>
							<path class="st10" d="M702.63,659.38c-23.96,25.73-47.53,5.77-48.66-24.17c-0.03-0.82-5.37,4-5.33,4.57
								c1.11,16.53,7.83,31.47,23.71,38.33c13.7,5.92,26.11-2.76,33.65-13.36C706.6,663.91,703.27,658.7,702.63,659.38z"/>
						</g>
						<path class="st10" d="M711.01,618.85c0,0,4.33,19.18-5.17,35.8l3.56,2.11C709.4,656.76,721.39,641.51,711.01,618.85z"/>
					</g>
				</g>
			</g>
			<g>
				<g>
					<path class="st3" d="M295.43,643.04c2.38,0.94,6.85,4.15,9.2,5.1c-3.44-19,12.13-38.02,25.8-49.73
						c12.33-10.56,27.07-19.06,43.56-19.02c-6.31-1.05-12.77-1.82-19.28-2.52c34.87-5.32,66.4,6.26,88.41,29.67
						c11.85,16.26,19.23,38.6,15.59,58.33c-4.23,22.72-49.24,16.76-64.43,15.31c-27.25-2.61-65.48-8.86-90.6-25.51
						C300.35,651.25,297.55,647.4,295.43,643.04z"/>
					<g>
						<path class="st6" d="M324.63,659.2c18.95,10.28,45.56,14.24,65.68,15.01c18.22,0.69,37.51,1.21,54.65-4.43
							c6.21-2.02,6.16-7.18,4.94-12.07c0.72-30.08-16.83-62.29-55.86-68.99c-19.05-3.28-35.2-1.9-51.48,7.65
							c-16.7,9.77-23.29,21.25-28.96,35.7c-1.43,4.26-5.46,11.97-6.43,16.33C311.11,653.55,324.48,659.08,324.63,659.2z"/>
						<path class="st6" d="M381.27,578.25c5.8,0.46,11.45,1.2,16.97,2.2c34.89,10.62,58.83,39.6,57.49,72.73
							c-0.01,0.48-0.44,0.53-0.91,0.4c-0.51-1.59-1.01-3.19-1.64-4.74c-2.33-18.43-8.97-35.55-24.32-49.77
							c-15.16-14.01-38.2-19.4-60.24-20.86C373.61,578.11,379.03,578.07,381.27,578.25z"/>
						<path class="st7" d="M393.86,671.37c-27.33-0.65-75.77-11.51-80.56-29.72c11.91-25.17,30.81-54.98,69.92-50.48
							c38.85,4.48,58.57,28.38,63.16,57.09c1.88,7.21-0.92,20.46-21.4,22.7C415.42,671.78,401.63,671.53,393.86,671.37z"/>
					</g>
				</g>
				<g>
					<defs>
						<path id="SVGID_00000116940720743279604660000015631000152186039188_" d="M393.86,671.37c-27.33-0.65-75.77-11.51-80.56-29.72
							c11.91-25.17,30.81-54.98,69.92-50.48c38.85,4.48,58.57,28.38,63.16,57.09c1.88,7.21-0.92,20.46-21.4,22.7
							C415.42,671.78,401.63,671.53,393.86,671.37z"/>
					</defs>
					<clipPath id="SVGID_00000180366107203664743360000014378938902044431807_">
						<use xlink:href="#SVGID_00000116940720743279604660000015631000152186039188_"  style="overflow:visible;"/>
					</clipPath>
					<g style="clip-path:url(#SVGID_00000180366107203664743360000014378938902044431807_);">
						<g>
							<path class="st9" d="M424.62,636.53c0,29.3-17.96,53.05-40.11,53.05c-22.14,0-40.09-23.75-40.09-53.05
								c0-29.31,17.95-53.06,40.09-53.06C406.66,583.47,424.62,607.22,424.62,636.53z"/>
							<path class="st10" d="M384.51,587.13c-20.26,0-36.68,21.73-36.68,48.55c0,26.81,16.42,48.54,36.68,48.54
								c20.27,0,36.69-21.74,36.69-48.54C421.2,608.86,404.78,587.13,384.51,587.13z"/>
							<path class="st11" d="M409.36,633.6c0,18.5-11.32,33.47-25.3,33.47c-13.97,0-25.31-14.97-25.31-33.47
								c0-18.47,11.34-33.46,25.31-33.46C398.04,600.14,409.36,615.13,409.36,633.6z"/>
							<path class="st12" d="M378.11,622.73c-1.81,8.24-7.41,14.02-12.49,12.88c-5.1-1.12-7.75-8.7-5.93-16.95
								c1.81-8.23,7.4-14.01,12.49-12.88C377.28,606.91,379.94,614.5,378.11,622.73z"/>
							<path class="st10" d="M404.51,660.32c-23.98,25.74-47.51,5.77-48.67-24.15c-0.02-0.83-5.36,3.99-5.31,4.56
								c1.11,16.54,7.83,31.47,23.69,38.33c13.7,5.93,26.13-2.75,33.66-13.36C408.5,664.85,405.15,659.65,404.51,660.32z"/>
						</g>
						<path class="st10" d="M412.88,619.8c0,0,4.34,19.17-5.15,35.8l3.57,2.11C411.29,657.71,423.28,642.45,412.88,619.8z"/>
					</g>
				</g>
			</g>
		</g>
		<g>
			<path class="st14" d="M499.24,652.91c0,0,14.31,19.18,16.16,32.76c0,0-4.57,41.42-24.81,65.71c0,0,18.31-36.82,14.68-66.03
				L499.24,652.91L499.24,652.91z"/>
			<path class="st14" d="M541.87,793.93c-9.29,2.78-23.4-3.53-37.92-10.28c-14.48-6.71-27.32-17.39-17.02-29.29
				c0,0-0.55,11.44,38.76,16.91c0,0,9.15,3.41,33.97-5.11c0,0-13.59,13.84-32.3,12.46c-18.72-1.41-30.95-9.61-30.95-9.61
				s9.91,11.62,35.67,19.88c0,0,8.01,5.73,27.5-9.2C559.58,779.69,551.17,791.08,541.87,793.93L541.87,793.93z"/>
			<path class="st3" d="M541.87,793.93c-9.29,2.78-23.4-3.53-37.92-10.28c-14.48-6.71-27.32-17.39-17.02-29.29
				c0,0-0.55,11.44,38.76,16.91c0,0,9.15,3.41,33.97-5.11c0,0,25.41-13.7-0.08,13.53C559.58,779.69,551.17,791.08,541.87,793.93
				L541.87,793.93z"/>
			<path class="st15" d="M514.51,732.17c4.38-13.21,10.77-26.19,10.85-40.17c0.1-17.61-7.29-28.27-17.69-40.24
				c-0.16,0.47-0.23,0.95-0.04,1.34c2.3,5,4.5,9.75,6.45,14.36c3.83,13.33,4.78,26.44,1.04,41.09
				c-3.42,13.53-11.63,24.85-15.94,37.73C504.6,741.76,509.78,737.13,514.51,732.17z"/>
			<path class="st15" d="M538.54,761.59c4.73-6.16-8.69-8.85-11.72-8.72c-4.13,0.17-8.13,1.21-12.17,1.98
				c-1.25,2.28-1.11,5.47,0.91,7.48c2.43,2.45,5.64,4.39,9.04,5.33C529.93,767.77,535.22,765.92,538.54,761.59z"/>
		</g>
		<g>
			<g>
				<path class="st2" d="M646.72,863.2c13.83-23.14,30.31-14.83,18.12-32.76c-0.07,7.84-5.27,13.53-19.96,16.21
					c-35.4,6.49-73.76,0.6-109.6-3.27c-18.93-2.06-36.92-3.19-55.6-0.51c-14.16,2.01-28.18,4.58-42.67,5.23
					c-20.42,0.94-35.77-5.98-47.3-17.84c-5.71,44.06,18.94,23.65,30.85,36.44c7.15,7.67,12,21.63,18.62,32.17
					c31.75,30.79,102.11,35.09,143.06,21.86c30.29-9.81,42.45-25.97,56.86-47.8C641.46,869.38,644,866.17,646.72,863.2z"/>
				<path class="st1" d="M660.41,825.32c-1.69-0.63-2.9,1.1-1.88,2.12c3.56,3.61,2.67,7.83,0.51,11.52
					c-11.45,4.26-24.49,4.67-37.16,5.93c-19.64,1.98-39.65,1.61-59.5,1.45c-28.21-0.22-58.05-7.48-85.67-2.71
					c-5.67,0.27-11.38,0.63-17.28,1.3c-17.14,1.96-50.17,14.04-58.85-5.05c-1.9-4.18-9.65-1.36-7.75,2.82
					c4.86,10.71,12.66,13.59,24.04,13.79c19.95,14.36,27.44,38.93,52.09,48.76c23.52,9.38,52.85,14.31,78.68,13.49
					c22.31-0.69,45.71-7.35,61.68-19.34c8.31-6.23,12.54-14.29,16.58-22.59c6.89-14.11,15.9-21.82,30.69-30.8
					c0.14-0.09,0.19-0.22,0.29-0.35c2.19-0.71,4.43-1.38,6.45-2.23c1.1-0.06,2.17-0.37,2.93-1.04c0.06-0.06,0.08-0.11,0.15-0.17
					c0.01,0,0.06-0.01,0.06-0.01c1.02-0.5,1.5-1.24,1.62-2.01C671.11,834.96,667.09,827.79,660.41,825.32z M620.47,875.15
					c-11.69,23.81-32.8,35.23-65.09,37.7c-25.68,1.97-55.15-3.3-79.3-10.69c-26.21-8.03-34.39-32.56-55.98-45.62
					c1.88-0.03,3.88-0.13,5.94-0.26c28.07-1.79,53.92-11.38,82.58-12.01c0.23,0,0.32-0.15,0.28-0.31
					c22.23,1.7,45.09,6.33,66.51,7.18c18.99,0.74,43.72,1.61,65.05-1.69C630.68,855.58,624.95,866.01,620.47,875.15z"/>
				<path class="st16" d="M620.47,875.15c-11.69,23.81-32.8,35.23-65.09,37.7c-25.68,1.97-55.15-3.3-79.3-10.69
					c-26.21-8.03-34.39-32.56-55.98-45.62c1.88-0.03,3.88-0.13,5.94-0.26c28.07-1.79,53.92-11.38,82.58-12.01
					c0.23,0,0.32-0.15,0.28-0.31c22.23,1.7,45.09,6.33,66.51,7.18c18.99,0.74,43.72,1.61,65.05-1.69
					C630.68,855.58,624.95,866.01,620.47,875.15z"/>
				<path class="st7" d="M623.49,851.23c-16.68,1.06-33.96,0.45-48.07-0.1c-21.43-0.85-44.28-5.48-66.51-7.18
					c0.04,0.17-0.04,0.31-0.28,0.31c-21.75,0.49-41.89,6.11-62.61,9.57c6.15,9.63,12.73,17.07,29.69,20.06
					c16.23,2.82,32.28,5.98,48.82,6.77c28.05,1.29,54.56-1.8,80.39-8.32C612.34,866.11,618.33,858.87,623.49,851.23z"/>
				<path class="st17" d="M575.42,851.13c-21.43-0.85-44.28-5.48-66.51-7.18c0.04,0.17-0.04,0.31-0.28,0.31
					c-21.75,0.49-41.89,6.11-62.61,9.57c0.55,0.87,1.12,1.7,1.67,2.52c22.2-1.55,43.64-6,66.31-5.11
					c26.6,1.07,52.92,4.58,79.32,7.72c2.44,0.29,3.98,2.14,3.25,3.97c-2.15,5.47-5.96,9.9-10.86,13.59
					c6.46-1.17,12.84-2.56,19.21-4.17c7.42-6.23,13.41-13.47,18.57-21.11C606.81,852.29,589.53,851.67,575.42,851.13z"/>
				<path class="st18" d="M545.39,894.34c-25.3-2.33-45.34,1.12-64.97,9.06c23.33,6.71,50.79,11.3,74.96,9.45
					c11.64-0.89,21.76-2.99,30.57-6.36C573.64,900.34,560.34,895.72,545.39,894.34z"/>
			</g>
			<path class="st15" d="M457.96,838.51c-12.76,1.75-24.81,6.1-37.8,4.82c-5.97-0.59-11.29-4.17-16.23-7.77
				c5.2,16.27,25.43,10.24,38.09,8.02c36.48-6.44,71.94-7.11,108.77-6.37C520.09,829.58,489.76,834.16,457.96,838.51z"/>
			<path class="st15" d="M520.32,928.03c-6.82-0.25-18.99,0.39-26.74-3.44c4.78,8.13,22.66,11.33,29.79,13.06
				c17.18,4.19,34.97-2.65,50.28-9.93c0.98-0.47,1.96-1.71,2.45-2.94C558.34,930.38,539.19,928.69,520.32,928.03z"/>
		</g>
	</g>
</g>
<polygon class="st19" points="714.37,776.49 919.68,736.31 907.91,676.18 702.6,716.36 693.5,669.87 634.69,721.12 575.88,772.38 
	649.68,797.68 723.47,822.99 "/>
</svg>
