<?xml version="1.0" encoding="utf-8"?>
<!-- Generator: Adobe Illustrator 26.0.3, SVG Export Plug-In . SVG Version: 6.00 Build 0)  -->
<svg version="1.1" id="Layer_1" xmlns="http://www.w3.org/2000/svg" xmlns:xlink="http://www.w3.org/1999/xlink" x="0px" y="0px"
	 viewBox="0 0 1133.86 1133.86" style="enable-background:new 0 0 1133.86 1133.86;" xml:space="preserve">
<style type="text/css">
	.st0{fill:#F45969;}
	.st1{fill:#FBACB0;}
	.st2{fill:#FFFFFF;}
	.st3{fill:#F9A0AF;}
	.st4{fill:#C0515C;}
	.st5{fill:#060606;}
</style>
<g>
	<path class="st0" d="M1090.72,654.07c-13.73,39.67-58.29,70.56-106.31,60.82c-2.54-0.51-5.08-1.17-7.49-2.11
		c-7.19-2.8-10.42-8.63-8.94-14.73c0.55-2.26,1.74-4.56,3.62-6.75c1.83-2.13,4.3-3.86,6.77-5.26c2.99-1.7,6.24-3.01,9.46-4.26
		c12.44-4.8,22.24-13.11,31.15-22.78c22.18-24.07,10.2-56.75-8.47-70.02c-9.75-6.93-20.61-10.11-32.4-10.72
		c-12.23-0.64-24.19,0.85-35.94,4.26c-13.65,3.95-26.55,9.67-39.04,16.38c-11.95,6.42-23.77,13.07-35.86,19.22
		c-5.9,3-11.88,5.7-17.93,8.1c-26.45,10.51-54.24,15.4-83.1,15.67c-2.02,0.02-4.03-0.02-6.04,0.1c-0.33,0.02-0.68,0.69-0.91,1.12
		c-0.08,0.15,0.1,0.58,0.29,0.71c1.19,0.8,2.35,1.67,3.63,2.3c6.99,3.45,13.86,7.17,21.04,10.17c18.75,7.82,34.25,20.07,48.35,34.39
		c26.99,27.4,46.34,59.53,59.59,95.5c2.99,8.12,6.12,16.2,9.39,24.21c14.87,36.48,37.65,67.37,66.78,93.67
		c8.63,7.79,18.4,13.91,29.28,18.17c2.13,0.84,4.28,1.79,6.16,3.08c3.07,2.12,4.58,5.19,3.92,8.98c-0.65,3.7-2.83,6.35-6.39,7.52
		c-2.17,0.72-4.5,1.06-6.78,1.3c-15.65,1.63-31.14,1.55-46.4-0.64c0,0-0.01,0-0.01,0c-10.26-1.47-20.41-3.9-30.45-7.41
		c-21.71-7.58-39.36-20.49-51.27-40.44c-9.18-15.36-17.85-31.02-27.01-46.38c-8.13-13.62-16.25-27.28-25.04-40.47
		c-16.23-24.34-38.26-42.19-64.19-55.39c-3.6-1.84-7.24-3.59-10.92-5.27c-5.13-2.35-10.24-4.76-15.28-7.27
		c-16.14-8.03-31.68-17.08-45.85-28.48c-0.77-0.62-1.94-0.75-2.92-1.11c0.18,1.05,0.17,2.18,0.57,3.14
		c8.31,20.07,14.23,40.85,18.44,62.14c3.76,19.01,5.87,38.17,6.23,57.58c0.54,29.83-1.53,59.43-6.93,88.76
		c-3.4,18.46-8.06,36.63-14.42,54.32c-4.1,11.4-8.26,22.78-12.4,34.18c-5.97,16.45-9.23,33.32-8.17,50.92c0.2,3.4,0,6.98-0.85,10.25
		c-1.86,7.16-9.17,9.79-14.94,7.49c-6.56-2.61-11.33-6.67-14.76-12.64c-4.9-8.53-8.99-17.34-12.17-26.49c0-0.01,0-0.01,0-0.01
		c-2.67-7.66-4.7-15.54-6.05-23.68c-3.1-18.67-2.61-37.42-0.68-56.11c2.54-24.68,6.39-49.25,8.26-73.97
		c3.09-40.81-5.37-79.31-27.22-114.23c-9.33-14.91-19.83-29.09-29.86-43.55c-0.76-1.1-2-1.87-3.02-2.8
		c-0.16,0.94-0.45,1.89-0.61,2.83v0c-0.11,0.6-0.16,1.19-0.08,1.76c0.74,5.43,1.45,10.89,2.72,16.21
		c4.42,18.52,9.08,36.98,13.64,55.47c4.71,19.12,7.18,38.56,7.94,58.22c1.53,39.43-10.14,74.48-34.78,105.31
		c-20.06,25.1-43.87,45.83-71.77,61.75c-10.29,5.87-20.94,11.04-32.96,12.53c-4.71,0.58-9.57,1-12.68-3.31
		c-3.34-4.63-1.36-9.61,1.05-13.86c1.8-3.17,4.5-6.05,7.35-8.38c8.14-6.65,15.43-13.79,21.93-21.4c0,0,0,0,0,0
		c20.21-23.63,32.83-51.72,39.67-83.2c5.12-23.57,7.13-47.33,3.96-71.39c-2.01-15.32-6.54-29.86-13.04-43.8
		c-5.61-12.03-11.58-23.89-17.23-35.9c-3.31-7.04-6.28-14.24-9.4-21.37c-1-2.27-2.17-2.49-3.49-0.3
		c-11.75,19.46-29.12,33.37-46.54,47.23c-10.62,8.45-21.36,16.74-31.98,25.18c-26.03,20.69-46.01,46.02-58.88,76.82
		c-11.29,27.02-11.37,54.55-2.98,82.18c2.14,7.06,6.06,13.67,9.8,20.12c2.2,3.8,3.84,7.54,4.09,11.69c0.08,1.24,0.03,2.51-0.17,3.84
		c-0.97,6.55-4.89,9.86-11.38,8.44c-3.58-0.78-7.12-2.41-10.28-4.32c-10.72-6.49-19.9-14.78-27.57-24.71
		c-13.7-17.74-22.15-37.71-25.37-59.9c-4.67-32.11-0.76-63.38,9.98-93.77c13.09-37.04,33.79-69.4,61.54-97.23
		c2.45-2.45,4.96-4.85,7.34-7.36c0.51-0.54,0.61-1.49,0.9-2.25c-0.84-0.08-1.72-0.38-2.51-0.21c-9.83,2.07-19.73,2.83-29.65,2.97
		c0,0,0,0-0.01,0c-8.22,0.12-16.46-0.19-24.69-0.53c-12.97-0.53-25.94-1.35-38.92-1.69c-18.24-0.48-36.3,0.85-54.08,5.49
		c-20.02,5.22-37.32,15.21-52.61,28.87c-17.58,15.69-22.57,35.55-16.02,57.46c3.35,11.21,8.49,20.96,15.4,29.12
		c0.02,0.02,0.04,0.04,0.05,0.06c8.42,9.92,19.48,17.45,33.14,22.33c3.76,1.35,7.81,2.11,11.8,2.55c7.64,0.84,11.97,5,13.81,12.25
		c1.17,4.6,0.46,8.1-3.52,10.55c-2.84,1.75-6.27,3.01-9.58,3.46c-20.44,2.75-39.46-1.26-57.36-11.72
		c-28.74-16.8-44.19-42.8-50.2-74.37c-6.36-33.45,0.47-64.87,19.54-93.31c9.16-13.66,21.48-24.02,35.27-32.77
		c16.9-10.73,35.04-18.88,53.72-25.87c25.96-9.72,52.29-18.27,79.37-24.33c0.56-0.12,1.22-0.12,1.66-0.43
		c0.65-0.44,1.13-1.12,1.69-1.69c-0.52-0.18-1.04-0.43-1.58-0.51c-3.71-0.55-7.43-1.06-11.14-1.6
		c-34.05-5.01-67.43-13.06-100.14-23.56c-34.06-10.93-62.71-30.38-85.55-58.02c-13.38-16.18-24-33.88-28.63-54.7
		c-5.57-25.06-0.58-48.45,12.78-69.68c17.35-27.58,43.88-37.89,75.56-36.54c11.3,0.48,22.26,3.17,33.04,6.54
		c8.6,2.69,16.58,6.64,23.99,11.8c15.57,10.84,28.84,23.91,39.29,39.81c7.31,11.13,11.3,23.33,12.11,36.55
		c0.19,3.08-0.12,6.41-1.13,9.3c-0.58,1.66-1.51,2.88-2.65,3.6c-1.78,1.13-4.08,1.06-6.4-0.39c-3.88-2.42-7.52-5.34-10.85-8.49
		c-8.53-8.09-17.67-15.31-27.69-21.25c-3.36-1.99-6.82-3.84-10.39-5.53c-2.45-1.16-4.98-2.15-7.55-3.06
		c-2.06-0.73-4.14-1.4-6.21-2.07c-12.84-4.14-24.04-0.5-33.56,8.27c-8.64,7.96-11.54,17.97-7.04,29.13
		c2.02,5.01,4.84,9.89,8.2,14.13c7.96,10.03,17.53,18.5,28.97,24.35c10,5.11,20.2,10.01,30.71,13.9
		c17.68,6.54,35.78,11.75,54.28,15.43c2.47,0.49,4.94,0.96,7.43,1.39c17.83,3.14,35.74,2.57,53.52,0.44
		c22.96-2.75,45.41-8.23,67.22-15.99c4.84-1.72,9.29-4.56,13.82-7.09c2.14-1.19,2.51-3.04,0.63-4.96c-0.4-0.41-0.8-0.83-1.21-1.24
		c-30.65-30.18-51.14-66.7-66.01-106.62c-16.22-43.53-23.88-88.54-21.62-135.01c2.11-43.34,12.55-84.47,35.26-121.83
		c30.43-50.04,74.69-82.54,129.97-100.57C495.32,55.84,529.92,52,565.1,54.99c35.6,3.02,69.09,13.09,99.28,32.77
		c34.2,22.29,58.11,53.12,74.46,90.17c13.05,29.58,20.75,60.55,23.98,92.64c1.27,12.62,1.84,25.32,2.4,33.37
		c-0.47,68.52-16.64,127.83-51.42,181.77c-6.29,9.76-9.02,8.69,4.64,15.78c18.81,9.76,39.18,14,60,15.16
		c16.37,0.91,32.87-0.2,49.3-0.66c11.06-0.31,21.61-3.36,32.14-6.52c19.89-5.96,39.76-12.05,59.81-17.42
		c15.35-4.11,31.06-6.43,47.06-6.35c9.58,0.05,19,1.05,28.28,3.38c16.59,4.17,32.53,10.04,47.4,18.57
		c33.89,19.44,51.9,49.27,55.81,87.62C1100.3,615.28,1097.34,634.95,1090.72,654.07z"/>
	<g>
		<path class="st1" d="M516.96,850.15c-0.59,23.04-3.36,41.26-7.83,59.22c-1.87,7.55-4.2,15-6.52,22.43
			c-5.07,16.21-13.02,30.81-25.01,42.98c-6.06,6.15-12.21,12.2-18.64,17.91c20.21-23.63,32.83-51.72,39.67-83.2
			c5.12-23.57,7.13-47.33,3.96-71.39c-2.01-15.32-6.54-29.86-13.04-43.8c-5.61-12.03-11.58-23.89-17.23-35.9
			c-3.31-7.04-6.28-14.24-9.4-21.37c-1-2.27-2.17-2.49-3.49-0.3c-11.75,19.46-29.12,33.37-46.54,47.23
			c-10.62,8.45-21.36,16.74-31.98,25.18c-26.03,20.69-46.01,46.02-58.88,76.82c-11.29,27.02-11.37,54.55-2.98,82.18
			c2.14,7.06,6.06,13.67,9.8,20.12c2.2,3.8,3.84,7.54,4.09,11.69c-15.12-12.08-24.8-28.83-28.02-50.93
			c-5.24-36.03,2.97-69.36,21.89-100.15c14.27-23.22,33.64-41.66,55.64-57.45c9.84-7.07,19.85-13.9,29.74-20.9
			c13.23-9.37,25.1-20.31,36.45-31.85c2.61-2.65,5.45-5.16,8.5-7.26c4.06-2.79,7.49-2.17,10.66,1.54c1.3,1.52,2.27,3.33,3.41,5
			c5.03,7.39,9.55,15.21,15.2,22.09c14.52,17.68,22.68,38.08,26.68,60.26C515.12,831.61,516.07,843.12,516.96,850.15z"/>
		<path class="st1" d="M242.68,558.26c-30.76-1.33-61.24-6.93-90.65-18.38c-16.91-6.59-30.45-17.3-40.63-32.37
			c-13.8-20.43-11.13-43.47,7.05-60.15c12.86-11.79,27.66-15.83,44.79-12.21c10.35,2.19,19.74,6.2,28.29,12.37
			c16.93,12.23,29.91,27.59,38.65,46.32c-1.78,1.13-4.08,1.06-6.4-0.39c-3.88-2.42-7.52-5.34-10.85-8.49
			c-8.53-8.09-17.67-15.31-27.69-21.25c-1.7-1.25-3.43-2.47-5.16-3.69c-3.9-2.73-8.27-4.26-12.77-4.9c-2.06-0.73-4.14-1.4-6.21-2.07
			c-12.84-4.14-24.04-0.5-33.56,8.27c-8.64,7.96-11.54,17.97-7.04,29.13c2.02,5.01,4.84,9.89,8.2,14.13
			c7.96,10.03,17.53,18.5,28.97,24.35c10,5.11,20.2,10.01,30.71,13.9C206.08,549.37,224.18,554.58,242.68,558.26z"/>
		<path class="st1" d="M1040,630.48c-0.64,21.05-10.71,37.44-26.39,50.44c-13,10.78-28.58,15.95-45.39,17.12
			c-0.08,0.01-0.16,0.01-0.24,0.02c0.55-2.26,1.74-4.56,3.62-6.75c1.83-2.13,4.3-3.86,6.77-5.26c2.99-1.7,6.24-3.01,9.46-4.26
			c12.44-4.8,22.24-13.11,31.15-22.78c22.18-24.07,10.2-56.75-8.47-70.02c-9.75-6.93-20.61-10.11-32.4-10.72
			c-12.23-0.64-24.19,0.85-35.94,4.26c-13.65,3.95-26.55,9.67-39.04,16.38c-11.95,6.42-23.77,13.07-35.86,19.22
			c-5.9,3-11.88,5.7-17.93,8.1c1.48-0.98,2.96-1.97,4.43-2.96c10.98-7.44,21.6-15.39,32.42-23.06c12.7-9.01,25.43-17.94,39.5-24.81
			c12.85-6.26,26.38-10.07,40.49-11.72c29.61-3.48,57.2,13.06,68.3,40.75C1037.81,612.74,1040.48,621.26,1040,630.48z"/>
		<path class="st1" d="M948.12,942.46c-10.26-1.47-20.41-3.9-30.45-7.41c-21.71-7.58-39.36-20.49-51.27-40.44
			c-9.18-15.36-17.85-31.02-27.01-46.38c-8.13-13.62-16.25-27.28-25.04-40.47c-16.23-24.34-38.26-42.19-64.19-55.39
			c-3.6-1.84-7.24-3.59-10.92-5.27c-5.13-2.35-10.24-4.76-15.28-7.27c0.87-0.47,1.91-0.72,3.02-0.73c1.41-0.02,2.86,0.3,4.24,0.65
			c20.52,5.26,40.15,12.53,57.63,24.91c10.89,7.71,20.65,16.52,29.61,26.45c20.36,22.57,35.12,48.54,47,76.26
			c5.38,12.54,12.4,24.1,19.85,35.43c6.48,9.85,15.38,17.13,25.62,22.79C922.94,932.25,935.28,938.03,948.12,942.46z"/>
		<path class="st1" d="M628.79,923.22c-4.14,26.2-7.96,52.47-11.05,78.81c-1.47,12.55-2.39,25.2-1.97,37.87
			c-2.67-7.66-4.7-15.54-6.05-23.68c-3.1-18.67-2.61-37.42-0.68-56.11c2.54-24.68,6.39-49.25,8.26-73.97
			c3.09-40.81-5.37-79.31-27.22-114.23c-9.33-14.91-19.83-29.09-29.86-43.55c-0.76-1.1-2-1.87-3.02-2.8
			c-0.16,0.94-0.45,1.89-0.61,2.83c-0.32-0.84-0.58-1.69-0.74-2.56c-0.6-3.27,1.13-4.43,4.1-2.54c4.6,2.92,9.29,5.9,13.21,9.63
			c16.2,15.42,29.84,32.9,40.48,52.59c9.44,17.46,14.52,36.39,17.43,55.88C635.13,868.76,633.09,895.99,628.79,923.22z"/>
		<path class="st1" d="M305.77,725.45c-8.22,0.12-16.46-0.19-24.69-0.53c-12.97-0.53-25.94-1.35-38.92-1.69
			c-18.24-0.48-36.3,0.85-54.08,5.49c-20.02,5.22-37.32,15.21-52.61,28.87c-17.58,15.69-22.57,35.55-16.02,57.46
			c3.35,11.21,8.49,20.96,15.4,29.12c-11.54-12.72-18.31-27.75-22.05-44.41c-1.07-4.77-1.63-9.66-2.29-14.52
			c-1.77-13.08,2.14-24.54,10.34-34.62c11.43-14.05,26.04-23.43,43.17-29.08c14.71-4.84,29.88-6.15,50.72-6.24
			c13.78,1.34,33.02,3.06,52.22,5.13c12.32,1.32,24.6,3.11,36.88,4.75C304.49,725.26,305.13,725.35,305.77,725.45z"/>
		<path class="st1" d="M274.87,694.83c0.39,0.84,0.82,1.56,1.02,2.33c0.06,0.22-0.57,0.61-0.88,0.92c-0.41-0.7-0.9-1.38-1.16-2.13
			C273.77,695.76,274.4,695.31,274.87,694.83z"/>
	</g>
	<g>
		<path class="st2" d="M418.59,449.49c0.93-4.65,1.45-9.42,2.85-13.93c4.91-15.87,19.21-30.48,43.29-26.47
			c18.09,3.01,30.37,15.44,32.99,33.91c0.64,4.54,0.84,9.22,0.56,13.79c-0.54,8.85-4.28,16.35-10.68,22.54
			c-8.92,8.63-19.7,13.04-31.96,13.5c-12.58,0.48-21.65-6.09-28.62-15.88C421.23,468.81,418.89,459.53,418.59,449.49z M446.38,447.6
			c0.25,1.97,0.19,3.48,0.64,4.8c3.58,10.43,8.54,12.15,16.92,6.53c2.64-1.77,5.45-3.9,5.09-7.46c-0.36-3.63-1.11-7.37-2.51-10.73
			c-2.22-5.32-7.65-6.13-12.38-6.18c-4.09-0.05-5.13,4.49-6.52,7.7C446.85,444.07,446.7,446.14,446.38,447.6z"/>
		<path class="st2" d="M603.37,406.32c5.1,0.87,10.25,1.52,15.29,2.68c5.48,1.26,10.02,4.35,13.82,8.48
			c11.1,12.09,14.19,26.44,11.51,42.22c-1.14,6.7-4.55,12.39-9.36,17.24c-8.99,9.04-19.98,13.56-32.56,14.17
			c-10.42,0.5-18.66-4.25-25.44-11.77c-14.12-15.65-15.05-41.77-2.16-58.49C581.6,411.59,591.52,406.76,603.37,406.32z
			 M592.74,445.89c0.25,1.97,0.19,3.47,0.65,4.8c3.6,10.44,8.55,12.12,16.93,6.51c2.51-1.68,5.31-3.7,5.03-7.04
			c-0.31-3.77-1.05-7.67-2.48-11.15c-2.19-5.33-7.65-6.12-12.38-6.17c-4.08-0.04-5.12,4.5-6.51,7.71
			C593.22,442.35,593.07,444.42,592.74,445.89z"/>
	</g>
	<g>
		<path class="st3" d="M617.82,82.12c7.04,0.4,13.9,1.5,20.11,4.78c6.89,3.64,12.37,8.53,11.94,17.41c-0.24,5.04-2.47,7.89-7.6,8.03
			c-4.14,0.12-8.48,0-12.41-1.14c-7.43-2.15-14.84-4.64-21.86-7.86c-6.7-3.07-8.08-7.17-6.4-14.24c0.8-3.36,3.25-5.1,6.38-5.73
			C611.23,82.73,614.54,82.52,617.82,82.12z"/>
		<path class="st3" d="M503.71,88.1c-2.64-0.3-5.98-0.38-9.18-1.12c-4.93-1.13-8.08-4.33-8.92-9.43c-0.72-4.38,1.71-9.09,6.31-11.35
			c9.74-4.79,19.96-5.03,30.32-2.33c1.94,0.5,3.77,1.4,5.69,1.98c4.19,1.26,6.48,4.16,7.14,8.35c0.65,4.12-1.4,8.13-5.15,10.11
			c-1.38,0.73-2.93,1.34-4.46,1.52C518.45,86.65,511.43,87.31,503.71,88.1z"/>
		<path class="st3" d="M679,147.76c0.48-5.82,4.75-9.15,10.33-7.72c6.41,1.65,11.19,5.87,15.48,10.6
			c4.95,5.45,7.97,11.94,9.34,19.18c0.57,3-0.44,5.48-2.67,7.33c-2.31,1.92-5.03,1.43-7.31,0.04c-9.38-5.7-17.25-13.03-22.78-22.6
			C680.2,152.54,679.78,150.05,679,147.76z"/>
		<path class="st3" d="M435.88,101.29c-1.97-0.34-4.01-0.47-5.9-1.06c-5.89-1.84-7.15-6.79-2.77-11.19c1.59-1.6,3.53-3.09,5.6-3.92
			c6.25-2.5,12.58-4.86,19-6.86c3.86-1.19,6.28-0.03,7.89,2.69c1.78,3.01,1.4,6.87-1.68,9.87
			C451.9,96.79,444.84,101.01,435.88,101.29z"/>
		<path class="st3" d="M397.82,140.9c-0.85,1.74-1.41,3.71-2.6,5.17c-2.9,3.57-5.77,7.27-9.24,10.23c-3.78,3.21-8.12,5.8-12.41,8.35
			c-2.01,1.19-4.47,1.37-6.4-0.58c-2.01-2.03-1.28-4.26-0.14-6.36c3.61-6.7,6.76-13.83,12.98-18.58c2.88-2.2,6.34-4.06,9.82-4.92
			C394.37,133.07,397.23,135.97,397.82,140.9z"/>
		<path class="st3" d="M687.74,132.71c-2.31-1-4.83-1.7-6.91-3.06c-7.01-4.61-11.14-11.51-14.13-19.11
			c-1.45-3.67,0.59-5.95,4.49-5.27c1.38,0.24,2.9,0.63,4.01,1.42c6,4.29,11.46,9.16,15.71,15.26c0.73,1.05,1.36,2.22,1.82,3.41
			C694.32,129.51,692.49,132.06,687.74,132.71z"/>
		<path class="st3" d="M384.06,129.53c-4.34-0.04-6.65-3.25-4.76-6.51c3.97-6.86,9.44-12.31,17.28-14.67
			c1.53-0.46,3.49-0.3,5.01,0.24c3.55,1.28,4.64,5.62,1.74,7.96c-5.45,4.4-11.29,8.32-17.04,12.35
			C385.53,129.44,384.4,129.44,384.06,129.53z"/>
		<path class="st3" d="M585.27,83.13c-4.58-1.5-9.3-2.7-13.7-4.61c-3.26-1.42-4.46-4.45-3.82-7.02c0.63-2.5,3.13-3.92,6.93-3.9
			c5.45,0.04,10.47,1.71,15.19,4.26c3.57,1.93,4.84,4.12,4.08,6.8c-0.9,3.19-3.63,3.26-6.25,3.44c-0.72,0.05-1.44,0.11-2.15,0.17
			C585.46,82.56,585.37,82.85,585.27,83.13z"/>
		<path class="st3" d="M334.78,170.85c0.29-0.82,0.55-2.13,1.17-3.24c2.46-4.38,4.91-8.76,7.61-12.99c1.06-1.66,2.63-3.08,4.2-4.29
			c2.89-2.22,5.58-2.29,7.45-0.53c1.9,1.79,1.93,4.25-0.38,7.41c-3.57,4.88-7.28,9.65-11.07,14.36c-1.06,1.31-2.45,2.51-3.94,3.29
			C337.09,176.28,334.54,174.38,334.78,170.85z"/>
		<path class="st3" d="M433.39,109.97c0.56,0.39,2.52,1.03,3.07,2.29c0.65,1.46,0.77,4.04-0.11,5.12
			c-3.51,4.29-8.15,7.34-13.57,8.62c-3.49,0.83-5.76-2.26-4.62-5.67C419.57,116.17,427.9,110.04,433.39,109.97z"/>
		<path class="st3" d="M478.76,94.44c1,0.07,2.05-0.01,3,0.25c3.11,0.84,4.16,4.49,1.55,6.29c-4.53,3.14-9.66,5.32-15.25,5.24
			c-1.49-0.02-3.46-1.92-4.3-3.46c-1.11-2.03,0.13-4.14,2.2-4.93c4.11-1.55,8.37-2.73,12.57-4.06
			C478.61,94,478.69,94.22,478.76,94.44z"/>
		<path class="st3" d="M343.24,199.03c-2.53,0.03-4.6-2.27-3.93-5.38c0.35-1.63,1.06-3.41,2.17-4.59c2.64-2.8,5.44-5.53,8.54-7.78
			c1.17-0.85,3.36-0.3,5.08-0.39c0.04,1.58,0.56,3.35,0.02,4.69c-1.22,3.04-2.83,5.94-4.54,8.75
			C349.07,196.83,347.09,198.93,343.24,199.03z"/>
		<path class="st3" d="M320.94,196.4c4.38-0.04,6.49,2.57,5.08,5.46c-2,4.12-4.46,8.03-6.92,11.9c-0.64,1-1.92,1.81-3.07,2.22
			c-2.52,0.9-5.14-0.96-4.46-3.44c1.2-4.37,2.76-8.72,4.84-12.73C317.32,198.05,319.89,197.15,320.94,196.4z"/>
		<path class="st3" d="M655.56,118.19c4.5,1.57,7.96,3.63,9.46,7.69c0.44,1.19,0.01,3.23-0.82,4.18c-0.67,0.77-2.9,1.11-3.81,0.57
			c-2.79-1.67-5.52-3.61-7.75-5.94c-0.85-0.89-0.72-3.3-0.19-4.7C652.84,119.04,654.68,118.66,655.56,118.19z"/>
		<path class="st3" d="M551.88,84.61c1.63,0.48,3.36,0.77,4.88,1.49c2.02,0.96,3.32,2.9,2.27,4.94c-0.71,1.39-2.58,2.74-4.13,3.01
			c-1.67,0.29-3.69-0.42-5.33-1.18c-2.16-1.01-4.02-2.74-3.17-5.45C547.21,84.92,549.53,84.73,551.88,84.61z"/>
		<path class="st3" d="M731.47,182.93c0.15,3.06-2.29,4.7-4.42,3.4c-2.95-1.8-4.6-4.71-4.99-8.08c-0.11-0.97,0.86-2.59,1.76-3.02
			c0.89-0.42,2.88-0.13,3.4,0.57C728.97,178.18,730.29,180.88,731.47,182.93z"/>
	</g>
	<g>
		<path class="st4" d="M108.84,490.49c3.91-5.07,7.46-5.35,12.08-0.81c2.87,2.82,4.69,6.15,4.57,10.35c-0.09,3.03-1.26,5.26-4.1,6.5
			c-2.89,1.27-5.05-0.21-6.98-2.02c-3.27-3.08-4.66-7.15-5.57-11.42C108.84,492.22,108.84,491.35,108.84,490.49z"/>
		<path class="st4" d="M165.5,445.47c5.41,1.18,9.79,3.06,13.5,6.47c1.73,1.59,2.55,3.59,1.71,5.82c-0.9,2.39-3.12,2.77-5.37,2.63
			c-4.99-0.32-9.54-1.83-13.27-5.28c-1.9-1.75-3.46-4.15-2-6.42C161.09,447.09,163.64,446.5,165.5,445.47z"/>
		<path class="st4" d="M339.73,854.95c-1.08,5.07-3.71,9.89-8.45,13.34c-2.17,1.58-4.2,0.61-5.57-1.35c-0.7-1-1.1-2.37-1.21-3.61
			c-0.34-4.05,4.43-11.7,8.19-13.41C336.53,848.15,339.7,850.14,339.73,854.95z"/>
		<path class="st4" d="M140.48,527.47c-5.92-1.33-9.98-4.08-12.36-8.48c-0.82-1.52,0.03-4.52,1.05-6.31
			c1.19-2.09,3.87-2.18,5.78-0.89c3.28,2.21,6.55,4.57,9.24,7.42c1.02,1.08,1.13,4.01,0.41,5.49
			C143.93,526.12,141.63,526.76,140.48,527.47z"/>
		<path class="st4" d="M109.32,471.93c0.9-5.36,1.68-9.79,6.01-11.94c1.68-0.84,4.55-1.16,5.91-0.26c1.37,0.91,2.23,3.69,2.08,5.54
			c-0.31,3.71-1.59,7.29-4.63,9.89c-2.02,1.73-4.54,2.75-6.7,1.29C110.49,475.44,109.92,473.03,109.32,471.93z"/>
		<path class="st4" d="M191.93,461.22c1.36,0.65,3.79,1.36,5.66,2.79c2.25,1.72,4.09,4,5.98,6.16c1.24,1.42,2.65,3.37,0.9,4.92
			c-1.46,1.3-3.98,2.65-5.62,2.26c-5.8-1.39-9.79-5.37-11.92-10.93C185.88,463.68,187.96,461.24,191.93,461.22z"/>
		<path class="st4" d="M348.16,839.07c-4.54-0.09-6.54-3-4.79-6.45c2.59-5.09,6.48-8.87,12.43-9.62c1.37-0.17,3.41,0.31,4.17,1.26
			c0.73,0.91,0.7,3.05,0.15,4.27C357.66,834.04,353.77,838.06,348.16,839.07z"/>
		<path class="st4" d="M395.21,796.17c-1.6-1.2-4-2.11-4.56-3.68c-0.48-1.34,0.66-4.09,1.96-5.06c3.52-2.65,7.41-4.87,11.36-6.86
			c1.07-0.54,3.31-0.15,4.19,0.68c0.9,0.85,1.32,2.89,1.01,4.19C408.06,790.04,400.46,795.52,395.21,796.17z"/>
		<path class="st4" d="M136.11,455.08c-1.71-1.04-4-1.69-4.93-3.19c-1.4-2.27,0.43-4.39,2.14-5.91c3.1-2.76,6.88-4.16,11.02-3.95
			c2.7,0.14,5.11,1.3,5.62,4.38c0.46,2.76-1.4,4.31-3.59,5.19C143.23,452.86,139.95,453.8,136.11,455.08z"/>
		<path class="st4" d="M323.08,885.45c-0.93,5.26-2.44,9.72-5.67,13.33c-2.26,2.52-5.1,1.82-6.39-1.31
			c-1.45-3.53,1.45-13.03,4.82-14.67c1.49-0.72,3.61-0.8,5.22-0.35C322.02,882.73,322.54,884.59,323.08,885.45z"/>
		<path class="st4" d="M371.67,815.49c-4.55,0.04-6.42-2.75-4.59-5.79c2.5-4.16,6.18-7.23,11.04-8.22c1.37-0.28,3.65,0.53,4.42,1.62
			c0.73,1.02,0.59,3.44-0.16,4.59C379.61,811.89,375.45,814.3,371.67,815.49z"/>
		<path class="st4" d="M195.56,729.28c-4.54-0.47-7.03-1.84-7.27-4.39c-0.24-2.59,1.51-4,6.27-5.06c2.08-0.46,4.14-1.03,6.24-1.42
			c2.55-0.47,4.65,0.43,5.6,2.86c1.03,2.65-0.61,4.58-2.76,5.55C201.09,727.97,198.26,728.49,195.56,729.28z"/>
		<path class="st4" d="M168.05,542.01c-4.92-1.53-9.83-1.68-11.93-6.86c-1.37-3.39,0.02-5.89,3.65-5.83
			c4.76,0.08,8.57,2.41,11.35,6.11c0.74,0.99,0.84,3.14,0.26,4.27C170.81,540.84,169.03,541.38,168.05,542.01z"/>
		<path class="st4" d="M142.72,740.86c1.36,0.83,3.45,1.38,3.88,2.55c0.55,1.47,0.29,3.82-0.6,5.13c-2.44,3.57-6.22,5.46-10.45,6.08
			c-3.08,0.45-5-1.94-4.2-4.81C132.38,746.05,138.44,741.44,142.72,740.86z"/>
		<path class="st4" d="M170,726.7c1.61-0.11,3.89,0.11,4.64,2.63c0.79,2.68-1.01,4.59-3.16,5.43c-3.26,1.27-6.72,2.24-10.18,2.69
			c-1.23,0.16-3.22-1.23-3.94-2.46c-1.02-1.73-0.16-3.56,1.61-4.79C162.1,728.03,165.46,726.63,170,726.7z"/>
		<path class="st4" d="M621.45,890.4c-0.97,2.06-1.63,4.68-3.21,6.5c-2.57,2.96-6.64,1.75-6.91-2.12c-0.25-3.64,0.44-7.41,1.26-11
			c0.25-1.11,2.26-2.51,3.48-2.53c1.22-0.02,2.98,1.26,3.6,2.44C620.62,885.51,620.8,887.74,621.45,890.4z"/>
		<path class="st4" d="M115.73,774.14c0.48-4.31,1.94-7.58,5.05-9.7c1.26-0.87,3.66-1.1,5.06-0.5c2,0.85,2.39,3.08,1.51,5.19
			c-0.99,2.36-1.9,4.79-3.19,6.98c-1.17,1.97-2.99,4.22-5.46,2.94C117.25,778.29,116.69,775.83,115.73,774.14z"/>
		<path class="st4" d="M605.31,792.63c-0.67,2.01-1.08,3.07-1.37,4.16c-0.68,2.52-2.18,2.72-4.17,1.53
			c-3.02-1.82-6.5-9.99-5.72-13.34c0.76-3.23,4.46-4.33,6.54-1.52C602.72,786.33,603.94,789.88,605.31,792.63z"/>
		<path class="st4" d="M944.6,583.9c-1.19-0.8-3.45-1.53-3.78-2.78c-0.34-1.29,0.77-3.64,1.97-4.52c3.45-2.51,7.52-3.73,11.74-2.34
			c1.32,0.43,2.99,2.2,3.04,3.42c0.05,1.22-1.48,3.16-2.75,3.64C951.78,582.48,948.49,582.97,944.6,583.9z"/>
		<path class="st4" d="M800.57,794.52c0.12-3.3,2.18-4.84,4.72-4.02c4.63,1.49,7.39,4.86,8.34,9.48c0.26,1.24-0.55,3.18-1.53,4.04
			c-0.75,0.66-2.83,0.65-3.83,0.07C804.31,801.8,801.71,798.32,800.57,794.52z"/>
		<path class="st4" d="M620.93,855.7c0,0.58,0.02,1.15,0,1.73c-0.13,2.51-0.99,4.67-3.74,5.06c-3.02,0.43-3.98-1.88-4.39-4.23
			c-0.48-2.82-0.93-5.71-0.79-8.54c0.06-1.2,1.48-3.1,2.53-3.29c1.36-0.25,3.7,0.48,4.32,1.54c1.33,2.26,1.83,5.01,2.67,7.56
			C621.33,855.58,621.13,855.64,620.93,855.7z"/>
		<path class="st4" d="M833.24,830.99c-0.48,0.74-1.09,2.82-2.28,3.21c-1.26,0.43-3.61-0.25-4.51-1.29
			c-1.92-2.24-3.45-4.92-4.68-7.63c-0.9-1.98-0.29-4.4,1.83-5.13c1.46-0.5,3.8-0.1,5.05,0.83
			C831.53,823.14,832.69,826.47,833.24,830.99z"/>
		<path class="st4" d="M496.71,833.52c0-0.72,0-1.44,0-2.16c-0.01-2.17,0.52-4.2,2.89-4.71c2.63-0.57,4.14,1.32,4.78,3.42
			c1,3.28,2.09,6.81,0.24,10.06c-0.71,1.26-2.53,2.54-3.89,2.59c-1.05,0.04-2.67-1.62-3.16-2.86c-0.77-1.94-0.79-4.18-1.13-6.29
			C496.53,833.55,496.62,833.53,496.71,833.52z"/>
		<path class="st4" d="M616.76,927.37c-0.56,1.84-0.95,4.3-2.06,6.36c-0.59,1.08-2.45,2.03-3.72,2.01
			c-0.93-0.02-2.22-1.55-2.67-2.68c-1.52-3.82-0.45-7.64,0.9-11.24c0.44-1.16,2.27-2.54,3.4-2.49c1.11,0.05,2.46,1.64,3.1,2.87
			C616.39,923.52,616.36,925.22,616.76,927.37z"/>
		<path class="st4" d="M591.66,768.03c-1.27,1.81-2,3.88-3.33,4.39c-1.02,0.4-3.33-0.77-4.14-1.91c-1.64-2.3-2.79-4.99-3.89-7.62
			c-0.85-2.04-0.46-4.15,1.5-5.35c2.08-1.27,4.14-0.29,5.26,1.49C588.79,761.74,590.03,764.76,591.66,768.03z"/>
		<path class="st4" d="M921.91,581.4c1.54,1.32,3.34,2.16,3.75,3.44c0.34,1.07-0.55,3.29-1.56,3.91c-2.79,1.7-5.88,2.94-8.93,4.15
			c-2.04,0.82-4.04,0.04-4.48-2.03c-0.29-1.34,0.34-3.66,1.36-4.35C914.96,584.56,918.28,583.22,921.91,581.4z"/>
		<path class="st4" d="M442.95,753.85c-1.17-0.76-2.98-1.47-3.94-2.8c-0.35-0.47,1.14-2.62,2.14-3.66c1.89-1.97,4.02-3.71,6.09-5.5
			c1.55-1.33,3.28-1.99,5.03-0.41c1.64,1.48,1.68,3.34,0.56,5.11C450.62,750.08,447.85,752.91,442.95,753.85z"/>
		<path class="st4" d="M747.9,748.1c5.25,0.76,9.03,2.83,12.25,5.71c0.86,0.77,1.21,3.17,0.63,4.14c-0.55,0.94-2.97,1.77-3.92,1.31
			c-3.96-1.94-7.72-4.31-11.44-6.71c-0.61-0.39-1.09-2.29-0.8-2.54C745.72,749.07,747.15,748.51,747.9,748.1z"/>
		<path class="st4" d="M192.93,540.73c2.39,0.88,5.04,1.38,7.06,2.78c1.2,0.83,2.09,3.2,1.84,4.66c-0.17,0.99-2.61,2.34-3.94,2.24
			c-2.79-0.21-5.6-1.04-8.24-2.05c-1.91-0.74-3.46-2.34-2.78-4.75c0.64-2.27,2.66-2.34,4.57-2.4c0.43-0.01,0.86,0,1.3,0
			C192.81,541.04,192.87,540.89,192.93,540.73z"/>
		<path class="st4" d="M615.6,824.05c-1.16,1.59-1.91,3.68-3.34,4.36c-2.47,1.18-4-0.86-4.79-2.98c-0.89-2.4-1.8-4.89-2.03-7.4
			c-0.13-1.38,0.86-3.88,1.8-4.12c1.44-0.37,4.04,0.26,4.77,1.37C613.59,817.7,614.3,820.69,615.6,824.05z"/>
		<path class="st4" d="M979.24,580.66c-1.69-0.46-4.3-0.86-6.58-1.94c-1.11-0.52-2.35-2.37-2.23-3.49c0.12-1.19,1.68-3.04,2.77-3.16
			c2.76-0.31,5.66-0.08,8.41,0.43c2.44,0.45,4.21,2.15,3.79,4.9C984.94,580.35,982.46,580.49,979.24,580.66z"/>
		<path class="st4" d="M780.61,768.21c4.17,0.13,10.12,4.65,10.89,7.93c0.26,1.1,0.08,2.76-0.61,3.5c-0.68,0.74-2.68,1.28-3.38,0.82
			c-3.31-2.19-6.46-4.66-9.46-7.26c-0.55-0.48-0.57-2.35-0.08-3.05C778.68,769.13,780.07,768.58,780.61,768.21z"/>
		<path class="st4" d="M564.12,737.03c0.43-0.59,1.08-2.39,2.21-2.77c1.17-0.39,3.4,0.14,4.11,1.07c1.87,2.47,3.39,5.29,4.59,8.16
			c0.41,1-0.15,3.24-0.97,3.71c-1.11,0.65-3.24,0.7-4.32,0.03C566.44,745.17,564.41,742.07,564.12,737.03z"/>
		<path class="st4" d="M1026.58,605.49c-0.48,0.76-0.96,2.41-1.98,2.88c-1.02,0.47-3.28,0.24-3.78-0.5
			c-2.03-3.01-3.75-6.26-5.21-9.59c-0.32-0.72,0.68-2.57,1.55-3.09c0.86-0.52,2.61-0.45,3.48,0.12
			C1024.03,597.51,1025.76,600.9,1026.58,605.49z"/>
		<path class="st4" d="M229.84,724.9c-2.09-0.74-4.7-1.22-6.8-2.52c-2.51-1.55-2.03-4.71,0.84-5.03c3.89-0.43,7.92,0.14,11.85,0.6
			c0.78,0.09,2,1.66,1.94,2.46c-0.08,1.06-1,2.49-1.95,2.96C234.1,724.17,232.18,724.34,229.84,724.9z"/>
		<path class="st4" d="M423.94,772.48c-0.84-0.56-2.69-1.13-3.12-2.25c-0.44-1.16,0.03-3.36,0.94-4.19
			c2.08-1.89,4.52-3.58,7.11-4.63c1.15-0.47,3.52,0.38,4.37,1.42c0.66,0.81,0.3,3.17-0.45,4.27
			C430.9,769.89,428.14,771.73,423.94,772.48z"/>
		<path class="st4" d="M501.04,910.02c-0.96,2.49-1.62,5.16-3.01,7.38c-0.63,1.01-3.07,1.91-3.99,1.46c-1.2-0.6-2.44-2.64-2.36-3.97
			c0.18-2.81,0.93-5.69,2.03-8.29c0.46-1.08,2.54-2.24,3.68-2.06c1.13,0.18,2.1,1.92,2.92,3.14c0.33,0.5,0.05,1.4,0.05,2.12
			C500.59,909.87,500.82,909.94,501.04,910.02z"/>
		<path class="st4" d="M895.28,597.55c0.81,0.55,2.66,1.15,3.06,2.26c0.38,1.08-0.33,3.44-1.26,3.93c-3.07,1.63-6.4,2.84-9.74,3.82
			c-0.87,0.26-2.68-0.63-3.1-1.47c-0.42-0.86-0.03-2.61,0.65-3.43C887.36,599.71,890.73,598.24,895.28,597.55z"/>
		<path class="st4" d="M848.81,858.67c-0.5,0.75-1.02,2.37-2.05,2.83c-1.02,0.45-3.21,0.18-3.76-0.58c-1.86-2.61-3.49-5.47-4.6-8.47
			c-0.34-0.91,1.01-2.9,2.09-3.73c0.65-0.5,2.58-0.1,3.43,0.55C846.73,851.44,848.29,854.45,848.81,858.67z"/>
		<path class="st4" d="M853.73,871.26c1.46,0.64,2.34,0.75,2.72,1.24c1.97,2.57,4.17,5.08,5.52,7.97c0.51,1.09-0.72,3.51-1.85,4.6
			c-0.55,0.54-3.06-0.16-4.06-1.02c-2.56-2.19-4.41-5.07-4.26-8.58C851.86,874.08,853.02,872.72,853.73,871.26z"/>
		<path class="st4" d="M469.94,764.4c1.3-1.67,2.15-3.71,3.64-4.45c2.17-1.08,3.76,0.64,4.58,2.66c0.85,2.11,1.88,4.26,2.08,6.47
			c0.13,1.38-0.78,3.43-1.89,4.17c-0.82,0.54-3.31-0.09-4.02-1C472.64,770.04,471.55,767.38,469.94,764.4z"/>
		<path class="st4" d="M480.17,784.71c1.18-1.5,1.8-3.03,2.87-3.46c1.11-0.45,2.85-0.22,3.94,0.38c2.33,1.29,4.41,7.15,3.78,9.66
			c-0.71,2.83-3.78,4.15-5.55,2.01C483.18,790.85,481.9,787.76,480.17,784.71z"/>
		<path class="st4" d="M314.37,918.36c-0.32,2.13-0.59,4.28-0.97,6.4c-0.35,1.92-1.21,4.14-3.33,3.73c-1.37-0.26-3.19-2.3-3.37-3.73
			c-0.34-2.6-0.1-5.53,0.85-7.94c0.59-1.51,2.95-3.28,4.49-3.25C314.74,913.62,314.26,916.34,314.37,918.36z"/>
		<path class="st4" d="M506,861.36c-0.28,1.23-0.45,3.45-1.35,5.32c-0.49,1-2.49,2.17-3.34,1.88c-1.18-0.4-2.48-2-2.7-3.27
			c-0.42-2.36-0.23-4.87-0.04-7.29c0.18-2.24,1.42-3.86,3.84-3.8c2.52,0.06,3.33,1.87,3.44,4.11
			C505.88,859.03,505.92,859.74,506,861.36z"/>
		<path class="st4" d="M1025.64,650.92c-0.21,4.59-2.11,7.4-5.19,9.31c-0.92,0.57-2.67,0.72-3.52,0.21
			c-0.86-0.53-1.78-2.38-1.46-3.18c1.17-3.02,2.63-5.99,4.45-8.67c0.5-0.73,2.83-0.9,3.88-0.4
			C1024.82,648.68,1025.29,650.35,1025.64,650.92z"/>
		<path class="st4" d="M499.85,810.76c-0.56,1.82-0.78,3.12-1.35,4.26c-1.4,2.81-4.44,3.01-6.2,0.41c-1.97-2.92-2.1-6.28-1.45-9.57
			c0.47-2.37,3.7-3.06,5.55-1.01C497.96,806.58,498.83,808.93,499.85,810.76z"/>
		<path class="st4" d="M504.95,886.06c-0.49,1.72-0.61,3.59-1.52,4.93c-0.75,1.1-2.53,2.31-3.64,2.14c-1.12-0.17-2.77-1.98-2.8-3.11
			c-0.09-2.95,0.41-5.96,1.05-8.87c0.18-0.8,1.69-1.86,2.54-1.83c1.07,0.05,2.53,0.87,3.03,1.78
			C504.4,882.56,504.53,884.37,504.95,886.06z"/>
		<path class="st4" d="M315.75,955.57c-0.38,1.73-0.44,3.09-0.98,4.22c-1.14,2.38-3.95,2.76-5.09,0.44
			c-1.35-2.74-2.12-5.87-2.52-8.91c-0.13-1.03,1.45-2.97,2.58-3.28c1.15-0.32,3.35,0.46,3.96,1.45
			C314.85,951.36,315.18,953.73,315.75,955.57z"/>
		<path class="st4" d="M1000.25,578.62c3.98,0.84,6.73,2.46,8.18,5.47c0.57,1.18,0.47,3.23-0.23,4.27c-0.5,0.74-2.8,1.03-3.8,0.53
			c-2.4-1.19-4.7-2.77-6.64-4.61c-0.73-0.69-0.87-2.8-0.37-3.8C997.91,579.48,999.56,579.04,1000.25,578.62z"/>
		<path class="st4" d="M1033.4,627.31c-0.37,2.14-0.27,3.88-1.01,5.15c-0.59,1.03-2.22,2.09-3.31,2.02
			c-1.08-0.07-2.85-1.46-2.96-2.43c-0.34-3.11-0.22-6.3,0.09-9.42c0.08-0.84,1.39-2.11,2.24-2.2c1.07-0.11,2.84,0.48,3.26,1.3
			C1032.67,623.56,1032.97,625.72,1033.4,627.31z"/>
		<path class="st4" d="M878.14,907.2c-0.05,2.49-2,3.95-3.98,2.65c-3.26-2.14-6.08-4.87-7-8.87c-0.63-2.73,1.05-4.34,3.52-3.69
			C873.38,898,878.2,904.41,878.14,907.2z"/>
		<path class="st4" d="M612.49,957.25c-0.71,2.09-1.25,4.34-2.27,6.35c-0.4,0.79-2.03,1.62-2.8,1.4c-1.01-0.29-2.46-1.62-2.43-2.47
			c0.11-3.55,0.34-7.18,1.24-10.58c0.63-2.39,3.86-2.28,4.97,0.1C611.91,953.56,612.04,955.34,612.49,957.25z"/>
		<path class="st4" d="M610.74,982.22c-0.42,1.8-0.58,3.72-1.37,5.34c-0.45,0.93-1.98,1.92-2.94,1.85c-0.97-0.07-2.5-1.35-2.62-2.25
			c-0.36-2.65-0.53-5.47,0.02-8.05c0.25-1.17,2.48-2.75,3.66-2.63c1.08,0.11,2.06,2.2,2.87,3.54c0.32,0.53,0.05,1.41,0.05,2.13
			C610.52,982.17,610.63,982.2,610.74,982.22z"/>
		<path class="st4" d="M494.56,932.29c-1.35,2.68-2.12,5.05-3.61,6.83c-0.75,0.89-2.96,1.24-4.18,0.83
			c-0.78-0.27-1.39-2.38-1.29-3.61c0.15-1.81,0.92-3.59,1.57-5.34c0.69-1.83,2.2-3.05,4.03-2.28
			C492.38,929.27,493.24,930.87,494.56,932.29z"/>
		<path class="st4" d="M117.12,794.07c-0.49,2.3-0.62,4.07-1.29,5.62c-0.36,0.83-1.58,1.64-2.49,1.75c-0.67,0.07-1.8-0.87-2.14-1.63
			c-1.57-3.41-0.63-6.79,0.87-9.91c0.89-1.84,2.71-1.78,3.74-0.06C116.62,791.2,116.8,792.95,117.12,794.07z"/>
		<path class="st4" d="M899.78,924.98c-0.33,2.25-1.65,3.6-3.51,2.54c-2.78-1.58-5.44-3.57-7.69-5.84c-1.34-1.35,0.39-4.03,2.09-3.3
			c3.05,1.3,5.79,3.34,8.6,5.16C899.63,923.77,899.64,924.56,899.78,924.98z"/>
		<path class="st4" d="M260.17,719.82c0.75,0.08,2.2-0.11,3.25,0.45c1.09,0.58,2.69,2.22,2.47,2.79c-0.46,1.19-1.91,2.73-3.04,2.79
			c-2.2,0.13-4.53-0.42-6.63-1.18c-0.9-0.33-1.93-1.93-1.85-2.86c0.06-0.73,1.67-1.5,2.72-1.93
			C257.82,719.57,258.78,719.82,260.17,719.82z"/>
		<path class="st4" d="M468.69,749.66c0,1.87-0.41,3.45-2.73,3.49c-2.09,0.04-4.75-3.86-4.54-6.83c0.13-1.88,0.96-3.3,3.13-3.29
			C466.7,743.06,468.67,746.24,468.69,749.66z"/>
		<path class="st4" d="M319.15,975.35c2.89,0.17,6.55,6.3,5.1,8.44c-0.46,0.68-2.49,1.27-2.76,0.96c-1.77-1.97-3.62-4.03-4.71-6.4
			C316.05,976.77,317.36,975.38,319.15,975.35z"/>
		<path class="st4" d="M610.27,1010.48c-0.67,0.76-1.79,3.07-2.82,3.02c-3.48-0.14-2.58-3.54-3.07-5.67
			c-0.46-1.98-0.09-4.23,2.48-4.64c0.76-0.12,2.18,0.86,2.5,1.66C609.94,1006.27,609.91,1007.93,610.27,1010.48z"/>
		<path class="st4" d="M211.34,481.72c3.2,0.09,6.6,3.33,6.03,5.4c-0.29,1.05-1.69,2.31-2.77,2.51c-2.13,0.4-5.69-3.25-5.24-5.29
			C209.6,483.22,210.85,482.33,211.34,481.72z"/>
		<path class="st4" d="M485.65,952.83c0.04,3.59-3.1,7.59-5.29,7.22c-0.97-0.16-2.28-1.3-2.5-2.23c-0.51-2.1,3.15-6.82,5.08-6.62
			C484.02,951.33,485.01,952.43,485.65,952.83z"/>
		<path class="st4" d="M1009.45,669.4c-0.21,2.88-4.74,6.33-6.73,5.49c-0.89-0.38-1.82-1.77-1.89-2.76
			c-0.13-1.86,4.51-5.31,6.32-4.72C1008.16,667.73,1008.9,668.9,1009.45,669.4z"/>
		<path class="st4" d="M474.63,971.41c-0.12,1.9-2.92,5.41-4.87,5.52c-0.78,0.04-2.44-1.76-2.35-1.91c1.29-2.11,2.53-4.39,4.35-5.98
			C472.99,967.95,474.74,969.53,474.63,971.41z"/>
		<path class="st4" d="M912.56,929.45c2.16,1.39,4.05,2.5,5.77,3.83c0.26,0.21-0.29,2.11-0.44,2.11c-2.18-0.06-4.41-0.11-6.5-0.63
			c-0.76-0.19-1.84-1.79-1.67-2.45C909.98,931.37,911.25,930.7,912.56,929.45z"/>
		<path class="st4" d="M985.94,678.99c1.35,1.17,2.6,1.74,2.93,2.65c0.49,1.34-2.18,3.73-4.09,3.43c-1.08-0.17-1.96-1.52-2.93-2.33
			C983.08,681.59,984.32,680.46,985.94,678.99z"/>
	</g>
	<g>
		<g>
			<path class="st5" d="M490.61,451.75c0.1,16.31-12.72,30.25-28.31,30.14c-13.94-0.1-28.36-9.37-28.38-28.66
				c-0.02-20.08,15.17-29.98,28.26-30.13C477.97,422.92,490.51,435.5,490.61,451.75z M452.03,446.51c3.14-0.08,5.33-1.49,5.76-4.85
				c0.38-2.92-2.14-5.56-5.16-5.27c-3.12,0.3-5.4,1.92-5.45,5.32C447.13,444.73,448.96,446.27,452.03,446.51z"/>
			<path class="st5" d="M636.58,449.71c0.13,16.47-12.42,29.96-28.13,30.22c-15.91,0.26-28.16-12.15-28.25-28.62
				c-0.09-16.63,12.25-29.98,28.01-30.31C623.84,420.69,636.44,433.44,636.58,449.71z M597.68,444.6c3.36,0.04,6.23-2.39,6.44-5.04
				c0.22-2.66-2.67-5.48-5.55-5.18c-3.23,0.33-5.41,2.26-5.4,5.51C593.19,442.79,595.15,444.46,597.68,444.6z"/>
			<path class="st5" d="M535.75,530.58c-12.5-0.41-22.97-4.93-30.58-15.19c-2.79-3.76-4.54-7.99-5.52-12.55
				c-0.24-1.14-0.37-2.31,0.92-2.95c1.47-0.72,2.1,0.41,2.61,1.42c0.51,1.02,0.78,2.17,1.23,3.22c5.51,12.94,17.3,20.84,31.06,20.82
				c14.17-0.02,26.4-8.21,31.7-21.25c0.43-1.07,0.75-2.18,1.23-3.22c0.39-0.84,1.17-1.31,2.09-1.17c1.33,0.19,2.05,1.12,1.81,2.39
				c-0.32,1.68-0.8,3.36-1.43,4.95C565.22,521.46,551.57,530.58,535.75,530.58z"/>
		</g>
		<path class="st2" d="M452.03,446.51c-3.06-0.24-4.9-1.78-4.85-4.8c0.05-3.4,2.34-5.02,5.45-5.32c3.02-0.29,5.54,2.35,5.16,5.27
			C457.35,445.02,455.17,446.43,452.03,446.51z"/>
		<path class="st2" d="M597.68,444.6c-2.53-0.14-4.5-1.82-4.51-4.71c-0.01-3.25,2.17-5.18,5.4-5.51c2.88-0.3,5.77,2.52,5.55,5.18
			C603.91,442.21,601.04,444.65,597.68,444.6z"/>
	</g>
</g>
</svg>
