<?xml version="1.0" encoding="utf-8"?>
<!-- Generator: Adobe Illustrator 26.0.3, SVG Export Plug-In . SVG Version: 6.00 Build 0)  -->
<svg version="1.1" id="Layer_1" xmlns="http://www.w3.org/2000/svg" xmlns:xlink="http://www.w3.org/1999/xlink" x="0px" y="0px"
	 viewBox="0 0 1133.86 1133.86" style="enable-background:new 0 0 1133.86 1133.86;" xml:space="preserve">
<style type="text/css">
	.st0{fill:#FAF2DD;}
	.st1{fill:#754C29;}
	.st2{fill:#FBB040;}
	.st3{fill:#805171;}
	.st4{fill:#D3ADE0;}
	.st5{opacity:0.1;fill:#231F20;}
	.st6{opacity:0.3;fill:#FFFFFF;}
	.st7{fill:#F1F2F2;}
	.st8{fill:#5C5259;}
	.st9{fill:#FFFFFF;}
	.st10{opacity:0.4;fill:#FFFFFF;}
	.st11{fill:#27AAE1;}
	.st12{opacity:0.1;fill:#FFFFFF;}
	.st13{fill:#447BA2;}
	.st14{fill:#00A79D;}
	.st15{fill:#2BB673;}
	.st16{fill:#B65C79;}
	.st17{fill:#CB6687;}
</style>
<g>
	
		<rect x="0" y="0" transform="matrix(-1.836970e-16 1 -1 -1.836970e-16 1133.86 1.136868e-13)" class="st0" width="1133.86" height="1133.86"/>
	<g>
		<g>
			<path class="st1" d="M792.65,954.26l20.01,4.87c0,0-47.58,45.1-113.55,54.97C699.11,1014.1,776.27,979.5,792.65,954.26z"/>
			<path class="st1" d="M583.92,962.83l19.32-7.12c0,0-52.41-39.38-119.08-41.66C484.16,914.05,564.77,939.62,583.92,962.83z"/>
			<path class="st1" d="M251.7,931.63c-28.61,20.39-72.05,39.88-72.05,39.88c36.01-5.39,66.52-21.27,86.82-34.59
				C261.16,936.14,256.17,934.31,251.7,931.63z"/>
		</g>
		<path class="st1" d="M1133.86,932.05c-49.3-7.84-228.81-33.35-345.56-10.13c-136.39,27.14-229.01,40.25-299.01,27.34
			c-70.01-12.91-165.26-32.2-360.58-13.08c0,0,228.79,11.81,323.22,36.56c94.43,24.75,195.4,18.33,290.63,1.26
			c107.29-19.23,335.16,9.48,391.31,27.28V932.05z"/>
	</g>
	<g>
		<g>
			<path class="st1" d="M120.44,456.51l-16.13,8.67c0,0,51.03,28.16,110.01,21.91C214.32,487.09,140.18,474.57,120.44,456.51z"/>
			<path class="st1" d="M389.16,452.7l-9.52,3.91c0,0,26.91,18.72,60.26,18.64C439.89,475.25,399.15,463.95,389.16,452.7z"/>
		</g>
		<path class="st1" d="M0,461.36v19.73c263.29-48.22,497.17-8.34,497.17-8.34C328.87,417.32,58.79,452.68,0,461.36z"/>
	</g>
	<g>
		<g>
			<path class="st1" d="M1027.56,529.84l18.14,9.75c0,0-57.39,31.68-123.73,24.64C921.98,564.22,1005.37,550.15,1027.56,529.84z"/>
			<path class="st1" d="M725.34,525.55l10.71,4.4c0,0-30.27,21.05-67.78,20.97C668.27,550.92,714.1,538.2,725.34,525.55z"/>
		</g>
		<path class="st1" d="M1133.86,533.36c-59.84-9.29-340.29-47.74-530.01,14.74c0,0,234.08-47.01,530.01,7.59V533.36z"/>
	</g>
	<g>
		<g>
			<path class="st2" d="M335.93,927.17c-3.88,11.07-18.62,19.71-22.05,18.51s-9.55-17.16-5.67-28.23
				c3.88-11.08,10.19-9.2,17.85-6.51C333.71,913.62,339.81,916.1,335.93,927.17z"/>
			<path class="st2" d="M309.77,911.84c-9.38,6.01-15.25,19.8-13.74,22.14c1.5,2.35,16.48,2.8,25.86-3.21
				c9.38-6.01,6.92-10.41,3.58-15.64C322.12,909.9,319.16,905.83,309.77,911.84z"/>
			<path class="st2" d="M338.23,921.81c3.58,10.55-0.45,24.98-3.08,25.88c-2.64,0.89-14.62-8.11-18.2-18.66
				c-3.58-10.55,1.09-12.46,6.96-14.45C329.79,912.59,334.65,911.26,338.23,921.81z"/>
		</g>
		<g>
			<path class="st2" d="M357.15,927.17c3.88,11.07,18.62,19.71,22.05,18.51c3.43-1.2,9.56-17.16,5.67-28.23
				c-3.88-11.08-10.19-9.2-17.85-6.51C359.38,913.62,353.27,916.1,357.15,927.17z"/>
			<path class="st2" d="M383.31,911.84c9.38,6.01,15.25,19.8,13.74,22.14c-1.5,2.35-16.48,2.8-25.86-3.21
				c-9.38-6.01-6.92-10.41-3.58-15.64C370.96,909.9,373.92,905.83,383.31,911.84z"/>
			<path class="st2" d="M354.85,921.81c-3.58,10.55,0.45,24.98,3.09,25.88c2.64,0.89,14.62-8.11,18.2-18.66
				c3.58-10.55-1.09-12.46-6.96-14.45C363.29,912.59,358.43,911.26,354.85,921.81z"/>
		</g>
		<path class="st3" d="M478.94,770.63c0,83.2-59.84,153.7-133.64,153.7c-73.81,0-133.64-70.5-133.64-153.7
			c0-83.21,59.83-103.78,133.64-103.78C419.11,666.85,478.94,687.42,478.94,770.63z"/>
		<g>
			<g>
				<g>
					<g>
						<g>
							<path class="st4" d="M511.27,806.13c-3-46.75-29.56-67.99-55.92-64.92c-26.36,3.06-44.96,29.47-39.55,76.01
								c7.43,63.97-7.72,99.3-7.72,99.3S518.26,915,511.27,806.13z"/>
						</g>
					</g>
				</g>
				<path class="st5" d="M436.75,912c-6.58-94.77,39.25-148.04,51.56-160.54c-9.67-8.21-21.34-11.6-32.97-10.24
					c-26.36,3.06-44.96,29.47-39.55,76.01c7.43,63.97-7.72,99.3-7.72,99.3S420.51,916.35,436.75,912z"/>
				<path class="st6" d="M501.43,786.93c1.92,11.4-0.65,21.34-5.75,22.2c-5.11,0.86-10.81-7.68-12.73-19.08
					c-1.93-11.4,0.65-21.34,5.76-22.2C493.81,766.99,499.51,775.53,501.43,786.93z"/>
				<path class="st6" d="M502.15,826.11c-0.45,6.94-3.33,12.42-6.44,12.22c-3.11-0.19-5.27-5.99-4.82-12.94
					c0.45-6.95,3.33-12.42,6.44-12.22C500.44,813.37,502.6,819.16,502.15,826.11z"/>
			</g>
			<g>
				<g>
					<g>
						<g>
							<path class="st4" d="M179.71,806.13c3-46.75,29.56-67.99,55.92-64.92c26.36,3.06,44.96,29.47,39.55,76.01
								c-7.43,63.97,7.72,99.3,7.72,99.3S172.72,915,179.71,806.13z"/>
						</g>
					</g>
				</g>
				<path class="st5" d="M254.23,912c6.58-94.77-39.25-148.04-51.56-160.54c9.67-8.21,21.34-11.6,32.97-10.24
					c26.36,3.06,44.96,29.47,39.55,76.01c-7.43,63.97,7.72,99.3,7.72,99.3S270.47,916.35,254.23,912z"/>
				<path class="st6" d="M189.55,786.93c-1.93,11.4,0.65,21.34,5.75,22.2c5.11,0.86,10.81-7.68,12.73-19.08
					c1.93-11.4-0.65-21.34-5.75-22.2C197.18,766.99,191.47,775.53,189.55,786.93z"/>
				<path class="st6" d="M188.83,826.11c0.45,6.94,3.33,12.42,6.44,12.22c3.11-0.19,5.27-5.99,4.82-12.94
					c-0.45-6.95-3.33-12.42-6.44-12.22C190.54,813.37,188.39,819.16,188.83,826.11z"/>
			</g>
		</g>
		<g>
			<path class="st3" d="M343.21,626.52l96.11,50.8c16.02-43.94,80.55-97.48,80.55-97.48C373.41,569.77,343.21,626.52,343.21,626.52z
				"/>
			<path class="st3" d="M350.27,626.52l-96.11,50.8c-16.02-43.94-80.55-97.48-80.55-97.48
				C320.06,569.77,350.27,626.52,350.27,626.52z"/>
			<g>
				<path class="st4" d="M281.93,777.21c-49.06,0-88.97-39.91-88.97-88.97c0-49.06,39.91-88.97,88.97-88.97
					c49.06,0,88.97,39.91,88.97,88.97C370.9,737.3,330.99,777.21,281.93,777.21z"/>
				<path class="st4" d="M411.5,777.21c-49.06,0-88.97-39.91-88.97-88.97c0-49.06,39.91-88.97,88.97-88.97
					c49.06,0,88.97,39.91,88.97,88.97C500.47,737.3,460.55,777.21,411.5,777.21z"/>
				<g>
					<g>
						<path class="st5" d="M410.95,748.24c-35.22,0-63.87-28.66-63.87-63.88c0-35.22,28.65-63.87,63.87-63.87
							c35.22,0,63.88,28.65,63.88,63.87C474.83,719.58,446.18,748.24,410.95,748.24z"/>
						<path class="st7" d="M453.02,678.09c0,27.59-22.37,49.95-49.96,49.95c-27.58,0-49.95-22.36-49.95-49.95
							s22.36-49.95,49.95-49.95C430.65,628.14,453.02,650.5,453.02,678.09z"/>
						<path class="st8" d="M430.43,678.54c0,18.49-14.98,33.48-33.48,33.48c-18.49,0-33.47-14.99-33.47-33.48
							c0-18.49,14.99-33.47,33.47-33.47C415.45,645.07,430.43,660.06,430.43,678.54z"/>
					</g>
					<path class="st9" d="M395.13,660.39c0,7.44-6.04,13.47-13.47,13.47c-7.44,0-13.47-6.03-13.47-13.47
						c0-7.44,6.03-13.47,13.47-13.47C389.1,646.92,395.13,652.96,395.13,660.39z"/>
				</g>
				<g>
					<g>
						<path class="st5" d="M279.15,748.24c35.22,0,63.87-28.66,63.87-63.88c0-35.22-28.65-63.87-63.87-63.87
							c-35.22,0-63.88,28.65-63.88,63.87C215.27,719.58,243.92,748.24,279.15,748.24z"/>
						<path class="st7" d="M237.08,678.09c0,27.59,22.37,49.95,49.96,49.95c27.58,0,49.95-22.36,49.95-49.95
							s-22.36-49.95-49.95-49.95C259.45,628.14,237.08,650.5,237.08,678.09z"/>
						<path class="st8" d="M259.67,678.54c0,18.49,14.98,33.48,33.48,33.48c18.49,0,33.47-14.99,33.47-33.48
							c0-18.49-14.99-33.47-33.47-33.47C274.65,645.07,259.67,660.06,259.67,678.54z"/>
					</g>
					<path class="st9" d="M258.36,660.39c0,7.44,6.04,13.47,13.47,13.47c7.44,0,13.47-6.03,13.47-13.47
						c0-7.44-6.03-13.47-13.47-13.47C264.39,646.92,258.36,652.96,258.36,660.39z"/>
				</g>
			</g>
			<g>
				<path class="st2" d="M360.37,744.64c0,11.13-13.66,28.73-13.66,28.73s-13.66-17.6-13.66-28.73c0-11.13,6.12-15.55,13.66-15.55
					S360.37,733.51,360.37,744.64z"/>
				<path class="st10" d="M348.78,745.23c0,6.49-0.86,11.75-1.92,11.75c-1.06,0-1.92-5.26-1.92-11.75c0-6.48,0.86-11.74,1.92-11.74
					C347.92,733.49,348.78,738.74,348.78,745.23z"/>
			</g>
		</g>
	</g>
	<g>
		<g>
			<g>
				<g>
					<path class="st11" d="M970.07,894.17c0.68,0.4,1.34,0.78,2,1.17c0.29,0.17,0.58,0.33,0.87,0.5c2.34,1.34,4.52,2.57,6.54,3.68
						c0.11,0.06,0.22,0.12,0.33,0.18c0.68,0.37,1.32,0.72,1.96,1.07c0.09,0.05,0.19,0.1,0.28,0.15c2.01,1.09,3.8,2.02,5.31,2.8
						c0.01,0,0.02,0.01,0.03,0.01c0.49,0.25,0.94,0.48,1.37,0.7c0.08,0.04,0.16,0.08,0.24,0.12c1.21,0.61,2.17,1.09,2.86,1.43
						c0.08,0.04,0.16,0.08,0.23,0.11c0.19,0.09,0.33,0.16,0.47,0.23c0.08,0.04,0.14,0.07,0.21,0.1c0.11,0.05,0.19,0.09,0.24,0.12
						c0.09,0.04,0.14,0.07,0.14,0.07s6.25-87.38-21.84-136.59c-1.03-1.8-2.06-3.54-3.1-5.22c-0.31-0.51-0.62-1-0.93-1.5
						c-0.75-1.2-1.49-2.37-2.24-3.51c-0.33-0.5-0.66-1-0.98-1.49c-0.84-1.26-1.68-2.47-2.52-3.66c-0.19-0.27-0.39-0.56-0.58-0.83
						c-1.04-1.45-2.09-2.84-3.13-4.19c-0.22-0.28-0.43-0.54-0.65-0.81c-0.84-1.05-1.67-2.08-2.51-3.06
						c-0.29-0.35-0.58-0.69-0.88-1.02c-0.83-0.95-1.65-1.87-2.48-2.76c-0.22-0.24-0.44-0.48-0.67-0.72
						c-2.12-2.24-4.24-4.27-6.35-6.09c-0.2-0.18-0.41-0.35-0.61-0.52c-0.89-0.75-1.77-1.47-2.66-2.15
						c-0.19-0.14-0.37-0.29-0.56-0.43c-2.16-1.62-4.3-3.05-6.43-4.26c-0.05-0.03-0.09-0.05-0.14-0.08c-1.02-0.58-2.03-1.1-3.04-1.59
						c-0.12-0.06-0.23-0.12-0.35-0.17c-3.23-1.53-6.42-2.61-9.57-3.28c-0.04,0-0.08-0.01-0.12-0.02c-1.05-0.22-2.09-0.4-3.13-0.52
						c0,0-0.01,0-0.01,0c-3.45-0.76-6.92-1.01-10.4-0.77c-1.93-0.15-3.89-0.2-5.89-0.13c-26.89,1.02-48.46,21.91-47.8,76.52
						c0.66,54.6,50.18,121.25,50.18,121.25s7.64-11.24,16.78-28.2c20.3,22.07,38.94,36.8,38.94,36.8s3.91-14.44,7.35-35.35
						c0.03,0.02,0.06,0.04,0.08,0.05c0.66,0.4,1.3,0.77,1.94,1.15C969.27,893.7,969.67,893.94,970.07,894.17z"/>
					<path class="st5" d="M917.69,722.14c-3.45-0.76-6.92-1.01-10.4-0.77c-1.93-0.15-3.89-0.2-5.89-0.13
						c-10.11,0.39-19.47,3.58-27.18,10.32c-2.51,8.44-4.87,17.19-6.11,24.03c-2.06,11.32-4.79,55.28-6.42,84.05
						c8.79,25.89,22.81,50.12,32.23,64.84c7.38-26.11,26.59-49.16,26.59-49.16l16.04,10.95c-9.99-45.22,8.16-94.15,19.55-118.79
						C942.97,731.39,929.94,723.65,917.69,722.14z"/>
				</g>
				<path class="st12" d="M974.16,789.13c4.47,12.37,3.53,24.02-2.11,26.02c-5.65,1.99-13.84-6.42-18.31-18.79
					c-4.47-12.38-3.52-24.02,2.12-26.02C961.5,768.34,969.7,776.76,974.16,789.13z"/>
				<path class="st12" d="M983.48,835.3c0.75,7.87-1.54,14.55-5.13,14.9c-3.59,0.35-7.11-5.75-7.87-13.64
					c-0.75-7.88,1.55-14.55,5.14-14.9C979.21,821.31,982.73,827.41,983.48,835.3z"/>
			</g>
			<g>
				<g>
					<path class="st11" d="M624.43,894.17c-0.68,0.4-1.34,0.78-2,1.17c-0.29,0.17-0.58,0.33-0.87,0.5
						c-2.34,1.34-4.52,2.57-6.54,3.68c-0.11,0.06-0.22,0.12-0.33,0.18c-0.68,0.37-1.33,0.72-1.96,1.07
						c-0.09,0.05-0.18,0.1-0.28,0.15c-2.01,1.09-3.8,2.02-5.31,2.8c-0.01,0-0.02,0.01-0.03,0.01c-0.49,0.25-0.94,0.48-1.37,0.7
						c-0.09,0.04-0.16,0.08-0.24,0.12c-1.21,0.61-2.17,1.09-2.86,1.43c-0.08,0.04-0.16,0.08-0.23,0.11
						c-0.19,0.09-0.33,0.16-0.47,0.23c-0.08,0.04-0.14,0.07-0.21,0.1c-0.11,0.05-0.19,0.09-0.24,0.12
						c-0.09,0.04-0.14,0.07-0.14,0.07s-6.25-87.38,21.84-136.59c1.03-1.8,2.06-3.54,3.1-5.22c0.31-0.51,0.62-1,0.93-1.5
						c0.75-1.2,1.5-2.37,2.24-3.51c0.33-0.5,0.66-1,0.98-1.49c0.84-1.26,1.68-2.47,2.52-3.66c0.19-0.27,0.39-0.56,0.58-0.83
						c1.05-1.45,2.09-2.84,3.14-4.19c0.22-0.28,0.43-0.54,0.65-0.81c0.84-1.05,1.67-2.08,2.51-3.06c0.29-0.35,0.58-0.69,0.88-1.02
						c0.83-0.95,1.65-1.87,2.48-2.76c0.22-0.24,0.45-0.48,0.67-0.72c2.12-2.24,4.24-4.27,6.35-6.09c0.2-0.18,0.41-0.35,0.61-0.52
						c0.89-0.75,1.77-1.47,2.66-2.15c0.18-0.14,0.37-0.29,0.56-0.43c2.16-1.62,4.3-3.05,6.43-4.26c0.05-0.03,0.09-0.05,0.14-0.08
						c1.01-0.58,2.03-1.1,3.04-1.59c0.12-0.06,0.23-0.12,0.35-0.17c3.23-1.53,6.42-2.61,9.57-3.28c0.04,0,0.08-0.01,0.12-0.02
						c1.05-0.22,2.09-0.4,3.13-0.52c0,0,0.01,0,0.01,0c3.45-0.76,6.92-1.01,10.4-0.77c1.93-0.15,3.89-0.2,5.89-0.13
						c26.89,1.02,48.46,21.91,47.8,76.52c-0.66,54.6-50.18,121.25-50.18,121.25s-7.64-11.24-16.78-28.2
						c-20.3,22.07-38.94,36.8-38.94,36.8s-3.91-14.44-7.35-35.35c-0.03,0.02-0.05,0.04-0.08,0.05c-0.66,0.4-1.3,0.77-1.94,1.15
						C625.24,893.7,624.83,893.94,624.43,894.17z"/>
					<path class="st5" d="M676.82,722.14c3.45-0.76,6.92-1.01,10.4-0.77c1.93-0.15,3.89-0.2,5.89-0.13
						c10.11,0.39,19.47,3.58,27.18,10.32c2.51,8.44,4.87,17.19,6.11,24.03c2.06,11.32,4.79,55.28,6.42,84.05
						c-8.79,25.89-22.82,50.12-32.23,64.84c-7.38-26.11-26.59-49.16-26.59-49.16l-16.04,10.95c9.99-45.22-8.16-94.15-19.55-118.79
						C651.53,731.39,664.56,723.65,676.82,722.14z"/>
				</g>
				<path class="st12" d="M620.34,789.13c-4.47,12.37-3.53,24.02,2.11,26.02c5.65,1.99,13.84-6.42,18.31-18.79
					c4.47-12.38,3.52-24.02-2.13-26.02C633.01,768.34,624.8,776.76,620.34,789.13z"/>
				<path class="st12" d="M611.02,835.3c-0.76,7.87,1.54,14.55,5.13,14.9c3.59,0.35,7.11-5.75,7.87-13.64
					c0.75-7.88-1.55-14.55-5.14-14.9C615.29,821.31,611.77,827.41,611.02,835.3z"/>
			</g>
		</g>
		<g>
			<g>
				<path class="st2" d="M772.67,920.33c-4.11,11.73-19.73,20.89-23.37,19.61c-3.64-1.28-10.13-18.18-6.01-29.91
					c4.11-11.74,10.8-9.75,18.91-6.9C770.31,905.97,776.78,908.59,772.67,920.33z"/>
				<path class="st2" d="M744.95,904.07c-9.94,6.37-16.16,20.99-14.57,23.47c1.6,2.48,17.47,2.96,27.41-3.4
					c9.95-6.37,7.34-11.04,3.79-16.57C758.04,902.03,754.9,897.71,744.95,904.07z"/>
				<path class="st2" d="M775.11,914.64c3.79,11.17-0.48,26.48-3.27,27.42c-2.79,0.95-15.49-8.59-19.28-19.77
					c-3.79-11.19,1.15-13.2,7.38-15.31C766.16,904.87,771.31,903.46,775.11,914.64z"/>
			</g>
			<g>
				<path class="st2" d="M814.56,921.89c4.11,11.73,19.74,20.89,23.37,19.61c3.64-1.28,10.13-18.18,6.02-29.91
					c-4.12-11.74-10.8-9.75-18.92-6.9C816.92,907.53,810.45,910.16,814.56,921.89z"/>
				<path class="st2" d="M842.28,905.64c9.94,6.37,16.16,20.98,14.57,23.46c-1.59,2.48-17.47,2.96-27.41-3.41
					c-9.94-6.37-7.34-11.03-3.79-16.57C829.19,903.59,832.33,899.27,842.28,905.64z"/>
				<path class="st2" d="M812.12,916.2c-3.79,11.18,0.48,26.48,3.27,27.43c2.79,0.95,15.49-8.59,19.28-19.77
					c3.8-11.18-1.15-13.19-7.38-15.31C821.07,906.43,815.92,905.02,812.12,916.2z"/>
			</g>
		</g>
		<g>
			<path class="st13" d="M797.5,629.98c-60.55,0-156.25-39.39-156.25-39.39s28.45,88.28,28.45,159.05
				c0,70.76,32.83,162.7,110.9,162.7h33.8c78.06,0,110.9-91.93,110.9-162.7c0-70.77,28.45-159.05,28.45-159.05
				S858.06,629.98,797.5,629.98z"/>
			<path class="st11" d="M822.23,628.2c-11.36,8.03-20.17,19.42-24.99,32.73c-4.84-13.36-13.71-24.78-25.13-32.82
				c8.87,1.18,17.43,1.86,25.39,1.86C805.26,629.98,813.6,629.33,822.23,628.2z M935.04,664.47c8.24-41.37,18.71-73.89,18.71-73.89
				s-9.69,3.99-24.83,9.42C931.94,611.56,936.07,633.51,935.04,664.47z M658.67,658.16c-0.33-27.98,3.55-47.86,6.37-58.53
				c-14.55-5.24-23.79-9.04-23.79-9.04S650.67,619.84,658.67,658.16z"/>
		</g>
		<path class="st2" d="M813.4,782.53c0,14.26-17.51,36.83-17.51,36.83s-17.5-22.57-17.5-36.83c0-14.27,7.84-19.93,17.5-19.93
			C805.56,762.6,813.4,768.26,813.4,782.53z"/>
		<g>
			<g>
				<path class="st5" d="M801.38,718.84c0,36.42-29.52,65.94-65.95,65.94c-36.42,0-65.95-29.52-65.95-65.94
					c0-36.42,29.53-65.94,65.95-65.94C771.86,652.9,801.38,682.42,801.38,718.84z"/>
				<path class="st5" d="M925.42,721.61c0,36.42-29.53,65.94-65.95,65.94c-36.42,0-65.94-29.52-65.94-65.94
					c0-36.42,29.52-65.94,65.94-65.94C895.89,655.67,925.42,685.19,925.42,721.61z"/>
				<path class="st7" d="M801.54,700.73c0,37.94-30.75,68.69-68.69,68.69c-37.93,0-68.69-30.75-68.69-68.69
					c0-37.94,30.76-68.68,68.69-68.68C770.79,632.04,801.54,662.79,801.54,700.73z"/>
				<path class="st7" d="M930.74,700.73c0,37.94-30.76,68.69-68.69,68.69c-37.94,0-68.69-30.75-68.69-68.69
					c0-37.94,30.75-68.68,68.69-68.68C899.99,632.04,930.74,662.79,930.74,700.73z"/>
				<path class="st8" d="M903.31,700.73c0,25.98-21.07,47.05-47.05,47.05c-25.98,0-47.04-21.06-47.04-47.05
					c0-25.98,21.06-47.04,47.04-47.04C882.24,653.69,903.31,674.75,903.31,700.73z"/>
				<path class="st8" d="M785.69,700.73c0,25.98-21.07,47.05-47.05,47.05c-25.98,0-47.04-21.06-47.04-47.05
					c0-25.98,21.06-47.04,47.04-47.04C764.63,653.69,785.69,674.75,785.69,700.73z"/>
				<path class="st9" d="M728.55,663.93c0,10.55-8.56,19.12-19.12,19.12c-10.56,0-19.13-8.57-19.13-19.12
					c0-10.57,8.57-19.13,19.13-19.13C719.99,644.8,728.55,653.36,728.55,663.93z"/>
				<path class="st9" d="M855.54,663.93c0,10.55-8.56,19.12-19.13,19.12c-10.56,0-19.12-8.57-19.12-19.12
					c0-10.57,8.56-19.13,19.12-19.13C846.98,644.8,855.54,653.36,855.54,663.93z"/>
			</g>
			<path class="st10" d="M798.53,783.28c0,8.31-1.1,15.05-2.46,15.05c-1.36,0-2.46-6.74-2.46-15.05c0-8.31,1.1-15.05,2.46-15.05
				C797.44,768.23,798.53,774.97,798.53,783.28z"/>
		</g>
	</g>
	<g>
		<g>
			<g>
				<g>
					<path class="st14" d="M974.63,369.24c-14.54-84.76-55.87-81.9-93.83-68.88c-37.97,13.02-50.1,68.82-27.1,124.63
						c23.01,55.82,84.29,86.44,84.29,86.44S988.26,448.69,974.63,369.24z"/>
				</g>
				<path class="st5" d="M947.07,305.35c-18.8-17.07-43.16-12.91-66.27-4.99c-37.97,13.02-50.1,68.82-27.1,124.63
					c22.98,55.75,84.14,86.36,84.28,86.43C922.89,442.87,941.91,332.62,947.07,305.35z"/>
				<path class="st12" d="M969.49,362.57c2.61,13.1-0.12,24.66-6.09,25.8c-5.97,1.15-12.92-8.54-15.53-21.65
					c-2.61-13.11,0.12-24.66,6.09-25.8C959.94,339.77,966.9,349.46,969.49,362.57z"/>
				<path class="st12" d="M971.82,410.34c-0.44,8.03-3.77,14.38-7.42,14.19c-3.66-0.2-6.26-6.86-5.82-14.9
					c0.45-8.03,3.77-14.37,7.43-14.18C969.66,395.65,972.27,402.31,971.82,410.34z"/>
			</g>
			<g>
				<g>
					<path class="st14" d="M622.9,369.24c14.54-84.76,55.87-81.9,93.83-68.88c37.97,13.02,50.1,68.82,27.1,124.63
						c-23.01,55.82-84.29,86.44-84.29,86.44S609.28,448.69,622.9,369.24z"/>
				</g>
				<path class="st5" d="M650.46,305.35c18.8-17.07,43.16-12.91,66.27-4.99c37.97,13.02,50.1,68.82,27.1,124.63
					c-22.98,55.75-84.14,86.36-84.28,86.43C674.65,442.87,655.62,332.62,650.46,305.35z"/>
				<path class="st12" d="M628.04,362.57c-2.61,13.1,0.12,24.66,6.09,25.8c5.97,1.15,12.92-8.54,15.53-21.65
					c2.61-13.11-0.12-24.66-6.09-25.8C637.59,339.77,630.64,349.46,628.04,362.57z"/>
				<path class="st12" d="M625.71,410.34c0.44,8.03,3.77,14.38,7.42,14.19c3.66-0.2,6.26-6.86,5.82-14.9
					c-0.45-8.03-3.77-14.37-7.43-14.18C627.88,395.65,625.27,402.31,625.71,410.34z"/>
			</g>
		</g>
		<g>
			<g>
				<path class="st2" d="M779.23,512.82c-3.77,10.75-18.08,19.15-21.42,17.98c-3.34-1.17-9.28-16.66-5.51-27.42
					c3.77-10.76,9.9-8.93,17.34-6.33C777.08,499.66,783,502.07,779.23,512.82z"/>
				<path class="st2" d="M753.83,497.92c-9.11,5.83-14.81,19.23-13.35,21.51c1.46,2.28,16.01,2.71,25.12-3.12
					c9.12-5.84,6.73-10.11,3.48-15.19C765.83,496.05,762.95,492.09,753.83,497.92z"/>
				<path class="st2" d="M781.47,507.61c3.48,10.24-0.43,24.27-3,25.14c-2.56,0.87-14.2-7.87-17.67-18.12
					c-3.48-10.25,1.05-12.1,6.76-14.04C773.27,498.66,777.99,497.36,781.47,507.61z"/>
			</g>
			<g>
				<path class="st2" d="M817.63,513.75c3.77,10.75,18.09,19.15,21.42,17.98c3.34-1.17,9.28-16.67,5.51-27.42
					c-3.77-10.76-9.9-8.93-17.34-6.33C819.79,500.59,813.86,503,817.63,513.75z"/>
				<path class="st2" d="M843.04,498.86c9.11,5.83,14.81,19.23,13.35,21.51c-1.46,2.27-16.01,2.71-25.12-3.12
					c-9.11-5.84-6.72-10.11-3.47-15.19C831.04,496.98,833.92,493.02,843.04,498.86z"/>
				<path class="st2" d="M815.4,508.55c-3.47,10.24,0.44,24.27,3,25.13c2.56,0.87,14.2-7.87,17.68-18.12
					c3.48-10.25-1.06-12.1-6.76-14.03C823.59,499.59,818.87,498.29,815.4,508.55z"/>
			</g>
		</g>
		<g>
			<g>
				<polygon class="st14" points="922.38,168.73 863.19,205.72 923.11,270.12 				"/>
				<polygon class="st5" points="888.57,206.62 908.17,194.37 908.17,220.89 				"/>
			</g>
			<g>
				<polygon class="st14" points="675.7,168.73 734.88,205.72 675.96,265.77 				"/>
				<polygon class="st5" points="689.9,194.37 709.5,206.62 689.9,220.9 				"/>
			</g>
		</g>
		<g>
			<path class="st15" d="M936.48,313.52c0,69.9-61.38,198.31-137.1,198.31c-75.72,0-137.1-128.41-137.1-198.31
				c0-69.9,61.38-126.56,137.1-126.56C875.1,186.96,936.48,243.62,936.48,313.52z"/>
			<path class="st14" d="M799.38,424.62c-27.85,0-53.9,17.34-76.2,43.43c21.79,25.97,48,43.79,76.2,43.79
				c28.2,0,54.41-17.82,76.2-43.79C853.28,441.95,827.23,424.62,799.38,424.62z"/>
		</g>
		<g>
			<g>
				<path class="st2" d="M815.2,362.59c0,13.07-16.05,33.75-16.05,33.75s-16.04-20.68-16.04-33.75c0-13.07,7.18-18.27,16.04-18.27
					C808.02,344.32,815.2,349.51,815.2,362.59z"/>
				<ellipse class="st10" cx="799.33" cy="363.28" rx="2.25" ry="13.79"/>
			</g>
			<g>
				<path class="st5" d="M799.09,298.85c0,36.3-29.43,65.73-65.73,65.73c-36.3,0-65.73-29.43-65.73-65.73
					c0-36.3,29.43-65.73,65.73-65.73C769.66,233.12,799.09,262.55,799.09,298.85z"/>
				<path class="st7" d="M801.65,289.74c0,34.35-27.85,62.2-62.2,62.2c-34.35,0-62.2-27.85-62.2-62.2c0-34.35,27.85-62.2,62.2-62.2
					C773.8,227.55,801.65,255.39,801.65,289.74z"/>
				<path class="st5" d="M928.29,298.85c0,36.3-29.43,65.73-65.73,65.73c-36.3,0-65.73-29.43-65.73-65.73
					c0-36.3,29.43-65.73,65.73-65.73C898.86,233.12,928.29,262.55,928.29,298.85z"/>
				<path class="st7" d="M918.64,289.74c0,34.35-27.85,62.2-62.2,62.2c-34.35,0-62.2-27.85-62.2-62.2c0-34.35,27.85-62.2,62.2-62.2
					C890.79,227.55,918.64,255.39,918.64,289.74z"/>
				<path class="st8" d="M893.8,289.74c0,23.53-19.07,42.6-42.6,42.6c-23.53,0-42.59-19.07-42.59-42.6
					c0-23.52,19.07-42.6,42.59-42.6C874.72,247.15,893.8,266.22,893.8,289.74z"/>
				
					<ellipse transform="matrix(0.9997 -0.025 0.025 0.9997 -6.9715 21.3513)" class="st8" cx="851.2" cy="289.74" rx="16.5" ry="16.5"/>
				<path class="st8" d="M787.29,289.74c0,23.53-19.07,42.6-42.6,42.6c-23.53,0-42.6-19.07-42.6-42.6c0-23.52,19.07-42.6,42.6-42.6
					C768.22,247.15,787.29,266.22,787.29,289.74z"/>
				
					<ellipse transform="matrix(0.2298 -0.9732 0.9732 0.2298 291.6057 947.9478)" class="st8" cx="744.7" cy="289.74" rx="16.5" ry="16.5"/>
				<path class="st9" d="M735.56,256.42c0,9.57-7.76,17.32-17.32,17.32c-9.56,0-17.32-7.75-17.32-17.32
					c0-9.56,7.76-17.32,17.32-17.32C727.81,239.1,735.56,246.85,735.56,256.42z"/>
				<path class="st9" d="M850.54,256.42c0,9.57-7.75,17.32-17.32,17.32c-9.56,0-17.32-7.75-17.32-17.32
					c0-9.56,7.75-17.32,17.32-17.32C842.79,239.1,850.54,246.85,850.54,256.42z"/>
			</g>
		</g>
	</g>
	<g>
		<g>
			<path class="st2" d="M322.38,443.07c-4.05,11.56-19.44,20.58-23.02,19.33c-3.58-1.26-9.98-17.91-5.92-29.47
				c4.05-11.56,10.64-9.6,18.63-6.8C320.06,428.93,326.43,431.51,322.38,443.07z"/>
			<path class="st2" d="M295.07,427.06c-9.79,6.27-15.92,20.67-14.35,23.12c1.57,2.44,17.21,2.91,27-3.36
				c9.8-6.27,7.23-10.87,3.73-16.32C307.97,425.04,304.87,420.79,295.07,427.06z"/>
			<path class="st2" d="M324.78,437.47c3.73,11.01-0.47,26.09-3.22,27.02c-2.75,0.93-15.26-8.46-19-19.47
				c-3.74-11.02,1.14-13,7.27-15.09C315.97,427.85,321.04,426.45,324.78,437.47z"/>
		</g>
		<g>
			<path class="st2" d="M363.65,443.07c4.05,11.56,19.44,20.58,23.02,19.33c3.59-1.26,9.98-17.91,5.93-29.47
				c-4.05-11.56-10.64-9.6-18.64-6.8C365.97,428.93,359.6,431.51,363.65,443.07z"/>
			<path class="st2" d="M390.95,427.06c9.79,6.27,15.92,20.67,14.35,23.12c-1.57,2.44-17.2,2.91-27-3.36
				c-9.8-6.27-7.23-10.87-3.73-16.32C378.06,425.04,381.16,420.79,390.95,427.06z"/>
			<path class="st2" d="M361.24,437.47c-3.73,11.01,0.47,26.09,3.22,27.02c2.75,0.93,15.26-8.46,19-19.47
				c3.74-11.02-1.14-13-7.27-15.09C370.06,427.85,364.98,426.45,361.24,437.47z"/>
		</g>
		<g>
			<path class="st3" d="M473.26,338.51c0,77.03-130.21,108.94-130.21,108.94S216.7,415.54,216.7,338.51
				c0-77.03,57.43-139.48,128.28-139.48C415.83,199.03,473.26,261.48,473.26,338.51z"/>
			<path class="st16" d="M344.98,206.28c-52.37,0-97.41,34.13-117.34,83.04c30.69,50.05,115.41,71.46,115.41,71.46
				s87.68-21.49,119.13-71.78C442.19,240.26,397.23,206.28,344.98,206.28z"/>
		</g>
		<g>
			<g>
				<path class="st17" d="M471.41,426.3c0.75,8.58,1.29,17.19,1.51,25.87c29.22-29.24,49.23-73.5,45.97-114.45
					c-4.04-75.05-49.01-79.85-49.01-79.85l-0.03,0.09c-5.41-0.77-11.16,0.04-17.18,2.99c-12.7,6.23-19.08,19.43-21.65,33.56
					c-3.1,12.84-3.01,28.08-3.62,36.56c-2.15,29.83,0.33,59.72-4.14,89.59c6.62-2.56,12.85-5.89,18.62-9.81
					c1.02,12.78,1.28,25.68-0.05,38.95C452.4,443.56,462.43,435.55,471.41,426.3z"/>
				<path class="st5" d="M441.82,449.8c10.57-6.24,20.61-14.26,29.58-23.5c0.75,8.58,1.29,17.19,1.51,25.87
					c9.69-9.7,18.36-21.06,25.52-33.4c-51.61-82.66-24.84-140.93-15.77-156.37c-7.3-3.95-12.78-4.54-12.78-4.54l-0.03,0.09
					c-5.41-0.77-11.16,0.04-17.18,2.99c-12.7,6.23-19.08,19.43-21.65,33.56c-3.1,12.84-3.01,28.08-3.62,36.56
					c-2.15,29.83,0.33,59.72-4.14,89.59c6.62-2.56,12.85-5.89,18.62-9.81C442.9,423.63,443.15,436.54,441.82,449.8z"/>
				<path class="st12" d="M510.56,309.2c3.04,14.28,0.32,26.96-6.07,28.32c-6.4,1.36-14.04-9.11-17.08-23.39
					c-3.04-14.28-0.31-26.95,6.08-28.31C499.88,284.45,507.52,294.92,510.56,309.2z"/>
				<path class="st12" d="M513.55,358.59c-0.19,8.79-3.54,15.84-7.48,15.75c-3.94-0.09-6.97-7.28-6.78-16.07
					c0.19-8.79,3.54-15.84,7.48-15.75C510.71,342.61,513.75,349.8,513.55,358.59z"/>
			</g>
			<g>
				<path class="st17" d="M214.51,426.3c-0.75,8.58-1.29,17.19-1.5,25.87c-29.22-29.24-49.23-73.5-45.97-114.45
					c4.04-75.05,49.01-79.85,49.01-79.85l0.03,0.09c5.41-0.77,11.16,0.04,17.18,2.99c12.7,6.23,19.08,19.43,21.65,33.56
					c3.1,12.84,3.01,28.08,3.62,36.56c2.15,29.83-0.33,59.72,4.14,89.59c-6.62-2.56-12.85-5.89-18.62-9.81
					c-1.02,12.78-1.28,25.68,0.05,38.95C233.52,443.56,223.48,435.55,214.51,426.3z"/>
				<path class="st5" d="M244.09,449.8c-10.57-6.24-20.61-14.26-29.58-23.5c-0.75,8.58-1.29,17.19-1.5,25.87
					c-9.69-9.7-18.36-21.06-25.52-33.4c51.61-82.66,24.84-140.93,15.77-156.37c7.3-3.95,12.78-4.54,12.78-4.54l0.03,0.09
					c5.41-0.77,11.16,0.04,17.18,2.99c12.7,6.23,19.08,19.43,21.65,33.56c3.1,12.84,3.01,28.08,3.62,36.56
					c2.15,29.83-0.33,59.72,4.14,89.59c-6.62-2.56-12.85-5.89-18.62-9.81C243.02,423.63,242.76,436.54,244.09,449.8z"/>
				<path class="st12" d="M175.36,309.2c-3.04,14.28-0.32,26.96,6.08,28.32c6.39,1.36,14.04-9.11,17.08-23.39
					c3.04-14.28,0.31-26.95-6.08-28.31C186.04,284.45,178.39,294.92,175.36,309.2z"/>
				<path class="st12" d="M172.36,358.59c0.19,8.79,3.54,15.84,7.48,15.75c3.94-0.09,6.97-7.28,6.78-16.07
					c-0.2-8.79-3.54-15.84-7.48-15.75C175.2,342.61,172.17,349.8,172.36,358.59z"/>
			</g>
		</g>
		<g>
			<g>
				<polygon class="st17" points="477.54,104.57 413.93,144.32 477.54,190.64 				"/>
				<polygon class="st16" points="441.2,145.29 462.26,132.12 462.26,160.63 				"/>
				<polygon class="st17" points="212.4,104.57 276.01,144.32 212.4,190.64 				"/>
				<polygon class="st16" points="227.67,132.12 248.74,145.29 227.67,160.63 				"/>
				<path class="st17" d="M399.74,136.1c-20.83,0-39.93,7.51-54.77,19.94c-14.84-12.43-33.94-19.94-54.77-19.94
					c-47.1,0-85.41,38.32-85.41,85.41c0,47.1,38.32,85.41,85.41,85.41c20.83,0,39.93-7.5,54.77-19.94
					c14.84,12.44,33.94,19.94,54.77,19.94c47.1,0,85.41-38.32,85.41-85.41C485.15,174.42,446.84,136.1,399.74,136.1z"/>
				<path class="st5" d="M346.03,230.04c0,33.99-27.56,61.55-61.55,61.55c-33.99,0-61.55-27.56-61.55-61.55
					c0-33.99,27.56-61.55,61.55-61.55C318.48,168.49,346.03,196.05,346.03,230.04z"/>
				<path class="st7" d="M348.43,221.52c0,32.16-26.08,58.24-58.24,58.24c-32.16,0-58.24-26.07-58.24-58.24s26.08-58.24,58.24-58.24
					C322.36,163.28,348.43,189.35,348.43,221.52z"/>
				<path class="st5" d="M467.01,230.04c0,33.99-27.56,61.55-61.55,61.55c-33.99,0-61.55-27.56-61.55-61.55
					c0-33.99,27.56-61.55,61.55-61.55C439.46,168.49,467.01,196.05,467.01,230.04z"/>
				<path class="st7" d="M457.98,221.52c0,32.16-26.07,58.24-58.24,58.24s-58.24-26.07-58.24-58.24s26.08-58.24,58.24-58.24
					S457.98,189.35,457.98,221.52z"/>
				
					<ellipse transform="matrix(0.9997 -0.0238 0.0238 0.9997 -5.1581 9.4555)" class="st8" cx="394.83" cy="221.52" rx="39.89" ry="39.89"/>
				<path class="st8" d="M394.83,236.97c-8.52,0-15.45-6.93-15.45-15.45s6.93-15.45,15.45-15.45c8.52,0,15.45,6.93,15.45,15.45
					S403.35,236.97,394.83,236.97z"/>
				<path class="st8" d="M334.99,221.52c0,22.03-17.86,39.89-39.89,39.89c-22.03,0-39.89-17.86-39.89-39.89
					c0-22.03,17.86-39.89,39.89-39.89C317.13,181.63,334.99,199.49,334.99,221.52z"/>
				<path class="st8" d="M295.1,236.97c-8.52,0-15.45-6.93-15.45-15.45s6.93-15.45,15.45-15.45c8.52,0,15.45,6.93,15.45,15.45
					S303.62,236.97,295.1,236.97z"/>
				<path class="st9" d="M286.55,190.31c0,8.96-7.26,16.22-16.22,16.22s-16.22-7.26-16.22-16.22c0-8.95,7.26-16.22,16.22-16.22
					S286.55,181.36,286.55,190.31z"/>
				<path class="st9" d="M394.21,190.31c0,8.96-7.26,16.22-16.21,16.22c-8.96,0-16.22-7.26-16.22-16.22
					c0-8.95,7.26-16.22,16.22-16.22C386.95,174.1,394.21,181.36,394.21,190.31z"/>
				<path class="st2" d="M362.22,285.65c0,14.05-17.25,36.28-17.25,36.28s-17.24-22.23-17.24-36.28c0-14.05,7.72-19.63,17.24-19.63
					C354.49,266.02,362.22,271.6,362.22,285.65z"/>
				<path class="st2" d="M397.37,136.16c-19.91,0.55-38.13,7.93-52.4,19.89c-14.27-11.96-32.49-19.34-52.4-19.89
					c35.21,15.4,52.4,35.38,52.4,35.38S357.75,153.98,397.37,136.16z"/>
			</g>
			<path class="st10" d="M347.57,286.39c0,8.19-1.08,14.83-2.42,14.83c-1.34,0-2.42-6.64-2.42-14.83c0-8.19,1.08-14.82,2.42-14.82
				C346.49,271.57,347.57,278.21,347.57,286.39z"/>
		</g>
	</g>
</g>
</svg>
