<?xml version="1.0" encoding="utf-8"?>
<!-- Generator: Adobe Illustrator 26.0.3, SVG Export Plug-In . SVG Version: 6.00 Build 0)  -->
<svg version="1.1" id="Layer_1" xmlns="http://www.w3.org/2000/svg" xmlns:xlink="http://www.w3.org/1999/xlink" x="0px" y="0px"
	 viewBox="0 0 1133.86 1133.86" style="enable-background:new 0 0 1133.86 1133.86;" xml:space="preserve">
<style type="text/css">
	.st0{fill:#FFE7E3;}
	.st1{fill:#FF9385;}
	.st2{fill:#FFABA1;}
	.st3{fill:url(#SVGID_1_);}
	.st4{fill:url(#SVGID_00000056424081186112332260000009833822271655174786_);}
	.st5{fill:#FFB9B0;}
	.st6{fill:#EDC1BE;}
	.st7{fill:#FFDBD6;}
	.st8{fill:url(#SVGID_00000067937847969964662170000007999248334825841807_);}
	.st9{fill:url(#SVGID_00000022547910707080815470000009862300931937728437_);}
	.st10{fill:url(#SVGID_00000088856009023507193880000000450932167311261825_);}
	.st11{fill:url(#SVGID_00000132769956402482263450000018384532519879608732_);}
	.st12{fill:#F76459;}
	.st13{fill:#4C231C;}
	.st14{fill:url(#SVGID_00000014603480514083349140000000427759033599202456_);}
	.st15{fill:url(#SVGID_00000151541808419178408430000015642254014989060510_);}
	.st16{fill:#FFDEDB;}
</style>
<g>
	<path class="st0" d="M833.95,937.48c-24.87-3.03-49.66-4.94-74.17-5.34c-103.16-1.71-206.33-0.76-309.49-1.32
		c-54.46-0.3-108.04,4.95-162.66,5.7c-33.81,0.47-68.04-1.01-101.53,3.47c-18.63,2.49-36.1,5.59-54.15,10.03
		c-11.66,2.87-32.53,11.94-22.46,23.61c17,19.69,65.55,23.32,91.95,23.38c41.81,0.11,78.83,2.25,119.39,14.23
		c45.53,13.44,80.99,37.27,129.28,45.22c48.24,7.95,97.17,6.42,145.61,1.79c83.03-7.93,161.17-41.69,246.52-39.23
		c23.49,0.68,44.4,3.35,67.33,7.65c46.62,8.76,110.67,7.91,156.27-3.28c58.22-14.29,2.1-35.14-24.44-42.2
		C975.15,963.53,904.27,946.04,833.95,937.48z"/>
	<g>
		<path class="st1" d="M91.12,605.07c-5.49-4.42-10.8-9.09-15.89-13.8c-9.45-8.89-40.09-34.92-31.06-49.88
			c5.97-9.81,37.88-7.36,47.86-9.87c-1.88-6.36-17.04-32.35-10.82-38.81c5.49-5.67,29.23,9.72,35.18,12.41
			c5.2,2.17,10.53,4.42,15.82,6.46C115.06,537.83,96.55,574.51,91.12,605.07z"/>
		<path class="st2" d="M342.1,704.63c-11.88,0.42-24.49-0.78-37.4-3.14c-46.98-8.38-97.51-30.85-125.03-42.73
			c-30.66-13.53-61.41-31.43-88.55-53.69c5.43-30.56,23.94-67.24,41.09-93.48c49.64,20.54,99.02,33.22,150.8,44.61
			c10.62,2.43,21.33,4.73,32.39,7.09c1.01,0.15,2.15,0.39,3.2,0.76c12.99,2.78,26.26,4.64,38.57,7.32
			c32.74,6.59,58.69,18.3,55.98,63.86c0.06,0.98-0.09,1.99-0.12,3.09c-0.98,12.02-3.52,22-7.42,30.47
			C393.83,694.31,370.27,703.89,342.1,704.63z"/>
		
			<linearGradient id="SVGID_1_" gradientUnits="userSpaceOnUse" x1="383.1913" y1="458.522" x2="249.5924" y2="488.6896" gradientTransform="matrix(1 0 0 -1 -53.9402 1090.2268)">
			<stop  offset="3.703700e-03" style="stop-color:#FFC6BF"/>
			<stop  offset="0.1877" style="stop-color:#FFD7D2"/>
			<stop  offset="0.494" style="stop-color:#FFEDEB"/>
			<stop  offset="0.7735" style="stop-color:#FFFAFA"/>
			<stop  offset="1" style="stop-color:#FFFFFF"/>
		</linearGradient>
		<path class="st3" d="M342.1,704.63c-11.88,0.42-24.49-0.78-37.4-3.14c-46.98-8.38-97.51-30.85-125.03-42.73
			c-30.66-13.53-61.41-31.43-88.55-53.69c5.43-30.56,23.94-67.24,41.09-93.48c49.64,20.54,99.02,33.22,150.8,44.61
			c10.62,2.43,21.33,4.73,32.39,7.09c1.01,0.15,2.15,0.39,3.2,0.76c12.99,2.78,26.26,4.64,38.57,7.32
			c32.74,6.59,58.69,18.3,55.98,63.86c0.06,0.98-0.09,1.99-0.12,3.09c-0.98,12.02-3.52,22-7.42,30.47
			C393.83,694.31,370.27,703.89,342.1,704.63z"/>
	</g>
	<g>
		<path class="st1" d="M775.65,913.42c-2.32,6.65-4.93,13.22-7.65,19.61c-5.19,11.88-19.41,49.49-36.53,46.02
			c-11.25-2.32-19.67-33.2-25.39-41.76c-5.36,3.91-24.74,26.93-32.92,23.24c-7.19-3.26-0.67-30.79-0.14-37.3
			c0.29-5.63,0.62-11.41,0.76-17.08C704.27,913.47,745.04,918.58,775.65,913.42z"/>
		<path class="st2" d="M785.03,643.58c4.39,11.05,7.5,23.33,9.62,36.28c7.9,47.07,3.73,102.21,1.79,132.12
			c-2.44,33.42-8.95,68.41-20.79,101.44c-30.61,5.16-71.38,0.06-101.86-7.27c2.65-53.66-2.01-104.42-8.69-157.02
			c-1.29-10.82-2.72-21.68-4.21-32.88c-0.2-1.01-0.35-2.16-0.36-3.27c-1.75-13.17-4.46-26.29-6.07-38.79
			c-4.8-33.05-2.5-61.43,41.32-74.19c0.9-0.39,1.91-0.58,2.95-0.93c11.64-3.12,21.9-4.09,31.19-3.26
			C757.92,598.32,774.87,617.29,785.03,643.58z"/>
		
			<linearGradient id="SVGID_00000178913010678403187390000013235311133782206884_" gradientUnits="userSpaceOnUse" x1="800.7172" y1="242.7692" x2="815.4293" y2="177.8851" gradientTransform="matrix(1 0 0 -1 -53.9402 1090.2268)">
			<stop  offset="3.703700e-03" style="stop-color:#FFC6BF"/>
			<stop  offset="0.426" style="stop-color:#FFE0DC"/>
			<stop  offset="1" style="stop-color:#FFFFFF"/>
		</linearGradient>
		<path style="fill:url(#SVGID_00000178913010678403187390000013235311133782206884_);" d="M785.03,643.58
			c4.39,11.05,7.5,23.33,9.62,36.28c7.9,47.07,3.73,102.21,1.79,132.12c-2.44,33.42-8.95,68.41-20.79,101.44
			c-30.61,5.16-71.38,0.06-101.86-7.27c2.65-53.66-2.01-104.42-8.69-157.02c-1.29-10.82-2.72-21.68-4.21-32.88
			c-0.2-1.01-0.35-2.16-0.36-3.27c-1.75-13.17-4.46-26.29-6.07-38.79c-4.8-33.05-2.5-61.43,41.32-74.19
			c0.9-0.39,1.91-0.58,2.95-0.93c11.64-3.12,21.9-4.09,31.19-3.26C757.92,598.32,774.87,617.29,785.03,643.58z"/>
	</g>
	<path class="st5" d="M1010.95,643.9c-4.53,40.03-18.35,81.78-42.56,114.3c-21.08,28.31-70.07,51.64-102.49,65.63
		c-33.7,14.54-68.39,26.85-103.92,36.12c-53.5,13.96-106.44,16.64-161.56,16.1C500.25,875.08,399.29,831.8,333,756.08
		c-35.46-40.5-59.76-89.56-66.94-144.88c-4.74-37.44-1.83-77.79,11-120.12c7.49-24.76,17.58-47.68,29.04-66.33
		c33.93-55.02,88.95-91.55,151.3-106.83c38.97-9.47,75.04-9.78,110.19-31.63c10.7-6.72,20.94-16.35,32.55-21.55
		c75.95-33.62,46.46,105.45,100.71,129.6c40.96,18.19,81.46-12.07,119.82-17.12C965.71,358.42,1024.24,526.38,1010.95,643.9z"/>
	<path class="st6" d="M1010.95,643.9c-4.53,40.03-18.35,81.78-42.56,114.3c-21.08,28.31-70.07,51.64-102.49,65.63
		c-33.7,14.54-68.39,26.85-103.92,36.12c-53.5,13.96-106.44,16.64-161.56,16.1C500.25,875.08,399.29,831.8,333,756.08
		c-35.46-40.5-59.76-89.56-66.94-144.88c-4.74-37.44-1.83-77.79,11-120.12c7.49-24.76,17.58-47.68,29.04-66.33
		c33.93-55.02,88.95-91.55,151.3-106.83c38.97-9.47,75.04-9.78,110.19-31.63c10.7-6.72,20.94-16.35,32.55-21.55
		c75.95-33.62,46.46,105.45,100.71,129.6c40.96,18.19,81.46-12.07,119.82-17.12C965.71,358.42,1024.24,526.38,1010.95,643.9z"/>
	<path class="st7" d="M345.38,746.6c-5.35,4.28-9.32,7.49-12.38,9.48c-35.46-40.5-59.76-89.56-66.94-144.88
		c9.47-10.7,24.3-9.78,43.86,15.9c7.18,9.47,11.77,22.47,20.78,29.95c9.94,8.56,23.38,11.77,30.87,23.38
		C374.72,700.45,362.19,732.39,345.38,746.6z"/>
	<g>
		<path class="st1" d="M642.93,976.15c-5.65,12.23-12.68,24.3-19.71,35.61c-5.04,7.95-10.85,15.13-17.88,21.4
			c-10.39,9.32-26.13,25.83-35,7.64c-5.5-11.92-4.13-31.18-12.84-41.11c3.82,4.28-23.54,17.73-28.12,17.12
			c-11.62-1.99-6.88-13.3-5.81-22.62c0.76-6.57,1.38-13.14,1.99-19.87c0.31-4.58,0.76-9.17,1.22-13.75
			C565.45,985.63,601.67,979.36,642.93,976.15z"/>
		<path class="st5" d="M654.09,944.36c-1.99,7.79-4.58,15.44-7.34,22.92c-1.22,2.9-2.6,5.81-3.82,8.86
			c-41.26,3.21-77.48,9.48-116.15-15.59c1.53-19.87,2.45-40.35,2.45-60.37c-0.15-29.5-2.75-58.53-7.95-86.96
			c-11.15-66.94-102.09-208.15-5.35-247.58c80.85-32.86,124.56,100.1,136.48,157.72c4.28,20.02,5.96,40.96,7.95,60.52
			C665.55,836.77,668.46,892.55,654.09,944.36z"/>
		<path class="st7" d="M573.96,958.93c-14.89,1.79-30.56-6.12-32.03-22.6c-0.9-10.12,2.09-21.09,8.06-25.91
			C572.98,891.87,622.67,953.04,573.96,958.93z"/>
	</g>
	
		<linearGradient id="SVGID_00000179629870368238752200000009391162966194466945_" gradientUnits="userSpaceOnUse" x1="331.0831" y1="951.7431" x2="365.5093" y2="892.3875" gradientTransform="matrix(1 0 0 -1 -53.9402 1090.2268)">
		<stop  offset="0" style="stop-color:#FFA499"/>
		<stop  offset="0.4134" style="stop-color:#FFA89E"/>
		<stop  offset="0.875" style="stop-color:#FFB4AB"/>
		<stop  offset="1" style="stop-color:#FFB9B0"/>
	</linearGradient>
	<path style="fill:url(#SVGID_00000179629870368238752200000009391162966194466945_);" d="M373.65,134.69
		c-0.4-14.6-17.05-22.76-25.65-32.3c-10.31-11.45-17-25.98-34.23-27.85c-35.62-3.87-77.13,32.97-102.22,53.44
		c-29.78,24.29-17.72,43.55,1.19,73.53c7.01,11.12,14.99,31.55,27.8,37.47c17.48,8.09,34.24-9.06,45.66-19.58
		c19.74-18.18,42.24-33.06,62.35-50.8C362.54,156.27,373.97,146.16,373.65,134.69z"/>
	
		<linearGradient id="SVGID_00000181072062054292088710000004047851920587838633_" gradientUnits="userSpaceOnUse" x1="321.1671" y1="951.7032" x2="364.4096" y2="901.2754" gradientTransform="matrix(1 0 0 -1 -53.9402 1090.2268)">
		<stop  offset="3.703700e-03" style="stop-color:#FFADA3"/>
		<stop  offset="0.2788" style="stop-color:#FFCCC6"/>
		<stop  offset="0.5743" style="stop-color:#FFE8E5"/>
		<stop  offset="0.8253" style="stop-color:#FFF9F8"/>
		<stop  offset="1" style="stop-color:#FFFFFF"/>
	</linearGradient>
	<path style="fill:url(#SVGID_00000181072062054292088710000004047851920587838633_);" d="M373.65,134.69
		c-0.4-14.6-17.05-22.76-25.65-32.3c-10.31-11.45-17-25.98-34.23-27.85c-35.62-3.87-77.13,32.97-102.22,53.44
		c-29.78,24.29-17.72,43.55,1.19,73.53c7.01,11.12,14.99,31.55,27.8,37.47c17.48,8.09,34.24-9.06,45.66-19.58
		c19.74-18.18,42.24-33.06,62.35-50.8C362.54,156.27,373.97,146.16,373.65,134.69z"/>
	<path class="st5" d="M288.16,140.39c1.04-3.21,2.03-6.5,3.21-9.87c3.89-11.2,8.67-22.1,14.44-32.46
		c4.95-8.9,13.09-20.88,23.95-10.61c8.24,7.78,16.83,15.33,24.98,23.13c5.15,4.92,12.72,17.57,20.69,16.95
		c7.62-0.59-8.16-15.81-8.81-16.41c-6.44-6.02-12.24-12.19-18.46-18.5c-16.34-16.55-29.14-23.1-52.77-20.11
		c-15.34,1.94-29.65,8.5-41.85,17.44c-12.92,9.45-24.33,20.77-37.09,30.43c-11.95,9.04-25.92,15.68-36.83,26.17
		c-19.27,18.51-5.47,46.22,2.27,67.95c8.05,22.61,18.8,26.27,37.3,8.13c21.02-20.61,43.95-40.01,60.83-64.39
		C283.98,152.49,286.16,146.58,288.16,140.39z"/>
	<path class="st5" d="M471.73,569.45c28.45-1.94,56.31-7.64,81.33-19.31c39.85-18.6,74.02-48.98,100.47-83.83
		c48.32-63.68,52.76-180.03,4.71-245.36c-18.62-25.31-40.38-45.25-64.37-65.47c-51.45-43.36-109.58-46.09-175.4-42.51
		c-79.07,4.3-143.93,45.02-183.4,114.96c-11.91,21.11-26.05,53.35-45.9,67.89c-22.09,16.17-30.47,34.35-25.65,62.14
		c12.95,74.69,75.72,144.72,142.08,177.98C357.16,561.77,414.23,573.38,471.73,569.45z"/>
	<path class="st7" d="M474.87,200.22c-34.01,0.21-38.63,45.95-47.33,70.68c-8.71,24.72-30.19,65.44,3.3,82.15
		c30.42,15.18,94.53,4.15,113.33-26.31c16.37-26.52,7.36-79.47-13.41-102.19C516.94,209.44,494.12,200.1,474.87,200.22z"/>
	
		<linearGradient id="SVGID_00000098201513127060897240000006142583579660586368_" gradientUnits="userSpaceOnUse" x1="701.0955" y1="918.6141" x2="645.1429" y2="849.649" gradientTransform="matrix(1 0 0 -1 -53.9402 1090.2268)">
		<stop  offset="0" style="stop-color:#FFA499"/>
		<stop  offset="0.4134" style="stop-color:#FFA89E"/>
		<stop  offset="0.875" style="stop-color:#FFB4AB"/>
		<stop  offset="1" style="stop-color:#FFB9B0"/>
	</linearGradient>
	<path style="fill:url(#SVGID_00000098201513127060897240000006142583579660586368_);" d="M536.48,153.38
		c1.17-22.4,28.26-43.85,42.44-56.14c24.7-21.4,35.26-0.77,53.88,16.1c20.1,18.22,46.38,26.88,67.13,44.2
		c5.7,4.76,10.02,9.57,12.72,16.49c1.99,5.1,5.86,11.15,5.62,16.86c-0.27,6.66-1.91,12.25-3.53,18.77
		c-5.97,23.94-16.92,44.22-27.36,65.76c-3.39,6.99-7.58,13.48-11.1,20.38c-2.8,5.48-4.24,13.2-9.02,17.28
		c-11.54,9.86-20.75-2.05-29.32-9.62c-10.42-9.2-21.16-18.22-29.97-29.2c-9.74-12.13-20.79-22.89-31.38-34.29
		C554.56,216.25,534.66,188.25,536.48,153.38z"/>
	
		<linearGradient id="SVGID_00000134965099144242413510000009808939138246617220_" gradientUnits="userSpaceOnUse" x1="726.3188" y1="918.6747" x2="643.3044" y2="862.3689" gradientTransform="matrix(1 0 0 -1 -53.9402 1090.2268)">
		<stop  offset="0" style="stop-color:#FF998C"/>
		<stop  offset="0.2062" style="stop-color:#FFBBB2"/>
		<stop  offset="0.4284" style="stop-color:#FFD8D3"/>
		<stop  offset="0.6405" style="stop-color:#FFEEEB"/>
		<stop  offset="0.8363" style="stop-color:#FFFBFA"/>
		<stop  offset="1" style="stop-color:#FFFFFF"/>
	</linearGradient>
	<path style="fill:url(#SVGID_00000134965099144242413510000009808939138246617220_);" d="M536.48,153.38
		c1.17-22.4,28.26-43.85,42.44-56.14c24.7-21.4,35.26-0.77,53.88,16.1c20.1,18.22,46.38,26.88,67.13,44.2
		c5.7,4.76,10.02,9.57,12.72,16.49c1.99,5.1,5.86,11.15,5.62,16.86c-0.27,6.66-1.91,12.25-3.53,18.77
		c-5.97,23.94-16.92,44.22-27.36,65.76c-3.39,6.99-7.58,13.48-11.1,20.38c-2.8,5.48-4.24,13.2-9.02,17.28
		c-11.54,9.86-20.75-2.05-29.32-9.62c-10.42-9.2-21.16-18.22-29.97-29.2c-9.74-12.13-20.79-22.89-31.38-34.29
		C554.56,216.25,534.66,188.25,536.48,153.38z"/>
	<path class="st5" d="M603.35,85.06C584,78.5,567.57,99.3,556.77,111.93c-6.07,7.09-12.03,13.21-18.59,19.5
		c-5.88,5.65-6.65,14.62-7.46,22.21c9.3,1.43,11.68-8.47,15.91-14.35c5.89-8.21,12.07-17.16,18.56-24.99
		c4.84-5.84,11.82-16.6,19.41-18.47c1.16,19.76,8.77,37.08,18.74,54.02c13.71,23.3,17.4,60.66,36.9,79.97
		c22.52,22.3,64.03,3.06,80.67-17.55c29.15-36.1-19.95-67.58-48.9-83.96c-14.75-8.35-29.27-17.35-42.76-27.91
		C622.6,95.19,612.35,88.12,603.35,85.06z"/>
	<path class="st1" d="M281.82,220.94c-2.7-1.43-3.32-4.48-0.06-10.13c3.01-5.22,8.45-9.25,13.49-12.32
		c8.16-4.96,23.49-11.83,32.6-5.39c14.68,10.39-7.14,20.09-15.77,23.32C307.13,218.28,288.37,224.41,281.82,220.94z"/>
	<path class="st1" d="M469.22,203.67c-1.28,0.83-2.49,1.96-3.61,3.49c-12.74,17.4,19.04,25.12,30.33,26.75
		c7.06,1.02,20.34,4.28,19.05-5.17c-1.67-12.22-19.45-22.05-29.75-25.2C479.46,201.78,473.84,200.7,469.22,203.67z"/>
	<path class="st12" d="M259.19,367.7c-5.13-2.89-9.01-6.62-9.7-11.43c-1.65-11.62,11.45-23.55,19.34-30.26
		c15.05-12.79,33.56-25.8,52.99-30.53c27.69-6.75,36.14,22.02,50.94,40.05c10.87,13.25,28.31,32.45,3.86,42.59
		c-14.61,6.06-27.53,3.93-42.58,3.27c-15.91-0.69-31.76-2.49-47.44-5.23C280.14,375.04,267.87,372.59,259.19,367.7z"/>
	<path class="st13" d="M256.69,279.3c-9.64,1.69-17.97,21.92-10.6,28.36c13.3,11.64,27.39-21.55,15.13-27.69
		C259.72,279.22,258.19,279.03,256.69,279.3z"/>
	<path class="st13" d="M462.81,295.44c-9.64,1.69-17.97,21.92-10.6,28.36c13.3,11.64,27.39-21.55,15.13-27.69
		C465.84,295.36,464.31,295.17,462.81,295.44z"/>
	
		<linearGradient id="SVGID_00000071529719237183876970000009714807429808117644_" gradientUnits="userSpaceOnUse" x1="395.2459" y1="738.3277" x2="413.4211" y2="757.972" gradientTransform="matrix(1 0 0 -1 -53.9402 1090.2268)">
		<stop  offset="0" style="stop-color:#D6756D"/>
		<stop  offset="0.1906" style="stop-color:#DC877F"/>
		<stop  offset="0.7311" style="stop-color:#ECB4AF"/>
		<stop  offset="1" style="stop-color:#F2C6C2"/>
	</linearGradient>
	<path style="fill:url(#SVGID_00000071529719237183876970000009714807429808117644_);" d="M338.87,318.49
		c-6.37,0.75-7.01,9.72-5.95,14.64c2.36,10.87,13.19,30.23,25.74,31.46c13.91,1.36,11.06-12.58,7.07-21.04
		C361.93,335.48,349.29,317.27,338.87,318.49z"/>
	
		<linearGradient id="SVGID_00000057137438470629681990000011784392898195376789_" gradientUnits="userSpaceOnUse" x1="347.5709" y1="740.5906" x2="336.6865" y2="759.6384" gradientTransform="matrix(1 0 0 -1 -53.9402 1090.2268)">
		<stop  offset="0" style="stop-color:#D6756D"/>
		<stop  offset="0.1906" style="stop-color:#DC877F"/>
		<stop  offset="0.7311" style="stop-color:#ECB4AF"/>
		<stop  offset="1" style="stop-color:#F2C6C2"/>
	</linearGradient>
	<path style="fill:url(#SVGID_00000057137438470629681990000011784392898195376789_);" d="M268.03,359.13
		c-0.35-0.29-0.68-0.62-0.98-1.01c-10.55-13.51,22.9-43.55,35.52-42.05C323.8,318.58,280.48,369.19,268.03,359.13z"/>
	<path class="st7" d="M667.62,143.48c-1.83-1.35-3.69-2.87-5.75-4.63c-5.21-4.44-11.63-10.23-19.07-8.71
		c-7.79,1.59-7.43,10.79-6.72,17.09c1.46,12.97,5.35,30.89,14.15,41.03c13.8,15.89,45.22,5.66,49.01-14.15
		c2.14-11.18-6.09-20.34-16.26-23.2C676.51,149.09,672.19,146.84,667.62,143.48z"/>
	<path class="st7" d="M664.69,443.32c-2.77,13.12,2.36,29.62,5.74,40.66c11.15,36.39,42.53,82.83,86.55,75.12
		c52.1-9.16,76.5-83.15,50.44-127.1c-16.7-28.16-46.9-11.27-71.26-6.82c-18.47,3.37-44.93-7.47-61.02,2.62
		C669.15,431.55,666.02,437.05,664.69,443.32z"/>
	<path class="st16" d="M496.7,392.89c-9.36-30.83,66.17-61.21,77.15-24.93c10.33,34.13-64.76,57.53-76.71,26.24
		C496.98,393.76,496.84,393.32,496.7,392.89z"/>
	<path class="st16" d="M200.96,361.79c-15.97-2.64-35.75-15.14-35.63-31.22c0.11-14.27,15.57-23.87,28.59-21.26
		c13.19,2.65,26.73,16.25,32.58,28.03c6.42,12.93-2.76,23.79-17.6,24.89C206.46,362.41,203.77,362.26,200.96,361.79z"/>
	<g>
		<path class="st1" d="M962.51,302.77c-4.08-1.01-8.29-0.67-12.35,1.2c-10.72,4.91-18.3,18.81-16.99,30.47
			c2.4,21.31,18.73,37.61,38.75,43.68c16.52,5.01,34.87,0.48,48.5-9.7c10.02-7.48,13.35-20.32,12.3-32.3
			c-1.28-14.48-8.25-25.16-19.38-34.15c23.18,22.22,12.14,64.07-21.71,66.12c-15.65,0.95-32.5-2.96-38.82-19.83
			c-2.58-6.9-3.62-15.15-1.27-22.26c3.99-12.08,19.18-14.48,27.55-5.81c-2.32-2.4-2.9-7.22-5.02-10.03
			c-1.86-2.46-4.02-4.09-6.69-5.51C965.77,303.81,964.15,303.18,962.51,302.77z"/>
		<path class="st5" d="M896.43,427.44c32.11-13.13,62.12-22.73,78.34-56.75c6.68-14.01,11.19-27.74,6.71-42.87
			c-2.32-7.84-6.61-12.94-12.6-18.1c-5.16-4.45-11.28-7.93-18.34-6.14c3.83-1.59,8.2-2.46,12.32-2.56
			c12.12-0.28,22.12,10.27,27.51,20.08c6.82,12.41,7.79,27.88,5.51,41.62c-3.46,20.88-16.27,37.74-30.39,52.75
			c-11.92,12.66-26.29,24.92-43.76,29.17c-9.46,2.3-15.81,1.44-23.81-3.42C891.19,437.13,886.23,431.61,896.43,427.44z"/>
	</g>
	<path class="st1" d="M1044.64,918.44c-1.16,9.1-2.64,18.06-4.26,27.19c-2.33,12.69-8.23,48.69-26.66,47.61
		c-14.74-0.84-20.59-20.1-25.21-31.16c-1.75-3.73-2.52-9.19-4.23-12.31c2.31,8.29-19.26,32.48-25.79,33.47
		c-12.75,1.8-12.25-21.49-13.23-30.62c-1.17-9.73-1.73-19.49-2.13-29.12c21.33,3.68,45.38,1.23,65.83,0.06
		C1014.15,923.24,1030.58,921.54,1044.64,918.44z"/>
	<path class="st5" d="M1044.64,918.44c-14.06,3.1-30.49,4.81-35.68,5.11c-20.44,1.17-44.49,3.62-65.83-0.06
		c-1.38-29.12-1.03-67.67-18.62-154c-7.9-39.04-17.76-80.11-31.52-117.29c-11.58-31.02-28.98-64.93-30.59-98.36
		c-2.18-45.28,45.37-71.44,86-64.79c26,4.26,43.29,26.23,54.7,48.29c14.2,27.46,20.31,64.21,27.86,93.89
		c9.47,37.21,15.39,75.37,17.84,113.68c2.3,35.81,3.91,72.96,2.18,108.7c-0.5,10.39-1.34,20.76-2.35,31.11
		C1047.54,895.97,1046.28,907.24,1044.64,918.44z"/>
	<path class="st1" d="M366.1,403.28c-4.77,0-8.81,10.93-10.84,14.22c-9.92,16.07-36.29,12.29-42.91-4.07
		c-0.34-0.85-1.56-0.54-1.38,0.38c2.57,13.69,13.06,23.91,27.31,25.14c13.58,1.17,31.46-8.14,32.89-23.02
		C371.5,412.44,371.83,403.28,366.1,403.28z"/>
	<path class="st7" d="M952.7,562c-1.22,1.19-2.4,2.43-3.54,3.69c-24.86,27.45-37.69,106.82,18.7,88.85
		c26.32-8.39,49.75-42.25,33.05-76.35C987.4,550.62,969.97,545.12,952.7,562z"/>
	<path class="st7" d="M918.5,655.99c-24.65-13.54-42.95,30.43-10.25,43.2c28.59,11.16,35.6-18.84,18.1-37.01
		C923.69,659.42,921.06,657.39,918.5,655.99z"/>
</g>
</svg>
