<?xml version="1.0" encoding="utf-8"?>
<!-- Generator: Adobe Illustrator 26.0.3, SVG Export Plug-In . SVG Version: 6.00 Build 0)  -->
<svg version="1.1" id="Layer_1" xmlns="http://www.w3.org/2000/svg" xmlns:xlink="http://www.w3.org/1999/xlink" x="0px" y="0px"
	 viewBox="0 0 1133.86 1133.86" style="enable-background:new 0 0 1133.86 1133.86;" xml:space="preserve">
<style type="text/css">
	.st0{fill:#E89393;}
	.st1{fill:#FADD8D;}
	.st2{fill:#0D5C67;}
	.st3{fill:#333333;}
	.st4{opacity:0.56;}
	.st5{fill:#B5B1BE;}
</style>
<rect x="0" y="0" class="st0" width="1133.86" height="1133.86"/>
<g>
	<g>
		<path class="st1" d="M622.01,657.18l23.55,26.28c0,0,13.99,23.89-12.63,0.34c-26.62-23.55-61.09-30.37-73.38-35.49
			c-12.29-5.12-49.15,19.79-49.15,19.79c-13.65-2.73-59.38,32.08-59.38,32.08c-5.67-20.34,5.28-32.21,5.78-32.74
			c-0.38,0.4-6.62,6.88-31.04,28.99c-9.03,8.18-20.99,20.24-32.62,32.36c-3.88,9.18-6.15,19.53-0.21,25.15
			c-5.02,3.38-7.19,8.91-7.83,15.11c-0.65,6.32-0.07,12.5-2.64,18.47c-1.9,4.41-4.93,7.68-5.62,12.53c-0.06,0.43-0.03,0.83,0.05,1.2
			c-0.56,2.84-0.5,5.94-1.11,8.64c-0.92,4.07-2.44,7.98-3.58,12c-1.55,5.46-3.57,11.74-0.36,16.67c-4.22,6.68-7.43,18.04-1.85,23.09
			c-2.82,2.79-4.35,6.5-3.45,11.29c0.3,1.6,0.89,3.43,1.67,5.35c-0.01,0.11-0.03,0.22-0.03,0.34c0.2,13.12,0.4,26.25,0.6,39.37
			c0.08,4.98,4.83,43.94,5.57,46.59c1.94,6.97,4.91,13.74,8.68,19.92c1.69,2.77,3.86,5.3,5.42,8.14c2.81,5.08,2.17,9.52,3.07,14.96
			c1.18,7.19,6.94,11.39,9.58,17.91c0.49,1.22,14.31,24.3,22.55,30.83c4.58,3.63,12.23,8.61,18.07,6.34
			c4.67,19.67,36.62,14.84,51.36,15.6c6.66,0.34,12.13,3.58,18.27,4.84c0.29,0.23,0.63,0.42,1.05,0.55
			c9.41,2.83,18.51,2.7,28.1,4.38c7.69,1.35,16.31,3.46,23.84,0.36c0.26,0.34,0.61,0.65,1.11,0.88c10.55,4.94,21.33-0.32,32.17-1.99
			c12.3-1.89,29.57-0.48,40.68-6.86c1.35-0.78,2.51-1.71,3.47-2.74c1.73,1.18,23.16-16.83,31.4-22.69
			c6.23-4.44,11.88-10.77,16.38-16.93c3.31-4.54,6.76-10.62,5.66-16.5c-0.66-3.57-3.57-6.04-7.04-7.98c4.36-1.57,8.35-4.6,11.64-7.8
			c15.03-14.65,17.24-36.29,13.81-55.99c5.44-1.6,5.99-8.3,7.3-13.31c2.39-9.14,3.98-18.51,4.79-27.92
			c0.79-9.23,4.01-28.03-7.14-31.7c0.41-0.78,0.78-1.59,1.12-2.43c3.55-8.98,0.74-18.12,0.78-27.38c0.03-6.92,2.78-13.94-1.66-20.03
			c-0.06-0.08-0.12-0.15-0.18-0.22c0.46-0.64,0.64-1.48,0.3-2.49c-4.49-12.98-1.31-26.81-4.72-40c-1.33-5.12-3.48-10.13-6.31-14.6
			c-3.5-5.52-10.32-10.3-12.58-16.44c0.27-0.36,0.51-0.74,0.69-1.17c1.82-4.24-1.82-8.2-3.76-11.43
			c-3.06-5.08-4.03-10.54-6.44-15.87c-3.38-7.47-9.19-12.75-11.58-20.83c-1.22-4.12-2.25-12.68-6.23-15.95
			c-0.19-3.38-1.23-6.56-2.97-9.35c0.42-0.23,0.79-0.57,1.07-0.97c-1.7-0.93-3.12-1.86-4.18-2.77
			C652.04,666.4,622.01,657.18,622.01,657.18z"/>
	</g>
	<g>
		<path class="st2" d="M836.25,239.43c-26.94,1.11-52.28,10.3-75.37,23.93c-11.21,6.62-21.84,14.17-32.14,22.13
			c-10.13,7.82-20.21,15.59-26.03,27.27c-0.18,0.37-0.27,0.73-0.32,1.08c-10.31,2.66-19.53,6.96-28.78,12.95
			c-3.81,2.47-7.8,4.89-11.78,7.39c15.34-20.62,31.47-40.65,49.99-58.53c21.78-21.02,46.22-38.93,72.61-53.72
			c2.55-1.43,1.55-5.98-1.55-5.73c-19.86,1.63-39.08,11.39-57.03,19.57c-19.03,8.67-37.58,19.03-52.84,33.52
			c-0.33,0.31-0.64,0.63-0.96,0.94c7.52-14.09,19.82-25.47,29.91-37.74c12.27-14.91,23.61-30.57,34.99-46.16
			c22.67-31.07,44.61-63.05,56.28-100.07c1.09-3.44-3.77-5.2-5.62-2.37c-16.26,24.9-36.74,47.6-57.74,68.61
			c-10.08,10.09-22.89,16.41-33.15,26.19c-8.85,8.42-15.6,18.73-22.92,28.43c-9.43,12.49-20.95,22.88-31.41,34.45
			c-6.59,7.3-12.31,15.24-17.8,23.35c3.85-15.6,7.81-31.16,11.9-46.7c0.14-0.2,0.27-0.43,0.38-0.68
			c7.69-18.96,23.31-36.06,36.68-51.27c14.32-16.29,31.15-28.95,49.21-40.8c3.01-1.98,1.03-6.21-2.37-5.62
			c-26.25,4.55-47.44,20.48-67.17,37.46c3.12-10.56,6.6-20.98,11.29-31.05c6.94-14.92,14.27-29.68,21.41-44.51
			c1.51-3.15-2.14-6.08-4.83-3.73c-31.4,27.57-49.33,65.74-66.26,103.26c-0.97-0.35-23.5,21.11-31.68,33.07
			c-0.9-8.07-1.89-16.14-3.56-24.17c-2.45-11.81-5.84-23.38-9.23-34.95c-3.71-12.65-8.85-25.9-8.9-39.19
			c-0.15-3.94-6.16-3.98-6.15,0c0.62,15.93-3.39,31.13-5.84,46.74c-1.78,11.32-2.28,22.73-2.43,34.15
			c-6.18-12.28-13.87-23.18-23.52-33.47c-6.16-6.57-11.21-15.76-17.66-22.93c-3.43-7.92-7.13-15.75-11.86-22.98
			c-6.55-9.99-15.86-17.41-22.96-26.94c-12.67-17-22.87-34.9-40.37-47.59c-2.81-2.04-6.37,2.56-3.73,4.83
			c13.85,11.86,19.08,28.65,24.03,45.58c4.6,15.74,11.01,30.17,17.49,45.18c7.56,17.53,11.54,36.25,16.18,54.69
			c2.44,9.68,4.87,19.37,7.31,29.05c-7.59-16.89-15.05-33.84-23.99-50.03c-12.37-22.41-26.4-45.11-43.29-64.43
			c-16.94-19.38-39.54-32.54-57.63-50.71c-2.82-2.84-6.91,1.38-4.35,4.35c7.41,8.58,15.08,17,22.26,25.78
			c7.74,9.47,10.52,21.39,17.42,31.42c12.4,18.02,25.9,34.66,36.41,53.98c6.09,11.18,11.4,22.72,16.05,34.53
			c-28.04-34.25-61.86-63.16-100.29-85.44c-2.91-1.69-6.54,2.61-3.73,4.83c16.69,13.18,31.27,28.42,43.65,45.54
			c-6.38-5.43-12.84-10.34-20.96-13.32c-3.02-1.1-4.98,3.06-2.99,5.14c12.44,12.97,20.46,28.77,28.17,44.79
			c-18.69-17.04-38.06-33.28-58.1-48.73c0,0-0.01-0.01-0.01-0.02c0,0,0,0,0,0c-0.21-0.16-0.41-0.32-0.62-0.48
			c-2.86-2.2-6.01,2.39-3.73,4.83c11.89,12.7,22.46,26.65,33.28,40.24c10.19,12.8,19.92,25.81,27.59,40.21
			c-6.11-4.83-12.39-9.45-18.81-13.87c-2.46-1.69-6.01,1.73-4.21,4.21c31.11,42.67,59.85,88.38,85.08,135.07
			c-5.38-5.81-10.24-12.03-14.38-18.83c-4.61-7.58-7.76-16.14-13.37-23.09c-9.24-11.43-23.78-19.65-35.98-27.42
			c-30.21-19.24-62.95-34.16-97.13-44.82c-3.47-1.08-5.15,3.74-2.37,5.62c11.92,8.07,23.88,16.09,35.77,24.2
			c6.74,4.6,13.28,9.24,18.76,15.32c4.44,4.93,8.14,10.46,12.68,15.31c8.81,9.42,18.9,16.72,25.2,28.28
			c3.7,6.78,8.16,11.83,13.53,16.28c-0.21,0.04-0.41,0.04-0.63,0.08c-1.5,0.31-2.74,2.31-2.15,3.78c1.48,3.65,3.88,5.86,6.51,8.68
			c2.35,2.53,3.55,5.43,4.26,8.55c-5.52-4.99-11.08-9.94-16.73-14.77c-15.7-13.43-32.25-25.55-51.72-32.9
			c-3.31-1.25-5.33,3.92-2.37,5.62c12.44,7.14,17.43,20.55,25.11,31.91c8.06,11.92,19.41,21.42,28.48,32.58
			c1.59,1.96,3.2,3.92,4.8,5.9c-6.7-1.22-13.41-2.34-20.11-3.52c-3.28-0.57-5.56,3.75-2.37,5.62c10.53,6.16,24.01,17.43,28.61,30.02
			c-5.86-2.28-11.56-3.52-17.1-6.88c-4.27-2.59-8.31-5.64-12.41-8.47c-16.91-11.67-34.21-22.66-54.21-28.13
			c-3.42-0.94-5.28,3.76-2.37,5.62c13.1,8.37,22.76,17.03,31.65,29.79c7.04,10.11,14.64,17.03,25.53,22.94
			c24.69,13.38,44.95,34.24,61.9,56.64c-9.59-5.94-19.78-10.98-29.18-17.27c-14.69-9.85-28.54-20.93-43.57-30.28
			c-7.52-4.68-15.33-8.91-23.53-12.28c-4.76-1.95-10.19-3.18-15.2-5.09c-3.37-3.05-7.24-5.59-11.92-7.35
			c-3.05-1.15-4.92,3.06-2.99,5.14c3.36,3.61,7.3,5.71,11.65,7.37c8,7.58,12.66,18.67,19.75,27.22
			c9.04,10.88,21.36,19.2,32.31,28.03c4.58,3.69,9.34,8.25,14.92,10.4c5.28,2.03,10.54,0.87,15.99,2.11
			c12.46,2.84,24.07,15.34,33.75,25.54c-6.89-0.65-13.8-0.43-20.57-2.73c-12.83-4.37-24.88-12.21-37.04-18.19
			c-10.48-5.16-21.08-10.09-31.73-14.9c-2.04-1.46-4.33-2.57-7.07-3.2c-3.21-0.73-5.71,4.13-2.37,5.62c2.08,0.92,4.13,1.89,6.2,2.85
			c5.39,3.96,8.43,11.09,12.83,16.13c3.35,3.83,7.22,6.85,11.48,9.32c-17.63-4.67-34.8-13.6-51.65-20.45
			c-2.81-1.14-5.3,3.24-2.99,5.14c10.25,8.4,20.9,16.49,30.78,25.33c6.46,5.78,11.19,12.59,17.39,18.24
			c-4.41,0.14-8.82,0.39-13.21,0.68c-8.51,0.56-17.31,1.15-25.27,4.49c-9.9,4.16-16.92,12.1-23.68,20.15
			c-2.24,2.66,0.51,6.43,3.73,4.83c11.8-5.89,25.2-5.68,38.09-6.2c11.69-0.47,23.43-0.73,35.1,0.13
			c11.94,0.88,23.46,3.19,34.78,7.02c5.56,1.88,11.04,4.02,16.69,5.65c2.24,0.64,4.5,1.25,6.78,1.71c0.66,0.13,1.17,0.24,1.62,0.33
			c-3.22,1.89-6.3,4.14-9.2,6.8c-2.16,1.98,0.09,6.28,2.99,5.14c6.46-2.55,13.28-2.12,20.11-0.07c-18.32,2.79-36.8,8.86-51.64,19.85
			c-19.13,14.17-32,37.76-41.35,59.12c-1.39,3.18,2.05,6.06,4.83,3.73c17.9-15.05,35.97-34.19,57.42-44.6
			c-17.22,15.93-24.49,42.98-30.43,64.39c-0.56,2.03,0.8,3.45,2.41,3.73c-0.16,0.35-0.31,0.71-0.46,1.07
			c11.63-12.12,23.59-24.18,32.62-32.36c24.42-22.11,30.65-28.59,31.04-28.99c0.01-0.01,0.02-0.02,0.02-0.02s-0.01,0.01-0.02,0.02
			c-0.5,0.53-11.45,12.4-5.78,32.74c0,0,45.73-34.81,59.38-32.08c0,0,36.86-24.91,49.15-19.79c12.29,5.12,46.76,11.95,73.38,35.49
			c26.62,23.55,12.63-0.34,12.63-0.34l-23.55-26.28c0,0,30.03,9.21,39.93,17.75c1.05,0.91,2.48,1.84,4.18,2.77
			c0.65-0.92,0.85-2.17,0.24-3.32c-7.91-14.83-19.52-21.99-34.01-29.51c-8.53-4.42-16.69-9.91-25.48-13.23
			c13.72,0.29,27.74,3.57,39.9,7.8c21.28,7.41,40.14,20.07,55.43,36.56c1.93,2.08,5.08,0.34,5.25-2.17
			c0.62-9.2-9.67-15.47-15.61-21.06c-8.42-7.94-16.64-16.35-26.17-22.99c-10.58-7.37-22.1-10.34-34-11.06
			c8.63-1.5,17.38-2.41,26.25-2.68c11.34,4.23,22.8,8.39,33.67,13.53c13.16,6.22,24.1,16.14,34.19,26.46
			c1.8,1.85,5.38,0.52,5.25-2.17c-0.94-19.9-8.83-38.09-22.71-52.13c2.57,0.97,5.13,1.95,7.68,2.93c3.08,1.18,4.86-3.06,2.99-5.14
			c-12.48-13.87-34-19.51-52.47-24.27c9.65-5.08,17.06-13.57,25.66-20.71c16.02-13.29,36.06-19.25,56.73-17.72
			c2.66,0.2,4.05-3.5,2.17-5.25c-14.99-13.98-34.39-14.27-53.34-11.45c17.32-9.87,37.28-14.57,57.33-13.91
			c3.17,0.1,4.02-4.16,1.55-5.73c-9-5.72-18.48-9.91-28.61-12.68c16.31-6.78,32.81-13.12,49.47-19.03c2.66-0.94,3.17-5.22,0-5.93
			c-11.39-2.55-22.2-0.7-33.5,1.38c-11.58,2.13-24.3,1.02-35.45,4.99c-10.56,3.76-20.23,10.56-29.94,16.05
			c-12.14,6.87-24.37,13.6-36.84,19.85c-10.09,5.06-20.36,9.74-30.83,13.96c14.92-15.5,55.87-33.7,57.26-34.9
			c34.55-30.06,80.1-39.22,124.35-44.16c3.15-0.35,4.51-5.28,0.82-6.04c-24.7-5.1-50.4-6.84-75.04-0.42
			c-13.25,3.46-25.56,9.3-37.42,16.04c26.77-40.39,66.01-71.46,111.89-87.9c2.51-0.9,3.3-5.47,0-5.93
			c-20.82-2.93-41.96,3.37-61.8,12.42c22.67-19.76,49.01-34.6,77.92-43.76c3.17-1,2.79-6.25-0.82-6.04
			c-25.02,1.45-48.07,11.48-70.38,22.24c-18.32,8.83-35.9,19.04-52.72,30.42c5.12-6.8,10.19-13.64,15.37-20.41
			c10.97-14.37,25.14-23.84,40.5-32.98c1.82-1.08,2.19-4.33,0-5.31c-3.29-1.47-6.71-2.16-10.18-2.37
			c32.2-26.85,70.17-45.25,107.12-64.8C840.48,243.75,839.27,239.31,836.25,239.43z"/>
	</g>
	<g>
		<path class="st3" d="M836.25,239.43c-26.94,1.11-52.28,10.3-75.37,23.93c-11.21,6.62-21.84,14.17-32.14,22.13
			c-10.13,7.82-20.21,15.59-26.03,27.27c-0.18,0.37-0.27,0.73-0.32,1.08c-10.31,2.66-19.53,6.96-28.78,12.95
			c-3.81,2.47-7.8,4.89-11.78,7.39c15.34-20.62,31.47-40.65,49.99-58.53c21.78-21.02,46.22-38.93,72.61-53.72
			c2.55-1.43,1.55-5.98-1.55-5.73c-19.86,1.63-39.08,11.39-57.03,19.57c-19.03,8.67-37.58,19.03-52.84,33.52
			c-0.33,0.31-0.64,0.63-0.96,0.94c7.52-14.09,19.82-25.47,29.91-37.74c12.27-14.91,23.61-30.57,34.99-46.16
			c22.67-31.07,44.61-63.05,56.28-100.07c1.09-3.44-3.77-5.2-5.62-2.37c-16.26,24.9-36.74,47.6-57.74,68.61
			c-10.08,10.09-22.89,16.41-33.15,26.19c-8.85,8.42-15.6,18.73-22.92,28.43c-9.43,12.49-20.95,22.88-31.41,34.45
			c-6.59,7.3-12.31,15.24-17.8,23.35c3.85-15.6,7.81-31.16,11.9-46.7c0.14-0.2,0.27-0.43,0.38-0.68
			c7.69-18.96,23.31-36.06,36.68-51.27c14.32-16.29,31.15-28.95,49.21-40.8c3.01-1.98,1.03-6.21-2.37-5.62
			c-26.25,4.55-47.44,20.48-67.17,37.46c3.12-10.56,6.6-20.98,11.29-31.05c6.94-14.92,14.27-29.68,21.41-44.51
			c1.51-3.15-2.14-6.08-4.83-3.73c-31.4,27.57-49.33,65.74-66.26,103.26c-0.97-0.35-23.5,21.11-31.68,33.07
			c-0.9-8.07-1.89-16.14-3.56-24.17c-2.45-11.81-5.84-23.38-9.23-34.95c-3.71-12.65-8.85-25.9-8.9-39.19
			c-0.15-3.94-6.16-3.98-6.15,0c0.62,15.93-3.39,31.13-5.84,46.74c-1.78,11.32-2.28,22.73-2.43,34.15
			c-6.18-12.28-13.87-23.18-23.52-33.47c-6.16-6.57-11.21-15.76-17.66-22.93c-3.43-7.92-7.12-15.75-11.86-22.98
			c-6.55-9.99-15.86-17.41-22.96-26.94c-12.67-17-22.87-34.9-40.37-47.59c-2.81-2.04-6.37,2.56-3.73,4.83
			c13.85,11.86,19.08,28.65,24.03,45.58c4.6,15.74,11.01,30.17,17.49,45.18c7.56,17.53,11.54,36.25,16.18,54.69
			c2.44,9.68,4.87,19.37,7.31,29.05c-7.59-16.89-15.05-33.84-23.99-50.03c-12.37-22.41-26.4-45.11-43.29-64.43
			c-16.94-19.38-39.54-32.54-57.63-50.71c-2.82-2.84-6.91,1.38-4.35,4.35c7.41,8.58,15.08,17,22.26,25.78
			c7.74,9.47,10.52,21.39,17.42,31.42c12.4,18.02,25.9,34.66,36.41,53.98c6.09,11.18,11.4,22.72,16.05,34.53
			c-28.04-34.25-61.86-63.16-100.29-85.44c-2.91-1.69-6.54,2.61-3.73,4.83c16.69,13.18,31.27,28.42,43.65,45.54
			c-6.38-5.43-12.84-10.34-20.96-13.32c-3.02-1.1-4.98,3.06-2.99,5.14c12.44,12.97,20.46,28.77,28.17,44.79
			c-18.69-17.04-38.06-33.28-58.1-48.73c0,0-0.01-0.01-0.01-0.02c0,0,0,0,0,0c-0.21-0.16-0.41-0.32-0.62-0.48
			c-2.86-2.2-6.01,2.39-3.73,4.83c11.89,12.7,22.46,26.65,33.28,40.24c10.19,12.8,19.92,25.81,27.59,40.21
			c-6.11-4.83-12.39-9.45-18.81-13.87c-2.46-1.69-6.01,1.73-4.21,4.21c31.11,42.67,59.85,88.38,85.08,135.07
			c-5.38-5.81-10.24-12.03-14.38-18.83c-4.61-7.58-7.76-16.14-13.37-23.09c-9.24-11.43-23.78-19.65-35.98-27.42
			c-30.21-19.24-62.95-34.16-97.13-44.82c-3.47-1.08-5.15,3.74-2.37,5.62c11.92,8.07,23.88,16.09,35.77,24.2
			c6.74,4.6,13.28,9.24,18.76,15.32c4.44,4.93,8.14,10.46,12.68,15.31c8.81,9.42,18.9,16.72,25.2,28.28
			c3.7,6.78,8.16,11.83,13.53,16.28c-0.21,0.04-0.41,0.04-0.63,0.08c-1.5,0.31-2.74,2.31-2.15,3.78c1.48,3.65,3.88,5.86,6.51,8.68
			c2.35,2.53,3.55,5.43,4.26,8.55c-5.52-4.99-11.08-9.94-16.73-14.77c-15.7-13.43-32.25-25.55-51.72-32.9
			c-3.31-1.25-5.33,3.92-2.37,5.62c12.44,7.14,17.43,20.55,25.11,31.91c8.06,11.92,19.41,21.42,28.48,32.58
			c1.59,1.96,3.2,3.92,4.8,5.9c-6.7-1.22-13.41-2.34-20.11-3.52c-3.28-0.57-5.56,3.75-2.37,5.62c10.53,6.16,24.01,17.43,28.61,30.02
			c-5.86-2.28-11.56-3.52-17.1-6.88c-4.27-2.59-8.31-5.64-12.41-8.47c-16.91-11.67-34.21-22.66-54.2-28.13
			c-3.42-0.94-5.28,3.76-2.37,5.62c13.1,8.37,22.76,17.03,31.65,29.79c7.04,10.11,14.64,17.03,25.53,22.94
			c24.69,13.38,44.95,34.24,61.9,56.64c-9.59-5.94-19.78-10.98-29.18-17.27c-14.69-9.85-28.54-20.93-43.57-30.28
			c-7.52-4.68-15.33-8.91-23.53-12.28c-4.76-1.95-10.19-3.18-15.2-5.09c-3.37-3.05-7.24-5.59-11.92-7.35
			c-3.05-1.15-4.92,3.06-2.99,5.14c3.36,3.61,7.3,5.71,11.65,7.37c8,7.58,12.66,18.67,19.75,27.22
			c9.04,10.88,21.36,19.2,32.31,28.03c4.58,3.69,9.34,8.25,14.92,10.4c5.28,2.03,10.54,0.87,15.99,2.11
			c12.46,2.84,24.07,15.34,33.75,25.54c-6.89-0.65-13.8-0.43-20.57-2.73c-12.83-4.37-24.88-12.21-37.04-18.19
			c-10.48-5.16-21.08-10.09-31.73-14.9c-2.04-1.46-4.33-2.57-7.07-3.2c-3.21-0.73-5.71,4.13-2.37,5.62c2.08,0.92,4.13,1.89,6.2,2.85
			c5.39,3.96,8.43,11.09,12.83,16.13c3.35,3.83,7.22,6.85,11.48,9.32c-17.63-4.67-34.8-13.6-51.65-20.45
			c-2.81-1.14-5.3,3.24-2.99,5.14c10.25,8.4,20.9,16.49,30.78,25.33c6.46,5.78,11.19,12.59,17.39,18.24
			c-4.41,0.14-8.82,0.39-13.21,0.68c-8.51,0.56-17.31,1.15-25.27,4.49c-9.9,4.16-16.91,12.1-23.68,20.15
			c-2.24,2.66,0.51,6.43,3.73,4.83c11.8-5.89,25.2-5.68,38.09-6.2c11.69-0.47,23.43-0.73,35.1,0.13
			c11.94,0.88,23.46,3.19,34.78,7.02c5.56,1.88,11.04,4.02,16.69,5.65c2.24,0.64,4.5,1.25,6.78,1.71c0.66,0.13,1.17,0.24,1.62,0.33
			c-3.22,1.89-6.3,4.14-9.2,6.8c-2.16,1.98,0.09,6.28,2.99,5.14c6.46-2.55,13.28-2.12,20.11-0.07c-18.32,2.79-36.8,8.86-51.64,19.85
			c-19.13,14.17-32,37.76-41.35,59.12c-1.39,3.18,2.05,6.06,4.83,3.73c17.9-15.05,35.97-34.19,57.42-44.6
			c-17.22,15.93-24.49,42.98-30.43,64.39c-0.56,2.03,0.8,3.45,2.41,3.73c-4.15,9.44-6.84,20.38-0.67,26.22
			c-5.02,3.38-7.19,8.91-7.83,15.11c-0.65,6.32-0.07,12.5-2.64,18.47c-1.9,4.41-4.93,7.68-5.62,12.53c-0.06,0.43-0.03,0.83,0.05,1.2
			c-0.56,2.84-0.5,5.94-1.11,8.64c-0.92,4.07-2.44,7.98-3.58,12c-1.55,5.46-3.57,11.74-0.36,16.67c-4.22,6.68-7.43,18.04-1.85,23.09
			c-2.82,2.79-4.35,6.5-3.45,11.29c0.3,1.6,0.89,3.43,1.67,5.35c-0.01,0.11-0.03,0.22-0.03,0.34c0.2,13.12,0.4,26.25,0.6,39.37
			c0.08,4.98,4.83,43.94,5.57,46.59c1.94,6.97,4.91,13.74,8.68,19.92c1.69,2.77,3.86,5.3,5.42,8.14c2.81,5.08,2.17,9.52,3.07,14.96
			c1.18,7.19,6.94,11.39,9.58,17.91c0.49,1.22,14.31,24.3,22.55,30.83c4.58,3.63,12.23,8.61,18.07,6.34
			c4.67,19.67,36.62,14.84,51.36,15.6c6.66,0.34,12.13,3.58,18.27,4.84c0.29,0.23,0.63,0.42,1.05,0.55
			c9.41,2.83,18.51,2.7,28.1,4.38c7.69,1.35,16.31,3.46,23.84,0.36c0.26,0.34,0.61,0.65,1.11,0.88c10.55,4.94,21.33-0.32,32.17-1.99
			c12.3-1.89,29.57-0.48,40.68-6.86c1.35-0.78,2.51-1.71,3.47-2.74c1.73,1.18,23.16-16.83,31.4-22.69
			c6.23-4.44,11.88-10.77,16.38-16.93c3.31-4.54,6.76-10.62,5.66-16.5c-0.66-3.57-3.57-6.04-7.04-7.98c4.36-1.57,8.35-4.6,11.64-7.8
			c15.03-14.65,17.24-36.29,13.81-55.99c5.44-1.6,5.99-8.3,7.3-13.31c2.39-9.14,3.98-18.51,4.79-27.92
			c0.79-9.23,4.01-28.03-7.14-31.7c0.41-0.78,0.78-1.59,1.12-2.43c3.55-8.98,0.74-18.12,0.78-27.38c0.03-6.92,2.78-13.94-1.66-20.03
			c-0.06-0.08-0.12-0.15-0.18-0.22c0.46-0.64,0.64-1.48,0.3-2.49c-4.49-12.98-1.31-26.81-4.72-40c-1.33-5.12-3.48-10.13-6.31-14.6
			c-3.5-5.52-10.32-10.3-12.58-16.44c0.27-0.36,0.51-0.74,0.69-1.17c1.82-4.24-1.82-8.2-3.76-11.43
			c-3.06-5.08-4.03-10.54-6.44-15.87c-3.38-7.47-9.19-12.75-11.58-20.83c-1.22-4.12-2.25-12.68-6.23-15.95
			c-0.19-3.38-1.23-6.56-2.97-9.35c1.39-0.77,2.19-2.65,1.31-4.29c-7.91-14.83-19.52-21.99-34.01-29.51
			c-8.53-4.42-16.69-9.91-25.48-13.23c13.72,0.29,27.74,3.57,39.9,7.8c21.28,7.41,40.14,20.07,55.43,36.56
			c1.93,2.08,5.08,0.34,5.25-2.17c0.62-9.2-9.67-15.47-15.61-21.06c-8.42-7.94-16.64-16.35-26.17-22.99
			c-10.58-7.37-22.1-10.34-34-11.06c8.63-1.5,17.38-2.41,26.25-2.68c11.34,4.23,22.8,8.39,33.67,13.53
			c13.16,6.22,24.1,16.14,34.19,26.46c1.8,1.85,5.38,0.52,5.25-2.17c-0.94-19.9-8.83-38.09-22.71-52.13
			c2.57,0.97,5.13,1.95,7.68,2.93c3.08,1.18,4.86-3.06,2.99-5.14c-12.48-13.87-34-19.51-52.47-24.27
			c9.65-5.08,17.06-13.57,25.66-20.71c16.02-13.29,36.06-19.25,56.73-17.72c2.66,0.2,4.05-3.5,2.17-5.25
			c-14.99-13.98-34.39-14.27-53.34-11.45c17.32-9.87,37.28-14.57,57.33-13.91c3.17,0.1,4.02-4.16,1.55-5.73
			c-9-5.72-18.48-9.91-28.61-12.68c16.31-6.78,32.81-13.12,49.47-19.03c2.66-0.94,3.17-5.22,0-5.93c-11.39-2.55-22.2-0.7-33.5,1.38
			c-11.58,2.13-24.3,1.02-35.45,4.99c-10.56,3.76-20.23,10.56-29.94,16.05c-12.14,6.87-24.37,13.6-36.84,19.85
			c-10.09,5.06-20.36,9.74-30.83,13.96c14.92-15.5,55.87-33.7,57.26-34.9c34.55-30.06,80.1-39.22,124.35-44.16
			c3.15-0.35,4.51-5.28,0.82-6.04c-24.7-5.1-50.4-6.84-75.04-0.42c-13.25,3.46-25.56,9.3-37.42,16.04
			c26.77-40.39,66.01-71.46,111.89-87.9c2.51-0.9,3.3-5.47,0-5.93c-20.82-2.93-41.96,3.37-61.8,12.42
			c22.67-19.76,49.01-34.6,77.92-43.76c3.17-1,2.79-6.25-0.82-6.04c-25.02,1.45-48.07,11.48-70.38,22.24
			c-18.32,8.83-35.9,19.04-52.72,30.42c5.12-6.8,10.19-13.64,15.37-20.41c10.97-14.37,25.14-23.84,40.5-32.98
			c1.82-1.08,2.19-4.33,0-5.31c-3.29-1.47-6.71-2.16-10.18-2.37c32.2-26.85,70.17-45.25,107.12-64.8
			C840.48,243.75,839.27,239.31,836.25,239.43 M674.89,276.06c13.74-13.74,30.52-23.77,47.95-32.12
			c13.57-6.5,28.48-14.19,43.64-18.48c-21.18,13.19-41.02,28.47-58.99,45.84c-22.93,22.18-42.27,47.59-60.93,73.38
			c-1.28,1.02-2.54,2.06-3.74,3.13c-9.56,8.51-13.59,21.97-20.84,32.36c-4.98,7.13-10.75,13.6-16.57,20.04
			c-2.41-8.09-7.98-24.6-7.81-25.49c2.01-10.67,9.59-20.08,15.56-28.9c5.96-8.81,12.04-17.68,18.78-25.91
			c6.61-8.08,15.11-14.1,22.41-21.5C661.44,291.19,667.72,283.22,674.89,276.06 M664.44,750.49c-0.24-1.66-0.86-3.2-1.71-4.66
			c8.68,1.87,15.05,8.01,20.8,14.81c2.36,2.79-2.26,15-2.4,15.06c-4.71,2.22-11.59,2.07-16.69,2.74c-0.88,0.11-1.55,0.53-2.04,1.09
			c-0.2-2.61-0.5-5.26-0.28-7.6C662.78,765.18,665.42,757.34,664.44,750.49 M662.07,787c0.26-0.9,0.37-1.87,0.43-2.86
			c0.47,0.37,1.11,0.57,1.94,0.46c7.26-0.95,17.22-0.63,23.29-5.4c0.28-0.22,0.5-0.49,0.75-0.73c3.67,2.61,5.39,7.58,7.62,11.78
			c1.3,2.44,2.94,4.97,3.72,7.64c2.35,8.02-2.17,11.86-9.2,11.02c-1.45-3.18-4.14-4.46-7.2-5.89c-8.39-3.91-15.11-8.12-22.49-13.53
			C661.43,788.7,661.82,787.87,662.07,787 M679.5,808.19c4.84,2.68,5.59,4.56,5.2,10.3c-0.21,3.15-1.14,6.57-1.94,9.61
			c-1.51,5.79-3.57,11.43-6.15,16.83c-1.43,2.99-5.97,13.93-8.96,14.86c-6.2,1.93-13.03-5.48-17.13-8.96
			c-6.46-5.48-12.96-10.6-20.57-14.27c2.82-3.8,5.09-7.75,6.54-10.83c2.75-5.87,5.86-15.45,5.66-23.92
			c4.51-2.11,10.26-4.65,14.47-7.88C664.17,799.51,671.43,803.72,679.5,808.19 M411.53,936.74c6.5,5.24,15.19,9.39,23.38,8.37
			c0,0.02,0.01,0.04,0.01,0.06c-9.24,5.9-27.85,29.72-28.76,31.68c-6.61,1.38-10.9-0.33-12.86-5.14c-2.12-2.83-3.39-6.82-4.95-10
			c-3.63-7.4-7.12-14.64-8.42-22.69c9.77-0.87,9.4-21.93,11.54-33.22C390.36,918.56,402.43,929.4,411.53,936.74 M412.37,812.13
			c1.35-3.02,14.72-20.35,22.46-15.98c2.03,2.56,4.04,5.13,6.03,7.73c6.16,7.94,12.28,15.92,18.42,23.88
			c-7.94,7.84-18.13,19.17-22.73,30.59c-11.92-0.98-21.81,2.25-29.16-10.24C403.72,841.86,410.19,817,412.37,812.13 M448.78,703.8
			c-0.93,0.68-1.82,1.38-2.67,2.13c-5.35-5.86-17.17-4.73-24.22-3.71c-0.71,0.1-1.4,0.24-2.1,0.37c7.29-5.9,14.96-11.41,22.23-17.35
			c1.82-1.49,3.62-3.02,5.41-4.57C446.58,688.43,447.01,696.04,448.78,703.8 M465.84,702.5c8.37-1.58,14.75,4.33,22.25,7.59
			c-13.16,10.36-27.65,29.17-33.27,37.42c-2.44-4.92-3.23-10.01-5.54-15.6c-1.5-3.63-3.57-6.48-7.14-8.22
			c-0.41-0.2-0.82-0.36-1.24-0.52C445.37,712.94,454.62,704.62,465.84,702.5 M493.68,648.8c0.23-0.07,0.44-0.16,0.63-0.27
			c0.25,0,0.51,0,0.76,0c3.43,5.73,7.68,10.84,11.21,16.51c-17.82,9.44-38.1,18.39-52.43,32.61c-1.11-7.09-1.01-14,0.38-21.31
			C454.33,675.77,478.12,653.73,493.68,648.8 M541.13,683.23c0.02,0.05,0.04,0.09,0.06,0.14c-2.77-0.57-5.57-0.92-8.29-1.04
			c-1.51-0.07-8.87,3.06-11.69,4.23c-0.31-0.39-0.67-0.77-1.11-1.14c-1.06-0.87-1.84-0.94-2.44-2.24c-0.32-0.69-0.27-1.68-0.5-2.43
			c-0.27-0.89,0.17-3.52,0.31-4.5c0.13-0.88,2.32-3.42,2.77-4.53c4.26-10.51,13.57-14.48,23.44-17.54c0.21,0.25,0.45,0.46,0.72,0.63
			c0.77,5.12-1.52,9.67-3.49,14.38C538.86,674.08,539.25,678.3,541.13,683.23 M531.84,690.17c1.16-0.42,11.56-0.41,15.6,1.62
			c0.78,1.15,1.82,2.32,3.21,3.52c0.78,0.68,1.5,5.56,3.83,5.87c16.23,2.15-0.83,32.9-12.46,32.9
			C517.43,734.09,484.64,707.44,531.84,690.17 M550.51,655.39c-0.05-0.92-0.22-2.03-0.53-3.08c2.97-0.88,5.91-1.77,8.69-2.85
			c0.14,0.14,0.29,0.28,0.47,0.41c6.25,4.5,13.1,6.05,20.53,7.67c0.74,0.16,1.45,0.35,2.17,0.53c0.01,0.03,0.01,0.06,0.02,0.1
			c0.33,1.04-1.07,2.1-1.59,2.85c-0.67,0.95-1.2,1.96-1.56,3.07c-0.6,1.86-0.78,3.97-0.75,5.96c-11.58,0.95-27.29,5.96-31.25,13.36
			c-0.13,0.14-0.26,0.28-0.38,0.45c1.7-2.46-1.12-7.99-0.32-11.02c0.52-1.99,1.98-3.96,2.79-5.9
			C550.37,663.18,550.72,659.42,550.51,655.39 M630.55,824c-2.79,5.61-6.98,12.01-12.35,15.55c-9.56,6.3-16.18-1.47-23.45-6.85
			c-12.09-8.94-24.21-17.7-37.54-24.73c-0.42-0.22-0.83-0.34-1.23-0.37c4.68-6.38,9.38-12.74,14.03-19.13
			c2.57-3.53,6.84-8.07,9.1-12.82c7.67,0.37,15.36-0.92,21.77-5.45c8.86,3.19,11.95,16.5,21.32,18.01
			C642.46,791.48,633.66,817.74,630.55,824 M641.86,900.1c-3.74,2.63-10.6,7.45-14.87,6.41c-1.86-0.45-3.62-2.57-5.59-3.24
			c-6.64-2.26-10.73-3.9-14.66-9.98c-1.74-2.7-7.92-16.85-7.96-18.9c-0.11-5.08,2.81-9.87,3.57-14.85c0.67-4.36,0.4-8.74-0.05-13.1
			c1.22,0.73,2.46,1.41,3.71,1.98c7.1,3.19,14.17-0.96,19.88-6.98c7.56,3.48,13.92,8.36,20.29,13.76c1.63,1.38,3.34,3.04,5.13,4.68
			C648.36,858.51,653.29,892.09,641.86,900.1 M478.31,770.31c4.67,5.71,11.4,7.3,15.98,12.52l-0.08,0.12
			c-4.21,6.32-8.35,12.71-12.7,18.93c-4.67,6.67-10.15,11.14-15.62,16.9c-1.31,1.38-2.16,2.73-2.7,4.06
			c-5.67-7.35-11.35-14.71-17.02-22.06c-3.6-4.67-7.22-10.98-12.71-13.66c-0.44-0.21-0.87-0.4-1.29-0.57
			C441.22,778.1,462.09,750.48,478.31,770.31 M517.84,733.45c0.39,1.33-5.3,21.66-8.54,26.63c-3.81,5.85-7.68,11.66-11.54,17.48
			c-5.09-5.12-11.16-7.82-17.13-13.47c-6.22-5.9-11.44-12.09-19.38-15.32c4.86-7.45,10.33-14.44,16.65-20.76
			c2.49-2.49,18.84-17.73,24.9-18.63C501.42,719.98,508.56,728.8,517.84,733.45 M547.76,746.13c4.86,4.48,9.04,9.35,14.32,13.44
			c4.39,3.39,9.46,12.97,10.21,14.18c-0.13,0.63-0.3,1.28-0.56,1.97c-2.36,6.46-10,13.74-14.04,19.3
			c-4.63,6.37-9.56,12.66-14.33,19.06c-7.02-7.14-16.88-10.56-22.32-19.49c-4.67-7.67-8.65-13.61-17.13-15.12
			c3.22-4.88,6.43-9.75,9.63-14.64c5.02-7.66,10.39-15.44,11.13-24.21C532.16,736.7,542.23,741.02,547.76,746.13 M595.79,843.17
			c0.49,4.33,1.1,8.77,0.76,13.13c-0.4,5.17-2.91,9.39-3.65,14.39c-0.62,4.2,0.17,8.23,1.59,12.09c-2.83,1.29-8.31,1.5-10.41,2.1
			c-3.62,1.03-7.19,2.34-10.63,3.87c-2.03,0.9-10.64,7.17-12.28,6.76c-3.31-0.81-2.49-8.97-3.35-11.55
			c-4.41-13.23-22.85-18.15-35.05-23.03c7.99-8.24,10.58-21.71,17.03-30.9c4.26-6.07,8.62-12.08,13-18.07
			c0.23,0.52,0.66,0.98,1.31,1.32c9.98,5.27,19.33,11.44,28.47,18.05c4.33,3.13,8.74,7.12,13.31,10.65
			C595.79,842.34,595.74,842.72,595.79,843.17 M510.51,865.57c2,0.89,4.21,0.79,6.65-0.39c0.05,0.02,0.09,0.06,0.14,0.08
			c9.67,4.21,24.86,7.83,31.92,16.05c3.72,4.33,3.57,17.55,3.64,18.15c1.13,9.83,0.94,20.34-8.27,26.21
			c-6.35,4.05-15.34,5.27-22.72,4.79c-11.6-0.75-16.15-9.72-23.46-17.05c-5.01-5.03-10.6-9.32-16.52-13.22
			C494.38,892.53,505.96,875.75,510.51,865.57 M506.76,849.9c-6.86-8.5-17.93-10.89-27.38-15.24c-4.76-2.19-9.26-3.25-8.6-9.06
			c0.54-4.71,3.3-5.5,6.48-8.64c4.03-3.98,7.28-8.65,10.47-13.31c3.54-5.18,15.15-15.84,15.29-18.04
			c9.54,1.98,11.08,12.26,17.56,18.86c5.69,5.79,13.81,8.45,19.1,14.63c-3.27,4.53-6.41,9.14-9.25,13.87
			c-3.46,5.77-4.98,12.25-8.2,18.09c-2.4,4.35-6.49,8.74-11.89,4.92C509.2,855.16,507.78,851.17,506.76,849.9 M464.36,831.4
			c1.34,1.91,3.32,3.68,5.7,5.25c4.41,2.92,9.39,4.72,14.28,6.65c10.17,4.01,15.8,7.72,21.2,17.19c0.12,0.2,0.24,0.36,0.36,0.56
			c-0.13,0.18-0.25,0.39-0.34,0.62c-4.46,10.48-10.72,19.98-19.32,27.55c-5.87,5.17-12.91,10.44-20.65,7.24
			c-5.79-2.39-7.12-7.82-10.68-12.47c-1.59-2.08-3.34-3.76-5.45-5.31c-1.79-1.31-4.1-2.19-5.72-3.72c-4.66-4.43-2.91-9.34-0.59-14.3
			C448.31,849.62,455.72,839.91,464.36,831.4 M462.47,902.51c4.72,2.45,9.8,2.13,14.86,0.03c-0.12,1.06,0.24,2.17,1.37,2.92
			c5.99,3.95,11.56,8.37,16.53,13.55c3.8,3.96,11.61,13.52,12.28,14.1c3.64,3.15,0.27,14.15-0.61,17.71
			c-1.43,5.82-3.46,11.54-7.6,16.03c-4.35,4.72-11.05,7.8-17.49,5.6c-6.14-2.1-7.21-6.84-9.93-11.52
			c-6.39-10.98-17.92-15.57-29.72-18.33c0.86-0.51,1.7-1.08,2.52-1.77C456.37,931.09,452.72,913.2,462.47,902.51 M510.81,959.3
			c2.09-5.43,5.48-16.02,4.35-23.71c5.21,1.4,10.87,1.25,16.25,0.58c4.18-0.52,7.86-1.52,11.1-2.9
			c7.58,11.25,16.58,20.83,27.23,29.32c3.6,2.88,8.31,5.63,8.64,11.08c0.19,3.25-2,7.82-3.2,10.84c-2.86,7.18-6,14.98-10.67,21.21
			c-6.91,9.21-20.15,11.81-26.67,0.03c-2.97-5.36-3.72-11.34-7.68-16.2c-6.95-8.54-19.09-11.99-28.89-16.02
			C505.59,969.75,508.78,964.56,510.81,959.3 M568.72,953.93c-8.06-6.88-14.93-14.87-20.83-23.64c8.35-5.87,12.13-15.53,11.37-27.87
			c6.36,0.2,14.92-7.5,19.8-9.39c5.02-1.95,12.65-2.05,17.9-4.63c0.55,1.08,1.11,2.16,1.69,3.21c3.02,5.52,6.6,11.42,12.09,14.81
			c2.3,1.42,4.8,1.57,7.19,2.59c0.99,0.42,2.08,4.14,3.16,5.24c3.65,3.75-3.06,16.46-4.64,19.66c-2.33,4.73-5.17,9.28-8.06,13.69
			c-6.76,10.33-15.66,13.62-26.56,17.94C578.58,960.76,573.01,957.6,568.72,953.93 M600.16,762.87c-5.29,5.35-12.45,6.83-19.59,6.69
			c-0.06-1.91-0.65-3.81-2.09-5.63c-4.14-5.26-12.09-8.47-17.12-12.87c-3.71-3.25-6.84-7.35-10.34-10.9
			c0.36-0.47,10.27-16.68,13.16-24.94c1.84-5.26-0.29-12.29,6.23-15.18c4.55-2.02,16.8,3.08,21.25,4.8
			c1.48,0.57,16.47,9.81,19.2,14.4c5.57,9.35,0.42,15.27-3.17,23.91C604.86,749.95,605.72,757.25,600.16,762.87 M599.48,701.58
			c-10.95-5.64-31.3-12.99-38.72-4.47c-0.28-2.22-1.19-4.25-3.36-6.19c-0.72-0.64-1.48-1.23-2.27-1.79
			c0.17-2.33,0.34-4.66,0.51-6.99c1.85-0.78,3.75-1.42,5.69-1.92c2.37-0.71,4.78-1.28,7.19-1.83c7.69-1.77,13.72-3.61,20.98,0.3
			c2.95,1.59,5.34,3.14,8.55,4.26c1.75,0.61,4.73,0.85,6.1,2.08C608.85,689.25,603.99,698.34,599.48,701.58 M504.49,703.01
			c-2.89-0.45-6.32,0.63-10.01,2.72c-7.82-1.7-12.06-7.99-19.2-10.16c-3.3-1-6.97-0.43-10.49,0.62
			c12.57-10.01,28.2-17.3,42.38-24.69c0.27,3.51,2.23,6.37,3.61,9.68c0.77,1.85,0.66,4.05,1.65,5.79c0.53,0.93,2.1,1.75,3.13,2.6
			C510.65,692.86,506.7,697.43,504.49,703.01 M441.23,732.71c5.13,6.67,6.17,14.82,10.82,21.89c-7.53,10.54-16.04,20.16-25.65,28.95
			c-0.74,0.67-6.9,4.74-9.26,7.39c-0.27-2.35-1.3-4.65-2.87-7.28c-6.23-10.48-8.15-25.62-3.97-37.34
			c2.09-5.88,6.01-10.97,11.43-14.23c2.22-1.34,4.73-2.48,7.23-3.13C434.7,727.46,437.5,727.87,441.23,732.71 M426.32,864.67
			c2.81-0.12,5.64-0.33,8.37-0.27c-0.26,1.24-0.46,2.47-0.54,3.69c-0.32,5.07,1.6,8.39,5.45,11.52c2.09,1.7,4.65,2.71,6.76,4.37
			c3.82,3.03,5.36,6.65,7.9,10.53c1.06,1.63,2.16,3,3.3,4.19c-5.07,5.64-6.88,12.63-8.77,20.17c-1.35,5.39-2.66,11.57-6.54,15.81
			c-6.84,7.49-17.35,4.09-24.43-0.81c-11.09-7.67-25.32-21.26-17.23-35.29c6.66-11.53,16.07-21.96,24.93-31.84
			C426.1,866.1,426.33,865.37,426.32,864.67 M419.06,967.4c5.41-7.86,13.89-13.85,21.96-18.79c5.8,1.32,11.56,3.03,16.61,6.21
			c7.18,4.52,8.6,10.51,13.24,16.77c5,6.75,13.61,9.07,21.62,6.77c1.74-0.5,4.14-1.08,3.69-0.86
			c-12.03,5.74-25.99,12.35-32.88,24.51c-0.4,0.71-0.74,1.4-1.05,2.07c-0.26,0.07-0.52,0.17-0.79,0.33
			c-5.28,3.12-6.63,7.05-10.4,11.3c-9.95,11.21-23.78-5.1-28.45-14.1C417.05,990.89,411.38,978.54,419.06,967.4 M473.95,998.43
			c7.02-7.07,16.46-11.39,25.33-15.62c1.35-0.64,23.18,4.54,28.43,14.49c3.49,6.61,4.43,13.86,10.78,18.6
			c0.03,0.02,0.07,0.04,0.1,0.07c-4.13,3.01-7.64,6.54-11.13,10.15c-3.12,2.54-6.12,5.15-8.54,8.27
			c-12.2,9.78-24.32,6.55-36.01-4.02c-3.23-2.92-6.42-5.85-9.72-8.69C465.34,1014.94,467.33,1005.1,473.95,998.43 M533.77,1041.34
			c3.81-7.13,9.74-12.8,13.48-20.02c0.28-0.54,0.37-1.07,0.36-1.57c5.05,0.72,16.2-3.13,17.14-3.66
			c6.84-3.86,26.23,20.15,32.19,23.73c1.03,0.62,2.12,1.18,3.22,1.69c-8.86,13.4-30.95,24.55-45.94,24.84
			C539.83,1066.63,524.96,1057.84,533.77,1041.34 M578.7,1015.58c-2.96-2.66-6.05-5.11-9.42-5.95c0.03-0.04,0.07-0.09,0.11-0.13
			c4.52-6.02,7.5-13.28,10.39-20.18c2.34-5.6,5.5-11.94,4.42-18.12c6.47-2.41,13.6-4.57,19.22-8.45c0.98-0.68,1.89-1.46,2.76-2.28
			c0.02,1.52,20.25,11.04,26.74,15.16c5.71,3.63,9.27,9.68,14.94,13.16c1.69,1.04,3.35,1.68,4.97,2.02
			c-7.3,6.57-14.29,13.48-20.73,20.89c-2.95,3.4-5.94,6.92-8.05,10.92c-3.36,6.38-3.64,14.2-12.59,14.98
			C598.57,1038.75,587.43,1023.44,578.7,1015.58 M649.44,982.25c-1.94-1.15-3.45-3.64-5-5.23c-3.3-3.4-6.82-5.7-10.91-8.08
			c-7.84-4.55-14.63-12.34-24.26-11.79c2.76-3.42,5.01-7.34,7.22-10.94c4.35-7.09,14.67-22.86,11.2-32.65
			c4.61-0.01,9.89-2.48,14.71-5.82c0.11,0.15,0.22,0.29,0.36,0.43c2.94,2.83,6.03,4.55,9.8,6.08c8.55,3.45,14.86,7.68,17.39,17.11
			c0.41,1.55,0.5,34.71-4.07,44.32C662.99,981.78,659.05,987.94,649.44,982.25 M667.52,915.05c-5.97-5.29-14.45-5.63-20.25-11.09
			c3.85-3.33,7.06-6.92,8.84-9.72c6.28-9.87,6.2-23.12-1.71-31.69c2.2,1.81,4.5,3.4,6.92,4.29c5.25,1.94,9.56-0.88,13-5.16
			c6.31,4.83,13.07,9.49,18.83,14.88c7.95,7.44,8.01,16.72,5.56,26.92c-2.06,8.59-4.07,17.53-12.09,22.49
			c-3.47,2.15-7.02,3.69-10.34,5.76c-0.01-0.06-0.02-0.12-0.03-0.18C674.99,925.39,672.31,919.3,667.52,915.05 M657.62,760.14
			c-0.48,3.94-1.25,7.84-1.65,11.79c-0.34,3.37,0.88,8.38-0.01,11.34c-1.61,5.35-8.6,9.13-14.74,12.14c-0.85-2.88-2.3-5.42-4.6-7.33
			c-3.01-2.48-6.9-3.23-10.35-4.84c-4.08-1.91-6.77-4.42-9.74-7.74c-3.47-3.89-6.5-7.49-10.77-9.83c3.83-4.87,4.44-10.34,6.42-17.06
			c1.79-6.07,5.41-10.7,6.93-16.14c8.13,0.19,23.9,6.56,26,6.41c0.41-0.03,6.03,3.82,7.83,5.64
			C658.04,749.67,658.46,753.29,657.62,760.14 M647.67,732.21c-9.08-6.8-17.5-5.49-27.91-5.84c-0.07-0.92-0.18-1.86-0.41-2.85
			c-1.79-7.81-7.78-14.27-14.27-18.67c3.53-3.16,6.46-7.66,7.43-12.22c10.18,3.52,20.41,6.79,29.51,12.67
			c3.27,2.11,6.65,3.45,10.05,5.31c12.94,7.08,5.74,10.29,6.01,14.3C656.8,728.17,651.51,731.05,647.67,732.21 M642.65,698.37
			c-9.17-5.8-20.06-8.75-30.28-12.29c-0.14-0.47-0.3-0.94-0.5-1.4c-1.45-3.27-4.27-4.93-7.45-6.23c-3.23-1.33-6.55-1.88-9.66-3.57
			c-2.15-1.17-3.8-3.07-6.09-4.01c-0.94-0.39-2.14-0.65-3.53-0.82c-0.31-0.25-0.64-0.44-1.01-0.56c0-0.01,0-0.02,0-0.04
			c0.19-0.7,0.05-1.62,0.18-2.37c0.26-1.51,0.94-2.49,1.84-3.68c0.84-1.12,1.48-2.28,1.77-3.52c5.68,2.01,10.86,4.71,16.26,8.24
			c8.38,5.47,16.74,10.95,25.1,16.44c7.24,4.75,14.99,9.35,19.3,16.88C646.45,700.47,644.4,699.48,642.65,698.37 M617.33,669.39
			c-8.17-5.35-16.24-11.74-25.51-15.07c-8.78-3.15-18.12-3.37-26.29-7.73c0.3-0.74,0.27-1.62-0.29-2.52
			c-2.65-4.24-5.26-8.2-8.11-11.01c17.7-7.61,46.82,14.9,55.74,22.36c7.52,6.3,14.82,12.91,21.7,19.91
			c3.49,3.55,6.26,7.15,8.54,10.95C635.12,679.72,625.35,674.64,617.33,669.39 M557.39,643.4c-10.63,4.6-22.2,6.46-31.16,12.25
			c1.79-2.49,3.76-4.89,5.89-7.23c2.78-3.06,5.69-6.11,8.74-8.91C547.76,633.2,553.25,637.73,557.39,643.4 M515,662.84
			c-0.68-0.71-4.04-3.27-4.79-4.44c-2.99-4.64-10.05-14.15-10.28-14.55c7.26-2.72,14.73-6.09,22.29-7.47
			c4.64-0.85,9.47-1.14,14.33-1.25C527.91,642.9,519.66,652.13,515,662.84 M508.66,588.19c-2.08-3.97-7.37-7.49-9.7-11.28
			c-4.16-6.76-6.32-14.79-7.72-22.54c-2.84-15.7,3.98-48.82,4.17-49.97c8.82,11.24,22.7,19.85,33.33,28.57
			c4.16,3.41,18.62,16.26,19.96,18.5c3.71,6.22,3.76,13.77,6.3,20.49C538.77,574.86,522.17,579.35,508.66,588.19 M566.3,576.4
			c12.15-2.09,25.02-3.36,37.11-0.2c8.47,2.22,15.74,6.66,22.51,11.9c-15.61-3.53-31.81-3.68-47.6-0.09
			c-14.51,3.3-27.44,9.93-39.52,18.11c-4.45,1.79-13.18,9.69-14.35,10.62c-5.66-6.83-11.71-13.45-18.67-18.76
			C522.13,583.93,545.64,579.96,566.3,576.4 M518.15,516.37c-7.76-6.37-16.62-12.27-21.57-21.22c-1.05-1.89-4.33-2.12-5.31,0
			c-0.11,0.24-0.21,0.48-0.31,0.72c-10.75-15.16-27.05-23.79-43.67-31.94c1.33-10.66-6.59-21.93-11.62-30.79
			c-3.27-5.75-6.75-11.39-10.29-16.98c3.67,2.1,7.45,4.05,11.06,6.11c6.72,3.82,13.43,7.76,19.62,12.42
			c0.1,0.07,0.19,0.15,0.28,0.23c0.2,0.34,13.73,13.65,19.31,19.38c6.41,6.58,14.23,11.52,20.64,18.16
			c6.19,6.41,11.69,13.44,17.09,20.52c9.7,12.7,19.45,25.51,25.37,40.29C531.89,527.62,525.02,522,518.15,516.37 M488.19,502.84
			c-2.57,7.45-4.04,15.11-4.61,22.89c-3.08-3.06-6.71-5.42-10.39-8.26c-9.03-6.96-13.28-18.03-19.28-27.42
			c-5.22-8.17-10.75-16.15-16.26-24.12C456.97,475.23,476.88,484.21,488.19,502.84 M523.7,452.38c-1.46-16.02-4.11-33.29,2.16-48.35
			c6.06-14.56,14.91-27.41,25.69-38.86c3.78-4.02,7.7-7.95,10.71-12.61c2.92-4.54,4.98-9.52,7.51-14.26
			c11.53,21.74,24.36,43.49,30.76,67.3c-2.51,2.8-4.98,5.62-7.37,8.52c-8.43,10.25-16.18,21.04-23.6,32.04
			c-12.02,17.82-26.64,36.77-33.7,57.69C531.66,487.13,525.27,469.57,523.7,452.38 M629.7,268.31
			c15.54-23.11,36.83-40.99,53.31-63.35c8.34-11.31,16.56-21.78,28.13-29.96c11.24-7.94,21.02-15.82,30.48-25.91
			c13-13.87,25.87-27.9,37.51-42.9c-13.15,29.81-32.46,56.52-51.72,82.81c-12.24,16.71-24.52,33.41-38.17,49.01
			c-11.19,12.78-22.78,25.06-27.76,41.69c-0.2,0.66-7.51,10.3-11.5,14.35c-8.14,8.26-17.33,14.98-24.54,24.17
			c-6.59,8.39-12.72,17.18-18.66,26.03c-5.19,7.74-11.2,15.59-14.04,24.55c-3.24-6.64-9.01-20.96-8.94-22.03
			c0.96-14.46,13.65-28.85,21.2-40.66C613.11,293.44,621.3,280.8,629.7,268.31 M704.06,130.92c-13.53,9.88-26.06,20.68-37.18,33.67
			c-8.04,9.4-16.72,19.3-24.03,29.89c1.78-6.55,3.57-13.09,5.4-19.62c0.63-2.25,1.25-4.5,1.88-6.75c0.03-0.03,0.07-0.04,0.1-0.07
			C666.69,153.56,683.8,138.99,704.06,130.92 M618.16,188.8c14.96-32.96,30.08-66.94,54.53-93.84c-4.55,9.37-9.1,18.74-13.49,28.18
			c-6.93,14.9-11.36,30.41-15.8,46.2c-9.63,34.25-18.62,68.67-27.03,103.23c-0.33,1.36-15.13,27.93-23.05,40.47
			c-1.91,3.03-3.94,6.05-5.9,9.12C584.18,302.4,608.45,210.2,618.16,188.8 M584.25,223.88c7.32-11.75,15.95-22.4,25.81-32.01
			c-0.18,0.39-0.35,0.78-0.53,1.17c-7.69,17.02-16.28,34.07-22.19,51.9c-1.4-6.97-2.3-13.99-3.11-21.04
			C584.23,223.9,584.24,223.89,584.25,223.88 M553.13,207.37c0.04-16.92,0.51-33.57,3.55-50.27c0.89-4.91,1.83-9.77,2.64-14.64
			c4.06,15.4,10.21,30.71,13.55,45.64c5.12,22.85,4.53,46.19,11,68.71c-0.1,0.41-0.22,0.82-0.32,1.23
			c-2.81,11.63-4.24,23.44-4.4,35.27c-3.95-9.14-6.41-17.84-8.6-27.62C566.28,246.62,553.12,208.11,553.13,207.37 M506.66,152.64
			c0.69,1.03,1.39,2.05,2.11,3.04c4.15,5.69,9.13,10.64,13.89,15.82c12.43,13.55,20.46,29.38,26.75,46.57
			c5.87,16.05,11.45,32.58,15.21,49.27c1.75,7.77,3.19,15.29,6.29,22.67c3.82,9.1,8.69,17.53,9.61,27.55
			c0.02,0.25,0.07,0.48,0.14,0.69c0.4,3.04,0.88,6.07,1.44,9.09c0.17,0.89-2.68,9.81-3.66,14.15c-1.98-3.68-3.94-7.36-5.86-11.04
			c-1.13-2.17-4.1-1.81-5.31,0c-3.96,5.92-22.63,32.85-26.8,37.86c-3.44,4.13-6.64,8.48-9.58,13.01
			c-1.18-19.73,1.24-39.44-1.14-59.22c-2.66-22.18-6.17-44.26-9.13-66.4c-3.16-23.6-5.35-47.16-7.17-70.89
			C512.61,173.94,506.02,152.8,506.66,152.64 M489.61,187.86c-4.47-17.76-8.51-35.5-15.84-52.34c-7.8-17.92-14.01-35.47-19.95-54.07
			c-0.92-2.87-1.91-5.71-2.99-8.49c5.8,7.96,11.22,16.27,17.43,24.09c6.88,8.66,15.38,15.59,21.33,25.04
			c2.04,3.24,3.88,6.59,5.59,10c-0.92-0.45-1.87-0.86-2.86-1.2c-2.53-0.87-4.86,2.31-3.47,4.52c11.51,18.21,17.57,37.51,19.03,58.79
			c1.48,21.66,4.12,43.22,7.02,64.72c1.78,13.23,3.77,26.44,5.63,39.66c-5.26-17.08-16.24-52.43-16.49-53.39
			C499.24,226.08,494.43,206.97,489.61,187.86 M442.42,166.53c-10.71-19.16-25-35.42-36.67-53.83c-5.33-8.4-7.75-18.08-13.62-26.14
			c9.52,7.58,18.91,15.3,27.07,24.38c17.92,19.96,32.58,44.28,45.27,67.81c12.52,23.21,22.16,47.93,33.73,71.64
			c11.59,23.76,14.23,50.36,25.68,74.07c1.79,16.24,0.34,32.46,0.58,48.67c-4.31-18.45-8.88-37.89-19.95-52.46
			c-5.06-6.67-13.34-22.25-13.68-23.04c-9.92-23.28-15.17-48.03-22.85-72.06C461.45,205.12,452.9,185.29,442.42,166.53
			 M381.28,146.41c30.04,21.58,56.63,47.63,78.84,77.44c0.32,0.43,3.22,7.42,4.2,10.68c2.77,9.23,5.33,18.52,8.02,27.75
			c-1.52-3.28-3.05-6.56-4.62-9.83c-10.03-21.05-23.01-37.49-40.63-52.77c-6.11-5.3-18.24-17.24-18.83-18.18
			C400.35,168.9,391.31,157.2,381.28,146.41 M385.33,172.41c5.87,4.44,11.23,9.71,16.82,14.41c8.13,6.83,16.44,13.44,24.35,20.52
			c17.84,15.97,29.05,33.76,39.22,55.19c9.31,19.61,17.2,40.65,30.73,57.78c15.78,19.98,19.56,47.03,26.19,71.13
			c0.25,0.89-2.83,10.78-4.5,15.44c-2.25,6.32-3.03,11.98-2.52,18.41c-5.59-15.86-19.19-46.26-19.95-48.24
			c-7.85-20.33-16.51-40.34-26.13-59.9c-10.16-20.67-20.7-41.89-34.74-60.24c-8.64-11.29-15.85-22.71-22.41-34.82
			c-0.1-0.41-0.32-0.82-0.65-1.2c-2.5-4.67-4.92-9.43-7.28-14.35C398.78,194.7,392.87,183.04,385.33,172.41 M376.19,203.18
			c-4.9-6.2-9.78-12.46-14.73-18.67c15.48,12.81,58.64,63.36,67.16,74.41c24.3,31.54,41.61,70.32,56.37,107.64
			c-8.25-14.93-14.83-30.74-23.26-45.63c-9.98-17.62-20.11-34.24-34.29-48.84C420.45,264.9,387.42,217.37,376.19,203.18
			 M390.28,247.28c11.59,8.95,22.59,18.64,32.82,29.16c14.68,15.1,24.99,32.62,35.19,50.89c9.33,16.71,16.13,34.68,26.35,50.88
			c11.04,17.49,20.77,34.59,27,54.47c0.73,2.35,5.37,14.94,6.15,21.65c0.68,5.85,1.84,11.71,3.21,17.57
			c-1.62-6.68-3.29-13.33-6.08-19.65c-4.3-9.73-11.75-17.22-17.58-25.98c-5.44-8.16-9.64-17.06-14.54-25.54
			c-2.1-3.64-6.82-11.84-7.15-12.48C450.72,339.78,421.82,292.06,390.28,247.28 M479.02,406.53c4.53,8.1,8.62,16.46,13.89,24.12
			c5.95,8.66,13.17,16.12,17.17,25.99c4.17,10.29,5.61,21.4,9,31.94c0.35,1.09,0.73,2.17,1.11,3.24
			c-8.93-11.83-18.12-23.52-29.64-32.96c-10.54-8.63-18.91-19.27-29.4-27.85c-12.58-20.59-25.36-41.07-37.68-61.81
			c-0.15-0.48-0.41-0.93-0.77-1.29c-0.14-0.23-0.28-0.47-0.42-0.7c-4.78-8.08-8.58-16.39-12.32-24.92
			c10.09,6.86,20.53,13.08,28.49,22.64c5.6,6.73,12.48,10.6,19.5,15.65C467.28,387.27,473.49,396.64,479.02,406.53 M395.93,345.87
			c-2.86-4.53-4.89-9.3-8.27-13.54c-7.4-9.31-17.24-16.29-24.77-25.51c-8.09-9.9-15.97-17.97-26.57-25.21
			c-5.91-4.04-11.83-8.05-17.76-12.05c25.78,9.65,50.54,21.85,73.8,36.67c14.28,9.09,30.69,18.36,39.17,33.47
			c4.89,8.72,9.59,16.89,15.13,24.6c-1.71-1.56-3.37-3.21-4.88-5.1c-5.1-6.37-10.27-10.61-17.45-14.55
			c-7.37-4.04-14.07-8.52-20.21-13.87c-2.39-3.6-5.33-6.71-9.35-9.14c-3.1-1.87-5.96,2.28-3.73,4.83c2.5,2.84,5.2,5.38,8.02,7.74
			c3.12,4.67,5.01,10.24,7.25,15.51c1.6,3.78,3.4,7.44,5.32,11.05C405.53,356.68,399.95,352.25,395.93,345.87 M408.67,368.32
			c1.73,0.95,3.37,2.2,5.03,3.05c1.61,0.83,3.2,1.35,4.9,1.62c0.67,1.11,1.32,2.23,2,3.34c7.69,12.66,15.42,25.3,23.15,37.95
			c-8.77-8.68-17.69-17.23-26.75-25.61c0-0.05,0-0.09,0-0.14c-0.47-4.72-0.96-9.58-3.1-13.89
			C412.67,372.18,410.58,370.3,408.67,368.32 M388.71,390.46c-9.25-10.33-18.14-19.42-25.26-31.45c-2.17-3.66-4.36-7.23-6.78-10.57
			c13.55,7.7,25.72,17.66,37.51,27.98c14.06,12.31,27.71,25.06,41.06,38.13c-0.51-0.28-1.01-0.57-1.52-0.86
			c-5.85-3.28-12.35-6.45-17.13-11.2c-1.93-2.97-3.87-5.95-5.78-8.93c-1.78-2.78-6.93-1.04-5.62,2.37c0.1,0.25,0.22,0.48,0.32,0.73
			c0,0-0.01,0-0.01,0c0.01,0.02,0.02,0.04,0.03,0.05c1.43,3.42,3.39,6.33,5.72,8.88c4.8,7.44,9.61,14.88,14.22,22.43
			c4.47,7.32,14.16,20.31,15.71,30.33c-5.99-3.13-13.4-13.22-16.36-17.19c-4.33-5.82-7.08-12.4-10.88-18.53
			C406.89,411.22,397.65,400.44,388.71,390.46 M389.74,415.4l0.04,0.01c3.86,0.68,10,0.7,13.05,3.51c0.56,0.51,3.96,3.9,4.98,5.48
			c3.95,6.14,6.7,12.93,10.93,18.9c1.75,2.47,3.83,5.4,6.16,8.32c-1.64-0.97-3.45-1.74-5.53-2.21c-1.2-0.27-6.56-1.76-8.45-2.96
			C408.83,434.42,399.8,423.55,389.74,415.4 M383.54,455.27c-6.83-3.7-14.08-7.04-19.82-12.4c-5.51-5.14-9.3-11.72-13.66-17.8
			c-3.18-4.43-6.77-8.26-10.64-11.75c13.08,6.48,25.16,14.9,37.27,23.26c8.41,5.81,16.22,8.43,25.52,12.29
			c1.04,0.43,18.34,12.02,24.92,14.35c0.66,0.23,10,12.87,13.35,17.79c4.79,7.05,9.54,14.11,13.78,21.5
			c3.26,5.69,6.21,11.62,10.93,16.28c5.72,5.65,13.43,8.51,17.5,15.8c0.17,0.31,0.38,0.55,0.6,0.76c0.07,4.69,0.43,9.4,1.03,14.11
			c0.52,4.05,1.25,8.08,2.22,12.04c-12.3-11.9-22.7-25.68-35.59-36.99c-2.1-1.84-4.59-7.46-5.73-9.02
			C428.8,493.07,408.27,468.68,383.54,455.27 M413.41,518.86c-5.78-2.94-10.95-2.57-17.14-3.45c-9.55-1.36-16.54-8.96-23.73-14.75
			c-12.9-10.41-24.77-19.85-33.8-33.97c-1.86-2.91-3.72-5.75-5.69-8.45c7.13,2.62,13.99,5.7,20.67,9.48
			c15.86,8.99,30.19,20.33,45.13,30.72c14.99,10.43,32.63,17.52,46.53,29.34c12.7,10.8,22.88,24.16,34.63,35.95
			c-9.84-4.68-19.69-9.48-29.77-13.5c-0.32-0.13-0.64-0.23-0.95-0.34c-0.08-0.09-0.14-0.19-0.24-0.28
			C438.33,539.11,426.97,525.76,413.41,518.86 M444.29,554.56c6.5,1.89,12.93,4.69,19.28,7.73c-5.53-2.21-11.58-1.58-17.46-2.69
			c-8.56-1.61-16.75-4.75-24.93-7.62c-0.72-0.25-1.43-0.5-2.15-0.75C427.4,552.85,435.74,552.07,444.29,554.56 M359.72,523.75
			c16.63,8.27,33.04,17.06,50,24.46c-4.48-1.32-9.02-2.42-13.67-3.05c-4.8-0.65-14.91-4.17-16.51-4.82
			C370.37,536.63,365.1,530.75,359.72,523.75 M348.5,546.28c-4.1-3.48-8.25-6.9-12.42-10.3c8.63,3.61,17.29,7.17,26.05,10.36
			c15.47,5.62,31.75,3.43,47.46,8.23c13.55,4.14,26.58,10.24,40.8,11.85c4.99,0.56,9.13,1.19,13.68,3.27
			c2.01,0.92,3.67,2.27,5.84,3.02c7.6,2.65,31.8,15.79,33.2,18.18c-0.01,0.41,0.06,0.81,0.19,1.19c-0.93,0.74-1.86,1.49-2.74,2.29
			c-4.12-2.55-8.55-4.64-13.4-6.05c-5.94-1.72-12.07-2.49-17.96-4.45c-5.11-1.7-9.95-3.9-15.31-4.78
			c-11.07-1.82-22.33,0.4-33.46-1.16c-10.74-1.51-21.12-4.8-31.88-6.19c-4.89-0.63-9.8-0.93-14.72-1.01
			C363.48,564.42,357.6,554.02,348.5,546.28 M438.48,603.38c-6.9-1.39-13.51-3.9-20.14-6.2c-12.41-4.29-24.82-7.15-37.92-8.25
			c-14.13-1.19-28.33-0.68-42.48-0.05c-8.16,0.37-16.14,0.77-23.85,2.6c4.77-4.78,10.11-8.83,16.86-10.99
			c9.97-3.18,21.29-3.1,31.66-3.47c11.66-0.42,23.01,0.09,34.48,2.39c8.26,1.66,16.37,3.95,24.77,4.93
			c9.21,1.07,18.4-0.42,27.59,0.41c10.36,0.93,20.5,5.81,30.64,8.18c16.12,3.78,27.25,13.46,37.43,25.16
			c-2.3-1.29-4.53-2.72-6.59-4.52c-8.12-7.1-15.87-9.56-26.66-11.1c-12.5-1.79-25.12-1.27-36.52,2.83
			C445.03,603.8,441.9,604.06,438.48,603.38 M443.94,613.62c0.55-0.29,2.51-0.72,2.94-0.84c1.27-0.35,30-5.99,43.6-3.03
			c9.52,2.07,13.81,7.6,21.31,12.86c4.47,3.13,9.78,4.48,14.45,7.12c-0.99,0.1-1.97,0.21-2.95,0.33c-9.2,1.2-18.11,5.4-26.79,8.52
			C495.84,638.03,461.78,614.71,443.94,613.62 M370.99,690.15c7.41-14.72,16.62-29.17,28.6-39.95c16.67-15,40.86-21.79,62.73-23.77
			c0.45-0.04,0.84-0.16,1.18-0.34c9.45,4.84,18.53,11.48,26.29,16.27c-22.49-0.01-45.5,0.91-66.45,9.71
			C403.8,660.31,387.11,675.77,370.99,690.15 M438.61,655.75c1.37-0.54,27.35-6.89,40.2-7.14c-14.32,7.85-26.04,19.63-38.68,30.24
			c-13.05,10.96-27.37,20.31-39.02,32.57C407.59,689.28,417.18,664.29,438.61,655.75 M408.27,714.29c5.59-5.75,27-10.9,33.51-3.96
			c-2.85,3.39-5.19,7.27-6.99,11.65c-6.73-0.16-13.84,2.88-18.89,6.67c-7.7,5.78-12.06,14.23-13.28,23.57
			c-0.35-0.38-0.82-0.68-1.46-0.84C387.93,748.1,402.37,720.36,408.27,714.29 M390.36,782.26c1.31-8.39-1.48-19.81,7.85-24.26
			c0.44-0.21,1.21-0.71,1.31-0.69c1.15,0.29,3.2,10.57,4.08,16.07c0.66,4.13,6.68,16.97,6.55,21.22
			c-7.14-2.01-16.65-3.86-23.71-2.38C388.09,789.09,389.78,785.93,390.36,782.26 M379.37,819.52c1.34-4.29,2.33-8.51,3.28-12.88
			c0.85-3.93,1.4-6.49,5.53-7.79c2.41-0.75,5.58-0.36,8.1-0.23c4.94,0.26,9.69,1.16,14.36,2.54c-1.38,2.82-2.56,5.58-3.58,7.86
			c-2.29,5.13-4.65,9.84-6.43,14.42c-8.01-1.48-18.57,4.87-24.51,10.15C375.28,829.76,378.46,822.44,379.37,819.52 M374.13,847.4
			c1.2-4.31,4.03-7.69,7.56-10.31c2.98-2.21,11.81-8.15,17.06-7.86c-1.76,6.95-1.48,13.92,3.33,21.97c1.75,2.93,3.63,5.86,6.02,8.23
			c-5.48-0.47-9.79-3.16-16-4.42c-4.69-0.96-9.7,0.3-14.11,1.89c-0.88,0.32-1.75,0.67-2.58,1.07c-0.25-0.19-0.53-0.36-0.86-0.48
			C372.41,856.71,373.72,848.88,374.13,847.4 M380.78,862.46c8.17-2.82,14.05,1.21,21.5,2.89c5.11,1.15,9.91,0.65,14.91-0.76
			c0.22-0.06,0.41-0.14,0.59-0.23c0.49,0.08,0.98,0.15,1.48,0.2c-5.25,5.94-18.27,19.56-19.2,20.55c-1.72,1.84-3.77,4.67-6.05,5.9
			c-8.44,4.53-10.02-0.14-13.63-5.26C375.34,878.61,368.14,866.82,380.78,862.46 M375.02,923.89c-0.03-1.97-0.06-3.94-0.09-5.91
			c-0.06-3.94-0.12-7.87-0.18-11.81c-0.08-5.56-0.17-11.12-0.25-16.67c2.75,3.85,5.86,7.18,8.76,8.99c1,0.62,1.98,1.02,2.94,1.28
			c-0.21,0.67-0.41,1.36-0.58,2.13c-1.1,4.82,0.46,17.23-2.43,21.1C377.19,928,374.47,928.29,375.02,923.89 M401.31,1014.08
			c-2.76-4.61-3.19-8.88-4.16-14.44c-1.47-8.48-6.51-13.86-10.57-21.27c-3.89-7.11-6.43-14.68-7.82-22.54
			c0.26,0.59,0.51,1.18,0.78,1.77c3.35,7.3,6.48,16.38,11.85,22.46c6.23,7.06,13.04,6.43,17.67,1.77c0.36,3.5,1.34,6.97,2.6,10.36
			c-0.26,0.12-0.52,0.27-0.76,0.48C404.05,998.54,401.3,1006.11,401.31,1014.08 M432.45,1054.97c-8.69-1.07-17.26-17.23-20.66-24.27
			c-5.25-10.9-6.83-23.68,2.34-32.62c0.81,1.76,1.64,3.49,2.47,5.18c5.46,11.19,13.99,19.3,26.07,23.09
			c2.33,0.73,4.22,0.81,5.84,0.47c-0.61,1.23-1.21,2.47-1.75,3.76C443.9,1037.51,443.89,1056.38,432.45,1054.97 M511.35,1076.41
			c-1.71,0.16-7-2.72-8.84-3.13c-12.49-2.8-54.69,6.3-55.21-15.18c-0.01-0.44-0.11-0.82-0.25-1.16c1.9-4.76,1.46-11.09,2.61-15.63
			c2.25-8.9,6.49-16.93,12.24-24.07c0.05-0.06,0.08-0.13,0.13-0.19c2.24,4.74,6.85,8.82,11.71,13.2
			c9.11,8.21,18.89,18.24,32.26,17.01c3.22-0.3,12.17-0.15,13.75-1.67c0.28-0.27-2.67,10.35-3.53,16.23
			C515.68,1065.39,516.95,1075.87,511.35,1076.41 M555.72,1083.83c-2.97,0.05-5.91-0.22-8.82-0.81c-3.32-0.53-6.58-1.36-9.91-1.79
			c-5.71-0.74-11.18-1.04-16.68-2.03c1.14-2.56,1.05-5.71,1.21-8.37c0.38-6.33,1.38-12.33,3.07-18.21
			c0.62,10.27,9.28,16.42,18.98,18.77C546.92,1072.2,563.2,1084.38,555.72,1083.83 M628.99,1077.05
			c-4.25,2.51-12.47,1.85-17.49,2.41c-3.67,0.41-7.35,0.78-11.02,1.27c-8.59,1.13-21.98,6.71-30.69,3.7
			c3.19-4.6-0.41-10.44-5.83-13.17c4.89-1.12,9.65-2.92,14.14-5.21c8.51-4.33,19.12-10.87,25.56-18.93
			c2.9,3.98,6.65,5.97,11.41,8.12c4.05,1.83,8.17,3.41,12.13,5.46c2.21,1.16,4.39,2.39,6.52,3.69
			C636.29,1072.51,634.71,1076.72,628.99,1077.05 M682.73,1036.84c-5.26,6.49-11.17,12.68-18.73,16.42
			c-7.57,3.75-15.83,6.39-20.22,12.65c-0.44-0.92-1.01-1.83-1.75-2.71c-8.1-9.64-25.66-9.62-33.09-19.31
			c3.15,0.25,6.32-0.19,9.33-1.59c9.29-4.34,10.12-16.39,16.09-23.79c7.22-8.95,15.65-17.06,24.31-24.68
			c0.02,0.02,0.02,0.04,0.03,0.07c4.09,5.82,14.38,19.42,15.42,19.96c3.05,1.56,11.62,4.17,13.49,6.93
			C691.34,1026.29,685.89,1032.95,682.73,1036.84 M702.29,992.62c-2.25,5.44-7.89,11.42-13.45,13.96
			c-13.6,6.23-18.82-7.24-24.84-15.8c-0.26-0.37-0.56-0.64-0.88-0.85c0.71-0.61,0.99-1.31,1-2c3.15-2.41,5.76-5.94,7.52-9.86
			c4.92-10.95,6.78-26.63,5.57-39.58c0.36-0.3,0.73-0.58,1.11-0.86C679.12,938.93,724.44,939.05,702.29,992.62 M719.23,912.23
			c-0.38,3.48-2.2,24.07-5.92,30.14c-5.04-8.28-13.49-12.44-22.47-11.95c2.42-1.53,4.67-3.31,6.47-5.76
			c5.19-7.04,7.36-17.44,8.62-25.9c0.55-3.68,0.49-6.97,0-9.99c3.38-1.65,6.38-3.83,8.85-6.51c0.25,0.09,0.52,0.15,0.82,0.18
			C723.71,883.05,719.78,907.17,719.23,912.23 M714.61,841.3c-1.46,15.35,5.65,32.47-10.41,41.44
			c-4.56-10.95-15.83-17.85-26.5-26.11c2.1-3.66,3.75-7.48,4.96-10.12c2.96-6.43,5.29-13.17,6.83-20.08
			c0.72-3.21,1.9-7.44,2.07-11.39c1.93,0.03,3.81-0.22,5.57-0.7c0.04,0.34,0.11,0.69,0.27,1.05c1.55,3.44,3.62,5.56,6.61,7.85
			C711.2,828.72,715.63,830.58,714.61,841.3 M690.13,756.74c1.58,3.42,3.9,5.76,6.67,8.81c5.44,5.96,9.47,12.54,11.49,20.42
			c2.96,11.52,0.91,23.42,3.33,34.95c-3.53-2.31-7.08-4.57-8.91-8.63c-0.08-0.18-0.18-0.33-0.27-0.48
			c3.77-2.84,5.76-7.49,4.07-13.69c-1.83-6.67-6.2-13.02-9.46-19.05c-1.94-3.59-3.27-5.52-5.16-6.65c0.8-3.22,0.63-6.78-0.07-9.98
			c-0.5-2.3-1.15-3.6-2.74-5.28C689.44,757.02,689.79,756.88,690.13,756.74 M666.17,696.9c1.43,1.6,1.95,8.39,2.59,10.46
			c1.79,5.72,5.36,10.01,8.54,14.96c3.39,5.28,4.24,11.07,6.79,16.63c0.99,2.15,2.7,3.9,3.69,5.99c2.38,5.06,0.53,5.73-3.26,7.51
			c-1.86-1.88-3.76-3.74-5.62-5.4c-5.54-4.96-12.36-7.32-19.68-7.86c-0.76-0.06-1.37,0.13-1.83,0.46c-1.3-1.14-2.67-2.23-4.04-3.25
			c9.66-4.82,18.87-15.66,11.63-24.94c-1.14-1.47-4.02-4.85-4.12-5.43C660.41,703.49,660.47,690.53,666.17,696.9 M655.99,677.76
			c3.27,2.24,5.22,5.65,5.76,9.43c-0.01,0-0.01,0-0.02,0c-4.2,1.5-6.17,6.05-6.89,10.8c-2.9-9.83-7.22-17.91-14.75-25.8
			c-3.27-3.42-6.69-6.71-10.17-9.95C638.63,665.26,654.66,676.85,655.99,677.76 M629.24,650.18c8.93,4.62,16.81,9.1,23.25,15.64
			c-10.25-5.65-20.84-10.42-32.57-12.65c-0.09-0.02-0.17-0.01-0.26-0.02c-3.65-3.09-7.35-6.12-11.1-9.05
			c-4.31-3.37-8.54-6.43-13-8.98C607.8,636.62,618.2,644.47,629.24,650.18 M659.83,633.26c6.26,3.93,11.75,8.91,17.14,13.95
			c-8.94-5.58-18.5-10.18-28.56-13.69c-11.8-4.12-25.34-7.33-38.74-7.98C626.98,623.61,644.44,623.59,659.83,633.26 M580.06,628.91
			c-0.05,0.02-0.08,0.05-0.12,0.07c-0.8-0.17-1.59-0.37-2.42-0.51c-8.02-1.3-19.91-3.55-27.77,0.38c-4.77,0.11-9.6,0.13-14.41,0.3
			c-0.16-0.34-0.4-0.68-0.75-0.99c-1.46-1.3-5.97-6.29-6.28-6.68c0.44-0.35,13.42-9.77,17.53-12.26c6.8-2.39,14.34-4.04,17.51-5.01
			c11.03-3.39,22.52-6.12,34.14-5.82c16.11,0.41,32.34,6.45,47.92,12.25C629.97,612.11,586.09,626,580.06,628.91 M724.04,645.66
			c-8.77-8.42-18.36-16.21-29.33-21.39c-10.2-4.81-32.39-14.07-33.29-14.37c-22.1-7.44-44.96-18.02-68.63-17.47
			c14.63-1.64,29.82-0.02,45.48,5.73c2.87,1.05,5.24-3.15,2.99-5.14c-4.03-3.56-8.13-7.12-12.41-10.39
			c24.88,0.48,48.63,7.72,71.9,16.28C699.69,599.99,721.44,629.17,724.04,645.66 M688.72,588.17c-22.04-7.35-44.6-12.66-68.18-11.64
			c-0.2,0.01-0.39,0.04-0.57,0.08c-3.01-1.77-6.15-3.33-9.47-4.56c14.49,0.14,44.65,7.17,45.78,6.94c0.02-0.01,0.37,0.06,0.51,0.09
			C666.44,581.68,677.98,584.26,688.72,588.17 M739.3,530.49c-14.19,0.47-28.08,4.33-40.38,11.72
			c-14.85,8.92-25.39,25.92-42.56,30.4c-6.93-1.8-13.9-3.32-20.9-4.44c8.15-4.82,16.41-9.64,23.79-15.47
			c8.94-7.07,16.05-16.13,24.9-23.31c0.4-0.32,0.81-0.62,1.21-0.93c0.28,0.02,0.56,0.01,0.87-0.05
			C703.78,524.91,723.48,521.49,739.3,530.49 M743.62,500.28c-19.65,1.27-38.77,7.44-55.29,18.46c-9.62,6.41-17.29,14.6-25.54,22.59
			c-10.88,10.53-24.31,17.71-37.15,25.55c-5.34-0.56-10.7-0.89-16.07-0.9c16.48-27,43.91-43.85,71.72-57.24
			c12.28-5.91,24.7-11.54,37.22-16.9c0.12,0.04,0.23,0.08,0.36,0.11C727.6,493.67,735.8,496.45,743.62,500.28 M660.06,502.54
			c8.95-4.79,17.8-9.76,26.62-14.78c8.41-4.79,17.06-11.02,26.49-13.57c8.68-2.35,18.18-1.57,27.08-3.06
			c7.39-1.23,14.62-2.87,21.92-3.31c-29.72,11.01-58.9,23.4-87.41,37.27c-28.63,13.93-56.39,32.41-72.42,60.98
			c-0.02,0.03-0.02,0.06-0.04,0.09c-4.92,0.24-9.85,0.73-14.8,1.52c-0.53,0.09-10.94,1.02-15.71,1.68c-2.1,0.29-4.25,0.6-6.4,0.92
			l0.06-0.32c0.34-1.91,0.89-16.51,1.42-17.47c2.82-5.1,7.06-9.38,11.86-12.65c8.26-5.64,17.95-8.69,27.22-12.2
			C624.57,520.58,642.52,511.93,660.06,502.54 M572.87,536.51c-5.16,3.99-9.65,9.18-12.43,15.14c1.07-20.62,9.35-40.82,25.02-54.73
			c8.3-7.37,35.21-17.27,36.63-17.67c13.39-3.86,27.22-6.22,39.94-0.89C637.54,487.53,580.53,530.58,572.87,536.51 M716.3,440.5
			c17.91-5.3,36.54-5.91,54.93-3.87c-36.52,5.5-72.37,15.49-101.75,38.57c-3.57-2.09-7.27-3.59-11.05-4.57
			C661.12,468.91,701.21,444.97,716.3,440.5 M777.63,361.16c-45.16,19.46-83.22,52.83-108.25,95.3c-6.34,3.92-12.6,7.97-18.84,11.91
			c-0.39,0.25-0.69,0.54-0.91,0.86c-7.12-0.5-14.43,0.39-21.68,2.08c-2.66,0.62-5.34,1.31-8.02,2.05c0.76-2.5,5.05-7.37,5.94-8.63
			c9.63-13.59,19.5-27.07,30.13-39.9c10.8-13.03,23.71-21.72,38.27-30.09C718.43,380.84,748.28,362.7,777.63,361.16 M734.26,349.17
			c13.5-6.81,27.49-13.53,42-18.27c-23.68,11.54-45.19,27.12-63.67,46.28c-0.12,0.13-0.21,0.26-0.31,0.39
			c-6.18,3.34-12.16,6.74-17.89,10c-15.11,8.59-29.14,17.03-40.58,30.31c-8.27,9.6-15.98,19.76-23.45,30.05
			c10.91-21.29,25.98-40.4,41.01-59.21c0.31-0.39,0.61-0.79,0.93-1.18C691.86,373.05,712.51,360.13,734.26,349.17 M731.74,315.98
			c-12.73,7.84-24.67,16.31-34.14,28.24c-11.23,14.15-21.63,28.95-32.91,43.08c-21.43,26.83-42.53,54.57-51.74,88.13
			c-10.11,3.26-19.95,7.63-28.18,14.08c-18.38,14.4-28.62,36.73-30.35,59.67c-0.14-0.27-0.25-0.55-0.41-0.81
			c-1.67-2.81-3.85-5.24-6.24-7.49c-2.13-7.94-5.38-15.29-9.31-22.29c3.84-23.48,19.45-43.71,32.28-63.12
			c14.34-21.7,30.8-40.75,47.52-60.54c6.86-8.11,12.92-16.85,17.94-26.21c3.2-5.96,5.81-11.92,10.95-16.55
			c0.01-0.01,11.03-7.73,14.58-10.1c10.26-6.84,20.41-14.57,31.93-19.17c5.77-2.3,29.76-6.63,30.46-7.26
			C726.78,315.52,729.35,315.61,731.74,315.98 M720.75,310.41c-3.57,0.46-7.14,1.13-10.63,1.74c6.22-9.93,15.95-17.02,25.25-24.05
			c9.2-6.96,18.69-13.56,28.63-19.43c17.67-10.43,36.68-18.22,56.77-21.49C785.67,265.56,750.53,284.03,720.75,310.41"/>
	</g>
	<g class="st4">
		<path class="st5" d="M456.8,667.44c0.01-0.01,0.02-0.02,0.02-0.02S456.81,667.43,456.8,667.44z"/>
	</g>
</g>
</svg>
