<?xml version="1.0" encoding="utf-8"?>
<!-- Generator: Adobe Illustrator 26.0.3, SVG Export Plug-In . SVG Version: 6.00 Build 0)  -->
<svg version="1.1" id="Layer_1" xmlns="http://www.w3.org/2000/svg" xmlns:xlink="http://www.w3.org/1999/xlink" x="0px" y="0px"
	 viewBox="0 0 1133.86 1133.86" style="enable-background:new 0 0 1133.86 1133.86;" xml:space="preserve">
<style type="text/css">
	.st0{fill:#3E2000;}
	.st1{fill:#5D8196;}
	.st2{fill:#103579;}
	.st3{fill:#1979A8;}
	.st4{fill:#24A8CC;}
	.st5{fill:#9B0023;}
	.st6{fill:#F8C49F;}
	.st7{fill:#382625;}
	.st8{fill:#FFFFFF;}
	.st9{fill:#F7C6B6;}
	.st10{fill:#F0998E;}
	.st11{fill:#EA727F;}
	.st12{fill:#B90029;}
	.st13{fill:#E0C057;}
	.st14{fill:#6D4014;}
	.st15{fill:#E39108;}
	.st16{opacity:0.4;}
	.st17{fill:#EAAF24;}
	.st18{fill:#EB7A76;}
	.st19{fill:#B6755B;}
	.st20{fill:#10295D;}
</style>
<g>
	<g>
		<g>
			<path class="st0" d="M558.5,382.53c-2.68-40.72-31.66-81.91-56.64-109.36c-16.15-17.76-37.3-34.21-62.62-31.96
				c-50.47,4.51-90.37,71.69-91.89,117.9c-0.54,16.6,3.32,37.25,11.84,51.8c26.03,44.49,86.42,61.21,134.07,46.91
				C529.86,446.83,561.28,424.57,558.5,382.53z"/>
		</g>
		<g>
			<path class="st0" d="M639.66,466.37c47.64,14.28,108.02-2.43,134.07-46.93c8.49-14.54,12.37-35.17,11.82-51.78
				c-1.5-46.21-41.4-113.4-91.9-117.91c-25.32-2.25-46.46,14.21-62.61,31.96c-24.95,27.47-53.95,68.66-56.64,109.38
				C571.63,433.13,603.03,455.38,639.66,466.37z"/>
		</g>
	</g>
	<g>
		<g>
			<path class="st1" d="M721.71,392.49c-10.72-14.22-28.06-23.62-44.46-29.21c-21.71-7.42-44.77-11.39-67.5-13.63
				c-29.49-2.85-59.08-2.82-88.37,1.79c-23.78,3.77-49.76,8.1-71.02,20.11c-9.04,5.08-19.01,12.56-25.34,20.94
				c-25.1,33.24,53.61,123.79,53.61,123.79l94.74-5.47l94.76,5.47C668.14,516.28,746.82,425.72,721.71,392.49z"/>
		</g>
		<g>
			<path class="st2" d="M706.62,405.08c-9.64-12.77-25.21-21.22-39.96-26.25c-19.46-6.65-40.18-10.23-60.59-12.22
				c-26.5-2.57-53.08-2.54-79.37,1.61c-21.39,3.37-44.73,7.28-63.82,18.04c-8.11,4.58-17.06,11.29-22.76,18.82
				c-22.53,29.86,48.16,111.19,48.16,111.19l85.09-4.92l85.11,4.92C658.48,516.28,729.18,434.94,706.62,405.08z"/>
		</g>
	</g>
	<g>
		<path class="st2" d="M628.27,647.15h-54.51h-13.67H505.6c0,0-166.18,72.52-183.29,402.79c0,0,72.65,26.57,178.3,37.24
			c20.93,2.13,43.12,3.63,66.32,4.16c23.19-0.53,45.4-2.03,66.3-4.16c105.65-10.67,178.31-37.24,178.31-37.24
			C794.44,719.67,628.27,647.15,628.27,647.15z"/>
	</g>
	<g>
		<path class="st3" d="M571.02,755.78c4.88,47.93,13.85,95.77,29.19,141.38c15.5,46.1,36.79,89.04,62.78,129.82
			c11.45,17.98,25.06,34.28,38.57,50.63c67.37-12.09,109.99-27.67,109.99-27.67c-17.11-330.27-183.28-402.79-183.28-402.79h-63.12
			C567.08,683.36,567.34,719.69,571.02,755.78z"/>
	</g>
	<g>
		<path class="st4" d="M581.53,757.74c13.04,43.72,36.68,83.43,65.57,118.53c27.39,33.27,58.54,68.29,95.6,90.95
			c20.22,12.35,42.19,20.47,64.42,27.98c-31.38-283.65-178.85-348.05-178.85-348.05h-60.82
			C568.82,684.4,570.81,721.82,581.53,757.74z"/>
	</g>
	<g>
		<path class="st3" d="M526.93,907.06c14.68-43,25.51-87.42,31.96-132.48c6.06-42.47,6.64-84.84,6.53-127.43H505.6
			c0,0-166.18,72.52-183.29,402.79c0,0,44.51,16.27,114.49,28.47C476.29,1027.41,506.06,968.31,526.93,907.06z"/>
	</g>
	<g>
		<path class="st4" d="M363.88,978.58c44.3-24.96,85.47-54.75,119.18-93.09c32.18-36.63,57.32-77.93,69.77-125.28
			c5.03-19.16,9.23-38.94,11.96-58.93c0.57-18.03,0.68-36.06,0.63-54.12H505.6c0,0-148.45,64.83-179.16,350.84
			C339.25,991.95,351.77,985.39,363.88,978.58z"/>
	</g>
	<g>
		<path class="st5" d="M640.19,825.13c40.95,44.48,94.96,81.37,154.18,90.86c-46.86-216.76-166.1-268.84-166.1-268.84H550.9
			C560.73,713.67,595.92,777,640.19,825.13z"/>
	</g>
	<g>
		<path class="st5" d="M437.29,880.99c32.65-17.22,63.42-41.11,84.13-71.09c22.61-32.75,38.65-70.36,47.33-108.72
			c3.98-17.49,6.68-35.79,6.9-54.02H505.6c0,0-113.66,49.61-162.66,253.57C375.05,906.32,409.13,895.87,437.29,880.99z"/>
	</g>
	<g>
		<g>
			<path class="st6" d="M418.68,265.4c0,0,2.88-30.52-30.76-30.14c-33.65,0.37-24.31,64.17,24.21,68.37L418.68,265.4z"/>
		</g>
		<g>
			<path class="st6" d="M404.68,264.11c-2.74-10.85-12.94-22.5-22.41-16.84c-10.9,6.53-4.9,24,1.6,31.83
				C394.37,291.79,409.9,284.86,404.68,264.11z"/>
		</g>
	</g>
	<g>
		<g>
			<path class="st6" d="M730.84,335.76c0,0,14.82-26.83,42.4-7.58c27.59,19.24-16.06,66.72-58.53,42.86L730.84,335.76z"/>
		</g>
		<g>
			<path class="st6" d="M743.14,342.59c8.36-7.43,23.35-11.32,27.98-1.3c5.35,11.55-9.44,22.59-19.23,25.4
				C736.08,371.24,727.15,356.79,743.14,342.59z"/>
		</g>
	</g>
	<g>
		<g>
			<g>
				<path class="st6" d="M628.1,642.29c27.24-44.34,64.67-95.3,51.39-146.44c-7-26.96-51.98-52.67-85.7-55.39
					c-8.85-0.72-17.98-0.31-26.86-0.18c-8.88-0.14-18.01-0.54-26.87,0.18c-33.69,2.72-78.7,28.43-85.7,55.39
					c-13.26,51.14,24.13,102.1,51.39,146.44C505.76,642.29,557.08,661.73,628.1,642.29z"/>
			</g>
		</g>
		<g>
			<path class="st6" d="M631.06,450.77c-12.39-5.62-25.52-9.35-37.26-10.3c-8.85-0.72-17.98-0.31-26.86-0.18
				c-8.88-0.14-18.01-0.54-26.87,0.18c-10.36,0.84-21.81,3.86-32.87,8.42C544.44,467.97,594.2,471.56,631.06,450.77z"/>
		</g>
	</g>
	<g>
		<g>
			<g>
				<g>
					<path class="st6" d="M753.6,293.24C734.12,397.28,641.6,469.84,546.97,455.3c-94.64-14.51-155.56-110.6-136.08-214.62
						C430.37,136.65,522.88,64.08,617.52,78.6C712.16,93.11,773.08,189.22,753.6,293.24z"/>
				</g>
				<g>
					<g>
						<g>
							<path class="st7" d="M524.35,301.33c-2.54,6.4-9.78,9.58-16.19,7.07c-6.44-2.53-9.6-9.77-7.06-16.2
								c2.5-6.42,9.75-9.57,16.17-7.06C523.7,287.67,526.85,294.9,524.35,301.33z"/>
						</g>
						<g>
							<g>
								<path class="st8" d="M509.58,291.87c-0.45,1.15-1.72,1.7-2.85,1.23c-1.13-0.43-1.68-1.7-1.22-2.83
									c0.45-1.13,1.72-1.66,2.82-1.22C509.47,289.49,509.99,290.76,509.58,291.87z"/>
							</g>
						</g>
					</g>
					<g>
						<g>
							<path class="st7" d="M638.33,320.65c-2.51,6.41-9.77,9.59-16.18,7.07c-6.44-2.53-9.61-9.78-7.07-16.18
								c2.51-6.43,9.75-9.58,16.19-7.08C637.67,306.96,640.82,314.24,638.33,320.65z"/>
						</g>
						<g>
							<g>
								<path class="st8" d="M623.54,311.21c-0.43,1.11-1.69,1.68-2.82,1.23c-1.11-0.44-1.69-1.71-1.23-2.85
									c0.43-1.11,1.72-1.67,2.85-1.23C623.46,308.81,623.99,310.06,623.54,311.21z"/>
							</g>
						</g>
					</g>
				</g>
				<g>
					<g>
						<path class="st9" d="M486.68,345.52c-1.04,6.21-12.07,9.52-24.63,7.39c-12.51-2.12-21.83-8.88-20.79-15.09
							c1.05-6.2,12.09-9.52,24.6-7.39C478.43,332.54,487.75,339.3,486.68,345.52z"/>
					</g>
					<g>
						<path class="st9" d="M693.01,380.48c-1.05,6.21-12.07,9.52-24.61,7.39c-12.56-2.13-21.86-8.86-20.82-15.08
							c1.05-6.2,12.07-9.53,24.63-7.4C684.76,367.52,694.07,374.27,693.01,380.48z"/>
					</g>
				</g>
			</g>
		</g>
	</g>
	<g>
		<g>
			<path class="st10" d="M579.76,384.97c-3.25,2.7-14.55,3.71-27.74,2.19c-11.37-1.31-20.91-4.1-25-7.02
				c-1.1,1.94-1.81,4.09-2.08,6.35c-1.38,11.83,10.04,22.86,25.44,24.65c15.41,1.76,29.02-6.38,30.4-18.21
				C581.1,390.21,580.68,387.51,579.76,384.97z"/>
		</g>
	</g>
	<g>
		<g>
			<path class="st11" d="M545.37,391.38c-4.59,0-13.54-0.74-20.05,0.93c2.24,9.43,12.25,17.34,25.07,18.84
				c10.4,1.19,19.94-2.13,25.51-8.05C567.45,395.91,556.6,391.36,545.37,391.38z"/>
		</g>
	</g>
	<g>
		<g>
			<g>
				<path class="st12" d="M628.1,642.29c26.58-43.24,62.81-92.8,52.26-142.67c-40.4-19.47-88.12-8.49-117.03,32.71
					c-0.72,1.03-60.9-67.7-111.07-25.29c-5.73,47.34,28.23,94.15,53.49,135.25C505.76,642.29,557.08,661.73,628.1,642.29z"/>
			</g>
		</g>
		<g>
			<path class="st2" d="M535.85,520.64c11.29,8.27,20.85,18.19,29.09,29.16c0.57-1.18,1.14-2.33,1.72-3.37
				c3.65-6.8,7.54-12.58,13.24-18.02c11.81-11.29,26.83-21.8,43.34-25.57c19.65-4.45,40.54-1.86,58.59,6.44
				c-0.31-3.22-0.78-6.44-1.46-9.65c-40.4-19.47-88.12-8.49-117.03,32.71c-0.72,1.03-60.9-67.7-111.07-25.29
				c-0.25,2.13-0.41,4.25-0.51,6.36c8.07-5.16,18.04-8.11,27.49-9.12C499.57,502.1,519.75,508.86,535.85,520.64z"/>
		</g>
	</g>
	<g>
		<rect x="499.24" y="632.25" class="st13" width="135.34" height="19.17"/>
	</g>
	<g>
		<rect x="499.24" y="642.09" class="st2" width="135.34" height="9.32"/>
	</g>
	<g>
		<path class="st14" d="M663.65,198.11c0,0-92.37,76.11-258.3,82.95c0,0-34.49-91.79,51.03-176.19
			c85.52-84.4,239.48-49.03,264.58,21.67c0,0,111.75,52.45,18.23,215.53C739.19,342.08,681.61,315.28,663.65,198.11z"/>
	</g>
	<g>
		<g>
			<g>
				<g>
					<path class="st15" d="M730.06,84.4c-8.87,17.24-29.27,24.38-46.6,17.96c-16.82-6.23-27.2-23.91-23.85-42.18
						c-5.81,17.64-23.46,28.15-41.07,25.54c-17.61-2.6-31.44-17.76-31.92-36.32c-2.06,18.46-17.12,32.38-35,33.49
						c-18.44,1.11-35.91-11.62-39.44-30.67c-0.1,0.02-0.18,0.02-0.29,0.04c5.27,31.08,10.51,62.13,15.76,93.21
						c59.18-5.84,105.67,1.03,160.61,23.72c14.02-28.21,28.02-56.45,42.04-84.66C730.2,84.48,730.16,84.47,730.06,84.4z"/>
				</g>
			</g>
		</g>
		<g class="st16">
			<g>
				<path class="st17" d="M526.87,140.74c0.26,1.59,0.53,3.17,0.79,4.74c59.18-5.84,105.67,1.03,160.61,23.72
					c0.76-1.53,1.52-3.03,2.28-4.56C608.99,130.87,550.81,136.03,526.87,140.74z"/>
			</g>
		</g>
		<g class="st16">
			<path class="st17" d="M551.29,92.81c17.54-1.16,32.37-15.1,34.43-33.55c0.43,18.53,13.97,33.66,31.26,36.21
				c17.3,2.56,34.64-7.99,40.39-25.64c-3.36,18.27,6.82,35.92,23.3,42.1c14.91,5.59,32.18,0.71,42.12-12.21
				c2.5-5.06,5.02-10.12,7.52-15.18c-0.1-0.06-0.14-0.07-0.25-0.14c-8.87,17.24-29.27,24.38-46.6,17.96
				c-16.82-6.23-27.2-23.91-23.85-42.18c-5.81,17.64-23.46,28.15-41.07,25.54c-17.61-2.6-31.44-17.76-31.92-36.32
				c-2.06,18.46-17.12,32.38-35,33.49c-18.44,1.11-35.91-11.62-39.44-30.67c-0.1,0.02-0.18,0.02-0.29,0.04
				c1,5.88,1.99,11.76,2.99,17.62C520.91,84.58,535.72,93.82,551.29,92.81z"/>
		</g>
		<g>
			<g>
				<g>
					<path class="st17" d="M518.7,56.15c-0.52,3.65-3.92,6.16-7.56,5.63c-3.64-0.55-6.16-3.93-5.63-7.58
						c0.53-3.65,3.92-6.18,7.57-5.63C516.73,49.1,519.25,52.5,518.7,56.15z"/>
				</g>
				<g>
					<path class="st8" d="M512.84,53.27c-0.24,1.68-1.81,2.84-3.48,2.59c-1.68-0.25-2.83-1.81-2.59-3.48
						c0.25-1.68,1.81-2.83,3.48-2.58C511.94,50.03,513.08,51.59,512.84,53.27z"/>
				</g>
			</g>
			<g>
				<g>
					<path class="st17" d="M594.35,50.18c-0.53,3.66-3.92,6.17-7.58,5.62c-3.63-0.53-6.16-3.91-5.62-7.57
						c0.53-3.65,3.94-6.16,7.58-5.64C592.38,43.14,594.88,46.54,594.35,50.18z"/>
				</g>
				<g>
					<path class="st8" d="M588.49,47.3c-0.24,1.68-1.8,2.84-3.48,2.58c-1.68-0.25-2.84-1.79-2.59-3.48
						c0.25-1.66,1.81-2.83,3.48-2.57C587.57,44.06,588.75,45.62,588.49,47.3z"/>
				</g>
			</g>
			<g>
				<g>
					<path class="st17" d="M666.64,60.84c-0.56,3.65-3.94,6.19-7.58,5.66c-3.67-0.55-6.16-3.95-5.64-7.6
						c0.56-3.64,3.94-6.14,7.58-5.62C664.65,53.81,667.16,57.2,666.64,60.84z"/>
				</g>
				<g>
					<path class="st8" d="M660.76,57.98c-0.24,1.68-1.81,2.84-3.48,2.59c-1.66-0.26-2.83-1.81-2.59-3.49
						c0.25-1.68,1.81-2.84,3.48-2.57C659.83,54.76,661,56.3,660.76,57.98z"/>
				</g>
			</g>
			<g>
				<g>
					<path class="st17" d="M737.32,86.6c-0.52,3.64-3.92,6.18-7.58,5.64c-3.63-0.53-6.18-3.92-5.65-7.58
						c0.56-3.64,3.92-6.18,7.58-5.64C735.33,79.56,737.85,82.96,737.32,86.6z"/>
				</g>
				<g>
					<path class="st8" d="M731.43,83.74c-0.23,1.67-1.8,2.83-3.46,2.59c-1.68-0.25-2.85-1.81-2.6-3.49
						c0.25-1.66,1.79-2.83,3.48-2.58C730.53,80.52,731.67,82.06,731.43,83.74z"/>
				</g>
			</g>
		</g>
	</g>
	<g>
		<g>
			<g>
				<path class="st18" d="M515.34,454.16c-1.85,2.12-5.59,1.97-8.07-0.72c-2.5-2.66-2.47-6.57-0.08-8.13
					c2.35-1.55,5.53-1.06,7.6,1.14C516.84,448.66,517.2,452.01,515.34,454.16z"/>
			</g>
			<g>
				<path class="st18" d="M512.29,448.62c-0.8,0.74-2.09,0.55-2.93-0.38c-0.82-0.96-0.76-2.28,0.08-2.93
					c0.85-0.65,2.11-0.45,2.85,0.43C513.06,446.61,513.04,447.91,512.29,448.62z"/>
			</g>
		</g>
		<g>
			<g>
				<path class="st18" d="M524.6,461.17c-1.43,2.35-5.19,2.88-8.03,0.64c-2.89-2.16-3.48-5.86-1.54-7.91
					c1.92-2.09,5.31-2.09,7.75-0.27C525.16,455.54,526.13,458.7,524.6,461.17z"/>
			</g>
			<g>
				<path class="st18" d="M520.68,456.2c-0.64,0.83-2,0.95-2.95,0.14c-0.97-0.8-1.16-2.11-0.46-2.9c0.7-0.81,1.99-0.85,2.89-0.07
					C521.05,454.11,521.32,455.34,520.68,456.2z"/>
			</g>
		</g>
		<g>
			<g>
				<path class="st18" d="M534.88,466.62c-1.07,2.62-4.61,3.54-7.83,1.92c-3.17-1.73-4.38-5.19-2.78-7.59
					c1.55-2.31,4.92-2.95,7.6-1.47C534.6,460.83,535.96,464,534.88,466.62z"/>
			</g>
			<g>
				<path class="st18" d="M530.2,462.34c-0.48,0.94-1.79,1.21-2.88,0.58c-1.08-0.62-1.51-1.85-0.94-2.75
					c0.55-0.9,1.85-1.17,2.86-0.58C530.27,460.17,530.7,461.4,530.2,462.34z"/>
			</g>
		</g>
		<g>
			<g>
				<path class="st18" d="M545.9,470.33c-0.64,2.77-3.97,4.19-7.44,3.18c-3.36-1.31-5.14-4.43-3.95-7.06
					c1.15-2.54,4.44-3.78,7.28-2.67C544.71,464.64,546.56,467.58,545.9,470.33z"/>
			</g>
			<g>
				<path class="st18" d="M540.59,466.87c-0.34,1.02-1.55,1.46-2.73,1.02c-1.16-0.45-1.8-1.62-1.38-2.61
					c0.41-0.96,1.64-1.42,2.72-1.01C540.33,464.72,540.92,465.86,540.59,466.87z"/>
			</g>
		</g>
		<g>
			<g>
				<path class="st18" d="M557.37,472.26c-0.22,2.77-3.29,4.83-6.84,4.27c-3.52-0.72-5.77-3.49-5.02-6.3
					c0.72-2.66,3.78-4.46,6.77-3.81C555.3,466.91,557.62,469.38,557.37,472.26z"/>
			</g>
			<g>
				<path class="st18" d="M551.59,469.65c-0.18,1.06-1.33,1.69-2.54,1.46c-1.23-0.25-2.03-1.3-1.78-2.35
					c0.25-1.01,1.39-1.67,2.54-1.44C550.97,467.56,551.79,468.61,551.59,469.65z"/>
			</g>
		</g>
		<g>
			<g>
				<path class="st18" d="M568.99,472.53c0.14,2.84-2.59,5.35-6.15,5.16c-3.57-0.01-6.19-2.65-5.88-5.5
					c0.33-2.78,3.05-4.75,6.16-4.75C566.18,467.6,568.86,469.69,568.99,472.53z"/>
			</g>
			<g>
				<path class="st18" d="M562.91,470.74c-0.02,1.05-1.07,1.9-2.31,1.85c-1.25,0-2.2-0.96-2.11-2.03c0.1-1.05,1.12-1.79,2.31-1.79
					C561.99,468.79,562.92,469.67,562.91,470.74z"/>
			</g>
		</g>
		<g>
			<g>
				<path class="st18" d="M580.58,471.48c0.48,2.8-2,5.42-5.5,5.83c-3.51,0.29-6.41-1.95-6.47-4.75c-0.06-2.87,2.42-5.23,5.53-5.47
					C577.25,466.7,580.13,468.69,580.58,471.48z"/>
			</g>
			<g>
				<path class="st18" d="M574.31,470.4c0.1,1.09-0.82,2.02-2.08,2.08c-1.24,0.06-2.32-0.76-2.35-1.81
					c-0.04-1.05,0.89-1.98,2.08-2.02C573.17,468.61,574.21,469.36,574.31,470.4z"/>
			</g>
		</g>
		<g>
			<g>
				<path class="st18" d="M591.97,469.08c0.74,2.7-1.37,5.76-4.84,6.41c-3.44,0.67-6.57-1.09-6.94-3.95
					c-0.4-2.76,1.79-5.51,4.89-6.1C588.14,464.86,591.21,466.31,591.97,469.08z"/>
			</g>
			<g>
				<path class="st18" d="M585.62,468.71c0.22,1.05-0.61,2.07-1.85,2.29c-1.22,0.25-2.35-0.43-2.52-1.47
					c-0.16-1.07,0.66-2.09,1.85-2.31C584.27,467,585.4,467.67,585.62,468.71z"/>
			</g>
		</g>
		<g>
			<g>
				<path class="st18" d="M603.06,465.5c1,2.61-0.76,5.9-4.12,6.88c-3.36,1.12-6.68-0.44-7.36-3.21c-0.69-2.74,1.23-5.55,4.22-6.55
					C598.81,461.74,601.99,462.83,603.06,465.5z"/>
			</g>
			<g>
				<path class="st18" d="M596.68,465.81c0.33,1-0.38,2.14-1.55,2.51c-1.19,0.41-2.42-0.21-2.68-1.23
					c-0.29-1.04,0.43-2.07,1.57-2.45C595.17,464.27,596.37,464.8,596.68,465.81z"/>
			</g>
		</g>
		<g>
			<g>
				<path class="st18" d="M613.68,460.82c1.29,2.48-0.14,5.92-3.38,7.25c-3.19,1.46-6.67,0.22-7.64-2.42
					c-0.99-2.68,0.63-5.68,3.5-6.96C609.08,457.48,612.37,458.26,613.68,460.82z"/>
			</g>
			<g>
				<path class="st18" d="M607.4,461.76c0.43,0.97-0.17,2.18-1.31,2.66c-1.13,0.52-2.42,0.03-2.81-0.94
					c-0.39-1.03,0.22-2.11,1.33-2.61C605.71,460.39,606.97,460.8,607.4,461.76z"/>
			</g>
		</g>
		<g>
			<g>
				<path class="st18" d="M623.79,455.05c1.57,2.38,0.43,5.83-2.61,7.58c-3.05,1.72-6.61,0.93-7.86-1.64
					c-1.23-2.51,0.04-5.71,2.78-7.27C618.82,452.14,622.25,452.69,623.79,455.05z"/>
			</g>
			<g>
				<path class="st18" d="M617.62,456.65c0.53,0.91,0.08,2.16-1.03,2.77c-1.11,0.6-2.38,0.32-2.87-0.64
					c-0.47-0.93-0.02-2.16,1.05-2.76C615.82,455.46,617.1,455.72,617.62,456.65z"/>
			</g>
		</g>
		<g>
			<g>
				<path class="st18" d="M633.15,448.14c1.93,2.08,1.17,5.82-1.7,7.88c-2.87,2.09-6.5,1.63-8.01-0.75
					c-1.5-2.42-0.56-5.71,1.96-7.54C627.93,445.9,631.22,446.05,633.15,448.14z"/>
			</g>
			<g>
				<path class="st18" d="M627.25,450.49c0.64,0.86,0.32,2.13-0.72,2.86c-1,0.72-2.35,0.53-2.94-0.36c-0.59-0.89-0.22-2.1,0.76-2.82
					C625.32,449.48,626.63,449.63,627.25,450.49z"/>
			</g>
		</g>
	</g>
	<g>
		<g>
			<g>
				<path class="st6" d="M581.81,650.3c0.55-0.8,1.22-1.94,0.94-2.97c-0.12-0.45-1.37-2.13-1.96-1.86c3.6-1.65,6.55-4.04,7.36-7.51
					c0.55-2.39-2.66-2.39-6.9-1.46c1.37-1.05,2.7-2.16,3.95-3.36c1.65-1.61,5.53-5.1,4.34-7.97c-1.78-4.28-5.98-0.67-8.54,0.96
					c-0.02,0.02-0.06,0.04-0.1,0.06c4.56-4.03,7.94-9.03,7.35-14.26c-0.82-7-9.35,0.96-11.87,2.95c-4.22,3.34-7.92,6.16-13.26,7.46
					c-2.54,0.64-7.24,1.16-9.66-0.37c-3.32-2.07,2-7.39,3.29-9.2c1.99-2.73,3.75-6.08,1.68-9.3c-1.92-2.95-8.58,0.68-10.48,2.02
					c-6.84,4.82-9.62,14.64-17.88,17.34c-0.21,0.07-0.28,0.41-0.13,0.55c-0.33,0.22-0.65,0.66-0.78,1.37
					c-0.6,3.3-0.06,7.56,1.03,10.69c3.11,9.08,7.45,17.83,16.53,20.34C559.56,659.38,578.39,655.27,581.81,650.3z"/>
			</g>
			<g>
				<path class="st19" d="M554.83,633.93c0,0,0.41,0.14,1.17,0.24c0.76,0.18,1.86,0.25,3.2,0.29c0.68-0.03,1.38-0.06,2.13-0.11
					c0.77,0,1.55-0.14,2.37-0.29c0.82-0.17,1.66-0.29,2.5-0.49c0.84-0.25,1.7-0.53,2.52-0.8c0.82-0.31,1.73-0.49,2.48-0.91
					c0.78-0.38,1.56-0.75,2.31-1.11c0.72-0.37,1.44-0.72,2.12-1.07c0.64-0.41,1.21-0.81,1.77-1.18c2.19-1.46,3.58-2.53,3.58-2.53
					s-1.57,0.78-3.85,2.04c-0.6,0.32-1.19,0.66-1.85,1.03c-0.69,0.29-1.41,0.59-2.17,0.91c-0.72,0.33-1.5,0.67-2.27,1.01
					c-0.76,0.4-1.62,0.55-2.43,0.85c-0.81,0.28-1.63,0.55-2.45,0.82c-0.83,0.19-1.64,0.37-2.42,0.56c-0.8,0.17-1.55,0.37-2.3,0.43
					c-0.74,0.1-1.43,0.21-2.07,0.29c-1.29,0.03-2.39,0.17-3.16,0.1C555.27,633.98,554.83,633.93,554.83,633.93z"/>
			</g>
			<g>
				<path class="st19" d="M557.35,643.03c0,0,0.37,0.15,1.06,0.31c0.68,0.18,1.69,0.26,2.9,0.39c0.61,0,1.27-0.02,1.96-0.02
					c0.7,0.02,1.44-0.05,2.17-0.19c0.76-0.13,1.52-0.25,2.31-0.37c0.78-0.23,1.56-0.45,2.31-0.68c0.78-0.27,1.56-0.44,2.3-0.8
					c0.72-0.33,1.43-0.66,2.11-1c0.69-0.32,1.35-0.64,1.96-0.95c0.57-0.37,1.11-0.73,1.62-1.06c1.98-1.38,3.25-2.34,3.25-2.34
					s-1.43,0.7-3.52,1.86c-0.53,0.29-1.08,0.6-1.68,0.92c-0.64,0.25-1.31,0.52-1.99,0.82c-0.68,0.3-1.37,0.6-2.09,0.91
					c-0.7,0.34-1.5,0.48-2.23,0.73c-0.75,0.24-1.52,0.47-2.24,0.7c-0.75,0.14-1.53,0.29-2.24,0.43c-0.72,0.14-1.42,0.29-2.09,0.31
					c-0.68,0.08-1.31,0.14-1.9,0.18c-1.19-0.02-2.2,0.06-2.88-0.04C557.74,643.11,557.35,643.03,557.35,643.03z"/>
			</g>
			<g>
				<path class="st19" d="M559.67,650.55c0,0,0.31,0.16,0.92,0.33c0.61,0.2,1.47,0.35,2.56,0.54c0.53,0.02,1.12,0.04,1.76,0.08
					c0.62,0.04,1.27,0.06,1.95-0.06c0.68-0.08,1.37-0.17,2.09-0.25c0.69-0.11,1.39-0.33,2.08-0.51c0.7-0.2,1.42-0.35,2.07-0.64
					c0.66-0.29,1.3-0.57,1.91-0.87c0.64-0.25,1.21-0.54,1.76-0.83c0.55-0.3,1.01-0.67,1.48-0.96c1.76-1.24,2.89-2.09,2.89-2.09
					s-1.29,0.62-3.16,1.64c-0.47,0.27-0.96,0.57-1.5,0.84c-0.57,0.22-1.19,0.43-1.78,0.7c-0.6,0.25-1.24,0.53-1.87,0.79
					c-0.65,0.25-1.34,0.37-2.02,0.56c-0.68,0.19-1.35,0.44-2.02,0.56c-0.68,0.11-1.36,0.18-2.01,0.29
					c-0.66,0.13-1.27,0.18-1.87,0.18c-0.61,0.02-1.19,0.06-1.72,0.06c-1.05-0.1-1.95-0.08-2.56-0.19
					C560.02,650.62,559.67,650.55,559.67,650.55z"/>
			</g>
		</g>
	</g>
	<g>
		<g>
			<path class="st20" d="M519.86,624.72l8.07,36.73c0,0-3.03,0.62-8.3,1.7c-5.31,0.99-12.89,2.42-22.3,3.48
				c-9.43,1.01-20.51,1.96-33.88,0.66c-6.77-0.87-14.13-1.83-23.19-6.53c-1.15-0.64-2.28-1.31-3.38-1.99
				c-1.04-0.67-1.72-1.26-2.62-1.91c-1.68-1.22-3.27-2.57-4.74-3.97c-3.06-2.78-5.7-5.85-8.07-8.97
				c-9.46-12.66-13.9-26.2-16.75-38.31c-2.78-12.21-3.85-23.35-4.34-32.88c-0.43-9.49-0.27-17.31-0.02-22.86
				c0.26-5.53,0.61-8.82,0.64-9.1l37.4,3.99c0.07-0.62-1.19,10.22-0.45,26.17c0.38,7.92,1.3,17.11,3.4,26.21
				c2.04,9.06,5.49,18.05,10.14,24.13c1.15,1.52,2.33,2.91,3.6,4.02c0.61,0.61,1.23,1.16,1.91,1.61c0.29,0.19,0.69,0.56,0.9,0.66
				c0.14,0.04,0.25,0.08,0.37,0.15c1.19,0.73,5.16,1.77,9.2,2.17c8.42,0.85,17.78,0.28,25.65-0.64c7.96-0.89,14.69-2.16,19.39-3
				C517.19,625.27,519.86,624.72,519.86,624.72z"/>
		</g>
		<g>
			<polygon class="st2" points="525.23,662.02 527.92,661.45 519.86,624.72 517.47,625.22 			"/>
		</g>
		<g>
			<path class="st3" d="M531.19,618.09c0,0-2.81,1.69-5.61,3.38c-2.85,1.63-5.73,3.26-5.73,3.26l8.07,36.73c0,0,3.62,0.02,7.25,0.06
				c3.64-0.05,7.29-0.08,7.29-0.08c0.25-0.06,0.53-0.09,0.82-0.14c4.56-1.23,7.44-5.12,6.41-8.63c-0.6-2.08-2.4-3.56-4.65-4.19
				c1.62-1.7,2.34-3.87,1.75-5.94c-0.6-2.09-2.36-3.59-4.56-4.23c1.56-1.68,2.26-3.84,1.64-5.93c-0.59-2.07-2.31-3.57-4.45-4.23
				c1.5-1.68,2.16-3.82,1.56-5.9c-1.03-3.52-5.1-5.46-9.09-4.39C531.65,617.9,531.44,618.01,531.19,618.09z"/>
		</g>
	</g>
	<g>
		<g>
			<path class="st20" d="M470.07,468.1c0,0-50.18,24.52-46.75,102.06C426.74,647.85,470.07,468.1,470.07,468.1z"/>
		</g>
		<g>
			<g>
				<path class="st2" d="M449.66,568.99l-52.9,2.35c0,0-0.02-4.21-0.04-8.42c0-2.11,0-4.22,0-5.81c-0.04-1.57,0.04-2.64,0.04-2.64
					l52.91,2.35c0,0-0.06,0.75-0.04,1.9c0.02,1.15,0.02,2.66,0.03,4.19C449.66,565.97,449.66,568.99,449.66,568.99z"/>
			</g>
			<g>
				<path class="st5" d="M449.66,560.59c1.34-1.13,2.67-2.33,4.17-3.51c1.47-1.15,3.04-2.33,4.63-3.56
					c3.12-2.41,5.97-4.97,9.05-7.18c1.46-1.15,2.83-2.31,4.06-3.47c1.19-1.19,2.62-2.16,3.65-3.27c1.15-1.05,1.89-2.31,2.81-3.34
					c0.87-1.04,1.54-2.19,1.94-3.43c1.77-3.89,1.89-8.14,1.75-12.75c-0.22-2.5-0.36-4.82-0.79-7.6c-0.29-2.54-0.82-5.54-1.25-8.35
					c-2-11.71-4.38-25.08-9.61-36.06c-5.16-10.95-19.87-18.37-37.83-15.21c-4.55,0.72-9,2.23-13.7,4.3
					c-4.45,2.17-9.2,4.9-13.37,8.46c-8.7,6.92-15.92,16.76-20.7,28.08c-1.29,3.35-2.31,6.76-3.09,10.18
					c-0.83,3.4-0.95,6.77-1.11,10.1c-0.04,3.3-0.13,6.57,0.41,9.68c0.49,3.1,1.14,6.12,1.91,9c1.37,5.78,3.95,10.88,6.41,15.4
					c1.25,2.27,2.54,4.37,3.81,6.31c1.33,1.94,2.78,3.69,4.1,5.31L449.66,560.59z"/>
			</g>
			<g>
				<g>
					<path class="st13" d="M406.4,559.87c-1.21-3.75-1.92-8.65-2.66-14.74c-0.16-1.52-0.39-3.1-0.49-4.79
						c-0.03-1.68-0.05-3.43-0.06-5.25c0.08-3.65-0.13-7.62,0.55-11.86c0.6-4.24,0.98-8.83,2.34-13.59c0.64-2.39,1.29-4.86,1.96-7.39
						c0.82-2.5,1.82-5.02,2.82-7.64c4.2-10.36,10.52-21.45,19.97-31.73c0,0-0.8,0.53-2.31,1.52c-1.48,1.02-3.47,2.66-5.97,4.83
						c-2.6,2.11-5.16,5.06-8.19,8.43c-1.52,1.68-2.81,3.65-4.28,5.68c-1.38,2.07-2.99,4.2-4.18,6.6
						c-5.38,9.39-9.32,21.23-10.31,33.65c-0.3,3.09-0.1,6.22,0.01,9.32c0.25,3.11,0.33,6.27,1.12,9.3c0.68,3.06,1.5,6.09,2.51,9.04
						c0.51,1.47,1,2.93,1.62,4.37c0.68,1.4,1.41,2.81,2.16,4.19L406.4,559.87z"/>
				</g>
				<g>
					<path class="st13" d="M440.43,560.44c0.76-1.09,1.5-2.15,2.17-3.19c0.73-1.05,1.46-2.07,2.19-3.08
						c1.42-2.02,2.66-3.98,3.75-5.94c1-2,2.39-3.74,3.36-5.58c1.08-1.78,1.83-3.64,2.81-5.31c1.99-3.32,3.21-6.7,4.77-9.62
						c0.74-1.48,1.19-3.06,1.9-4.43c0.68-1.37,1.24-2.74,1.74-4.12c0.43-1.39,1.14-2.55,1.59-3.81c0.52-1.2,0.86-2.5,1.34-3.56
						c1.01-2.13,1.58-4.34,2.31-5.93c1.27-3.45,2.05-5.54,2.05-5.54c-10.79,10.88-17.76,23.04-22.89,33.78
						c-4.96,10.83-8.39,20.11-10.48,26.26L440.43,560.44z"/>
				</g>
				<g>
					<path class="st13" d="M422.56,560.13c0.17-4.02,1.33-9.26,2.17-15.59c0.56-3.15,1.46-6.49,2.2-10.14
						c0.33-1.83,0.91-3.67,1.47-5.53c0.57-1.9,1.15-3.85,1.74-5.86c5.27-15.75,14.25-34.68,31.55-50.52c0,0-0.47,0.18-1.42,0.56
						c-0.92,0.41-2.39,0.94-4.2,1.97c-3.62,1.96-8.92,5.49-14.87,11.68c-5.79,6.27-12.11,15.42-16.45,27.92
						c-4.36,12.42-6.47,28.09-4.43,45.48L422.56,560.13z"/>
				</g>
			</g>
		</g>
	</g>
	<g>
		<g>
			<path class="st6" d="M712.66,750.79c-6.12-8.59-16.96-9.84-27.74-9.67c-3.71,0.04-8.4,1.11-11.63,2.99
				c-0.74,0.41-1.05,0.92-1.15,1.34c-0.2-0.12-0.55,0.11-0.54,0.33c0.28,9.75-9,16.41-11.46,25.46c-0.68,2.52-1.96,10.9,1.89,11.82
				c4.16,0.96,7.02-2.17,9.14-5.31c1.41-2.08,5-9.7,8.44-6.98c2.54,1.96,3.77,7.09,4.07,10.04c0.67,6.1-0.9,11.1-2.81,16.8
				c-1.12,3.42-6.27,15.41,1.42,13.6c5.76-1.34,9.69-6.81,12.21-13.16c0,0.05-0.02,0.09-0.02,0.13c-0.73,3.32-2.94,9.12,2.26,9.38
				c3.46,0.14,5.66-5.26,6.72-7.62c0.8-1.78,1.45-3.6,2.02-5.45c0.68,4.83,1.88,8.2,4.2,6.72c3.34-2.16,4.76-6.19,5.08-10.61
				c-0.06,0.74,2.21,1.39,2.73,1.36c1.19-0.11,2.12-1.24,2.76-2.13C724.2,784.34,721.33,762.93,712.66,750.79z"/>
		</g>
		<g>
			<path class="st19" d="M692.72,767.67c0,0,0.29,0.39,0.72,1.13c0.45,0.75,0.95,1.88,1.52,3.25c0.2,0.71,0.45,1.47,0.68,2.31
				c0.29,0.79,0.44,1.68,0.58,2.6c0.14,0.91,0.33,1.86,0.45,2.82c0.04,0.96,0.08,1.96,0.1,2.95c-0.02,1,0.13,1.99-0.02,2.95
				c-0.08,0.97-0.18,1.92-0.29,2.85c-0.1,0.92-0.22,1.81-0.31,2.64c-0.2,0.82-0.41,1.61-0.57,2.31c-0.73,2.87-1.3,4.74-1.3,4.74
				s0.22-1.96,0.68-4.84c0.11-0.72,0.24-1.5,0.38-2.31c0.04-0.84,0.08-1.72,0.14-2.64c0.06-0.9,0.12-1.85,0.18-2.78
				c0.14-0.95-0.02-1.91-0.02-2.88c-0.01-0.97-0.04-1.95-0.06-2.89c-0.1-0.92-0.24-1.87-0.33-2.77c-0.14-0.88-0.2-1.77-0.41-2.59
				c-0.19-0.8-0.35-1.57-0.52-2.28c-0.45-1.38-0.72-2.57-1.09-3.32C692.94,768.09,692.72,767.67,692.72,767.67z"/>
		</g>
		<g>
			<path class="st19" d="M703.26,766.85c0,0,0.33,0.33,0.74,1c0.45,0.65,0.95,1.65,1.53,2.9c0.22,0.64,0.46,1.34,0.71,2.06
				c0.3,0.74,0.49,1.56,0.64,2.39c0.15,0.83,0.33,1.69,0.49,2.57c0.06,0.91,0.12,1.81,0.18,2.7c0,0.91,0.14,1.81,0.05,2.7
				c-0.09,0.88-0.19,1.77-0.25,2.62c-0.06,0.83-0.18,1.64-0.27,2.39c-0.18,0.78-0.37,1.5-0.53,2.13c-0.68,2.62-1.19,4.33-1.19,4.33
				s0.18-1.8,0.62-4.44c0.1-0.65,0.21-1.37,0.35-2.11c0-0.78,0.04-1.58,0.1-2.39c0.04-0.85,0.12-1.7,0.16-2.58
				c0.09-0.86-0.08-1.75-0.1-2.63c-0.02-0.87-0.09-1.76-0.1-2.63c-0.14-0.84-0.29-1.69-0.41-2.5c-0.14-0.83-0.25-1.63-0.47-2.35
				c-0.18-0.73-0.37-1.43-0.53-2.08c-0.48-1.21-0.78-2.31-1.15-2.99C703.51,767.22,703.26,766.85,703.26,766.85z"/>
		</g>
		<g>
			<path class="st19" d="M712.08,766.42c0,0,0.29,0.26,0.69,0.84c0.43,0.56,0.95,1.42,1.54,2.5c0.25,0.56,0.49,1.17,0.76,1.81
				c0.29,0.64,0.55,1.34,0.68,2.09c0.18,0.75,0.37,1.5,0.55,2.28c0.13,0.8,0.17,1.61,0.25,2.42c0.05,0.82,0.16,1.61,0.12,2.42
				c-0.06,0.8-0.12,1.58-0.19,2.33c-0.04,0.76-0.14,1.5-0.2,2.17c-0.14,0.68-0.33,1.31-0.48,1.91c-0.61,2.34-1.11,3.87-1.11,3.87
				s0.17-1.62,0.56-3.98c0.08-0.6,0.22-1.21,0.3-1.89c0.02-0.68,0.02-1.42,0.06-2.15c0.04-0.74,0.09-1.5,0.11-2.27
				c0.02-0.77-0.11-1.56-0.17-2.34c-0.06-0.8-0.08-1.57-0.18-2.35c-0.16-0.75-0.3-1.5-0.46-2.21c-0.13-0.74-0.29-1.42-0.52-2.05
				c-0.23-0.65-0.39-1.26-0.6-1.83c-0.49-1.07-0.82-2.02-1.19-2.61C712.3,766.74,712.08,766.42,712.08,766.42z"/>
		</g>
	</g>
	<g>
		<g>
			<path class="st20" d="M714.02,734.13l-37.34-4.2c0,0,0.34-3.3,1-9.06c0.57-5.77,1.64-13.98,2.56-23.88
				c1.39-19.76,3.81-46.13,4.44-72.49c1.07-26.35,0.53-52.59-0.29-72.14c-0.71-9.63-1.1-17.82-1.79-23.2
				c-0.31-2.69-0.49-5.05-0.68-6.21c-0.18-1.3-0.27-1.98-0.27-1.98l37.14-5.94c0,0,0.11,0.99,0.37,2.81
				c0.3,1.94,0.47,4.18,0.83,7.32c0.77,6.24,1.2,14.82,1.93,25.22c0.88,20.66,1.44,48.08,0.33,75.31
				c-0.64,27.29-3.12,54.35-4.58,74.68c-0.93,10.16-2.02,18.56-2.61,24.47C714.39,730.76,714.02,734.13,714.02,734.13z"/>
		</g>
		<g>
			<polygon class="st2" points="676.98,727 676.68,729.93 714.02,734.13 714.37,731.12 			"/>
		</g>
		<g>
			<path class="st3" d="M716.07,750.09l-2.05-15.96l-37.34-4.2l-5.04,14.72c-0.06,0.27-0.14,0.56-0.17,0.87
				c-0.55,5,1.92,9.45,5.58,9.93c2.13,0.26,4.18-0.94,5.62-2.99c0.97,2.36,2.69,4.06,4.82,4.34c2.16,0.26,4.2-0.95,5.66-3.02
				c0.95,2.39,2.66,4.09,4.81,4.36c2.16,0.28,4.2-0.95,5.66-3.04c0.94,2.39,2.66,4.12,4.81,4.39c3.65,0.49,7.05-3.32,7.6-8.49
				C716.07,750.68,716.07,750.4,716.07,750.09z"/>
		</g>
	</g>
	<g>
		<g>
			<path class="st20" d="M659.51,467.24c0,0,50.17,24.52,46.75,102.07C702.82,646.99,659.51,467.24,659.51,467.24z"/>
		</g>
		<g>
			<g>
				<path class="st2" d="M732.58,570.48l-52.89-2.35c0,0,0-3.02,0-6.07c0-1.54,0.02-3.04,0.03-4.18c0.03-1.17-0.04-1.89-0.04-1.89
					l52.9-2.36c0,0,0.08,1.05,0.06,2.62c0,1.59,0,3.69,0,5.79C732.62,566.27,732.58,570.48,732.58,570.48z"/>
			</g>
			<g>
				<path class="st5" d="M732.66,558.84c1.31-1.61,2.77-3.36,4.1-5.29c1.27-1.97,2.55-4.07,3.81-6.33c2.46-4.53,5.04-9.62,6.41-15.4
					c0.77-2.88,1.42-5.9,1.91-9c0.52-3.1,0.45-6.38,0.41-9.68c-0.17-3.33-0.28-6.69-1.11-10.09c-0.78-3.41-1.8-6.83-3.09-10.19
					c-4.75-11.33-11.99-21.16-20.7-28.09c-4.17-3.56-8.9-6.26-13.37-8.46c-4.71-2.06-9.16-3.58-13.7-4.3
					c-17.98-3.15-32.67,4.28-37.81,15.24c-5.24,10.95-7.62,24.32-9.62,36.03c-0.43,2.81-0.96,5.82-1.25,8.36
					c-0.43,2.76-0.56,5.1-0.78,7.58c-0.14,4.63-0.02,8.86,1.74,12.76c0.42,1.25,1.08,2.38,1.95,3.42c0.91,1.03,1.65,2.29,2.8,3.34
					c1.03,1.13,2.46,2.08,3.65,3.28c1.22,1.16,2.59,2.31,4.07,3.47c3.08,2.2,5.92,4.78,9.01,7.17c1.61,1.22,3.16,2.41,4.65,3.55
					c1.5,1.2,2.82,2.39,4.17,3.52L732.66,558.84z"/>
			</g>
			<g>
				<g>
					<path class="st13" d="M689.4,559.58c-2.07-6.04-5.51-15.1-10.39-25.58c-5.04-10.39-11.84-22.04-22.12-32.38
						c0,0,0.18,0.51,0.51,1.43c0.33,0.9,0.72,2.33,1.35,3.91c0.72,1.54,1.21,3.67,2.15,5.7c0.48,1.01,0.77,2.27,1.26,3.43
						c0.45,1.2,1.11,2.28,1.51,3.65c0.47,1.31,1.03,2.62,1.66,3.95c0.68,1.3,1.11,2.84,1.83,4.26c1.53,2.8,2.71,6.05,4.67,9.23
						c0.98,1.62,1.69,3.42,2.76,5.15c0.96,1.77,2.33,3.47,3.33,5.4c1.09,1.9,2.34,3.83,3.73,5.8c0.74,0.98,1.48,1.98,2.21,2.99
						c0.67,1.03,1.39,2.07,2.16,3.11L689.4,559.58z"/>
				</g>
				<g>
					<path class="st13" d="M723.42,559.01c0.78-1.36,1.5-2.74,2.17-4.13c0.62-1.4,1.13-2.85,1.65-4.3c0.98-2.88,1.82-5.85,2.51-8.86
						c0.81-2.98,0.89-6.08,1.14-9.12c0.14-3.07,0.35-6.15,0.06-9.18c-0.95-12.17-4.8-23.77-10.06-32.94
						c-1.17-2.33-2.77-4.43-4.1-6.43c-1.43-1.98-2.7-3.89-4.2-5.54c-2.95-3.29-5.47-6.16-7.99-8.2c-2.48-2.09-4.43-3.69-5.86-4.67
						c-1.47-0.96-2.28-1.48-2.28-1.48c9.23,10.02,15.38,20.84,19.45,30.97c0.99,2.54,1.96,5.02,2.74,7.46
						c0.66,2.48,1.3,4.9,1.91,7.22c1.33,4.66,1.68,9.16,2.24,13.3c0.65,4.15,0.45,8.03,0.51,11.62c-0.02,1.77-0.04,3.49-0.06,5.15
						c-0.11,1.64-0.33,3.21-0.51,4.69c-0.76,5.98-1.48,10.79-2.69,14.47L723.42,559.01z"/>
				</g>
				<g>
					<path class="st13" d="M705.54,559.29c0.61-3.97,0.33-9.27,0.25-15.71c-0.18-3.21-0.74-6.68-1.21-10.42
						c-0.18-1.87-0.65-3.77-1.14-5.74c-0.48-1.96-0.97-3.97-1.49-6.05c-2.55-8.12-6.02-17.15-11.9-25.62
						c-1.43-2.13-3.11-4.16-4.71-6.27c-1.66-2.07-3.56-3.99-5.41-6c-3.98-3.77-8.26-7.43-13.11-10.46c0,0,0.26,0.42,0.82,1.26
						c0.55,0.86,1.46,1.99,2.56,3.64c2.26,3.21,5.57,7.99,9.62,14.48c7.76,13.22,18.33,33.51,23.5,66.93L705.54,559.29z"/>
				</g>
			</g>
		</g>
	</g>
	<g>
		<g>
			<path class="st8" d="M348.04,896.9c-0.9,0-1.66-0.74-1.7-1.64c-0.06-0.95,0.68-1.76,1.61-1.8c0.05,0,1.2-0.07,3.32-0.28
				c0.9-0.06,1.76,0.62,1.86,1.54c0.1,0.94-0.59,1.78-1.54,1.87c-2.27,0.23-3.48,0.3-3.48,0.3H348.04z"/>
		</g>
		<g>
			<path class="st8" d="M368.86,893.89c-0.8,0-1.5-0.55-1.66-1.35c-0.21-0.93,0.39-1.85,1.33-2.02c2.16-0.45,4.43-0.94,6.84-1.53
				c0.92-0.19,1.85,0.37,2.07,1.3c0.21,0.91-0.34,1.83-1.29,2.04c-2.43,0.57-4.75,1.09-6.94,1.54
				C369.08,893.88,368.98,893.89,368.86,893.89z M392.78,887.66c-0.73,0-1.39-0.47-1.62-1.19c-0.3-0.91,0.21-1.87,1.11-2.16
				c2.16-0.68,4.38-1.42,6.66-2.2c0.89-0.3,1.86,0.15,2.17,1.05c0.33,0.87-0.17,1.86-1.06,2.17c-2.28,0.81-4.53,1.55-6.75,2.24
				C393.13,887.64,392.94,887.66,392.78,887.66z M415.91,879.01c-0.66,0-1.28-0.4-1.57-1.04c-0.37-0.86,0.04-1.87,0.91-2.24
				c2.11-0.91,4.22-1.87,6.39-2.88c0.85-0.4,1.86-0.03,2.27,0.83c0.39,0.85,0.04,1.86-0.82,2.28c-2.19,1.01-4.37,1.99-6.49,2.92
				C416.38,878.93,416.15,879.01,415.91,879.01z M438.07,868.05c-0.6,0-1.19-0.3-1.5-0.86c-0.48-0.84-0.17-1.86,0.67-2.33
				c2.01-1.14,4.04-2.3,6.06-3.51c0.81-0.49,1.87-0.22,2.35,0.59c0.48,0.82,0.21,1.86-0.6,2.35c-2.05,1.23-4.1,2.43-6.16,3.55
				C438.65,867.98,438.34,868.05,438.07,868.05z M459.01,854.95c-0.53,0-1.07-0.25-1.42-0.73c-0.53-0.76-0.35-1.84,0.43-2.38
				c1.89-1.34,3.79-2.69,5.67-4.1c0.76-0.57,1.84-0.41,2.39,0.35c0.57,0.77,0.41,1.82-0.34,2.39c-1.93,1.43-3.83,2.81-5.77,4.16
				C459.68,854.84,459.34,854.95,459.01,854.95z M478.49,839.78c-0.47,0-0.96-0.19-1.3-0.58c-0.62-0.73-0.54-1.81,0.18-2.42
				c1.74-1.52,3.49-3.07,5.24-4.66c0.7-0.64,1.78-0.6,2.4,0.1c0.64,0.69,0.59,1.78-0.08,2.41c-1.79,1.65-3.55,3.2-5.33,4.73
				C479.26,839.64,478.88,839.78,478.49,839.78z M496.32,822.72c-0.42,0-0.84-0.16-1.18-0.47c-0.68-0.65-0.72-1.74-0.06-2.43
				c1.57-1.68,3.17-3.4,4.75-5.15c0.62-0.71,1.7-0.76,2.4-0.14c0.72,0.64,0.78,1.71,0.14,2.43c-1.6,1.77-3.2,3.52-4.82,5.23
				C497.2,822.54,496.76,822.72,496.32,822.72z M512.38,803.98c-0.37,0-0.75-0.14-1.05-0.37c-0.75-0.57-0.89-1.64-0.29-2.39
				c1.42-1.82,2.82-3.68,4.22-5.59c0.55-0.78,1.61-0.93,2.39-0.38c0.74,0.56,0.92,1.63,0.35,2.4c-1.42,1.91-2.83,3.81-4.29,5.66
				C513.39,803.75,512.9,803.98,512.38,803.98z M526.59,783.77c-0.33,0-0.64-0.09-0.92-0.25c-0.8-0.53-1.03-1.57-0.53-2.38
				c1.25-1.94,2.47-3.93,3.68-5.95c0.49-0.82,1.54-1.07,2.35-0.58c0.8,0.47,1.07,1.54,0.58,2.33c-1.21,2.06-2.48,4.06-3.73,6.05
				C527.7,783.49,527.14,783.77,526.59,783.77z M538.9,762.38c-0.27,0-0.53-0.04-0.78-0.18c-0.86-0.43-1.17-1.46-0.74-2.29
				c1.07-2.05,2.13-4.14,3.17-6.27c0.41-0.84,1.43-1.2,2.29-0.8c0.84,0.42,1.19,1.46,0.78,2.31c-1.06,2.14-2.13,4.24-3.21,6.33
				C540.12,762.07,539.51,762.38,538.9,762.38z M549.41,740.07c-0.25,0-0.47-0.06-0.68-0.16c-0.88-0.37-1.29-1.38-0.91-2.24
				c0.88-2.13,1.78-4.29,2.66-6.49c0.34-0.88,1.34-1.31,2.2-0.96c0.89,0.36,1.31,1.35,0.97,2.22c-0.9,2.23-1.78,4.41-2.7,6.57
				C550.7,739.66,550.06,740.07,549.41,740.07z M558.15,716.97c-0.18,0-0.37-0.03-0.56-0.1c-0.9-0.3-1.37-1.26-1.08-2.17
				c0.74-2.19,1.48-4.42,2.2-6.67c0.29-0.91,1.25-1.41,2.15-1.1c0.91,0.28,1.41,1.24,1.11,2.12c-0.72,2.28-1.46,4.53-2.22,6.75
				C559.52,716.51,558.86,716.97,558.15,716.97z"/>
		</g>
		<g>
			<path class="st8" d="M565.28,693.22c-0.15,0-0.29-0.02-0.45-0.04c-0.9-0.25-1.43-1.19-1.21-2.12l0.86-3.29
				c0.21-0.74,0.84-1.25,1.6-1.28c0.81-0.1,1.43,0.41,1.68,1.14c0.02,0.02,0.39,1.11,1.17,3.13c0.35,0.89-0.1,1.88-0.99,2.23
				c-0.53,0.19-1.11,0.12-1.54-0.18C566.1,693.08,565.69,693.22,565.28,693.22z"/>
		</g>
		<g>
			<path class="st8" d="M772.85,902.84c-0.18,0-0.37-0.02-0.56-0.1c-2.13-0.74-4.22-1.51-6.28-2.3c-0.89-0.33-1.34-1.31-1.02-2.21
				c0.35-0.87,1.34-1.32,2.21-0.99c2.05,0.78,4.12,1.53,6.2,2.28c0.89,0.31,1.38,1.3,1.05,2.17
				C774.22,902.41,773.57,902.84,772.85,902.84z M751.26,894.25c-0.22,0-0.47-0.06-0.69-0.14c-2.03-0.93-4.06-1.85-6.07-2.81
				c-0.86-0.37-1.22-1.41-0.82-2.26c0.41-0.84,1.42-1.23,2.27-0.82c1.98,0.92,3.98,1.85,6.01,2.75c0.86,0.38,1.25,1.41,0.86,2.27
				C752.53,893.87,751.92,894.25,751.26,894.25z M730.41,883.98c-0.27,0-0.56-0.07-0.82-0.22c-1.97-1.07-3.91-2.16-5.83-3.25
				c-0.82-0.49-1.12-1.5-0.64-2.35c0.46-0.8,1.53-1.08,2.32-0.61c1.91,1.08,3.83,2.15,5.78,3.2c0.83,0.45,1.12,1.5,0.68,2.33
				C731.6,883.64,731.02,883.98,730.41,883.98z M710.42,872.1c-0.32,0-0.64-0.08-0.93-0.28c-1.86-1.21-3.74-2.46-5.57-3.68
				c-0.78-0.53-0.99-1.58-0.47-2.38c0.52-0.77,1.59-0.99,2.37-0.45c1.82,1.23,3.67,2.44,5.54,3.65c0.77,0.49,1.01,1.57,0.49,2.35
				C711.52,871.82,710.97,872.1,710.42,872.1z M691.36,858.78c-0.37,0-0.72-0.13-1.03-0.35c-1.8-1.35-3.56-2.7-5.3-4.07
				c-0.74-0.6-0.86-1.66-0.27-2.4c0.58-0.75,1.65-0.86,2.4-0.29c1.72,1.35,3.46,2.7,5.23,4.02c0.76,0.56,0.92,1.65,0.33,2.41
				C692.39,858.54,691.87,858.78,691.36,858.78z M673.32,844.12c-0.41,0-0.81-0.15-1.15-0.42c-1.68-1.47-3.34-2.95-4.97-4.45
				c-0.7-0.63-0.76-1.71-0.13-2.41c0.63-0.7,1.72-0.74,2.42-0.13c1.64,1.48,3.28,2.96,4.93,4.41c0.72,0.61,0.8,1.69,0.17,2.42
				C674.26,843.93,673.79,844.12,673.32,844.12z M656.29,828.26c-0.45,0-0.86-0.17-1.21-0.49c-1.57-1.58-3.13-3.17-4.69-4.76
				c-0.65-0.68-0.63-1.76,0.04-2.42c0.68-0.65,1.77-0.64,2.42,0.02c1.54,1.57,3.08,3.16,4.65,4.71c0.68,0.68,0.68,1.75,0,2.43
				C657.18,828.08,656.75,828.26,656.29,828.26z M640.34,811.33c-0.47,0-0.93-0.2-1.3-0.58c-1.47-1.68-2.93-3.35-4.36-5.03
				c-0.61-0.73-0.53-1.81,0.18-2.42c0.72-0.61,1.81-0.53,2.41,0.19c1.42,1.65,2.87,3.33,4.33,4.99c0.64,0.7,0.56,1.78-0.14,2.42
				C641.16,811.19,640.74,811.33,640.34,811.33z M625.44,793.45c-0.49,0-1.02-0.21-1.35-0.64c-1.37-1.78-2.74-3.54-4.07-5.3
				c-0.56-0.76-0.41-1.83,0.34-2.39c0.74-0.58,1.81-0.42,2.38,0.33c1.34,1.73,2.69,3.49,4.06,5.25c0.57,0.73,0.43,1.82-0.29,2.4
				C626.18,793.34,625.81,793.45,625.44,793.45z M611.61,774.75c-0.53,0-1.07-0.25-1.41-0.73c-1.29-1.85-2.54-3.68-3.76-5.5
				c-0.52-0.78-0.32-1.85,0.47-2.38c0.78-0.53,1.85-0.33,2.35,0.45c1.22,1.82,2.5,3.63,3.75,5.46c0.54,0.78,0.36,1.85-0.43,2.37
				C612.29,774.66,611.94,774.75,611.61,774.75z M598.86,755.31c-0.59,0-1.15-0.3-1.48-0.82c-1.19-1.92-2.33-3.83-3.46-5.72
				c-0.47-0.8-0.21-1.86,0.58-2.33c0.82-0.49,1.87-0.23,2.35,0.59c1.13,1.87,2.27,3.75,3.44,5.66c0.49,0.8,0.27,1.86-0.56,2.36
				C599.47,755.23,599.16,755.31,598.86,755.31z M587.13,735.17c-0.59,0-1.19-0.31-1.5-0.88c-1.11-2-2.15-3.97-3.15-5.88
				c-0.43-0.86-0.13-1.88,0.72-2.32c0.84-0.44,1.88-0.11,2.31,0.72c0.99,1.91,2.03,3.85,3.13,5.85c0.45,0.82,0.14,1.87-0.69,2.31
				C587.7,735.11,587.43,735.17,587.13,735.17z M576.57,714.44c-0.64,0-1.26-0.36-1.54-0.96c-1-2.16-1.96-4.19-2.82-6.08
				c-0.39-0.86,0-1.89,0.86-2.27c0.86-0.37,1.89-0.01,2.28,0.85c0.86,1.89,1.78,3.91,2.77,6.02c0.41,0.84,0.06,1.87-0.8,2.27
				C577.06,714.4,576.81,714.44,576.57,714.44z"/>
		</g>
		<g>
			<path class="st8" d="M791.94,908.87c-0.14,0-0.29-0.02-0.45-0.06c-1.11-0.31-2.21-0.61-3.32-0.95c-0.9-0.26-1.43-1.21-1.17-2.12
				c0.27-0.91,1.21-1.42,2.12-1.16c1.11,0.32,2.19,0.64,3.28,0.93c0.92,0.25,1.45,1.19,1.19,2.12
				C793.4,908.37,792.7,908.87,791.94,908.87z"/>
		</g>
	</g>
</g>
</svg>
