<?xml version="1.0" encoding="utf-8"?>
<!-- Generator: Adobe Illustrator 26.0.3, SVG Export Plug-In . SVG Version: 6.00 Build 0)  -->
<svg version="1.1" id="Layer_1" xmlns="http://www.w3.org/2000/svg" xmlns:xlink="http://www.w3.org/1999/xlink" x="0px" y="0px"
	 viewBox="0 0 1133.86 1133.86" style="enable-background:new 0 0 1133.86 1133.86;" xml:space="preserve">
<style type="text/css">
	.st0{fill:#FBA80C;}
	.st1{fill:#FF8E4C;}
	.st2{fill:#FFB065;}
	.st3{fill:#FDAA0C;}
	.st4{fill:#B94603;}
	.st5{fill:#F45E09;}
	.st6{fill:#FFF1DA;}
	.st7{fill:#27191A;}
	.st8{fill:#BE3F05;}
	.st9{fill:#312320;}
	.st10{fill:#33A8D3;}
	.st11{fill:#D0B80D;}
</style>
<g>
	<g>
		<path class="st0" d="M966.49,200.72c-4.83-11.13-14.81-20.84-29.93-29.11c-5.08-2.78-10.43-5.28-16.06-7.49
			s-16.04-5.26-20.44-6.41l-12.89,25.3c6.14,0.84,11.8,2.14,16.98,3.87c5.18,1.73,10.07,3.86,14.67,6.38
			c5.08,2.78,9.05,5.58,11.91,8.4c2.86,2.82,4.8,5.65,5.84,8.5c1.04,2.85,1.32,5.63,0.85,8.36c-0.47,2.73-1.44,5.42-2.89,8.08
			c-3.18,5.81-7.52,10.15-13.03,13.03c-5.51,2.88-13.42,4.56-23.74,5.04c-4.02,0.16-7.62,0.5-10.82,1.03
			c-3.2,0.53-6.1,1.38-8.7,2.55c-2.6,1.17-4.9,2.7-6.88,4.6c-1.98,1.9-3.8,4.36-5.46,7.39c-2.78,5.08-4.19,10.24-4.23,15.49
			c-0.04,5.24,0.39,9.76,1.3,13.56l13.58,5.53c0.08-2.16,1.97-10.51,5.09-17.24c1.1-2.38,2.61-4.11,4.04-5.45
			c1.44-1.33,3.19-2.38,5.25-3.14c2.06-0.76,4.55-1.28,7.46-1.57c2.91-0.29,6.4-0.43,10.47-0.4c5.8,0.03,11.21-0.31,16.24-1.02
			c5.02-0.71,9.75-2.09,14.18-4.15c4.43-2.06,8.53-4.96,12.31-8.71c3.78-3.75,7.33-8.64,10.64-14.69
			C969.9,224.44,971.32,211.86,966.49,200.72z"/>
		<path class="st0" d="M869.41,316.69c-3.03,5.54-9.98,7.57-15.51,4.54c-5.54-3.03-7.57-9.98-4.54-15.51
			c3.03-5.54,9.98-7.57,15.51-4.54S872.45,311.15,869.41,316.69z"/>
	</g>
	<g>
		<path class="st1" d="M971.36,789.61c0,0,1.14-0.74,2.86-1.85c6.88-5.93,15.63-13.63,17.3-15.93c2.83-3.89-7.21-2.56-10.34,0.42
			c-3.13,2.99-18.61,10.12-18.61,10.12l-12.96,1.56C960.99,786.75,971.36,789.61,971.36,789.61z"/>
		<path class="st2" d="M556.83,384.84c0,0-57.97,12.58-73.21,47.91c-15.24,35.31-17.65,168.84,0.72,197.12
			c18.37,28.27,66.03,44.47,95.05,43.21c29.02-1.26,70.44-25.79,80.6-40.77c10.16-14.97,35.29-123.03,15.12-184.03
			C654.96,387.3,590.9,379.65,556.83,384.84z"/>
		<path class="st2" d="M610.58,708.21c-0.83-3.08-1.24-24.76-1.45-42.22c-10.23,3.99-20.6,6.7-29.73,7.09
			c-9.93,0.43-22.05-1.23-34.42-4.67c-1.11,14.83-2.88,34.35-4.7,37.83c-3,5.73-16.27,5.72-16.27,5.72s2.24,42.05,17.32,65.93
			c8.83,13.98,29.56,16.89,34.32,16.68c6.33-0.27,29.78-15.25,41.27-42.68c4.84-11.57,8.99-37.56,8.99-37.56
			S611.99,713.46,610.58,708.21z"/>
		<path class="st3" d="M869.13,830.32c0,0-22.54,13.64-28.84,13.77c-6.3,0.14-120.43-106.78-154.32-119.16
			c-22.46-8.21-55.1-13.07-74.62-15.43c3.14,4.08,14.54,4.84,14.54,4.84s-4.15,26-8.99,37.57c-11.48,27.43-34.94,42.41-41.27,42.68
			c-4.76,0.21-25.49-2.7-34.32-16.68C526.24,754.02,524,711.97,524,711.97s12.51-0.03,15.94-5.32
			c-19.72,2.11-62.48,7.37-71.81,14.09c-12.21,8.81-135.44,108.78-146.39,113.36c-10.95,4.58-48.7-8.05-48.7-8.05l-17.46,63.48
			c0,0,52.28,45.78,93.26,36.89c40.98-8.9,113.48-85.73,113.48-85.73s-4.23,73.34-7.56,110.38c-3.33,37.03-9.03,60.01-9.03,60.01
			s44.15,7.21,118.46,8.37c74.31,1.16,135.64-12.12,135.64-12.12l-9.85-162.02c0,0,69.09,84.35,129.96,78.26
			c60.87-6.09,92.93-41.64,92.93-41.64L869.13,830.32z"/>
		<path class="st4" d="M571.19,1062.99c47.05,0,93.08-3.53,137.72-10.2l-13.22-44.63c-14.73,2.86-68.35,12.28-131.5,11.29
			c-60.11-0.94-100.46-5.84-113.69-7.67c-4.92,10.61-11.85,25.6-18.76,40.75C476.92,1059.37,523.53,1062.99,571.19,1062.99z"/>
		<g>
			<path class="st5" d="M579.19,941.99c0,0-18.06-43.92,4.75-60.93c22.81-17.02,48.01-7.87,48.01-7.87l15.29-10.16
				c0,0-8.77,26.87-20.7,36.29c-11.94,9.42-36.03,12.88-39.75,19.5C583.06,925.44,579.19,941.99,579.19,941.99z"/>
			<path class="st5" d="M563.95,917.4c0,0,2.31-33.18-19.55-39.05c-21.86-5.85-39.69,7.22-42.75,3.25
				c-3.06-3.97-6.58,10.7,7.36,18.42c13.94,7.72,38.56,3.36,43.34,6.25C557.13,909.17,563.95,917.4,563.95,917.4z"/>
			<path class="st5" d="M565.4,882.74c0,0-14.85-19.6-7.64-29.07c7.21-9.49,33.17-12.59,33.17-12.59s6.28,5.36-0.85,13.66
				C582.94,863.03,565.4,882.74,565.4,882.74z"/>
		</g>
		<path class="st2" d="M971.36,789.87c0,0-45.1-12.5-50.5-10.8c-4.17,1.31-36.13,36.59-50.53,52.67l28.73,33.89
			c11.01-17.2,42.5-65.28,42.5-65.28s30.28,0.23,35.26-0.97c4.99-1.21,15.13-18.29,17.15-21.95
			C995.99,773.78,971.36,789.87,971.36,789.87z"/>
		<path class="st2" d="M272.18,829.22c-12.29-10.89-40.51-34.56-52.29-33.21c-15.27,1.75-45.79,14.53-45.79,14.53
			s-16.67-25.02-17.6-19.21c-0.92,5.81,6.18,32,14.77,32.79c8.59,0.78,46.7,0.56,46.7,0.56l42.65,46.6L272.18,829.22z"/>
		<g>
			<path class="st1" d="M174.09,810.53c0,0,4.24-1.77,10.33-4.08l-13.17-0.04C172.95,808.82,174.09,810.53,174.09,810.53z"/>
			<path class="st1" d="M158.14,802.7c-5.48-1.69-11.88-2.96-15.45-1.2c-7.06,3.47,16.15,12.07,16.15,12.07s-25.39,4.7-17.59,6.07
				c4.46,0.79,15.96,1.08,24.99,1.17C162.77,816.64,159.87,809.22,158.14,802.7z"/>
		</g>
		<g>
			<path class="st5" d="M460.3,840.71l-1.26,3.39c2.12-2.17,3.29-3.42,3.29-3.42s-0.14,2.43-0.38,6.51l2.17-5.85
				c0.16-0.44,0.16-0.93-0.02-1.37c-0.29-0.71-22.12-55.4-33.68-89.52c-1.04,0.83-2.1,1.67-3.17,2.52
				C438.25,785.28,457.58,833.89,460.3,840.71z"/>
			<path class="st5" d="M717.09,744.03c-8.92,29.49-26.5,89.86-26.73,90.64c-1.11,3.9-2.21,10.05-2.26,10.31
				c-0.05,0.28-0.03,0.57,0.04,0.85l2.37,8.3l-0.54-8.82c0,0,1.04,1.27,2.97,3.47l-1.02-3.57c0.27-1.46,1.19-6.35,2.09-9.5
				c1.06-3.72,17.65-60.49,26.31-89.28C719.25,745.62,718.16,744.81,717.09,744.03z"/>
		</g>
		<path class="st6" d="M505.53,570.94c0,0,7.32,3.82,19.93-0.49c9.71-3.32,11.16-18.65,8.29-25.96
			c-4.66-11.85-13.49-15.98-22.45-14.09c-8.95,1.89-14.15,12.29-14.15,20.94C497.15,562.31,500.97,570,505.53,570.94z"/>
		<path class="st7" d="M535.06,551.96c0,0-0.28-0.97-0.76-2.67c-0.47-1.82-1.43-3.65-3.03-6.3c-2.91-4.8-8.57-10-15.32-10.01
			c-3.51-0.16-6.65,0.71-9.16,2.5c-2.55,1.85-4.71,4.34-6.05,6.81c-2.84,4.9-3.59,9.05-3.59,9.05s-1.31-4.1,0.47-10.37
			c1-3,2.56-6.68,5.83-9.61c3.25-3.07,8.24-4.59,12.71-4.4c4.66,0.18,9.27,2.18,12.32,5.18c3.13,2.97,4.73,6.47,5.89,9.5
			c1.07,2.74,1.21,5.85,1.09,7.5C535.34,550.97,535.06,551.96,535.06,551.96z"/>
		<path class="st6" d="M613.26,566.26c0,0,7.32,3.82,19.93-0.49c9.71-3.32,11.16-18.65,8.29-25.96
			c-4.66-11.85-13.49-15.98-22.45-14.09c-8.95,1.89-14.15,12.29-14.15,20.94C604.88,557.64,608.7,565.33,613.26,566.26z"/>
		<path class="st7" d="M642.79,547.29c0,0-0.28-0.97-0.76-2.67c-0.47-1.82-1.43-3.65-3.03-6.3c-2.91-4.8-8.57-10-15.32-10.01
			c-3.51-0.17-6.65,0.71-9.16,2.5c-2.55,1.85-4.71,4.34-6.05,6.81c-2.84,4.9-3.59,9.05-3.59,9.05s-1.31-4.1,0.47-10.37
			c1-3,2.56-6.68,5.83-9.61c3.25-3.07,8.24-4.59,12.71-4.4c4.66,0.18,9.27,2.18,12.32,5.18c3.13,2.97,4.73,6.47,5.89,9.5
			c1.07,2.74,1.21,5.85,1.09,7.5C643.07,546.3,642.79,547.29,642.79,547.29z"/>
		<g>
			<path class="st8" d="M558.06,596c-0.81,0.04-1.62-0.25-2.24-0.86c-0.82-0.81-8.09-8.09-8.93-13.91
				c-0.91-6.27,5.49-7.36,8.21-7.83c0.83-0.14,2.08-0.36,2.44-0.55c0.79-0.52,1.94-3.3,2.4-5.33c0.37-1.61,2-2.63,3.6-2.27
				c1.63,0.37,2.64,1.98,2.27,3.6c-0.26,1.13-1.7,6.86-4.97,9.03c-1.33,0.88-2.97,1.15-4.71,1.45c-1.04,0.18-2.95,0.5-3.37,0.92
				c0.49,2.86,4.54,7.9,7.28,10.6c1.19,1.17,1.2,3.07,0.03,4.25C559.52,595.66,558.79,595.97,558.06,596z"/>
		</g>
		<g>
			<path class="st8" d="M583.29,640.64c-0.21,0.01-0.44,0-0.65-0.04c-1.64-0.29-2.73-1.85-2.44-3.49
				c1.64-9.21,7.59-17.29,15.52-21.09c8.55-4.07,19.27-2.82,26.11,3.08c1.26,1.09,1.4,2.99,0.31,4.25
				c-1.08,1.26-2.99,1.39-4.25,0.31c-5.08-4.38-13.14-5.3-19.57-2.21c-6.22,2.97-10.89,9.37-12.19,16.71
				C585.88,639.58,584.67,640.58,583.29,640.64z"/>
		</g>
		<path class="st7" d="M528.55,557.47c0.37,8.58-4.71,15.77-11.35,16.05c-6.64,0.29-12.33-6.43-12.7-15.01
			c-0.37-8.58,4.71-15.77,11.35-16.05C522.49,542.18,528.18,548.9,528.55,557.47z"/>
		<path class="st7" d="M633.77,552.91c0.37,8.58-4.71,15.77-11.35,16.05c-6.64,0.29-12.33-6.43-12.7-15.01
			c-0.37-8.58,4.71-15.77,11.35-16.05C627.71,537.61,633.4,544.33,633.77,552.91z"/>
		<path class="st9" d="M548.19,482.73c0,0,1.28,8.54-8.88,14.41c-10.15,5.87-36.27,8.81-36.27,8.81L548.19,482.73z"/>
		<path class="st9" d="M589.76,480.93c0,0-0.53,8.62,10.09,13.59c10.62,4.97,36.89,5.64,36.89,5.64L589.76,480.93z"/>
		<path class="st1" d="M576.49,687.73c14.73-1.16,25.65-5.68,32.81-9.74c-0.07-4.04-0.13-8.12-0.17-11.99
			c-10.23,3.99-20.6,6.7-29.73,7.09c-9.93,0.43-22.05-1.23-34.42-4.67c-0.29,3.84-0.62,7.99-0.99,12.11
			C551.07,684.76,561.9,688.87,576.49,687.73z"/>
		<path class="st9" d="M745.06,607.24c-2.78-8.24,0.14-109.1-23.04-167.22c-23.18-58.12-97.81-93.04-120.31-91.42
			c-22.5,1.61-121.95,24.69-125.73,32.79c-3.78,8.11-6.61,23.49-6.61,23.49s-47.76,34.82-45.45,66.19
			c2.31,31.37,19.55,115.51,12.33,132.81c-7.22,17.29-35.4,14.69-35.4,14.69s12.43,38.97,25.65,40.13
			c13.22,1.16,33.43-12.19,33.43-12.19s3.41,38.66,12.96,43.1c9.55,4.43,43.01,8.88,43.01,8.88l-4-20.27c0,0,9.65,14.83,17.46,18.99
			c4.41,2.35,8.76,4.68,11.75,6.27c1.51-6.7,2.93-22.52,3.87-35.08c-23.79-6.62-48.54-19.94-60.63-38.54
			c-8.72-13.42-12.75-50.56-12.96-89.64c0.07-0.19,0.12-0.32,0.17-0.48c-0.04-2.62-0.05-5.23-0.02-7.79
			c0.48-42.04,8.02-89.21,11.82-96.11c3.8-6.9,12.81-11.43,12.81-11.43s9.96-29.67,36.75-21.28c26.79,8.41,55.62,83.06,56.57,92.03
			c0.95,8.96-8.21,24.53-8.21,24.53s27.11,9.22,33.6-3.15c6.49-12.37,6.73-39.37,6.73-39.37s11.14,49.28,18.38,54.31
			c7.25,5.02,24.44,12.43,24.44,12.43l-7.61-32.84c0,0,11.69,23.11,15.87,35.3c4.18,12.19,1.37,58.33-12.69,85.9
			c0,0.01-0.01,0.02-0.01,0.02c-6.96,10.26-28.6,25.01-50.86,33.68c0.16,13.81,0.46,30.22,0.98,38.02
			c4.52,1.88,9.86,3.57,14.22,3.35c9.5-0.48,45.15-28.04,45.15-28.04l0.95,15.68c0,0,21.49-13.16,32.32-30.89
			c10.83-17.72,8.35-31.69,8.35-31.69s5.23,8.68,25.31,5.38c20.08-3.3,44.37-21.34,44.37-21.34S747.84,615.48,745.06,607.24z"/>
	</g>
	<g>
		<path class="st10" d="M621.41,87.3c-9.73-8.99-23.97-14.29-42.71-15.89c-6.3-0.54-12.74-0.67-19.34-0.41
			c-6.59,0.27-18.34,1.82-23.24,2.61l-1.73,30.94c6.5-1.86,12.72-3.07,18.66-3.62c5.94-0.55,11.76-0.58,17.46-0.09
			c6.3,0.54,11.5,1.59,15.59,3.15c4.1,1.56,7.29,3.53,9.58,5.92c2.29,2.39,3.8,5.05,4.53,7.98c0.73,2.93,0.96,6.05,0.67,9.35
			c-0.62,7.2-3.04,13.45-7.27,18.75c-4.23,5.3-11.39,10.47-21.49,15.5c-3.94,1.93-7.39,3.86-10.35,5.8
			c-2.96,1.94-5.48,4.06-7.57,6.38c-2.09,2.31-3.7,4.86-4.84,7.63c-1.14,2.77-1.88,6.03-2.2,9.78c-0.54,6.3,0.33,12.07,2.6,17.33
			c2.27,5.25,4.69,9.58,7.27,12.97l15.99-0.46c-0.87-2.19-2.67-11.37-2.51-19.46c0.06-2.86,0.79-5.26,1.64-7.22
			c0.85-1.97,2.14-3.78,3.86-5.45c1.73-1.66,3.98-3.28,6.76-4.86c2.78-1.58,6.21-3.25,10.28-5.01c5.81-2.52,11.06-5.25,15.77-8.17
			c4.71-2.92,8.82-6.38,12.33-10.39c3.51-4,6.33-8.71,8.46-14.12c2.12-5.41,3.51-11.86,4.15-19.36
			C635.26,109.48,631.14,96.28,621.41,87.3z"/>
		<path class="st10" d="M575.55,245.87c-0.59,6.87-6.63,11.95-13.49,11.37c-6.86-0.59-11.95-6.63-11.37-13.49
			c0.59-6.87,6.63-11.95,13.49-11.37C571.05,232.97,576.14,239.01,575.55,245.87z"/>
	</g>
	<g>
		<path class="st11" d="M288,189.8c-13.16-1.53-27.78,2.58-43.87,12.33c-5.41,3.28-10.69,6.96-15.87,11.07
			c-5.17,4.1-13.74,12.27-17.24,15.8l16.84,26.02c4.16-5.34,8.47-9.97,12.95-13.92c4.47-3.94,9.16-7.4,14.05-10.36
			c5.41-3.28,10.22-5.49,14.45-6.65c4.23-1.15,7.97-1.44,11.22-0.86c3.25,0.58,6.04,1.84,8.36,3.78c2.32,1.94,4.34,4.32,6.05,7.16
			c3.74,6.18,5.47,12.66,5.18,19.43c-0.29,6.78-3.04,15.17-8.23,25.18c-2.05,3.88-3.7,7.48-4.95,10.79
			c-1.25,3.31-2.04,6.51-2.36,9.61c-0.32,3.1-0.13,6.11,0.58,9.02c0.71,2.91,2.04,5.98,3.99,9.2c3.28,5.41,7.38,9.56,12.31,12.47
			c4.93,2.91,9.44,4.97,13.52,6.19l12.65-9.8c-1.99-1.26-8.85-7.61-13.49-14.25c-1.64-2.34-2.46-4.71-2.93-6.8
			c-0.47-2.09-0.5-4.31-0.09-6.68c0.42-2.36,1.28-5,2.6-7.91c1.32-2.91,3.1-6.28,5.36-10.11c3.2-5.46,5.84-10.76,7.93-15.89
			c2.08-5.13,3.36-10.35,3.84-15.66c0.48-5.31-0.01-10.77-1.48-16.39c-1.47-5.62-4.15-11.65-8.05-18.08
			C312.26,199.56,301.15,191.33,288,189.8z"/>
		<path class="st11" d="M344.38,344.95c3.57,5.89,1.69,13.56-4.2,17.14c-5.89,3.57-13.56,1.69-17.13-4.2
			c-3.57-5.89-1.69-13.56,4.2-17.14C333.14,337.17,340.81,339.06,344.38,344.95z"/>
	</g>
</g>
</svg>
