<?xml version="1.0" encoding="utf-8"?>
<!-- Generator: Adobe Illustrator 26.0.3, SVG Export Plug-In . SVG Version: 6.00 Build 0)  -->
<svg version="1.1" id="Layer_1" xmlns="http://www.w3.org/2000/svg" xmlns:xlink="http://www.w3.org/1999/xlink" x="0px" y="0px"
	 viewBox="0 0 1133.86 1133.86" style="enable-background:new 0 0 1133.86 1133.86;" xml:space="preserve">
<g>
	<path d="M716.3,418.11c-42.33-13.3-79.65-7.24-112.39,20.11c-12.28,10.26-22.62,22.97-33.01,35.25
		c-18.93,22.4-50.38,24.13-71.03,3.26c-12.82-12.98-15.78-30.21-5.2-45.37c46.26-66.21,106.52-108.43,190.72-106.79
		c37.45,0.73,72.14,12.68,104.96,30.1c20.98,11.12,41.28,23.59,62.52,34.12c63.65,31.53,121.09,17.77,164.22-38.56
		c21.19-27.65,47.01-32.88,71.95-14.54c17.04,12.52,21.81,32.5,9.8,49.84c-53.88,77.84-135.57,125.07-237.52,99.49
		c-3.77-0.94-10.82,0.22-12.25,2.75c-27.6,48.6-54.58,97.55-80.81,144.81c32.66,22.78,63.33,44.48,94.32,65.7
		c18.98,13.01,33.77,29.7,43.94,49.97c21.68,43.22,43,86.65,63.38,130.48c9.72,20.87,0.35,42.38-20.68,52.91
		c-22.13,11.07-45.91,5.47-57.03-15.75c-14.32-27.36-28.16-55.14-39.5-83.79c-17.23-43.54-47.47-74.21-87.7-96.13
		c-25.9-14.14-52.16-27.65-78.17-41.6c-7.84-4.2-12.79-2.93-19.23,4.15c-69.68,77.04-177.47,96.34-267.13,48.49
		c-27.38-14.62-35.87-37.62-22.94-62.25c12.47-23.75,38.96-32.28,64.49-18.07c54.58,30.43,106.2,11.47,144.03-23.45
		c23.94-22.11,39.18-49.73,53.72-78.22c23.43-45.88,47.82-91.25,71.76-136.84C713.07,425.49,714.23,422.63,716.3,418.11z"/>
	<path d="M965.77,283.64c-0.16,47.96-38.67,85.89-86.73,85.44c-47.71-0.43-86.14-39.5-85.68-87.05
		c0.48-47.61,39.69-85.92,87.35-85.36C928.99,197.23,965.93,235.04,965.77,283.64z"/>
	<path d="M228.51,424.52c-51.59,0-103.21,0-154.8,0c-4.04,0-9.07,1.35-11.9-0.54c-5.41-3.61-13.52-9.26-13.27-13.73
		c0.27-5.6,6.76-13.6,12.39-15.64c8.02-2.91,17.66-1.67,26.6-1.7c99.63,0,199.23,0.08,298.85,0.22c4.01,0,9.18-0.89,11.79,1.18
		c5.01,3.93,11.09,9.24,12.14,14.84c1.59,8.37-4.69,14.03-13.52,15.11c-3.99,0.48-8.08,0.27-12.09,0.27
		C332.63,424.52,280.58,424.52,228.51,424.52z"/>
	<path d="M526.69,238.3c52.43,0.03,104.82-0.03,157.25,0.08c4.85,0,10.85-0.51,14.22,1.99c4.44,3.31,9.1,9.26,9.4,14.3
		c0.24,4.34-4.69,10.21-8.89,13.17c-3.55,2.53-9.34,2.58-14.16,2.58c-103.02,0.13-206.07,0.16-309.11,0.08
		c-6.22,0-13.33,0.83-18.39-1.83c-5.01-2.64-11.34-9.5-10.96-14c0.48-5.55,6.54-11.52,11.63-15.46c2.88-2.23,8.64-0.94,13.11-0.97
		C422.75,238.24,474.72,238.27,526.69,238.3z"/>
	<path d="M334.97,571.86c51.59,0,103.18,0,154.77,0c3.15,0,6.27-0.05,9.42,0.05c9.88,0.4,16.51,4.87,16.72,15.35
		c0.22,10.74-7,15.19-16.48,15.59c-14.78,0.62-29.59,0.51-44.4,0.48c-92.87-0.05-185.71-0.13-278.58-0.24
		c-3.12,0-7.22,0.86-9.21-0.75c-5.39-4.36-12.98-9.32-13.95-15c-1.45-8.51,5.14-14.94,14.84-15.29c9.85-0.35,19.74-0.27,29.59-0.3
		c45.75-0.03,91.52,0,137.27,0C334.97,571.78,334.97,571.83,334.97,571.86z"/>
	<path d="M193.88,771.33c46.21,0,92.44,0,138.64,0c3.58,0,7.19-0.16,10.77,0.19c8.8,0.86,15.67,6.3,14.24,14.49
		c-1.05,6-7.59,11.82-13.01,15.97c-2.93,2.26-8.64,1.13-13.11,1.13c-91.98,0-183.96-0.08-275.94-0.13
		c-18.79-0.03-27.6-5.47-27.11-16.67c0.48-10.96,7.81-15.08,26.85-15.08c46.21,0,92.44,0,138.64,0
		C193.88,771.25,193.88,771.3,193.88,771.33z"/>
</g>
</svg>
