<?xml version="1.0" encoding="utf-8"?>
<!-- Generator: Adobe Illustrator 26.0.3, SVG Export Plug-In . SVG Version: 6.00 Build 0)  -->
<svg version="1.1" id="Layer_1" xmlns="http://www.w3.org/2000/svg" xmlns:xlink="http://www.w3.org/1999/xlink" x="0px" y="0px"
	 viewBox="0 0 1133.86 1133.86" style="enable-background:new 0 0 1133.86 1133.86;" xml:space="preserve">
<style type="text/css">
	.st0{fill:#E8C197;}
	.st1{fill:#ECD1AA;}
	.st2{fill:#DFA775;}
	.st3{fill:#7C4B23;}
	.st4{fill:#F99499;}
	.st5{fill:#F25F5F;}
	.st6{fill:#A82F2F;}
	.st7{fill:#F9EFE6;}
	.st8{fill:#DDC4AE;}
	.st9{fill:#93755F;}
	.st10{fill:#FFFFFF;}
	.st11{fill:#490000;}
	.st12{fill:#2B0000;}
	.st13{fill:#E2E2E2;}
	.st14{fill:#A0A0A0;}
	.st15{fill:#3A342C;}
	.st16{fill:#28231D;}
	.st17{fill:#16130F;}
	.st18{fill:#E5E5E5;}
	.st19{fill:#6AADEE;}
	.st20{fill:#37E7FA;}
	.st21{fill:#245B89;}
	.st22{fill:#E78083;}
	.st23{fill:#FFB0B6;}
	.st24{fill:#89313C;}
	.st25{fill:#D37178;}
</style>
<g id="XMLID_145_">
	<g id="XMLID_248_">
		<g id="XMLID_257_">
			<path id="XMLID_856_" class="st0" d="M389.96,724.85c-32.42-1.68-59.27,15.21-76.59,38.29c-14.26,19.01-24.6,60.93-9.5,97.55
				c-20.68-15.09-58.14-34.38-97.55-46.68c-39.41-12.3-79.94-16.77-98.11,4.19c-16.77,2.12-31.63,5.84-39.13,19.43
				c-7.76,14.05,0.98,28.28,9.13,33.49c-1.49,8.76,2.23,28.15,26.27,41.37c17.8,9.78,37.08,7.73,44.54,8.76
				c10.44,2.05,58.17,20.03,82.18,30.93c24.01,10.9,52.55,22.92,79.75,38.2c24.42,13.72,42.81,28.65,79.01,25.99
				c43.22-3.17,48.91-29.35,48.91-29.35s1.53-29.23-17.52-75.48C375.79,800.88,389.96,724.85,389.96,724.85z"/>
			<path id="XMLID_779_" class="st1" d="M106.54,828.64c1.93,7.7,7.7,14.03,14.58,18.16c-5.23-5.5-9.47-17.4-6.14-25.49
				c2.75-6.69,12.23-9.18,21.28-10.55c8.53-1.28,26.57-1.3,47.32,4.59c15.23,4.32,43.87,13.73,66.49,24.84
				c41.08,20.18,107.3,65.95,123.44,86.24c-7.07-15.79-43.66-46.88-52.19-52.93c-6.72-4.55-25.82-60.93,0.64-102.34
				c16.87-26.41,53.53-35.77,66.61-34.07c0.61-7.97,1.4-12.23,1.4-12.23c-32.42-1.68-59.27,15.21-76.59,38.29
				c-14.26,19.01-24.6,60.93-9.5,97.55c-20.68-15.09-58.14-34.38-97.55-46.68c-39.41-12.3-79.94-16.77-98.11,4.19
				c-16.77,2.12-31.63,5.84-39.13,19.43c-0.68,1.23-1.23,2.46-1.67,3.68C78.93,829.47,92.05,826.05,106.54,828.64z"/>
			<path id="XMLID_914_" class="st2" d="M421.36,911.55c-1.17-2.83-12.48-32.8-13.57-35.58c-33.69,34.11,9.33,100.17-23.94,110.32
				c-23.11,7.05-56.12-14.58-82.81-25.86c-17.33-7.43-126.07-48.84-134.99-50.58c-14.31-2.79-28.71,2.29-47.22-1.94
				c-12.25-2.8-14.5-8.64-14.5-11.17c0-6.36,7.61-6.17,18.82-8.29c9.9-1.87,19.65-4.87,19.42-8.08
				c-0.46-6.42-31.28-2.54-53.92-14.86c-16.69-9.08-20.2-22.94-20.77-25.79c-0.34-0.47-1.07,5.33-1.37,4.88
				c-2.29,11.55,4.9,22.17,11.7,26.53c-1.49,8.76,2.23,28.15,26.27,41.37c17.8,9.78,37.08,7.73,44.54,8.76
				c10.43,2.05,58.17,20.03,82.18,30.93c24.01,10.9,52.55,22.92,79.75,38.2c24.42,13.72,42.81,28.65,79.01,25.99
				c43.22-3.17,48.91-29.35,48.91-29.35S440.41,957.8,421.36,911.55z"/>
			<path id="XMLID_861_" class="st3" d="M381.82,1018.06c-26.49,0-43.41-9.98-61.22-20.49c-3.33-1.97-6.78-4-10.31-5.98
				c-21.98-12.35-45.1-22.68-65.5-31.79c-4.93-2.2-9.58-4.28-14.15-6.35c-24.06-10.92-71.41-28.76-81.83-30.83
				c-1.61-0.22-3.89-0.29-6.52-0.38c-9.71-0.32-24.38-0.8-38.45-8.53c-10.73-5.9-18.78-13.84-23.28-22.95
				c-3.12-6.32-4.52-13.33-3.82-18.96c-8.43-5.91-16.74-20.53-8.85-34.82c8.15-14.76,24.67-18.14,39.65-20.06
				c20.28-22.72,65.09-14.85,99.21-4.21c40.65,12.69,75.19,31.15,94.23,44.24c-7.09-19.85-6.54-38.94-4.7-51.83
				c2.39-16.82,8.23-32.42,16.02-42.8c9.14-12.19,20.58-22.15,33.08-28.82c13.98-7.46,29.01-10.83,44.68-10.02l1.57,0.08l-0.29,1.54
				c-0.03,0.19-3.49,19.3-1.36,51.63c1.97,29.84,9.23,77.36,32.68,134.29c9.89,24.02,14.15,43.39,15.99,55.4
				c2,13.08,1.65,20.37,1.63,20.68l-0.01,0.11l-0.02,0.11c-0.06,0.28-1.59,7.02-8.61,14.16c-6.39,6.5-18.79,14.6-41.54,16.27
				C387.21,1017.96,384.47,1018.06,381.82,1018.06z M149.09,805.01c-18.33,0-31.72,4.74-39.83,14.09l-0.34,0.4l-0.52,0.07
				c-17.91,2.26-31.25,6.32-38.1,18.73c-7.27,13.17,0.87,26.68,8.67,31.67l0.77,0.49l-0.15,0.9c-1.39,8.18,2.16,27.06,25.58,39.93
				c13.49,7.42,27.77,7.88,37.22,8.19c2.73,0.09,5.09,0.17,6.84,0.41l0.08,0.01c10.48,2.06,58.27,20.04,82.48,31.03
				c4.56,2.07,9.21,4.15,14.13,6.35c20.45,9.14,43.64,19.5,65.73,31.91c3.56,2,7.02,4.04,10.36,6.01
				c20.05,11.83,37.36,22.05,67.87,19.81c21.9-1.61,33.72-9.29,39.78-15.46c6.02-6.12,7.65-11.88,7.86-12.71
				c0.04-0.99,0.21-8.16-1.62-20.11c-1.82-11.85-6.03-30.95-15.8-54.66c-10.42-25.31-18.57-50.91-24.2-76.08
				c-4.51-20.14-7.43-40.06-8.69-59.2c-1.79-27.38,0.39-45.42,1.16-50.63c-28.25-0.94-55.11,12.78-73.88,37.81
				c-13.13,17.5-24.7,58.92-9.33,96.2l1.86,4.51l-3.94-2.88c-17.85-13.02-54-33.01-97.15-46.48c-21.83-6.81-40.88-10.28-56.61-10.31
				C149.23,805.01,149.16,805.01,149.09,805.01z"/>
		</g>
		<g id="XMLID_256_">
			<path id="XMLID_860_" class="st3" d="M373.5,926.42c-8.88-15.09-44.23-46.16-70.42-64.61l1.58-2.25
				c14.18,9.99,34.41,26.34,50.06,41.33C370.74,916.04,373.5,926.42,373.5,926.42z"/>
		</g>
		<g id="XMLID_763_">
			<path id="XMLID_765_" class="st3" d="M373.5,926.48c-8.88-15.09-44.23-46.16-70.42-64.61l1.58-2.25
				c14.18,9.99,34.41,26.34,50.06,41.33C370.74,916.1,373.5,926.48,373.5,926.48z"/>
		</g>
		<g id="XMLID_255_">
			<path id="XMLID_859_" class="st3" d="M148.29,855.36c-6.93,0-15.27-1.17-22.85-5.4c-14.07-7.84-18.63-15.66-19.97-20.84
				c-1.07-4.15-0.51-8.29,1.58-11.65l2.34,1.45c-1.2,1.92-2.38,5.14-1.25,9.51c1.21,4.66,5.42,11.76,18.64,19.12
				c15.72,8.75,35.66,3.38,35.86,3.32C162.63,850.89,159.58,855.06,148.29,855.36z"/>
		</g>
		<g id="XMLID_254_">
			<path id="XMLID_858_" class="st3" d="M118.43,884.17c-4.88,0-9.73-0.46-14.53-1.38c-9.43-1.8-18.56-5.44-26.42-10.51l1.49-2.31
				c16.02,10.35,36.35,13.88,55.8,9.69C134.76,879.66,131.3,883.74,118.43,884.17z"/>
		</g>
		<g id="XMLID_253_">
			<path id="XMLID_857_" class="st3" d="M142.53,922.22c-0.29,0-0.59,0-0.88-0.01l0.04-2.75c8.87,0.13,18.4-1.95,18.5-1.97
				C160.19,917.49,155.69,921.79,142.53,922.22z"/>
		</g>
		<g id="XMLID_252_">
			
				<ellipse id="XMLID_852_" transform="matrix(0.3293 -0.9442 0.9442 0.3293 -699.776 858.4586)" class="st4" cx="254.37" cy="921.79" rx="21.23" ry="62.53"/>
			<g id="XMLID_780_">
				<path id="XMLID_781_" class="st5" d="M284.71,911.81c12.72,9.43,19.63,18.99,16.9,25.2c-4.35,9.88-33.99,5.53-60.54-5.29
					c-22.73-9.27-39.89-20.5-44.15-33.16c-0.72,0.8-1.25,1.67-1.59,2.64c-3.86,11.07,19.44,29.27,52.05,40.64
					c32.61,11.37,62.17,11.61,66.03,0.54C316.26,934.2,304.3,922.14,284.71,911.81z"/>
			</g>
			<path id="XMLID_853_" class="st6" d="M291.79,951.9c-0.21,0-0.42,0-0.63,0c-12.62-0.1-28.33-3.22-44.24-8.76
				c-15.91-5.55-30.15-12.88-40.1-20.65c-10.33-8.07-14.88-15.79-12.8-21.74c2.04-5.86,10.17-9.07,22.92-9.07c0.21,0,0.42,0,0.63,0
				c12.62,0.1,28.33,3.22,44.24,8.76c15.91,5.55,30.15,12.88,40.1,20.64c10.33,8.07,14.88,15.79,12.8,21.74
				C312.67,948.69,304.54,951.9,291.79,951.9z M216.94,894.43c-11.32,0-18.71,2.62-20.32,7.23c-1.63,4.69,2.7,11.49,11.9,18.67
				c9.72,7.59,23.68,14.76,39.31,20.22c15.63,5.45,31.03,8.51,43.36,8.61c11.66,0.1,19.29-2.54,20.93-7.22
				c1.63-4.69-2.7-11.49-11.9-18.67c-9.72-7.59-23.68-14.76-39.31-20.22c-15.63-5.45-31.03-8.51-43.36-8.61
				C217.34,894.43,217.14,894.43,216.94,894.43z"/>
		</g>
		<g id="XMLID_251_">
			
				<ellipse id="XMLID_848_" transform="matrix(0.2668 -0.9637 0.9637 0.2668 -705.3004 749.5618)" class="st4" cx="139.99" cy="838.33" rx="11.65" ry="18.62"/>
			<path id="XMLID_1104_" class="st5" d="M122.46,832.24c-0.17,0.36-0.3,0.73-0.41,1.12c-1.72,6.2,4.93,13.45,14.83,16.19
				c9.91,2.74,19.33-0.06,21.05-6.26c0.33-1.18,0.35-2.4,0.1-3.62C151.28,849.52,126.16,844.97,122.46,832.24z"/>
			<path id="XMLID_849_" class="st6" d="M144.4,851.99c-2.55,0-5.23-0.37-7.89-1.11c-5.04-1.39-9.45-3.95-12.42-7.2
				c-3.13-3.42-4.33-7.22-3.37-10.69c0.96-3.47,3.94-6.11,8.39-7.43c4.22-1.25,9.32-1.18,14.36,0.22c5.04,1.39,9.45,3.95,12.42,7.2
				c3.13,3.42,4.33,7.22,3.37,10.69l0,0c-0.96,3.47-3.94,6.11-8.39,7.43C148.88,851.69,146.69,851.99,144.4,851.99z M135.57,827.42
				c-2.02,0-3.94,0.26-5.68,0.78c-3.5,1.04-5.82,3.01-6.52,5.53c-0.7,2.52,0.28,5.4,2.75,8.1c2.63,2.87,6.58,5.14,11.13,6.4
				c4.55,1.26,9.11,1.34,12.84,0.23c3.5-1.04,5.82-3.01,6.52-5.53c0.7-2.52-0.28-5.4-2.75-8.09c-2.63-2.87-6.58-5.14-11.13-6.4
				C140.31,827.76,137.88,827.42,135.57,827.42z"/>
		</g>
		<g id="XMLID_250_">
			
				<ellipse id="XMLID_844_" transform="matrix(0.2168 -0.9762 0.9762 0.2168 -758.5988 783.8112)" class="st4" cx="109.19" cy="864.68" rx="11.65" ry="18.62"/>
			<path id="XMLID_1103_" class="st5" d="M92.14,858.05c-0.53,0.79-0.92,1.66-1.13,2.6c-1.39,6.28,5.61,13.18,15.65,15.41
				c10.04,2.23,19.3-1.05,20.7-7.33c0.48-2.15-0.03-4.37-1.31-6.45C121.94,876.75,94.91,874.04,92.14,858.05z"/>
			<path id="XMLID_845_" class="st6" d="M112.9,878.13c-2.13,0-4.33-0.24-6.53-0.73c-5.1-1.13-9.64-3.46-12.78-6.55
				c-3.31-3.25-4.7-6.98-3.92-10.5c0.78-3.52,3.62-6.31,7.99-7.86c4.15-1.47,9.25-1.66,14.35-0.52c5.1,1.13,9.64,3.46,12.78,6.55
				c3.31,3.25,4.7,6.98,3.92,10.5c-0.78,3.52-3.62,6.31-7.99,7.86C118.36,877.71,115.7,878.13,112.9,878.13z M105.47,853.99
				c-2.48,0-4.82,0.37-6.89,1.1c-3.45,1.22-5.66,3.3-6.23,5.86c-0.57,2.56,0.55,5.38,3.16,7.94c2.77,2.73,6.84,4.8,11.44,5.82
				c4.61,1.02,9.16,0.87,12.83-0.43c3.45-1.22,5.66-3.3,6.22-5.86l0,0c0.57-2.56-0.55-5.38-3.16-7.94
				c-2.77-2.73-6.84-4.8-11.44-5.82C109.4,854.21,107.4,853.99,105.47,853.99z"/>
		</g>
		<g id="XMLID_249_">
			
				<ellipse id="XMLID_840_" transform="matrix(0.2168 -0.9762 0.9762 0.2168 -783.5958 822.3314)" class="st4" cx="120.7" cy="899.52" rx="9.96" ry="15.93"/>
			<path id="XMLID_1102_" class="st5" d="M133.73,895.62c0.71,12.48-23.07,12.84-27.6-1.79c-0.46,0.69-0.8,1.44-0.98,2.24
				c-1.19,5.37,4.8,11.27,13.39,13.18c8.59,1.91,16.52-0.9,17.71-6.27C136.8,900.48,135.81,897.88,133.73,895.62z"/>
			<path id="XMLID_841_" class="st6" d="M123.87,911.22c-1.83,0-3.73-0.21-5.63-0.63c-4.4-0.98-8.32-2.99-11.03-5.65
				c-2.88-2.83-4.09-6.09-3.4-9.17c0.68-3.08,3.16-5.52,6.97-6.87c3.59-1.27,7.98-1.43,12.39-0.45c4.4,0.98,8.32,2.99,11.03,5.65
				c2.88,2.83,4.09,6.09,3.4,9.17l0,0c-0.68,3.08-3.16,5.52-6.97,6.87C128.59,910.86,126.29,911.22,123.87,911.22z M117.51,890.57
				c-2.1,0-4.08,0.31-5.83,0.93c-2.88,1.02-4.73,2.75-5.2,4.87c-0.47,2.12,0.47,4.47,2.65,6.61c2.35,2.31,5.79,4.06,9.7,4.93
				c7.7,1.71,15.06-0.68,16.07-5.23l0,0c1.01-4.55-4.64-9.83-12.34-11.54C120.85,890.75,119.15,890.57,117.51,890.57z"/>
		</g>
	</g>
	<g id="XMLID_227_">
		<g id="XMLID_1141_">
			<path id="XMLID_1147_" class="st0" d="M743.9,724.88c32.42-1.68,59.27,15.21,76.59,38.29c14.26,19.01,24.6,60.93,9.5,97.55
				c20.68-15.09,58.14-34.38,97.55-46.68c39.41-12.3,79.94-16.77,98.11,4.19c16.77,2.12,31.63,5.84,39.13,19.43
				c7.76,14.05-0.98,28.28-9.13,33.49c1.49,8.76-2.23,28.15-26.27,41.37c-17.8,9.78-37.08,7.73-44.54,8.76
				c-10.43,2.05-58.17,20.03-82.18,30.93s-52.55,22.92-79.75,38.2c-24.42,13.72-42.81,28.65-79.01,25.99
				c-43.22-3.17-48.91-29.35-48.91-29.35s-1.53-29.23,17.52-75.48C758.07,800.91,743.9,724.88,743.9,724.88z"/>
			<path id="XMLID_1146_" class="st1" d="M1027.32,828.67c-1.93,7.7-7.7,14.03-14.58,18.16c5.23-5.5,9.47-17.4,6.14-25.49
				c-2.75-6.69-12.23-9.18-21.28-10.55c-8.53-1.28-26.57-1.3-47.32,4.59c-15.23,4.32-43.87,13.73-66.49,24.84
				c-41.08,20.18-107.3,65.95-123.44,86.24c7.07-15.79,43.66-46.88,52.19-52.93c6.72-4.55,25.82-60.93-0.64-102.34
				c-16.87-26.41-53.53-35.77-66.61-34.07c-0.61-7.97-1.4-12.23-1.4-12.23c32.42-1.68,59.27,15.21,76.59,38.29
				c14.26,19.01,24.6,60.93,9.5,97.55c20.68-15.09,58.14-34.38,97.55-46.68c39.41-12.3,79.94-16.77,98.11,4.19
				c16.77,2.12,31.63,5.84,39.13,19.43c0.68,1.23,1.23,2.46,1.67,3.68C1054.93,829.5,1041.81,826.08,1027.32,828.67z"/>
			<path id="XMLID_1145_" class="st2" d="M712.5,911.58c1.17-2.83,12.48-32.8,13.57-35.58c33.69,34.11-9.33,100.17,23.94,110.32
				c23.11,7.05,56.12-14.58,82.81-25.86c17.33-7.43,126.07-48.84,134.99-50.58c14.31-2.79,28.71,2.29,47.22-1.94
				c12.25-2.8,14.5-8.64,14.5-11.17c0-6.36-7.61-6.17-18.82-8.29c-9.9-1.87-19.65-4.87-19.42-8.08c0.46-6.42,31.28-2.54,53.92-14.86
				c16.69-9.08,20.2-22.94,20.77-25.79c0.34-0.47,1.07,5.33,1.37,4.88c2.29,11.55-4.91,22.17-11.7,26.53
				c1.49,8.76-2.23,28.15-26.27,41.37c-17.8,9.78-37.08,7.73-44.54,8.76c-10.43,2.05-58.17,20.03-82.18,30.93
				c-24.01,10.9-52.55,22.92-79.75,38.2c-24.42,13.72-42.81,28.65-79.01,25.99c-43.22-3.17-48.91-29.35-48.91-29.35
				S693.45,957.83,712.5,911.58z"/>
			<path id="XMLID_1142_" class="st3" d="M743.79,1017.78c-22.75-1.67-35.15-9.77-41.54-16.27c-7.02-7.14-8.55-13.87-8.61-14.16
				l-0.02-0.11l-0.01-0.11c-0.02-0.3-0.37-7.6,1.63-20.68c1.83-12.02,6.1-31.38,15.99-55.4c23.45-56.94,30.71-104.45,32.68-134.29
				c2.13-32.33-1.33-51.44-1.36-51.63l-0.29-1.54l1.57-0.08c15.66-0.81,30.69,2.56,44.68,10.02c12.5,6.67,23.94,16.64,33.08,28.82
				c7.79,10.38,13.63,25.98,16.02,42.8c1.83,12.88,2.39,31.98-4.7,51.83c19.04-13.09,53.57-31.56,94.23-44.24
				c34.12-10.65,78.93-18.51,99.21,4.21c14.97,1.92,31.5,5.3,39.65,20.06c7.89,14.29-0.42,28.91-8.85,34.82
				c0.71,5.63-0.69,12.64-3.82,18.96c-4.5,9.12-12.55,17.05-23.28,22.95c-14.07,7.73-28.74,8.21-38.45,8.53
				c-2.63,0.09-4.91,0.16-6.52,0.38c-10.42,2.07-57.77,19.9-81.83,30.83c-4.57,2.07-9.22,4.15-14.15,6.35
				c-20.4,9.12-43.52,19.45-65.5,31.79c-3.54,1.99-6.98,4.02-10.31,5.98c-17.81,10.51-34.73,20.49-61.22,20.49
				C749.39,1018.09,746.65,1017.99,743.79,1017.78z M984.56,805.04c-15.74,0.03-34.78,3.5-56.61,10.31
				c-43.15,13.46-79.3,33.45-97.15,46.48l-3.94,2.88l1.86-4.51c15.37-37.28,3.79-78.7-9.33-96.2
				c-18.77-25.03-45.63-38.75-73.88-37.81c0.77,5.22,2.96,23.25,1.16,50.63c-1.25,19.14-4.18,39.06-8.69,59.2
				c-5.64,25.17-13.78,50.77-24.2,76.08c-9.76,23.71-13.98,42.81-15.8,54.66c-1.83,11.95-1.66,19.12-1.62,20.11
				c0.21,0.83,1.85,6.59,7.86,12.71c6.06,6.16,17.89,13.85,39.78,15.46c30.51,2.24,47.82-7.98,67.87-19.81
				c3.34-1.97,6.8-4.01,10.36-6.01c22.09-12.41,45.27-22.77,65.73-31.91c4.92-2.2,9.57-4.28,14.13-6.35
				c24.21-10.99,72-28.97,82.48-31.03l0.08-0.01c1.75-0.24,4.11-0.32,6.84-0.41c9.45-0.31,23.73-0.78,37.22-8.19
				c23.42-12.87,26.97-31.75,25.58-39.93l-0.15-0.9l0.77-0.49c7.79-4.99,15.94-18.5,8.67-31.67c-6.85-12.41-20.19-16.46-38.1-18.73
				l-0.52-0.07l-0.34-0.4c-8.11-9.35-21.51-14.09-39.83-14.09C984.7,805.04,984.63,805.04,984.56,805.04z"/>
		</g>
		<g id="XMLID_1139_">
			<path id="XMLID_1140_" class="st3" d="M760.36,926.45c8.88-15.09,44.23-46.16,70.42-64.61l-1.58-2.25
				c-14.18,9.99-34.41,26.34-50.06,41.33C763.12,916.07,760.36,926.45,760.36,926.45z"/>
		</g>
		<g id="XMLID_1137_">
			<path id="XMLID_1138_" class="st3" d="M760.36,926.51c8.88-15.09,44.23-46.16,70.42-64.61l-1.58-2.25
				c-14.18,9.99-34.41,26.34-50.06,41.33C763.12,916.13,760.36,926.51,760.36,926.51z"/>
		</g>
		<g id="XMLID_1135_">
			<path id="XMLID_1136_" class="st3" d="M985.57,855.39c6.93,0,15.27-1.17,22.85-5.4c14.07-7.84,18.63-15.66,19.97-20.84
				c1.07-4.15,0.51-8.29-1.58-11.65l-2.34,1.45c1.2,1.92,2.38,5.14,1.25,9.51c-1.21,4.66-5.42,11.76-18.64,19.12
				c-15.72,8.75-35.66,3.38-35.86,3.32C971.23,850.92,974.28,855.09,985.57,855.39z"/>
		</g>
		<g id="XMLID_1133_">
			<path id="XMLID_1134_" class="st3" d="M1015.43,884.2c4.88,0,9.73-0.46,14.53-1.38c9.43-1.8,18.56-5.44,26.42-10.51l-1.49-2.31
				c-16.02,10.35-36.35,13.88-55.8,9.69C999.1,879.69,1002.56,883.77,1015.43,884.2z"/>
		</g>
		<g id="XMLID_1131_">
			<path id="XMLID_1132_" class="st3" d="M991.33,922.25c0.29,0,0.59,0,0.88-0.01l-0.04-2.75c-8.87,0.13-18.4-1.95-18.5-1.97
				C973.67,917.52,978.17,921.82,991.33,922.25z"/>
		</g>
		<g id="XMLID_1124_">
			
				<ellipse id="XMLID_1130_" transform="matrix(0.9442 -0.3293 0.3293 0.9442 -254.4801 340.9893)" class="st4" cx="879.49" cy="921.82" rx="62.53" ry="21.23"/>
			<g id="XMLID_1128_">
				<path id="XMLID_1129_" class="st5" d="M849.15,911.84c-12.72,9.43-19.63,18.99-16.9,25.2c4.35,9.88,33.99,5.53,60.54-5.29
					c22.73-9.27,39.89-20.5,44.15-33.16c0.72,0.8,1.25,1.68,1.59,2.64c3.86,11.07-19.44,29.27-52.05,40.64
					c-32.61,11.37-62.17,11.61-66.03,0.54C817.6,934.23,829.56,922.17,849.15,911.84z"/>
			</g>
			<path id="XMLID_1125_" class="st6" d="M819.15,942.86c-2.08-5.96,2.47-13.68,12.8-21.74c9.95-7.77,24.19-15.1,40.1-20.64
				c15.91-5.55,31.62-8.66,44.24-8.76c0.21,0,0.42,0,0.63,0c12.74,0,20.87,3.21,22.92,9.07c2.08,5.96-2.47,13.68-12.8,21.74
				c-9.95,7.77-24.19,15.1-40.1,20.65c-15.91,5.55-31.62,8.66-44.24,8.76c-0.21,0-0.42,0-0.63,0
				C829.32,951.93,821.19,948.72,819.15,942.86z M916.31,894.46c-12.33,0.1-27.72,3.16-43.36,8.61
				c-15.63,5.45-29.59,12.63-39.31,20.22c-9.2,7.18-13.53,13.98-11.9,18.67c1.63,4.69,9.26,7.32,20.93,7.22
				c12.33-0.1,27.72-3.16,43.36-8.61c15.63-5.45,29.59-12.63,39.31-20.22c9.2-7.18,13.53-13.98,11.9-18.67
				c-1.61-4.6-8.99-7.23-20.32-7.23C916.72,894.46,916.52,894.46,916.31,894.46z"/>
		</g>
		<g id="XMLID_1118_">
			
				<ellipse id="XMLID_1123_" transform="matrix(0.9637 -0.2668 0.2668 0.9637 -187.6596 295.5775)" class="st4" cx="993.87" cy="838.36" rx="18.62" ry="11.65"/>
			<path id="XMLID_1122_" class="st5" d="M1011.4,832.27c0.17,0.36,0.3,0.73,0.41,1.12c1.72,6.2-4.93,13.45-14.83,16.19
				c-9.91,2.74-19.33-0.06-21.05-6.26c-0.33-1.18-0.35-2.4-0.1-3.62C982.58,849.55,1007.7,845,1011.4,832.27z"/>
			<path id="XMLID_1119_" class="st6" d="M982.99,851.13c-4.45-1.32-7.42-3.96-8.39-7.43l0,0c-0.96-3.47,0.24-7.27,3.37-10.69
				c2.97-3.25,7.39-5.8,12.42-7.2c5.04-1.39,10.14-1.47,14.36-0.22c4.45,1.32,7.42,3.96,8.39,7.43c0.96,3.47-0.24,7.27-3.37,10.69
				c-2.97,3.25-7.39,5.8-12.42,7.2c-2.66,0.74-5.33,1.11-7.89,1.11C987.17,852.02,984.98,851.72,982.99,851.13z M991.13,828.46
				c-4.55,1.26-8.5,3.53-11.13,6.4c-2.47,2.7-3.45,5.57-2.75,8.1c0.7,2.52,3.01,4.49,6.52,5.53c3.73,1.11,8.29,1.03,12.84-0.23
				c4.55-1.26,8.5-3.53,11.13-6.4c2.47-2.7,3.45-5.57,2.75-8.1c-0.7-2.52-3.01-4.49-6.52-5.53c-1.74-0.52-3.66-0.78-5.68-0.78
				C995.98,827.45,993.55,827.79,991.13,828.46z"/>
		</g>
		<g id="XMLID_796_">
			
				<ellipse id="XMLID_1117_" transform="matrix(0.9762 -0.2168 0.2168 0.9762 -163.0982 242.7141)" class="st4" cx="1024.67" cy="864.71" rx="18.62" ry="11.65"/>
			<path id="XMLID_1116_" class="st5" d="M1041.72,858.08c0.53,0.79,0.92,1.66,1.13,2.6c1.39,6.28-5.61,13.18-15.65,15.41
				c-10.04,2.23-19.3-1.05-20.7-7.33c-0.48-2.15,0.03-4.37,1.31-6.45C1011.92,876.78,1038.95,874.07,1041.72,858.08z"/>
			<path id="XMLID_797_" class="st6" d="M1013.15,876.9c-4.37-1.55-7.21-4.34-7.99-7.86c-0.78-3.52,0.61-7.25,3.92-10.5
				c3.14-3.09,7.68-5.41,12.78-6.55c5.1-1.13,10.2-0.95,14.35,0.52c4.37,1.55,7.21,4.34,7.99,7.86s-0.61,7.25-3.92,10.5
				c-3.14,3.09-7.68,5.41-12.78,6.55c-2.21,0.49-4.41,0.73-6.53,0.73C1018.16,878.16,1015.5,877.74,1013.15,876.9z M1022.44,854.68
				c-4.61,1.02-8.67,3.09-11.44,5.82c-2.61,2.57-3.73,5.39-3.16,7.94l0,0c0.57,2.56,2.78,4.64,6.22,5.86
				c3.67,1.3,8.23,1.45,12.83,0.43c4.61-1.02,8.67-3.09,11.44-5.82c2.61-2.56,3.73-5.39,3.16-7.94c-0.57-2.56-2.78-4.64-6.22-5.86
				c-2.06-0.73-4.41-1.1-6.89-1.1C1026.46,854.01,1024.46,854.24,1022.44,854.68z"/>
		</g>
		<g id="XMLID_228_">
			
				<ellipse id="XMLID_795_" transform="matrix(0.9762 -0.2168 0.2168 0.9762 -170.9238 241.0461)" class="st4" cx="1013.16" cy="899.55" rx="15.93" ry="9.96"/>
			<path id="XMLID_794_" class="st5" d="M1000.13,895.64c-0.71,12.48,23.07,12.84,27.6-1.79c0.46,0.69,0.8,1.44,0.98,2.24
				c1.19,5.37-4.8,11.27-13.39,13.18c-8.59,1.91-16.52-0.9-17.71-6.27C997.06,900.51,998.05,897.91,1000.13,895.64z"/>
			<path id="XMLID_229_" class="st6" d="M1003.24,910.17c-3.81-1.35-6.28-3.79-6.97-6.87l0,0c-0.68-3.08,0.53-6.33,3.4-9.17
				c2.71-2.67,6.63-4.68,11.03-5.65c4.4-0.98,8.8-0.82,12.39,0.45c3.81,1.35,6.28,3.79,6.97,6.87c0.68,3.08-0.53,6.33-3.4,9.17
				c-2.71,2.67-6.63,4.68-11.03,5.65c-1.9,0.42-3.8,0.63-5.63,0.63C1007.57,911.25,1005.27,910.89,1003.24,910.17z M1011.3,891.16
				c-7.7,1.71-13.35,6.99-12.34,11.54l0,0c1.01,4.55,8.37,6.94,16.07,5.23c3.9-0.87,7.35-2.62,9.7-4.93
				c2.18-2.14,3.12-4.49,2.65-6.61c-0.47-2.12-2.32-3.85-5.2-4.87c-1.75-0.62-3.73-0.93-5.83-0.93
				C1014.71,890.6,1013.01,890.78,1011.3,891.16z"/>
		</g>
	</g>
	<g id="XMLID_237_">
		<rect id="XMLID_808_" x="467.2" y="678.35" class="st0" width="199.4" height="221.17"/>
		<path id="XMLID_809_" class="st3" d="M667.97,900.89H465.82V676.97h202.15V900.89z M468.57,898.14h196.64V679.72H468.57V898.14z"
			/>
	</g>
	<g id="XMLID_236_">
		<path id="XMLID_804_" class="st7" d="M628.11,898.7c-6.15-35.78-33.54-46.09-61.21-46.09c-27.67,0-55.06,10.31-61.21,46.09
			s-4.47,93.45,3.35,104.72c7.83,11.27,28.79,18.26,57.86,18.26s50.03-6.99,57.86-18.26C632.58,992.15,634.26,934.48,628.11,898.7z"
			/>
		<path id="XMLID_1105_" class="st8" d="M501.96,946.8c-0.16,25.79,2.32,49.77,7.08,56.62c7.83,11.27,28.79,18.26,57.86,18.26
			s50.03-6.99,57.86-18.26c4.74-6.82,7.22-30.64,7.08-56.31C610.64,1003.23,528.26,1012.56,501.96,946.8z"/>
		<path id="XMLID_281_" class="st9" d="M628.96,980.26c-1.21,11.08-3.08,19.13-5.34,22.38c-7.68,11.06-28.89,17.67-56.73,17.67
			c-27.84,0-49.05-6.61-56.73-17.67c-2.71-3.9-4.87-14.72-5.99-29.41c-0.92-0.05-1.85-0.11-2.77-0.18
			c0.86,11.59,2.67,25.65,6.5,31.16c4.05,5.84,11.55,10.64,21.67,13.88c10.15,3.25,23.05,4.97,37.31,4.97
			c14.26,0,27.17-1.72,37.32-4.97c10.13-3.24,17.62-8.04,21.67-13.88c3.04-4.37,4.8-14.13,5.84-23.76
			C630.8,980.39,629.88,980.33,628.96,980.26z"/>
	</g>
	<g id="XMLID_231_">
		<g id="XMLID_235_">
			<path id="XMLID_799_" class="st0" d="M508.99,873.51c0,0-2.47,6.05-0.24,20.45c2.24,14.39,9.2,34.53,12.3,45.28
				c5.5,19.1,9.36,81.9,6.01,98.53c-2.33,11.55-16.63,37.17-36.76,48.91s-32.7,5.68-36.2-3.77c-1.26,1.26-8.48,10.98-26.41,8.94
				c-13.56-1.54-18.35-17.05-17.61-27.95c-11.46-3.63-11.18-24.6-3.77-38.71c7.41-14.12,19.15-20.26,25.02-35.92
				c-1.21-25.9-28.08-80.11-38.15-108.73c-10.96-31.12-20.54-61.49-16.91-114.6c3.63-53.11,24.04-98.52,33.82-114.88l106.77,119.07
				L508.99,873.51z"/>
			<path id="XMLID_1100_" class="st1" d="M403.05,1057.13c0.21-0.09,1.44-17.29,13.54-34.07c7.12-9.87,19.43-19.71,20.94-26.32
				c2.63-11.55,0.62-23.19-11.22-57.8c-16.74-48.92-41.63-103.42-38.6-158.99c3.48-63.99,29.31-118.29,29.98-120.42l-7.6-8.47
				c-9.78,16.35-30.19,61.77-33.82,114.88c-3.63,53.11,5.95,83.48,16.91,114.6c10.08,28.62,36.94,82.83,38.15,108.73
				c-5.87,15.65-17.61,21.8-25.02,35.92C401.02,1035.28,399.37,1048.88,403.05,1057.13z"/>
			<path id="XMLID_1107_" class="st2" d="M521.05,939.23c-3.09-10.75-10.06-30.89-12.3-45.28c-1.95-12.52-0.33-18.73,0.13-20.13
				c-8.31,7.37-9.6,41.33-2.88,76.71c5.32,28,1.01,62.87,0,73.73c-1.01,10.82-4.67,22.67-20.36,36.45
				c-10.18,8.94-24.62,8.67-29.71-5.64c-8.25,17.06-40.59,26.78-43.74,0c-1.21,2.74-2.56,8.68-2.1,8.83
				c-0.75,10.9,4.05,26.41,17.61,27.95c17.93,2.03,25.16-7.69,26.41-8.94c3.49,9.45,16.07,15.51,36.2,3.77
				c20.12-11.74,34.43-37.36,36.76-48.91C530.42,1021.13,526.55,958.33,521.05,939.23z"/>
			<path id="XMLID_803_" class="st3" d="M470.25,1094.52c-2.95,0-5.37-0.51-7.28-1.2c-4.11-1.47-7.34-4.27-9.27-7.98
				c-6.47,6.45-15.26,9.1-26.15,7.87c-6.57-0.75-11.84-4.62-15.24-11.2c-2.53-4.9-3.86-11.25-3.65-17.18
				c-3.12-1.31-5.56-3.94-7.09-7.66c-3.46-8.42-1.98-22.14,3.53-32.63c3.36-6.41,7.6-11.22,11.71-15.87
				c5.12-5.81,9.96-11.3,13.14-19.62c-0.95-17.78-13.87-48.72-25.27-76.04c-4.98-11.94-9.69-23.21-12.79-32.01
				c-11.8-33.5-20.54-63.25-16.99-115.15c1.6-23.45,6.54-47.53,14.67-71.57c8.38-24.76,16.92-39.88,19.34-43.92l0.96-1.6
				l108.02,120.46l-2.05,1.84L410.32,653.38c-10.34,18.01-29.24,62.38-32.68,112.65c-3.51,51.37,5.15,80.85,16.84,114.05
				c3.07,8.73,7.76,19.97,12.73,31.87c11.55,27.68,24.65,59.04,25.5,77.26l0.01,0.28l-0.1,0.26c-3.36,8.95-8.64,14.94-13.75,20.74
				c-4,4.53-8.13,9.22-11.34,15.33c-5.16,9.83-6.6,22.58-3.42,30.31c1.39,3.38,3.54,5.55,6.39,6.45l1.03,0.33l-0.07,1.08
				c-0.65,9.45,3.23,25,16.39,26.49c10.57,1.2,18.93-1.53,24.87-8.1c0.18-0.2,0.32-0.35,0.42-0.45l1.52-1.52l0.74,2.01
				c1.45,3.91,4.46,6.87,8.49,8.31c4.72,1.69,13.02,2.16,25.72-5.25c19.94-11.63,33.89-37.04,36.1-48
				c1.53-7.57,1.64-25.96,0.29-47.98c-1.35-22.01-3.75-41.13-6.27-49.89c-0.76-2.64-1.78-5.92-2.86-9.4
				c-3.47-11.18-7.78-25.1-9.48-36.05c-2.25-14.45,1.6-20.66,1.6-20.66c-0.01,0.06-1.04,6.32,1.12,20.24
				c1.67,10.75,5.95,24.56,9.39,35.65c1.08,3.49,2.11,6.79,2.87,9.46c5.58,19.39,9.42,82.42,6.04,99.18
				c-1.32,6.55-5.89,16.09-11.92,24.89c-5.24,7.65-13.91,18.18-25.49,24.94C482.32,1092.93,475.45,1094.52,470.25,1094.52z"/>
		</g>
		<g id="XMLID_234_">
			<path id="XMLID_802_" class="st3" d="M429.97,1003.23c0.01-0.06,0.8-5.82-0.01-13.83l2.74-0.28
				C433.55,997.49,429.97,1003.23,429.97,1003.23z"/>
		</g>
		<g id="XMLID_233_">
			<path id="XMLID_801_" class="st3" d="M411.46,1063.96l-2.75-0.14c0.57-11.34,5.35-21.93,11.04-29.53
				c6.47-9.31,13.41-8.35,13.41-8.35c-4.31,1.8-9.54,6.98-13.64,13.52C414.74,1047.1,411.87,1055.8,411.46,1063.96z"/>
		</g>
		<g id="XMLID_232_">
			<path id="XMLID_800_" class="st3" d="M452.83,1083.39c-2.72-7.18-1.04-18.36,2.27-27.78c3.41-9.99,9.69-12.61,9.69-12.61
				c-3.13,3.54-6.49,10.72-8.56,18.28c-2.35,8.6-2.65,16.3-0.83,21.13L452.83,1083.39z"/>
		</g>
	</g>
	<g id="XMLID_777_">
		<g id="XMLID_1110_">
			<path id="XMLID_1114_" class="st0" d="M624.78,873.51c0,0,2.47,6.05,0.24,20.45c-2.24,14.39-9.2,34.53-12.3,45.28
				c-5.5,19.1-9.36,81.9-6.01,98.53c2.33,11.55,16.63,37.17,36.76,48.91s32.7,5.68,36.2-3.77c1.26,1.26,8.48,10.98,26.41,8.94
				c13.56-1.54,18.35-17.05,17.61-27.95c11.46-3.63,11.18-24.6,3.77-38.71c-7.41-14.12-19.15-20.26-25.02-35.92
				c1.21-25.9,28.08-80.11,38.15-108.73c10.96-31.12,20.54-61.49,16.91-114.6c-3.63-53.11-24.04-98.52-33.82-114.88L616.92,770.13
				L624.78,873.51z"/>
			<path id="XMLID_1113_" class="st1" d="M730.73,1057.13c-0.21-0.09-1.44-17.29-13.54-34.07c-7.12-9.87-19.43-19.71-20.94-26.32
				c-2.63-11.55-0.62-23.19,11.22-57.8c16.74-48.92,41.63-103.42,38.6-158.99c-3.48-63.99-29.31-118.29-29.98-120.42l7.6-8.47
				c9.78,16.35,30.19,61.77,33.82,114.88c3.63,53.11-5.95,83.48-16.91,114.6c-10.08,28.62-36.94,82.83-38.15,108.73
				c5.87,15.65,17.61,21.8,25.02,35.92C732.76,1035.28,734.41,1048.88,730.73,1057.13z"/>
			<path id="XMLID_1112_" class="st2" d="M612.72,939.23c3.09-10.75,10.06-30.89,12.3-45.28c1.95-12.52,0.33-18.73-0.13-20.13
				c8.31,7.37,9.6,41.33,2.88,76.71c-5.32,28-1.01,62.87,0,73.73c1.01,10.82,4.67,22.67,20.36,36.45
				c10.18,8.94,24.62,8.67,29.71-5.64c8.25,17.06,40.59,26.78,43.74,0c1.21,2.74,2.56,8.68,2.1,8.83
				c0.75,10.9-4.05,26.41-17.61,27.95c-17.93,2.03-25.16-7.69-26.41-8.94c-3.49,9.45-16.07,15.51-36.2,3.77
				c-20.12-11.74-34.43-37.36-36.76-48.91C603.36,1021.13,607.23,958.33,612.72,939.23z"/>
			<path id="XMLID_1111_" class="st3" d="M663.53,1094.52c2.95,0,5.37-0.51,7.28-1.2c4.11-1.47,7.34-4.27,9.27-7.98
				c6.47,6.45,15.26,9.1,26.15,7.87c6.57-0.75,11.84-4.62,15.24-11.2c2.53-4.9,3.86-11.25,3.65-17.18c3.12-1.31,5.56-3.94,7.09-7.66
				c3.46-8.42,1.98-22.14-3.53-32.63c-3.36-6.41-7.6-11.22-11.71-15.87c-5.12-5.81-9.96-11.3-13.14-19.62
				c0.95-17.78,13.87-48.72,25.27-76.04c4.98-11.94,9.69-23.21,12.79-32.01c11.8-33.5,20.54-63.25,16.99-115.15
				c-1.6-23.45-6.54-47.53-14.67-71.57c-8.38-24.76-16.92-39.88-19.34-43.92l-0.96-1.6L615.89,769.21l2.05,1.84l105.51-117.67
				c10.34,18.01,29.24,62.38,32.68,112.65c3.51,51.37-5.15,80.85-16.84,114.05c-3.07,8.73-7.76,19.97-12.73,31.87
				c-11.55,27.68-24.65,59.04-25.5,77.26l-0.01,0.28l0.1,0.26c3.36,8.95,8.64,14.94,13.75,20.74c4,4.53,8.13,9.22,11.34,15.33
				c5.16,9.83,6.6,22.58,3.42,30.31c-1.39,3.38-3.54,5.55-6.39,6.45l-1.03,0.33l0.07,1.08c0.65,9.45-3.23,25-16.39,26.49
				c-10.57,1.2-18.93-1.53-24.87-8.1c-0.18-0.2-0.32-0.35-0.42-0.45l-1.52-1.52l-0.74,2.01c-1.45,3.91-4.46,6.87-8.49,8.31
				c-4.72,1.69-13.02,2.16-25.72-5.25c-19.94-11.63-33.89-37.04-36.1-48c-1.53-7.57-1.64-25.96-0.29-47.98
				c1.35-22.01,3.75-41.13,6.27-49.89c0.76-2.64,1.78-5.92,2.86-9.4c3.47-11.18,7.78-25.1,9.48-36.05
				c2.25-14.45-1.6-20.66-1.6-20.66c0.01,0.06,1.04,6.32-1.12,20.24c-1.67,10.75-5.95,24.56-9.39,35.65
				c-1.08,3.49-2.11,6.79-2.87,9.46c-5.58,19.39-9.42,82.42-6.04,99.18c1.32,6.55,5.89,16.09,11.92,24.89
				c5.24,7.65,13.91,18.18,25.49,24.94C651.46,1092.93,658.33,1094.52,663.53,1094.52z"/>
		</g>
		<g id="XMLID_1108_">
			<path id="XMLID_1109_" class="st3" d="M703.81,1003.23c-0.01-0.06-0.8-5.82,0.01-13.83l-2.74-0.28
				C700.23,997.49,703.81,1003.23,703.81,1003.23z"/>
		</g>
		<g id="XMLID_1101_">
			<path id="XMLID_1106_" class="st3" d="M722.31,1063.96l2.75-0.14c-0.57-11.34-5.35-21.93-11.04-29.53
				c-6.47-9.31-13.41-8.35-13.41-8.35c4.31,1.8,9.54,6.98,13.64,13.52C719.04,1047.1,721.9,1055.8,722.31,1063.96z"/>
		</g>
		<g id="XMLID_1098_">
			<path id="XMLID_1099_" class="st3" d="M680.95,1083.39c2.72-7.18,1.04-18.36-2.27-27.78c-3.41-9.99-9.69-12.61-9.69-12.61
				c3.13,3.54,6.49,10.72,8.56,18.28c2.35,8.6,2.65,16.3,0.83,21.13L680.95,1083.39z"/>
		</g>
	</g>
	<g id="XMLID_225_">
		<path id="XMLID_222_" class="st2" d="M401.92,657.43c-0.92,8.8-0.18,35.21,8.07,55.39c8.25,20.18,20.07,31.55,23.42,30.45
			c3.36-1.1,3.17-5.94,3.17-5.94s7.34,13.65,18.52,24.84c11.19,11.19,34.3,24.58,37.42,25.68c3.12,1.1,2.38-4.4,2.38-4.4
			s10.11,10.78,19.55,18.32c9.43,7.54,26.32,20.89,34.19,28.08c10.59,9.67,14.85,17.42,18.25,17.97
			c3.4,0.55,10.64-10.88,21.37-20.73c7.01-6.43,31.64-25.26,36.59-30.22c4.95-4.95,11.83-12.38,11.83-12.38s-2.61,10.04,0,10.87
			c2.61,0.83,24.08-15.18,36.68-26.23c14.86-13.02,22.89-29.35,22.89-29.35s-1.87,12.49,0,12.85s33.97-24.77,36.27-87.63
			c-16.76-42.77-151.02-45.69-151.02-45.69l-164.25,10.67L401.92,657.43z"/>
		<path class="st7" d="M726.31,692.24c-9.6,25.06-23.38,38.29-24.13,38.57c-0.75,0.28,0-11.74,0-15.65
			c-2.33,6.71-10.69,21.85-24.88,36.9c-13.2,14-32.24,24.04-32.98,23.66c-0.75-0.37,6.62-12.11,8.01-18.63
			c-8.01,12.21-21.15,25.76-34.43,35.96c-13.27,10.2-19.7,14.82-29.77,22.78c-10.06,7.96-19.29,16.91-21.24,21.1
			c-1.96-4.19-11.18-13.14-21.24-21.1c-10.06-7.97-16.49-12.58-29.77-22.78c-13.28-10.2-26.41-23.76-34.43-35.96
			c1.4,6.52,8.76,18.26,8.01,18.63c-0.75,0.37-19.78-9.66-32.98-23.66c-14.19-15.05-22.55-30.19-24.88-36.9
			c0,3.91,0.75,15.93,0,15.65c-0.75-0.28-14.53-13.51-24.13-38.57c-7.02-18.34-9.62-35.59-9.53-47.61c0.02-2.55,0.16-4.87,0.4-6.91
			h337.09c0.12,1,0.21,2.06,0.28,3.19C736.44,652.93,734.09,671.92,726.31,692.24z"/>
		<path class="st10" d="M726.31,692.24c-9.6,25.06-23.38,38.29-24.13,38.57c-0.75,0.28,0-11.74,0-15.65
			c-2.33,6.71-10.69,21.85-24.88,36.9c-13.2,14-32.24,24.04-32.98,23.66c-0.75-0.37,6.62-12.11,8.01-18.63
			c-8.01,12.21-21.15,25.76-34.43,35.96c-13.27,10.2-19.7,14.82-29.77,22.78c-10.06,7.96-19.29,16.91-21.24,21.1
			c-1.96-4.19-11.18-13.14-21.24-21.1c-10.06-7.97-16.49-12.58-29.77-22.78c-13.28-10.2-26.41-23.76-34.43-35.96
			c1.4,6.52,8.76,18.26,8.01,18.63c-0.75,0.37-19.78-9.66-32.98-23.66c-14.19-15.05-22.55-30.19-24.88-36.9
			c0,3.91,0.75,15.93,0,15.65c-0.75-0.28-14.53-13.51-24.13-38.57c-7.02-18.34-9.62-35.59-9.53-47.61l1.4-0.94
			c0,0,19.82,49.06,25.43,62.9c2.52-6.93,2.94-10.89,2.94-10.89s28.19,53.16,50.51,67.63c-2.83-15.56-0.88-35.2-0.88-35.2
			s7.24,32.37,36.96,52.18c29.71,19.81,52.94,40.34,52.77,47.15c15.85-19.56,93.24-72.61,86.38-104.1
			c7.29,5.3,6.86,31.49,6.86,31.49s37.36-31.32,42.17-60.52c5.66,1.79,5.81,20.9,5.81,20.9s19.22-36.61,27.43-74.31
			C736.44,652.93,734.09,671.92,726.31,692.24z"/>
		<g id="XMLID_751_">
			<path id="XMLID_775_" class="st8" d="M535.89,732.67c11.52,1.28,22.26-4.38,30.79-9.73c46.11-1.63,87.69-9.11,128.23-35.47
				c18.24-11.86,40.53-34.63,40.53-49.77H398.35c3.11,39.26,68.64,67.89,109.41,78.63C514.94,723.48,524.21,731.37,535.89,732.67z"
				/>
		</g>
		<path id="XMLID_791_" class="st9" d="M566.89,840.19l-1.25-2.67c-1.76-3.77-10.53-12.43-20.85-20.61
			c-5.97-4.73-10.74-8.33-16.27-12.51c-3.79-2.87-8.09-6.12-13.48-10.26c-10.5-8.07-20.54-17.87-28.25-27.44
			c0.58,1.18,1.17,2.32,1.7,3.35c2.3,4.48,2.61,5.18,2.32,6.05c-0.12,0.38-0.38,0.68-0.73,0.86c-0.56,0.28-0.96,0.48-4.87-1.59
			c-2.45-1.29-5.4-3.05-8.31-4.93c-5.84-3.78-14.29-9.87-21.42-17.43c-11.22-11.9-18.45-23.34-22.3-30.89
			c0.29,8.76,0.09,9.24-0.71,9.81c-0.39,0.28-0.9,0.35-1.35,0.18c-1.58-0.59-15.55-14.86-24.93-39.37
			c-8.9-23.23-10.52-44.25-9.21-55.18l0.15-1.21h339.53l0.15,1.21c1.31,10.94-0.32,31.95-9.21,55.18
			c-9.38,24.51-23.36,38.78-24.93,39.37c-0.45,0.17-0.96,0.1-1.35-0.18c-0.8-0.58-1-1.05-0.71-9.81
			c-3.85,7.55-11.08,18.99-22.3,30.89c-7.13,7.56-15.58,13.65-21.42,17.43c-2.91,1.89-5.86,3.64-8.31,4.93
			c-3.91,2.07-4.31,1.86-4.87,1.59c-0.35-0.18-0.61-0.48-0.73-0.86c-0.28-0.86,0.03-1.56,2.33-6.05c0.53-1.04,1.11-2.17,1.7-3.35
			c-7.71,9.58-17.75,19.37-28.25,27.44c-5.39,4.14-9.69,7.39-13.48,10.26c-5.53,4.18-10.3,7.78-16.27,12.51
			c-10.32,8.17-19.09,16.84-20.85,20.61L566.89,840.19z M478.57,750.18l4.04,6.15c7.81,11.89,20.56,25.21,34.11,35.63
			c5.38,4.13,9.68,7.38,13.47,10.24c5.54,4.19,10.32,7.8,16.32,12.55c7.96,6.3,16.75,14.32,20.39,19.51
			c3.64-5.2,12.43-13.21,20.39-19.51c5.99-4.74,10.78-8.36,16.32-12.55c3.79-2.86,8.08-6.11,13.47-10.24
			c13.55-10.41,26.31-23.73,34.11-35.63l4.04-6.15l-1.54,7.19c-0.86,4.03-3.79,9.75-5.93,13.93c-0.33,0.64-0.67,1.3-0.98,1.92
			c5.78-3,19.52-11.49,29.53-22.11c13.87-14.71,22.29-29.83,24.58-36.4l2.68-7.7v8.16c0,1.21-0.07,3.18-0.14,5.27
			c-0.08,2.21-0.19,5.41-0.19,7.58c4.15-4.3,14.33-16.74,21.8-36.26c8.4-21.92,10.19-41.74,9.18-52.66H399.59
			c-1.02,10.92,0.78,30.74,9.18,52.66c7.47,19.51,17.65,31.95,21.8,36.26c0-2.17-0.11-5.37-0.19-7.58
			c-0.07-2.09-0.14-4.06-0.14-5.27V707l2.68,7.7c2.28,6.57,10.71,21.69,24.58,36.4c10.01,10.62,23.75,19.11,29.53,22.11
			c-0.31-0.62-0.65-1.28-0.98-1.92c-2.14-4.18-5.07-9.9-5.93-13.93L478.57,750.18z"/>
	</g>
	<g id="XMLID_146_">
		<g id="XMLID_218_">
			<g id="XMLID_224_">
				<path id="XMLID_786_" class="st7" d="M264.74,51.6c4.89,9.76,14.72,33.17,25.16,63.08c11.39,32.64,14.11,55.46,20.68,75.75
					c9.78,30.19,29.35,64.85,65.96,102.3c42.86,43.84,75.19,62.89,75.19,62.89l12.86-5.12c0,0-14.81-32.61-30.47-91.87
					s-8.94-96.15-45.84-143.67s-91.81-68.2-106.35-69.74C264.74,43.4,264.74,51.6,264.74,51.6z"/>
				<path id="XMLID_787_" class="st3" d="M451.62,357.14l-0.58-0.34c-0.32-0.19-32.97-19.64-75.47-63.11
					c-32.72-33.47-55.02-68.07-66.29-102.84c-2.72-8.4-4.83-17.39-7.06-26.92c-3.25-13.89-6.94-29.64-13.62-48.8
					c-10.2-29.23-19.95-52.66-25.09-62.91l-0.15-0.29V51.6c0-0.26,0.07-2.62,2.44-4.75c3.11-2.8,8.59-3.81,16.27-3
					c8.06,0.85,25.68,6.78,45.32,17.79c17.16,9.62,41.83,26.53,61.97,52.47c11.81,15.2,19.94,30.23,25.59,47.28
					c5.09,15.36,7.72,31.04,10.49,47.65c2.55,15.26,5.2,31.04,10,49.23c15.44,58.47,30.24,91.32,30.39,91.65l0.6,1.31L451.62,357.14
					z M266.16,51.35c5.22,10.51,14.92,33.87,25.04,62.88c6.73,19.29,10.43,35.12,13.7,49.08c2.31,9.88,4.31,18.41,6.99,26.7
					c11.14,34.36,33.22,68.6,65.64,101.76c39.17,40.07,69.82,59.54,74.33,62.32l10.9-4.34c-2.9-6.7-16.19-38.62-29.96-90.76
					c-4.84-18.31-7.49-34.16-10.05-49.48c-5.71-34.13-10.22-61.09-35.54-93.7c-19.86-25.57-44.21-42.26-61.15-51.76
					c-20.61-11.55-37.76-16.77-44.27-17.46c-8.46-0.89-12.32,0.72-14.06,2.24C266.57,49.83,266.25,50.87,266.16,51.35z"/>
			</g>
			<g id="XMLID_223_">
				<path id="XMLID_782_" class="st0" d="M530.03,314.15c-2.93-34.8-17.61-112.36-51.57-160.57s-91.15-77.75-134.47-95.22
					c-38.34-15.46-60.7-19.05-70.39-17.19c-9.69,1.86-10.16,8.57-8.85,10.44c5.78-6.06,29.91,3.96,51.24,16.77
					c25.58,15.36,50.93,33.44,65.73,57.35c15.4,24.88,19.82,57.26,30.61,95.17c11.37,39.97,27.58,106.4,46.03,129.6
					C491.05,340.43,530.03,314.15,530.03,314.15z"/>
				<path id="XMLID_778_" class="st1" d="M478.46,153.58c-33.96-48.21-91.15-77.75-134.47-95.22
					c-38.34-15.46-60.7-19.05-70.39-17.19c-9.69,1.86-10.16,8.57-8.85,10.44c5.78-6.06,29.91,3.96,51.24,16.77
					c25.58,15.36,50.93,33.44,65.73,57.35c15.4,24.88,19.82,57.26,30.61,95.17c11.37,39.97,27.58,106.4,46.03,129.6
					c3.27-1.01,6.6-2.17,9.94-3.46c-9.6-15.03-20.81-48.96-28.16-75.55c-10.8-39.1-17.67-73.68-27.37-112.26
					c-9.47-37.69-28.95-59.36-64.76-82.79c34.69,9.18,95.65,46.12,126.26,103.97c32.39,61.23,36.66,102.7,44.16,141.1
					c7.15-4.36,11.6-7.36,11.6-7.36C527.09,279.35,512.42,201.79,478.46,153.58z"/>
				<path id="XMLID_774_" class="st2" d="M483.6,286.58c-8.13-25.5-12.3-59.54-22.64-81.06c-10.34-21.52-23.48-37.49-28.23-36.34
					c-5.17,1.26,2.52,12.02,8.94,24.6c6.43,12.58,13.28,26.83,15.09,53.67c1.46,21.54-1.93,36.58,0,55.62
					c2.35,23.13,12.78,33.76,22.89,39.2c13.45-6.07,26.35-13.31,35.73-18.93C497.41,314.95,489.31,304.48,483.6,286.58z"/>
				<path id="XMLID_783_" class="st3" d="M457.86,352.08l-0.58-0.73c-15.91-20-29.79-70.42-40.95-110.93
					c-1.88-6.82-3.65-13.27-5.33-19.15c-3.02-10.63-5.53-20.75-7.95-30.54c-6.18-24.98-11.53-46.56-22.5-64.29
					c-15.46-24.97-43-43.52-65.27-56.89c-11.19-6.72-22.27-12.17-31.21-15.34c-9.45-3.36-16.13-3.96-18.33-1.66l-1.16,1.22
					l-0.96-1.38c-0.8-1.14-1.17-3.38-0.19-5.79c0.8-1.98,3.15-5.49,9.91-6.79c12.2-2.35,38.14,3.95,71.16,17.27
					c62.72,25.29,108.17,57.49,135.08,95.7c34.34,48.75,48.91,126.79,51.81,161.25l0.07,0.8l-0.67,0.45
					c-0.39,0.26-39.52,26.51-72.04,36.52L457.86,352.08z M270.49,48.43c3.67,0,8.52,1.06,14.51,3.19c9.1,3.23,20.36,8.77,31.7,15.58
					c22.53,13.53,50.42,32.33,66.19,57.8c11.2,18.1,16.59,39.87,22.83,65.07c2.42,9.76,4.92,19.86,7.93,30.45
					c1.68,5.89,3.45,12.34,5.33,19.17c10.37,37.67,24.54,89.1,39.87,109.21c29.62-9.35,64.49-31.98,69.73-35.44
					c-3.04-34.6-17.52-111.19-51.25-159.08c-26.6-37.77-71.64-69.65-133.86-94.73c-46.23-18.64-64.08-18.18-69.62-17.11
					c-5.48,1.05-7.29,3.66-7.88,5.12c-0.26,0.63-0.36,1.21-0.38,1.71C266.89,48.73,268.52,48.43,270.49,48.43z"/>
			</g>
		</g>
		<g id="XMLID_211_">
			<g id="XMLID_215_">
				<g id="XMLID_217_">
					<path id="XMLID_770_" class="st7" d="M962.46,139.22c-7.2,8.2-22.64,28.36-40.31,54.65c-19.29,28.69-27.7,50.08-39.2,68.04
						c-17.11,26.72-44.82,55.3-89.73,82.26c-52.57,31.56-88.67,41.79-88.67,41.79l-11.14-8.21c0,0,22.59-27.79,52.74-81.15
						s33.01-90.75,80.74-127.37c47.73-36.62,106.1-42.72,120.55-40.52C964.54,131.28,962.46,139.22,962.46,139.22z"/>
					<path id="XMLID_771_" class="st3" d="M704.28,387.46l-12.84-9.47l0.91-1.12c0.23-0.28,22.88-28.34,52.61-80.96
						c9.26-16.38,15.81-30.98,22.15-45.09c6.89-15.36,13.4-29.86,22.22-43.43c9.79-15.07,21.46-27.54,36.73-39.26
						c26.05-19.99,54.21-30.1,73.24-35.06c21.79-5.68,40.34-6.95,48.35-5.73c7.64,1.16,12.68,3.52,14.98,7.02
						c1.75,2.66,1.22,4.96,1.16,5.21l-0.08,0.31l-0.21,0.24c-7.57,8.62-22.93,28.81-40.2,54.51
						c-11.32,16.84-18.87,31.14-25.53,43.76c-4.57,8.65-8.89,16.82-13.64,24.26c-19.71,30.78-50.05,58.61-90.18,82.69
						c-52.12,31.29-88.64,41.83-89,41.94L704.28,387.46z M695.38,377.47l9.44,6.96c5.07-1.54,39.68-12.64,87.69-41.46
						c39.76-23.87,69.8-51.4,89.28-81.82c4.7-7.34,8.79-15.08,13.53-24.06c6.7-12.68,14.29-27.05,25.68-44.01
						c17.14-25.5,32.44-45.63,40.15-54.48c0.03-0.49-0.02-1.58-0.88-2.84c-1.3-1.91-4.62-4.45-13.04-5.73
						c-6.46-0.98-24.38-0.28-47.24,5.68c-18.79,4.9-46.57,14.87-72.26,34.58c-32.75,25.13-43.94,50.07-58.12,81.64
						c-6.36,14.17-12.94,28.83-22.26,45.32C720.82,344.22,699.88,371.73,695.38,377.47z"/>
				</g>
				<g id="XMLID_216_">
					<path id="XMLID_766_" class="st0" d="M639.33,326c11.65-32.92,45.49-104.23,90.56-142.27s107.87-52.13,154.21-58.05
						c41.01-5.24,63.55-3.06,72.45,1.2c8.9,4.26,7.65,10.86,5.92,12.34c-4.05-7.32-29.94-3.75-53.82,3.24
						c-28.64,8.38-57.74,19.45-78.11,38.83c-21.2,20.16-33.68,50.37-53.72,84.32c-21.12,35.79-53.63,95.94-77.35,113.71
						C670.37,361.3,639.33,326,639.33,326z"/>
					<path id="XMLID_762_" class="st1" d="M956.54,126.88c-8.9-4.26-31.44-6.45-72.45-1.2c-46.34,5.93-109.14,20.01-154.21,58.05
						S650.98,293.08,639.33,326c0,0,6.65,7.55,16.66,17.46c18.75-17.97,40.61-51.96,60.44-86.34c18.81-32.62,32.7-61.94,72.67-88
						c51.47-33.55,162.26-53.75,173.35-29.91c0.26-0.32,0.49-0.63,0.7-0.96C964.34,135.86,964.14,130.51,956.54,126.88z"/>
					<path id="XMLID_758_" class="st2" d="M782.02,217.82c17.33-26.83,35.8-40.35,33.93-43.28c-1.88-2.93-22.56,4.71-45.28,34.8
						c-13.31,17.63-32.62,67.57-52.82,94.75c-21.83,29.37-39.92,44.67-49.15,51.39c7.71,6.96,16.27,14.06,24.87,19.98
						c9.8-11.62,25.66-31.85,38.88-55.41C755.67,278.62,765.92,242.75,782.02,217.82z"/>
					<path id="XMLID_767_" class="st3" d="M699.53,380.98l-0.8-0.49c-28.93-17.92-60.13-53.22-60.44-53.58l-0.53-0.61l0.27-0.76
						c11.54-32.59,45.4-104.4,90.97-142.86c35.72-30.15,87.84-49.79,154.92-58.36c35.32-4.52,62.01-4.03,73.22,1.32
						c6.21,2.97,7.59,6.96,7.87,9.08c0.33,2.58-0.59,4.65-1.65,5.55l-1.28,1.09l-0.81-1.47c-1.54-2.79-8.16-3.9-18.15-3.04
						c-9.45,0.81-21.55,3.27-34.08,6.94c-24.93,7.29-56.27,18.26-77.55,38.5c-15.11,14.37-25.74,33.89-38.05,56.49
						c-4.82,8.85-9.81,18.01-15.43,27.53c-3.11,5.26-6.46,11.05-10,17.17c-21.05,36.36-47.26,81.62-67.71,96.94L699.53,380.98z
						 M640.89,325.69c4.2,4.68,32.2,35.4,58.48,51.95c19.93-15.57,46.66-61.73,66.23-95.55c3.55-6.13,6.9-11.92,10.01-17.19
						c5.6-9.48,10.57-18.61,15.38-27.45c12.42-22.8,23.15-42.5,38.57-57.17c21.71-20.65,53.45-31.77,78.68-39.15
						c12.7-3.72,24.99-6.21,34.62-7.04c9.72-0.83,16.2,0.08,19.34,2.71c0.11-0.48,0.15-1.07,0.06-1.75
						c-0.2-1.56-1.29-4.54-6.33-6.95c-5.08-2.43-22.24-7.4-71.68-1.08c-66.55,8.51-118.19,27.94-153.49,57.74
						C686.01,222.57,652.6,293,640.89,325.69z"/>
				</g>
			</g>
		</g>
		<g id="XMLID_147_">
			<g id="XMLID_210_">
				<path id="XMLID_754_" class="st0" d="M753.1,566.12c-0.76-43.68-21.86-81.46-26.64-116.87c-2.72-20.17-6.15-55.45-37.2-97.83
					c-27.34-37.32-81.17-46.41-105.48-49.12s-78.82-5.68-113.7,24.7c-39.61,34.51-50.72,68.18-57.81,87.25
					c-12.45,33.49-41.35,65.7-51.7,108.14c-10.35,42.44-2.31,83.83,31.52,118.54c40.85,41.92,89.26,57.19,146.22,69.72
					c58.32,0.31,108.9-3.94,157.97-35.84C736.91,648.41,753.86,609.8,753.1,566.12z"/>
				<g id="XMLID_220_">
					<path id="XMLID_221_" class="st1" d="M402.29,635.78c-33.19-35.31-40.44-73.97-31.09-112.24
						c10.37-42.43,36.8-71.53,49.25-105.02c7.09-19.07,11.97-47.02,51.58-81.53c34.88-30.39,82.85-28.55,107.16-25.84
						c24.31,2.71,78.96,13.48,110.08,40.28c-27.34-37.32-81.17-46.41-105.48-49.12c-24.31-2.71-78.82-5.68-113.7,24.7
						c-39.61,34.51-50.72,68.18-57.81,87.25c-12.45,33.49-41.35,65.7-51.7,108.14c-10.35,42.44-2.31,83.83,31.52,118.54
						c40.85,41.92,89.26,57.19,146.22,69.72c-7.47-1.64-13.46-9.24-20.33-11.19C472.45,686.58,431.72,667.09,402.29,635.78z"/>
				</g>
				<path id="XMLID_755_" class="st3" d="M544.05,712.06c-1.94,0-3.86-0.01-5.75-0.02l-0.15,0l-0.14-0.03
					c-24.54-5.4-53.16-12.46-79.4-23.92c-26.35-11.51-48.43-26.61-67.5-46.18c-16.52-16.95-27.51-36.12-32.67-57
					c-4.85-19.61-4.58-40.75,0.81-62.83c6.13-25.14,18.53-46.39,30.52-66.94c8.3-14.23,16.14-27.67,21.23-41.36
					c0.33-0.88,0.66-1.78,1.01-2.72c7.16-19.43,19.14-51.94,57.19-85.09c15.33-13.35,36.04-21.8,61.54-25.09
					c16.19-2.09,34.1-2.07,53.22,0.06c19.12,2.13,36.59,6.05,51.92,11.65c24.16,8.83,42.5,21.62,54.52,38.02
					c29.83,40.71,34.36,75.06,37.07,95.59c0.13,0.99,0.26,1.95,0.38,2.87c1.95,14.48,6.64,29.31,11.61,45.02
					c7.17,22.68,14.59,46.14,15.04,72.01c0.4,22.72-3.99,43.4-13.04,61.46c-9.63,19.23-24.57,35.51-44.41,48.41
					c-22.91,14.89-47.77,24.77-76.01,30.2C595.02,711.17,567.86,712.06,544.05,712.06z M538.46,709.29
					c62.66,0.32,110.8-5.54,157.07-35.62c37.56-24.42,57-61.6,56.2-107.52c-0.44-25.47-7.8-48.73-14.91-71.23
					c-5-15.82-9.73-30.76-11.71-45.48c-0.13-0.93-0.25-1.89-0.38-2.88c-2.67-20.26-7.15-54.18-36.56-94.32
					c-24.34-33.23-70.28-44.75-104.52-48.56c-34.25-3.81-81.59-2.68-112.65,24.37c-37.52,32.69-49.35,64.79-56.42,83.96
					c-0.35,0.94-0.68,1.85-1.01,2.73c-5.17,13.92-13.07,27.45-21.43,41.79c-11.89,20.38-24.18,41.45-30.22,66.2
					c-10.88,44.62-0.11,85.16,31.16,117.25C431.6,679.51,477.27,695.82,538.46,709.29z"/>
			</g>
			<g id="XMLID_209_">
				<path id="XMLID_750_" class="st2" d="M444.07,365.18c-10.14,8.69-14.27,26.11-6.93,46.61c5.46,15.26,21.65,28.5,21.14,49.24
					s5.84,79.62,16.45,79.28c10.61-0.34,21.16-15.53,23.56-40.83c2.4-25.3-3.75-53.4,1.85-73.45s32.55-34.66,62.78-33.45
					c30.24,1.21,52.34,11.06,58.89,45.01c6.56,33.95-9.47,83.2-17.63,95.79s-30.44,8.12-47.12,8.74
					c-21.36,0.8-30.79,8.1-35.04,21.03c8.06-7.63,19.9-12.72,33.75-9.46c13.85,3.26,26.88,9.26,31.64,16.08
					c8.81,7.46,28.73,7.05,40.81,6.33s31.7-0.09,43.45,7.15c11.76,7.24,16.52,14.99,15.03,30.86
					c-1.49,15.87-16.76,31.84-27.83,40.33c-11.07,8.49-30.65,20.09-30.28,24.35c0.37,4.26,21.02-2.44,39.14-8.3
					c18.12-5.86,39.55-18.97,50.28-37.02c10.73-18.06,15.55-38.61,13.05-54.08c-2.5-15.46-14.87-43.24-14.05-60.75
					c0.82-17.51,10.36-66,2.96-96.18c-7.4-30.18-46.4-73.46-103.9-88.38C550.77,317.16,460.48,332.45,444.07,365.18z"/>
			</g>
			<g id="XMLID_208_">
				<path id="XMLID_748_" class="st0" d="M498.01,692.97c7.59,5.31,20.23,24.92,39.26,27.04c19.02,2.12,35.92-14.72,44.24-17.74
					L498.01,692.97z"/>
				<path id="XMLID_212_" class="st1" d="M498.01,692.97c7.59,5.31,20.23,24.92,39.26,27.04c19.02,2.12,35.92-14.72,44.24-17.74
					c-20.03-0.6-30.23,11.43-44.55,9.78C523.45,710.5,514.11,694.77,498.01,692.97z"/>
				<path id="XMLID_749_" class="st3" d="M540.58,721.57c-1.15,0-2.3-0.06-3.47-0.19c-15.02-1.67-25.99-14.05-33.25-22.24
					c-2.27-2.56-4.23-4.77-5.85-6.17c0,0,4.28,0,7.91,4.34c7.4,8.35,17.53,19.78,31.5,21.33c13.96,1.56,26.36-7.36,35.42-13.88
					c5.3-3.51,8.67-2.5,8.67-2.5c-1.9,1.01-4.29,2.73-7.07,4.73C566.25,712.9,554.19,721.57,540.58,721.57z"/>
			</g>
			<g id="XMLID_207_">
				<path id="XMLID_744_" class="st11" d="M546.35,638.46l-52.43,4.82c6.03,5.17,13.43,12.23,20.58,27.32
					c4.02,8.5,5.51,15.16,11.46,20.03c6.1,4.99,21.76,6.74,28.81,3.21c6.87-3.44,9.79-9.61,15.58-17.01
					c10.29-13.15,19.06-18.41,26.09-22.12L546.35,638.46z"/>
				
					<ellipse id="XMLID_274_" transform="matrix(0.1275 -0.9918 0.9918 0.1275 -201.0594 1129.557)" class="st12" cx="541.52" cy="679.06" rx="12.04" ry="14.32"/>
				<g id="XMLID_205_">
					<g id="XMLID_206_">
						<path id="XMLID_740_" class="st4" d="M521.53,685.63c1.19,1.84,2.59,3.5,4.42,5c6.1,4.99,21.76,6.74,28.81,3.21
							c1.81-0.9,3.34-2,4.72-3.25c-3.97-3.96-10.66-7.03-18.49-8C533.38,681.66,526.34,682.92,521.53,685.63z"/>
						<path id="XMLID_776_" class="st5" d="M546.51,683.66c1.76,1.03,4.54,3.89,2.76,6.02c-2.3,2.75-14.2,3.3-23.66,0.65
							c0.12,0.1,0.23,0.2,0.35,0.3c6.1,4.99,21.76,6.74,28.81,3.21c1.81-0.9,3.34-2,4.72-3.25
							C556.49,687.59,551.94,685.11,546.51,683.66z"/>
						<path id="XMLID_741_" class="st6" d="M544.6,697.09c-7.27,0-15.33-1.97-19.51-5.39c-1.81-1.48-3.35-3.22-4.71-5.32l-0.79-1.23
							l1.27-0.72c5.26-2.98,12.66-4.15,20.3-3.21c7.9,0.97,14.94,4.03,19.3,8.39l1.02,1.02l-1.07,0.97
							c-1.57,1.42-3.21,2.55-5.03,3.46C552.62,696.45,548.74,697.09,544.6,697.09z M523.56,686.14c0.98,1.31,2.05,2.44,3.27,3.43
							c5.69,4.65,20.75,6.33,27.32,3.04c1.15-0.58,2.23-1.26,3.26-2.07c-3.96-3.35-10.03-5.78-16.58-6.59
							C534.4,683.17,528.21,683.96,523.56,686.14z"/>
					</g>
				</g>
				<path id="XMLID_745_" class="st3" d="M544.6,697.09c-7.27,0-15.33-1.97-19.51-5.39c-4.71-3.85-6.78-8.77-9.17-14.46
					c-0.81-1.93-1.65-3.92-2.66-6.04c-7.01-14.79-14.12-21.63-20.23-26.87l-2.47-2.12l55.95-5.14l0.27,0.09l53.18,17.24l-2.87,1.52
					c-7.12,3.77-15.56,8.87-25.65,21.76c-1.45,1.85-2.7,3.61-3.92,5.31c-3.59,5.02-6.69,9.36-12.13,12.09
					C552.62,696.45,548.74,697.09,544.6,697.09z M497.22,644.36c6.08,5.54,12.44,12.81,18.52,25.66c1.03,2.18,1.88,4.2,2.7,6.15
					c2.35,5.57,4.2,9.98,8.38,13.4c5.69,4.65,20.75,6.33,27.32,3.04c4.83-2.42,7.61-6.3,11.12-11.23c1.23-1.73,2.51-3.51,3.99-5.41
					c8.76-11.2,16.56-16.89,23.71-20.95l-46.78-15.17L497.22,644.36z"/>
			</g>
			<g id="XMLID_202_">
				<g id="XMLID_204_">
					<path id="XMLID_735_" class="st10" d="M545.6,645.2l-22.76,7.78c5.47,6.42,4.45,18.12,8.38,22.4
						c2.94,3.2,10.69,2.97,10.69,2.97s7.51,1.93,11.08-0.55c4.77-3.31,6.35-14.95,13.1-20.01L545.6,645.2z"/>
					<path id="XMLID_764_" class="st13" d="M548.92,647.24l-3.33-2.04l-3.17,1.08c-3.38,9.26-1.85,29.4-12.85,26.28
						c0.44,1.11,0.97,2.07,1.65,2.81c2.94,3.2,10.69,2.97,10.69,2.97s5.84,1.5,9.67,0.15C545.1,673.89,548.72,657.52,548.92,647.24z
						"/>
					<path id="XMLID_737_" class="st14" d="M547.63,680.45c-2.65,0-5.09-0.53-5.88-0.72c-1.46,0.03-8.45-0.05-11.55-3.42
						c-2.07-2.25-2.88-6.05-3.73-10.07c-0.92-4.3-1.96-9.18-4.68-12.37l-1.31-1.54l25.29-8.64l22.77,13.99l-1.62,1.21
						c-3.36,2.52-5.44,7.05-7.29,11.04c-1.72,3.73-3.34,7.25-5.86,9C552.08,680.1,549.78,680.45,547.63,680.45z M542.06,676.97
						l0.19,0.05c1.92,0.49,7.45,1.39,9.95-0.35c1.9-1.32,3.37-4.51,4.93-7.89c1.71-3.71,3.62-7.85,6.64-10.8l-18.34-11.27
						l-20.37,6.96c2.29,3.54,3.25,8,4.1,12c0.78,3.64,1.51,7.08,3.07,8.78c2.06,2.24,7.66,2.58,9.63,2.53L542.06,676.97z"/>
				</g>
				<g id="XMLID_203_">
					
						<rect id="XMLID_736_" x="527.07" y="660.4" transform="matrix(0.1107 -0.9939 0.9939 0.1107 -174.161 1128.9022)" class="st14" width="33.35" height="2.75"/>
				</g>
			</g>
			<g id="XMLID_201_">
				<path id="XMLID_730_" class="st0" d="M477.37,615.94c-0.81,19.03,17.13,36.41,35.82,40.36c20.72,4.39,31.89-6.39,31.89-6.39
					s8.53,12.97,29.7,13.24c19.1,0.25,40.42-12.75,43.82-31.49L477.37,615.94z"/>
				<path id="XMLID_214_" class="st2" d="M477.37,615.94c-0.81,19.03,17.13,36.41,35.82,40.36c20.72,4.39,31.89-6.39,31.89-6.39
					s8.53,12.97,29.7,13.24c19.1,0.25,40.42-12.75,43.82-31.49c-22.8,24.47-52.5,26.12-71.62,4.1
					C525.06,653.67,493.26,646.71,477.37,615.94z"/>
				<path id="XMLID_734_" class="st3" d="M575.31,664.54c-0.19,0-0.37,0-0.56,0c-11.28-0.15-19.03-3.87-23.55-6.97
					c-3.2-2.19-5.26-4.37-6.35-5.68c-1.35,1.03-3.85,2.71-7.45,4.14c-5.09,2.03-13.47,3.95-24.51,1.62
					c-9.52-2.02-18.98-7.46-25.94-14.94c-7.47-8.02-11.36-17.55-10.97-26.83l2.75,0.12c-0.79,18.74,17.31,35.27,34.73,38.96
					c19.77,4.19,30.54-5.93,30.65-6.03l1.19-1.15l0.91,1.39c0.02,0.03,2.11,3.13,6.66,6.22c4.19,2.85,11.39,6.27,21.91,6.41
					c0.17,0,0.34,0,0.51,0c17.69,0,38.62-12.09,41.94-30.37l2.71,0.49c-1.66,9.14-7.55,17.58-16.6,23.76
					C595.07,661.33,584.89,664.54,575.31,664.54z"/>
			</g>
			<g id="XMLID_200_">
				
					<rect id="XMLID_733_" x="532.42" y="634.4" transform="matrix(0.1107 -0.9939 0.9939 0.1107 -145.7496 1108.6615)" class="st3" width="28.46" height="2.75"/>
			</g>
			<g id="XMLID_199_">
				<path id="XMLID_732_" class="st3" d="M472,621.22c0,0-0.25-5.88,5.18-6.64c5.31-0.75,7.27,5.01,7.27,5.01
					c-0.02-0.02-2.95-2.84-6.88-2.29C473.6,617.86,472.02,621.19,472,621.22z"/>
			</g>
			<g id="XMLID_198_">
				<path id="XMLID_731_" class="st3" d="M622.67,638.01c-0.03-0.15-0.87-3.65-4.56-5.05c-3.71-1.4-7.19,0.7-7.22,0.72
					c0,0,3.18-5.19,8.2-3.3C624.2,632.32,622.67,638.01,622.67,638.01z"/>
			</g>
			<g id="XMLID_197_">
				<path id="XMLID_726_" class="st15" d="M427.07,426.22c-0.63-7.85,8.3-32.45,22.11-38.6c16.2-7.22,29.26,3.26,30.8,18.05
					C467.98,395.53,441.13,397.6,427.07,426.22z"/>
				<path id="XMLID_226_" class="st16" d="M427.07,426.22c13.74-44,45.41-37.78,52.91-20.54
					C467.98,395.53,441.13,397.6,427.07,426.22z"/>
				<path id="XMLID_727_" class="st17" d="M426.09,431.32l-0.4-4.99c-0.36-4.5,2.02-12.99,5.78-20.65
					c2.74-5.58,8.61-15.51,17.14-19.31c7.56-3.37,15.12-3.26,21.28,0.31c6.32,3.65,10.6,10.7,11.45,18.86l0.35,3.4l-2.61-2.21
					c-5.45-4.61-13.73-6.31-22.15-4.55c-6.88,1.44-19.75,6.55-28.64,24.65L426.09,431.32z M459.45,386.68
					c-3.13,0-6.41,0.73-9.71,2.2c-10.29,4.58-17.98,20.42-20.47,30.6c9.08-14.23,20.6-18.64,27.11-20
					c7.92-1.65,15.77-0.48,21.69,3.13c-1.39-5.89-4.82-10.83-9.55-13.56C465.78,387.47,462.7,386.68,459.45,386.68z"/>
			</g>
			<g id="XMLID_187_">
				<g id="XMLID_196_">
					<path id="XMLID_722_" class="st10" d="M474.08,441.77c-13.31-6.85-36.55-1.77-50.91,17.44c-11.82,15.82-19.44,38.26-6.22,55.88
						c14.8,19.74,40.4,31.03,57.78,25.23c10.09-3.37,15.14-37.88,14.88-56.14C489.29,462.59,483.83,446.8,474.08,441.77z"/>
					<path id="XMLID_239_" class="st18" d="M433.41,458.61c-1.41-1.16-16.03,9.64-18.46,27.24c-1.94,14.03,3.29,27.1,19.03,38.77
						c1.32-5.48,0.94-10.43,0.94-10.43c-8.99-8.07-15.36-15.22-14.48-28.34C421.64,468.16,434.82,459.77,433.41,458.61z"/>
					<g id="XMLID_194_">
						<g id="XMLID_195_">
							<path id="XMLID_718_" class="st19" d="M474.73,540.32c10.09-3.37,15.14-37.88,14.88-56.14c-0.1-6.94-0.73-13.28-1.87-18.85
								c-5.28-4.97-11.86-8.24-19.22-9.06c-20.46-2.28-39.21,15.27-41.87,39.19c-1.86,16.66,4.58,32.01,15.56,40.57
								C453.44,541.58,465.3,543.47,474.73,540.32z"/>
							<g id="XMLID_192_">
								<g id="XMLID_193_">
									<path id="XMLID_710_" d="M474.73,540.32c9.17-3.06,14.18-31.88,14.82-50.81c-3.83-7.15-9.67-11.95-16.62-12.72
										c-13.95-1.55-27.09,13.69-29.36,34.05c-1.19,10.69,0.86,20.67,5.09,27.96C457.86,542.12,467.09,542.87,474.73,540.32z"/>
								</g>
							</g>
							
								<ellipse id="XMLID_240_" transform="matrix(0.2298 -0.9732 0.9732 0.2298 -114.2617 819.2728)" class="st10" cx="460.47" cy="481.82" rx="9.22" ry="9.22"/>
							<circle id="XMLID_242_" class="st10" cx="473.34" cy="521.01" r="4.46"/>
							<path id="XMLID_238_" class="st20" d="M437.86,499.05c-3.53,16.68,5.28,25.67,3.8,26.77c-2.86,2.14-13.94-9.15-10.72-27.3
								c3.17-17.91,19.15-24.43,20.23-21.91C452.17,478.93,441.97,479.65,437.86,499.05z"/>
							<path id="XMLID_719_" class="st21" d="M464.84,543.2c-7.26,0-15.31-2.01-23.24-5.92l-0.13-0.06l-0.11-0.09
								c-11.77-9.18-17.93-25.2-16.08-41.81c1.33-11.9,6.54-22.65,14.69-30.28c8.21-7.68,18.4-11.28,28.7-10.13
								c7.41,0.83,14.33,4.08,20.01,9.42l0.32,0.3l0.09,0.43c1.16,5.68,1.79,12.11,1.9,19.11c0.15,10.06-1.26,23.39-3.59,33.97
								c-3.06,13.9-7.17,21.81-12.23,23.49l0,0C472.01,542.68,468.53,543.2,464.84,543.2z M442.94,534.87
								c11.27,5.53,22.69,7.04,31.35,4.15c8.5-2.84,14.23-34.71,13.94-54.81c-0.1-6.65-0.69-12.76-1.75-18.17
								c-5.18-4.75-11.43-7.65-18.11-8.4c-9.49-1.06-18.91,2.28-26.52,9.41c-7.67,7.18-12.58,17.33-13.84,28.57
								C426.28,511.24,431.99,526.27,442.94,534.87z"/>
						</g>
					</g>
					<path id="XMLID_723_" d="M464.78,543.22c-6.39,0-13.38-1.58-20.46-4.68c-11.05-4.84-21.16-12.88-28.47-22.63
						c-6.32-8.43-8.52-18.42-6.53-29.68c2.06-11.67,8.07-21.59,12.75-27.85c14.98-20.05,38.99-24.87,52.64-17.84
						c5.12,2.64,9.15,7.94,11.97,15.75c2.7,7.48,4.14,16.86,4.3,27.87c0.15,10.06-1.26,23.39-3.59,33.97
						c-3.06,13.9-7.17,21.81-12.23,23.49C471.97,542.7,468.48,543.22,464.78,543.22z M461,440.24c-3.71,0-7.63,0.59-11.58,1.79
						c-9.75,2.96-18.69,9.36-25.15,18c-5.49,7.35-22.17,32.97-6.23,54.23c7.03,9.38,16.75,17.11,27.38,21.76
						c10.55,4.62,20.8,5.68,28.87,2.99c8.5-2.84,14.23-34.71,13.94-54.81c-0.31-21.51-5.7-36.53-14.78-41.21
						C469.9,441.16,465.62,440.24,461,440.24z"/>
				</g>
				<g id="XMLID_191_">
					<path id="XMLID_714_" d="M461.51,440.24c-13.35-4.72-9.85-17.22-9.85-17.22c0.03,0.11,2.01,13.04,15.52,14.98L461.51,440.24z"
						/>
				</g>
				<g id="XMLID_190_">
					<path id="XMLID_713_" d="M449.8,441c-13.82-1.55-14.88-11.78-14.88-11.78c0.07,0.08,5.47,9.64,19.4,8.88L449.8,441z"/>
				</g>
				<g id="XMLID_189_">
					<path id="XMLID_712_" d="M423.19,439.45c0.09,0.03,7.71,5.88,21.59,1.33l-4.67,3.79C427.19,447.54,423.19,439.45,423.19,439.45
						z"/>
				</g>
				<g id="XMLID_188_">
					<path id="XMLID_711_" d="M414.95,451.26c0.09,0,9.17,1.99,18.86-4.48l-0.96,3.93C423.19,455.65,414.95,451.26,414.95,451.26z"
						/>
				</g>
			</g>
			<g id="XMLID_186_">
				<path id="XMLID_708_" class="st1" d="M520.88,564.98c5.93-7.98,19.39-13,34.91-11.27c16.53,1.84,28.51,10.56,32.31,20.3
					C569.11,558.23,539.48,557.1,520.88,564.98z"/>
				<path id="XMLID_709_" class="st3" d="M588.1,574.01c-1.75-4.49-5.81-8.82-11.45-12.18c-5.93-3.55-13.2-5.88-21.02-6.75
					c-7.33-0.82-14.53-0.26-20.83,1.6c-6.06,1.79-10.87,4.66-13.93,8.3c0,0,1.77-6.64,11.3-10.36c6.88-2.37,15.17-3.24,23.76-2.28
					c8.93,1,17.09,3.84,23.36,7.89C589.55,566.96,588.1,574.01,588.1,574.01z"/>
			</g>
			<g id="XMLID_185_">
				<path id="XMLID_704_" class="st22" d="M720.37,392.89c-11.59-26.96-31.32-43.18-60.92-56.56c-16.38-7.4-46.57-15.8-77.31-19.23
					c-30.74-3.42-62.04-1.87-79.65,1.75c-31.82,6.54-54.63,18.02-71.87,41.77c-14.86,20.48-18.35,53.65-18.35,53.65
					c11.21-19.84,16.49-36.97,48.88-52.49c8.1-3.88,42.34-19.85,117.32-11.68s104.83,31.64,111.87,37.21
					c28.18,22.26,29.56,40.13,36.13,61.96C726.46,449.26,730.36,416.13,720.37,392.89z"/>
				<g id="XMLID_213_">
					<path id="XMLID_219_" class="st23" d="M502.15,328.43c17.61-3.62,48.9-5.17,79.65-1.75c30.74,3.42,60.93,11.83,77.31,19.23
						c29.6,13.38,49.33,29.6,60.92,56.56c5.8,13.5,6.92,30.34,6.84,42.08c0.66-9.97,1.2-33.75-6.5-51.66
						c-11.59-26.96-31.32-43.18-60.92-56.56c-16.38-7.4-46.57-15.8-77.31-19.23c-30.74-3.42-62.04-1.87-79.65,1.75
						c-31.82,6.54-54.63,18.02-71.87,41.77c-14.86,20.48-18.35,53.65-18.35,53.65c0.62-1.09,1.22-2.18,1.81-3.26
						c2.42-11.52,7.25-28.47,16.2-40.81C447.51,346.45,470.33,334.97,502.15,328.43z"/>
				</g>
				<path id="XMLID_705_" class="st24" d="M727.06,456l-1.91-6.34c-0.91-3.03-1.73-6-2.52-8.87c-4.94-17.98-9.21-33.5-33.15-52.41
					c-30.11-23.79-77.07-33.21-111.17-36.92c-48.58-5.29-89.98-1.19-116.57,11.56c-27.51,13.18-35.09,27.39-43.87,43.83
					c-1.4,2.63-2.85,5.34-4.41,8.09l-3.26,5.77l0.69-6.59c0.01-0.08,0.91-8.52,3.64-19.34c2.52-10.02,7.16-24.22,14.97-34.98
					c16.36-22.55,38.11-35.2,72.7-42.31c16.79-3.45,48.06-5.33,80.08-1.77c32.02,3.57,62.11,12.28,77.73,19.34
					c32.19,14.55,50.61,31.67,61.61,57.27c5.25,12.21,6.65,27.08,6.91,37.41c0.27,11.16-0.7,19.58-0.71,19.66L727.06,456z
					 M538.41,346.41c12.65,0,26.07,0.77,40.21,2.31c31.89,3.47,59.41,10.09,81.8,19.68c17.96,7.69,27.27,15.05,30.77,17.82
					c11.25,8.89,19.01,17.6,24.41,27.42c4.83,8.77,7.19,17.34,9.68,26.42c0.12,0.44,0.24,0.89,0.37,1.34
					c0.5-11.11,0.3-32.04-6.55-47.97l0,0c-10.71-24.91-28.72-41.61-60.22-55.85c-15.42-6.97-45.18-15.58-76.9-19.11
					c-31.72-3.53-62.65-1.68-79.22,1.73c-33.87,6.96-55.11,19.29-71.03,41.23c-10.18,14.03-14.98,34.4-16.94,45.35
					c0.22-0.41,0.44-0.82,0.65-1.22c4.43-8.3,8.62-16.14,15.26-23.64c7.43-8.39,16.91-15.18,29.85-21.38
					c3.57-1.71,14.43-6.91,33.93-10.47C507.8,347.63,522.49,346.41,538.41,346.41z"/>
			</g>
			<g id="XMLID_829_">
				<path id="XMLID_834_" class="st15" d="M709.4,457.67c2.33-7.52-1-33.48-13.13-42.5c-14.23-10.59-29.26-3.22-34,10.88
					C676.18,418.77,701.94,426.67,709.4,457.67z"/>
				<path id="XMLID_833_" class="st16" d="M709.4,457.67c-3.78-45.94-36.04-46.8-47.14-31.62
					C676.18,418.77,701.94,426.67,709.4,457.67z"/>
				<path id="XMLID_830_" class="st17" d="M708.06,457.99c-4.72-19.61-16.16-27.41-22.56-30.32c-7.83-3.56-16.28-3.71-22.6-0.4
					l-3.03,1.58l1.09-3.24c2.61-7.77,8.33-13.72,15.3-15.9c6.8-2.13,14.19-0.58,20.83,4.36c7.49,5.57,11.05,16.55,12.5,22.59
					c1.99,8.3,2.46,17.1,1.12,21.42l-1.48,4.78L708.06,457.99z M677.08,412.33c-5.21,1.63-9.64,5.7-12.28,11.14
					c6.56-2.23,14.48-1.66,21.85,1.69c6.06,2.75,16.33,9.58,22.08,25.45c-0.2-10.48-4.24-27.62-13.28-34.34
					c-2.9-2.16-5.94-3.59-8.99-4.27C683.28,411.29,680.1,411.39,677.08,412.33z"/>
			</g>
			<g id="XMLID_243_">
				<g id="XMLID_813_">
					<path id="XMLID_828_" class="st10" d="M660.12,462.55c14.48-3.78,36.05,6.26,45.86,28.15c8.08,18.02,10.6,41.58-6.15,55.89
						c-18.76,16.03-46.21,21.44-61.9,11.98c-9.11-5.49-6.49-40.27-2.24-58.03C640.72,479.54,649.5,465.32,660.12,462.55z"/>
					<path id="XMLID_827_" class="st18" d="M696.12,487.88c1.63-0.82,13.53,12.92,12.05,30.61c-1.18,14.12-9.14,25.72-27.05,33.67
						c-0.09-5.63,1.37-10.38,1.37-10.38c10.53-5.91,18.31-11.49,20.32-24.48C705.52,499.78,694.49,488.71,696.12,487.88z"/>
					<g id="XMLID_817_">
						<g id="XMLID_818_">
							<path id="XMLID_826_" class="st19" d="M637.93,558.58c-9.11-5.49-6.49-40.27-2.24-58.03c1.62-6.75,3.62-12.79,5.95-17.99
								c6.24-3.69,13.38-5.44,20.73-4.63c20.46,2.25,34.92,23.48,32.28,47.41c-1.83,16.66-11.47,30.23-24.06,36.19
								C658.42,564.46,646.44,563.71,637.93,558.58z"/>
							<g id="XMLID_823_">
								<g id="XMLID_824_">
									<path id="XMLID_825_" d="M637.93,558.58c-8.28-4.99-6.87-34.21-3.34-52.82c5.3-6.13,12.05-9.55,19-8.78
										c13.95,1.54,23.44,19.28,21.2,39.64c-1.18,10.7-5.36,19.98-11.08,26.17C653.99,564.02,644.82,562.74,637.93,558.58z"/>
								</g>
							</g>
							
								<ellipse id="XMLID_176_" transform="matrix(0.2211 -0.9753 0.9753 0.2211 23.3315 1038.6716)" class="st10" cx="661.9" cy="504.73" rx="9.22" ry="9.22"/>
							<circle id="XMLID_175_" class="st10" cx="642.6" cy="541.18" r="4.46"/>
							<path id="XMLID_822_" class="st20" d="M682.93,526.37c-0.21,17.05-10.76,23.89-9.57,25.29c2.32,2.72,15.6-5.88,16.44-24.29
								c0.82-18.17-13.34-28.03-14.95-25.81C673.37,503.6,683.17,506.54,682.93,526.37z"/>
							<path id="XMLID_819_" class="st21" d="M637.21,559.76L637.21,559.76c-4.57-2.75-6.85-11.37-6.79-25.6
								c0.04-10.83,1.59-24.15,3.93-33.93c1.63-6.8,3.66-12.94,6.03-18.23l0.18-0.4l0.38-0.22c6.71-3.97,14.17-5.63,21.58-4.82
								c10.31,1.13,19.46,6.88,25.79,16.17c6.28,9.22,9.02,20.86,7.71,32.76c-1.83,16.62-11.34,30.9-24.83,37.28l-0.13,0.06
								l-0.14,0.03c-8.59,2.08-16.89,2.29-23.98,0.7C643.35,562.74,640.06,561.47,637.21,559.76z M693.29,525.18
								c1.24-11.25-1.34-22.22-7.25-30.91c-5.87-8.62-14.33-13.94-23.82-14.98c-6.68-0.73-13.41,0.73-19.51,4.23
								c-2.22,5.04-4.14,10.88-5.69,17.34c-4.68,19.55-6.07,51.9,1.61,56.53c7.82,4.72,19.3,5.74,31.5,2.81
								C682.7,554.21,691.57,540.8,693.29,525.18z"/>
						</g>
					</g>
					<path id="XMLID_814_" d="M637.21,559.76c-4.57-2.75-6.85-11.37-6.79-25.6c0.04-10.83,1.59-24.15,3.93-33.93
						c2.57-10.71,6.03-19.54,10.3-26.25c4.46-7.01,9.54-11.3,15.12-12.75c14.86-3.87,37.23,6.08,47.46,28.92
						c3.2,7.13,6.89,18.12,6.35,29.97c-0.52,11.42-4.85,20.69-12.87,27.53c-9.27,7.92-20.89,13.55-32.73,15.85
						c-7.59,1.48-14.75,1.49-20.99,0.09C643.39,562.77,640.1,561.49,637.21,559.76z M660.46,463.89
						c-9.88,2.58-18.43,16.06-23.44,36.98c-4.68,19.55-6.07,51.9,1.61,56.53c7.28,4.39,17.52,5.6,28.83,3.39
						c11.38-2.22,22.56-7.63,31.47-15.24c20.21-17.26,9.54-45.91,5.79-54.28c-4.41-9.85-11.73-18.04-20.6-23.07
						c-3.59-2.03-7.29-3.47-10.9-4.28C668.71,462.91,664.34,462.88,660.46,463.89z"/>
				</g>
				<g id="XMLID_717_">
					<path id="XMLID_812_" d="M672.72,463.81c14.06-1.68,13.38-14.65,13.38-14.65c-0.06,0.1-4.81,12.28-18.42,11.22L672.72,463.81z"
						/>
				</g>
				<g id="XMLID_715_">
					<path id="XMLID_716_" d="M683.97,467.12c13.82,1.51,17.1-8.24,17.1-8.24c-0.09,0.06-7.45,8.21-20.87,4.42L683.97,467.12z"/>
				</g>
				<g id="XMLID_246_">
					<path id="XMLID_247_" d="M710.29,471.43c-0.09,0.01-8.81,4.05-21.36-3.42l3.72,4.72C704.62,478.44,710.29,471.43,710.29,471.43
						z"/>
				</g>
				<g id="XMLID_244_">
					<path id="XMLID_245_" d="M715.74,484.74c-0.09-0.02-9.38-0.06-17.43-8.5l0.08,4.04C706.74,487.23,715.74,484.74,715.74,484.74z
						"/>
				</g>
			</g>
			<g id="XMLID_173_">
				<path id="XMLID_676_" class="st4" d="M585.63,607.75c-3.19-5.04-22.73,2.81-36.03,1.49c-13.05-1.3-30.6-13.6-34.82-9.38
					c-4.22,4.22,20.23,25.5,32.86,26.91C560.29,628.18,588.82,612.79,585.63,607.75z"/>
				<g id="XMLID_759_">
					<path id="XMLID_760_" class="st5" d="M584.11,606.57c-5.84,6.84-26.47,15.16-36.16,14.08c-9.71-1.08-30.05-15.22-31.17-21.63
						c-0.83,0.09-1.51,0.35-2,0.84c-4.22,4.22,20.23,25.5,32.86,26.91c12.64,1.41,41.17-13.98,37.98-19.02
						C585.3,607.22,584.78,606.84,584.11,606.57z"/>
				</g>
				<path id="XMLID_677_" class="st6" d="M549.42,628.24c-0.66,0-1.3-0.03-1.93-0.1c-7.39-0.82-16.72-7.43-20.39-10.23
					c-7.13-5.45-12.57-11.33-13.85-14.99c-0.75-2.13-0.11-3.36,0.55-4.03c2.95-2.95,9.33-0.29,17.41,3.08
					c5.99,2.5,12.79,5.34,18.51,5.9c5.74,0.57,12.85-0.65,19.13-1.73c8.75-1.51,15.67-2.7,17.93,0.88c0.5,0.79,0.85,2.14-0.35,4.05
					c-2.06,3.29-8.65,7.83-16.81,11.58C565.79,624.41,556.62,628.24,549.42,628.24z M517.39,600.34c-0.73,0-1.29,0.15-1.63,0.49
					c-0.11,0.11-0.13,0.52,0.1,1.17c2.27,6.48,21.33,22.22,31.94,23.4c0.53,0.06,1.08,0.09,1.66,0.09
					c11.09,0,31.19-10.35,34.65-15.88c0.37-0.58,0.44-0.98,0.36-1.12l0,0c-1.28-2.02-8.64-0.75-15.14,0.37
					c-6.45,1.11-13.75,2.37-19.86,1.76c-6.14-0.61-13.13-3.53-19.3-6.1C525.42,602.53,520.18,600.34,517.39,600.34z"/>
			</g>
			<g id="XMLID_148_">
				<g id="XMLID_163_">
					<g id="XMLID_172_">
						<path id="XMLID_672_" class="st25" d="M698.94,390.5c9.04,7.48,12.26,10.96,18.11,23.35c5.85,12.4,7.27,42.85,22.23,52.86
							c19.21,4.91,28-14.97,27.9-15.55c-0.09-0.57-3.67-30.78-3.79-31.36c-0.12-0.58-10.51-16.76-10.51-16.76l-18.39-12.24
							l-23.64-11.66L698.94,390.5z"/>
						<path id="XMLID_673_" class="st24" d="M745.2,468.86c-1.95,0-4.04-0.25-6.26-0.82l-0.23-0.06l-0.2-0.13
							c-10.58-7.08-14.65-23.85-17.92-37.33c-1.52-6.28-2.96-12.21-4.79-16.09c-5.86-12.41-9.14-15.76-17.74-22.88l-1.19-0.99
							l13.73-13.08l24.66,12.17l18.63,12.4l0.16,0.24c10.52,16.39,10.63,16.91,10.7,17.21c0.07,0.34,0.71,5.59,2.45,20.18
							c0.67,5.62,1.31,10.92,1.35,11.26c0.15,0.9-1.15,3.21-1.93,4.5c-1.11,1.84-3.02,4.56-5.75,7.06
							C757.46,465.63,752.23,468.86,745.2,468.86z M739.85,465.44c7.22,1.77,13.68,0.09,19.22-5.01c4.17-3.84,6.33-8.35,6.71-9.35
							c-0.13-1-0.53-4.34-1.33-11.05c-0.93-7.79-2.19-18.32-2.39-19.82c-0.74-1.38-6.5-10.44-10.18-16.17L733.8,392l-22.7-11.2
							l-10.1,9.62c8.57,7.18,11.7,11.01,17.29,22.84c1.95,4.13,3.42,10.19,4.98,16.62C726.4,442.81,730.3,458.87,739.85,465.44z"/>
					</g>
					<g id="XMLID_171_">
						<path id="XMLID_666_" class="st22" d="M711.71,354.44c8.05,0.98,27.13-0.92,42.79,1.29c18.83,2.66,29.77,9.6,34.95,19.13
							c7.73,14.23-2.92,31.31-3.02,38.47c0.99,10.09-1.02,29.02-7.42,42.62c-8.1,17.22-29.1,20.16-39.73,10.76
							c7.25,1.8,13.85,0.67,17.33-9.18c2.87-8.12,1.86-29.32-14.99-47.23c-17.3-18.38-35.67-21.25-39.89-21.84
							C702.29,375.87,711.71,354.44,711.71,354.44z"/>
						<path id="XMLID_753_" class="st23" d="M789.44,374.85c-5.17-9.53-16.12-16.47-34.95-19.13c-15.67-2.21-34.75-0.31-42.79-1.29
							c0,0-0.87,1.98-2.1,5.09c15.48,1.14,31.55-0.27,47.95,3.43c8.8,2.2,18.62,4.04,23.84,12.01c3.3,4.68,5.78,11,3.85,15.96
							c-1.93,4.68-7.91-4.54-11.49-2.61c-2.48,2.2,4.06,12.09,5.3,29.02c1.12,15.32,0.69,29.3-2.64,43.06
							c0.96-1.36,1.83-2.84,2.59-4.45c6.4-13.6,8.4-32.53,7.42-42.62C786.52,406.17,797.17,389.08,789.44,374.85z"/>
						
							<ellipse id="XMLID_662_" transform="matrix(0.1107 -0.9939 0.9939 0.1107 258.6219 1147.9324)" class="st10" cx="770.75" cy="429.45" rx="9.56" ry="8.98"/>
						<path id="XMLID_658_" class="st10" d="M778.45,382.1c-0.58,5.25,2.94,9.95,7.87,10.5c2.02,0.23,3.97-0.28,5.6-1.33
							c0.72-5.43,0.4-11.12-2.48-16.42c-0.22-0.41-0.46-0.82-0.71-1.22c-0.1-0.01-0.2-0.03-0.3-0.04
							C783.51,373.04,779.03,376.85,778.45,382.1z"/>
						
							<ellipse id="XMLID_654_" transform="matrix(0.1107 -0.9939 0.9939 0.1107 300.9425 1071.6185)" class="st10" cx="749.27" cy="367.65" rx="9.56" ry="8.98"/>
						
							<ellipse id="XMLID_650_" transform="matrix(0.3769 -0.9263 0.9263 0.3769 92.5724 934.9129)" class="st10" cx="741.14" cy="398.65" rx="7.06" ry="8.98"/>
						<path id="XMLID_669_" class="st24" d="M754.14,473.36c-6,0-11.64-1.96-15.77-5.61l-4.21-3.72l5.45,1.35
							c8.12,2.02,12.96-0.54,15.71-8.3c1.26-3.57,1.89-10.48-0.14-19.17c-1.59-6.79-5.4-16.93-14.55-26.66
							c-15.03-15.97-30.94-20.28-39.08-21.43l-1.24-0.17l0.06-1.25c0.56-12.7,9.7-33.63,10.09-34.52l0.41-0.94l1.01,0.12
							c3.14,0.38,8.13,0.31,13.9,0.23c8.66-0.12,19.43-0.28,28.92,1.06c18.11,2.56,30.21,9.23,35.96,19.83
							c5.71,10.52,1.95,22.28-0.8,30.87c-1.08,3.37-2.01,6.28-2.06,8.21c1.05,10.98-1.23,29.84-7.55,43.26
							c-3.98,8.46-11.41,14.38-20.38,16.23C757.95,473.16,756.02,473.36,754.14,473.36z M745.08,468.78
							c4.2,1.84,9.21,2.33,14.24,1.29c8.11-1.67,14.83-7.03,18.45-14.71c6.5-13.82,8.18-32.82,7.29-41.91l-0.01-0.08l0-0.08
							c0.03-2.33,1.03-5.46,2.19-9.08c2.59-8.12,6.15-19.24,1-28.72c-5.32-9.79-16.73-15.99-33.93-18.42
							c-9.27-1.31-19.93-1.16-28.49-1.04c-5.3,0.08-9.94,0.14-13.24-0.14c-1.71,4.05-8.46,20.58-9.39,31.38
							c8.81,1.46,24.58,6.28,39.44,22.07c9.57,10.17,13.56,20.79,15.23,27.92c2.17,9.27,1.45,16.78,0.06,20.72
							C755.43,465,751.21,468.56,745.08,468.78z"/>
					</g>
					<g id="XMLID_170_">
						<path id="XMLID_668_" class="st24" d="M764.35,393.32c-8.63-14.35-33.05-17.39-49.21-19.4c-3.88-0.48-7.23-0.9-9.95-1.41
							l0.5-2.7c2.64,0.49,5.95,0.9,9.79,1.38c11.57,1.44,27.24,3.38,38.87,9.61C764.35,386.26,764.35,393.32,764.35,393.32z"/>
					</g>
					<g id="XMLID_169_">
						<path id="XMLID_667_" class="st24" d="M785.08,413.63c-2.45-9.9,1.77-13.22,1.77-13.22c-0.01,0.04-0.87,4.69,0.91,12.62
							L785.08,413.63z"/>
					</g>
				</g>
				<g id="XMLID_159_">
					<g id="XMLID_162_">
						<path id="XMLID_646_" class="st22" d="M690.52,339.51c10.56-0.79,24.7,6.02,26.91,21.59c1.94,13.73-3.2,25.58-11.52,30.18
							c-8.31,4.6-29.31,1.43-28.01-14.92C678.17,357.54,690.52,339.51,690.52,339.51z"/>
						
							<ellipse id="XMLID_642_" transform="matrix(0.1107 -0.9939 0.9939 0.1107 264.2385 1030.653)" class="st10" cx="708.03" cy="367.68" rx="7.58" ry="6.38"/>
						
							<ellipse id="XMLID_638_" transform="matrix(0.1107 -0.9939 0.9939 0.1107 233.7444 1016.534)" class="st10" cx="684.89" cy="377.66" rx="5.94" ry="5"/>
						<path id="XMLID_647_" class="st24" d="M697.05,394.55c-4.52,0-9.45-1.11-13.35-3.63c-3.61-2.32-7.78-6.75-7.16-14.63
							c0.29-18.99,12.35-36.81,12.86-37.56l0.37-0.54l0.66-0.05c5.96-0.45,12.32,1.34,17.47,4.9c4.23,2.93,9.56,8.41,10.9,17.87
							c1.95,13.76-2.96,26.45-12.21,31.58C704.19,393.8,700.75,394.55,697.05,394.55z M691.3,340.84
							c-2.03,3.15-11.78,19.17-12.01,35.53l0,0.09c-0.52,6.56,2.92,10.23,5.91,12.15c6.19,3.99,15.54,3.97,20.06,1.46
							c8.26-4.58,12.61-16.14,10.82-28.78C713.96,346.42,700.56,340.47,691.3,340.84z"/>
					</g>
				</g>
				<g id="XMLID_149_">
					<g id="XMLID_158_">
						<path id="XMLID_634_" class="st25" d="M610.06,376.95c10.36,5,31.18,2.93,41.55,1.91c10.46-1.03,21.86-1.88,28.25-2.46
							c0-7.89-17.23-25.07-38.89-30.78c-20.9-5.52-30.7-4.66-36.38,2.18c-8.93,10.75-6.29,18.34-3.19,22.29
							C604.51,374.03,610.06,376.95,610.06,376.95z"/>
						<path id="XMLID_635_" class="st24" d="M630.49,381.55c-7.86,0-15.67-0.78-21.03-3.36l-0.04-0.02
							c-0.24-0.13-5.85-3.11-9.1-7.24c-3.04-3.86-6.67-12.12,3.21-24.02c6.18-7.44,16.78-8.18,37.79-2.63
							c10,2.64,19.98,7.92,28.11,14.86c7.28,6.22,11.8,12.83,11.81,17.25l0,1.26l-1.25,0.11c-2.37,0.22-5.39,0.47-8.88,0.76
							c-5.7,0.47-12.79,1.06-19.36,1.7l-0.15,0.01C646.12,380.78,638.29,381.55,630.49,381.55z M610.68,375.72
							c9.98,4.79,30.69,2.76,40.64,1.78l0.15-0.01c6.59-0.65,13.69-1.24,19.4-1.71c2.83-0.23,5.34-0.44,7.45-0.63
							c-1.7-7.33-17.09-22.77-37.71-28.21c-19.8-5.22-29.6-4.74-34.97,1.73c-8.64,10.41-5.69,17.35-3.16,20.56
							C605.29,372.79,610.33,375.53,610.68,375.72z"/>
					</g>
					<g id="XMLID_157_">
						<path id="XMLID_629_" class="st22" d="M677.91,376.35c-6.06-0.89-8.27-9.45-26.27-17.08c-13.68-5.8-24.31-8.14-38.98-5.65
							c-8.85,1.5-16.96,13.44-2.6,23.33c-11.64-5.37-18.17-12.1-16.89-24.99c1.28-12.89,12.36-22.71,16.46-34.26
							c5.67-16.01-3.09-31.58,6.2-44.26c7.3-9.97,27.98-11.78,48.62,7.85c20.77,19.75,26.57,36.71,29,52.73
							C696.29,352.7,689.94,378.11,677.91,376.35z"/>
						<path id="XMLID_752_" class="st23" d="M693.45,334.02c-2.43-16.02-8.23-32.98-29-52.73c-20.65-19.63-41.33-17.82-48.62-7.85
							c-9.28,12.68-0.52,28.25-6.2,44.26c-4.09,11.54-15.18,21.37-16.46,34.26c-0.83,8.4,1.65,14.19,6.71,18.68
							c-8.13-18.24,7.27-29.69,15.48-43.52c7.57-12.74,5.41-24.78,6.33-37.68c0.96-13.51,9.38-14.89,17.63-12.96
							c11.28,2.2,22.26,12.8,29.37,21.2c16.19,19.15,19.83,35.1,25.32,49.56C694.26,342.75,694.09,338.22,693.45,334.02z"/>
						<path id="XMLID_625_" class="st10" d="M612.01,337.98c0.56-4.99-2.36-9.57-6.81-11.34c-3.71,6.15-8.21,12.15-10.55,18.86
							c1.5,1.13,3.32,1.88,5.32,2.11C605.95,348.28,611.34,343.97,612.01,337.98z"/>
						<circle id="XMLID_621_" class="st10" cx="645.38" cy="337.37" r="9.62"/>
						
							<ellipse id="XMLID_617_" transform="matrix(0.781 -0.6245 0.6245 0.781 -40.9848 462.0048)" class="st10" cx="638.32" cy="289.45" rx="9.62" ry="9.62"/>
						
							<ellipse id="XMLID_613_" transform="matrix(0.0384 -0.9993 0.9993 0.0384 330.8499 973.1158)" class="st10" cx="671.04" cy="314.65" rx="9.62" ry="9.62"/>
						
							<ellipse id="XMLID_609_" transform="matrix(0.3326 -0.9431 0.9431 0.3326 116.5553 881.2147)" class="st10" cx="680.86" cy="358.26" rx="9.62" ry="8.28"/>
						<path id="XMLID_631_" class="st24" d="M609.48,378.2c-6.58-3.04-10.97-6.25-13.82-10.11c-3.25-4.4-4.51-9.72-3.86-16.27
							c0.79-7.96,5.12-14.74,9.32-21.28c2.88-4.5,5.6-8.74,7.21-13.3c2.44-6.9,2.11-13.79,1.78-20.45
							c-0.42-8.62-0.82-16.76,4.6-24.17c3.23-4.41,8.6-7.15,15.14-7.74c5.24-0.47,11.04,0.52,16.78,2.85
							c6.44,2.62,12.75,6.84,18.76,12.56c21.92,20.84,27.17,38.75,29.41,53.52c2.04,13.44-0.58,32.8-8.39,40.64
							c-2.57,2.59-5.59,3.71-8.72,3.25l0,0c-2.96-0.43-5.09-2.4-7.78-4.89c-3.63-3.36-8.6-7.95-18.82-12.29
							c-12.86-5.45-23.23-8.11-38.21-5.56c-4.38,0.74-8.21,4.2-9.09,8.22c-0.96,4.35,1.54,8.83,7.05,12.62L609.48,378.2z
							 M678.11,374.99c2.26,0.33,4.41-0.5,6.37-2.47c6.32-6.35,9.81-23.89,7.62-38.29c-2.17-14.31-7.27-31.66-28.59-51.94
							c-10.78-10.25-22.95-15.6-33.4-14.66c-5.74,0.51-10.41,2.87-13.16,6.62c-4.85,6.62-4.47,14.29-4.07,22.41
							c0.34,6.93,0.69,14.1-1.93,21.5c-1.72,4.85-4.65,9.43-7.49,13.86c-4.02,6.28-8.17,12.76-8.9,20.07
							c-0.8,8.11,1.53,13.96,7.85,18.8c-1.83-3.39-1.7-6.39-1.28-8.29c1.12-5.07,5.88-9.42,11.32-10.34
							c15.58-2.65,26.76,0.24,39.75,5.74c10.66,4.52,15.84,9.31,19.62,12.8C674.32,373.14,675.99,374.68,678.11,374.99
							L678.11,374.99z"/>
					</g>
					<g id="XMLID_156_">
						<path id="XMLID_630_" class="st24" d="M690.37,361.25c-0.16-19.37-20.22-35.79-38.86-38.97c0,0,5.44-2.32,18.15,3.88
							c3.65,2.13,7.09,4.68,10.15,7.57c8.5,8,13.22,17.77,13.31,27.51L690.37,361.25z"/>
					</g>
				</g>
			</g>
		</g>
	</g>
</g>
</svg>
