<?xml version="1.0" encoding="utf-8"?>
<!-- Generator: Adobe Illustrator 26.0.3, SVG Export Plug-In . SVG Version: 6.00 Build 0)  -->
<svg version="1.1" id="Layer_1" xmlns="http://www.w3.org/2000/svg" xmlns:xlink="http://www.w3.org/1999/xlink" x="0px" y="0px"
	 viewBox="0 0 1133.86 1133.86" style="enable-background:new 0 0 1133.86 1133.86;" xml:space="preserve">
<style type="text/css">
	.st0{fill:#233856;}
	.st1{fill:#81B7C0;}
	.st2{fill:#6A9298;}
	.st3{fill:#FFFFFF;}
	.st4{fill:#E41616;}
	.st5{fill:#A6D0D8;}
	.st6{fill:#517D80;}
	.st7{fill:#FC7987;}
	.st8{fill:#E61616;}
	.st9{fill:#C60404;}
	.st10{opacity:0.24;}
	.st11{fill:#83B9C2;}
</style>
<g>
	<g>
		<g>
			<g>
				<g>
					<g>
						<polygon class="st0" points="662.76,451.22 671.2,442.32 662.72,433.37 470.8,433.37 462.32,442.32 470.76,451.22 
							462.32,460.13 470.76,469.04 462.32,477.94 470.8,486.89 662.72,486.89 671.2,477.94 662.76,469.04 671.2,460.13 						"/>
					</g>
				</g>
			</g>
		</g>
	</g>
	<g>
		<g>
			<g>
				<g>
					<path class="st1" d="M727.05,206.64H406.47c-8.27,0-14.97,6.7-14.97,14.97v20.35V408v20.35c0,8.27,6.7,14.97,14.97,14.97
						h320.58c8.27,0,14.97-6.7,14.97-14.97V408V241.95v-20.35C742.02,213.34,735.32,206.64,727.05,206.64z"/>
				</g>
			</g>
		</g>
	</g>
	<g>
		<g>
			<g>
				<g>
					<path class="st2" d="M727.05,431.01H406.47c-8.27,0-14.97-6.7-14.97-14.97v2.66v7v2.66c0,8.27,6.7,14.97,14.97,14.97h320.58
						c8.27,0,14.97-6.7,14.97-14.97v-2.66v-7v-2.66C742.02,424.3,735.32,431.01,727.05,431.01z"/>
				</g>
			</g>
		</g>
	</g>
	<g>
		<g>
			<g>
				<g>
					<g>
						
							<ellipse transform="matrix(0.2298 -0.9732 0.9732 0.2298 200.174 859.437)" class="st3" cx="643.06" cy="303.25" rx="38.55" ry="38.55"/>
					</g>
				</g>
			</g>
		</g>
	</g>
	<g>
		<path class="st0" d="M224.51,599.74c3.43-31.19,14.42-57.3,32.68-77.63c13.88-15.46,31.77-27.19,53.16-34.87
			c34.46-12.37,67.03-10.13,68.4-10.03l-0.52,10.65c6.1-0.03,9.89,0.25,10.34,0.28l-2.27,53.49c-0.21-0.02-26.61-1.53-53.34,7.14
			c-18.91,6.13-42.08,30.56-45.29,60.27c-1.66,15.37-0.18,74.02,50.29,98.47c36.5,17.68,71.41,26.69,71.77,26.75l-5.73,53.07
			c-0.54-0.09-4.67-0.79-11.32-2.36l-1.46,13.29c-1.81-0.3-44.9-7.68-86.54-33.73c-25.73-16.1-45.74-36.06-59.47-59.34
			C227.16,674.56,220.19,639.08,224.51,599.74z"/>
	</g>
	<g>
		<g>
			<g>
				<g>
					<g>
						
							<ellipse transform="matrix(0.3827 -0.9239 0.9239 0.3827 22.6038 640.3354)" class="st3" cx="490.47" cy="303.25" rx="38.55" ry="38.55"/>
					</g>
				</g>
			</g>
		</g>
	</g>
	<g>
		<g>
			<g>
				<g>
					<g>
						<path class="st4" d="M584.15,321.57c0,9.6-7.78,17.38-17.38,17.38c-9.6,0-17.38-7.78-17.38-17.38
							c0-9.6,7.78-27.04,17.38-27.04C576.36,294.53,584.15,311.97,584.15,321.57z"/>
					</g>
				</g>
			</g>
		</g>
	</g>
	<g>
		<g>
			<g>
				<g>
					<path class="st2" d="M375.11,303.25v-8.21c0-2.67-2.16-4.83-4.83-4.83h-4.83c-2.67,0-4.83,2.16-4.83,4.83v51.19
						c0,2.67,2.16,4.83,4.83,4.83h4.83c2.67,0,4.83-2.16,4.83-4.83v-8.21h16.39v-34.77H375.11z"/>
				</g>
			</g>
		</g>
	</g>
	<g>
		<g>
			<g>
				<g>
					<g>
						<path class="st0" d="M426.91,1022.47c-0.65-1.95-16.06-48.37-23.07-106.25c-9.99-82.5,1.68-146.2,34.68-189.32l56.79,43.46
							c-20.95,27.38-28.03,74.84-20.48,137.26c6.14,50.74,35.22,137.09,35.35,137.5L426.91,1022.47z"/>
					</g>
				</g>
			</g>
		</g>
	</g>
	<g>
		<path class="st0" d="M909.35,599.74c-3.43-31.19-14.42-57.3-32.68-77.63c-13.88-15.46-31.77-27.19-53.16-34.87
			c-34.46-12.37-67.03-10.13-68.4-10.03l0.52,10.65c-6.1-0.03-9.89,0.25-10.34,0.28l2.27,53.49c0.21-0.02,26.61-1.53,53.34,7.14
			c18.91,6.13,42.08,30.56,45.29,60.27c1.66,15.37,0.18,74.02-50.29,98.47c-36.5,17.68-71.41,26.69-71.77,26.75l5.73,53.07
			c0.54-0.09,4.67-0.79,11.32-2.36l1.46,13.29c1.81-0.3,44.9-7.68,86.54-33.73c25.73-16.1,45.74-36.06,59.47-59.34
			C906.7,674.56,913.67,639.08,909.35,599.74z"/>
	</g>
	<g>
		<g>
			<g>
				<g>
					<g>
						<path class="st0" d="M706.62,1022.47l-26.38,12.94l-7.52-24.29l-47.51,30.91c0.14-0.42,27.61-84.71,33.64-135.59
							c7.32-61.83,0.19-108.89-20.62-136.08l56.79-43.46c33,43.12,44.67,106.81,34.68,189.32
							C722.68,974.1,707.27,1020.52,706.62,1022.47z"/>
					</g>
				</g>
			</g>
		</g>
	</g>
	<g>
		<g>
			<g>
				<g>
					<g>
						<path class="st1" d="M753.82,879.06l-19.29,18.95c-4.55,4.47-11.92,4.4-16.39-0.14l-18.95-19.29
							c-4.47-4.55-4.4-11.92,0.14-16.39l19.29-18.95c4.55-4.47,11.92-4.4,16.39,0.14l18.95,19.29
							C758.43,867.22,758.36,874.6,753.82,879.06z"/>
					</g>
				</g>
			</g>
		</g>
	</g>
	<g>
		<g>
			<g>
				<g>
					<g>
						<path class="st1" d="M379.71,879.06L399,898.02c4.55,4.47,11.92,4.4,16.39-0.14l18.95-19.29c4.47-4.55,4.4-11.92-0.14-16.39
							l-19.29-18.95c-4.55-4.47-11.92-4.4-16.39,0.14l-18.95,19.29C375.1,867.22,375.16,874.6,379.71,879.06z"/>
					</g>
				</g>
			</g>
		</g>
	</g>
	<g>
		<g>
			<g>
				<g>
					<path class="st2" d="M768.07,290.22h-4.83c-2.67,0-4.83,2.16-4.83,4.83v8.21h-16.39v34.77h16.39v8.21
						c0,2.67,2.16,4.83,4.83,4.83h4.83c2.67,0,4.83-2.16,4.83-4.83v-51.19C772.9,292.38,770.74,290.22,768.07,290.22z"/>
				</g>
			</g>
		</g>
	</g>
	<g>
		<g>
			<g>
				<g>
					<g>
						<path class="st1" d="M760.88,477.12H372.64c-8,0-14.49,6.49-14.49,14.49v282.97c0,8,6.49,14.49,14.49,14.49h388.24
							c8,0,14.49-6.49,14.49-14.49v-1.47v-92.2v-189.3C775.37,483.61,768.88,477.12,760.88,477.12z"/>
					</g>
				</g>
			</g>
		</g>
	</g>
	<g>
		<g>
			<g>
				<g>
					<g>
						<path class="st2" d="M760.88,769.75H372.64c-8,0-14.49-6.49-14.49-14.49v19.32c0,8,6.49,14.49,14.49,14.49h388.24
							c8,0,14.49-6.49,14.49-14.49v-1.47v-17.85C775.37,763.26,768.88,769.75,760.88,769.75z"/>
					</g>
				</g>
			</g>
		</g>
	</g>
	<g>
		<g>
			<g>
				<g>
					<g>
						<path class="st3" d="M729.55,523.07v204.59H403.97V523.07H729.55 M736.05,516.58H397.48v217.58h338.56V516.58L736.05,516.58z"
							/>
					</g>
				</g>
			</g>
		</g>
	</g>
	<g>
		<g>
			<g>
				<rect x="557.92" y="130.94" class="st0" width="17.69" height="57.71"/>
			</g>
		</g>
	</g>
	<g>
		<g>
			<g>
				<g>
					<g>
						<g>
							<path class="st4" d="M464.93,362.24c0,5.26-7.34,9.53-16.39,9.53c-9.05,0-16.39-4.26-16.39-9.53c0-5.26,7.34-9.52,16.39-9.52
								C457.59,352.72,464.93,356.98,464.93,362.24z"/>
						</g>
					</g>
				</g>
			</g>
		</g>
	</g>
	<g>
		<g>
			<g>
				<g>
					<g>
						<g>
							<path class="st4" d="M701.38,362.24c0,5.26-7.34,9.53-16.39,9.53s-16.39-4.26-16.39-9.53c0-5.26,7.34-9.52,16.39-9.52
								S701.38,356.98,701.38,362.24z"/>
						</g>
					</g>
				</g>
			</g>
		</g>
	</g>
	<g>
		<g>
			<g>
				<g>
					<g>
						<path class="st3" d="M421.87,545.37c-1.12,1.68-1.77,3.7-1.77,5.87c0,5.87,4.76,10.62,10.62,10.62c2.04,0,3.94-0.59,5.56-1.59
							L421.87,545.37z"/>
					</g>
				</g>
			</g>
		</g>
		<g>
			<g>
				<g>
					<g>
						<path class="st3" d="M439.46,557.29c1.19-1.72,1.89-3.8,1.89-6.04c0-5.87-4.76-10.62-10.62-10.62c-2.12,0-4.08,0.63-5.74,1.69
							L439.46,557.29z"/>
					</g>
				</g>
			</g>
		</g>
	</g>
	<g>
		<g>
			<g>
				<g>
					<g>
						<path class="st3" d="M436.6,690.64c-1.68-1.12-3.7-1.77-5.87-1.77c-5.87,0-10.62,4.76-10.62,10.62c0,2.04,0.59,3.94,1.59,5.56
							L436.6,690.64z"/>
					</g>
				</g>
			</g>
		</g>
		<g>
			<g>
				<g>
					<g>
						<path class="st3" d="M424.68,708.23c1.72,1.19,3.8,1.89,6.04,1.89c5.87,0,10.62-4.76,10.62-10.62c0-2.12-0.63-4.08-1.69-5.74
							L424.68,708.23z"/>
					</g>
				</g>
			</g>
		</g>
	</g>
	<g>
		<g>
			<g>
				<g>
					<g>
						<path class="st3" d="M708.68,542.4c-1.68-1.12-3.7-1.77-5.87-1.77c-5.87,0-10.62,4.76-10.62,10.62c0,2.04,0.59,3.94,1.59,5.56
							L708.68,542.4z"/>
					</g>
				</g>
			</g>
		</g>
		<g>
			<g>
				<g>
					<g>
						<path class="st3" d="M696.76,559.98c1.72,1.19,3.8,1.89,6.04,1.89c5.87,0,10.62-4.76,10.62-10.62c0-2.12-0.63-4.08-1.69-5.74
							L696.76,559.98z"/>
					</g>
				</g>
			</g>
		</g>
	</g>
	<g>
		<g>
			<g>
				<g>
					<g>
						<path class="st3" d="M696.57,696.24c-1.12,1.68-1.77,3.7-1.77,5.87c0,5.87,4.76,10.62,10.62,10.62c2.04,0,3.94-0.59,5.56-1.59
							L696.57,696.24z"/>
					</g>
				</g>
			</g>
		</g>
		<g>
			<g>
				<g>
					<g>
						<path class="st3" d="M714.15,708.15c1.19-1.72,1.89-3.8,1.89-6.04c0-5.87-4.76-10.62-10.62-10.62c-2.12,0-4.08,0.63-5.74,1.69
							L714.15,708.15z"/>
					</g>
				</g>
			</g>
		</g>
	</g>
	<g>
		<g>
			<g>
				<g>
					<path class="st1" d="M524.85,1065.78c-4.39-24.28-20.08-60.76-71.07-60.76c-50.99,0-123.39,37.97-123.39,60.76H524.85z"/>
				</g>
			</g>
		</g>
	</g>
	<g>
		<g>
			<g>
				<g>
					<polygon class="st0" points="524.84,1065.79 524.84,1091.34 517.07,1091.34 512.2,1083.87 507.34,1091.34 498.32,1091.34 
						493.45,1083.87 488.59,1091.34 479.57,1091.34 474.7,1083.87 469.84,1091.34 460.82,1091.34 455.95,1083.87 451.1,1091.34 
						442.07,1091.34 437.2,1083.87 432.35,1091.34 423.32,1091.34 418.45,1083.87 413.6,1091.34 404.57,1091.34 399.71,1083.87 
						394.85,1091.34 385.82,1091.34 380.96,1083.87 376.1,1091.34 367.07,1091.34 362.21,1083.87 357.35,1091.34 348.32,1091.34 
						343.46,1083.87 338.6,1091.34 330.39,1091.34 330.39,1065.79 					"/>
				</g>
			</g>
		</g>
	</g>
	<g>
		<g>
			<g>
				<g>
					<path class="st1" d="M612.35,1065.78c4.39-24.28,20.08-60.76,71.07-60.76c50.99,0,123.39,37.97,123.39,60.76H612.35z"/>
				</g>
			</g>
		</g>
	</g>
	<g>
		<g>
			<g>
				<g>
					<polygon class="st0" points="806.81,1065.79 806.81,1091.34 799.66,1091.34 794.8,1083.87 789.95,1091.34 780.91,1091.34 
						776.05,1083.87 771.2,1091.34 762.16,1091.34 757.31,1083.87 752.45,1091.34 743.41,1091.34 738.56,1083.87 733.7,1091.34 
						724.67,1091.34 719.81,1083.87 714.95,1091.34 705.92,1091.34 701.06,1083.87 696.2,1091.34 687.17,1091.34 682.31,1083.87 
						677.45,1091.34 668.42,1091.34 663.56,1083.87 658.7,1091.34 649.67,1091.34 644.81,1083.87 639.95,1091.34 630.92,1091.34 
						626.06,1083.87 621.21,1091.34 612.35,1091.34 612.35,1065.79 					"/>
				</g>
			</g>
		</g>
	</g>
	<g>
		<g>
			<g>
				<g>
					<polygon class="st5" points="668.63,188.53 625.57,188.53 617.25,188.53 516.28,188.53 503.39,188.53 464.9,188.53 
						432.15,206.64 503.39,206.64 516.28,206.64 617.25,206.64 625.57,206.64 701.38,206.64 					"/>
				</g>
			</g>
		</g>
	</g>
	<g>
		<g>
			<g>
				<g>
					<path class="st0" d="M503.77,257h-41.82c-5.54,0-10.03-4.49-10.03-10.03c0-5.54,4.49-10.03,10.03-10.03h41.82
						c5.54,0,10.03,4.49,10.03,10.03C513.8,252.51,509.31,257,503.77,257z"/>
				</g>
			</g>
		</g>
	</g>
	<g>
		<g>
			<g>
				<g>
					<path class="st0" d="M671.58,257h-41.82c-5.54,0-10.03-4.49-10.03-10.03c0-5.54,4.49-10.03,10.03-10.03h41.82
						c5.54,0,10.03,4.49,10.03,10.03C681.61,252.51,677.12,257,671.58,257z"/>
				</g>
			</g>
		</g>
	</g>
	<g>
		<g>
			<g>
				<g>
					<g>
						<g>
							<path class="st0" d="M628.22,390.14c-9.82,15.92-29.37,26.75-51.87,26.72c-2.29-0.01-4.57-0.11-6.79-0.34
								c-12.48-1.26-23.74-5.91-32.54-12.81c-0.02-0.01-0.02-0.03-0.04-0.04c-17.07-15-19.2-35.6-18.06-49.94l2.42,0l81.23,0.15
								l16.31,0.03c8.77,0.02,15.84,7.13,15.83,15.88c-0.02,0.48-0.03,0.96-0.1,1.42l0.08,0C634,378.03,631.75,384.43,628.22,390.14
								z"/>
						</g>
					</g>
				</g>
			</g>
		</g>
	</g>
	<g>
		<g>
			<g>
				<g>
					<g>
						<g>
							<path class="st4" d="M628.21,390.15c-9.83,15.92-29.36,26.75-51.87,26.71c-2.29,0-4.55-0.11-6.79-0.35
								c-0.33-1.52-0.48-3.06-0.48-4.65c0.03-15.73,16.17-28.45,36.04-28.41C613.91,383.46,621.95,385.97,628.21,390.15z"/>
						</g>
					</g>
				</g>
			</g>
		</g>
	</g>
	<g>
		<g>
			<g>
				<g>
					<g>
						<g>
							<path class="st3" d="M602.61,354.24c-0.01,4.65-1.92,8.86-4.98,11.92c-3.06,3.05-7.28,4.95-11.91,4.94l-34.9-0.06
								c-9.28-0.02-16.85-7.64-16.83-16.92c0-0.13,0-0.23,0.03-0.36l68.57,0.13C602.61,354.01,602.61,354.11,602.61,354.24z"/>
						</g>
					</g>
				</g>
			</g>
		</g>
	</g>
	<g>
		<g>
			<g>
				<g>
					<rect x="375.11" y="303.25" class="st6" width="16.39" height="34.77"/>
				</g>
			</g>
		</g>
	</g>
	<g>
		<g>
			<g>
				<g>
					<rect x="742.02" y="303.25" class="st6" width="16.39" height="34.77"/>
				</g>
			</g>
		</g>
	</g>
	<g>
		<g>
			<g>
				<g>
					<g>
						
							<ellipse transform="matrix(0.3052 -0.9523 0.9523 0.3052 158.0258 823.09)" class="st0" cx="643.06" cy="303.25" rx="28.23" ry="28.23"/>
					</g>
				</g>
			</g>
		</g>
	</g>
	<g>
		<g>
			<g>
				<g>
					<g>
						
							<ellipse transform="matrix(0.4927 -0.8702 0.8702 0.4927 -15.0763 580.6453)" class="st0" cx="490.47" cy="303.25" rx="28.23" ry="28.23"/>
					</g>
				</g>
			</g>
		</g>
	</g>
	<g>
		<g>
			
				<ellipse transform="matrix(0.9925 -0.1222 0.1222 0.9925 -31.5473 63.8182)" class="st3" cx="504.58" cy="289.14" rx="14.12" ry="14.12"/>
		</g>
	</g>
	<g>
		<g>
			
				<ellipse transform="matrix(0.9951 -0.0985 0.0985 0.9951 -25.2916 66.1866)" class="st3" cx="657.41" cy="289.14" rx="14.12" ry="14.12"/>
		</g>
	</g>
	<g>
		<g>
			<g>
				
					<ellipse transform="matrix(0.2298 -0.9732 0.9732 0.2298 323.8731 640.7743)" class="st4" cx="566.76" cy="115.77" rx="22.49" ry="22.49"/>
			</g>
		</g>
	</g>
	<g>
		<g>
			<path class="st7" d="M554.05,105.67c-3.39,4.79-3.64,10.44-0.56,12.62c3.08,2.18,8.33,0.07,11.72-4.71
				c3.39-4.79,3.64-10.44,0.56-12.62C562.69,98.77,557.44,100.88,554.05,105.67z"/>
		</g>
	</g>
	<g>
		<path class="st4" d="M566.76,77.98c-2.81,0-5.08-2.28-5.08-5.08V47.6c0-2.81,2.27-5.08,5.08-5.08c2.81,0,5.08,2.28,5.08,5.08v25.3
			C571.85,75.71,569.57,77.98,566.76,77.98z"/>
	</g>
	<g>
		<path class="st4" d="M536.45,90.54c-1.3,0-2.6-0.5-3.59-1.49l-17.89-17.89c-1.98-1.99-1.98-5.2,0-7.19c1.99-1.98,5.2-1.98,7.19,0
			l17.89,17.89c1.98,1.99,1.98,5.2,0,7.19C539.05,90.04,537.75,90.54,536.45,90.54z"/>
	</g>
	<g>
		<path class="st4" d="M597.08,90.54c-1.3,0-2.6-0.5-3.59-1.49c-1.98-1.99-1.98-5.2,0-7.19l17.89-17.89c1.99-1.98,5.2-1.98,7.19,0
			c1.98,1.99,1.98,5.2,0,7.19l-17.89,17.89C599.68,90.04,598.38,90.54,597.08,90.54z"/>
	</g>
	<g>
		<path class="st4" d="M634.93,120.85h-25.3c-2.81,0-5.08-2.28-5.08-5.08c0-2.81,2.28-5.08,5.08-5.08h25.3
			c2.81,0,5.08,2.28,5.08,5.08C640.01,118.58,637.74,120.85,634.93,120.85z"/>
	</g>
	<g>
		<path class="st4" d="M523.89,120.85h-25.3c-2.81,0-5.08-2.28-5.08-5.08c0-2.81,2.28-5.08,5.08-5.08h25.3
			c2.81,0,5.08,2.28,5.08,5.08C528.97,118.58,526.7,120.85,523.89,120.85z"/>
	</g>
	<g>
		<g>
			<path class="st8" d="M566.42,878.63l-0.91,0.72c-11.92-6.27-44.73-24.21-80.72-49.9c-26.31-18.78-49.14-37.97-67.86-57.03
				c-23.11-23.52-39.92-46.85-49.97-69.32l-0.56-1.3c-19.73-45.43-11.42-99.8,20.66-135.35c19.93-22.09,46.36-34.26,74.42-34.26
				c28.06,0,54.49,12.17,74.42,34.26c9.66,10.71,17.27,23.16,22.62,37.01l0.02,0.07l0.05,0.12l8.05,20.94l7.63-20.61
				c0,0,0.14-0.36,0.14-0.36l0.08-0.2l0.02-0.07c5.34-13.8,12.94-26.21,22.57-36.89c19.93-22.09,46.36-34.26,74.42-34.26
				c28.06,0,54.49,12.17,74.42,34.26c32.07,35.55,40.38,89.93,20.68,135.3c0,0-0.58,1.34-0.6,1.38
				c-10.05,22.46-26.86,45.77-49.95,69.28c-18.72,19.06-41.55,38.24-67.86,57.03c-36.06,25.75-68.93,43.71-80.79,49.94
				L566.42,878.63z"/>
		</g>
		<g>
			<path class="st9" d="M671.51,540.67c25.63,0,49.83,11.17,68.13,31.46c14.81,16.42,24.42,37.26,27.77,60.25
				c1.63,11.15,1.72,22.47,0.28,33.65c-1.45,11.27-4.43,22.15-8.86,32.34l-0.02,0.05l-0.02,0.05c-0.07,0.17-0.15,0.34-0.22,0.51l0,0
				l-0.12,0.28c-0.04,0.09-0.08,0.18-0.12,0.27l-0.01,0.02l-0.01,0.02l-0.03,0.07c-9.62,21.51-25.83,43.96-48.17,66.71
				c-18.34,18.69-40.76,37.53-66.62,56.01c-31.47,22.49-60.52,38.99-74.96,46.79l-2.04-1.66l-2.04,1.66
				c-14.36-7.75-43.14-24.1-74.53-46.49c-25.95-18.51-48.44-37.39-66.85-56.12c-22.44-22.82-38.71-45.33-48.36-66.91l-0.03-0.08
				l-0.01-0.02l-0.01-0.02c-0.04-0.09-0.08-0.18-0.12-0.27l-0.12-0.28c-0.08-0.17-0.15-0.35-0.22-0.52l-0.02-0.05l-0.02-0.05
				c-4.42-10.19-7.4-21.07-8.86-32.34c-1.44-11.18-1.35-22.51,0.28-33.65c3.35-23,12.96-43.83,27.77-60.25
				c18.3-20.29,42.5-31.46,68.13-31.46c25.63,0,49.83,11.17,68.13,31.46c9,9.98,16.09,21.6,21.07,34.54l15.68,40.78l0.14-0.36
				l0.14,0.36l15.68-40.78c4.98-12.94,12.06-24.57,21.07-34.54C621.68,551.84,645.88,540.67,671.51,540.67 M671.51,523.72
				c-29.21,0-58.42,12.35-80.71,37.06c-10.64,11.8-18.74,25.35-24.3,39.81c0,0,0,0,0-0.01c0,0,0,0,0,0.01
				c-5.56-14.46-13.66-28.02-24.3-39.81c-22.29-24.71-51.5-37.06-80.71-37.06c-29.21,0-58.42,12.35-80.71,37.06
				c-35.23,39.05-42.61,97.26-22.16,144.35c0.09,0.21,0.18,0.42,0.27,0.63c0.1,0.24,0.21,0.48,0.31,0.71
				c0.01,0.03,0.02,0.05,0.03,0.08C405.16,809.29,566.49,889.4,566.49,889.4l0,0l0,0c0,0,161.33-80.1,207.26-182.84
				c0.01-0.03,0.02-0.05,0.03-0.08c0.11-0.24,0.21-0.48,0.31-0.71c0.09-0.21,0.18-0.42,0.27-0.63
				c20.45-47.09,13.07-105.31-22.16-144.35C729.93,536.08,700.72,523.72,671.51,523.72L671.51,523.72z"/>
		</g>
	</g>
	<g>
		<g>
			<path class="st3" d="M493.2,664.64h12.69v59.28H493.2V664.64z"/>
		</g>
		<g>
			<path class="st3" d="M556.48,703.04c0,14.94-10.6,21.79-21.54,21.79c-11.94,0-21.12-7.85-21.12-21.04
				c0-13.19,8.68-21.62,21.79-21.62C548.13,682.17,556.48,690.77,556.48,703.04z M526.93,703.46c0,7.01,2.92,12.27,8.35,12.27
				c4.93,0,8.1-4.93,8.1-12.27c0-6.09-2.34-12.27-8.1-12.27C529.18,691.19,526.93,697.45,526.93,703.46z"/>
		</g>
		<g>
			<path class="st3" d="M573.01,683.09l5.51,18.95c1,3.42,1.75,6.68,2.34,9.93h0.25c0.67-3.34,1.34-6.43,2.25-9.93l5.26-18.95h13.36
				l-15.19,40.83H574.1l-14.86-40.83H573.01z"/>
		</g>
		<g>
			<path class="st3" d="M616.34,707.55c0.42,5.26,5.59,7.76,11.52,7.76c4.34,0,7.85-0.58,11.27-1.67l1.67,8.6
				c-4.17,1.67-9.27,2.5-14.78,2.5c-13.86,0-21.79-8.01-21.79-20.79c0-10.35,6.43-21.79,20.62-21.79c13.19,0,18.2,10.27,18.2,20.37
				c0,2.17-0.25,4.09-0.42,5.01H616.34z M631.29,698.87c0-3.09-1.34-8.27-7.18-8.27c-5.34,0-7.51,4.84-7.85,8.27H631.29z"/>
		</g>
	</g>
	<g class="st10">
		<path class="st8" d="M387.62,622.61c-2.39,8.09-4.03,17.23-4.66,27.54"/>
		<path class="st3" d="M382.97,660.31c-0.21,0-0.42-0.01-0.64-0.02c-5.6-0.35-9.87-5.17-9.52-10.77
			c0.65-10.59,2.36-20.61,5.06-29.78c1.59-5.39,7.24-8.46,12.62-6.87c5.38,1.59,8.46,7.24,6.87,12.62
			c-2.27,7.71-3.71,16.22-4.27,25.29C392.77,656.16,388.29,660.31,382.97,660.31z"/>
	</g>
	<g class="st10">
		<path class="st8" d="M457.51,560.34c0,0-34.69,3.67-56.83,34.91"/>
		<path class="st3" d="M400.67,605.42c-2.03,0-4.08-0.61-5.87-1.87c-4.58-3.25-5.66-9.59-2.41-14.17
			c24.52-34.59,62.46-38.97,64.06-39.14c5.57-0.59,10.59,3.46,11.18,9.04c0.59,5.57-3.44,10.56-9,11.17
			c-0.45,0.05-30.63,3.86-49.65,30.68C406.99,603.92,403.85,605.42,400.67,605.42z"/>
	</g>
	<g>
		<path class="st8" d="M745.24,622.61c2.39,8.09,4.03,17.23,4.66,27.54"/>
		<path class="st9" d="M749.89,660.31c-5.33,0-9.8-4.15-10.14-9.54c-0.56-9.07-1.99-17.58-4.27-25.29
			c-1.59-5.38,1.49-11.04,6.88-12.62c5.38-1.59,11.04,1.49,12.62,6.88c2.7,9.17,4.41,19.19,5.06,29.78
			c0.35,5.6-3.92,10.42-9.52,10.77C750.32,660.31,750.1,660.31,749.89,660.31z"/>
	</g>
	<g>
		<path class="st8" d="M675.35,560.34c0,0,34.69,3.67,56.83,34.91"/>
		<path class="st9" d="M732.19,605.42c-3.18,0-6.32-1.49-8.3-4.29c-19.07-26.9-49.35-30.65-49.65-30.68
			c-5.58-0.59-9.61-5.59-9.02-11.17c0.59-5.58,5.62-9.63,11.2-9.04c1.6,0.17,39.54,4.55,64.06,39.14
			c3.25,4.58,2.17,10.92-2.41,14.17C736.27,604.81,734.22,605.42,732.19,605.42z"/>
	</g>
	<g>
		<path class="st0" d="M909.35,599.74c-3.43-31.19-14.42-57.3-32.68-77.63c-13.88-15.46-31.77-27.19-53.16-34.87
			c-0.05-0.02-0.1-0.03-0.15-0.05c-1.31,1.98-2.61,3.96-3.86,5.98c-1.92,3.11-3.76,6.27-5.48,9.5c-0.82,1.55-1.62,3.11-2.38,4.69
			c-0.42,0.86-0.82,1.73-1.22,2.6c-0.05,0.11-0.22,0.5-0.39,0.88c-0.15,0.39-0.73,1.77-0.82,1.99c-0.29,0.74-0.57,1.47-0.83,2.22
			c-0.64,1.77-1.23,3.56-1.76,5.37c-0.65,2.21-1.54,4.79-1.98,7.27c0.26,7.53,0.65,15.05,1.22,22.57c0.01,0.17,0.02,0.34,0.02,0.51
			c17.78,8.4,37.37,31.13,40.3,58.27c1.66,15.37,0.18,74.02-50.29,98.47c-36.5,17.68-71.41,26.69-71.77,26.75l5.73,53.07
			c0.54-0.09,4.67-0.79,11.32-2.36l1.46,13.29c1.81-0.3,44.9-7.68,86.54-33.73c25.73-16.1,45.74-36.06,59.47-59.34
			C906.7,674.56,913.67,639.08,909.35,599.74z"/>
	</g>
	<g>
		<g>
			<g>
				<g>
					<path class="st11" d="M930.16,626.49l-19.29,18.95c-4.55,4.47-11.92,4.4-16.39-0.14l-18.95-19.29
						c-4.47-4.55-4.4-11.92,0.14-16.39l19.29-18.95c4.55-4.47,11.92-4.4,16.39,0.14l18.95,19.29
						C934.77,614.64,934.7,622.02,930.16,626.49z"/>
				</g>
			</g>
		</g>
	</g>
	<g>
		<g>
			<path class="st11" d="M723.6,817.39l-42.23,5.12c-6.98,0.85-13.38-4.17-14.22-11.15c-0.85-6.98,4.17-13.38,11.15-14.22
				l42.23-5.12l-1.89-15.61l-42.23,5.12c-6.98,0.85-13.38-4.17-14.22-11.15c-0.85-6.98,4.17-13.38,11.15-14.22l42.23-5.12
				l-1.95-16.14l-42.23,5.12c-6.98,0.85-13.38-4.17-14.22-11.15c-0.85-6.98,4.17-13.38,11.15-14.22l42.23-5.12
				c29.45-2.9,55.97,18.25,59.55,47.77c3.58,29.53-17.13,56.4-46.42,60.62L723.6,817.39z"/>
		</g>
	</g>
	<g>
		<path class="st0" d="M224.51,599.74c3.43-31.19,14.42-57.3,32.68-77.63c13.88-15.46,31.77-27.19,53.16-34.87
			c0.05-0.02,0.1-0.03,0.15-0.05c1.31,1.98,2.61,3.96,3.86,5.98c1.92,3.11,3.76,6.27,5.48,9.5c0.82,1.55,1.62,3.11,2.38,4.69
			c0.42,0.86,0.82,1.73,1.22,2.6c0.05,0.11,0.22,0.5,0.39,0.88c0.15,0.39,0.73,1.77,0.82,1.99c0.29,0.74,0.57,1.47,0.83,2.22
			c0.64,1.77,1.23,3.56,1.76,5.37c0.65,2.21,1.54,4.79,1.98,7.27c-0.26,7.53-0.65,15.05-1.22,22.57c-0.01,0.17-0.02,0.34-0.02,0.51
			c-17.78,8.4-37.37,31.13-40.3,58.27c-1.66,15.37-0.18,74.02,50.29,98.47c36.5,17.68,71.41,26.69,71.77,26.75l-5.73,53.07
			c-0.54-0.09-4.67-0.79-11.32-2.36l-1.46,13.29c-1.81-0.3-44.9-7.68-86.54-33.73c-25.73-16.1-45.74-36.06-59.47-59.34
			C227.16,674.56,220.19,639.08,224.51,599.74z"/>
	</g>
	<g>
		<g>
			<g>
				<g>
					<path class="st11" d="M203.7,626.49l19.29,18.95c4.55,4.47,11.92,4.4,16.39-0.14l18.95-19.29c4.47-4.55,4.4-11.92-0.14-16.39
						l-19.29-18.95c-4.55-4.47-11.92-4.4-16.39,0.14l-18.95,19.29C199.09,614.64,199.16,622.02,203.7,626.49z"/>
				</g>
			</g>
		</g>
	</g>
	<g>
		<g>
			<path class="st11" d="M410.26,817.39l42.23,5.12c6.98,0.85,13.38-4.17,14.22-11.15c0.85-6.98-4.17-13.38-11.15-14.22l-42.23-5.12
				l1.89-15.61l42.23,5.12c6.98,0.85,13.38-4.17,14.22-11.15c0.85-6.98-4.17-13.38-11.15-14.22l-42.23-5.12l1.95-16.14l42.23,5.12
				c6.98,0.85,13.38-4.17,14.22-11.15c0.85-6.98-4.17-13.38-11.15-14.22l-42.23-5.12c-29.45-2.9-55.97,18.25-59.55,47.77
				c-3.58,29.53,17.13,56.4,46.42,60.62L410.26,817.39z"/>
		</g>
	</g>
</g>
</svg>
