<?xml version="1.0" encoding="utf-8"?>
<!-- Generator: Adobe Illustrator 26.0.3, SVG Export Plug-In . SVG Version: 6.00 Build 0)  -->
<svg version="1.1" id="Layer_1" xmlns="http://www.w3.org/2000/svg" xmlns:xlink="http://www.w3.org/1999/xlink" x="0px" y="0px"
	 viewBox="0 0 1133.86 1133.86" style="enable-background:new 0 0 1133.86 1133.86;" xml:space="preserve">
<style type="text/css">
	.st0{fill:#C0B2BA;}
	.st1{fill:#5A403C;}
	.st2{fill:#94898F;}
	.st3{fill:#D45042;}
	.st4{fill:#FFFFFF;}
</style>
<g>
	<g>
		<path class="st0" d="M46.42,503.55l14.94,32.47l-18.83,35.07c0,0,45.32,8.44,61.62,67.54c16.31,59.1,37.09,140.92,87.09,194.82
			s113,43.94,113,43.94l-7.25-182.25c0,0-53.8,5.82-83.02-50.03c-29.22-55.85-46.11-94.16-87.67-118.84
			C84.73,501.6,46.42,503.55,46.42,503.55z"/>
		<path class="st1" d="M1012.3,601.98c0,0,19-10.36,21.74-37.84l35.2,1.14c0,0,8.01,38.65-22.29,71.26L1012.3,601.98z"/>
		<path class="st1" d="M326.9,560.08c0,0-7.18,41.91,18.2,57.31l39.45-31.26c0,0-17.91-8.61-20.75-27.09L326.9,560.08z"/>
		<path class="st0" d="M449.7,497.06c0,0,43.04-31.82,238.42-29.22c195.38,2.6,249.93,29.22,249.93,29.22s-19.92,30.52-244.18,40.05
			C469.62,546.63,449.7,497.06,449.7,497.06z"/>
		<path class="st1" d="M609.02,406.79c-6.61,12.33-6.06,42.43,0,60.61c6.06,18.18,11.69,22.06,28.57,23.59
			c16.88,1.53,114.73,3.67,123.82,0c9.09-3.67,13.85-13.63,16.88-24.45c3.03-10.82,4.76-48.06,0-59.75
			c-4.76-11.69-38.53-26.84-83.12-26.41C650.59,380.81,618.55,389.04,609.02,406.79z"/>
		<path class="st2" d="M1087.42,734.74c-14.29-91.57-73.38-148.07-142.87-164.95c-1.53-0.37-3.3-0.73-5.18-1.09
			c2.8-18.63,3.24-71.08-1.32-71.65c-5.2-0.65-46.55,29.87-245.05,29.87S449.7,497.06,449.7,497.06c-2.62,0-6.08,38.06-4.93,59.23
			c-15.44,2.59-110.55,45.67-140.54,118.49c-30.31,73.6-20.78,167.12,0,202.62c20.78,35.5,51.95,118.63,119.49,134.21
			c67.54,15.59,111.7,23.16,207.16,26.41c95.46,3.25,216.9,1.3,298.73-9.09c81.83-10.39,103.91-45.46,124.04-80.53
			C1073.79,913.33,1101.71,826.31,1087.42,734.74z"/>
		<path class="st3" d="M317.22,555.9c3.9,8.04,51.3,5.59,53.9,0c2.6-5.59,0-110.8,5.84-204.96c5.84-94.16,59.1-159.11,130.53-176.64
			c71.44-17.53,121-22.08,185.51-22.08c64.51,0,148.29,3.9,201.54,25.33c53.25,21.43,88.32,53.9,105.2,110.4
			c16.89,56.5,17.53,268.92,20.13,273.11c2.6,4.19,53.9,5.49,55.2,2.89c1.3-2.6,11.04-160.4-16.88-282.49
			c-27.92-122.09-129.23-153.91-150.01-160.4c-20.78-6.49-109.66-27.28-210.69-26.63c-101.03,0.65-190.65,24.03-231.56,44.81
			c-40.91,20.78-109.75,68.84-128.58,151.31C318.52,373.02,317.22,555.9,317.22,555.9z"/>
		<path class="st4" d="M955.77,572.95c-3.71-1.15-7.44-2.24-11.22-3.16c-1.53-0.37-3.3-0.73-5.18-1.09
			c0.52-3.45,0.96-8.07,1.3-13.31c-152.62,40.83-347.25,55.37-496.12-7.35c0.02,2.92,0.08,5.71,0.22,8.24
			c-3.15,0.53-9.74,2.83-18.3,6.64C584.83,633.16,793.22,618.11,955.77,572.95z"/>
	</g>
	<g>
		<path class="st4" d="M706.19,675.37c-0.89-1.57-2.41-2.07-3.91-1.94c-0.07-0.01-0.14,0.01-0.2,0c-0.07,0.01-0.14-0.01-0.2,0
			c-1.5-0.13-3.02,0.37-3.91,1.94c-27.81,48.92-33.35,109.29-30.7,162.99c1.36,27.52,5.37,55.28,12.91,82.08
			c3.47,12.34,8.17,23.82,16.16,33.57c0.01,0.13,0.11,0.18,0.2,0.24c1.74,2.62,4.99,5.76,7.95,4.52c0.47-0.12,0.92-0.34,1.27-0.77
			c0.11-0.14,0.18-0.29,0.29-0.42c0.08-0.09,0.14-0.22,0.21-0.31c2.13-1.78,3.64-4.65,4.79-6.61c0.89-1.51,1.62-3.07,2.27-4.65
			c4.75-7.83,8.08-16.44,10.65-25.56c7.54-26.79,11.56-54.56,12.91-82.08C739.54,784.66,734,724.3,706.19,675.37z"/>
		<path class="st4" d="M859.61,677.52c-0.85-1.5-2.31-1.98-3.74-1.86c-0.07-0.01-0.13,0.01-0.2,0c-0.07,0.01-0.13-0.01-0.2,0
			c-1.44-0.12-2.89,0.36-3.74,1.86c-26.61,46.81-31.9,104.57-29.37,155.95c1.3,26.33,5.14,52.9,12.35,78.53
			c3.32,11.81,7.82,22.79,15.47,32.12c0.01,0.12,0.1,0.17,0.2,0.23c1.67,2.5,4.77,5.51,7.61,4.33c0.45-0.11,0.88-0.32,1.22-0.73
			c0.1-0.13,0.18-0.27,0.28-0.41c0.08-0.09,0.13-0.21,0.2-0.3c2.03-1.7,3.48-4.45,4.58-6.32c0.85-1.45,1.55-2.94,2.18-4.45
			c4.54-7.49,7.73-15.73,10.19-24.46c7.22-25.64,11.06-52.2,12.35-78.53C891.52,782.09,886.22,724.33,859.61,677.52z"/>
		<path class="st4" d="M552.01,677.52c-0.85-1.5-2.31-1.98-3.74-1.86c-0.07-0.01-0.13,0.01-0.2,0c-0.07,0.01-0.13-0.01-0.2,0
			c-1.44-0.12-2.89,0.36-3.74,1.86c-26.61,46.81-31.91,104.57-29.37,155.95c1.3,26.33,5.14,52.9,12.35,78.53
			c3.32,11.81,7.82,22.79,15.47,32.12c0.01,0.12,0.1,0.17,0.2,0.23c1.67,2.5,4.77,5.51,7.61,4.33c0.45-0.11,0.88-0.32,1.22-0.73
			c0.1-0.13,0.18-0.27,0.28-0.41c0.08-0.09,0.13-0.21,0.2-0.3c2.03-1.7,3.48-4.45,4.58-6.32c0.85-1.45,1.55-2.94,2.18-4.45
			c4.54-7.49,7.73-15.73,10.19-24.46c7.22-25.64,11.06-52.2,12.35-78.53C583.91,782.09,578.62,724.33,552.01,677.52z"/>
		<path class="st4" d="M990.78,677.92c-0.74-1.31-2.01-1.73-3.26-1.62c-1.59-0.11-2.86,0.31-3.6,1.62
			c-23.19,40.8-27.81,91.15-25.6,135.94c1.13,22.95,4.48,46.11,10.77,68.46c2.9,10.29,6.81,19.87,13.48,28
			c0.01,0.11,0.09,0.15,0.17,0.2c1.45,2.18,4.16,4.81,6.63,3.77c0.39-0.1,0.77-0.28,1.06-0.64c0.09-0.11,0.15-0.24,0.24-0.35
			c0.07-0.08,0.11-0.18,0.18-0.26c1.77-1.49,3.03-3.88,4-5.51c0.74-1.26,1.35-2.56,1.9-3.88c3.96-6.53,6.74-13.71,8.88-21.32
			c6.29-22.35,9.64-45.5,10.77-68.46C1018.59,769.07,1013.98,718.72,990.78,677.92z"/>
		<path class="st4" d="M404.95,677.92c-0.74-1.31-2.01-1.73-3.26-1.62c-1.59-0.11-2.86,0.31-3.6,1.62
			c-23.19,40.8-27.81,91.15-25.6,135.94c1.13,22.95,4.48,46.11,10.77,68.46c2.9,10.29,6.81,19.87,13.48,28
			c0.01,0.11,0.09,0.15,0.17,0.2c1.45,2.18,4.16,4.81,6.63,3.77c0.39-0.1,0.77-0.28,1.06-0.64c0.09-0.11,0.15-0.24,0.24-0.35
			c0.07-0.08,0.11-0.18,0.18-0.26c1.77-1.49,3.03-3.88,4-5.51c0.74-1.26,1.35-2.56,1.9-3.88c3.96-6.53,6.74-13.71,8.88-21.32
			c6.29-22.35,9.64-45.5,10.77-68.46C432.76,769.07,428.15,718.72,404.95,677.92z"/>
	</g>
</g>
</svg>
