<?xml version="1.0" encoding="utf-8"?>
<!-- Generator: Adobe Illustrator 26.0.3, SVG Export Plug-In . SVG Version: 6.00 Build 0)  -->
<svg version="1.1" id="Layer_1" xmlns="http://www.w3.org/2000/svg" xmlns:xlink="http://www.w3.org/1999/xlink" x="0px" y="0px"
	 viewBox="0 0 1133.86 1133.86" style="enable-background:new 0 0 1133.86 1133.86;" xml:space="preserve">
<style type="text/css">
	.st0{fill:#FF8500;}
	.st1{fill:#FFB666;}
	.st2{fill:#ED5C01;}
	.st3{fill:#6D2E03;}
	.st4{fill:#441D03;}
	.st5{fill:#A78268;}
	.st6{fill:#772E01;}
	.st7{fill:#FEEDD3;}
	.st8{fill:#DDBC90;}
	.st9{fill:#6F5E48;}
	.st10{fill:#492E1C;}
	.st11{fill:#352115;}
	.st12{fill:#1B110B;}
	.st13{fill:#FFE3B3;}
	.st14{fill:#DFB974;}
	.st15{fill:#705D3A;}
	.st16{fill:#411B02;}
	.st17{fill:#6D5849;}
	.st18{fill:#7A0303;}
	.st19{fill:#450000;}
	.st20{fill:#FF877C;}
	.st21{fill:#ED6863;}
	.st22{fill:#A03733;}
	.st23{fill:#FFFFFF;}
	.st24{fill:#CCCCCC;}
	.st25{fill:#666666;}
	.st26{fill:#FFDA00;}
	.st27{fill:#FFA900;}
	.st28{fill:#FF7E7E;}
	.st29{fill:#EC5C5D;}
	.st30{fill:#FFB7B7;}
	.st31{fill:#762E2F;}
</style>
<g>
	<g>
		<g>
			<g>
				<path class="st0" d="M652.07,851.66c0,0,29.47,19.85,27.74,37.61c-1.38,14.16-59.64,89.51-87.36,93.84
					c5.78,10.97,77.11,80.23,90.39,82.25c40.07-3.68,34.56-42.45,51.55-74.15c24.69-46.06,54.58-63.39,58.91-87.65
					c4.33-24.26-25.7-33.36,6.64-80.72c-20.79-21.37-72.78-26.57-72.78-26.57L652.07,851.66z"/>
				<path class="st1" d="M686.09,899.23c3.73-9.96-1.08-21.52-13.93-30.64c2.51,4.35,8.09,16.24,7.65,20.68
					c-1.38,14.16-59.64,89.51-87.36,93.84c0.82,1.55,9.18,9.19,12.27,12.72C627.56,984.11,669.31,936.14,686.09,899.23z"/>
				<path class="st2" d="M799.95,822.84c-20.79-21.37-72.78-26.57-72.78-26.57l-75.1,55.39c0,0,8.16,5.5,15.64,13.29
					c37.89,4.96,96.07,1.75,88.63,47.13c-5.12,31.2-37.54,54.18-52.93,82.02c-13.86,25.06-11.76,47.65-42.75,56.43
					c13.93,12.17,17.44,14.11,22.19,14.83c40.07-3.68,34.56-42.45,51.55-74.15c24.69-46.06,54.58-63.39,58.91-87.65
					C797.64,879.3,767.6,870.21,799.95,822.84z"/>
				<g>
					<g>
						<path class="st3" d="M723.44,1020.17c2.6-8.67,5.37-17.73,9.63-26.37c-29.71-0.36-46.49-11.21-59.32-20.01
							C677.54,993.63,707.55,1011.81,723.44,1020.17z"/>
					</g>
					<g>
						<path class="st4" d="M698.35,1004.61c9.95,8.05,17.16,11.39,25.09,15.56c2.6-8.67,5.37-17.73,9.63-26.37
							c-12.46-0.15-21.09-2.27-27.24-3.83C705.4,990.7,700.41,1001.14,698.35,1004.61z"/>
					</g>
					<g>
						<path class="st3" d="M709.84,897.64c7.81,28.62,39.63,41.84,57.02,47.04c6.71-7.98,12.76-14.88,17.42-21.52
							C749.2,923.99,723.67,907.13,709.84,897.64z"/>
					</g>
					<g>
						<path class="st4" d="M784.28,923.16c-13.69,0.32-23.03-2-29.73-3.57c-1.57,5.73-5.34,11.92-8.14,17.1
							c9.27,5.28,13.37,5.87,20.45,7.98C773.58,936.69,779.62,929.8,784.28,923.16z"/>
					</g>
					<g>
						<path class="st3" d="M793.12,833.94c-31,17.96-52.65,17.55-69.7,19.8c20,6.05,39.65,12.99,62.14,15.63
							C783.77,860.49,784.53,849.65,793.12,833.94z"/>
					</g>
					<g>
						<path class="st4" d="M793.12,833.94c-31,17.96-52.65,17.55-69.7,19.8c20,6.05,39.65,12.99,62.14,15.63
							C783.77,860.49,784.53,849.65,793.12,833.94z"/>
					</g>
					<g>
						<path class="st3" d="M665.48,915.08c-3.94,5.55-8.49,11.52-13.42,17.56c11.41,5.36,31.93,14.54,39.58,14.89
							C683.78,938.52,671.78,926.12,665.48,915.08z"/>
					</g>
					<g>
						<path class="st5" d="M665.48,915.08c-3.94,5.55-8.49,11.52-13.42,17.56c3.34,1.57,10.01,4.58,10.89,4.97
							c3.1-4.03,6.18-8.63,8.9-12.91C671.25,923.71,667.24,917.98,665.48,915.08z"/>
					</g>
				</g>
				<path class="st6" d="M682.82,1066.23l-0.1-0.02c-13.56-2.06-84.66-70.61-91.03-82.7l-0.56-1.07l1.2-0.19
					c11.8-1.84,31.13-17.5,53.04-42.95c17.85-20.74,32.92-43.23,33.6-50.13c1.66-17.05-27.07-36.61-27.36-36.8l-1.02-0.69
					l76.36-56.31l0.33,0.03c2.14,0.21,52.54,5.47,73.31,26.83l0.49,0.51l-0.4,0.59c-21.01,30.76-15.32,45.32-10.31,58.17
					c2.74,7.02,5.33,13.66,3.8,22.21c-2.27,12.74-11.45,23.57-23.06,37.29c-10.7,12.64-24.03,28.38-35.94,50.61
					c-5.14,9.59-8.19,19.78-11.13,29.63c-6.8,22.73-12.67,42.36-41.1,44.98L682.82,1066.23z M593.83,983.73
					c8.88,13.41,76,78.49,89.04,80.76c27.17-2.55,32.88-21.64,39.49-43.74c2.97-9.93,6.04-20.2,11.27-29.95
					c12-22.39,25.39-38.21,36.15-50.91c11.45-13.52,20.49-24.2,22.68-36.48c1.44-8.07-1.06-14.48-3.71-21.27
					c-5.14-13.17-10.96-28.08,10.09-59.19c-19.79-19.62-67-25.29-71.42-25.78l-73.86,54.47c5.28,3.74,28.71,21.32,27.12,37.71
					C679.19,904.5,621.85,977.44,593.83,983.73z"/>
			</g>
		</g>
	</g>
	<g>
		<g>
			<path class="st7" d="M656.63,1038.5c-23.17-26.61-8.88-68.45-47.87-58.48c-3.03-1.3-10.54-14.8-29.46-5.41
				c-16.25-3.3-29.89,8.01-44.19,38.12c-14.3,30.11-11.48,45.92,21.88,45.7c2.53,4.26,13.79,11.33,28.81,3.68
				c10.43,10.61,60.99,12.4,101.59,2.65C703.93,1060.79,674.18,1058.65,656.63,1038.5z"/>
			<path class="st8" d="M656.63,1038.5c-17.7-20.33-13.56-49.51-27.99-57.73c6.84,14.63,2.23,22.85,2.07,35.2
				c-0.29,23.18,3.47,49.39-45.3,45.37c14.47,12.79,66.14,12.03,101.99,3.42C703.93,1060.79,674.18,1058.65,656.63,1038.5z"/>
			<path class="st8" d="M607.63,979.91c-16.51,5.96-24.8,16.79-30.86,31.3c-10.06,24.07-3.52,47.18-18.45,48.88
				c3.91,3.99,14.88,7.89,27.49,2.02c-12.89-13.1-7.35-31.1-2.83-45.27C587.8,1001.66,599.38,985.78,607.63,979.91z"/>
			<path class="st8" d="M578.6,974.77c-16.19,5.14-27.56,30.82-31.14,41.97c-4.26,13.29-4.69,32.67-18.84,32.52
				c5.34,8.23,18.56,9.19,27.97,9.44c-10.11-21.07-6.85-31.26-2.96-45.22C557.76,998.69,568.31,986.77,578.6,974.77z"/>
			<path class="st9" d="M631.58,1072.03C631.58,1072.03,631.58,1072.03,631.58,1072.03c-22.73,0-39.78-3.31-45.93-8.87
				c-4.36,2.13-8.73,3.22-12.99,3.22c-8.37,0-14.07-4.08-16.13-7.08h-0.2c-14.56,0-23.62-3.14-27.7-9.59
				c-4.69-7.41-2.87-19.28,5.71-37.35c12.86-27.09,25.09-39.17,39.65-39.17c1.69,0,3.44,0.17,5.2,0.51
				c4.43-2.16,8.63-3.26,12.47-3.26c7.83,0,12.57,4.44,15.4,7.09c0.73,0.68,1.37,1.28,1.82,1.57c3.89-0.97,7.28-1.45,10.34-1.45
				c15.59,0,19.04,12.62,23.04,27.23c2.96,10.8,6.31,23.05,15.02,33.05c8.69,9.97,20.29,15.42,27.97,19.02
				c5.34,2.51,8.03,3.76,7.84,5.58c-0.13,1.31-1.62,2.14-5.49,3.07C670.34,1069.74,650.45,1072.03,631.58,1072.03z M585.98,1061.05
				l0.45,0.45c5.33,5.42,22.63,8.79,45.15,8.79c0,0,0,0,0,0c18.74,0,38.49-2.27,55.61-6.38c3.68-0.88,4.13-1.48,4.18-1.59
				c-0.2-0.68-3.74-2.34-6.86-3.8c-7.81-3.66-19.61-9.2-28.53-19.45c-8.97-10.3-12.38-22.75-15.39-33.73
				c-3.97-14.5-7.11-25.95-21.37-25.95c-2.96,0-6.41,0.5-10.24,1.48l-0.29,0.07l-0.27-0.11c-0.72-0.31-1.49-1.03-2.55-2.02
				c-2.64-2.48-7.07-6.62-14.21-6.62c-3.65,0-7.68,1.08-11.97,3.21l-0.27,0.13l-0.29-0.06c-1.75-0.36-3.48-0.53-5.15-0.53
				c-13.61,0-25.71,12.13-38.08,38.18c-8.3,17.48-10.15,28.82-5.81,35.68c3.74,5.91,12.32,8.78,26.23,8.78l1.16-0.01l0.25,0.43
				c1.53,2.57,6.93,6.66,14.92,6.66c4.16,0,8.45-1.11,12.75-3.3L585.98,1061.05z"/>
		</g>
		<g>
			<path class="st9" d="M585.3,1062.81c-9.34-6.77-9.34-20.19-7.71-30.26c3.7-22.77,19.3-49.7,30.92-53.36l0.52,1.65
				c-10.9,3.44-26.18,30.15-29.73,51.98c-1.56,9.59-1.61,22.32,7.02,28.58L585.3,1062.81z"/>
		</g>
		<g>
			<path class="st9" d="M556.29,1058.92c-7.51-10.74-9.41-23.88-5.65-39.04c5.78-23.31,22.87-43.19,30.02-46.87l0.79,1.54
				c-7.19,3.7-23.71,23.87-29.13,45.74c-3.64,14.66-1.82,27.32,5.39,37.63L556.29,1058.92z"/>
		</g>
	</g>
	<g>
		<g>
			<path class="st0" d="M291.95,751.8C249.5,835.26,181.7,877.88,161.71,918.15c-14.95,30.11,8.66,56.31,13.86,92.84
				c18.76-3.56,78.26-18.92,95.74-59.35c17.76-9.1,85.05-41.08,93.37-84.04c-3.47-15.16,9.59-90.97,9.59-90.97L291.95,751.8z"/>
			<path class="st2" d="M251.33,977.7c0.4-0.34,0.77-0.7,1.16-1.04c-0.45-0.53-0.9-1.07-1.36-1.6
				C251.2,975.94,251.27,976.83,251.33,977.7z"/>
			<path class="st2" d="M374.26,776.63l-77.4-24.26c-19.43,38.84,49.42,83,28.25,129.02c-12.03,26.15-50.43,45.59-89.55,43.09
				c3.02,3.35,21.42,30.71,26.21,42.56c3.83-4.68,7.1-9.79,9.53-15.41c17.76-9.1,85.05-41.08,93.37-84.04
				C361.21,852.44,374.26,776.63,374.26,776.63z"/>
			<g>
				<path class="st6" d="M270.89,952.3c-5.34-10.55-20.14-20.77-20.29-20.87c0,0,4.21,0.8,7.91,3.95
					c4.78,4.06,10.81,9.98,13.93,16.15L270.89,952.3z"/>
			</g>
			<path class="st1" d="M185.39,901.11c34.66-39.85,89.3-90.55,105.84-135.3c1.22-3.65-2.17-11.55-8.01,2.01
				c-42.48,73.06-102.84,112.73-121.51,150.34c-14.95,30.11,8.66,56.31,13.86,92.84c1.88-0.36,2.15,0.51,4.76-0.1
				c1.58-14.01-11.83-34.63-14.29-58.6C163.69,929.45,175.24,912.1,185.39,901.11z"/>
			<g>
				<g>
					<path class="st3" d="M159.11,924.49c-2.64,8-2.78,15.79-1.5,23.65c9.13-2.52,28.86-7.48,46.22-8.52
						C190.05,932.58,172.71,925.24,159.11,924.49z"/>
				</g>
				<g>
					<path class="st3" d="M210.09,859.88c-6.52,6.78-12.75,13.2-18.51,19.36c31.83,7.22,50.37,38.52,81.68,37.54
						C258.7,906.14,226.01,869.66,210.09,859.88z"/>
				</g>
				<g>
					<path class="st3" d="M303.15,886.23c-6.19-8.74-36.56-58.5-49.17-75.68c-5.27,6.69-10.61,13.07-15.93,19.15
						C253.95,841.98,278.01,881.95,303.15,886.23z"/>
				</g>
				<g>
					<path class="st3" d="M341.34,826.6c-13.91-16.59-48.75-30.94-57.76-59.38c-4.51,7.79-9.23,15.19-14.07,22.26
						C282.09,799.95,317.97,827.89,341.34,826.6z"/>
				</g>
				<g>
					<path class="st3" d="M305.82,839.3c-2.9,20.79,28.39,53.31,38.66,63.35c7.34-7.7,13.41-16.07,17.11-25.02
						C333.22,866.23,320.33,850.96,305.82,839.3z"/>
				</g>
			</g>
			<g>
				<g>
					<path class="st5" d="M157.61,948.14c2.51-0.69,4.27-1.19,8.12-2.12c0.23-6.55,0.63-12.46,3.84-19.92
						c-4.05-1.02-6.81-1.41-10.46-1.62C156.47,932.49,156.34,940.28,157.61,948.14z"/>
				</g>
				<g>
					<path class="st5" d="M191.57,879.24c3.69,0.84,7.11,1.96,10.48,3.35c5.21-5.76,10.6-11.34,15.78-17.04
						c-2.81-2.29-5.5-4.3-7.74-5.67C203.57,866.65,197.34,873.08,191.57,879.24z"/>
				</g>
				<g>
					<path class="st5" d="M253.97,810.56c-5.27,6.69-10.61,13.07-15.93,19.15c1.96,1.51,4.44,3.85,6.63,6.08
						c4.95-5.86,9.9-11.5,14.63-17.62C257.52,815.55,255.37,812.47,253.97,810.56z"/>
				</g>
				<g>
					<path class="st5" d="M283.57,767.54c-4.4,7.57-9.35,15.05-14.07,21.94c1.61,1.34,4.35,3.56,6.66,5.38
						c3.19-4.8,7.94-14.27,10.94-19.33C286.48,774.49,284.3,769.78,283.57,767.54z"/>
					<path class="st4" d="M341.34,826.6c-9.07-10.81-27.61-21.25-41.51-34.68c5.13,8.76,10.46,18.29,14.86,27.75
						C323.92,824,333.55,827.03,341.34,826.6z"/>
				</g>
				<g>
					<path class="st4" d="M329.04,858.97c0.75,7.85-1.83,14.48-3.93,22.43c7.7,9.72,15.01,17.01,19.36,21.26
						c7.34-7.7,13.41-16.07,17.11-25.02C346.06,871.39,336.36,864.52,329.04,858.97z"/>
				</g>
			</g>
			<path class="st6" d="M174.84,1012.01l-0.13-0.9c-1.84-12.93-5.96-24.45-9.95-35.58c-7.31-20.42-13.62-38.06-3.83-57.77
				c8.32-16.75,24.97-34.03,44.25-54.04c27.24-28.27,61.15-63.45,86-112.32l0.33-0.65l83.73,25.27l-0.13,0.76
				c-0.13,0.76-12.99,75.81-9.6,90.63l0.04,0.18l-0.03,0.18c-7.98,41.2-70.29,72.73-90.76,83.09l-2.78,1.41
				c-18.79,42.85-83.45,57.14-96.24,59.57L174.84,1012.01z M292.4,752.84c-24.94,48.76-58.77,83.86-85.97,112.09
				c-19.18,19.9-35.74,37.09-43.94,53.61c-9.46,19.05-3.26,36.36,3.91,56.41c3.92,10.96,7.98,22.29,9.9,35.02
				c14.52-2.86,76.33-17.3,94.22-58.67l0.12-0.29l3.34-1.7c20.26-10.25,81.85-41.42,89.81-81.7c-3.18-14.89,8.07-82.01,9.49-90.37
				L292.4,752.84z"/>
		</g>
		<g>
			<path class="st7" d="M175.4,1009.86c0,0-0.33,34.4,28.54,49.43c15.81,8.23,47.43-0.87,61.6-15.59
				c38.04-11.19,17.61-88.88-6.08-106.49C262.35,983.27,181.34,995.83,175.4,1009.86z"/>
			<path class="st8" d="M213.37,989.88c-5.21,0.58-1.53,27.29,2.71,39.85c2.58,7.65,11.05,19.6,5.38,32.61
				c14.51-0.7,34.61-8.46,43.47-19.24c-15.27,2.55-31.42-2.11-40.18-10.99C218.82,1026.11,213.9,994.66,213.37,989.88z"/>
			<path class="st8" d="M259.46,937.21c0.41,6.55-0.88,12.41-3.4,17.7c11.94,22.1,18.62,74.82,9.48,88.79
				C304.91,1034.17,282.19,954.11,259.46,937.21z"/>
			<path class="st9" d="M218.92,1063.27L218.92,1063.27c-6.12,0-11.29-1.08-15.38-3.21c-29.01-15.1-29.01-49.86-29.01-50.21
				l0.07-0.33c2.09-4.94,12.23-9.41,25.06-15.09c25.68-11.35,60.84-26.89,58.94-57.18l-0.12-1.86l1.5,1.11
				c16.01,11.91,31.72,52.74,26.55,81.65c-2.48,13.9-9.58,22.98-20.53,26.3C255.56,1055.2,235.37,1063.27,218.92,1063.27z
				 M176.27,1010.05c0.04,2.65,1.07,34.42,28.08,48.48c3.84,2,8.75,3.01,14.58,3.01c16.11,0,35.88-7.93,45.99-18.44l0.16-0.17
				l0.22-0.06c10.41-3.06,17.16-11.71,19.53-25.01c4.91-27.48-9.32-65.86-24.43-78.79c0.44,30.23-34.44,45.64-60.04,56.96
				C188.52,1001.26,178.27,1005.79,176.27,1010.05z"/>
		</g>
	</g>
	<g>
		<g>
			<path class="st0" d="M931.48,621.55c25.14-9.25,105.57-108.66,88.82-183.36c-18.1-80.72-78.47-168.49-16.46-255.9
				c14.87-20.96,65.72-34.46,57.18-58.34c-7.8-21.8-133.85,7.26-154.22,154.8c-13.28,96.24,113.52,199.01-33.03,278.98
				C882.54,565.23,931.48,621.55,931.48,621.55z"/>
			<path class="st1" d="M917.2,308.32c-5.41-59.29,35.19-174.99,133.64-190.01c-8.45-2.31-13.88,1.36-13.77-0.2
				c-39.54,5.55-114.92,49.44-130.27,160.63c-13.28,96.24,113.52,199.01-33.03,278.98c1.44,1.23,3.97,3.79,7.19,7.2
				C1022.57,502.12,922.22,363.37,917.2,308.32z"/>
			<path class="st2" d="M1061.02,123.95c-0.97-2.71-3.77-4.63-7.96-5.64c13.45,15.17-60.43,51.27-76.03,73.8
				c-55.45,77.98,5.45,171.13,14.57,252.52c4.99,44.58-20.68,127.82-89.41,143.63c14.68,16.48,29.3,33.29,29.3,33.29
				c25.14-9.25,105.57-108.66,88.82-183.36c-18.1-80.72-78.47-168.49-16.46-255.9C1018.71,161.33,1069.56,147.83,1061.02,123.95z"/>
			<g>
				<g>
					<path class="st3" d="M981.97,227.05c4.27-14.91,11.29-29.84,21.87-44.76c14.87-20.96,65.72-34.46,57.18-58.34
						c-6.38-17.85-92-1.59-134.03,85.82C937.28,209.33,958.49,210.92,981.97,227.05z"/>
				</g>
				<g>
					<path class="st3" d="M907.8,272.18c18.72-3.52,46.03-2.75,69.24,8.27c-0.6-7.79-0.7-15.61-0.19-23.43
						c-19.88-8.86-44.47-13.58-60.54-20.35C912.77,247.62,909.88,259.43,907.8,272.18z"/>
				</g>
				<g>
					<path class="st3" d="M907.67,315.62c1.29,8.06,3.18,16.14,5.43,24.22c19.6-9.04,50.42-9.98,75.04-3.74
						c-2.22-7.53-4.24-15.09-5.96-22.68C954.66,300.37,920.5,310.8,907.67,315.62z"/>
				</g>
				<g>
					<path class="st3" d="M933.13,399.95c15.82-2.06,53.54-4.06,78.79,7.86c-5.4-17.07-11.73-34.4-17.54-51.92
						c-16.02,14.66-49.17,24.66-66.79,27.84C929.49,389.15,931.36,394.56,933.13,399.95z"/>
				</g>
				<g>
					<path class="st3" d="M942.6,435.08c1.32,7.04,2.19,14.02,2.44,20.94c16.04-3.66,54.15-9.86,77.47,6.84
						c0.25-8.41-0.43-16.69-2.22-24.68c-0.63-2.79-1.31-5.59-2.03-8.4C995.59,423.85,958.57,425.76,942.6,435.08z"/>
				</g>
				<g>
					<path class="st3" d="M936.38,499.62c24.68,0.47,55.31,23.41,67.21,32.56c4.32-9.01,8.15-18.31,11.2-27.72
						c-36.54-17.84-63.52-19.74-72.82-19.78C940.61,489.7,938.77,494.68,936.38,499.62z"/>
				</g>
				<g>
					<path class="st3" d="M923.79,518.96c-5.96,7.18-13.37,14.23-22.46,21.14c31.3,5.51,53.85,37.28,63.07,52.49
						c7.26-8.58,14.79-18.66,21.94-29.73C964.46,532.64,934.27,521.91,923.79,518.96z"/>
				</g>
			</g>
			<g>
				<g>
					<path class="st4" d="M1061.02,123.95c-0.97-2.71-3.77-4.63-7.97-5.64c10.53,11.26-22.87,25.84-49.87,46.43
						c-20.46,15.6-34.11,36.36-40.14,51.93c3.14,1.84,11.3,5.13,18.92,10.37c4.27-14.91,11.29-29.84,21.87-44.76
						C1018.71,161.33,1069.56,147.83,1061.02,123.95z"/>
					<path class="st5" d="M1050.05,117.74c-4.35-0.24-9.1-0.41-12.98,0.4c-30.02,4.21-80.69,30.51-110.08,91.63
						c4.9-0.21,11.14,0.41,11.14,0.41C954,170.59,1012.21,118.32,1050.05,117.74z"/>
				</g>
				<g>
					<path class="st4" d="M955.08,249.06c-1.23,8.03-0.96,15.73-0.92,23.83c8.52,2.12,13.95,3.33,22.87,7.56
						c-0.6-7.79-0.7-15.61-0.19-23.43C968.67,253.38,963.92,251.73,955.08,249.06z"/>
					<path class="st5" d="M907.8,272.18c7.87-1.48,9.57-1.03,11.19-1.46c0.63-8.95,5.46-21.8,7.21-30.41c0,0-3.89-1.29-9.89-3.65
						C912.77,247.62,909.88,259.43,907.8,272.18z"/>
				</g>
				<g>
					<path class="st5" d="M913.1,339.84c7.45-3.02,10.54-3.87,10.92-3.92c-3.19-10.88-5.49-15.43-6.33-23.63
						c-1.85,0.55-4.22,1.15-10.03,3.33C908.96,323.68,910.85,331.76,913.1,339.84z"/>
					<path class="st4" d="M958.12,307.34c1.37,8.33,3.7,16.69,5.63,25.06c8.45,0.76,14.75,1.26,24.4,3.7
						c-2.22-7.53-4.24-15.09-5.96-22.68C972.66,308.91,968.2,308.24,958.12,307.34z"/>
				</g>
				<g>
					<path class="st4" d="M973.94,368.87c2.31,9.05,6.81,22.1,8.77,31.15c10.55,1.05,20.85,4.16,29.21,7.79
						c-5.4-17.07-11.73-34.4-17.54-51.92C987.61,362.08,980.16,365.7,973.94,368.87z"/>
					<path class="st5" d="M933.13,399.95c5.11-0.66,10.27-1.01,12.51-1.32c-0.82-4.04-5.08-15.26-5.62-17.69
						c-2.93,0.9-6.3,1.67-12.43,2.78C929.49,389.15,931.36,394.56,933.13,399.95z"/>
				</g>
				<g>
					<path class="st4" d="M1018.27,429.79c-11.1-2.91-18.3-3.79-29.48-3.39c0.28,2.1,3.42,19.76,3.35,26.02
						c7.89,1.2,20.36,3.54,30.37,10.45c0.25-8.41-0.43-16.69-2.22-24.68C1019.68,435.4,1018.99,432.6,1018.27,429.79z"/>
					<path class="st5" d="M945.05,456.03c4.47-1.02,8.6-1.61,11.17-2.17c-0.12-8.06-1.3-15.27-2.67-23.22
						c-2.77,0.42-6.44,1.82-10.94,4.45C943.93,442.12,944.8,449.1,945.05,456.03z"/>
				</g>
				<g>
					<path class="st4" d="M979.85,515.63c8.35,5.37,16.78,11.19,23.74,16.54c4.32-9.01,8.15-18.31,11.2-27.72
						c-14.97-7.31-19.02-8.8-27.52-11.3C985.44,499.87,982.57,509.27,979.85,515.63z"/>
					<path class="st5" d="M936.38,499.62c4.71,0.09,8.74,1.13,12.63,1.94c2.45-5.27,3.72-11.34,4.85-16.08
						c-7.04-1.02-8.69-0.78-11.89-0.8C940.61,489.7,938.77,494.68,936.38,499.62z"/>
				</g>
				<g>
					<path class="st5" d="M901.33,540.1c6.11,1.07,10.36,2.84,14.36,4.51c7.41-6.25,15.25-12.94,20.95-21.07
						c-6.16-2.73-9.63-3.67-12.86-4.58C917.83,526.14,910.42,533.19,901.33,540.1z"/>
					<path class="st4" d="M966.27,541.52c-5.78,8.67-14.04,17.68-21.53,24.88c3.86,3.46,14.26,17.27,19.67,26.19
						c7.26-8.58,14.79-18.66,21.94-29.73C976.8,549.69,972.25,545.7,966.27,541.52z"/>
				</g>
			</g>
			<path class="st6" d="M931.22,622.57l-0.39-0.45c-0.49-0.56-48.99-56.35-57.61-63.73l-0.95-0.82l1.1-0.6
				c95.81-52.28,74.33-113.41,51.59-178.12c-11.59-32.99-23.58-67.11-19.01-100.21c9.09-65.84,38.8-104.83,62.12-125.95
				c29.39-26.61,59.96-36.05,77.2-36.05c8.93,0,14.97,2.56,16.57,7.03c5.47,15.3-12.39,26.52-29.66,37.37
				c-10.81,6.79-21.98,13.8-27.63,21.76c-46.51,65.57-23.88,131.08-1.99,194.44c7.26,21.03,14.13,40.88,18.59,60.77
				c17.28,77.08-65.7,175.66-89.37,184.36L931.22,622.57z M875.26,557.9c10.27,9.58,51.62,57.05,56.47,62.62
				c12.39-5.06,38.19-31.58,59.12-66.55c14.81-24.75,38.22-72.67,28.6-115.59c-4.44-19.79-11.28-39.6-18.53-60.58
				c-22.03-63.77-44.82-129.72,2.21-196.01c5.85-8.24,17.17-15.35,28.12-22.23c17.46-10.97,33.96-21.32,28.95-35.31
				c-1.34-3.74-6.78-5.88-14.94-5.88c-16.94,0-47.01,9.32-76.04,35.6c-23.11,20.92-52.55,59.58-61.57,124.9
				c-4.51,32.69,7.4,66.6,18.93,99.4c11.03,31.39,22.43,63.84,18.65,94.25C941.04,506.31,918.15,534.25,875.26,557.9z"/>
		</g>
	</g>
	<g>
		<path class="st0" d="M273.58,513.25c-5.31,89.67-61.62,94.87-29.13,192.77c3.03-7.8,13.14-20.36,13.14-20.36
			s-18.77,46.5,21.66,78.55c-0.87-8.66,3.18-20.22,3.18-20.22s4.91,48.81,88.95,72.49c16.17,6.06,108.01,35.52,108.01,35.52
			c129.38,41.3,190.61,26.86,271.04-35.52c94.87,64.98,150.03,54.29,163.03,74.22c13,19.93,19.78,80.86,15.45,113.79
			c6.5,11.26,105.89,59.56,129.72,44.4c-11.89-62.59-2.36-156.6-29.22-184.75s-82.74-64.98-83.9-115.81
			c-1.15-50.83,12.01-150.48-59.49-197.54c-113.21-74.51-183.67,9.24-294-22.81c-40.05-11.64-57.65-58.3-60.07-107.59
			C512.88,313.4,273.58,513.25,273.58,513.25z"/>
		<path class="st1" d="M922.83,882.33c-5.8-6.59-14.77-9.35-23.36-12.96c-28.39-11.92-60.58-24.49-90.13-39.46
			c-77.02-39.02-142.81-100.07-138.19-192.49c-4.99,69.89,14.02,142.96,76.92,180.88c0.78-0.6,1.57-1.2,2.35-1.81
			c94.87,64.98,150.03,54.29,163.03,74.22c13,19.93,19.78,80.86,15.45,113.79c1.37,2.38,6.89,6.4,14.95,11.14
			c-0.22-32.58,0.1-71.35-8.2-106.07C932.74,897.37,931.19,891.82,922.83,882.33z"/>
		<path class="st2" d="M674.61,739.66c-29.46,60.65-98.77,83.17-162.88,65.85c-22.53-5.2-43.32-5.2-65.85-8.66
			c-6.93,0-15.59-1.73-22.53-5.2c-1.48,13.34-2.97,27-5.13,40.57c29.44,9.62,61.16,19.8,61.16,19.8
			c125.15,39.95,186.53,27.74,263.21-29.56C712.37,802.21,679.12,778.77,674.61,739.66z"/>
		<path class="st2" d="M427.69,471.22c0,5.2-3.18,23.26-3.18,23.26s48.81,1.92,80.57-44.75c29.52,91.06,107.56,108,151.92,85.67
			c-20.42,0.94-41.82-0.68-64.99-7.41c-40.05-11.64-57.65-58.3-60.07-107.59c-19.06-106.99-258.37,92.86-258.37,92.86
			c-0.29,4.93-0.75,9.59-1.32,14.04C349.69,560.74,376.57,489.82,427.69,471.22z"/>
		<path class="st2" d="M1029.4,864.14c-26.86-28.16-82.74-64.98-83.9-115.81c-1.15-50.83,12.01-150.48-59.49-197.54
			c-23.33-15.36-44.84-23.98-65.26-28.29c41.62,25.34,78.34,63.91,87.92,114.15c8.6,45.07-16.67,90.72-1.57,133.62
			c8.01,22.77,93.16,97.53,110.42,143.19c14.77,39.08,2.78,106.7,1.92,136.37c29.89,12.56,26.61,7.05,39.18-0.94
			C1046.73,986.3,1056.26,892.3,1029.4,864.14z"/>
		<g>
			<path class="st3" d="M908.97,765.8c-13.12,9.84-45.49,22.53-48.37,59.35c25.75-34.01,73.15-53.71,87.56-59.11
				c-1.57-5.71-2.52-11.6-2.66-17.71c-0.12-5.46-0.08-11.48,0-17.93C932.65,737.41,919.64,757.8,908.97,765.8z"/>
			<path class="st4" d="M945.5,748.33c-0.12-5.46-0.08-11.48,0-17.93c-12.85,7.01-25.87,27.4-36.53,35.4
				c-1.79,1.34-2.82,1.96-2.82,1.96l7.82,14.08c16.69-9.7,27.04-13.12,34.18-15.8C946.59,760.33,945.64,754.44,945.5,748.33z"/>
		</g>
		<g>
			<path class="st3" d="M881.97,698.95c-29.46,19.06-72.63,43.25-80,91.66c15.98-31.07,114.61-85.91,143.61-101.54
				c-0.33-12.31-1.17-25.13-3-37.93C934.16,669.47,908.07,682.06,881.97,698.95z"/>
			<path class="st4" d="M942.58,651.15c-6.2,13.49-15.56,19.87-33.87,31.16c-1.06,9.84-3.3,20.28-4.42,30.02
				c19.65-11.69,31.57-18.01,41.3-23.25C945.25,676.76,944.41,663.95,942.58,651.15z"/>
		</g>
		<g>
			<path class="st3" d="M702.47,768.58c5.29,7.39,11.39,14.76,18.38,22.03c11.63-42.59,82.74-77.3,88.49-108.2
				C785.35,699.03,730.73,702.51,702.47,768.58z"/>
		</g>
		<g>
			<path class="st5" d="M709.89,753.67c-2.63,4.59-5.12,9.53-7.42,14.91c5.29,7.39,11.39,14.76,18.38,22.03
				c1.53-5.61,4.12-11.08,7.44-16.42L709.89,753.67z"/>
		</g>
		<g>
			<path class="st3" d="M849.62,784.72c-26.61,1.07-56.59,30.65-70.36,50.01c8.68,5.03,16.96,9.42,24.83,13.26
				C810.74,827.49,836.82,796.72,849.62,784.72z"/>
		</g>
		<g>
			<path class="st5" d="M791.16,820.16c-4.67,5.08-8.72,10.1-11.9,14.57c8.68,5.03,16.96,9.42,24.83,13.26
				c1.65-5.07,4.49-10.77,8.02-16.66L791.16,820.16z"/>
		</g>
		<g>
			<path class="st3" d="M856.75,868.73c12.29,3.77,22.7,6.33,31.22,8.73c11.7-12.87,24.98-38.09,26.19-47.55
				C899.13,847.5,869.72,862.61,856.75,868.73z"/>
		</g>
		<g>
			<path class="st5" d="M874.95,859.34c-7.19,4.03-13.69,7.26-18.2,9.39c12.29,3.77,22.7,6.33,31.22,8.73
				c2.52-2.78,5.12-6.13,7.65-9.78L874.95,859.34z"/>
		</g>
		<g>
			<path class="st3" d="M985.86,912.87c-22.87,4.4-52.9-1.39-64.89-4.13c2.16,7.38,3.98,15.96,5.42,25.05
				C969.9,934.24,981.63,918.37,985.86,912.87z"/>
		</g>
		<g>
			<path class="st5" d="M920.97,908.75c2.16,7.38,3.98,15.96,5.42,25.05c5.21,0.05,9.21-0.07,13.55-0.44
				c-1.32-7.22-2.1-14.47-3.79-21.65C929.91,910.68,924.61,909.58,920.97,908.75z"/>
		</g>
		<g>
			<path class="st3" d="M983.05,954.03c5.25,14.3,53.28,26.48,68.94,30.09c-0.6-10.55-1.14-21.12-1.77-31.42
				C1035.55,950.57,1004.13,960.41,983.05,954.03z"/>
		</g>
		<g>
			<path class="st3" d="M983.05,894.9c9.28,19.06,47.88,24.36,64.51,25.77c-1.32-11.55-3.1-22.19-5.65-31.37
				C1016.49,899.51,997.3,896.14,983.05,894.9z"/>
		</g>
		<g>
			<path class="st3" d="M1000.41,837.01c-6.34-5.82-12.8-11.94-18.97-18.4c-12.62,12.54-32.46,24.19-48.79,29.94
				C949.87,854.88,987.84,841.73,1000.41,837.01z"/>
		</g>
		<g>
			<path class="st4" d="M1050.22,952.7c-6.95-1.01-14.02,0.23-25.62,1.59c-0.64,4.05,0.74,20.17-0.21,22.46
				c14.26,5.05,20,5.61,27.6,7.36C1051.39,973.57,1050.85,963.01,1050.22,952.7z"/>
		</g>
		<g>
			<path class="st4" d="M1041.91,889.3c-14.69,5.9-25.85,6.88-33.01,7.06c4.34,5.89,6.53,13.15,9.41,19.62
				c12.24,3.43,21.41,4.02,29.25,4.69C1046.24,909.12,1044.46,898.48,1041.91,889.3z"/>
		</g>
		<g>
			<path class="st4" d="M981.44,818.61c-9.31,9.24-17.09,13.22-21.11,16.34c1.83,2.36,8.17,9.19,10.13,11.44
				c12.13-2.05,21.03-6.04,29.95-9.39C994.07,831.19,987.61,825.07,981.44,818.61z"/>
		</g>
		<g>
			<path class="st3" d="M653.28,535.52c-5.69,0.17-11.46,0.14-17.32-0.16c1.83,45.13-23.56,68.66-40.62,127.84
				c-6.7,23.25-7.22,46.25-5.16,66.19l14.4,0.26c2.67-36.12,11.28-66.41,22.38-88.62C642.62,609.73,658.51,573.32,653.28,535.52z"/>
		</g>
		<g>
			<path class="st4" d="M653.28,535.52c-5.69,0.17-11.46,0.14-17.32-0.16c0.07,1.65,0,5.54,0,7.13c5.84-1.24,15.73-3.73,17.52-5.45
				C653.44,536.75,653.32,535.83,653.28,535.52z"/>
		</g>
		<path class="st3" d="M826.52,700.97c32.8-63.05,85.65-86.45,104.96-93.17c-4.06-10.19-9.25-19.94-15.87-28.94
			C862.45,594.26,822.73,665.63,826.52,700.97z"/>
		<path class="st4" d="M915.61,578.85c-10.53,3.05-15.5,4.8-24.74,11.53c4.77,9.6,10.52,19.22,13.55,29.73
			c14.2-8.73,19.67-9.75,27.06-12.32C927.42,597.61,922.23,587.86,915.61,578.85z"/>
		<g>
			<path class="st3" d="M718.51,699.81c6.35-24.84,37.39-62.96,87.58-99.92c23.79-17.52,61-29.48,64.96-58.17
				c-14.22-7.9-27.78-13.35-40.87-16.93C821.24,578.67,705.46,631.31,718.51,699.81z"/>
		</g>
		<g>
			<path class="st4" d="M830.18,524.79c-0.21,1.24-0.38,2.04-0.69,3.28c13.88,7.38,25.13,17.29,35.5,29.11
				c3.75-5.03,5.17-8.98,6.06-15.46C856.82,533.82,843.26,528.37,830.18,524.79z"/>
		</g>
		<g>
			<path class="st3" d="M698.87,659.38c-2.97-46.77,20.37-109.92,30.31-134.4c-12.87,2.3-25.77,4.86-38.92,6.88
				C678.24,564.68,679.9,625.66,698.87,659.38z"/>
		</g>
		<g>
			<path class="st3" d="M530.44,622.23c-63.07,37.16-63.33,90.73-50.33,117.15c2.6-20.79,17.48-67.4,59.35-94.09
				c63.02-40.18,75.3-80.07,76.67-111.96c-7.07-1.1-14.29-2.64-21.69-4.68C593.5,556.68,559.65,605.02,530.44,622.23z"/>
		</g>
		<g>
			<path class="st4" d="M594.43,528.65c-0.08,2.33-1.57,9.75-2.08,12.33c6.24,1.62,21.74,3.15,22.86,3.26
				c0.25-2.53,0.81-8.47,0.91-10.91C609.05,532.23,601.83,530.69,594.43,528.65z"/>
		</g>
		<g>
			<path class="st3" d="M463.21,579.96c-50.81,24.62-100.79,52.56-112.19,109.88c29.01-31.03,60.77-62.1,125.62-82.59
				c36.51-11.54,85.52-36.48,104.95-83.33c-8.89-4.39-16.45-10.74-22.8-18.56C525.49,563.55,513.84,555.43,463.21,579.96z"/>
		</g>
		<g>
			<path class="st4" d="M558.79,505.37c-3.29,5.75-5.59,9.62-8.52,14.17c3.18,2.33,19.96,14.12,25.86,15.82
				c1.3-2.54,4.35-8.76,5.46-11.44C572.69,519.54,565.13,513.18,558.79,505.37z"/>
		</g>
		<g>
			<path class="st3" d="M533.52,438.19c-16.83,32.71-42.35,62.12-74.96,69.43c-24.34,5.46-47.7,12.1-67.91,22.1l5.03,24.9
				c13.99-4.73,29.93-9.27,47.61-13.35c48.46-11.18,81.73-38.45,97.68-69.73C537.47,461.11,535.02,449.85,533.52,438.19z"/>
		</g>
		<g>
			<path class="st4" d="M533.52,438.19c-4.55,8.84-14.7,23.95-20.48,31.93c3.54,9.02,9.53,14.5,13.28,23.31
				c4.94-6.18,11.25-15.23,14.65-21.89C537.47,461.11,535.02,449.85,533.52,438.19z"/>
		</g>
		<path class="st6" d="M1045.42,1052.68c-36.05,0-111.8-38.25-117.27-47.75l-0.15-0.26l0.04-0.29c4.29-32.6-2.37-93.35-15.32-113.2
			c-4.91-7.54-16.52-10.65-34.08-15.36c-28.15-7.56-70.65-18.96-128.19-58.26c-54.56,42.22-96.14,58.68-148.14,58.68
			c-34.02,0-73.17-7.44-123.19-23.4c-0.92-0.3-92.04-29.53-108.05-35.54c-70.72-19.92-85.81-58.2-88.81-69.8
			c-1.12,4-2.71,10.99-2.15,16.63l0.2,2.04l-1.6-1.27c-32.88-26.07-26.93-61.98-23.44-74.79c-3.21,4.31-8.1,11.3-10.01,16.23
			l-0.87,2.24l-0.76-2.29c-19.39-58.42-7.25-84.18,6.79-114.01c9.44-20.06,20.15-42.79,22.3-79.09l0.02-0.37l0.29-0.24
			c1.49-1.25,149.99-124.56,221.71-124.56c21.45,0,34.25,10.84,38.06,32.22c1.35,27.42,9.82,92.48,59.46,106.91
			c17.66,5.13,35.41,7.62,54.28,7.62c24.78,0,48.24-4.33,70.92-8.52c21.91-4.05,44.56-8.23,67.68-8.23
			c35.92,0,68.13,10.19,101.36,32.05c61.92,40.75,60.75,121.19,59.97,174.43c-0.13,8.61-0.25,16.74-0.08,23.82
			c0.9,39.42,35.26,70.56,62.87,95.57c7.68,6.96,14.93,13.53,20.78,19.66c17.24,18.07,19.63,62.05,22.17,108.61
			c1.44,26.4,2.93,53.7,7.27,76.58l0.11,0.58l-0.5,0.32C1055.89,1051.65,1051.3,1052.68,1045.42,1052.68z M929.8,1004.3
			c6.47,9.71,80.28,46.65,115.63,46.65c5.23,0,9.34-0.84,12.23-2.48c-4.28-22.87-5.76-49.99-7.19-76.22
			c-2.52-46.23-4.9-89.9-21.69-107.51c-5.81-6.09-13.04-12.64-20.69-19.57c-27.86-25.24-62.53-56.65-63.44-96.81
			c-0.16-7.11-0.04-15.26,0.08-23.88c0.77-52.85,1.94-132.72-59.19-172.95c-32.93-21.67-64.83-31.77-100.4-31.77
			c-22.95,0-44.52,3.98-67.36,8.2c-22.76,4.2-46.3,8.55-71.24,8.55c-19.03,0-36.94-2.52-54.76-7.69
			c-35.71-10.37-57.83-49.88-60.69-108.38c-3.63-20.32-15.86-30.68-36.34-30.68c-69.61,0-212.92,117.8-220.31,123.92
			c-2.22,36.41-12.96,59.22-22.44,79.35c-13.71,29.13-25.58,54.33-7.42,110.58c3.74-7.74,11.97-18.01,12.35-18.48l3.66-4.55
			l-2.18,5.42c-0.18,0.45-17.58,45.09,19.87,76.31c-0.19-8.39,3.18-18.14,3.34-18.59l1.28-3.67l0.4,3.87
			c0.05,0.48,5.91,48.52,88.32,71.74c16.04,6.01,107.12,35.24,108.04,35.53c49.84,15.91,88.82,23.32,122.66,23.32
			c51.74,0,93.11-16.46,147.58-58.7l0.5-0.39l0.52,0.36c57.55,39.42,100.05,50.82,128.18,58.37c17.95,4.82,29.81,8,35.09,16.09
			C927.26,910.3,934.04,971.35,929.8,1004.3z"/>
	</g>
	<g>
		<g>
			<path class="st7" d="M1054.08,1043.52c-62.6-3.68-68.86-40.32-84.17-39.46c-6.21-6.93-21.95-20.22-43.83-12.56
				c-23.68-11.55-30.2,9.33-43.1,30.32c-10.61,17.27-15.92,52.2,21.01,53.93c2.17,4.12,20.79,13.65,40.07,3.47
				c11.41,10.76,40.07,19.28,97.47-1.3C1058.3,1071.91,1063.65,1044.08,1054.08,1043.52z"/>
			<path class="st8" d="M926.22,991.07c-11.56,1.73-20.96,20.21-26.35,32.71c-5.42,12.56-8.44,41.66-19.06,42.24
				c4.21,5.17,14.17,9.19,23.18,9.75c-2.19-12.25-0.97-36.38,3.68-52.85C911.2,1010.4,917.09,999.46,926.22,991.07z"/>
			<path class="st8" d="M968.84,1003.77c-4.27-2.96-19.15,5.27-29.16,24.11c-11.45,21.55-2.95,46.35-33.17,50.36
				c5.98,4.24,21.96,8.66,37.55,0.98c-1.62-9.1-3.1-32.25,1.41-46.35C949.14,1021.36,956.08,1008.39,968.84,1003.77z"/>
			<path class="st8" d="M1054.08,1043.52c-14.48-0.85-24.56-3.48-33.83-6.99c1.91,27.85-39.8,52.29-76.29,37.35
				c0,0,0.69,4.71,0.67,5.99c15.45,12.56,45.44,16.5,96.89-1.95C1058.3,1071.91,1063.65,1044.08,1054.08,1043.52z"/>
			<path class="st9" d="M980.96,1091.34L980.96,1091.34c-21.33,0-32.24-6.75-37.05-11.07c-5.68,2.89-11.71,4.36-17.96,4.36
				c-11.43,0-20.3-5-22.47-8.03c-12.78-0.7-21.53-5.35-26.01-13.83c-6.57-12.43-2.14-30.18,4.76-41.4c1.93-3.15,3.73-6.3,5.46-9.34
				c7.54-13.25,14.06-24.7,26.18-24.7c3.71,0,7.72,1.06,12.26,3.23c4.35-1.48,8.72-2.24,13-2.24c15.75,0,26.85,10.15,31.14,14.85
				c0.05,0,0.11,0,0.16,0c5.37,0,9.55,4.12,15.32,9.82c11,10.86,27.63,27.26,68.37,29.66c2.87,0.17,4.83,2.46,5.38,6.29
				c1.28,8.88-5.13,25.29-17.69,29.79C1018.49,1087.1,998.02,1091.34,980.96,1091.34z M944.2,1078.17l0.45,0.43
				c4.36,4.11,14.88,11.01,36.31,11.01c16.86,0,37.13-4.21,60.27-12.5c11.76-4.22,17.75-19.59,16.56-27.91
				c-0.3-2.11-1.2-4.66-3.77-4.81c-41.39-2.44-58.3-19.12-69.48-30.15c-5.67-5.59-9.69-9.55-14.59-9.3l-0.42,0.02l-0.28-0.31
				c-3.93-4.38-14.72-14.58-30.12-14.58c-4.2,0-8.49,0.76-12.77,2.26l-0.34,0.12l-0.33-0.16c-4.43-2.16-8.3-3.21-11.83-3.21
				c-11.11,0-17.1,10.51-24.67,23.82c-1.74,3.06-3.54,6.22-5.49,9.39c-6.86,11.16-10.68,28.38-4.7,39.68
				c4.23,8,12.65,12.35,25.01,12.93l0.5,0.02l0.23,0.44c1.35,2.56,10.05,7.54,21.21,7.54c6.16,0,12.11-1.49,17.69-4.44
				L944.2,1078.17z"/>
		</g>
		<g>
			<path class="st9" d="M943.21,1079.4c-5.89-27.61,1.63-54.99,12.1-67.78c4.52-5.52,9.51-8.43,14.45-8.43c0.05,0,0.1,0,0.15,0
				l-0.02,1.73c-0.04,0-0.08,0-0.12,0c-4.41,0-8.94,2.69-13.12,7.79c-10.21,12.47-17.52,39.25-11.75,66.32L943.21,1079.4z"/>
		</g>
		<g>
			<path class="st9" d="M903.78,1076.83c-8.43-34.96,9.09-82.36,23.48-86.62l0.49,1.66c-13.85,4.1-30.53,50.35-22.29,84.56
				L903.78,1076.83z"/>
		</g>
	</g>
	<g>
		<path class="st6" d="M751.87,818.52c-54.91-39.57-74.17-86.89-80.66-119.62c-4.67-23.55-3.57-43.15-2.28-53.74
			c0.65-5.36,3.06-8.11,3.06-8.11c-0.06,0.26-6.04,26.46,0.94,61.59c6.44,32.4,25.53,79.26,79.95,118.47L751.87,818.52z"/>
	</g>
	<g>
		<g>
			<path class="st7" d="M679.93,726.44c-50.82-3.28-147.15,59.29-191.02,43.84c-11.26-4.04-100.21,29.17-125.05,29.88
				c-38.99-11.41-41.58-64.83-35.37-90.68C306.11,647.35,394.01,546,357.1,451.05c-46.27,31.1-83.52,62.2-83.52,62.2
				c-5.31,89.67-61.62,94.87-29.13,192.77c3.03-7.8,13.14-20.36,13.14-20.36s-18.77,46.5,21.66,78.55
				c-0.87-8.66,3.18-20.22,3.18-20.22s4.91,48.81,88.95,72.49c16.17,6.06,108.01,35.52,108.01,35.52
				c129.38,41.3,190.61,26.86,271.04-35.52c0.3,0.21,0.6,0.4,0.9,0.61l0.02-0.04C712.05,788.44,690.95,755.91,679.93,726.44z"/>
			<path class="st8" d="M682.61,733.16c-5.69,51.56-102.2,101.26-188,77.4c-27.72,6.93-48.01-8.5-80.63-21.98
				c-20.86,6.05-40.39,11.31-50.11,11.59c-24.69-5.62-30.61-26.4-37.11-52.05c-23.61-6.57-40.72-28.66-42.22-43.65
				c-10.4,13.86-15.04,30.58-15.04,30.58s-16.08-29.05-1.16-66.06c-24.03,9.53-24.68,34.66-23.9,37.04
				c3.03-7.8,13.14-20.36,13.14-20.36s-18.77,46.5,21.66,78.55c-0.87-8.66,3.18-20.22,3.18-20.22s4.91,48.81,88.95,72.49
				c16.17,6.06,108.01,35.52,108.01,35.52c129.38,41.3,190.61,26.86,271.04-35.52c0.3,0.21,0.6,0.4,0.9,0.61l0.02-0.04
				C715.01,790.6,694.24,760.8,682.61,733.16z"/>
			<path class="st8" d="M366.73,513.7c-1.12-17.32-0.03-38.74-9.32-62.65c-46.27,31.1-83.52,62.2-83.52,62.2
				c-0.29,4.93-1.05,5.8-1.62,10.25C306.63,548.77,358.16,522.57,366.73,513.7z"/>
			<path class="st9" d="M602.31,876.24c-34.02,0-73.17-7.44-123.19-23.4c-0.92-0.3-92.04-29.53-108.05-35.54
				c-70.72-19.92-85.81-58.2-88.81-69.8c-1.12,4-2.71,10.99-2.15,16.63l0.2,2.04l-1.6-1.27c-32.88-26.07-26.93-61.98-23.44-74.79
				c-3.21,4.31-8.1,11.3-10.01,16.23l-0.87,2.24l-0.76-2.29c-19.39-58.42-7.25-84.18,6.79-114.01c9.44-20.06,20.15-42.79,22.3-79.09
				l0.02-0.37l0.29-0.24c0.37-0.31,37.81-31.49,83.6-62.26l0.9-0.6l0.39,1.01c20.7,53.26,2.31,108.66-13.92,157.54
				C331.4,646.19,319.51,682,329.3,709.2l0.09,0.24l-0.06,0.25c-5.58,23.23-4.59,78,34.64,89.6c12.04-0.4,39.01-8.36,65.1-16.05
				c24.71-7.29,48.05-14.17,57.16-14.17c1.26,0,2.23,0.13,2.97,0.39c4.53,1.6,9.92,2.41,15.99,2.41c23.41,0,55.2-11.87,85.94-23.35
				c30.39-11.35,61.82-23.08,84.79-23.08c1.39,0,2.75,0.04,4.05,0.13l0.56,0.04l0.2,0.53c13.1,35.05,37.02,65.4,71.11,90.22
				l0.62,0.45l-0.84,1.5l-1.18-0.75C695.9,859.78,654.31,876.24,602.31,876.24z M282.89,740.05l0.4,3.87
				c0.05,0.48,5.91,48.52,88.32,71.74c16.04,6.01,107.12,35.24,108.04,35.53c49.84,15.91,88.82,23.32,122.66,23.32
				c51.47,0,92.69-16.29,146.75-58.06c-33.25-24.65-56.71-54.65-69.74-89.18c-1.1-0.06-2.23-0.09-3.38-0.09
				c-22.66,0-53.94,11.68-84.18,22.97c-30.89,11.53-62.83,23.46-86.55,23.46c-6.27,0-11.85-0.84-16.57-2.51
				c-0.54-0.19-1.34-0.29-2.39-0.29c-8.86,0-32.09,6.85-56.67,14.1c-26.29,7.75-53.48,15.77-65.68,16.12l-0.14,0l-0.13-0.04
				c-40.4-11.83-41.67-67.55-36.03-91.46c-9.84-27.73,2.11-63.72,14.76-101.81c16.03-48.29,34.19-102.98,14.34-155.35
				c-43.18,29.1-78.72,58.37-82.26,61.3c-2.22,36.41-12.96,59.22-22.44,79.35c-13.71,29.13-25.58,54.33-7.42,110.58
				c3.74-7.74,11.97-18.01,12.35-18.48l3.66-4.55l-2.18,5.42c-0.18,0.45-17.58,45.09,19.87,76.31c-0.19-8.39,3.18-18.14,3.34-18.59
				L282.89,740.05z"/>
		</g>
	</g>
	<path class="st3" d="M334.41,585.74c9.51-9.51,30.71-20.79,61.27-31.12l-5.03-24.9C365.81,541.99,345.71,559.31,334.41,585.74z"/>
	<path class="st3" d="M605.73,790.61c-2.33-21.69-2.55-42.11-1.15-60.95l-14.4-0.26C593.85,764.87,605.73,790.61,605.73,790.61z"/>
	<g>
		<path class="st6" d="M328.79,712.08l-1.64-0.57c2.83-8.16,7.24-15.27,11-20.4c3.84-5.23,8.27-7.22,8.27-7.22
			C346.3,684.02,334.37,695.98,328.79,712.08z"/>
	</g>
	<g>
		<g>
			<g>
				<path class="st0" d="M480.79,750.1l-111.27,14.85c-20.58,34.44-7.24,147.71-36.27,215.58c5.49,8.09,102.23,85.77,114.94,73.35
					c28.01-37.77,15.02-93.9,21.95-132.72C477.07,882.33,515.16,784.75,480.79,750.1z"/>
				<path class="st1" d="M364.44,777.02c-13.32,43.82-4.97,142.19-31.19,203.51c0.66,0.97,2.64,2.95,5.62,5.64
					c36.37-71.55,18.78-171.12,30.64-221.22C369.58,764.7,364.45,770.21,364.44,777.02z"/>
				<path class="st2" d="M480.79,750.1c21.93,62.49-32.85,111.57-42.36,156.87c-5.97,28.43,16.14,97.09-25.1,134.82
					c16.7,10.2,30.57,16.28,34.86,12.09c28.01-37.77,15.02-93.9,21.95-132.72c6.36-35.64,39.41-120.88,18.14-161.42
					C487.68,758.6,486.17,753.82,480.79,750.1z"/>
				<g>
					<g>
						<path class="st3" d="M398.66,886.23c9.97,19.67,46.36,18.15,72.06,31.92c1.38-6.81,3.53-15.11,6.01-24.38
							C462.95,892.11,436.73,899.64,398.66,886.23z"/>
					</g>
					<g>
						<path class="st3" d="M423.07,986.88c-43.9-12.5-63.67-36.08-79.62-38.62c-2.03,8.82-4.46,17.29-7.4,25.23
							C357.69,972.37,398.59,997.03,423.07,986.88z"/>
					</g>
					<g>
						<path class="st3" d="M349.82,910.57c-0.98,8.06-2.13,16.04-3.54,23.84c21.93,3.82,49.73-1.38,87.47,9.01
							C426.01,935.53,380.27,910.26,349.82,910.57z"/>
					</g>
					<g>
						<path class="st3" d="M456.93,861.76c-41.95-12.18-79.91-36.12-100.37-37.11c-0.76,9.7-1.39,20-2.07,30.63
							C393.5,845.93,440.22,868.28,456.93,861.76z"/>
					</g>
					<g>
						<path class="st3" d="M467.11,812.59c-22.74-20.46-36.22-16.98-46.93-20.22c-12.78-3.86-35.62-24.96-55.1-19.89
							c-2.72,7.45-4.63,16.87-6.07,27.71C372.24,799.99,414.19,800.47,467.11,812.59z"/>
					</g>
				</g>
				<g>
					<g>
						<path class="st4" d="M442.12,894.34c-1.7,4.45-2.81,7.85-3.69,12.63c10.05,2.64,23.27,6.35,32.29,11.18
							c1.38-6.81,3.53-15.11,6.01-24.38C469.74,892.93,455.42,894.38,442.12,894.34z"/>
					</g>
					<g>
						<path class="st5" d="M343.44,948.26c-2.03,8.82-4.46,17.29-7.4,25.23c2.38-0.12,5.5,0.35,8.3,0.77
							c2.86-7.61,5.74-15.14,7.83-22.96C349.43,950.01,345.93,948.65,343.44,948.26z"/>
					</g>
					<g>
						<path class="st5" d="M349.82,910.57c-0.98,8.06-2.13,16.04-3.54,23.84c2.77,0.48,6.71,0.91,9.68,1.15
							c1.67-8.03,2.91-16.1,4-24.27C356.79,910.87,352.76,910.54,349.82,910.57z"/>
					</g>
					<g>
						<path class="st5" d="M356.56,824.65c-0.76,9.7-1.39,20-2.07,30.63c2.9-0.7,6.39-1.28,9.36-1.65
							c0.28-9.33,0.49-18.44,0.59-27.74C361.82,825.28,358.78,824.76,356.56,824.65z"/>
					</g>
					<g>
						<path class="st5" d="M365.42,772.37c-2.39,7.14-5.08,17.85-6.4,27.82c1.38-0.02,4.28-0.01,6.26,0
							c0.81-7.56,1.84-22.4,2.79-28.28C368.07,771.91,365.82,772.28,365.42,772.37z"/>
					</g>
				</g>
				<path class="st6" d="M444.05,1056.09c-0.44,0-0.9-0.03-1.38-0.07c-24.93-2.51-105.91-68.77-110.14-75l-0.27-0.39l0.19-0.44
					c15.52-36.3,18.67-85.71,21.44-129.3c2.14-33.61,4.02-63.16,11.12-80.68c0.91-2.25,4.5-5.26,4.5-5.26
					c-9.42,15.77-11.49,48.33-13.89,86.04c-2.77,43.55-5.91,92.89-21.38,129.42c7.57,9.71,85.56,71.56,108.61,73.88
					c2.22,0.22,3.81-0.12,4.74-1.03c18.57-25.06,18.86-57.87,19.15-89.6c0.14-15.35,0.27-29.85,2.55-42.65
					c1.53-8.59,4.58-19.94,8.11-33.08c12.59-46.92,29.84-111.17,3.4-137.83c0,0,5.41,3.55,7.07,6.29
					c18.47,30.44,2.86,88.58-8.79,131.99c-3.52,13.1-6.55,24.41-8.07,32.93c-2.26,12.66-2.39,27.08-2.53,42.36
					c-0.27,30.52-0.58,65.11-19.58,90.72C447.73,1055.54,446.13,1056.09,444.05,1056.09z"/>
			</g>
			<g>
				<g>
					<path class="st7" d="M452.16,1045.65c-70.83-22.09-61.08-53.07-86.42-53.5c-11.26-14.51-33.5-19.13-50.03-5.2
						c-13.21-4.77-30.4,5.42-36.32,30.11c-5.92,24.69-8.63,39.1,21.7,47.65c2.27,1.95,10.61,12.89,39.31,8.23
						c14.22,13.57,66.97,8.92,98.12-7.58C448.19,1060.23,457.46,1047.3,452.16,1045.65z"/>
					<path class="st8" d="M365.85,991.29c-19.06-5.2-32.27,11.91-38.88,30.97c-5.08,14.64-5.74,46.03-25.88,42.45
						c8.12,7.91,18.38,10.76,37.91,7.87c-5.64-13.36-8.77-29.92-5.74-44.12C336.85,1011.59,351.38,993.81,365.85,991.29z"/>
					<path class="st8" d="M314.19,987.44c-6.82,1.58-15.29,12.5-18.63,25.5c-5.24,20.39-5.34,38.87-16.01,39.74
						c3.72,4.17,10.93,8.9,20.41,11.69C296.65,1038.85,294.13,1007.5,314.19,987.44z"/>
					<path class="st8" d="M452.16,1045.65c-50.34-15.7-59.98-35.89-70.44-46.41c14.49,18.25,24.26,35.55,13.47,52.57
						c-8.71,13.76-24.13,24.64-45.71,26.12c20.86,6.87,62.68,1.39,89.03-12.57C448.19,1060.23,457.46,1047.3,452.16,1045.65z"/>
					<path class="st9" d="M372.16,1081.76C372.16,1081.76,372.16,1081.76,372.16,1081.76c-15.05,0-26.4-2.8-32.04-7.89
						c-4.57,0.72-8.89,1.09-12.85,1.09c-16.83,0-23.57-6.53-26.1-8.98c-0.19-0.19-0.36-0.35-0.5-0.48
						c-31.62-8.99-27.83-24.77-22.11-48.63c5.29-22.05,19.17-31.91,30.58-31.91c2.19,0,4.34,0.35,6.4,1.03
						c6.58-5.41,14.38-8.27,22.57-8.27c10.84,0,21.3,5.07,28.08,13.59c10.47,0.32,15.17,5.85,21.64,13.47
						c9.16,10.78,23.01,27.08,64.61,40.06c1.25,0.39,2.01,1.33,2.13,2.65c0.45,4.81-7.59,14.4-15.63,18.65
						C421.01,1075.62,394.8,1081.76,372.16,1081.76z M340.69,1072.02l0.31,0.3c5.21,4.97,16.27,7.71,31.16,7.71h0
						c22.37,0,48.26-6.06,65.95-15.43c7.7-4.08,15.05-13.31,14.72-16.96c-0.06-0.63-0.33-0.97-0.92-1.15
						c-42.09-13.13-56.13-29.66-65.42-40.59c-6.49-7.65-10.78-12.7-20.76-12.87l-0.41-0.01l-0.25-0.33
						c-6.44-8.29-16.52-13.24-26.96-13.24c-7.93,0-15.48,2.83-21.83,8.18l-0.38,0.32l-0.47-0.17c-2-0.72-4.12-1.09-6.28-1.09
						c-10.73,0-23.83,9.46-28.9,30.58c-6.17,25.72-7.85,38.45,21.09,46.62l0.33,0.18c0.19,0.17,0.43,0.4,0.72,0.67
						c2.4,2.32,8.77,8.49,24.9,8.49c3.99,0,8.36-0.38,12.99-1.13L340.69,1072.02z"/>
				</g>
				<g>
					<path class="st9" d="M339.64,1073.36c-17.76-32.22-2.99-58.48,1.96-65.76c7.27-10.69,17.02-17.23,24.25-16.31l-0.22,1.72
						c-6.52-0.84-15.79,5.57-22.59,15.57c-4.81,7.07-19.17,32.59-1.88,63.95L339.64,1073.36z"/>
				</g>
				<g>
					<path class="st9" d="M300.25,1064.95c-11.07-38.99,4.37-73.88,16.46-79.89l0.77,1.55c-11.34,5.63-26.22,40.33-15.56,77.86
						L300.25,1064.95z"/>
				</g>
			</g>
		</g>
	</g>
	<g>
		<g>
			<g>
				<path class="st0" d="M466.1,106.76c44.11,12.35,101.78-47.92,169.87-18.82c-15.89,19.8-157.52,84.58-157.52,84.58L466.1,106.76z
					"/>
				<path class="st1" d="M466.1,106.76l1.38,7.37c29.09,15.78,103.25-36.87,151.23-31.78C558.11,68.64,506.43,118.04,466.1,106.76z"
					/>
				<path class="st6" d="M477.78,173.77l-12.82-68.24l1.39,0.39c9.42,2.64,20.34,2.12,34.36-1.63c8.84-2.36,18.01-5.71,27.71-9.26
					c10.53-3.85,21.41-7.82,32.78-10.86c18-4.81,45.37-9.74,75.12,2.97l1.04,0.44l-0.71,0.88
					c-15.84,19.74-152.05,82.18-157.84,84.83L477.78,173.77z M467.23,107.95l11.89,63.29c12.72-5.86,137.42-63.53,155.4-82.97
					c-28.81-11.91-55.33-7.12-72.85-2.43c-11.29,3.02-22.14,6.98-32.63,10.81c-9.75,3.56-18.95,6.92-27.87,9.31
					C487.49,109.62,476.66,110.26,467.23,107.95z"/>
			</g>
			<g>
				<path class="st10" d="M491.29,131.31c52.02,22.27,89.35-78.78,155.78-38.44c48.31,29.33,52.79,170.78-93.72,165.73
					C535.3,238.2,491.29,131.31,491.29,131.31z"/>
				<path class="st11" d="M663.72,109.87c2.86,13.69,2.92,27.51-2.84,40.09c-20.95,45.7-79.4,80.61-128.95,72.03
					c8.22,16.52,16,30.48,21.43,36.61C680.43,262.98,693.9,157.17,663.72,109.87z"/>
				<path class="st12" d="M615.04,250.85c-17.57,6.53-38.34,9.43-61.72,8.62l-0.37-0.01l-0.25-0.28
					c-17.94-20.28-60.41-123.16-62.21-127.53l-0.81-1.96l1.95,0.83c9.69,4.15,19.66,4.21,30.48,0.19c11.47-4.26,22.51-12.39,34.2-21
					c12.2-8.99,24.82-18.28,38.52-23.37c18.01-6.69,35.24-4.79,52.68,5.8c20.58,12.5,33.26,45.29,30.14,77.98
					C674.05,207.98,651.23,237.41,615.04,250.85z M553.76,257.75c23,0.75,43.41-2.11,60.68-8.53c35.54-13.2,57.96-42.1,61.5-79.28
					c3.06-32.06-9.27-64.16-29.32-76.33c-17.19-10.44-33.46-12.23-51.18-5.65c-13.48,5.01-25.99,14.23-38.1,23.14
					c-11.79,8.68-22.92,16.89-34.62,21.23c-10.54,3.92-20.33,4.1-29.84,0.55C498.87,147.27,537.19,238.55,553.76,257.75z"/>
			</g>
			<g>
				<path class="st13" d="M550.39,233.21c0,0,27.01,9.67,83.44-0.95c-4.76-2.85-14.71-7.24-14.71-7.24s37.32-11.09,44.07-36.47
					c-4.11,0.14-17.26,6.41-17.26,6.41s15.09-17.85,14.35-49.69c-4.37,2.55-12.56,11.6-12.56,11.6s11.96-34.17-8.18-59.35
					c-17.9,15.89-54.72,30.18-54.72,30.18s6.32-14.51,9.8-19.66c-33.03,13.5-39.95,40.1-39.95,40.1s-3.02-8.85-0.9-16.22
					c-13.48,8.82-16.56,33.49-31.85,37.94C523.38,172.08,550.39,233.21,550.39,233.21z"/>
				<path class="st14" d="M636.47,173.82c4.87-1.81,15.22-9.41,15.22-9.41s-5.45,21.4-23.31,39.88c5.48-0.19,14.08,0.58,14.08,0.58
					s-21.7,16.23-43.05,13.07c5.63,5.61,12.01,9.1,12.01,9.1s-48.12,1.73-67.59-8.67c3.81,8.58,6.58,14.85,6.58,14.85
					s27.01,9.67,83.44-0.95c-4.76-2.85-14.71-7.24-14.71-7.24s37.32-11.09,44.07-36.47c-4.11,0.14-17.26,6.41-17.26,6.41
					s15.09-17.85,14.35-49.69c-4.37,2.55-12.56,11.6-12.56,11.6s11.94-31.93-8.18-59.35C648.22,112.76,643.69,150.16,636.47,173.82z
					"/>
				<path class="st15" d="M636.23,232.69l-2.24,0.42c-56.02,10.55-83.62,1.01-83.89,0.92l-0.35-0.12l-0.15-0.34
					c-7.51-16.99-27.24-61.46-28.4-63.25l-0.63-0.98l1.12-0.32c0.37-0.11,0.73-0.23,1.08-0.36l0,0c7.39-2.75,11.72-10.6,16.3-18.9
					c3.92-7.12,7.98-14.48,14.23-18.57l1.95-1.28l-0.64,2.24c-1.33,4.63-0.53,9.93,0.17,13.04c2.81-7.22,12.7-26.99,39.52-37.95
					l2.65-1.08l-1.6,2.37c-2.64,3.9-7.02,13.45-8.86,17.58c7.86-3.21,37.27-15.72,52.49-29.23l0.68-0.61l0.57,0.71
					c16.42,20.54,11.72,47.23,9.32,56.68c2.8-2.91,7.34-7.41,10.3-9.13l1.27-0.74l0.03,1.47c0.57,24.78-8.49,41.36-12.6,47.55
					c2.18-0.98,5.23-2.3,8.03-3.34c3.1-1.15,5.25-1.73,6.57-1.78l1.17-0.04l-0.3,1.13c-5.48,20.63-30.39,31.89-40.85,35.77
					c-0.62,0.23-1.18,0.43-1.67,0.6c3.18,1.44,9.29,4.29,12.77,6.38L636.23,232.69z M551.03,232.51c3.27,1.03,29.69,8.49,80.3-0.67
					c-5.01-2.7-12.47-6-12.56-6.03l-2.16-0.95l2.26-0.67c0.01,0,1.43-0.43,3.7-1.27c9.98-3.71,33.47-14.28,39.41-33.33
					c-0.99,0.21-2.5,0.64-4.8,1.5c-5.02,1.86-10.83,4.63-10.89,4.66l-3.62,1.73l2.59-3.07c0.15-0.17,14.37-17.4,14.17-47.54
					c-4.37,3.19-11,10.5-11.08,10.58l-2.87,3.17l1.41-4.04c0.12-0.33,11.34-33.37-7.48-57.81c-18.05,15.57-53.92,29.59-54.29,29.73
					l-1.94,0.75l0.83-1.91c0.23-0.52,4.93-11.29,8.43-17.45c-30.14,13.47-36.88,38.19-36.95,38.45l-0.73,2.8l-0.93-2.73
					c-0.11-0.33-2.52-7.51-1.42-14.44c-4.91,4.04-8.43,10.42-11.85,16.62c-4.53,8.22-9.22,16.72-17.22,19.69
					c0,0.07-0.14,0.05-0.21,0.08C527,178.18,548.75,227.36,551.03,232.51z"/>
			</g>
			<g>
				<path class="st3" d="M544.33,210.97c0,0,28.36,15.5,63.78-0.27c-4.67-3.04-16.12-6.49-16.12-6.49s30.08,0.54,39.9-41.47
					c-7.75,5.26-16.64,7.03-16.64,7.03s15.56-25.3,14.44-40.75c-20.35,19.46-41.87,27.33-41.87,27.33s3.32-5.05,7.52-14.58
					c-42.94,34.62-64.37,27.6-67.42,30.93C528.52,174.33,544.33,210.97,544.33,210.97z"/>
				<path class="st16" d="M580.06,164.39c0,0-2.66,7.57-7.36,13.17c18.11-2.26,37.59-16.37,37.59-16.37s-3.66,11.93-13.54,20.15
					c10.28-0.74,27.81-8.48,35.15-18.6c-7.25,4.36-16.64,7.03-16.64,7.03s15.56-25.3,14.44-40.75
					c-20.35,19.46-41.87,27.33-41.87,27.33s3.32-5.05,7.52-14.58c-42.94,34.62-64.37,27.6-67.42,30.93
					c0.2,0.54,3.67,9.49,6.06,15.08C550.17,190.62,580.06,164.39,580.06,164.39z"/>
				<path class="st16" d="M603.37,213.57L603.37,213.57c-33.02,12.26-59.2-1.69-59.46-1.83l-0.26-0.14l-0.12-0.27
					c-0.65-1.5-15.82-36.68-16.42-38.31l-0.18-0.5l0.36-0.39c0.9-0.98,2.77-1.24,5.98-1.61c4.46-0.5,11.21-1.26,20.72-4.79
					c12.65-4.7,26.38-12.98,40.82-24.62l2.77-2.24l-1.44,3.26c-2.61,5.91-4.86,10.09-6.22,12.44c6.15-2.64,23.03-10.73,39.18-26.17
					l1.33-1.27l0.13,1.84c0.96,13.34-9.97,33.39-13.51,39.48c1.16-0.31,2.75-0.79,4.57-1.47c3.68-1.36,6.97-3.03,9.79-4.94
					l1.84-1.25l-0.51,2.16c-6.08,26.01-19.79,36.09-30.22,39.96c-2.44,0.91-4.62,1.44-6.35,1.74c3.8,1.29,9.41,3.37,12.41,5.32
					l1.34,0.87l-1.46,0.65C606.79,212.24,605.07,212.94,603.37,213.57z M545,210.35c2.76,1.39,27.25,12.93,57.77,1.6c0,0,0,0,0,0
					c1.14-0.42,2.29-0.88,3.43-1.36c-5.1-2.71-14.35-5.52-14.46-5.55l-5.94-1.79l6.2,0.09c0.04,0,4.25,0.04,9.91-2.06
					c9.75-3.62,22.49-12.93,28.62-36.64c-2.49,1.5-5.28,2.83-8.31,3.96c-3.87,1.44-6.68,2-6.8,2.03l-1.95,0.39l1.04-1.69
					c0.15-0.24,14.17-23.24,14.37-38.35c-19.62,18.21-39.87,25.86-40.74,26.18l-2.48,0.92l1.43-2.2c0.03-0.04,2.57-3.94,5.97-11.19
					c-13.55,10.59-26.49,18.2-38.48,22.66c-9.71,3.6-16.58,4.38-21.13,4.89c-2.06,0.23-3.67,0.41-4.47,0.78
					C530.98,177.82,543.61,207.13,545,210.35z"/>
			</g>
		</g>
		<g>
			<g>
				<path class="st0" d="M133.54,43.47c51.97-2.21,99.01,38.35,166.81,39.28c-16.1,8.46-62.55,70.85-62.55,70.85L133.54,43.47z"/>
				<path class="st1" d="M248.61,84.88c-0.19-0.04-0.39-0.08-0.58-0.12C248.24,84.84,248.43,84.87,248.61,84.88z"/>
				<path class="st2" d="M291.98,89.18c3.24-2.99,6.1-5.24,8.36-6.43C234.4,81.85,188.1,43.47,137.79,43.4
					C174.18,46.34,251.26,100.73,291.98,89.18z"/>
				<path class="st6" d="M237.88,154.95L131.6,42.69l1.9-0.08c20.19-0.86,39.16,4.67,56.66,10.77c6.17,2.15,12.27,4.43,18.73,6.85
					c6.49,2.43,13.21,4.93,20.02,7.31c19.74,6.88,43.67,13.97,71.44,14.35l3.41,0.05l-3.02,1.59c-15.74,8.27-61.79,69.98-62.26,70.6
					L237.88,154.95z M135.49,44.28l102.23,107.98c5.49-7.33,42.87-56.84,59.7-68.71c-26.78-0.82-49.9-7.7-69.08-14.38
					c-6.84-2.38-13.56-4.89-20.06-7.33c-6.45-2.41-12.54-4.69-18.7-6.83C172.81,49.16,154.68,43.85,135.49,44.28z"/>
			</g>
			<g>
				<path class="st10" d="M248.43,108.64c-44.62-8.85-85.48-89.77-140-57.7c-51.55,30.33-56.94,124.57,38.89,171.09
					C210.88,229.95,248.43,108.64,248.43,108.64z"/>
				<path class="st11" d="M97.72,58.74c-41.07,36.3-39.1,120.23,49.6,163.3c11.15,1.39,21.5-1.21,30.99-6.43
					c-33.21-16.68-63.33-39.76-79.36-72.93C87.37,120.8,76.1,95.09,97.72,58.74z"/>
				<path class="st12" d="M147.07,222.88l-0.13-0.06c-46.56-22.61-74.21-59.13-75.85-100.21c-1.22-30.55,12.92-58.3,36.9-72.41
					c14.17-8.34,28.5-9.8,43.82-4.45c16.65,5.8,32.28,18.83,47.39,31.43c14.71,12.26,28.61,23.85,43,28.86l0.01,0
					c2.16,0.75,4.31,1.34,6.39,1.76l0.94,0.19l-0.28,0.92c-0.09,0.3-9.62,30.76-26.8,59.85c-22.87,38.71-48.88,57.43-75.24,54.15
					L147.07,222.88z M151.24,47.38c-14.81-5.16-28.67-3.75-42.37,4.31c-23.43,13.79-37.24,40.93-36.05,70.84
					c1.61,40.38,28.85,76.33,74.74,98.66c59.16,7.19,96.11-100.82,99.74-111.9c-1.86-0.41-3.76-0.96-5.67-1.62l-0.01,0
					c-14.68-5.12-28.7-16.8-43.53-29.17C183.1,66,167.6,53.08,151.24,47.38z"/>
			</g>
			<g>
				<path class="st13" d="M162.85,215.95c0,0-60.11-29.36-66.63-60.23c6.74,3.04,11.77,2.42,11.77,2.42s-24.33-34.17-15.47-55.63
					c5.54,10.42,13.88,16.79,13.88,16.79s-14.55-37.44,5.05-63.18c10.36,9.11,29.34,13.55,29.34,13.55s-0.42-5.92-4.86-12.05
					c24.19,1.02,51.71,31.94,51.71,31.94s0.77-9.66-2.47-14.85c14.51,9.26,47.65,54.21,48,63.74
					C227.32,149.95,169.9,216.12,162.85,215.95z"/>
				<path class="st14" d="M106.16,129.83c4.72,1.8,14.42,7.93,14.42,7.93s-19.36-46.23-8.6-81.18c-0.18-0.15-0.36-0.3-0.54-0.46
					c-19.6,25.74-5.05,63.18-5.05,63.18s-8.33-6.37-13.88-16.79c-8.86,21.46,15.47,55.63,15.47,55.63s-5.03,0.62-11.77-2.42
					c6.52,30.87,66.63,60.23,66.63,60.23c2.2,0.05,9.28-6.34,18.17-15.5C155.58,189.58,107.65,141.36,106.16,129.83z"/>
				<path class="st15" d="M162.64,216.82l-0.17-0.08c-2.47-1.21-60.56-29.91-67.09-60.83l-0.35-1.67l1.56,0.7
					c0.79,0.36,1.6,0.68,2.4,0.96c3.2,1.12,5.84,1.39,7.39,1.43c-4.44-6.61-22.7-35.64-14.66-55.13l0.7-1.7l0.86,1.62
					c3.6,6.76,8.44,11.83,11.28,14.47c-2.95-9.53-10.22-39.42,6.19-60.97l0.56-0.74l0.7,0.61c5.73,5.04,14.21,8.64,20.31,10.77
					c3.23,1.13,5.92,1.89,7.41,2.28c-0.37-2-1.46-6.16-4.52-10.39l-1.05-1.45l1.79,0.08c3.47,0.15,7.21,0.91,11.11,2.27
					c17.64,6.15,34.79,23.19,39.77,28.42c0.03-3.05-0.24-8.79-2.41-12.27l-2.03-3.25l3.23,2.06c14.1,8.99,48.02,54.16,48.39,64.43
					l0.01,0.22l-0.1,0.2c-5.53,10.88-63.43,78.15-71.11,77.97L162.64,216.82z M97.47,157.18c7.85,28.65,61.86,56.05,65.57,57.9
					c7.06-0.88,62.45-63.93,69.25-76.81c-0.78-8.79-29.59-48.74-45-60.96c1.74,5.33,1.24,11.98,1.21,12.32l-0.16,2.02l-1.35-1.52
					c-0.2-0.22-20.07-22.36-40.49-29.48c-3.09-1.08-6.06-1.76-8.86-2.05c3.59,5.69,3.99,10.77,4.01,11l0.08,1.17l-1.15-0.27
					c-0.04-0.01-3.81-0.9-8.82-2.65c-6.01-2.09-14.27-5.59-20.18-10.49c-18.26,25.04-4.52,61.24-4.38,61.6l1.12,2.87l-2.45-1.87
					c-0.33-0.25-7.68-5.93-13.18-15.4c-6.64,20.85,15.78,52.72,16.02,53.05l0.84,1.19L108.1,159c-0.16,0.02-4.1,0.47-9.69-1.48
					C98.1,157.42,97.78,157.3,97.47,157.18z"/>
			</g>
			<g>
				<path class="st3" d="M169.91,198.99c-22.76-9.93-29.86-22.03-46.88-36.83c6.84-2.51,19.04,0.21,19.04,0.21
					s-24.55-21.27-21.15-36.29c6.99,3.2,14.05,7.06,14.05,7.06s-23.46-32.29-12.42-53.42c14.58,22.21,34.25,29.83,34.25,29.83
					s-3.27-11.23-1.35-15c17.23,22.52,49.78,45.18,58.68,55.17C210.18,154.54,169.91,198.99,169.91,198.99z"/>
				<path class="st16" d="M162.12,122.48c0,0,23.98,30.42,46.24,37.46c5.66-6.31,4.59-8.78,5.78-10.22
					c-8.91-9.99-41.45-32.65-58.68-55.17c-1.92,3.76,1.35,15,1.35,15s-16.73-6.51-34.1-28.86c-4.25,21.3,25.52,49.73,40.89,60.26
					C159.37,130.08,162.12,122.48,162.12,122.48z"/>
				<path class="st16" d="M170.13,200.04l-0.57-0.25c-16.38-7.15-24.7-15.38-34.34-24.92c-3.89-3.84-7.9-7.82-12.76-12.05
					l-1.11-0.96l1.38-0.51c4.94-1.81,12.39-1.03,16.52-0.37c-6.09-5.77-22.06-22.33-19.17-35.08l0.24-1.04l0.97,0.44
					c4.11,1.88,8.29,4.01,11.01,5.44c-5.51-8.5-19.84-33.55-10.51-51.41l0.68-1.31l0.81,1.23c11.84,18.04,27.24,26.42,32.22,28.78
					c-0.87-3.45-2.41-10.72-0.81-13.86l0.62-1.22l0.83,1.09c10.99,14.36,27.98,28.57,41.63,39.98c7.39,6.18,13.77,11.51,17.01,15.14
					l0.49,0.55l-0.47,0.57c-3.94,4.77-42.62,47.48-44.27,49.29L170.13,200.04z M124.78,162.54c4.38,3.88,8.08,7.54,11.66,11.09
					c9.4,9.3,17.53,17.35,33.24,24.32c4.15-4.59,37.71-41.65,43.31-48.2c-3.29-3.52-9.36-8.59-16.32-14.41
					c-13.3-11.11-29.74-24.86-40.86-38.92c-0.51,3.61,1.07,10.27,1.83,12.89l0.49,1.68l-1.64-0.63c-0.2-0.08-19.34-7.68-33.82-28.9
					c-9.04,20.44,12.77,50.86,13,51.17l2.26,3.11l-3.38-1.85c-0.07-0.04-6.44-3.51-12.99-6.56c-1.91,14.3,20.82,34.18,21.06,34.38
					l2.59,2.25l-3.35-0.75C141.77,163.2,131.46,160.94,124.78,162.54z"/>
			</g>
		</g>
		<g>
			<path class="st0" d="M340.18,53.91C179.9,27.48,178.04,159.93,163.01,198.59c-18.19,46.79-70.64,74.08-70.41,125.19
				c8.66-7.8,22.98-19.49,22.98-19.49s-20,54.44,17.83,85.34c1.15-5.78,5.49-23.87,5.49-23.87c11.12,42.2,45.34,61.41,67.29,71.52
				c-13.72,86.72,38.41,82.31,60.36,85.48c21.95,3.18,71,15.88,97.47-34.37c34.44-28.16,89.89-42.45,89.89-42.45
				s-5.2,12.78-8.23,17.76c47.22-5.85,69.53-52.2,69.53-52.2s-0.22,18.19-2.82,27.72c38.99-19.93,42.24-57.4,42.24-57.4
				s4.87,8.34,4.77,19.06c53.72-58.48-5.5-119.74-6.07-172.41C552.88,188.2,563.71,42.21,340.18,53.91z"/>
			<path class="st1" d="M328.34,63.64c27-6.68,94.15-2.55,140.06,7.26c-30.49-12.86-71.9-19.94-128.22-17
				c-92.06-15.18-131.85,22.06-151.9,63.83C191.56,116.06,234.92,44.97,328.34,63.64z"/>
			<path class="st2" d="M553.32,228.49c-0.32-29.28,5.29-114.37-77.4-154.2c72.21,76.72,35.86,100.25,46.4,163.18
				c3.61,21.56,16.08,58.7,24.65,77.88c9.16-8.76,15.31-12.78,21.75-24.65C562.28,272.83,553.49,245.01,553.32,228.49z"/>
			<path class="st7" d="M569.31,289.82c-55.27,81.57-165.97,67.05-232.59,32.24c-6.93-6.93-17.33-10.4-25.99-13.86
				c-32.92-15.6-69.31,3.47-103.97-12.13c-20.79-8.66-15.6,1.67-39.85-3.52c-23.83,10.46-48.1-0.65-54.3-22.21
				C101.12,286.15,92.5,303,92.6,323.79c8.66-7.8,22.98-19.49,22.98-19.49s-20,54.44,17.83,85.34c1.15-5.78,5.49-23.87,5.49-23.87
				c11.12,42.2,45.34,61.41,67.29,71.52c-13.72,86.72,38.41,82.31,60.36,85.48c21.95,3.18,71,15.88,97.47-34.37
				c34.44-28.16,89.89-42.45,89.89-42.45s-5.2,12.78-8.23,17.76c47.22-5.85,69.53-52.2,69.53-52.2s-0.22,18.19-2.82,27.72
				c38.99-19.93,42.24-57.4,42.24-57.4s4.87,8.34,4.77,19.06C593.25,364.03,582.22,326.05,569.31,289.82z"/>
			<path class="st8" d="M231.02,412.16c-45.05,5.2-77.11-41.01-89.24-79.13c-5.2,12.13-14.73,30.61-14.73,30.61
				s-13.57-22.16-1.3-71.94c-9.62,2.2-24.8,12.09-32.33,31.86c8.68-7.65,22.15-19.27,22.15-19.27s-20,54.44,17.83,85.34
				c1.15-5.78,5.49-23.87,5.49-23.87c11.12,42.2,45.34,61.41,67.29,71.52c-0.76,4.82-1.32,9.36-1.69,13.64
				c9.49-1.22,18.36-3.79,24.79-9.3C234.48,436.42,231.02,422.56,231.02,412.16z"/>
			<path class="st8" d="M569.31,289.82c-6.69,9.88-14.21,18.34-22.35,25.53c13.72,40.15-22.02,88.63-22.02,88.63
				s-4.44-6.99-7.8-22.36c-11.12,24.05-44.84,56.57-44.84,56.57l1.3-35.86c-41.82,19.52-78.08,46.35-87.94,53.74
				c0,0-7.8-5.15-10.83-24.85c-10.6,27.39-34.31,54.52-55.35,65.18c-47.75,24.18-108.59,2.72-115.39-26.54
				c3.01,53,43.71,50.2,62.44,52.91c21.95,3.18,71,15.88,97.47-34.37c34.44-28.16,89.89-42.45,89.89-42.45s-5.2,12.78-8.23,17.76
				c47.22-5.85,69.53-52.2,69.53-52.2s-0.22,18.19-2.82,27.72c38.99-19.93,42.24-57.4,42.24-57.4s4.87,8.34,4.77,19.06
				C593.25,364.03,582.22,326.05,569.31,289.82z"/>
			<path class="st6" d="M129.97,249.9c12.94-15.56,26.32-31.66,33.84-50.99c2.35-6.03,4.37-14.29,6.7-23.86
				c11.31-46.28,30.23-123.74,130.3-123.74c12.16,0,25.35,1.16,39.23,3.45l0.09,0.02l0.09,0c8.42-0.44,16.7-0.66,24.63-0.66
				c67.07,0,116.88,15.83,148.06,47.05c39.66,39.73,39.57,94.78,39.52,121.24c0,2.23-0.01,4.27,0.01,6.09
				c0.19,17.62,6.76,35.83,13.71,55.12c0.85,2.36,1.7,4.72,2.55,7.09l1.28-1.58c-0.73-2.04-1.46-4.07-2.19-6.1
				c-6.9-19.14-13.42-37.22-13.61-54.55c-0.02-1.82-0.02-3.85-0.01-6.07c0.04-26.69,0.14-82.23-40.03-122.46
				c-31.51-31.56-81.73-47.56-149.28-47.56c-7.93,0-16.21,0.22-24.63,0.66c-13.93-2.29-27.19-3.45-39.42-3.45
				c-101.43,0-120.56,78.28-131.99,125.06c-2.32,9.5-4.33,17.71-6.63,23.64c-7.42,19.07-20.71,35.05-33.56,50.51
				c-5.72,6.87-11.33,13.63-16.39,20.55l0.67,2.04C118.14,264.14,124,257.08,129.97,249.9z"/>
			<path class="st9" d="M569.98,289.13l-1.28,1.58c12.66,35.59,23.08,72.19-8.5,107.99c-0.49-9.74-4.65-16.97-4.84-17.29l-1.37-2.35
				l-0.24,2.71c-0.03,0.36-3.58,36.14-40.08,55.81c2.16-9.79,2.38-25.35,2.38-26.05l0.05-3.9l-1.69,3.51
				c-0.22,0.45-22.11,44.86-67.13,51.48c3.04-5.61,7.22-15.86,7.41-16.34l0.65-1.6l-1.67,0.43c-0.56,0.14-56.03,14.67-90.22,42.62
				l-0.22,0.27c-13.35,25.35-33.9,37.68-62.81,37.68c-10.51,0-20.23-1.59-28.05-2.86c-2.06-0.34-3.98-0.65-5.72-0.9
				c-2.16-0.31-4.62-0.55-7.23-0.81c-13.64-1.34-32.33-3.16-43.93-18.17c-10.37-13.41-13.22-35.45-8.46-65.51l0.1-0.65l-0.6-0.27
				c-23.51-10.83-56.01-29.96-66.81-70.95l-0.88-3.33l-0.8,3.35c-0.04,0.17-3.75,15.67-5.2,22.48
				c-35.42-30.31-16.66-82.92-16.47-83.45l1.09-2.97l-2.45,2c-0.14,0.11-12.9,10.55-21.55,18.21c0.42-19.48,8.53-35.37,19.43-50.46
				l-0.67-2.04c-11.82,16.14-20.61,33.14-20.51,54.46l0.01,1.93l1.44-1.29c6.5-5.85,16.29-13.99,20.68-17.61
				c-3.44,11.66-13.91,56.59,19,83.48l1.12,0.91l0.28-1.41c0.84-4.21,3.41-15.11,4.71-20.59c11.69,39.14,43.11,57.85,66.26,68.58
				c-4.69,30.22-1.69,52.48,8.91,66.19c12.06,15.6,31.18,17.47,45.13,18.84c2.59,0.25,5.03,0.49,7.15,0.8
				c1.74,0.25,3.64,0.56,5.69,0.9c7.87,1.29,17.68,2.88,28.33,2.88c29.55,0,50.57-12.58,64.26-38.45
				c30.55-24.9,78.19-39.05,87.73-41.71c-1.5,3.59-5.17,12.2-7.5,16.01l-0.93,1.53l1.78-0.22c39.83-4.93,62.31-38.8,68.46-49.47
				c-0.21,5.77-0.84,17.14-2.69,23.91l-0.52,1.89l1.75-0.89c32.77-16.75,40.6-46.16,42.29-55.3c1.4,3.19,3.53,9.19,3.46,16.18
				l-0.02,2.26l1.53-1.66C594.38,364.08,583.17,326.06,569.98,289.13z"/>
		</g>
		<g>
			<path class="st9" d="M362.95,492.1l-1.45-0.95c2.05-3.13,2.5-9.05,2.98-15.31c0.4-5.16,0.88-10.7,2.16-15.69
				c1.58-6.14,6.23-8.63,6.23-8.63c-5.23,5.76-5.99,15.69-6.67,24.45C365.69,482.75,365.24,488.6,362.95,492.1z"/>
		</g>
		<g>
			<g>
				<path class="st3" d="M174.6,355.89c-3.32-3.75-9.86-12.93-9.86-12.93s-8.56,16.35-26.32,17.44"/>
			</g>
			<g>
				<path d="M354.81,354c-7.41-9.28-21.47-18.72-21.61-18.81c0,0,4.53,0.95,8.72,4.24c3.85,3.03,8.47,6.97,12.2,11.09
					C354.84,351.32,354.81,354,354.81,354z"/>
			</g>
			<g>
				<g>
					<path class="st10" d="M343.09,341.49l-0.13,0.13c0,0-38.08,30.47-58.44,33.07c-20.36,2.6-49.57-12.49-62.27-11.91
						c-0.22,0.01-0.44,0.04-0.66,0.05c-12.36,12.72-9.37,29.41-10.57,39.38c-1.71,14.22-16.86,41.47,0.07,53.27
						c14.3,9.96,33.51,7.67,55.45,6.93c28.21-0.96,53.72,1.3,64.54-29.89c10.94-31.52,18.31-59.02,21.94-81.9
						C349.96,347.32,346.36,344.14,343.09,341.49z"/>
					<path class="st17" d="M212.71,432.95c0,0-4.43,13.97,9.74,17.97s28.5,0.08,37.85,1.45c-11.1,0.21-22.41,4.01-29.62,4.01
						C223.48,456.38,206.32,458.33,212.71,432.95z"/>
					<path class="st12" d="M243.43,464.04c-10.67,0-22.91-0.93-32.84-7.85c-13.07-9.11-7.84-26.84-3.65-41.08
						c1.43-4.84,2.77-9.4,3.21-13.01c0.26-2.15,0.32-4.68,0.39-7.35c0.24-9.96,0.55-22.36,10.42-32.52l0.23-0.24l0.59-0.04
						c0.14-0.01,0.27-0.02,0.41-0.03c5.45-0.25,13.47,2.19,22.85,5.04c11.09,3.36,23.67,7.18,34.45,7.18c1.72,0,3.37-0.1,4.9-0.29
						c19.89-2.54,57.63-32.58,58.01-32.89l0.6-0.63l0.62,0.5c3.95,3.2,7.32,6.3,10.02,9.22l0.29,0.31l-0.07,0.42
						c-3.62,22.87-11.02,50.47-21.97,82.05c-10.1,29.1-32.39,29.65-58.2,30.28c-2.35,0.06-4.73,0.12-7.13,0.2
						c-2.66,0.09-5.28,0.2-7.86,0.32C253.37,463.82,248.32,464.04,243.43,464.04z M221.99,363.67c-9.18,9.64-9.48,21.55-9.71,31.13
						c-0.07,2.72-0.13,5.28-0.4,7.52c-0.45,3.75-1.82,8.38-3.27,13.29c-4.04,13.71-9.07,30.77,2.98,39.17
						c9.53,6.64,21.44,7.54,31.84,7.54c4.85,0,9.88-0.22,15.2-0.45c2.58-0.11,5.21-0.22,7.88-0.31c2.4-0.08,4.79-0.14,7.15-0.2
						c25.17-0.61,46.9-1.14,56.6-29.11c10.86-31.29,18.2-58.65,21.83-81.33c-2.47-2.63-5.49-5.42-9-8.29
						c-4.73,3.75-39.1,30.47-58.47,32.94c-1.6,0.2-3.32,0.31-5.12,0.31c-11.04,0-23.75-3.85-34.95-7.25
						c-9.22-2.8-17.14-5.21-22.27-4.96L221.99,363.67z"/>
				</g>
			</g>
			<g>
				<g>
					<path class="st18" d="M342.96,341.62c0,0-38.08,30.47-58.44,33.07c-20.36,2.6-49.57-12.49-62.27-11.91
						c-0.22,0.01-0.44,0.04-0.66,0.05c-7.03,7.24-9.09,15.77-9.79,23.61c22.64,18.44-2.49,48.46,11.63,59.51
						c12.21,9.55,29.24,2.6,41.26,2.06c12.02-0.54,39.96,3.14,52.67-14.48c11.1-15.39,28.64-69.27,32.32-86.27
						c-2.18-2.08-4.46-4.04-6.61-5.78L342.96,341.62z"/>
					<path class="st19" d="M343.09,341.49l-0.13,0.13c0,0-38.08,30.47-58.44,33.07c-7.86,1-17.05-0.63-26.09-2.99
						c-0.52,0.74-3.49-1.22-3.91-0.39c-12.34,23.66-15.13,52.7,0.98,77.88c0.65-0.05,8.99-1.17,9.21-1.18
						c12.02-0.54,39.96,3.14,52.67-14.48c11.1-15.39,28.64-69.27,32.32-86.27C347.51,345.19,345.23,343.22,343.09,341.49z"/>
					<g>
						<g>
							<path class="st20" d="M224.05,445.94c12.21,9.55,29.24,2.6,41.26,2.06c12.02-0.54,39.96,3.14,52.67-14.48
								c3.15-4.37,6.83-11.85,10.55-20.71c-16.15-12.1-39.39-10.37-51.63-3.26c-27.7-10.91-49.44,17.47-57.05,29.31
								C220.42,441.66,221.66,444.07,224.05,445.94z"/>
							<path class="st21" d="M276.29,409.56c-4.73-1.86-9.28-2.56-13.62-2.41c3.48,3.77,3.71,7.91,3.71,13.74
								c7.08-8.58,24.92-14.57,35.47-5.08c9.53,13.48-0.22,27.04-65.29,34.99c9.65,0.83,20.03-2.43,28.14-2.8
								c12.02-0.54,39.96,3.14,52.67-14.48c3.15-4.37,6.83-11.85,10.55-20.71C311.77,400.72,288.53,402.45,276.29,409.56z"/>
							<path class="st22" d="M239.82,451.82L239.82,451.82c-6.92,0-12.45-1.7-16.91-5.19c-2.38-1.86-3.86-4.35-4.52-7.59l-0.07-0.35
								l0.19-0.3c6.22-9.67,23.08-32.15,45.27-32.15c4.15,0,8.33,0.79,12.44,2.36c6.21-3.49,14.67-5.49,23.3-5.49
								c10.89,0,21.17,3.2,28.93,9.02l0.54,0.41l-0.26,0.62c-4.1,9.74-7.68,16.77-10.65,20.88c-9.42,13.06-26.61,14.82-42.18,14.82
								c-1.49,0-2.91-0.01-4.27-0.03c-2.62-0.02-4.96-0.05-6.89,0.04c-3.1,0.14-6.55,0.71-10.2,1.32
								C249.74,451,244.77,451.82,239.82,451.82z M220.16,439.04c0.6,2.66,1.85,4.7,3.81,6.23c4.15,3.24,9.33,4.82,15.85,4.82h0
								c4.81,0,9.7-0.81,14.43-1.6c3.71-0.62,7.21-1.2,10.41-1.35c1.95-0.09,4.32-0.07,6.98-0.04c1.35,0.01,2.77,0.03,4.25,0.03
								c15.13,0,31.81-1.68,40.78-14.1c2.82-3.92,6.25-10.61,10.19-19.91c-7.4-5.34-17.08-8.27-27.35-8.27
								c-8.5,0-16.8,1.99-22.79,5.47l-0.36,0.21l-0.39-0.15c-4.02-1.58-8.13-2.39-12.19-2.39
								C242.66,407.98,226.37,429.45,220.16,439.04z"/>
						</g>
					</g>
					<g>
						<g>
							<path class="st23" d="M230.35,415.71c-3.63,0.52-8.21,12.56-11.3,22.14c0.45,3.24,1.72,6.01,4.39,8.1
								c5.62,4.4,12.26,5.28,18.97,4.92C240.97,438.66,235.66,414.95,230.35,415.71z"/>
							<path class="st24" d="M242.41,450.87c-1.35-11.53-6.16-33.3-11.17-35.05c1.23,11.13,1.04,23.09-5.74,31.56
								C230.65,450.54,236.5,451.19,242.41,450.87z"/>
							<path class="st25" d="M239.8,451.81L239.8,451.81c-6.92,0-12.44-1.69-16.89-5.18c-2.65-2.07-4.19-4.91-4.71-8.67l-0.03-0.2
								l0.06-0.19c7.11-22.03,10.79-22.56,12.01-22.73c0.12-0.02,0.25-0.03,0.37-0.03c6.94,0,11.83,28.81,12.66,35.94l0.11,0.92
								l-0.92,0.05C241.57,451.78,240.68,451.81,239.8,451.81z M219.93,437.92c0.49,3.24,1.77,5.58,4.04,7.35
								c4.19,3.28,9.22,4.81,15.83,4.81h0c0.55,0,1.09-0.01,1.64-0.03c-1.92-15.31-7.18-33.49-10.83-33.49
								C229.58,416.69,226.18,418.62,219.93,437.92z"/>
						</g>
					</g>
					<g>
						<path class="st23" d="M291.52,418.8c-4.91,0.7-9.28,21.28-10.77,29.13c7.99-0.23,16.94-1.19,24.62-4.74
							C303.85,433.29,296.98,418.02,291.52,418.8z"/>
						<path class="st24" d="M292.15,418.82c3.04,9.42,1.51,18.84-0.85,28.26c4.83-0.68,9.66-1.85,14.07-3.89
							C303.91,433.67,297.5,419.21,292.15,418.82z"/>
						<path class="st25" d="M279.7,448.83l0.2-1.06c2.51-13.21,6.55-29.11,11.5-29.82c6.57-0.9,13.43,16,14.83,25.12l0.1,0.64
							l-0.59,0.27c-8.48,3.92-18.31,4.63-24.96,4.82L279.7,448.83z M291.93,419.64c-0.1,0-0.19,0.01-0.29,0.02
							c-2.83,0.4-6.67,11.11-9.83,27.37c6.28-0.23,14.99-1,22.6-4.35C302.69,432.63,296.36,419.64,291.93,419.64z"/>
					</g>
					<g>
						<path class="st22" d="M266.38,420.89c0,0,0.79-4.07,3.89-7.16c2.62-2.61,5.99-5.39,9.61-6.91l0.67,1.6
							C273.09,411.55,266.45,420.8,266.38,420.89z"/>
					</g>
					<g>
						<path class="st23" d="M265.37,373.34c4.19,12.23,6.25,28.5,11.27,28.6c5.52,0.12,14.68-18.71,15.81-29.27
							c-2.83,1-5.52,1.72-7.94,2.03C278.67,375.44,272.08,374.72,265.37,373.34z"/>
						<path class="st24" d="M292.46,372.66c-2.83,1-5.52,1.72-7.94,2.03c-2.24,0.29-4.58,0.35-6.99,0.26
							c1.8,9.02,1.72,17.39,0.52,26.65C283.59,399.07,291.42,382.38,292.46,372.66z"/>
						<path class="st25" d="M276.7,402.8l-0.07,0c-4.14-0.09-6.15-7.74-8.69-17.43c-1.04-3.95-2.11-8.03-3.39-11.76l-0.49-1.44
							l1.49,0.31c7.6,1.57,13.72,2,18.86,1.34c2.23-0.29,4.84-0.95,7.76-1.98l1.3-0.46l-0.15,1.37
							C292.2,383.2,283,402.8,276.7,402.8z M266.67,374.48c1.09,3.38,2.03,6.97,2.95,10.46c2.07,7.9,4.22,16.07,7.05,16.13
							l0.03,0.87v-0.87c4.35,0,12.99-16.18,14.72-27.14c-2.5,0.82-4.78,1.36-6.79,1.62C279.63,376.19,273.78,375.84,266.67,374.48z"
							/>
					</g>
					<path class="st12" d="M239.82,451.82c-6.92,0-12.45-1.7-16.91-5.19c-6.63-5.19-5.15-14.27-3.57-23.88
						c1.97-12.02,4.2-25.65-8.08-35.65l-0.36-0.29l0.04-0.46c0.58-6.52,2.24-16.12,10.03-24.13l0.23-0.24l0.59-0.04
						c0.14-0.01,0.27-0.02,0.41-0.03c5.44-0.26,13.47,2.19,22.85,5.04c11.09,3.36,23.67,7.18,34.45,7.18c1.72,0,3.37-0.1,4.9-0.29
						c19.89-2.54,57.63-32.58,58.01-32.89l0.6-0.63l0.62,0.5c2.41,1.95,4.65,3.91,6.66,5.82l0.35,0.33l-0.1,0.48
						c-3.74,17.24-21.36,71.19-32.47,86.59c-9.42,13.06-26.61,14.82-42.18,14.82c-1.49,0-2.91-0.01-4.27-0.03
						c-2.62-0.02-4.96-0.05-6.89,0.04c-3.1,0.14-6.55,0.71-10.2,1.32C249.73,451,244.77,451.82,239.82,451.82z M212.71,386.06
						c12.65,10.59,10.36,24.6,8.33,36.97c-1.55,9.49-2.89,17.68,2.93,22.23c4.15,3.24,9.33,4.82,15.85,4.82
						c4.81,0,9.7-0.81,14.43-1.6c3.71-0.62,7.21-1.2,10.41-1.35c1.95-0.09,4.32-0.07,6.98-0.04c1.35,0.01,2.77,0.03,4.25,0.03
						c15.13,0,31.81-1.68,40.78-14.1c10.89-15.1,28.15-67.84,32.07-85.47c-1.73-1.62-3.63-3.29-5.65-4.94
						c-4.73,3.75-39.1,30.47-58.47,32.94c-1.6,0.2-3.32,0.31-5.12,0.31c-11.04,0-23.75-3.85-34.95-7.25
						c-9.22-2.8-17.14-5.21-22.27-4.96l-0.3,0.02C215.02,370.98,213.33,379.41,212.71,386.06z"/>
				</g>
			</g>
			<g>
				<g>
					<path class="st23" d="M192.27,368.58c2.36,10.75,10.28,25.99,15.24,25.88c5.44-0.11,7.39-19.12,12.34-31.5
						C209.94,364.12,201.77,369.24,192.27,368.58z"/>
					<path class="st24" d="M219.86,362.97c-4.37,0.51-8.39,1.78-12.34,2.99c-2.6,5.35-2.04,22.06-0.16,28.97
						C213.44,391.13,215.39,374.16,219.86,362.97z"/>
					<path class="st25" d="M207.47,395.34c-5.82,0-13.75-16.12-16.04-26.57l-0.25-1.13l1.15,0.08c5.34,0.38,10.22-1.13,15.43-2.73
						c3.8-1.17,7.74-2.38,12-2.87l1.44-0.17l-0.54,1.35c-1.76,4.4-3.12,9.59-4.44,14.62c-2.54,9.69-4.55,17.34-8.69,17.42
						L207.47,395.34z M193.38,369.5c2.73,11.09,10.26,24.1,14.09,24.1l0.03,0c2.83-0.06,4.97-8.23,7.05-16.13
						c1.2-4.57,2.43-9.27,3.98-13.44c-3.57,0.56-6.96,1.6-10.25,2.61C203.29,368.17,198.6,369.62,193.38,369.5z"/>
				</g>
			</g>
			<g>
				<path class="st7" d="M337.24,323.57c-20.7-22.96-53.37-20.87-62.62-20.87c0,0-67.43-9.24-101.44-11.62
					c-44.11,13.36-11.55,69.38,14.3,76.68c12.44,3.51,22.06-4.4,34.76-4.98c12.71-0.58,41.91,14.51,62.27,11.91
					c20.36-2.6,58.44-33.07,58.44-33.07L337.24,323.57z"/>
				<path class="st8" d="M218.83,329.96c0,12.13-11.71,24.42-20.31,26.45c-18.24,4.31-30.18-6.8-41.86-18.58
					c6.89,14.21,19.5,26.74,30.81,29.94c12.44,3.51,22.06-4.4,34.76-4.98c12.71-0.58,41.91,14.51,62.27,11.91
					c13.85-1.77,47-22.59,57.9-33.75c-23.29,11.26-49.93,22.45-73.06,21C248.69,360.65,224.95,352.47,218.83,329.96z"/>
				<path class="st9" d="M279.48,375.86c-11.01,0-23.62-3.82-34.93-7.25c-9.2-2.79-17.16-5.19-22.27-4.96
					c-5.01,0.23-9.59,1.64-14.02,3c-6.86,2.11-13.34,4.11-21.02,1.95c-16.32-4.61-36.44-28.92-36.65-50.73
					c-0.09-9.48,3.71-21.97,22.34-27.61l0.15-0.05l0.16,0.01c33.64,2.36,100.82,11.54,101.5,11.63c0.5-0.01,1.22-0.02,2.03-0.03
					c9.32-0.11,31.28-0.4,49.68,11.47c4.04,2.61,10.15,10.87,10.15,10.87c-19.05-21.13-48.66-20.75-59.8-20.6
					c-0.82,0.01-1.55,0.02-2.18,0.02c-0.79-0.1-67.7-9.24-101.34-11.61c-17.47,5.35-21.04,17.02-20.95,25.89
					c0.2,20.74,19.95,44.72,35.39,49.08c7.18,2.03,13.43,0.1,20.04-1.93c4.53-1.4,9.22-2.84,14.45-3.08
					c5.42-0.25,13.5,2.2,22.85,5.04c12.95,3.93,27.64,8.38,39.35,6.88c19.89-2.54,57.63-32.58,58.01-32.89l1.08,1.35
					c-1.56,1.25-38.5,30.65-58.87,33.25C282.96,375.76,281.24,375.86,279.48,375.86z"/>
			</g>
			<g>
				
					<rect x="219.43" y="329.04" transform="matrix(0.9971 -0.0766 0.0766 0.9971 -25.8511 17.8892)" class="st9" width="1.73" height="33.84"/>
			</g>
		</g>
		<g>
			<path class="st3" d="M466.03,260.11c0,0,28.81,19.49,16.46,66.28c24.26-10.18,38.99-45.27,12.13-71.91
				c9.31-17.54,7.36-38.12-1.08-45.92C483.14,240.4,466.03,260.11,466.03,260.11z"/>
		</g>
		<g>
			<path class="st3" d="M249.1,123.28c12.08-27.99,26.65-22.56,55.56-32.39C297.79,123.41,266.26,113.65,249.1,123.28z"/>
		</g>
		<g>
			<path class="st3" d="M234.92,89.96c32.06-38.12,56.97-14.3,96.82-21.88C309.65,98.41,261.73,82.81,234.92,89.96z"/>
		</g>
		<g>
			<path class="st3" d="M443.77,123.72c-26.48-56.68-77.15-40-101.85-54.73C352.92,104.86,415.99,101.7,443.77,123.72z"/>
		</g>
		<g>
			<path class="st3" d="M366.2,145.41c3.17-30.32-12.2-32.72-32.59-55.45C323.69,121.69,355.96,128.61,366.2,145.41z"/>
		</g>
		<g>
			<path class="st3" d="M337.94,190.19c13.85-27.16,0.37-38.38-10.49-66.91C306.78,149.32,334.41,170.84,337.94,190.19z"/>
		</g>
		<g>
			<path class="st6" d="M329.67,61.09c0,0,3.87-6.74,14.78-8.26l0.1,1.73C337.65,54.97,329.75,61.03,329.67,61.09z"/>
		</g>
		<g>
			<g>
				<path class="st7" d="M373.97,156.74c0,0-36.73,71.04-19.92,106.07c17.61,5.54,82.79,5.82,89.15,4.67
					c9.53-13.57,38.5-69.3,5.74-106.9c-23.52-20.7-49.55-23.91-49.55-23.91L373.97,156.74z"/>
			</g>
			<path class="st8" d="M350.26,236.65c-4.17-17.12,14.94-60.44,44.58-60.43c35.59,0.01,49.2,52.32,44.12,72.23
				C435.14,263.42,360.19,277.4,350.26,236.65z"/>
			<g>
				<path class="st10" d="M369.76,163.52c-0.31,0.34-1.38-30.28,24.57-36.98c19.57-5.05,59.13,15.9,65.54,49.68
					c-7.22-5.78-30.82-25.22-59.61-25.22C389.57,151.01,374.98,157.74,369.76,163.52z"/>
				<path class="st11" d="M374.34,144.55c-4.08,3.26-4.8,19.21-4.58,18.97c5.22-5.78,19.8-12.51,30.49-12.51
					c24.66,0,48.82,16.41,58.84,24.13C441.89,143.57,405.82,132.35,374.34,144.55z"/>
				<path class="st12" d="M461.16,178.36l-2.33-1.87c-7.6-6.09-30.71-24.62-58.57-24.62c-10.41,0-24.84,6.69-29.85,12.22l-0.26,0.29
					l-1.15,0l-0.14-0.92c-0.04-0.3-1.22-30.93,25.26-37.77c1.99-0.52,4.22-0.78,6.61-0.78c20.51,0,54.08,19.92,59.99,51.14
					L461.16,178.36z M400.25,150.14c26.92,0,49.38,16.83,58.26,23.89c-6.94-29-38.38-47.37-57.79-47.37c-2.25,0-4.33,0.24-6.18,0.72
					c-21.56,5.57-23.81,27.68-23.98,34.13C376.8,155.97,390.11,150.14,400.25,150.14z"/>
			</g>
			<g>
				<path class="st7" d="M350.11,254.54c-0.93,36.54,24.19,56.63,55.63,53.38c36.44-3.77,45.99-46.14,29.96-52.42
					C427.04,258.96,350.11,254.54,350.11,254.54z"/>
			</g>
			<path d="M351.15,233.12c0,0-17.47,26.67-17.79,29.26c0.43,4.01,6.87,2.06,11.8,4.37c13.55,6.37,22.09,14.52,40.94,16.58
				c18.84,2.06,44.48-2.71,52.44-16.79C413.85,266.27,351.15,233.12,351.15,233.12z"/>
			<g>
				<path d="M349.75,249.66c-4.17-16.85,14.94-59.48,44.58-59.47c35.59,0.01,49.2,51.49,44.12,71.09
					C434.64,276,359.68,289.76,349.75,249.66z"/>
				<path class="st26" d="M349.75,253.26c-4.17-16.47,14.94-58.14,44.58-58.13c35.59,0.01,49.2,50.34,44.12,69.49
					C434.64,279.02,359.68,292.46,349.75,253.26z"/>
				<path class="st27" d="M350.2,254.84c11.53,37.26,84.49,23.98,88.26,9.79c1.57-5.9,1.35-14.76-0.73-24.19
					C414.24,268.82,379.26,262.99,350.2,254.84z"/>
				<g>
					<g>
						<g>
							<g>
								<g>
									<g>
										<g>
											<path class="st10" d="M397.52,216.21c-12.05,0.19-21.63,14.08-21.39,31.03c0.24,16.95,10.21,30.54,22.26,30.36
												c12.05-0.18,21.62-14.08,21.39-31.03C419.53,229.62,409.56,216.02,397.52,216.21z"/>
										</g>
									</g>
								</g>
							</g>
						</g>
						<g>
							<g>
								<g>
									<g>
										<g>
											<g>
												<path class="st11" d="M392.7,259.02c-6.64-1.26-11.81-4.83-16.43-9.32c1.12,15.79,10.67,28.08,22.13,27.91
													c11.91-0.18,21.38-13.76,21.37-30.44C413.57,256.21,403.29,259.83,392.7,259.02z"/>
											</g>
										</g>
									</g>
								</g>
							</g>
						</g>
						<g>
							<g>
								<g>
									<g>
										<g>
											<path d="M400.75,232.16c-7.89,0.12-14.15,9.69-13.98,21.37c0.16,11.68,6.69,21.06,14.58,20.94
												c7.89-0.12,14.15-9.69,13.98-21.37C415.17,241.41,408.64,232.03,400.75,232.16z"/>
										</g>
									</g>
								</g>
							</g>
						</g>
						<g>
							<g>
								<g>
									<g>
										<g>
											<path class="st23" d="M399.46,232.45c-4.56-0.39-8.54,3.12-8.88,7.85c-0.34,4.72,3.08,8.86,7.65,9.25
												c4.56,0.39,8.53-3.13,8.88-7.84C407.45,236.98,404.02,232.84,399.46,232.45z"/>
										</g>
									</g>
								</g>
							</g>
						</g>
						<g>
							<g>
								<g>
									<g>
										<g>
											<path class="st23" d="M393.91,261.74c-2.1-0.18-3.92,1.44-4.09,3.61c-0.16,2.18,1.42,4.08,3.52,4.26
												c2.1,0.18,3.93-1.44,4.08-3.61C397.59,263.82,396.01,261.92,393.91,261.74z"/>
										</g>
									</g>
								</g>
							</g>
						</g>
						<g>
							<g>
								<g>
									<g>
										<g>
											<path class="st12" d="M397.5,215.54c-12.46,0.2-22.4,14.42-22.16,31.71c0.23,16.36,9.63,29.96,21.39,30.96
												c0.55,0.05,1.1,0.07,1.66,0.06c12.47-0.2,22.42-14.42,22.17-31.71C420.32,229.43,410.02,215.39,397.5,215.54z
												 M398.37,276.08c-11.34,0.2-20.6-12.92-20.82-28.85c-0.23-16.09,8.74-29.31,19.99-29.49c0.49-0.01,0.97,0.01,1.45,0.05
												c10.65,0.91,19.16,13.56,19.37,28.81C418.59,262.68,409.62,275.91,398.37,276.08z"/>
										</g>
									</g>
								</g>
							</g>
						</g>
					</g>
				</g>
				<path d="M395.21,279.92c-11.91,0-40.25-2.58-46.3-26.44c-2.56-10.12,3.32-28.19,13.39-41.14c9.07-11.66,20.44-18.08,32.02-18.08
					c12.02,0,22.77,5.74,31.11,16.58c12.54,16.3,17.29,41.08,13.86,54C437.2,272.73,416.19,279.92,395.21,279.92z M394.33,196
					c-11.04,0-21.93,6.18-30.66,17.41c-10.92,14.03-15.23,31.18-13.08,39.65c5.75,22.68,33.12,25.13,44.62,25.13
					c21.82,0,40.72-7.41,42.41-13.78c3.25-12.26-1.51-36.84-13.56-52.5C416.06,201.5,405.78,196,394.33,196z"/>
			</g>
		</g>
		<g>
			<g>
				<path class="st7" d="M172.54,203.52c-7.65,9.82-31.05,66.86,17.62,59.21c11.26-2.38,26.46-13.29,26.46-13.29L172.54,203.52z"/>
			</g>
			<g>
				<path class="st7" d="M184.02,140.83c0,0-21.23,34.97-11.05,71.79c8.24,5.55,36.39,30.83,61.95,29.17
					c7.36-12.92,17.76-87.79,12.56-97.61c-7.65-8.95-35.75-19.49-35.75-19.49L184.02,140.83z"/>
			</g>
			<g>
				<path class="st8" d="M240.21,194.06c0.4,23.03-16.82,42.49-37.18,42.69c-19.05,0.18-32.97-16.82-32.2-37.35
					c0.75-19.88,15.13-37.48,33.1-40C223.07,156.71,239.82,171.84,240.21,194.06z"/>
				<path d="M240.19,206.12c0.39,22.72-16.98,41.59-37.5,41.41c-19.18-0.16-33.21-17.15-32.45-37.37
					c0.74-19.59,15.22-36.71,33.35-38.89C222.91,168.96,239.81,184.19,240.19,206.12z"/>
				<path class="st26" d="M240.03,210.07c0.4,23.23-17.03,42.41-37.6,42.07c-19.23-0.31-33.28-17.8-32.5-38.46
					c0.76-20.01,15.28-37.38,33.43-39.47C222.71,171.98,239.64,187.66,240.03,210.07z"/>
				<path class="st24" d="M171.14,225.56c3.75,15.01,15.86,26.33,31.28,26.59c17.37,0.28,32.57-13.42,36.6-31.95
					C214.73,230.19,190.59,235.15,171.14,225.56z"/>
				<g>
					<g>
						<g>
							<g>
								<g>
									<g>
										<g>
											<path class="st10" d="M216.22,195.33c-10.12-0.47-18.88,10.69-19.57,24.93c-0.68,14.24,6.97,26.17,17.09,26.64
												c10.12,0.47,18.88-10.69,19.57-24.93C234,207.73,226.34,195.8,216.22,195.33z"/>
										</g>
									</g>
								</g>
							</g>
						</g>
						<g>
							<g>
								<g>
									<g>
										<g>
											<g>
												<path class="st11" d="M209.95,231c-5.51-1.4-9.66-4.67-13.3-8.68c0.11,13.31,7.49,24.12,17.12,24.57
													c10,0.47,18.66-10.43,19.53-24.43C227.61,229.74,218.79,232.23,209.95,231z"/>
											</g>
										</g>
									</g>
								</g>
							</g>
						</g>
						<g>
							<g>
								<g>
									<g>
										<g>
											<path d="M218.1,208.88c-6.62-0.31-12.38,7.39-12.85,17.21c-0.47,9.81,4.52,18.02,11.15,18.33
												c6.62,0.31,12.38-7.4,12.85-17.21C229.72,217.4,224.73,209.19,218.1,208.88z"/>
										</g>
									</g>
								</g>
							</g>
						</g>
						<g>
							<g>
								<g>
									<g>
										<g>
											<path class="st23" d="M217.01,207.45c-3.81-0.56-7.33,2.17-7.86,6.12c-0.53,3.94,2.12,7.6,5.94,8.16
												c3.81,0.57,7.32-2.18,7.86-6.12C223.47,211.66,220.82,208.01,217.01,207.45z"/>
										</g>
									</g>
								</g>
							</g>
						</g>
						<g>
							<g>
								<g>
									<g>
										<g>
											<path class="st23" d="M210.82,233.35c-1.75-0.26-3.37,1-3.62,2.81c-0.25,1.82,0.98,3.5,2.73,3.76
												c1.75,0.26,3.37-1,3.62-2.82C213.8,235.29,212.57,233.61,210.82,233.35z"/>
										</g>
									</g>
								</g>
							</g>
						</g>
						<g>
							<g>
								<g>
									<g>
										<g>
											<path class="st12" d="M216.24,194.77c-10.47-0.49-19.55,10.93-20.25,25.45c-0.66,13.74,6.52,25.65,16.34,27.1
												c0.46,0.07,0.92,0.11,1.39,0.14c10.47,0.49,19.57-10.94,20.26-25.46C234.67,207.62,226.75,195.29,216.24,194.77z
												 M213.81,245.62c-9.53-0.42-16.61-11.92-15.97-25.3c0.65-13.51,8.86-24.14,18.32-23.71c0.41,0.02,0.81,0.06,1.21,0.11
												c8.89,1.32,15.37,12.38,14.75,25.19C231.48,235.42,223.26,246.06,213.81,245.62z"/>
										</g>
									</g>
								</g>
							</g>
						</g>
					</g>
				</g>
				<path d="M202.42,253.06c-19.69-0.35-34.09-18.28-33.28-39.33c0.78-20.38,15.67-38.16,34.23-40.32
					c19.81-2.31,37.25,13.72,37.66,36.62C241.46,233.77,223.51,253.44,202.42,253.06z M203.35,175.02
					c-17.7,2.02-31.91,19.05-32.63,38.62c-0.75,20.19,13,37.3,31.72,37.58c19.99,0.3,36.96-18.47,36.59-41.1
					C238.67,188.27,222.17,172.88,203.35,175.02z"/>
				<path d="M170.21,207.37c0,0-1.11,40.39,34.75,42.45c-2.54,2.32-6.61,4.95-6.61,4.95S165.91,253.06,170.21,207.37z"/>
			</g>
		</g>
		<g>
			<g>
				<path class="st0" d="M281.85,269.07c0,0-7.49-104.76-28.88-130.39c-12.85-15.4-11.78,10.06-11.78,10.06s11.92,57.16-9.59,80.99
					c-13.14,6.71-52.45,36.17-56.14,51.55c17.87,14.08,100.9,16.97,106.39,16.24C286.18,290.01,286.47,280.34,281.85,269.07z"/>
				<g>
					<path class="st3" d="M259.71,179.53c-1.01-30.47,14.49-31.77,36.43-52.99C303.79,158.89,271.11,163.51,259.71,179.53z"/>
				</g>
				<path class="st1" d="M249.97,220.39c0.61-0.2,1.23-0.41,1.84-0.57C251.2,219.97,250.58,220.18,249.97,220.39
					c-1.53,0.7-2.84,1.31-3.5,1.61c0.01-0.09,0.03-0.19,0.04-0.29c-4.44,1.95-8.88,4.58-13.32,6.11c-0.51,0.65-1.04,1.29-1.59,1.91
					c-13.14,6.71-52.45,36.17-56.14,51.55c2.89,2.27,2.87-0.32,8.56,1.41c7.16-15.96,32.6-36.42,74.78-65.72
					C257.61,216.97,253.27,218.88,249.97,220.39z"/>
				<path class="st2" d="M262.78,294.28c5.15,0.15,18.09,2.93,19.07,2.8c3.69-6.4,4.78-15.87-0.8-27.68
					C281.49,281.27,275.49,287.17,262.78,294.28z"/>
				<path class="st6" d="M278.66,298.48c-16.76,0-87.31-3.58-103.73-16.52l-0.43-0.34l0.13-0.54c3.83-16,43.37-45.3,56.44-52.05
					c20.84-23.3,9.4-79.54,9.28-80.11l1.7-0.35c0.49,2.35,11.77,57.87-9.8,81.74l-0.25,0.19c-12.21,6.24-51.1,35-55.54,50.44
					c18.27,13.41,96.64,16.31,104.87,15.76c4.1-7.43,4.01-16.86-0.27-27.3c0,0,4.13,6.63,4.64,10.07
					c1.01,6.89-0.02,13.16-3.09,18.48l-0.21,0.37l-0.42,0.06C281.46,298.44,280.33,298.48,278.66,298.48z"/>
			</g>
			<g>
				<path class="st10" d="M240.84,151.39c0.13,0.44,6.29-43.28-20.5-42.89c-26.8,0.4-35.81,27.58-38.41,36.53
					c7.22-5.78,24.98-16.46,36.97-13.86C228.62,133.28,239.54,147.06,240.84,151.39z"/>
				<path class="st11" d="M183.96,143.49c8.13-5.93,23.94-14.7,34.92-12.32c9.73,2.11,20.65,15.88,21.95,20.22
					c0.07,0.24,1.97-12.98-0.84-24.8C213,107.63,186.11,135.18,183.96,143.49z"/>
				<path class="st12" d="M241.33,152.26l-1.14-0.01l-0.18-0.61c-1.16-3.88-11.65-17.53-21.3-19.62c-1.16-0.25-2.44-0.38-3.78-0.38
					c-10.91,0-25.39,8.42-32.46,14.07l-2.14,1.71l0.76-2.63c6.88-23.69,20.81-36.88,39.23-37.16l0.37,0
					c7.42,0,13.05,3.29,16.75,9.78c7.3,12.8,4.5,33.81,4.14,34.42L241.33,152.26z M214.92,129.91c1.47,0,2.86,0.14,4.15,0.42
					c8.43,1.83,17.78,12.01,21.31,18.06c0.63-6.77,0.96-23.64-6.17-32.72c-3.29-4.18-7.83-6.3-13.51-6.3l-0.35,0
					c-21.37,0.32-31.78,17.74-36.81,33.35C191.32,137.05,204.6,129.91,214.92,129.91z"/>
			</g>
			<g>
				<path class="st28" d="M219,329.09c13.88-0.12,11.21-10.25,24.58-14.61c16.25-5.31,34.03,0.62,38.12-3.47
					c5.09-5.09,3.2-18.23-2.27-19.93c-9.1-2.82-37.24,1.52-53.75-0.65c-21.41-2.82-37.7-16.51-47.18-12.94
					c-7.04,2.65-11.15,12.26-11.59,16.02c7.51-1.16,25.34,6.67,30.54,15.33C202.64,317.51,207.08,329.2,219,329.09z"/>
				<path class="st29" d="M282.32,293.45c-2.7,19.55-26.04,7.02-41.77,12.52c-10.22,3.57-13.99,15.34-21.34,15.16
					c-11.7-0.28-16.07-27.68-46.24-27.18c8.55,1.83,20.39,8.09,24.47,14.89c5.2,8.66,9.64,20.35,21.55,20.25
					c13.88-0.12,11.21-10.25,24.58-14.61c16.25-5.31,34.03,0.62,38.12-3.47C286.25,306.46,286.49,296.95,282.32,293.45z"/>
				<path class="st30" d="M225.68,290.43c-21.41-2.82-37.7-16.51-47.18-12.94c-5.48,2.06-10.01,10.59-11.59,15.05
					c14.2-20.06,35.44,3.08,56.36,4.65c17.29,1.29,39.81-2.7,56.36-6.02c-0.06-0.02-0.12-0.07-0.19-0.09
					C270.33,288.27,242.18,292.6,225.68,290.43z"/>
				<path class="st31" d="M218.83,329.96c-10.54,0-15.49-8.87-19.86-16.69c-0.76-1.36-1.51-2.7-2.27-3.98
					c-4.56-7.6-19.99-15.03-28.17-15.03c-0.54,0-1.04,0.04-1.49,0.1l-1.12,0.17l0.13-1.13c0.43-3.74,4.54-13.86,12.14-16.73
					c1.15-0.43,2.4-0.65,3.81-0.65c4.7,0,10.47,2.43,17.15,5.24c7.78,3.27,16.59,6.98,26.64,8.3c3.2,0.42,7.09,0.63,11.88,0.63
					c5.44,0,11.24-0.26,16.85-0.51c5.19-0.23,10.09-0.46,14.35-0.46c5.12,0,8.56,0.33,10.82,1.02c2.42,0.75,4.34,3.37,5.29,7.2
					c1.1,4.44,0.74,10.77-2.66,14.17c-1.28,1.28-3.46,1.8-7.54,1.8c-1.74,0-3.73-0.09-5.83-0.19c-2.46-0.12-5.25-0.25-8.12-0.25
					c-6.75,0-12.15,0.73-16.98,2.31c-5.85,1.91-8.45,4.9-10.97,7.79c-3.04,3.49-5.92,6.8-13.88,6.87L218.83,329.96z M168.53,292.53
					c8.79,0,24.76,7.7,29.66,15.87c0.78,1.29,1.53,2.65,2.3,4.03c4.34,7.77,8.82,15.8,18.35,15.8v0.87l0.15-0.87
					c7.18-0.06,9.56-2.8,12.58-6.27c2.55-2.92,5.43-6.24,11.74-8.3c5.01-1.64,10.57-2.4,17.51-2.4c2.91,0,5.72,0.13,8.2,0.25
					c2.08,0.1,4.05,0.19,5.75,0.19c2.34,0,5.16-0.15,6.31-1.3c2.92-2.92,3.19-8.54,2.2-12.53c-0.79-3.18-2.33-5.4-4.12-5.96
					c-2.06-0.64-5.43-0.95-10.3-0.95c-4.23,0-9.11,0.22-14.28,0.45c-5.63,0.25-11.44,0.52-16.93,0.52c-4.86,0-8.82-0.21-12.1-0.64
					c-10.28-1.35-19.21-5.11-27.09-8.42c-6.51-2.74-12.13-5.1-16.48-5.1c-1.2,0-2.25,0.18-3.2,0.53
					c-6.18,2.33-9.91,10.3-10.84,14.24C168.15,292.53,168.34,292.53,168.53,292.53z"/>
			</g>
			<g>
				<path class="st6" d="M228.76,232.29l-0.98-1.43c1.94-1.33,10.85-5.85,18.5-9.66c6.02-3,12.51-4.24,12.51-4.24
					C258.53,217.1,232.13,229.98,228.76,232.29z"/>
			</g>
		</g>
	</g>
	<g>
		<path class="st9" d="M257.52,1045.09c-9.08,0-23.72-1.85-33.42-12.39c-7.47-9.34-11.32-41.26-11.49-42.61l1.72-0.2
			c0.04,0.33,3.95,32.78,11.08,41.69c13.96,15.17,39.73,11.31,39.99,11.27l0.27,1.71C265.31,1044.61,262.13,1045.09,257.52,1045.09z
			"/>
	</g>
</g>
</svg>
