<?xml version="1.0" encoding="utf-8"?>
<!-- Generator: Adobe Illustrator 26.0.3, SVG Export Plug-In . SVG Version: 6.00 Build 0)  -->
<svg version="1.1" id="Layer_1" xmlns="http://www.w3.org/2000/svg" xmlns:xlink="http://www.w3.org/1999/xlink" x="0px" y="0px"
	 viewBox="0 0 1133.86 1133.86" style="enable-background:new 0 0 1133.86 1133.86;" xml:space="preserve">
<style type="text/css">
	.st0{fill:url(#SVGID_1_);}
	.st1{fill:url(#SVGID_00000034808666910240694040000004759429656324781463_);}
	.st2{fill:url(#SVGID_00000144326994987714460440000000346249063679519376_);}
	.st3{fill:url(#SVGID_00000127758404155492238700000005114036135397401785_);}
	.st4{fill:url(#SVGID_00000118399005123708953790000005739029345188052365_);}
	.st5{fill:url(#SVGID_00000047746960498043244740000002077490914878934975_);}
	.st6{fill:url(#SVGID_00000155840556628833363890000012641058997194288256_);}
</style>
<g>
	<g>
		<polygon points="835.59,522.14 836.71,534.57 832.91,522.68 		"/>
	</g>
	<g>
		<g>
			<polygon points="300.55,521.57 297.13,533.57 297.85,521.11 			"/>
		</g>
	</g>
	<linearGradient id="SVGID_1_" gradientUnits="userSpaceOnUse" x1="556.3033" y1="162.4895" x2="569.6675" y2="162.4895">
		<stop  offset="0" style="stop-color:#000000"/>
		<stop  offset="0.506" style="stop-color:#4C4C4C"/>
		<stop  offset="1" style="stop-color:#000000"/>
	</linearGradient>
	<polygon class="st0" points="569.67,209.14 556.3,209.14 559.25,115.84 566.92,115.84 	"/>
	
		<linearGradient id="SVGID_00000078760833346023181470000003159393676135066029_" gradientUnits="userSpaceOnUse" x1="556.0066" y1="670.426" x2="569.9642" y2="670.426">
		<stop  offset="0" style="stop-color:#000000"/>
		<stop  offset="0.506" style="stop-color:#4C4C4C"/>
		<stop  offset="1" style="stop-color:#000000"/>
	</linearGradient>
	
		<rect x="556.01" y="491.4" style="fill:url(#SVGID_00000078760833346023181470000003159393676135066029_);" width="13.96" height="358.04"/>
	
		<linearGradient id="SVGID_00000045604566296677145530000012515746207381078172_" gradientUnits="userSpaceOnUse" x1="28.3473" y1="360.5518" x2="562.9855" y2="360.5518">
		<stop  offset="0" style="stop-color:#F9CC00"/>
		<stop  offset="0.2274" style="stop-color:#FDCF00"/>
		<stop  offset="0.5009" style="stop-color:#FFE900"/>
		<stop  offset="0.5491" style="stop-color:#FFEB09"/>
		<stop  offset="0.8529" style="stop-color:#FDF741"/>
		<stop  offset="1" style="stop-color:#FDFC56"/>
	</linearGradient>
	<path style="fill:url(#SVGID_00000045604566296677145530000012515746207381078172_);" d="M299,522.96
		c0,0-133.51-66.75-270.66-28.52c0,0,168.71-304.03,534.64-296.14L299,522.96z"/>
	
		<linearGradient id="SVGID_00000176003976201117347800000008767809799561874081_" gradientUnits="userSpaceOnUse" x1="953.1006" y1="486.0163" x2="699.0908" y2="188.5658">
		<stop  offset="0" style="stop-color:#F9CC00"/>
		<stop  offset="0.2274" style="stop-color:#FDCF00"/>
		<stop  offset="0.5009" style="stop-color:#FFE900"/>
		<stop  offset="0.5491" style="stop-color:#FFEB09"/>
		<stop  offset="0.8529" style="stop-color:#FDF741"/>
		<stop  offset="1" style="stop-color:#FDFC56"/>
	</linearGradient>
	<path style="fill:url(#SVGID_00000176003976201117347800000008767809799561874081_);" d="M834.25,522.96
		c0,0,142.61-70.4,271.26-25.49c0,0-186.91-314.96-542.53-299.18L834.25,522.96z"/>
	
		<radialGradient id="SVGID_00000110432865398634940390000009094749905484933537_" cx="623.5378" cy="937.3733" r="53.9992" gradientUnits="userSpaceOnUse">
		<stop  offset="0" style="stop-color:#000000"/>
		<stop  offset="0.506" style="stop-color:#4C4C4C"/>
		<stop  offset="1" style="stop-color:#000000"/>
	</radialGradient>
	<path style="fill:url(#SVGID_00000110432865398634940390000009094749905484933537_);" d="M679.57,950.44
		c-1.05-21.72-12.21-34.01-17.76-38.82c-2.4-2.08-5.63-3.1-8.74-2.43c-2.39,0.51-3.96,1.75-4.98,3.23c-2.3,3.33-1.76,7.89,1.05,10.8
		c2.98,3.09,5.33,6.27,7.18,9.46c13.06,22.54,4.09,51.82-19.29,63.3c-10.04,4.93-18.67,4.57-18.67,4.57
		c-24.58-0.17-36.19-14.07-41.65-26.2c-3.24-7.2-4.77-15.06-4.77-22.96v-94.67h-17.6v99.83c0,0-1.92,59.55,64.02,61.43
		c29.69,0.85,45.66-18.65,53.43-33.3C677.37,974.17,680.15,962.33,679.57,950.44z"/>
	
		<linearGradient id="SVGID_00000094600722476401607640000014373775012599840941_" gradientUnits="userSpaceOnUse" x1="550.5449" y1="849.4479" x2="575.4259" y2="849.4479">
		<stop  offset="0" style="stop-color:#000000"/>
		<stop  offset="0.506" style="stop-color:#4C4C4C"/>
		<stop  offset="1" style="stop-color:#000000"/>
	</linearGradient>
	
		<rect x="550.54" y="841.71" style="fill:url(#SVGID_00000094600722476401607640000014373775012599840941_);" width="24.88" height="15.47"/>
	
		<linearGradient id="SVGID_00000166654869224348644570000016264584977697895600_" gradientUnits="userSpaceOnUse" x1="566.6265" y1="522.9606" x2="566.6265" y2="198.2938">
		<stop  offset="0" style="stop-color:#F9CC00"/>
		<stop  offset="0.3504" style="stop-color:#FDCF00"/>
		<stop  offset="0.6547" style="stop-color:#FFE900"/>
		<stop  offset="0.6881" style="stop-color:#FFEB09"/>
		<stop  offset="0.8982" style="stop-color:#FDF741"/>
		<stop  offset="1" style="stop-color:#FDFC56"/>
	</linearGradient>
	<path style="fill:url(#SVGID_00000166654869224348644570000016264584977697895600_);" d="M562.99,198.29
		C346.95,233.49,299,522.96,299,522.96s225.14-61.9,535.24,0C834.25,522.96,779.08,235.93,562.99,198.29"/>
</g>
</svg>
