<?xml version="1.0" encoding="utf-8"?>
<!-- Generator: Adobe Illustrator 26.0.3, SVG Export Plug-In . SVG Version: 6.00 Build 0)  -->
<svg version="1.1" id="Layer_1" xmlns="http://www.w3.org/2000/svg" xmlns:xlink="http://www.w3.org/1999/xlink" x="0px" y="0px"
	 viewBox="0 0 1133.86 1133.86" style="enable-background:new 0 0 1133.86 1133.86;" xml:space="preserve">
<style type="text/css">
	.st0{fill:#F9CDCE;}
	.st1{fill:#EABBBE;}
	.st2{fill:#B47DB0;}
	.st3{fill:#B09DC7;}
	.st4{fill:#FFFFFF;}
	.st5{fill:#E4DFEA;}
	.st6{fill:#E1DEB3;}
	.st7{fill:#FFF9CB;}
	.st8{fill:#FAA2A1;}
	.st9{fill:#DCC1AC;}
	.st10{fill:#BA9A85;}
	.st11{fill:#050505;}
</style>
<g>
	<rect x="0" y="0" class="st0" width="1133.86" height="1133.86"/>
	<path class="st1" d="M770.29,893.07c-6.26-9.39-14.12-17.34-23.01-24.23c-9.8-7.6-19.94-14.41-30.83-20.36
		c-18.43-10.06-38.1-18.31-58.33-23.97c-27.52-7.7-56.45-10.95-84.93-12.3c-27.15-1.29-54.41-0.45-81.47,1.94
		c-23.19,2.04-45.72,6.22-67.81,13.63c-12.49,4.19-24.84,9.22-36.53,15.3c-10.31,5.36-20.38,12.07-28.62,20.3
		c-4.26,4.25-8.05,9.21-11.26,14.29c-2.54,4.02-4.71,8.63-5.71,13.27c-1.16,5.35-1.22,11.08,0.02,16.45
		c-0.62,0.29-1.23,0.6-1.83,0.95c-10.38,6.08-14.09,19.91-7.95,30.32c6.93,11.74,15.93,21.25,26.95,29.16
		c10.95,7.86,24.04,11.5,37.28,12.79c3.88,0.38,8.12-0.59,11.85-1.17c2.32-0.36,4.58-1.04,6.78-1.84
		c5.84-2.12,11.41-4.79,16.66-8.07c6.03-3.77,11.68-8.27,17.97-11.61c2.94,4.02,5.82,8.1,9.33,11.61
		c5.99,5.98,13.37,9.71,21.36,12.26c7.24,2.31,15.08,3.12,22.58,3.94c5.57,0.61,11.38,1.14,16.98,0.74
		c4.64-0.33,9.33-0.96,13.87-2.01c4.32-0.99,8.42-2.87,12.44-4.67c5.79-2.59,10.96-6.84,15.56-11.13c0.11-0.1,0.21-0.2,0.32-0.3
		c2.21,2.14,4.64,4.06,7.55,5.92c4.08,2.6,8.85,4.43,13.53,5.66c17.88,4.67,37.39,1.3,54.86-3.51c10.35-2.85,20.36-6.64,30.24-10.8
		c3.48-1.41,7.04-2.59,10.71-3.37c1.46-0.08,2.92-0.07,4.38,0.01c10.3,1.99,20.13,6.3,30.43,8.37c6.49,1.3,13.3,2.25,19.95,1.86
		c8.4-0.49,15.24-2.28,22.78-5.88c6.82-3.25,12.27-9.16,16.36-15.36c4.67-7.09,6.21-15.63,6.91-23.91
		C780.68,915.38,776.92,903.01,770.29,893.07z"/>
	<g>
		<g>
			<path class="st2" d="M655.98,860.61c-15.99-14.05-5.47-44.62,3.44-57.46c10.27-14.8,22.91-27.3,46.41-28.59
				c22.07-1.21,38.33,7.89,60.29,8.77c26.06,1.05,37.05-25.69,24.63-43.68c-18.66-27.03-44.75,7.63-24.54,9.93
				c-16.61,2.42-18.89-15.02-12.79-22.08c8.2-9.51,33.85-6.79,47.53-4.77c45.25,6.66,52.63,52.51,39.85,78.11
				c-15.36,30.79-52.02,51.1-91.48,60.07C724.97,866.45,677.93,881.6,655.98,860.61z"/>
			<g>
				<path class="st3" d="M664.89,883.72c-46.57-42.04-7.93-88.52,33.55-112.62c44.11-25.62,126.36,19.24,158.1-24.35
					c20.88-28.68-10.26-76.26,49.94-77.25c27.15-0.45,62.68,18.22,61.72,49.07c-13.25-14.58-33.96-36.65-53.4-22.9
					c-17.45,12.34-2.94,33.61,1.2,51.55c10.35,44.92-28.43,122.76-85.15,111.18c-21.14-4.32-46.51-28.7-67.48-18
					c-27.27,13.92-2.8,41.41-8.71,62.99C744.08,942.03,651.95,925.51,664.89,883.72z"/>
			</g>
			<path class="st2" d="M670.06,896.91c-14.33-15.61,0.14-44.3,10.73-55.82c12.22-13.29,26.52-24.05,50.35-22.59
				c22.38,1.37,37.6,12.17,59.6,15.58c26.1,4.05,40.56-20.84,30.34-39.88c-15.37-28.61-46.03,2.27-25.97,6.87
				c-17.04,0.44-17.12-16.89-10.08-23.09c9.47-8.35,34.94-2.71,48.47,0.85c44.73,11.77,46.36,57.48,30.24,81.05
				c-19.37,28.34-58.86,43.96-99.73,48.16C738.8,910.64,689.51,920,670.06,896.91z"/>
		</g>
		<g>
			<path class="st4" d="M732.43,877.72c-24.08-52.53-28.46-116.01-52.53-168.54c-15.32-30.64-35.02-35.02-72.23-39.4
				c-23.32-4.24-50.22-9.5-77.24-12.81c-27.02,3.31-53.93,8.57-77.24,12.81c-37.21,4.38-56.91,8.76-72.23,39.4
				c-24.08,52.53-28.46,116.01-52.53,168.54c-28.45,63.48-109.44,70.04-76.61,153.22c35.02,89.74,100.69,26.27,155.41-4.38
				c33.91-21.41,80.9-19.55,123.2-18.13c14.25-0.48,29.03-1,43.67-0.67c22.23,0.5,44.11,2.98,63.28,10.6
				c5.68,2.26,11.12,4.96,16.26,8.21c54.72,30.64,120.39,94.12,155.41,4.38C841.88,947.76,760.89,941.2,732.43,877.72z"/>
		</g>
		<g>
			<path class="st5" d="M607.67,669.78c-23.32-4.24-50.22-9.5-77.24-12.81c-27.02,3.31-53.93,8.57-77.24,12.81
				c-37.21,4.38-56.91,8.76-72.23,39.4c-0.12,0.27-0.23,0.55-0.36,0.82c23.18,33.89,58.47,58.79,100.12,62.12
				c32.83,4.38,67.85,2.19,96.31-10.94c19.7-8.76,43.78-6.57,59.1,0c25.05,9.7,48.32,22.38,71,36.18
				c-7.44-30.3-14.65-60.73-27.23-88.18C664.58,678.53,644.88,674.15,607.67,669.78z"/>
		</g>
		<g>
			<g>
				<path class="st6" d="M459.77,235.39c-56.38,63.9,63.9,35.71,92.09,5.64c24.43-26.31,41.35-82.7-9.4-48.87
					c-28.19,20.67-67.66,26.31-90.21,50.75"/>
			</g>
			<g>
				<path class="st7" d="M462.33,202.17"/>
			</g>
			<g>
				<path class="st7" d="M468.54,195.96c-46.56,52.78,52.77,29.49,76.06,4.66c20.18-21.73,34.15-68.3-7.76-40.36"/>
			</g>
			<g>
				<path class="st7" d="M491.26,164.07c-7.05-19.73,0-29.6,8.46-46.52c9.87-19.74,9.87-38.06,14.1-56.39
					c14.09,11.28,33.83,42.29,29.6,63.43c-2.82,18.32-31.01,35.24-50.74,42.29"/>
			</g>
			<g>
				<path class="st6" d="M471.44,168.94"/>
			</g>
			<g>
				<path class="st6" d="M531.76,135.02l-55.29,28.9c-37.69,42.72,42.72,23.87,61.57,3.77C554.37,150.1,565.68,112.4,531.76,135.02z
					"/>
			</g>
		</g>
		<g>
			<g>
				<path class="st4" d="M510.16,336.43c-59.49-15.45-108.77-31.6-156.3-67.34c-53.8-37.37-82.91-28.23-64.74,43.34
					c8.33,32.25,45.98,118.9,85.18,122.4c39.2,3.5,105.81-72.78,131.92-96.08"/>
			</g>
			<g>
				<path class="st8" d="M365.71,324.72c-6.33-9.78-14.58-17.83-24.07-23.99c-16.05-9.34-29.49-20.23-46.08-27.49
					c-3.74-1.77-7.53-3.39-11.35-4.8c-1.4,10.49,0.1,25.06,4.91,43.99c8.33,32.25,45.98,118.9,85.18,122.4
					c3.87,0.35,8.01-0.1,12.35-1.18c3.48-14.53,5.36-29.4,5.18-44.49C391.18,366.07,379.06,344.45,365.71,324.72z"/>
			</g>
		</g>
		<g>
			<g>
				<path class="st4" d="M530.43,325.96c59.49-15.45,108.77-31.6,156.3-67.34c53.8-37.37,82.91-28.23,64.74,43.34
					c-8.33,32.24-45.98,118.9-85.18,122.4c-39.2,3.5-105.81-72.78-131.92-96.08"/>
			</g>
			<g>
				<path class="st8" d="M674.88,314.25c6.33-9.78,14.59-17.83,24.07-23.99c16.05-9.34,29.49-20.23,46.07-27.49
					c3.75-1.77,7.53-3.39,11.35-4.8c1.39,10.49-0.1,25.06-4.91,43.99c-8.33,32.24-45.98,118.9-85.18,122.4
					c-3.87,0.35-8.01-0.1-12.36-1.18c-3.47-14.53-5.36-29.4-5.18-44.49C649.41,355.61,661.53,333.98,674.88,314.25z"/>
			</g>
		</g>
		<g>
			<path class="st4" d="M728.47,472.54c-19.7-75.51-32.83-134.61-114.91-151.02c-78.8-19.7-174.01-6.57-229.82,55.81
				c-49.25,137.89-95.21,315.18,95.21,364.43c62.38,16.41,180.57-3.28,226.53-49.25C758.02,639.98,741.6,538.2,728.47,472.54z"/>
		</g>
		<g>
			<g>
				<path class="st3" d="M673.85,279.64c-29.56-10.53-67-0.51-92.58,14.47c-32.41,18.43-75.27,48.95-97.66,80.5l7.81-4.57
					c-8.69,7.08-7.95,12.97,0.01,19.16c18.87,16.79,66.01-8.28,83.1-15.22c28.35-9.9,55.08-10.25,75.67,8.53
					c5.58-9.76,10.95-19.67,16.25-29.51C679.79,328.54,679.57,304.09,673.85,279.64z"/>
			</g>
			<path class="st3" d="M337.67,477.44c0.75-0.02,1.52-0.09,2.31-0.24C339.2,477.31,338.43,477.38,337.67,477.44z"/>
			<path class="st2" d="M673.88,279.79c-8.49-5.58-17.9,2.17-25.49-11.46c-15.62-28.02-18.97-50.21-54.6-61.12
				c-29.4-9.01-59.47-11.51-80.98,16.28c-12.43,16.07-14.81,39.32-22.37,58.15c-27.77,69.16-87.48-1.08-131.86,34.56
				c-53.81,43.22-21.59,130.99,42.7,114.86c-10.22-1.03-25.44-8.26-20.17-21.64c5.75-14.62,28.49-8.61,38.37-4.11
				c32.57,14.83,65.94,50.73,100.44,15.78c12.66-12.83,19.38-30.78,31.29-37.01c14.86-7.77,18.98-6.23,25.14,3.17
				c9.6,14.64,35.93,36.59,54.51,26.55c20.45-11.06,24.46-40.15,35.58-60.8C679.76,328.59,694.81,293.56,673.88,279.79z"/>
			<path class="st3" d="M521.18,342.89c2.65-15.01,2.6-30.15,4.09-45.11c1.27-12.7,7.72-29.96,4.02-49.04
				c-11.74-20.54-70.55-10.64-84.68,3.79c-32.83,33.54-15.79,90.34-37.63,127.46c-9.01,15.31-30.21,31.8-46.85,35.49
				c-18.71,4.13-28.02-4.38-42.51,10.82c-17.48,18.34-9.32,53.51,20.05,51.14c-13.31,0.45-17.57-17.64-9-26.36
				c12.32-12.55,53.3-3.76,69.21-6.11C461.23,435.64,509.54,408.84,521.18,342.89z"/>
		</g>
		<polygon class="st5" points="527.73,856.46 560.9,856.46 553.28,1007.77 527.73,1008.34 		"/>
		<g>
			<path class="st4" d="M551.23,939.54c1.58-12.57,3.05-25.2,4.11-37.74C552.74,914.29,551.25,927.08,551.23,939.54z"/>
		</g>
		<g>
			<g>
				<path class="st5" d="M521.52,1012.38c-0.64-13.26-1.91-26.59-1.74-38.16c0.56-37.46,3.06-77.33-0.74-114.34l-163.14,18.95
					c30.02,32.49,16.99,105.54,38.26,155.46C431.65,1010.71,478.04,1007.21,521.52,1012.38z"/>
			</g>
			<g>
				<path class="st4" d="M531.79,856l-176.15,20.31c52.06,56.98,18.34,242.97,150.63,202.68c40.47-13.06,25.88-69.44,26.39-107.33
					c0.18-13.8,0.63-27.92,0.93-42.1c-1.27-12.54-1.1-25.56,0.19-38.39C533.56,879.27,532.97,867.49,531.79,856z"/>
			</g>
			<g>
				<path class="st3" d="M406.52,1031.21c15.31,39.42,41.31,65.47,99.76,47.8c25.76-8.25,29.24-33.82,28.51-60.97L406.52,1031.21z"
					/>
			</g>
		</g>
		<g>
			<g>
				<path class="st5" d="M556.53,1012.7c1.67-13.17,3.98-26.35,4.71-37.91c2.37-37.39,2.99-77.33,9.67-113.94l161.16,31.63
					c-32.46,30.05-25.18,103.89-50.29,152C646.25,1018.06,600.28,1010.94,556.53,1012.7z"/>
			</g>
			<g>
				<path class="st4" d="M558.5,856L732.52,890c-56.35,52.74-37.27,240.8-166,190.3c-39.32-16.18-20.37-71.24-17.92-109.06
					c0.89-13.77,1.55-27.88,2.36-42.05c2.24-12.4,3.1-25.4,2.81-38.29C554.93,879.06,556.42,867.37,558.5,856z"/>
			</g>
			<g>
				<path class="st3" d="M669.71,1040.46c-18.34,38.11-46.29,62.05-103.19,39.87c-25.04-10.23-26.51-36-23.66-63.02L669.71,1040.46z
					"/>
			</g>
		</g>
		<g>
			<path class="st3" d="M283.1,932.09c-27.82,24.76-51.83,46.81-31.29,98.84c25.64,65.7,67.7,49.28,109.87,23.74
				C347.8,1003,323.49,955.48,283.1,932.09z"/>
		</g>
		<g>
			<path class="st3" d="M767.34,922.72c-11.23,6.07-21.52,14-30.52,24.5c-25.09,30.99-43.19,64.97-47.64,101.26
				c45.41,28.62,92.2,53.34,119.87-17.55C832.12,972.47,798.96,951.86,767.34,922.72z"/>
		</g>
		<g>
			<path class="st9" d="M663.79,638.94c0-59.41-51.57-57.72-125.23-57.72c-73.65,0-141.49-1.69-141.49,57.72
				c0,59.41,59.71,107.57,133.36,107.57C604.08,746.51,663.79,698.35,663.79,638.94z"/>
			<g>
				<path class="st10" d="M461.84,629.88c4.59,8.95,4.33,18.25-0.58,20.76c-4.9,2.51-12.6-2.71-17.18-11.67
					c-4.58-8.96-4.33-18.25,0.57-20.76C449.56,615.7,457.25,620.93,461.84,629.88z"/>
				<path class="st10" d="M428.97,629.19c0,0,0-0.18-0.01-0.51c0.01-0.33-0.02-0.82,0.02-1.43c0.02-0.62,0.05-1.37,0.16-2.23
					c0.09-0.86,0.24-1.83,0.48-2.89c0.29-1.05,0.62-2.21,1.22-3.37c0.6-1.16,1.38-2.34,2.42-3.37c1.04-1.02,2.26-1.91,3.58-2.61
					c0.33-0.17,0.67-0.32,1-0.49c0.34-0.17,0.68-0.32,1.02-0.44l1.04-0.39l0.98-0.34c0.34-0.11,0.63-0.22,1.01-0.32l1.11-0.29
					c0.37-0.1,0.74-0.17,1.11-0.22c0.37-0.06,0.74-0.13,1.11-0.17c1.49-0.16,3-0.1,4.43,0.15c1.42,0.28,2.72,0.77,3.87,1.33
					c1.13,0.59,2.13,1.2,3,1.84c0.87,0.62,1.62,1.23,2.27,1.78c0.66,0.54,1.21,1.04,1.67,1.45c0.91,0.82,1.41,1.32,1.41,1.32
					s-0.66-0.24-1.79-0.73c-0.56-0.25-1.25-0.54-2.01-0.9c-0.38-0.18-0.79-0.36-1.22-0.55c-0.43-0.19-0.87-0.4-1.34-0.6
					c-0.93-0.42-1.94-0.8-2.99-1.16c-1.06-0.32-2.17-0.57-3.31-0.69c-1.15-0.08-2.33-0.03-3.54,0.14c-0.6,0.12-1.23,0.23-1.82,0.39
					l-0.89,0.24c-0.3,0.07-0.65,0.22-0.97,0.32l-0.98,0.33l-0.9,0.33c-0.61,0.2-1.17,0.47-1.74,0.71c-1.11,0.54-2.12,1.16-3.01,1.87
					c-0.89,0.72-1.62,1.56-2.26,2.43c-0.65,0.87-1.12,1.82-1.57,2.7c-0.42,0.91-0.79,1.76-1.1,2.54c-0.3,0.79-0.56,1.48-0.77,2.04
					C429.23,628.53,428.97,629.19,428.97,629.19z"/>
			</g>
			<g>
				<path class="st10" d="M597.48,628.42c-4.59,8.95-4.33,18.25,0.57,20.76c4.9,2.51,12.6-2.71,17.18-11.67
					c4.59-8.96,4.33-18.25-0.58-20.76C609.76,614.24,602.06,619.46,597.48,628.42z"/>
				<path class="st10" d="M630.35,627.72c0,0,0-0.18,0.01-0.51c-0.01-0.33,0.02-0.81-0.02-1.43c-0.02-0.62-0.06-1.37-0.16-2.23
					c-0.09-0.86-0.24-1.83-0.48-2.89c-0.29-1.05-0.62-2.21-1.22-3.37c-0.6-1.15-1.38-2.34-2.42-3.37c-1.03-1.02-2.26-1.91-3.57-2.62
					c-0.33-0.17-0.67-0.32-1-0.49c-0.34-0.17-0.68-0.32-1.02-0.44l-1.04-0.39l-0.98-0.34c-0.34-0.1-0.63-0.22-1.01-0.32l-1.11-0.29
					c-0.37-0.1-0.74-0.17-1.11-0.22c-0.37-0.06-0.74-0.12-1.11-0.16c-1.49-0.16-3.01-0.1-4.43,0.15c-1.42,0.28-2.72,0.77-3.87,1.33
					c-1.13,0.59-2.14,1.2-3,1.83c-0.88,0.62-1.62,1.24-2.28,1.78c-0.66,0.54-1.21,1.04-1.67,1.45c-0.91,0.82-1.41,1.32-1.41,1.32
					s0.66-0.24,1.79-0.73c0.56-0.25,1.25-0.54,2.01-0.9c0.38-0.18,0.79-0.36,1.22-0.55c0.43-0.19,0.87-0.4,1.34-0.6
					c0.93-0.42,1.94-0.8,2.99-1.16c1.06-0.32,2.17-0.57,3.31-0.69c1.15-0.08,2.33-0.03,3.54,0.14c0.6,0.12,1.23,0.22,1.82,0.39
					l0.89,0.24c0.29,0.07,0.65,0.22,0.96,0.32l0.98,0.33l0.9,0.32c0.61,0.21,1.17,0.47,1.74,0.72c1.11,0.54,2.12,1.16,3.01,1.87
					c0.89,0.72,1.62,1.56,2.25,2.43c0.65,0.87,1.12,1.82,1.58,2.7c0.42,0.91,0.79,1.76,1.09,2.54c0.3,0.79,0.56,1.47,0.77,2.04
					C630.08,627.06,630.35,627.72,630.35,627.72z"/>
			</g>
		</g>
		<g>
			<path class="st11" d="M459.92,495.97c1.94,23.49-10.3,43.68-27.34,45.09c-17.04,1.41-32.43-16.5-34.37-39.99
				c-1.94-23.49,10.3-43.68,27.34-45.09C442.59,454.57,457.98,472.47,459.92,495.97z"/>
			<path class="st4" d="M425.99,482.25c0.5,6.05-4,11.35-10.05,11.85c-6.05,0.5-11.36-4-11.86-10.05c-0.5-6.05,4-11.36,10.05-11.86
				C420.19,471.7,425.49,476.2,425.99,482.25z"/>
		</g>
		<g>
			<path class="st11" d="M667.17,490.95c-5.94,22.81-24.16,37.82-40.71,33.51c-16.55-4.31-25.15-26.29-19.21-49.1
				c5.94-22.81,24.16-37.82,40.71-33.51C664.5,446.15,673.1,468.14,667.17,490.95z"/>
			<path class="st4" d="M640.77,467.71c-1.53,5.87-7.53,9.39-13.4,7.87c-5.87-1.53-9.4-7.53-7.87-13.4
				c1.53-5.87,7.53-9.39,13.4-7.87C638.77,455.84,642.3,461.84,640.77,467.71z"/>
		</g>
	</g>
	<g>
		<path class="st4" d="M142.7,766.91c-1.39-3.23-4.59-5.85-8.25-5.59c-3.22,0.23-5.45,2.37-6.69,5.08
			c-5.12-2.18-11.95-0.89-13.1,5.42c-1.8,9.87,10.73,13.85,18.24,14.84C143.22,788.02,145.78,774.08,142.7,766.91z M136.7,777.72
			c-0.59,1.94-1.89,2.47-3.79,2.34c-2.29-0.16-5.02-1.35-7.16-2.13c-1.88-0.68-3.91-1.77-4.54-3.78c-0.49-1.55,0.3-1.88,1.56-2.18
			c1.11-0.26,3.02,0.22,3.73,1.27c1.64,2.42,4.89,1.59,5.94-0.33c0.35-0.37,0.6-0.82,0.68-1.34c0.17-1.12,0.38-2.15,0.97-3.12
			c-0.01,0.02,0.56-0.47,0.52-0.47c0.09-0.04,0.18-0.06,0.24-0.07c0.24-0.01,0.45,0.01,0.77,0.27c0.7,0.57,1.07,1.31,1.34,2.21
			C137.67,772.65,137.39,775.48,136.7,777.72z"/>
		<path class="st4" d="M174.62,351.83c-1.39-3.23-4.59-5.85-8.25-5.59c-3.22,0.23-5.45,2.37-6.69,5.08
			c-5.12-2.18-11.95-0.89-13.1,5.42c-1.8,9.87,10.73,13.85,18.24,14.84C175.14,372.93,177.7,358.99,174.62,351.83z M168.62,362.63
			c-0.59,1.94-1.89,2.47-3.79,2.34c-2.29-0.16-5.02-1.35-7.16-2.13c-1.88-0.68-3.91-1.77-4.54-3.78c-0.49-1.55,0.3-1.88,1.56-2.18
			c1.11-0.26,3.02,0.22,3.73,1.27c1.64,2.42,4.89,1.59,5.94-0.33c0.35-0.37,0.6-0.82,0.68-1.34c0.17-1.12,0.38-2.15,0.97-3.12
			c-0.01,0.02,0.56-0.47,0.52-0.47c0.09-0.04,0.18-0.06,0.24-0.07c0.24-0.01,0.45,0.01,0.77,0.27c0.7,0.57,1.07,1.31,1.34,2.21
			C169.59,357.56,169.31,360.39,168.62,362.63z"/>
		<path class="st4" d="M296.79,94.39c-1.39-3.23-4.59-5.85-8.25-5.59c-3.22,0.23-5.45,2.37-6.69,5.08
			c-5.12-2.18-11.95-0.89-13.1,5.42c-1.8,9.87,10.73,13.85,18.24,14.84C297.3,115.49,299.87,101.55,296.79,94.39z M290.79,105.2
			c-0.59,1.94-1.89,2.47-3.79,2.34c-2.29-0.16-5.02-1.35-7.16-2.13c-1.88-0.68-3.91-1.77-4.54-3.78c-0.49-1.55,0.3-1.88,1.56-2.18
			c1.11-0.26,3.02,0.22,3.73,1.27c1.65,2.42,4.89,1.59,5.94-0.33c0.35-0.37,0.6-0.82,0.68-1.34c0.17-1.12,0.38-2.15,0.97-3.12
			c-0.01,0.02,0.56-0.47,0.52-0.47c0.09-0.04,0.18-0.06,0.24-0.07c0.24-0.01,0.45,0.01,0.77,0.27c0.7,0.57,1.07,1.31,1.34,2.21
			C291.76,100.12,291.48,102.95,290.79,105.2z"/>
		<path class="st4" d="M235.97,605.21c-1.39-3.23-4.59-5.85-8.25-5.59c-3.22,0.23-5.45,2.37-6.69,5.08
			c-5.12-2.18-11.95-0.89-13.1,5.42c-1.8,9.87,10.72,13.85,18.24,14.84C236.48,626.31,239.04,612.37,235.97,605.21z M229.97,616.01
			c-0.59,1.94-1.89,2.47-3.79,2.34c-2.29-0.16-5.02-1.35-7.16-2.13c-1.88-0.68-3.91-1.77-4.54-3.78c-0.49-1.55,0.3-1.88,1.56-2.18
			c1.11-0.26,3.02,0.22,3.73,1.27c1.64,2.42,4.89,1.59,5.94-0.33c0.35-0.37,0.6-0.82,0.68-1.34c0.17-1.12,0.38-2.15,0.97-3.12
			c-0.01,0.02,0.56-0.47,0.52-0.47c0.09-0.04,0.18-0.06,0.24-0.07c0.24-0.01,0.45,0.01,0.77,0.27c0.7,0.57,1.07,1.31,1.34,2.21
			C230.94,610.94,230.65,613.77,229.97,616.01z"/>
		<path class="st4" d="M70.78,876.28c-1.39-3.23-4.59-5.85-8.25-5.59c-3.22,0.23-5.45,2.37-6.69,5.08
			c-5.12-2.18-11.95-0.89-13.1,5.42c-1.8,9.87,10.73,13.85,18.24,14.84C71.3,897.39,73.86,883.45,70.78,876.28z M64.78,887.09
			c-0.59,1.94-1.89,2.47-3.79,2.34c-2.29-0.16-5.02-1.35-7.16-2.13c-1.88-0.68-3.91-1.77-4.54-3.78c-0.49-1.55,0.3-1.88,1.56-2.18
			c1.11-0.26,3.02,0.22,3.73,1.27c1.64,2.42,4.89,1.59,5.94-0.33c0.35-0.37,0.6-0.82,0.68-1.34c0.17-1.12,0.38-2.15,0.97-3.12
			c-0.01,0.02,0.56-0.47,0.52-0.47c0.09-0.04,0.18-0.06,0.24-0.07c0.24-0.01,0.45,0.01,0.77,0.27c0.7,0.57,1.07,1.31,1.34,2.21
			C65.75,882.02,65.47,884.85,64.78,887.09z"/>
		<path class="st4" d="M307.17,992.23c-1.39-3.23-4.59-5.85-8.25-5.59c-3.22,0.23-5.45,2.37-6.69,5.08
			c-5.12-2.18-11.95-0.89-13.1,5.42c-1.8,9.87,10.72,13.85,18.24,14.84C307.68,1013.34,310.24,999.4,307.17,992.23z M301.17,1003.04
			c-0.59,1.94-1.89,2.47-3.79,2.34c-2.29-0.16-5.02-1.35-7.16-2.13c-1.88-0.68-3.91-1.77-4.54-3.78c-0.49-1.55,0.3-1.88,1.56-2.18
			c1.11-0.26,3.02,0.22,3.73,1.27c1.64,2.42,4.89,1.59,5.94-0.33c0.35-0.37,0.6-0.82,0.68-1.34c0.17-1.12,0.38-2.15,0.97-3.12
			c-0.01,0.02,0.56-0.47,0.52-0.47c0.09-0.04,0.18-0.06,0.24-0.07c0.24-0.01,0.45,0.01,0.77,0.27c0.7,0.57,1.07,1.31,1.34,2.21
			C302.14,997.97,301.85,1000.79,301.17,1003.04z"/>
		<path class="st4" d="M372.7,697.16c-4.39-10.23-14.55-18.54-26.14-17.72c-10.21,0.71-17.27,7.52-21.19,16.1
			c-16.22-6.9-37.87-2.81-41.51,17.17c-5.71,31.29,34,43.9,57.82,47.04C374.32,764.07,382.45,719.87,372.7,697.16z M353.68,731.42
			c-1.88,6.15-5.98,7.83-12,7.4c-7.25-0.52-15.9-4.28-22.7-6.74c-5.95-2.15-12.38-5.62-14.38-11.99c-1.54-4.9,0.94-5.96,4.95-6.92
			c3.52-0.84,9.56,0.7,11.82,4.02c5.21,7.68,15.5,5.03,18.83-1.03c1.11-1.17,1.91-2.6,2.16-4.26c0.54-3.56,1.22-6.81,3.07-9.9
			c-0.04,0.06,1.79-1.49,1.65-1.5c0.28-0.13,0.58-0.2,0.76-0.23c0.75-0.04,1.43,0.02,2.44,0.84c2.22,1.81,3.39,4.17,4.26,6.99
			C356.75,715.35,355.85,724.3,353.68,731.42z"/>
		<path class="st4" d="M351.15,424.28c-4.39-10.23-14.55-18.54-26.14-17.72c-10.21,0.71-17.27,7.52-21.19,16.1
			c-16.22-6.9-37.87-2.81-41.51,17.17c-5.71,31.29,34,43.9,57.82,47.04C352.78,491.18,360.9,446.99,351.15,424.28z M332.13,458.54
			c-1.88,6.15-5.98,7.83-12,7.4c-7.25-0.52-15.9-4.28-22.7-6.74c-5.95-2.15-12.38-5.62-14.38-11.99c-1.54-4.9,0.94-5.96,4.95-6.92
			c3.52-0.84,9.56,0.7,11.82,4.02c5.21,7.68,15.5,5.03,18.83-1.03c1.11-1.17,1.91-2.6,2.16-4.26c0.54-3.56,1.22-6.81,3.07-9.9
			c-0.04,0.06,1.79-1.49,1.65-1.5c0.28-0.13,0.58-0.2,0.76-0.23c0.75-0.04,1.43,0.02,2.44,0.84c2.22,1.81,3.39,4.17,4.26,6.99
			C335.21,442.46,334.31,451.42,332.13,458.54z"/>
		<path class="st4" d="M471.55,248.1c-4.39-10.23-14.55-18.54-26.14-17.72c-10.21,0.71-17.27,7.52-21.19,16.1
			c-16.22-6.9-37.87-2.81-41.51,17.17c-5.71,31.29,34,43.9,57.82,47.04C473.18,315.01,481.3,270.81,471.55,248.1z M452.53,282.36
			c-1.88,6.15-5.98,7.83-12,7.4c-7.25-0.52-15.9-4.28-22.7-6.74c-5.95-2.15-12.38-5.62-14.38-11.99c-1.54-4.9,0.94-5.96,4.95-6.92
			c3.52-0.84,9.56,0.7,11.82,4.02c5.21,7.68,15.5,5.03,18.83-1.03c1.11-1.17,1.91-2.6,2.16-4.26c0.54-3.56,1.22-6.81,3.07-9.9
			c-0.04,0.06,1.79-1.49,1.65-1.5c0.28-0.13,0.58-0.2,0.76-0.23c0.75-0.04,1.43,0.02,2.44,0.84c2.22,1.81,3.39,4.17,4.26,6.99
			C455.6,266.29,454.7,275.24,452.53,282.36z"/>
		<path class="st4" d="M146.69,78.95c-4.39-10.23-14.55-18.54-26.14-17.72c-10.21,0.71-17.27,7.52-21.19,16.1
			c-16.22-6.9-37.87-2.81-41.51,17.17c-5.71,31.29,34,43.9,57.82,47.04C148.32,145.85,156.44,101.66,146.69,78.95z M127.67,113.21
			c-1.88,6.15-5.98,7.83-12,7.4c-7.25-0.52-15.9-4.28-22.7-6.74c-5.95-2.15-12.38-5.62-14.38-11.99c-1.54-4.9,0.94-5.96,4.95-6.92
			c3.52-0.84,9.56,0.7,11.82,4.02c5.21,7.68,15.5,5.03,18.83-1.03c1.11-1.17,1.91-2.6,2.16-4.26c0.54-3.56,1.22-6.81,3.07-9.9
			c-0.04,0.06,1.79-1.49,1.65-1.5c0.28-0.13,0.58-0.2,0.76-0.23c0.75-0.04,1.43,0.02,2.44,0.84c2.22,1.81,3.39,4.17,4.26,6.99
			C130.74,97.13,129.84,106.09,127.67,113.21z"/>
		<path class="st4" d="M125.35,549.43c-4.39-10.23-14.55-18.54-26.14-17.72c-10.21,0.71-17.27,7.52-21.19,16.1
			c-16.22-6.9-37.87-2.81-41.51,17.17c-5.71,31.29,34,43.9,57.82,47.04C126.98,616.33,135.1,572.14,125.35,549.43z M106.33,583.69
			c-1.88,6.15-5.98,7.83-12,7.4c-7.25-0.52-15.9-4.28-22.7-6.74c-5.95-2.15-12.38-5.62-14.38-11.99c-1.54-4.9,0.94-5.96,4.95-6.92
			c3.52-0.84,9.56,0.7,11.82,4.02c5.21,7.68,15.5,5.03,18.83-1.03c1.11-1.17,1.91-2.6,2.16-4.26c0.54-3.56,1.22-6.81,3.07-9.9
			c-0.04,0.06,1.79-1.49,1.65-1.5c0.28-0.13,0.58-0.2,0.76-0.23c0.75-0.04,1.43,0.02,2.44,0.84c2.22,1.81,3.39,4.17,4.26,6.99
			C109.4,567.62,108.5,576.57,106.33,583.69z"/>
		<path class="st4" d="M203.9,943.8c-4.39-10.23-14.55-18.54-26.14-17.72c-10.21,0.71-17.27,7.52-21.19,16.1
			c-16.22-6.9-37.87-2.81-41.51,17.17c-5.71,31.29,34,43.9,57.82,47.04C205.53,1010.7,213.65,966.5,203.9,943.8z M184.88,978.06
			c-1.88,6.15-5.98,7.83-12,7.4c-7.25-0.52-15.9-4.28-22.7-6.74c-5.95-2.15-12.38-5.62-14.38-11.99c-1.54-4.9,0.94-5.96,4.95-6.92
			c3.52-0.84,9.56,0.7,11.82,4.02c5.21,7.68,15.5,5.03,18.83-1.03c1.11-1.17,1.91-2.6,2.16-4.26c0.54-3.56,1.22-6.81,3.07-9.9
			c-0.04,0.06,1.79-1.49,1.65-1.5c0.28-0.13,0.58-0.2,0.76-0.23c0.75-0.04,1.43,0.02,2.44,0.84c2.22,1.81,3.39,4.17,4.26,6.99
			C187.95,961.98,187.05,970.94,184.88,978.06z"/>
		<path class="st4" d="M245.01,814.45c-1.83-4.26-6.06-7.72-10.89-7.39c-4.25,0.3-7.19,3.13-8.83,6.71
			c-6.76-2.87-15.78-1.17-17.3,7.16c-2.38,13.04,14.16,18.29,24.09,19.6C245.69,842.32,249.07,823.91,245.01,814.45z M237.09,828.72
			c-0.78,2.56-2.49,3.26-5,3.08c-3.02-0.22-6.63-1.78-9.46-2.81c-2.48-0.89-5.16-2.34-5.99-5c-0.64-2.04,0.39-2.48,2.06-2.88
			c1.47-0.35,3.98,0.29,4.92,1.68c2.17,3.2,6.46,2.1,7.85-0.43c0.46-0.49,0.8-1.08,0.9-1.77c0.23-1.48,0.51-2.84,1.28-4.13
			c-0.02,0.02,0.75-0.62,0.69-0.63c0.12-0.05,0.24-0.08,0.32-0.09c0.31-0.02,0.6,0.01,1.02,0.35c0.92,0.75,1.41,1.74,1.78,2.91
			C238.37,822.02,237.99,825.75,237.09,828.72z"/>
		<path class="st4" d="M532.47,1070.26c-1.83-4.26-6.06-7.72-10.89-7.39c-4.25,0.3-7.19,3.13-8.83,6.71
			c-6.76-2.87-15.78-1.17-17.3,7.16c-2.38,13.04,14.16,18.29,24.09,19.6C533.15,1098.14,536.54,1079.72,532.47,1070.26z
			 M524.55,1084.54c-0.78,2.56-2.49,3.26-5,3.08c-3.02-0.22-6.63-1.78-9.46-2.81c-2.48-0.89-5.16-2.34-5.99-4.99
			c-0.64-2.04,0.39-2.48,2.06-2.88c1.47-0.35,3.98,0.29,4.92,1.68c2.17,3.2,6.46,2.1,7.85-0.43c0.46-0.49,0.8-1.08,0.9-1.78
			c0.23-1.48,0.51-2.84,1.28-4.13c-0.02,0.02,0.75-0.62,0.69-0.63c0.12-0.05,0.24-0.08,0.32-0.09c0.31-0.02,0.6,0.01,1.02,0.35
			c0.92,0.75,1.41,1.74,1.78,2.91C525.83,1077.84,525.45,1081.57,524.55,1084.54z"/>
		<path class="st4" d="M355.28,564.26c-2.24-5.22-7.43-9.47-13.35-9.05c-5.21,0.37-8.82,3.84-10.82,8.22
			c-8.28-3.52-19.34-1.44-21.2,8.77c-2.91,15.98,17.36,22.42,29.53,24.03C356.11,598.43,360.26,575.86,355.28,564.26z
			 M345.56,581.76c-0.96,3.14-3.06,4-6.13,3.78c-3.7-0.26-8.12-2.19-11.59-3.44c-3.04-1.1-6.32-2.87-7.35-6.12
			c-0.79-2.5,0.48-3.04,2.53-3.53c1.8-0.43,4.88,0.36,6.04,2.06c2.66,3.92,7.92,2.57,9.62-0.53c0.57-0.6,0.98-1.33,1.1-2.18
			c0.28-1.82,0.62-3.48,1.57-5.06c-0.02,0.03,0.91-0.76,0.84-0.77c0.14-0.06,0.3-0.1,0.39-0.12c0.38-0.02,0.73,0.01,1.25,0.43
			c1.13,0.92,1.73,2.13,2.18,3.57C347.13,573.55,346.67,578.12,345.56,581.76z"/>
		<path class="st4" d="M300.8,277.82c-2.24-5.22-7.43-9.47-13.35-9.05c-5.21,0.37-8.82,3.84-10.82,8.22
			c-8.28-3.52-19.34-1.44-21.2,8.77c-2.91,15.98,17.36,22.42,29.53,24.03C301.64,311.99,305.79,289.42,300.8,277.82z M291.09,295.32
			c-0.96,3.14-3.06,4-6.13,3.78c-3.7-0.26-8.12-2.19-11.59-3.44c-3.04-1.1-6.32-2.87-7.35-6.12c-0.79-2.5,0.48-3.04,2.53-3.53
			c1.8-0.43,4.88,0.36,6.04,2.06c2.66,3.92,7.92,2.57,9.62-0.53c0.57-0.6,0.98-1.33,1.1-2.18c0.28-1.82,0.62-3.48,1.57-5.06
			c-0.02,0.03,0.91-0.76,0.84-0.77c0.14-0.06,0.3-0.1,0.39-0.12c0.38-0.02,0.73,0.01,1.25,0.43c1.13,0.92,1.73,2.13,2.18,3.57
			C292.66,287.11,292.2,291.68,291.09,295.32z"/>
		<path class="st4" d="M74.41,277.82c-2.24-5.22-7.43-9.47-13.35-9.05c-5.21,0.37-8.82,3.84-10.82,8.22
			c-8.28-3.52-19.34-1.44-21.2,8.77c-2.91,15.98,17.36,22.42,29.53,24.03C75.25,311.99,79.4,289.42,74.41,277.82z M64.7,295.32
			c-0.96,3.14-3.06,4-6.13,3.78c-3.7-0.26-8.12-2.19-11.59-3.44c-3.04-1.1-6.32-2.87-7.35-6.12c-0.79-2.5,0.48-3.04,2.53-3.53
			c1.8-0.43,4.88,0.36,6.04,2.06c2.66,3.92,7.92,2.57,9.62-0.53c0.57-0.6,0.98-1.33,1.1-2.18c0.28-1.82,0.62-3.48,1.57-5.06
			c-0.02,0.03,0.91-0.76,0.84-0.77c0.14-0.06,0.3-0.1,0.39-0.12c0.38-0.02,0.73,0.01,1.25,0.43c1.13,0.92,1.73,2.13,2.18,3.57
			C66.27,287.11,65.81,291.68,64.7,295.32z"/>
		<path class="st4" d="M476.2,84.57c-2.24-5.22-7.43-9.47-13.35-9.05c-5.21,0.37-8.82,3.84-10.82,8.22
			c-8.28-3.52-19.34-1.44-21.2,8.77c-2.91,15.98,17.36,22.42,29.53,24.03C477.03,118.74,481.18,96.17,476.2,84.57z M466.48,102.07
			c-0.96,3.14-3.06,4-6.13,3.78c-3.7-0.26-8.12-2.19-11.59-3.44c-3.04-1.1-6.32-2.87-7.35-6.12c-0.79-2.5,0.48-3.04,2.53-3.53
			c1.8-0.43,4.88,0.36,6.04,2.06c2.66,3.92,7.92,2.57,9.62-0.53c0.57-0.6,0.98-1.33,1.1-2.18c0.28-1.82,0.62-3.48,1.57-5.06
			c-0.02,0.03,0.91-0.76,0.84-0.77c0.14-0.06,0.3-0.1,0.39-0.12c0.38-0.02,0.73,0.01,1.25,0.43c1.13,0.92,1.73,2.13,2.18,3.57
			C468.05,93.86,467.59,98.43,466.48,102.07z"/>
		<path class="st4" d="M89.82,1053.46c-1.83-4.26-6.06-7.72-10.89-7.39c-4.25,0.3-7.19,3.13-8.83,6.71
			c-6.76-2.87-15.78-1.17-17.3,7.16c-2.38,13.04,14.16,18.29,24.09,19.6C90.5,1081.33,93.88,1062.92,89.82,1053.46z M81.9,1067.73
			c-0.78,2.56-2.49,3.26-5,3.08c-3.02-0.22-6.63-1.78-9.46-2.81c-2.48-0.89-5.16-2.34-5.99-4.99c-0.64-2.04,0.39-2.48,2.06-2.88
			c1.47-0.35,3.98,0.29,4.92,1.68c2.17,3.2,6.46,2.1,7.84-0.43c0.46-0.49,0.8-1.08,0.9-1.78c0.23-1.48,0.51-2.84,1.28-4.13
			c-0.02,0.02,0.75-0.62,0.69-0.63c0.12-0.05,0.24-0.08,0.32-0.09c0.31-0.02,0.6,0.01,1.02,0.35c0.92,0.75,1.41,1.74,1.78,2.91
			C83.18,1061.03,82.8,1064.76,81.9,1067.73z"/>
		<path class="st4" d="M36.84,709.51c0.44-0.88,10.61-8.4,10.61-8.4v-13.49l11.05,7.07l13.04-7.07l-4.2,13.49l10.39,10.39H62.93
			l-5.64,14.81l-7.19-15.03L36.84,709.51z"/>
		<path class="st4" d="M129.21,226.28c0.44-0.88,10.61-8.4,10.61-8.4V204.4l11.05,7.07l13.04-7.07l-4.2,13.49l10.39,10.39H155.3
			l-5.64,14.81l-7.19-15.03L129.21,226.28z"/>
		<path class="st4" d="M637.52,297.15c0.44-0.88,10.61-8.4,10.61-8.4v-13.49l11.05,7.07l13.04-7.07l-4.2,13.49l10.39,10.39H663.6
			l-5.64,14.81l-7.19-15.03L637.52,297.15z"/>
		<path class="st4" d="M410.09,1032.37c0.44-0.88,10.61-8.4,10.61-8.4v-13.49l11.05,7.07l13.04-7.07l-4.2,13.49l10.39,10.39h-14.81
			l-5.64,14.81l-7.19-15.03L410.09,1032.37z"/>
		<path class="st4" d="M187.31,58.69c0.44-0.88,10.61-8.4,10.61-8.4V36.8l11.05,7.07l13.04-7.07l-4.2,13.49l10.39,10.39H213.4
			l-5.64,14.81l-7.19-15.03L187.31,58.69z"/>
		<path class="st4" d="M216.73,1087.98c0.31-0.61,7.33-5.8,7.33-5.8v-9.32l7.64,4.89l9.01-4.89l-2.9,9.32l7.18,7.18h-10.23
			l-3.89,10.23l-4.96-10.39L216.73,1087.98z"/>
		<path class="st4" d="M52.57,436.29c0.31-0.61,7.33-5.8,7.33-5.8v-9.32l7.64,4.89l9.01-4.89l-2.9,9.32l7.18,7.18H70.6L66.7,447.9
			l-4.96-10.39L52.57,436.29z"/>
		<path class="st4" d="M329.34,192.79c0.31-0.61,7.33-5.8,7.33-5.8v-9.32l7.64,4.89l9.01-4.89l-2.9,9.32l7.18,7.18h-10.23
			l-3.89,10.23l-4.96-10.39L329.34,192.79z"/>
		<path class="st4" d="M202.61,479.36c0.31-0.61,7.33-5.8,7.33-5.8v-9.32l7.64,4.89l9.01-4.89l-2.9,9.32l7.18,7.18h-10.23
			l-3.89,10.23l-4.96-10.39L202.61,479.36z"/>
		<g>
			<path class="st4" d="M989.41,790.46c7.52-0.99,20.04-4.97,18.24-14.84c-1.15-6.31-7.98-7.6-13.1-5.42
				c-1.24-2.71-3.47-4.85-6.69-5.08c-3.66-0.26-6.86,2.36-8.25,5.59C976.54,777.87,979.1,791.81,989.41,790.46z M985.35,774.16
				c0.27-0.89,0.64-1.64,1.34-2.21c0.32-0.26,0.53-0.28,0.77-0.27c0.06,0.01,0.15,0.03,0.24,0.07c-0.04,0.01,0.53,0.49,0.52,0.47
				c0.59,0.98,0.8,2,0.97,3.12c0.08,0.53,0.33,0.98,0.68,1.34c1.05,1.91,4.3,2.75,5.94,0.33c0.71-1.05,2.62-1.53,3.73-1.27
				c1.26,0.3,2.05,0.63,1.56,2.18c-0.63,2.01-2.66,3.1-4.54,3.78c-2.15,0.77-4.88,1.96-7.16,2.13c-1.9,0.14-3.19-0.4-3.79-2.34
				C984.93,779.27,984.65,776.44,985.35,774.16z"/>
			<path class="st4" d="M957.49,375.37c7.52-0.99,20.04-4.97,18.24-14.84c-1.15-6.31-7.98-7.6-13.1-5.42
				c-1.24-2.71-3.47-4.85-6.69-5.08c-3.66-0.26-6.86,2.36-8.25,5.59C944.62,362.78,947.19,376.73,957.49,375.37z M953.43,359.08
				c0.27-0.89,0.64-1.64,1.34-2.21c0.32-0.26,0.53-0.28,0.77-0.27c0.06,0.01,0.15,0.03,0.24,0.07c-0.04,0.01,0.53,0.49,0.52,0.47
				c0.59,0.98,0.8,2,0.97,3.12c0.08,0.53,0.33,0.98,0.68,1.34c1.05,1.91,4.3,2.75,5.94,0.33c0.71-1.05,2.62-1.53,3.73-1.27
				c1.26,0.3,2.05,0.63,1.56,2.18c-0.63,2.01-2.66,3.1-4.54,3.78c-2.15,0.77-4.88,1.96-7.16,2.13c-1.9,0.14-3.19-0.4-3.79-2.34
				C953.01,364.18,952.73,361.35,953.43,359.08z"/>
			<path class="st4" d="M835.32,117.93c7.52-0.99,20.04-4.97,18.24-14.84c-1.15-6.31-7.98-7.6-13.1-5.42
				c-1.24-2.71-3.47-4.85-6.69-5.08c-3.66-0.26-6.86,2.36-8.25,5.59C822.46,105.34,825.02,119.29,835.32,117.93z M831.26,101.64
				c0.27-0.89,0.64-1.64,1.34-2.21c0.32-0.26,0.53-0.28,0.77-0.27c0.06,0.01,0.15,0.03,0.24,0.07c-0.04,0.01,0.53,0.49,0.52,0.47
				c0.59,0.98,0.8,2,0.97,3.12c0.08,0.52,0.33,0.98,0.68,1.34c1.05,1.91,4.3,2.75,5.94,0.33c0.71-1.05,2.62-1.53,3.73-1.27
				c1.26,0.3,2.05,0.63,1.56,2.18c-0.63,2.01-2.66,3.1-4.54,3.78c-2.15,0.77-4.88,1.96-7.16,2.13c-1.9,0.14-3.19-0.4-3.79-2.34
				C830.85,106.74,830.56,103.92,831.26,101.64z"/>
			<path class="st4" d="M896.14,628.75c7.52-0.99,20.04-4.97,18.24-14.84c-1.15-6.31-7.98-7.6-13.1-5.42
				c-1.24-2.71-3.47-4.85-6.69-5.08c-3.66-0.26-6.86,2.36-8.25,5.59C883.28,616.16,885.84,630.11,896.14,628.75z M892.09,612.46
				c0.27-0.89,0.64-1.64,1.35-2.21c0.32-0.26,0.53-0.28,0.77-0.27c0.06,0.01,0.15,0.03,0.24,0.07c-0.04,0.01,0.53,0.49,0.52,0.47
				c0.59,0.98,0.8,2,0.97,3.12c0.08,0.53,0.33,0.98,0.68,1.34c1.05,1.91,4.3,2.75,5.94,0.33c0.71-1.05,2.62-1.53,3.73-1.27
				c1.26,0.3,2.05,0.63,1.56,2.18c-0.63,2.01-2.66,3.1-4.54,3.78c-2.15,0.77-4.88,1.96-7.16,2.13c-1.9,0.14-3.19-0.4-3.79-2.34
				C891.67,617.56,891.39,614.73,892.09,612.46z"/>
			<path class="st4" d="M1061.33,899.82c7.52-0.99,20.04-4.97,18.24-14.84c-1.15-6.31-7.98-7.6-13.1-5.42
				c-1.24-2.71-3.47-4.85-6.69-5.08c-3.66-0.26-6.86,2.36-8.25,5.59C1048.46,887.24,1051.03,901.18,1061.33,899.82z M1057.27,883.53
				c0.27-0.89,0.64-1.64,1.34-2.21c0.32-0.26,0.53-0.28,0.77-0.27c0.06,0.01,0.15,0.03,0.24,0.07c-0.04,0.01,0.53,0.49,0.52,0.47
				c0.59,0.98,0.8,2,0.97,3.12c0.08,0.53,0.33,0.98,0.68,1.34c1.05,1.91,4.3,2.75,5.94,0.33c0.71-1.05,2.62-1.53,3.73-1.27
				c1.26,0.3,2.05,0.63,1.56,2.18c-0.63,2.01-2.66,3.1-4.54,3.78c-2.15,0.77-4.88,1.96-7.16,2.13c-1.9,0.14-3.19-0.4-3.79-2.34
				C1056.85,888.64,1056.57,885.81,1057.27,883.53z"/>
			<path class="st4" d="M824.94,1015.77c7.52-0.99,20.04-4.97,18.24-14.84c-1.15-6.31-7.98-7.6-13.1-5.42
				c-1.24-2.71-3.47-4.85-6.69-5.08c-3.66-0.26-6.86,2.36-8.25,5.59C812.08,1003.19,814.64,1017.13,824.94,1015.77z M820.89,999.48
				c0.27-0.89,0.64-1.64,1.34-2.21c0.32-0.26,0.53-0.28,0.77-0.27c0.06,0.01,0.15,0.03,0.24,0.07c-0.04,0.01,0.53,0.49,0.52,0.47
				c0.59,0.98,0.8,2,0.97,3.12c0.08,0.52,0.33,0.98,0.68,1.34c1.05,1.91,4.3,2.75,5.94,0.33c0.71-1.05,2.62-1.53,3.73-1.27
				c1.26,0.3,2.05,0.63,1.56,2.18c-0.63,2.01-2.66,3.1-4.54,3.78c-2.15,0.77-4.88,1.96-7.16,2.13c-1.9,0.14-3.19-0.4-3.79-2.34
				C820.47,1004.59,820.19,1001.76,820.89,999.48z"/>
			<path class="st4" d="M667.68,1086.09c23.83-3.14,63.53-15.75,57.82-47.04c-3.65-19.99-25.29-24.07-41.51-17.17
				c-3.92-8.58-10.98-15.39-21.19-16.1c-11.59-0.81-21.74,7.5-26.14,17.72C626.9,1046.2,635.03,1090.4,667.68,1086.09z
				 M654.82,1034.45c0.87-2.83,2.04-5.19,4.26-6.99c1.01-0.82,1.69-0.88,2.44-0.84c0.18,0.03,0.48,0.1,0.76,0.23
				c-0.14,0.02,1.69,1.56,1.65,1.5c1.85,3.09,2.53,6.35,3.07,9.9c0.25,1.66,1.05,3.09,2.16,4.26c3.33,6.06,13.61,8.71,18.83,1.03
				c2.26-3.32,8.3-4.86,11.82-4.02c4,0.95,6.49,2.01,4.95,6.92c-2,6.36-8.43,9.84-14.38,11.99c-6.8,2.46-15.46,6.22-22.7,6.74
				c-6.02,0.43-10.13-1.25-12-7.4C653.5,1050.63,652.6,1041.68,654.82,1034.45z"/>
			<path class="st4" d="M802.19,490.67c23.83-3.14,63.53-15.75,57.82-47.04c-3.65-19.99-25.29-24.07-41.51-17.17
				c-3.92-8.58-10.98-15.39-21.19-16.1c-11.59-0.81-21.74,7.5-26.14,17.72C761.42,450.78,769.54,494.98,802.19,490.67z
				 M789.33,439.03c0.87-2.83,2.04-5.19,4.26-6.99c1.01-0.82,1.69-0.88,2.44-0.84c0.18,0.03,0.48,0.1,0.76,0.23
				c-0.13,0.02,1.69,1.56,1.65,1.5c1.85,3.09,2.53,6.35,3.07,9.9c0.25,1.66,1.05,3.1,2.16,4.26c3.33,6.06,13.61,8.71,18.83,1.03
				c2.26-3.32,8.3-4.86,11.82-4.02c4,0.95,6.49,2.01,4.95,6.92c-2,6.36-8.43,9.84-14.38,11.99c-6.8,2.46-15.46,6.22-22.7,6.74
				c-6.02,0.43-10.13-1.25-12-7.4C788.02,455.21,787.12,446.26,789.33,439.03z"/>
			<path class="st4" d="M549.54,185.67c23.83-3.14,63.53-15.75,57.82-47.04c-3.65-19.99-25.29-24.07-41.51-17.17
				c-3.92-8.58-10.98-15.39-21.19-16.1c-11.59-0.81-21.74,7.5-26.14,17.72C508.77,145.78,516.89,189.98,549.54,185.67z
				 M536.68,134.03c0.87-2.83,2.04-5.19,4.26-6.99c1.01-0.82,1.69-0.88,2.44-0.84c0.18,0.03,0.48,0.1,0.76,0.23
				c-0.14,0.02,1.69,1.56,1.65,1.5c1.85,3.09,2.53,6.35,3.07,9.9c0.25,1.66,1.05,3.1,2.16,4.26c3.33,6.06,13.61,8.71,18.83,1.03
				c2.26-3.32,8.3-4.86,11.82-4.02c4,0.95,6.49,2.01,4.95,6.92c-2,6.36-8.43,9.84-14.38,11.99c-6.8,2.46-15.46,6.22-22.7,6.74
				c-6.02,0.43-10.13-1.25-12-7.4C535.36,150.21,534.46,141.26,536.68,134.03z"/>
			<path class="st4" d="M1006.66,145.34c23.83-3.14,63.53-15.75,57.82-47.04c-3.65-19.99-25.29-24.07-41.51-17.17
				c-3.92-8.58-10.98-15.39-21.19-16.1c-11.59-0.81-21.74,7.5-26.14,17.72C965.88,105.45,974.01,149.64,1006.66,145.34z M993.8,93.7
				c0.87-2.83,2.04-5.19,4.26-6.99c1.01-0.82,1.69-0.88,2.44-0.84c0.18,0.03,0.48,0.1,0.76,0.23c-0.13,0.02,1.69,1.56,1.65,1.5
				c1.85,3.09,2.53,6.35,3.07,9.9c0.25,1.66,1.05,3.1,2.16,4.26c3.33,6.06,13.61,8.71,18.83,1.03c2.26-3.32,8.3-4.86,11.82-4.02
				c4,0.95,6.49,2.01,4.95,6.92c-2,6.36-8.43,9.84-14.38,11.99c-6.8,2.46-15.46,6.22-22.7,6.74c-6.02,0.43-10.13-1.25-12-7.4
				C992.48,109.88,991.58,100.92,993.8,93.7z"/>
			<path class="st4" d="M1028,615.82c23.83-3.14,63.53-15.75,57.82-47.04c-3.65-19.99-25.29-24.07-41.51-17.17
				c-3.92-8.58-10.98-15.39-21.19-16.1c-11.59-0.81-21.74,7.5-26.14,17.72C987.22,575.93,995.35,620.13,1028,615.82z
				 M1015.14,564.18c0.87-2.83,2.04-5.19,4.26-6.99c1.01-0.82,1.69-0.88,2.44-0.84c0.18,0.03,0.48,0.1,0.76,0.23
				c-0.14,0.02,1.69,1.56,1.65,1.5c1.85,3.09,2.53,6.35,3.07,9.9c0.25,1.66,1.05,3.1,2.16,4.26c3.33,6.06,13.61,8.71,18.83,1.03
				c2.26-3.32,8.3-4.86,11.82-4.02c4,0.95,6.49,2.01,4.95,6.92c-2,6.36-8.43,9.84-14.38,11.99c-6.8,2.46-15.46,6.22-22.7,6.74
				c-6.02,0.43-10.13-1.25-12-7.4C1013.82,580.36,1012.92,571.41,1015.14,564.18z"/>
			<path class="st4" d="M949.45,1010.18c23.83-3.14,63.53-15.75,57.82-47.04c-3.65-19.99-25.29-24.07-41.51-17.17
				c-3.92-8.58-10.98-15.39-21.19-16.1c-11.59-0.81-21.74,7.5-26.14,17.72C908.67,970.3,916.8,1014.49,949.45,1010.18z
				 M936.59,958.55c0.87-2.83,2.04-5.19,4.26-6.99c1.01-0.82,1.69-0.88,2.44-0.84c0.18,0.03,0.48,0.1,0.76,0.23
				c-0.14,0.02,1.69,1.56,1.65,1.5c1.85,3.09,2.53,6.35,3.07,9.9c0.25,1.66,1.05,3.09,2.16,4.26c3.33,6.06,13.61,8.71,18.83,1.03
				c2.26-3.32,8.3-4.86,11.82-4.02c4,0.95,6.49,2.01,4.95,6.92c-2,6.36-8.43,9.84-14.38,11.99c-6.8,2.46-15.46,6.22-22.7,6.74
				c-6.02,0.43-10.13-1.25-12-7.4C935.27,974.73,934.37,965.77,936.59,958.55z"/>
			<path class="st4" d="M890.24,844.32c9.93-1.31,26.47-6.56,24.09-19.6c-1.52-8.33-10.54-10.03-17.3-7.16
				c-1.64-3.57-4.58-6.41-8.83-6.71c-4.83-0.34-9.06,3.12-10.89,7.39C873.25,827.7,876.63,846.11,890.24,844.32z M884.88,822.8
				c0.36-1.18,0.85-2.16,1.78-2.91c0.42-0.34,0.71-0.37,1.02-0.35c0.08,0.01,0.2,0.04,0.32,0.09c-0.06,0.01,0.7,0.65,0.69,0.63
				c0.77,1.29,1.05,2.64,1.28,4.13c0.1,0.69,0.44,1.29,0.9,1.77c1.39,2.53,5.67,3.63,7.85,0.43c0.94-1.38,3.46-2.03,4.92-1.68
				c1.67,0.4,2.7,0.84,2.06,2.88c-0.83,2.65-3.51,4.1-5.99,5c-2.83,1.02-6.44,2.59-9.46,2.81c-2.51,0.18-4.22-0.52-5-3.08
				C884.33,829.55,883.96,825.81,884.88,822.8z"/>
			<path class="st4" d="M782.89,600.02c12.17-1.61,32.44-8.04,29.53-24.03c-1.86-10.21-12.92-12.3-21.2-8.77
				c-2-4.38-5.61-7.86-10.82-8.22c-5.92-0.41-11.1,3.83-13.35,9.05C762.07,579.65,766.21,602.22,782.89,600.02z M776.32,573.65
				c0.44-1.44,1.04-2.65,2.18-3.57c0.52-0.42,0.86-0.45,1.25-0.43c0.09,0.02,0.25,0.05,0.39,0.12c-0.07,0.01,0.86,0.8,0.84,0.77
				c0.95,1.58,1.29,3.24,1.57,5.06c0.13,0.85,0.54,1.58,1.1,2.18c1.7,3.1,6.95,4.45,9.62,0.53c1.15-1.7,4.24-2.48,6.04-2.06
				c2.04,0.49,3.31,1.03,2.53,3.53c-1.02,3.25-4.31,5.03-7.35,6.12c-3.47,1.25-7.89,3.18-11.59,3.44c-3.07,0.22-5.17-0.64-6.13-3.78
				C775.65,581.91,775.19,577.34,776.32,573.65z"/>
			<path class="st4" d="M837.36,313.58c12.17-1.61,32.44-8.04,29.53-24.03c-1.86-10.21-12.92-12.3-21.2-8.77
				c-2-4.38-5.61-7.86-10.82-8.22c-5.92-0.41-11.1,3.83-13.35,9.05C816.54,293.21,820.69,315.78,837.36,313.58z M830.79,287.21
				c0.44-1.44,1.04-2.65,2.18-3.57c0.52-0.42,0.86-0.45,1.25-0.43c0.09,0.02,0.25,0.05,0.39,0.12c-0.07,0.01,0.86,0.8,0.84,0.77
				c0.95,1.58,1.29,3.24,1.57,5.06c0.13,0.85,0.54,1.58,1.1,2.18c1.7,3.1,6.95,4.45,9.62,0.53c1.15-1.7,4.24-2.48,6.04-2.06
				c2.04,0.49,3.31,1.03,2.53,3.53c-1.02,3.25-4.31,5.03-7.35,6.12c-3.47,1.25-7.89,3.18-11.59,3.44c-3.07,0.22-5.17-0.64-6.13-3.78
				C830.12,295.48,829.66,290.9,830.79,287.21z"/>
			<path class="st4" d="M1063.75,313.58c12.17-1.61,32.44-8.04,29.53-24.03c-1.86-10.21-12.92-12.3-21.2-8.77
				c-2-4.38-5.61-7.86-10.82-8.22c-5.92-0.41-11.1,3.83-13.35,9.05C1042.93,293.21,1047.08,315.78,1063.75,313.58z M1057.18,287.21
				c0.44-1.44,1.04-2.65,2.18-3.57c0.52-0.42,0.86-0.45,1.25-0.43c0.09,0.02,0.25,0.05,0.39,0.12c-0.07,0.01,0.86,0.8,0.84,0.77
				c0.95,1.58,1.29,3.24,1.57,5.06c0.13,0.85,0.54,1.58,1.1,2.18c1.7,3.1,6.95,4.45,9.62,0.53c1.15-1.7,4.24-2.48,6.04-2.06
				c2.04,0.49,3.31,1.03,2.53,3.53c-1.02,3.25-4.31,5.03-7.35,6.12c-3.47,1.25-7.89,3.18-11.59,3.44c-3.07,0.22-5.17-0.64-6.13-3.78
				C1056.51,295.48,1056.05,290.9,1057.18,287.21z"/>
			<path class="st4" d="M661.97,120.33c12.17-1.61,32.44-8.04,29.53-24.03c-1.86-10.21-12.92-12.3-21.2-8.77
				c-2-4.38-5.61-7.86-10.82-8.22c-5.92-0.41-11.1,3.83-13.35,9.05C641.15,99.96,645.29,122.53,661.97,120.33z M655.4,93.96
				c0.44-1.44,1.04-2.65,2.18-3.57c0.52-0.42,0.86-0.45,1.25-0.43c0.09,0.02,0.25,0.05,0.39,0.12c-0.07,0.01,0.86,0.8,0.84,0.77
				c0.95,1.58,1.29,3.24,1.57,5.06c0.13,0.85,0.54,1.58,1.1,2.18c1.7,3.1,6.95,4.45,9.62,0.53c1.15-1.7,4.24-2.48,6.04-2.06
				c2.04,0.49,3.31,1.03,2.53,3.53c-1.02,3.25-4.31,5.03-7.35,6.12c-3.47,1.25-7.89,3.18-11.59,3.44c-3.07,0.22-5.17-0.64-6.13-3.78
				C654.73,102.22,654.27,97.65,655.4,93.96z"/>
			<path class="st4" d="M1045.43,1083.33c9.93-1.31,26.47-6.56,24.09-19.6c-1.52-8.33-10.54-10.03-17.3-7.16
				c-1.64-3.57-4.58-6.41-8.83-6.71c-4.83-0.34-9.06,3.12-10.89,7.39C1028.44,1066.71,1031.82,1085.12,1045.43,1083.33z
				 M1040.07,1061.82c0.36-1.18,0.85-2.16,1.78-2.91c0.42-0.34,0.71-0.37,1.02-0.35c0.08,0.01,0.2,0.04,0.32,0.09
				c-0.06,0.01,0.7,0.65,0.69,0.63c0.77,1.29,1.05,2.64,1.28,4.13c0.1,0.69,0.44,1.29,0.9,1.77c1.39,2.53,5.67,3.63,7.84,0.43
				c0.94-1.38,3.46-2.03,4.92-1.68c1.67,0.4,2.7,0.84,2.06,2.88c-0.83,2.65-3.51,4.1-5.99,5c-2.83,1.02-6.44,2.59-9.46,2.81
				c-2.51,0.18-4.22-0.52-5-3.08C1039.52,1068.56,1039.15,1064.82,1040.07,1061.82z"/>
			<path class="st4" d="M1085.48,713.3c-0.44-0.88-10.61-8.4-10.61-8.4v-13.49l-11.05,7.07l-13.04-7.07l4.2,13.49l-10.39,10.39
				h14.81l5.64,14.81l7.19-15.03L1085.48,713.3z"/>
			<path class="st4" d="M993.11,230.08c-0.44-0.88-10.61-8.4-10.61-8.4v-13.49l-11.05,7.07l-13.04-7.07l4.2,13.49l-10.39,10.39
				h14.81l5.64,14.81l7.19-15.03L993.11,230.08z"/>
			<path class="st4" d="M935.01,62.48c-0.44-0.88-10.61-8.4-10.61-8.4V40.59l-11.05,7.07l-13.04-7.07l4.2,13.49l-10.39,10.39h14.81
				l5.64,14.81l7.19-15.03L935.01,62.48z"/>
			<path class="st4" d="M905.59,1091.78c-0.31-0.61-7.33-5.8-7.33-5.8v-9.32l-7.64,4.89l-9.01-4.89l2.9,9.32l-7.18,7.18h10.23
				l3.89,10.23l4.96-10.39L905.59,1091.78z"/>
			<path class="st4" d="M1069.75,440.08c-0.31-0.61-7.33-5.8-7.33-5.8v-9.32l-7.64,4.89l-9.01-4.89l2.9,9.32l-7.18,7.18h10.23
				l3.89,10.23l4.96-10.39L1069.75,440.08z"/>
			<path class="st4" d="M792.99,196.58c-0.31-0.61-7.33-5.8-7.33-5.8v-9.32l-7.64,4.89l-9.01-4.89l2.9,9.32l-7.18,7.18h10.23
				l3.89,10.23l4.96-10.39L792.99,196.58z"/>
			<path class="st4" d="M919.72,483.15c-0.31-0.61-7.33-5.8-7.33-5.8v-9.32l-7.64,4.89l-9.01-4.89l2.9,9.32l-7.18,7.18h10.23
				l3.89,10.23l4.96-10.39L919.72,483.15z"/>
		</g>
	</g>
</g>
</svg>
