<?xml version="1.0" encoding="utf-8"?>
<!-- Generator: Adobe Illustrator 26.0.3, SVG Export Plug-In . SVG Version: 6.00 Build 0)  -->
<svg version="1.1" id="Layer_1" xmlns="http://www.w3.org/2000/svg" xmlns:xlink="http://www.w3.org/1999/xlink" x="0px" y="0px"
	 viewBox="0 0 1133.86 1133.86" style="enable-background:new 0 0 1133.86 1133.86;" xml:space="preserve">
<style type="text/css">
	.st0{fill:#DCD5CB;}
	.st1{fill:url(#bottom_shadow_00000080165904488717074900000015578706684485633154_);}
	.st2{fill:#1A1A1A;}
	.st3{fill:#1B5E92;}
	.st4{fill:#FFD097;}
	.st5{fill:#FFFFFF;}
	.st6{fill:#073E63;}
	.st7{fill:#FF7A2E;}
	.st8{opacity:0.2;fill:#FFD097;}
	.st9{fill:#F0BB7A;}
	.st10{fill-rule:evenodd;clip-rule:evenodd;fill:#FF931E;}
	.st11{fill:#FF931E;}
	.st12{fill-rule:evenodd;clip-rule:evenodd;fill:#1A1A1A;}
	.st13{fill-rule:evenodd;clip-rule:evenodd;fill:#333333;}
	.st14{opacity:0.7;}
	.st15{fill-rule:evenodd;clip-rule:evenodd;fill:#F8A770;}
	.st16{opacity:0.4;fill:#FFFFFF;}
	.st17{opacity:0.9;fill:#A5714A;}
	.st18{fill:url(#bottom_shadow_00000137851825549973674390000003095378812436349844_);}
	.st19{fill:#FDC00F;}
	.st20{fill:#8F4E14;}
	.st21{opacity:0.7;fill:#1B5E92;}
</style>
<rect id="color" x="0" y="957.4" class="st0" width="1133.86" height="176.46"/>
<g>
	
		<radialGradient id="bottom_shadow_00000003814906557964030470000012747418915300573085_" cx="-4392.9297" cy="-1871.296" r="22.9414" gradientTransform="matrix(16.7039 0.2417 0.0548 1.8227 74334.3594 5542.6069)" gradientUnits="userSpaceOnUse">
		<stop  offset="0" style="stop-color:#BABCBE"/>
		<stop  offset="0.0546" style="stop-color:#C5C7C8"/>
		<stop  offset="0.2062" style="stop-color:#DEDFE0"/>
		<stop  offset="0.3634" style="stop-color:#F1F1F1"/>
		<stop  offset="0.5285" style="stop-color:#FBFCFC"/>
		<stop  offset="0.7143" style="stop-color:#FFFFFF"/>
	</radialGradient>
	<path id="bottom_shadow_1_" style="fill:url(#bottom_shadow_00000003814906557964030470000012747418915300573085_);" d="
		M596.5,1070.81c-0.42-13.84,174.17-34.46,300.95-32.63c126.79,1.84,229.92,14.54,230.33,28.37
		c0.42,13.84-174.17,34.47-300.96,32.63C700.04,1097.35,596.9,1084.64,596.5,1070.81z"/>
	<g>
		<path class="st2" d="M946.18,557.54c0,9.76-7.98,17.75-17.75,17.75H778.72c-9.76,0-17.75-7.99-17.75-17.75V413.93
			c0-9.76,7.99-17.75,17.75-17.75h149.72c9.76,0,17.75,7.99,17.75,17.75V557.54z"/>
		<g>
			<path class="st3" d="M1005.76,536.65c12.06,7.95,29.39,2.93,38.73-11.19l0,0c9.31-14.14,7.1-32.04-4.96-39.99l-107.8-71.13
				c-12.05-7.94-29.4-2.95-38.71,11.22l0,0c-9.33,14.12-7.1,32.03,4.95,39.98L1005.76,536.65z"/>
			<path class="st3" d="M1055.92,533.18c9.24-12.6,5.62-30.91-8.05-40.91l0,0c-13.66-10-32.2-7.9-41.43,4.72l-48.3,68.91
				c-9.21,12.58-5.61,30.91,8.08,40.91l0,0c13.66,10.01,32.2,7.91,41.42-4.7L1055.92,533.18z"/>
			<path class="st4" d="M942.67,602.61c1.22,16.42,15.51,28.73,31.94,27.49c16.42-1.21,28.75-15.5,27.52-31.92
				c-1.22-16.4-15.52-28.73-31.92-27.51C953.78,571.9,941.45,586.18,942.67,602.61z"/>
		</g>
		<g>
			<path class="st3" d="M699.65,536.65c-12.06,7.95-29.4,2.93-38.73-11.19l0,0c-9.32-14.14-7.11-32.04,4.95-39.99l107.81-71.13
				c12.04-7.94,29.38-2.95,38.7,11.22l0,0c9.34,14.12,7.11,32.03-4.95,39.98L699.65,536.65z"/>
			<path class="st3" d="M649.49,533.18c-9.24-12.6-5.62-30.91,8.04-40.91l0,0c13.67-10,32.21-7.9,41.44,4.72l48.29,68.91
				c9.22,12.58,5.61,30.91-8.07,40.91l0,0c-13.66,10.01-32.19,7.91-41.43-4.7L649.49,533.18z"/>
			<path class="st4" d="M762.74,602.61c-1.23,16.42-15.52,28.73-31.95,27.49c-16.41-1.21-28.74-15.5-27.52-31.92
				c1.22-16.4,15.53-28.73,31.93-27.51C751.63,571.9,763.96,586.18,762.74,602.61z"/>
		</g>
		<g>
			<g>
				<polygon class="st4" points="822.73,754.19 822.73,1061.41 784.05,1061.41 743.32,754.19 				"/>
				<polygon class="st5" points="782.38,1048.72 822.73,1048.72 822.73,928.73 766.46,928.73 				"/>
				<polygon class="st3" points="768.15,941.42 784.05,1061.41 822.73,1061.41 822.73,941.42 				"/>
				<path class="st2" d="M796.89,1023.44c-25.85,0-46.85,20.97-46.85,46.85h96.88C846.92,1044.41,822.78,1023.44,796.89,1023.44z"/>
			</g>
			<g>
				<polygon class="st4" points="881.55,754.19 881.55,1061.41 920.23,1061.41 960.97,754.19 				"/>
				<polygon class="st5" points="921.92,1048.72 881.55,1048.72 881.55,928.73 937.83,928.73 				"/>
				<polygon class="st3" points="936.14,941.42 920.23,1061.41 881.55,1061.41 881.55,941.42 				"/>
				<path class="st2" d="M907.39,1023.44c25.86,0,46.86,20.97,46.86,46.85h-96.87C857.37,1044.41,881.51,1023.44,907.39,1023.44z"/>
			</g>
		</g>
		<path class="st4" d="M985.54,251.03c-1.17-0.33-2.46-0.46-3.73-0.5c-0.34-0.01-0.66-0.02-0.99-0.02
			c-1.27,8.56-4.41,19.36-4.39,5.17c0.04-11.97-31.18-35.5-46.44-41.68c-12.42-5.02-16.4-15.45-29.37-19.14
			c-10.52,17.17-23.54,39.55-58.33,40.74c-38.83,1.34-47.2-10.33-64.61-8.31c-17.41,2.01-28.8,8.03-34.16,14.06
			c-5.35,6.02-2.53,15.96-8.56,17.67l-1.86-8.65c-0.02,0.13-0.05,0.25-0.07,0.38c-1.87-0.24-4.34-0.38-6.65-0.07
			c-0.59,0.08-1.19,0.18-1.75,0.33c-4.79,1.33-14.1,11.18-10.37,23.42c2.67,8.77,12.15,13.69,20.16,14.62
			c1.28,6.36,3.1,12.52,5.31,18.48c0.65,1.73,1.28,3.47,2,5.16c0.93,2.22,1.96,4.38,3.02,6.53c0.32,0.63,0.63,1.26,0.96,1.89
			c1.11,2.16,2.26,4.29,3.5,6.36c0.69,1.17,1.46,2.29,2.19,3.43c15.3,23.92,38.59,42.23,66.17,51.06v43.38h71.99v-42.43
			c28.26-8.21,52.27-26.31,68.17-50.24c0.38-0.58,0.75-1.16,1.13-1.74c2.11-3.3,4.13-6.68,5.92-10.18c0.02-0.05,0.05-0.1,0.07-0.14
			c0.66-1.3,1.25-2.64,1.87-3.97c0.97-2.06,1.87-4.16,2.73-6.29c2.73-6.83,4.92-13.93,6.4-21.3c8-0.95,17.43-5.87,20.09-14.61
			C999.66,262.21,990.34,252.36,985.54,251.03z"/>
		<polygon class="st6" points="853.63,658.98 851.71,658.98 740.39,648.54 740.39,898.81 840.13,898.81 852.67,719.56 
			865.21,898.81 964.95,898.81 964.95,648.54 		"/>
		<g>
			<path class="st7" d="M976.43,255.69c-2,26.07,3.12,3.4,4.39-5.17c0.33,0,0.65,0,0.99,0.02c0.87-4.71,1.39-9.51,1.39-14.39
				c0-62.51-67.94-113.18-130.08-113.18c-62.14,0-128.13,50.67-128.13,113.18c0,4.94,0.5,9.79,1.38,14.56
				c2.31-0.32,4.77-0.17,6.65,0.07c0.02-0.13,0.05-0.25,0.07-0.38l2.11,20.98c6.03-1.71,146.17-19.12,165.4-76.5
				C909.22,204.63,977.35,243.75,976.43,255.69z"/>
		</g>
		<path class="st3" d="M964.95,642.39c-13.36-100.45-13.08-179.64-45.17-228.44H785.1c-32.4,48.76-35.2,129.39-44.39,229.03
			L964.95,642.39z"/>
		<g>
			<g>
				<g>
					<path class="st4" d="M855.52,470.1c0,0,54.53-48.41,54.53-58.19c0-0.49-0.17-0.92-0.43-1.34H801.41
						c-0.26,0.42-0.43,0.85-0.43,1.34C800.98,421.69,855.52,470.1,855.52,470.1z"/>
				</g>
			</g>
		</g>
		<path class="st8" d="M822.85,326.16c0,13.53-10.98,24.53-24.53,24.53c-13.55,0-24.54-11-24.54-24.53
			c0-13.56,10.98-24.54,24.54-24.54C811.87,301.62,822.85,312.6,822.85,326.16z"/>
		<path class="st8" d="M939.42,326.16c0,13.53-10.99,24.52-24.53,24.52c-13.56,0-24.54-11-24.54-24.52
			c0-13.56,10.98-24.54,24.54-24.54C928.43,301.62,939.42,312.6,939.42,326.16z"/>
		<path class="st9" d="M840.18,311.96c7.83-8.15,20.74-8.41,28.9-0.6"/>
		<path class="st9" d="M889.54,410.22h20.24l-20.24,32l-71.99-56.87c0,0,30.28,6.75,40.37,6.75c7.91,0,31.62-6.75,31.62-6.75V410.22
			z"/>
		<path class="st5" d="M878.75,1029.77l2.95,6.35l22.3-11.36v-0.01l18.8,14.05c0.28-0.36,4.95-4.7,4.95-4.7l-19.84-9.78
			c1.89,0.43,4.17,0.84,6.55,1.03c9.3,0.75,14.58-3.19,13.85-7.99c-1.02-6.59-7.25-8.32-14.21-3.55c-5.64,3.87-9.07,7.98-9.98,9.13
			c-1.18-1.37-5.57-6.31-11.01-10.33c-6.92-5.12-12.22-3.05-12.49,3.03c-0.23,4.91,6.09,8,12.94,8.43c2.24,0.19,4.22,0.14,5.88,0.02
			L878.75,1029.77z M900.23,1022.01c0,0-2.84,0.25-7.86-0.93c-4.18-0.99-7.44-2.66-6.8-5.52c0.75-3.37,5.68-0.62,8.71,1.22
			C897.67,1018.8,900.23,1022.01,900.23,1022.01z M907.88,1022.45c0,0,2.65-3.14,7.16-5.23c5.13-2.37,7.67-1.63,8.21,0.93
			c0.54,2.55-2.74,4.64-7.38,5.01C911.25,1023.53,907.88,1022.45,907.88,1022.45z M903.82,1023.9l-0.08-0.39
			c0.11-0.03,0.19-0.04,0.28-0.07L903.82,1023.9z"/>
		<path class="st5" d="M803.13,1024.09c1.66,0.12,3.64,0.17,5.88-0.02c6.85-0.43,13.17-3.52,12.94-8.43
			c-0.27-6.07-5.56-8.15-12.49-3.03c-5.44,4.02-9.84,8.96-11.02,10.33c-0.9-1.15-4.34-5.26-9.98-9.13
			c-6.96-4.77-13.18-3.03-14.21,3.55c-0.74,4.8,4.54,8.74,13.84,7.99c2.38-0.19,4.67-0.6,6.56-1.03l-19.84,9.78
			c0,0,4.67,4.34,4.95,4.7l18.8-14.05v0.01l22.3,11.36l2.94-6.35L803.13,1024.09z M808.27,1016.77c3.02-1.84,7.97-4.59,8.71-1.22
			c0.64,2.85-2.62,4.53-6.8,5.52c-5.02,1.19-7.87,0.93-7.87,0.93S804.87,1018.8,808.27,1016.77z M786.67,1023.17
			c-4.64-0.37-7.92-2.46-7.37-5.01c0.54-2.56,3.08-3.31,8.21-0.93c4.52,2.08,7.16,5.23,7.16,5.23S791.3,1023.53,786.67,1023.17z
			 M798.53,1023.44c0.08,0.02,0.16,0.04,0.28,0.07l-0.08,0.39L798.53,1023.44z"/>
		<g>
			<g>
				<rect x="1009.37" y="124.27" class="st10" width="7.13" height="53.43"/>
				<path class="st11" d="M1018.67,186.8c1.34-1.39,2.17-3.27,2.17-5.35c0-4.28-3.47-7.75-7.76-7.75c-4.26,0-7.74,3.47-7.74,7.75
					c0,1.96,0.77,3.75,1.97,5.11l-7.59,35.15h0.1c-0.02,0.19-0.1,0.37-0.1,0.56c0,4.15,5.98,7.51,13.36,7.51
					c7.4,0,13.39-3.36,13.39-7.51c0-0.19-0.08-0.37-0.11-0.56h0.11L1018.67,186.8z"/>
			</g>
			<path class="st12" d="M852.98,220.38l-116.82-25.65l6.75-63.01c73.59,0,147.18,0,220.77,0l6.74,63.01L852.98,220.38z"/>
			<polygon class="st13" points="1024.52,123.33 851.8,81.52 679.07,123.33 851.8,165.14 			"/>
		</g>
		<polygon class="st2" points="755.89,509.73 743.24,507.63 785.1,403.83 801.71,403.83 		"/>
		<polygon class="st2" points="949.42,512.68 960.81,508.05 923.15,400.45 906.54,400.45 		"/>
		<path class="st5" d="M890.49,338.58l-70.18,0.04c0,0,4.61,11.95,17.64,18.17c3.56,2.42,7.6,3.42,13.42,4.21
			c10.16,1.38,20.28-1.72,23.61-4.92c-0.08-0.05-0.22-0.13-0.34-0.19C886.68,349.47,890.49,338.58,890.49,338.58z"/>
		<g class="st14">
			<g>
				<path class="st15" d="M793.06,312.52c-1.72-0.06-3.11,1.44-3.18,2.97c-0.06,1.71,1.23,3.28,2.96,3.35
					c1.71,0.06,3.29-1.41,3.38-3.14C796.26,314.18,794.76,312.57,793.06,312.52z"/>
				<path class="st15" d="M808.93,313.08c-1.73-0.05-3.14,1.44-3.15,2.96c-0.07,1.71,1.2,3.28,2.9,3.35
					c1.74,0.06,3.14-1.42,3.19-3.15C811.94,314.73,810.64,313.14,808.93,313.08z"/>
				<path class="st15" d="M777.36,312.01c-1.7-0.1-3.1,1.4-3.14,2.9c-0.08,1.75,1.22,3.31,2.92,3.37c1.72,0.07,3.12-1.42,3.17-3.14
					C780.41,313.62,779.1,312.05,777.36,312.01z"/>
				<path class="st15" d="M800.66,324.84c-1.53-0.03-3.11,1.45-3.18,3.16c-0.05,1.71,1.42,3.12,2.95,3.16
					c1.72,0.07,3.31-1.21,3.37-2.93C803.84,326.49,802.39,324.91,800.66,324.84z"/>
				<path class="st15" d="M784.59,324.3c-1.71-0.07-3.11,1.42-3.18,3.14c-0.05,1.72,1.23,3.1,2.96,3.15
					c1.74,0.07,3.11-1.23,3.17-2.94C787.62,325.93,786.32,324.33,784.59,324.3z"/>
			</g>
			<g>
				<path class="st15" d="M921.22,312.52c1.72-0.06,3.11,1.44,3.17,2.97c0.06,1.71-1.23,3.28-2.96,3.35
					c-1.71,0.06-3.29-1.41-3.38-3.14C918.02,314.18,919.52,312.57,921.22,312.52z"/>
				<path class="st15" d="M905.35,313.08c1.72-0.05,3.14,1.44,3.15,2.96c0.07,1.71-1.2,3.28-2.9,3.35
					c-1.75,0.06-3.14-1.42-3.19-3.15C902.33,314.73,903.64,313.14,905.35,313.08z"/>
				<path class="st15" d="M936.91,312.01c1.7-0.1,3.1,1.4,3.14,2.9c0.08,1.75-1.22,3.31-2.92,3.37c-1.72,0.07-3.12-1.42-3.17-3.14
					C933.87,313.62,935.19,312.05,936.91,312.01z"/>
				<path class="st15" d="M913.61,324.84c1.54-0.03,3.12,1.45,3.19,3.16c0.04,1.71-1.43,3.12-2.95,3.16
					c-1.72,0.07-3.31-1.21-3.37-2.93C910.43,326.49,911.89,324.91,913.61,324.84z"/>
				<path class="st15" d="M929.68,324.3c1.71-0.07,3.12,1.42,3.19,3.14c0.04,1.72-1.23,3.1-2.96,3.15
					c-1.74,0.07-3.11-1.23-3.17-2.94C926.66,325.93,927.96,324.33,929.68,324.3z"/>
			</g>
		</g>
		<g>
			<path class="st2" d="M821.94,635.22h-80.98c-0.39,4.96-0.58,7.74-0.58,7.74v28.87h81.55V635.22z"/>
			<path class="st2" d="M829.42,635.47v36.38h48.51v-36.38H829.42z M873.03,656.14h-20.32c-1.82,0-3.29-1.49-3.29-3.3
				c0-1.79,1.47-3.26,3.29-3.26h20.32c1.81,0,3.26,1.47,3.26,3.26C876.3,654.65,874.84,656.14,873.03,656.14z"/>
			<path class="st2" d="M885.4,671.84h79.55v-29.46c0,0-0.19-2.58-0.56-7.16H885.4V671.84z"/>
			<path class="st5" d="M885.4,628.01h-63.45v7.22v36.62v8.35h63.45v-8.35v-36.62V628.01z M877.93,672.73h-48.51v-0.89v-36.38h48.51
				v36.38V672.73z"/>
			<path class="st5" d="M873.03,649.59h-20.32c-1.82,0-3.29,1.47-3.29,3.26c0,1.81,1.47,3.3,3.29,3.3h20.32
				c1.81,0,3.26-1.49,3.26-3.3C876.3,651.06,874.84,649.59,873.03,649.59z"/>
		</g>
		<polygon class="st5" points="857.08,468.29 931.6,441.43 910.85,410.22 		"/>
		<polygon class="st5" points="854.02,468.29 779.5,441.43 800.25,410.22 		"/>
		<g>
			<path class="st5" d="M861.46,490.95c0,3.35-2.71,6.07-6.07,6.07c-3.35,0-6.07-2.72-6.07-6.07c0-3.35,2.72-6.07,6.07-6.07
				C858.75,484.88,861.46,487.6,861.46,490.95z"/>
			<path class="st5" d="M861.46,519.8c0,3.35-2.71,6.07-6.07,6.07c-3.35,0-6.07-2.72-6.07-6.07c0-3.35,2.72-6.07,6.07-6.07
				C858.75,513.72,861.46,516.44,861.46,519.8z"/>
			<path class="st5" d="M861.46,548.64c0,3.35-2.71,6.07-6.07,6.07c-3.35,0-6.07-2.72-6.07-6.07c0-3.35,2.72-6.07,6.07-6.07
				C858.75,542.57,861.46,545.28,861.46,548.64z"/>
			<path class="st5" d="M861.46,577.48c0,3.35-2.71,6.08-6.07,6.08c-3.35,0-6.07-2.72-6.07-6.08c0-3.35,2.72-6.07,6.07-6.07
				C858.75,571.41,861.46,574.13,861.46,577.48z"/>
			<path class="st5" d="M861.46,606.32c0,3.35-2.71,6.07-6.07,6.07c-3.35,0-6.07-2.72-6.07-6.07c0-3.35,2.72-6.07,6.07-6.07
				C858.75,600.25,861.46,602.97,861.46,606.32z"/>
		</g>
		<g>
			<path class="st16" d="M837.67,283.12c0,19.09-16.87,34.56-37.68,34.56c-20.82,0-37.69-15.47-37.69-34.56
				c0-19.09,16.87-34.55,37.69-34.55C820.8,248.56,837.67,264.03,837.67,283.12z M912.56,248.56c-20.96,0-37.97,15.46-37.97,34.55
				c0,19.09,17.01,34.56,37.97,34.56c20.97,0,37.97-15.47,37.97-34.56C950.53,264.03,933.53,248.56,912.56,248.56z"/>
			<path class="st5" d="M911.58,246.77c-19.69,0-36.06,13.05-39.31,30.13c-15.27-9.09-29.32-4.55-34.72-2.13
				c-4.13-16.03-19.82-28-38.54-28c-21.86,0-39.64,16.31-39.64,36.34c0,20.04,17.78,36.35,39.64,36.35
				c21.86,0,39.64-16.31,39.64-36.35c0-1.64-0.16-3.26-0.4-4.85c4.99-2.2,18.87-6.74,33.54,2.29c-0.07,0.85-0.14,1.7-0.14,2.56
				c0,20.04,17.91,36.35,39.94,36.35c22.02,0,39.93-16.31,39.93-36.35C951.51,263.08,933.6,246.77,911.58,246.77z M799,315.88
				c-19.7,0-35.72-14.7-35.72-32.76c0-18.06,16.02-32.76,35.72-32.76c19.7,0,35.73,14.7,35.73,32.76
				C834.73,301.18,818.7,315.88,799,315.88z M911.58,250.36c19.84,0,35.99,14.7,35.99,32.76c0,18.06-16.15,32.76-35.99,32.76
				c-19.85,0-36-14.7-36-32.76C875.58,265.06,891.73,250.36,911.58,250.36z"/>
			<g>
				<path class="st5" d="M981.63,249.82c-0.4-0.75-1.32-1.03-2.07-0.64l-34.63,18.35c-0.75,0.4-1.03,1.33-0.63,2.07
					c0.27,0.52,0.81,0.82,1.35,0.82c0.24,0,0.49-0.06,0.72-0.18L981,251.89C981.75,251.49,982.03,250.56,981.63,249.82z"/>
				<path class="st5" d="M766.34,267.52l-34.63-18.35c-0.75-0.4-1.68-0.11-2.07,0.64c-0.4,0.75-0.11,1.68,0.63,2.07l34.63,18.35
					c0.23,0.12,0.48,0.18,0.72,0.18c0.55,0,1.08-0.3,1.35-0.82C767.37,268.85,767.09,267.92,766.34,267.52z"/>
			</g>
		</g>
		<g>
			<g>
				<path class="st17" d="M914.49,275.86c0,3.88-3.16,7.06-7.06,7.06s-7.06-3.17-7.06-7.06c0-3.9,3.16-7.06,7.06-7.06
					S914.49,271.96,914.49,275.86z"/>
			</g>
			<g>
				<g>
					<path class="st17" d="M810.53,275.86c0,3.89-3.15,7.06-7.05,7.06c-3.9,0-7.06-3.16-7.06-7.06c0-3.9,3.16-7.06,7.06-7.06
						C807.38,268.8,810.53,271.96,810.53,275.86z"/>
				</g>
			</g>
		</g>
	</g>
</g>
<g>
	
		<radialGradient id="bottom_shadow_00000088124929806432694990000009768606214105860481_" cx="-4424.3457" cy="-1867.13" r="22.9414" gradientTransform="matrix(16.7039 0.2417 0.0548 1.8227 74334.3594 5542.6069)" gradientUnits="userSpaceOnUse">
		<stop  offset="0" style="stop-color:#BABCBE"/>
		<stop  offset="0.0546" style="stop-color:#C5C7C8"/>
		<stop  offset="0.2062" style="stop-color:#DEDFE0"/>
		<stop  offset="0.3634" style="stop-color:#F1F1F1"/>
		<stop  offset="0.5285" style="stop-color:#FBFCFC"/>
		<stop  offset="0.7143" style="stop-color:#FFFFFF"/>
	</radialGradient>
	<path id="bottom_shadow_3_" style="fill:url(#bottom_shadow_00000088124929806432694990000009768606214105860481_);" d="
		M71.95,1070.81c-0.42-13.84,174.16-34.46,300.95-32.63c126.79,1.84,229.92,14.54,230.34,28.37
		c0.41,13.84-174.17,34.47-300.96,32.63C175.48,1097.35,72.36,1084.64,71.95,1070.81z"/>
	<g>
		<path class="st2" d="M421.63,557.54c0,9.76-7.99,17.75-17.75,17.75H254.17c-9.76,0-17.75-7.99-17.75-17.75V413.93
			c0-9.76,7.99-17.75,17.75-17.75h149.72c9.76,0,17.75,7.99,17.75,17.75V557.54z"/>
		<g>
			<path class="st3" d="M481.21,536.65c12.07,7.95,29.4,2.93,38.73-11.19l0,0c9.32-14.14,7.11-32.04-4.96-39.99l-107.8-71.13
				c-12.05-7.94-29.39-2.95-38.7,11.22l0,0c-9.33,14.12-7.11,32.03,4.95,39.99L481.21,536.65z"/>
			<path class="st3" d="M531.37,533.18c9.24-12.6,5.62-30.91-8.04-40.91l0,0c-13.67-10-32.21-7.9-41.44,4.72l-48.3,68.91
				c-9.22,12.58-5.61,30.91,8.07,40.91l0,0c13.66,10.01,32.2,7.91,41.42-4.7L531.37,533.18z"/>
			<path class="st4" d="M418.12,602.62c1.22,16.41,15.52,28.73,31.94,27.49c16.41-1.21,28.74-15.5,27.51-31.92
				c-1.22-16.4-15.52-28.73-31.92-27.51C429.23,571.9,416.9,586.18,418.12,602.62z"/>
		</g>
		<g>
			<path class="st3" d="M175.1,536.65c-12.06,7.95-29.39,2.93-38.73-11.19l0,0c-9.32-14.14-7.1-32.04,4.96-39.99l107.8-71.13
				c12.05-7.94,29.39-2.95,38.7,11.22l0,0c9.33,14.12,7.11,32.03-4.95,39.99L175.1,536.65z"/>
			<path class="st3" d="M124.94,533.18c-9.24-12.6-5.62-30.91,8.04-40.91l0,0c13.67-10,32.21-7.9,41.44,4.72l48.3,68.91
				c9.22,12.58,5.61,30.91-8.07,40.91l0,0c-13.66,10.01-32.2,7.91-41.42-4.7L124.94,533.18z"/>
			<path class="st4" d="M238.19,602.62c-1.22,16.41-15.52,28.73-31.94,27.49c-16.41-1.21-28.74-15.5-27.51-31.92
				c1.22-16.4,15.53-28.73,31.92-27.51C227.08,571.9,239.41,586.18,238.19,602.62z"/>
		</g>
		<g>
			<path class="st19" d="M445.13,272.25c0,0,111.28,13.45,58.59,129.38c0,0-1.12-26.68-13.06-38.91c0,0,5.89,27.59-13.3,46.41
				c0,0,3.94-23.41-3.87-34.24c0,0-2.07,24.53-27.31,30.15c0,0,32.18-49.7-8.03-108.03L445.13,272.25z"/>
		</g>
		<g>
			<path class="st19" d="M210.67,272.25c0,0-111.28,13.45-58.59,129.38c0,0,1.12-26.68,13.06-38.91c0,0-5.89,27.59,13.3,46.41
				c0,0-3.94-23.41,3.87-34.24c0,0,2.07,24.53,27.31,30.15c0,0-32.18-49.7,8.03-108.03L210.67,272.25z"/>
		</g>
		<g>
			<g>
				<polygon class="st4" points="304.93,754.19 304.93,1061.41 266.25,1061.41 225.51,754.19 				"/>
				<polygon class="st5" points="264.57,1048.72 304.93,1048.72 304.93,928.73 248.66,928.73 				"/>
				<polygon class="st3" points="250.34,941.43 266.25,1061.41 304.93,1061.41 304.93,941.43 				"/>
				<path class="st2" d="M279.09,1023.45c-25.85,0-46.85,20.97-46.85,46.85h96.88C329.11,1044.41,304.97,1023.45,279.09,1023.45z"/>
			</g>
			<g>
				<polygon class="st4" points="363.75,754.19 363.75,1061.41 402.43,1061.41 443.17,754.19 				"/>
				<polygon class="st5" points="404.11,1048.72 363.75,1048.72 363.75,928.73 420.02,928.73 				"/>
				<polygon class="st3" points="418.34,941.43 402.43,1061.41 363.75,1061.41 363.75,941.43 				"/>
				<path class="st2" d="M389.58,1023.45c25.86,0,46.86,20.97,46.86,46.85h-96.87C339.57,1044.41,363.7,1023.45,389.58,1023.45z"/>
			</g>
		</g>
		<g>
			<path class="st6" d="M462.95,848.6c0-57.38-3.74-155.31-10.42-205.63h0.02c-0.03-0.16-0.06-0.31-0.07-0.46
				c0-0.04-8.95-0.07-13.81-0.11l-236,0.57h0.01c-6.7,50.23-10.44,148.14-10.44,205.63H462.95z"/>
			<path class="st3" d="M435.6,642.38h16.87c-13.36-100.45-25.15-183-57.23-231.8H260.55c-32.4,48.76-44.45,131.43-57.88,232.4
				l236-0.57C436.86,642.39,435.6,642.38,435.6,642.38z"/>
		</g>
		<path class="st4" d="M461,251.03c-1.17-0.33-2.46-0.46-3.74-0.5c-0.34-0.02-0.66-0.02-0.99-0.02c-1.26,8.56-4.41,19.36-4.38,5.16
			c0.03-11.97-31.18-35.5-46.44-41.68c-12.42-5.02-16.4-15.45-29.37-19.14c-10.52,17.17-23.55,39.55-58.33,40.74
			c-38.84,1.34-47.2-10.33-64.6-8.31c-17.42,2.01-28.81,8.03-34.16,14.06c-5.35,6.03-2.53,15.96-8.56,17.67l-1.87-8.65
			c-0.02,0.13-0.05,0.26-0.07,0.38c-1.87-0.24-4.35-0.39-6.65-0.07c-0.59,0.08-1.19,0.18-1.75,0.33
			c-4.79,1.33-14.1,11.18-10.38,23.41c2.67,8.77,12.16,13.69,20.16,14.62c1.28,6.36,3.1,12.52,5.31,18.48
			c0.65,1.73,1.28,3.47,1.99,5.16c0.93,2.22,1.96,4.38,3.02,6.53c0.31,0.63,0.63,1.26,0.96,1.88c1.11,2.16,2.27,4.29,3.5,6.36
			c0.69,1.17,1.46,2.29,2.19,3.43c15.3,23.92,38.59,42.24,66.17,51.06v43.38h71.99v-42.43c28.26-8.21,52.27-26.31,68.17-50.24
			c0.38-0.58,0.76-1.16,1.13-1.74c2.11-3.3,4.12-6.67,5.92-10.18c0.03-0.05,0.05-0.1,0.07-0.14c0.66-1.29,1.25-2.64,1.87-3.96
			c0.96-2.07,1.87-4.16,2.73-6.29c2.73-6.83,4.92-13.93,6.4-21.3c8-0.95,17.43-5.87,20.09-14.61
			C475.1,262.21,465.79,252.36,461,251.03z"/>
		<g>
			<path class="st19" d="M451.88,255.69c-2.01,26.07,3.12,3.4,4.38-5.16c0.33,0,0.66,0,0.99,0.02c0.88-4.72,1.39-9.52,1.39-14.39
				c0-62.51-67.94-113.18-130.08-113.18c-62.14,0-128.13,50.67-128.13,113.18c0,4.93,0.51,9.79,1.38,14.56
				c2.31-0.32,4.78-0.17,6.65,0.07c0.02-0.13,0.05-0.26,0.07-0.38l2.11,20.98c6.03-1.71,146.17-19.12,165.41-76.5
				C384.66,204.63,452.8,243.75,451.88,255.69z"/>
		</g>
		<g>
			<g>
				<g>
					<path class="st4" d="M330.97,470.1c0,0,54.53-48.41,54.53-58.19c0-0.49-0.17-0.92-0.43-1.34H276.86
						c-0.26,0.41-0.43,0.85-0.43,1.34C276.43,421.69,330.97,470.1,330.97,470.1z"/>
				</g>
			</g>
		</g>
		<path class="st8" d="M295.69,332.29c0,12.09-9.82,21.92-21.93,21.92c-12.11,0-21.92-9.83-21.92-21.92
			c0-12.12,9.82-21.93,21.92-21.93C285.88,310.36,295.69,320.17,295.69,332.29z"/>
		<path class="st8" d="M412.26,332.29c0,12.09-9.82,21.92-21.92,21.92c-12.12,0-21.93-9.83-21.93-21.92
			c0-12.12,9.81-21.93,21.93-21.93C402.44,310.36,412.26,320.17,412.26,332.29z"/>
		<path class="st9" d="M315.62,311.96c7.83-8.15,20.74-8.41,28.9-0.6"/>
		<g>
			<path class="st20" d="M260.88,280.95l-10.87-1.37l11.65,8.18l0.04-0.03l0.06,0.04c19.76-17.61,31.15,0.69,31.15,0.69
				C284.61,270.24,268.6,274.83,260.88,280.95z"/>
			<path class="st20" d="M397.67,280.95c-7.72-6.12-23.72-10.71-32.01,7.52c0,0,11.41-18.3,31.14-0.69l0.05-0.04l0.03,0.03
				l11.68-8.18L397.67,280.95z"/>
		</g>
		<path class="st9" d="M364.99,410.22h20.24l-20.24,32L293,385.35c0,0,30.28,6.74,40.37,6.74c7.91,0,31.62-6.75,31.62-6.74
			C364.99,385.35,364.99,410.22,364.99,410.22z"/>
		<path class="st5" d="M360.95,1029.77l2.94,6.34l22.3-11.35v-0.01l18.8,14.05c0.28-0.36,4.95-4.7,4.95-4.7l-19.84-9.78
			c1.89,0.43,4.17,0.84,6.56,1.03c9.3,0.75,14.58-3.19,13.84-7.99c-1.02-6.59-7.25-8.32-14.21-3.55c-5.64,3.87-9.07,7.98-9.98,9.13
			c-1.18-1.37-5.57-6.31-11.01-10.33c-6.92-5.12-12.22-3.05-12.49,3.03c-0.22,4.91,6.09,8,12.95,8.43c2.24,0.19,4.22,0.14,5.88,0.02
			L360.95,1029.77z M382.42,1022.01c0,0-2.85,0.25-7.87-0.93c-4.18-0.99-7.44-2.66-6.8-5.52c0.75-3.37,5.69-0.62,8.72,1.22
			C379.87,1018.8,382.42,1022.01,382.42,1022.01z M390.07,1022.45c0,0,2.65-3.14,7.16-5.23c5.13-2.37,7.67-1.63,8.21,0.93
			c0.54,2.56-2.73,4.64-7.38,5.01C393.44,1023.53,390.07,1022.45,390.07,1022.45z M386.01,1023.9l-0.08-0.39
			c0.11-0.03,0.19-0.04,0.28-0.07L386.01,1023.9z"/>
		<path class="st5" d="M285.32,1024.09c1.66,0.12,3.64,0.17,5.88-0.02c6.85-0.44,13.17-3.52,12.95-8.43
			c-0.27-6.08-5.57-8.15-12.49-3.03c-5.44,4.02-9.84,8.96-11.01,10.33c-0.91-1.15-4.34-5.26-9.99-9.13
			c-6.96-4.77-13.19-3.03-14.21,3.55c-0.74,4.8,4.54,8.75,13.84,7.99c2.39-0.19,4.67-0.6,6.56-1.03l-19.84,9.78
			c0,0,4.67,4.34,4.95,4.7l18.8-14.05v0.01l22.3,11.35l2.94-6.34L285.32,1024.09z M290.46,1016.77c3.03-1.84,7.97-4.59,8.72-1.22
			c0.64,2.86-2.62,4.53-6.8,5.52c-5.02,1.19-7.87,0.93-7.87,0.93S287.07,1018.8,290.46,1016.77z M268.86,1023.17
			c-4.64-0.37-7.92-2.45-7.38-5.01c0.54-2.56,3.08-3.3,8.21-0.93c4.51,2.08,7.16,5.23,7.16,5.23S273.5,1023.53,268.86,1023.17z
			 M280.72,1023.45c0.09,0.02,0.16,0.04,0.28,0.07l-0.08,0.39L280.72,1023.45z"/>
		<g>
			<path class="st5" d="M337.2,485.79c0,3.35-2.72,6.07-6.07,6.07c-3.35,0-6.07-2.72-6.07-6.07c0-3.35,2.72-6.07,6.07-6.07
				C334.48,479.72,337.2,482.43,337.2,485.79z"/>
			<path class="st5" d="M337.2,514.63c0,3.35-2.72,6.07-6.07,6.07c-3.35,0-6.07-2.72-6.07-6.07c0-3.35,2.72-6.07,6.07-6.07
				C334.48,508.55,337.2,511.27,337.2,514.63z"/>
			<path class="st5" d="M337.2,543.47c0,3.35-2.72,6.07-6.07,6.07c-3.35,0-6.07-2.72-6.07-6.07c0-3.35,2.72-6.07,6.07-6.07
				C334.48,537.4,337.2,540.12,337.2,543.47z"/>
			<path class="st5" d="M337.2,572.31c0,3.35-2.72,6.07-6.07,6.07c-3.35,0-6.07-2.72-6.07-6.07c0-3.35,2.72-6.07,6.07-6.07
				C334.48,566.24,337.2,568.96,337.2,572.31z"/>
			
				<ellipse transform="matrix(1.472040e-03 -1 1 1.472040e-03 -270.5133 931.3898)" class="st5" cx="331.12" cy="601.15" rx="6.07" ry="6.07"/>
		</g>
		<g>
			<g>
				<rect x="484.82" y="124.27" class="st10" width="7.14" height="53.43"/>
				<path class="st11" d="M494.12,186.8c1.34-1.39,2.17-3.27,2.17-5.35c0-4.28-3.47-7.75-7.75-7.75c-4.27,0-7.74,3.47-7.74,7.75
					c0,1.97,0.76,3.75,1.97,5.11l-7.6,35.15h0.1c-0.02,0.19-0.1,0.37-0.1,0.56c0,4.15,5.99,7.51,13.37,7.51
					c7.39,0,13.38-3.36,13.38-7.51c0-0.19-0.07-0.37-0.1-0.56h0.1L494.12,186.8z"/>
			</g>
			<path class="st12" d="M328.43,220.38l-116.82-25.65l6.75-63.01c73.59,0,147.18,0,220.77,0l6.75,63.01L328.43,220.38z"/>
			<polygon class="st13" points="499.97,123.33 327.25,81.52 154.51,123.33 327.25,165.14 			"/>
		</g>
		<polygon class="st2" points="223.19,516.49 206.58,516.49 260.55,403.83 277.16,403.83 		"/>
		<polygon class="st2" points="432.59,513.12 449.2,513.12 398.6,400.45 381.99,400.45 		"/>
		<path class="st21" d="M457.44,677.3c-0.19-1.49-0.34-3.06-0.5-4.57c-0.21-1.52-0.42-3.01-0.62-4.55H199.97
			c-0.2,1.54-0.43,3.03-0.63,4.55c-0.17,1.51-0.33,3.08-0.52,4.57h30.88c-4.63,54.88-7.18,115.19-7.18,170.55h8.74
			c0-55.36,2.56-115.71,7.22-170.55h36.83c-2.4,54.91-3.72,115.26-3.72,170.55h8.74c0-55.31,1.32-115.67,3.71-170.55h39.7v170.55
			h8.74V677.3h39.7c2.39,55.01,3.71,115.34,3.71,170.55h8.75c0-55.22-1.32-115.53-3.7-170.55h36.83
			c4.63,55.01,7.2,115.36,7.2,170.55h8.74c0-55.2-2.54-115.51-7.18-170.55H457.44z"/>
		<g>
			<path class="st2" d="M452.54,642.98h0.02c-0.03-0.16-0.06-0.31-0.07-0.46c0-0.04-0.02-0.14-0.02-0.14
				c-0.47-3.53-0.94-7.04-1.4-10.52H204.15c-0.49,3.69-0.99,7.39-1.49,11.13h0.01c-0.97,7.31-1.88,15.95-2.73,25.49h255.31
				C454.41,658.93,453.5,650.29,452.54,642.98z"/>
			<path class="st5" d="M360.85,676.82h-63.46v-52.19h63.46V676.82z M304.86,669.36h48.52v-37.27h-48.52V669.36z"/>
			<path class="st5" d="M351.75,649.47c0,1.81-1.46,3.3-3.27,3.3h-20.31c-1.82,0-3.29-1.49-3.29-3.3l0,0c0-1.79,1.46-3.26,3.29-3.26
				h20.31C350.29,646.22,351.75,647.69,351.75,649.47L351.75,649.47z"/>
		</g>
		<path class="st5" d="M365.93,335.95l-70.18,0.05c0,0,4.61,14.59,17.64,22.19c3.57,2.95,7.61,4.18,13.42,5.14
			c10.17,1.69,20.28-2.1,23.61-6.01c-0.08-0.07-0.22-0.16-0.33-0.23C362.13,349.25,365.93,335.95,365.93,335.95z"/>
		<polygon class="st5" points="332.53,468.29 407.05,441.43 386.3,410.22 		"/>
		<polygon class="st5" points="329.47,468.29 254.95,441.43 275.7,410.22 		"/>
	</g>
</g>
</svg>
