<?xml version="1.0" encoding="utf-8"?>
<!-- Generator: Adobe Illustrator 26.0.3, SVG Export Plug-In . SVG Version: 6.00 Build 0)  -->
<svg version="1.1" id="Layer_1" xmlns="http://www.w3.org/2000/svg" xmlns:xlink="http://www.w3.org/1999/xlink" x="0px" y="0px"
	 viewBox="0 0 1133.86 1133.86" style="enable-background:new 0 0 1133.86 1133.86;" xml:space="preserve">
<style type="text/css">
	.st0{fill:none;stroke:#9D9D9D;stroke-width:2.1488;stroke-miterlimit:10;}
	.st1{fill:#B44323;}
	.st2{fill:#28242C;}
	.st3{fill:none;stroke:#933423;stroke-width:3.3393;stroke-miterlimit:10;}
	.st4{fill:#F7E5C3;}
	.st5{fill:#523B44;}
	.st6{fill:#381D0C;}
	.st7{fill:#974927;}
	.st8{fill:#B05932;}
	.st9{opacity:0.66;}
	.st10{fill:none;stroke:#F7E5C3;stroke-width:2.4286;stroke-miterlimit:10;}
	.st11{fill:#933423;}
	.st12{fill:#925224;}
	.st13{fill:#7F4121;}
	.st14{fill:#6E311C;}
	.st15{opacity:0.48;fill:#6E311C;}
	.st16{fill:none;stroke:#B0A78B;stroke-width:3.7754;stroke-miterlimit:10;}
	.st17{fill:#39211B;}
	.st18{fill:#9D9D9D;}
	.st19{fill:#161B21;}
	.st20{fill:#6D5348;}
	.st21{fill:#FFFFFF;}
	.st22{fill:#585250;}
</style>
<g>
	<g>
		<path class="st0" d="M75.65,328.69c301.7,44.28,529.53-317.73,829.31-283.94"/>
		<path class="st0" d="M79.37,341.17c302.69,47.11,531.52-312.1,833.02-271.55"/>
		<path class="st0" d="M83.08,353.65C386.77,403.58,616.59,47.19,919.81,94.53"/>
		<path class="st0" d="M86.8,366.11c304.68,52.76,535.5-300.81,840.44-246.66"/>
		<path class="st0" d="M90.51,378.57C396.2,434.16,628.01,83.42,934.67,144.41"/>
	</g>
	<g>
		<path class="st1" d="M885.25,298.63L642.4,561.97c0,0-61.4-44.94-109.99-26.71c-48.59,18.24-73.58,59.64-82.63,80.71
			c0,0-9.42,16.11-23.3,24.84c-3.55,2.24-3.81,7.33-0.51,9.91c6.22,4.87,12.86,12.93,9.96,23.98
			c-5.08,19.34-41.19,57.19-41.19,57.19s-44.07,40.87-68.07,21.94c0,0-14.32-14.36-14.22-19.93l-12.08,9.48
			c0,0,4.06,13.46-10.33,21.15c0,0-51.24,21.81-77.82,50.47c0,0-40.65,42.03-29.25,105.58c0,0,1.75,47.94,72.42,110.84
			l642.35-721.68"/>
		<path class="st2" d="M187.33,858.92c0,0,51.37-5.79,82.16,28.09c0.32,0.35,0.64,0.71,0.95,1.06
			c24.08,27.18,29.25,66.26,13.63,99.05c-6.14,12.89-15.31,28.56-28.68,44.3c0,0-57.11-47.24-70.97-102.05
			C184.42,929.37,174.83,893.37,187.33,858.92z"/>
		<path class="st1" d="M910.22,320.85L676.81,592.6c0,0,51.76,55.78,39.28,106.16c-12.48,50.38-50.71,80-70.59,91.43
			c0,0-14.91,11.23-21.97,26.02c-1.81,3.79-6.83,4.64-9.79,1.65c-5.56-5.62-14.33-11.28-24.97-7.11
			c-18.62,7.29-52.03,47.54-52.03,47.54s-35.49,48.51-13.9,70.15c0,0,15.93,12.56,21.45,11.81l-8.01,13.09
			c0,0-13.84-2.48-19.81,12.71c0,0-15.73,53.42-41.11,83.15c0,0-37.04,45.24-101.47,41.29c0,0-47.82,3.82-118.49-59.08
			l642.35-721.68"/>
		<g>
			<path class="st3" d="M890.61,338.85L665.75,592.73l5.05,5.45c0.48,0.52,48.58,53.18,37.33,98.61
				c-12.85,51.87-54.32,79.16-66.72,86.29l-0.44,0.25l-0.41,0.31c-0.64,0.48-14.95,11.36-23.12,26.45
				c-0.02-0.02-0.04-0.04-0.06-0.06c-9.7-8.64-20.93-11.09-31.61-6.91c-8.94,3.5-20.68,12.8-35.88,28.42
				c-10.78,11.08-19.11,21.1-19.46,21.52l-0.16,0.19l-0.15,0.2c-0.39,0.53-9.52,13.09-16,28.65c-6.59,15.84-11.44,37.74,2.91,52.13
				l0.34,0.35l0.38,0.3c0.17,0.14,4.33,3.4,9.25,6.62c1.8,1.18,3.47,2.19,5.03,3.06l-0.32,0.52c-7.63,0.69-17.76,4.94-22.89,17.98
				l-0.13,0.34l-0.1,0.35c-0.15,0.52-15.55,52.12-39.48,80.14l-0.11,0.13c-0.08,0.09-8.95,10.72-25.1,20.69
				c-9.38,5.8-19.37,10.26-29.68,13.25c-12.83,3.73-26.24,5.19-39.85,4.35l-0.64-0.04l-0.49,0.05c-0.7,0.04-11.93,0.47-30.76-5.97
				c-11.42-3.91-23.36-9.54-35.48-16.74c-15.21-9.04-30.74-20.58-46.17-34.31c-15.43-13.73-28.69-27.82-39.43-41.88
				c-8.56-11.2-15.54-22.41-20.74-33.3c-8.61-18.01-9.46-29.22-9.5-29.87l-0.01-0.61l-0.11-0.51c-2.41-13.42-2.51-26.91-0.3-40.09
				c1.78-10.59,5.05-21.03,9.72-31.02c8.04-17.19,17.56-27.24,17.66-27.34l0.06-0.06l0.04-0.05c25.06-27.01,74.53-48.29,75.03-48.51
				l0.33-0.14l0.32-0.17c12.36-6.6,15.4-17.16,15.2-24.82l0.48-0.38c1.04,1.45,2.25,2.99,3.62,4.64c3.76,4.52,7.49,8.27,7.64,8.42
				l0.34,0.35l0.38,0.3c15.95,12.59,37.15,5.23,52.12-3.15c14.7-8.23,26.12-18.77,26.6-19.21l0.18-0.17l0.17-0.18
				c0.38-0.4,9.36-9.83,19.12-21.83c13.76-16.91,21.63-29.65,24.07-38.94c2.92-11.09-0.82-21.96-10.52-30.59
				c-0.02-0.02-0.04-0.04-0.06-0.06c14.03-9.87,23.18-25.34,23.59-26.03l0.26-0.44l0.2-0.47c5.64-13.15,27.95-57.5,77.98-76.27
				c9.81-3.68,21.17-4.71,33.74-3.07c10.42,1.36,21.67,4.55,33.44,9.47c20.29,8.48,34.95,19.14,35.09,19.24l6,4.39l226.1-252.78
				L890.61,338.85z"/>
		</g>
		
			<rect x="402" y="811.88" transform="matrix(0.747 0.6649 -0.6649 0.747 656.4614 -89.2675)" class="st4" width="87.03" height="11.89"/>
		<g>
			<polygon class="st5" points="910.22,320.85 885.25,298.63 512.09,693.02 561.75,737.22 			"/>
		</g>
		<path class="st6" d="M344.71,784.55c0,0-4.44,7.11,4.93,11.13c9.37,4.02,27.34-10.72,27.34-10.72s24.71-24.12,41.82-39.1
			c17.11-14.98,31.88-9.38,31.88-9.38s5.77,1.77,7.26,9.57c0,0,1.73,4.95-2.58,10.68c-1.07,1.42-2.67,2.38-4.43,2.54
			c-1.7,0.15-3.77-0.38-5.47-2.97c-0.61-0.92-0.9-2.04-0.74-3.13c0.11-0.78,0.46-1.67,1.26-2.53c1.16-1.23,2.83-1.83,4.52-1.79
			c0.55,0.01,1.07,0.09,1.38,0.29c0,0,1.91-1.62,1.35-4.49c-0.46-2.38-2.44-4.17-4.83-4.56c-3.85-0.63-11.07-0.45-18.81,6.75
			c0,0-18.21,17.93-26.73,27.17c-4.28,4.64-8.91,8.95-13.85,12.87c-7.5,5.96-17.65,13.03-25.26,14.62c0,0-4.67,1.86-10.7,0.98
			c-8.12-1.18-14.5-7.79-15.26-15.96c-0.29-3.14,0.22-6.55,2.52-9.59c0,0,4.88-7.45,11.02-4.28c0,0,2.85,1.64,3.57,5.03
			c0.6,2.85-0.65,5.83-3.26,7.14C350.06,785.62,347.79,785.92,344.71,784.55z"/>
		<path class="st6" d="M490.24,914.08c0,0-6.54,5.23-11.62-3.6c-5.08-8.84,7.48-28.4,7.48-28.4s21.1-27.34,33.99-46.07
			c12.89-18.73,5.62-32.75,5.62-32.75s-2.43-5.53-10.34-6.1c0,0-5.12-1.14-10.31,3.8c-1.28,1.22-2.05,2.92-2,4.7
			c0.05,1.71,0.82,3.7,3.58,5.09c0.99,0.5,2.13,0.66,3.19,0.37c0.76-0.2,1.61-0.65,2.36-1.55c1.09-1.3,1.49-3.02,1.25-4.7
			c-0.08-0.55-0.21-1.05-0.45-1.33c0,0,1.39-2.09,4.31-1.86c2.42,0.18,4.42,1.94,5.09,4.27c1.07,3.75,1.73,10.95-4.52,19.47
			c0,0-15.7,20.17-23.88,29.7c-4.11,4.79-7.85,9.88-11.18,15.25c-5.05,8.14-10.89,19.04-11.6,26.79c0,0-1.3,4.85,0.27,10.74
			c2.11,7.93,9.42,13.5,17.63,13.31c3.15-0.07,6.48-0.98,9.23-3.61c0,0,6.84-5.71,2.97-11.45c0,0-1.96-2.65-5.41-2.96
			c-2.9-0.26-5.72,1.32-6.72,4.06C488.56,908.9,488.52,911.18,490.24,914.08z"/>
		<path class="st7" d="M843.97,364.74l-6.74-6c-2.58-2.29-2.81-6.24-0.51-8.82v0c2.29-2.58,6.24-2.81,8.82-0.51l6.74,6
			c2.58,2.29,2.81,6.24,0.51,8.82l0,0C850.5,366.8,846.55,367.03,843.97,364.74z"/>
		<path class="st7" d="M864.27,337.09l-6.74-6c-2.58-2.29-2.81-6.24-0.51-8.82h0c2.29-2.58,6.24-2.81,8.82-0.51l6.74,6
			c2.58,2.29,2.81,6.24,0.51,8.82v0C870.79,339.16,866.85,339.38,864.27,337.09z"/>
		<path class="st7" d="M890.47,341.07l-6.74-6c-2.58-2.29-2.81-6.24-0.51-8.82l0,0c2.29-2.58,6.24-2.81,8.82-0.51l6.74,6
			c2.58,2.29,2.81,6.24,0.51,8.82v0C896.99,343.14,893.04,343.37,890.47,341.07z"/>
		<path class="st7" d="M869.98,368.55l-6.74-6c-2.58-2.29-2.81-6.24-0.51-8.82l0,0c2.29-2.58,6.24-2.81,8.82-0.51l6.74,6
			c2.58,2.29,2.81,6.24,0.51,8.82l0,0C876.5,370.61,872.55,370.84,869.98,368.55z"/>
		<path class="st2" d="M358.87,864.07l25.28,22.5l-128.84,144.76c0,0-18.13-11.23,15.8-42.27c8.49-7.77,15.79-16.76,21.75-26.61
			C309.5,934.92,342.58,881.49,358.87,864.07z"/>
		<path class="st2" d="M409.43,909.07l-25.28-22.5l-128.84,144.76c0,0,13.25,16.71,40.16-20.59c6.74-9.34,14.82-17.63,23.91-24.69
			C344.79,966.33,394.02,927.27,409.43,909.07z"/>
		<g>
			<g>
				
					<rect x="811.78" y="335.64" transform="matrix(0.747 0.6649 -0.6649 0.747 436.7359 -463.7891)" class="st7" width="31.83" height="12.49"/>
				<path class="st8" d="M825.07,324.88l-14.57,16.37c-1.27,1.43-3.49,1.56-4.92,0.29l-4.56-4.06c-5.93-5.28-6.47-14.46-1.19-20.39
					l0,0c5.28-5.93,14.46-6.47,20.39-1.19l4.56,4.06C826.21,321.23,826.34,323.45,825.07,324.88z"/>
			</g>
			<g>
				
					<rect x="834.48" y="310.14" transform="matrix(0.747 0.6649 -0.6649 0.747 425.523 -485.3364)" class="st7" width="31.83" height="12.49"/>
				<path class="st8" d="M847.77,299.37l-14.57,16.37c-1.27,1.43-3.49,1.56-4.92,0.29l-4.56-4.06c-5.93-5.28-6.47-14.46-1.19-20.39
					l0,0c5.28-5.93,14.46-6.47,20.39-1.19l4.56,4.06C848.91,295.73,849.04,297.94,847.77,299.37z"/>
			</g>
			<g>
				
					<rect x="867.47" y="365.87" transform="matrix(-0.747 -0.6649 0.6649 -0.747 1295.8353 1237.4048)" class="st7" width="31.83" height="12.49"/>
				<path class="st8" d="M900.58,372.76l-14.57,16.37c-1.27,1.43-1.15,3.65,0.29,4.92l4.56,4.06c5.93,5.28,15.11,4.75,20.39-1.19h0
					c5.28-5.93,4.75-15.11-1.19-20.39l-4.56-4.06C904.07,371.19,901.85,371.32,900.58,372.76z"/>
			</g>
			<g>
				
					<rect x="890.17" y="340.37" transform="matrix(-0.747 -0.6649 0.6649 -0.747 1352.452 1207.9409)" class="st7" width="31.83" height="12.49"/>
				<path class="st8" d="M923.28,347.25l-14.57,16.37c-1.27,1.43-1.15,3.65,0.29,4.92l4.56,4.06c5.93,5.28,15.11,4.75,20.39-1.19
					l0,0c5.28-5.93,4.75-15.11-1.19-20.39l-4.56-4.06C926.77,345.69,924.55,345.82,923.28,347.25z"/>
			</g>
		</g>
		<g class="st9">
			<line class="st10" x1="425.95" y1="802.03" x2="366.33" y2="877.2"/>
			<line class="st10" x1="442.72" y1="807.38" x2="376.28" y2="885.94"/>
			<line class="st10" x1="463.45" y1="835.35" x2="395.71" y2="903.29"/>
			<line class="st10" x1="456.2" y1="819.32" x2="385.87" y2="894.42"/>
		</g>
		<g class="st9">
			<line class="st10" x1="425.95" y1="802.03" x2="888.15" y2="301.21"/>
			<line class="st10" x1="437.91" y1="812.68" x2="895.54" y2="307.79"/>
			<line class="st10" x1="463.4" y1="835.49" x2="907.32" y2="318.28"/>
			<line class="st10" x1="451.44" y1="824.84" x2="899.93" y2="311.69"/>
		</g>
		<polygon class="st11" points="878.6,305.66 883.53,310.05 835.72,361.34 830.4,356.6 		"/>
		<polygon class="st11" points="903.91,328.18 898.98,323.8 853.58,377.23 858.89,381.97 		"/>
		<g>
			<path class="st12" d="M893.46,290.21c-3.28,3.68-8.8,4.12-12.33,0.98s-2.98-9.53,0.3-13.22s8.04-3.27,11.57-0.12
				C896.53,280.99,896.74,286.53,893.46,290.21z"/>
			<path class="st13" d="M878.95,286.91c0,0-1.74,3.67,7.2,11l23.83-16.37l-7.82-6.96C902.16,274.58,885.92,288.17,878.95,286.91z"
				/>
			<path class="st14" d="M928.18,275.54l-7.07-6.29l-17.74,15.48c-5.02,4.16-10.38,7.88-16.03,11.13l-10.12,5.82
				c-1.17,0.67-1.33,2.29-0.33,3.19l14.06,12.51L928.18,275.54z"/>
			<path class="st12" d="M917.63,311.73c-3.28,3.68-3.07,9.22,0.46,12.36c3.53,3.14,9.81,1.85,13.09-1.83
				c3.28-3.68,2.31-8.36-1.22-11.51C926.43,307.61,920.91,308.04,917.63,311.73z"/>
			<path class="st13" d="M922.59,325.75c0,0-3.44,2.15-11.76-5.88l13.5-25.56l7.82,6.96C932.15,301.27,920.53,318.98,922.59,325.75z
				"/>
			<path class="st14" d="M928.18,275.54l7.07,6.29l-13.32,19.41c-3.55,5.47-6.63,11.22-9.2,17.21l-4.61,10.73
				c-0.53,1.24-2.12,1.59-3.13,0.7l-14.06-12.51L928.18,275.54z"/>
		</g>
	</g>
	<path class="st15" d="M254.7,1030.85c0.51,0.51,0.93,0.83,1.14,0.98c0.11,0.09,0.18,0.15,0.21,0.17c0.18,0.2,0.7,0.77,1.59,1.4
		c69.81,61.45,116.92,57.69,116.92,57.69c64.44,3.96,101.47-41.29,101.47-41.29c25.38-29.73,41.11-83.15,41.11-83.15
		c5.97-15.19,19.81-12.71,19.81-12.71l8.01-13.09c-5.52,0.75-21.45-11.81-21.45-11.81c-21.59-21.65,13.9-70.15,13.9-70.15
		s33.4-40.25,52.03-47.54c10.64-4.17,19.41,1.49,24.97,7.11c2.96,2.98,7.98,2.14,9.79-1.65c7.06-14.79,21.97-26.02,21.97-26.02
		c19.88-11.43,58.11-41.05,70.59-91.43c10.62-42.89-25.31-89.69-36.23-102.66l190.31-227.38l18.98,16.89l-3.13,3.52
		c-1.27,1.43-1.15,3.65,0.29,4.92l4.56,4.06c5.93,5.28,15.11,4.75,20.39-1.19v0c5.28-5.93,4.75-15.11-1.19-20.39l-4.56-4.06
		c-1.43-1.27-3.65-1.15-4.92,0.29l-3.13,3.52l-19.17-17.06l-0.1-0.08l13.91-16.61l19.75,17.58l-3.13,3.52
		c-1.27,1.43-1.15,3.65,0.29,4.92l4.56,4.06c5.93,5.28,15.11,4.75,20.39-1.19l0,0c5.28-5.93,4.75-15.11-1.19-20.39l-4.56-4.06
		c-1.43-1.27-3.65-1.15-4.92,0.29l-3.13,3.52l-20.04-17.83l3.56-4.25l1.34,1.19c1.01,0.9,2.59,0.54,3.13-0.7l3.62-8.44
		c6.62,6.06,9.89,5.39,10.66,5.09c3.13,0.24,6.61-1.14,8.77-3.58c3.28-3.68,2.31-8.36-1.22-11.51c-0.75-0.67-1.58-1.17-2.47-1.52
		c2.37-4.47,4.66-7.96,4.66-7.96l-6.36-5.66l9.46-13.78l-7.07-6.29"/>
	<g>
		<line class="st16" x1="364.1" y1="380.38" x2="981.6" y2="1021.68"/>
		
			<rect x="657.27" y="255.01" transform="matrix(0.7204 -0.6936 0.6936 0.7204 -267.2773 640.7204)" class="st17" width="7.35" height="793.63"/>
		<polygon class="st17" points="383.06,368.52 365.19,379.33 383.92,398.8 395.4,381.34 		"/>
		
			<rect x="945.11" y="932.59" transform="matrix(0.7204 -0.6936 0.6936 0.7204 -394.1282 923.9645)" class="st18" width="7.35" height="36.34"/>
		
			<rect x="967.63" y="959.22" transform="matrix(0.7204 -0.6936 0.6936 0.7204 -404.8976 947.8093)" class="st19" width="10.69" height="33.63"/>
		
			<rect x="1008.13" y="976.74" transform="matrix(0.7204 -0.6936 0.6936 0.7204 -422.3421 986.9656)" class="st17" width="9.35" height="81.01"/>
		
			<rect x="1043.19" y="1043.61" transform="matrix(0.7204 -0.6936 0.6936 0.7204 -437.7947 1021.4647)" class="st18" width="9.35" height="20.1"/>
		<polygon class="st20" points="1034.8,1040.24 1028.5,1046.31 987.71,1004.35 989.88,993.6 		"/>
		
			<rect x="998.01" y="1017.23" transform="matrix(0.7204 -0.6936 0.6936 0.7204 -438.1909 988.991)" class="st20" width="18.76" height="41.37"/>
		<path class="st21" d="M1015.69,1037.23c1.66,1.72,1.61,4.46-0.12,6.12s-4.46,1.61-6.12-0.12c-1.66-1.72-1.61-4.46,0.12-6.12
			C1011.29,1035.46,1014.03,1035.51,1015.69,1037.23z"/>
		
			<rect x="981.5" y="1020.39" transform="matrix(0.7204 -0.6936 0.6936 0.7204 -435.4661 969.6133)" class="st18" width="6.46" height="8.91"/>
	</g>
	<g>
		<path class="st22" d="M295.59,319l-22.67,14.92l6.05,15.63c1.5,3.88,1.87,7.11-0.06,10.49c-1.57,2.57-3.3,4.05-4.94,4.68
			c-2.64,1.02-5.05-0.14-5.98-2.55c-0.27-0.71-0.45-1.51-0.39-2.41c0.06-5.97,5.67-8.75,7.44-9.77l-12.02-31.09l29.29-19.1
			l12.41,32.08c1.5,3.88,1.92,7.23-0.06,10.49c-1.52,2.55-3.26,3.96-4.91,4.6c-2.7,1.05-5.11-0.12-6.02-2.47
			c-0.41-1.06-2.41-7.11,7.04-12.18L295.59,319z M291.34,308.02l-22.67,14.92l1.89,4.88l22.67-14.92L291.34,308.02z"/>
		<path class="st22" d="M574.9,152.78l-25.8,19.32l8.3,18.09c2.06,4.49,2.73,8.3,0.68,12.44c-1.68,3.16-3.62,5.03-5.52,5.91
			c-3.06,1.4-6,0.2-7.28-2.59c-0.37-0.82-0.64-1.76-0.64-2.83c-0.36-7.08,6.09-10.78,8.11-12.11l-16.5-35.98l33.35-24.76
			l17.03,37.14c2.06,4.49,2.8,8.43,0.68,12.45c-1.61,3.13-3.58,4.93-5.49,5.81c-3.13,1.43-6.07,0.23-7.32-2.49
			c-0.56-1.22-3.37-8.25,7.47-14.95L574.9,152.78z M569.07,140.06l-25.8,19.32l2.59,5.65l25.8-19.32L569.07,140.06z"/>
		<path class="st22" d="M132.9,338.06c-0.15-0.57,0.2-1.01,0.67-1.13c0.38-0.1,0.81,0,1.09,0.48c2.01,3.69,8.22,5.2,13.62,8.89
			c2.93,1.94,5.21,4.35,6.03,7.53c0.96,3.76-0.17,8.66-4.75,15.35c-0.19,0.25-0.4,0.41-0.59,0.46c-0.38,0.1-0.75-0.16-0.85-0.54
			c-0.05-0.19,0-0.4,0.09-0.63c2.47-4.84,3.24-8.94,2.44-12.08c-0.67-2.62-2.39-4.61-5.15-5.88c-2.59-1.21-5.89-2.25-6.98-2.53
			l5.46,21.41c0.8,3.14,0.79,5.68-1.02,8.11c-1.46,1.84-2.93,2.82-4.26,3.16c-2.14,0.55-3.9-0.58-4.39-2.53
			c-0.15-0.57-0.21-1.21-0.08-1.91c0.6-4.61,5.2-6.24,6.66-6.87L132.9,338.06z"/>
		<path class="st22" d="M427.58,235.03c-0.28-0.6,0-1.16,0.5-1.39c0.4-0.19,0.89-0.17,1.3,0.3c2.99,3.65,10.15,4,16.89,6.93
			c3.63,1.52,6.66,3.69,8.23,7.04c1.85,3.94,1.63,9.58-2,17.92c-0.16,0.32-0.36,0.53-0.56,0.63c-0.4,0.19-0.86-0.02-1.05-0.42
			c-0.09-0.2-0.09-0.45-0.03-0.72c1.7-5.85,1.69-10.53,0.15-13.83c-1.29-2.74-3.61-4.58-6.91-5.4c-3.11-0.79-6.97-1.23-8.23-1.32
			l10.53,22.45c1.54,3.29,2.07,6.09,0.58,9.16c-1.22,2.34-2.63,3.73-4.03,4.39c-2.25,1.05-4.42,0.18-5.38-1.86
			c-0.28-0.6-0.49-1.29-0.49-2.08c-0.31-5.21,4.42-7.97,5.9-8.97L427.58,235.03z"/>
		<path class="st22" d="M743.32,70.7c-0.22-0.88,0.32-1.56,1.05-1.74c0.59-0.14,1.25,0,1.67,0.76c3.05,5.73,12.62,8.14,20.91,13.9
			c4.49,3.03,7.99,6.78,9.2,11.71c1.43,5.81-0.38,13.36-7.53,23.63c-0.3,0.38-0.63,0.62-0.92,0.7c-0.59,0.14-1.16-0.26-1.3-0.85
			c-0.07-0.29,0-0.62,0.15-0.97c3.87-7.43,5.12-13.75,3.93-18.61c-1-4.05-3.63-7.15-7.87-9.15c-3.98-1.91-9.07-3.54-10.74-3.99
			l8.15,33.12c1.2,4.86,1.14,8.77-1.68,12.51c-2.27,2.82-4.56,4.32-6.62,4.83c-3.31,0.82-6.01-0.94-6.75-3.96
			c-0.22-0.88-0.31-1.88-0.1-2.94c0.98-7.11,8.11-9.57,10.37-10.51L743.32,70.7z"/>
		<path class="st22" d="M205.96,310.54c-0.23-0.61,0.41-1.21,1.23-1.52c0.77-0.29,1.65-0.28,1.88,0.33l12.71,33.27
			c3.24,8.47-2.64,12.53-4.27,13.15c-2.3,0.88-4.52-0.2-5.32-2.29c-0.58-1.53-1.16-6.87,6.17-10.48L205.96,310.54z"/>
		<path class="st22" d="M339.92,287.17c-0.26-0.6,0.36-1.23,1.16-1.58c0.75-0.33,1.63-0.35,1.89,0.25l14.2,32.66
			c3.62,8.32-2.07,12.64-3.67,13.33c-2.25,0.98-4.53,0-5.42-2.05c-0.65-1.5-1.47-6.81,5.69-10.75L339.92,287.17z"/>
		<path class="st22" d="M619.63,143.67c-0.31-0.72,0.43-1.47,1.39-1.89c0.9-0.39,1.96-0.42,2.27,0.3l17.04,39.19
			c4.34,9.98-2.48,15.16-4.41,16c-2.7,1.18-5.43,0-6.5-2.46c-0.78-1.8-1.76-8.17,6.83-12.9L619.63,143.67z"/>
		<path class="st22" d="M660.21,82.36c-0.38-0.87,0.52-1.79,1.69-2.29c1.09-0.48,2.38-0.51,2.76,0.36l20.65,47.49
			c5.26,12.09-3.01,18.37-5.34,19.39c-3.28,1.43-6.58,0-7.88-2.98c-0.95-2.19-2.14-9.9,8.27-15.64L660.21,82.36z"/>
		<path class="st22" d="M377.4,251.96c-0.26-0.56,0.3-1.16,1.04-1.52c0.7-0.33,1.52-0.38,1.79,0.18l14.33,30.21
			c3.65,7.69-1.56,11.92-3.04,12.62c-2.09,0.99-4.25,0.14-5.15-1.76c-0.66-1.39-1.59-6.34,5.01-10.26L377.4,251.96z"/>
		<path class="st22" d="M491.51,211.35c-0.29-0.61,0.33-1.29,1.14-1.68c0.77-0.37,1.68-0.43,1.97,0.19l15.93,33.3
			c4.06,8.48-1.67,13.16-3.31,13.95c-2.3,1.1-4.69,0.17-5.69-1.92c-0.73-1.53-1.78-6.99,5.49-11.35L491.51,211.35z"/>
	</g>
</g>
</svg>
