<?xml version="1.0" encoding="utf-8"?>
<!-- Generator: Adobe Illustrator 26.0.3, SVG Export Plug-In . SVG Version: 6.00 Build 0)  -->
<svg version="1.1" id="Layer_1" xmlns="http://www.w3.org/2000/svg" xmlns:xlink="http://www.w3.org/1999/xlink" x="0px" y="0px"
	 viewBox="0 0 1133.86 1133.86" style="enable-background:new 0 0 1133.86 1133.86;" xml:space="preserve">
<style type="text/css">
	.st0{fill:#009345;}
	.st1{fill:#003F12;}
	.st2{fill:#007D42;}
	.st3{fill:#002E03;}
	.st4{fill:#E2EECE;}
	.st5{fill:#EC1C24;}
	.st6{fill:#D41920;}
	.st7{fill:#231F20;}
</style>
<g>
	<g>
		<path class="st0" d="M798.28,213.27c0,0,33.3-73.09,64.55-70.95l15.42,4.2c0,0-9.39-0.64-33.42,29.12
			c-24.03,29.75-18.85,45.81-18.85,45.81L798.28,213.27z"/>
		<path class="st0" d="M475.85,599.1l19.07-48.94l-8.42-60.25l21.12-33.09L505.46,397l30.71-35.58l13.03-52.49l32.12-10.35
			l-3.4-22.53c-68.69,54.81-115.07,137.1-121.57,231.69c-4.94,71.79,13.87,139.72,49.7,196.16l-16.73-72.45L475.85,599.1z"/>
		<path class="st0" d="M1044.66,343.02l5.72,53.79l25.55,39.45l-10.33,58.96l16.39,35.67l-16.6,58.54l12.19,51.09l-17.78,30.19
			l-22.12,58.03c38.05-49.16,62.46-109.71,67.05-176.39c6.37-92.66-26.82-178.85-85.09-242.23l-5.39,18.25L1044.66,343.02z"/>
		<path class="st0" d="M804.85,770.03l30.35-30.17l-19.01-43.23l33.69-33.16L831.3,613.8l29.43-62.49l-32.4-31.27l29.86-68.9
			l-50.71-38.98l18.95-47.08l-23.24-27.4l18.95-47.09l-17.21-23.77c0,0-1.28-38.32,4.79-60.33c-2.3-0.21-4.57-0.49-6.87-0.65
			c-3.87-0.26-7.72-0.37-11.58-0.5c2.96,22.65-3.53,60.3-3.53,60.3l-20.3,21.19l12.31,49.23l-26.77,23.96l12.3,49.23l-55.56,31.66
			l20.13,72.35l-36.36,26.52l20.59,65.94l-25.19,46.65l28.83,37.47l-24.75,40.23l25.93,34.04l-14.94,34.44L722,849.64
			c11.85,2.16,23.93,3.74,36.24,4.59c10.61,0.73,21.12,0.9,31.55,0.61l25.13-48.62L804.85,770.03z"/>
		<path class="st0" d="M656.15,763.03l-31.52-44.1l18.07-34.25l-37.11-54.16l24.97-43.43l-16.8-75.36l28.1-43.22l-17.03-72.14
			l55.13-25.24l-3.37-42.16l42.83-29.32l-10.29-32.97l35.62-59.58c-15.69,1.72-31.07,4.55-46.05,8.45l10.76,0.75l-89.79,72.33
			l23.73,20.49l-45.91,28.23l6.79,38.17l-53.45,46.57l15.52,48.18l-36.97,35.14l24.91,48.82l-28.02,42.05l23.08,29.84l-15.95,49.15
			l35.58,30.72l-16.72,14.56l51.97,82.45c17.49,11.31,36.15,21,55.81,28.85l-18.62-37.59L656.15,763.03z"/>
		<path class="st0" d="M970.66,733.66l39.45-25.55l-9.06-50.87l26.95-26.4l-22-45.49l31.36-44.95l-31.8-39.88l21.98-45.6
			l-46.58-53.46l11.97-36.87l-41.61-34.27l26.29-17.04l-79.02-83.95l6.09,0.42c-15.91-6.56-32.45-11.94-49.58-15.97l27.53,64.87
			l-14.72,31.24l38.43,34.9l-9.12,41.31l51.16,32.56l-26.74,69.11l21.91,46.67l-26.97,72.35l18.79,46.44L891.2,701.8l13.2,36.37
			l-37.25,39.37l10.29,32.98l-24.77,36.4c25.72-5.85,50.36-14.77,73.47-26.4l59.08-70.15L970.66,733.66z"/>
		<path class="st1" d="M867.15,777.54l37.25-39.37l-13.2-36.37l44.17-48.59l-18.79-46.44l26.97-72.35l-21.91-46.67l26.74-69.11
			l-51.16-32.56l9.12-41.31l-38.43-34.9l14.72-31.24l-27.53-64.87c-14.72-3.46-29.9-5.88-45.38-7.27
			c-6.07,22.01-4.79,60.33-4.79,60.33l17.21,23.77l-18.95,47.09l23.24,27.4l-18.95,47.08l50.71,38.98l-29.86,68.9l32.4,31.27
			L831.3,613.8l18.57,49.66l-33.69,33.16l19.01,43.23l-30.35,30.17l10.07,36.19l-25.13,48.62c21.5-0.58,42.53-3.3,62.89-7.93
			l24.77-36.4L867.15,777.54z"/>
		<path class="st1" d="M1037.68,728.74l22.12-58.03l17.78-30.19l-12.19-51.09l16.6-58.54l-16.39-35.67l10.33-58.96l-25.55-39.45
			l-5.72-53.79l-30.4-14.64l5.39-18.25c-31.65-34.44-70.74-62.1-114.97-80.38l-6.09-0.42l79.02,83.95l-26.29,17.04l41.61,34.27
			l-11.97,36.87l46.58,53.46l-21.98,45.6l31.8,39.88L1006,585.34l22,45.49l-26.95,26.4l9.06,50.87l-39.45,25.55l14.56,16.71
			l-59.08,70.15C969.72,798.62,1007.9,767.21,1037.68,728.74z"/>
		<path class="st1" d="M718.89,764.13l-25.93-34.04l24.75-40.23l-28.83-37.47l25.19-46.65l-20.59-65.94l36.36-26.52l-20.13-72.35
			l55.56-31.66l-12.3-49.23l26.77-23.96l-12.31-49.23l20.3-21.19c0,0,6.49-37.65,3.53-60.3c-15.75-0.53-31.26,0.09-46.5,1.77
			l-35.62,59.58l10.29,32.97l-42.83,29.32l3.37,42.16l-55.13,25.24l17.03,72.14l-28.1,43.22l16.8,75.36l-24.97,43.43l37.11,54.16
			l-18.07,34.25l31.52,44.1l-14.71,31.25l18.62,37.59c19.71,7.86,40.44,13.85,61.94,17.77l-18.05-51.07L718.89,764.13z"/>
		<path class="st1" d="M568.99,706.02l-35.58-30.72l15.95-49.15l-23.08-29.84l28.02-42.05l-24.91-48.82l36.97-35.14l-15.52-48.18
			l53.45-46.57l-6.79-38.17l45.91-28.23l-23.73-20.49l89.79-72.33l-10.76-0.75c-44.56,11.6-85.61,32.39-120.79,60.47l3.4,22.53
			l-32.12,10.35l-13.03,52.49L505.46,397l2.17,59.83l-21.12,33.09l8.42,60.25l-19.07,48.94l13.47,32.34l16.73,72.45
			c25.11,39.6,58.62,73.52,98.2,99.13l-51.97-82.45L568.99,706.02z"/>
	</g>
	<path class="st2" d="M1072.56,431.04l3.37,5.21l-10.33,58.96l16.39,35.67l-16.6,58.54l12.19,51.09l-17.78,30.19l-22.12,58.03
		c38.05-49.16,62.46-109.71,67.05-176.39c3.56-51.73-5.25-101.45-23.82-146.3C1078.58,413.79,1075.76,422.2,1072.56,431.04z"/>
	<path class="st2" d="M804.85,770.03l30.35-30.17l-9.81-22.29c-33.55,16.38-64.68,27.53-89.71,35.79
		c-6.16,2.04-12.92,4.2-20.08,6.42l3.3,4.34l-14.94,34.44L722,849.64c11.85,2.16,23.93,3.74,36.24,4.59
		c10.61,0.73,21.12,0.9,31.55,0.61l25.13-48.62L804.85,770.03z"/>
	<path class="st0" d="M807.67,216.04c0.57-3.37,1.24-6.61,2.05-9.53c-2.3-0.21-4.57-0.49-6.87-0.65c-0.31-0.03-0.62-0.02-0.92-0.04
		c-2.32,4.57-3.64,7.46-3.64,7.46L807.67,216.04z"/>
	<path class="st2" d="M648.29,779.69c-17.36,4.97-34.46,9.76-49.89,14.06l5.85,9.28c17.49,11.31,36.15,21,55.81,28.85l-18.62-37.59
		L648.29,779.69z"/>
	<path class="st2" d="M970.66,733.66l39.45-25.55l-9.06-50.87l26.95-26.4l-22-45.49l31.36-44.95l-9.1-11.42
		c-14.83,27.22-31.03,52.39-46.97,70.7c-15.57,17.88-31.76,33.73-48.23,47.84l2.31,5.7L891.2,701.8l13.2,36.37l-37.25,39.37
		l10.29,32.98l-24.77,36.4c25.72-5.85,50.36-14.77,73.47-26.4l59.08-70.15L970.66,733.66z"/>
	<path class="st3" d="M867.15,777.54l37.25-39.37l-13.2-36.37l44.17-48.59l-2.31-5.7c-35.95,30.83-73.11,53.22-107.68,70.06
		l9.81,22.29l-30.35,30.17l10.07,36.19l-25.13,48.62c21.5-0.58,42.53-3.3,62.89-7.93l24.77-36.4L867.15,777.54z"/>
	<path class="st1" d="M807.67,216.04l18.31,5.42c0,0-1.37-4.45,0.73-12.94c-5.62-0.8-11.28-1.5-16.99-2.01
		C808.91,209.43,808.24,212.67,807.67,216.04z"/>
	<path class="st3" d="M1077.58,640.52l-12.19-51.09l16.6-58.54l-16.39-35.67l10.33-58.96l-3.37-5.21
		c-10.95,30.17-26.63,65.49-44.3,97.93l9.1,11.42L1006,585.34l22,45.49l-26.95,26.4l9.06,50.87l-39.45,25.55l14.56,16.71
		l-59.08,70.15c43.58-21.9,81.75-53.31,111.54-91.79l22.12-58.03L1077.58,640.52z"/>
	<path class="st3" d="M718.89,764.13l-3.3-4.34c-20.32,6.32-43.96,13.25-67.29,19.91l-6.86,14.59l18.62,37.59
		c19.71,7.86,40.44,13.85,61.94,17.77l-18.05-51.07L718.89,764.13z"/>
	<path class="st1" d="M592.93,795.26c3.73,2.65,7.47,5.28,11.32,7.77l-5.85-9.28C596.55,794.26,594.72,794.77,592.93,795.26z"/>
	<g>
		<path class="st0" d="M28.35,681.58c0.12,1.13,0.19,2.25,0.34,3.39c24.72,192.47,200.8,328.45,393.26,303.71
			c192.46-24.72,328.43-200.79,303.71-393.25c-0.15-1.13-0.35-2.24-0.52-3.36L28.35,681.58z"/>
		<path class="st4" d="M42.77,679.72c0.14,1.08,0.19,2.18,0.32,3.23C66.8,867.46,235.58,997.8,420.07,974.1
			c184.49-23.7,314.83-192.47,291.12-376.97c-0.14-1.07-0.35-2.14-0.48-3.23L42.77,679.72z"/>
		<path class="st5" d="M59.4,677.59c0.13,1.02,0.19,2.05,0.32,3.07C82.25,855.98,242.62,979.82,417.9,957.3
			c175.31-22.53,299.15-182.88,276.63-358.2c-0.12-1.02-0.33-2.03-0.46-3.05L59.4,677.59z"/>
		<path class="st6" d="M694.07,596.05l-67.29,8.65c-4.45,30.63-16.04,81.87-40.77,118.93c-33.14,49.6-127.19,153.05-353.65,201.67
			c55.32,28.12,119.37,40.5,185.54,32c175.31-22.53,299.15-182.88,276.63-358.2C694.41,598.08,694.21,597.07,694.07,596.05z"/>
		<g>
			<path class="st7" d="M182.59,722.64c-22.92-1.51-49.77-7.21-47.03,14.94C138.28,759.76,182.59,722.64,182.59,722.64z"/>
			<path class="st7" d="M211.53,747.14c-20.11,11.12-58.44,23.01-31.51,38C199.53,795.99,211.53,747.14,211.53,747.14z"/>
			<path class="st7" d="M275.47,794.82c-10.82,20.25-36.52,51.09-5.77,49.01C291.97,842.34,275.47,794.82,275.47,794.82z"/>
			<path class="st7" d="M362.33,824.27c-7.51,21.71-28.04,56.19,2,49.32C386.09,868.61,362.33,824.27,362.33,824.27z"/>
			<path class="st7" d="M228.26,790.2c-15.18,17.25-47.27,41.36-16.87,46.39C233.43,840.25,228.26,790.2,228.26,790.2z"/>
			<path class="st7" d="M315.91,827.03c-7.97,21.55-29.23,55.58,0.94,49.34C338.72,871.87,315.91,827.03,315.91,827.03z"/>
			<path class="st7" d="M404.56,843.33c-3,22.78-16.2,60.68,11.85,47.91C436.75,881.99,404.56,843.33,404.56,843.33z"/>
			<path class="st7" d="M592.16,670.03c21.8-7.25,46.32-19.56,49.29,2.57C644.4,694.72,592.16,670.03,592.16,670.03z"/>
			<path class="st7" d="M568.54,703.37c22.27,5.68,62.36,7.51,40.08,28.81C592.5,747.61,568.54,703.37,568.54,703.37z"/>
			<path class="st7" d="M528.01,756.05c15.6,16.87,48.25,40.2,17.97,45.97C524.07,806.2,528.01,756.05,528.01,756.05z"/>
			<path class="st7" d="M444.28,808.41c12.74,19.11,41.32,47.28,10.53,48.22C432.5,857.32,444.28,808.41,444.28,808.41z"/>
			<path class="st7" d="M565.03,746.94c19.05,12.84,56.19,28.05,28.04,40.62C572.69,796.67,565.03,746.94,565.03,746.94z"/>
			<path class="st7" d="M491.96,805.77c15.81,16.67,48.78,39.56,18.58,45.73C488.67,855.98,491.96,805.77,491.96,805.77z"/>
		</g>
	</g>
</g>
</svg>
