<?xml version="1.0" encoding="utf-8"?>
<!-- Generator: Adobe Illustrator 26.0.3, SVG Export Plug-In . SVG Version: 6.00 Build 0)  -->
<svg version="1.1" id="Layer_1" xmlns="http://www.w3.org/2000/svg" xmlns:xlink="http://www.w3.org/1999/xlink" x="0px" y="0px"
	 viewBox="0 0 1133.86 1133.86" style="enable-background:new 0 0 1133.86 1133.86;" xml:space="preserve">
<style type="text/css">
	.st0{fill:#FFEED0;}
	.st1{fill:#FFFFFF;}
	.st2{fill:#BCD7F2;}
	.st3{fill:#8EC7ED;}
	.st4{fill:#3C3C3B;}
	.st5{fill:#8DD0E6;}
	.st6{fill:#7DB0DF;}
	.st7{fill:#446179;}
</style>
<rect x="0" y="0" class="st0" width="1133.86" height="1133.86"/>
<g>
	
		<ellipse transform="matrix(0.7071 -0.7071 0.7071 0.7071 -234.8296 566.9304)" class="st1" cx="566.93" cy="566.93" rx="367.15" ry="367.15"/>
	<g>
		<g>
			<path class="st2" d="M1091.34,654.63c-39.94-31.72-56.97-44.05-112.18-41.7c-28.2,1.17-79.88,7.05-91.63,36.42
				c0,0,4.41-137.44-132.74-137.44c0,0,32.3,29.37,19.97,95.15c-6.93,36.95,22.32,85.75,62.26,91.63c0,0,1.18,9.12-1.17,9.4
				c-251.39,29.76-199.7-129.22-317.17-246.69C400.05,342.78,42.52,358.02,42.52,660.57c0,335.11,485.26,329.79,625.34,264.83
				c164.45-76.27,206.75-216.14,206.75-216.14c29.36,16.45,68.13,35.24,108.07,15.27c37.59-18.79,34.94-55.24,86.54-68.13
				C1072.5,655.58,1091.34,654.63,1091.34,654.63z"/>
		</g>
		<g>
			<path class="st3" d="M237.94,923.5c151.44,57.17,348.7,39.57,429.92,1.9c62.19-28.84,106.89-66.78,138.46-102.81
				C674.91,908.96,491.51,959.6,237.94,923.5z"/>
		</g>
		<path class="st4" d="M360.09,746.85c0,11.03-8.94,19.97-19.97,19.97c-11.04,0-19.97-8.94-19.97-19.97
			c0-11.03,8.93-19.97,19.97-19.97C351.15,726.88,360.09,735.82,360.09,746.85z"/>
		<g>
			<path class="st5" d="M304.28,250.86c-0.04,0-0.09,0.01-0.13,0.01c-0.04,0-0.09-0.01-0.14-0.01c-12.8,0-22.65,22.5-18.26,49.23
				c5.87,35.66,18.26,71.29,18.26,71.29s0.05-0.07,0.14-0.17c0.08,0.1,0.13,0.17,0.13,0.17s12.39-35.62,18.25-71.29
				C326.93,273.36,317.09,250.86,304.28,250.86z"/>
			<path class="st5" d="M399.05,290.23c-0.03-0.03-0.07-0.06-0.09-0.09c-0.03-0.03-0.06-0.07-0.09-0.1
				c-9.06-9.06-31.92-0.11-47.71,21.9c-21.07,29.36-37.5,63.31-37.5,63.31s0.08,0,0.21-0.02c-0.02,0.12-0.02,0.21-0.02,0.21
				s33.95-16.43,63.3-37.5C399.15,322.15,408.1,299.29,399.05,290.23z"/>
			<path class="st5" d="M209.24,290.23c0.03-0.03,0.07-0.06,0.1-0.09c0.03-0.03,0.05-0.07,0.09-0.1c9.05-9.06,31.93-0.11,47.72,21.9
				c21.07,29.36,37.5,63.31,37.5,63.31s-0.09,0-0.21-0.02c0.01,0.12,0.02,0.21,0.02,0.21s-33.95-16.43-63.31-37.5
				C209.14,322.15,200.18,299.29,209.24,290.23z"/>
			<path class="st5" d="M412.58,198.57c0.01,0.05,0,0.08,0,0.12c0.01,0.05,0.01,0.08,0.02,0.12c0.12,11.55-15.74,15.44-35.93,16.2
				c-28.26-0.97-55.1,17.6-54.71,18.31c-0.01,0,0-0.09,0-0.24c-0.1,0.02-0.18,0.04-0.18,0.04c-0.69,0.3,10.17-40.03,42.4-52.15
				C388.01,171.26,412.76,187.39,412.58,198.57z"/>
			<path class="st5" d="M472.76,296.27c-0.05,0.01-0.08,0-0.12,0c-0.04,0.01-0.09,0.01-0.13,0.02
				c-11.55,0.12-15.44-15.75-16.2-35.92c0.96-28.27-17.6-55.11-18.31-54.72c0.01,0,0.09,0,0.24,0.01c-0.02-0.1-0.04-0.18-0.04-0.18
				c-0.3-0.68,40.03,10.17,52.15,42.4C500.07,271.71,483.94,296.46,472.76,296.27z"/>
			<path class="st5" d="M419.74,247.96c0.01,0.05,0,0.08,0,0.12c0.01,0.05,0.01,0.08,0.02,0.12c0.12,11.55-15.75,15.44-35.93,16.2
				c-28.27-0.96-55.1,17.6-54.71,18.31c-0.01,0,0-0.09,0-0.24c-0.1,0.02-0.18,0.04-0.18,0.04c-0.68,0.3,10.18-40.03,42.4-52.15
				C395.18,220.65,419.94,236.78,419.74,247.96z"/>
			<path class="st5" d="M382.76,126.3c0.02,0.03,0.02,0.07,0.04,0.11c0.02,0.04,0.06,0.08,0.08,0.11
				c5.51,11.51-16.69,21.89-41.02,35.07c-34.75,15.89-54.09,55.5-53.51,55.98c0,0-0.03-0.11-0.06-0.26
				c-0.09,0.1-0.16,0.16-0.16,0.16c-0.3,0.8-2.98-51.63,28.62-83.14C339.62,109.96,377.61,114.78,382.76,126.3z"/>
			<path class="st5" d="M266.19,161.9c0.03,0.01,0.07,0.04,0.11,0.04c0.05,0.01,0.09,0.01,0.14,0.02
				c12.21,3.71,4.88,27.1-1.84,53.94c-11.74,36.36,4.41,77.37,5.15,77.27c0,0-0.1-0.05-0.23-0.13c0.02,0.14,0.02,0.22,0.02,0.22
				c0.39,0.77-40.1-32.66-42-77.24C225,182.69,254.21,157.92,266.19,161.9z"/>
			<path class="st5" d="M529.85,214.2c-0.02,0.04-0.06,0.06-0.09,0.1c-0.04,0.04-0.06,0.09-0.09,0.14
				c-10.05,10.89-30.82-8.59-55.51-29.19c-32.11-30.67-83.18-34.49-83.44-33.67c0,0,0.1-0.07,0.24-0.18
				c-0.14-0.06-0.23-0.1-0.24-0.1c-0.99,0.01,54.44-25.45,102.06-4.9C528.91,160.6,540.07,203.68,529.85,214.2z"/>
		</g>
		<path class="st6" d="M438,866.67c0,0,23.11,146.84,165.24,150.36c0,0-28.19-91.23-3.91-131.96
			C599.34,885.07,534.33,808.32,438,866.67z"/>
		<path class="st7" d="M365.42,828.72c-2.03-0.22-4.34,0.28-5.95,1.59c-1.28,1.04-1.05,2.49,0.72,2.67
			c5.55,0.6,10.88,2.69,14.97,6.05c-66.66,54.87-162.7,40.01-241.27,25.29c2.34,1.97,4.69,3.92,7.1,5.81
			c79.01,14.07,170.52,23.05,237.19-28.1c2.92,3.56,4.65,8.05,4.41,13.36c-0.15,3.18,8.27,1.37,8.39-1.17
			C391.64,839.33,379.23,830.2,365.42,828.72z"/>
	</g>
</g>
</svg>
