<?xml version="1.0" encoding="utf-8"?>
<!-- Generator: Adobe Illustrator 26.0.3, SVG Export Plug-In . SVG Version: 6.00 Build 0)  -->
<svg version="1.1" id="Layer_1" xmlns="http://www.w3.org/2000/svg" xmlns:xlink="http://www.w3.org/1999/xlink" x="0px" y="0px"
	 viewBox="0 0 1133.86 1133.86" style="enable-background:new 0 0 1133.86 1133.86;" xml:space="preserve">
<style type="text/css">
	.st0{fill:#1C1D21;}
</style>
<g id="XMLID_10037_">
	<g id="XMLID_9938_">
		<g id="XMLID_871_">
			<path id="XMLID_893_" class="st0" d="M529.42,629.05c17.78-45.86,59.26-72.54,92.64-59.6c4.24,1.64,8.15,3.85,11.7,6.54
				c-5.29-5.97-11.72-10.62-19.19-13.51c-33.38-12.94-74.86,13.74-92.64,59.6c-15.52,40.03-7.85,81.44,16.55,99.93
				C520.15,701.31,515.62,664.64,529.42,629.05z"/>
			<g id="XMLID_9677_">
				<path id="XMLID_244_" class="st0" d="M620.17,498.05l-150.26-29c-55.64-9.57-112.81,3.13-159.16,35.36L34.99,696.18
					c-4.16,2.89-6.64,7.64-6.64,12.71v29.63c0,7.15,4.9,13.38,11.85,15.05l193.34,46.64c1.11,0.27,2.24,0.41,3.38,0.43v-62.18
					l257.32-191.94c0,0,88.69-63.82,148.21-40.78C635.48,502.17,627.98,499.56,620.17,498.05z M145.37,631.94l31.3,6.47
					l-74.61,51.51l-32.54-5.61L145.37,631.94z M229.44,783.86l-188.6-43.72v-29.98l188.6,33.72V783.86z M193.42,625.8l-32.54-5.61
					l39.06-26.97l32.89,5.37L193.42,625.8z M375.79,481.38c1.87-0.59,3.83-1.17,5.85-1.75l20.55,5.47
					c-18.29,6.73-32.44,14.29-42.9,21.02l-29.02-5.37C331,500.32,348.51,489.92,375.79,481.38z M406.38,586.84l-128.46-37.38
					l48.92-33.73l127.41,33.73L406.38,586.84z"/>
			</g>
			<path id="XMLID_876_" class="st0" d="M448.15,721.58l-41.83,17.83l76.32,30.55C464.7,752.51,453.48,732.55,448.15,721.58z"/>
			<g id="XMLID_1076_">
				<path id="XMLID_144_" class="st0" d="M624.78,510.25c-3.6-0.5-7.35-0.76-11.25-0.76c-51.57,0-112.04,42.62-114.13,44.11
					L245.66,742.86v55.51l206.96-88.21c0,0,18.7,48.23,60.01,71.69l7.13,2.8c3.88,1.86,7.91,3.46,12.1,4.75
					c60.95,18.79,130.69-31.93,155.79-113.31c6.79-22.01,9.6-44,8.9-64.76C693.01,523.99,630.84,511.29,624.78,510.25z M661.8,674.3
					c-23.19,59.81-77.28,94.61-120.82,77.73c-43.54-16.88-60.03-79.05-36.85-138.86c23.19-59.81,77.28-94.61,120.82-77.73
					C668.49,552.32,684.99,614.49,661.8,674.3z"/>
			</g>
		</g>
		<path id="XMLID_9844_" class="st0" d="M518.57,471.59l125.21,23.43l-16-23.1c-12.53-18.09-35.55-25.64-56.36-18.49L518.57,471.59z
			 M581.32,468.37c-0.2-6.22,4.68-11.43,10.91-11.63c6.22-0.2,11.43,4.68,11.63,10.91c0.2,6.22-4.68,11.43-10.91,11.63
			C586.72,479.47,581.52,474.59,581.32,468.37z"/>
	</g>
	<g id="XMLID_10006_">
		<path id="XMLID_10011_" class="st0" d="M242.71,519.95c3.74,0,7.27-2.25,8.72-5.95c1.89-4.82-0.48-10.25-5.29-12.14l-118.49-46.54
			c-4.81-1.89-10.25,0.48-12.14,5.29c-1.89,4.82,0.48,10.25,5.29,12.14l118.49,46.54C240.41,519.74,241.57,519.95,242.71,519.95z"/>
	</g>
	<g id="XMLID_10007_">
		<path id="XMLID_10010_" class="st0" d="M265.51,496.07c1.67,0,3.36-0.45,4.89-1.38c4.41-2.71,5.79-8.47,3.09-12.88l-66.58-108.5
			c-2.71-4.41-8.47-5.79-12.88-3.09c-4.41,2.71-5.79,8.47-3.09,12.88l66.58,108.5C259.28,494.48,262.36,496.07,265.51,496.07z"/>
	</g>
	<g id="XMLID_10008_">
		<g id="XMLID_867_">
			<path id="XMLID_9683_" class="st0" d="M912.04,456.6c0.13,0.02,0.4,0.05,0.52,0.14c0,0-0.75-0.56-2.03-1.29
				c-1.28-0.73-3.08-1.63-5.15-2.32c-2.09-0.67-4.45-1.13-6.83-1c-2.39,0.15-4.81,0.91-6.98,2.63l-0.4,0.33
				c-1.59,1.34-3.1,2.74-4.88,3.93c-1.06,0.71-2.2,1.36-3.43,1.85c-0.78,0.31-1.61,0.56-2.49,0.67c-0.49,0.06-1,0.08-1.52,0.02
				c-0.13-0.02-0.4-0.03-0.51-0.1c0,0,0.76,0.51,2.02,1.18c1.26,0.67,3.04,1.49,5.08,2.08c2.03,0.62,4.33,1.03,6.68,0.85
				c2.34-0.17,4.71-0.9,6.91-2.6l0.39-0.31c1.6-1.31,3.15-2.69,4.95-3.81c1.09-0.68,2.26-1.29,3.54-1.73
				c0.81-0.28,1.67-0.5,2.57-0.57C910.98,456.51,911.51,456.51,912.04,456.6z M897.91,450.84c0.13,0.02,0.41,0.04,0.53,0.12
				c0,0-3.08-2.16-7.28-3.43c-2.1-0.62-4.48-1.03-6.86-0.83c-2.39,0.22-4.78,1.03-6.91,2.81l-0.39,0.34
				c-1.56,1.38-3.04,2.83-4.78,4.06c-1.04,0.74-2.16,1.41-3.38,1.94c-0.77,0.33-1.59,0.6-2.46,0.74c-0.49,0.07-1,0.12-1.51,0.07
				c-0.13-0.01-0.4-0.01-0.51-0.09c0,0,0.19,0.12,0.55,0.32c0.35,0.2,0.87,0.48,1.51,0.8c1.28,0.64,3.07,1.41,5.12,1.95
				c4.1,1.12,9.23,1.38,13.53-2.1l0.38-0.32c1.57-1.35,3.09-2.77,4.86-3.93c1.07-0.7,2.23-1.34,3.5-1.82
				c0.8-0.3,1.65-0.54,2.56-0.63C896.86,450.77,897.39,450.76,897.91,450.84z M926.01,462.7c0.13,0.03,0.4,0.06,0.52,0.15
				c0,0-0.74-0.59-2-1.34c-1.26-0.76-3.04-1.7-5.1-2.44c-4.13-1.45-9.4-2.06-13.84,1.3l-0.41,0.32c-1.63,1.31-3.17,2.66-4.98,3.8
				c-1.08,0.68-2.23,1.3-3.48,1.77c-0.79,0.29-1.62,0.52-2.5,0.61c-0.49,0.05-1.01,0.06-1.52-0.02c-0.13-0.02-0.39-0.04-0.5-0.12
				c0,0,2.97,2.14,7.02,3.45c2.02,0.67,4.31,1.13,6.66,1.01c2.34-0.1,4.74-0.79,6.97-2.43l0.4-0.3c1.63-1.28,3.21-2.61,5.04-3.69
				c1.11-0.65,2.29-1.24,3.58-1.65c0.81-0.26,1.68-0.46,2.58-0.51C924.96,462.58,925.49,462.59,926.01,462.7z M883.64,445.42
				c0.13,0.02,0.41,0.03,0.53,0.11c0,0-0.78-0.52-2.1-1.19c-1.32-0.66-3.15-1.5-5.27-2.06c-2.12-0.56-4.5-0.92-6.88-0.65
				c-2.38,0.28-4.76,1.15-6.84,2.98l-0.38,0.35c-1.52,1.42-2.96,2.92-4.67,4.19c-1.02,0.76-2.12,1.47-3.32,2.03
				c-0.76,0.35-1.57,0.64-2.44,0.81c-0.49,0.09-1,0.15-1.51,0.12c-0.13-0.01-0.4,0-0.52-0.08c0,0,0.79,0.47,2.09,1.05
				c1.3,0.6,3.1,1.33,5.17,1.82c4.12,1,9.26,1.13,13.47-2.47l0.37-0.33c1.53-1.39,3.01-2.84,4.75-4.06c1.06-0.74,2.19-1.4,3.45-1.91
				c0.79-0.32,1.64-0.58,2.54-0.69C882.58,445.38,883.11,445.35,883.64,445.42z M939.84,469.11c0.13,0.03,0.4,0.07,0.51,0.16
				c0,0-0.73-0.6-1.96-1.39c-1.24-0.78-3-1.76-5.04-2.54c-4.09-1.55-9.35-2.27-13.87,0.99l-0.42,0.31
				c-1.66,1.27-3.23,2.59-5.06,3.68c-1.1,0.66-2.26,1.25-3.52,1.68c-0.79,0.27-1.64,0.48-2.52,0.56c-0.49,0.04-1.01,0.04-1.52-0.05
				c-0.13-0.02-0.39-0.05-0.5-0.13c0,0,0.73,0.56,1.97,1.28c1.23,0.73,2.97,1.61,4.98,2.33c2,0.72,4.29,1.22,6.64,1.16
				c2.34-0.05,4.76-0.68,7.03-2.28l0.4-0.29c1.66-1.24,3.27-2.53,5.12-3.57c1.12-0.63,2.32-1.19,3.62-1.58
				c0.82-0.24,1.69-0.42,2.59-0.46C938.79,468.96,939.32,468.99,939.84,469.11z M825.63,427.76c0,0-3.37-1.73-7.74-2.36
				c-2.18-0.34-4.6-0.36-6.94,0.2c-1.17,0.28-2.31,0.71-3.4,1.32c-1.08,0.63-2.11,1.45-3.02,2.5l-0.34,0.4
				c-1.33,1.61-2.56,3.27-4.08,4.75c-0.91,0.88-1.9,1.72-3.02,2.45c-0.71,0.45-1.47,0.86-2.31,1.14c-0.47,0.16-0.96,0.28-1.47,0.31
				c-0.13,0.01-0.39,0.05-0.52-0.01c0,0,0.84,0.37,2.19,0.78c1.36,0.41,3.24,0.87,5.33,1.11c4.2,0.43,9.28-0.05,13.01-4.16
				l0.33-0.37c1.35-1.56,2.64-3.18,4.22-4.59c0.96-0.86,2.01-1.66,3.21-2.32c0.75-0.42,1.56-0.76,2.45-0.99
				c0.49-0.12,1.02-0.21,1.55-0.2C825.22,427.72,825.5,427.7,825.63,427.76z M839.94,431.49c0.13,0.01,0.41,0,0.54,0.06
				c0,0-0.83-0.45-2.2-1.01c-1.36-0.57-3.28-1.21-5.45-1.59c-1.08-0.2-2.23-0.33-3.39-0.36c-1.17-0.02-2.36,0.08-3.54,0.32
				c-2.35,0.49-4.63,1.55-6.54,3.59l-0.35,0.39c-1.38,1.57-2.67,3.18-4.25,4.61c-0.94,0.86-1.96,1.65-3.11,2.33
				c-0.72,0.43-1.5,0.81-2.35,1.06c-0.47,0.14-0.97,0.24-1.49,0.26c-0.13,0-0.39,0.03-0.52-0.03c0,0,0.82,0.39,2.17,0.85
				c1.35,0.45,3.21,1,5.3,1.31c1.05,0.15,2.15,0.24,3.28,0.22c1.13-0.01,2.28-0.11,3.42-0.36c2.28-0.5,4.53-1.6,6.46-3.57l0.34-0.36
				c1.4-1.52,2.74-3.09,4.38-4.45c0.99-0.83,2.07-1.6,3.28-2.22c0.76-0.38,1.58-0.71,2.47-0.9
				C838.88,431.53,839.41,431.46,839.94,431.49z M854.65,435.71c0.13,0.01,0.41,0.01,0.53,0.08c0,0-0.81-0.48-2.16-1.07
				c-1.35-0.6-3.24-1.32-5.39-1.76c-4.29-0.93-9.64-0.79-13.57,3.12l-0.36,0.37c-1.43,1.52-2.78,3.09-4.4,4.47
				c-0.97,0.82-2.02,1.59-3.19,2.22c-0.73,0.39-1.53,0.75-2.39,0.97c-0.48,0.12-0.98,0.21-1.5,0.21c-0.13,0-0.39,0.02-0.51-0.04
				c0,0,3.23,1.65,7.39,2.41c2.09,0.36,4.41,0.51,6.71,0.08c2.3-0.44,4.58-1.44,6.58-3.35l0.35-0.35c1.45-1.47,2.84-3,4.51-4.32
				c1.02-0.8,2.12-1.54,3.35-2.11c0.77-0.36,1.6-0.66,2.5-0.83C853.59,435.73,854.12,435.68,854.65,435.71z M869.22,440.37
				c0.13,0.01,0.41,0.02,0.53,0.09c0,0-0.8-0.5-2.13-1.13c-1.33-0.63-3.19-1.41-5.33-1.92c-4.26-1.05-9.6-1.07-13.65,2.71
				l-0.37,0.36c-1.48,1.48-2.88,3-4.54,4.33c-1,0.79-2.07,1.53-3.26,2.12c-0.75,0.37-1.55,0.69-2.42,0.89
				c-0.48,0.11-0.99,0.18-1.51,0.16c-0.13,0-0.4,0.01-0.51-0.06c0,0,0.8,0.44,2.11,0.99c1.31,0.55,3.14,1.23,5.21,1.66
				c2.08,0.42,4.39,0.66,6.71,0.29c2.32-0.37,4.62-1.29,6.68-3.15l0.36-0.34c1.49-1.43,2.93-2.92,4.64-4.19
				c1.04-0.77,2.16-1.47,3.4-2c0.78-0.34,1.62-0.62,2.52-0.76C868.16,440.36,868.69,440.32,869.22,440.37z M967.05,482.79
				c0.13,0.03,0.4,0.09,0.51,0.18c0,0-2.8-2.5-6.83-4.22c-2-0.87-4.31-1.53-6.71-1.6c-2.39-0.07-4.85,0.45-7.18,1.98l-0.43,0.29
				c-1.71,1.2-3.35,2.45-5.22,3.46c-1.12,0.61-2.31,1.14-3.59,1.52c-0.81,0.24-1.66,0.41-2.55,0.45c-0.5,0.02-1.01,0-1.52-0.12
				c-0.13-0.03-0.39-0.07-0.49-0.15c0,0,0.71,0.59,1.91,1.36c1.2,0.78,2.9,1.75,4.87,2.56c3.96,1.58,9.03,2.47,13.71-0.52l0.41-0.27
				c1.71-1.16,3.37-2.39,5.26-3.35c1.15-0.58,2.37-1.09,3.68-1.43c0.83-0.21,1.7-0.35,2.6-0.34
				C966.01,482.6,966.53,482.65,967.05,482.79z M1006.75,505.32c0.13,0.04,0.39,0.11,0.49,0.21c0,0-0.66-0.67-1.82-1.57
				c-1.15-0.9-2.8-2.06-4.75-3.04c-1.96-0.97-4.22-1.77-6.59-1.99c-2.38-0.2-4.88,0.18-7.29,1.55l-0.45,0.26
				c-1.78,1.08-3.49,2.24-5.43,3.14c-1.16,0.54-2.38,1-3.68,1.3c-0.82,0.18-1.68,0.3-2.56,0.28c-0.5-0.01-1.01-0.06-1.51-0.21
				c-0.12-0.04-0.39-0.09-0.49-0.18c0,0,0.68,0.62,1.83,1.48c1.15,0.86,2.78,1.94,4.71,2.85c3.85,1.84,8.88,3.01,13.72,0.31
				l0.43-0.25c1.78-1.06,3.52-2.2,5.46-3.04c1.18-0.51,2.43-0.95,3.76-1.2c0.84-0.16,1.72-0.25,2.62-0.19
				C1005.73,505.07,1006.25,505.14,1006.75,505.32z M993.67,497.55c0.13,0.04,0.4,0.1,0.5,0.2c0,0-0.68-0.65-1.85-1.53
				c-1.17-0.88-2.83-2.02-4.81-2.95c-3.94-1.89-9.12-3.02-13.88-0.18l-0.44,0.27c-1.76,1.13-3.45,2.32-5.36,3.25
				c-1.15,0.56-2.36,1.05-3.65,1.36c-0.81,0.2-1.67,0.34-2.56,0.34c-0.5,0-1.01-0.04-1.51-0.18c-0.13-0.03-0.39-0.08-0.49-0.17
				c0,0,2.74,2.44,6.62,4.2c3.89,1.75,8.94,2.83,13.73,0.04l0.42-0.26c1.76-1.09,3.47-2.26,5.4-3.14c1.17-0.54,2.41-0.99,3.73-1.27
				c0.83-0.17,1.71-0.28,2.62-0.24C992.64,497.33,993.16,497.39,993.67,497.55z M1019.68,513.34c0.12,0.04,0.39,0.12,0.49,0.22
				c0,0-0.65-0.68-1.78-1.61c-1.13-0.93-2.76-2.11-4.69-3.13c-3.87-2.03-8.99-3.38-13.87-0.71l-0.45,0.26
				c-1.8,1.05-3.53,2.17-5.48,3.03c-1.17,0.52-2.4,0.96-3.71,1.23c-0.82,0.17-1.69,0.27-2.57,0.23c-0.49-0.02-1.01-0.09-1.5-0.24
				c-0.12-0.04-0.39-0.1-0.48-0.19c0,0,0.66,0.64,1.79,1.52c1.13,0.88,2.75,1.99,4.66,2.94c1.9,0.96,4.11,1.75,6.45,1.98
				c2.34,0.24,4.81-0.09,7.26-1.4l0.44-0.24c1.8-1.02,3.55-2.11,5.51-2.92c1.19-0.49,2.45-0.9,3.78-1.13
				c0.84-0.15,1.72-0.22,2.63-0.14C1018.66,513.07,1019.18,513.16,1019.68,513.34z M980.43,490.04c0.13,0.04,0.4,0.09,0.5,0.19
				c0,0-0.69-0.63-1.88-1.5c-1.18-0.87-2.87-1.96-4.86-2.85c-3.97-1.81-9.18-2.84-13.89,0.1l-0.44,0.28
				c-1.74,1.16-3.4,2.38-5.3,3.36c-1.13,0.58-2.33,1.09-3.62,1.44c-0.81,0.22-1.67,0.38-2.56,0.39c-0.5,0.01-1.01-0.02-1.51-0.15
				c-0.13-0.03-0.39-0.07-0.49-0.16c0,0,0.7,0.6,1.88,1.4c1.19,0.8,2.86,1.82,4.82,2.66c1.96,0.83,4.21,1.49,6.56,1.59
				c2.35,0.09,4.8-0.39,7.17-1.83l0.42-0.27c1.73-1.12,3.42-2.32,5.33-3.25c1.16-0.56,2.39-1.05,3.71-1.35
				c0.83-0.19,1.7-0.31,2.61-0.29C979.4,489.83,979.92,489.89,980.43,490.04z M810.64,424.47c0,0-0.86-0.4-2.26-0.87
				c-1.41-0.46-3.37-0.96-5.56-1.21c-4.39-0.48-9.71,0.17-13.21,4.51l-0.32,0.41c-1.26,1.66-2.43,3.36-3.9,4.89
				c-0.88,0.92-1.83,1.82-2.93,2.58c-0.69,0.48-1.43,0.91-2.26,1.22c-0.46,0.17-0.95,0.31-1.46,0.36c-0.13,0.01-0.39,0.06-0.52,0.01
				c0,0,0.85,0.33,2.22,0.7c1.37,0.38,3.26,0.73,5.36,0.9c2.1,0.17,4.42,0.02,6.65-0.63c2.23-0.65,4.39-1.89,6.18-4.02l0.32-0.39
				c1.29-1.61,2.52-3.27,4.05-4.73c0.93-0.89,1.96-1.73,3.13-2.43c0.74-0.44,1.54-0.84,2.41-1.08c0.49-0.14,1.01-0.24,1.55-0.25
				C810.23,424.43,810.51,424.41,810.64,424.47z M953.52,475.81c0.13,0.03,0.4,0.08,0.51,0.17c0,0-0.71-0.61-1.93-1.43
				c-1.22-0.82-2.96-1.82-4.98-2.65c-4.05-1.64-9.29-2.47-13.88,0.68l-0.42,0.3c-1.68,1.23-3.29,2.52-5.14,3.57
				c-1.11,0.62-2.29,1.2-3.56,1.6c-0.8,0.25-1.65,0.45-2.53,0.5c-0.49,0.03-1.01,0.02-1.52-0.09c-0.13-0.03-0.39-0.06-0.5-0.14
				c0,0,0.72,0.57,1.94,1.33c1.22,0.76,2.94,1.68,4.92,2.45c3.99,1.5,9.08,2.28,13.7-0.82l0.41-0.28c1.68-1.19,3.32-2.46,5.19-3.45
				c1.14-0.61,2.34-1.14,3.65-1.5c0.82-0.23,1.7-0.39,2.6-0.4C952.47,475.64,953,475.68,953.52,475.81z M1045.08,530.13
				c0.12,0.05,0.39,0.14,0.49,0.25c0,0-0.64-0.72-1.74-1.69c-1.1-0.97-2.67-2.22-4.56-3.31c-3.79-2.18-8.86-3.72-13.83-1.25
				l-0.46,0.24c-1.84,0.99-3.62,2.04-5.6,2.83c-1.19,0.47-2.43,0.86-3.75,1.08c-0.83,0.13-1.7,0.21-2.58,0.14
				c-0.49-0.04-1-0.12-1.49-0.3c-0.12-0.04-0.38-0.11-0.48-0.21c0,0,2.54,2.65,6.28,4.71c3.74,2.05,8.69,3.52,13.68,1.11l0.44-0.22
				c1.83-0.95,3.64-1.99,5.63-2.71c1.21-0.44,2.48-0.8,3.82-0.98c0.85-0.11,1.73-0.15,2.63-0.04
				C1044.06,529.82,1044.58,529.92,1045.08,530.13z M1032.46,521.61c0.12,0.05,0.39,0.12,0.49,0.23c0,0-0.64-0.69-1.75-1.64
				c-1.11-0.96-2.71-2.17-4.63-3.22c-1.91-1.06-4.14-1.95-6.51-2.24c-2.37-0.3-4.87-0.03-7.34,1.27l-0.46,0.25
				c-1.82,1.02-3.57,2.11-5.54,2.93c-1.17,0.49-2.41,0.91-3.73,1.15c-0.83,0.15-1.69,0.24-2.58,0.19c-0.49-0.03-1-0.11-1.5-0.27
				c-0.12-0.04-0.38-0.1-0.48-0.2c0,0,0.65,0.65,1.76,1.55c1.12,0.9,2.71,2.03,4.6,3.03c3.78,1.97,8.76,3.35,13.7,0.84l0.44-0.23
				c1.81-0.99,3.59-2.05,5.57-2.82c1.2-0.47,2.47-0.86,3.8-1.06c0.84-0.12,1.72-0.18,2.63-0.08
				C1031.44,521.32,1031.96,521.42,1032.46,521.61z M1057.6,539.27c0.12,0.06,0.38,0.16,0.48,0.27c0,0-2.41-3.01-6.19-5.38
				c-3.78-2.38-8.88-4.05-13.89-1.66l-0.47,0.23c-1.86,0.95-3.65,1.96-5.65,2.71c-1.2,0.45-2.45,0.82-3.77,1.01
				c-0.83,0.12-1.7,0.17-2.58,0.08c-0.49-0.05-1-0.15-1.49-0.33c-0.12-0.05-0.38-0.12-0.48-0.22c0,0,0.63,0.67,1.71,1.62
				c1.08,0.95,2.62,2.15,4.48,3.21c1.84,1.07,4.01,1.99,6.32,2.35c2.3,0.35,4.77,0.18,7.3-0.96l0.45-0.21
				c1.86-0.89,3.69-1.86,5.72-2.51c1.23-0.39,2.52-0.69,3.88-0.8c0.86-0.07,1.75-0.05,2.66,0.12
				C1056.59,538.9,1057.11,539.04,1057.6,539.27z M668.41,478.62c-0.13-0.01-0.39-0.01-0.5-0.08c0,0,0.19,0.12,0.54,0.31
				c0.34,0.2,0.85,0.44,1.47,0.76c1.25,0.63,2.98,1.39,4.98,1.93c1.99,0.56,4.23,0.96,6.54,0.75c2.3-0.18,4.65-0.88,6.87-2.55
				l0.41-0.32c1.63-1.3,3.22-2.65,5.06-3.71c1.11-0.64,2.3-1.21,3.6-1.6c0.82-0.25,1.69-0.43,2.61-0.47c0.52-0.03,1.05,0,1.57,0.13
				c0.13,0.03,0.41,0.07,0.51,0.16c0,0-0.19-0.14-0.53-0.4c-0.34-0.26-0.85-0.6-1.49-0.99c-1.28-0.78-3.09-1.75-5.19-2.52
				c-2.12-0.73-4.53-1.23-6.94-1.14c-2.44,0.13-4.88,0.89-7.05,2.62l-0.38,0.32c-1.57,1.33-3.07,2.77-4.8,3.99
				c-1.05,0.74-2.16,1.42-3.37,1.95c-0.76,0.33-1.57,0.61-2.43,0.75C669.42,478.6,668.91,478.66,668.41,478.62z M682.01,483.57
				c-0.12-0.02-0.39-0.04-0.5-0.12c0,0,0.18,0.13,0.51,0.35c0.33,0.22,0.81,0.53,1.42,0.89c1.21,0.71,2.92,1.54,4.87,2.25
				c1.95,0.72,4.2,1.2,6.51,1.17c2.31-0.01,4.71-0.6,7.03-2.14l0.43-0.3c1.7-1.2,3.35-2.42,5.26-3.39c1.14-0.58,2.36-1.08,3.69-1.41
				c0.83-0.2,1.72-0.35,2.63-0.32c0.51,0.01,1.04,0.07,1.55,0.22c0.13,0.04,0.4,0.09,0.51,0.19c0,0-0.71-0.64-1.93-1.51
				c-1.23-0.85-2.99-1.91-5.03-2.78c-4.11-1.73-9.47-2.6-14.02,0.64l-0.4,0.29c-1.66,1.25-3.23,2.56-5.03,3.66
				c-1.1,0.68-2.25,1.29-3.5,1.74c-0.79,0.29-1.62,0.51-2.49,0.6C683.02,483.64,682.52,483.65,682.01,483.57z M695.32,489.43
				c-0.12-0.03-0.39-0.06-0.49-0.15c0,0,0.69,0.58,1.87,1.35c1.17,0.77,2.84,1.71,4.75,2.54c3.86,1.59,8.81,2.59,13.6-0.23
				l0.44-0.27c1.76-1.1,3.47-2.25,5.43-3.13c1.17-0.52,2.42-0.97,3.75-1.23c0.84-0.16,1.71-0.24,2.62-0.18
				c0.51,0.04,1.03,0.12,1.54,0.29c0.13,0.04,0.4,0.11,0.5,0.21c0,0-0.68-0.67-1.85-1.59c-1.16-0.93-2.87-2.06-4.87-3.03
				c-1-0.48-2.07-0.93-3.2-1.26c-1.14-0.32-2.32-0.55-3.53-0.63c-1.21-0.08-2.43-0.01-3.65,0.26c-1.22,0.28-2.45,0.78-3.62,1.52
				l-0.42,0.27c-1.72,1.15-3.38,2.39-5.24,3.37c-1.12,0.59-2.32,1.13-3.6,1.52c-0.81,0.24-1.65,0.42-2.53,0.46
				C696.33,489.56,695.82,489.54,695.32,489.43z M614.61,451.68c6.08,3.43,11.52,8.02,15.97,13.58c0.16-0.2,0.32-0.4,0.47-0.62
				l0.29-0.43c1.16-1.73,2.26-3.52,3.72-5.06c0.87-0.93,1.85-1.82,2.99-2.58c0.72-0.48,1.51-0.9,2.39-1.21
				c0.49-0.17,1.02-0.31,1.57-0.33c0.14-0.01,0.42-0.04,0.55,0.01c0,0-0.23-0.09-0.63-0.24c-0.1-0.04-0.21-0.08-0.34-0.12
				c0.54-0.25,1.1-0.53,1.66-0.85c1.83-0.96,3.69-2.27,5.19-4.02c1.53-1.7,2.71-3.86,3.14-6.61l0.07-0.49
				c0.26-2.07,0.48-4.1,1.06-6.15c0.35-1.24,0.82-2.48,1.49-3.68c0.42-0.75,0.93-1.51,1.57-2.17c0.36-0.36,0.77-0.71,1.24-0.99
				c0.12-0.07,0.35-0.23,0.49-0.24c0,0-0.96,0.08-2.44,0.38c-1.47,0.33-3.46,0.9-5.51,1.81c-2.05,0.91-4.13,2.27-5.81,4.02
				c-1.68,1.75-2.89,4.05-3.23,6.79l-0.05,0.52c-0.19,2.08-0.28,4.11-0.66,6.22c-0.23,1.26-0.55,2.52-1.04,3.74
				c-0.13,0.31-0.27,0.62-0.42,0.93c-0.54-0.1-1.11-0.2-1.71-0.28c0.13-0.26,0.25-0.53,0.37-0.8c0.46-1.13,0.78-2.37,0.9-3.75
				l0.04-0.5c0.13-2.06,0.17-4.16,0.61-6.23c0.27-1.26,0.65-2.52,1.24-3.76c0.37-0.78,0.83-1.55,1.42-2.27
				c0.33-0.4,0.71-0.79,1.16-1.1c0.11-0.08,0.33-0.25,0.48-0.27c0,0-0.24,0.03-0.66,0.12c-0.42,0.1-1.01,0.24-1.74,0.46
				c-1.44,0.44-3.41,1.1-5.39,2.17c-1.96,1.1-3.98,2.54-5.52,4.42c-1.52,1.92-2.6,4.24-2.74,7.01l-0.02,0.52
				c-0.03,1.23-0.02,2.47-0.05,3.7c-0.24-0.06-0.99-0.25-2.11-0.45c-0.01-1.25,0.03-2.51,0.2-3.79c0.17-1.29,0.46-2.57,0.97-3.84
				c0.32-0.8,0.72-1.6,1.26-2.35c0.3-0.42,0.66-0.83,1.08-1.18c0.11-0.09,0.31-0.28,0.45-0.32c0,0-0.93,0.23-2.35,0.75
				c-1.42,0.53-3.33,1.31-5.23,2.55C618.48,446.29,615.95,448.64,614.61,451.68z M624.66,453.9c0.03-0.02,0.07-0.03,0.1-0.05
				c0.48-0.21,0.99-0.39,1.54-0.48c0.11-0.02,0.31-0.07,0.46-0.06c-0.01,0.45-0.03,0.91-0.06,1.36c-0.7,0.31-1.37,0.68-2.01,1.12
				l0-0.48C624.67,454.84,624.66,454.37,624.66,453.9z M632.64,465.71c-0.29,0.34-0.6,0.68-0.92,1.01c0.41,0.54,0.81,1.09,1.19,1.65
				l2.16,3.12c1.5-0.07,3.05-0.31,4.58-0.8c2.17-0.66,4.29-1.91,6.09-4.03l0.33-0.4c1.31-1.61,2.55-3.23,4.14-4.68
				c0.95-0.86,2-1.67,3.2-2.34c0.76-0.43,1.58-0.78,2.48-0.98c0.5-0.12,1.03-0.2,1.58-0.18c0.14,0,0.42-0.01,0.55,0.05
				c0,0-0.86-0.44-2.29-0.97c-1.42-0.53-3.44-1.06-5.68-1.37c-4.49-0.58-9.99,0.11-13.41,4.54l-0.3,0.4
				C635.13,462.41,634.02,464.1,632.64,465.71z M654.04,474.62c0,0,0.78,0.42,2.07,0.92c1.29,0.47,3.06,1.17,5.08,1.56
				c2.03,0.37,4.27,0.64,6.55,0.29c2.28-0.37,4.57-1.22,6.67-3.02l0.39-0.34c1.54-1.4,3.03-2.84,4.82-4.05
				c1.07-0.71,2.21-1.34,3.49-1.81c0.8-0.29,1.66-0.53,2.58-0.62c0.51-0.05,1.05-0.06,1.59,0.02c0.13,0.02,0.41,0.04,0.53,0.12
				c0,0-0.79-0.54-2.12-1.25c-0.66-0.35-1.46-0.75-2.37-1.14c-0.9-0.39-1.9-0.77-2.99-1.06c-1.08-0.3-2.24-0.54-3.42-0.68
				c-1.18-0.14-2.39-0.18-3.61-0.02c-2.43,0.3-4.81,1.19-6.85,3.07l-0.36,0.35c-1.48,1.47-2.87,3.01-4.5,4.34
				c-0.99,0.81-2.04,1.56-3.21,2.17c-0.73,0.37-1.52,0.75-2.37,0.97c-0.47,0.12-0.97,0.21-1.47,0.21
				C654.42,474.67,654.16,474.69,654.04,474.62z M639.98,471.82c0,0,0.81,0.36,2.13,0.77c0.66,0.2,1.44,0.42,2.32,0.6
				c0.88,0.18,1.83,0.4,2.85,0.52c2.03,0.26,4.3,0.24,6.53-0.23c2.23-0.49,4.47-1.61,6.42-3.52l0.36-0.37
				c1.43-1.5,2.81-3.03,4.51-4.36c1.01-0.78,2.14-1.55,3.37-2.08c0.78-0.34,1.62-0.63,2.53-0.78c0.51-0.08,1.04-0.12,1.59-0.08
				c0.14,0.01,0.42,0.02,0.54,0.09c0,0-0.83-0.49-2.21-1.12c-0.69-0.31-1.51-0.66-2.44-0.99c-0.94-0.3-1.98-0.59-3.09-0.82
				c-1.11-0.23-2.27-0.4-3.46-0.46c-1.2-0.04-2.42,0.05-3.62,0.28c-1.2,0.23-2.38,0.61-3.49,1.18c-1.11,0.57-2.17,1.39-3.12,2.41
				l-0.33,0.37c-1.36,1.57-2.63,3.21-4.14,4.65c-0.46,0.44-0.94,0.87-1.44,1.27c-0.5,0.41-1.03,0.82-1.58,1.18
				c-0.7,0.46-1.45,0.87-2.27,1.16c-0.46,0.16-0.94,0.28-1.44,0.32C640.36,471.83,640.11,471.87,639.98,471.82z M764.95,417.97
				c0,0-0.9-0.29-2.37-0.57c-1.46-0.27-3.48-0.6-5.7-0.54c-2.22,0.06-4.63,0.36-6.86,1.32c-2.23,0.95-4.26,2.47-5.71,4.83
				l-0.26,0.45c-1.04,1.82-1.97,3.67-3.21,5.4c-0.74,1.03-1.57,2.03-2.54,2.92c-0.61,0.55-1.29,1.09-2.06,1.52
				c-0.43,0.24-0.89,0.45-1.39,0.58c-0.12,0.03-0.37,0.12-0.51,0.09c0,0,0.88,0.21,2.28,0.36c1.4,0.15,3.31,0.33,5.4,0.18
				c2.09-0.17,4.36-0.53,6.48-1.5c2.12-0.98,4.1-2.44,5.6-4.77l0.26-0.42c1.08-1.76,2.09-3.57,3.44-5.23
				c0.82-1.01,1.73-1.95,2.81-2.78c0.68-0.52,1.43-1,2.27-1.36c0.47-0.2,0.98-0.37,1.51-0.45
				C764.54,417.99,764.81,417.93,764.95,417.97z M672.01,425.28c0.12-0.06,0.36-0.21,0.51-0.21c0,0-0.96,0.02-2.45,0.22
				c-1.5,0.18-3.51,0.64-5.62,1.42c-1.05,0.4-2.13,0.85-3.16,1.46c-1.03,0.61-2.02,1.32-2.91,2.14c-0.89,0.83-1.69,1.76-2.33,2.85
				c-0.63,1.1-1.11,2.33-1.37,3.69l-0.09,0.51c-0.33,2.06-0.55,4.11-1.1,6.15c-0.33,1.21-0.72,2.47-1.3,3.66
				c-0.36,0.75-0.8,1.49-1.35,2.15c-0.31,0.37-0.66,0.73-1.08,1.02c-0.1,0.07-0.3,0.24-0.43,0.26c0,0,0.89-0.11,2.24-0.45
				c1.36-0.32,3.14-0.94,5.04-1.76c3.75-1.74,7.81-4.63,9.06-10.05l0.11-0.48c0.42-2.01,0.76-4.05,1.48-6.05
				c0.44-1.22,0.98-2.43,1.73-3.59c0.47-0.72,1.03-1.41,1.72-2.02C671.1,425.85,671.53,425.53,672.01,425.28z M734.06,417
				c0,0-0.93-0.2-2.42-0.36c-1.49-0.18-3.53-0.2-5.75,0.04c-2.21,0.23-4.59,0.85-6.72,2.01c-1.06,0.58-2.06,1.28-2.94,2.18
				c-0.88,0.9-1.65,1.97-2.24,3.23l-0.22,0.47c-0.84,1.91-1.57,3.84-2.62,5.68c-0.63,1.09-1.34,2.21-2.2,3.2
				c-0.55,0.63-1.16,1.23-1.87,1.73c-0.4,0.28-0.84,0.53-1.31,0.71c-0.12,0.04-0.36,0.15-0.49,0.14c0,0,0.89,0.12,2.3,0.14
				c1.4,0.03,3.3-0.1,5.36-0.42c4.11-0.73,8.8-2.54,11.33-7.49l0.22-0.44c0.89-1.85,1.72-3.74,2.9-5.52
				c0.71-1.08,1.53-2.12,2.53-3.07c0.63-0.6,1.33-1.13,2.14-1.57c0.45-0.24,0.94-0.45,1.47-0.58
				C733.65,417.05,733.91,416.96,734.06,417z M795.52,421.71c0,0-0.87-0.38-2.3-0.78c-1.43-0.4-3.41-0.84-5.61-1.01
				c-2.2-0.16-4.64,0-6.93,0.72c-2.29,0.72-4.45,2.1-6.11,4.32l-0.3,0.42c-1.2,1.71-2.29,3.43-3.69,5.05
				c-0.84,0.97-1.75,1.89-2.81,2.69c-0.67,0.51-1.39,0.97-2.2,1.31c-0.45,0.19-0.93,0.35-1.44,0.42c-0.13,0.02-0.38,0.08-0.51,0.04
				c0,0,0.22,0.06,0.6,0.18c0.39,0.11,0.95,0.27,1.64,0.42c1.38,0.31,3.28,0.62,5.39,0.67c2.1,0.08,4.4-0.13,6.61-0.9
				c2.2-0.74,4.31-2.05,6.01-4.24l0.3-0.4c1.23-1.68,2.39-3.38,3.87-4.9c0.9-0.92,1.89-1.8,3.03-2.54c0.72-0.47,1.51-0.88,2.38-1.18
				c0.49-0.17,1-0.28,1.54-0.31C795.12,421.69,795.39,421.65,795.52,421.71z M780.29,419.52c0,0-0.22-0.09-0.62-0.22
				c-0.4-0.12-0.99-0.29-1.71-0.46c-1.45-0.34-3.45-0.72-5.66-0.79c-2.22-0.04-4.64,0.19-6.9,1.01c-2.27,0.86-4.36,2.29-5.93,4.58
				l-0.28,0.43c-1.12,1.75-2.14,3.55-3.46,5.23c-0.79,1-1.67,1.96-2.68,2.81c-0.64,0.53-1.34,1.02-2.13,1.4
				c-0.44,0.21-0.91,0.41-1.42,0.51c-0.12,0.03-0.38,0.1-0.51,0.06c0,0,0.87,0.23,2.26,0.48c1.39,0.25,3.3,0.49,5.4,0.44
				c2.1-0.04,4.39-0.31,6.55-1.19c2.17-0.87,4.21-2.23,5.82-4.5l0.28-0.41c1.15-1.71,2.25-3.5,3.66-5.06
				c0.86-0.96,1.81-1.87,2.93-2.65c0.7-0.49,1.47-0.94,2.33-1.27c0.48-0.18,0.99-0.33,1.53-0.39
				C779.88,419.52,780.15,419.47,780.29,419.52z M749.53,417.12c0,0-0.92-0.25-2.39-0.47c-0.74-0.11-1.61-0.22-2.58-0.28
				c-0.97-0.05-2.04-0.05-3.15,0.02c-2.22,0.14-4.62,0.58-6.8,1.66c-2.18,1.06-4.13,2.64-5.47,5.12l-0.24,0.46
				c-0.94,1.87-1.78,3.76-2.93,5.54c-0.69,1.07-1.46,2.09-2.38,3.05c-0.58,0.6-1.23,1.17-1.97,1.64c-0.42,0.26-0.87,0.49-1.35,0.64
				c-0.12,0.04-0.37,0.13-0.5,0.11c0,0,0.89,0.16,2.29,0.25c0.7,0.05,1.53,0.07,2.44,0.06c0.91,0,1.91-0.04,2.95-0.16
				c1.04-0.12,2.12-0.32,3.19-0.63c1.08-0.29,2.15-0.67,3.19-1.2c2.07-1.05,3.96-2.67,5.36-5.04l0.24-0.43
				c0.99-1.81,1.92-3.66,3.18-5.38c0.77-1.04,1.64-2.06,2.68-2.93c0.65-0.55,1.38-1.06,2.21-1.46c0.46-0.22,0.96-0.41,1.49-0.51
				C749.12,417.15,749.39,417.08,749.53,417.12z M718.03,417.78c0.13-0.04,0.39-0.14,0.53-0.11c0,0-0.94-0.17-2.44-0.24
				c-1.5-0.05-3.55,0-5.75,0.35c-2.2,0.37-4.55,1.13-6.61,2.39c-2.06,1.27-3.82,3.15-4.87,5.71l-0.19,0.48
				c-0.73,1.96-1.35,3.9-2.28,5.83c-0.56,1.15-1.2,2.28-2.01,3.33c-0.51,0.66-1.08,1.29-1.76,1.83c-0.38,0.3-0.8,0.57-1.26,0.79
				c-0.12,0.05-0.34,0.18-0.48,0.18c0,0,0.89,0.03,2.29-0.01c1.4-0.05,3.3-0.24,5.32-0.74c2.03-0.45,4.18-1.22,6.11-2.52
				c1.93-1.25,3.64-3.03,4.76-5.58l0.19-0.46c0.78-1.93,1.51-3.84,2.59-5.68c0.65-1.11,1.42-2.2,2.36-3.19
				c0.59-0.62,1.27-1.22,2.05-1.7C717.03,418.17,717.51,417.93,718.03,417.78z M687.22,421.83c0.12-0.05,0.37-0.19,0.52-0.18
				c0,0-0.96-0.03-2.46,0.08c-1.5,0.12-3.55,0.36-5.69,1.04c-4.3,1.26-8.99,4.08-10.42,9.45l-0.12,0.51
				c-0.47,2.04-0.83,4.08-1.51,6.08c-0.41,1.21-0.91,2.38-1.56,3.53c-0.41,0.73-0.9,1.44-1.5,2.07c-0.34,0.35-0.71,0.69-1.14,0.95
				c-0.11,0.07-0.32,0.22-0.45,0.23c0,0,0.9-0.06,2.26-0.31c0.69-0.12,1.48-0.32,2.36-0.54c0.88-0.22,1.83-0.5,2.8-0.86
				c0.97-0.36,1.96-0.82,2.92-1.37c0.97-0.52,1.92-1.15,2.79-1.9c0.87-0.75,1.67-1.63,2.36-2.66c0.69-1.02,1.26-2.15,1.66-3.48
				l0.14-0.48c0.55-1.99,1.03-4,1.87-5.97c0.51-1.2,1.14-2.37,1.97-3.45c0.52-0.68,1.12-1.34,1.85-1.92
				C686.27,422.34,686.72,422.05,687.22,421.83z M702.58,419.33c0.13-0.04,0.38-0.16,0.53-0.14c0,0-0.24-0.03-0.66-0.05
				c-0.42-0.02-1.04-0.03-1.79-0.02c-1.5,0.04-3.55,0.16-5.73,0.67c-2.17,0.54-4.48,1.37-6.46,2.78c-1.98,1.43-3.63,3.37-4.52,5.99
				l-0.16,0.49c-0.61,1.99-1.09,4.02-1.9,5.98c-0.48,1.18-1.06,2.34-1.79,3.43c-0.46,0.69-1,1.34-1.64,1.94
				c-0.36,0.33-0.76,0.65-1.2,0.88c-0.11,0.06-0.33,0.2-0.47,0.2c0,0,0.9-0.01,2.28-0.18c1.39-0.16,3.27-0.43,5.25-1.05
				c3.97-1.21,8.39-3.59,10.34-8.75l0.17-0.47c0.67-1.95,1.27-3.96,2.24-5.84c0.59-1.14,1.29-2.27,2.17-3.31
				c0.56-0.65,1.2-1.28,1.96-1.81C701.6,419.8,702.07,419.52,702.58,419.33z M790.6,557.25c0,0,0.51,0.76,1.44,1.86
				c0.93,1.1,2.28,2.54,3.96,3.87c3.35,2.68,8.03,4.97,13.35,3.4l0.49-0.16c1.98-0.65,3.91-1.38,6.01-1.79
				c1.25-0.25,2.55-0.4,3.9-0.37c0.84,0.02,1.71,0.12,2.58,0.36c0.48,0.14,0.97,0.32,1.42,0.58c0.11,0.07,0.36,0.18,0.43,0.3
				c0,0-2.03-3.12-5.38-5.85c-3.36-2.73-8.08-5.06-13.4-3.46l-0.47,0.15c-1.96,0.65-3.9,1.39-5.97,1.83
				c-1.26,0.26-2.56,0.44-3.91,0.43c-0.85-0.01-1.72-0.09-2.58-0.32c-0.48-0.13-0.97-0.3-1.43-0.55
				C790.93,557.48,790.68,557.36,790.6,557.25z M845.73,608.56c0,0,0.52,0.78,1.48,1.88c0.96,1.11,2.36,2.55,4.08,3.88
				c1.74,1.33,3.81,2.54,6.1,3.2c2.3,0.66,4.83,0.75,7.45-0.15l0.49-0.18c1.95-0.73,3.84-1.54,5.92-2.07
				c1.24-0.31,2.52-0.54,3.85-0.59c0.84-0.03,1.7,0.01,2.57,0.2c0.48,0.11,0.98,0.25,1.44,0.48c0.12,0.06,0.36,0.16,0.44,0.26
				c0,0-0.55-0.73-1.51-1.78c-0.97-1.05-2.36-2.42-4.08-3.67c-1.71-1.26-3.75-2.42-6.02-3.04c-2.26-0.62-4.75-0.73-7.39,0.14
				l-0.47,0.16c-1.95,0.7-3.87,1.49-5.93,1.95c-1.25,0.28-2.56,0.47-3.91,0.47c-0.85,0-1.73-0.08-2.61-0.3
				c-0.49-0.13-0.99-0.3-1.45-0.56C846.06,608.79,845.81,608.67,845.73,608.56z M857.55,618.95c-0.12-0.06-0.37-0.17-0.45-0.29
				c0,0,0.55,0.76,1.53,1.85c0.99,1.09,2.4,2.52,4.17,3.81c1.78,1.29,3.86,2.48,6.19,3.08c2.32,0.6,4.85,0.64,7.45-0.32l0.48-0.19
				c1.94-0.79,3.81-1.66,5.86-2.24c1.23-0.35,2.5-0.61,3.83-0.7c0.83-0.05,1.7-0.04,2.57,0.11c0.49,0.09,0.98,0.22,1.45,0.43
				c0.12,0.05,0.37,0.15,0.45,0.25c0,0-0.56-0.72-1.56-1.73c-1-1.01-2.42-2.35-4.17-3.54c-3.49-2.41-8.23-4.38-13.45-2.54
				l-0.47,0.17c-1.93,0.75-3.83,1.57-5.9,2.08c-1.25,0.3-2.55,0.52-3.9,0.54c-0.85,0.01-1.74-0.05-2.62-0.26
				C858.53,619.37,858.03,619.2,857.55,618.95z M812.55,577.67c0,0,2.01,3.11,5.37,5.84c3.35,2.73,8.05,5.07,13.37,3.49l0.5-0.16
				c1.98-0.65,3.91-1.38,6.01-1.8c1.25-0.25,2.55-0.41,3.89-0.39c0.84,0.01,1.71,0.1,2.57,0.33c0.48,0.13,0.97,0.31,1.42,0.57
				c0.11,0.06,0.36,0.18,0.43,0.29c0,0-2.03-3.08-5.37-5.78c-3.35-2.7-8.02-5.02-13.35-3.46l-0.47,0.15
				c-1.97,0.64-3.91,1.36-5.99,1.77c-1.26,0.25-2.57,0.41-3.92,0.38c-0.85-0.02-1.72-0.11-2.59-0.36c-0.48-0.14-0.97-0.32-1.43-0.58
				C812.87,577.91,812.62,577.79,812.55,577.67z M823.52,588c0,0,2.02,3.12,5.4,5.84c3.37,2.72,8.1,5.05,13.41,3.42l0.49-0.16
				c1.98-0.67,3.9-1.41,5.99-1.85c1.25-0.26,2.54-0.44,3.88-0.43c0.84,0,1.71,0.08,2.57,0.3c0.48,0.12,0.97,0.29,1.42,0.55
				c0.11,0.06,0.36,0.18,0.44,0.29c0,0-0.52-0.77-1.45-1.86c-0.93-1.09-2.29-2.52-3.97-3.85c-3.36-2.65-8.03-4.94-13.35-3.34
				l-0.47,0.15c-1.96,0.65-3.9,1.38-5.98,1.8c-1.26,0.25-2.57,0.42-3.92,0.39c-0.85-0.02-1.72-0.11-2.59-0.35
				c-0.48-0.14-0.98-0.32-1.43-0.58C823.84,588.24,823.59,588.12,823.52,588z M834.56,598.31c0,0,2.05,3.12,5.47,5.82
				c3.41,2.7,8.18,4.98,13.47,3.28l0.49-0.17c1.97-0.69,3.88-1.47,5.96-1.94c1.25-0.29,2.54-0.49,3.87-0.51
				c0.84-0.01,1.71,0.05,2.57,0.26c0.48,0.12,0.97,0.28,1.43,0.52c0.11,0.06,0.36,0.17,0.44,0.28c0,0-2.1-3.01-5.49-5.6
				c-3.39-2.6-8.07-4.81-13.37-3.15l-0.47,0.16c-1.96,0.67-3.88,1.42-5.96,1.85c-1.26,0.26-2.57,0.44-3.92,0.42
				c-0.85-0.01-1.73-0.1-2.6-0.34c-0.49-0.13-0.98-0.31-1.44-0.58C834.88,598.55,834.64,598.43,834.56,598.31z M869.19,628.83
				c-0.12-0.06-0.37-0.17-0.46-0.28c0,0,0.56,0.75,1.58,1.82c1.01,1.07,2.48,2.46,4.29,3.71c1.81,1.25,3.94,2.38,6.29,2.91
				c2.35,0.53,4.86,0.52,7.45-0.55l0.48-0.21c1.91-0.85,3.75-1.78,5.78-2.42c1.21-0.39,2.47-0.68,3.8-0.83
				c0.83-0.09,1.7-0.11,2.57,0.01c0.49,0.07,0.99,0.18,1.46,0.38c0.12,0.05,0.37,0.13,0.46,0.24c0,0-0.58-0.7-1.61-1.67
				c-0.51-0.49-1.14-1.04-1.86-1.62c-0.71-0.59-1.52-1.19-2.41-1.76c-0.89-0.57-1.86-1.11-2.89-1.56c-1.03-0.46-2.11-0.85-3.26-1.09
				c-2.28-0.49-4.78-0.43-7.36,0.56l-0.46,0.19c-1.9,0.8-3.78,1.67-5.83,2.24c-1.24,0.34-2.55,0.6-3.9,0.65
				c-0.85,0.03-1.74-0.01-2.63-0.2C870.17,629.22,869.67,629.07,869.19,628.83z M893.42,647.63c-0.12-0.05-0.39-0.14-0.48-0.25
				c0,0,0.61,0.73,1.71,1.73c1.1,0.99,2.68,2.28,4.58,3.41c1.91,1.13,4.16,2.07,6.54,2.45c2.38,0.36,4.93,0.1,7.4-1.15l0.46-0.24
				c1.83-1,3.58-2.07,5.55-2.91c1.18-0.5,2.41-0.92,3.7-1.18c0.82-0.16,1.67-0.26,2.54-0.21c0.48,0.03,0.99,0.09,1.48,0.24
				c0.12,0.04,0.38,0.09,0.48,0.19c0,0-0.16-0.16-0.46-0.42c-0.3-0.26-0.74-0.64-1.29-1.08c-1.1-0.89-2.66-2.01-4.52-2.96
				c-1.85-0.99-3.99-1.83-6.31-2.11c-2.3-0.31-4.76-0.08-7.27,1.13l-0.45,0.22c-1.85,0.95-3.65,1.96-5.65,2.66
				c-1.21,0.43-2.49,0.77-3.85,0.92c-0.85,0.1-1.75,0.12-2.66-0.01C894.43,647.97,893.92,647.85,893.42,647.63z M919.27,664.54
				c-0.13-0.04-0.4-0.11-0.51-0.21c0,0,0.69,0.66,1.88,1.56c1.19,0.91,2.89,2.06,4.92,2.98c2.03,0.93,4.35,1.7,6.79,1.79
				c2.43,0.1,4.9-0.36,7.25-1.91l0.43-0.29c1.71-1.2,3.34-2.47,5.2-3.5c1.11-0.62,2.27-1.15,3.53-1.57c0.8-0.26,1.63-0.46,2.5-0.52
				c0.49-0.03,0.99-0.03,1.49,0.07c0.12,0.02,0.38,0.05,0.49,0.14c0,0-0.71-0.56-1.9-1.29c-0.59-0.37-1.31-0.77-2.12-1.19
				c-0.8-0.43-1.7-0.86-2.67-1.24c-0.97-0.38-2.01-0.71-3.1-0.95c-1.08-0.26-2.21-0.43-3.36-0.45c-2.31-0.05-4.75,0.47-7.1,1.89
				l-0.42,0.26c-1.73,1.12-3.43,2.31-5.36,3.21c-1.17,0.55-2.42,1.02-3.75,1.28c-0.84,0.17-1.72,0.27-2.64,0.22
				C920.31,664.78,919.78,664.7,919.27,664.54z M881.13,638.42c-0.12-0.06-0.38-0.16-0.47-0.27c0,0,2.34,2.98,6.06,5.36
				c1.84,1.21,4.05,2.24,6.41,2.7c2.35,0.47,4.9,0.33,7.43-0.83l0.47-0.22c1.87-0.92,3.68-1.92,5.67-2.64
				c1.19-0.44,2.45-0.81,3.76-1c0.83-0.12,1.69-0.18,2.56-0.09c0.49,0.05,0.99,0.14,1.47,0.32c0.12,0.04,0.37,0.12,0.47,0.22
				c0,0-0.61-0.68-1.67-1.61c-1.06-0.94-2.59-2.1-4.39-3.19c-1.8-1.09-3.94-1.98-6.23-2.4c-2.29-0.41-4.78-0.27-7.33,0.83l-0.45,0.2
				c-1.87,0.86-3.72,1.79-5.75,2.42c-1.23,0.38-2.52,0.67-3.89,0.78c-0.86,0.07-1.74,0.05-2.64-0.12
				C882.12,638.79,881.61,638.65,881.13,638.42z M906.12,656.38c-0.13-0.05-0.39-0.12-0.49-0.23c0,0,2.62,2.76,6.54,4.86
				c1.98,1.02,4.25,1.91,6.66,2.14c2.42,0.23,4.93-0.13,7.34-1.51l0.44-0.26c1.78-1.1,3.48-2.28,5.4-3.21
				c1.15-0.56,2.35-1.04,3.63-1.36c0.8-0.2,1.65-0.34,2.53-0.36c0.49-0.01,1,0.03,1.49,0.15c0.12,0.03,0.38,0.07,0.48,0.16
				c0,0-0.67-0.6-1.82-1.39c-1.15-0.8-2.74-1.87-4.65-2.72c-3.79-1.74-8.71-2.89-13.58-0.28l-0.43,0.24
				c-1.79,1.03-3.56,2.13-5.53,2.93c-1.19,0.48-2.45,0.87-3.8,1.08c-0.85,0.13-1.74,0.19-2.65,0.1
				C907.15,656.66,906.63,656.57,906.12,656.38z M733.41,511.26c-0.12-0.04-0.38-0.12-0.47-0.22c0,0,0.15,0.17,0.44,0.45
				c0.29,0.28,0.71,0.68,1.24,1.15c1.06,0.95,2.56,2.16,4.39,3.22c1.81,1.07,3.92,2.04,6.23,2.43c2.3,0.4,4.77,0.3,7.32-0.8
				l0.47-0.21c1.89-0.87,3.75-1.82,5.79-2.43c1.22-0.37,2.5-0.66,3.85-0.75c0.85-0.06,1.73-0.05,2.63,0.12
				c0.5,0.09,1.01,0.23,1.49,0.46c0.12,0.06,0.38,0.16,0.47,0.27c0,0-0.58-0.75-1.64-1.78c-1.06-1.04-2.57-2.38-4.42-3.59
				c-1.86-1.18-4.05-2.23-6.4-2.71c-2.37-0.45-4.9-0.32-7.43,0.82l-0.45,0.21c-1.85,0.9-3.67,1.9-5.66,2.63
				c-1.21,0.44-2.47,0.8-3.79,0.99c-0.83,0.12-1.7,0.17-2.57,0.07C734.4,511.52,733.89,511.44,733.41,511.26z M745.48,519.68
				c-0.12-0.05-0.37-0.13-0.46-0.24c0,0,0.59,0.7,1.61,1.68c1.02,0.99,2.5,2.24,4.27,3.38c1.77,1.16,3.86,2.18,6.15,2.66
				c2.28,0.51,4.76,0.46,7.35-0.54l0.48-0.2c1.93-0.81,3.79-1.67,5.86-2.22c1.24-0.33,2.53-0.57,3.88-0.63
				c0.85-0.03,1.74,0.01,2.62,0.2c0.49,0.11,0.99,0.27,1.47,0.51c0.12,0.06,0.37,0.17,0.46,0.28c0,0-0.56-0.76-1.57-1.84
				c-1.02-1.07-2.49-2.45-4.29-3.72c-3.62-2.51-8.59-4.48-13.74-2.37l-0.46,0.19c-1.9,0.84-3.73,1.75-5.75,2.4
				c-1.22,0.4-2.5,0.71-3.83,0.85c-0.84,0.09-1.71,0.1-2.58-0.02C746.45,520,745.96,519.88,745.48,519.68z M801.6,567.4
				c0,0,2.02,3.1,5.36,5.81c3.34,2.71,8.02,5.04,13.35,3.48l0.5-0.15c1.98-0.64,3.92-1.37,6.01-1.77c1.25-0.24,2.55-0.4,3.89-0.37
				c0.84,0.02,1.71,0.12,2.57,0.36c0.48,0.13,0.97,0.31,1.42,0.58c0.11,0.07,0.36,0.18,0.43,0.3c0,0-2.01-3.11-5.36-5.83
				c-3.35-2.72-8.03-5.06-13.36-3.49l-0.47,0.15c-1.97,0.64-3.9,1.37-5.98,1.78c-1.26,0.25-2.57,0.42-3.91,0.39
				c-0.85-0.02-1.72-0.11-2.59-0.34c-0.48-0.13-0.97-0.31-1.43-0.58C801.92,567.64,801.67,567.52,801.6,567.4z M708.33,496.06
				c-0.12-0.03-0.38-0.08-0.48-0.18c0,0,0.66,0.61,1.8,1.44c1.15,0.81,2.74,1.9,4.63,2.8c0.94,0.45,1.97,0.86,3.04,1.18
				c1.07,0.34,2.19,0.59,3.34,0.69c2.32,0.21,4.78-0.14,7.23-1.42l0.45-0.25c1.81-1.02,3.58-2.09,5.57-2.88
				c1.2-0.47,2.46-0.87,3.79-1.05c0.84-0.12,1.72-0.17,2.63-0.07c0.5,0.06,1.03,0.16,1.53,0.35c0.12,0.05,0.39,0.13,0.49,0.23
				c0,0-0.65-0.69-1.78-1.66c-1.13-0.97-2.74-2.2-4.71-3.24c-3.88-2.12-9.11-3.48-13.96-0.78l-0.43,0.25
				c-1.78,1.07-3.5,2.22-5.41,3.11c-1.16,0.54-2.37,1.01-3.67,1.31c-0.82,0.2-1.68,0.34-2.56,0.33
				C709.33,496.24,708.82,496.2,708.33,496.06z M721.02,503.36c-0.12-0.04-0.38-0.1-0.48-0.2c0,0,0.64,0.64,1.74,1.52
				c1.1,0.88,2.64,2.05,4.5,3.03c1.87,0.97,3.99,1.87,6.31,2.17c2.32,0.29,4.78,0.09,7.28-1.09l0.46-0.23
				c1.86-0.94,3.66-1.95,5.69-2.66c1.21-0.42,2.48-0.74,3.82-0.89c0.85-0.09,1.73-0.1,2.63,0.03c0.5,0.07,1.02,0.2,1.51,0.4
				c0.12,0.05,0.39,0.14,0.48,0.24c0,0-0.62-0.71-1.71-1.72c-1.1-0.99-2.64-2.32-4.56-3.43c-1.91-1.11-4.12-2.11-6.51-2.47
				c-2.39-0.36-4.91-0.14-7.39,1.1l-0.44,0.23c-1.83,0.99-3.6,2.07-5.56,2.87c-1.18,0.49-2.43,0.9-3.73,1.14
				c-0.82,0.15-1.68,0.23-2.57,0.19C722.02,503.59,721.51,503.52,721.02,503.36z M757.25,528.57c-0.12-0.05-0.37-0.15-0.45-0.26
				c0,0,0.56,0.72,1.55,1.74c0.99,1.02,2.43,2.32,4.16,3.54c3.48,2.41,8.19,4.41,13.44,2.57l0.48-0.18
				c1.94-0.74,3.84-1.54,5.92-2.04c1.25-0.29,2.55-0.5,3.9-0.51c0.86-0.01,1.72,0.06,2.6,0.28c0.49,0.12,0.98,0.29,1.45,0.55
				c0.12,0.06,0.37,0.18,0.44,0.29c0,0-2.13-3.08-5.67-5.71c-1.75-1.32-3.87-2.5-6.19-3.12c-2.31-0.63-4.85-0.66-7.46,0.3
				l-0.46,0.18c-1.92,0.77-3.8,1.64-5.83,2.21c-1.23,0.34-2.52,0.62-3.86,0.71c-0.84,0.06-1.71,0.05-2.58-0.11
				C758.21,528.93,757.72,528.79,757.25,528.57z M779.95,547.56c-0.11-0.06-0.36-0.17-0.44-0.29c0,0,2.09,3.01,5.46,5.64
				c3.38,2.62,8.06,4.85,13.36,3.23l0.49-0.16c1.97-0.67,3.9-1.41,6-1.84c1.25-0.25,2.55-0.42,3.89-0.39
				c0.85,0.02,1.72,0.11,2.58,0.35c0.48,0.13,0.97,0.31,1.43,0.58c0.11,0.07,0.36,0.18,0.44,0.3c0,0-2.05-3.12-5.44-5.83
				c-3.39-2.71-8.15-5-13.45-3.34l-0.47,0.16c-1.96,0.68-3.88,1.45-5.95,1.91c-1.25,0.28-2.55,0.48-3.89,0.48
				c-0.84,0-1.72-0.06-2.59-0.27C780.9,547.97,780.41,547.81,779.95,547.56z M768.73,537.88c-0.12-0.06-0.36-0.16-0.44-0.27
				c0,0,0.54,0.74,1.5,1.79c0.97,1.04,2.35,2.41,4.05,3.68c1.7,1.26,3.73,2.42,5.99,3.07c2.26,0.64,4.76,0.75,7.4-0.1l0.49-0.17
				c1.96-0.69,3.88-1.46,5.97-1.91c1.25-0.27,2.55-0.46,3.9-0.44c0.85,0.01,1.72,0.09,2.59,0.32c0.49,0.13,0.98,0.31,1.44,0.57
				c0.12,0.07,0.36,0.18,0.44,0.29c0,0-0.52-0.77-1.47-1.89c-0.95-1.11-2.33-2.56-4.06-3.89c-3.44-2.68-8.24-4.91-13.52-3.14
				l-0.47,0.17c-1.95,0.72-3.85,1.52-5.9,2.03c-1.25,0.31-2.53,0.53-3.87,0.58c-0.84,0.03-1.72-0.01-2.59-0.19
				C769.68,538.26,769.19,538.11,768.73,537.88z M1069.65,549.32c0.12,0.07,0.38,0.19,0.46,0.31c0,0-0.55-0.8-1.56-1.94
				c-1.02-1.13-2.49-2.61-4.32-3.92c-3.65-2.65-8.72-4.65-13.86-2.49l-0.48,0.21c-1.9,0.86-3.73,1.81-5.75,2.49
				c-1.21,0.41-2.46,0.73-3.78,0.9c-0.83,0.1-1.69,0.14-2.56,0.03c-0.49-0.06-0.99-0.16-1.46-0.35c-0.12-0.05-0.37-0.12-0.46-0.22
				c0,0,2.39,2.71,5.92,4.92c3.55,2.2,8.24,3.94,13.4,2l0.46-0.18c1.92-0.79,3.8-1.62,5.87-2.14c1.26-0.32,2.57-0.52,3.94-0.52
				c0.86,0,1.77,0.07,2.66,0.32C1068.66,548.86,1069.17,549.04,1069.65,549.32z M1093.63,648.76c0.15,0.88,0.23,1.83,0.1,2.79
				c-0.06,0.54-0.18,1.11-0.38,1.66c-0.05,0.14-0.14,0.43-0.25,0.54c0.57-0.58,1.11-1.23,1.63-1.88c2.63-3.34,4.33-7.35,4.65-11.1
				c0.19-1.86-0.02-3.69-0.5-5.29c-0.55-1.64-1.37-3.06-2.56-4.25c-1.52-1.49-3.13-2.84-4.57-4.34c-0.88-0.91-1.69-1.85-2.43-2.88
				c-0.47-0.65-0.9-1.33-1.21-2.06c-0.16-0.41-0.34-0.84-0.41-1.28c-0.02-0.11-0.08-0.34-0.03-0.45c-0.15,0.38-0.28,0.76-0.39,1.15
				c-0.12,0.39-0.24,0.78-0.36,1.17c-0.12,0.41-0.22,0.82-0.31,1.23c-0.1,0.41-0.21,0.82-0.3,1.24c-0.1,0.47-0.17,0.94-0.25,1.42
				c-0.17,1.01-0.17,2.07-0.25,3.09c-0.05,0.87,0.02,1.75,0.1,2.6c0.09,0.85,0.32,1.72,0.54,2.54c0.23,0.82,0.55,1.63,0.93,2.41
				c0.37,0.77,0.79,1.5,1.28,2.19l0.29,0.4c1.25,1.65,2.5,3.29,3.43,5.24C1092.96,646.09,1093.4,647.36,1093.63,648.76z
				 M1100.91,636.33c0.05,0.55,0.06,1.13-0.02,1.72c-0.02,0.15-0.04,0.45-0.13,0.59c0.15-0.24,0.29-0.48,0.42-0.73
				c2.09-3.73,3.14-8.34,2.73-12.43c-0.17-2.04-0.75-3.95-1.58-5.55c-0.9-1.61-2.01-2.91-3.49-3.81l-0.45-0.27
				c-1.83-1.04-3.67-1.9-5.49-2.98c-1.08-0.65-2.09-1.35-3.1-2.15c-0.62-0.51-1.21-1.06-1.69-1.69c-0.28-0.35-0.55-0.73-0.74-1.15
				c-0.05-0.1-0.16-0.31-0.15-0.43c0,0-0.02,0.2-0.05,0.56c-0.03,0.36-0.02,0.86-0.06,1.48c-0.03,0.62-0.03,1.35,0.02,2.15
				c0.01,0.8,0.05,1.67,0.19,2.58c0.46,3.59,1.51,7.77,5.71,11.32l0.38,0.31c2.55,2.06,5.3,4.27,6.76,7.76
				C1100.5,634.42,1100.79,635.34,1100.91,636.33z M1082.58,666.74c0,0,0.22-0.13,0.59-0.4c0.36-0.27,0.88-0.68,1.5-1.2
				c0.31-0.26,0.64-0.55,0.99-0.87c0.34-0.33,0.69-0.69,1.05-1.07c0.36-0.39,0.73-0.8,1.1-1.23c0.36-0.45,0.71-0.92,1.06-1.41
				c1.4-1.96,2.57-4.37,3.04-6.9c0.24-1.26,0.27-2.57,0.1-3.85c-0.18-1.28-0.61-2.56-1.29-3.78l-0.26-0.45
				c-1.09-1.78-2.34-3.46-3.35-5.28c-0.62-1.09-1.22-2.23-1.65-3.41c-0.26-0.74-0.54-1.53-0.65-2.33c-0.07-0.45-0.09-0.9-0.05-1.36
				c0.01-0.11,0.01-0.35,0.08-0.45c0,0-0.12,0.16-0.31,0.47c-0.2,0.3-0.49,0.73-0.81,1.27c-0.16,0.27-0.33,0.57-0.5,0.89
				c-0.18,0.32-0.38,0.65-0.56,1.02c-0.19,0.36-0.37,0.74-0.55,1.14c-0.19,0.4-0.39,0.81-0.56,1.24c-1.41,3.46-2.51,7.86-0.37,12.91
				l0.2,0.45c0.87,1.88,1.72,3.73,2.25,5.84c0.31,1.27,0.48,2.6,0.45,4.02c-0.02,0.9-0.16,1.81-0.45,2.73
				c-0.17,0.52-0.38,1.05-0.69,1.54C1082.85,666.39,1082.71,666.65,1082.58,666.74z M1102.72,617.12c0.53,0.72,1.03,1.53,1.4,2.46
				c0.21,0.52,0.38,1.09,0.43,1.69c0.01,0.15,0.07,0.45,0.02,0.61c0,0,0.08-0.25,0.2-0.71c0.13-0.46,0.28-1.12,0.4-1.95
				c0.29-1.65,0.48-3.98,0.2-6.46c-0.15-1.23-0.34-2.51-0.76-3.76c-0.2-0.62-0.42-1.24-0.68-1.84c-0.25-0.6-0.59-1.18-0.93-1.73
				c-0.34-0.55-0.72-1.08-1.13-1.58c-0.43-0.49-0.9-0.95-1.41-1.36c-1.01-0.83-2.15-1.48-3.51-1.9l-0.5-0.14
				c-2.04-0.55-4.02-0.93-6.06-1.55c-1.21-0.37-2.36-0.8-3.53-1.35c-0.73-0.35-1.43-0.75-2.06-1.26c-0.36-0.28-0.71-0.6-0.99-0.97
				c-0.07-0.09-0.23-0.27-0.25-0.39c0,0,0.02,0.2,0.09,0.56c0.05,0.36,0.19,0.86,0.3,1.48c0.13,0.62,0.3,1.34,0.55,2.12
				c0.2,0.79,0.47,1.63,0.82,2.49c0.3,0.87,0.71,1.76,1.18,2.64c0.43,0.89,1.04,1.75,1.68,2.59c0.63,0.84,1.46,1.64,2.35,2.38
				c0.9,0.74,1.98,1.42,3.24,1.99l0.44,0.2c1.85,0.82,3.78,1.64,5.54,2.9C1100.81,615.07,1101.82,615.98,1102.72,617.12z
				 M1069.87,677.42c0,0,0.95-0.37,2.34-1.18c0.69-0.4,1.51-0.89,2.35-1.52c0.84-0.63,1.75-1.33,2.6-2.18
				c0.86-0.83,1.7-1.76,2.43-2.8c0.36-0.52,0.72-1.04,1.02-1.6c0.3-0.56,0.58-1.14,0.81-1.73c0.48-1.17,0.76-2.45,0.85-3.73
				c0.09-1.28-0.08-2.61-0.51-3.95l-0.17-0.49c-0.7-1.96-1.56-3.85-2.17-5.86c-0.36-1.19-0.69-2.44-0.87-3.7
				c-0.11-0.79-0.16-1.6-0.11-2.43c0.03-0.46,0.11-0.92,0.26-1.36c0.04-0.11,0.1-0.34,0.2-0.42c0,0-0.64,0.54-1.5,1.48
				c-0.88,0.93-2.02,2.24-3.1,3.8c-0.52,0.8-1.09,1.62-1.53,2.55c-0.47,0.92-0.9,1.89-1.19,2.95c-0.33,1.03-0.53,2.16-0.59,3.36
				c-0.07,1.18,0.01,2.45,0.31,3.81l0.11,0.48c0.47,1.99,0.98,4,1.1,6.16c0.06,1.29-0.01,2.64-0.3,4.03
				c-0.19,0.87-0.49,1.73-0.94,2.59c-0.26,0.47-0.56,0.97-0.96,1.38C1070.21,677.13,1070.02,677.36,1069.87,677.42z M932.86,672.02
				c-0.13-0.03-0.41-0.09-0.52-0.18c0,0,0.73,0.62,1.97,1.47c1.23,0.86,3.03,1.86,5.11,2.69c2.07,0.85,4.47,1.42,6.9,1.39
				c1.22-0.02,2.43-0.16,3.63-0.55c1.21-0.39,2.38-0.97,3.5-1.8l0.41-0.32c1.63-1.31,3.17-2.65,4.95-3.82
				c1.07-0.7,2.2-1.35,3.42-1.84c0.77-0.31,1.58-0.56,2.44-0.68c0.48-0.06,0.98-0.09,1.48-0.05c0.13,0.01,0.39,0.02,0.5,0.09
				c0,0-0.19-0.12-0.52-0.32c-0.34-0.19-0.83-0.48-1.44-0.82c-1.22-0.67-2.94-1.45-4.9-2.08c-0.98-0.32-2.03-0.59-3.12-0.76
				c-0.55-0.09-1.1-0.15-1.67-0.18c-0.56-0.04-1.13-0.06-1.71-0.04c-2.3,0.08-4.69,0.74-6.97,2.33l-0.4,0.29
				c-1.66,1.21-3.28,2.49-5.16,3.5c-1.14,0.61-2.36,1.15-3.68,1.51c-0.84,0.23-1.71,0.36-2.63,0.36
				C933.92,672.21,933.39,672.16,932.86,672.02z M1091.32,573.74c0,0-0.1-0.23-0.27-0.65c-0.17-0.42-0.46-1-0.84-1.69
				c-0.75-1.4-1.92-3.22-3.48-4.97c-3.12-3.5-7.91-6.5-13.33-5.21l-0.51,0.13c-2.03,0.55-3.98,1.2-6.06,1.57
				c-1.25,0.23-2.54,0.38-3.84,0.37c-0.82-0.01-1.68-0.08-2.51-0.29c-0.47-0.12-0.94-0.28-1.37-0.52c-0.11-0.06-0.35-0.16-0.42-0.28
				c0,0,0.13,0.18,0.36,0.5c0.23,0.32,0.56,0.77,1,1.3c0.88,1.06,2.11,2.45,3.65,3.77c3.08,2.63,7.23,5.04,12.67,4.14l0.49-0.09
				c2.01-0.38,4.06-0.84,6.19-0.87c1.29-0.02,2.64,0.07,4,0.4c0.85,0.21,1.71,0.52,2.56,0.98c0.47,0.26,0.94,0.57,1.34,0.98
				C1091.04,573.4,1091.27,573.59,1091.32,573.74z M1081.35,560.91c0,0-0.13-0.21-0.35-0.59c-0.23-0.37-0.57-0.92-1.03-1.53
				c-0.46-0.62-1.03-1.34-1.69-2.1c-0.67-0.75-1.45-1.52-2.31-2.29c-3.45-3.02-8.43-5.45-13.71-3.65l-0.49,0.17
				c-1.95,0.72-3.85,1.57-5.9,2.11c-1.22,0.32-2.5,0.59-3.81,0.68c-0.83,0.05-1.68,0.04-2.54-0.11c-0.48-0.08-0.97-0.21-1.43-0.42
				c-0.11-0.05-0.36-0.14-0.44-0.25c0,0,0.55,0.71,1.52,1.71c0.96,1.01,2.35,2.3,4.02,3.5c3.36,2.39,7.83,4.43,13.14,2.92l0.47-0.14
				c1.97-0.62,3.93-1.3,6.04-1.61c1.28-0.19,2.63-0.29,3.99-0.14c0.86,0.09,1.76,0.26,2.64,0.6c0.49,0.19,0.98,0.44,1.44,0.76
				C1081.03,560.63,1081.28,560.78,1081.35,560.91z M1098.93,587.85c0.08,0.12,0.27,0.36,0.3,0.51c0,0-0.05-0.25-0.15-0.71
				c-0.09-0.46-0.28-1.09-0.54-1.86c-0.5-1.55-1.36-3.61-2.65-5.64c-1.29-2.02-3.01-4.01-5.15-5.38c-1.06-0.69-2.2-1.24-3.45-1.56
				c-1.24-0.33-2.54-0.47-3.94-0.32l-0.52,0.06c-2.09,0.29-4.08,0.67-6.2,0.82c-1.27,0.09-2.54,0.08-3.83-0.06
				c-0.82-0.09-1.64-0.25-2.44-0.54c-0.44-0.17-0.89-0.37-1.3-0.64c-0.1-0.07-0.32-0.19-0.38-0.31c0,0,0.1,0.19,0.29,0.53
				c0.2,0.33,0.48,0.81,0.84,1.37c0.36,0.57,0.82,1.21,1.33,1.91c0.51,0.7,1.11,1.43,1.78,2.16c2.68,2.91,6.35,5.75,11.86,5.7
				l0.49-0.01c2.04-0.06,4.13-0.18,6.25,0.15c1.28,0.2,2.59,0.54,3.89,1.11c0.8,0.37,1.6,0.84,2.35,1.47
				C1098.2,586.96,1098.61,587.36,1098.93,587.85z M1103.98,603.95c0.01-0.47-0.03-1.14-0.11-1.97c-0.14-1.65-0.53-3.9-1.38-6.21
				c-0.45-1.15-0.94-2.33-1.64-3.42c-0.67-1.1-1.44-2.15-2.38-3.04c-0.46-0.45-0.95-0.87-1.46-1.25c-0.53-0.37-1.09-0.7-1.67-0.98
				c-1.17-0.57-2.43-0.94-3.84-1.04l-0.52-0.03c-2.1-0.09-4.13-0.03-6.25-0.22c-1.27-0.11-2.49-0.31-3.76-0.63
				c-0.79-0.21-1.57-0.48-2.29-0.87c-0.41-0.22-0.83-0.47-1.18-0.79c-0.09-0.08-0.29-0.23-0.32-0.35c0,0,0.07,0.2,0.2,0.55
				c0.13,0.35,0.36,0.84,0.61,1.44c0.26,0.6,0.59,1.29,0.99,2.03c0.37,0.75,0.83,1.55,1.36,2.34c2.1,3.21,5.09,6.53,10.49,7.58
				l0.48,0.09c2,0.35,4.08,0.68,6.08,1.47c1.21,0.48,2.42,1.1,3.57,1.97c0.7,0.55,1.38,1.2,1.97,2c0.33,0.45,0.65,0.94,0.84,1.5
				c0.05,0.14,0.18,0.42,0.17,0.58C1103.96,604.68,1103.97,604.42,1103.98,603.95z M976.55,689.17c-0.14-0.01-0.42,0-0.55-0.07
				c0,0,0.22,0.11,0.61,0.3c0.39,0.2,0.96,0.44,1.68,0.7c1.44,0.51,3.43,1.18,5.7,1.49c4.53,0.63,10.1-0.01,13.52-4.44l0.31-0.42
				c1.23-1.7,2.34-3.44,3.71-5.04c0.41-0.48,0.84-0.94,1.29-1.39c0.45-0.46,0.93-0.91,1.44-1.33c0.64-0.52,1.33-1.01,2.1-1.37
				c0.43-0.2,0.89-0.38,1.37-0.46c0.12-0.02,0.36-0.09,0.49-0.04c0,0-0.83-0.28-2.15-0.55c-1.32-0.27-3.14-0.5-5.15-0.61
				c-1.01-0.03-2.06,0-3.13,0.15c-1.07,0.11-2.16,0.3-3.24,0.65c-1.08,0.34-2.15,0.85-3.18,1.49c-1.02,0.63-2.01,1.45-2.92,2.49
				l-0.32,0.38c-1.31,1.58-2.6,3.25-4.19,4.66c-0.97,0.85-2.04,1.63-3.26,2.27c-0.77,0.4-1.61,0.75-2.52,0.96
				C977.64,689.13,977.09,689.2,976.55,689.17z M961.47,684.53c-0.14-0.02-0.42-0.03-0.54-0.11c0,0,0.82,0.52,2.18,1.18
				c0.68,0.33,1.5,0.71,2.43,1.06c0.93,0.33,1.97,0.65,3.08,0.92c2.2,0.55,4.7,0.75,7.12,0.36c2.41-0.36,4.79-1.48,6.7-3.47
				l0.35-0.38c1.39-1.55,2.67-3.13,4.23-4.61c0.93-0.88,1.92-1.71,3.02-2.4c0.7-0.44,1.44-0.82,2.25-1.1
				c0.45-0.16,0.93-0.3,1.43-0.34c0.12-0.01,0.38-0.05,0.49,0c0,0-0.8-0.34-2.1-0.74c-1.3-0.44-3.09-0.94-5.1-1.17
				c-2.01-0.32-4.25-0.35-6.48,0.12c-2.23,0.43-4.47,1.47-6.48,3.38l-0.35,0.34c-1.46,1.45-2.88,2.95-4.59,4.22
				c-1.04,0.76-2.19,1.49-3.45,2.01c-0.8,0.33-1.65,0.59-2.57,0.71C962.56,684.56,962.02,684.59,961.47,684.53z M991.54,692.4
				c0,0,0.91,0.36,2.4,0.78c1.48,0.45,3.58,0.77,5.88,0.89c0.58,0.02,1.16,0.03,1.76,0.01c0.6-0.04,1.21-0.1,1.81-0.19
				c1.21-0.18,2.43-0.47,3.58-0.91c2.32-0.9,4.42-2.49,5.85-4.85l0.26-0.45c1.02-1.79,1.9-3.72,3.06-5.48
				c0.69-1.06,1.45-2.09,2.35-3.02c0.56-0.57,1.18-1.15,1.88-1.63c0.39-0.27,0.82-0.51,1.27-0.66c0.11-0.04,0.34-0.14,0.47-0.12
				c0,0-0.85-0.15-2.17-0.22c-0.66-0.02-1.45-0.07-2.32-0.09c-0.87-0.01-1.81,0.02-2.8,0.14c-0.98,0.14-2.02,0.24-3.06,0.49
				c-1.04,0.24-2.09,0.59-3.11,1.08c-2.05,0.91-4,2.34-5.58,4.64l-0.28,0.42c-1.13,1.73-2.22,3.45-3.67,5.03
				c-0.88,0.95-1.86,1.86-3.02,2.64c-0.73,0.5-1.53,0.89-2.42,1.18c-0.5,0.16-1.03,0.28-1.59,0.32
				C991.96,692.41,991.68,692.45,991.54,692.4z M946.9,678.73c-0.13-0.03-0.41-0.06-0.53-0.15c0,0,0.76,0.59,2.06,1.36
				c1.31,0.74,3.17,1.67,5.31,2.39c2.17,0.65,4.6,1.13,7.04,0.92c2.45-0.23,4.86-1.04,6.96-2.88l0.39-0.35
				c1.53-1.44,2.96-2.93,4.64-4.23c1-0.78,2.06-1.48,3.24-2.09c0.74-0.38,1.53-0.71,2.37-0.91c0.47-0.11,0.96-0.19,1.46-0.17
				c0.12,0,0.38-0.01,0.5,0.06c0,0-0.77-0.44-2.04-0.98c-0.63-0.27-1.39-0.55-2.24-0.84c-0.84-0.3-1.78-0.59-2.78-0.82
				c-2.01-0.43-4.23-0.74-6.51-0.46c-2.29,0.31-4.59,1.06-6.75,2.81l-0.38,0.32c-1.58,1.34-3.12,2.75-4.92,3.85
				c-1.1,0.68-2.28,1.28-3.58,1.72c-0.82,0.27-1.7,0.49-2.63,0.54C947.97,678.86,947.44,678.84,946.9,678.73z M1007.48,694.06
				c0,0,0.24,0.08,0.67,0.16c0.43,0.09,1.06,0.2,1.83,0.3c1.55,0.19,3.68,0.45,6.01,0.17c1.16-0.12,2.37-0.31,3.56-0.61
				c1.19-0.3,2.37-0.82,3.47-1.41c1.1-0.61,2.12-1.34,3-2.25c0.88-0.95,1.62-2.06,2.16-3.35l0.19-0.48c0.75-1.96,1.37-3.9,2.26-5.8
				c0.53-1.17,1.12-2.31,1.86-3.38c0.46-0.67,0.99-1.31,1.61-1.86c0.35-0.31,0.73-0.58,1.15-0.83c0.11-0.06,0.31-0.2,0.44-0.2
				c0,0-0.21,0-0.59,0.02c-0.37,0.03-0.92,0.03-1.58,0.07c-0.66,0.04-1.44,0.12-2.28,0.25c-0.85,0.13-1.75,0.35-2.72,0.54
				c-0.96,0.21-1.94,0.51-2.92,0.92c-0.49,0.19-0.98,0.45-1.46,0.68c-0.49,0.23-0.97,0.49-1.44,0.79c-1.88,1.18-3.61,2.94-4.88,5.34
				l-0.22,0.44c-0.9,1.84-1.77,3.73-3.01,5.5c-0.76,1.09-1.63,2.06-2.69,2.95c-0.67,0.56-1.42,1.07-2.29,1.48
				c-0.48,0.22-1,0.42-1.56,0.53C1007.9,694.04,1007.62,694.11,1007.48,694.06z M1040.3,690.78c-0.13,0.06-0.38,0.22-0.53,0.22
				c0,0,1-0.04,2.57-0.27c0.79-0.12,1.71-0.28,2.72-0.52c1.02-0.29,2.12-0.63,3.23-1.1c2.21-0.95,4.48-2.32,6.2-4.21
				c0.86-0.94,1.6-1.98,2.12-3.17c0.53-1.18,0.88-2.44,0.95-3.86l0.02-0.52c0.04-2.1-0.05-4.14,0.1-6.26
				c0.09-1.27,0.27-2.5,0.56-3.77c0.19-0.79,0.44-1.57,0.82-2.3c0.2-0.42,0.45-0.83,0.76-1.19c0.08-0.09,0.22-0.29,0.34-0.33
				c0,0-0.2,0.07-0.54,0.21c-0.35,0.14-0.83,0.37-1.42,0.63c-0.59,0.27-1.28,0.61-2.01,1.03c-0.74,0.39-1.53,0.86-2.32,1.41
				c-3.19,2.17-6.53,5.3-7.4,10.74l-0.07,0.49c-0.28,2.02-0.51,4.12-1.2,6.14c-0.42,1.22-0.96,2.51-1.75,3.64
				c-0.49,0.72-1.07,1.43-1.8,2.05C1041.27,690.18,1040.81,690.52,1040.3,690.78z M1055.95,685.31c-0.12,0.08-0.34,0.28-0.5,0.31
				c0,0,0.25-0.06,0.69-0.17c0.44-0.11,1.07-0.29,1.83-0.57c1.52-0.53,3.54-1.42,5.54-2.75c0.99-0.68,2-1.42,2.89-2.32
				c0.45-0.44,0.89-0.9,1.29-1.39c0.41-0.49,0.77-1.02,1.11-1.55c0.34-0.54,0.64-1.1,0.9-1.68c0.25-0.59,0.45-1.2,0.61-1.83
				c0.31-1.24,0.41-2.57,0.23-3.96l-0.08-0.52c-0.17-1.04-0.37-2.05-0.55-3.07c-0.19-1.02-0.37-2.06-0.48-3.1
				c-0.13-1.25-0.2-2.52-0.13-3.81c0.04-0.81,0.16-1.61,0.38-2.41c0.12-0.45,0.29-0.9,0.53-1.3c0.06-0.1,0.17-0.32,0.28-0.38
				c0,0-0.73,0.41-1.77,1.18c-0.53,0.37-1.15,0.82-1.79,1.36c-0.64,0.54-1.35,1.12-2.02,1.81c-2.73,2.72-5.48,6.41-5.33,11.93
				l0.02,0.49c0.1,2.04,0.25,4.13-0.03,6.25c-0.18,1.28-0.48,2.61-1.02,3.91c-0.35,0.81-0.8,1.62-1.4,2.38
				C1056.81,684.57,1056.42,684.97,1055.95,685.31z M1024.22,693.55c-0.14,0.04-0.41,0.15-0.56,0.13c0,0,0.99,0.14,2.57,0.18
				c1.57-0.02,3.73-0.2,6.03-0.69c1.15-0.27,2.32-0.69,3.46-1.18c1.14-0.51,2.26-1.07,3.26-1.86c2-1.59,3.59-3.63,4.28-6.32
				l0.12-0.51c0.43-2.07,0.73-4.07,1.27-6.13c0.32-1.23,0.72-2.42,1.24-3.6c0.33-0.74,0.72-1.47,1.22-2.12
				c0.28-0.36,0.59-0.73,0.96-1.02c0.09-0.07,0.27-0.24,0.39-0.26c0,0-0.21,0.03-0.57,0.11c-0.36,0.08-0.87,0.21-1.5,0.36
				c-0.63,0.15-1.35,0.38-2.15,0.64c-0.8,0.24-1.65,0.58-2.52,0.95c-1.73,0.77-3.65,1.72-5.3,3.21c-0.41,0.37-0.81,0.78-1.19,1.22
				c-0.39,0.42-0.75,0.86-1.1,1.35c-0.69,0.98-1.27,2.11-1.72,3.42l-0.15,0.47c-0.31,0.99-0.61,1.99-0.95,2.98
				c-0.35,0.98-0.74,1.93-1.24,2.88c-0.6,1.14-1.33,2.27-2.27,3.32c-0.59,0.65-1.27,1.32-2.08,1.8
				C1025.25,693.13,1024.76,693.38,1024.22,693.55z"/>
		</g>
		<path id="XMLID_10009_" class="st0" d="M303.16,479.2c0.08,0,0.17,0,0.25,0c5.17-0.14,9.25-4.44,9.12-9.61l-3.38-127.26
			c-0.14-5.17-4.44-9.25-9.61-9.12c-5.17,0.14-9.25,4.44-9.12,9.61l3.38,127.26C293.94,475.17,298.1,479.2,303.16,479.2z"/>
	</g>
</g>
</svg>
