<?xml version="1.0" encoding="utf-8"?>
<!-- Generator: Adobe Illustrator 26.0.3, SVG Export Plug-In . SVG Version: 6.00 Build 0)  -->
<svg version="1.1" id="Layer_1" xmlns="http://www.w3.org/2000/svg" xmlns:xlink="http://www.w3.org/1999/xlink" x="0px" y="0px"
	 viewBox="0 0 1133.86 1133.86" style="enable-background:new 0 0 1133.86 1133.86;" xml:space="preserve">
<style type="text/css">
	.st0{fill:#243557;}
	.st1{fill:#FDA590;}
	.st2{fill:#F75958;}
	.st3{fill:#C14646;}
	.st4{fill:#FFFFFF;}
	.st5{fill:#96928F;}
	.st6{clip-path:url(#SVGID_00000075164579300382172270000018123006293468505500_);}
	.st7{fill:#2056A6;}
	.st8{fill:#B5D5FC;}
	.st9{fill:#266CBF;}
	.st10{fill:#A5A19D;}
	.st11{fill:#C1BCB6;}
	.st12{fill:#2AAF8E;}
	.st13{fill:#527AB3;}
	.st14{fill:#FCC34A;}
</style>
<g>
	<g>
		<g>
			<path class="st0" d="M520.82,232.37c0,0,8.79,25.26-4.39,42.84c-13.18,17.57-29.66,27.46-19.77,48.33
				c9.89,20.87-16.48,29.66-18.67,48.33c-2.2,18.67,14.28,37.35,42.84,27.46c28.56-9.89,38.44-25.26,56.02-29.66
				c17.57-4.39,21.97-49.43,21.97-53.82c0-4.39-53.82-93.36-53.82-93.36L520.82,232.37z"/>
			<path class="st0" d="M681.19,244.46c0,0-10.98,30.76,4.39,52.72c15.38,21.97,23.07,23.07,25.26,39.54
				c2.2,16.48-13.18,18.67-6.59,34.05c6.59,15.38,25.26,24.16,2.2,30.76c-23.07,6.59-67.45-1-69.97-24.12
				c-2.52-23.11-0.33-39.59-4.72-48.38c-4.39-8.79,38.44-88.97,38.44-88.97L681.19,244.46z"/>
			<path class="st1" d="M448.82,838c0,0,190.24,34.12,289.5-8.27c0,0-26.88-83.75-27.92-118.9c-0.61-20.67,12.41-80.65,14.48-113.73
				c2.07-33.09-11.89-205.24-11.89-205.24l-70.82-20.16h-86.65c-8.35,0-16.65,1.31-24.6,3.88l-59.86,19.38l-14.49,128.5
				c1.72,37.92,7.94,75.51,18.51,111.97l3.84,13.23c12.95,36.46,12.56,76.34-1.11,112.54L448.82,838z"/>
			<g>
				<path class="st1" d="M471.05,394.96c0,0-36.19,8.27-48.59,46.53c-12.41,38.26-16.54,104.43-18.61,140.61
					c-2.07,36.19-26.88,100.29-26.88,117.87c0,17.58-3.1,185.07-3.1,193.34c0,8.27,37.74-4.65,37.74-4.65s40.84-118.39,49.11-165.95
					c8.27-47.56,11.36-97.13,11.36-97.13S483.46,450.8,471.05,394.96z"/>
				<path class="st1" d="M428.78,928.99c-0.11-0.46-0.37-0.95-0.74-1.46c-0.19-1.34-0.7-3.21-1.45-6.29
					c-2.53-10.49-12.03-31.07-12.03-31.07l-4.71-8.54c0,0-33.65,0.5-37.03,5.49c-3.38,4.99-12.26,62.21-13.8,71.44
					c-0.45,2.67-0.52,5.09-0.28,7.33c0.4,10.05,4.84,18.93,4.84,18.93s3.53,14.13,9.42,24.73c4,7.19,6.36,9.5,8.21,9.14
					c3.76,5.46,5.66,4.91,7.56,2.06c0.43-0.64,0.66-1.32,0.75-2.01c3.73,5.4,5.62,4.85,7.52,2.01c2.35-3.53-1.18-8.24-1.18-8.24
					l-4.71-17.66l-3.53-12.95l0.34-5.05c1.16,3.86,2.45,6.43,2.45,6.43s3.1,12.41,8.27,21.71c5.17,9.31,7.24,9.31,9.31,6.2
					c2.07-3.1-1.03-7.24-1.03-7.24l-4.14-15.51l-3.1-11.37l1.85-27.8c2.36-9.72,5.1-19.38,7.14-21.62l5.48,17.36v11.37l-2.07,16.54
					c0,0-3.1,5.17-2.07,9.31s7.24,6.2,12.41-12.41C427.63,951.22,429.94,933.64,428.78,928.99z"/>
			</g>
			<g>
				<path class="st1" d="M712.99,391.86c0,0,34.64,9.31,47.04,47.56c12.41,38.26,16.54,104.43,18.61,140.61
					c2.07,36.19,26.88,100.29,26.88,117.87c0,17.58,3.1,185.07,3.1,193.35c0,8.27-37.74-4.65-37.74-4.65s-40.84-118.39-49.11-165.95
					c-8.27-47.56-11.36-97.13-11.36-97.13S700.59,447.7,712.99,391.86z"/>
				<path class="st1" d="M753.71,926.92c0.11-0.46,0.37-0.95,0.74-1.46c0.19-1.34,0.71-3.21,1.45-6.29
					c2.53-10.49,12.03-31.07,12.03-31.07l4.71-8.54c0,0,33.65,0.5,37.03,5.49c3.38,4.99,12.26,62.21,13.8,71.44
					c0.45,2.67,0.52,5.09,0.28,7.33c-0.4,10.05-4.84,18.93-4.84,18.93s-3.53,14.13-9.42,24.73c-4,7.19-6.36,9.5-8.21,9.14
					c-3.76,5.46-5.66,4.91-7.56,2.06c-0.43-0.64-0.66-1.32-0.75-2.01c-3.73,5.4-5.62,4.85-7.52,2.01c-2.36-3.53,1.18-8.24,1.18-8.24
					l4.71-17.66l3.53-12.95l-0.34-5.05c-1.16,3.86-2.45,6.43-2.45,6.43s-3.1,12.41-8.27,21.71c-5.17,9.31-7.24,9.31-9.31,6.2
					c-2.07-3.1,1.03-7.24,1.03-7.24l4.14-15.51l3.1-11.37l-1.85-27.8c-2.36-9.72-5.1-19.38-7.14-21.62l-5.48,17.36v11.37l2.07,16.54
					c0,0,3.1,5.17,2.07,9.31c-1.03,4.14-7.24,6.2-12.41-12.41C754.87,949.15,752.56,931.57,753.71,926.92z"/>
			</g>
			<path class="st2" d="M589.55,1075.14L596,977.4l12.83,97.73h158.75c0.16-5.71,1.96-92.85-29.26-245.41
				c0,0-125.11,29.98-287.43-1.03c0,0-29.73,107.68-21.81,246.44H589.55z"/>
			<path class="st1" d="M668.52,171.96c-12.16-31.98-51.85-43.44-64.85-46.39c-2.81-0.64-5.71-0.6-8.51,0.1
				c-11.98,2.97-45.37,13.88-57.28,45.19c-14.62,38.44-6.27,85.68-2.09,106.55c4.05,20.21,29.63,54.83,64.43,65.98
				c2.25,0.72,4.66,0.72,6.91,0c34.74-11.09,59.42-44.68,63.47-64.89C674.78,257.64,683.14,210.4,668.52,171.96z"/>
			<path class="st1" d="M637.5,324.14c0,0,2.11,36.19,15.01,52.73l-109.6-3.1c0,0,23.14-8.51,21.5-51.7L637.5,324.14z"/>
			<path class="st0" d="M594.41,167.57c0,0-1.1,28.56,21.97,39.54c23.07,10.98,40.64,14.28,45.03,28.56
				c4.39,14.28-6.59,19.77,2.2,27.46c8.79,7.69,29.66-5.49,26.36-46.13c-3.3-40.64-26.36-73.59-48.33-86.77
				C619.68,117.04,585.63,117.04,594.41,167.57z"/>
			<path class="st0" d="M602.83,195.68c0,0-18.3,27.9-35.87,22.41c-17.57-5.49-17.57,25.26-31.85,26.36
				c-14.28,1.1-29.66-18.67-21.97-42.84c7.69-24.16,26.48-88.99,97.27-77.45L602.83,195.68z"/>
			<g>
				<path class="st3" d="M595.93,978.83l-0.41-1.28c-5.99-18.72-41.5-34.77-41.86-34.93l0.41-0.91
					c1.45,0.65,34.87,15.76,41.99,34.37c2.79-5.76,16.73-31.76,41.99-35.17l0.13,0.99c-27.74,3.75-41.6,35.38-41.73,35.7
					L595.93,978.83z"/>
			</g>
			<g>
				<path class="st3" d="M757.11,1065.51c-3.78-90.07-19.74-169.93-19.9-170.73l0.98-0.2c0.16,0.8,16.14,80.74,19.92,170.89
					L757.11,1065.51z"/>
			</g>
			<g>
				<path class="st3" d="M437.71,1068.59c-6.82-103.81,13.59-184.71,13.8-185.52l0.97,0.25c-0.21,0.8-20.58,81.56-13.77,185.2
					L437.71,1068.59z"/>
			</g>
			<g>
				<path class="st4" d="M667.15,256.2c-1.95-2.81-1.56-7.13-1.1-12.12c0.67-7.41,1.5-16.64-4.52-25.67
					c-6.25-9.37-13.45-10.72-22.58-12.44c-5.38-1.01-11.47-2.15-18.07-5.26c-17.57-8.27-13.58-19.91-13.53-20.03l0.94,0.34
					c-0.16,0.44-3.69,10.92,13.02,18.78c6.49,3.05,12.51,4.19,17.83,5.18c8.99,1.69,16.75,3.15,23.22,12.86
					c6.22,9.32,5.37,18.75,4.68,26.32c-0.43,4.8-0.81,8.95,0.93,11.46L667.15,256.2z"/>
			</g>
			<g>
				<path class="st4" d="M526.8,236.51c-2.4,0-4.39-0.54-5.94-1.63c-2.52-1.77-2.89-4.32-2.9-4.43l0.99-0.13
					c0,0.02,0.34,2.25,2.51,3.76c2.19,1.53,5.45,1.84,9.66,0.92c5.48-1.19,7.39-6.84,9.23-12.3c1.94-5.76,3.94-11.71,10.29-11.71
					c2.68,0,5.08,0.16,7.41,0.31c7.69,0.5,13.76,0.89,21.91-5.31l0.61,0.8c-8.44,6.43-14.68,6.03-22.58,5.51
					c-2.31-0.15-4.7-0.3-7.34-0.3c-5.62,0-7.43,5.36-9.34,11.03c-1.93,5.73-3.92,11.65-9.96,12.96
					C529.69,236.34,528.18,236.51,526.8,236.51z"/>
			</g>
			<g>
				<path class="st4" d="M678.77,245.32l-0.97-0.25c2.43-9.23,3.76-34.12-7.6-52.2c-6.85-10.89-16.38-13.31-26.48-15.86
					c-6.25-1.58-12.71-3.22-18.81-6.96c-15.96-9.79-13.02-21.38-12.99-21.49l0.96,0.26c-0.03,0.11-2.75,11.01,12.55,20.38
					c5.97,3.66,12.35,5.27,18.53,6.84c10.29,2.61,20.02,5.07,27.08,16.3C682.59,210.69,681.24,235.96,678.77,245.32z"/>
			</g>
			<g>
				<path class="st4" d="M701.39,378.79c-0.49-0.59-11.88-14.66-7.23-26.04c4.56-11.15,3.81-17.21-9.6-31.12
					c-13.83-14.34-10.97-25.54-10.85-26.01l0.96,0.26c-0.03,0.11-2.8,11.16,10.6,25.05c13.8,14.31,14.55,20.59,9.8,32.2
					c-4.43,10.83,6.96,24.88,7.07,25.02L701.39,378.79z"/>
			</g>
		</g>
		<path class="st5" d="M840.73,916.58h-488.1c-33.1,0-59.93-26.83-59.93-59.93V447.14c0-33.1,26.83-59.93,59.93-59.93h488.1
			c33.1,0,59.93,26.83,59.93,59.93v409.52C900.65,889.75,873.82,916.58,840.73,916.58z"/>
		<g>
			<rect x="364.17" y="395.8" class="st5" width="464.68" height="1"/>
		</g>
		<g>
			<defs>
				<path id="SVGID_1_" d="M809.71,889.57H383.64c-33.1,0-59.93-26.83-59.93-59.93v-355.5c0-33.1,26.83-59.93,59.93-59.93h426.06
					c33.1,0,59.93,26.83,59.93,59.93v355.5C869.63,862.74,842.8,889.57,809.71,889.57z"/>
			</defs>
			<use xlink:href="#SVGID_1_"  style="overflow:visible;fill:#243557;"/>
			<clipPath id="SVGID_00000083790004153749147980000006207259635061943998_">
				<use xlink:href="#SVGID_1_"  style="overflow:visible;"/>
			</clipPath>
			<g style="clip-path:url(#SVGID_00000083790004153749147980000006207259635061943998_);">
				<path class="st0" d="M520.82,232.37c0,0,8.79,25.26-4.39,42.84c-13.18,17.57-29.66,27.46-19.77,48.33
					c9.89,20.87-16.48,29.66-18.67,48.33c-2.2,18.67,14.28,37.35,42.84,27.46c28.56-9.89,38.44-25.26,56.02-29.66
					c17.57-4.39,21.97-49.43,21.97-53.82c0-4.39-53.82-93.36-53.82-93.36L520.82,232.37z"/>
				<path class="st0" d="M681.19,244.46c0,0-10.98,30.76,4.39,52.72c15.38,21.97,23.07,23.07,25.26,39.54
					c2.2,16.48-13.18,18.67-6.59,34.05c6.59,15.38,25.26,24.16,2.2,30.76c-23.07,6.59-67.45-1-69.97-24.12
					c-2.52-23.11-0.33-39.59-4.72-48.38c-4.39-8.79,38.44-88.97,38.44-88.97L681.19,244.46z"/>
				<path class="st7" d="M448.82,838c0,0,190.24,34.12,289.5-8.27c0,0-26.88-83.75-27.92-118.9
					c-0.61-20.67,12.41-80.65,14.48-113.73c2.07-33.09-11.89-205.24-11.89-205.24l-70.82-20.16h-86.65c-8.35,0-16.65,1.31-24.6,3.88
					l-59.86,19.38l-14.49,128.5c1.72,37.92,7.94,75.51,18.51,111.97l3.84,13.23c12.95,36.46,12.56,76.34-1.11,112.54L448.82,838z"/>
				<g>
					<path class="st7" d="M471.05,394.96c0,0-36.19,8.27-48.59,46.53c-12.41,38.26-16.54,104.43-18.61,140.61
						c-2.07,36.19-26.88,100.29-26.88,117.87c0,17.58-3.1,185.07-3.1,193.34c0,8.27,37.74-4.65,37.74-4.65
						s40.84-118.39,49.11-165.95c8.27-47.56,11.36-97.13,11.36-97.13S483.46,450.8,471.05,394.96z"/>
					<path class="st7" d="M428.78,928.99c-0.11-0.46-0.37-0.95-0.74-1.46c-0.19-1.34-0.7-3.21-1.45-6.29
						c-2.53-10.49-12.03-31.07-12.03-31.07l-4.71-8.54c0,0-33.65,0.5-37.03,5.49c-3.38,4.99-12.26,62.21-13.8,71.44
						c-0.45,2.67-0.52,5.09-0.28,7.33c0.4,10.05,4.84,18.93,4.84,18.93s3.53,14.13,9.42,24.73c4,7.19,6.36,9.5,8.21,9.14
						c3.76,5.46,5.66,4.91,7.56,2.06c0.43-0.64,0.66-1.32,0.75-2.01c3.73,5.4,5.62,4.85,7.52,2.01c2.35-3.53-1.18-8.24-1.18-8.24
						l-4.71-17.66l-3.53-12.95l0.34-5.05c1.16,3.86,2.45,6.43,2.45,6.43s3.1,12.41,8.27,21.71c5.17,9.31,7.24,9.31,9.31,6.2
						c2.07-3.1-1.03-7.24-1.03-7.24l-4.14-15.51l-3.1-11.37l1.85-27.8c2.36-9.72,5.1-19.38,7.14-21.62l5.48,17.36v11.37l-2.07,16.54
						c0,0-3.1,5.17-2.07,9.31s7.24,6.2,12.41-12.41C427.63,951.22,429.94,933.64,428.78,928.99z"/>
				</g>
				<g>
					<path class="st7" d="M711.44,392.9c0,0,36.19,8.27,48.59,46.53c12.41,38.26,16.54,104.43,18.61,140.61
						c2.07,36.19,26.88,100.29,26.88,117.87c0,17.58,3.1,185.07,3.1,193.35c0,8.27-37.74-4.65-37.74-4.65
						s-40.84-118.39-49.11-165.95c-8.27-47.56-11.36-97.13-11.36-97.13S699.04,448.73,711.44,392.9z"/>
					<path class="st7" d="M753.71,926.92c0.11-0.46,0.37-0.95,0.74-1.46c0.19-1.34,0.71-3.21,1.45-6.29
						c2.53-10.49,12.03-31.07,12.03-31.07l4.71-8.54c0,0,33.65,0.5,37.03,5.49c3.38,4.99,12.26,62.21,13.8,71.44
						c0.45,2.67,0.52,5.09,0.28,7.33c-0.4,10.05-4.84,18.93-4.84,18.93s-3.53,14.13-9.42,24.73c-4,7.19-6.36,9.5-8.21,9.14
						c-3.76,5.46-5.66,4.91-7.56,2.06c-0.43-0.64-0.66-1.32-0.75-2.01c-3.73,5.4-5.62,4.85-7.52,2.01
						c-2.36-3.53,1.18-8.24,1.18-8.24l4.71-17.66l3.53-12.95l-0.34-5.05c-1.16,3.86-2.45,6.43-2.45,6.43s-3.1,12.41-8.27,21.71
						c-5.17,9.31-7.24,9.31-9.31,6.2c-2.07-3.1,1.03-7.24,1.03-7.24l4.14-15.51l3.1-11.37l-1.85-27.8
						c-2.36-9.72-5.1-19.38-7.14-21.62l-5.48,17.36v11.37l2.07,16.54c0,0,3.1,5.17,2.07,9.31c-1.03,4.14-7.24,6.2-12.41-12.41
						C754.87,949.15,752.56,931.57,753.71,926.92z"/>
				</g>
				<path class="st8" d="M450.89,828.7c0,0-29.98,108.56-21.71,248.14h160.26l13.44-100.29l15.51,102.36l144.75-2.07
					c0,0,20.68-85.82-24.81-247.11C738.32,829.73,613.22,859.72,450.89,828.7z"/>
				<path class="st1" d="M668.52,171.96c-12.16-31.98-51.85-43.44-64.85-46.39c-2.81-0.64-5.71-0.6-8.51,0.1
					c-11.98,2.97-45.37,13.88-57.28,45.19c-14.62,38.44-6.27,85.68-2.09,106.55c4.05,20.21,29.63,54.83,64.43,65.98
					c2.25,0.72,4.66,0.72,6.91,0c34.74-11.09,59.42-44.68,63.47-64.89C674.78,257.64,683.14,210.4,668.52,171.96z"/>
				<path class="st1" d="M637.5,324.14c0,0,2.11,36.19,15.01,52.73l-109.6-3.1c0,0,23.14-8.51,21.5-51.7L637.5,324.14z"/>
				<path class="st0" d="M594.41,167.57c0,0-1.1,28.56,21.97,39.54c23.07,10.98,40.64,14.28,45.03,28.56
					c4.39,14.28-6.59,19.77,2.2,27.46c8.79,7.69,29.66-5.49,26.36-46.13c-3.3-40.64-26.36-73.59-48.33-86.77
					C619.68,117.04,585.63,117.04,594.41,167.57z"/>
				<path class="st0" d="M602.83,195.68c0,0-18.3,27.9-35.87,22.41c-17.57-5.49-17.57,25.26-31.85,26.36
					c-14.28,1.1-29.66-18.67-21.97-42.84c7.69-24.16,26.48-88.99,97.27-77.45L602.83,195.68z"/>
				<g>
					<path class="st8" d="M719.71,439.94c0,0-13.73,0.55-12.03,18.37c1.69,17.82,6.34,31.72,19.01,97.15
						c5.64,29.12,13.33,56.29,8.54,71.63c-5.17,16.54-4.48,21.26-1.03,25.85c6.2,8.27,17.58-2.07,17.58-2.07s10.34,7.24,18.61-1.03
						c8.27-8.27-12.41-23.78-12.41-26.88c0-3.1-25.85-167.5-25.85-167.5S739.36,440.97,719.71,439.94z"/>
					<path class="st8" d="M750.73,657.07c0,0-7.24,8.27-14.48,7.24c-7.24-1.03-10.34,4.14-3.1,26.88
						c7.24,22.75,43.43,157.16,41.36,172.67c0,0,11.37,6.2,13.44,1.03c2.07-5.17-39.29-160.26-37.22-173.7
						C752.8,677.74,764.17,666.37,750.73,657.07z"/>
					<path class="st8" d="M759,659.13c0,0,7.24,7.24,4.14,16.54s-2.07,15.51-2.07,23.78c0,8.27,28.95,158.19,28.95,162.33
						c0,4.14,8.27,5.17,8.27,5.17s-16.54-168.53-20.68-185.07c-4.14-16.54-7.24-25.85-7.24-25.85S763.14,660.17,759,659.13z"/>
				</g>
				<g>
					<path class="st8" d="M463.53,433.74c0,0,13.73,0.55,12.03,18.37s-6.34,31.72-19.01,97.15c-5.64,29.12-13.33,56.29-8.54,71.63
						c5.17,16.54,4.48,21.26,1.03,25.85c-6.2,8.27-17.58-2.07-17.58-2.07s-10.34,7.24-18.61-1.03
						c-8.27-8.27,12.41-23.78,12.41-26.88c0-3.1,25.85-167.5,25.85-167.5S443.88,434.77,463.53,433.74z"/>
					<path class="st8" d="M432.51,650.86c0,0,7.24,8.27,14.47,7.24c7.24-1.03,10.34,4.14,3.1,26.88
						c-7.24,22.75-43.43,157.16-41.36,172.67c0,0-11.37,6.2-13.44,1.03c-2.07-5.17,39.29-160.26,37.22-173.7
						C430.44,671.54,419.07,660.17,432.51,650.86z"/>
					<path class="st8" d="M424.24,652.93c0,0-7.24,7.24-4.14,16.54c3.1,9.31,2.07,15.51,2.07,23.78
						c0,8.27-28.95,158.19-28.95,162.33c0,4.14-8.27,5.17-8.27,5.17s16.54-168.53,20.68-185.07c4.14-16.54,7.24-25.85,7.24-25.85
						S420.1,653.96,424.24,652.93z"/>
				</g>
			</g>
		</g>
		<g>
			<path class="st9" d="M547.05,434.77c0,0-34.12,12.41-46.53,82.71c-12.41,70.31-19.64,140.61-7.24,155.09
				c12.41,14.48,58.93,17.58,71.34,1.03c12.41-16.54,17.58-127.17,17.58-140.61S580.13,422.36,547.05,434.77z"/>
			<path class="st9" d="M643.1,434.77c0,0,34.12,12.41,46.53,82.71c12.41,70.31,19.64,140.61,7.24,155.09
				c-12.41,14.48-58.93,17.58-71.34,1.03c-12.41-16.54-17.58-127.17-17.58-140.61S610.02,422.36,643.1,434.77z"/>
			<g>
				<path class="st8" d="M676.6,695.86c-1.58,0-3.11-0.27-4.59-0.81c-7.64-2.77-13.27-12.38-18.8-32.15
					c-4.1-14.64-12.87-25.69-22.15-37.39c-6.47-8.16-13.17-16.6-18-26.27c-11.54-23.09-2.71-160.86-2.33-166.71l0.08-0.46
					c1.19-4.61,3.94-8.14,8.16-10.51c12.54-7.03,36.22-2.11,53.88,3.26c12.38,3.76,21.55,14.02,23.93,26.77
					c5.25,28.1,14.07,79.52,14.07,108.28c0,11.91-0.61,116.76-21.76,131.3C684.52,694.31,680.4,695.86,676.6,695.86z M615.7,433.11
					c-0.43,6.68-8.9,142.45,1.82,163.9c4.6,9.21,11.13,17.44,17.45,25.39c9.18,11.58,18.68,23.54,23.05,39.15
					c4.98,17.79,9.82,26.66,15.69,28.79c3.41,1.24,7.51,0.16,12.54-3.3c12.86-8.84,19.59-70.67,19.59-127.18
					c0-28.35-8.76-79.43-13.98-107.36c-2.04-10.91-9.88-19.69-20.47-22.91c-23.65-7.19-41.41-8.5-49.98-3.68
					C618.44,427.59,616.58,429.94,615.7,433.11z"/>
			</g>
			<g>
				<path class="st8" d="M516.27,693.79c-3.8,0-7.93-1.55-12.48-4.68c-21.15-14.54-21.76-119.39-21.76-131.3
					c0-28.75,8.81-80.18,14.07-108.28c2.38-12.75,11.56-23.01,23.93-26.77c17.66-5.37,41.35-10.29,53.88-3.26
					c4.22,2.37,6.97,5.9,8.16,10.51l0.07,0.46c0.38,5.85,9.22,143.62-2.33,166.71c-4.83,9.67-11.53,18.11-18,26.27
					c-9.28,11.7-18.05,22.75-22.15,37.39c-5.53,19.76-11.16,29.37-18.8,32.15C519.38,693.52,517.86,693.79,516.27,693.79z
					 M557.15,421.01c-9.26,0-21.39,2.2-35.67,6.54c-10.59,3.22-18.43,12-20.47,22.91c-5.22,27.93-13.98,79.01-13.98,107.36
					c0,56.51,6.73,118.34,19.6,127.18c5.02,3.46,9.13,4.53,12.54,3.3c5.87-2.13,10.71-11.01,15.69-28.79
					c4.37-15.61,13.87-27.58,23.05-39.15c6.31-7.96,12.84-16.19,17.45-25.4c10.73-21.46,2.25-157.22,1.82-163.9
					c-0.88-3.17-2.75-5.52-5.71-7.18C568.06,421.95,563.22,421.01,557.15,421.01z"/>
			</g>
			<g>
				<path class="st8" d="M616.84,834.9h-41.36c-7.14,0-12.92-5.79-12.92-12.92l0,0c0-7.14,5.79-12.92,12.92-12.92h41.36
					c7.14,0,12.92,5.79,12.92,12.92l0,0C629.76,829.12,623.98,834.9,616.84,834.9z"/>
				<path class="st8" d="M611.25,805.95h-28.12c-4.85,0-8.79-3.93-8.79-8.79l0,0c0-4.85,3.93-8.79,8.79-8.79h28.12
					c4.85,0,8.79,3.93,8.79,8.79l0,0C620.04,802.02,616.11,805.95,611.25,805.95z"/>
				<path class="st8" d="M609.6,783.21h-24.81c-4.28,0-7.75-3.47-7.75-7.75l0,0c0-4.28,3.47-7.75,7.75-7.75h24.81
					c4.28,0,7.75,3.47,7.75,7.75l0,0C617.35,779.73,613.88,783.21,609.6,783.21z"/>
				<path class="st8" d="M609.6,763.56h-24.81c-4.28,0-7.75-3.47-7.75-7.75l0,0c0-4.28,3.47-7.75,7.75-7.75h24.81
					c4.28,0,7.75,3.47,7.75,7.75l0,0C617.35,760.09,613.88,763.56,609.6,763.56z"/>
				<path class="st8" d="M609.6,743.92h-24.81c-4.28,0-7.75-3.47-7.75-7.75l0,0c0-4.28,3.47-7.75,7.75-7.75h24.81
					c4.28,0,7.75,3.47,7.75,7.75l0,0C617.35,740.44,613.88,743.92,609.6,743.92z"/>
				<path class="st8" d="M609.6,724.27h-24.81c-4.28,0-7.75-3.47-7.75-7.75l0,0c0-4.28,3.47-7.75,7.75-7.75h24.81
					c4.28,0,7.75,3.47,7.75,7.75l0,0C617.35,720.8,613.88,724.27,609.6,724.27z"/>
				<path class="st8" d="M609.6,704.63h-24.81c-4.28,0-7.75-3.47-7.75-7.75l0,0c0-4.28,3.47-7.75,7.75-7.75h24.81
					c4.28,0,7.75,3.47,7.75,7.75l0,0C617.35,701.15,613.88,704.63,609.6,704.63z"/>
				<path class="st8" d="M610.84,684.98h-27.3c-3.6,0-6.51-2.91-6.51-6.51v-2.49c0-3.6,2.91-6.51,6.51-6.51h27.3
					c3.6,0,6.51,2.91,6.51,6.51v2.49C617.35,682.07,614.44,684.98,610.84,684.98z"/>
				<path class="st8" d="M609.6,665.34h-24.81c-4.28,0-7.75-3.47-7.75-7.75l0,0c0-4.28,3.47-7.75,7.75-7.75h24.81
					c4.28,0,7.75,3.47,7.75,7.75l0,0C617.35,661.87,613.88,665.34,609.6,665.34z"/>
				<path class="st8" d="M612.14,645.69h-29.9c-2.88,0-5.21-2.33-5.21-5.21v-5.08c0-2.88,2.33-5.21,5.21-5.21h29.9
					c2.88,0,5.21,2.33,5.21,5.21v5.08C617.35,643.36,615.02,645.69,612.14,645.69z"/>
				<path class="st8" d="M612.6,626.05h-30.81c-2.63,0-4.76-2.13-4.76-4.76v-6c0-2.63,2.13-4.76,4.76-4.76h30.81
					c2.63,0,4.76,2.13,4.76,4.76v6C617.35,623.92,615.23,626.05,612.6,626.05z"/>
			</g>
			<path class="st8" d="M596.96,601.86l-15.2-21.07l-1.58-144.93l32.01-0.07l-1.03,147.85l-10.84,18.06
				C599.57,602.96,597.8,603.03,596.96,601.86z"/>
			<g>
				<path class="st8" d="M568.93,520.64c-51.26,0-77.36-19.04-78.5-19.89l3.59-4.81l-1.8,2.4l1.79-2.41
					c0.28,0.21,28.51,20.66,82.9,18.55l0.23,6C574.34,520.59,571.6,520.64,568.93,520.64z"/>
			</g>
			<g>
				<path class="st8" d="M575.28,466.06c-51.76,0-73.4-18.32-74.35-19.14l4.08-4.68l-2.04,2.34l2.03-2.35
					c0.23,0.2,23.41,19.57,78.71,17.46l0.23,6.2C580.96,466.01,578.07,466.06,575.28,466.06z"/>
				<path class="st8" d="M576,491.8c-52.33,0-78.98-19.04-80.14-19.9l3.66-5.01c0.28,0.21,29.1,20.66,84.64,18.55l0.23,6.2
					C581.52,491.74,578.73,491.8,576,491.8z"/>
				<path class="st8" d="M570.72,520.75c-52.33,0-78.98-19.04-80.14-19.9l3.66-5.01c0.28,0.21,31.39,20.66,86.93,18.54l1.03,5.17
					C579.34,519.66,573.45,520.75,570.72,520.75z"/>
				<path class="st8" d="M515.85,665.9c-14.18,0-24.06-7.73-24.21-7.85l3.23-4.04c0.81,0.64,20.07,15.54,42.97-0.87l3.01,4.2
					C531.87,663.78,523.27,665.9,515.85,665.9z"/>
				<path class="st8" d="M521.33,643.51c-18.09,0-33.05-6.87-34.01-7.32l2.19-4.68c0.34,0.16,34.22,15.66,60.11-0.92l2.79,4.35
					C542.32,641.41,531.34,643.51,521.33,643.51z"/>
				<path class="st8" d="M526.48,621.29c-22.81,0-39.64-7.54-40.76-8.05l2.16-4.7c0.42,0.19,42.46,18.95,82.99-3.87l2.54,4.5
					C557.01,618.4,540.59,621.29,526.48,621.29z"/>
				<path class="st8" d="M533.36,596.35c-8.03,0-15.23-0.92-21.25-2.14c-18.05-3.67-29.52-10.63-30-10.93l2.71-4.4c0,0,0,0,0,0l0,0
					c0.56,0.34,44.88,26.76,94.57,0.94l2.38,4.59C564.28,593.48,547.53,596.35,533.36,596.35z"/>
				<path class="st8" d="M523.26,572.76c-21.33,0-38.21-4.17-39.52-4.51l1.27-5.01c0.59,0.15,59.62,14.7,96.19-11.16l2.98,4.22
					C565.81,569.29,542.69,572.76,523.26,572.76z"/>
				<path class="st8" d="M534.56,549.05c-7.39,0-13.93-0.78-19.41-1.84c-17.25-3.33-27.7-9.89-28.13-10.17l2.78-4.36l-1.39,2.18
					l1.39-2.18c0.4,0.25,40.58,25.04,92.08-0.14l2.27,4.64C565.63,546.24,548.58,549.05,534.56,549.05z"/>
			</g>
			<g>
				<path class="st8" d="M619.42,466.06c51.76,0,73.4-18.32,74.35-19.14l-4.08-4.68l2.04,2.34l-2.03-2.35
					c-0.23,0.2-23.41,19.57-78.71,17.46l-0.23,6.2C613.74,466.01,616.63,466.06,619.42,466.06z"/>
				<path class="st8" d="M618.7,491.8c52.33,0,78.98-19.04,80.14-19.9l-3.66-5.01c-0.28,0.21-29.1,20.66-84.64,18.55l-0.23,6.2
					C613.18,491.74,615.97,491.8,618.7,491.8z"/>
				<path class="st8" d="M623.98,520.75c52.33,0,78.98-19.04,80.14-19.9l-3.66-5.01c-0.28,0.21-34.81,20.66-90.34,18.54v6.2
					C612.98,520.7,621.25,520.75,623.98,520.75z"/>
				<path class="st8" d="M678.85,665.9c14.18,0,24.06-7.73,24.21-7.85l-3.23-4.04c-0.81,0.64-24.41,14.3-47.32-2.12l1.34,5.44
					C662.83,663.78,671.43,665.9,678.85,665.9z"/>
				<path class="st8" d="M673.37,643.51c18.09,0,29.87-1.51,30.83-1.96l0.99-10.04c-0.34,0.16-41.27,14.22-67.16-2.37l4.25,5.8
					C652.38,641.41,663.36,643.51,673.37,643.51z"/>
				<path class="st8" d="M668.22,621.29c22.81,0,39.64-7.54,40.76-8.05l-2.16-4.7c-0.42,0.19-47.91,16.55-88.44-6.27l2.91,6.9
					C637.69,618.4,654.11,621.29,668.22,621.29z"/>
				<path class="st8" d="M661.34,596.35c8.03,0,15.23-0.92,21.25-2.14c18.05-3.67,26.3-5.08,26.78-5.38l0.51-9.96c0,0,0,0,0,0l0,0
					c-0.56,0.34-51.12,25.44-100.8-0.38l3.85,5.91C630.41,593.48,647.17,596.35,661.34,596.35z"/>
				<path class="st8" d="M671.44,572.76c21.33,0,38.21-4.17,39.52-4.51l-1.27-5.01c-0.59,0.15-59.62,14.7-96.19-11.16l-2.98,4.22
					C628.89,569.29,652.01,572.76,671.44,572.76z"/>
				<path class="st8" d="M660.14,549.05c7.39,0,13.93-0.78,19.41-1.84c17.25-3.33,27.7-9.89,28.13-10.17l-2.78-4.36l1.39,2.18
					l-1.39-2.18c-0.4,0.25-40.58,25.04-92.08-0.14l-2.27,4.64C629.07,546.24,646.12,549.05,660.14,549.05z"/>
			</g>
		</g>
		<g>
			<rect x="544.93" y="403.97" class="st5" width="272.68" height="1"/>
		</g>
		<rect x="475.49" y="900.81" class="st10" width="313.53" height="7.15"/>
		<rect x="263.57" y="554.59" class="st11" width="56.68" height="151.66"/>
		<g>
			<polygon class="st0" points="320.75,706.75 293.19,706.75 293.19,705.75 319.75,705.75 319.75,555.09 293.19,555.09 
				293.19,554.09 320.75,554.09 			"/>
		</g>
		<rect x="269.19" y="562.77" class="st4" width="45.96" height="9.19"/>
		
			<ellipse transform="matrix(0.1611 -0.9869 0.9869 0.1611 -416.1851 853.0451)" class="st2" cx="293.7" cy="671.34" rx="18.38" ry="18.38"/>
		<circle class="st4" cx="293.7" cy="622" r="18.38"/>
		<rect x="271.23" y="581.15" class="st12" width="40.85" height="13.28"/>
		<g>
			<rect x="356.44" y="87.36" class="st13" width="23.18" height="299.85"/>
			<rect x="788.44" y="87.36" class="st13" width="23.18" height="299.85"/>
			<rect x="78.29" y="58.72" class="st13" width="977.28" height="30.64"/>
			<rect x="92.75" y="65.91" class="st4" width="952.71" height="13.79"/>
			<rect x="346.3" y="234.42" class="st14" width="39.83" height="114.89"/>
			<rect x="779.83" y="234.42" class="st14" width="39.83" height="114.89"/>
			<rect x="375.4" y="241.32" class="st4" width="6.13" height="98.81"/>
			<rect x="805.1" y="241.32" class="st4" width="6.13" height="98.81"/>
		</g>
	</g>
</g>
</svg>
