<?xml version="1.0" encoding="utf-8"?>
<!-- Generator: Adobe Illustrator 26.0.3, SVG Export Plug-In . SVG Version: 6.00 Build 0)  -->
<svg version="1.1" id="Layer_1" xmlns="http://www.w3.org/2000/svg" xmlns:xlink="http://www.w3.org/1999/xlink" x="0px" y="0px"
	 viewBox="0 0 1133.86 1133.86" style="enable-background:new 0 0 1133.86 1133.86;" xml:space="preserve">
<style type="text/css">
	.st0{fill:#AF7A46;}
	.st1{fill:#875426;}
	.st2{fill:#C19063;}
	.st3{fill:#ED1B3A;}
	.st4{fill:#F44063;}
	.st5{fill:#EF5518;}
	.st6{fill:#ED701B;}
	.st7{fill:#EACA0F;}
	.st8{fill:#F4DB2A;}
	.st9{fill:#8ECC37;}
	.st10{fill:#ADDB4B;}
	.st11{fill:#3DB0D8;}
	.st12{fill:#4BC0E0;}
	.st13{fill:#3145BC;}
	.st14{fill:#3E59CC;}
	.st15{fill:#8F3DC4;}
	.st16{fill:#9F50DD;}
	.st17{fill:#D66ED6;}
	.st18{fill:#E288E2;}
	.st19{opacity:0.3;fill:#040018;}
	.st20{fill:#FFFFFF;}
	.st21{fill:#C61033;}
	.st22{fill:#9B021F;}
</style>
<g>
	<path class="st0" d="M1011.53,278.49l-0.02,40.02L92.09,268.72c0,0-0.03-17.78-0.06-26.67c-0.01-4.71-0.04-14.14-0.04-14.14
		L1011.53,278.49z"/>
	<g>
		<polygon class="st1" points="547.18,252.95 492.06,249.91 492.06,290.38 547.18,293.37 		"/>
		<polygon class="st1" points="322.31,240.58 267.19,237.55 267.19,278.2 322.31,281.19 		"/>
		<path class="st1" d="M102.22,228.47l-10.23-0.56c0,0,0.03,9.43,0.04,14.14c0.02,8.89,0.06,26.67,0.06,26.67l10.13,0.55V228.47z"/>
		<polygon class="st1" points="209.28,234.36 154.17,231.33 154.17,272.08 209.28,275.07 		"/>
		<polygon class="st1" points="433.85,246.71 378.73,243.68 378.73,284.24 433.85,287.23 		"/>
		<polygon class="st1" points="883.58,271.45 828.46,268.42 828.46,308.6 883.58,311.58 		"/>
		<polygon class="st1" points="998.1,277.75 942.98,274.72 942.98,314.8 998.1,317.78 		"/>
		<polygon class="st1" points="772.04,265.31 716.92,262.28 716.92,302.56 772.04,305.54 		"/>
		<polygon class="st1" points="660.5,259.18 605.38,256.15 605.38,296.52 660.5,299.5 		"/>
	</g>
	<polygon class="st0" points="91.89,615.5 92.13,572.66 1011.91,522.27 1012.09,563 	"/>
	<g>
		<polygon class="st1" points="322.31,560.05 267.19,563.07 267.19,605.5 322.31,602.35 		"/>
		<polygon class="st1" points="91.89,615.5 102.22,614.91 102.22,572.11 92.13,572.66 		"/>
		<polygon class="st1" points="433.85,553.94 378.73,556.96 378.73,599.13 433.85,595.99 		"/>
		<polygon class="st1" points="209.28,566.24 154.17,569.26 154.17,611.94 209.28,608.8 		"/>
		<polygon class="st1" points="883.58,529.3 828.46,532.32 828.46,573.48 883.58,570.33 		"/>
		<polygon class="st1" points="998.1,523.03 942.98,526.05 942.98,566.95 998.1,563.8 		"/>
		<polygon class="st1" points="772.04,535.41 716.92,538.43 716.92,579.84 772.04,576.7 		"/>
		<polygon class="st1" points="660.5,541.52 605.38,544.54 605.38,586.2 660.5,583.06 		"/>
		<polygon class="st1" points="547.18,547.73 492.06,550.75 492.06,592.67 547.18,589.52 		"/>
	</g>
	<path class="st2" d="M1015.4,596.78c0.14-23.49,0.27-46.98,0.35-70.46c0.17-50.28,0.34-100.56,0.37-150.84
		c0.03-42.96-0.02-85.92-0.09-128.88c6.57-0.03,13.13-0.07,19.7-0.1c7.51-0.04,12.75-0.09,20.26-0.14
		c-0.21,37.26,1.79,74.51,1.7,111.77c-0.12,50.28-0.22,100.56-0.25,150.84c-0.02,29.25-2.44,58.51-2.46,87.77
		C1041.03,596.74,1029.35,596.76,1015.4,596.78z"/>
	<path class="st2" d="M48.33,648.98c0.14-35.67-0.06-71.35-0.08-107.01c-0.02-52.29,0.05-104.57-0.08-156.86
		c-0.12-48.48-0.26-96.96-0.65-145.44c-0.13-16.4-0.24-32.81-0.43-49.23l40.39,1.37c-0.03,11.89-0.07,23.78-0.1,35.66
		c-0.13,46.25-0.16,92.5-0.17,138.76c-0.01,52.15-0.02,104.3-0.03,156.45c-0.01,42,0.17,83.99,0.6,125.99L48.33,648.98z"/>
	<path d="M1060.44,596.73c-0.02-23.47-0.73-307.35-0.95-350.4c-0.01-1.13-0.01-2.25-0.02-3.38c-1.16-0.01-2.31-0.02-3.47-0.03
		c-2.07-0.01-4.14-0.03-6.21-0.05c-12.02-0.06-21.75-0.16-33.77-0.23c-1.48-0.01-2.95-0.01-4.43-0.02c0,1.33-0.01,2.66-0.01,3.99
		c-0.03,8.92-0.06,26.75-0.06,26.75L91.98,222.43c0,0-0.06-20.31-0.08-30.46c0-1.19-0.01-2.39-0.01-3.58h-4.38H47.08h-3.27
		c-0.01,0.65-0.02,1.3-0.02,1.95c-0.15,11.39-0.26,22.78-0.38,34.17c-0.47,47.37-0.6,94.75-0.72,142.12
		c-0.13,52.29-0.11,104.57-0.13,156.86c-0.01,41.85-0.1,83.69,0.01,125.54c0,1.57,0.01,3.14,0.01,4.71l5.72,0.08l39.55,0.57
		l3.68,0.05c0.02-1.94,0.04-3.87,0.06-5.81c0.1-9.89,0.27-29.68,0.27-29.68l920.26-49.22c0,0,0.09,18.03,0.15,27.05
		c0.01,2.01,0.02,4.03,0.03,6.04c1.02,0,2.04,0,3.06,0.01c11.85,0.02,21.43,0.04,33.28,0.04c2.11,0,4.23,0,6.34,0.01
		c1.82,0,3.64,0,5.46,0C1060.44,600.83,1060.44,598.78,1060.44,596.73z M48.33,648.98c0.14-35.67-0.06-71.35-0.08-107.01
		c-0.02-52.29,0.05-104.57-0.08-156.86c-0.12-48.48-0.26-96.96-0.65-145.44c-0.13-16.4-0.24-32.81-0.43-49.23l40.39,1.37
		c-0.03,11.89-0.07,23.78-0.1,35.66c-0.13,46.25-0.16,92.5-0.17,138.76c-0.01,52.15-0.02,104.3-0.03,156.45
		c-0.01,42,0.17,83.99,0.6,125.99L48.33,648.98z M92.16,384.57C92.16,347.25,92.1,272.6,92.1,272.6l919.41,51.86
		c0,0,0.01,22.44,0.02,33.66c0.03,50.28,0.16,100.56,0.33,150.84c0.01,2.62,0.03,7.86,0.03,7.86L92.15,568.08
		c0,0,0.04-18.04,0.04-27.07C92.18,488.87,92.17,436.72,92.16,384.57z M1011.53,278.49l-0.02,40.02L92.09,268.72
		c0,0-0.03-17.78-0.06-26.67c-0.01-4.71-0.04-14.14-0.04-14.14L1011.53,278.49z M91.89,615.5l0.24-42.84l919.78-50.39l0.18,40.73
		L91.89,615.5z M1054.98,596.73c-13.95,0-25.63,0.02-39.58,0.05c0.14-23.49,0.27-46.98,0.35-70.46
		c0.17-50.28,0.34-100.56,0.37-150.84c0.03-42.96-0.02-85.92-0.09-128.88c6.57-0.03,13.13-0.07,19.7-0.1
		c7.51-0.04,12.75-0.09,20.26-0.14C1055.77,283.61,1055,567.48,1054.98,596.73z"/>
	<path class="st3" d="M161.19,649.15c-14.2,0.03-28.41,0.03-42.62,0.06c0.11-11.87,0.2-23.74,0.22-35.62
		c0.08-37.51,0.07-75.02,0.1-112.53c0.03-38.59,0.08-77.17,0.05-115.76c-0.02-37.8-0.05-75.59-0.07-113.39
		c-0.02-26.51,0.21-53.05-0.05-79.57c8.18,0.01,16.37,0.01,24.55,0.02c18.25,0.01,36.5,0.02,54.75,0.04
		c-0.02,3.14-0.03,6.28-0.05,9.42c-0.13,17.07-0.07,34.15-0.09,51.22c-0.04,38.2-0.09,76.4-0.1,114.6
		c-0.01,40.38-0.02,80.76-0.03,121.14c-0.01,38.69-0.02,77.38-0.03,116.07c0,14.74-0.01,29.48,0.05,44.21
		C185.65,649.09,173.42,649.12,161.19,649.15z"/>
	<rect x="114.31" y="188.38" class="st4" width="44.05" height="466.07"/>
	<path d="M202.07,504.06c-0.01-40.38-0.02-80.76-0.03-121.14c-0.01-38.69-0.05-77.38-0.09-116.07c-0.02-17.64-0.04-35.29-0.05-52.93
		c-0.01-7.15,0.06-14.33,0.05-21.5c0-1.36-0.01-2.72-0.02-4.08c-1.26,0-2.52,0-3.78,0c-11.97,0.01-23.93,0.02-35.9,0.02
		c-14.49,0.01-28.98,0.02-43.47,0.03c-1.49,0-2.98,0-4.47,0c0,1.32,0,2.64,0.01,3.97c0.01,4.43,0.02,8.85-0.01,13.27
		c-0.11,17.49-0.09,34.98-0.1,52.48c-0.02,37.51-0.05,75.02-0.07,112.53c-0.02,38.59,0.01,77.17,0.03,115.76
		c0.03,37.8,0.06,75.59,0.08,113.39c0.01,16.48,0.1,32.97,0.24,49.45c0.02,1.85,0.04,3.71,0.05,5.56c1.33,0,2.65,0.01,3.98,0.01
		c9.88,0.03,19.76,0.05,29.65,0.07c16.58,0.04,33.16,0.09,49.75,0.13c1.35,0,2.71,0.01,4.06,0.01c0.02-1.98,0.03-3.97,0.04-5.95
		c0.06-10.13,0.09-20.26,0.09-30.4C202.09,580.45,202.08,542.26,202.07,504.06z M161.19,649.15c-14.2,0.03-28.41,0.03-42.62,0.06
		c0.11-11.87,0.2-23.74,0.22-35.62c0.08-37.51,0.07-75.02,0.1-112.53c0.03-38.59,0.08-77.17,0.05-115.76
		c-0.02-37.8-0.05-75.59-0.07-113.39c-0.02-26.51,0.21-53.05-0.05-79.57c8.18,0.01,16.37,0.01,24.55,0.02
		c18.25,0.01,36.5,0.02,54.75,0.04c-0.02,3.14-0.03,6.28-0.05,9.42c-0.13,17.07-0.07,34.15-0.09,51.22
		c-0.04,38.2-0.09,76.4-0.1,114.6c-0.01,40.38-0.02,80.76-0.03,121.14c-0.01,38.69-0.02,77.38-0.03,116.07
		c0,14.74-0.01,29.48,0.05,44.21C185.65,649.09,173.42,649.12,161.19,649.15z"/>
	<path class="st5" d="M266.52,645.13c-12.07,0.03-24.15,0.03-36.23,0.05c0-7.65-0.01-15.3-0.01-22.95
		c-0.01-38.83,0.05-77.66,0.09-116.49c0.04-41.5,0.07-82.99,0.05-124.49c-0.02-39.45-0.03-78.91-0.05-118.36
		c-0.01-21.24,0.12-42.52-0.15-63.78c11.43,0.01,22.86,0.01,34.28,0.02c15.72,0.01,31.44,0.02,47.17,0.03
		c-0.22,16.35-0.33,32.7-0.43,49.05c-0.24,38.96-0.17,77.92-0.22,116.89c-0.06,42.02-0.06,84.05-0.06,126.07
		c0,39.77,0.17,79.55,0.34,119.32c0.05,11.51,0.14,23.02,0.25,34.53C296.53,645.05,281.52,645.09,266.52,645.13z"/>
	<path class="st6" d="M271.01,199.13c-2.17,0-4.34,0-6.52,0c-11.43-0.01-22.86-0.01-34.28-0.02c0.28,21.26,0.14,42.54,0.15,63.78
		c0.02,39.45,0.03,78.91,0.05,118.36c0.02,41.5-0.01,82.99-0.05,124.49c-0.04,38.83-0.1,77.66-0.09,116.49
		c0,7.65,0.01,15.3,0.01,22.95c12.08-0.02,24.15-0.02,36.23-0.05c1.5,0,3-0.01,4.5-0.01V199.13z"/>
	<path d="M315.39,380.52c-0.05-39.77,0.07-79.55-0.16-119.32c-0.12-20.67-0.09-41.36-0.37-62.04c-0.02-1.39-0.04-2.78-0.06-4.17
		c-1.02,0-2.05,0-3.07,0c-9.2,0.01-18.4,0.01-27.6,0.02c-17.99,0.01-35.98,0.02-53.97,0.03c-1.05,0-2.1,0-3.15,0
		c-0.02,1.35-0.06,2.7-0.08,4.06c0,0.07,0,0.14,0,0.21c-0.21,16.72-0.16,33.44-0.23,50.15c-0.17,38.83-0.04,77.66-0.05,116.49
		c-0.02,41.5-0.01,82.99,0.03,124.49c0.04,39.45,0.12,78.91,0.11,118.36c0,12.12-0.05,24.25-0.07,36.38c0,1.86,0,3.73-0.01,5.59
		c1.19,0,2.38,0.01,3.58,0.01c7.73,0.02,15.47,0.03,23.2,0.05c19.37,0.05,38.74,0.1,58.11,0.15c1.04,0,2.09,0,3.13,0.01
		c0.03-1.99,0.06-3.99,0.09-5.98c0.1-7.18,0.18-14.36,0.21-21.54c0.17-38.96,0.4-77.92,0.4-116.89
		C315.43,464.57,315.45,422.54,315.39,380.52z M266.52,645.13c-12.07,0.03-24.15,0.03-36.23,0.05c0-7.65-0.01-15.3-0.01-22.95
		c-0.01-38.83,0.05-77.66,0.09-116.49c0.04-41.5,0.07-82.99,0.05-124.49c-0.02-39.45-0.03-78.91-0.05-118.36
		c-0.01-21.24,0.12-42.52-0.15-63.78c11.43,0.01,22.86,0.01,34.28,0.02c15.72,0.01,31.44,0.02,47.17,0.03
		c-0.22,16.35-0.33,32.7-0.43,49.05c-0.24,38.96-0.17,77.92-0.22,116.89c-0.06,42.02-0.06,84.05-0.06,126.07
		c0,39.77,0.17,79.55,0.34,119.32c0.05,11.51,0.14,23.02,0.25,34.53C296.53,645.05,281.52,645.09,266.52,645.13z"/>
	<path class="st7" d="M373.28,637.43c-9.93,0-19.87,0.01-29.8,0.02c0.05-4.28,0.1-8.57,0.12-12.85
		c0.23-39.23,0.27-78.46,0.27-117.69c0-42.32,0-84.65,0-126.97c0-39.79-0.05-79.59-0.11-119.38c-0.03-18.24-0.05-36.49-0.23-54.73
		c3.32,0,6.64,0,9.95,0.01c23.4,0.02,46.79,0.03,70.19,0.05c-0.13,14.34-0.19,28.68-0.27,43.02c-0.21,38.89-0.16,77.77-0.19,116.66
		c-0.04,41.8-0.06,83.61-0.07,125.41c0,39.52-0.01,79.04-0.01,118.56c0,9.34,0,18.68,0.01,28.02
		C406.53,637.45,389.91,637.43,373.28,637.43z"/>
	<path class="st8" d="M343.54,205.83c0.18,18.24,0.2,36.49,0.23,54.73c0.06,39.79,0.11,79.59,0.11,119.38c0,42.32,0,84.65,0,126.97
		c0,39.23-0.04,78.46-0.27,117.69c-0.03,4.28-0.07,8.57-0.12,12.85c9.93-0.01,19.87-0.02,29.8-0.02c3.4,0,6.8,0.01,10.2,0.01V205.86
		c-10-0.01-19.99-0.01-29.99-0.02C350.18,205.84,346.86,205.84,343.54,205.83z"/>
	<path d="M427.22,506.13c0-41.8-0.02-83.61-0.06-125.41c-0.03-39.52,0.09-79.04-0.13-118.56c-0.1-18.75-0.11-37.51-0.27-56.27
		c-0.01-1.4-0.02-2.8-0.03-4.2c-1,0-2.01,0-3.01,0c-16.87,0.01-33.73,0.02-50.6,0.03c-9.87,0.01-19.74,0.01-29.62,0.02
		c-1.25,0-2.51,0-3.76,0c-0.01,1.36-0.01,2.72-0.02,4.09c-0.05,13.77,0.06,27.54,0.04,41.25c-0.06,39.23-0.13,78.46-0.13,117.69
		c0,42.32,0,84.65,0,126.97c0,39.79-0.05,79.59,0.19,119.38c0.05,8.78,0.14,17.56,0.23,26.33c0.02,2.03,0.05,4.07,0.07,6.1
		c1.09,0,2.17,0,3.26,0c5.62,0.01,11.24,0.01,16.86,0.01c20.97,0,41.94,0.11,62.9-0.01c1.35-0.01,2.69-0.02,4.04-0.03
		c0.01-1.99,0.01-3.97,0.02-5.96c0.01-4.93,0.02-9.86,0.02-14.79C427.22,583.9,427.22,545.02,427.22,506.13z M373.28,637.43
		c-9.93,0-19.87,0.01-29.8,0.02c0.05-4.28,0.1-8.57,0.12-12.85c0.23-39.23,0.27-78.46,0.27-117.69c0-42.32,0-84.65,0-126.97
		c0-39.79-0.05-79.59-0.11-119.38c-0.03-18.24-0.05-36.49-0.23-54.73c3.32,0,6.64,0,9.95,0.01c23.4,0.02,46.79,0.03,70.19,0.05
		c-0.13,14.34-0.19,28.68-0.27,43.02c-0.21,38.89-0.16,77.77-0.19,116.66c-0.04,41.8-0.06,83.61-0.07,125.41
		c0,39.52-0.01,79.04-0.01,118.56c0,9.34,0,18.68,0.01,28.02C406.53,637.45,389.91,637.43,373.28,637.43z"/>
	<path class="st9" d="M475.92,630.39c-6.36,0-12.71,0.01-19.07,0.01c-0.01-2.89-0.02-5.78-0.03-8.67
		c-0.1-38.57-0.24-77.15-0.28-115.72c-0.05-41.66-0.1-83.32-0.15-124.98c-0.05-39.33-0.12-78.66-0.28-117.99
		c-0.07-16.84-0.1-33.7-0.27-50.55c5.57,0,11.13,0.01,16.7,0.01c21.04,0.01,42.07,0.03,63.11,0.04
		c-0.08,11.94-0.11,23.89-0.14,35.84c-0.07,39.04-0.09,78.08-0.08,117.12c0,41.88,0.01,83.75,0.01,125.63
		c0,39.55-0.1,79.1,0.01,118.64c0.02,6.94,0.04,13.87,0.06,20.81C515.66,630.4,495.79,630.39,475.92,630.39z"/>
	<path class="st10" d="M455.85,212.49c0.17,16.85,0.21,33.71,0.27,50.55c0.15,39.33,0.23,78.66,0.28,117.99
		c0.05,41.66,0.1,83.32,0.15,124.98c0.05,38.57,0.18,77.15,0.28,115.72c0.01,2.89,0.02,5.78,0.03,8.67
		c6.36-0.01,12.71-0.01,19.07-0.01c6.69,0,13.37,0,20.05,0.01V212.51c-7.81,0-15.62-0.01-23.42-0.02
		C466.98,212.5,461.41,212.49,455.85,212.49z"/>
	<path d="M540.13,506.19c0-41.88,0.01-83.75,0.01-125.63c0-39.55,0.02-79.1-0.06-118.64c-0.03-16.46,0.01-32.92-0.07-49.38
		c-0.01-1.36-0.02-2.73-0.03-4.09c-1.43,0-2.86,0-4.29,0c-14.76,0.01-29.51,0.02-44.27,0.03c-11.87,0.01-23.75,0.02-35.62,0.02
		c-0.88,0-1.75,0-2.63,0c-0.02,1.33-0.05,2.65-0.07,3.98c-0.22,12.49-0.4,24.98-0.45,37.47c-0.15,38.57-0.26,77.15-0.31,115.72
		c-0.05,41.66-0.1,83.32-0.15,124.98c-0.05,39.33-0.17,78.66-0.27,117.99c-0.02,7.25-0.03,14.5-0.03,21.75c0,2.04,0,4.08,0,6.12
		c1.66,0,3.31,0,4.97,0c2.01,0,4.01,0.01,6.02,0.01c24.22,0,48.44,0.15,72.65-0.08c1.49-0.01,2.98-0.04,4.47-0.05
		c0.01-1.93,0.02-3.85,0.03-5.78c0.01-2.44,0.02-4.87,0.03-7.31C540.22,584.28,540.13,545.23,540.13,506.19z M475.92,630.39
		c-6.36,0-12.71,0.01-19.07,0.01c-0.01-2.89-0.02-5.78-0.03-8.67c-0.1-38.57-0.24-77.15-0.28-115.72
		c-0.05-41.66-0.1-83.32-0.15-124.98c-0.05-39.33-0.12-78.66-0.28-117.99c-0.07-16.84-0.1-33.7-0.27-50.55
		c5.57,0,11.13,0.01,16.7,0.01c21.04,0.01,42.07,0.03,63.11,0.04c-0.08,11.94-0.11,23.89-0.14,35.84
		c-0.07,39.04-0.09,78.08-0.08,117.12c0,41.88,0.01,83.75,0.01,125.63c0,39.55-0.1,79.1,0.01,118.64
		c0.02,6.94,0.04,13.87,0.06,20.81C515.66,630.4,495.79,630.39,475.92,630.39z"/>
	<path class="st11" d="M617.59,623.57c-16.07,0-32.14,0.02-48.21,0.05c0-0.48,0.01-0.95,0.01-1.43
		c0.17-38.77,0.06-77.54,0.05-116.31c-0.01-41.58-0.02-83.16-0.03-124.74c-0.01-39.39-0.09-78.78-0.2-118.17
		c-0.04-14.37-0.04-28.75-0.12-43.12c20.75,0.01,41.49,0.03,62.24,0.04c5.62,0,11.23,0.01,16.85,0.01
		c-0.11,9.82-0.18,19.64-0.21,29.46c-0.11,38.69-0.21,77.38-0.24,116.07c-0.04,41.88-0.13,83.77-0.1,125.66
		c0.03,39.32-0.03,78.64,0.14,117.96c0.02,4.85,0.06,9.71,0.09,14.56C637.76,623.57,627.68,623.57,617.59,623.57z"/>
	<path class="st12" d="M569.38,623.62c12.96-0.02,25.92-0.04,38.88-0.04V219.87c-13.06-0.01-26.11-0.02-39.17-0.03
		c0.08,14.38,0.09,28.76,0.12,43.12c0.11,39.39,0.19,78.78,0.2,118.17c0.01,41.58,0.02,83.16,0.03,124.74
		c0.01,38.77,0.11,77.54-0.05,116.31C569.39,622.66,569.39,623.14,569.38,623.62z"/>
	<path d="M653.1,380.61c-0.03-39.32-0.1-78.64-0.22-117.96c-0.04-14.26-0.15-28.51-0.29-42.76c-0.01-1.34-0.02-2.69-0.04-4.03
		c-0.78,0-1.56,0-2.34,0c-0.66,0-1.32,0-1.99,0c-24.15,0.02-48.3,0.03-72.46,0.05c-2.23,0-4.46,0.01-6.69,0.01
		c-1.35,0-2.71,0-4.06,0.01c-0.01,1.3-0.02,2.61-0.03,3.91c-0.08,9.89-0.14,19.78-0.21,29.67c-0.27,38.77-0.23,77.54-0.24,116.31
		c-0.01,41.58-0.02,83.16-0.03,124.74c-0.01,39.39-0.17,78.78-0.01,118.17c0.02,4.97,0.06,9.93,0.1,14.9
		c0.02,2.01,0.03,4.02,0.05,6.03c1.57,0,3.13,0.01,4.7,0.01c11.74,0.02,23.48,0.04,35.22,0.04c14.44,0,28.88,0.05,43.32,0.05
		c1.68,0,3.37,0,5.05,0c0.01-2.05,0.03-4.09,0.04-6.14c0-0.42,0.01-0.85,0.01-1.27c0.16-38.69,0.15-77.38,0.18-116.07
		C653.21,464.38,653.13,422.5,653.1,380.61z M617.59,623.57c-16.07,0-32.14,0.02-48.21,0.05c0-0.48,0.01-0.95,0.01-1.43
		c0.17-38.77,0.06-77.54,0.05-116.31c-0.01-41.58-0.02-83.16-0.03-124.74c-0.01-39.39-0.09-78.78-0.2-118.17
		c-0.04-14.37-0.04-28.75-0.12-43.12c20.75,0.01,41.49,0.03,62.24,0.04c5.62,0,11.23,0.01,16.85,0.01
		c-0.11,9.82-0.18,19.64-0.21,29.46c-0.11,38.69-0.21,77.38-0.24,116.07c-0.04,41.88-0.13,83.77-0.1,125.66
		c0.03,39.32-0.03,78.64,0.14,117.96c0.02,4.85,0.06,9.71,0.09,14.56C637.76,623.57,627.68,623.57,617.59,623.57z"/>
	<path class="st13" d="M744.61,616.63c-20.65,0-41.29,0.03-61.94,0.08c-0.03-37.59-0.05-75.17-0.08-112.76
		c-0.03-40.53-0.06-81.06-0.08-121.59c-0.03-38.76-0.14-77.52-0.23-116.28c-0.03-12.93-0.07-25.86-0.16-38.78
		c3.69,0,7.38,0,11.06,0.01c22.36,0.01,44.71,0.03,67.07,0.04c-0.01,8.17,0,16.34-0.01,24.52c-0.03,38.37-0.05,76.74-0.08,115.11
		c-0.03,40.92,0.02,81.84,0.06,122.76c0.04,38.89,0.42,77.79,0.71,116.68c0.03,3.41,0.04,6.81,0.06,10.22
		C755.53,616.64,750.07,616.63,744.61,616.63z"/>
	<path class="st14" d="M720.74,227.33c-9.19-0.01-18.38-0.01-27.57-0.02c-3.69,0-7.38,0-11.06-0.01
		c0.09,12.93,0.13,25.85,0.16,38.78c0.09,38.76,0.2,77.52,0.23,116.28c0.03,40.53,0.06,81.06,0.08,121.59
		c0.03,37.59,0.05,75.17,0.08,112.76c12.69-0.03,25.38-0.05,38.08-0.06V227.33z"/>
	<path d="M765.88,381.95c-0.03-38.89-0.05-77.79-0.08-116.68c-0.01-12.64-0.03-25.27-0.06-37.91c0-1.4-0.01-2.8-0.01-4.2
		c-1.82,0-3.65,0-5.47,0c-15.82,0.01-31.63,0.02-47.45,0.03c-10.24,0.01-20.48,0.01-30.72,0.02c-1.65,0-3.31,0-4.96,0
		c-0.01,1.36-0.03,2.72-0.05,4.08c-0.08,8.54-0.13,17.08-0.15,25.62c-0.09,38.27-0.23,76.55-0.25,114.82
		c-0.03,40.53-0.06,81.06-0.08,121.59c-0.03,38.76-0.05,77.52-0.08,116.28c0,3.71,0,7.41,0,11.12c0,1.99,0,3.98,0,5.97
		c2.06,0,4.11,0.01,6.17,0.01c16.3,0.04,32.6,0.07,48.91,0.07c9.81,0,19.62,0.02,29.43,0.04c1.32,0,2.64,0,3.97,0.01
		c0.01-1,0.01-2,0.02-3c0.01-1.06,0.01-2.12,0.02-3.17c0.27-37.31,0.53-74.62,0.74-111.94
		C765.98,463.79,765.91,422.87,765.88,381.95z M744.61,616.63c-20.65,0-41.29,0.03-61.94,0.08c-0.03-37.59-0.05-75.17-0.08-112.76
		c-0.03-40.53-0.06-81.06-0.08-121.59c-0.03-38.76-0.14-77.52-0.23-116.28c-0.03-12.93-0.07-25.86-0.16-38.78
		c3.69,0,7.38,0,11.06,0.01c22.36,0.01,44.71,0.03,67.07,0.04c-0.01,8.17,0,16.34-0.01,24.52c-0.03,38.37-0.05,76.74-0.08,115.11
		c-0.03,40.92,0.02,81.84,0.06,122.76c0.04,38.89,0.42,77.79,0.71,116.68c0.03,3.41,0.04,6.81,0.06,10.22
		C755.53,616.64,750.07,616.63,744.61,616.63z"/>
	<path class="st15" d="M860,609.7c-21.93,0-43.87,0.04-65.8,0.09c0.26-34.62,0.31-69.24,0.53-103.86
		c0.26-41.65,0.39-83.3,0.43-124.95c0.04-39.56,0.09-79.11,0.01-118.67c-0.02-9.43,0-18.87,0-28.32
		c23.91,0.02,47.82,0.03,71.74,0.05c2.21,0,4.42,0,6.63-0.01c0.01,5.74,0.01,11.47,0,17.21c-0.07,38.55-0.12,77.09-0.21,115.64
		c-0.09,41.06-0.25,82.12-0.25,123.18c0,39.09-0.01,78.18-0.01,117.26c0,0.8,0,1.59,0,2.39C868.7,609.7,864.35,609.7,860,609.7z"/>
	<path class="st16" d="M833.26,234.02c-12.7-0.01-25.39-0.02-38.09-0.02c0,9.45-0.02,18.89,0,28.32
		c0.08,39.56,0.03,79.11-0.01,118.67c-0.04,41.65-0.17,83.3-0.43,124.95c-0.22,34.62-0.27,69.24-0.53,103.86
		c13.02-0.03,26.04-0.05,39.06-0.07V234.02z"/>
	<path d="M878.18,609.71c0-34.96-0.01-69.93-0.01-104.89c-0.01-41.06-0.13-82.12-0.22-123.18c-0.09-39.09-0.15-78.18-0.22-117.26
		c-0.02-10.11,0.03-20.23,0.07-30.35c0.01-1.4,0.01-2.8,0.02-4.21c-1.43,0-2.86,0-4.29,0c-22.28,0.01-44.56,0.03-66.84,0.04
		c-3.84,0-7.68,0-11.52,0.01c-1.94,0-3.89,0-5.83,0c-0.01,1.37-0.02,2.74-0.03,4.11c-0.03,5-0.05,9.99-0.06,14.99
		c-0.08,38.93-0.07,77.85-0.03,116.78c0.04,41.65,0.09,83.3,0.35,124.95c0.25,39.56,0.22,79.12,0.6,118.67c0,0.14,0,0.28,0,0.42
		c0.02,1.99,0.04,3.97,0.06,5.96c1.31,0,2.62,0.01,3.93,0.01c17.61,0.04,35.21,0.07,52.82,0.07c8.69,0,17.39,0.02,26.08,0.03
		c1.71,0,3.42,0,5.13,0.01C878.18,613.83,878.18,611.77,878.18,609.71z M860,609.7c-21.93,0-43.87,0.04-65.8,0.09
		c0.26-34.62,0.31-69.24,0.53-103.86c0.26-41.65,0.39-83.3,0.43-124.95c0.04-39.56,0.09-79.11,0.01-118.67
		c-0.02-9.43,0-18.87,0-28.32c23.91,0.02,47.82,0.03,71.74,0.05c2.21,0,4.42,0,6.63-0.01c0.01,5.74,0.01,11.47,0,17.21
		c-0.07,38.55-0.12,77.09-0.21,115.64c-0.09,41.06-0.25,82.12-0.25,123.18c0,39.09-0.01,78.18-0.01,117.26c0,0.8,0,1.59,0,2.39
		C868.7,609.7,864.35,609.7,860,609.7z"/>
	<path class="st17" d="M976.84,602.77c-22.99,0-45.98,0.04-68.97,0.1c-0.02-32.97-0.04-65.94-0.07-98.91
		c-0.03-40.53-0.06-81.06-0.08-121.59c-0.03-38.76-0.14-77.52-0.23-116.28c-0.02-8.42-0.05-16.84-0.08-25.26
		c9.79-0.04,19.57-0.09,29.36-0.15c16.23-0.09,32.45-0.21,48.68-0.34c0,3.84,0,7.69,0,11.53c-0.03,38.37-0.05,76.74-0.08,115.11
		c-0.03,40.92,0.02,81.84,0.06,122.76c0.04,37.67,0.4,75.35,0.68,113.03C983.03,602.77,979.93,602.77,976.84,602.77z"/>
	<path class="st18" d="M945.77,240.62c-3,0.02-6,0.04-8.99,0.06c-9.79,0.05-19.57,0.1-29.36,0.15c0.04,8.42,0.06,16.84,0.08,25.26
		c0.09,38.76,0.2,77.52,0.23,116.28c0.03,40.53,0.06,81.06,0.08,121.59c0.02,32.97,0.04,65.94,0.07,98.91
		c12.63-0.03,25.26-0.05,37.89-0.07V240.62z"/>
	<path d="M991.1,381.95c-0.03-38.89-0.05-77.79-0.08-116.68c-0.01-8.32-0.01-16.65-0.02-24.97c0-0.98-0.01-1.96-0.01-2.94
		c-1.84-0.02-3.69-0.03-5.53-0.05c-10.78-0.1-21.56-0.18-32.34-0.24c-15.24-0.08-30.49-0.2-45.73-0.28
		c-1.72-0.01-3.44-0.02-5.16-0.03c-0.01,1.36-0.02,2.73-0.02,4.09c-0.02,4.02-0.06,8.05-0.07,12.07
		c-0.09,38.27-0.23,76.55-0.25,114.82c-0.03,40.53-0.06,81.06-0.08,121.59c-0.03,37.85-0.05,75.7-0.08,113.56c0,0.91,0,1.82,0,2.73
		c0,1.07,0,2.14,0,3.21c2.05,0.01,4.1,0.01,6.16,0.02c18.64,0.05,37.29,0.08,55.93,0.08c7.45,0,14.9,0.01,22.35,0.03
		c1.38,0,2.76,0,4.13,0.01c0.02-2.06,0.03-4.11,0.04-6.17c0.23-32.69,0.46-65.38,0.64-98.06
		C991.2,463.79,991.12,422.87,991.1,381.95z M976.84,602.77c-22.99,0-45.98,0.04-68.97,0.1c-0.02-32.97-0.04-65.94-0.07-98.91
		c-0.03-40.53-0.06-81.06-0.08-121.59c-0.03-38.76-0.14-77.52-0.23-116.28c-0.02-8.42-0.05-16.84-0.08-25.26
		c9.79-0.04,19.57-0.09,29.36-0.15c16.23-0.09,32.45-0.21,48.68-0.34c0,3.84,0,7.69,0,11.53c-0.03,38.37-0.05,76.74-0.08,115.11
		c-0.03,40.92,0.02,81.84,0.06,122.76c0.04,37.67,0.4,75.35,0.68,113.03C983.03,602.77,979.93,602.77,976.84,602.77z"/>
	
		<ellipse transform="matrix(0.3872 -0.922 0.922 0.3872 -446.7349 509.1729)" class="st19" cx="159.68" cy="590.66" rx="18.2" ry="18.2"/>
	
		<ellipse transform="matrix(0.3827 -0.9239 0.9239 0.3827 -372.6247 612.924)" class="st19" cx="272.34" cy="585.3" rx="18.2" ry="18.2"/>
	
		<ellipse transform="matrix(0.3827 -0.9239 0.9239 0.3827 -297.1057 713.0242)" class="st19" cx="385.01" cy="578.84" rx="18.2" ry="18.2"/>
	
		<ellipse transform="matrix(0.4719 -0.8817 0.8817 0.4719 -241.8091 741.0792)" class="st19" cx="497.67" cy="572.38" rx="18.2" ry="18.2"/>
	
		<ellipse transform="matrix(0.3827 -0.9239 0.9239 0.3827 -146.0678 913.2249)" class="st19" cx="610.34" cy="565.92" rx="18.2" ry="18.2"/>
	
		<ellipse transform="matrix(0.3827 -0.9239 0.9239 0.3827 -70.5488 1013.3251)" class="st19" cx="723" cy="559.45" rx="18.2" ry="18.2"/>
	
		<ellipse transform="matrix(0.3827 -0.9239 0.9239 0.3827 5.0055 1113.4019)" class="st19" cx="835.66" cy="552.96" rx="18.2" ry="18.2"/>
	
		<ellipse transform="matrix(0.3827 -0.9239 0.9239 0.3827 80.4713 1213.5376)" class="st19" cx="948.33" cy="546.55" rx="18.2" ry="18.2"/>
	
		<ellipse transform="matrix(0.3872 -0.922 0.922 0.3872 -134.6538 301.7508)" class="st19" cx="159.68" cy="252.17" rx="18.2" ry="18.2"/>
	
		<ellipse transform="matrix(0.3827 -0.9239 0.9239 0.3827 -70.9613 411.359)" class="st19" cx="272.34" cy="258.78" rx="18.2" ry="18.2"/>
	
		<ellipse transform="matrix(0.3827 -0.9239 0.9239 0.3827 -7.5147 519.5258)" class="st19" cx="385.01" cy="265.39" rx="18.2" ry="18.2"/>
	
		<ellipse transform="matrix(0.3827 -0.9239 0.9239 0.3827 55.9309 627.6933)" class="st19" cx="497.67" cy="271.99" rx="18.2" ry="18.2"/>
	
		<ellipse transform="matrix(0.3827 -0.9239 0.9239 0.3827 119.377 735.8604)" class="st19" cx="610.34" cy="278.6" rx="18.2" ry="18.2"/>
	
		<ellipse transform="matrix(0.3827 -0.9239 0.9239 0.3827 183.2922 843.7141)" class="st19" cx="723" cy="284.7" rx="18.2" ry="18.2"/>
	
		<ellipse transform="matrix(0.3827 -0.9239 0.9239 0.3827 245.7634 952.5326)" class="st19" cx="835.66" cy="292.36" rx="18.2" ry="18.2"/>
	
		<ellipse transform="matrix(0.6154 -0.7882 0.7882 0.6154 130.386 861.8137)" class="st19" cx="948.33" cy="297.29" rx="18.2" ry="18.2"/>
	
		<ellipse transform="matrix(0.3872 -0.922 0.922 0.3872 -446.2508 506.7699)" class="st20" cx="158.11" cy="589.09" rx="18.2" ry="18.2"/>
	
		<ellipse transform="matrix(0.3827 -0.9239 0.9239 0.3827 -372.1447 610.5109)" class="st20" cx="270.77" cy="583.73" rx="18.2" ry="18.2"/>
	
		<ellipse transform="matrix(0.3827 -0.9239 0.9239 0.3827 -296.6257 710.6112)" class="st20" cx="383.44" cy="577.27" rx="18.2" ry="18.2"/>
	
		<ellipse transform="matrix(0.4719 -0.8817 0.8817 0.4719 -241.2556 738.8718)" class="st20" cx="496.1" cy="570.81" rx="18.2" ry="18.2"/>
	
		<ellipse transform="matrix(0.3827 -0.9239 0.9239 0.3827 -145.5878 910.8119)" class="st20" cx="608.77" cy="564.35" rx="18.2" ry="18.2"/>
	
		<ellipse transform="matrix(0.3827 -0.9239 0.9239 0.3827 -70.0688 1010.9121)" class="st20" cx="721.43" cy="557.89" rx="18.2" ry="18.2"/>
	
		<ellipse transform="matrix(0.3827 -0.9239 0.9239 0.3827 5.4855 1110.9888)" class="st20" cx="834.1" cy="551.39" rx="18.2" ry="18.2"/>
	
		<ellipse transform="matrix(0.3827 -0.9239 0.9239 0.3827 80.9513 1211.1246)" class="st20" cx="946.76" cy="544.99" rx="18.2" ry="18.2"/>
	
		<ellipse transform="matrix(0.3872 -0.922 0.922 0.3872 -134.1696 299.3478)" class="st20" cx="158.11" cy="250.61" rx="18.2" ry="18.2"/>
	
		<ellipse transform="matrix(0.3827 -0.9239 0.9239 0.3827 -70.4813 408.946)" class="st20" cx="270.77" cy="257.21" rx="18.2" ry="18.2"/>
	
		<ellipse transform="matrix(0.3827 -0.9239 0.9239 0.3827 -7.0347 517.1127)" class="st20" cx="383.44" cy="263.82" rx="18.2" ry="18.2"/>
	
		<ellipse transform="matrix(0.3827 -0.9239 0.9239 0.3827 56.4109 625.2803)" class="st20" cx="496.1" cy="270.43" rx="18.2" ry="18.2"/>
	
		<ellipse transform="matrix(0.3827 -0.9239 0.9239 0.3827 119.857 733.4474)" class="st20" cx="608.77" cy="277.03" rx="18.2" ry="18.2"/>
	
		<ellipse transform="matrix(0.3827 -0.9239 0.9239 0.3827 183.7722 841.301)" class="st20" cx="721.43" cy="283.13" rx="18.2" ry="18.2"/>
	
		<ellipse transform="matrix(0.3827 -0.9239 0.9239 0.3827 246.2434 950.1196)" class="st20" cx="834.1" cy="290.8" rx="18.2" ry="18.2"/>
	
		<ellipse transform="matrix(0.6154 -0.7882 0.7882 0.6154 131.0179 859.9774)" class="st20" cx="946.76" cy="295.73" rx="18.2" ry="18.2"/>
	<g>
		
			<ellipse transform="matrix(0.4108 -0.9117 0.9117 0.4108 -159.7981 609.3365)" class="st21" cx="391.52" cy="428.3" rx="42.56" ry="42.56"/>
		<path class="st2" d="M336.32,548.85c-17.79,32.72-35.17,65.66-52.58,98.58c-35.09,66.36-69.62,133-104.88,199.28
			c-16.15,30.36-32.51,60.61-49.08,90.74c-7.74,3.89-17.29,1.76-24.84-2.4c-6.99-3.84-13.04-10.15-14.89-17.82
			c13.76-23.39,27.83-46.6,42.04-69.72c20.25-32.94,40.28-66.01,60.16-99.18c21.21-35.39,42.47-70.74,63.68-106.12
			c20.26-33.78,40.43-67.6,60.4-101.54c8.78-14.93,17.45-29.93,26.02-44.98c5.41-9.51,11.09-19.01,16.23-28.73
			c2.43,2.09,5.09,3.98,7.98,5.62c3.17,1.79,6.45,3.19,9.79,4.23C362.01,500.2,349.39,524.81,336.32,548.85z"/>
		<path d="M415.4,386.37c-23.81-13.48-54.04-5.11-67.52,18.7c-11.07,19.55-7.4,43.43,7.46,58.81
			c-13.17,20.49-25.14,41.84-37.65,62.67c-19.91,33.14-39.72,66.34-59.6,99.49c-21.22,35.38-42.48,70.73-63.71,106.11
			c-20.27,33.77-40.51,67.55-60,101.77c-15.04,26.41-30.07,52.84-44.86,79.39c-1.03,1.85-2.07,3.7-3.1,5.55
			c0.05,1.25,0.24,2.48,0.55,3.68c1.91,7.48,8.47,13.89,15.65,17.94c5.81,3.28,15.39,6.15,22.99,4.63c0.68-0.14,1.34-0.31,1.99-0.52
			c1.72-2.99,3.45-5.99,5.16-8.98c32.84-57.37,64-115.65,95.41-173.81c35.66-66.03,70.87-132.3,106.68-198.25
			c9.64-17.75,19.23-35.52,28.94-53.23c5.88-10.73,11.81-21.42,17.41-32.28c20.44,4.13,42.09-5.02,52.92-24.15
			C447.58,430.09,439.21,399.85,415.4,386.37z M336.32,548.85c-17.79,32.72-35.17,65.66-52.58,98.58
			c-35.09,66.36-69.62,133-104.88,199.28c-16.15,30.36-32.51,60.61-49.08,90.74c-7.74,3.89-17.29,1.76-24.84-2.4
			c-6.99-3.84-13.04-10.15-14.89-17.82c13.76-23.39,27.83-46.6,42.04-69.72c20.25-32.94,40.28-66.01,60.16-99.18
			c21.21-35.39,42.47-70.74,63.68-106.12c20.26-33.78,40.43-67.6,60.4-101.54c8.78-14.93,17.45-29.93,26.02-44.98
			c5.41-9.51,11.09-19.01,16.23-28.73c2.43,2.09,5.09,3.98,7.98,5.62c3.17,1.79,6.45,3.19,9.79,4.23
			C362.01,500.2,349.39,524.81,336.32,548.85z M370.55,465.33c-20.45-11.58-27.64-37.55-16.06-58c11.58-20.45,37.55-27.64,58-16.06
			c20.45,11.58,27.64,37.55,16.06,58C416.97,469.72,391,476.91,370.55,465.33z"/>
		<path class="st22" d="M349.85,436.93c3.59,17.34,17.84,31.27,36.38,33.6c23.32,2.92,44.59-13.62,47.51-36.94
			c1.44-11.49-1.86-22.49-8.35-31.03c5.74,15.99-0.27,44.05-18.92,51.69C382.08,464.23,360.6,452.42,349.85,436.93z"/>
		<path class="st20" d="M362.66,400.96c-7.28,6.86-8.01,17.24,4.75,15.46c12.77-1.78,17.15-12.69,14.46-18.21
			S369.03,394.97,362.66,400.96z"/>
		<path class="st1" d="M129.79,937.45c16.56-30.13,32.92-60.38,49.08-90.74c35.26-66.27,69.78-132.92,104.88-199.28
			c17.41-32.92,34.79-65.87,52.58-98.58c13.07-24.04,25.68-48.65,40.05-72.04c-3.34-1.04-6.63-2.43-9.79-4.23
			c-2.89-1.64-5.56-3.53-7.98-5.62c-0.88,1.67-1.79,3.33-2.7,4.98c6.2,7.01,9.7,8.72,9.7,8.72L116.22,939.1
			C120.87,939.89,125.6,939.56,129.79,937.45z"/>
	</g>
	<g>
		
			<ellipse transform="matrix(0.3865 -0.9223 0.9223 0.3865 -53.0667 925.8971)" class="st21" cx="669.45" cy="502.84" rx="43.17" ry="43.17"/>
		<path class="st2" d="M718.31,539.77c5.46,5.51,11,10.94,16.54,16.38c14.33,14.09,28.66,28.17,42.99,42.26
			c17.58,17.28,35.17,34.56,52.78,51.81c19.22,18.83,38.43,37.66,57.65,56.49c19.49,19.1,38.98,38.2,58.47,57.3
			c18.1,17.74,36.28,35.39,54.46,53.05c15.43,14.99,30.99,29.86,46.52,44.75c11.12,10.67,22.25,21.32,33.51,31.84
			c2.27,2.12,4.53,4.24,6.8,6.36c0.98,7.6-2.33,15.49-8.12,21.26c-4.82,4.81-12.59,9.02-20,9.18c-0.74-0.85-1.47-1.69-2.21-2.54
			c-8.75-10.05-17.9-20.68-27.09-30.73c-13.69-14.98-27.77-29.62-41.67-44.4c-16.9-17.98-33.88-35.88-50.83-53.81
			c-18.64-19.74-37.29-39.47-55.93-59.21c-18.82-19.92-37.63-39.84-56.45-59.75c-17.46-18.48-34.91-36.96-52.37-55.44
			c-14.8-15.66-29.61-31.31-44.43-46.95c-10.57-11.16-21.06-22.38-31.92-33.26c2.81-1.81,5.49-3.93,7.97-6.36
			c1.98-1.95,3.75-4.02,5.34-6.2C712.93,534.45,715.79,537.24,718.31,539.77z"/>
		<path d="M705.63,467.94c-19.17-19.52-50.54-19.8-70.06-0.63c-19.52,19.17-19.8,50.54-0.63,70.06
			c14.96,15.24,37.36,18.75,55.75,10.44c0.54,0.6,1.07,1.2,1.6,1.79c2.13,2.38,4.25,4.76,6.38,7.13
			c5.19,5.78,10.64,11.34,15.96,16.99c13.85,14.7,27.69,29.41,41.56,44.09c17.02,18,34.03,36.01,51.05,54.01
			c18.57,19.64,37.13,39.28,55.7,58.93c18.74,19.83,37.49,39.66,56.23,59.49c17.55,18.57,35.1,37.14,52.65,55.71
			c14.76,15.61,29.55,31.2,44.38,46.75c10.69,11.22,21.53,22.28,32.72,33c1.1,1.05,2.18,2.12,3.27,3.19
			c1.44,1.42,2.86,2.86,4.3,4.29c2.01,0.55,4.12,0.7,6.25,0.54c7.32-0.54,14.92-4.77,19.78-9.77c5.43-5.58,9.05-13.39,8.8-20.84
			c-0.06-1.88-0.38-3.74-0.96-5.54c-0.33-0.34-0.66-0.67-0.98-1.01c-1.27-1.31-2.55-2.61-3.82-3.92
			c-8.25-8.45-16.52-16.87-24.86-25.22c-14.24-14.25-28.47-28.5-42.71-42.74c-17.45-17.45-35.06-34.76-52.69-52.03l-57.69-56.5
			c-19.49-19.09-38.98-38.18-58.47-57.27c-18.09-17.71-36.17-35.43-54.29-53.11c-15.36-15-30.72-29.99-46.09-44.99
			c-10.98-10.72-21.97-21.42-33.09-32c-0.72-0.68-1.42-1.35-2.11-2.01C723.99,508.06,721.39,483.99,705.63,467.94z M718.31,539.77
			c5.46,5.51,11,10.94,16.54,16.38c14.33,14.09,28.66,28.17,42.99,42.26c17.58,17.28,35.17,34.56,52.78,51.81
			c19.22,18.83,38.43,37.66,57.65,56.49c19.49,19.1,38.98,38.2,58.47,57.3c18.1,17.74,36.28,35.39,54.46,53.05
			c15.43,14.99,30.99,29.86,46.52,44.75c11.12,10.67,22.25,21.32,33.51,31.84c2.27,2.12,4.53,4.24,6.8,6.36
			c0.98,7.6-2.33,15.49-8.12,21.26c-4.82,4.81-12.59,9.02-20,9.18c-0.74-0.85-1.47-1.69-2.21-2.54
			c-8.75-10.05-17.9-20.68-27.09-30.73c-13.69-14.98-27.77-29.62-41.67-44.4c-16.9-17.98-33.88-35.88-50.83-53.81
			c-18.64-19.74-37.29-39.47-55.93-59.21c-18.82-19.92-37.63-39.84-56.45-59.75c-17.46-18.48-34.91-36.96-52.37-55.44
			c-14.8-15.66-29.61-31.31-44.43-46.95c-10.57-11.16-21.06-22.38-31.92-33.26c2.81-1.81,5.49-3.93,7.97-6.36
			c1.98-1.95,3.75-4.02,5.34-6.2C712.93,534.45,715.79,537.24,718.31,539.77z M699.7,533.64c-17.01,16.7-44.34,16.46-61.05-0.55
			c-16.7-17.01-16.46-44.34,0.55-61.05c17.01-16.7,44.34-16.46,61.05,0.55C716.95,489.6,716.7,516.93,699.7,533.64z"/>
		<path class="st22" d="M693.98,520.58c-14.95,15.5-46.37,19.67-63.31,1.23c7.44,15.19,23.49,25.21,41.43,24.11
			c23.8-1.46,41.9-21.94,40.44-45.73c-0.51-8.34-3.37-15.97-7.87-22.31C708.96,491.58,706.78,507.31,693.98,520.58z"/>
		<path class="st20" d="M643.28,480.02c-5.89,8.09-4.69,18.43,7.53,14.32c12.22-4.11,14.5-15.64,10.84-20.57
			C657.99,468.84,648.42,472.95,643.28,480.02z"/>
		<path class="st1" d="M1088.02,900.01c-2.27-2.12-4.53-4.24-6.8-6.36c-11.26-10.52-22.38-21.18-33.51-31.84
			c-15.53-14.89-31.09-29.76-46.52-44.75c-18.18-17.66-36.36-35.31-54.46-53.05c-19.49-19.1-38.98-38.2-58.47-57.3
			c-19.22-18.83-38.44-37.66-57.65-56.49c-17.61-17.25-35.2-34.53-52.78-51.81c-14.33-14.09-28.66-28.17-42.99-42.26
			c-5.53-5.44-11.07-10.87-16.54-16.38c-2.51-2.54-5.38-5.32-7.97-7.97c-1.58,2.17-3.36,4.25-5.34,6.2
			c-2.48,2.44-5.15,4.56-7.97,6.36c1.04,1.04,2.07,2.09,3.11,3.14c5-3.2,8.32-6.31,10.35-8.04
			c7.61,7.74,290.39,290.08,374.86,374.43C1087.59,909.53,1088.63,904.71,1088.02,900.01z"/>
	</g>
</g>
</svg>
