<?xml version="1.0" encoding="utf-8"?>
<!-- Generator: Adobe Illustrator 26.0.3, SVG Export Plug-In . SVG Version: 6.00 Build 0)  -->
<svg version="1.1" id="Layer_1" xmlns="http://www.w3.org/2000/svg" xmlns:xlink="http://www.w3.org/1999/xlink" x="0px" y="0px"
	 viewBox="0 0 1133.86 1133.86" style="enable-background:new 0 0 1133.86 1133.86;" xml:space="preserve">
<style type="text/css">
	.st0{fill-rule:evenodd;clip-rule:evenodd;fill:url(#SVGID_1_);}
	.st1{fill-rule:evenodd;clip-rule:evenodd;fill:#AFF1DD;}
	.st2{fill-rule:evenodd;clip-rule:evenodd;fill:#259199;}
	.st3{fill-rule:evenodd;clip-rule:evenodd;fill:#0D858E;}
	.st4{fill-rule:evenodd;clip-rule:evenodd;fill:#E5E5E5;}
	.st5{fill-rule:evenodd;clip-rule:evenodd;fill:#FFFFFF;}
	.st6{fill-rule:evenodd;clip-rule:evenodd;fill:#F4F4F4;}
	.st7{fill-rule:evenodd;clip-rule:evenodd;fill:#989898;}
	.st8{fill-rule:evenodd;clip-rule:evenodd;fill:#CBCBCB;}
	.st9{fill-rule:evenodd;clip-rule:evenodd;fill:#E2E2E2;}
	.st10{fill-rule:evenodd;clip-rule:evenodd;fill:#808080;}
	.st11{fill-rule:evenodd;clip-rule:evenodd;fill:#E3E4DF;}
	.st12{fill-rule:evenodd;clip-rule:evenodd;fill:#606E6E;}
	.st13{fill-rule:evenodd;clip-rule:evenodd;fill:#239CA1;}
	.st14{fill-rule:evenodd;clip-rule:evenodd;fill:#65BEC2;}
	.st15{fill-rule:evenodd;clip-rule:evenodd;fill:#B2B2B2;}
	.st16{fill-rule:evenodd;clip-rule:evenodd;fill:#F8F7F2;}
	.st17{fill-rule:evenodd;clip-rule:evenodd;fill:#BCCBC6;}
	.st18{fill-rule:evenodd;clip-rule:evenodd;fill:#6CB3B5;}
	.st19{fill-rule:evenodd;clip-rule:evenodd;fill:url(#SVGID_00000120549713474849529830000017039783358895131025_);}
	.st20{fill-rule:evenodd;clip-rule:evenodd;fill:#EBFFFF;}
</style>
<g>
	<linearGradient id="SVGID_1_" gradientUnits="userSpaceOnUse" x1="566.93" y1="8.588175e-04" x2="566.93" y2="1001.4919">
		<stop  offset="0" style="stop-color:#44BBC2"/>
		<stop  offset="1" style="stop-color:#92D3C9"/>
	</linearGradient>
	<rect x="0" y="0" class="st0" width="1133.86" height="1001.49"/>
	<path class="st1" d="M421.03,96.77c-9.21-18.53-63.25-18.87-75.07-7.64c-55.26-17.49-70.78,34.73-68.29,27.51
		c-18.25-19.65-45.87-8.42-44.83-1.12c-10.17-3.09-28.41-9.26-37.27,0c-6.83-5.67-26.86-7.84-31.59-0.81
		c-46.32,1.58-84.56,8.31-0.99,11.48c87.58,0,193.4,0,280.98,0c63.5-2.38,75.37-18.31,7.69-24.85
		C442.48,93.64,432.06,90.86,421.03,96.77L421.03,96.77z M0,243.37v-31.43c9.39-4.5,22.28-6.15,39.31,0.92
		c10.9-8.69,31.34-4.01,40.5,2.76c14.57-5.32,30.03,3.82,29.88,10.03c4.03-0.1,30.93-1.57,32.52,7.84
		c0.81,4.82-7.63,9.98-23.66,9.88H0z"/>
	<rect x="0" y="969.69" class="st2" width="1133.86" height="17.23"/>
	<rect x="0" y="977.7" class="st3" width="1133.86" height="156.16"/>
	<g>
		<polygon class="st4" points="636.87,337.43 501.59,890.43 500.18,890.42 636.88,333.38 		"/>
		<path class="st5" d="M637.86,848.46V88.17h-15.88c-46.69,72.81-83.35,156.15-119.43,234.93
			C430.89,479.57,365.35,649.8,303.7,837.28L637.86,848.46z"/>
		<path class="st6" d="M637.86,848.46V370.57c-22.28,208.65-65.06,387.02-105.59,474.36L637.86,848.46z"/>
		<path class="st4" d="M373.77,637.72L639,691.18l-0.32,1.59l-265.23-53.46L373.77,637.72L373.77,637.72z M397.06,576.01
			l240.96,47.85l-0.31,1.59L396.74,577.6L397.06,576.01L397.06,576.01z M561.73,199.04l78.61,15.81l-0.32,1.59l-78.61-15.81
			L561.73,199.04L561.73,199.04z M502.69,322.3l134.35,24.42l-0.29,1.6l-134.35-24.42L502.69,322.3L502.69,322.3z M449.39,443.91
			l187.53,37.55l-0.32,1.6L449.08,445.5L449.39,443.91L449.39,443.91z M350.37,700.43l287.65,57.64l-0.32,1.59l-287.65-57.64
			L350.37,700.43L350.37,700.43z M532.68,260.72l105.58,21.06l-0.32,1.6l-105.58-21.06L532.68,260.72L532.68,260.72z M475.45,383.13
			l161.71,30.64l-0.3,1.59l-161.71-30.64L475.45,383.13L475.45,383.13z M424.81,506.84l213.09,41.94l-0.31,1.6l-213.09-41.94
			L424.81,506.84L424.81,506.84z M326.78,768.09l322.3,62.64l-0.31,1.59l-322.3-62.64L326.78,768.09z"/>
		<path class="st7" d="M654.13,902.64h-18.35l1.62-843.41l-17.37-1.78l0.12-2.93l17.26-0.12c6.27-0.01,6.04-0.01,12.3,0l4.88,848.24
			H654.13z"/>
		<path class="st8" d="M649.94,902.64h-11.73l1.03-843.41l-0.1-3.79l-1.12,3.55l-17.05-1.62l0.08-2.93l18.19-0.04
			c4.01-0.01,3.86-0.01,7.87,0l3.12,848.24H649.94z"/>
		<polygon class="st8" points="621.98,88.17 637.35,88.17 637.3,110.01 612.11,103.94 		"/>
		<polygon class="st4" points="621.21,57.57 205.2,958.91 200.91,963.16 620.03,57.45 		"/>
		<path class="st6" d="M370.75,648.16l-3.64,7.75l127.8,26.47c3.38,0.75,3.41,0.03,3.97-3.12c0.31-1.78,0.47-2.92,0.13-3.71
			c-0.25-0.59-0.67-1-2.02-1.3L370.75,648.16L370.75,648.16z M430.46,490.13l-3.25,8.01l97.45,21.14c3.38,0.75,3.41,0.03,3.97-3.12
			c0.31-1.78,0.47-2.92,0.13-3.71c-0.25-0.59-0.67-1-2.02-1.3L430.46,490.13L430.46,490.13z M537.27,247.21l-3.64,7.75l60.83,12.48
			c3.38,0.75,4.31,0.45,4.87-2.7c0.31-1.78,0.44-3.16,0.1-3.96c-0.25-0.59-0.67-1-2.02-1.3L537.27,247.21L537.27,247.21z
			 M484.74,367.55l-3.64,7.75l74.62,14.67c3.38,0.75,3.41,0.03,3.97-3.12c0.32-1.78,0.47-2.92,0.13-3.71c-0.25-0.59-0.67-1-2.02-1.3
			L484.74,367.55z"/>
		<path class="st9" d="M371.21,649.08l-2.93,6.24l126.8,26.27c2.05,0.45,2.45,0.23,2.71-0.96c0.07-0.3,0.15-0.75,0.24-1.26
			l0.04-0.25c0.15-0.87,0.27-1.58,0.3-2.13c0.03-0.49,0-0.86-0.11-1.13c-0.07-0.16-0.16-0.3-0.32-0.41
			c-0.22-0.15-0.57-0.29-1.12-0.41L371.21,649.08L371.21,649.08z M366.38,655.57l3.92-8.33l126.87,26.22
			c0.79,0.18,1.33,0.4,1.72,0.67c0.45,0.32,0.69,0.68,0.88,1.11c0.22,0.53,0.29,1.12,0.24,1.85c-0.04,0.65-0.16,1.41-0.32,2.32
			l-0.04,0.25c-0.08,0.48-0.16,0.89-0.25,1.33c-0.54,2.46-1.22,2.94-4.63,2.19l-128.81-26.68L366.38,655.57L366.38,655.57z
			 M430.96,491.07l-2.63,6.48l96.51,20.94c2.06,0.46,2.46,0.24,2.72-0.95c0.07-0.3,0.15-0.75,0.24-1.26l0.04-0.25
			c0.15-0.87,0.27-1.58,0.3-2.13c0.03-0.48,0-0.85-0.11-1.12c-0.07-0.16-0.16-0.3-0.32-0.41c-0.22-0.16-0.57-0.29-1.13-0.42
			L430.96,491.07L430.96,491.07z M426.46,497.83l3.51-8.64l96.95,21.16c0.8,0.18,1.33,0.4,1.72,0.67c0.45,0.32,0.7,0.68,0.88,1.11
			c0.22,0.53,0.29,1.12,0.24,1.85c-0.04,0.66-0.16,1.41-0.32,2.32l-0.04,0.25c-0.08,0.48-0.16,0.9-0.25,1.33
			c-0.54,2.46-1.23,2.94-4.64,2.19l-98.4-21.35L426.46,497.83L426.46,497.83z M537.74,248.13l-2.93,6.24l59.83,12.27
			c1.51,0.33,2.44,0.45,2.95,0.19c0.45-0.23,0.71-0.92,0.95-2.23c0.15-0.87,0.26-1.62,0.29-2.24c0.02-0.55-0.01-0.98-0.13-1.26
			c-0.07-0.16-0.16-0.3-0.32-0.41c-0.22-0.15-0.57-0.29-1.12-0.41L537.74,248.13L537.74,248.13z M532.9,254.62l3.91-8.33l60.77,12.4
			c0.79,0.18,1.33,0.4,1.72,0.67c0.45,0.32,0.69,0.68,0.87,1.11c0.22,0.52,0.29,1.18,0.26,1.96c-0.03,0.72-0.14,1.54-0.31,2.46
			c-0.33,1.85-0.81,2.88-1.8,3.39c-0.94,0.48-2.16,0.37-4.04-0.04l-61.83-12.68L532.9,254.62L532.9,254.62z M485.2,368.46
			l-2.93,6.24l73.62,14.47c2.05,0.45,2.45,0.23,2.71-0.95c0.07-0.3,0.15-0.75,0.24-1.26l0.04-0.25c0.15-0.87,0.27-1.58,0.3-2.13
			c0.03-0.49,0-0.86-0.11-1.13c-0.07-0.16-0.16-0.3-0.32-0.41c-0.22-0.15-0.56-0.29-1.12-0.41L485.2,368.46L485.2,368.46z
			 M480.36,374.95l3.91-8.33l73.7,14.41c0.79,0.18,1.33,0.4,1.72,0.67c0.45,0.32,0.7,0.68,0.88,1.11c0.22,0.53,0.29,1.12,0.24,1.85
			c-0.04,0.65-0.16,1.41-0.32,2.32l-0.04,0.25c-0.08,0.48-0.16,0.9-0.25,1.33c-0.54,2.45-1.23,2.94-4.63,2.19l-75.64-14.86
			L480.36,374.95z"/>
		<polygon class="st10" points="307.44,847.68 311.16,847.07 317.61,926.83 313.89,927.44 		"/>
		<path class="st11" d="M273.12,940.46l1.97-9.08l196.51-13.5l11.29-21.44c3.83-6.17,5.51-6.03,12.51-6.02
			c67.2,0.16,118.76-0.41,186.11,12.12c43.7,8.13,85.81,18.62,132.38,32.84C648.77,947.55,429.15,946.73,273.12,940.46z"/>
		<polygon class="st12" points="299.21,837.28 625.47,847.56 625.47,857.75 299.21,847.47 		"/>
		<rect x="625.47" y="838.43" class="st8" width="10.42" height="7.89"/>
		<path class="st13" d="M546.32,904.43c18.81,0,72.38-1.18,100.5,6.05c5.14,1.32,11.17,2.94,15.13,4.96
			c3.69,1.88,5.17,5.41,0.55,5.45c-37.08,0.35-80.82,1.41-117.81,2.64c-1.2,0.04-2.33-1-2.2-2.2l1.63-14.72
			C544.25,905.43,545.11,904.43,546.32,904.43z"/>
		<path class="st5" d="M613.94,881.48c46.49-179.36,72.92-414.31,69.1-585.27c-0.47-21.02-0.69-49.68-2.09-68.55
			c26.06,71.71,54.43,166.61,86.17,263.1c47.42,144.14,87.85,299.05,113.58,408.73C806.17,897.12,682.78,885.75,613.94,881.48z"/>
		<path class="st4" d="M653.99,684.11c26.04-1.34,52.12-3.13,78.24-5.41c26.13-2.28,52.96-5.06,78.98-8.35l0.2,1.61
			c-26.15,3.3-53,6.09-79.05,8.37c-26.06,2.27-52.16,4.06-78.3,5.41L653.99,684.11L653.99,684.11z M614.36,880.96l59.25-56.44
			l-46.04,1.26l-0.04-1.62l47.83-1.31l82.17-78.28c-17.86,2.95-36.13,5.21-54.83,6.73c-19.6,1.6-39.71,2.38-60.36,2.28l0.01-1.62
			c20.57,0.1,40.63-0.69,60.23-2.28c19.49-1.59,38.5-3.98,57.05-7.11l56.72-54.04l1.12,1.18l-56.71,54.02
			c-4.09,24.16-8.16,48.67-12.22,73.19c-4.1,24.73-8.2,49.47-12.26,73.47l-1.6-0.27c4.11-24.24,8.19-48.85,12.26-73.46
			c3.96-23.91,7.92-47.82,11.86-71.06l-82.38,78.48l-16.67,59.55l-1.56-0.43l15.93-56.93l-58.64,55.86L614.36,880.96L614.36,880.96z
			 M803.42,895.35l1.6,0.25l25.64-163.41l-1.6-0.25L803.42,895.35L803.42,895.35z M666.06,611.31c11.5-0.91,22.82-1.7,33.99-2.49
			c30.3-2.13,59.57-4.18,91.02-8.45l0.22,1.61c-31.54,4.28-60.82,6.34-91.13,8.46c-11.09,0.78-22.32,1.57-33.97,2.49L666.06,611.31
			L666.06,611.31z M684.09,344.57c4.57-0.55,9.35-1.07,14.37-1.56c5-0.49,10.14-0.93,15.41-1.32l0.11,1.62
			c-5.36,0.4-10.48,0.84-15.38,1.31c-4.88,0.47-9.66,1-14.33,1.56L684.09,344.57L684.09,344.57z M678.27,476.1
			c12.46-0.13,24.88-0.63,37.23-1.58c12.35-0.95,24.6-2.34,36.74-4.25l0.25,1.6c-12.22,1.93-24.51,3.32-36.86,4.27
			c-12.35,0.95-24.8,1.44-37.34,1.58L678.27,476.1L678.27,476.1z M683.48,278.91l11.06-0.89l0.13,1.62l-11.06,0.89L683.48,278.91
			L683.48,278.91z M682.22,410.38c17.2-1.14,32.52-2.71,46.88-4.17l3.98-0.4l0.16,1.61l-3.98,0.4c-14.4,1.47-29.76,3.03-46.94,4.17
			L682.22,410.38L682.22,410.38z M672.31,542.6l99.13-7.81l0.13,1.62l-99.13,7.81L672.31,542.6z"/>
		<polygon class="st10" points="849.92,892.73 246.68,912.8 245.89,911.8 850.48,891.64 		"/>
		<polygon class="st4" points="613.94,881.53 503.72,890.43 495.88,890.41 614.19,880.52 		"/>
		<path class="st14" d="M628.33,95.39c1.69,0,3.05,1.37,3.05,3.05c0,1.69-1.37,3.05-3.05,3.05c-1.69,0-3.05-1.37-3.05-3.05
			C625.27,96.75,626.64,95.39,628.33,95.39z"/>
		<path class="st4" d="M637.47,59.16l-8.24,37.51c-0.15,0.82-1.3,0.72-1.1-0.33l8.06-37.23L637.47,59.16z"/>
		<path class="st8" d="M877.1,886.8c-27.76-108.14-54.21-216.24-88.71-323.9c-20.64-64.39-40.19-129.55-61.2-194.26
			c-28.65-88.26-58.65-176.17-85.17-264.48c-0.01-1.74-0.02-3.47-0.03-5.21c27.1,90.26,57.49,179.95,86.6,269.99
			c20.75,64.17,40.06,128.78,60.65,192.72c34.77,108,61.74,217.06,89.31,325.06C878.07,886.74,877.58,886.77,877.1,886.8z"/>
		<path class="st7" d="M384.14,903.57l2.13,34.84l-1.95,0.15l-1.3,0.03l-2.13-34.81C380.83,902.62,384.06,902.26,384.14,903.57
			L384.14,903.57z M883.64,918.58l4.47-26.16c0.34-2.11,0.41-3.11,0.16-3.35c-0.23-0.23-1.29-0.2-3.06-0.11
			c-9.27,0.44-19.39,1.02-28.67,1.44c-4.74,0.21-6.72,0.31-9.01,4.94l-9.39,25.8l-3.5,0.19l9.98-27.43
			c3.14-6.36,5.68-6.47,11.78-6.75c9.27-0.42,19.39-1,28.65-1.44c2.67-0.13,4.34-0.1,5.5,1.05c1.14,1.14,1.28,2.92,0.76,6.16
			l-4.35,25.46L883.64,918.58L883.64,918.58z M682.65,893.82l2.14,34.9l-3.25,0.14L679.41,894
			C679.37,893.39,682.6,893.03,682.65,893.82L682.65,893.82z M526.55,899.25l2.17,35.37l-0.55,0.04l-2.7,0.09l-2.16-35.3
			C523.26,898.68,526.5,898.38,526.55,899.25L526.55,899.25z M227.01,941.25l-5.01-24.38c-0.35-2.17,0.5-5.22,2.78-5.11l14.88-0.63
			c4.74,0.21,6.72,0.3,9.01,4.94l9.09,24.76l3.42-0.05l-9.59-26.15c-3.14-6.36-5.68-6.47-11.78-6.75l-14.87,0.63
			c-4.82-0.23-7.12,3.82-6.37,8.48l5.14,24.29L227.01,941.25z"/>
		<path class="st4" d="M617.02,869.35l-105.85,21.1l-3.94-0.01l110.04-22.07C617.02,869.39,617.28,868.34,617.02,869.35z"/>
		<polygon class="st7" points="612.66,103.07 637.3,109.92 637.3,111.78 611.89,104.33 		"/>
		<path class="st15" d="M206.62,962.4h32.85c3.49,0,6.78,2.89,6.21,6.34l-3.78,22.86h-42.24l0.49-22.86
			C200.22,965.26,203.13,962.4,206.62,962.4z"/>
		<path class="st16" d="M189.05,984.5c-2.54-0.59-8-1.67-3.63-6l37.68-37.31c224.92-2.81,431.17-9.36,664.86-22.97l-11.69,71.63
			c-0.1,0.63-0.21,1.21-0.31,1.75H221.2C210.42,989.35,199.7,986.99,189.05,984.5z"/>
		<path class="st17" d="M184.73,982.9c-3.22-0.97,4.03-9.22,6.37-9.04c201.92,15.7,497.67,4.75,691.14-18.17
			c-0.26,1.08-5.97,33.26-6.28,35.91H221.01C208.4,989.32,195.02,985.98,184.73,982.9z"/>
		<path class="st18" d="M214.11,949.96c112.35,0.07,224.08-2.07,335.95-5.62c111.81-3.55,223.05-8.49,335.94-14.1l-0.53,3.27
			c-112.83,5.61-223.39,10.51-335.31,14.07c-111.87,3.55-226.21,5.13-338.63,5.06L214.11,949.96z"/>
	</g>
	
		<linearGradient id="SVGID_00000088119385459624439780000008874061212558230914_" gradientUnits="userSpaceOnUse" x1="537.6843" y1="991.5995" x2="537.6843" y2="1133.8591">
		<stop  offset="0" style="stop-color:#00686E"/>
		<stop  offset="1" style="stop-color:#00838A"/>
	</linearGradient>
	<path style="fill-rule:evenodd;clip-rule:evenodd;fill:url(#SVGID_00000088119385459624439780000008874061212558230914_);" d="
		M510.47,1122.88c-2.92-11.4-5.84-22.79-8.76-34.19c4.62,0.37,9.24,0.74,13.85,1.11c33.9,6.49,67.8,12.98,101.71,19.48
		c0.89,3.42,1.78,6.86,2.66,10.31C583.44,1120.68,546.95,1121.78,510.47,1122.88L510.47,1122.88z M217.78,1037.43
		c1.03,0.98,4.28,1.33,5.31,2.31c0.2,0,0.4,0.01,0.6,0.01c-1.08,4.88-2.16,9.75-3.24,14.63c-2.69-5.57-5.38-11.13-8.07-16.7
		c-3.54-7.32-4.13-8.52,0.5,1.04c2.28,6.3,4.57,12.6,6.85,18.9c-0.39,1.74-0.77,3.49-1.16,5.23c-0.75,4.45,1.54,8.32,6.37,8.1
		c0.43,0.02,0.85,0.03,1.28,0.05l0.09,0.15c0.62-0.1,1.36-0.15,2.34-0.05l11.17,0.45c4.95-0.21,7.55-0.33,10.04-3.6
		c20.86,0.67,41.73,1.33,62.59,1.99c-0.29,3.45-0.58,6.9-0.88,10.35c1.26-0.02,2.52-0.04,3.77-0.06c0.29-3.39,0.57-6.78,0.86-10.17
		c21.64,0.69,43.27,1.38,64.91,2.07c-0.07,1.12-0.14,2.24-0.22,3.36c-0.07,1.09,3.16,1.44,3.24,0.19c0.07-1.15,0.15-2.3,0.22-3.45
		c31.51,1,63.03,2.01,94.54,3.01c6.91,12.54,52.41,3.57,52.41,8.78c0,1.22-16.97,2.31-44.28,3.1c1.96,1.18,4.24,1.13,8.37,1.12
		c0.16,0,0.31,0,0.47,0h0c1.46,0.12,2.93,0.23,4.39,0.35c2.94,11.45,5.88,22.9,8.83,34.35l-81.43,2.45
		c0.15,2.02,0.22,4.36,0.22,7.09c0,0.47-0.01,0.93-0.03,1.4h436.12c2.03-6.44,4.05-12.89,6.08-19.33
		c-3.83,0.01-7.69,0.01-11.59,0.01c-80.59,0-145.92-1.93-145.92-4.32s65.33-4.32,145.92-4.32c4.83,0,9.59,0.01,14.3,0.02
		c1.42-4.53,2.85-9.06,4.27-13.59c2.71,0.13,5.39,0.26,8,0.38c2.67,0.12,4.34,0.1,5.5-1.01c1.14-1.09,1.28-2.79,0.76-5.88
		c-1.44-8.07-2.89-16.14-4.33-24.21c0.33,0.02,0.66,0.04,0.99,0.05c-1.03-6.05-5.05-11.12-5.65-15.83c-0.31-2.49,2.88-4.5,2.4-7.34
		c-0.91-5.32-4.67-3.86-9.35-3.93c-9.88-0.16-5.88-1.09-13.13-1.34c-16.18-0.57-23.18-3.93-2.68-8.07
		c7.62-1.54,4.48-2.09,15.65-2.27c13.16-0.21,5.9-1.92,5.47-4.44c-0.84-4.9-0.98-7.95-2.69-10.88c-1.69-2.9-3.17-3.73-3.92-8.06
		c-0.15-0.84,2.36-5.28,2.2-6.22c-0.1-0.6-0.21-1.15-0.31-1.67c-211.36,0-422.71,0-634.07,0c-6.9,0-13.79,0-20.69,0
		c-0.06,0-0.13,0-0.19,0c-7.12,0-14.24,0-21.36,0c0.03,1.38,0.06,2.76,0.09,4.14c-3.89,0.87-7.63,1.78-11.19,2.74
		c-0.78,0.17-1.71,0.39-2.55,0.71c0,0,0,0,0,0c-0.26,0.08-0.47,0.17-0.64,0.28c-1.67,0.82-2.55,2.18,0.05,4.64
		c0.61,0.58,1.22,1.15,1.83,1.73c14.99,0.31,26.05,1.39,26.05,2.68c0,0.84-4.7,1.59-12.12,2.1c-9.2,0.63-10.35-0.8-2.16,6.02
		c20.88,17.39,29.14,10.19,62.82,10.19c51.62,0,93.47,1.24,93.47,2.77c0,1.53-76.32,2.77-93.47,2.77c-14.92,0-29.18-0.1-41.52-0.29
		C215.83,1032.01,212.85,1032.76,217.78,1037.43L217.78,1037.43z M226.99,1039.78c10.28,0.12,20.53,0.26,30.74,0.4
		c-1.01,2.64-3.83,4.98-4.99,7.55c-1.11,2.47-0.27,5.09-0.78,7.77c-0.52,2.71-2.39,5.48-3.28,8.22c-2.29,4.43-4.27,4.52-9.01,4.72
		c-4.22-0.17-8.44-0.34-12.67-0.51c-1.4-2.9-2.8-5.79-4.2-8.69C224.2,1052.75,225.6,1046.27,226.99,1039.78L226.99,1039.78z
		 M261.15,1040.22c4.26,0.06,8.52,0.12,12.77,0.18c-0.27,0.01-0.54,0.02-0.81,0.03c0.66,2.89,1.32,5.78,1.97,8.67
		c35.68,2.34,71.36,4.68,107.04,7.02c-0.32,5-0.64,9.99-0.96,14.99c-21.63-0.69-43.26-1.37-64.89-2.06
		c0.29-3.47-2.25-7.29-1.96-10.75c0.15-1.74,3.13-3.12,3.28-4.85c-1.24-0.19-2.48-0.39-3.72-0.58c-0.51,1.13-2.98,3.27-3.2,4.61
		c-0.62,3.72,1.79,7.23,1.84,11.46c-20.67-0.66-41.34-1.31-62.01-1.97c0.35-0.55,0.71-1.17,1.07-1.88
		c2.1-5.45,1.18-11.27,3.27-16.72C255.96,1045.54,260.06,1043.06,261.15,1040.22L261.15,1040.22z M775.86,1055.84
		c19.45,0.94,39.04,1.92,58.81,2.95c0.98,2.56,0,5.3,0.98,7.86c1.86,4.89,5.68,9.61,7.54,14.5c-12.17,0.63-24.98,1.39-38.15,2.23
		c-0.01-0.04-0.01-0.07-0.02-0.11c-0.44,0.07-0.88,0.13-1.32,0.2c-3.67,0.23-7.36,0.47-11.07,0.72
		c-36.56-1.16-73.13-2.32-109.69-3.48c0.09-1.45,0.19-2.9,0.28-4.35C714.13,1070.81,744.3,1064.13,775.86,1055.84L775.86,1055.84z
		 M838.17,1058.98c6.49,0.47,16.68-1.25,23.43-0.88c8.36,0.46,13.37,2.98,22.05,3.33c0.2,1.11,0.4,2.21,0.59,3.32
		c-1.56,4.95-3.11,9.89-4.67,14.84c-10.2,0.32-21.3,0.8-33.02,1.39c-2.02-5.2-6.7-10.01-8.72-15.37
		C837.06,1063.56,838.95,1061.11,838.17,1058.98L838.17,1058.98z M522.5,1090.35c31.51,6,63.01,11.99,94.52,17.99
		c0.04,0.15,0.08,0.29,0.12,0.44c-0.98-3.73-1.96-7.43-2.96-11.11c0,0,0,0.01,0,0.01C583.63,1095.23,553.06,1092.79,522.5,1090.35
		L522.5,1090.35z M516.37,1089.18c32.52,2.51,65.04,5.02,97.57,7.53c0,0.01,0.01,0.03,0.01,0.04c0.32-0.02,0.65-0.04,0.97-0.06
		c0.19-0.19,0.37-0.37,0.56-0.56c0.18,0.16,0.36,0.33,0.54,0.49c6.2-0.37,12.83-0.8,19.8-1.27c-0.01-4.04-3.03-7.38-3.04-11.42
		c-42.09,4.62-77.28,4.16-121.61,4.25C512.91,1088.52,514.64,1088.85,516.37,1089.18L516.37,1089.18z M507.24,1088.2
		c0.81,0.15,1.62,0.31,2.43,0.47c-1.98-0.15-3.96-0.31-5.94-0.46C504.89,1088.2,506.07,1088.2,507.24,1088.2L507.24,1088.2z
		 M384.42,1071.22c0.32-4.96,0.64-9.92,0.95-14.88c28.74,1.89,57.49,3.77,86.23,5.66c2.24,4.07,4.49,8.14,6.73,12.21
		C447.03,1073.21,415.73,1072.21,384.42,1071.22L384.42,1071.22z M884.78,1067.73c1.11,6.19,2.21,12.38,3.32,18.57
		c0.34,2.01,0.41,2.97,0.16,3.2c-0.23,0.22-1.29,0.19-3.06,0.11c-2.35-0.11-4.76-0.22-7.19-0.34
		C880.26,1082.09,882.52,1074.91,884.78,1067.73L884.78,1067.73z M682.65,1084.97c0.07-1.08,0.14-2.17,0.21-3.25
		c33.12,1.05,66.24,2.11,99.36,3.16c-43.66,2.95-89.42,6.49-127.73,9.19c0.03-4.39,0.05-8.78,0.08-13.17
		c0.17-0.02,0.35-0.05,0.52-0.07c8.17,0.26,16.35,0.52,24.52,0.78c-0.07,1.06-0.14,2.12-0.2,3.19
		C679.37,1085.38,682.6,1085.72,682.65,1084.97L682.65,1084.97z M679.91,1076.93c-0.08,1.22-0.16,2.44-0.23,3.67
		c-6.26-0.2-12.52-0.4-18.78-0.6C667.11,1079.09,673.44,1078.07,679.91,1076.93L679.91,1076.93z M222.11,1062.49
		c0.86,1.78,1.73,3.56,2.59,5.35c-2.22,0.02-3.03-2.84-2.69-4.89C222.04,1062.8,222.07,1062.65,222.11,1062.49L222.11,1062.49z
		 M501.59,1088.21c-0.34,0-0.68,0-1.02,0c0.76,0,1.53,0,2.29,0C502.43,1088.21,502.01,1088.21,501.59,1088.21z"/>
	<g>
		<path class="st20" d="M783.03,986.04c6.86,0.09,15.62-3.74,23.51-4.07c4.98-0.21,9.24,3.27,13.65,2.73
			c5.05-0.62,8.11-3.39,12.33-3.31c3.01,0.06,8.36,3.69,12.34,3.08c4.58-0.7,7.82-5.64,11.56-5.22
			c19.86,2.23,31.57,10.58,31.57,11.27c0,1.35-53.34,1.06-104.96,1.06c-51.62,0-94.42,0.25-94.42-1.28c0-0.69,10.56-0.13,24.91-1.06
			c8.67-0.57,17.55-4.16,29.17-4.84C754.38,983.72,768.84,985.86,783.03,986.04z"/>
		<path class="st20" d="M145,988.26c5.46,0.05,12.44-2.24,18.72-2.45c3.97-0.13,7.35,1.97,10.87,1.64c4.02-0.37,6.46-2.04,9.82-1.99
			c2.4,0.03,6.66,2.21,9.82,1.85c3.65-0.42,10.75-0.41,13.72-0.16c15.81,1.34,20.62,3.37,20.62,3.78c0,0.81-42.47,0.64-83.57,0.64
			s-75.18,0.15-75.18-0.77c0-0.41,8.41-0.08,19.83-0.64c6.9-0.34,13.97-2.5,23.22-2.9C122.19,986.87,133.7,988.15,145,988.26z"/>
	</g>
	<path class="st5" d="M960.13,222.32c10.51-8.66,22.14-11.42,34.47-12.11c-16.25,4.44-26.93,12.94-36.33,22.36
		c-6.86-13.16-20.7-22.67-37.5-32.14C934.44,203.85,947.71,209.55,960.13,222.32L960.13,222.32z M883.42,250.4
		c8.34-6.87,17.56-9.06,27.34-9.61c-12.89,3.52-21.36,10.26-28.82,17.73c-5.44-10.44-16.42-17.98-29.74-25.49
		C863.04,235.75,873.56,240.27,883.42,250.4z"/>
	<path class="st2" d="M115.95,1015.08c23.64,0,42.81-0.88,42.81-1.96c0-1.08-19.17-1.96-42.81-1.96c-23.64,0-42.81,0.88-42.81,1.96
		C73.14,1014.2,92.3,1015.08,115.95,1015.08z"/>
	<path class="st2" d="M976.09,1013.66c23.64,0,42.81-0.88,42.81-1.96c0-1.08-19.17-1.96-42.81-1.96c-23.64,0-42.81,0.88-42.81,1.96
		C933.28,1012.78,952.45,1013.66,976.09,1013.66z"/>
</g>
</svg>
