<?xml version="1.0" encoding="utf-8"?>
<!-- Generator: Adobe Illustrator 26.0.3, SVG Export Plug-In . SVG Version: 6.00 Build 0)  -->
<svg version="1.1" id="Layer_1" xmlns="http://www.w3.org/2000/svg" xmlns:xlink="http://www.w3.org/1999/xlink" x="0px" y="0px"
	 viewBox="0 0 1133.86 1133.86" style="enable-background:new 0 0 1133.86 1133.86;" xml:space="preserve">
<style type="text/css">
	.st0{fill:#E3051F;}
	.st1{fill:#E30517;}
	.st2{fill:#BD0F18;}
	.st3{opacity:0.4;fill:#F4A28A;}
	.st4{fill:#8C150F;}
	.st5{fill:#A6A6A5;}
	.st6{fill:#510D00;}
	.st7{fill:#C50E1A;}
	.st8{fill:#F39641;}
	.st9{fill:#F9B346;}
	.st10{fill:#EF847C;}
	.st11{fill:#008FD6;}
	.st12{opacity:0.3;fill:#F7BDC3;}
	.st13{fill:#E9523E;}
</style>
<g>
	<path class="st0" d="M687.48,360.83c0-138.77-56.26-256.76-134.65-300.3V42.52h-66.82c-111.28,0-201.48,142.53-201.48,318.31
		c0,175.8,90.2,318.31,201.48,318.31h66.82v-17.98C631.22,617.61,687.48,499.63,687.48,360.83z"/>
	<path class="st1" d="M453.53,662.18c-39.98-27.33-75.76-48.81-98.71-91.54c-58.12-108.21-73.22-247.56-29.6-363.72
		c18.15-48.41,42.94-92.41,84.9-124.26c22.15-16.86,46.61-29.84,72.31-40c-109.65,3.06-197.91,144.28-197.91,318.17
		c0,173.07,87.42,313.76,196.28,318.12C471.37,673.78,462.2,668.13,453.53,662.18z"/>
	<path class="st2" d="M302.47,492.13c31.66,110.27,101.91,187.01,183.54,187.01h66.82v-17.98c51.95-28.86,94.15-90.4,116.74-169.03
		H302.47z"/>
	<path class="st2" d="M354.11,601.37c35.33,48.41,81.41,77.77,131.9,77.77h66.82v-17.98c24.12-13.39,46.08-33.89,65-59.78H354.11z"
		/>
	<path class="st0" d="M615.8,117.56c-18.42-24.59-39.73-44.12-62.97-57.02V42.52h-66.82c-49.48,0-94.8,28.27-129.84,75.04H615.8z"/>
	<path class="st3" d="M662.31,206.74c-4.96-14.04-10.54-27.5-16.72-40.15H326.45c-6.18,12.65-11.76,26.11-16.72,40.15H662.31z"/>
	<ellipse class="st4" cx="552.83" cy="360.83" rx="201.48" ry="318.31"/>
	<g>
		<path class="st5" d="M345.37,1091.34c-104.91,0-186.84-31-232.16-89.76c-19.39-25.13-24.13-54.25-13.37-82.06
			c18.54-47.9,78.57-85.51,160.6-100.63c123.61-22.77,210.36-55.49,244.28-92.09c23.49-25.37-9.29-85.37-23.88-106.35l10.32-7.07
			c2.4,3.43,57.77,84.04,22.78,121.82c-35.74,38.58-124.98,72.64-251.25,95.92c-77.7,14.3-134.2,49.01-151.16,92.84
			c-9.26,23.95-5.26,48.19,11.62,70.06c27.05,35.03,113.24,112.54,329.42,75.06c34.23-5.91,66.66-15.25,98.06-24.26
			c63.62-18.3,129.34-37.17,214-29.7c112.14,9.92,251.72,22.23,261.93-30.92c1.65-8.6-0.24-16.02-5.73-22.68
			c-32.67-39.71-182.55-41.3-231.78-41.84c-77.41-0.79-113.91-27.76-115.75-54.09c-1.72-24.97,26.39-45.5,71.73-52.29
			c3.26-0.47,6.51-0.95,9.7-1.46c-20.29-9.87-50.61-28.28-54.66-51.71c-2.32-13.41,3.81-26.23,18.23-38.09
			c45.19-37.22,142.2-23.93,181.6,4.43c21.87,15.74,19.93,31.14,16.84,38.95c-14.73,36.98-69.82,45.25-169.86,60.19
			c-43.64,6.51-62.1,24.36-61.1,39.14c1.47,20.57,37.44,41.79,103.4,42.51c139.8,1.46,216.52,16.22,241.35,46.35
			c7.85,9.53,10.66,20.64,8.34,32.91c-12.31,64.19-146.05,52.41-275.36,40.98c-82.32-7.28-146.89,11.3-209.38,29.25
			c-31.74,9.15-64.53,18.54-99.4,24.59C416.14,1088.03,379.52,1091.34,345.37,1091.34z M797.45,711.57
			c-27.43,0-53.89,5.82-71.16,20.07c-10.83,8.96-15.38,17.58-13.87,26.4c3.98,23.09,48.21,43.95,64.93,50.06l-0.12,0.3
			c78.34-12.23,117.63-21.81,127.85-47.56c3.9-9.79-4.67-18.61-12.53-24.29C872.29,721.96,834.04,711.57,797.45,711.57z"/>
		<path class="st5" d="M155,861.58c-3.54,3.52-10.16,6.87-14.24,9.98c-4.35,3.28-8.08,7.23-12.07,10.92
			c-9.51,8.74-17.15,19.69-23.05,31.09c-5.23,10.11-7.65,22.14-8.42,33.39c-0.83,12.12,4.68,24.34,9.64,35.06
			c0.11,0.22,0.42-0.05,0.35-0.24c-9.46-25.58-6.11-52.79,7.4-76.35c5.57-9.73,12.21-18.16,19.94-26.25
			c6.3-6.61,14.56-10.94,20.58-17.48C155.22,861.6,155.1,861.5,155,861.58z"/>
		<path class="st5" d="M737.37,910.94c-16.05-5.32-32.02-12.31-44.76-23.67c-9.2-8.14-13.89-22.55-10.32-34.34
			c3.95-13.39,14.01-20.26,25.08-27.52c0.07-0.08,0.02-0.17-0.05-0.13c-10.08,6.06-18.35,11.21-24.88,21.08
			c-6.42,9.73-6.18,20.1-2.16,30.73c7.86,21.01,36.19,32,56.62,34.8C737.35,911.95,737.9,911.14,737.37,910.94z"/>
		<path class="st5" d="M794.06,1026.24c-14.47-2.37-29.17-4.6-43.83-4.84c-13.7-0.19-28.55-2.3-42.15-0.31
			c-14.66,2.14-29.63,1.51-44.29,4.34c-14.89,2.87-29.43,7.14-44.19,10.35c-0.02,0-0.05,0.09,0,0.09
			c13.27-2.15,26.47-5.49,39.83-7.45c14.89-2.18,30.2-1.27,45-3.33c14.44-2.06,30.22-0.91,44.74-0.86
			c15.04,0.05,29.72,0.72,44.71,2.49C794.14,1026.77,794.38,1026.29,794.06,1026.24z"/>
		<path class="st5" d="M726.57,719.52c-9.27,8.62-18.25,15.12-22.04,27.78c-3.47,11.55,2.53,22.66,10.4,30.61
			c0.24,0.24,0.67-0.24,0.48-0.52c-6.61-8.29-9.53-19.76-8.77-30.28c0.83-12.09,12.19-19.71,20.05-27.49
			C726.76,719.55,726.69,719.45,726.57,719.52z"/>
		<path class="st5" d="M895.86,730.4c-0.09-0.05-0.22,0.1-0.14,0.14c11.07,9.48,16.79,24.24,9.87,37.94
			c-6.87,13.61-24,18.97-37,25.01c-0.26,0.11-0.31,0.62,0.07,0.47c15.06-6.33,34.61-10.66,41.15-27.69
			C915.71,750.9,908.98,738.95,895.86,730.4z"/>
	</g>
	<g>
		<path class="st6" d="M754.31,360.5c0,174.07-84.76,315.19-189.31,315.19c-104.55,0-189.29-141.12-189.29-315.19
			c0-174.08,84.74-315.2,189.29-315.2C669.55,45.3,754.31,186.42,754.31,360.5z"/>
		<path class="st2" d="M789.83,360.83c0-138.77-56.29-256.76-134.7-300.3V42.52H588.3c-111.28,0-201.45,142.53-201.45,318.31
			c0,175.8,90.18,318.31,201.45,318.31h66.82v-17.98C733.54,617.61,789.83,499.63,789.83,360.83z"/>
		<path class="st2" d="M450.73,554.12c-26.73-51.52-39.64-109.4-42.46-167.1c-2.81-57.82,2.44-116.35,22.97-170.9
			c18.61-49.48,47.81-98.17,89.6-131.77c22.68-18.28,48.09-31.42,74.8-41.82h-7.33c-111.28,0-201.45,142.53-201.45,318.31
			c0,161.86,76.45,295.36,175.42,315.58C514.94,647.91,476,602.83,450.73,554.12z"/>
		<path class="st2" d="M718.14,117.56c-18.47-24.59-39.76-44.12-63.02-57.02V42.52H588.3c-49.48,0-94.75,28.27-129.81,75.04H718.14z
			"/>
		<path class="st3" d="M764.61,206.74c-4.96-14.04-10.51-27.5-16.72-40.15H428.77c-6.21,12.65-11.74,26.11-16.72,40.15H764.61z"/>
		<path class="st2" d="M404.77,492.13C436.43,602.4,506.7,679.14,588.3,679.14h66.82v-17.98c51.98-28.86,94.18-90.4,116.76-169.03
			H404.77z"/>
		<path class="st2" d="M456.45,601.37c35.28,48.41,81.43,77.77,131.85,77.77h66.82v-17.98c24.12-13.39,46.11-33.89,64.98-59.78
			H456.45z"/>
		<ellipse class="st0" cx="655.13" cy="360.83" rx="201.48" ry="318.31"/>
		<path class="st0" d="M842.26,242.76c-0.12,4.33-0.31,8.66-0.65,12.97c-6.35,78.18-47.73,159.49-116.69,200.91
			c-46.8,28.11-103.69,31.44-156.98,35.01c-21.89,1.44-43.59,5.1-65.55,5.51c-9.44,0.17-19.76,0.29-29.67-1.17
			c32.17,108.21,101.72,183.15,182.41,183.15c111.28,0,201.48-142.51,201.48-318.31C856.6,319.11,851.48,279.27,842.26,242.76z"/>
		<path class="st7" d="M838.83,467.03c-19.73,65.29-61.8,126.77-134.22,138.11c-88.57,13.89-169.43-33.96-212.83-107.92
			c-6.32-0.05-12.77-0.31-19.07-1.22c32.17,108.21,101.72,183.15,182.41,183.15c109.07,0,197.88-136.97,201.33-307.96
			C853.75,403.85,848.2,436.09,838.83,467.03z"/>
		<path class="st8" d="M826.69,360.83c0,127.23-58.58,230.36-130.84,230.36C623.58,591.19,565,488.06,565,360.83
			c0-127.23,58.58-230.36,130.85-230.36C768.1,130.47,826.69,233.6,826.69,360.83z"/>
		<path class="st9" d="M816.96,360.83c0,122.48-56.41,221.78-126.01,221.78c-69.55,0-125.96-99.3-125.96-221.78
			c0-122.49,56.4-221.77,125.96-221.77C760.56,139.07,816.96,238.35,816.96,360.83z"/>
		<path class="st10" d="M638.77,50.81c0,0-132.23,23.52-167.03,223.97c-34.8,200.47,52.88,385.71,167.03,395.38
			c0,0-90.49-20.72-133.62-149.29C461.7,391.39,445.29,168.34,638.77,50.81z"/>
		<polygon class="st11" points="696.54,200.15 726.09,301.39 792.17,317.62 744.37,396.43 755.65,507.67 696.54,455.15 
			637.43,507.67 648.71,396.43 600.88,317.62 666.98,301.39 		"/>
		<path class="st12" d="M599.49,439.39c35.54-36.36,75.66-68.7,118.82-95.71c29.6-18.52,60.72-35.01,92.91-49.13
			c-16-90.1-63.8-155.49-120.26-155.49C621.4,139.07,565,238.35,565,360.83c0,36.5,5.03,70.85,13.89,101.22
			C585.55,454.31,592.32,446.67,599.49,439.39z"/>
		<path class="st13" d="M541.33,335.64c0,0,15.33-212.93,143.4-225.33c0,0,77.91-9.7,115.51,91.23c0,0,11.14,26.25,12.53,2.76
			c1.39-23.52-19.14-109.58-117.98-135.83c0,0-73.05-21.43-143.01,77.77c-72.05,102.15-57.75,236.4-46.63,266.82
			C516.26,443.46,544.11,419.94,541.33,335.64z"/>
	</g>
	<path class="st10" d="M412.93,132.72c0,0-78.29,110.97-58.46,287.23C354.47,419.94,321.06,244.71,412.93,132.72z"/>
	<path class="st10" d="M370.11,498.74c0,0,29.24,118.2,117.98,164.88C488.09,663.62,408.76,614.86,370.11,498.74z"/>
</g>
</svg>
