<?xml version="1.0" encoding="utf-8"?>
<!-- Generator: Adobe Illustrator 26.0.3, SVG Export Plug-In . SVG Version: 6.00 Build 0)  -->
<svg version="1.1" id="Layer_1" xmlns="http://www.w3.org/2000/svg" xmlns:xlink="http://www.w3.org/1999/xlink" x="0px" y="0px"
	 viewBox="0 0 1133.86 1133.86" style="enable-background:new 0 0 1133.86 1133.86;" xml:space="preserve">
<style type="text/css">
	.st0{fill:#016D37;}
	.st1{fill:#078433;}
	.st2{fill:#82C335;}
	.st3{opacity:0.57;fill:#82C335;stroke:#7BA532;stroke-width:4.9556;stroke-miterlimit:10;}
</style>
<g>
	<path class="st0" d="M1048.29,209.94c-24.07-25.04-32.22,5.03-72.75-28.65c-40.52-33.68-71-6.98-71-6.98
		c-2.89,1.99-6.34,5.73-8.6,8.37l-0.03-0.01c0,0-0.27,0.34-0.8,1c-0.99,1.19-1.61,1.98-1.61,1.98
		c-24.3,29.66-230.96,275.61-575.3,492.23C51.36,845.71,3.39,912.35,47.11,1000.63s95.81,88.46,228.98,46.99
		c133.17-41.47,281.78-134.42,459.03-283.4c177.21-148.95,290.15-405.87,318.54-517.53
		C1058.74,237.03,1061.27,223.44,1048.29,209.94z"/>
	<path class="st1" d="M976.17,181.76c-0.21-0.17-0.41-0.34-0.62-0.51c-40.52-33.68-71-6.98-71-6.98c-2.89,1.99-6.34,5.73-8.6,8.37
		l-0.03-0.01c0,0-0.27,0.34-0.8,1c-0.99,1.19-1.61,1.98-1.61,1.98c-24.3,29.66-230.96,275.61-575.3,492.23
		C104.47,812.27,31.15,881.78,32.9,949.49C202.12,860.67,691.49,581,976.17,181.76z"/>
	<path class="st1" d="M1031.23,199.35c-284.44,583.06-806.28,785.6-960.8,838.81c40.4,49.6,95.07,43.89,205.66,9.45
		c133.17-41.47,281.78-134.42,459.03-283.4c177.21-148.95,290.15-405.87,318.54-517.53c5.08-9.65,7.61-23.24-5.37-36.75
		C1047.73,209.35,1031.77,199.87,1031.23,199.35z"/>
	<path class="st2" d="M940.61,185.12c7.59,6.38,16.94,9.86,26.24,10.21c11.65,0.44,32.99,4.29,57.53,23.13
		c37.14,28.52,29.94-12.62,17.14-58.5s11.78-29.59,24.53-83.99c12.74-54.4-27.9-44.44-41.68-29.61
		c-13.78,14.83-24.91,57.1-63.29,79.57C928.89,144.78,918.06,166.15,940.61,185.12z"/>
	<path class="st3" d="M958.23,184.06c0,0-26.4-21.48,19.75-47.1c29.47-16.36,53.25-76.21,58.11-85.68"/>
	<path class="st3" d="M1003.05,197.47c0,0,33.86,5.38,22.05-46.07c-5.15-22.44,22.08-68.78,25.92-78.71"/>
	<path class="st3" d="M984.09,186.35c0,0,11.26-36.74,26.79-62.69"/>
</g>
</svg>
